<svg version="1.1" xmlns="http://www.w3.org/2000/svg" xmlns:xlink="http://www.w3.org/1999/xlink" width="500" height="500" style="width: 500px; height: 500px;"><defs><clipPath id="yhbskfSrpXze"><path fill="none" stroke="none" d=" M 67 33 L 470 33 L 470 439 L 67 439 L 67 33 Z"/></clipPath><clipPath id="FyVyhEhMkAlS"><path fill="none" stroke="none" d=" M 67 33 L 470 33 L 470 439 L 67 439 L 67 33 Z"/></clipPath><clipPath id="vmXnVUVaNWyx"><path fill="none" stroke="none" d=" M 67 33 L 470 33 L 470 439 L 67 439 L 67 33 Z"/></clipPath><clipPath id="cyGOSnQgydEQ"><path fill="none" stroke="none" d=" M 67 33 L 470 33 L 470 439 L 67 439 L 67 33 Z"/></clipPath><clipPath id="lGNCOiuQsNIs"><path fill="none" stroke="none" d=" M 67 33 L 470 33 L 470 439 L 67 439 L 67 33 Z"/></clipPath><clipPath id="EnAWCbHhuSQy"><path fill="none" stroke="none" d=" M 67 33 L 470 33 L 470 439 L 67 439 L 67 33 Z"/></clipPath><clipPath id="bJcguiLMWgRK"><path fill="none" stroke="none" d=" M 67 33 L 470 33 L 470 439 L 67 439 L 67 33 Z"/></clipPath><clipPath id="DVXTGkVGvbNf"><path fill="none" stroke="none" d=" M 67 33 L 470 33 L 470 439 L 67 439 L 67 33 Z"/></clipPath><clipPath id="zowdktcWwzRD"><path fill="none" stroke="none" d=" M 67 33 L 470 33 L 470 439 L 67 439 L 67 33 Z"/></clipPath><clipPath id="AWLKOGHTwplT"><path fill="none" stroke="none" d=" M 67 33 L 470 33 L 470 439 L 67 439 L 67 33 Z"/></clipPath><clipPath id="HLiTUbnTXcTN"><path fill="none" stroke="none" d=" M 67 33 L 470 33 L 470 439 L 67 439 L 67 33 Z"/></clipPath><clipPath id="ocrpGGGrZnVi"><path fill="none" stroke="none" d=" M 67 33 L 470 33 L 470 439 L 67 439 L 67 33 Z"/></clipPath></defs><g transform="scale(1,1) translate(0.5,0.5) scale(1,1) translate(0.5,0.5)"><rect fill="#ffffff" stroke="none" x="0" y="0" width="500" height="500"/><rect fill="#FFFFFF" stroke="none" x="67" y="33" width="403" height="406"/><rect fill="#ffffff" stroke="none" x="67" y="33" width="403" height="406"/><g><rect fill="none" stroke="#e5e5e5" x="67" y="33" width="403" height="406" stroke-linejoin="bevel" stroke-miterlimit="10"/></g><g clip-path="url(#bJcguiLMWgRK)"><g><g><path fill="none" stroke="#e5e5e5" paint-order="fill stroke markers" d=" M 72 439 L 72 33" stroke-linejoin="bevel" stroke-miterlimit="10"/><path fill="none" stroke="#e5e5e5" paint-order="fill stroke markers" d=" M 148 439 L 148 33" stroke-linejoin="bevel" stroke-miterlimit="10"/><path fill="none" stroke="#e5e5e5" paint-order="fill stroke markers" d=" M 223 439 L 223 33" stroke-linejoin="bevel" stroke-miterlimit="10"/><path fill="none" stroke="#e5e5e5" paint-order="fill stroke markers" d=" M 299 439 L 299 33" stroke-linejoin="bevel" stroke-miterlimit="10"/><path fill="none" stroke="#e5e5e5" paint-order="fill stroke markers" d=" M 374 439 L 374 33" stroke-linejoin="bevel" stroke-miterlimit="10"/><path fill="none" stroke="#e5e5e5" paint-order="fill stroke markers" d=" M 450 439 L 450 33" stroke-linejoin="bevel" stroke-miterlimit="10"/></g></g></g><g clip-path="url(#DVXTGkVGvbNf)"><g><g><path fill="none" stroke="#e5e5e5" paint-order="fill stroke markers" d=" M 67 410 L 470 410" stroke-linejoin="bevel" stroke-miterlimit="10"/><path fill="none" stroke="#e5e5e5" paint-order="fill stroke markers" d=" M 67 345 L 470 345" stroke-linejoin="bevel" stroke-miterlimit="10"/><path fill="none" stroke="#e5e5e5" paint-order="fill stroke markers" d=" M 67 279 L 470 279" stroke-linejoin="bevel" stroke-miterlimit="10"/><path fill="none" stroke="#e5e5e5" paint-order="fill stroke markers" d=" M 67 214 L 470 214" stroke-linejoin="bevel" stroke-miterlimit="10"/><path fill="none" stroke="#e5e5e5" paint-order="fill stroke markers" d=" M 67 149 L 470 149" stroke-linejoin="bevel" stroke-miterlimit="10"/><path fill="none" stroke="#e5e5e5" paint-order="fill stroke markers" d=" M 67 84 L 470 84" stroke-linejoin="bevel" stroke-miterlimit="10"/></g></g></g><g clip-path="url(#zowdktcWwzRD)"><g><g><path fill="none" stroke="none"/><path fill="blue" stroke="blue" paint-order="fill stroke markers" d=" M 87.81818181818187 51.454545454545496 A 2.5 2.5 0 1 1 87.81818056818197 51.45204545496216" fill-opacity="0.3" stroke-linejoin="bevel" stroke-miterlimit="10"/><path fill="blue" stroke="blue" paint-order="fill stroke markers" d=" M 89.71628746307826 54.13046556867948 A 2.5 2.5 0 1 1 89.71628621307836 54.12796556909615" fill-opacity="0.3" stroke-linejoin="bevel" stroke-miterlimit="10"/><path fill="blue" stroke="blue" paint-order="fill stroke markers" d=" M 91.74055262901496 56.967598670306415 A 2.5 2.5 0 1 1 91.74055137901506 56.96509867072308" fill-opacity="0.3" stroke-linejoin="bevel" stroke-miterlimit="10"/><path fill="blue" stroke="blue" paint-order="fill stroke markers" d=" M 93.89117800708111 60.414125007759594 A 2.5 2.5 0 1 1 93.89117675708121 60.41162500817626" fill-opacity="0.3" stroke-linejoin="bevel" stroke-miterlimit="10"/><path fill="blue" stroke="blue" paint-order="fill stroke markers" d=" M 96.1681635972767 62.614236930390234 A 2.5 2.5 0 1 1 96.1681623472768 62.6117369308069" fill-opacity="0.3" stroke-linejoin="bevel" stroke-miterlimit="10"/><path fill="blue" stroke="blue" paint-order="fill stroke markers" d=" M 98.57177920192282 65.16503316785338 A 2.5 2.5 0 1 1 98.57177795192293 65.16253316827004" fill-opacity="0.3" stroke-linejoin="bevel" stroke-miterlimit="10"/><path fill="blue" stroke="blue" paint-order="fill stroke markers" d=" M 101.10149903832132 68.68113797779961 A 2.5 2.5 0 1 1 101.10149778832142 68.67863797821627" fill-opacity="0.3" stroke-linejoin="bevel" stroke-miterlimit="10"/><path fill="blue" stroke="blue" paint-order="fill stroke markers" d=" M 103.75757908684926 71.54268244352033 A 2.5 2.5 0 1 1 103.75757783684936 71.540182443937" fill-opacity="0.3" stroke-linejoin="bevel" stroke-miterlimit="10"/><path fill="blue" stroke="blue" paint-order="fill stroke markers" d=" M 106.54001934750664 76.04315469387711 A 2.5 2.5 0 1 1 106.54001809750675 76.04065469429378" fill-opacity="0.3" stroke-linejoin="bevel" stroke-miterlimit="10"/><path fill="blue" stroke="blue" paint-order="fill stroke markers" d=" M 109.44881982029347 79.23444521149395 A 2.5 2.5 0 1 1 109.44881857029357 79.23194521191061" fill-opacity="0.3" stroke-linejoin="bevel" stroke-miterlimit="10"/><path fill="blue" stroke="blue" paint-order="fill stroke markers" d=" M 112.48431941876277 84.62363829471315 A 2.5 2.5 0 1 1 112.48431816876287 84.62113829512981" fill-opacity="0.3" stroke-linejoin="bevel" stroke-miterlimit="10"/><path fill="blue" stroke="blue" paint-order="fill stroke markers" d=" M 115.6458541377525 88.16447862787936 A 2.5 2.5 0 1 1 115.6458528877526 88.16197862829603" fill-opacity="0.3" stroke-linejoin="bevel" stroke-miterlimit="10"/><path fill="blue" stroke="blue" paint-order="fill stroke markers" d=" M 118.93374906887163 91.55951498511604 A 2.5 2.5 0 1 1 118.93374781887174 91.5570149855327" fill-opacity="0.3" stroke-linejoin="bevel" stroke-miterlimit="10"/><path fill="blue" stroke="blue" paint-order="fill stroke markers" d=" M 122.34800421212026 95.36359235426562 A 2.5 2.5 0 1 1 122.34800296212036 95.36109235468228" fill-opacity="0.3" stroke-linejoin="bevel" stroke-miterlimit="10"/><path fill="blue" stroke="blue" paint-order="fill stroke markers" d=" M 125.88901377033929 100.03852029246582 A 2.5 2.5 0 1 1 125.88901252033939 100.03602029288248" fill-opacity="0.3" stroke-linejoin="bevel" stroke-miterlimit="10"/><path fill="blue" stroke="blue" paint-order="fill stroke markers" d=" M 129.5560031597908 103.94337527185053 A 2.5 2.5 0 1 1 129.55600190979092 103.94087527226719" fill-opacity="0.3" stroke-linejoin="bevel" stroke-miterlimit="10"/><path fill="blue" stroke="blue" paint-order="fill stroke markers" d=" M 133.34935276137173 108.75696391967813 A 2.5 2.5 0 1 1 133.34935151137185 108.75446392009479" fill-opacity="0.3" stroke-linejoin="bevel" stroke-miterlimit="10"/><path fill="blue" stroke="blue" paint-order="fill stroke markers" d=" M 137.26906257508213 113.36514484500822 A 2.5 2.5 0 1 1 137.26906132508225 113.36264484542488" fill-opacity="0.3" stroke-linejoin="bevel" stroke-miterlimit="10"/><path fill="blue" stroke="blue" paint-order="fill stroke markers" d=" M 141.31513260092197 119.16414737539435 A 2.5 2.5 0 1 1 141.3151313509221 119.16164737581101" fill-opacity="0.3" stroke-linejoin="bevel" stroke-miterlimit="10"/><path fill="blue" stroke="blue" paint-order="fill stroke markers" d=" M 145.4880261529642 123.2980467605812 A 2.5 2.5 0 1 1 145.48802490296433 123.29554676099787" fill-opacity="0.3" stroke-linejoin="bevel" stroke-miterlimit="10"/><path fill="blue" stroke="blue" paint-order="fill stroke markers" d=" M 149.78683042500694 127.94209349533367 A 2.5 2.5 0 1 1 149.78682917500706 127.93959349575033" fill-opacity="0.3" stroke-linejoin="bevel" stroke-miterlimit="10"/><path fill="blue" stroke="blue" paint-order="fill stroke markers" d=" M 154.21199490917908 133.5571175858954 A 2.5 2.5 0 1 1 154.2119936591792 133.55461758631208" fill-opacity="0.3" stroke-linejoin="bevel" stroke-miterlimit="10"/><path fill="blue" stroke="blue" paint-order="fill stroke markers" d=" M 158.76351960548075 137.74937586119768 A 2.5 2.5 0 1 1 158.76351835548087 137.74687586161434" fill-opacity="0.3" stroke-linejoin="bevel" stroke-miterlimit="10"/><path fill="blue" stroke="blue" paint-order="fill stroke markers" d=" M 163.44192311727267 142.91474014562618 A 2.5 2.5 0 1 1 163.44192186727278 142.91224014604285" fill-opacity="0.3" stroke-linejoin="bevel" stroke-miterlimit="10"/><path fill="blue" stroke="blue" paint-order="fill stroke markers" d=" M 168.24618205977723 148.49870657028623 A 2.5 2.5 0 1 1 168.24618080977734 148.4962065707029" fill-opacity="0.3" stroke-linejoin="bevel" stroke-miterlimit="10"/><path fill="blue" stroke="blue" paint-order="fill stroke markers" d=" M 173.17680121441117 154.13761218133914 A 2.5 2.5 0 1 1 173.1767999644113 154.1351121817558" fill-opacity="0.3" stroke-linejoin="bevel" stroke-miterlimit="10"/><path fill="blue" stroke="blue" paint-order="fill stroke markers" d=" M 178.23378058117456 158.8622370645653 A 2.5 2.5 0 1 1 178.23377933117467 158.85973706498197" fill-opacity="0.3" stroke-linejoin="bevel" stroke-miterlimit="10"/><path fill="blue" stroke="blue" paint-order="fill stroke markers" d=" M 183.4171201600674 167.21999748996268 A 2.5 2.5 0 1 1 183.41711891006753 167.21749749037934" fill-opacity="0.3" stroke-linejoin="bevel" stroke-miterlimit="10"/><path fill="blue" stroke="blue" paint-order="fill stroke markers" d=" M 188.72740766568253 172.2320512394749 A 2.5 2.5 0 1 1 188.72740641568265 172.22955123989158" fill-opacity="0.3" stroke-linejoin="bevel" stroke-miterlimit="10"/><path fill="blue" stroke="blue" paint-order="fill stroke markers" d=" M 194.16348149077834 175.4005181731918 A 2.5 2.5 0 1 1 194.16348024077845 175.39801817360848" fill-opacity="0.3" stroke-linejoin="bevel" stroke-miterlimit="10"/><path fill="blue" stroke="blue" paint-order="fill stroke markers" d=" M 199.72591552800344 181.72208966188919 A 2.5 2.5 0 1 1 199.72591427800356 181.71958966230585" fill-opacity="0.3" stroke-linejoin="bevel" stroke-miterlimit="10"/><path fill="blue" stroke="blue" paint-order="fill stroke markers" d=" M 205.4147097773581 189.04263243744072 A 2.5 2.5 0 1 1 205.41470852735821 189.04013243785738" fill-opacity="0.3" stroke-linejoin="bevel" stroke-miterlimit="10"/><path fill="blue" stroke="blue" paint-order="fill stroke markers" d=" M 211.22986423884217 196.35644655374472 A 2.5 2.5 0 1 1 211.22986298884229 196.35394655416138" fill-opacity="0.3" stroke-linejoin="bevel" stroke-miterlimit="10"/><path fill="blue" stroke="blue" paint-order="fill stroke markers" d=" M 217.17203573828053 203.26586190957778 A 2.5 2.5 0 1 1 217.17203448828064 203.26336190999444" fill-opacity="0.3" stroke-linejoin="bevel" stroke-miterlimit="10"/><path fill="blue" stroke="blue" paint-order="fill stroke markers" d=" M 223.2399244459675 209.1299606351913 A 2.5 2.5 0 1 1 223.2399231959676 209.12746063560797" fill-opacity="0.3" stroke-linejoin="bevel" stroke-miterlimit="10"/><path fill="blue" stroke="blue" paint-order="fill stroke markers" d=" M 229.43417336578386 214.36592166485298 A 2.5 2.5 0 1 1 229.43417211578398 214.36342166526964" fill-opacity="0.3" stroke-linejoin="bevel" stroke-miterlimit="10"/><path fill="blue" stroke="blue" paint-order="fill stroke markers" d=" M 235.75478249772974 220.95304350388915 A 2.5 2.5 0 1 1 235.75478124772985 220.9505435043058" fill-opacity="0.3" stroke-linejoin="bevel" stroke-miterlimit="10"/><path fill="blue" stroke="blue" paint-order="fill stroke markers" d=" M 242.20246395691777 225.6112482480412 A 2.5 2.5 0 1 1 242.20246270691788 225.60874824845786" fill-opacity="0.3" stroke-linejoin="bevel" stroke-miterlimit="10"/><path fill="blue" stroke="blue" paint-order="fill stroke markers" d=" M 248.77580733506653 232.74858710011995 A 2.5 2.5 0 1 1 248.77580608506665 232.7460871005366" fill-opacity="0.3" stroke-linejoin="bevel" stroke-miterlimit="10"/><path fill="blue" stroke="blue" paint-order="fill stroke markers" d=" M 255.47551092534476 240.68649036618763 A 2.5 2.5 0 1 1 255.47550967534488 240.6839903666043" fill-opacity="0.3" stroke-linejoin="bevel" stroke-miterlimit="10"/><path fill="blue" stroke="blue" paint-order="fill stroke markers" d=" M 262.30157472775244 247.49306994588324 A 2.5 2.5 0 1 1 262.3015734777525 247.4905699462999" fill-opacity="0.3" stroke-linejoin="bevel" stroke-miterlimit="10"/><path fill="blue" stroke="blue" paint-order="fill stroke markers" d=" M 269.2539987422894 253.6244914504723 A 2.5 2.5 0 1 1 269.2539974922895 253.62199145088897" fill-opacity="0.3" stroke-linejoin="bevel" stroke-miterlimit="10"/><path fill="blue" stroke="blue" paint-order="fill stroke markers" d=" M 276.3335641953008 259.69120443047586 A 2.5 2.5 0 1 1 276.3335629453009 259.6887044308925" fill-opacity="0.3" stroke-linejoin="bevel" stroke-miterlimit="10"/><path fill="blue" stroke="blue" paint-order="fill stroke markers" d=" M 283.53872245604066 265.7711631229258 A 2.5 2.5 0 1 1 283.53872120604075 265.7686631233425" fill-opacity="0.3" stroke-linejoin="bevel" stroke-miterlimit="10"/><path fill="blue" stroke="blue" paint-order="fill stroke markers" d=" M 290.8702409289101 272.2555831455643 A 2.5 2.5 0 1 1 290.8702396789102 272.25308314598095" fill-opacity="0.3" stroke-linejoin="bevel" stroke-miterlimit="10"/><path fill="blue" stroke="blue" paint-order="fill stroke markers" d=" M 298.32811961390894 279.7129706314263 A 2.5 2.5 0 1 1 298.328118363909 279.71047063184295" fill-opacity="0.3" stroke-linejoin="bevel" stroke-miterlimit="10"/><path fill="blue" stroke="blue" paint-order="fill stroke markers" d=" M 305.9131950266699 286.23147467398985 A 2.5 2.5 0 1 1 305.91319377666997 286.2289746744065" fill-opacity="0.3" stroke-linejoin="bevel" stroke-miterlimit="10"/><path fill="blue" stroke="blue" paint-order="fill stroke markers" d=" M 313.6238079578717 293.87912395664125 A 2.5 2.5 0 1 1 313.6238067078718 293.8766239570579" fill-opacity="0.3" stroke-linejoin="bevel" stroke-miterlimit="10"/><path fill="blue" stroke="blue" paint-order="fill stroke markers" d=" M 321.46078110120294 299.4400805573955 A 2.5 2.5 0 1 1 321.46077985120303 299.43758055781217" fill-opacity="0.3" stroke-linejoin="bevel" stroke-miterlimit="10"/><path fill="blue" stroke="blue" paint-order="fill stroke markers" d=" M 329.4241144566636 304.42031028603833 A 2.5 2.5 0 1 1 329.42411320666366 304.417810286455" fill-opacity="0.3" stroke-linejoin="bevel" stroke-miterlimit="10"/><path fill="blue" stroke="blue" paint-order="fill stroke markers" d=" M 337.51380802425365 311.42547122763017 A 2.5 2.5 0 1 1 337.51380677425374 311.42297122804683" fill-opacity="0.3" stroke-linejoin="bevel" stroke-miterlimit="10"/><path fill="blue" stroke="blue" paint-order="fill stroke markers" d=" M 345.7307674308379 319.6553745720885 A 2.5 2.5 0 1 1 345.730766180838 319.65287457250514" fill-opacity="0.3" stroke-linejoin="bevel" stroke-miterlimit="10"/><path fill="blue" stroke="blue" paint-order="fill stroke markers" d=" M 354.0731952446308 327.0906663616702 A 2.5 2.5 0 1 1 354.0731939946309 327.08816636208684" fill-opacity="0.3" stroke-linejoin="bevel" stroke-miterlimit="10"/><path fill="blue" stroke="blue" paint-order="fill stroke markers" d=" M 362.54198327055326 331.39021541948887 A 2.5 2.5 0 1 1 362.54198202055335 331.38771541990553" fill-opacity="0.3" stroke-linejoin="bevel" stroke-miterlimit="10"/><path fill="blue" stroke="blue" paint-order="fill stroke markers" d=" M 371.1371315086051 336.0495205571765 A 2.5 2.5 0 1 1 371.13713025860517 336.04702055759316" fill-opacity="0.3" stroke-linejoin="bevel" stroke-miterlimit="10"/><path fill="blue" stroke="blue" paint-order="fill stroke markers" d=" M 379.85960087493913 342.6546343652835 A 2.5 2.5 0 1 1 379.8595996249392 342.6521343657002" fill-opacity="0.3" stroke-linejoin="bevel" stroke-miterlimit="10"/><path fill="blue" stroke="blue" paint-order="fill stroke markers" d=" M 388.7074833591939 350.2635252934183 A 2.5 2.5 0 1 1 388.70748210919396 350.26102529383496" fill-opacity="0.3" stroke-linejoin="bevel" stroke-miterlimit="10"/><path fill="blue" stroke="blue" paint-order="fill stroke markers" d=" M 397.681726055578 358.78173027339017 A 2.5 2.5 0 1 1 397.6817248055781 358.77923027380683" fill-opacity="0.3" stroke-linejoin="bevel" stroke-miterlimit="10"/><path fill="blue" stroke="blue" paint-order="fill stroke markers" d=" M 406.78232896409173 366.34861085253715 A 2.5 2.5 0 1 1 406.7823277140918 366.3461108529538" fill-opacity="0.3" stroke-linejoin="bevel" stroke-miterlimit="10"/><path fill="blue" stroke="blue" paint-order="fill stroke markers" d=" M 416.0092920847347 373.9267797243115 A 2.5 2.5 0 1 1 416.00929083473477 373.92427972472814" fill-opacity="0.3" stroke-linejoin="bevel" stroke-miterlimit="10"/><path fill="blue" stroke="blue" paint-order="fill stroke markers" d=" M 425.3636454448919 381.03924162684734 A 2.5 2.5 0 1 1 425.363644194892 381.036741627264" fill-opacity="0.3" stroke-linejoin="bevel" stroke-miterlimit="10"/><path fill="blue" stroke="blue" paint-order="fill stroke markers" d=" M 434.8433428117378 384.4741000859408 A 2.5 2.5 0 1 1 434.8433415617379 384.47160008635745" fill-opacity="0.3" stroke-linejoin="bevel" stroke-miterlimit="10"/><path fill="blue" stroke="blue" paint-order="fill stroke markers" d=" M 444.44940039071327 390.5234674336443 A 2.5 2.5 0 1 1 444.44939914071335 390.520967434061" fill-opacity="0.3" stroke-linejoin="bevel" stroke-miterlimit="10"/><path fill="blue" stroke="blue" paint-order="fill stroke markers" d=" M 454.1818181818182 397.217114103463 A 2.5 2.5 0 1 1 454.1818169318183 397.2146141038797" fill-opacity="0.3" stroke-linejoin="bevel" stroke-miterlimit="10"/></g></g></g><g clip-path="url(#AWLKOGHTwplT)"><g><g><path fill="none" stroke="none"/><path fill="none" stroke="red" paint-order="fill stroke markers" d=" M 85.31818181818187 66.46851139505043 L 87.21628746307826 68.30296049920344 L 89.24055262901496 70.25933812771154 L 91.39117800708111 72.33783824111106 L 93.6681635972767 74.53846083940243 L 96.07177920192282 76.86146667657795 L 98.60149903832132 79.30634760305156 L 101.25757908684926 81.87335101441658 L 104.04001934750664 84.56247691067347 L 106.94881982029347 87.3737252918213 L 109.98431941876277 90.30742370531107 L 113.1458541377525 93.36293041464114 L 116.43374906887163 96.54055960886308 L 119.84800421212026 99.84031128797687 L 123.38901377033929 103.2625664344896 L 127.0560031597908 106.80657644178518 L 130.84935276137173 110.47270893397217 L 134.76906257508213 114.26096391105102 L 138.81513260092197 118.17134137302128 L 142.9880261529642 122.2042890958478 L 147.28683042500694 126.3589248860003 L 151.71199490917908 130.6356831610442 L 156.26351960548075 135.03456392097996 L 160.94192311727267 139.55606837682944 L 165.74618205977723 144.19920746494745 L 170.67680121441117 148.9644690379564 L 175.73378058117456 153.85185309585768 L 180.9171201600674 158.86135963865036 L 186.22740766568253 163.99355667081318 L 191.66348149077834 169.2473215417881 L 197.22591552800344 174.62320889765442 L 202.9147097773581 180.12121873841215 L 208.72986423884217 185.7413510640613 L 214.67203573828053 191.48424067253836 L 220.7399244459675 197.3486313263702 L 226.93417336578386 203.33514446509344 L 233.25478249772974 209.44378008870808 L 239.70246395691777 215.6752264302081 L 246.27580733506653 222.02812038200454 L 252.97551092534476 228.5031368186933 L 259.80157472775244 235.100275740273 L 266.7539987422894 241.819537146745 L 273.8335641953008 248.66167606455838 L 281.03872245604066 255.62519579921218 L 288.3702409289101 262.7108380187574 L 295.82811961390894 269.91860272319445 L 303.4131950266699 277.24929837403124 L 311.1238079578717 284.70132140665055 L 318.96078110120294 292.2754669241608 L 326.9241144566636 299.97173492656293 L 335.01380802425365 307.7901254138569 L 343.2307674308379 315.7315136410075 L 351.5731952446308 323.79416245648326 L 360.04198327055326 331.9789337568509 L 368.6371315086051 340.2858275421099 L 377.35960087493913 348.7157725022839 L 386.2074833591939 357.2669246157252 L 395.181726055578 365.9401992140579 L 404.28232896409173 374.7355962972824 L 413.5092920847347 383.6531158653979 L 422.8636454448919 392.6937534018855 L 432.3433428117378 401.85553129818345 L 441.94940039071327 411.13943167937305 L 451.6818181818182 420.5454545454545" stroke-linejoin="bevel" stroke-miterlimit="10" stroke-width="3"/></g></g></g><g clip-path="url(#HLiTUbnTXcTN)"><g><g/><g><path fill="#ffffff" stroke="#e5e5e5" paint-order="fill stroke markers" d=" M 357.20000076293945 43 L 460 43 L 460 106 L 357.20000076293945 106 L 357.20000076293945 43 Z" fill-opacity="0.95" stroke-linejoin="bevel" stroke-miterlimit="10" stroke-opacity="0.5"/><text fill="#444444" stroke="none" font-family="helvetica" font-size="10pt" font-style="normal" font-weight="normal" text-decoration="normal" x="392.20000076293945" y="63" text-anchor="start" dominant-baseline="central">Observed</text><path fill="blue" stroke="blue" paint-order="fill stroke markers" d=" M 381.20000076293945 63 A 4 4 0 1 1 381.19999876293963 62.99600000066666" fill-opacity="0.3" stroke-linejoin="bevel" stroke-miterlimit="10"/><text fill="#444444" stroke="none" font-family="helvetica" font-size="10pt" font-style="normal" font-weight="normal" text-decoration="normal" x="392.20000076293945" y="86" text-anchor="start" dominant-baseline="central">Predicted</text><g><path fill="none" stroke="red" paint-order="fill stroke markers" d=" M 367.20000076293945 86 L 387.20000076293945 86" stroke-linejoin="bevel" stroke-miterlimit="10" stroke-width="3"/></g></g></g></g><g><g fill="#444444"><path fill="" stroke="none" d=""/><g transform="translate(268.5,5)"><path fill="none" stroke="none"/><text fill="" stroke="none" font-family="helvetica" font-size="12pt" font-style="normal" font-weight="bold" text-decoration="normal" x="0" y="0" text-anchor="middle" dominant-baseline="text-before-edge">Guinier plot for SASDBY9 (R²=0.99)</text></g></g></g><g/><g><g fill="#444444"><path fill="none" stroke="black" paint-order="fill stroke markers" d=" M 67 439 L 470 439" stroke-linejoin="bevel" stroke-miterlimit="10"/><path fill="none" stroke="black" paint-order="fill stroke markers" d=" M 72 445 L 72 437" stroke-linejoin="bevel" stroke-miterlimit="10"/><path fill="none" stroke="black" paint-order="fill stroke markers" d=" M 148 445 L 148 437" stroke-linejoin="bevel" stroke-miterlimit="10"/><path fill="none" stroke="black" paint-order="fill stroke markers" d=" M 223 445 L 223 437" stroke-linejoin="bevel" stroke-miterlimit="10"/><path fill="none" stroke="black" paint-order="fill stroke markers" d=" M 299 445 L 299 437" stroke-linejoin="bevel" stroke-miterlimit="10"/><path fill="none" stroke="black" paint-order="fill stroke markers" d=" M 374 445 L 374 437" stroke-linejoin="bevel" stroke-miterlimit="10"/><path fill="none" stroke="black" paint-order="fill stroke markers" d=" M 450 445 L 450 437" stroke-linejoin="bevel" stroke-miterlimit="10"/><path fill="none" stroke="black" paint-order="fill stroke markers" d=" M 72 443 L 72 439" stroke-linejoin="bevel" stroke-miterlimit="10"/><path fill="none" stroke="black" paint-order="fill stroke markers" d=" M 87 443 L 87 439" stroke-linejoin="bevel" stroke-miterlimit="10"/><path fill="none" stroke="black" paint-order="fill stroke markers" d=" M 102 443 L 102 439" stroke-linejoin="bevel" stroke-miterlimit="10"/><path fill="none" stroke="black" paint-order="fill stroke markers" d=" M 117 443 L 117 439" stroke-linejoin="bevel" stroke-miterlimit="10"/><path fill="none" stroke="black" paint-order="fill stroke markers" d=" M 132 443 L 132 439" stroke-linejoin="bevel" stroke-miterlimit="10"/><path fill="none" stroke="black" paint-order="fill stroke markers" d=" M 148 443 L 148 439" stroke-linejoin="bevel" stroke-miterlimit="10"/><path fill="none" stroke="black" paint-order="fill stroke markers" d=" M 163 443 L 163 439" stroke-linejoin="bevel" stroke-miterlimit="10"/><path fill="none" stroke="black" paint-order="fill stroke markers" d=" M 178 443 L 178 439" stroke-linejoin="bevel" stroke-miterlimit="10"/><path fill="none" stroke="black" paint-order="fill stroke markers" d=" M 193 443 L 193 439" stroke-linejoin="bevel" stroke-miterlimit="10"/><path fill="none" stroke="black" paint-order="fill stroke markers" d=" M 208 443 L 208 439" stroke-linejoin="bevel" stroke-miterlimit="10"/><path fill="none" stroke="black" paint-order="fill stroke markers" d=" M 223 443 L 223 439" stroke-linejoin="bevel" stroke-miterlimit="10"/><path fill="none" stroke="black" paint-order="fill stroke markers" d=" M 238 443 L 238 439" stroke-linejoin="bevel" stroke-miterlimit="10"/><path fill="none" stroke="black" paint-order="fill stroke markers" d=" M 253 443 L 253 439" stroke-linejoin="bevel" stroke-miterlimit="10"/><path fill="none" stroke="black" paint-order="fill stroke markers" d=" M 269 443 L 269 439" stroke-linejoin="bevel" stroke-miterlimit="10"/><path fill="none" stroke="black" paint-order="fill stroke markers" d=" M 284 443 L 284 439" stroke-linejoin="bevel" stroke-miterlimit="10"/><path fill="none" stroke="black" paint-order="fill stroke markers" d=" M 299 443 L 299 439" stroke-linejoin="bevel" stroke-miterlimit="10"/><path fill="none" stroke="black" paint-order="fill stroke markers" d=" M 314 443 L 314 439" stroke-linejoin="bevel" stroke-miterlimit="10"/><path fill="none" stroke="black" paint-order="fill stroke markers" d=" M 329 443 L 329 439" stroke-linejoin="bevel" stroke-miterlimit="10"/><path fill="none" stroke="black" paint-order="fill stroke markers" d=" M 344 443 L 344 439" stroke-linejoin="bevel" stroke-miterlimit="10"/><path fill="none" stroke="black" paint-order="fill stroke markers" d=" M 359 443 L 359 439" stroke-linejoin="bevel" stroke-miterlimit="10"/><path fill="none" stroke="black" paint-order="fill stroke markers" d=" M 374 443 L 374 439" stroke-linejoin="bevel" stroke-miterlimit="10"/><path fill="none" stroke="black" paint-order="fill stroke markers" d=" M 390 443 L 390 439" stroke-linejoin="bevel" stroke-miterlimit="10"/><path fill="none" stroke="black" paint-order="fill stroke markers" d=" M 405 443 L 405 439" stroke-linejoin="bevel" stroke-miterlimit="10"/><path fill="none" stroke="black" paint-order="fill stroke markers" d=" M 420 443 L 420 439" stroke-linejoin="bevel" stroke-miterlimit="10"/><path fill="none" stroke="black" paint-order="fill stroke markers" d=" M 435 443 L 435 439" stroke-linejoin="bevel" stroke-miterlimit="10"/><path fill="none" stroke="black" paint-order="fill stroke markers" d=" M 450 443 L 450 439" stroke-linejoin="bevel" stroke-miterlimit="10"/><path fill="" stroke="black" paint-order="fill stroke markers" d=" M 465 443 L 465 439" stroke-linejoin="bevel" stroke-miterlimit="10"/><g transform="translate(72,450) rotate(0,0,0)"><text fill="" stroke="none" font-family="helvetica" font-size="14pt" font-style="normal" font-weight="normal" text-decoration="normal" x="0" y="0" text-anchor="middle" dominant-baseline="hanging">0</text><g transform="rotate(0,0,0) translate(-72,-450) translate(148,450) rotate(0,0,0)"><text fill="" stroke="none" font-family="helvetica" font-size="14pt" font-style="normal" font-weight="normal" text-decoration="normal" x="0" y="0" text-anchor="middle" dominant-baseline="hanging">0.1</text><g transform="rotate(0,0,0) translate(-148,-450) translate(223,450) rotate(0,0,0)"><text fill="" stroke="none" font-family="helvetica" font-size="14pt" font-style="normal" font-weight="normal" text-decoration="normal" x="0" y="0" text-anchor="middle" dominant-baseline="hanging">0.2</text><g transform="rotate(0,0,0) translate(-223,-450) translate(299,450) rotate(0,0,0)"><text fill="" stroke="none" font-family="helvetica" font-size="14pt" font-style="normal" font-weight="normal" text-decoration="normal" x="0" y="0" text-anchor="middle" dominant-baseline="hanging">0.3</text><g transform="rotate(0,0,0) translate(-299,-450) translate(374,450) rotate(0,0,0)"><text fill="" stroke="none" font-family="helvetica" font-size="14pt" font-style="normal" font-weight="normal" text-decoration="normal" x="0" y="0" text-anchor="middle" dominant-baseline="hanging">0.4</text><g transform="rotate(0,0,0) translate(-374,-450) translate(450,450) rotate(0,0,0)"><text fill="" stroke="none" font-family="helvetica" font-size="14pt" font-style="normal" font-weight="normal" text-decoration="normal" x="0" y="0" text-anchor="middle" dominant-baseline="hanging">0.5</text><g transform="rotate(0,0,0) translate(-450,-450) translate(269,477) rotate(0,0,0)"><text fill="" stroke="none" font-family="helvetica" font-size="14pt" font-style="italic" font-weight="normal" text-decoration="normal" x="0" y="0" text-anchor="middle" dominant-baseline="hanging">q² Å⁻²</text><g transform="rotate(0,0,0) translate(-269,-477)"/></g></g></g></g></g></g></g></g></g><g><g fill="#444444"><path fill="none" stroke="black" paint-order="fill stroke markers" d=" M 67 439 L 67 33" stroke-linejoin="bevel" stroke-miterlimit="10"/><path fill="none" stroke="black" paint-order="fill stroke markers" d=" M 61 410 L 69 410" stroke-linejoin="bevel" stroke-miterlimit="10"/><path fill="none" stroke="black" paint-order="fill stroke markers" d=" M 61 345 L 69 345" stroke-linejoin="bevel" stroke-miterlimit="10"/><path fill="none" stroke="black" paint-order="fill stroke markers" d=" M 61 279 L 69 279" stroke-linejoin="bevel" stroke-miterlimit="10"/><path fill="none" stroke="black" paint-order="fill stroke markers" d=" M 61 214 L 69 214" stroke-linejoin="bevel" stroke-miterlimit="10"/><path fill="none" stroke="black" paint-order="fill stroke markers" d=" M 61 149 L 69 149" stroke-linejoin="bevel" stroke-miterlimit="10"/><path fill="none" stroke="black" paint-order="fill stroke markers" d=" M 61 84 L 69 84" stroke-linejoin="bevel" stroke-miterlimit="10"/><path fill="none" stroke="black" paint-order="fill stroke markers" d=" M 63 423 L 67 423" stroke-linejoin="bevel" stroke-miterlimit="10"/><path fill="none" stroke="black" paint-order="fill stroke markers" d=" M 63 436 L 67 436" stroke-linejoin="bevel" stroke-miterlimit="10"/><path fill="none" stroke="black" paint-order="fill stroke markers" d=" M 63 410 L 67 410" stroke-linejoin="bevel" stroke-miterlimit="10"/><path fill="none" stroke="black" paint-order="fill stroke markers" d=" M 63 397 L 67 397" stroke-linejoin="bevel" stroke-miterlimit="10"/><path fill="none" stroke="black" paint-order="fill stroke markers" d=" M 63 384 L 67 384" stroke-linejoin="bevel" stroke-miterlimit="10"/><path fill="none" stroke="black" paint-order="fill stroke markers" d=" M 63 371 L 67 371" stroke-linejoin="bevel" stroke-miterlimit="10"/><path fill="none" stroke="black" paint-order="fill stroke markers" d=" M 63 358 L 67 358" stroke-linejoin="bevel" stroke-miterlimit="10"/><path fill="none" stroke="black" paint-order="fill stroke markers" d=" M 63 345 L 67 345" stroke-linejoin="bevel" stroke-miterlimit="10"/><path fill="none" stroke="black" paint-order="fill stroke markers" d=" M 63 332 L 67 332" stroke-linejoin="bevel" stroke-miterlimit="10"/><path fill="none" stroke="black" paint-order="fill stroke markers" d=" M 63 319 L 67 319" stroke-linejoin="bevel" stroke-miterlimit="10"/><path fill="none" stroke="black" paint-order="fill stroke markers" d=" M 63 306 L 67 306" stroke-linejoin="bevel" stroke-miterlimit="10"/><path fill="none" stroke="black" paint-order="fill stroke markers" d=" M 63 292 L 67 292" stroke-linejoin="bevel" stroke-miterlimit="10"/><path fill="none" stroke="black" paint-order="fill stroke markers" d=" M 63 279 L 67 279" stroke-linejoin="bevel" stroke-miterlimit="10"/><path fill="none" stroke="black" paint-order="fill stroke markers" d=" M 63 266 L 67 266" stroke-linejoin="bevel" stroke-miterlimit="10"/><path fill="none" stroke="black" paint-order="fill stroke markers" d=" M 63 253 L 67 253" stroke-linejoin="bevel" stroke-miterlimit="10"/><path fill="none" stroke="black" paint-order="fill stroke markers" d=" M 63 240 L 67 240" stroke-linejoin="bevel" stroke-miterlimit="10"/><path fill="none" stroke="black" paint-order="fill stroke markers" d=" M 63 227 L 67 227" stroke-linejoin="bevel" stroke-miterlimit="10"/><path fill="none" stroke="black" paint-order="fill stroke markers" d=" M 63 214 L 67 214" stroke-linejoin="bevel" stroke-miterlimit="10"/><path fill="none" stroke="black" paint-order="fill stroke markers" d=" M 63 201 L 67 201" stroke-linejoin="bevel" stroke-miterlimit="10"/><path fill="none" stroke="black" paint-order="fill stroke markers" d=" M 63 188 L 67 188" stroke-linejoin="bevel" stroke-miterlimit="10"/><path fill="none" stroke="black" paint-order="fill stroke markers" d=" M 63 175 L 67 175" stroke-linejoin="bevel" stroke-miterlimit="10"/><path fill="none" stroke="black" paint-order="fill stroke markers" d=" M 63 162 L 67 162" stroke-linejoin="bevel" stroke-miterlimit="10"/><path fill="none" stroke="black" paint-order="fill stroke markers" d=" M 63 149 L 67 149" stroke-linejoin="bevel" stroke-miterlimit="10"/><path fill="none" stroke="black" paint-order="fill stroke markers" d=" M 63 136 L 67 136" stroke-linejoin="bevel" stroke-miterlimit="10"/><path fill="none" stroke="black" paint-order="fill stroke markers" d=" M 63 123 L 67 123" stroke-linejoin="bevel" stroke-miterlimit="10"/><path fill="none" stroke="black" paint-order="fill stroke markers" d=" M 63 110 L 67 110" stroke-linejoin="bevel" stroke-miterlimit="10"/><path fill="none" stroke="black" paint-order="fill stroke markers" d=" M 63 97 L 67 97" stroke-linejoin="bevel" stroke-miterlimit="10"/><path fill="none" stroke="black" paint-order="fill stroke markers" d=" M 63 84 L 67 84" stroke-linejoin="bevel" stroke-miterlimit="10"/><path fill="none" stroke="black" paint-order="fill stroke markers" d=" M 63 71 L 67 71" stroke-linejoin="bevel" stroke-miterlimit="10"/><path fill="none" stroke="black" paint-order="fill stroke markers" d=" M 63 58 L 67 58" stroke-linejoin="bevel" stroke-miterlimit="10"/><path fill="" stroke="black" paint-order="fill stroke markers" d=" M 63 45 L 67 45" stroke-linejoin="bevel" stroke-miterlimit="10"/><g transform="translate(56,410) rotate(0,0,0)"><text fill="" stroke="none" font-family="helvetica" font-size="14pt" font-style="normal" font-weight="normal" text-decoration="normal" x="0" y="0" text-anchor="end" dominant-baseline="central">6.2</text><g transform="rotate(0,0,0) translate(-56,-410) translate(56,345) rotate(0,0,0)"><text fill="" stroke="none" font-family="helvetica" font-size="14pt" font-style="normal" font-weight="normal" text-decoration="normal" x="0" y="0" text-anchor="end" dominant-baseline="central">6.4</text><g transform="rotate(0,0,0) translate(-56,-345) translate(56,279) rotate(0,0,0)"><text fill="" stroke="none" font-family="helvetica" font-size="14pt" font-style="normal" font-weight="normal" text-decoration="normal" x="0" y="0" text-anchor="end" dominant-baseline="central">6.6</text><g transform="rotate(0,0,0) translate(-56,-279) translate(56,214) rotate(0,0,0)"><text fill="" stroke="none" font-family="helvetica" font-size="14pt" font-style="normal" font-weight="normal" text-decoration="normal" x="0" y="0" text-anchor="end" dominant-baseline="central">6.8</text><g transform="rotate(0,0,0) translate(-56,-214) translate(56,149) rotate(0,0,0)"><text fill="" stroke="none" font-family="helvetica" font-size="14pt" font-style="normal" font-weight="normal" text-decoration="normal" x="0" y="0" text-anchor="end" dominant-baseline="central">7</text><g transform="rotate(0,0,0) translate(-56,-149) translate(56,84) rotate(0,0,0)"><text fill="" stroke="none" font-family="helvetica" font-size="14pt" font-style="normal" font-weight="normal" text-decoration="normal" x="0" y="0" text-anchor="end" dominant-baseline="central">7.2</text><g transform="rotate(0,0,0) translate(-56,-84) translate(22,236) rotate(-90,0,0)"><text fill="" stroke="none" font-family="helvetica" font-size="14pt" font-style="italic" font-weight="normal" text-decoration="normal" x="0" y="0" text-anchor="middle" dominant-baseline="alphabetic">Log I(q)</text><g transform="rotate(90,0,0) translate(-22,-236)"/></g></g></g></g></g></g></g></g></g><g clip-path="url(#ocrpGGGrZnVi)"><g/></g></g></svg>