<svg version="1.1" xmlns="http://www.w3.org/2000/svg" xmlns:xlink="http://www.w3.org/1999/xlink" width="700" height="250" style="width: 700px; height: 250px;"><defs><clipPath id="OnHWGhTIBRWs"><path fill="none" stroke="none" d=" M 97 42 L 670 42 L 670 182 L 97 182 L 97 42 Z"/></clipPath><clipPath id="TWUSlVITvdwe"><path fill="none" stroke="none" d=" M 97 42 L 670 42 L 670 182 L 97 182 L 97 42 Z"/></clipPath><clipPath id="ROsXCTOUDqbB"><path fill="none" stroke="none" d=" M 97 42 L 670 42 L 670 182 L 97 182 L 97 42 Z"/></clipPath><clipPath id="tHTmFWVrSbqn"><path fill="none" stroke="none" d=" M 97 42 L 670 42 L 670 182 L 97 182 L 97 42 Z"/></clipPath><clipPath id="rylBtwoeDvzh"><path fill="none" stroke="none" d=" M 97 42 L 670 42 L 670 182 L 97 182 L 97 42 Z"/></clipPath></defs><g><g transform="scale(1,1) translate(0.5,0.5)"><rect fill="#FFFFFF" stroke="none" x="0" y="0" width="700" height="250"/><rect fill="#ffffff" stroke="none" x="0" y="0" width="700" height="250"/><rect fill="#FFFFFF" stroke="none" x="97" y="42" width="573" height="140"/><rect fill="#ffffff" stroke="none" x="97" y="42" width="573" height="140"/><g><rect fill="none" stroke="#e5e5e5" x="97" y="42" width="573" height="140" stroke-linejoin="bevel" stroke-miterlimit="10"/></g><g clip-path="url(#OnHWGhTIBRWs)"><g><g><path fill="none" stroke="#e5e5e5" paint-order="fill stroke markers" d=" M 153 182 L 153 42" stroke-linejoin="bevel" stroke-miterlimit="10"/><path fill="none" stroke="#e5e5e5" paint-order="fill stroke markers" d=" M 254 182 L 254 42" stroke-linejoin="bevel" stroke-miterlimit="10"/><path fill="none" stroke="#e5e5e5" paint-order="fill stroke markers" d=" M 354 182 L 354 42" stroke-linejoin="bevel" stroke-miterlimit="10"/><path fill="none" stroke="#e5e5e5" paint-order="fill stroke markers" d=" M 455 182 L 455 42" stroke-linejoin="bevel" stroke-miterlimit="10"/><path fill="none" stroke="#e5e5e5" paint-order="fill stroke markers" d=" M 555 182 L 555 42" stroke-linejoin="bevel" stroke-miterlimit="10"/><path fill="none" stroke="#e5e5e5" paint-order="fill stroke markers" d=" M 656 182 L 656 42" stroke-linejoin="bevel" stroke-miterlimit="10"/></g></g></g><g clip-path="url(#TWUSlVITvdwe)"><g><g/></g></g><g clip-path="url(#ROsXCTOUDqbB)"><g><g><path fill="none" stroke="none"/><path fill="#e41a1c" stroke="none" paint-order="stroke fill markers" d=" M 97 167 L 288 167 L 288 177 L 97 177 L 97 167 Z" fill-opacity="0.8"/><path fill="none" stroke="#e41a1c" paint-order="fill stroke markers" d=" M 97 167 L 288 167 L 288 177 L 97 177 L 97 167 Z" stroke-linejoin="bevel" stroke-miterlimit="10" stroke-opacity="0.8"/><path fill="#377eb8" stroke="none" paint-order="stroke fill markers" d=" M 97 147 L 479 147 L 479 157 L 97 157 L 97 147 Z" fill-opacity="0.8"/><path fill="none" stroke="#377eb8" paint-order="fill stroke markers" d=" M 97 147 L 479 147 L 479 157 L 97 157 L 97 147 Z" stroke-linejoin="bevel" stroke-miterlimit="10" stroke-opacity="0.8"/><path fill="#4daf4a" stroke="none" paint-order="stroke fill markers" d=" M 97 127 L 292.02105263157864 127 L 292.02105263157864 137 L 97 137 L 97 127 Z" fill-opacity="0.8"/><path fill="none" stroke="#4daf4a" paint-order="fill stroke markers" d=" M 97 127 L 292.02105263157864 127 L 292.02105263157864 137 L 97 137 L 97 127 Z" stroke-linejoin="bevel" stroke-miterlimit="10" stroke-opacity="0.8"/><path fill="#984ea3" stroke="none" paint-order="stroke fill markers" d=" M 97 107 L 374.45263157894806 107 L 374.45263157894806 117 L 97 117 L 97 107 Z" fill-opacity="0.8"/><path fill="none" stroke="#984ea3" paint-order="fill stroke markers" d=" M 97 107 L 374.45263157894806 107 L 374.45263157894806 117 L 97 117 L 97 107 Z" stroke-linejoin="bevel" stroke-miterlimit="10" stroke-opacity="0.8"/><path fill="#ff7f00" stroke="none" paint-order="stroke fill markers" d=" M 97 87 L 416.6736842105256 87 L 416.6736842105256 97 L 97 97 L 97 87 Z" fill-opacity="0.8"/><path fill="none" stroke="#ff7f00" paint-order="fill stroke markers" d=" M 97 87 L 416.6736842105256 87 L 416.6736842105256 97 L 97 97 L 97 87 Z" stroke-linejoin="bevel" stroke-miterlimit="10" stroke-opacity="0.8"/><path fill="#ffff33" stroke="none" paint-order="stroke fill markers" d=" M 97 67 L 434.7684210526313 67 L 434.7684210526313 77 L 97 77 L 97 67 Z" fill-opacity="0.8"/><path fill="none" stroke="#ffff33" paint-order="fill stroke markers" d=" M 97 67 L 434.7684210526313 67 L 434.7684210526313 77 L 97 77 L 97 67 Z" stroke-linejoin="bevel" stroke-miterlimit="10" stroke-opacity="0.8"/><path fill="#a65628" stroke="none" paint-order="stroke fill markers" d=" M 97 47 L 414.6631578947363 47 L 414.6631578947363 57 L 97 57 L 97 47 Z" fill-opacity="0.8"/><path fill="none" stroke="#a65628" paint-order="fill stroke markers" d=" M 97 47 L 414.6631578947363 47 L 414.6631578947363 57 L 97 57 L 97 47 Z" stroke-linejoin="bevel" stroke-miterlimit="10" stroke-opacity="0.8"/></g></g></g><g clip-path="url(#tHTmFWVrSbqn)"><g><g/><g><path fill="#ffffff" stroke="#e5e5e5" paint-order="fill stroke markers" d=" M 519.78125 52 L 660 52 L 660 230 L 519.78125 230 L 519.78125 52 Z" fill-opacity="0.95" stroke-linejoin="bevel" stroke-miterlimit="10" stroke-opacity="0.5"/><text fill="#444444" stroke="none" font-family="helvetica" font-size="10pt" font-style="normal" font-weight="normal" text-decoration="normal" x="554.78125" y="72" text-anchor="start" dominant-baseline="central">Model 1: 6767</text><rect fill="#e41a1c" stroke="none" x="531.78125" y="64" width="16" height="16" fill-opacity="0.8"/><path fill="none" stroke="#e41a1c" paint-order="fill stroke markers" d=" M 531.78125 64 L 547.78125 64 L 547.78125 80 L 531.78125 80 L 531.78125 64 Z" stroke-linejoin="bevel" stroke-miterlimit="10" stroke-opacity="0.8"/><text fill="#444444" stroke="none" font-family="helvetica" font-size="10pt" font-style="normal" font-weight="normal" text-decoration="normal" x="554.78125" y="95" text-anchor="start" dominant-baseline="central">Model 2: 6862</text><rect fill="#377eb8" stroke="none" x="531.78125" y="87" width="16" height="16" fill-opacity="0.8"/><path fill="none" stroke="#377eb8" paint-order="fill stroke markers" d=" M 531.78125 87 L 547.78125 87 L 547.78125 103 L 531.78125 103 L 531.78125 87 Z" stroke-linejoin="bevel" stroke-miterlimit="10" stroke-opacity="0.8"/><text fill="#444444" stroke="none" font-family="helvetica" font-size="10pt" font-style="normal" font-weight="normal" text-decoration="normal" x="554.78125" y="118" text-anchor="start" dominant-baseline="central">Model 3: 6769</text><rect fill="#4daf4a" stroke="none" x="531.78125" y="110" width="16" height="16" fill-opacity="0.8"/><path fill="none" stroke="#4daf4a" paint-order="fill stroke markers" d=" M 531.78125 110 L 547.78125 110 L 547.78125 126 L 531.78125 126 L 531.78125 110 Z" stroke-linejoin="bevel" stroke-miterlimit="10" stroke-opacity="0.8"/><text fill="#444444" stroke="none" font-family="helvetica" font-size="10pt" font-style="normal" font-weight="normal" text-decoration="normal" x="554.78125" y="141" text-anchor="start" dominant-baseline="central">Model 4: 6810</text><rect fill="#984ea3" stroke="none" x="531.78125" y="133" width="16" height="16" fill-opacity="0.8"/><path fill="none" stroke="#984ea3" paint-order="fill stroke markers" d=" M 531.78125 133 L 547.78125 133 L 547.78125 149 L 531.78125 149 L 531.78125 133 Z" stroke-linejoin="bevel" stroke-miterlimit="10" stroke-opacity="0.8"/><text fill="#444444" stroke="none" font-family="helvetica" font-size="10pt" font-style="normal" font-weight="normal" text-decoration="normal" x="554.78125" y="164" text-anchor="start" dominant-baseline="central">Model 5: 6831</text><rect fill="#ff7f00" stroke="none" x="531.78125" y="156" width="16" height="16" fill-opacity="0.8"/><path fill="none" stroke="#ff7f00" paint-order="fill stroke markers" d=" M 531.78125 156 L 547.78125 156 L 547.78125 172 L 531.78125 172 L 531.78125 156 Z" stroke-linejoin="bevel" stroke-miterlimit="10" stroke-opacity="0.8"/><text fill="#444444" stroke="none" font-family="helvetica" font-size="10pt" font-style="normal" font-weight="normal" text-decoration="normal" x="554.78125" y="187" text-anchor="start" dominant-baseline="central">Model 6: 6840</text><rect fill="#ffff33" stroke="none" x="531.78125" y="179" width="16" height="16" fill-opacity="0.8"/><path fill="none" stroke="#ffff33" paint-order="fill stroke markers" d=" M 531.78125 179 L 547.78125 179 L 547.78125 195 L 531.78125 195 L 531.78125 179 Z" stroke-linejoin="bevel" stroke-miterlimit="10" stroke-opacity="0.8"/><text fill="#444444" stroke="none" font-family="helvetica" font-size="10pt" font-style="normal" font-weight="normal" text-decoration="normal" x="554.78125" y="210" text-anchor="start" dominant-baseline="central">Model 7: 6830</text><rect fill="#a65628" stroke="none" x="531.78125" y="202" width="16" height="16" fill-opacity="0.8"/><path fill="none" stroke="#a65628" paint-order="fill stroke markers" d=" M 531.78125 202 L 547.78125 202 L 547.78125 218 L 531.78125 218 L 531.78125 202 Z" stroke-linejoin="bevel" stroke-miterlimit="10" stroke-opacity="0.8"/></g></g></g><g><g fill="#444444"><path fill="" stroke="none" d=""/><g transform="translate(383.5,5)"><path fill="none" stroke="none"/><text fill="" stroke="none" font-family="helvetica" font-size="14pt" font-style="normal" font-weight="bold" text-decoration="normal" x="0" y="0" text-anchor="middle" dominant-baseline="text-before-edge">Model quality: Excluded Volume Analysis</text></g></g></g><g/><g><g fill="#444444"><path fill="none" stroke="black" paint-order="fill stroke markers" d=" M 97 182 L 670 182" stroke-linejoin="bevel" stroke-miterlimit="10"/><path fill="none" stroke="black" paint-order="fill stroke markers" d=" M 153 188 L 153 180" stroke-linejoin="bevel" stroke-miterlimit="10"/><path fill="none" stroke="black" paint-order="fill stroke markers" d=" M 254 188 L 254 180" stroke-linejoin="bevel" stroke-miterlimit="10"/><path fill="none" stroke="black" paint-order="fill stroke markers" d=" M 354 188 L 354 180" stroke-linejoin="bevel" stroke-miterlimit="10"/><path fill="none" stroke="black" paint-order="fill stroke markers" d=" M 455 188 L 455 180" stroke-linejoin="bevel" stroke-miterlimit="10"/><path fill="none" stroke="black" paint-order="fill stroke markers" d=" M 555 188 L 555 180" stroke-linejoin="bevel" stroke-miterlimit="10"/><path fill="none" stroke="black" paint-order="fill stroke markers" d=" M 656 188 L 656 180" stroke-linejoin="bevel" stroke-miterlimit="10"/><path fill="none" stroke="black" paint-order="fill stroke markers" d=" M 133 186 L 133 182" stroke-linejoin="bevel" stroke-miterlimit="10"/><path fill="none" stroke="black" paint-order="fill stroke markers" d=" M 113 186 L 113 182" stroke-linejoin="bevel" stroke-miterlimit="10"/><path fill="none" stroke="black" paint-order="fill stroke markers" d=" M 153 186 L 153 182" stroke-linejoin="bevel" stroke-miterlimit="10"/><path fill="none" stroke="black" paint-order="fill stroke markers" d=" M 173 186 L 173 182" stroke-linejoin="bevel" stroke-miterlimit="10"/><path fill="none" stroke="black" paint-order="fill stroke markers" d=" M 194 186 L 194 182" stroke-linejoin="bevel" stroke-miterlimit="10"/><path fill="none" stroke="black" paint-order="fill stroke markers" d=" M 214 186 L 214 182" stroke-linejoin="bevel" stroke-miterlimit="10"/><path fill="none" stroke="black" paint-order="fill stroke markers" d=" M 234 186 L 234 182" stroke-linejoin="bevel" stroke-miterlimit="10"/><path fill="none" stroke="black" paint-order="fill stroke markers" d=" M 254 186 L 254 182" stroke-linejoin="bevel" stroke-miterlimit="10"/><path fill="none" stroke="black" paint-order="fill stroke markers" d=" M 274 186 L 274 182" stroke-linejoin="bevel" stroke-miterlimit="10"/><path fill="none" stroke="black" paint-order="fill stroke markers" d=" M 294 186 L 294 182" stroke-linejoin="bevel" stroke-miterlimit="10"/><path fill="none" stroke="black" paint-order="fill stroke markers" d=" M 314 186 L 314 182" stroke-linejoin="bevel" stroke-miterlimit="10"/><path fill="none" stroke="black" paint-order="fill stroke markers" d=" M 334 186 L 334 182" stroke-linejoin="bevel" stroke-miterlimit="10"/><path fill="none" stroke="black" paint-order="fill stroke markers" d=" M 354 186 L 354 182" stroke-linejoin="bevel" stroke-miterlimit="10"/><path fill="none" stroke="black" paint-order="fill stroke markers" d=" M 374 186 L 374 182" stroke-linejoin="bevel" stroke-miterlimit="10"/><path fill="none" stroke="black" paint-order="fill stroke markers" d=" M 395 186 L 395 182" stroke-linejoin="bevel" stroke-miterlimit="10"/><path fill="none" stroke="black" paint-order="fill stroke markers" d=" M 415 186 L 415 182" stroke-linejoin="bevel" stroke-miterlimit="10"/><path fill="none" stroke="black" paint-order="fill stroke markers" d=" M 435 186 L 435 182" stroke-linejoin="bevel" stroke-miterlimit="10"/><path fill="none" stroke="black" paint-order="fill stroke markers" d=" M 455 186 L 455 182" stroke-linejoin="bevel" stroke-miterlimit="10"/><path fill="none" stroke="black" paint-order="fill stroke markers" d=" M 475 186 L 475 182" stroke-linejoin="bevel" stroke-miterlimit="10"/><path fill="none" stroke="black" paint-order="fill stroke markers" d=" M 495 186 L 495 182" stroke-linejoin="bevel" stroke-miterlimit="10"/><path fill="none" stroke="black" paint-order="fill stroke markers" d=" M 515 186 L 515 182" stroke-linejoin="bevel" stroke-miterlimit="10"/><path fill="none" stroke="black" paint-order="fill stroke markers" d=" M 535 186 L 535 182" stroke-linejoin="bevel" stroke-miterlimit="10"/><path fill="none" stroke="black" paint-order="fill stroke markers" d=" M 555 186 L 555 182" stroke-linejoin="bevel" stroke-miterlimit="10"/><path fill="none" stroke="black" paint-order="fill stroke markers" d=" M 576 186 L 576 182" stroke-linejoin="bevel" stroke-miterlimit="10"/><path fill="none" stroke="black" paint-order="fill stroke markers" d=" M 596 186 L 596 182" stroke-linejoin="bevel" stroke-miterlimit="10"/><path fill="none" stroke="black" paint-order="fill stroke markers" d=" M 616 186 L 616 182" stroke-linejoin="bevel" stroke-miterlimit="10"/><path fill="none" stroke="black" paint-order="fill stroke markers" d=" M 636 186 L 636 182" stroke-linejoin="bevel" stroke-miterlimit="10"/><path fill="" stroke="black" paint-order="fill stroke markers" d=" M 656 186 L 656 182" stroke-linejoin="bevel" stroke-miterlimit="10"/><g transform="translate(153,193) rotate(0,0,0)"><text fill="" stroke="none" font-family="helvetica" font-size="14pt" font-style="normal" font-weight="normal" text-decoration="normal" x="0" y="0" text-anchor="middle" dominant-baseline="hanging">6700</text><g transform="rotate(0,0,0) translate(-153,-193) translate(254,193) rotate(0,0,0)"><text fill="" stroke="none" font-family="helvetica" font-size="14pt" font-style="normal" font-weight="normal" text-decoration="normal" x="0" y="0" text-anchor="middle" dominant-baseline="hanging">6750</text><g transform="rotate(0,0,0) translate(-254,-193) translate(354,193) rotate(0,0,0)"><text fill="" stroke="none" font-family="helvetica" font-size="14pt" font-style="normal" font-weight="normal" text-decoration="normal" x="0" y="0" text-anchor="middle" dominant-baseline="hanging">6800</text><g transform="rotate(0,0,0) translate(-354,-193) translate(455,193) rotate(0,0,0)"><text fill="" stroke="none" font-family="helvetica" font-size="14pt" font-style="normal" font-weight="normal" text-decoration="normal" x="0" y="0" text-anchor="middle" dominant-baseline="hanging">6850</text><g transform="rotate(0,0,0) translate(-455,-193) translate(555,193) rotate(0,0,0)"><text fill="" stroke="none" font-family="helvetica" font-size="14pt" font-style="normal" font-weight="normal" text-decoration="normal" x="0" y="0" text-anchor="middle" dominant-baseline="hanging">6900</text><g transform="rotate(0,0,0) translate(-555,-193) translate(656,193) rotate(0,0,0)"><text fill="" stroke="none" font-family="helvetica" font-size="14pt" font-style="normal" font-weight="normal" text-decoration="normal" x="0" y="0" text-anchor="middle" dominant-baseline="hanging">6950</text><g transform="rotate(0,0,0) translate(-656,-193) translate(384,224) rotate(0,0,0)"><text fill="" stroke="none" font-family="helvetica" font-size="14pt" font-style="italic" font-weight="normal" text-decoration="normal" x="0" y="0" text-anchor="middle" dominant-baseline="hanging">Number of violations</text><g transform="rotate(0,0,0) translate(-384,-224)"/></g></g></g></g></g></g></g></g></g><g><g fill="#444444"><path fill="none" stroke="black" paint-order="fill stroke markers" d=" M 97 182 L 97 42" stroke-linejoin="bevel" stroke-miterlimit="10"/><path fill="none" stroke="black" paint-order="fill stroke markers" d=" M 91 172 L 99 172" stroke-linejoin="bevel" stroke-miterlimit="10"/><path fill="none" stroke="black" paint-order="fill stroke markers" d=" M 91 152 L 99 152" stroke-linejoin="bevel" stroke-miterlimit="10"/><path fill="none" stroke="black" paint-order="fill stroke markers" d=" M 91 132 L 99 132" stroke-linejoin="bevel" stroke-miterlimit="10"/><path fill="none" stroke="black" paint-order="fill stroke markers" d=" M 91 112 L 99 112" stroke-linejoin="bevel" stroke-miterlimit="10"/><path fill="none" stroke="black" paint-order="fill stroke markers" d=" M 91 92 L 99 92" stroke-linejoin="bevel" stroke-miterlimit="10"/><path fill="none" stroke="black" paint-order="fill stroke markers" d=" M 91 72 L 99 72" stroke-linejoin="bevel" stroke-miterlimit="10"/><path fill="" stroke="black" paint-order="fill stroke markers" d=" M 91 52 L 99 52" stroke-linejoin="bevel" stroke-miterlimit="10"/><g transform="translate(86,172) rotate(0,0,0)"><text fill="" stroke="none" font-family="helvetica" font-size="14pt" font-style="normal" font-weight="normal" text-decoration="normal" x="0" y="0" text-anchor="end" dominant-baseline="central">Model 1</text><g transform="rotate(0,0,0) translate(-86,-172) translate(86,152) rotate(0,0,0)"><text fill="" stroke="none" font-family="helvetica" font-size="14pt" font-style="normal" font-weight="normal" text-decoration="normal" x="0" y="0" text-anchor="end" dominant-baseline="central">Model 2</text><g transform="rotate(0,0,0) translate(-86,-152) translate(86,132) rotate(0,0,0)"><text fill="" stroke="none" font-family="helvetica" font-size="14pt" font-style="normal" font-weight="normal" text-decoration="normal" x="0" y="0" text-anchor="end" dominant-baseline="central">Model 3</text><g transform="rotate(0,0,0) translate(-86,-132) translate(86,112) rotate(0,0,0)"><text fill="" stroke="none" font-family="helvetica" font-size="14pt" font-style="normal" font-weight="normal" text-decoration="normal" x="0" y="0" text-anchor="end" dominant-baseline="central">Model 4</text><g transform="rotate(0,0,0) translate(-86,-112) translate(86,92) rotate(0,0,0)"><text fill="" stroke="none" font-family="helvetica" font-size="14pt" font-style="normal" font-weight="normal" text-decoration="normal" x="0" y="0" text-anchor="end" dominant-baseline="central">Model 5</text><g transform="rotate(0,0,0) translate(-86,-92) translate(86,72) rotate(0,0,0)"><text fill="" stroke="none" font-family="helvetica" font-size="14pt" font-style="normal" font-weight="normal" text-decoration="normal" x="0" y="0" text-anchor="end" dominant-baseline="central">Model 6</text><g transform="rotate(0,0,0) translate(-86,-72) translate(86,52) rotate(0,0,0)"><text fill="" stroke="none" font-family="helvetica" font-size="14pt" font-style="normal" font-weight="normal" text-decoration="normal" x="0" y="0" text-anchor="end" dominant-baseline="central">Model 7</text><g transform="rotate(0,0,0) translate(-86,-52)"/></g></g></g></g></g></g></g></g></g><g clip-path="url(#rylBtwoeDvzh)"><g/></g></g></g></svg>