<svg version="1.1" xmlns="http://www.w3.org/2000/svg" xmlns:xlink="http://www.w3.org/1999/xlink" width="700" height="250" style="width: 700px; height: 250px;"><defs><clipPath id="iQJUcOekmZcX"><path fill="none" stroke="none" d=" M 84 37 L 670 37 L 670 189 L 84 189 L 84 37 Z"/></clipPath><clipPath id="RzrGwEenMegD"><path fill="none" stroke="none" d=" M 84 37 L 670 37 L 670 189 L 84 189 L 84 37 Z"/></clipPath><clipPath id="TXRmRuDmLXAk"><path fill="none" stroke="none" d=" M 84 37 L 670 37 L 670 189 L 84 189 L 84 37 Z"/></clipPath><clipPath id="QWEapdCiDevQ"><path fill="none" stroke="none" d=" M 84 37 L 670 37 L 670 189 L 84 189 L 84 37 Z"/></clipPath><clipPath id="xyufIBJBFylO"><path fill="none" stroke="none" d=" M 84 37 L 670 37 L 670 189 L 84 189 L 84 37 Z"/></clipPath><clipPath id="xvbsqwNIpAIc"><path fill="none" stroke="none" d=" M 84 37 L 670 37 L 670 189 L 84 189 L 84 37 Z"/></clipPath><clipPath id="LzRvhxvswuyd"><path fill="none" stroke="none" d=" M 84 37 L 670 37 L 670 189 L 84 189 L 84 37 Z"/></clipPath><clipPath id="SVaFEaokwDCu"><path fill="none" stroke="none" d=" M 84 37 L 670 37 L 670 189 L 84 189 L 84 37 Z"/></clipPath><clipPath id="TwFTeLhVhLhF"><path fill="none" stroke="none" d=" M 84 37 L 670 37 L 670 189 L 84 189 L 84 37 Z"/></clipPath><clipPath id="BGHqQckGOWDg"><path fill="none" stroke="none" d=" M 84 37 L 670 37 L 670 189 L 84 189 L 84 37 Z"/></clipPath></defs><g><g transform="scale(1,1) translate(0.5,0.5)"><rect fill="#FFFFFF" stroke="none" x="0" y="0" width="700" height="250"/><rect fill="#ffffff" stroke="none" x="0" y="0" width="700" height="250"/><rect fill="#FFFFFF" stroke="none" x="84" y="37" width="586" height="152"/><rect fill="#ffffff" stroke="none" x="84" y="37" width="586" height="152"/><g><rect fill="none" stroke="#e5e5e5" x="84" y="37" width="586" height="152" stroke-linejoin="bevel" stroke-miterlimit="10"/></g><g clip-path="url(#iQJUcOekmZcX)"><g><g><path fill="none" stroke="#e5e5e5" paint-order="fill stroke markers" d=" M 189 189 L 189 37" stroke-linejoin="bevel" stroke-miterlimit="10"/><path fill="none" stroke="#e5e5e5" paint-order="fill stroke markers" d=" M 339 189 L 339 37" stroke-linejoin="bevel" stroke-miterlimit="10"/><path fill="none" stroke="#e5e5e5" paint-order="fill stroke markers" d=" M 490 189 L 490 37" stroke-linejoin="bevel" stroke-miterlimit="10"/><path fill="none" stroke="#e5e5e5" paint-order="fill stroke markers" d=" M 640 189 L 640 37" stroke-linejoin="bevel" stroke-miterlimit="10"/></g></g></g><g clip-path="url(#RzrGwEenMegD)"><g><g/></g></g><g clip-path="url(#TXRmRuDmLXAk)"><g><g><path fill="none" stroke="none"/><path fill="#2171b5" stroke="none" paint-order="stroke fill markers" d=" M 84 160.5 L 279.3333333333321 160.5 L 279.3333333333321 179.5 L 84 179.5 L 84 160.5 Z" fill-opacity="0.8"/><path fill="none" stroke="#2171b5" paint-order="fill stroke markers" d=" M 84 160.5 L 279.3333333333321 160.5 L 279.3333333333321 179.5 L 84 179.5 L 84 160.5 Z" stroke-linejoin="bevel" stroke-miterlimit="10" stroke-opacity="0.8"/><path fill="#6baed6" stroke="none" paint-order="stroke fill markers" d=" M 84 122.5 L 372.4923076923078 122.5 L 372.4923076923078 141.5 L 84 141.5 L 84 122.5 Z" fill-opacity="0.8"/><path fill="none" stroke="#6baed6" paint-order="fill stroke markers" d=" M 84 122.5 L 372.4923076923078 122.5 L 372.4923076923078 141.5 L 84 141.5 L 84 122.5 Z" stroke-linejoin="bevel" stroke-miterlimit="10" stroke-opacity="0.8"/><path fill="#bdd7e7" stroke="none" paint-order="stroke fill markers" d=" M 84 84.5 L 474.6666666666679 84.5 L 474.6666666666679 103.5 L 84 103.5 L 84 84.5 Z" fill-opacity="0.8"/><path fill="none" stroke="#bdd7e7" paint-order="fill stroke markers" d=" M 84 84.5 L 474.6666666666679 84.5 L 474.6666666666679 103.5 L 84 103.5 L 84 84.5 Z" stroke-linejoin="bevel" stroke-miterlimit="10" stroke-opacity="0.8"/><path fill="#eff3ff" stroke="none" paint-order="stroke fill markers" d=" M 84 46.5 L 438.6051282051303 46.5 L 438.6051282051303 65.5 L 84 65.5 L 84 46.5 Z" fill-opacity="0.8"/><path fill="none" stroke="#eff3ff" paint-order="fill stroke markers" d=" M 84 46.5 L 438.6051282051303 46.5 L 438.6051282051303 65.5 L 84 65.5 L 84 46.5 Z" stroke-linejoin="bevel" stroke-miterlimit="10" stroke-opacity="0.8"/></g></g></g><g clip-path="url(#QWEapdCiDevQ)"><g><g/><g><path fill="#ffffff" stroke="#e5e5e5" paint-order="fill stroke markers" d=" M 530.5 47 L 660 47 L 660 156 L 530.5 156 L 530.5 47 Z" fill-opacity="0.95" stroke-linejoin="bevel" stroke-miterlimit="10" stroke-opacity="0.5"/><text fill="#444444" stroke="none" font-family="helvetica" font-size="10pt" font-style="normal" font-weight="normal" text-decoration="normal" x="565.5" y="67" text-anchor="start" dominant-baseline="central">Model 1: 9530</text><rect fill="#2171b5" stroke="none" x="542.5" y="59" width="16" height="16" fill-opacity="0.8"/><path fill="none" stroke="#2171b5" paint-order="fill stroke markers" d=" M 542.5 59 L 558.5 59 L 558.5 75 L 542.5 75 L 542.5 59 Z" stroke-linejoin="bevel" stroke-miterlimit="10" stroke-opacity="0.8"/><text fill="#444444" stroke="none" font-family="helvetica" font-size="10pt" font-style="normal" font-weight="normal" text-decoration="normal" x="565.5" y="90" text-anchor="start" dominant-baseline="central">Model 2: 9561</text><rect fill="#6baed6" stroke="none" x="542.5" y="82" width="16" height="16" fill-opacity="0.8"/><path fill="none" stroke="#6baed6" paint-order="fill stroke markers" d=" M 542.5 82 L 558.5 82 L 558.5 98 L 542.5 98 L 542.5 82 Z" stroke-linejoin="bevel" stroke-miterlimit="10" stroke-opacity="0.8"/><text fill="#444444" stroke="none" font-family="helvetica" font-size="10pt" font-style="normal" font-weight="normal" text-decoration="normal" x="565.5" y="113" text-anchor="start" dominant-baseline="central">Model 3: 9595</text><rect fill="#bdd7e7" stroke="none" x="542.5" y="105" width="16" height="16" fill-opacity="0.8"/><path fill="none" stroke="#bdd7e7" paint-order="fill stroke markers" d=" M 542.5 105 L 558.5 105 L 558.5 121 L 542.5 121 L 542.5 105 Z" stroke-linejoin="bevel" stroke-miterlimit="10" stroke-opacity="0.8"/><text fill="#444444" stroke="none" font-family="helvetica" font-size="10pt" font-style="normal" font-weight="normal" text-decoration="normal" x="565.5" y="136" text-anchor="start" dominant-baseline="central">Model 4: 9583</text><rect fill="#eff3ff" stroke="none" x="542.5" y="128" width="16" height="16" fill-opacity="0.8"/><path fill="none" stroke="#eff3ff" paint-order="fill stroke markers" d=" M 542.5 128 L 558.5 128 L 558.5 144 L 542.5 144 L 542.5 128 Z" stroke-linejoin="bevel" stroke-miterlimit="10" stroke-opacity="0.8"/></g></g></g><g><g fill="#444444"><path fill="" stroke="none" d=""/><g transform="translate(377,5)"><path fill="none" stroke="none"/><text fill="" stroke="none" font-family="helvetica" font-size="14pt" font-style="normal" font-weight="bold" text-decoration="normal" x="0" y="0" text-anchor="middle" dominant-baseline="text-before-edge">Model quality: Excluded Volume Analysis</text></g></g></g><g/><g><g fill="#444444"><path fill="none" stroke="black" paint-order="fill stroke markers" d=" M 84 189 L 670 189" stroke-linejoin="bevel" stroke-miterlimit="10"/><path fill="none" stroke="black" paint-order="fill stroke markers" d=" M 189 195 L 189 187" stroke-linejoin="bevel" stroke-miterlimit="10"/><path fill="none" stroke="black" paint-order="fill stroke markers" d=" M 339 195 L 339 187" stroke-linejoin="bevel" stroke-miterlimit="10"/><path fill="none" stroke="black" paint-order="fill stroke markers" d=" M 490 195 L 490 187" stroke-linejoin="bevel" stroke-miterlimit="10"/><path fill="none" stroke="black" paint-order="fill stroke markers" d=" M 640 195 L 640 187" stroke-linejoin="bevel" stroke-miterlimit="10"/><path fill="none" stroke="black" paint-order="fill stroke markers" d=" M 159 193 L 159 189" stroke-linejoin="bevel" stroke-miterlimit="10"/><path fill="none" stroke="black" paint-order="fill stroke markers" d=" M 129 193 L 129 189" stroke-linejoin="bevel" stroke-miterlimit="10"/><path fill="none" stroke="black" paint-order="fill stroke markers" d=" M 99 193 L 99 189" stroke-linejoin="bevel" stroke-miterlimit="10"/><path fill="none" stroke="black" paint-order="fill stroke markers" d=" M 189 193 L 189 189" stroke-linejoin="bevel" stroke-miterlimit="10"/><path fill="none" stroke="black" paint-order="fill stroke markers" d=" M 219 193 L 219 189" stroke-linejoin="bevel" stroke-miterlimit="10"/><path fill="none" stroke="black" paint-order="fill stroke markers" d=" M 249 193 L 249 189" stroke-linejoin="bevel" stroke-miterlimit="10"/><path fill="none" stroke="black" paint-order="fill stroke markers" d=" M 279 193 L 279 189" stroke-linejoin="bevel" stroke-miterlimit="10"/><path fill="none" stroke="black" paint-order="fill stroke markers" d=" M 309 193 L 309 189" stroke-linejoin="bevel" stroke-miterlimit="10"/><path fill="none" stroke="black" paint-order="fill stroke markers" d=" M 339 193 L 339 189" stroke-linejoin="bevel" stroke-miterlimit="10"/><path fill="none" stroke="black" paint-order="fill stroke markers" d=" M 369 193 L 369 189" stroke-linejoin="bevel" stroke-miterlimit="10"/><path fill="none" stroke="black" paint-order="fill stroke markers" d=" M 400 193 L 400 189" stroke-linejoin="bevel" stroke-miterlimit="10"/><path fill="none" stroke="black" paint-order="fill stroke markers" d=" M 430 193 L 430 189" stroke-linejoin="bevel" stroke-miterlimit="10"/><path fill="none" stroke="black" paint-order="fill stroke markers" d=" M 460 193 L 460 189" stroke-linejoin="bevel" stroke-miterlimit="10"/><path fill="none" stroke="black" paint-order="fill stroke markers" d=" M 490 193 L 490 189" stroke-linejoin="bevel" stroke-miterlimit="10"/><path fill="none" stroke="black" paint-order="fill stroke markers" d=" M 520 193 L 520 189" stroke-linejoin="bevel" stroke-miterlimit="10"/><path fill="none" stroke="black" paint-order="fill stroke markers" d=" M 550 193 L 550 189" stroke-linejoin="bevel" stroke-miterlimit="10"/><path fill="none" stroke="black" paint-order="fill stroke markers" d=" M 580 193 L 580 189" stroke-linejoin="bevel" stroke-miterlimit="10"/><path fill="none" stroke="black" paint-order="fill stroke markers" d=" M 610 193 L 610 189" stroke-linejoin="bevel" stroke-miterlimit="10"/><path fill="none" stroke="black" paint-order="fill stroke markers" d=" M 640 193 L 640 189" stroke-linejoin="bevel" stroke-miterlimit="10"/><path fill="" stroke="black" paint-order="fill stroke markers" d=" M 670 193 L 670 189" stroke-linejoin="bevel" stroke-miterlimit="10"/><g transform="translate(189,200) rotate(0,0,0)"><text fill="" stroke="none" font-family="helvetica" font-size="14pt" font-style="normal" font-weight="normal" text-decoration="normal" x="0" y="0" text-anchor="middle" dominant-baseline="hanging">9500</text><g transform="rotate(0,0,0) translate(-189,-200) translate(339,200) rotate(0,0,0)"><text fill="" stroke="none" font-family="helvetica" font-size="14pt" font-style="normal" font-weight="normal" text-decoration="normal" x="0" y="0" text-anchor="middle" dominant-baseline="hanging">9550</text><g transform="rotate(0,0,0) translate(-339,-200) translate(490,200) rotate(0,0,0)"><text fill="" stroke="none" font-family="helvetica" font-size="14pt" font-style="normal" font-weight="normal" text-decoration="normal" x="0" y="0" text-anchor="middle" dominant-baseline="hanging">9600</text><g transform="rotate(0,0,0) translate(-490,-200) translate(640,200) rotate(0,0,0)"><text fill="" stroke="none" font-family="helvetica" font-size="14pt" font-style="normal" font-weight="normal" text-decoration="normal" x="0" y="0" text-anchor="middle" dominant-baseline="hanging">9650</text><g transform="rotate(0,0,0) translate(-640,-200) translate(377,227) rotate(0,0,0)"><text fill="" stroke="none" font-family="helvetica" font-size="14pt" font-style="italic" font-weight="normal" text-decoration="normal" x="0" y="0" text-anchor="middle" dominant-baseline="hanging">Number of violations</text><g transform="rotate(0,0,0) translate(-377,-227)"/></g></g></g></g></g></g></g><g><g fill="#444444"><path fill="none" stroke="black" paint-order="fill stroke markers" d=" M 84 189 L 84 37" stroke-linejoin="bevel" stroke-miterlimit="10"/><path fill="none" stroke="black" paint-order="fill stroke markers" d=" M 78 170 L 86 170" stroke-linejoin="bevel" stroke-miterlimit="10"/><path fill="none" stroke="black" paint-order="fill stroke markers" d=" M 78 132 L 86 132" stroke-linejoin="bevel" stroke-miterlimit="10"/><path fill="none" stroke="black" paint-order="fill stroke markers" d=" M 78 94 L 86 94" stroke-linejoin="bevel" stroke-miterlimit="10"/><path fill="" stroke="black" paint-order="fill stroke markers" d=" M 78 56 L 86 56" stroke-linejoin="bevel" stroke-miterlimit="10"/><g transform="translate(73,170) rotate(0,0,0)"><text fill="" stroke="none" font-family="helvetica" font-size="14pt" font-style="normal" font-weight="normal" text-decoration="normal" x="0" y="0" text-anchor="end" dominant-baseline="central">Model 1</text><g transform="rotate(0,0,0) translate(-73,-170) translate(73,132) rotate(0,0,0)"><text fill="" stroke="none" font-family="helvetica" font-size="14pt" font-style="normal" font-weight="normal" text-decoration="normal" x="0" y="0" text-anchor="end" dominant-baseline="central">Model 2</text><g transform="rotate(0,0,0) translate(-73,-132) translate(73,94) rotate(0,0,0)"><text fill="" stroke="none" font-family="helvetica" font-size="14pt" font-style="normal" font-weight="normal" text-decoration="normal" x="0" y="0" text-anchor="end" dominant-baseline="central">Model 3</text><g transform="rotate(0,0,0) translate(-73,-94) translate(73,56) rotate(0,0,0)"><text fill="" stroke="none" font-family="helvetica" font-size="14pt" font-style="normal" font-weight="normal" text-decoration="normal" x="0" y="0" text-anchor="end" dominant-baseline="central">Model 4</text><g transform="rotate(0,0,0) translate(-73,-56)"/></g></g></g></g></g></g><g clip-path="url(#xyufIBJBFylO)"><g/></g></g><g transform="scale(1,1) translate(0.5,0.5)"><rect fill="#FFFFFF" stroke="none" x="0" y="0" width="700" height="250"/><rect fill="#ffffff" stroke="none" x="0" y="0" width="700" height="250"/><rect fill="#FFFFFF" stroke="none" x="84" y="37" width="586" height="152"/><rect fill="#ffffff" stroke="none" x="84" y="37" width="586" height="152"/><g><rect fill="none" stroke="#e5e5e5" x="84" y="37" width="586" height="152" stroke-linejoin="bevel" stroke-miterlimit="10"/></g><g clip-path="url(#xvbsqwNIpAIc)"><g><g><path fill="none" stroke="#e5e5e5" paint-order="fill stroke markers" d=" M 189 189 L 189 37" stroke-linejoin="bevel" stroke-miterlimit="10"/><path fill="none" stroke="#e5e5e5" paint-order="fill stroke markers" d=" M 339 189 L 339 37" stroke-linejoin="bevel" stroke-miterlimit="10"/><path fill="none" stroke="#e5e5e5" paint-order="fill stroke markers" d=" M 490 189 L 490 37" stroke-linejoin="bevel" stroke-miterlimit="10"/><path fill="none" stroke="#e5e5e5" paint-order="fill stroke markers" d=" M 640 189 L 640 37" stroke-linejoin="bevel" stroke-miterlimit="10"/></g></g></g><g clip-path="url(#LzRvhxvswuyd)"><g><g/></g></g><g clip-path="url(#SVaFEaokwDCu)"><g><g><path fill="none" stroke="none"/><path fill="#2171b5" stroke="none" paint-order="stroke fill markers" d=" M 84 160.5 L 279.3333333333321 160.5 L 279.3333333333321 179.5 L 84 179.5 L 84 160.5 Z" fill-opacity="0.8"/><path fill="none" stroke="#2171b5" paint-order="fill stroke markers" d=" M 84 160.5 L 279.3333333333321 160.5 L 279.3333333333321 179.5 L 84 179.5 L 84 160.5 Z" stroke-linejoin="bevel" stroke-miterlimit="10" stroke-opacity="0.8"/><path fill="#6baed6" stroke="none" paint-order="stroke fill markers" d=" M 84 122.5 L 372.4923076923078 122.5 L 372.4923076923078 141.5 L 84 141.5 L 84 122.5 Z" fill-opacity="0.8"/><path fill="none" stroke="#6baed6" paint-order="fill stroke markers" d=" M 84 122.5 L 372.4923076923078 122.5 L 372.4923076923078 141.5 L 84 141.5 L 84 122.5 Z" stroke-linejoin="bevel" stroke-miterlimit="10" stroke-opacity="0.8"/><path fill="#bdd7e7" stroke="none" paint-order="stroke fill markers" d=" M 84 84.5 L 474.6666666666679 84.5 L 474.6666666666679 103.5 L 84 103.5 L 84 84.5 Z" fill-opacity="0.8"/><path fill="none" stroke="#bdd7e7" paint-order="fill stroke markers" d=" M 84 84.5 L 474.6666666666679 84.5 L 474.6666666666679 103.5 L 84 103.5 L 84 84.5 Z" stroke-linejoin="bevel" stroke-miterlimit="10" stroke-opacity="0.8"/><path fill="#eff3ff" stroke="none" paint-order="stroke fill markers" d=" M 84 46.5 L 438.6051282051303 46.5 L 438.6051282051303 65.5 L 84 65.5 L 84 46.5 Z" fill-opacity="0.8"/><path fill="none" stroke="#eff3ff" paint-order="fill stroke markers" d=" M 84 46.5 L 438.6051282051303 46.5 L 438.6051282051303 65.5 L 84 65.5 L 84 46.5 Z" stroke-linejoin="bevel" stroke-miterlimit="10" stroke-opacity="0.8"/></g></g></g><g clip-path="url(#TwFTeLhVhLhF)"><g><g/><g><path fill="#ffffff" stroke="#e5e5e5" paint-order="fill stroke markers" d=" M 530.5 47 L 660 47 L 660 156 L 530.5 156 L 530.5 47 Z" fill-opacity="0.95" stroke-linejoin="bevel" stroke-miterlimit="10" stroke-opacity="0.5"/><text fill="#444444" stroke="none" font-family="helvetica" font-size="10pt" font-style="normal" font-weight="normal" text-decoration="normal" x="565.5" y="67" text-anchor="start" dominant-baseline="central">Model 1: 9530</text><rect fill="#2171b5" stroke="none" x="542.5" y="59" width="16" height="16" fill-opacity="0.8"/><path fill="none" stroke="#2171b5" paint-order="fill stroke markers" d=" M 542.5 59 L 558.5 59 L 558.5 75 L 542.5 75 L 542.5 59 Z" stroke-linejoin="bevel" stroke-miterlimit="10" stroke-opacity="0.8"/><text fill="#444444" stroke="none" font-family="helvetica" font-size="10pt" font-style="normal" font-weight="normal" text-decoration="normal" x="565.5" y="90" text-anchor="start" dominant-baseline="central">Model 2: 9561</text><rect fill="#6baed6" stroke="none" x="542.5" y="82" width="16" height="16" fill-opacity="0.8"/><path fill="none" stroke="#6baed6" paint-order="fill stroke markers" d=" M 542.5 82 L 558.5 82 L 558.5 98 L 542.5 98 L 542.5 82 Z" stroke-linejoin="bevel" stroke-miterlimit="10" stroke-opacity="0.8"/><text fill="#444444" stroke="none" font-family="helvetica" font-size="10pt" font-style="normal" font-weight="normal" text-decoration="normal" x="565.5" y="113" text-anchor="start" dominant-baseline="central">Model 3: 9595</text><rect fill="#bdd7e7" stroke="none" x="542.5" y="105" width="16" height="16" fill-opacity="0.8"/><path fill="none" stroke="#bdd7e7" paint-order="fill stroke markers" d=" M 542.5 105 L 558.5 105 L 558.5 121 L 542.5 121 L 542.5 105 Z" stroke-linejoin="bevel" stroke-miterlimit="10" stroke-opacity="0.8"/><text fill="#444444" stroke="none" font-family="helvetica" font-size="10pt" font-style="normal" font-weight="normal" text-decoration="normal" x="565.5" y="136" text-anchor="start" dominant-baseline="central">Model 4: 9583</text><rect fill="#eff3ff" stroke="none" x="542.5" y="128" width="16" height="16" fill-opacity="0.8"/><path fill="none" stroke="#eff3ff" paint-order="fill stroke markers" d=" M 542.5 128 L 558.5 128 L 558.5 144 L 542.5 144 L 542.5 128 Z" stroke-linejoin="bevel" stroke-miterlimit="10" stroke-opacity="0.8"/></g></g></g><g><g fill="#444444"><path fill="" stroke="none" d=""/><g transform="translate(377,5)"><path fill="none" stroke="none"/><text fill="" stroke="none" font-family="helvetica" font-size="14pt" font-style="normal" font-weight="bold" text-decoration="normal" x="0" y="0" text-anchor="middle" dominant-baseline="text-before-edge">Model quality: Excluded Volume Analysis</text></g></g></g><g/><g><g fill="#444444"><path fill="none" stroke="black" paint-order="fill stroke markers" d=" M 84 189 L 670 189" stroke-linejoin="bevel" stroke-miterlimit="10"/><path fill="none" stroke="black" paint-order="fill stroke markers" d=" M 189 195 L 189 187" stroke-linejoin="bevel" stroke-miterlimit="10"/><path fill="none" stroke="black" paint-order="fill stroke markers" d=" M 339 195 L 339 187" stroke-linejoin="bevel" stroke-miterlimit="10"/><path fill="none" stroke="black" paint-order="fill stroke markers" d=" M 490 195 L 490 187" stroke-linejoin="bevel" stroke-miterlimit="10"/><path fill="none" stroke="black" paint-order="fill stroke markers" d=" M 640 195 L 640 187" stroke-linejoin="bevel" stroke-miterlimit="10"/><path fill="none" stroke="black" paint-order="fill stroke markers" d=" M 159 193 L 159 189" stroke-linejoin="bevel" stroke-miterlimit="10"/><path fill="none" stroke="black" paint-order="fill stroke markers" d=" M 129 193 L 129 189" stroke-linejoin="bevel" stroke-miterlimit="10"/><path fill="none" stroke="black" paint-order="fill stroke markers" d=" M 99 193 L 99 189" stroke-linejoin="bevel" stroke-miterlimit="10"/><path fill="none" stroke="black" paint-order="fill stroke markers" d=" M 189 193 L 189 189" stroke-linejoin="bevel" stroke-miterlimit="10"/><path fill="none" stroke="black" paint-order="fill stroke markers" d=" M 219 193 L 219 189" stroke-linejoin="bevel" stroke-miterlimit="10"/><path fill="none" stroke="black" paint-order="fill stroke markers" d=" M 249 193 L 249 189" stroke-linejoin="bevel" stroke-miterlimit="10"/><path fill="none" stroke="black" paint-order="fill stroke markers" d=" M 279 193 L 279 189" stroke-linejoin="bevel" stroke-miterlimit="10"/><path fill="none" stroke="black" paint-order="fill stroke markers" d=" M 309 193 L 309 189" stroke-linejoin="bevel" stroke-miterlimit="10"/><path fill="none" stroke="black" paint-order="fill stroke markers" d=" M 339 193 L 339 189" stroke-linejoin="bevel" stroke-miterlimit="10"/><path fill="none" stroke="black" paint-order="fill stroke markers" d=" M 369 193 L 369 189" stroke-linejoin="bevel" stroke-miterlimit="10"/><path fill="none" stroke="black" paint-order="fill stroke markers" d=" M 400 193 L 400 189" stroke-linejoin="bevel" stroke-miterlimit="10"/><path fill="none" stroke="black" paint-order="fill stroke markers" d=" M 430 193 L 430 189" stroke-linejoin="bevel" stroke-miterlimit="10"/><path fill="none" stroke="black" paint-order="fill stroke markers" d=" M 460 193 L 460 189" stroke-linejoin="bevel" stroke-miterlimit="10"/><path fill="none" stroke="black" paint-order="fill stroke markers" d=" M 490 193 L 490 189" stroke-linejoin="bevel" stroke-miterlimit="10"/><path fill="none" stroke="black" paint-order="fill stroke markers" d=" M 520 193 L 520 189" stroke-linejoin="bevel" stroke-miterlimit="10"/><path fill="none" stroke="black" paint-order="fill stroke markers" d=" M 550 193 L 550 189" stroke-linejoin="bevel" stroke-miterlimit="10"/><path fill="none" stroke="black" paint-order="fill stroke markers" d=" M 580 193 L 580 189" stroke-linejoin="bevel" stroke-miterlimit="10"/><path fill="none" stroke="black" paint-order="fill stroke markers" d=" M 610 193 L 610 189" stroke-linejoin="bevel" stroke-miterlimit="10"/><path fill="none" stroke="black" paint-order="fill stroke markers" d=" M 640 193 L 640 189" stroke-linejoin="bevel" stroke-miterlimit="10"/><path fill="" stroke="black" paint-order="fill stroke markers" d=" M 670 193 L 670 189" stroke-linejoin="bevel" stroke-miterlimit="10"/><g transform="translate(189,200) rotate(0,0,0)"><text fill="" stroke="none" font-family="helvetica" font-size="14pt" font-style="normal" font-weight="normal" text-decoration="normal" x="0" y="0" text-anchor="middle" dominant-baseline="hanging">9500</text><g transform="rotate(0,0,0) translate(-189,-200) translate(339,200) rotate(0,0,0)"><text fill="" stroke="none" font-family="helvetica" font-size="14pt" font-style="normal" font-weight="normal" text-decoration="normal" x="0" y="0" text-anchor="middle" dominant-baseline="hanging">9550</text><g transform="rotate(0,0,0) translate(-339,-200) translate(490,200) rotate(0,0,0)"><text fill="" stroke="none" font-family="helvetica" font-size="14pt" font-style="normal" font-weight="normal" text-decoration="normal" x="0" y="0" text-anchor="middle" dominant-baseline="hanging">9600</text><g transform="rotate(0,0,0) translate(-490,-200) translate(640,200) rotate(0,0,0)"><text fill="" stroke="none" font-family="helvetica" font-size="14pt" font-style="normal" font-weight="normal" text-decoration="normal" x="0" y="0" text-anchor="middle" dominant-baseline="hanging">9650</text><g transform="rotate(0,0,0) translate(-640,-200) translate(377,227) rotate(0,0,0)"><text fill="" stroke="none" font-family="helvetica" font-size="14pt" font-style="italic" font-weight="normal" text-decoration="normal" x="0" y="0" text-anchor="middle" dominant-baseline="hanging">Number of violations</text><g transform="rotate(0,0,0) translate(-377,-227)"/></g></g></g></g></g></g></g><g><g fill="#444444"><path fill="none" stroke="black" paint-order="fill stroke markers" d=" M 84 189 L 84 37" stroke-linejoin="bevel" stroke-miterlimit="10"/><path fill="none" stroke="black" paint-order="fill stroke markers" d=" M 78 170 L 86 170" stroke-linejoin="bevel" stroke-miterlimit="10"/><path fill="none" stroke="black" paint-order="fill stroke markers" d=" M 78 132 L 86 132" stroke-linejoin="bevel" stroke-miterlimit="10"/><path fill="none" stroke="black" paint-order="fill stroke markers" d=" M 78 94 L 86 94" stroke-linejoin="bevel" stroke-miterlimit="10"/><path fill="" stroke="black" paint-order="fill stroke markers" d=" M 78 56 L 86 56" stroke-linejoin="bevel" stroke-miterlimit="10"/><g transform="translate(73,170) rotate(0,0,0)"><text fill="" stroke="none" font-family="helvetica" font-size="14pt" font-style="normal" font-weight="normal" text-decoration="normal" x="0" y="0" text-anchor="end" dominant-baseline="central">Model 1</text><g transform="rotate(0,0,0) translate(-73,-170) translate(73,132) rotate(0,0,0)"><text fill="" stroke="none" font-family="helvetica" font-size="14pt" font-style="normal" font-weight="normal" text-decoration="normal" x="0" y="0" text-anchor="end" dominant-baseline="central">Model 2</text><g transform="rotate(0,0,0) translate(-73,-132) translate(73,94) rotate(0,0,0)"><text fill="" stroke="none" font-family="helvetica" font-size="14pt" font-style="normal" font-weight="normal" text-decoration="normal" x="0" y="0" text-anchor="end" dominant-baseline="central">Model 3</text><g transform="rotate(0,0,0) translate(-73,-94) translate(73,56) rotate(0,0,0)"><text fill="" stroke="none" font-family="helvetica" font-size="14pt" font-style="normal" font-weight="normal" text-decoration="normal" x="0" y="0" text-anchor="end" dominant-baseline="central">Model 4</text><g transform="rotate(0,0,0) translate(-73,-56)"/></g></g></g></g></g></g><g clip-path="url(#BGHqQckGOWDg)"><g/></g></g></g></svg>