<svg version="1.1" xmlns="http://www.w3.org/2000/svg" xmlns:xlink="http://www.w3.org/1999/xlink" width="700" height="250" style="width: 700px; height: 250px;"><defs><clipPath id="NVoFOtuThAJd"><path fill="none" stroke="none" d=" M 243 37 L 670 37 L 670 217 L 243 217 L 243 37 Z"/></clipPath><clipPath id="HDgxWulzpPJr"><path fill="none" stroke="none" d=" M 243 37 L 670 37 L 670 217 L 243 217 L 243 37 Z"/></clipPath><clipPath id="AWefvtuMSDRm"><path fill="none" stroke="none" d=" M 243 37 L 670 37 L 670 217 L 243 217 L 243 37 Z"/></clipPath><clipPath id="nHktNtwarIhR"><path fill="none" stroke="none" d=" M 243 37 L 670 37 L 670 217 L 243 217 L 243 37 Z"/></clipPath><clipPath id="MqxvTgRJpxbq"><path fill="none" stroke="none" d=" M 243 37 L 670 37 L 670 217 L 243 217 L 243 37 Z"/></clipPath><clipPath id="NfbVJfhrSTuH"><path fill="none" stroke="none" d=" M 243 37 L 670 37 L 670 217 L 243 217 L 243 37 Z"/></clipPath><clipPath id="RCxCylelsuvw"><path fill="none" stroke="none" d=" M 243 37 L 670 37 L 670 217 L 243 217 L 243 37 Z"/></clipPath><clipPath id="NwpnfLKeanAt"><path fill="none" stroke="none" d=" M 243 37 L 670 37 L 670 217 L 243 217 L 243 37 Z"/></clipPath><clipPath id="iHFfsdJcTMMk"><path fill="none" stroke="none" d=" M 243 37 L 670 37 L 670 217 L 243 217 L 243 37 Z"/></clipPath><clipPath id="HKxcvQVbrtrI"><path fill="none" stroke="none" d=" M 243 37 L 670 37 L 670 217 L 243 217 L 243 37 Z"/></clipPath></defs><g><g transform="scale(1,1) translate(0.5,0.5)"><rect fill="#FFFFFF" stroke="none" x="0" y="0" width="700" height="250"/><rect fill="#ffffff" stroke="none" x="0" y="0" width="700" height="250"/><rect fill="#FFFFFF" stroke="none" x="243" y="37" width="427" height="180"/><rect fill="#ffffff" stroke="none" x="243" y="37" width="427" height="180"/><g><rect fill="none" stroke="#e5e5e5" x="243" y="37" width="427" height="180" stroke-linejoin="bevel" stroke-miterlimit="10"/></g><g clip-path="url(#NVoFOtuThAJd)"><g><g><path fill="none" stroke="#e5e5e5" paint-order="fill stroke markers" d=" M 298 217 L 298 37" stroke-linejoin="bevel" stroke-miterlimit="10"/><path fill="none" stroke="#e5e5e5" paint-order="fill stroke markers" d=" M 354 217 L 354 37" stroke-linejoin="bevel" stroke-miterlimit="10"/><path fill="none" stroke="#e5e5e5" paint-order="fill stroke markers" d=" M 409 217 L 409 37" stroke-linejoin="bevel" stroke-miterlimit="10"/><path fill="none" stroke="#e5e5e5" paint-order="fill stroke markers" d=" M 464 217 L 464 37" stroke-linejoin="bevel" stroke-miterlimit="10"/><path fill="none" stroke="#e5e5e5" paint-order="fill stroke markers" d=" M 520 217 L 520 37" stroke-linejoin="bevel" stroke-miterlimit="10"/><path fill="none" stroke="#e5e5e5" paint-order="fill stroke markers" d=" M 575 217 L 575 37" stroke-linejoin="bevel" stroke-miterlimit="10"/><path fill="none" stroke="#e5e5e5" paint-order="fill stroke markers" d=" M 630 217 L 630 37" stroke-linejoin="bevel" stroke-miterlimit="10"/></g></g></g><g clip-path="url(#HDgxWulzpPJr)"><g><g/></g></g><g clip-path="url(#AWefvtuMSDRm)"><g><g><path fill="none" stroke="none"/><path fill="#440154" stroke="none" paint-order="stroke fill markers" d=" M 243 194.5 L 384.59585492227984 194.5 L 384.59585492227984 209.5 L 243 209.5 L 243 194.5 Z" fill-opacity="0.8"/><path fill="none" stroke="#440154" paint-order="fill stroke markers" d=" M 243 194.5 L 384.59585492227984 194.5 L 384.59585492227984 209.5 L 243 209.5 L 243 194.5 Z" stroke-linejoin="bevel" stroke-miterlimit="10" stroke-opacity="0.8"/><path fill="#404387" stroke="none" paint-order="stroke fill markers" d=" M 243 164.5 L 364.6839378238342 164.5 L 364.6839378238342 179.5 L 243 179.5 L 243 164.5 Z" fill-opacity="0.8"/><path fill="none" stroke="#404387" paint-order="fill stroke markers" d=" M 243 164.5 L 364.6839378238342 164.5 L 364.6839378238342 179.5 L 243 179.5 L 243 164.5 Z" stroke-linejoin="bevel" stroke-miterlimit="10" stroke-opacity="0.8"/><path fill="#29788E" stroke="none" paint-order="stroke fill markers" d=" M 243 134.5 L 460.92487046632124 134.5 L 460.92487046632124 149.5 L 243 149.5 L 243 134.5 Z" fill-opacity="0.8"/><path fill="none" stroke="#29788E" paint-order="fill stroke markers" d=" M 243 134.5 L 460.92487046632124 134.5 L 460.92487046632124 149.5 L 243 149.5 L 243 134.5 Z" stroke-linejoin="bevel" stroke-miterlimit="10" stroke-opacity="0.8"/><path fill="#22A784" stroke="none" paint-order="stroke fill markers" d=" M 243 104.5 L 559.3782383419689 104.5 L 559.3782383419689 119.5 L 243 119.5 L 243 104.5 Z" fill-opacity="0.8"/><path fill="none" stroke="#22A784" paint-order="fill stroke markers" d=" M 243 104.5 L 559.3782383419689 104.5 L 559.3782383419689 119.5 L 243 119.5 L 243 104.5 Z" stroke-linejoin="bevel" stroke-miterlimit="10" stroke-opacity="0.8"/><path fill="#79D151" stroke="none" paint-order="stroke fill markers" d=" M 243 74.5 L 466.4559585492228 74.5 L 466.4559585492228 89.5 L 243 89.5 L 243 74.5 Z" fill-opacity="0.8"/><path fill="none" stroke="#79D151" paint-order="fill stroke markers" d=" M 243 74.5 L 466.4559585492228 74.5 L 466.4559585492228 89.5 L 243 89.5 L 243 74.5 Z" stroke-linejoin="bevel" stroke-miterlimit="10" stroke-opacity="0.8"/><path fill="#FDE724" stroke="none" paint-order="stroke fill markers" d=" M 243 44.5 L 457.6062176165803 44.5 L 457.6062176165803 59.5 L 243 59.5 L 243 44.5 Z" fill-opacity="0.8"/><path fill="none" stroke="#FDE724" paint-order="fill stroke markers" d=" M 243 44.5 L 457.6062176165803 44.5 L 457.6062176165803 59.5 L 243 59.5 L 243 44.5 Z" stroke-linejoin="bevel" stroke-miterlimit="10" stroke-opacity="0.8"/></g></g></g><g clip-path="url(#nHktNtwarIhR)"><g><g/><g><path fill="#ffffff" stroke="#e5e5e5" paint-order="fill stroke markers" d=" M 589.6833324432373 47 L 660 47 L 660 202 L 589.6833324432373 202 L 589.6833324432373 47 Z" fill-opacity="0.95" stroke-linejoin="bevel" stroke-miterlimit="10" stroke-opacity="0.5"/><text fill="#444444" stroke="none" font-family="helvetica" font-size="13px" font-style="normal" font-weight="normal" text-decoration="normal" x="624.6833324432373" y="67" text-anchor="start" dominant-baseline="central">1.28</text><rect fill="#440154" stroke="none" x="601.6833324432373" y="59" width="16" height="16" fill-opacity="0.8"/><path fill="none" stroke="#440154" paint-order="fill stroke markers" d=" M 601.6833324432373 59 L 617.6833324432373 59 L 617.6833324432373 75 L 601.6833324432373 75 L 601.6833324432373 59 Z" stroke-linejoin="bevel" stroke-miterlimit="10" stroke-opacity="0.8"/><text fill="#444444" stroke="none" font-family="helvetica" font-size="13px" font-style="normal" font-weight="normal" text-decoration="normal" x="624.6833324432373" y="90" text-anchor="start" dominant-baseline="central">1.1</text><rect fill="#404387" stroke="none" x="601.6833324432373" y="82" width="16" height="16" fill-opacity="0.8"/><path fill="none" stroke="#404387" paint-order="fill stroke markers" d=" M 601.6833324432373 82 L 617.6833324432373 82 L 617.6833324432373 98 L 601.6833324432373 98 L 601.6833324432373 82 Z" stroke-linejoin="bevel" stroke-miterlimit="10" stroke-opacity="0.8"/><text fill="#444444" stroke="none" font-family="helvetica" font-size="13px" font-style="normal" font-weight="normal" text-decoration="normal" x="624.6833324432373" y="113" text-anchor="start" dominant-baseline="central">1.97</text><rect fill="#29788E" stroke="none" x="601.6833324432373" y="105" width="16" height="16" fill-opacity="0.8"/><path fill="none" stroke="#29788E" paint-order="fill stroke markers" d=" M 601.6833324432373 105 L 617.6833324432373 105 L 617.6833324432373 121 L 601.6833324432373 121 L 601.6833324432373 105 Z" stroke-linejoin="bevel" stroke-miterlimit="10" stroke-opacity="0.8"/><text fill="#444444" stroke="none" font-family="helvetica" font-size="13px" font-style="normal" font-weight="normal" text-decoration="normal" x="624.6833324432373" y="136" text-anchor="start" dominant-baseline="central">2.86</text><rect fill="#22A784" stroke="none" x="601.6833324432373" y="128" width="16" height="16" fill-opacity="0.8"/><path fill="none" stroke="#22A784" paint-order="fill stroke markers" d=" M 601.6833324432373 128 L 617.6833324432373 128 L 617.6833324432373 144 L 601.6833324432373 144 L 601.6833324432373 128 Z" stroke-linejoin="bevel" stroke-miterlimit="10" stroke-opacity="0.8"/><text fill="#444444" stroke="none" font-family="helvetica" font-size="13px" font-style="normal" font-weight="normal" text-decoration="normal" x="624.6833324432373" y="159" text-anchor="start" dominant-baseline="central">2.02</text><rect fill="#79D151" stroke="none" x="601.6833324432373" y="151" width="16" height="16" fill-opacity="0.8"/><path fill="none" stroke="#79D151" paint-order="fill stroke markers" d=" M 601.6833324432373 151 L 617.6833324432373 151 L 617.6833324432373 167 L 601.6833324432373 167 L 601.6833324432373 151 Z" stroke-linejoin="bevel" stroke-miterlimit="10" stroke-opacity="0.8"/><text fill="#444444" stroke="none" font-family="helvetica" font-size="13px" font-style="normal" font-weight="normal" text-decoration="normal" x="624.6833324432373" y="182" text-anchor="start" dominant-baseline="central">1.94</text><rect fill="#FDE724" stroke="none" x="601.6833324432373" y="174" width="16" height="16" fill-opacity="0.8"/><path fill="none" stroke="#FDE724" paint-order="fill stroke markers" d=" M 601.6833324432373 174 L 617.6833324432373 174 L 617.6833324432373 190 L 601.6833324432373 190 L 601.6833324432373 174 Z" stroke-linejoin="bevel" stroke-miterlimit="10" stroke-opacity="0.8"/></g></g></g><g><g fill="#444444"><path fill="" stroke="none" d=""/><g transform="translate(456.5,32)"><path fill="none" stroke="none"/><text fill="" stroke="none" font-family="helvetica" font-size="14pt" font-style="normal" font-weight="bold" text-decoration="normal" x="0" y="0" text-anchor="middle" dominant-baseline="text-after-edge">Fit to SAS input: χ² Fit</text></g></g></g><g/><g><g fill="#444444"><path fill="none" stroke="black" paint-order="fill stroke markers" d=" M 243 217 L 670 217" stroke-linejoin="bevel" stroke-miterlimit="10"/><path fill="none" stroke="black" paint-order="fill stroke markers" d=" M 243 223 L 243 215" stroke-linejoin="bevel" stroke-miterlimit="10"/><path fill="none" stroke="black" paint-order="fill stroke markers" d=" M 298 223 L 298 215" stroke-linejoin="bevel" stroke-miterlimit="10"/><path fill="none" stroke="black" paint-order="fill stroke markers" d=" M 354 223 L 354 215" stroke-linejoin="bevel" stroke-miterlimit="10"/><path fill="none" stroke="black" paint-order="fill stroke markers" d=" M 409 223 L 409 215" stroke-linejoin="bevel" stroke-miterlimit="10"/><path fill="none" stroke="black" paint-order="fill stroke markers" d=" M 464 223 L 464 215" stroke-linejoin="bevel" stroke-miterlimit="10"/><path fill="none" stroke="black" paint-order="fill stroke markers" d=" M 520 223 L 520 215" stroke-linejoin="bevel" stroke-miterlimit="10"/><path fill="none" stroke="black" paint-order="fill stroke markers" d=" M 575 223 L 575 215" stroke-linejoin="bevel" stroke-miterlimit="10"/><path fill="none" stroke="black" paint-order="fill stroke markers" d=" M 630 223 L 630 215" stroke-linejoin="bevel" stroke-miterlimit="10"/><path fill="none" stroke="black" paint-order="fill stroke markers" d=" M 243 221 L 243 217" stroke-linejoin="bevel" stroke-miterlimit="10"/><path fill="none" stroke="black" paint-order="fill stroke markers" d=" M 254 221 L 254 217" stroke-linejoin="bevel" stroke-miterlimit="10"/><path fill="none" stroke="black" paint-order="fill stroke markers" d=" M 265 221 L 265 217" stroke-linejoin="bevel" stroke-miterlimit="10"/><path fill="none" stroke="black" paint-order="fill stroke markers" d=" M 276 221 L 276 217" stroke-linejoin="bevel" stroke-miterlimit="10"/><path fill="none" stroke="black" paint-order="fill stroke markers" d=" M 287 221 L 287 217" stroke-linejoin="bevel" stroke-miterlimit="10"/><path fill="none" stroke="black" paint-order="fill stroke markers" d=" M 298 221 L 298 217" stroke-linejoin="bevel" stroke-miterlimit="10"/><path fill="none" stroke="black" paint-order="fill stroke markers" d=" M 309 221 L 309 217" stroke-linejoin="bevel" stroke-miterlimit="10"/><path fill="none" stroke="black" paint-order="fill stroke markers" d=" M 320 221 L 320 217" stroke-linejoin="bevel" stroke-miterlimit="10"/><path fill="none" stroke="black" paint-order="fill stroke markers" d=" M 331 221 L 331 217" stroke-linejoin="bevel" stroke-miterlimit="10"/><path fill="none" stroke="black" paint-order="fill stroke markers" d=" M 343 221 L 343 217" stroke-linejoin="bevel" stroke-miterlimit="10"/><path fill="none" stroke="black" paint-order="fill stroke markers" d=" M 354 221 L 354 217" stroke-linejoin="bevel" stroke-miterlimit="10"/><path fill="none" stroke="black" paint-order="fill stroke markers" d=" M 365 221 L 365 217" stroke-linejoin="bevel" stroke-miterlimit="10"/><path fill="none" stroke="black" paint-order="fill stroke markers" d=" M 376 221 L 376 217" stroke-linejoin="bevel" stroke-miterlimit="10"/><path fill="none" stroke="black" paint-order="fill stroke markers" d=" M 387 221 L 387 217" stroke-linejoin="bevel" stroke-miterlimit="10"/><path fill="none" stroke="black" paint-order="fill stroke markers" d=" M 398 221 L 398 217" stroke-linejoin="bevel" stroke-miterlimit="10"/><path fill="none" stroke="black" paint-order="fill stroke markers" d=" M 409 221 L 409 217" stroke-linejoin="bevel" stroke-miterlimit="10"/><path fill="none" stroke="black" paint-order="fill stroke markers" d=" M 420 221 L 420 217" stroke-linejoin="bevel" stroke-miterlimit="10"/><path fill="none" stroke="black" paint-order="fill stroke markers" d=" M 431 221 L 431 217" stroke-linejoin="bevel" stroke-miterlimit="10"/><path fill="none" stroke="black" paint-order="fill stroke markers" d=" M 442 221 L 442 217" stroke-linejoin="bevel" stroke-miterlimit="10"/><path fill="none" stroke="black" paint-order="fill stroke markers" d=" M 453 221 L 453 217" stroke-linejoin="bevel" stroke-miterlimit="10"/><path fill="none" stroke="black" paint-order="fill stroke markers" d=" M 464 221 L 464 217" stroke-linejoin="bevel" stroke-miterlimit="10"/><path fill="none" stroke="black" paint-order="fill stroke markers" d=" M 475 221 L 475 217" stroke-linejoin="bevel" stroke-miterlimit="10"/><path fill="none" stroke="black" paint-order="fill stroke markers" d=" M 486 221 L 486 217" stroke-linejoin="bevel" stroke-miterlimit="10"/><path fill="none" stroke="black" paint-order="fill stroke markers" d=" M 497 221 L 497 217" stroke-linejoin="bevel" stroke-miterlimit="10"/><path fill="none" stroke="black" paint-order="fill stroke markers" d=" M 508 221 L 508 217" stroke-linejoin="bevel" stroke-miterlimit="10"/><path fill="none" stroke="black" paint-order="fill stroke markers" d=" M 520 221 L 520 217" stroke-linejoin="bevel" stroke-miterlimit="10"/><path fill="none" stroke="black" paint-order="fill stroke markers" d=" M 531 221 L 531 217" stroke-linejoin="bevel" stroke-miterlimit="10"/><path fill="none" stroke="black" paint-order="fill stroke markers" d=" M 542 221 L 542 217" stroke-linejoin="bevel" stroke-miterlimit="10"/><path fill="none" stroke="black" paint-order="fill stroke markers" d=" M 553 221 L 553 217" stroke-linejoin="bevel" stroke-miterlimit="10"/><path fill="none" stroke="black" paint-order="fill stroke markers" d=" M 564 221 L 564 217" stroke-linejoin="bevel" stroke-miterlimit="10"/><path fill="none" stroke="black" paint-order="fill stroke markers" d=" M 575 221 L 575 217" stroke-linejoin="bevel" stroke-miterlimit="10"/><path fill="none" stroke="black" paint-order="fill stroke markers" d=" M 586 221 L 586 217" stroke-linejoin="bevel" stroke-miterlimit="10"/><path fill="none" stroke="black" paint-order="fill stroke markers" d=" M 597 221 L 597 217" stroke-linejoin="bevel" stroke-miterlimit="10"/><path fill="none" stroke="black" paint-order="fill stroke markers" d=" M 608 221 L 608 217" stroke-linejoin="bevel" stroke-miterlimit="10"/><path fill="none" stroke="black" paint-order="fill stroke markers" d=" M 619 221 L 619 217" stroke-linejoin="bevel" stroke-miterlimit="10"/><path fill="none" stroke="black" paint-order="fill stroke markers" d=" M 630 221 L 630 217" stroke-linejoin="bevel" stroke-miterlimit="10"/><path fill="none" stroke="black" paint-order="fill stroke markers" d=" M 641 221 L 641 217" stroke-linejoin="bevel" stroke-miterlimit="10"/><path fill="none" stroke="black" paint-order="fill stroke markers" d=" M 652 221 L 652 217" stroke-linejoin="bevel" stroke-miterlimit="10"/><path fill="" stroke="black" paint-order="fill stroke markers" d=" M 663 221 L 663 217" stroke-linejoin="bevel" stroke-miterlimit="10"/><g transform="translate(243,228) rotate(0,0,0)"><text fill="" stroke="none" font-family="helvetica" font-size="14pt" font-style="normal" font-weight="normal" text-decoration="normal" x="0" y="0" text-anchor="middle" dominant-baseline="hanging">0</text><g transform="rotate(0,0,0) translate(-243,-228) translate(298,228) rotate(0,0,0)"><text fill="" stroke="none" font-family="helvetica" font-size="14pt" font-style="normal" font-weight="normal" text-decoration="normal" x="0" y="0" text-anchor="middle" dominant-baseline="hanging">0.5</text><g transform="rotate(0,0,0) translate(-298,-228) translate(354,228) rotate(0,0,0)"><text fill="" stroke="none" font-family="helvetica" font-size="14pt" font-style="normal" font-weight="normal" text-decoration="normal" x="0" y="0" text-anchor="middle" dominant-baseline="hanging">1</text><g transform="rotate(0,0,0) translate(-354,-228) translate(409,228) rotate(0,0,0)"><text fill="" stroke="none" font-family="helvetica" font-size="14pt" font-style="normal" font-weight="normal" text-decoration="normal" x="0" y="0" text-anchor="middle" dominant-baseline="hanging">1.5</text><g transform="rotate(0,0,0) translate(-409,-228) translate(464,228) rotate(0,0,0)"><text fill="" stroke="none" font-family="helvetica" font-size="14pt" font-style="normal" font-weight="normal" text-decoration="normal" x="0" y="0" text-anchor="middle" dominant-baseline="hanging">2</text><g transform="rotate(0,0,0) translate(-464,-228) translate(520,228) rotate(0,0,0)"><text fill="" stroke="none" font-family="helvetica" font-size="14pt" font-style="normal" font-weight="normal" text-decoration="normal" x="0" y="0" text-anchor="middle" dominant-baseline="hanging">2.5</text><g transform="rotate(0,0,0) translate(-520,-228) translate(575,228) rotate(0,0,0)"><text fill="" stroke="none" font-family="helvetica" font-size="14pt" font-style="normal" font-weight="normal" text-decoration="normal" x="0" y="0" text-anchor="middle" dominant-baseline="hanging">3</text><g transform="rotate(0,0,0) translate(-575,-228) translate(630,228) rotate(0,0,0)"><text fill="" stroke="none" font-family="helvetica" font-size="14pt" font-style="normal" font-weight="normal" text-decoration="normal" x="0" y="0" text-anchor="middle" dominant-baseline="hanging">3.5</text><g transform="rotate(0,0,0) translate(-630,-228)"/></g></g></g></g></g></g></g></g></g></g><g><g fill="#444444"><path fill="none" stroke="black" paint-order="fill stroke markers" d=" M 243 217 L 243 37" stroke-linejoin="bevel" stroke-miterlimit="10"/><path fill="none" stroke="black" paint-order="fill stroke markers" d=" M 237 202 L 245 202" stroke-linejoin="bevel" stroke-miterlimit="10"/><path fill="none" stroke="black" paint-order="fill stroke markers" d=" M 237 172 L 245 172" stroke-linejoin="bevel" stroke-miterlimit="10"/><path fill="none" stroke="black" paint-order="fill stroke markers" d=" M 237 142 L 245 142" stroke-linejoin="bevel" stroke-miterlimit="10"/><path fill="none" stroke="black" paint-order="fill stroke markers" d=" M 237 112 L 245 112" stroke-linejoin="bevel" stroke-miterlimit="10"/><path fill="none" stroke="black" paint-order="fill stroke markers" d=" M 237 82 L 245 82" stroke-linejoin="bevel" stroke-miterlimit="10"/><path fill="" stroke="black" paint-order="fill stroke markers" d=" M 237 52 L 245 52" stroke-linejoin="bevel" stroke-miterlimit="10"/><g transform="translate(232,202) rotate(0,0,0)"><text fill="" stroke="none" font-family="helvetica" font-size="14pt" font-style="normal" font-weight="normal" text-decoration="normal" x="0" y="0" text-anchor="end" dominant-baseline="central">χ² value fit 1 (SASDBV9)</text><g transform="rotate(0,0,0) translate(-232,-202) translate(232,172) rotate(0,0,0)"><text fill="" stroke="none" font-family="helvetica" font-size="14pt" font-style="normal" font-weight="normal" text-decoration="normal" x="0" y="0" text-anchor="end" dominant-baseline="central">χ² value fit 2 (SASDBV9)</text><g transform="rotate(0,0,0) translate(-232,-172) translate(232,142) rotate(0,0,0)"><text fill="" stroke="none" font-family="helvetica" font-size="14pt" font-style="normal" font-weight="normal" text-decoration="normal" x="0" y="0" text-anchor="end" dominant-baseline="central">χ² value fit 1 (SASDBW9)</text><g transform="rotate(0,0,0) translate(-232,-142) translate(232,112) rotate(0,0,0)"><text fill="" stroke="none" font-family="helvetica" font-size="14pt" font-style="normal" font-weight="normal" text-decoration="normal" x="0" y="0" text-anchor="end" dominant-baseline="central">χ² value fit 1 (SASDBX9)</text><g transform="rotate(0,0,0) translate(-232,-112) translate(232,82) rotate(0,0,0)"><text fill="" stroke="none" font-family="helvetica" font-size="14pt" font-style="normal" font-weight="normal" text-decoration="normal" x="0" y="0" text-anchor="end" dominant-baseline="central">χ² value fit 1 (SASDBY9)</text><g transform="rotate(0,0,0) translate(-232,-82) translate(232,52) rotate(0,0,0)"><text fill="" stroke="none" font-family="helvetica" font-size="14pt" font-style="normal" font-weight="normal" text-decoration="normal" x="0" y="0" text-anchor="end" dominant-baseline="central">χ² value fit 1 (SASDBZ9)</text><g transform="rotate(0,0,0) translate(-232,-52)"/></g></g></g></g></g></g></g></g><g clip-path="url(#MqxvTgRJpxbq)"><g/></g></g><g transform="scale(1,1) translate(0.5,0.5)"><rect fill="#FFFFFF" stroke="none" x="0" y="0" width="700" height="250"/><rect fill="#ffffff" stroke="none" x="0" y="0" width="700" height="250"/><rect fill="#FFFFFF" stroke="none" x="243" y="37" width="427" height="180"/><rect fill="#ffffff" stroke="none" x="243" y="37" width="427" height="180"/><g><rect fill="none" stroke="#e5e5e5" x="243" y="37" width="427" height="180" stroke-linejoin="bevel" stroke-miterlimit="10"/></g><g clip-path="url(#NfbVJfhrSTuH)"><g><g><path fill="none" stroke="#e5e5e5" paint-order="fill stroke markers" d=" M 298 217 L 298 37" stroke-linejoin="bevel" stroke-miterlimit="10"/><path fill="none" stroke="#e5e5e5" paint-order="fill stroke markers" d=" M 354 217 L 354 37" stroke-linejoin="bevel" stroke-miterlimit="10"/><path fill="none" stroke="#e5e5e5" paint-order="fill stroke markers" d=" M 409 217 L 409 37" stroke-linejoin="bevel" stroke-miterlimit="10"/><path fill="none" stroke="#e5e5e5" paint-order="fill stroke markers" d=" M 464 217 L 464 37" stroke-linejoin="bevel" stroke-miterlimit="10"/><path fill="none" stroke="#e5e5e5" paint-order="fill stroke markers" d=" M 520 217 L 520 37" stroke-linejoin="bevel" stroke-miterlimit="10"/><path fill="none" stroke="#e5e5e5" paint-order="fill stroke markers" d=" M 575 217 L 575 37" stroke-linejoin="bevel" stroke-miterlimit="10"/><path fill="none" stroke="#e5e5e5" paint-order="fill stroke markers" d=" M 630 217 L 630 37" stroke-linejoin="bevel" stroke-miterlimit="10"/></g></g></g><g clip-path="url(#RCxCylelsuvw)"><g><g/></g></g><g clip-path="url(#NwpnfLKeanAt)"><g><g><path fill="none" stroke="none"/><path fill="#440154" stroke="none" paint-order="stroke fill markers" d=" M 243 194.5 L 384.59585492227984 194.5 L 384.59585492227984 209.5 L 243 209.5 L 243 194.5 Z" fill-opacity="0.8"/><path fill="none" stroke="#440154" paint-order="fill stroke markers" d=" M 243 194.5 L 384.59585492227984 194.5 L 384.59585492227984 209.5 L 243 209.5 L 243 194.5 Z" stroke-linejoin="bevel" stroke-miterlimit="10" stroke-opacity="0.8"/><path fill="#404387" stroke="none" paint-order="stroke fill markers" d=" M 243 164.5 L 364.6839378238342 164.5 L 364.6839378238342 179.5 L 243 179.5 L 243 164.5 Z" fill-opacity="0.8"/><path fill="none" stroke="#404387" paint-order="fill stroke markers" d=" M 243 164.5 L 364.6839378238342 164.5 L 364.6839378238342 179.5 L 243 179.5 L 243 164.5 Z" stroke-linejoin="bevel" stroke-miterlimit="10" stroke-opacity="0.8"/><path fill="#29788E" stroke="none" paint-order="stroke fill markers" d=" M 243 134.5 L 460.92487046632124 134.5 L 460.92487046632124 149.5 L 243 149.5 L 243 134.5 Z" fill-opacity="0.8"/><path fill="none" stroke="#29788E" paint-order="fill stroke markers" d=" M 243 134.5 L 460.92487046632124 134.5 L 460.92487046632124 149.5 L 243 149.5 L 243 134.5 Z" stroke-linejoin="bevel" stroke-miterlimit="10" stroke-opacity="0.8"/><path fill="#22A784" stroke="none" paint-order="stroke fill markers" d=" M 243 104.5 L 559.3782383419689 104.5 L 559.3782383419689 119.5 L 243 119.5 L 243 104.5 Z" fill-opacity="0.8"/><path fill="none" stroke="#22A784" paint-order="fill stroke markers" d=" M 243 104.5 L 559.3782383419689 104.5 L 559.3782383419689 119.5 L 243 119.5 L 243 104.5 Z" stroke-linejoin="bevel" stroke-miterlimit="10" stroke-opacity="0.8"/><path fill="#79D151" stroke="none" paint-order="stroke fill markers" d=" M 243 74.5 L 466.4559585492228 74.5 L 466.4559585492228 89.5 L 243 89.5 L 243 74.5 Z" fill-opacity="0.8"/><path fill="none" stroke="#79D151" paint-order="fill stroke markers" d=" M 243 74.5 L 466.4559585492228 74.5 L 466.4559585492228 89.5 L 243 89.5 L 243 74.5 Z" stroke-linejoin="bevel" stroke-miterlimit="10" stroke-opacity="0.8"/><path fill="#FDE724" stroke="none" paint-order="stroke fill markers" d=" M 243 44.5 L 457.6062176165803 44.5 L 457.6062176165803 59.5 L 243 59.5 L 243 44.5 Z" fill-opacity="0.8"/><path fill="none" stroke="#FDE724" paint-order="fill stroke markers" d=" M 243 44.5 L 457.6062176165803 44.5 L 457.6062176165803 59.5 L 243 59.5 L 243 44.5 Z" stroke-linejoin="bevel" stroke-miterlimit="10" stroke-opacity="0.8"/></g></g></g><g clip-path="url(#iHFfsdJcTMMk)"><g><g/><g><path fill="#ffffff" stroke="#e5e5e5" paint-order="fill stroke markers" d=" M 589.6833324432373 47 L 660 47 L 660 202 L 589.6833324432373 202 L 589.6833324432373 47 Z" fill-opacity="0.95" stroke-linejoin="bevel" stroke-miterlimit="10" stroke-opacity="0.5"/><text fill="#444444" stroke="none" font-family="helvetica" font-size="13px" font-style="normal" font-weight="normal" text-decoration="normal" x="624.6833324432373" y="67" text-anchor="start" dominant-baseline="central">1.28</text><rect fill="#440154" stroke="none" x="601.6833324432373" y="59" width="16" height="16" fill-opacity="0.8"/><path fill="none" stroke="#440154" paint-order="fill stroke markers" d=" M 601.6833324432373 59 L 617.6833324432373 59 L 617.6833324432373 75 L 601.6833324432373 75 L 601.6833324432373 59 Z" stroke-linejoin="bevel" stroke-miterlimit="10" stroke-opacity="0.8"/><text fill="#444444" stroke="none" font-family="helvetica" font-size="13px" font-style="normal" font-weight="normal" text-decoration="normal" x="624.6833324432373" y="90" text-anchor="start" dominant-baseline="central">1.1</text><rect fill="#404387" stroke="none" x="601.6833324432373" y="82" width="16" height="16" fill-opacity="0.8"/><path fill="none" stroke="#404387" paint-order="fill stroke markers" d=" M 601.6833324432373 82 L 617.6833324432373 82 L 617.6833324432373 98 L 601.6833324432373 98 L 601.6833324432373 82 Z" stroke-linejoin="bevel" stroke-miterlimit="10" stroke-opacity="0.8"/><text fill="#444444" stroke="none" font-family="helvetica" font-size="13px" font-style="normal" font-weight="normal" text-decoration="normal" x="624.6833324432373" y="113" text-anchor="start" dominant-baseline="central">1.97</text><rect fill="#29788E" stroke="none" x="601.6833324432373" y="105" width="16" height="16" fill-opacity="0.8"/><path fill="none" stroke="#29788E" paint-order="fill stroke markers" d=" M 601.6833324432373 105 L 617.6833324432373 105 L 617.6833324432373 121 L 601.6833324432373 121 L 601.6833324432373 105 Z" stroke-linejoin="bevel" stroke-miterlimit="10" stroke-opacity="0.8"/><text fill="#444444" stroke="none" font-family="helvetica" font-size="13px" font-style="normal" font-weight="normal" text-decoration="normal" x="624.6833324432373" y="136" text-anchor="start" dominant-baseline="central">2.86</text><rect fill="#22A784" stroke="none" x="601.6833324432373" y="128" width="16" height="16" fill-opacity="0.8"/><path fill="none" stroke="#22A784" paint-order="fill stroke markers" d=" M 601.6833324432373 128 L 617.6833324432373 128 L 617.6833324432373 144 L 601.6833324432373 144 L 601.6833324432373 128 Z" stroke-linejoin="bevel" stroke-miterlimit="10" stroke-opacity="0.8"/><text fill="#444444" stroke="none" font-family="helvetica" font-size="13px" font-style="normal" font-weight="normal" text-decoration="normal" x="624.6833324432373" y="159" text-anchor="start" dominant-baseline="central">2.02</text><rect fill="#79D151" stroke="none" x="601.6833324432373" y="151" width="16" height="16" fill-opacity="0.8"/><path fill="none" stroke="#79D151" paint-order="fill stroke markers" d=" M 601.6833324432373 151 L 617.6833324432373 151 L 617.6833324432373 167 L 601.6833324432373 167 L 601.6833324432373 151 Z" stroke-linejoin="bevel" stroke-miterlimit="10" stroke-opacity="0.8"/><text fill="#444444" stroke="none" font-family="helvetica" font-size="13px" font-style="normal" font-weight="normal" text-decoration="normal" x="624.6833324432373" y="182" text-anchor="start" dominant-baseline="central">1.94</text><rect fill="#FDE724" stroke="none" x="601.6833324432373" y="174" width="16" height="16" fill-opacity="0.8"/><path fill="none" stroke="#FDE724" paint-order="fill stroke markers" d=" M 601.6833324432373 174 L 617.6833324432373 174 L 617.6833324432373 190 L 601.6833324432373 190 L 601.6833324432373 174 Z" stroke-linejoin="bevel" stroke-miterlimit="10" stroke-opacity="0.8"/></g></g></g><g><g fill="#444444"><path fill="" stroke="none" d=""/><g transform="translate(456.5,32)"><path fill="none" stroke="none"/><text fill="" stroke="none" font-family="helvetica" font-size="14pt" font-style="normal" font-weight="bold" text-decoration="normal" x="0" y="0" text-anchor="middle" dominant-baseline="text-after-edge">Fit to SAS input: χ² Fit</text></g></g></g><g/><g><g fill="#444444"><path fill="none" stroke="black" paint-order="fill stroke markers" d=" M 243 217 L 670 217" stroke-linejoin="bevel" stroke-miterlimit="10"/><path fill="none" stroke="black" paint-order="fill stroke markers" d=" M 243 223 L 243 215" stroke-linejoin="bevel" stroke-miterlimit="10"/><path fill="none" stroke="black" paint-order="fill stroke markers" d=" M 298 223 L 298 215" stroke-linejoin="bevel" stroke-miterlimit="10"/><path fill="none" stroke="black" paint-order="fill stroke markers" d=" M 354 223 L 354 215" stroke-linejoin="bevel" stroke-miterlimit="10"/><path fill="none" stroke="black" paint-order="fill stroke markers" d=" M 409 223 L 409 215" stroke-linejoin="bevel" stroke-miterlimit="10"/><path fill="none" stroke="black" paint-order="fill stroke markers" d=" M 464 223 L 464 215" stroke-linejoin="bevel" stroke-miterlimit="10"/><path fill="none" stroke="black" paint-order="fill stroke markers" d=" M 520 223 L 520 215" stroke-linejoin="bevel" stroke-miterlimit="10"/><path fill="none" stroke="black" paint-order="fill stroke markers" d=" M 575 223 L 575 215" stroke-linejoin="bevel" stroke-miterlimit="10"/><path fill="none" stroke="black" paint-order="fill stroke markers" d=" M 630 223 L 630 215" stroke-linejoin="bevel" stroke-miterlimit="10"/><path fill="none" stroke="black" paint-order="fill stroke markers" d=" M 243 221 L 243 217" stroke-linejoin="bevel" stroke-miterlimit="10"/><path fill="none" stroke="black" paint-order="fill stroke markers" d=" M 254 221 L 254 217" stroke-linejoin="bevel" stroke-miterlimit="10"/><path fill="none" stroke="black" paint-order="fill stroke markers" d=" M 265 221 L 265 217" stroke-linejoin="bevel" stroke-miterlimit="10"/><path fill="none" stroke="black" paint-order="fill stroke markers" d=" M 276 221 L 276 217" stroke-linejoin="bevel" stroke-miterlimit="10"/><path fill="none" stroke="black" paint-order="fill stroke markers" d=" M 287 221 L 287 217" stroke-linejoin="bevel" stroke-miterlimit="10"/><path fill="none" stroke="black" paint-order="fill stroke markers" d=" M 298 221 L 298 217" stroke-linejoin="bevel" stroke-miterlimit="10"/><path fill="none" stroke="black" paint-order="fill stroke markers" d=" M 309 221 L 309 217" stroke-linejoin="bevel" stroke-miterlimit="10"/><path fill="none" stroke="black" paint-order="fill stroke markers" d=" M 320 221 L 320 217" stroke-linejoin="bevel" stroke-miterlimit="10"/><path fill="none" stroke="black" paint-order="fill stroke markers" d=" M 331 221 L 331 217" stroke-linejoin="bevel" stroke-miterlimit="10"/><path fill="none" stroke="black" paint-order="fill stroke markers" d=" M 343 221 L 343 217" stroke-linejoin="bevel" stroke-miterlimit="10"/><path fill="none" stroke="black" paint-order="fill stroke markers" d=" M 354 221 L 354 217" stroke-linejoin="bevel" stroke-miterlimit="10"/><path fill="none" stroke="black" paint-order="fill stroke markers" d=" M 365 221 L 365 217" stroke-linejoin="bevel" stroke-miterlimit="10"/><path fill="none" stroke="black" paint-order="fill stroke markers" d=" M 376 221 L 376 217" stroke-linejoin="bevel" stroke-miterlimit="10"/><path fill="none" stroke="black" paint-order="fill stroke markers" d=" M 387 221 L 387 217" stroke-linejoin="bevel" stroke-miterlimit="10"/><path fill="none" stroke="black" paint-order="fill stroke markers" d=" M 398 221 L 398 217" stroke-linejoin="bevel" stroke-miterlimit="10"/><path fill="none" stroke="black" paint-order="fill stroke markers" d=" M 409 221 L 409 217" stroke-linejoin="bevel" stroke-miterlimit="10"/><path fill="none" stroke="black" paint-order="fill stroke markers" d=" M 420 221 L 420 217" stroke-linejoin="bevel" stroke-miterlimit="10"/><path fill="none" stroke="black" paint-order="fill stroke markers" d=" M 431 221 L 431 217" stroke-linejoin="bevel" stroke-miterlimit="10"/><path fill="none" stroke="black" paint-order="fill stroke markers" d=" M 442 221 L 442 217" stroke-linejoin="bevel" stroke-miterlimit="10"/><path fill="none" stroke="black" paint-order="fill stroke markers" d=" M 453 221 L 453 217" stroke-linejoin="bevel" stroke-miterlimit="10"/><path fill="none" stroke="black" paint-order="fill stroke markers" d=" M 464 221 L 464 217" stroke-linejoin="bevel" stroke-miterlimit="10"/><path fill="none" stroke="black" paint-order="fill stroke markers" d=" M 475 221 L 475 217" stroke-linejoin="bevel" stroke-miterlimit="10"/><path fill="none" stroke="black" paint-order="fill stroke markers" d=" M 486 221 L 486 217" stroke-linejoin="bevel" stroke-miterlimit="10"/><path fill="none" stroke="black" paint-order="fill stroke markers" d=" M 497 221 L 497 217" stroke-linejoin="bevel" stroke-miterlimit="10"/><path fill="none" stroke="black" paint-order="fill stroke markers" d=" M 508 221 L 508 217" stroke-linejoin="bevel" stroke-miterlimit="10"/><path fill="none" stroke="black" paint-order="fill stroke markers" d=" M 520 221 L 520 217" stroke-linejoin="bevel" stroke-miterlimit="10"/><path fill="none" stroke="black" paint-order="fill stroke markers" d=" M 531 221 L 531 217" stroke-linejoin="bevel" stroke-miterlimit="10"/><path fill="none" stroke="black" paint-order="fill stroke markers" d=" M 542 221 L 542 217" stroke-linejoin="bevel" stroke-miterlimit="10"/><path fill="none" stroke="black" paint-order="fill stroke markers" d=" M 553 221 L 553 217" stroke-linejoin="bevel" stroke-miterlimit="10"/><path fill="none" stroke="black" paint-order="fill stroke markers" d=" M 564 221 L 564 217" stroke-linejoin="bevel" stroke-miterlimit="10"/><path fill="none" stroke="black" paint-order="fill stroke markers" d=" M 575 221 L 575 217" stroke-linejoin="bevel" stroke-miterlimit="10"/><path fill="none" stroke="black" paint-order="fill stroke markers" d=" M 586 221 L 586 217" stroke-linejoin="bevel" stroke-miterlimit="10"/><path fill="none" stroke="black" paint-order="fill stroke markers" d=" M 597 221 L 597 217" stroke-linejoin="bevel" stroke-miterlimit="10"/><path fill="none" stroke="black" paint-order="fill stroke markers" d=" M 608 221 L 608 217" stroke-linejoin="bevel" stroke-miterlimit="10"/><path fill="none" stroke="black" paint-order="fill stroke markers" d=" M 619 221 L 619 217" stroke-linejoin="bevel" stroke-miterlimit="10"/><path fill="none" stroke="black" paint-order="fill stroke markers" d=" M 630 221 L 630 217" stroke-linejoin="bevel" stroke-miterlimit="10"/><path fill="none" stroke="black" paint-order="fill stroke markers" d=" M 641 221 L 641 217" stroke-linejoin="bevel" stroke-miterlimit="10"/><path fill="none" stroke="black" paint-order="fill stroke markers" d=" M 652 221 L 652 217" stroke-linejoin="bevel" stroke-miterlimit="10"/><path fill="" stroke="black" paint-order="fill stroke markers" d=" M 663 221 L 663 217" stroke-linejoin="bevel" stroke-miterlimit="10"/><g transform="translate(243,228) rotate(0,0,0)"><text fill="" stroke="none" font-family="helvetica" font-size="14pt" font-style="normal" font-weight="normal" text-decoration="normal" x="0" y="0" text-anchor="middle" dominant-baseline="hanging">0</text><g transform="rotate(0,0,0) translate(-243,-228) translate(298,228) rotate(0,0,0)"><text fill="" stroke="none" font-family="helvetica" font-size="14pt" font-style="normal" font-weight="normal" text-decoration="normal" x="0" y="0" text-anchor="middle" dominant-baseline="hanging">0.5</text><g transform="rotate(0,0,0) translate(-298,-228) translate(354,228) rotate(0,0,0)"><text fill="" stroke="none" font-family="helvetica" font-size="14pt" font-style="normal" font-weight="normal" text-decoration="normal" x="0" y="0" text-anchor="middle" dominant-baseline="hanging">1</text><g transform="rotate(0,0,0) translate(-354,-228) translate(409,228) rotate(0,0,0)"><text fill="" stroke="none" font-family="helvetica" font-size="14pt" font-style="normal" font-weight="normal" text-decoration="normal" x="0" y="0" text-anchor="middle" dominant-baseline="hanging">1.5</text><g transform="rotate(0,0,0) translate(-409,-228) translate(464,228) rotate(0,0,0)"><text fill="" stroke="none" font-family="helvetica" font-size="14pt" font-style="normal" font-weight="normal" text-decoration="normal" x="0" y="0" text-anchor="middle" dominant-baseline="hanging">2</text><g transform="rotate(0,0,0) translate(-464,-228) translate(520,228) rotate(0,0,0)"><text fill="" stroke="none" font-family="helvetica" font-size="14pt" font-style="normal" font-weight="normal" text-decoration="normal" x="0" y="0" text-anchor="middle" dominant-baseline="hanging">2.5</text><g transform="rotate(0,0,0) translate(-520,-228) translate(575,228) rotate(0,0,0)"><text fill="" stroke="none" font-family="helvetica" font-size="14pt" font-style="normal" font-weight="normal" text-decoration="normal" x="0" y="0" text-anchor="middle" dominant-baseline="hanging">3</text><g transform="rotate(0,0,0) translate(-575,-228) translate(630,228) rotate(0,0,0)"><text fill="" stroke="none" font-family="helvetica" font-size="14pt" font-style="normal" font-weight="normal" text-decoration="normal" x="0" y="0" text-anchor="middle" dominant-baseline="hanging">3.5</text><g transform="rotate(0,0,0) translate(-630,-228)"/></g></g></g></g></g></g></g></g></g></g><g><g fill="#444444"><path fill="none" stroke="black" paint-order="fill stroke markers" d=" M 243 217 L 243 37" stroke-linejoin="bevel" stroke-miterlimit="10"/><path fill="none" stroke="black" paint-order="fill stroke markers" d=" M 237 202 L 245 202" stroke-linejoin="bevel" stroke-miterlimit="10"/><path fill="none" stroke="black" paint-order="fill stroke markers" d=" M 237 172 L 245 172" stroke-linejoin="bevel" stroke-miterlimit="10"/><path fill="none" stroke="black" paint-order="fill stroke markers" d=" M 237 142 L 245 142" stroke-linejoin="bevel" stroke-miterlimit="10"/><path fill="none" stroke="black" paint-order="fill stroke markers" d=" M 237 112 L 245 112" stroke-linejoin="bevel" stroke-miterlimit="10"/><path fill="none" stroke="black" paint-order="fill stroke markers" d=" M 237 82 L 245 82" stroke-linejoin="bevel" stroke-miterlimit="10"/><path fill="" stroke="black" paint-order="fill stroke markers" d=" M 237 52 L 245 52" stroke-linejoin="bevel" stroke-miterlimit="10"/><g transform="translate(232,202) rotate(0,0,0)"><text fill="" stroke="none" font-family="helvetica" font-size="14pt" font-style="normal" font-weight="normal" text-decoration="normal" x="0" y="0" text-anchor="end" dominant-baseline="central">χ² value fit 1 (SASDBV9)</text><g transform="rotate(0,0,0) translate(-232,-202) translate(232,172) rotate(0,0,0)"><text fill="" stroke="none" font-family="helvetica" font-size="14pt" font-style="normal" font-weight="normal" text-decoration="normal" x="0" y="0" text-anchor="end" dominant-baseline="central">χ² value fit 2 (SASDBV9)</text><g transform="rotate(0,0,0) translate(-232,-172) translate(232,142) rotate(0,0,0)"><text fill="" stroke="none" font-family="helvetica" font-size="14pt" font-style="normal" font-weight="normal" text-decoration="normal" x="0" y="0" text-anchor="end" dominant-baseline="central">χ² value fit 1 (SASDBW9)</text><g transform="rotate(0,0,0) translate(-232,-142) translate(232,112) rotate(0,0,0)"><text fill="" stroke="none" font-family="helvetica" font-size="14pt" font-style="normal" font-weight="normal" text-decoration="normal" x="0" y="0" text-anchor="end" dominant-baseline="central">χ² value fit 1 (SASDBX9)</text><g transform="rotate(0,0,0) translate(-232,-112) translate(232,82) rotate(0,0,0)"><text fill="" stroke="none" font-family="helvetica" font-size="14pt" font-style="normal" font-weight="normal" text-decoration="normal" x="0" y="0" text-anchor="end" dominant-baseline="central">χ² value fit 1 (SASDBY9)</text><g transform="rotate(0,0,0) translate(-232,-82) translate(232,52) rotate(0,0,0)"><text fill="" stroke="none" font-family="helvetica" font-size="14pt" font-style="normal" font-weight="normal" text-decoration="normal" x="0" y="0" text-anchor="end" dominant-baseline="central">χ² value fit 1 (SASDBZ9)</text><g transform="rotate(0,0,0) translate(-232,-52)"/></g></g></g></g></g></g></g></g><g clip-path="url(#HKxcvQVbrtrI)"><g/></g></g></g></svg>