<svg version="1.1" xmlns="http://www.w3.org/2000/svg" xmlns:xlink="http://www.w3.org/1999/xlink" width="700" height="250" style="width: 700px; height: 250px;"><defs><clipPath id="WGSFJKRmFZQB"><path fill="none" stroke="none" d=" M 228 37 L 670 37 L 670 217 L 228 217 L 228 37 Z"/></clipPath><clipPath id="ngRWhmoKLdxJ"><path fill="none" stroke="none" d=" M 228 37 L 670 37 L 670 217 L 228 217 L 228 37 Z"/></clipPath><clipPath id="qkCRupkEuzPZ"><path fill="none" stroke="none" d=" M 228 37 L 670 37 L 670 217 L 228 217 L 228 37 Z"/></clipPath><clipPath id="lRIgGbtyOrmT"><path fill="none" stroke="none" d=" M 228 37 L 670 37 L 670 217 L 228 217 L 228 37 Z"/></clipPath><clipPath id="ekansIQlukqQ"><path fill="none" stroke="none" d=" M 228 37 L 670 37 L 670 217 L 228 217 L 228 37 Z"/></clipPath><clipPath id="RtltJCDaOdnJ"><path fill="none" stroke="none" d=" M 228 37 L 670 37 L 670 217 L 228 217 L 228 37 Z"/></clipPath><clipPath id="dliAwEdNFiul"><path fill="none" stroke="none" d=" M 228 37 L 670 37 L 670 217 L 228 217 L 228 37 Z"/></clipPath><clipPath id="NcaPCWeCqNcM"><path fill="none" stroke="none" d=" M 228 37 L 670 37 L 670 217 L 228 217 L 228 37 Z"/></clipPath><clipPath id="aHTgJiJJZULF"><path fill="none" stroke="none" d=" M 228 37 L 670 37 L 670 217 L 228 217 L 228 37 Z"/></clipPath><clipPath id="SMgzomhRJEpb"><path fill="none" stroke="none" d=" M 228 37 L 670 37 L 670 217 L 228 217 L 228 37 Z"/></clipPath></defs><g><g transform="scale(1,1) translate(0.5,0.5)"><rect fill="#FFFFFF" stroke="none" x="0" y="0" width="700" height="250"/><rect fill="#ffffff" stroke="none" x="0" y="0" width="700" height="250"/><rect fill="#FFFFFF" stroke="none" x="228" y="37" width="442" height="180"/><rect fill="#ffffff" stroke="none" x="228" y="37" width="442" height="180"/><g><rect fill="none" stroke="#e5e5e5" x="228" y="37" width="442" height="180" stroke-linejoin="bevel" stroke-miterlimit="10"/></g><g clip-path="url(#WGSFJKRmFZQB)"><g><g><path fill="none" stroke="#e5e5e5" paint-order="fill stroke markers" d=" M 296 217 L 296 37" stroke-linejoin="bevel" stroke-miterlimit="10"/><path fill="none" stroke="#e5e5e5" paint-order="fill stroke markers" d=" M 364 217 L 364 37" stroke-linejoin="bevel" stroke-miterlimit="10"/><path fill="none" stroke="#e5e5e5" paint-order="fill stroke markers" d=" M 432 217 L 432 37" stroke-linejoin="bevel" stroke-miterlimit="10"/><path fill="none" stroke="#e5e5e5" paint-order="fill stroke markers" d=" M 500 217 L 500 37" stroke-linejoin="bevel" stroke-miterlimit="10"/><path fill="none" stroke="#e5e5e5" paint-order="fill stroke markers" d=" M 567 217 L 567 37" stroke-linejoin="bevel" stroke-miterlimit="10"/><path fill="none" stroke="#e5e5e5" paint-order="fill stroke markers" d=" M 635 217 L 635 37" stroke-linejoin="bevel" stroke-miterlimit="10"/></g></g></g><g clip-path="url(#ngRWhmoKLdxJ)"><g><g/></g></g><g clip-path="url(#qkCRupkEuzPZ)"><g><g><path fill="none" stroke="none"/><path fill="#440154" stroke="none" paint-order="stroke fill markers" d=" M 228 164.5 L 228 164.5 L 228 209.5 L 228 209.5 L 228 164.5 Z" fill-opacity="0.8"/><path fill="none" stroke="#440154" paint-order="fill stroke markers" d=" M 228 164.5 L 228 164.5 L 228 209.5 L 228 209.5 L 228 164.5 Z" stroke-linejoin="bevel" stroke-miterlimit="10" stroke-opacity="0.8"/><path fill="#208F8C" stroke="none" paint-order="stroke fill markers" d=" M 228 104.5 L 401.8125960061444 104.5 L 401.8125960061444 149.5 L 228 149.5 L 228 104.5 Z" fill-opacity="0.8"/><path fill="none" stroke="#208F8C" paint-order="fill stroke markers" d=" M 228 104.5 L 401.8125960061444 104.5 L 401.8125960061444 149.5 L 228 149.5 L 228 104.5 Z" stroke-linejoin="bevel" stroke-miterlimit="10" stroke-opacity="0.8"/><path fill="#FDE724" stroke="none" paint-order="stroke fill markers" d=" M 228 44.5 L 602.1044546850999 44.5 L 602.1044546850999 89.5 L 228 89.5 L 228 44.5 Z" fill-opacity="0.8"/><path fill="none" stroke="#FDE724" paint-order="fill stroke markers" d=" M 228 44.5 L 602.1044546850999 44.5 L 602.1044546850999 89.5 L 228 89.5 L 228 44.5 Z" stroke-linejoin="bevel" stroke-miterlimit="10" stroke-opacity="0.8"/></g></g></g><g clip-path="url(#lRIgGbtyOrmT)"><g><g/><g><path fill="#ffffff" stroke="#e5e5e5" paint-order="fill stroke markers" d=" M 578.1166648864746 47 L 660 47 L 660 133 L 578.1166648864746 133 L 578.1166648864746 47 Z" fill-opacity="0.95" stroke-linejoin="bevel" stroke-miterlimit="10" stroke-opacity="0.5"/><text fill="#444444" stroke="none" font-family="helvetica" font-size="13px" font-style="normal" font-weight="normal" text-decoration="normal" x="613.1166648864746" y="67" text-anchor="start" dominant-baseline="central">0.0</text><rect fill="#440154" stroke="none" x="590.1166648864746" y="59" width="16" height="16" fill-opacity="0.8"/><path fill="none" stroke="#440154" paint-order="fill stroke markers" d=" M 590.1166648864746 59 L 606.1166648864746 59 L 606.1166648864746 75 L 590.1166648864746 75 L 590.1166648864746 59 Z" stroke-linejoin="bevel" stroke-miterlimit="10" stroke-opacity="0.8"/><text fill="#444444" stroke="none" font-family="helvetica" font-size="13px" font-style="normal" font-weight="normal" text-decoration="normal" x="613.1166648864746" y="90" text-anchor="start" dominant-baseline="central">2.56%</text><rect fill="#208F8C" stroke="none" x="590.1166648864746" y="82" width="16" height="16" fill-opacity="0.8"/><path fill="none" stroke="#208F8C" paint-order="fill stroke markers" d=" M 590.1166648864746 82 L 606.1166648864746 82 L 606.1166648864746 98 L 590.1166648864746 98 L 590.1166648864746 82 Z" stroke-linejoin="bevel" stroke-miterlimit="10" stroke-opacity="0.8"/><text fill="#444444" stroke="none" font-family="helvetica" font-size="13px" font-style="normal" font-weight="normal" text-decoration="normal" x="613.1166648864746" y="113" text-anchor="start" dominant-baseline="central">5.51%</text><rect fill="#FDE724" stroke="none" x="590.1166648864746" y="105" width="16" height="16" fill-opacity="0.8"/><path fill="none" stroke="#FDE724" paint-order="fill stroke markers" d=" M 590.1166648864746 105 L 606.1166648864746 105 L 606.1166648864746 121 L 590.1166648864746 121 L 590.1166648864746 105 Z" stroke-linejoin="bevel" stroke-miterlimit="10" stroke-opacity="0.8"/></g></g></g><g><g fill="#444444"><path fill="" stroke="none" d=""/><g transform="translate(449,5)"><path fill="none" stroke="none"/><text fill="" stroke="none" font-family="helvetica" font-size="14pt" font-style="normal" font-weight="bold" text-decoration="normal" x="0" y="0" text-anchor="middle" dominant-baseline="text-before-edge">Model Quality: Molprobity Analysis</text></g></g></g><g/><g><g fill="#444444"><path fill="none" stroke="black" paint-order="fill stroke markers" d=" M 228 217 L 670 217" stroke-linejoin="bevel" stroke-miterlimit="10"/><path fill="none" stroke="black" paint-order="fill stroke markers" d=" M 228 223 L 228 215" stroke-linejoin="bevel" stroke-miterlimit="10"/><path fill="none" stroke="black" paint-order="fill stroke markers" d=" M 296 223 L 296 215" stroke-linejoin="bevel" stroke-miterlimit="10"/><path fill="none" stroke="black" paint-order="fill stroke markers" d=" M 364 223 L 364 215" stroke-linejoin="bevel" stroke-miterlimit="10"/><path fill="none" stroke="black" paint-order="fill stroke markers" d=" M 432 223 L 432 215" stroke-linejoin="bevel" stroke-miterlimit="10"/><path fill="none" stroke="black" paint-order="fill stroke markers" d=" M 500 223 L 500 215" stroke-linejoin="bevel" stroke-miterlimit="10"/><path fill="none" stroke="black" paint-order="fill stroke markers" d=" M 567 223 L 567 215" stroke-linejoin="bevel" stroke-miterlimit="10"/><path fill="none" stroke="black" paint-order="fill stroke markers" d=" M 635 223 L 635 215" stroke-linejoin="bevel" stroke-miterlimit="10"/><path fill="none" stroke="black" paint-order="fill stroke markers" d=" M 228 221 L 228 217" stroke-linejoin="bevel" stroke-miterlimit="10"/><path fill="none" stroke="black" paint-order="fill stroke markers" d=" M 242 221 L 242 217" stroke-linejoin="bevel" stroke-miterlimit="10"/><path fill="none" stroke="black" paint-order="fill stroke markers" d=" M 255 221 L 255 217" stroke-linejoin="bevel" stroke-miterlimit="10"/><path fill="none" stroke="black" paint-order="fill stroke markers" d=" M 269 221 L 269 217" stroke-linejoin="bevel" stroke-miterlimit="10"/><path fill="none" stroke="black" paint-order="fill stroke markers" d=" M 282 221 L 282 217" stroke-linejoin="bevel" stroke-miterlimit="10"/><path fill="none" stroke="black" paint-order="fill stroke markers" d=" M 296 221 L 296 217" stroke-linejoin="bevel" stroke-miterlimit="10"/><path fill="none" stroke="black" paint-order="fill stroke markers" d=" M 309 221 L 309 217" stroke-linejoin="bevel" stroke-miterlimit="10"/><path fill="none" stroke="black" paint-order="fill stroke markers" d=" M 323 221 L 323 217" stroke-linejoin="bevel" stroke-miterlimit="10"/><path fill="none" stroke="black" paint-order="fill stroke markers" d=" M 337 221 L 337 217" stroke-linejoin="bevel" stroke-miterlimit="10"/><path fill="none" stroke="black" paint-order="fill stroke markers" d=" M 350 221 L 350 217" stroke-linejoin="bevel" stroke-miterlimit="10"/><path fill="none" stroke="black" paint-order="fill stroke markers" d=" M 364 221 L 364 217" stroke-linejoin="bevel" stroke-miterlimit="10"/><path fill="none" stroke="black" paint-order="fill stroke markers" d=" M 377 221 L 377 217" stroke-linejoin="bevel" stroke-miterlimit="10"/><path fill="none" stroke="black" paint-order="fill stroke markers" d=" M 391 221 L 391 217" stroke-linejoin="bevel" stroke-miterlimit="10"/><path fill="none" stroke="black" paint-order="fill stroke markers" d=" M 405 221 L 405 217" stroke-linejoin="bevel" stroke-miterlimit="10"/><path fill="none" stroke="black" paint-order="fill stroke markers" d=" M 418 221 L 418 217" stroke-linejoin="bevel" stroke-miterlimit="10"/><path fill="none" stroke="black" paint-order="fill stroke markers" d=" M 432 221 L 432 217" stroke-linejoin="bevel" stroke-miterlimit="10"/><path fill="none" stroke="black" paint-order="fill stroke markers" d=" M 445 221 L 445 217" stroke-linejoin="bevel" stroke-miterlimit="10"/><path fill="none" stroke="black" paint-order="fill stroke markers" d=" M 459 221 L 459 217" stroke-linejoin="bevel" stroke-miterlimit="10"/><path fill="none" stroke="black" paint-order="fill stroke markers" d=" M 472 221 L 472 217" stroke-linejoin="bevel" stroke-miterlimit="10"/><path fill="none" stroke="black" paint-order="fill stroke markers" d=" M 486 221 L 486 217" stroke-linejoin="bevel" stroke-miterlimit="10"/><path fill="none" stroke="black" paint-order="fill stroke markers" d=" M 500 221 L 500 217" stroke-linejoin="bevel" stroke-miterlimit="10"/><path fill="none" stroke="black" paint-order="fill stroke markers" d=" M 513 221 L 513 217" stroke-linejoin="bevel" stroke-miterlimit="10"/><path fill="none" stroke="black" paint-order="fill stroke markers" d=" M 527 221 L 527 217" stroke-linejoin="bevel" stroke-miterlimit="10"/><path fill="none" stroke="black" paint-order="fill stroke markers" d=" M 540 221 L 540 217" stroke-linejoin="bevel" stroke-miterlimit="10"/><path fill="none" stroke="black" paint-order="fill stroke markers" d=" M 554 221 L 554 217" stroke-linejoin="bevel" stroke-miterlimit="10"/><path fill="none" stroke="black" paint-order="fill stroke markers" d=" M 567 221 L 567 217" stroke-linejoin="bevel" stroke-miterlimit="10"/><path fill="none" stroke="black" paint-order="fill stroke markers" d=" M 581 221 L 581 217" stroke-linejoin="bevel" stroke-miterlimit="10"/><path fill="none" stroke="black" paint-order="fill stroke markers" d=" M 595 221 L 595 217" stroke-linejoin="bevel" stroke-miterlimit="10"/><path fill="none" stroke="black" paint-order="fill stroke markers" d=" M 608 221 L 608 217" stroke-linejoin="bevel" stroke-miterlimit="10"/><path fill="none" stroke="black" paint-order="fill stroke markers" d=" M 622 221 L 622 217" stroke-linejoin="bevel" stroke-miterlimit="10"/><path fill="none" stroke="black" paint-order="fill stroke markers" d=" M 635 221 L 635 217" stroke-linejoin="bevel" stroke-miterlimit="10"/><path fill="none" stroke="black" paint-order="fill stroke markers" d=" M 649 221 L 649 217" stroke-linejoin="bevel" stroke-miterlimit="10"/><path fill="" stroke="black" paint-order="fill stroke markers" d=" M 663 221 L 663 217" stroke-linejoin="bevel" stroke-miterlimit="10"/><g transform="translate(228,228) rotate(0,0,0)"><text fill="" stroke="none" font-family="helvetica" font-size="14pt" font-style="normal" font-weight="normal" text-decoration="normal" x="0" y="0" text-anchor="middle" dominant-baseline="hanging">0</text><g transform="rotate(0,0,0) translate(-228,-228) translate(296,228) rotate(0,0,0)"><text fill="" stroke="none" font-family="helvetica" font-size="14pt" font-style="normal" font-weight="normal" text-decoration="normal" x="0" y="0" text-anchor="middle" dominant-baseline="hanging">1</text><g transform="rotate(0,0,0) translate(-296,-228) translate(364,228) rotate(0,0,0)"><text fill="" stroke="none" font-family="helvetica" font-size="14pt" font-style="normal" font-weight="normal" text-decoration="normal" x="0" y="0" text-anchor="middle" dominant-baseline="hanging">2</text><g transform="rotate(0,0,0) translate(-364,-228) translate(432,228) rotate(0,0,0)"><text fill="" stroke="none" font-family="helvetica" font-size="14pt" font-style="normal" font-weight="normal" text-decoration="normal" x="0" y="0" text-anchor="middle" dominant-baseline="hanging">3</text><g transform="rotate(0,0,0) translate(-432,-228) translate(500,228) rotate(0,0,0)"><text fill="" stroke="none" font-family="helvetica" font-size="14pt" font-style="normal" font-weight="normal" text-decoration="normal" x="0" y="0" text-anchor="middle" dominant-baseline="hanging">4</text><g transform="rotate(0,0,0) translate(-500,-228) translate(567,228) rotate(0,0,0)"><text fill="" stroke="none" font-family="helvetica" font-size="14pt" font-style="normal" font-weight="normal" text-decoration="normal" x="0" y="0" text-anchor="middle" dominant-baseline="hanging">5</text><g transform="rotate(0,0,0) translate(-567,-228) translate(635,228) rotate(0,0,0)"><text fill="" stroke="none" font-family="helvetica" font-size="14pt" font-style="normal" font-weight="normal" text-decoration="normal" x="0" y="0" text-anchor="middle" dominant-baseline="hanging">6</text><g transform="rotate(0,0,0) translate(-635,-228)"/></g></g></g></g></g></g></g></g></g><g><g fill="#444444"><path fill="none" stroke="black" paint-order="fill stroke markers" d=" M 228 217 L 228 37" stroke-linejoin="bevel" stroke-miterlimit="10"/><path fill="none" stroke="black" paint-order="fill stroke markers" d=" M 222 187 L 230 187" stroke-linejoin="bevel" stroke-miterlimit="10"/><path fill="none" stroke="black" paint-order="fill stroke markers" d=" M 222 127 L 230 127" stroke-linejoin="bevel" stroke-miterlimit="10"/><path fill="" stroke="black" paint-order="fill stroke markers" d=" M 222 67 L 230 67" stroke-linejoin="bevel" stroke-miterlimit="10"/><g transform="translate(217,187) rotate(0,0,0)"><text fill="" stroke="none" font-family="helvetica" font-size="14pt" font-style="normal" font-weight="normal" text-decoration="normal" x="0" y="0" text-anchor="end" dominant-baseline="central">Clashscore</text><g transform="rotate(0,0,0) translate(-217,-187) translate(217,127) rotate(0,0,0)"><text fill="" stroke="none" font-family="helvetica" font-size="14pt" font-style="normal" font-weight="normal" text-decoration="normal" x="0" y="0" text-anchor="end" dominant-baseline="central">Ramachandran Outliers</text><g transform="rotate(0,0,0) translate(-217,-127) translate(217,67) rotate(0,0,0)"><text fill="" stroke="none" font-family="helvetica" font-size="14pt" font-style="normal" font-weight="normal" text-decoration="normal" x="0" y="0" text-anchor="end" dominant-baseline="central">Sidechain Outliers</text><g transform="rotate(0,0,0) translate(-217,-67)"/></g></g></g></g></g><g clip-path="url(#ekansIQlukqQ)"><g/></g></g><g transform="scale(1,1) translate(0.5,0.5)"><rect fill="#FFFFFF" stroke="none" x="0" y="0" width="700" height="250"/><rect fill="#ffffff" stroke="none" x="0" y="0" width="700" height="250"/><rect fill="#FFFFFF" stroke="none" x="228" y="37" width="442" height="180"/><rect fill="#ffffff" stroke="none" x="228" y="37" width="442" height="180"/><g><rect fill="none" stroke="#e5e5e5" x="228" y="37" width="442" height="180" stroke-linejoin="bevel" stroke-miterlimit="10"/></g><g clip-path="url(#RtltJCDaOdnJ)"><g><g><path fill="none" stroke="#e5e5e5" paint-order="fill stroke markers" d=" M 296 217 L 296 37" stroke-linejoin="bevel" stroke-miterlimit="10"/><path fill="none" stroke="#e5e5e5" paint-order="fill stroke markers" d=" M 364 217 L 364 37" stroke-linejoin="bevel" stroke-miterlimit="10"/><path fill="none" stroke="#e5e5e5" paint-order="fill stroke markers" d=" M 432 217 L 432 37" stroke-linejoin="bevel" stroke-miterlimit="10"/><path fill="none" stroke="#e5e5e5" paint-order="fill stroke markers" d=" M 500 217 L 500 37" stroke-linejoin="bevel" stroke-miterlimit="10"/><path fill="none" stroke="#e5e5e5" paint-order="fill stroke markers" d=" M 567 217 L 567 37" stroke-linejoin="bevel" stroke-miterlimit="10"/><path fill="none" stroke="#e5e5e5" paint-order="fill stroke markers" d=" M 635 217 L 635 37" stroke-linejoin="bevel" stroke-miterlimit="10"/></g></g></g><g clip-path="url(#dliAwEdNFiul)"><g><g/></g></g><g clip-path="url(#NcaPCWeCqNcM)"><g><g><path fill="none" stroke="none"/><path fill="#440154" stroke="none" paint-order="stroke fill markers" d=" M 228 164.5 L 228 164.5 L 228 209.5 L 228 209.5 L 228 164.5 Z" fill-opacity="0.8"/><path fill="none" stroke="#440154" paint-order="fill stroke markers" d=" M 228 164.5 L 228 164.5 L 228 209.5 L 228 209.5 L 228 164.5 Z" stroke-linejoin="bevel" stroke-miterlimit="10" stroke-opacity="0.8"/><path fill="#208F8C" stroke="none" paint-order="stroke fill markers" d=" M 228 104.5 L 401.8125960061444 104.5 L 401.8125960061444 149.5 L 228 149.5 L 228 104.5 Z" fill-opacity="0.8"/><path fill="none" stroke="#208F8C" paint-order="fill stroke markers" d=" M 228 104.5 L 401.8125960061444 104.5 L 401.8125960061444 149.5 L 228 149.5 L 228 104.5 Z" stroke-linejoin="bevel" stroke-miterlimit="10" stroke-opacity="0.8"/><path fill="#FDE724" stroke="none" paint-order="stroke fill markers" d=" M 228 44.5 L 602.1044546850999 44.5 L 602.1044546850999 89.5 L 228 89.5 L 228 44.5 Z" fill-opacity="0.8"/><path fill="none" stroke="#FDE724" paint-order="fill stroke markers" d=" M 228 44.5 L 602.1044546850999 44.5 L 602.1044546850999 89.5 L 228 89.5 L 228 44.5 Z" stroke-linejoin="bevel" stroke-miterlimit="10" stroke-opacity="0.8"/></g></g></g><g clip-path="url(#aHTgJiJJZULF)"><g><g/><g><path fill="#ffffff" stroke="#e5e5e5" paint-order="fill stroke markers" d=" M 578.1166648864746 47 L 660 47 L 660 133 L 578.1166648864746 133 L 578.1166648864746 47 Z" fill-opacity="0.95" stroke-linejoin="bevel" stroke-miterlimit="10" stroke-opacity="0.5"/><text fill="#444444" stroke="none" font-family="helvetica" font-size="13px" font-style="normal" font-weight="normal" text-decoration="normal" x="613.1166648864746" y="67" text-anchor="start" dominant-baseline="central">0.0</text><rect fill="#440154" stroke="none" x="590.1166648864746" y="59" width="16" height="16" fill-opacity="0.8"/><path fill="none" stroke="#440154" paint-order="fill stroke markers" d=" M 590.1166648864746 59 L 606.1166648864746 59 L 606.1166648864746 75 L 590.1166648864746 75 L 590.1166648864746 59 Z" stroke-linejoin="bevel" stroke-miterlimit="10" stroke-opacity="0.8"/><text fill="#444444" stroke="none" font-family="helvetica" font-size="13px" font-style="normal" font-weight="normal" text-decoration="normal" x="613.1166648864746" y="90" text-anchor="start" dominant-baseline="central">2.56%</text><rect fill="#208F8C" stroke="none" x="590.1166648864746" y="82" width="16" height="16" fill-opacity="0.8"/><path fill="none" stroke="#208F8C" paint-order="fill stroke markers" d=" M 590.1166648864746 82 L 606.1166648864746 82 L 606.1166648864746 98 L 590.1166648864746 98 L 590.1166648864746 82 Z" stroke-linejoin="bevel" stroke-miterlimit="10" stroke-opacity="0.8"/><text fill="#444444" stroke="none" font-family="helvetica" font-size="13px" font-style="normal" font-weight="normal" text-decoration="normal" x="613.1166648864746" y="113" text-anchor="start" dominant-baseline="central">5.51%</text><rect fill="#FDE724" stroke="none" x="590.1166648864746" y="105" width="16" height="16" fill-opacity="0.8"/><path fill="none" stroke="#FDE724" paint-order="fill stroke markers" d=" M 590.1166648864746 105 L 606.1166648864746 105 L 606.1166648864746 121 L 590.1166648864746 121 L 590.1166648864746 105 Z" stroke-linejoin="bevel" stroke-miterlimit="10" stroke-opacity="0.8"/></g></g></g><g><g fill="#444444"><path fill="" stroke="none" d=""/><g transform="translate(449,5)"><path fill="none" stroke="none"/><text fill="" stroke="none" font-family="helvetica" font-size="14pt" font-style="normal" font-weight="bold" text-decoration="normal" x="0" y="0" text-anchor="middle" dominant-baseline="text-before-edge">Model Quality: Molprobity Analysis</text></g></g></g><g/><g><g fill="#444444"><path fill="none" stroke="black" paint-order="fill stroke markers" d=" M 228 217 L 670 217" stroke-linejoin="bevel" stroke-miterlimit="10"/><path fill="none" stroke="black" paint-order="fill stroke markers" d=" M 228 223 L 228 215" stroke-linejoin="bevel" stroke-miterlimit="10"/><path fill="none" stroke="black" paint-order="fill stroke markers" d=" M 296 223 L 296 215" stroke-linejoin="bevel" stroke-miterlimit="10"/><path fill="none" stroke="black" paint-order="fill stroke markers" d=" M 364 223 L 364 215" stroke-linejoin="bevel" stroke-miterlimit="10"/><path fill="none" stroke="black" paint-order="fill stroke markers" d=" M 432 223 L 432 215" stroke-linejoin="bevel" stroke-miterlimit="10"/><path fill="none" stroke="black" paint-order="fill stroke markers" d=" M 500 223 L 500 215" stroke-linejoin="bevel" stroke-miterlimit="10"/><path fill="none" stroke="black" paint-order="fill stroke markers" d=" M 567 223 L 567 215" stroke-linejoin="bevel" stroke-miterlimit="10"/><path fill="none" stroke="black" paint-order="fill stroke markers" d=" M 635 223 L 635 215" stroke-linejoin="bevel" stroke-miterlimit="10"/><path fill="none" stroke="black" paint-order="fill stroke markers" d=" M 228 221 L 228 217" stroke-linejoin="bevel" stroke-miterlimit="10"/><path fill="none" stroke="black" paint-order="fill stroke markers" d=" M 242 221 L 242 217" stroke-linejoin="bevel" stroke-miterlimit="10"/><path fill="none" stroke="black" paint-order="fill stroke markers" d=" M 255 221 L 255 217" stroke-linejoin="bevel" stroke-miterlimit="10"/><path fill="none" stroke="black" paint-order="fill stroke markers" d=" M 269 221 L 269 217" stroke-linejoin="bevel" stroke-miterlimit="10"/><path fill="none" stroke="black" paint-order="fill stroke markers" d=" M 282 221 L 282 217" stroke-linejoin="bevel" stroke-miterlimit="10"/><path fill="none" stroke="black" paint-order="fill stroke markers" d=" M 296 221 L 296 217" stroke-linejoin="bevel" stroke-miterlimit="10"/><path fill="none" stroke="black" paint-order="fill stroke markers" d=" M 309 221 L 309 217" stroke-linejoin="bevel" stroke-miterlimit="10"/><path fill="none" stroke="black" paint-order="fill stroke markers" d=" M 323 221 L 323 217" stroke-linejoin="bevel" stroke-miterlimit="10"/><path fill="none" stroke="black" paint-order="fill stroke markers" d=" M 337 221 L 337 217" stroke-linejoin="bevel" stroke-miterlimit="10"/><path fill="none" stroke="black" paint-order="fill stroke markers" d=" M 350 221 L 350 217" stroke-linejoin="bevel" stroke-miterlimit="10"/><path fill="none" stroke="black" paint-order="fill stroke markers" d=" M 364 221 L 364 217" stroke-linejoin="bevel" stroke-miterlimit="10"/><path fill="none" stroke="black" paint-order="fill stroke markers" d=" M 377 221 L 377 217" stroke-linejoin="bevel" stroke-miterlimit="10"/><path fill="none" stroke="black" paint-order="fill stroke markers" d=" M 391 221 L 391 217" stroke-linejoin="bevel" stroke-miterlimit="10"/><path fill="none" stroke="black" paint-order="fill stroke markers" d=" M 405 221 L 405 217" stroke-linejoin="bevel" stroke-miterlimit="10"/><path fill="none" stroke="black" paint-order="fill stroke markers" d=" M 418 221 L 418 217" stroke-linejoin="bevel" stroke-miterlimit="10"/><path fill="none" stroke="black" paint-order="fill stroke markers" d=" M 432 221 L 432 217" stroke-linejoin="bevel" stroke-miterlimit="10"/><path fill="none" stroke="black" paint-order="fill stroke markers" d=" M 445 221 L 445 217" stroke-linejoin="bevel" stroke-miterlimit="10"/><path fill="none" stroke="black" paint-order="fill stroke markers" d=" M 459 221 L 459 217" stroke-linejoin="bevel" stroke-miterlimit="10"/><path fill="none" stroke="black" paint-order="fill stroke markers" d=" M 472 221 L 472 217" stroke-linejoin="bevel" stroke-miterlimit="10"/><path fill="none" stroke="black" paint-order="fill stroke markers" d=" M 486 221 L 486 217" stroke-linejoin="bevel" stroke-miterlimit="10"/><path fill="none" stroke="black" paint-order="fill stroke markers" d=" M 500 221 L 500 217" stroke-linejoin="bevel" stroke-miterlimit="10"/><path fill="none" stroke="black" paint-order="fill stroke markers" d=" M 513 221 L 513 217" stroke-linejoin="bevel" stroke-miterlimit="10"/><path fill="none" stroke="black" paint-order="fill stroke markers" d=" M 527 221 L 527 217" stroke-linejoin="bevel" stroke-miterlimit="10"/><path fill="none" stroke="black" paint-order="fill stroke markers" d=" M 540 221 L 540 217" stroke-linejoin="bevel" stroke-miterlimit="10"/><path fill="none" stroke="black" paint-order="fill stroke markers" d=" M 554 221 L 554 217" stroke-linejoin="bevel" stroke-miterlimit="10"/><path fill="none" stroke="black" paint-order="fill stroke markers" d=" M 567 221 L 567 217" stroke-linejoin="bevel" stroke-miterlimit="10"/><path fill="none" stroke="black" paint-order="fill stroke markers" d=" M 581 221 L 581 217" stroke-linejoin="bevel" stroke-miterlimit="10"/><path fill="none" stroke="black" paint-order="fill stroke markers" d=" M 595 221 L 595 217" stroke-linejoin="bevel" stroke-miterlimit="10"/><path fill="none" stroke="black" paint-order="fill stroke markers" d=" M 608 221 L 608 217" stroke-linejoin="bevel" stroke-miterlimit="10"/><path fill="none" stroke="black" paint-order="fill stroke markers" d=" M 622 221 L 622 217" stroke-linejoin="bevel" stroke-miterlimit="10"/><path fill="none" stroke="black" paint-order="fill stroke markers" d=" M 635 221 L 635 217" stroke-linejoin="bevel" stroke-miterlimit="10"/><path fill="none" stroke="black" paint-order="fill stroke markers" d=" M 649 221 L 649 217" stroke-linejoin="bevel" stroke-miterlimit="10"/><path fill="" stroke="black" paint-order="fill stroke markers" d=" M 663 221 L 663 217" stroke-linejoin="bevel" stroke-miterlimit="10"/><g transform="translate(228,228) rotate(0,0,0)"><text fill="" stroke="none" font-family="helvetica" font-size="14pt" font-style="normal" font-weight="normal" text-decoration="normal" x="0" y="0" text-anchor="middle" dominant-baseline="hanging">0</text><g transform="rotate(0,0,0) translate(-228,-228) translate(296,228) rotate(0,0,0)"><text fill="" stroke="none" font-family="helvetica" font-size="14pt" font-style="normal" font-weight="normal" text-decoration="normal" x="0" y="0" text-anchor="middle" dominant-baseline="hanging">1</text><g transform="rotate(0,0,0) translate(-296,-228) translate(364,228) rotate(0,0,0)"><text fill="" stroke="none" font-family="helvetica" font-size="14pt" font-style="normal" font-weight="normal" text-decoration="normal" x="0" y="0" text-anchor="middle" dominant-baseline="hanging">2</text><g transform="rotate(0,0,0) translate(-364,-228) translate(432,228) rotate(0,0,0)"><text fill="" stroke="none" font-family="helvetica" font-size="14pt" font-style="normal" font-weight="normal" text-decoration="normal" x="0" y="0" text-anchor="middle" dominant-baseline="hanging">3</text><g transform="rotate(0,0,0) translate(-432,-228) translate(500,228) rotate(0,0,0)"><text fill="" stroke="none" font-family="helvetica" font-size="14pt" font-style="normal" font-weight="normal" text-decoration="normal" x="0" y="0" text-anchor="middle" dominant-baseline="hanging">4</text><g transform="rotate(0,0,0) translate(-500,-228) translate(567,228) rotate(0,0,0)"><text fill="" stroke="none" font-family="helvetica" font-size="14pt" font-style="normal" font-weight="normal" text-decoration="normal" x="0" y="0" text-anchor="middle" dominant-baseline="hanging">5</text><g transform="rotate(0,0,0) translate(-567,-228) translate(635,228) rotate(0,0,0)"><text fill="" stroke="none" font-family="helvetica" font-size="14pt" font-style="normal" font-weight="normal" text-decoration="normal" x="0" y="0" text-anchor="middle" dominant-baseline="hanging">6</text><g transform="rotate(0,0,0) translate(-635,-228)"/></g></g></g></g></g></g></g></g></g><g><g fill="#444444"><path fill="none" stroke="black" paint-order="fill stroke markers" d=" M 228 217 L 228 37" stroke-linejoin="bevel" stroke-miterlimit="10"/><path fill="none" stroke="black" paint-order="fill stroke markers" d=" M 222 187 L 230 187" stroke-linejoin="bevel" stroke-miterlimit="10"/><path fill="none" stroke="black" paint-order="fill stroke markers" d=" M 222 127 L 230 127" stroke-linejoin="bevel" stroke-miterlimit="10"/><path fill="" stroke="black" paint-order="fill stroke markers" d=" M 222 67 L 230 67" stroke-linejoin="bevel" stroke-miterlimit="10"/><g transform="translate(217,187) rotate(0,0,0)"><text fill="" stroke="none" font-family="helvetica" font-size="14pt" font-style="normal" font-weight="normal" text-decoration="normal" x="0" y="0" text-anchor="end" dominant-baseline="central">Clashscore</text><g transform="rotate(0,0,0) translate(-217,-187) translate(217,127) rotate(0,0,0)"><text fill="" stroke="none" font-family="helvetica" font-size="14pt" font-style="normal" font-weight="normal" text-decoration="normal" x="0" y="0" text-anchor="end" dominant-baseline="central">Ramachandran Outliers</text><g transform="rotate(0,0,0) translate(-217,-127) translate(217,67) rotate(0,0,0)"><text fill="" stroke="none" font-family="helvetica" font-size="14pt" font-style="normal" font-weight="normal" text-decoration="normal" x="0" y="0" text-anchor="end" dominant-baseline="central">Sidechain Outliers</text><g transform="rotate(0,0,0) translate(-217,-67)"/></g></g></g></g></g><g clip-path="url(#SMgzomhRJEpb)"><g/></g></g></g></svg>