<svg version="1.1" xmlns="http://www.w3.org/2000/svg" xmlns:xlink="http://www.w3.org/1999/xlink" width="500" height="500" style="width: 500px; height: 500px;"><defs><clipPath id="OuUqBSNBZbax"><path fill="none" stroke="none" d=" M 97 33 L 470 33 L 470 439 L 97 439 L 97 33 Z"/></clipPath><clipPath id="ziAECapvKAwV"><path fill="none" stroke="none" d=" M 97 33 L 470 33 L 470 439 L 97 439 L 97 33 Z"/></clipPath><clipPath id="rTaJuaxfUozW"><path fill="none" stroke="none" d=" M 97 33 L 470 33 L 470 439 L 97 439 L 97 33 Z"/></clipPath><clipPath id="DPvEGghmlsIh"><path fill="none" stroke="none" d=" M 97 33 L 470 33 L 470 439 L 97 439 L 97 33 Z"/></clipPath><clipPath id="eazWdhKTlfAb"><path fill="none" stroke="none" d=" M 97 33 L 470 33 L 470 439 L 97 439 L 97 33 Z"/></clipPath><clipPath id="mEZZeyrHPrrM"><path fill="none" stroke="none" d=" M 97 33 L 470 33 L 470 439 L 97 439 L 97 33 Z"/></clipPath><clipPath id="HdLiFfOfZRiU"><path fill="none" stroke="none" d=" M 97 33 L 470 33 L 470 439 L 97 439 L 97 33 Z"/></clipPath><clipPath id="nvJbChscClHq"><path fill="none" stroke="none" d=" M 97 33 L 470 33 L 470 439 L 97 439 L 97 33 Z"/></clipPath><clipPath id="UIymygGecOMV"><path fill="none" stroke="none" d=" M 97 33 L 470 33 L 470 439 L 97 439 L 97 33 Z"/></clipPath><clipPath id="RwWRsllsNwKI"><path fill="none" stroke="none" d=" M 97 33 L 470 33 L 470 439 L 97 439 L 97 33 Z"/></clipPath></defs><g transform="scale(1,1) translate(0.5,0.5) scale(1,1) translate(0.5,0.5)"><rect fill="#ffffff" stroke="none" x="0" y="0" width="500" height="500"/><rect fill="#FFFFFF" stroke="none" x="97" y="33" width="373" height="406"/><rect fill="#ffffff" stroke="none" x="97" y="33" width="373" height="406"/><g><rect fill="none" stroke="#e5e5e5" x="97" y="33" width="373" height="406" stroke-linejoin="bevel" stroke-miterlimit="10"/></g><g clip-path="url(#mEZZeyrHPrrM)"><g><g><path fill="none" stroke="#e5e5e5" paint-order="fill stroke markers" d=" M 153 439 L 153 33" stroke-linejoin="bevel" stroke-miterlimit="10"/><path fill="none" stroke="#e5e5e5" paint-order="fill stroke markers" d=" M 245 439 L 245 33" stroke-linejoin="bevel" stroke-miterlimit="10"/><path fill="none" stroke="#e5e5e5" paint-order="fill stroke markers" d=" M 337 439 L 337 33" stroke-linejoin="bevel" stroke-miterlimit="10"/><path fill="none" stroke="#e5e5e5" paint-order="fill stroke markers" d=" M 429 439 L 429 33" stroke-linejoin="bevel" stroke-miterlimit="10"/></g></g></g><g clip-path="url(#HdLiFfOfZRiU)"><g><g><path fill="none" stroke="#e5e5e5" paint-order="fill stroke markers" d=" M 97 393 L 470 393" stroke-linejoin="bevel" stroke-miterlimit="10"/><path fill="none" stroke="#e5e5e5" paint-order="fill stroke markers" d=" M 97 318 L 470 318" stroke-linejoin="bevel" stroke-miterlimit="10"/><path fill="none" stroke="#e5e5e5" paint-order="fill stroke markers" d=" M 97 243 L 470 243" stroke-linejoin="bevel" stroke-miterlimit="10"/><path fill="none" stroke="#e5e5e5" paint-order="fill stroke markers" d=" M 97 168 L 470 168" stroke-linejoin="bevel" stroke-miterlimit="10"/><path fill="none" stroke="#e5e5e5" paint-order="fill stroke markers" d=" M 97 93 L 470 93" stroke-linejoin="bevel" stroke-miterlimit="10"/></g></g></g><g clip-path="url(#nvJbChscClHq)"><g><g><path fill="none" stroke="none"/><path fill="blue" stroke="blue" paint-order="fill stroke markers" d=" M 116.45454545454547 81.28672071822388 A 2.5 2.5 0 1 1 116.45454420454557 81.28422071864054" fill-opacity="0.3" stroke-linejoin="bevel" stroke-miterlimit="10"/><path fill="blue" stroke="blue" paint-order="fill stroke markers" d=" M 122.29353064456431 163.5297661551566 A 2.5 2.5 0 1 1 122.29352939456442 163.52726615557327" fill-opacity="0.3" stroke-linejoin="bevel" stroke-miterlimit="10"/><path fill="blue" stroke="blue" paint-order="fill stroke markers" d=" M 128.43885464357473 392.3648586385601 A 2.5 2.5 0 1 1 128.43885339357485 392.3623586389768" fill-opacity="0.3" stroke-linejoin="bevel" stroke-miterlimit="10"/><path fill="blue" stroke="blue" paint-order="fill stroke markers" d=" M 134.89113929211877 347.59576826295057 A 2.5 2.5 0 1 1 134.89113804211888 347.59326826336724" fill-opacity="0.3" stroke-linejoin="bevel" stroke-miterlimit="10"/><path fill="blue" stroke="blue" paint-order="fill stroke markers" d=" M 141.6503845901965 258.85492658191407 A 2.5 2.5 0 1 1 141.6503833401966 258.85242658233074" fill-opacity="0.3" stroke-linejoin="bevel" stroke-miterlimit="10"/><path fill="blue" stroke="blue" paint-order="fill stroke markers" d=" M 148.71659053780792 142.74499746147103 A 2.5 2.5 0 1 1 148.71658928780803 142.7424974618877" fill-opacity="0.3" stroke-linejoin="bevel" stroke-miterlimit="10"/><path fill="blue" stroke="blue" paint-order="fill stroke markers" d=" M 156.09058044098128 192.46964020806098 A 2.5 2.5 0 1 1 156.0905791909814 192.46714020847764" fill-opacity="0.3" stroke-linejoin="bevel" stroke-miterlimit="10"/><path fill="blue" stroke="blue" paint-order="fill stroke markers" d=" M 163.77074126462895 300.5561335974851 A 2.5 2.5 0 1 1 163.77074001462907 300.55363359790175" fill-opacity="0.3" stroke-linejoin="bevel" stroke-miterlimit="10"/><path fill="blue" stroke="blue" paint-order="fill stroke markers" d=" M 171.7578627378103 256.5551422070478 A 2.5 2.5 0 1 1 171.75786148781043 256.5526422074645" fill-opacity="0.3" stroke-linejoin="bevel" stroke-miterlimit="10"/><path fill="blue" stroke="blue" paint-order="fill stroke markers" d=" M 180.05194486052528 203.68313611073876 A 2.5 2.5 0 1 1 180.0519436105254 203.68063611115542" fill-opacity="0.3" stroke-linejoin="bevel" stroke-miterlimit="10"/><path fill="blue" stroke="blue" paint-order="fill stroke markers" d=" M 188.6539452503506 172.14051750583008 A 2.5 2.5 0 1 1 188.65394400035072 172.13801750624674" fill-opacity="0.3" stroke-linejoin="bevel" stroke-miterlimit="10"/><path fill="blue" stroke="blue" paint-order="fill stroke markers" d=" M 197.56198224910185 132.7443733606729 A 2.5 2.5 0 1 1 197.56198099910196 132.74187336108957" fill-opacity="0.3" stroke-linejoin="bevel" stroke-miterlimit="10"/><path fill="blue" stroke="blue" paint-order="fill stroke markers" d=" M 206.7769798973868 51.45454545454547 A 2.5 2.5 0 1 1 206.77697864738693 51.45204545496213" fill-opacity="0.3" stroke-linejoin="bevel" stroke-miterlimit="10"/><path fill="blue" stroke="blue" paint-order="fill stroke markers" d=" M 216.2989381952054 215.58914773039393 A 2.5 2.5 0 1 1 216.29893694520553 215.5866477308106" fill-opacity="0.3" stroke-linejoin="bevel" stroke-miterlimit="10"/><path fill="blue" stroke="blue" paint-order="fill stroke markers" d=" M 226.12785714255767 371.46450414800745 A 2.5 2.5 0 1 1 226.1278558925578 371.4620041484241" fill-opacity="0.3" stroke-linejoin="bevel" stroke-miterlimit="10"/><path fill="blue" stroke="blue" paint-order="fill stroke markers" d=" M 236.26486224553756 420.5454545454545 A 2.5 2.5 0 1 1 236.26486099553767 420.54295454587117" fill-opacity="0.3" stroke-linejoin="bevel" stroke-miterlimit="10"/><path fill="blue" stroke="blue" paint-order="fill stroke markers" d=" M 246.70773606892607 307.1824055924115 A 2.5 2.5 0 1 1 246.70773481892618 307.17990559282816" fill-opacity="0.3" stroke-linejoin="bevel" stroke-miterlimit="10"/><path fill="blue" stroke="blue" paint-order="fill stroke markers" d=" M 257.4575705418482 243.71579128893387 A 2.5 2.5 0 1 1 257.45756929184836 243.71329128935054" fill-opacity="0.3" stroke-linejoin="bevel" stroke-miterlimit="10"/><path fill="blue" stroke="blue" paint-order="fill stroke markers" d=" M 268.5143656643042 313.90934356735244 A 2.5 2.5 0 1 1 268.5143644143043 313.9068435677691" fill-opacity="0.3" stroke-linejoin="bevel" stroke-miterlimit="10"/><path fill="blue" stroke="blue" paint-order="fill stroke markers" d=" M 279.879381253936 308.63580994714783 A 2.5 2.5 0 1 1 279.8793800039361 308.6333099475645" fill-opacity="0.3" stroke-linejoin="bevel" stroke-miterlimit="10"/><path fill="blue" stroke="blue" paint-order="fill stroke markers" d=" M 291.5501312524281 226.05011460822288 A 2.5 2.5 0 1 1 291.5501300024282 226.04761460863955" fill-opacity="0.3" stroke-linejoin="bevel" stroke-miterlimit="10"/><path fill="blue" stroke="blue" paint-order="fill stroke markers" d=" M 303.527841900454 274.9459963177289 A 2.5 2.5 0 1 1 303.5278406504541 274.94349631814555" fill-opacity="0.3" stroke-linejoin="bevel" stroke-miterlimit="10"/><path fill="blue" stroke="blue" paint-order="fill stroke markers" d=" M 315.81251319801345 274.65319945093745 A 2.5 2.5 0 1 1 315.81251194801354 274.6506994513541" fill-opacity="0.3" stroke-linejoin="bevel" stroke-miterlimit="10"/><path fill="blue" stroke="blue" paint-order="fill stroke markers" d=" M 328.4041451451066 303.5921861374383 A 2.5 2.5 0 1 1 328.4041438951067 303.589686137855" fill-opacity="0.3" stroke-linejoin="bevel" stroke-miterlimit="10"/><path fill="blue" stroke="blue" paint-order="fill stroke markers" d=" M 341.3041654478929 286.40006858180135 A 2.5 2.5 0 1 1 341.304164197893 286.397568582218" fill-opacity="0.3" stroke-linejoin="bevel" stroke-miterlimit="10"/><path fill="blue" stroke="blue" paint-order="fill stroke markers" d=" M 354.5097522710223 229.24458169242203 A 2.5 2.5 0 1 1 354.5097510210224 229.2420816928387" fill-opacity="0.3" stroke-linejoin="bevel" stroke-miterlimit="10"/><path fill="blue" stroke="blue" paint-order="fill stroke markers" d=" M 368.02229974368544 336.88467731723983 A 2.5 2.5 0 1 1 368.0222984936855 336.8821773176565" fill-opacity="0.3" stroke-linejoin="bevel" stroke-miterlimit="10"/><path fill="blue" stroke="blue" paint-order="fill stroke markers" d=" M 381.8418078658822 269.91225050121915 A 2.5 2.5 0 1 1 381.84180661588226 269.9097505016358" fill-opacity="0.3" stroke-linejoin="bevel" stroke-miterlimit="10"/><path fill="blue" stroke="blue" paint-order="fill stroke markers" d=" M 395.9682766376125 282.63151798237755 A 2.5 2.5 0 1 1 395.9682753876126 282.6290179827942" fill-opacity="0.3" stroke-linejoin="bevel" stroke-miterlimit="10"/><path fill="blue" stroke="blue" paint-order="fill stroke markers" d=" M 410.40330165355334 144.0242248348693 A 2.5 2.5 0 1 1 410.40330040355343 144.02172483528597" fill-opacity="0.3" stroke-linejoin="bevel" stroke-miterlimit="10"/><path fill="blue" stroke="blue" paint-order="fill stroke markers" d=" M 425.1437253013201 226.3084032598332 A 2.5 2.5 0 1 1 425.1437240513202 226.30590326024986" fill-opacity="0.3" stroke-linejoin="bevel" stroke-miterlimit="10"/><path fill="blue" stroke="blue" paint-order="fill stroke markers" d=" M 440.1911095986204 156.82816408423764 A 2.5 2.5 0 1 1 440.1911083486205 156.8256640846543" fill-opacity="0.3" stroke-linejoin="bevel" stroke-miterlimit="10"/><path fill="blue" stroke="blue" paint-order="fill stroke markers" d=" M 455.54545454545456 126.31303280093798 A 2.5 2.5 0 1 1 455.54545329545465 126.31053280135464" fill-opacity="0.3" stroke-linejoin="bevel" stroke-miterlimit="10"/></g></g></g><g clip-path="url(#UIymygGecOMV)"><g><g><path fill="none" stroke="red" paint-order="fill stroke markers" d=" M 97 242.873072747029 L 470 242.873072747029" stroke-linejoin="bevel" stroke-miterlimit="10" stroke-width="3"/></g></g></g><g><g fill="#444444"><path fill="" stroke="none" d=""/><g transform="translate(283.5,5)"><path fill="none" stroke="none"/><text fill="" stroke="none" font-family="helvetica" font-size="12pt" font-style="normal" font-weight="bold" text-decoration="normal" x="0" y="0" text-anchor="middle" dominant-baseline="text-before-edge">Residuals for Guinier plot fit (SASDBW9)</text></g></g></g><g/><g><g fill="#444444"><path fill="none" stroke="black" paint-order="fill stroke markers" d=" M 97 439 L 470 439" stroke-linejoin="bevel" stroke-miterlimit="10"/><path fill="none" stroke="black" paint-order="fill stroke markers" d=" M 153 445 L 153 437" stroke-linejoin="bevel" stroke-miterlimit="10"/><path fill="none" stroke="black" paint-order="fill stroke markers" d=" M 245 445 L 245 437" stroke-linejoin="bevel" stroke-miterlimit="10"/><path fill="none" stroke="black" paint-order="fill stroke markers" d=" M 337 445 L 337 437" stroke-linejoin="bevel" stroke-miterlimit="10"/><path fill="none" stroke="black" paint-order="fill stroke markers" d=" M 429 445 L 429 437" stroke-linejoin="bevel" stroke-miterlimit="10"/><path fill="none" stroke="black" paint-order="fill stroke markers" d=" M 135 443 L 135 439" stroke-linejoin="bevel" stroke-miterlimit="10"/><path fill="none" stroke="black" paint-order="fill stroke markers" d=" M 116 443 L 116 439" stroke-linejoin="bevel" stroke-miterlimit="10"/><path fill="none" stroke="black" paint-order="fill stroke markers" d=" M 98 443 L 98 439" stroke-linejoin="bevel" stroke-miterlimit="10"/><path fill="none" stroke="black" paint-order="fill stroke markers" d=" M 153 443 L 153 439" stroke-linejoin="bevel" stroke-miterlimit="10"/><path fill="none" stroke="black" paint-order="fill stroke markers" d=" M 171 443 L 171 439" stroke-linejoin="bevel" stroke-miterlimit="10"/><path fill="none" stroke="black" paint-order="fill stroke markers" d=" M 190 443 L 190 439" stroke-linejoin="bevel" stroke-miterlimit="10"/><path fill="none" stroke="black" paint-order="fill stroke markers" d=" M 208 443 L 208 439" stroke-linejoin="bevel" stroke-miterlimit="10"/><path fill="none" stroke="black" paint-order="fill stroke markers" d=" M 227 443 L 227 439" stroke-linejoin="bevel" stroke-miterlimit="10"/><path fill="none" stroke="black" paint-order="fill stroke markers" d=" M 245 443 L 245 439" stroke-linejoin="bevel" stroke-miterlimit="10"/><path fill="none" stroke="black" paint-order="fill stroke markers" d=" M 263 443 L 263 439" stroke-linejoin="bevel" stroke-miterlimit="10"/><path fill="none" stroke="black" paint-order="fill stroke markers" d=" M 282 443 L 282 439" stroke-linejoin="bevel" stroke-miterlimit="10"/><path fill="none" stroke="black" paint-order="fill stroke markers" d=" M 300 443 L 300 439" stroke-linejoin="bevel" stroke-miterlimit="10"/><path fill="none" stroke="black" paint-order="fill stroke markers" d=" M 318 443 L 318 439" stroke-linejoin="bevel" stroke-miterlimit="10"/><path fill="none" stroke="black" paint-order="fill stroke markers" d=" M 337 443 L 337 439" stroke-linejoin="bevel" stroke-miterlimit="10"/><path fill="none" stroke="black" paint-order="fill stroke markers" d=" M 355 443 L 355 439" stroke-linejoin="bevel" stroke-miterlimit="10"/><path fill="none" stroke="black" paint-order="fill stroke markers" d=" M 374 443 L 374 439" stroke-linejoin="bevel" stroke-miterlimit="10"/><path fill="none" stroke="black" paint-order="fill stroke markers" d=" M 392 443 L 392 439" stroke-linejoin="bevel" stroke-miterlimit="10"/><path fill="none" stroke="black" paint-order="fill stroke markers" d=" M 410 443 L 410 439" stroke-linejoin="bevel" stroke-miterlimit="10"/><path fill="none" stroke="black" paint-order="fill stroke markers" d=" M 429 443 L 429 439" stroke-linejoin="bevel" stroke-miterlimit="10"/><path fill="none" stroke="black" paint-order="fill stroke markers" d=" M 447 443 L 447 439" stroke-linejoin="bevel" stroke-miterlimit="10"/><path fill="" stroke="black" paint-order="fill stroke markers" d=" M 465 443 L 465 439" stroke-linejoin="bevel" stroke-miterlimit="10"/><g transform="translate(153,450) rotate(0,0,0)"><text fill="" stroke="none" font-family="helvetica" font-size="14pt" font-style="normal" font-weight="normal" text-decoration="normal" x="0" y="0" text-anchor="middle" dominant-baseline="hanging">5</text><g transform="rotate(0,0,0) translate(-153,-450) translate(245,450) rotate(0,0,0)"><text fill="" stroke="none" font-family="helvetica" font-size="14pt" font-style="normal" font-weight="normal" text-decoration="normal" x="0" y="0" text-anchor="middle" dominant-baseline="hanging">10</text><g transform="rotate(0,0,0) translate(-245,-450) translate(337,450) rotate(0,0,0)"><text fill="" stroke="none" font-family="helvetica" font-size="14pt" font-style="normal" font-weight="normal" text-decoration="normal" x="0" y="0" text-anchor="middle" dominant-baseline="hanging">15</text><g transform="rotate(0,0,0) translate(-337,-450) translate(429,450) rotate(0,0,0)"><text fill="" stroke="none" font-family="helvetica" font-size="14pt" font-style="normal" font-weight="normal" text-decoration="normal" x="0" y="0" text-anchor="middle" dominant-baseline="hanging">20</text><g transform="rotate(0,0,0) translate(-429,-450) translate(284,477) rotate(0,0,0)"><text fill="" stroke="none" font-family="helvetica" font-size="14pt" font-style="italic" font-weight="normal" text-decoration="normal" x="0" y="0" text-anchor="middle" dominant-baseline="hanging">q² [nm ²]</text><g transform="rotate(0,0,0) translate(-284,-477)"/></g></g></g></g></g></g></g><g><g fill="#444444"><path fill="none" stroke="black" paint-order="fill stroke markers" d=" M 97 439 L 97 33" stroke-linejoin="bevel" stroke-miterlimit="10"/><path fill="none" stroke="black" paint-order="fill stroke markers" d=" M 91 393 L 99 393" stroke-linejoin="bevel" stroke-miterlimit="10"/><path fill="none" stroke="black" paint-order="fill stroke markers" d=" M 91 318 L 99 318" stroke-linejoin="bevel" stroke-miterlimit="10"/><path fill="none" stroke="black" paint-order="fill stroke markers" d=" M 91 243 L 99 243" stroke-linejoin="bevel" stroke-miterlimit="10"/><path fill="none" stroke="black" paint-order="fill stroke markers" d=" M 91 168 L 99 168" stroke-linejoin="bevel" stroke-miterlimit="10"/><path fill="none" stroke="black" paint-order="fill stroke markers" d=" M 91 93 L 99 93" stroke-linejoin="bevel" stroke-miterlimit="10"/><path fill="none" stroke="black" paint-order="fill stroke markers" d=" M 93 408 L 97 408" stroke-linejoin="bevel" stroke-miterlimit="10"/><path fill="none" stroke="black" paint-order="fill stroke markers" d=" M 93 423 L 97 423" stroke-linejoin="bevel" stroke-miterlimit="10"/><path fill="none" stroke="black" paint-order="fill stroke markers" d=" M 93 438 L 97 438" stroke-linejoin="bevel" stroke-miterlimit="10"/><path fill="none" stroke="black" paint-order="fill stroke markers" d=" M 93 393 L 97 393" stroke-linejoin="bevel" stroke-miterlimit="10"/><path fill="none" stroke="black" paint-order="fill stroke markers" d=" M 93 378 L 97 378" stroke-linejoin="bevel" stroke-miterlimit="10"/><path fill="none" stroke="black" paint-order="fill stroke markers" d=" M 93 363 L 97 363" stroke-linejoin="bevel" stroke-miterlimit="10"/><path fill="none" stroke="black" paint-order="fill stroke markers" d=" M 93 348 L 97 348" stroke-linejoin="bevel" stroke-miterlimit="10"/><path fill="none" stroke="black" paint-order="fill stroke markers" d=" M 93 333 L 97 333" stroke-linejoin="bevel" stroke-miterlimit="10"/><path fill="none" stroke="black" paint-order="fill stroke markers" d=" M 93 318 L 97 318" stroke-linejoin="bevel" stroke-miterlimit="10"/><path fill="none" stroke="black" paint-order="fill stroke markers" d=" M 93 303 L 97 303" stroke-linejoin="bevel" stroke-miterlimit="10"/><path fill="none" stroke="black" paint-order="fill stroke markers" d=" M 93 288 L 97 288" stroke-linejoin="bevel" stroke-miterlimit="10"/><path fill="none" stroke="black" paint-order="fill stroke markers" d=" M 93 273 L 97 273" stroke-linejoin="bevel" stroke-miterlimit="10"/><path fill="none" stroke="black" paint-order="fill stroke markers" d=" M 93 258 L 97 258" stroke-linejoin="bevel" stroke-miterlimit="10"/><path fill="none" stroke="black" paint-order="fill stroke markers" d=" M 93 243 L 97 243" stroke-linejoin="bevel" stroke-miterlimit="10"/><path fill="none" stroke="black" paint-order="fill stroke markers" d=" M 93 228 L 97 228" stroke-linejoin="bevel" stroke-miterlimit="10"/><path fill="none" stroke="black" paint-order="fill stroke markers" d=" M 93 213 L 97 213" stroke-linejoin="bevel" stroke-miterlimit="10"/><path fill="none" stroke="black" paint-order="fill stroke markers" d=" M 93 198 L 97 198" stroke-linejoin="bevel" stroke-miterlimit="10"/><path fill="none" stroke="black" paint-order="fill stroke markers" d=" M 93 183 L 97 183" stroke-linejoin="bevel" stroke-miterlimit="10"/><path fill="none" stroke="black" paint-order="fill stroke markers" d=" M 93 168 L 97 168" stroke-linejoin="bevel" stroke-miterlimit="10"/><path fill="none" stroke="black" paint-order="fill stroke markers" d=" M 93 153 L 97 153" stroke-linejoin="bevel" stroke-miterlimit="10"/><path fill="none" stroke="black" paint-order="fill stroke markers" d=" M 93 138 L 97 138" stroke-linejoin="bevel" stroke-miterlimit="10"/><path fill="none" stroke="black" paint-order="fill stroke markers" d=" M 93 123 L 97 123" stroke-linejoin="bevel" stroke-miterlimit="10"/><path fill="none" stroke="black" paint-order="fill stroke markers" d=" M 93 108 L 97 108" stroke-linejoin="bevel" stroke-miterlimit="10"/><path fill="none" stroke="black" paint-order="fill stroke markers" d=" M 93 93 L 97 93" stroke-linejoin="bevel" stroke-miterlimit="10"/><path fill="none" stroke="black" paint-order="fill stroke markers" d=" M 93 78 L 97 78" stroke-linejoin="bevel" stroke-miterlimit="10"/><path fill="none" stroke="black" paint-order="fill stroke markers" d=" M 93 63 L 97 63" stroke-linejoin="bevel" stroke-miterlimit="10"/><path fill="none" stroke="black" paint-order="fill stroke markers" d=" M 93 48 L 97 48" stroke-linejoin="bevel" stroke-miterlimit="10"/><path fill="" stroke="black" paint-order="fill stroke markers" d=" M 93 33 L 97 33" stroke-linejoin="bevel" stroke-miterlimit="10"/><g transform="translate(86,393) rotate(0,0,0)"><text fill="" stroke="none" font-family="helvetica" font-size="14pt" font-style="normal" font-weight="normal" text-decoration="normal" x="0" y="0" text-anchor="end" dominant-baseline="central">-0.01</text><g transform="rotate(0,0,0) translate(-86,-393) translate(86,318) rotate(0,0,0)"><text fill="" stroke="none" font-family="helvetica" font-size="14pt" font-style="normal" font-weight="normal" text-decoration="normal" x="0" y="0" text-anchor="end" dominant-baseline="central">-0.005</text><g transform="rotate(0,0,0) translate(-86,-318) translate(86,243) rotate(0,0,0)"><text fill="" stroke="none" font-family="helvetica" font-size="14pt" font-style="normal" font-weight="normal" text-decoration="normal" x="0" y="0" text-anchor="end" dominant-baseline="central">0</text><g transform="rotate(0,0,0) translate(-86,-243) translate(86,168) rotate(0,0,0)"><text fill="" stroke="none" font-family="helvetica" font-size="14pt" font-style="normal" font-weight="normal" text-decoration="normal" x="0" y="0" text-anchor="end" dominant-baseline="central">0.005</text><g transform="rotate(0,0,0) translate(-86,-168) translate(86,93) rotate(0,0,0)"><text fill="" stroke="none" font-family="helvetica" font-size="14pt" font-style="normal" font-weight="normal" text-decoration="normal" x="0" y="0" text-anchor="end" dominant-baseline="central">0.01</text><g transform="rotate(0,0,0) translate(-86,-93) translate(23,236) rotate(-90,0,0)"><text fill="" stroke="none" font-family="helvetica" font-size="14pt" font-style="italic" font-weight="normal" text-decoration="normal" x="0" y="0" text-anchor="middle" dominant-baseline="alphabetic">R</text><g transform="rotate(90,0,0) translate(-23,-236)"/></g></g></g></g></g></g></g></g><g clip-path="url(#RwWRsllsNwKI)"><g/></g></g></svg>