<svg version="1.1" xmlns="http://www.w3.org/2000/svg" xmlns:xlink="http://www.w3.org/1999/xlink" width="500" height="500" style="width: 500px; height: 500px;"><defs><clipPath id="KqQaGopPzKlw"><path fill="none" stroke="none" d=" M 74 33 L 470 33 L 470 439 L 74 439 L 74 33 Z"/></clipPath><clipPath id="BZqZqEgkOZuT"><path fill="none" stroke="none" d=" M 74 33 L 470 33 L 470 439 L 74 439 L 74 33 Z"/></clipPath><clipPath id="NIpAiWuZSHGG"><path fill="none" stroke="none" d=" M 74 33 L 470 33 L 470 439 L 74 439 L 74 33 Z"/></clipPath><clipPath id="UTgnahSkQGtO"><path fill="none" stroke="none" d=" M 74 33 L 470 33 L 470 439 L 74 439 L 74 33 Z"/></clipPath><clipPath id="QWKBwqsbDKzK"><path fill="none" stroke="none" d=" M 74 33 L 470 33 L 470 439 L 74 439 L 74 33 Z"/></clipPath><clipPath id="IzTSHazEKJMz"><path fill="none" stroke="none" d=" M 74 33 L 470 33 L 470 439 L 74 439 L 74 33 Z"/></clipPath><clipPath id="FTKoTwshQxvp"><path fill="none" stroke="none" d=" M 74 33 L 470 33 L 470 439 L 74 439 L 74 33 Z"/></clipPath><clipPath id="UMPaTVqvQUnz"><path fill="none" stroke="none" d=" M 74 33 L 470 33 L 470 439 L 74 439 L 74 33 Z"/></clipPath><clipPath id="KVAFeZSFrNWd"><path fill="none" stroke="none" d=" M 74 33 L 470 33 L 470 439 L 74 439 L 74 33 Z"/></clipPath><clipPath id="WMzSOgpTbWTd"><path fill="none" stroke="none" d=" M 74 33 L 470 33 L 470 439 L 74 439 L 74 33 Z"/></clipPath><clipPath id="NWXnlXbamqAI"><path fill="none" stroke="none" d=" M 74 33 L 470 33 L 470 439 L 74 439 L 74 33 Z"/></clipPath><clipPath id="GdlePqRcyVpl"><path fill="none" stroke="none" d=" M 74 33 L 470 33 L 470 439 L 74 439 L 74 33 Z"/></clipPath></defs><g transform="scale(1,1) translate(0.5,0.5) scale(1,1) translate(0.5,0.5)"><rect fill="#ffffff" stroke="none" x="0" y="0" width="500" height="500"/><rect fill="#FFFFFF" stroke="none" x="74" y="33" width="396" height="406"/><rect fill="#ffffff" stroke="none" x="74" y="33" width="396" height="406"/><g><rect fill="none" stroke="#e5e5e5" x="74" y="33" width="396" height="406" stroke-linejoin="bevel" stroke-miterlimit="10"/></g><g clip-path="url(#FTKoTwshQxvp)"><g><g><path fill="none" stroke="#e5e5e5" paint-order="fill stroke markers" d=" M 92 439 L 92 33" stroke-linejoin="bevel" stroke-miterlimit="10"/><path fill="none" stroke="#e5e5e5" paint-order="fill stroke markers" d=" M 160 439 L 160 33" stroke-linejoin="bevel" stroke-miterlimit="10"/><path fill="none" stroke="#e5e5e5" paint-order="fill stroke markers" d=" M 228 439 L 228 33" stroke-linejoin="bevel" stroke-miterlimit="10"/><path fill="none" stroke="#e5e5e5" paint-order="fill stroke markers" d=" M 296 439 L 296 33" stroke-linejoin="bevel" stroke-miterlimit="10"/><path fill="none" stroke="#e5e5e5" paint-order="fill stroke markers" d=" M 364 439 L 364 33" stroke-linejoin="bevel" stroke-miterlimit="10"/><path fill="none" stroke="#e5e5e5" paint-order="fill stroke markers" d=" M 432 439 L 432 33" stroke-linejoin="bevel" stroke-miterlimit="10"/></g></g></g><g clip-path="url(#UMPaTVqvQUnz)"><g><g><path fill="none" stroke="#e5e5e5" paint-order="fill stroke markers" d=" M 74 388 L 470 388" stroke-linejoin="bevel" stroke-miterlimit="10"/><path fill="none" stroke="#e5e5e5" paint-order="fill stroke markers" d=" M 74 326 L 470 326" stroke-linejoin="bevel" stroke-miterlimit="10"/><path fill="none" stroke="#e5e5e5" paint-order="fill stroke markers" d=" M 74 265 L 470 265" stroke-linejoin="bevel" stroke-miterlimit="10"/><path fill="none" stroke="#e5e5e5" paint-order="fill stroke markers" d=" M 74 203 L 470 203" stroke-linejoin="bevel" stroke-miterlimit="10"/><path fill="none" stroke="#e5e5e5" paint-order="fill stroke markers" d=" M 74 141 L 470 141" stroke-linejoin="bevel" stroke-miterlimit="10"/><path fill="none" stroke="#e5e5e5" paint-order="fill stroke markers" d=" M 74 79 L 470 79" stroke-linejoin="bevel" stroke-miterlimit="10"/></g></g></g><g clip-path="url(#KVAFeZSFrNWd)"><g><g><path fill="none" stroke="none"/><path fill="blue" stroke="blue" paint-order="fill stroke markers" d=" M 132.89622641509433 81.17343923289653 A 1.5 1.5 0 1 1 132.8962256650944 81.17193923314653" fill-opacity="0.3" stroke-linejoin="bevel" stroke-miterlimit="10"/><path fill="blue" stroke="blue" paint-order="fill stroke markers" d=" M 134.25471698113205 83.73678011669332 A 1.5 1.5 0 1 1 134.2547162311321 83.73528011694333" fill-opacity="0.3" stroke-linejoin="bevel" stroke-miterlimit="10"/><path fill="blue" stroke="blue" paint-order="fill stroke markers" d=" M 135.6132075471698 87.62144429400877 A 1.5 1.5 0 1 1 135.61320679716985 87.61994429425877" fill-opacity="0.3" stroke-linejoin="bevel" stroke-miterlimit="10"/><path fill="blue" stroke="blue" paint-order="fill stroke markers" d=" M 136.97169811320754 90.37849097605314 A 1.5 1.5 0 1 1 136.9716973632076 90.37699097630315" fill-opacity="0.3" stroke-linejoin="bevel" stroke-miterlimit="10"/><path fill="blue" stroke="blue" paint-order="fill stroke markers" d=" M 138.33018867924528 91.65061874857321 A 1.5 1.5 0 1 1 138.33018792924534 91.64911874882321" fill-opacity="0.3" stroke-linejoin="bevel" stroke-miterlimit="10"/><path fill="blue" stroke="blue" paint-order="fill stroke markers" d=" M 139.688679245283 93.78149239285545 A 1.5 1.5 0 1 1 139.68867849528306 93.77999239310546" fill-opacity="0.3" stroke-linejoin="bevel" stroke-miterlimit="10"/><path fill="blue" stroke="blue" paint-order="fill stroke markers" d=" M 141.04716981132074 96.41107655318274 A 1.5 1.5 0 1 1 141.0471690613208 96.40957655343274" fill-opacity="0.3" stroke-linejoin="bevel" stroke-miterlimit="10"/><path fill="blue" stroke="blue" paint-order="fill stroke markers" d=" M 142.40566037735846 98.58711131920359 A 1.5 1.5 0 1 1 142.40565962735852 98.58561131945359" fill-opacity="0.3" stroke-linejoin="bevel" stroke-miterlimit="10"/><path fill="blue" stroke="blue" paint-order="fill stroke markers" d=" M 143.7641509433962 101.38217073945538 A 1.5 1.5 0 1 1 143.76415019339626 101.38067073970538" fill-opacity="0.3" stroke-linejoin="bevel" stroke-miterlimit="10"/><path fill="blue" stroke="blue" paint-order="fill stroke markers" d=" M 145.12264150943395 103.60743813504317 A 1.5 1.5 0 1 1 145.122640759434 103.60593813529317" fill-opacity="0.3" stroke-linejoin="bevel" stroke-miterlimit="10"/><path fill="blue" stroke="blue" paint-order="fill stroke markers" d=" M 146.4811320754717 107.40055251405093 A 1.5 1.5 0 1 1 146.48113132547175 107.39905251430093" fill-opacity="0.3" stroke-linejoin="bevel" stroke-miterlimit="10"/><path fill="blue" stroke="blue" paint-order="fill stroke markers" d=" M 147.8396226415094 111.18340455603828 A 1.5 1.5 0 1 1 147.83962189150947 111.18190455628829" fill-opacity="0.3" stroke-linejoin="bevel" stroke-miterlimit="10"/><path fill="blue" stroke="blue" paint-order="fill stroke markers" d=" M 149.19811320754715 113.35080687769835 A 1.5 1.5 0 1 1 149.1981124575472 113.34930687794835" fill-opacity="0.3" stroke-linejoin="bevel" stroke-miterlimit="10"/><path fill="blue" stroke="blue" paint-order="fill stroke markers" d=" M 150.5566037735849 116.30105543813295 A 1.5 1.5 0 1 1 150.55660302358496 116.29955543838295" fill-opacity="0.3" stroke-linejoin="bevel" stroke-miterlimit="10"/><path fill="blue" stroke="blue" paint-order="fill stroke markers" d=" M 151.9150943396226 120.27739443880199 A 1.5 1.5 0 1 1 151.91509358962267 120.275894439052" fill-opacity="0.3" stroke-linejoin="bevel" stroke-miterlimit="10"/><path fill="blue" stroke="blue" paint-order="fill stroke markers" d=" M 153.27358490566036 124.33754656194577 A 1.5 1.5 0 1 1 153.27358415566042 124.33604656219578" fill-opacity="0.3" stroke-linejoin="bevel" stroke-miterlimit="10"/><path fill="blue" stroke="blue" paint-order="fill stroke markers" d=" M 154.6320754716981 125.89208167107887 A 1.5 1.5 0 1 1 154.63207472169816 125.89058167132887" fill-opacity="0.3" stroke-linejoin="bevel" stroke-miterlimit="10"/><path fill="blue" stroke="blue" paint-order="fill stroke markers" d=" M 155.99056603773582 129.23669101283699 A 1.5 1.5 0 1 1 155.99056528773588 129.235191013087" fill-opacity="0.3" stroke-linejoin="bevel" stroke-miterlimit="10"/><path fill="blue" stroke="blue" paint-order="fill stroke markers" d=" M 157.34905660377356 129.1362801517168 A 1.5 1.5 0 1 1 157.34905585377362 129.1347801519668" fill-opacity="0.3" stroke-linejoin="bevel" stroke-miterlimit="10"/><path fill="blue" stroke="blue" paint-order="fill stroke markers" d=" M 158.70754716981128 134.4164646360672 A 1.5 1.5 0 1 1 158.70754641981134 134.4149646363172" fill-opacity="0.3" stroke-linejoin="bevel" stroke-miterlimit="10"/><path fill="blue" stroke="blue" paint-order="fill stroke markers" d=" M 160.06603773584902 137.51892880654597 A 1.5 1.5 0 1 1 160.06603698584908 137.51742880679598" fill-opacity="0.3" stroke-linejoin="bevel" stroke-miterlimit="10"/><path fill="blue" stroke="blue" paint-order="fill stroke markers" d=" M 161.7641509433962 139.6586525205738 A 1.5 1.5 0 1 1 161.76415019339626 139.65715252082381" fill-opacity="0.3" stroke-linejoin="bevel" stroke-miterlimit="10"/><path fill="blue" stroke="blue" paint-order="fill stroke markers" d=" M 164.14150943396226 145.44742957339983 A 1.5 1.5 0 1 1 164.14150868396231 145.44592957364983" fill-opacity="0.3" stroke-linejoin="bevel" stroke-miterlimit="10"/><path fill="blue" stroke="blue" paint-order="fill stroke markers" d=" M 166.85849056603772 150.83080466844362 A 1.5 1.5 0 1 1 166.85848981603777 150.82930466869362" fill-opacity="0.3" stroke-linejoin="bevel" stroke-miterlimit="10"/><path fill="blue" stroke="blue" paint-order="fill stroke markers" d=" M 169.57547169811318 156.42791151920622 A 1.5 1.5 0 1 1 169.57547094811324 156.42641151945622" fill-opacity="0.3" stroke-linejoin="bevel" stroke-miterlimit="10"/><path fill="blue" stroke="blue" paint-order="fill stroke markers" d=" M 172.29245283018867 162.61886982116536 A 1.5 1.5 0 1 1 172.29245208018872 162.61736982141537" fill-opacity="0.3" stroke-linejoin="bevel" stroke-miterlimit="10"/><path fill="blue" stroke="blue" paint-order="fill stroke markers" d=" M 175.0094339622641 165.14441738740996 A 1.5 1.5 0 1 1 175.00943321226416 165.14291738765996" fill-opacity="0.3" stroke-linejoin="bevel" stroke-miterlimit="10"/><path fill="blue" stroke="blue" paint-order="fill stroke markers" d=" M 177.7264150943396 173.83590133760146 A 1.5 1.5 0 1 1 177.72641434433964 173.83440133785146" fill-opacity="0.3" stroke-linejoin="bevel" stroke-miterlimit="10"/><path fill="blue" stroke="blue" paint-order="fill stroke markers" d=" M 180.44339622641508 178.7213419497509 A 1.5 1.5 0 1 1 180.44339547641513 178.7198419500009" fill-opacity="0.3" stroke-linejoin="bevel" stroke-miterlimit="10"/><path fill="blue" stroke="blue" paint-order="fill stroke markers" d=" M 183.16037735849054 183.5347396886809 A 1.5 1.5 0 1 1 183.1603766084906 183.5332396889309" fill-opacity="0.3" stroke-linejoin="bevel" stroke-miterlimit="10"/><path fill="blue" stroke="blue" paint-order="fill stroke markers" d=" M 185.877358490566 190.7118986692491 A 1.5 1.5 0 1 1 185.87735774056605 190.7103986694991" fill-opacity="0.3" stroke-linejoin="bevel" stroke-miterlimit="10"/><path fill="blue" stroke="blue" paint-order="fill stroke markers" d=" M 188.59433962264148 194.31410795295582 A 1.5 1.5 0 1 1 188.59433887264154 194.31260795320583" fill-opacity="0.3" stroke-linejoin="bevel" stroke-miterlimit="10"/><path fill="blue" stroke="blue" paint-order="fill stroke markers" d=" M 191.31132075471695 203.8990530092097 A 1.5 1.5 0 1 1 191.311320004717 203.8975530094597" fill-opacity="0.3" stroke-linejoin="bevel" stroke-miterlimit="10"/><path fill="blue" stroke="blue" paint-order="fill stroke markers" d=" M 194.0283018867924 203.1663973524087 A 1.5 1.5 0 1 1 194.02830113679246 203.1648973526587" fill-opacity="0.3" stroke-linejoin="bevel" stroke-miterlimit="10"/><path fill="blue" stroke="blue" paint-order="fill stroke markers" d=" M 196.7452830188679 212.40592412911826 A 1.5 1.5 0 1 1 196.74528226886795 212.40442412936827" fill-opacity="0.3" stroke-linejoin="bevel" stroke-miterlimit="10"/><path fill="blue" stroke="blue" paint-order="fill stroke markers" d=" M 199.46226415094335 218.19705855710333 A 1.5 1.5 0 1 1 199.4622634009434 218.19555855735334" fill-opacity="0.3" stroke-linejoin="bevel" stroke-miterlimit="10"/><path fill="blue" stroke="blue" paint-order="fill stroke markers" d=" M 202.17924528301882 222.33849427125432 A 1.5 1.5 0 1 1 202.17924453301887 222.33699427150432" fill-opacity="0.3" stroke-linejoin="bevel" stroke-miterlimit="10"/><path fill="blue" stroke="blue" paint-order="fill stroke markers" d=" M 204.8962264150943 224.543781626719 A 1.5 1.5 0 1 1 204.89622566509436 224.54228162696901" fill-opacity="0.3" stroke-linejoin="bevel" stroke-miterlimit="10"/><path fill="blue" stroke="blue" paint-order="fill stroke markers" d=" M 207.6132075471698 225.52451772814638 A 1.5 1.5 0 1 1 207.61320679716985 225.52301772839638" fill-opacity="0.3" stroke-linejoin="bevel" stroke-miterlimit="10"/><path fill="blue" stroke="blue" paint-order="fill stroke markers" d=" M 210.33018867924523 233.6636228708059 A 1.5 1.5 0 1 1 210.33018792924528 233.6621228710559" fill-opacity="0.3" stroke-linejoin="bevel" stroke-miterlimit="10"/><path fill="blue" stroke="blue" paint-order="fill stroke markers" d=" M 213.0471698113207 237.27976607492892 A 1.5 1.5 0 1 1 213.04716906132077 237.27826607517892" fill-opacity="0.3" stroke-linejoin="bevel" stroke-miterlimit="10"/><path fill="blue" stroke="blue" paint-order="fill stroke markers" d=" M 215.76415094339617 241.81340850497952 A 1.5 1.5 0 1 1 215.76415019339623 241.81190850522952" fill-opacity="0.3" stroke-linejoin="bevel" stroke-miterlimit="10"/><path fill="blue" stroke="blue" paint-order="fill stroke markers" d=" M 218.48113207547163 245.48674667299701 A 1.5 1.5 0 1 1 218.4811313254717 245.48524667324702" fill-opacity="0.3" stroke-linejoin="bevel" stroke-miterlimit="10"/><path fill="blue" stroke="blue" paint-order="fill stroke markers" d=" M 221.19811320754712 246.4547746101607 A 1.5 1.5 0 1 1 221.19811245754718 246.45327461041072" fill-opacity="0.3" stroke-linejoin="bevel" stroke-miterlimit="10"/><path fill="blue" stroke="blue" paint-order="fill stroke markers" d=" M 223.91509433962258 251.88490143439105 A 1.5 1.5 0 1 1 223.91509358962264 251.88340143464106" fill-opacity="0.3" stroke-linejoin="bevel" stroke-miterlimit="10"/><path fill="blue" stroke="blue" paint-order="fill stroke markers" d=" M 226.63207547169807 256.99870205863976 A 1.5 1.5 0 1 1 226.63207472169813 256.99720205888974" fill-opacity="0.3" stroke-linejoin="bevel" stroke-miterlimit="10"/><path fill="blue" stroke="blue" paint-order="fill stroke markers" d=" M 230.43584905660373 260.72302266023405 A 1.5 1.5 0 1 1 230.4358483066038 260.721522660484" fill-opacity="0.3" stroke-linejoin="bevel" stroke-miterlimit="10"/><path fill="blue" stroke="blue" paint-order="fill stroke markers" d=" M 236.14150943396223 273.4233287931621 A 1.5 1.5 0 1 1 236.1415086839623 273.4218287934121" fill-opacity="0.3" stroke-linejoin="bevel" stroke-miterlimit="10"/><path fill="blue" stroke="blue" paint-order="fill stroke markers" d=" M 242.9339622641509 278.10348961212384 A 1.5 1.5 0 1 1 242.93396151415095 278.1019896123738" fill-opacity="0.3" stroke-linejoin="bevel" stroke-miterlimit="10"/><path fill="blue" stroke="blue" paint-order="fill stroke markers" d=" M 249.7264150943396 289.5823205839887 A 1.5 1.5 0 1 1 249.72641434433964 289.58082058423867" fill-opacity="0.3" stroke-linejoin="bevel" stroke-miterlimit="10"/><path fill="blue" stroke="blue" paint-order="fill stroke markers" d=" M 256.5188679245282 296.0859093309178 A 1.5 1.5 0 1 1 256.5188671745283 296.08440933116776" fill-opacity="0.3" stroke-linejoin="bevel" stroke-miterlimit="10"/><path fill="blue" stroke="blue" paint-order="fill stroke markers" d=" M 263.3113207547169 302.9505531611628 A 1.5 1.5 0 1 1 263.311320004717 302.9490531614128" fill-opacity="0.3" stroke-linejoin="bevel" stroke-miterlimit="10"/><path fill="blue" stroke="blue" paint-order="fill stroke markers" d=" M 270.10377358490564 309.24611421638207 A 1.5 1.5 0 1 1 270.1037728349057 309.24461421663204" fill-opacity="0.3" stroke-linejoin="bevel" stroke-miterlimit="10"/><path fill="blue" stroke="blue" paint-order="fill stroke markers" d=" M 276.89622641509425 318.28772720975104 A 1.5 1.5 0 1 1 276.89622566509433 318.286227210001" fill-opacity="0.3" stroke-linejoin="bevel" stroke-miterlimit="10"/><path fill="blue" stroke="blue" paint-order="fill stroke markers" d=" M 283.68867924528297 318.7518218308091 A 1.5 1.5 0 1 1 283.68867849528306 318.75032183105907" fill-opacity="0.3" stroke-linejoin="bevel" stroke-miterlimit="10"/><path fill="blue" stroke="blue" paint-order="fill stroke markers" d=" M 290.4811320754716 331.12596870227844 A 1.5 1.5 0 1 1 290.48113132547167 331.1244687025284" fill-opacity="0.3" stroke-linejoin="bevel" stroke-miterlimit="10"/><path fill="blue" stroke="blue" paint-order="fill stroke markers" d=" M 297.2735849056603 333.2118770960123 A 1.5 1.5 0 1 1 297.2735841556604 333.2103770962623" fill-opacity="0.3" stroke-linejoin="bevel" stroke-miterlimit="10"/><path fill="blue" stroke="blue" paint-order="fill stroke markers" d=" M 304.066037735849 338.59277552231475 A 1.5 1.5 0 1 1 304.0660369858491 338.59127552256473" fill-opacity="0.3" stroke-linejoin="bevel" stroke-miterlimit="10"/><path fill="blue" stroke="blue" paint-order="fill stroke markers" d=" M 310.85849056603763 343.69116313614734 A 1.5 1.5 0 1 1 310.8584898160377 343.6896631363973" fill-opacity="0.3" stroke-linejoin="bevel" stroke-miterlimit="10"/><path fill="blue" stroke="blue" paint-order="fill stroke markers" d=" M 317.65094339622635 350.5023569909956 A 1.5 1.5 0 1 1 317.65094264622644 350.5008569912456" fill-opacity="0.3" stroke-linejoin="bevel" stroke-miterlimit="10"/><path fill="blue" stroke="blue" paint-order="fill stroke markers" d=" M 324.443396226415 354.9230130019709 A 1.5 1.5 0 1 1 324.4433954764151 354.9215130022209" fill-opacity="0.3" stroke-linejoin="bevel" stroke-miterlimit="10"/><path fill="blue" stroke="blue" paint-order="fill stroke markers" d=" M 331.2358490566037 356.7586127951797 A 1.5 1.5 0 1 1 331.23584830660377 356.7571127954297" fill-opacity="0.3" stroke-linejoin="bevel" stroke-miterlimit="10"/><path fill="blue" stroke="blue" paint-order="fill stroke markers" d=" M 338.02830188679235 361.9393067307737 A 1.5 1.5 0 1 1 338.02830113679244 361.93780673102367" fill-opacity="0.3" stroke-linejoin="bevel" stroke-miterlimit="10"/><path fill="blue" stroke="blue" paint-order="fill stroke markers" d=" M 344.820754716981 367.6050792270747 A 1.5 1.5 0 1 1 344.8207539669811 367.6035792273247" fill-opacity="0.3" stroke-linejoin="bevel" stroke-miterlimit="10"/><path fill="blue" stroke="blue" paint-order="fill stroke markers" d=" M 351.6132075471697 372.9289285503041 A 1.5 1.5 0 1 1 351.61320679716977 372.92742855055405" fill-opacity="0.3" stroke-linejoin="bevel" stroke-miterlimit="10"/><path fill="blue" stroke="blue" paint-order="fill stroke markers" d=" M 358.4056603773584 368.5229713884464 A 1.5 1.5 0 1 1 358.4056596273585 368.5214713886964" fill-opacity="0.3" stroke-linejoin="bevel" stroke-miterlimit="10"/><path fill="blue" stroke="blue" paint-order="fill stroke markers" d=" M 365.19811320754707 372.17466383447197 A 1.5 1.5 0 1 1 365.19811245754715 372.17316383472195" fill-opacity="0.3" stroke-linejoin="bevel" stroke-miterlimit="10"/><path fill="blue" stroke="blue" paint-order="fill stroke markers" d=" M 371.99056603773573 383.90365978059856 A 1.5 1.5 0 1 1 371.9905652877358 383.90215978084854" fill-opacity="0.3" stroke-linejoin="bevel" stroke-miterlimit="10"/><path fill="blue" stroke="blue" paint-order="fill stroke markers" d=" M 378.78301886792445 383.3341071948462 A 1.5 1.5 0 1 1 378.78301811792454 383.33260719509616" fill-opacity="0.3" stroke-linejoin="bevel" stroke-miterlimit="10"/><path fill="blue" stroke="blue" paint-order="fill stroke markers" d=" M 385.57547169811306 386.0280999468051 A 1.5 1.5 0 1 1 385.57547094811315 386.0265999470551" fill-opacity="0.3" stroke-linejoin="bevel" stroke-miterlimit="10"/><path fill="blue" stroke="blue" paint-order="fill stroke markers" d=" M 392.3679245283018 395.77442972390776 A 1.5 1.5 0 1 1 392.3679237783019 395.77292972415773" fill-opacity="0.3" stroke-linejoin="bevel" stroke-miterlimit="10"/><path fill="blue" stroke="blue" paint-order="fill stroke markers" d=" M 399.16037735849045 384.27824209552267 A 1.5 1.5 0 1 1 399.16037660849054 384.27674209577265" fill-opacity="0.3" stroke-linejoin="bevel" stroke-miterlimit="10"/><path fill="blue" stroke="blue" paint-order="fill stroke markers" d=" M 405.9528301886792 387.82338798844785 A 1.5 1.5 0 1 1 405.95282943867926 387.8218879886978" fill-opacity="0.3" stroke-linejoin="bevel" stroke-miterlimit="10"/><path fill="blue" stroke="blue" paint-order="fill stroke markers" d=" M 412.7452830188678 402.79541866500267 A 1.5 1.5 0 1 1 412.74528226886787 402.79391866525265" fill-opacity="0.3" stroke-linejoin="bevel" stroke-miterlimit="10"/><path fill="blue" stroke="blue" paint-order="fill stroke markers" d=" M 419.53773584905645 394.07439345147543 A 1.5 1.5 0 1 1 419.53773509905653 394.0728934517254" fill-opacity="0.3" stroke-linejoin="bevel" stroke-miterlimit="10"/><path fill="blue" stroke="blue" paint-order="fill stroke markers" d=" M 426.33018867924517 404.806913269543 A 1.5 1.5 0 1 1 426.33018792924526 404.80541326979295" fill-opacity="0.3" stroke-linejoin="bevel" stroke-miterlimit="10"/><path fill="blue" stroke="blue" paint-order="fill stroke markers" d=" M 433.12264150943383 393.64768586454346 A 1.5 1.5 0 1 1 433.1226407594339 393.64618586479344" fill-opacity="0.3" stroke-linejoin="bevel" stroke-miterlimit="10"/><path fill="blue" stroke="blue" paint-order="fill stroke markers" d=" M 439.9150943396225 399.89420865158803 A 1.5 1.5 0 1 1 439.9150935896226 399.892708651838" fill-opacity="0.3" stroke-linejoin="bevel" stroke-miterlimit="10"/><path fill="blue" stroke="blue" paint-order="fill stroke markers" d=" M 446.7075471698112 402.22340270046425 A 1.5 1.5 0 1 1 446.7075464198113 402.2219027007142" fill-opacity="0.3" stroke-linejoin="bevel" stroke-miterlimit="10"/><path fill="blue" stroke="blue" paint-order="fill stroke markers" d=" M 453.4999999999999 414.45054023405174 A 1.5 1.5 0 1 1 453.49999925 414.4490402343017" fill-opacity="0.3" stroke-linejoin="bevel" stroke-miterlimit="10"/></g></g></g><g clip-path="url(#WMzSOgpTbWTd)"><g><g><path fill="none" stroke="none"/><path fill="none" stroke="red" paint-order="fill stroke markers" d=" M 92 51.454545454545496 L 93.45494339622641 51.50811603313787 L 94.91124528301887 51.642144082005416 L 96.36618867924528 51.87032562305916 L 97.82249056603773 52.193182638391875 L 99.27743396226415 52.59794269656817 L 100.7337358490566 53.09897799516682 L 102.18867924528301 53.697457898369976 L 103.64362264150944 54.381082629056095 L 105.09992452830188 55.15125524986382 L 106.54943396226415 56.00957819613677 L 108.0166037735849 56.957864818664575 L 109.47018867924527 57.99815275236858 L 110.92377358490566 59.132719326867914 L 112.37735849056602 60.335322851666206 L 113.83094339622642 61.63693641117658 L 115.28452830188678 63.025886735246274 L 116.73811320754716 64.49011024222614 L 118.20528301886792 66.04718581593869 L 119.6588679245283 67.68516876442112 L 121.11245283018867 69.39156571850265 L 122.56603773584905 71.20034786544159 L 124.01962264150941 73.06786465472669 L 125.47320754716979 75.01260092550129 L 126.92679245283017 77.05426285906677 L 128.39396226415093 79.1469427003953 L 129.84754716981132 81.32677345496373 L 131.30113207547168 83.56307071820635 L 132.75471698113205 85.8759163302231 L 134.1132075471698 88.10671541390388 L 135.47169811320754 90.37849097605314 L 136.83018867924528 92.71146658401679 L 138.188679245283 95.08929615363994 L 139.54716981132074 97.53317124188641 L 140.90566037735846 100.00648251344941 L 142.2641509433962 102.55050225141255 L 143.62264150943395 105.12728444102103 L 144.9811320754717 107.73778809147052 L 146.3396226415094 110.40458117263637 L 147.69811320754715 113.1081002106936 L 149.0566037735849 115.82696477838203 L 150.4150943396226 118.60694377146652 L 151.77358490566036 121.40369541648221 L 153.1320754716981 124.21691739858292 L 154.49056603773582 127.07094115711354 L 155.84905660377356 129.94185887684893 L 157.20754716981128 132.82928700026147 L 158.56603773584902 135.73279327437268 L 160.2641509433962 139.38574625055406 L 162.64150943396226 144.53464999584514 L 165.35849056603772 150.4128619585287 L 168.07547169811318 156.30282319360904 L 170.79245283018867 162.1592104124792 L 173.5094339622641 167.96280397305293 L 176.2264150943396 173.72789864869077 L 178.94339622641508 179.39760708692702 L 181.66037735849054 184.94511878882352 L 184.377358490566 190.38208228342472 L 187.09433962264148 195.72469015339135 L 189.81132075471695 200.90442736790595 L 192.5283018867924 205.98322448075862 L 195.2452830188679 210.8901458319139 L 197.96226415094335 215.645790880828 L 200.67924528301882 220.32909534384322 L 203.3962264150943 224.81542915826105 L 206.1132075471698 229.2449471893403 L 208.83018867924523 233.48847853463405 L 211.5471698113207 237.70157768950241 L 214.26415094339617 241.81340850497952 L 216.98113207547163 245.808581544659 L 219.69811320754712 249.73737364280083 L 222.41509433962258 253.5889938563293 L 225.13207547169807 257.422751861664 L 228.93584905660373 262.62810052458354 L 234.64150943396223 270.32019928771086 L 241.4339622641509 279.1961599388656 L 248.2264150943396 287.75942728552803 L 255.01886792452822 295.892506521545 L 261.8113207547169 303.4631153178388 L 268.60377358490564 310.5446150819586 L 275.39622641509425 317.0203739823847 L 282.18867924528297 323.00895199862646 L 288.9811320754716 328.53249937765827 L 295.7735849056603 333.7093775776375 L 302.566037735849 338.688340127736 L 309.35849056603763 343.54903364292466 L 316.15094339622635 348.3720552191377 L 322.943396226415 353.1449558515729 L 329.7358490566037 357.8381104521598 L 336.52830188679235 362.35204512152086 L 343.320754716981 366.5912238503398 L 350.1132075471697 370.5030322470676 L 356.9056603773584 374.03266572018407 L 363.69811320754707 377.1803113359307 L 370.49056603773573 380.0089390760655 L 377.28301886792445 382.63070584077303 L 384.07547169811306 385.1898516197557 L 390.8679245283018 387.8030707692824 L 397.66037735849045 390.5765354822007 L 404.4528301886792 393.58380651145353 L 411.2452830188678 396.88446526843086 L 418.03773584905645 400.4555288099117 L 424.83018867924517 404.24874276344605 L 431.62264150943383 408.20989336653344 L 438.4150943396225 412.2773543208044 L 445.2075471698112 416.4063141210754 L 451.9999999999999 420.5454545454545" stroke-linejoin="bevel" stroke-miterlimit="10" stroke-width="3"/></g></g></g><g clip-path="url(#NWXnlXbamqAI)"><g><g/><g><path fill="#ffffff" stroke="#e5e5e5" paint-order="fill stroke markers" d=" M 358.6166648864746 43 L 460 43 L 460 106 L 358.6166648864746 106 L 358.6166648864746 43 Z" fill-opacity="0.95" stroke-linejoin="bevel" stroke-miterlimit="10" stroke-opacity="0.5"/><text fill="#444444" stroke="none" font-family="helvetica" font-size="13px" font-style="normal" font-weight="normal" text-decoration="normal" x="393.6166648864746" y="63" text-anchor="start" dominant-baseline="central">Observed</text><path fill="blue" stroke="blue" paint-order="fill stroke markers" d=" M 382.6166648864746 63 A 4 4 0 1 1 382.6166628864748 62.99600000066666" fill-opacity="0.3" stroke-linejoin="bevel" stroke-miterlimit="10"/><text fill="#444444" stroke="none" font-family="helvetica" font-size="13px" font-style="normal" font-weight="normal" text-decoration="normal" x="393.6166648864746" y="86" text-anchor="start" dominant-baseline="central">Predicted</text><g><path fill="none" stroke="red" paint-order="fill stroke markers" d=" M 368.6166648864746 86 L 388.6166648864746 86" stroke-linejoin="bevel" stroke-miterlimit="10" stroke-width="3"/></g></g></g></g><g><g fill="#444444"><path fill="" stroke="none" d=""/><g transform="translate(272,5)"><path fill="none" stroke="none"/><text fill="" stroke="none" font-family="helvetica" font-size="12pt" font-style="normal" font-weight="bold" text-decoration="normal" x="0" y="0" text-anchor="middle" dominant-baseline="text-before-edge">P(r) extrapolated fit for SASDEE2</text></g></g></g><g/><g><g fill="#444444"><path fill="none" stroke="black" paint-order="fill stroke markers" d=" M 74 439 L 470 439" stroke-linejoin="bevel" stroke-miterlimit="10"/><path fill="none" stroke="black" paint-order="fill stroke markers" d=" M 92 445 L 92 437" stroke-linejoin="bevel" stroke-miterlimit="10"/><path fill="none" stroke="black" paint-order="fill stroke markers" d=" M 160 445 L 160 437" stroke-linejoin="bevel" stroke-miterlimit="10"/><path fill="none" stroke="black" paint-order="fill stroke markers" d=" M 228 445 L 228 437" stroke-linejoin="bevel" stroke-miterlimit="10"/><path fill="none" stroke="black" paint-order="fill stroke markers" d=" M 296 445 L 296 437" stroke-linejoin="bevel" stroke-miterlimit="10"/><path fill="none" stroke="black" paint-order="fill stroke markers" d=" M 364 445 L 364 437" stroke-linejoin="bevel" stroke-miterlimit="10"/><path fill="none" stroke="black" paint-order="fill stroke markers" d=" M 432 445 L 432 437" stroke-linejoin="bevel" stroke-miterlimit="10"/><path fill="none" stroke="black" paint-order="fill stroke markers" d=" M 78 443 L 78 439" stroke-linejoin="bevel" stroke-miterlimit="10"/><path fill="none" stroke="black" paint-order="fill stroke markers" d=" M 92 443 L 92 439" stroke-linejoin="bevel" stroke-miterlimit="10"/><path fill="none" stroke="black" paint-order="fill stroke markers" d=" M 106 443 L 106 439" stroke-linejoin="bevel" stroke-miterlimit="10"/><path fill="none" stroke="black" paint-order="fill stroke markers" d=" M 119 443 L 119 439" stroke-linejoin="bevel" stroke-miterlimit="10"/><path fill="none" stroke="black" paint-order="fill stroke markers" d=" M 133 443 L 133 439" stroke-linejoin="bevel" stroke-miterlimit="10"/><path fill="none" stroke="black" paint-order="fill stroke markers" d=" M 146 443 L 146 439" stroke-linejoin="bevel" stroke-miterlimit="10"/><path fill="none" stroke="black" paint-order="fill stroke markers" d=" M 160 443 L 160 439" stroke-linejoin="bevel" stroke-miterlimit="10"/><path fill="none" stroke="black" paint-order="fill stroke markers" d=" M 174 443 L 174 439" stroke-linejoin="bevel" stroke-miterlimit="10"/><path fill="none" stroke="black" paint-order="fill stroke markers" d=" M 187 443 L 187 439" stroke-linejoin="bevel" stroke-miterlimit="10"/><path fill="none" stroke="black" paint-order="fill stroke markers" d=" M 201 443 L 201 439" stroke-linejoin="bevel" stroke-miterlimit="10"/><path fill="none" stroke="black" paint-order="fill stroke markers" d=" M 214 443 L 214 439" stroke-linejoin="bevel" stroke-miterlimit="10"/><path fill="none" stroke="black" paint-order="fill stroke markers" d=" M 228 443 L 228 439" stroke-linejoin="bevel" stroke-miterlimit="10"/><path fill="none" stroke="black" paint-order="fill stroke markers" d=" M 241 443 L 241 439" stroke-linejoin="bevel" stroke-miterlimit="10"/><path fill="none" stroke="black" paint-order="fill stroke markers" d=" M 255 443 L 255 439" stroke-linejoin="bevel" stroke-miterlimit="10"/><path fill="none" stroke="black" paint-order="fill stroke markers" d=" M 269 443 L 269 439" stroke-linejoin="bevel" stroke-miterlimit="10"/><path fill="none" stroke="black" paint-order="fill stroke markers" d=" M 282 443 L 282 439" stroke-linejoin="bevel" stroke-miterlimit="10"/><path fill="none" stroke="black" paint-order="fill stroke markers" d=" M 296 443 L 296 439" stroke-linejoin="bevel" stroke-miterlimit="10"/><path fill="none" stroke="black" paint-order="fill stroke markers" d=" M 309 443 L 309 439" stroke-linejoin="bevel" stroke-miterlimit="10"/><path fill="none" stroke="black" paint-order="fill stroke markers" d=" M 323 443 L 323 439" stroke-linejoin="bevel" stroke-miterlimit="10"/><path fill="none" stroke="black" paint-order="fill stroke markers" d=" M 337 443 L 337 439" stroke-linejoin="bevel" stroke-miterlimit="10"/><path fill="none" stroke="black" paint-order="fill stroke markers" d=" M 350 443 L 350 439" stroke-linejoin="bevel" stroke-miterlimit="10"/><path fill="none" stroke="black" paint-order="fill stroke markers" d=" M 364 443 L 364 439" stroke-linejoin="bevel" stroke-miterlimit="10"/><path fill="none" stroke="black" paint-order="fill stroke markers" d=" M 377 443 L 377 439" stroke-linejoin="bevel" stroke-miterlimit="10"/><path fill="none" stroke="black" paint-order="fill stroke markers" d=" M 391 443 L 391 439" stroke-linejoin="bevel" stroke-miterlimit="10"/><path fill="none" stroke="black" paint-order="fill stroke markers" d=" M 404 443 L 404 439" stroke-linejoin="bevel" stroke-miterlimit="10"/><path fill="none" stroke="black" paint-order="fill stroke markers" d=" M 418 443 L 418 439" stroke-linejoin="bevel" stroke-miterlimit="10"/><path fill="none" stroke="black" paint-order="fill stroke markers" d=" M 432 443 L 432 439" stroke-linejoin="bevel" stroke-miterlimit="10"/><path fill="none" stroke="black" paint-order="fill stroke markers" d=" M 445 443 L 445 439" stroke-linejoin="bevel" stroke-miterlimit="10"/><path fill="" stroke="black" paint-order="fill stroke markers" d=" M 459 443 L 459 439" stroke-linejoin="bevel" stroke-miterlimit="10"/><g transform="translate(92,450) rotate(0,0,0)"><text fill="" stroke="none" font-family="helvetica" font-size="14pt" font-style="normal" font-weight="normal" text-decoration="normal" x="0" y="0" text-anchor="middle" dominant-baseline="hanging">0</text><g transform="rotate(0,0,0) translate(-92,-450) translate(160,450) rotate(0,0,0)"><text fill="" stroke="none" font-family="helvetica" font-size="14pt" font-style="normal" font-weight="normal" text-decoration="normal" x="0" y="0" text-anchor="middle" dominant-baseline="hanging">0.5</text><g transform="rotate(0,0,0) translate(-160,-450) translate(228,450) rotate(0,0,0)"><text fill="" stroke="none" font-family="helvetica" font-size="14pt" font-style="normal" font-weight="normal" text-decoration="normal" x="0" y="0" text-anchor="middle" dominant-baseline="hanging">1</text><g transform="rotate(0,0,0) translate(-228,-450) translate(296,450) rotate(0,0,0)"><text fill="" stroke="none" font-family="helvetica" font-size="14pt" font-style="normal" font-weight="normal" text-decoration="normal" x="0" y="0" text-anchor="middle" dominant-baseline="hanging">1.5</text><g transform="rotate(0,0,0) translate(-296,-450) translate(364,450) rotate(0,0,0)"><text fill="" stroke="none" font-family="helvetica" font-size="14pt" font-style="normal" font-weight="normal" text-decoration="normal" x="0" y="0" text-anchor="middle" dominant-baseline="hanging">2</text><g transform="rotate(0,0,0) translate(-364,-450) translate(432,450) rotate(0,0,0)"><text fill="" stroke="none" font-family="helvetica" font-size="14pt" font-style="normal" font-weight="normal" text-decoration="normal" x="0" y="0" text-anchor="middle" dominant-baseline="hanging">2.5</text><g transform="rotate(0,0,0) translate(-432,-450) translate(272,477) rotate(0,0,0)"><text fill="" stroke="none" font-family="helvetica" font-size="14pt" font-style="italic" font-weight="normal" text-decoration="normal" x="0" y="0" text-anchor="middle" dominant-baseline="hanging">q [Å⁻⁻¹]</text><g transform="rotate(0,0,0) translate(-272,-477)"/></g></g></g></g></g></g></g></g></g><g><g fill="#444444"><path fill="none" stroke="black" paint-order="fill stroke markers" d=" M 74 439 L 74 33" stroke-linejoin="bevel" stroke-miterlimit="10"/><path fill="none" stroke="black" paint-order="fill stroke markers" d=" M 68 388 L 76 388" stroke-linejoin="bevel" stroke-miterlimit="10"/><path fill="none" stroke="black" paint-order="fill stroke markers" d=" M 68 326 L 76 326" stroke-linejoin="bevel" stroke-miterlimit="10"/><path fill="none" stroke="black" paint-order="fill stroke markers" d=" M 68 265 L 76 265" stroke-linejoin="bevel" stroke-miterlimit="10"/><path fill="none" stroke="black" paint-order="fill stroke markers" d=" M 68 203 L 76 203" stroke-linejoin="bevel" stroke-miterlimit="10"/><path fill="none" stroke="black" paint-order="fill stroke markers" d=" M 68 141 L 76 141" stroke-linejoin="bevel" stroke-miterlimit="10"/><path fill="none" stroke="black" paint-order="fill stroke markers" d=" M 68 79 L 76 79" stroke-linejoin="bevel" stroke-miterlimit="10"/><path fill="none" stroke="black" paint-order="fill stroke markers" d=" M 70 401 L 74 401" stroke-linejoin="bevel" stroke-miterlimit="10"/><path fill="none" stroke="black" paint-order="fill stroke markers" d=" M 70 413 L 74 413" stroke-linejoin="bevel" stroke-miterlimit="10"/><path fill="none" stroke="black" paint-order="fill stroke markers" d=" M 70 425 L 74 425" stroke-linejoin="bevel" stroke-miterlimit="10"/><path fill="none" stroke="black" paint-order="fill stroke markers" d=" M 70 438 L 74 438" stroke-linejoin="bevel" stroke-miterlimit="10"/><path fill="none" stroke="black" paint-order="fill stroke markers" d=" M 70 388 L 74 388" stroke-linejoin="bevel" stroke-miterlimit="10"/><path fill="none" stroke="black" paint-order="fill stroke markers" d=" M 70 376 L 74 376" stroke-linejoin="bevel" stroke-miterlimit="10"/><path fill="none" stroke="black" paint-order="fill stroke markers" d=" M 70 364 L 74 364" stroke-linejoin="bevel" stroke-miterlimit="10"/><path fill="none" stroke="black" paint-order="fill stroke markers" d=" M 70 351 L 74 351" stroke-linejoin="bevel" stroke-miterlimit="10"/><path fill="none" stroke="black" paint-order="fill stroke markers" d=" M 70 339 L 74 339" stroke-linejoin="bevel" stroke-miterlimit="10"/><path fill="none" stroke="black" paint-order="fill stroke markers" d=" M 70 326 L 74 326" stroke-linejoin="bevel" stroke-miterlimit="10"/><path fill="none" stroke="black" paint-order="fill stroke markers" d=" M 70 314 L 74 314" stroke-linejoin="bevel" stroke-miterlimit="10"/><path fill="none" stroke="black" paint-order="fill stroke markers" d=" M 70 302 L 74 302" stroke-linejoin="bevel" stroke-miterlimit="10"/><path fill="none" stroke="black" paint-order="fill stroke markers" d=" M 70 289 L 74 289" stroke-linejoin="bevel" stroke-miterlimit="10"/><path fill="none" stroke="black" paint-order="fill stroke markers" d=" M 70 277 L 74 277" stroke-linejoin="bevel" stroke-miterlimit="10"/><path fill="none" stroke="black" paint-order="fill stroke markers" d=" M 70 265 L 74 265" stroke-linejoin="bevel" stroke-miterlimit="10"/><path fill="none" stroke="black" paint-order="fill stroke markers" d=" M 70 252 L 74 252" stroke-linejoin="bevel" stroke-miterlimit="10"/><path fill="none" stroke="black" paint-order="fill stroke markers" d=" M 70 240 L 74 240" stroke-linejoin="bevel" stroke-miterlimit="10"/><path fill="none" stroke="black" paint-order="fill stroke markers" d=" M 70 227 L 74 227" stroke-linejoin="bevel" stroke-miterlimit="10"/><path fill="none" stroke="black" paint-order="fill stroke markers" d=" M 70 215 L 74 215" stroke-linejoin="bevel" stroke-miterlimit="10"/><path fill="none" stroke="black" paint-order="fill stroke markers" d=" M 70 203 L 74 203" stroke-linejoin="bevel" stroke-miterlimit="10"/><path fill="none" stroke="black" paint-order="fill stroke markers" d=" M 70 190 L 74 190" stroke-linejoin="bevel" stroke-miterlimit="10"/><path fill="none" stroke="black" paint-order="fill stroke markers" d=" M 70 178 L 74 178" stroke-linejoin="bevel" stroke-miterlimit="10"/><path fill="none" stroke="black" paint-order="fill stroke markers" d=" M 70 166 L 74 166" stroke-linejoin="bevel" stroke-miterlimit="10"/><path fill="none" stroke="black" paint-order="fill stroke markers" d=" M 70 153 L 74 153" stroke-linejoin="bevel" stroke-miterlimit="10"/><path fill="none" stroke="black" paint-order="fill stroke markers" d=" M 70 141 L 74 141" stroke-linejoin="bevel" stroke-miterlimit="10"/><path fill="none" stroke="black" paint-order="fill stroke markers" d=" M 70 129 L 74 129" stroke-linejoin="bevel" stroke-miterlimit="10"/><path fill="none" stroke="black" paint-order="fill stroke markers" d=" M 70 116 L 74 116" stroke-linejoin="bevel" stroke-miterlimit="10"/><path fill="none" stroke="black" paint-order="fill stroke markers" d=" M 70 104 L 74 104" stroke-linejoin="bevel" stroke-miterlimit="10"/><path fill="none" stroke="black" paint-order="fill stroke markers" d=" M 70 91 L 74 91" stroke-linejoin="bevel" stroke-miterlimit="10"/><path fill="none" stroke="black" paint-order="fill stroke markers" d=" M 70 79 L 74 79" stroke-linejoin="bevel" stroke-miterlimit="10"/><path fill="none" stroke="black" paint-order="fill stroke markers" d=" M 70 67 L 74 67" stroke-linejoin="bevel" stroke-miterlimit="10"/><path fill="none" stroke="black" paint-order="fill stroke markers" d=" M 70 54 L 74 54" stroke-linejoin="bevel" stroke-miterlimit="10"/><path fill="" stroke="black" paint-order="fill stroke markers" d=" M 70 42 L 74 42" stroke-linejoin="bevel" stroke-miterlimit="10"/><g transform="translate(63,388) rotate(0,0,0)"><text fill="" stroke="none" font-family="helvetica" font-size="14pt" font-style="normal" font-weight="normal" text-decoration="normal" x="0" y="0" text-anchor="end" dominant-baseline="central">-0.5</text><g transform="rotate(0,0,0) translate(-63,-388) translate(63,326) rotate(0,0,0)"><text fill="" stroke="none" font-family="helvetica" font-size="14pt" font-style="normal" font-weight="normal" text-decoration="normal" x="0" y="0" text-anchor="end" dominant-baseline="central">0</text><g transform="rotate(0,0,0) translate(-63,-326) translate(63,265) rotate(0,0,0)"><text fill="" stroke="none" font-family="helvetica" font-size="14pt" font-style="normal" font-weight="normal" text-decoration="normal" x="0" y="0" text-anchor="end" dominant-baseline="central">0.5</text><g transform="rotate(0,0,0) translate(-63,-265) translate(63,203) rotate(0,0,0)"><text fill="" stroke="none" font-family="helvetica" font-size="14pt" font-style="normal" font-weight="normal" text-decoration="normal" x="0" y="0" text-anchor="end" dominant-baseline="central">1</text><g transform="rotate(0,0,0) translate(-63,-203) translate(63,141) rotate(0,0,0)"><text fill="" stroke="none" font-family="helvetica" font-size="14pt" font-style="normal" font-weight="normal" text-decoration="normal" x="0" y="0" text-anchor="end" dominant-baseline="central">1.5</text><g transform="rotate(0,0,0) translate(-63,-141) translate(63,79) rotate(0,0,0)"><text fill="" stroke="none" font-family="helvetica" font-size="14pt" font-style="normal" font-weight="normal" text-decoration="normal" x="0" y="0" text-anchor="end" dominant-baseline="central">2</text><g transform="rotate(0,0,0) translate(-63,-79) translate(23,236) rotate(-90,0,0)"><text fill="" stroke="none" font-family="helvetica" font-size="14pt" font-style="italic" font-weight="normal" text-decoration="normal" x="0" y="0" text-anchor="middle" dominant-baseline="alphabetic">Log I(q) [a.u]</text><g transform="rotate(90,0,0) translate(-23,-236)"/></g></g></g></g></g></g></g></g></g><g clip-path="url(#GdlePqRcyVpl)"><g/></g></g></svg>