<svg version="1.1" xmlns="http://www.w3.org/2000/svg" xmlns:xlink="http://www.w3.org/1999/xlink" width="500" height="500"><defs><clipPath id="KCSKeorKPsal"><path fill="none" stroke="none" d="M 57.5 33.5 L 470.5 33.5 L 470.5 439.5 L 57.5 439.5 L 57.5 33.5"/></clipPath><clipPath id="nuThTOFksdDb"><path fill="none" stroke="none" d="M 57.5 33.5 L 470.5 33.5 L 470.5 439.5 L 57.5 439.5 L 57.5 33.5"/></clipPath><clipPath id="NaBgqthIdVlH"><path fill="none" stroke="none" d="M 57.5 33.5 L 470.5 33.5 L 470.5 439.5 L 57.5 439.5 L 57.5 33.5"/></clipPath><clipPath id="xOVUbPrmllhu"><path fill="none" stroke="none" d="M 57.5 33.5 L 470.5 33.5 L 470.5 439.5 L 57.5 439.5 L 57.5 33.5"/></clipPath><clipPath id="pdZzoTXrTRHE"><path fill="none" stroke="none" d="M 57.5 33.5 L 470.5 33.5 L 470.5 439.5 L 57.5 439.5 L 57.5 33.5"/></clipPath></defs><path fill="rgb(255,255,255)" stroke="none" paint-order="stroke" d="M 0.5 0.5 L 500.5 0.5 L 500.5 500.5 L 0.5 500.5 L 0.5 0.5" fill-opacity="1"/><rect fill="#FFFFFF" stroke="none" x="57" y="33" width="413" height="406" transform="matrix(1, 0, 0, 1, 0.5, 0.5)"/><path fill="rgb(255,255,255)" stroke="none" paint-order="stroke" d="M 57.5 33.5 L 470.5 33.5 L 470.5 439.5 L 57.5 439.5 L 57.5 33.5" fill-opacity="1"/><path fill="none" stroke="rgb(229,229,229)" paint-order="fill" d="M 57.5 33.5 L 470.5 33.5 L 470.5 439.5 L 57.5 439.5 L 57.5 33.5" stroke-opacity="1" stroke-linejoin="bevel" stroke-miterlimit="10" stroke-dasharray=""/><path fill="none" stroke="rgb(229,229,229)" paint-order="fill" d="M 61.5 439.5 L 61.5 33.5 M 137.5 439.5 L 137.5 33.5 M 212.5 439.5 L 212.5 33.5 M 287.5 439.5 L 287.5 33.5 M 362.5 439.5 L 362.5 33.5 M 437.5 439.5 L 437.5 33.5" stroke-opacity="1" stroke-linejoin="bevel" stroke-miterlimit="10" stroke-dasharray="" clip-path="url(#KCSKeorKPsal)"/><path fill="none" stroke="rgb(229,229,229)" paint-order="fill" d="M 57.5 435.5 L 470.5 435.5 M 57.5 374.5 L 470.5 374.5 M 57.5 313.5 L 470.5 313.5 M 57.5 251.5 L 470.5 251.5 M 57.5 190.5 L 470.5 190.5 M 57.5 129.5 L 470.5 129.5 M 57.5 67.5 L 470.5 67.5" stroke-opacity="1" stroke-linejoin="bevel" stroke-miterlimit="10" stroke-dasharray="" clip-path="url(#nuThTOFksdDb)"/><path fill="none" stroke="none"/><path fill="rgb(0,0,255)" stroke="rgb(0,0,255)" paint-order="fill" d="M 78.7727279663086 226.13504028320312 A 2.5 2.5 0 1 1 78.7727267163087 226.1325402836198" fill-opacity="0.3" clip-path="url(#NaBgqthIdVlH)" stroke-opacity="1" stroke-linejoin="bevel" stroke-miterlimit="10" stroke-dasharray=""/><path fill="rgb(0,0,255)" stroke="rgb(0,0,255)" paint-order="fill" d="M 82.89909362792969 396.6356506347656 A 2.5 2.5 0 1 1 82.89909237792979 396.6331506351823" fill-opacity="0.3" clip-path="url(#NaBgqthIdVlH)" stroke-opacity="1" stroke-linejoin="bevel" stroke-miterlimit="10" stroke-dasharray=""/><path fill="rgb(0,0,255)" stroke="rgb(0,0,255)" paint-order="fill" d="M 89.77387237548828 279.7998046875 A 2.5 2.5 0 1 1 89.77387112548838 279.79730468791666" fill-opacity="0.3" clip-path="url(#NaBgqthIdVlH)" stroke-opacity="1" stroke-linejoin="bevel" stroke-miterlimit="10" stroke-dasharray=""/><path fill="rgb(0,0,255)" stroke="rgb(0,0,255)" paint-order="fill" d="M 92.52679443359375 300.3457336425781 A 2.5 2.5 0 1 1 92.52679318359385 300.3432336429948" fill-opacity="0.3" clip-path="url(#NaBgqthIdVlH)" stroke-opacity="1" stroke-linejoin="bevel" stroke-miterlimit="10" stroke-dasharray=""/><path fill="rgb(0,0,255)" stroke="rgb(0,0,255)" paint-order="fill" d="M 99.40156555175781 75.87369537353516 A 2.5 2.5 0 1 1 99.40156430175792 75.87119537395182" fill-opacity="0.3" clip-path="url(#NaBgqthIdVlH)" stroke-opacity="1" stroke-linejoin="bevel" stroke-miterlimit="10" stroke-dasharray=""/><path fill="rgb(0,0,255)" stroke="rgb(0,0,255)" paint-order="fill" d="M 109.02926635742188 51.95454406738281 A 2.5 2.5 0 1 1 109.02926510742198 51.95204406779948" fill-opacity="0.3" clip-path="url(#NaBgqthIdVlH)" stroke-opacity="1" stroke-linejoin="bevel" stroke-miterlimit="10" stroke-dasharray=""/><path fill="rgb(0,0,255)" stroke="rgb(0,0,255)" paint-order="fill" d="M 118.6569595336914 200.68260192871094 A 2.5 2.5 0 1 1 118.65695828369151 200.6801019291276" fill-opacity="0.3" clip-path="url(#NaBgqthIdVlH)" stroke-opacity="1" stroke-linejoin="bevel" stroke-miterlimit="10" stroke-dasharray=""/><path fill="rgb(0,0,255)" stroke="rgb(0,0,255)" paint-order="fill" d="M 125.53173828125 341.1922912597656 A 2.5 2.5 0 1 1 125.5317370312501 341.1897912601823" fill-opacity="0.3" clip-path="url(#NaBgqthIdVlH)" stroke-opacity="1" stroke-linejoin="bevel" stroke-miterlimit="10" stroke-dasharray=""/><path fill="rgb(0,0,255)" stroke="rgb(0,0,255)" paint-order="fill" d="M 135.159423828125 324.1422119140625 A 2.5 2.5 0 1 1 135.15942257812512 324.13971191447916" fill-opacity="0.3" clip-path="url(#NaBgqthIdVlH)" stroke-opacity="1" stroke-linejoin="bevel" stroke-miterlimit="10" stroke-dasharray=""/><path fill="rgb(0,0,255)" stroke="rgb(0,0,255)" paint-order="fill" d="M 144.78712463378906 283.90899658203125 A 2.5 2.5 0 1 1 144.78712338378918 283.9064965824479" fill-opacity="0.3" clip-path="url(#NaBgqthIdVlH)" stroke-opacity="1" stroke-linejoin="bevel" stroke-miterlimit="10" stroke-dasharray=""/><path fill="rgb(0,0,255)" stroke="rgb(0,0,255)" paint-order="fill" d="M 151.66189575195312 377.16302490234375 A 2.5 2.5 0 1 1 151.66189450195324 377.1605249027604" fill-opacity="0.3" clip-path="url(#NaBgqthIdVlH)" stroke-opacity="1" stroke-linejoin="bevel" stroke-miterlimit="10" stroke-dasharray=""/><path fill="rgb(0,0,255)" stroke="rgb(0,0,255)" paint-order="fill" d="M 154.41482543945312 264.6510009765625 A 2.5 2.5 0 1 1 154.41482418945324 264.64850097697916" fill-opacity="0.3" clip-path="url(#NaBgqthIdVlH)" stroke-opacity="1" stroke-linejoin="bevel" stroke-miterlimit="10" stroke-dasharray=""/><path fill="rgb(0,0,255)" stroke="rgb(0,0,255)" paint-order="fill" d="M 161.2895965576172 421.0454406738281 A 2.5 2.5 0 1 1 161.2895953076173 421.0429406742448" fill-opacity="0.3" clip-path="url(#NaBgqthIdVlH)" stroke-opacity="1" stroke-linejoin="bevel" stroke-miterlimit="10" stroke-dasharray=""/><path fill="rgb(0,0,255)" stroke="rgb(0,0,255)" paint-order="fill" d="M 170.91729736328125 328.68072509765625 A 2.5 2.5 0 1 1 170.91729611328137 328.6782250980729" fill-opacity="0.3" clip-path="url(#NaBgqthIdVlH)" stroke-opacity="1" stroke-linejoin="bevel" stroke-miterlimit="10" stroke-dasharray=""/><path fill="rgb(0,0,255)" stroke="rgb(0,0,255)" paint-order="fill" d="M 177.7920684814453 258.45654296875 A 2.5 2.5 0 1 1 177.79206723144543 258.45404296916666" fill-opacity="0.3" clip-path="url(#NaBgqthIdVlH)" stroke-opacity="1" stroke-linejoin="bevel" stroke-miterlimit="10" stroke-dasharray=""/><path fill="rgb(0,0,255)" stroke="rgb(0,0,255)" paint-order="fill" d="M 180.54498291015625 278.3585205078125 A 2.5 2.5 0 1 1 180.54498166015637 278.35602050822916" fill-opacity="0.3" clip-path="url(#NaBgqthIdVlH)" stroke-opacity="1" stroke-linejoin="bevel" stroke-miterlimit="10" stroke-dasharray=""/><path fill="rgb(0,0,255)" stroke="rgb(0,0,255)" paint-order="fill" d="M 187.41976928710938 183.7552032470703 A 2.5 2.5 0 1 1 187.4197680371095 183.75270324748698" fill-opacity="0.3" clip-path="url(#NaBgqthIdVlH)" stroke-opacity="1" stroke-linejoin="bevel" stroke-miterlimit="10" stroke-dasharray=""/><path fill="rgb(0,0,255)" stroke="rgb(0,0,255)" paint-order="fill" d="M 197.04745483398438 135.70223999023438 A 2.5 2.5 0 1 1 197.0474535839845 135.69973999065104" fill-opacity="0.3" clip-path="url(#NaBgqthIdVlH)" stroke-opacity="1" stroke-linejoin="bevel" stroke-miterlimit="10" stroke-dasharray=""/><path fill="rgb(0,0,255)" stroke="rgb(0,0,255)" paint-order="fill" d="M 206.67515563964844 175.50616455078125 A 2.5 2.5 0 1 1 206.67515438964855 175.50366455119791" fill-opacity="0.3" clip-path="url(#NaBgqthIdVlH)" stroke-opacity="1" stroke-linejoin="bevel" stroke-miterlimit="10" stroke-dasharray=""/><path fill="rgb(0,0,255)" stroke="rgb(0,0,255)" paint-order="fill" d="M 213.5499267578125 204.23980712890625 A 2.5 2.5 0 1 1 213.54992550781262 204.23730712932291" fill-opacity="0.3" clip-path="url(#NaBgqthIdVlH)" stroke-opacity="1" stroke-linejoin="bevel" stroke-miterlimit="10" stroke-dasharray=""/><path fill="rgb(0,0,255)" stroke="rgb(0,0,255)" paint-order="fill" d="M 444.5995788574219 168.87013244628906 A 2.5 2.5 0 1 1 444.59957760742196 168.86763244670573" fill-opacity="0.3" clip-path="url(#NaBgqthIdVlH)" stroke-opacity="1" stroke-linejoin="bevel" stroke-miterlimit="10" stroke-dasharray=""/><path fill="rgb(0,0,255)" stroke="rgb(0,0,255)" paint-order="fill" d="M 454.2272644042969 172.31387329101562 A 2.5 2.5 0 1 1 454.22726315429696 172.3113732914323" fill-opacity="0.3" clip-path="url(#NaBgqthIdVlH)" stroke-opacity="1" stroke-linejoin="bevel" stroke-miterlimit="10" stroke-dasharray=""/><path fill="none" stroke="rgb(0,0,0)" paint-order="fill" d="M 57.5 439.5 L 470.5 439.5" stroke-opacity="1" stroke-linejoin="bevel" stroke-miterlimit="10" stroke-dasharray=""/><path fill="none" stroke="rgb(0,0,0)" paint-order="fill" d="M 61.5 445.5 L 61.5 437.5 M 137.5 445.5 L 137.5 437.5 M 212.5 445.5 L 212.5 437.5 M 287.5 445.5 L 287.5 437.5 M 362.5 445.5 L 362.5 437.5 M 437.5 445.5 L 437.5 437.5" stroke-opacity="1" stroke-linejoin="bevel" stroke-miterlimit="10" stroke-dasharray=""/><path fill="none" stroke="rgb(0,0,0)" paint-order="fill" d="M 61.5 443.5 L 61.5 439.5 M 76.5 443.5 L 76.5 439.5 M 91.5 443.5 L 91.5 439.5 M 106.5 443.5 L 106.5 439.5 M 121.5 443.5 L 121.5 439.5 M 137.5 443.5 L 137.5 439.5 M 152.5 443.5 L 152.5 439.5 M 167.5 443.5 L 167.5 439.5 M 182.5 443.5 L 182.5 439.5 M 197.5 443.5 L 197.5 439.5 M 212.5 443.5 L 212.5 439.5 M 227.5 443.5 L 227.5 439.5 M 242.5 443.5 L 242.5 439.5 M 257.5 443.5 L 257.5 439.5 M 272.5 443.5 L 272.5 439.5 M 287.5 443.5 L 287.5 439.5 M 302.5 443.5 L 302.5 439.5 M 317.5 443.5 L 317.5 439.5 M 332.5 443.5 L 332.5 439.5 M 347.5 443.5 L 347.5 439.5 M 362.5 443.5 L 362.5 439.5 M 377.5 443.5 L 377.5 439.5 M 392.5 443.5 L 392.5 439.5 M 407.5 443.5 L 407.5 439.5 M 422.5 443.5 L 422.5 439.5 M 437.5 443.5 L 437.5 439.5 M 452.5 443.5 L 452.5 439.5 M 467.5 443.5 L 467.5 439.5" stroke-opacity="1" stroke-linejoin="bevel" stroke-miterlimit="10" stroke-dasharray=""/><text fill="rgb(68,68,68)" stroke="none" font-family="helvetica" font-size="14pt" font-style="normal" font-weight="normal" text-decoration="normal" x="0" y="0" text-anchor="middle" dominant-baseline="hanging" transform="matrix(1, 0, 0, 1, 61.5, 450.5)" fill-opacity="1">0</text><text fill="rgb(68,68,68)" stroke="none" font-family="helvetica" font-size="14pt" font-style="normal" font-weight="normal" text-decoration="normal" x="0" y="0" text-anchor="middle" dominant-baseline="hanging" transform="matrix(1, 0, 0, 1, 137.5, 450.5)" fill-opacity="1">0.5</text><text fill="rgb(68,68,68)" stroke="none" font-family="helvetica" font-size="14pt" font-style="normal" font-weight="normal" text-decoration="normal" x="0" y="0" text-anchor="middle" dominant-baseline="hanging" transform="matrix(1, 0, 0, 1, 212.5, 450.5)" fill-opacity="1">1</text><text fill="rgb(68,68,68)" stroke="none" font-family="helvetica" font-size="14pt" font-style="normal" font-weight="normal" text-decoration="normal" x="0" y="0" text-anchor="middle" dominant-baseline="hanging" transform="matrix(1, 0, 0, 1, 287.5, 450.5)" fill-opacity="1">1.5</text><text fill="rgb(68,68,68)" stroke="none" font-family="helvetica" font-size="14pt" font-style="normal" font-weight="normal" text-decoration="normal" x="0" y="0" text-anchor="middle" dominant-baseline="hanging" transform="matrix(1, 0, 0, 1, 362.5, 450.5)" fill-opacity="1">2</text><text fill="rgb(68,68,68)" stroke="none" font-family="helvetica" font-size="14pt" font-style="normal" font-weight="normal" text-decoration="normal" x="0" y="0" text-anchor="middle" dominant-baseline="hanging" transform="matrix(1, 0, 0, 1, 437.5, 450.5)" fill-opacity="1">2.5</text><text fill="rgb(68,68,68)" stroke="none" font-family="helvetica" font-size="14pt" font-style="italic" font-weight="normal" text-decoration="normal" x="0" y="0" text-anchor="middle" dominant-baseline="hanging" transform="matrix(1, 0, 0, 1, 264.5, 477.5)" fill-opacity="1">q² [nm ²]</text><path fill="none" stroke="rgb(0,0,0)" paint-order="fill" d="M 57.5 439.5 L 57.5 33.5" stroke-opacity="1" stroke-linejoin="bevel" stroke-miterlimit="10" stroke-dasharray=""/><path fill="none" stroke="rgb(0,0,0)" paint-order="fill" d="M 51.5 435.5 L 59.5 435.5 M 51.5 374.5 L 59.5 374.5 M 51.5 313.5 L 59.5 313.5 M 51.5 251.5 L 59.5 251.5 M 51.5 190.5 L 59.5 190.5 M 51.5 129.5 L 59.5 129.5 M 51.5 67.5 L 59.5 67.5" stroke-opacity="1" stroke-linejoin="bevel" stroke-miterlimit="10" stroke-dasharray=""/><path fill="none" stroke="rgb(0,0,0)" paint-order="fill" d="M 53.5 435.5 L 57.5 435.5 M 53.5 423.5 L 57.5 423.5 M 53.5 411.5 L 57.5 411.5 M 53.5 399.5 L 57.5 399.5 M 53.5 386.5 L 57.5 386.5 M 53.5 374.5 L 57.5 374.5 M 53.5 362.5 L 57.5 362.5 M 53.5 350.5 L 57.5 350.5 M 53.5 337.5 L 57.5 337.5 M 53.5 325.5 L 57.5 325.5 M 53.5 313.5 L 57.5 313.5 M 53.5 300.5 L 57.5 300.5 M 53.5 288.5 L 57.5 288.5 M 53.5 276.5 L 57.5 276.5 M 53.5 264.5 L 57.5 264.5 M 53.5 251.5 L 57.5 251.5 M 53.5 239.5 L 57.5 239.5 M 53.5 227.5 L 57.5 227.5 M 53.5 215.5 L 57.5 215.5 M 53.5 202.5 L 57.5 202.5 M 53.5 190.5 L 57.5 190.5 M 53.5 178.5 L 57.5 178.5 M 53.5 166.5 L 57.5 166.5 M 53.5 153.5 L 57.5 153.5 M 53.5 141.5 L 57.5 141.5 M 53.5 129.5 L 57.5 129.5 M 53.5 116.5 L 57.5 116.5 M 53.5 104.5 L 57.5 104.5 M 53.5 92.5 L 57.5 92.5 M 53.5 80.5 L 57.5 80.5 M 53.5 67.5 L 57.5 67.5 M 53.5 55.5 L 57.5 55.5 M 53.5 43.5 L 57.5 43.5" stroke-opacity="1" stroke-linejoin="bevel" stroke-miterlimit="10" stroke-dasharray=""/><text fill="rgb(68,68,68)" stroke="none" font-family="helvetica" font-size="14pt" font-style="normal" font-weight="normal" text-decoration="normal" x="0" y="0" text-anchor="end" dominant-baseline="central" transform="matrix(1, 0, 0, 1, 46.5, 435.5)" fill-opacity="1">-8</text><text fill="rgb(68,68,68)" stroke="none" font-family="helvetica" font-size="14pt" font-style="normal" font-weight="normal" text-decoration="normal" x="0" y="0" text-anchor="end" dominant-baseline="central" transform="matrix(1, 0, 0, 1, 46.5, 374.5)" fill-opacity="1">-6</text><text fill="rgb(68,68,68)" stroke="none" font-family="helvetica" font-size="14pt" font-style="normal" font-weight="normal" text-decoration="normal" x="0" y="0" text-anchor="end" dominant-baseline="central" transform="matrix(1, 0, 0, 1, 46.5, 313.5)" fill-opacity="1">-4</text><text fill="rgb(68,68,68)" stroke="none" font-family="helvetica" font-size="14pt" font-style="normal" font-weight="normal" text-decoration="normal" x="0" y="0" text-anchor="end" dominant-baseline="central" transform="matrix(1, 0, 0, 1, 46.5, 251.5)" fill-opacity="1">-2</text><text fill="rgb(68,68,68)" stroke="none" font-family="helvetica" font-size="14pt" font-style="normal" font-weight="normal" text-decoration="normal" x="0" y="0" text-anchor="end" dominant-baseline="central" transform="matrix(1, 0, 0, 1, 46.5, 190.5)" fill-opacity="1">0</text><text fill="rgb(68,68,68)" stroke="none" font-family="helvetica" font-size="14pt" font-style="normal" font-weight="normal" text-decoration="normal" x="0" y="0" text-anchor="end" dominant-baseline="central" transform="matrix(1, 0, 0, 1, 46.5, 129.5)" fill-opacity="1">2</text><text fill="rgb(68,68,68)" stroke="none" font-family="helvetica" font-size="14pt" font-style="normal" font-weight="normal" text-decoration="normal" x="0" y="0" text-anchor="end" dominant-baseline="central" transform="matrix(1, 0, 0, 1, 46.5, 67.5)" fill-opacity="1">4</text><text fill="rgb(68,68,68)" stroke="none" font-family="helvetica" font-size="14pt" font-style="italic" font-weight="normal" text-decoration="normal" x="0" y="0" text-anchor="middle" dominant-baseline="alphabetic" transform="matrix(6.123233995736766e-17, -1, 1, 6.123233995736766e-17, 23.5, 236.5)" fill-opacity="1">R</text><path fill="none" stroke="rgb(255,0,0)" paint-order="fill" d="M 57.5 190.56296262726977 L 470.5 190.56296262726977" stroke-opacity="1" stroke-linejoin="bevel" stroke-miterlimit="10" stroke-width="3" stroke-dasharray="" clip-path="url(#xOVUbPrmllhu)"/><path fill="none" stroke="none"/><text fill="rgb(68,68,68)" stroke="none" font-family="helvetica" font-size="12pt" font-style="normal" font-weight="bold" text-decoration="normal" x="0" y="0" text-anchor="middle" dominant-baseline="text-before-edge" transform="matrix(1, 0, 0, 1, 264, 5.5)" fill-opacity="1">Residuals for P(r) fit (SASDBY9)</text></svg>