<svg version="1.1" xmlns="http://www.w3.org/2000/svg" xmlns:xlink="http://www.w3.org/1999/xlink" width="500" height="500" style="width: 500px; height: 500px;"><defs><clipPath id="VzNfQyNZDPdb"><path fill="none" stroke="none" d=" M 57 33 L 470 33 L 470 439 L 57 439 L 57 33 Z"/></clipPath><clipPath id="nIHBddXBPhMI"><path fill="none" stroke="none" d=" M 57 33 L 470 33 L 470 439 L 57 439 L 57 33 Z"/></clipPath><clipPath id="UfvHNmIMZhye"><path fill="none" stroke="none" d=" M 57 33 L 470 33 L 470 439 L 57 439 L 57 33 Z"/></clipPath><clipPath id="rKlkMcbTICWM"><path fill="none" stroke="none" d=" M 57 33 L 470 33 L 470 439 L 57 439 L 57 33 Z"/></clipPath><clipPath id="NriQpoczDVIb"><path fill="none" stroke="none" d=" M 57 33 L 470 33 L 470 439 L 57 439 L 57 33 Z"/></clipPath><clipPath id="bLLuZMRENfWU"><path fill="none" stroke="none" d=" M 57 33 L 470 33 L 470 439 L 57 439 L 57 33 Z"/></clipPath><clipPath id="xFqguLArMioF"><path fill="none" stroke="none" d=" M 57 33 L 470 33 L 470 439 L 57 439 L 57 33 Z"/></clipPath><clipPath id="qRLHqRbkPFeo"><path fill="none" stroke="none" d=" M 57 33 L 470 33 L 470 439 L 57 439 L 57 33 Z"/></clipPath><clipPath id="owKRzaTEsxom"><path fill="none" stroke="none" d=" M 57 33 L 470 33 L 470 439 L 57 439 L 57 33 Z"/></clipPath><clipPath id="RTwxIDZAixNP"><path fill="none" stroke="none" d=" M 57 33 L 470 33 L 470 439 L 57 439 L 57 33 Z"/></clipPath></defs><g transform="scale(1,1) translate(0.5,0.5) scale(1,1) translate(0.5,0.5)"><rect fill="#ffffff" stroke="none" x="0" y="0" width="500" height="500"/><rect fill="#FFFFFF" stroke="none" x="57" y="33" width="413" height="406"/><rect fill="#ffffff" stroke="none" x="57" y="33" width="413" height="406"/><g><rect fill="none" stroke="#e5e5e5" x="57" y="33" width="413" height="406" stroke-linejoin="bevel" stroke-miterlimit="10"/></g><g clip-path="url(#bLLuZMRENfWU)"><g><g><path fill="none" stroke="#e5e5e5" paint-order="fill stroke markers" d=" M 70 439 L 70 33" stroke-linejoin="bevel" stroke-miterlimit="10"/><path fill="none" stroke="#e5e5e5" paint-order="fill stroke markers" d=" M 142 439 L 142 33" stroke-linejoin="bevel" stroke-miterlimit="10"/><path fill="none" stroke="#e5e5e5" paint-order="fill stroke markers" d=" M 214 439 L 214 33" stroke-linejoin="bevel" stroke-miterlimit="10"/><path fill="none" stroke="#e5e5e5" paint-order="fill stroke markers" d=" M 286 439 L 286 33" stroke-linejoin="bevel" stroke-miterlimit="10"/><path fill="none" stroke="#e5e5e5" paint-order="fill stroke markers" d=" M 358 439 L 358 33" stroke-linejoin="bevel" stroke-miterlimit="10"/><path fill="none" stroke="#e5e5e5" paint-order="fill stroke markers" d=" M 430 439 L 430 33" stroke-linejoin="bevel" stroke-miterlimit="10"/></g></g></g><g clip-path="url(#xFqguLArMioF)"><g><g><path fill="none" stroke="#e5e5e5" paint-order="fill stroke markers" d=" M 57 421 L 470 421" stroke-linejoin="bevel" stroke-miterlimit="10"/><path fill="none" stroke="#e5e5e5" paint-order="fill stroke markers" d=" M 57 331 L 470 331" stroke-linejoin="bevel" stroke-miterlimit="10"/><path fill="none" stroke="#e5e5e5" paint-order="fill stroke markers" d=" M 57 242 L 470 242" stroke-linejoin="bevel" stroke-miterlimit="10"/><path fill="none" stroke="#e5e5e5" paint-order="fill stroke markers" d=" M 57 153 L 470 153" stroke-linejoin="bevel" stroke-miterlimit="10"/><path fill="none" stroke="#e5e5e5" paint-order="fill stroke markers" d=" M 57 64 L 470 64" stroke-linejoin="bevel" stroke-miterlimit="10"/></g></g></g><g clip-path="url(#qRLHqRbkPFeo)"><g><g><path fill="none" stroke="none"/><path fill="blue" stroke="blue" paint-order="fill stroke markers" d=" M 78.27272727272728 420.5454545454545 A 2.5 2.5 0 1 1 78.27272602272738 420.54295454587117" fill-opacity="0.3" stroke-linejoin="bevel" stroke-miterlimit="10"/><path fill="blue" stroke="blue" paint-order="fill stroke markers" d=" M 81.14977359804946 418.2413636003033 A 2.5 2.5 0 1 1 81.14977234804957 418.23886360072" fill-opacity="0.3" stroke-linejoin="bevel" stroke-miterlimit="10"/><path fill="blue" stroke="blue" paint-order="fill stroke markers" d=" M 84.02681992337165 415.05214821806675 A 2.5 2.5 0 1 1 84.02681867337175 415.0496482184834" fill-opacity="0.3" stroke-linejoin="bevel" stroke-miterlimit="10"/><path fill="blue" stroke="blue" paint-order="fill stroke markers" d=" M 86.90386624869383 410.99476993611694 A 2.5 2.5 0 1 1 86.90386499869393 410.9922699365336" fill-opacity="0.3" stroke-linejoin="bevel" stroke-miterlimit="10"/><path fill="blue" stroke="blue" paint-order="fill stroke markers" d=" M 89.78091257401603 406.0955637730059 A 2.5 2.5 0 1 1 89.78091132401613 406.09306377342256" fill-opacity="0.3" stroke-linejoin="bevel" stroke-miterlimit="10"/><path fill="blue" stroke="blue" paint-order="fill stroke markers" d=" M 92.65795889933821 400.4005044221371 A 2.5 2.5 0 1 1 92.65795764933831 400.39800442255375" fill-opacity="0.3" stroke-linejoin="bevel" stroke-miterlimit="10"/><path fill="blue" stroke="blue" paint-order="fill stroke markers" d=" M 95.5350052246604 393.96270827686084 A 2.5 2.5 0 1 1 95.5350039746605 393.9602082772775" fill-opacity="0.3" stroke-linejoin="bevel" stroke-miterlimit="10"/><path fill="blue" stroke="blue" paint-order="fill stroke markers" d=" M 98.41205154998258 386.8397552929936 A 2.5 2.5 0 1 1 98.41205029998268 386.83725529341024" fill-opacity="0.3" stroke-linejoin="bevel" stroke-miterlimit="10"/><path fill="blue" stroke="blue" paint-order="fill stroke markers" d=" M 101.28909787530478 379.09056449509154 A 2.5 2.5 0 1 1 101.28909662530488 379.0880644955082" fill-opacity="0.3" stroke-linejoin="bevel" stroke-miterlimit="10"/><path fill="blue" stroke="blue" paint-order="fill stroke markers" d=" M 104.16614420062696 370.77807211393093 A 2.5 2.5 0 1 1 104.16614295062706 370.7755721143476" fill-opacity="0.3" stroke-linejoin="bevel" stroke-miterlimit="10"/><path fill="blue" stroke="blue" paint-order="fill stroke markers" d=" M 107.04319052594914 361.97101701149415 A 2.5 2.5 0 1 1 107.04318927594925 361.9685170119108" fill-opacity="0.3" stroke-linejoin="bevel" stroke-miterlimit="10"/><path fill="blue" stroke="blue" paint-order="fill stroke markers" d=" M 109.92023685127134 352.7381380497637 A 2.5 2.5 0 1 1 109.92023560127144 352.73563805018034" fill-opacity="0.3" stroke-linejoin="bevel" stroke-miterlimit="10"/><path fill="blue" stroke="blue" paint-order="fill stroke markers" d=" M 112.79728317659352 343.1481740907218 A 2.5 2.5 0 1 1 112.79728192659363 343.14567409113846" fill-opacity="0.3" stroke-linejoin="bevel" stroke-miterlimit="10"/><path fill="blue" stroke="blue" paint-order="fill stroke markers" d=" M 114.23580633925462 51.454545454545524 A 2.5 2.5 0 1 1 114.23580508925473 51.45204545496219" fill-opacity="0.3" stroke-linejoin="bevel" stroke-miterlimit="10"/><path fill="blue" stroke="blue" paint-order="fill stroke markers" d=" M 115.67432950191571 53.13284494190869 A 2.5 2.5 0 1 1 115.67432825191581 53.13034494232535" fill-opacity="0.3" stroke-linejoin="bevel" stroke-miterlimit="10"/><path fill="blue" stroke="blue" paint-order="fill stroke markers" d=" M 117.1128526645768 57.924032893333155 A 2.5 2.5 0 1 1 117.11285141457691 57.92153289374982" fill-opacity="0.3" stroke-linejoin="bevel" stroke-miterlimit="10"/><path fill="blue" stroke="blue" paint-order="fill stroke markers" d=" M 118.5513758272379 59.632684605467816 A 2.5 2.5 0 1 1 118.55137457723801 59.63018460588448" fill-opacity="0.3" stroke-linejoin="bevel" stroke-miterlimit="10"/><path fill="blue" stroke="blue" paint-order="fill stroke markers" d=" M 119.98989898989899 57.59774647703993 A 2.5 2.5 0 1 1 119.98989773989909 57.59524647745659" fill-opacity="0.3" stroke-linejoin="bevel" stroke-miterlimit="10"/><path fill="blue" stroke="blue" paint-order="fill stroke markers" d=" M 121.42842215256009 57.54195194621005 A 2.5 2.5 0 1 1 121.42842090256019 57.53945194662671" fill-opacity="0.3" stroke-linejoin="bevel" stroke-miterlimit="10"/><path fill="blue" stroke="blue" paint-order="fill stroke markers" d=" M 122.86694531522119 58.53554095122873 A 2.5 2.5 0 1 1 122.86694406522129 58.5330409516454" fill-opacity="0.3" stroke-linejoin="bevel" stroke-miterlimit="10"/><path fill="blue" stroke="blue" paint-order="fill stroke markers" d=" M 124.30546847788227 58.3547666713399 A 2.5 2.5 0 1 1 124.30546722788237 58.35226667175657" fill-opacity="0.3" stroke-linejoin="bevel" stroke-miterlimit="10"/><path fill="blue" stroke="blue" paint-order="fill stroke markers" d=" M 125.74399164054336 59.462622875498205 A 2.5 2.5 0 1 1 125.74399039054346 59.46012287591487" fill-opacity="0.3" stroke-linejoin="bevel" stroke-miterlimit="10"/><path fill="blue" stroke="blue" paint-order="fill stroke markers" d=" M 127.18251480320446 59.18766742756852 A 2.5 2.5 0 1 1 127.18251355320456 59.185167427985185" fill-opacity="0.3" stroke-linejoin="bevel" stroke-miterlimit="10"/><path fill="blue" stroke="blue" paint-order="fill stroke markers" d=" M 128.62103796586555 62.17914699254402 A 2.5 2.5 0 1 1 128.62103671586567 62.176646992960684" fill-opacity="0.3" stroke-linejoin="bevel" stroke-miterlimit="10"/><path fill="blue" stroke="blue" paint-order="fill stroke markers" d=" M 130.05956112852664 64.91798892192173 A 2.5 2.5 0 1 1 130.05955987852676 64.9154889223384" fill-opacity="0.3" stroke-linejoin="bevel" stroke-miterlimit="10"/><path fill="blue" stroke="blue" paint-order="fill stroke markers" d=" M 131.49808429118775 64.19623087110627 A 2.5 2.5 0 1 1 131.49808304118787 64.19373087152293" fill-opacity="0.3" stroke-linejoin="bevel" stroke-miterlimit="10"/><path fill="blue" stroke="blue" paint-order="fill stroke markers" d=" M 132.93660745384884 64.97512252149153 A 2.5 2.5 0 1 1 132.93660620384895 64.97262252190819" fill-opacity="0.3" stroke-linejoin="bevel" stroke-miterlimit="10"/><path fill="blue" stroke="blue" paint-order="fill stroke markers" d=" M 134.37513061650992 67.61889057033514 A 2.5 2.5 0 1 1 134.37512936651004 67.6163905707518" fill-opacity="0.3" stroke-linejoin="bevel" stroke-miterlimit="10"/><path fill="blue" stroke="blue" paint-order="fill stroke markers" d=" M 135.81365377917103 70.21355943204844 A 2.5 2.5 0 1 1 135.81365252917115 70.2110594324651" fill-opacity="0.3" stroke-linejoin="bevel" stroke-miterlimit="10"/><path fill="blue" stroke="blue" paint-order="fill stroke markers" d=" M 137.25217694183212 68.07819114812682 A 2.5 2.5 0 1 1 137.25217569183224 68.07569114854348" fill-opacity="0.3" stroke-linejoin="bevel" stroke-miterlimit="10"/><path fill="blue" stroke="blue" paint-order="fill stroke markers" d=" M 138.6907001044932 69.16372953995318 A 2.5 2.5 0 1 1 138.69069885449332 69.16122954036985" fill-opacity="0.3" stroke-linejoin="bevel" stroke-miterlimit="10"/><path fill="blue" stroke="blue" paint-order="fill stroke markers" d=" M 140.12922326715432 64.1007106343255 A 2.5 2.5 0 1 1 140.12922201715443 64.09821063474216" fill-opacity="0.3" stroke-linejoin="bevel" stroke-miterlimit="10"/><path fill="blue" stroke="blue" paint-order="fill stroke markers" d=" M 141.5677464298154 68.4718773576625 A 2.5 2.5 0 1 1 141.56774517981552 68.46937735807917" fill-opacity="0.3" stroke-linejoin="bevel" stroke-miterlimit="10"/><path fill="blue" stroke="blue" paint-order="fill stroke markers" d=" M 143.00626959247649 68.93564149792057 A 2.5 2.5 0 1 1 143.0062683424766 68.93314149833724" fill-opacity="0.3" stroke-linejoin="bevel" stroke-miterlimit="10"/><path fill="blue" stroke="blue" paint-order="fill stroke markers" d=" M 144.80442354580288 66.60967909668408 A 2.5 2.5 0 1 1 144.804422295803 66.60717909710074" fill-opacity="0.3" stroke-linejoin="bevel" stroke-miterlimit="10"/><path fill="blue" stroke="blue" paint-order="fill stroke markers" d=" M 147.32183908045977 67.8496567498476 A 2.5 2.5 0 1 1 147.32183783045988 67.84715675026426" fill-opacity="0.3" stroke-linejoin="bevel" stroke-miterlimit="10"/><path fill="blue" stroke="blue" paint-order="fill stroke markers" d=" M 150.19888540578194 67.21449181088012 A 2.5 2.5 0 1 1 150.19888415578205 67.21199181129678" fill-opacity="0.3" stroke-linejoin="bevel" stroke-miterlimit="10"/><path fill="blue" stroke="blue" paint-order="fill stroke markers" d=" M 153.07593173110416 66.86811936348813 A 2.5 2.5 0 1 1 153.07593048110428 66.8656193639048" fill-opacity="0.3" stroke-linejoin="bevel" stroke-miterlimit="10"/><path fill="blue" stroke="blue" paint-order="fill stroke markers" d=" M 155.95297805642633 67.31670739136047 A 2.5 2.5 0 1 1 155.95297680642645 67.31420739177713" fill-opacity="0.3" stroke-linejoin="bevel" stroke-miterlimit="10"/><path fill="blue" stroke="blue" paint-order="fill stroke markers" d=" M 158.8300243817485 62.90313682459268 A 2.5 2.5 0 1 1 158.83002313174862 62.90063682500934" fill-opacity="0.3" stroke-linejoin="bevel" stroke-miterlimit="10"/><path fill="blue" stroke="blue" paint-order="fill stroke markers" d=" M 161.70707070707073 66.62173071534332 A 2.5 2.5 0 1 1 161.70706945707084 66.61923071575998" fill-opacity="0.3" stroke-linejoin="bevel" stroke-miterlimit="10"/><path fill="blue" stroke="blue" paint-order="fill stroke markers" d=" M 164.5841170323929 65.48575406764671 A 2.5 2.5 0 1 1 164.584115782393 65.48325406806337" fill-opacity="0.3" stroke-linejoin="bevel" stroke-miterlimit="10"/><path fill="blue" stroke="blue" paint-order="fill stroke markers" d=" M 167.4611633577151 64.40244745705354 A 2.5 2.5 0 1 1 167.4611621077152 64.3999474574702" fill-opacity="0.3" stroke-linejoin="bevel" stroke-miterlimit="10"/><path fill="blue" stroke="blue" paint-order="fill stroke markers" d=" M 170.3382096830373 66.04637751342548 A 2.5 2.5 0 1 1 170.3382084330374 66.04387751384215" fill-opacity="0.3" stroke-linejoin="bevel" stroke-miterlimit="10"/><path fill="blue" stroke="blue" paint-order="fill stroke markers" d=" M 173.21525600835946 63.89449404837819 A 2.5 2.5 0 1 1 173.21525475835958 63.89199404879486" fill-opacity="0.3" stroke-linejoin="bevel" stroke-miterlimit="10"/><path fill="blue" stroke="blue" paint-order="fill stroke markers" d=" M 176.09230233368163 67.93714257418884 A 2.5 2.5 0 1 1 176.09230108368175 67.9346425746055" fill-opacity="0.3" stroke-linejoin="bevel" stroke-miterlimit="10"/><path fill="blue" stroke="blue" paint-order="fill stroke markers" d=" M 178.96934865900383 61.913565025793716 A 2.5 2.5 0 1 1 178.96934740900394 61.91106502621038" fill-opacity="0.3" stroke-linejoin="bevel" stroke-miterlimit="10"/><path fill="blue" stroke="blue" paint-order="fill stroke markers" d=" M 181.84639498432603 65.6281417103246 A 2.5 2.5 0 1 1 181.84639373432614 65.62564171074126" fill-opacity="0.3" stroke-linejoin="bevel" stroke-miterlimit="10"/><path fill="blue" stroke="blue" paint-order="fill stroke markers" d=" M 184.7234413096482 66.07762245069021 A 2.5 2.5 0 1 1 184.7234400596483 66.07512245110688" fill-opacity="0.3" stroke-linejoin="bevel" stroke-miterlimit="10"/><path fill="blue" stroke="blue" paint-order="fill stroke markers" d=" M 187.6004876349704 65.21258404470358 A 2.5 2.5 0 1 1 187.6004863849705 65.21008404512024" fill-opacity="0.3" stroke-linejoin="bevel" stroke-miterlimit="10"/><path fill="blue" stroke="blue" paint-order="fill stroke markers" d=" M 190.4775339602926 62.92991819939105 A 2.5 2.5 0 1 1 190.4775327102927 62.92741819980771" fill-opacity="0.3" stroke-linejoin="bevel" stroke-miterlimit="10"/><path fill="blue" stroke="blue" paint-order="fill stroke markers" d=" M 193.35458028561476 59.88130503484574 A 2.5 2.5 0 1 1 193.35457903561488 59.8788050352624" fill-opacity="0.3" stroke-linejoin="bevel" stroke-miterlimit="10"/><path fill="blue" stroke="blue" paint-order="fill stroke markers" d=" M 196.23162661093693 62.70049108861851 A 2.5 2.5 0 1 1 196.23162536093704 62.69799108903518" fill-opacity="0.3" stroke-linejoin="bevel" stroke-miterlimit="10"/><path fill="blue" stroke="blue" paint-order="fill stroke markers" d=" M 199.10867293625915 62.04345469356572 A 2.5 2.5 0 1 1 199.10867168625927 62.040954693982385" fill-opacity="0.3" stroke-linejoin="bevel" stroke-miterlimit="10"/><path fill="blue" stroke="blue" paint-order="fill stroke markers" d=" M 201.98571926158132 62.18003970503729 A 2.5 2.5 0 1 1 201.98571801158144 62.17753970545395" fill-opacity="0.3" stroke-linejoin="bevel" stroke-miterlimit="10"/><path fill="blue" stroke="blue" paint-order="fill stroke markers" d=" M 204.8627655869035 61.80242232038058 A 2.5 2.5 0 1 1 204.8627643369036 61.79992232079724" fill-opacity="0.3" stroke-linejoin="bevel" stroke-miterlimit="10"/><path fill="blue" stroke="blue" paint-order="fill stroke markers" d=" M 207.73981191222572 59.68937184879091 A 2.5 2.5 0 1 1 207.73981066222584 59.68687184920758" fill-opacity="0.3" stroke-linejoin="bevel" stroke-miterlimit="10"/><path fill="blue" stroke="blue" paint-order="fill stroke markers" d=" M 210.6168582375479 60.73696995965296 A 2.5 2.5 0 1 1 210.616856987548 60.734469960069625" fill-opacity="0.3" stroke-linejoin="bevel" stroke-miterlimit="10"/><path fill="blue" stroke="blue" paint-order="fill stroke markers" d=" M 213.4939045628701 61.58415411577405 A 2.5 2.5 0 1 1 213.49390331287023 61.58165411619071" fill-opacity="0.3" stroke-linejoin="bevel" stroke-miterlimit="10"/><path fill="blue" stroke="blue" paint-order="fill stroke markers" d=" M 217.52176941832113 60.707064091128146 A 2.5 2.5 0 1 1 217.52176816832124 60.70456409154481" fill-opacity="0.3" stroke-linejoin="bevel" stroke-miterlimit="10"/><path fill="blue" stroke="blue" paint-order="fill stroke markers" d=" M 223.56356670149773 63.78111956173187 A 2.5 2.5 0 1 1 223.56356545149785 63.778619562148535" fill-opacity="0.3" stroke-linejoin="bevel" stroke-miterlimit="10"/><path fill="blue" stroke="blue" paint-order="fill stroke markers" d=" M 230.75618251480319 61.76671382064945 A 2.5 2.5 0 1 1 230.7561812648033 61.764213821066114" fill-opacity="0.3" stroke-linejoin="bevel" stroke-miterlimit="10"/><path fill="blue" stroke="blue" paint-order="fill stroke markers" d=" M 237.9487983281087 63.57981289449762 A 2.5 2.5 0 1 1 237.9487970781088 63.577312894914286" fill-opacity="0.3" stroke-linejoin="bevel" stroke-miterlimit="10"/><path fill="blue" stroke="blue" paint-order="fill stroke markers" d=" M 245.14141414141415 63.03615098609116 A 2.5 2.5 0 1 1 245.14141289141426 63.03365098650782" fill-opacity="0.3" stroke-linejoin="bevel" stroke-miterlimit="10"/><path fill="blue" stroke="blue" paint-order="fill stroke markers" d=" M 252.3340299547196 62.814758287758146 A 2.5 2.5 0 1 1 252.3340287047197 62.81225828817481" fill-opacity="0.3" stroke-linejoin="bevel" stroke-miterlimit="10"/><path fill="blue" stroke="blue" paint-order="fill stroke markers" d=" M 259.5266457680251 62.452897278607786 A 2.5 2.5 0 1 1 259.5266445180252 62.45039727902445" fill-opacity="0.3" stroke-linejoin="bevel" stroke-miterlimit="10"/><path fill="blue" stroke="blue" paint-order="fill stroke markers" d=" M 266.71926158133056 63.25017880635461 A 2.5 2.5 0 1 1 266.71926033133064 63.247678806771276" fill-opacity="0.3" stroke-linejoin="bevel" stroke-miterlimit="10"/><path fill="blue" stroke="blue" paint-order="fill stroke markers" d=" M 273.911877394636 60.82262572338301 A 2.5 2.5 0 1 1 273.9118761446361 60.82012572379968" fill-opacity="0.3" stroke-linejoin="bevel" stroke-miterlimit="10"/><path fill="blue" stroke="blue" paint-order="fill stroke markers" d=" M 281.10449320794146 62.95312872421627 A 2.5 2.5 0 1 1 281.10449195794155 62.950628724632935" fill-opacity="0.3" stroke-linejoin="bevel" stroke-miterlimit="10"/><path fill="blue" stroke="blue" paint-order="fill stroke markers" d=" M 288.29710902124697 61.52068225750196 A 2.5 2.5 0 1 1 288.29710777124706 61.518182257918625" fill-opacity="0.3" stroke-linejoin="bevel" stroke-miterlimit="10"/><path fill="blue" stroke="blue" paint-order="fill stroke markers" d=" M 295.4897248345524 61.43324106878536 A 2.5 2.5 0 1 1 295.4897235845525 61.43074106920202" fill-opacity="0.3" stroke-linejoin="bevel" stroke-miterlimit="10"/><path fill="blue" stroke="blue" paint-order="fill stroke markers" d=" M 302.68234064785787 61.47037790850573 A 2.5 2.5 0 1 1 302.68233939785796 61.4678779089224" fill-opacity="0.3" stroke-linejoin="bevel" stroke-miterlimit="10"/><path fill="blue" stroke="blue" paint-order="fill stroke markers" d=" M 309.8749564611634 62.25917866756641 A 2.5 2.5 0 1 1 309.87495521116347 62.256678667983074" fill-opacity="0.3" stroke-linejoin="bevel" stroke-miterlimit="10"/><path fill="blue" stroke="blue" paint-order="fill stroke markers" d=" M 317.06757227446883 62.555514579710135 A 2.5 2.5 0 1 1 317.0675710244689 62.5530145801268" fill-opacity="0.3" stroke-linejoin="bevel" stroke-miterlimit="10"/><path fill="blue" stroke="blue" paint-order="fill stroke markers" d=" M 324.2601880877743 62.36340285115665 A 2.5 2.5 0 1 1 324.26018683777437 62.360902851573314" fill-opacity="0.3" stroke-linejoin="bevel" stroke-miterlimit="10"/><path fill="blue" stroke="blue" paint-order="fill stroke markers" d=" M 331.4528039010798 63.31074934902355 A 2.5 2.5 0 1 1 331.4528026510799 63.30824934944022" fill-opacity="0.3" stroke-linejoin="bevel" stroke-miterlimit="10"/><path fill="blue" stroke="blue" paint-order="fill stroke markers" d=" M 338.64541971438524 64.49703034571638 A 2.5 2.5 0 1 1 338.64541846438533 64.49453034613305" fill-opacity="0.3" stroke-linejoin="bevel" stroke-miterlimit="10"/><path fill="blue" stroke="blue" paint-order="fill stroke markers" d=" M 345.8380355276907 65.63206964529505 A 2.5 2.5 0 1 1 345.8380342776908 65.62956964571171" fill-opacity="0.3" stroke-linejoin="bevel" stroke-miterlimit="10"/><path fill="blue" stroke="blue" paint-order="fill stroke markers" d=" M 353.0306513409962 64.33723480941957 A 2.5 2.5 0 1 1 353.0306500909963 64.33473480983623" fill-opacity="0.3" stroke-linejoin="bevel" stroke-miterlimit="10"/><path fill="blue" stroke="blue" paint-order="fill stroke markers" d=" M 360.22326715430165 65.04515581658924 A 2.5 2.5 0 1 1 360.22326590430174 65.04265581700591" fill-opacity="0.3" stroke-linejoin="bevel" stroke-miterlimit="10"/><path fill="blue" stroke="blue" paint-order="fill stroke markers" d=" M 367.4158829676071 67.53319017098045 A 2.5 2.5 0 1 1 367.4158817176072 67.53069017139711" fill-opacity="0.3" stroke-linejoin="bevel" stroke-miterlimit="10"/><path fill="blue" stroke="blue" paint-order="fill stroke markers" d=" M 374.60849878091256 66.98725184571612 A 2.5 2.5 0 1 1 374.60849753091264 66.98475184613278" fill-opacity="0.3" stroke-linejoin="bevel" stroke-miterlimit="10"/><path fill="blue" stroke="blue" paint-order="fill stroke markers" d=" M 381.80111459421806 67.04728676088908 A 2.5 2.5 0 1 1 381.80111334421815 67.04478676130574" fill-opacity="0.3" stroke-linejoin="bevel" stroke-miterlimit="10"/><path fill="blue" stroke="blue" paint-order="fill stroke markers" d=" M 388.9937304075235 68.46567300583426 A 2.5 2.5 0 1 1 388.9937291575236 68.46317300625093" fill-opacity="0.3" stroke-linejoin="bevel" stroke-miterlimit="10"/><path fill="blue" stroke="blue" paint-order="fill stroke markers" d=" M 396.186346220829 65.20615651475197 A 2.5 2.5 0 1 1 396.1863449708291 65.20365651516863" fill-opacity="0.3" stroke-linejoin="bevel" stroke-miterlimit="10"/><path fill="blue" stroke="blue" paint-order="fill stroke markers" d=" M 403.3789620341345 65.13897989963279 A 2.5 2.5 0 1 1 403.37896078413456 65.13647990004945" fill-opacity="0.3" stroke-linejoin="bevel" stroke-miterlimit="10"/><path fill="blue" stroke="blue" paint-order="fill stroke markers" d=" M 410.5715778474399 67.32978562938699 A 2.5 2.5 0 1 1 410.57157659744 67.32728562980365" fill-opacity="0.3" stroke-linejoin="bevel" stroke-miterlimit="10"/><path fill="blue" stroke="blue" paint-order="fill stroke markers" d=" M 417.7641936607454 64.64620260334318 A 2.5 2.5 0 1 1 417.76419241074547 64.64370260375985" fill-opacity="0.3" stroke-linejoin="bevel" stroke-miterlimit="10"/><path fill="blue" stroke="blue" paint-order="fill stroke markers" d=" M 424.9568094740509 65.87894928531114 A 2.5 2.5 0 1 1 424.956808224051 65.8764492857278" fill-opacity="0.3" stroke-linejoin="bevel" stroke-miterlimit="10"/><path fill="blue" stroke="blue" paint-order="fill stroke markers" d=" M 432.14942528735634 62.76436466751258 A 2.5 2.5 0 1 1 432.1494240373564 62.761864667929245" fill-opacity="0.3" stroke-linejoin="bevel" stroke-miterlimit="10"/><path fill="blue" stroke="blue" paint-order="fill stroke markers" d=" M 439.3420411006618 63.21920168283787 A 2.5 2.5 0 1 1 439.3420398506619 63.216701683254534" fill-opacity="0.3" stroke-linejoin="bevel" stroke-miterlimit="10"/><path fill="blue" stroke="blue" paint-order="fill stroke markers" d=" M 446.5346569139673 62.92969502126772 A 2.5 2.5 0 1 1 446.5346556639674 62.92719502168438" fill-opacity="0.3" stroke-linejoin="bevel" stroke-miterlimit="10"/><path fill="blue" stroke="blue" paint-order="fill stroke markers" d=" M 453.72727272727275 64.54072862226235 A 2.5 2.5 0 1 1 453.72727147727284 64.53822862267901" fill-opacity="0.3" stroke-linejoin="bevel" stroke-miterlimit="10"/></g></g></g><g clip-path="url(#owKRzaTEsxom)"><g><g><path fill="none" stroke="red" paint-order="fill stroke markers" d=" M 57 63.58561552570393 L 470 63.58561552570393" stroke-linejoin="bevel" stroke-miterlimit="10" stroke-width="3"/></g></g></g><g><g fill="#444444"><path fill="" stroke="none" d=""/><g transform="translate(263.5,5)"><path fill="none" stroke="none"/><text fill="" stroke="none" font-family="helvetica" font-size="12pt" font-style="normal" font-weight="bold" text-decoration="normal" x="0" y="0" text-anchor="middle" dominant-baseline="text-before-edge">Residuals for model fit (SASDEE2)</text></g></g></g><g/><g><g fill="#444444"><path fill="none" stroke="black" paint-order="fill stroke markers" d=" M 57 439 L 470 439" stroke-linejoin="bevel" stroke-miterlimit="10"/><path fill="none" stroke="black" paint-order="fill stroke markers" d=" M 70 445 L 70 437" stroke-linejoin="bevel" stroke-miterlimit="10"/><path fill="none" stroke="black" paint-order="fill stroke markers" d=" M 142 445 L 142 437" stroke-linejoin="bevel" stroke-miterlimit="10"/><path fill="none" stroke="black" paint-order="fill stroke markers" d=" M 214 445 L 214 437" stroke-linejoin="bevel" stroke-miterlimit="10"/><path fill="none" stroke="black" paint-order="fill stroke markers" d=" M 286 445 L 286 437" stroke-linejoin="bevel" stroke-miterlimit="10"/><path fill="none" stroke="black" paint-order="fill stroke markers" d=" M 358 445 L 358 437" stroke-linejoin="bevel" stroke-miterlimit="10"/><path fill="none" stroke="black" paint-order="fill stroke markers" d=" M 430 445 L 430 437" stroke-linejoin="bevel" stroke-miterlimit="10"/><path fill="none" stroke="black" paint-order="fill stroke markers" d=" M 70 443 L 70 439" stroke-linejoin="bevel" stroke-miterlimit="10"/><path fill="none" stroke="black" paint-order="fill stroke markers" d=" M 84 443 L 84 439" stroke-linejoin="bevel" stroke-miterlimit="10"/><path fill="none" stroke="black" paint-order="fill stroke markers" d=" M 99 443 L 99 439" stroke-linejoin="bevel" stroke-miterlimit="10"/><path fill="none" stroke="black" paint-order="fill stroke markers" d=" M 113 443 L 113 439" stroke-linejoin="bevel" stroke-miterlimit="10"/><path fill="none" stroke="black" paint-order="fill stroke markers" d=" M 128 443 L 128 439" stroke-linejoin="bevel" stroke-miterlimit="10"/><path fill="none" stroke="black" paint-order="fill stroke markers" d=" M 142 443 L 142 439" stroke-linejoin="bevel" stroke-miterlimit="10"/><path fill="none" stroke="black" paint-order="fill stroke markers" d=" M 156 443 L 156 439" stroke-linejoin="bevel" stroke-miterlimit="10"/><path fill="none" stroke="black" paint-order="fill stroke markers" d=" M 171 443 L 171 439" stroke-linejoin="bevel" stroke-miterlimit="10"/><path fill="none" stroke="black" paint-order="fill stroke markers" d=" M 185 443 L 185 439" stroke-linejoin="bevel" stroke-miterlimit="10"/><path fill="none" stroke="black" paint-order="fill stroke markers" d=" M 199 443 L 199 439" stroke-linejoin="bevel" stroke-miterlimit="10"/><path fill="none" stroke="black" paint-order="fill stroke markers" d=" M 214 443 L 214 439" stroke-linejoin="bevel" stroke-miterlimit="10"/><path fill="none" stroke="black" paint-order="fill stroke markers" d=" M 228 443 L 228 439" stroke-linejoin="bevel" stroke-miterlimit="10"/><path fill="none" stroke="black" paint-order="fill stroke markers" d=" M 243 443 L 243 439" stroke-linejoin="bevel" stroke-miterlimit="10"/><path fill="none" stroke="black" paint-order="fill stroke markers" d=" M 257 443 L 257 439" stroke-linejoin="bevel" stroke-miterlimit="10"/><path fill="none" stroke="black" paint-order="fill stroke markers" d=" M 271 443 L 271 439" stroke-linejoin="bevel" stroke-miterlimit="10"/><path fill="none" stroke="black" paint-order="fill stroke markers" d=" M 286 443 L 286 439" stroke-linejoin="bevel" stroke-miterlimit="10"/><path fill="none" stroke="black" paint-order="fill stroke markers" d=" M 300 443 L 300 439" stroke-linejoin="bevel" stroke-miterlimit="10"/><path fill="none" stroke="black" paint-order="fill stroke markers" d=" M 315 443 L 315 439" stroke-linejoin="bevel" stroke-miterlimit="10"/><path fill="none" stroke="black" paint-order="fill stroke markers" d=" M 329 443 L 329 439" stroke-linejoin="bevel" stroke-miterlimit="10"/><path fill="none" stroke="black" paint-order="fill stroke markers" d=" M 343 443 L 343 439" stroke-linejoin="bevel" stroke-miterlimit="10"/><path fill="none" stroke="black" paint-order="fill stroke markers" d=" M 358 443 L 358 439" stroke-linejoin="bevel" stroke-miterlimit="10"/><path fill="none" stroke="black" paint-order="fill stroke markers" d=" M 372 443 L 372 439" stroke-linejoin="bevel" stroke-miterlimit="10"/><path fill="none" stroke="black" paint-order="fill stroke markers" d=" M 386 443 L 386 439" stroke-linejoin="bevel" stroke-miterlimit="10"/><path fill="none" stroke="black" paint-order="fill stroke markers" d=" M 401 443 L 401 439" stroke-linejoin="bevel" stroke-miterlimit="10"/><path fill="none" stroke="black" paint-order="fill stroke markers" d=" M 415 443 L 415 439" stroke-linejoin="bevel" stroke-miterlimit="10"/><path fill="none" stroke="black" paint-order="fill stroke markers" d=" M 430 443 L 430 439" stroke-linejoin="bevel" stroke-miterlimit="10"/><path fill="none" stroke="black" paint-order="fill stroke markers" d=" M 444 443 L 444 439" stroke-linejoin="bevel" stroke-miterlimit="10"/><path fill="" stroke="black" paint-order="fill stroke markers" d=" M 458 443 L 458 439" stroke-linejoin="bevel" stroke-miterlimit="10"/><g transform="translate(70,450) rotate(0,0,0)"><text fill="" stroke="none" font-family="helvetica" font-size="14pt" font-style="normal" font-weight="normal" text-decoration="normal" x="0" y="0" text-anchor="middle" dominant-baseline="hanging">0</text><g transform="rotate(0,0,0) translate(-70,-450) translate(142,450) rotate(0,0,0)"><text fill="" stroke="none" font-family="helvetica" font-size="14pt" font-style="normal" font-weight="normal" text-decoration="normal" x="0" y="0" text-anchor="middle" dominant-baseline="hanging">0.05</text><g transform="rotate(0,0,0) translate(-142,-450) translate(214,450) rotate(0,0,0)"><text fill="" stroke="none" font-family="helvetica" font-size="14pt" font-style="normal" font-weight="normal" text-decoration="normal" x="0" y="0" text-anchor="middle" dominant-baseline="hanging">0.1</text><g transform="rotate(0,0,0) translate(-214,-450) translate(286,450) rotate(0,0,0)"><text fill="" stroke="none" font-family="helvetica" font-size="14pt" font-style="normal" font-weight="normal" text-decoration="normal" x="0" y="0" text-anchor="middle" dominant-baseline="hanging">0.15</text><g transform="rotate(0,0,0) translate(-286,-450) translate(358,450) rotate(0,0,0)"><text fill="" stroke="none" font-family="helvetica" font-size="14pt" font-style="normal" font-weight="normal" text-decoration="normal" x="0" y="0" text-anchor="middle" dominant-baseline="hanging">0.2</text><g transform="rotate(0,0,0) translate(-358,-450) translate(430,450) rotate(0,0,0)"><text fill="" stroke="none" font-family="helvetica" font-size="14pt" font-style="normal" font-weight="normal" text-decoration="normal" x="0" y="0" text-anchor="middle" dominant-baseline="hanging">0.25</text><g transform="rotate(0,0,0) translate(-430,-450) translate(264,477) rotate(0,0,0)"><text fill="" stroke="none" font-family="helvetica" font-size="14pt" font-style="italic" font-weight="normal" text-decoration="normal" x="0" y="0" text-anchor="middle" dominant-baseline="hanging">q [Å⁻⁻¹]</text><g transform="rotate(0,0,0) translate(-264,-477)"/></g></g></g></g></g></g></g></g></g><g><g fill="#444444"><path fill="none" stroke="black" paint-order="fill stroke markers" d=" M 57 439 L 57 33" stroke-linejoin="bevel" stroke-miterlimit="10"/><path fill="none" stroke="black" paint-order="fill stroke markers" d=" M 51 421 L 59 421" stroke-linejoin="bevel" stroke-miterlimit="10"/><path fill="none" stroke="black" paint-order="fill stroke markers" d=" M 51 331 L 59 331" stroke-linejoin="bevel" stroke-miterlimit="10"/><path fill="none" stroke="black" paint-order="fill stroke markers" d=" M 51 242 L 59 242" stroke-linejoin="bevel" stroke-miterlimit="10"/><path fill="none" stroke="black" paint-order="fill stroke markers" d=" M 51 153 L 59 153" stroke-linejoin="bevel" stroke-miterlimit="10"/><path fill="none" stroke="black" paint-order="fill stroke markers" d=" M 51 64 L 59 64" stroke-linejoin="bevel" stroke-miterlimit="10"/><path fill="none" stroke="black" paint-order="fill stroke markers" d=" M 53 439 L 57 439" stroke-linejoin="bevel" stroke-miterlimit="10"/><path fill="none" stroke="black" paint-order="fill stroke markers" d=" M 53 421 L 57 421" stroke-linejoin="bevel" stroke-miterlimit="10"/><path fill="none" stroke="black" paint-order="fill stroke markers" d=" M 53 403 L 57 403" stroke-linejoin="bevel" stroke-miterlimit="10"/><path fill="none" stroke="black" paint-order="fill stroke markers" d=" M 53 385 L 57 385" stroke-linejoin="bevel" stroke-miterlimit="10"/><path fill="none" stroke="black" paint-order="fill stroke markers" d=" M 53 367 L 57 367" stroke-linejoin="bevel" stroke-miterlimit="10"/><path fill="none" stroke="black" paint-order="fill stroke markers" d=" M 53 349 L 57 349" stroke-linejoin="bevel" stroke-miterlimit="10"/><path fill="none" stroke="black" paint-order="fill stroke markers" d=" M 53 331 L 57 331" stroke-linejoin="bevel" stroke-miterlimit="10"/><path fill="none" stroke="black" paint-order="fill stroke markers" d=" M 53 314 L 57 314" stroke-linejoin="bevel" stroke-miterlimit="10"/><path fill="none" stroke="black" paint-order="fill stroke markers" d=" M 53 296 L 57 296" stroke-linejoin="bevel" stroke-miterlimit="10"/><path fill="none" stroke="black" paint-order="fill stroke markers" d=" M 53 278 L 57 278" stroke-linejoin="bevel" stroke-miterlimit="10"/><path fill="none" stroke="black" paint-order="fill stroke markers" d=" M 53 260 L 57 260" stroke-linejoin="bevel" stroke-miterlimit="10"/><path fill="none" stroke="black" paint-order="fill stroke markers" d=" M 53 242 L 57 242" stroke-linejoin="bevel" stroke-miterlimit="10"/><path fill="none" stroke="black" paint-order="fill stroke markers" d=" M 53 224 L 57 224" stroke-linejoin="bevel" stroke-miterlimit="10"/><path fill="none" stroke="black" paint-order="fill stroke markers" d=" M 53 206 L 57 206" stroke-linejoin="bevel" stroke-miterlimit="10"/><path fill="none" stroke="black" paint-order="fill stroke markers" d=" M 53 189 L 57 189" stroke-linejoin="bevel" stroke-miterlimit="10"/><path fill="none" stroke="black" paint-order="fill stroke markers" d=" M 53 171 L 57 171" stroke-linejoin="bevel" stroke-miterlimit="10"/><path fill="none" stroke="black" paint-order="fill stroke markers" d=" M 53 153 L 57 153" stroke-linejoin="bevel" stroke-miterlimit="10"/><path fill="none" stroke="black" paint-order="fill stroke markers" d=" M 53 135 L 57 135" stroke-linejoin="bevel" stroke-miterlimit="10"/><path fill="none" stroke="black" paint-order="fill stroke markers" d=" M 53 117 L 57 117" stroke-linejoin="bevel" stroke-miterlimit="10"/><path fill="none" stroke="black" paint-order="fill stroke markers" d=" M 53 99 L 57 99" stroke-linejoin="bevel" stroke-miterlimit="10"/><path fill="none" stroke="black" paint-order="fill stroke markers" d=" M 53 81 L 57 81" stroke-linejoin="bevel" stroke-miterlimit="10"/><path fill="none" stroke="black" paint-order="fill stroke markers" d=" M 53 64 L 57 64" stroke-linejoin="bevel" stroke-miterlimit="10"/><path fill="" stroke="black" paint-order="fill stroke markers" d=" M 53 46 L 57 46" stroke-linejoin="bevel" stroke-miterlimit="10"/><g transform="translate(46,421) rotate(0,0,0)"><text fill="" stroke="none" font-family="helvetica" font-size="14pt" font-style="normal" font-weight="normal" text-decoration="normal" x="0" y="0" text-anchor="end" dominant-baseline="central">-8</text><g transform="rotate(0,0,0) translate(-46,-421) translate(46,331) rotate(0,0,0)"><text fill="" stroke="none" font-family="helvetica" font-size="14pt" font-style="normal" font-weight="normal" text-decoration="normal" x="0" y="0" text-anchor="end" dominant-baseline="central">-6</text><g transform="rotate(0,0,0) translate(-46,-331) translate(46,242) rotate(0,0,0)"><text fill="" stroke="none" font-family="helvetica" font-size="14pt" font-style="normal" font-weight="normal" text-decoration="normal" x="0" y="0" text-anchor="end" dominant-baseline="central">-4</text><g transform="rotate(0,0,0) translate(-46,-242) translate(46,153) rotate(0,0,0)"><text fill="" stroke="none" font-family="helvetica" font-size="14pt" font-style="normal" font-weight="normal" text-decoration="normal" x="0" y="0" text-anchor="end" dominant-baseline="central">-2</text><g transform="rotate(0,0,0) translate(-46,-153) translate(46,64) rotate(0,0,0)"><text fill="" stroke="none" font-family="helvetica" font-size="14pt" font-style="normal" font-weight="normal" text-decoration="normal" x="0" y="0" text-anchor="end" dominant-baseline="central">0</text><g transform="rotate(0,0,0) translate(-46,-64) translate(23,236) rotate(-90,0,0)"><text fill="" stroke="none" font-family="helvetica" font-size="14pt" font-style="italic" font-weight="normal" text-decoration="normal" x="0" y="0" text-anchor="middle" dominant-baseline="alphabetic">R</text><g transform="rotate(90,0,0) translate(-23,-236)"/></g></g></g></g></g></g></g></g><g clip-path="url(#RTwxIDZAixNP)"><g/></g></g></svg>