<svg version="1.1" xmlns="http://www.w3.org/2000/svg" xmlns:xlink="http://www.w3.org/1999/xlink" width="800" height="300"><defs><clipPath id="IQorDzaTGBXn"><path fill="none" stroke="none" d="M 84.5 37.5 L 770.5 37.5 L 770.5 179.5 L 84.5 179.5 L 84.5 37.5"/></clipPath><clipPath id="BqbHwWxshWPB"><path fill="none" stroke="none" d="M 84.5 37.5 L 770.5 37.5 L 770.5 179.5 L 84.5 179.5 L 84.5 37.5"/></clipPath><clipPath id="aVayEsckCoJf"><path fill="none" stroke="none" d="M 84.5 37.5 L 770.5 37.5 L 770.5 179.5 L 84.5 179.5 L 84.5 37.5"/></clipPath><clipPath id="HMcwhhUBReZm"><path fill="none" stroke="none" d="M 84.5 37.5 L 770.5 37.5 L 770.5 179.5 L 84.5 179.5 L 84.5 37.5"/></clipPath></defs><path fill="rgb(255,255,255)" stroke="none" paint-order="stroke" d="M 0.5 0.5 L 800.5 0.5 L 800.5 300.5 L 0.5 300.5 L 0.5 0.5" fill-opacity="1"/><rect fill="#FFFFFF" stroke="none" x="84" y="37" width="686" height="142" transform="matrix(1, 0, 0, 1, 0.5, 0.5)"/><path fill="rgb(255,255,255)" stroke="none" paint-order="stroke" d="M 84.5 37.5 L 770.5 37.5 L 770.5 179.5 L 84.5 179.5 L 84.5 37.5" fill-opacity="1"/><path fill="none" stroke="rgb(229,229,229)" paint-order="fill" d="M 84.5 37.5 L 770.5 37.5 L 770.5 179.5 L 84.5 179.5 L 84.5 37.5" stroke-opacity="1" stroke-linejoin="bevel" stroke-miterlimit="10" stroke-dasharray=""/><path fill="none" stroke="rgb(229,229,229)" paint-order="fill" d="M 192.5 179.5 L 192.5 37.5 M 319.5 179.5 L 319.5 37.5 M 446.5 179.5 L 446.5 37.5 M 573.5 179.5 L 573.5 37.5 M 700.5 179.5 L 700.5 37.5" stroke-opacity="1" stroke-linejoin="bevel" stroke-miterlimit="10" stroke-dasharray="" clip-path="url(#IQorDzaTGBXn)"/><path fill="none" stroke="none"/><path fill="rgb(68,1,84)" stroke="none" paint-order="stroke" d="M 84.5 108.5 L 313.1666564941406 108.5 L 313.1666564941406 179.5 L 84.5 179.5 L 84.5 108.5" fill-opacity="0.8" clip-path="url(#aVayEsckCoJf)"/><path fill="none" stroke="rgb(0,0,0)" paint-order="fill" d="M 84.5 108.5 L 313.1666564941406 108.5 L 313.1666564941406 179.5 L 84.5 179.5 L 84.5 108.5" stroke-opacity="0.8" stroke-linejoin="bevel" stroke-miterlimit="10" stroke-dasharray="" clip-path="url(#aVayEsckCoJf)"/><path fill="rgb(32,143,140)" stroke="none" paint-order="stroke" d="M 84.5 37.5 L 541.8333129882812 37.5 L 541.8333129882812 108.5 L 84.5 108.5 L 84.5 37.5" fill-opacity="0.8" clip-path="url(#aVayEsckCoJf)"/><path fill="none" stroke="rgb(0,0,0)" paint-order="fill" d="M 84.5 37.5 L 541.8333129882812 37.5 L 541.8333129882812 108.5 L 84.5 108.5 L 84.5 37.5" stroke-opacity="0.8" stroke-linejoin="bevel" stroke-miterlimit="10" stroke-dasharray="" clip-path="url(#aVayEsckCoJf)"/><path fill="none" stroke="rgb(0,0,0)" paint-order="fill" d="M 84.5 179.5 L 770.5 179.5" stroke-opacity="1" stroke-linejoin="bevel" stroke-miterlimit="10" stroke-dasharray=""/><path fill="none" stroke="rgb(0,0,0)" paint-order="fill" d="M 192.5 185.5 L 192.5 177.5 M 319.5 185.5 L 319.5 177.5 M 446.5 185.5 L 446.5 177.5 M 573.5 185.5 L 573.5 177.5 M 700.5 185.5 L 700.5 177.5" stroke-opacity="1" stroke-linejoin="bevel" stroke-miterlimit="10" stroke-dasharray=""/><path fill="none" stroke="rgb(0,0,0)" paint-order="fill" d="M 167.5 183.5 L 167.5 179.5 M 141.5 183.5 L 141.5 179.5 M 116.5 183.5 L 116.5 179.5 M 90.5 183.5 L 90.5 179.5 M 192.5 183.5 L 192.5 179.5 M 217.5 183.5 L 217.5 179.5 M 243.5 183.5 L 243.5 179.5 M 268.5 183.5 L 268.5 179.5 M 294.5 183.5 L 294.5 179.5 M 319.5 183.5 L 319.5 179.5 M 344.5 183.5 L 344.5 179.5 M 370.5 183.5 L 370.5 179.5 M 395.5 183.5 L 395.5 179.5 M 421.5 183.5 L 421.5 179.5 M 446.5 183.5 L 446.5 179.5 M 471.5 183.5 L 471.5 179.5 M 497.5 183.5 L 497.5 179.5 M 522.5 183.5 L 522.5 179.5 M 548.5 183.5 L 548.5 179.5 M 573.5 183.5 L 573.5 179.5 M 599.5 183.5 L 599.5 179.5 M 624.5 183.5 L 624.5 179.5 M 649.5 183.5 L 649.5 179.5 M 675.5 183.5 L 675.5 179.5 M 700.5 183.5 L 700.5 179.5 M 726.5 183.5 L 726.5 179.5 M 751.5 183.5 L 751.5 179.5" stroke-opacity="1" stroke-linejoin="bevel" stroke-miterlimit="10" stroke-dasharray=""/><text fill="rgb(68,68,68)" stroke="none" font-family="helvetica" font-size="14pt" font-style="normal" font-weight="normal" text-decoration="normal" x="0" y="0" text-anchor="middle" dominant-baseline="hanging" transform="matrix(1, 0, 0, 1, 192.5, 190.5)" fill-opacity="1">10880</text><text fill="rgb(68,68,68)" stroke="none" font-family="helvetica" font-size="14pt" font-style="normal" font-weight="normal" text-decoration="normal" x="0" y="0" text-anchor="middle" dominant-baseline="hanging" transform="matrix(1, 0, 0, 1, 319.5, 190.5)" fill-opacity="1">10900</text><text fill="rgb(68,68,68)" stroke="none" font-family="helvetica" font-size="14pt" font-style="normal" font-weight="normal" text-decoration="normal" x="0" y="0" text-anchor="middle" dominant-baseline="hanging" transform="matrix(1, 0, 0, 1, 446.5, 190.5)" fill-opacity="1">10920</text><text fill="rgb(68,68,68)" stroke="none" font-family="helvetica" font-size="14pt" font-style="normal" font-weight="normal" text-decoration="normal" x="0" y="0" text-anchor="middle" dominant-baseline="hanging" transform="matrix(1, 0, 0, 1, 573.5, 190.5)" fill-opacity="1">10940</text><text fill="rgb(68,68,68)" stroke="none" font-family="helvetica" font-size="14pt" font-style="normal" font-weight="normal" text-decoration="normal" x="0" y="0" text-anchor="middle" dominant-baseline="hanging" transform="matrix(1, 0, 0, 1, 700.5, 190.5)" fill-opacity="1">10960</text><text fill="rgb(68,68,68)" stroke="none" font-family="helvetica" font-size="14pt" font-style="italic" font-weight="normal" text-decoration="normal" x="0" y="0" text-anchor="middle" dominant-baseline="hanging" transform="matrix(1, 0, 0, 1, 427.5, 217.5)" fill-opacity="1">Number of violations</text><path fill="none" stroke="rgb(0,0,0)" paint-order="fill" d="M 84.5 179.5 L 84.5 37.5" stroke-opacity="1" stroke-linejoin="bevel" stroke-miterlimit="10" stroke-dasharray=""/><path fill="none" stroke="rgb(0,0,0)" paint-order="fill" d="M 78.5 144.5 L 86.5 144.5 M 78.5 73.5 L 86.5 73.5" stroke-opacity="1" stroke-linejoin="bevel" stroke-miterlimit="10" stroke-dasharray=""/><path fill="none" stroke="rgb(0,0,0)" paint-order="fill" d="" stroke-opacity="1" stroke-linejoin="bevel" stroke-miterlimit="10" stroke-dasharray=""/><text fill="rgb(68,68,68)" stroke="none" font-family="helvetica" font-size="14pt" font-style="normal" font-weight="normal" text-decoration="normal" x="0" y="0" text-anchor="end" dominant-baseline="central" transform="matrix(1, 0, 0, 1, 73.5, 144.5)" fill-opacity="1">Model 1</text><text fill="rgb(68,68,68)" stroke="none" font-family="helvetica" font-size="14pt" font-style="normal" font-weight="normal" text-decoration="normal" x="0" y="0" text-anchor="end" dominant-baseline="central" transform="matrix(1, 0, 0, 1, 73.5, 73.5)" fill-opacity="1">Model 2</text><path fill="rgb(255,255,255)" stroke="rgb(229,229,229)" paint-order="fill" d="M 301.16666412353516 250.5 L 553.8333358764648 250.5 L 553.8333358764648 290.5 L 301.16666412353516 290.5 L 301.16666412353516 250.5" fill-opacity="0.95" stroke-opacity="0.5" stroke-linejoin="bevel" stroke-miterlimit="10" stroke-dasharray=""/><text fill="rgb(68,68,68)" stroke="none" font-family="helvetica" font-size="8px" font-style="normal" font-weight="normal" text-decoration="normal" x="335.66666412353516" y="270" text-anchor="start" dominant-baseline="central" transform="matrix(1, 0, 0, 1, 0.5, 0.5)" fill-opacity="1">Model 1: 10899(99.88 %)</text><path fill="rgb(68,1,84)" stroke="none" paint-order="stroke" d="M 313.16666412353516 262.5 L 329.16666412353516 262.5 L 329.16666412353516 278.5 L 313.16666412353516 278.5 L 313.16666412353516 262.5" fill-opacity="0.8"/><path fill="none" stroke="rgb(0,0,0)" paint-order="fill" d="M 313.16666412353516 262.5 L 329.16666412353516 262.5 L 329.16666412353516 278.5 L 313.16666412353516 278.5 L 313.16666412353516 262.5" stroke-opacity="0.8" stroke-linejoin="bevel" stroke-miterlimit="10" stroke-dasharray=""/><text fill="rgb(68,68,68)" stroke="none" font-family="helvetica" font-size="8px" font-style="normal" font-weight="normal" text-decoration="normal" x="453.5" y="270" text-anchor="start" dominant-baseline="central" transform="matrix(1, 0, 0, 1, 0.5, 0.5)" fill-opacity="1">Model 2: 10935(99.88 %)</text><path fill="rgb(32,143,140)" stroke="none" paint-order="stroke" d="M 431 262.5 L 447 262.5 L 447 278.5 L 431 278.5 L 431 262.5" fill-opacity="0.8"/><path fill="none" stroke="rgb(0,0,0)" paint-order="fill" d="M 431 262.5 L 447 262.5 L 447 278.5 L 431 278.5 L 431 262.5" stroke-opacity="0.8" stroke-linejoin="bevel" stroke-miterlimit="10" stroke-dasharray=""/><path fill="none" stroke="none"/><text fill="rgb(68,68,68)" stroke="none" font-family="helvetica" font-size="14pt" font-style="normal" font-weight="bold" text-decoration="normal" x="0" y="0" text-anchor="middle" dominant-baseline="text-before-edge" transform="matrix(1, 0, 0, 1, 427.5, 5.5)" fill-opacity="1">Model quality: Excluded Volume Analysis</text></svg>