<svg version="1.1" xmlns="http://www.w3.org/2000/svg" xmlns:xlink="http://www.w3.org/1999/xlink" width="700" height="250"><defs><clipPath id="LqvdbEyUmWGN"><path fill="none" stroke="none" d="M 157.5 37.5 L 670.5 37.5 L 670.5 217.5 L 157.5 217.5 L 157.5 37.5"/></clipPath><clipPath id="UsIhEPoCpWmI"><path fill="none" stroke="none" d="M 157.5 37.5 L 670.5 37.5 L 670.5 217.5 L 157.5 217.5 L 157.5 37.5"/></clipPath><clipPath id="PvlNJpHXOgOO"><path fill="none" stroke="none" d="M 157.5 37.5 L 670.5 37.5 L 670.5 217.5 L 157.5 217.5 L 157.5 37.5"/></clipPath><clipPath id="nAvZPFvALpST"><path fill="none" stroke="none" d="M 157.5 37.5 L 670.5 37.5 L 670.5 217.5 L 157.5 217.5 L 157.5 37.5"/></clipPath><clipPath id="eukEMelCxRPP"><path fill="none" stroke="none" d="M 157.5 37.5 L 670.5 37.5 L 670.5 217.5 L 157.5 217.5 L 157.5 37.5"/></clipPath></defs><path fill="rgb(255,255,255)" stroke="none" paint-order="stroke" d="M 0.5 0.5 L 700.5 0.5 L 700.5 250.5 L 0.5 250.5 L 0.5 0.5" fill-opacity="1"/><rect fill="#FFFFFF" stroke="none" x="157" y="37" width="513" height="180" transform="matrix(1, 0, 0, 1, 0.5, 0.5)"/><path fill="rgb(255,255,255)" stroke="none" paint-order="stroke" d="M 157.5 37.5 L 670.5 37.5 L 670.5 217.5 L 157.5 217.5 L 157.5 37.5" fill-opacity="1"/><path fill="none" stroke="rgb(229,229,229)" paint-order="fill" d="M 157.5 37.5 L 670.5 37.5 L 670.5 217.5 L 157.5 217.5 L 157.5 37.5" stroke-opacity="1" stroke-linejoin="bevel" stroke-miterlimit="10" stroke-dasharray=""/><path fill="none" stroke="rgb(229,229,229)" paint-order="fill" d="M 273.5 217.5 L 273.5 37.5 M 389.5 217.5 L 389.5 37.5 M 505.5 217.5 L 505.5 37.5 M 621.5 217.5 L 621.5 37.5" stroke-opacity="1" stroke-linejoin="bevel" stroke-miterlimit="10" stroke-dasharray="" clip-path="url(#LqvdbEyUmWGN)"/><path fill="none" stroke="none"/><path fill="rgb(68,1,84)" stroke="none" paint-order="stroke" d="M 157.5 114 L 664.6961669921875 114 L 664.6961669921875 141 L 157.5 141 L 157.5 114" fill-opacity="0.8" clip-path="url(#PvlNJpHXOgOO)"/><path fill="none" stroke="rgb(68,1,84)" paint-order="fill" d="M 157.5 114 L 664.6961669921875 114 L 664.6961669921875 141 L 157.5 141 L 157.5 114" stroke-opacity="0.8" stroke-linejoin="bevel" stroke-miterlimit="10" stroke-dasharray="" clip-path="url(#PvlNJpHXOgOO)"/><path fill="none" stroke="rgb(0,0,0)" paint-order="fill" d="M 157.5 217.5 L 670.5 217.5" stroke-opacity="1" stroke-linejoin="bevel" stroke-miterlimit="10" stroke-dasharray=""/><path fill="none" stroke="rgb(0,0,0)" paint-order="fill" d="M 157.5 223.5 L 157.5 215.5 M 273.5 223.5 L 273.5 215.5 M 389.5 223.5 L 389.5 215.5 M 505.5 223.5 L 505.5 215.5 M 621.5 223.5 L 621.5 215.5" stroke-opacity="1" stroke-linejoin="bevel" stroke-miterlimit="10" stroke-dasharray=""/><path fill="none" stroke="rgb(0,0,0)" paint-order="fill" d="M 157.5 221.5 L 157.5 217.5 M 180.5 221.5 L 180.5 217.5 M 203.5 221.5 L 203.5 217.5 M 227.5 221.5 L 227.5 217.5 M 250.5 221.5 L 250.5 217.5 M 273.5 221.5 L 273.5 217.5 M 296.5 221.5 L 296.5 217.5 M 320.5 221.5 L 320.5 217.5 M 343.5 221.5 L 343.5 217.5 M 366.5 221.5 L 366.5 217.5 M 389.5 221.5 L 389.5 217.5 M 412.5 221.5 L 412.5 217.5 M 436.5 221.5 L 436.5 217.5 M 459.5 221.5 L 459.5 217.5 M 482.5 221.5 L 482.5 217.5 M 505.5 221.5 L 505.5 217.5 M 528.5 221.5 L 528.5 217.5 M 552.5 221.5 L 552.5 217.5 M 575.5 221.5 L 575.5 217.5 M 598.5 221.5 L 598.5 217.5 M 621.5 221.5 L 621.5 217.5 M 645.5 221.5 L 645.5 217.5 M 668.5 221.5 L 668.5 217.5" stroke-opacity="1" stroke-linejoin="bevel" stroke-miterlimit="10" stroke-dasharray=""/><text fill="rgb(68,68,68)" stroke="none" font-family="helvetica" font-size="14pt" font-style="normal" font-weight="normal" text-decoration="normal" x="0" y="0" text-anchor="middle" dominant-baseline="hanging" transform="matrix(1, 0, 0, 1, 157.5, 228.5)" fill-opacity="1">0</text><text fill="rgb(68,68,68)" stroke="none" font-family="helvetica" font-size="14pt" font-style="normal" font-weight="normal" text-decoration="normal" x="0" y="0" text-anchor="middle" dominant-baseline="hanging" transform="matrix(1, 0, 0, 1, 273.5, 228.5)" fill-opacity="1">20</text><text fill="rgb(68,68,68)" stroke="none" font-family="helvetica" font-size="14pt" font-style="normal" font-weight="normal" text-decoration="normal" x="0" y="0" text-anchor="middle" dominant-baseline="hanging" transform="matrix(1, 0, 0, 1, 389.5, 228.5)" fill-opacity="1">40</text><text fill="rgb(68,68,68)" stroke="none" font-family="helvetica" font-size="14pt" font-style="normal" font-weight="normal" text-decoration="normal" x="0" y="0" text-anchor="middle" dominant-baseline="hanging" transform="matrix(1, 0, 0, 1, 505.5, 228.5)" fill-opacity="1">60</text><text fill="rgb(68,68,68)" stroke="none" font-family="helvetica" font-size="14pt" font-style="normal" font-weight="normal" text-decoration="normal" x="0" y="0" text-anchor="middle" dominant-baseline="hanging" transform="matrix(1, 0, 0, 1, 621.5, 228.5)" fill-opacity="1">80</text><path fill="none" stroke="rgb(0,0,0)" paint-order="fill" d="M 157.5 217.5 L 157.5 37.5" stroke-opacity="1" stroke-linejoin="bevel" stroke-miterlimit="10" stroke-dasharray=""/><path fill="none" stroke="rgb(0,0,0)" paint-order="fill" d="M 151.5 127.5 L 159.5 127.5" stroke-opacity="1" stroke-linejoin="bevel" stroke-miterlimit="10" stroke-dasharray=""/><path fill="none" stroke="rgb(0,0,0)" paint-order="fill" d="" stroke-opacity="1" stroke-linejoin="bevel" stroke-miterlimit="10" stroke-dasharray=""/><text fill="rgb(68,68,68)" stroke="none" font-family="helvetica" font-size="14pt" font-style="normal" font-weight="normal" text-decoration="normal" x="0" y="0" text-anchor="end" dominant-baseline="central" transform="matrix(1, 0, 0, 1, 146.5, 127.5)" fill-opacity="1">Model Model #1</text><path fill="rgb(255,255,255)" stroke="rgb(229,229,229)" paint-order="fill" d="M 517.8833312988281 47.5 L 660.5 47.5 L 660.5 87.5 L 517.8833312988281 87.5 L 517.8833312988281 47.5" fill-opacity="0.95" clip-path="url(#nAvZPFvALpST)" stroke-opacity="0.5" stroke-linejoin="bevel" stroke-miterlimit="10" stroke-dasharray=""/><text fill="rgb(68,68,68)" stroke="none" font-family="helvetica" font-size="13px" font-style="normal" font-weight="normal" text-decoration="normal" x="552.3833312988281" y="67" text-anchor="start" dominant-baseline="central" transform="matrix(1, 0, 0, 1, 0.5, 0.5)" fill-opacity="1">Model 1: 87.39%</text><path fill="rgb(68,1,84)" stroke="none" paint-order="stroke" d="M 529.8833312988281 59.5 L 545.8833312988281 59.5 L 545.8833312988281 75.5 L 529.8833312988281 75.5 L 529.8833312988281 59.5" fill-opacity="0.8" clip-path="url(#nAvZPFvALpST)"/><path fill="none" stroke="rgb(68,1,84)" paint-order="fill" d="M 529.8833312988281 59.5 L 545.8833312988281 59.5 L 545.8833312988281 75.5 L 529.8833312988281 75.5 L 529.8833312988281 59.5" stroke-opacity="0.8" stroke-linejoin="bevel" stroke-miterlimit="10" stroke-dasharray="" clip-path="url(#nAvZPFvALpST)"/><path fill="none" stroke="none"/><text fill="rgb(68,68,68)" stroke="none" font-family="helvetica" font-size="14pt" font-style="normal" font-weight="bold" text-decoration="normal" x="0" y="0" text-anchor="middle" dominant-baseline="text-after-edge" transform="matrix(1, 0, 0, 1, 414, 32.5)" fill-opacity="1">Fit to XL-MS input</text></svg>