<svg version="1.1" xmlns="http://www.w3.org/2000/svg" xmlns:xlink="http://www.w3.org/1999/xlink" width="500" height="500"><defs><clipPath id="bMIXNpOrPQuN"><path fill="none" stroke="none" d="M 57.5 33.5 L 470.5 33.5 L 470.5 439.5 L 57.5 439.5 L 57.5 33.5"/></clipPath><clipPath id="IeJCBvNWIQoy"><path fill="none" stroke="none" d="M 57.5 33.5 L 470.5 33.5 L 470.5 439.5 L 57.5 439.5 L 57.5 33.5"/></clipPath><clipPath id="iAvhXzczrkJP"><path fill="none" stroke="none" d="M 57.5 33.5 L 470.5 33.5 L 470.5 439.5 L 57.5 439.5 L 57.5 33.5"/></clipPath><clipPath id="TRRvyTAGTsHt"><path fill="none" stroke="none" d="M 57.5 33.5 L 470.5 33.5 L 470.5 439.5 L 57.5 439.5 L 57.5 33.5"/></clipPath><clipPath id="rRXqqSOMxamz"><path fill="none" stroke="none" d="M 57.5 33.5 L 470.5 33.5 L 470.5 439.5 L 57.5 439.5 L 57.5 33.5"/></clipPath></defs><path fill="rgb(255,255,255)" stroke="none" paint-order="stroke" d="M 0.5 0.5 L 500.5 0.5 L 500.5 500.5 L 0.5 500.5 L 0.5 0.5" fill-opacity="1"/><rect fill="#FFFFFF" stroke="none" x="57" y="33" width="413" height="406" transform="matrix(1, 0, 0, 1, 0.5, 0.5)"/><path fill="rgb(255,255,255)" stroke="none" paint-order="stroke" d="M 57.5 33.5 L 470.5 33.5 L 470.5 439.5 L 57.5 439.5 L 57.5 33.5" fill-opacity="1"/><path fill="none" stroke="rgb(229,229,229)" paint-order="fill" d="M 57.5 33.5 L 470.5 33.5 L 470.5 439.5 L 57.5 439.5 L 57.5 33.5" stroke-opacity="1" stroke-linejoin="bevel" stroke-miterlimit="10" stroke-dasharray=""/><path fill="none" stroke="rgb(229,229,229)" paint-order="fill" d="M 127.5 439.5 L 127.5 33.5 M 205.5 439.5 L 205.5 33.5 M 282.5 439.5 L 282.5 33.5 M 359.5 439.5 L 359.5 33.5 M 437.5 439.5 L 437.5 33.5" stroke-opacity="1" stroke-linejoin="bevel" stroke-miterlimit="10" stroke-dasharray="" clip-path="url(#bMIXNpOrPQuN)"/><path fill="none" stroke="rgb(229,229,229)" paint-order="fill" d="M 57.5 431.5 L 470.5 431.5 M 57.5 352.5 L 470.5 352.5 M 57.5 272.5 L 470.5 272.5 M 57.5 193.5 L 470.5 193.5 M 57.5 113.5 L 470.5 113.5 M 57.5 33.5 L 470.5 33.5" stroke-opacity="1" stroke-linejoin="bevel" stroke-miterlimit="10" stroke-dasharray="" clip-path="url(#IeJCBvNWIQoy)"/><path fill="none" stroke="none"/><path fill="rgb(0,0,255)" stroke="rgb(0,0,255)" paint-order="fill" d="M 78.7727279663086 209.53695678710938 A 2.5 2.5 0 1 1 78.7727267163087 209.53445678752604" fill-opacity="0.3" clip-path="url(#iAvhXzczrkJP)" stroke-opacity="1" stroke-linejoin="bevel" stroke-miterlimit="10" stroke-dasharray=""/><path fill="rgb(0,0,255)" stroke="rgb(0,0,255)" paint-order="fill" d="M 81.6087417602539 241.90040588378906 A 2.5 2.5 0 1 1 81.60874051025401 241.89790588420573" fill-opacity="0.3" clip-path="url(#iAvhXzczrkJP)" stroke-opacity="1" stroke-linejoin="bevel" stroke-miterlimit="10" stroke-dasharray=""/><path fill="rgb(0,0,255)" stroke="rgb(0,0,255)" paint-order="fill" d="M 88.6910400390625 193.22064208984375 A 2.5 2.5 0 1 1 88.6910387890626 193.21814209026041" fill-opacity="0.3" clip-path="url(#iAvhXzczrkJP)" stroke-opacity="1" stroke-linejoin="bevel" stroke-miterlimit="10" stroke-dasharray=""/><path fill="rgb(0,0,255)" stroke="rgb(0,0,255)" paint-order="fill" d="M 98.6093521118164 155.608154296875 A 2.5 2.5 0 1 1 98.60935086181651 155.60565429729166" fill-opacity="0.3" clip-path="url(#iAvhXzczrkJP)" stroke-opacity="1" stroke-linejoin="bevel" stroke-miterlimit="10" stroke-dasharray=""/><path fill="rgb(0,0,255)" stroke="rgb(0,0,255)" paint-order="fill" d="M 108.52765655517578 170.28103637695312 A 2.5 2.5 0 1 1 108.52765530517588 170.2785363773698" fill-opacity="0.3" clip-path="url(#iAvhXzczrkJP)" stroke-opacity="1" stroke-linejoin="bevel" stroke-miterlimit="10" stroke-dasharray=""/><path fill="rgb(0,0,255)" stroke="rgb(0,0,255)" paint-order="fill" d="M 115.60995483398438 288.26251220703125 A 2.5 2.5 0 1 1 115.60995358398448 288.2600122074479" fill-opacity="0.3" clip-path="url(#iAvhXzczrkJP)" stroke-opacity="1" stroke-linejoin="bevel" stroke-miterlimit="10" stroke-dasharray=""/><path fill="rgb(0,0,255)" stroke="rgb(0,0,255)" paint-order="fill" d="M 125.52825927734375 204.31655883789062 A 2.5 2.5 0 1 1 125.52825802734385 204.3140588383073" fill-opacity="0.3" clip-path="url(#iAvhXzczrkJP)" stroke-opacity="1" stroke-linejoin="bevel" stroke-miterlimit="10" stroke-dasharray=""/><path fill="rgb(0,0,255)" stroke="rgb(0,0,255)" paint-order="fill" d="M 135.4465789794922 190.16319274902344 A 2.5 2.5 0 1 1 135.4465777294923 190.1606927494401" fill-opacity="0.3" clip-path="url(#iAvhXzczrkJP)" stroke-opacity="1" stroke-linejoin="bevel" stroke-miterlimit="10" stroke-dasharray=""/><path fill="rgb(0,0,255)" stroke="rgb(0,0,255)" paint-order="fill" d="M 142.52886962890625 175.1573944091797 A 2.5 2.5 0 1 1 142.52886837890637 175.15489440959635" fill-opacity="0.3" clip-path="url(#iAvhXzczrkJP)" stroke-opacity="1" stroke-linejoin="bevel" stroke-miterlimit="10" stroke-dasharray=""/><path fill="rgb(0,0,255)" stroke="rgb(0,0,255)" paint-order="fill" d="M 145.36488342285156 238.6844024658203 A 2.5 2.5 0 1 1 145.36488217285168 238.68190246623698" fill-opacity="0.3" clip-path="url(#iAvhXzczrkJP)" stroke-opacity="1" stroke-linejoin="bevel" stroke-miterlimit="10" stroke-dasharray=""/><path fill="rgb(0,0,255)" stroke="rgb(0,0,255)" paint-order="fill" d="M 152.44717407226562 67.16436004638672 A 2.5 2.5 0 1 1 152.44717282226574 67.16186004680338" fill-opacity="0.3" clip-path="url(#iAvhXzczrkJP)" stroke-opacity="1" stroke-linejoin="bevel" stroke-miterlimit="10" stroke-dasharray=""/><path fill="rgb(0,0,255)" stroke="rgb(0,0,255)" paint-order="fill" d="M 162.36549377441406 212.38388061523438 A 2.5 2.5 0 1 1 162.36549252441418 212.38138061565104" fill-opacity="0.3" clip-path="url(#iAvhXzczrkJP)" stroke-opacity="1" stroke-linejoin="bevel" stroke-miterlimit="10" stroke-dasharray=""/><path fill="rgb(0,0,255)" stroke="rgb(0,0,255)" paint-order="fill" d="M 169.44778442382812 294.9400634765625 A 2.5 2.5 0 1 1 169.44778317382824 294.93756347697916" fill-opacity="0.3" clip-path="url(#iAvhXzczrkJP)" stroke-opacity="1" stroke-linejoin="bevel" stroke-miterlimit="10" stroke-dasharray=""/><path fill="rgb(0,0,255)" stroke="rgb(0,0,255)" paint-order="fill" d="M 172.28379821777344 275.1424255371094 A 2.5 2.5 0 1 1 172.28379696777355 275.13992553752604" fill-opacity="0.3" clip-path="url(#iAvhXzczrkJP)" stroke-opacity="1" stroke-linejoin="bevel" stroke-miterlimit="10" stroke-dasharray=""/><path fill="rgb(0,0,255)" stroke="rgb(0,0,255)" paint-order="fill" d="M 179.3660888671875 421.0454406738281 A 2.5 2.5 0 1 1 179.36608761718762 421.0429406742448" fill-opacity="0.3" clip-path="url(#iAvhXzczrkJP)" stroke-opacity="1" stroke-linejoin="bevel" stroke-miterlimit="10" stroke-dasharray=""/><path fill="rgb(0,0,255)" stroke="rgb(0,0,255)" paint-order="fill" d="M 189.28440856933594 54.07978820800781 A 2.5 2.5 0 1 1 189.28440731933605 54.07728820842448" fill-opacity="0.3" clip-path="url(#iAvhXzczrkJP)" stroke-opacity="1" stroke-linejoin="bevel" stroke-miterlimit="10" stroke-dasharray=""/><path fill="rgb(0,0,255)" stroke="rgb(0,0,255)" paint-order="fill" d="M 199.2027130126953 131.94602966308594 A 2.5 2.5 0 1 1 199.20271176269543 131.9435296635026" fill-opacity="0.3" clip-path="url(#iAvhXzczrkJP)" stroke-opacity="1" stroke-linejoin="bevel" stroke-miterlimit="10" stroke-dasharray=""/><path fill="rgb(0,0,255)" stroke="rgb(0,0,255)" paint-order="fill" d="M 206.28500366210938 179.1147003173828 A 2.5 2.5 0 1 1 206.2850024121095 179.11220031779948" fill-opacity="0.3" clip-path="url(#iAvhXzczrkJP)" stroke-opacity="1" stroke-linejoin="bevel" stroke-miterlimit="10" stroke-dasharray=""/><path fill="rgb(0,0,255)" stroke="rgb(0,0,255)" paint-order="fill" d="M 444.3089599609375 51.95454406738281 A 2.5 2.5 0 1 1 444.3089587109376 51.95204406779948" fill-opacity="0.3" clip-path="url(#iAvhXzczrkJP)" stroke-opacity="1" stroke-linejoin="bevel" stroke-miterlimit="10" stroke-dasharray=""/><path fill="rgb(0,0,255)" stroke="rgb(0,0,255)" paint-order="fill" d="M 454.2272644042969 98.39729309082031 A 2.5 2.5 0 1 1 454.22726315429696 98.39479309123698" fill-opacity="0.3" clip-path="url(#iAvhXzczrkJP)" stroke-opacity="1" stroke-linejoin="bevel" stroke-miterlimit="10" stroke-dasharray=""/><path fill="none" stroke="rgb(0,0,0)" paint-order="fill" d="M 57.5 439.5 L 470.5 439.5" stroke-opacity="1" stroke-linejoin="bevel" stroke-miterlimit="10" stroke-dasharray=""/><path fill="none" stroke="rgb(0,0,0)" paint-order="fill" d="M 127.5 445.5 L 127.5 437.5 M 205.5 445.5 L 205.5 437.5 M 282.5 445.5 L 282.5 437.5 M 359.5 445.5 L 359.5 437.5 M 437.5 445.5 L 437.5 437.5" stroke-opacity="1" stroke-linejoin="bevel" stroke-miterlimit="10" stroke-dasharray=""/><path fill="none" stroke="rgb(0,0,0)" paint-order="fill" d="M 112.5 443.5 L 112.5 439.5 M 96.5 443.5 L 96.5 439.5 M 81.5 443.5 L 81.5 439.5 M 65.5 443.5 L 65.5 439.5 M 127.5 443.5 L 127.5 439.5 M 143.5 443.5 L 143.5 439.5 M 158.5 443.5 L 158.5 439.5 M 174.5 443.5 L 174.5 439.5 M 189.5 443.5 L 189.5 439.5 M 205.5 443.5 L 205.5 439.5 M 220.5 443.5 L 220.5 439.5 M 236.5 443.5 L 236.5 439.5 M 251.5 443.5 L 251.5 439.5 M 266.5 443.5 L 266.5 439.5 M 282.5 443.5 L 282.5 439.5 M 297.5 443.5 L 297.5 439.5 M 313.5 443.5 L 313.5 439.5 M 328.5 443.5 L 328.5 439.5 M 344.5 443.5 L 344.5 439.5 M 359.5 443.5 L 359.5 439.5 M 375.5 443.5 L 375.5 439.5 M 390.5 443.5 L 390.5 439.5 M 406.5 443.5 L 406.5 439.5 M 421.5 443.5 L 421.5 439.5 M 437.5 443.5 L 437.5 439.5 M 452.5 443.5 L 452.5 439.5 M 468.5 443.5 L 468.5 439.5" stroke-opacity="1" stroke-linejoin="bevel" stroke-miterlimit="10" stroke-dasharray=""/><text fill="rgb(68,68,68)" stroke="none" font-family="helvetica" font-size="14pt" font-style="normal" font-weight="normal" text-decoration="normal" x="0" y="0" text-anchor="middle" dominant-baseline="hanging" transform="matrix(1, 0, 0, 1, 127.5, 450.5)" fill-opacity="1">0.5</text><text fill="rgb(68,68,68)" stroke="none" font-family="helvetica" font-size="14pt" font-style="normal" font-weight="normal" text-decoration="normal" x="0" y="0" text-anchor="middle" dominant-baseline="hanging" transform="matrix(1, 0, 0, 1, 205.5, 450.5)" fill-opacity="1">1</text><text fill="rgb(68,68,68)" stroke="none" font-family="helvetica" font-size="14pt" font-style="normal" font-weight="normal" text-decoration="normal" x="0" y="0" text-anchor="middle" dominant-baseline="hanging" transform="matrix(1, 0, 0, 1, 282.5, 450.5)" fill-opacity="1">1.5</text><text fill="rgb(68,68,68)" stroke="none" font-family="helvetica" font-size="14pt" font-style="normal" font-weight="normal" text-decoration="normal" x="0" y="0" text-anchor="middle" dominant-baseline="hanging" transform="matrix(1, 0, 0, 1, 359.5, 450.5)" fill-opacity="1">2</text><text fill="rgb(68,68,68)" stroke="none" font-family="helvetica" font-size="14pt" font-style="normal" font-weight="normal" text-decoration="normal" x="0" y="0" text-anchor="middle" dominant-baseline="hanging" transform="matrix(1, 0, 0, 1, 437.5, 450.5)" fill-opacity="1">2.5</text><text fill="rgb(68,68,68)" stroke="none" font-family="helvetica" font-size="14pt" font-style="italic" font-weight="normal" text-decoration="normal" x="0" y="0" text-anchor="middle" dominant-baseline="hanging" transform="matrix(1, 0, 0, 1, 264.5, 477.5)" fill-opacity="1">q² [nm ²]</text><path fill="none" stroke="rgb(0,0,0)" paint-order="fill" d="M 57.5 439.5 L 57.5 33.5" stroke-opacity="1" stroke-linejoin="bevel" stroke-miterlimit="10" stroke-dasharray=""/><path fill="none" stroke="rgb(0,0,0)" paint-order="fill" d="M 51.5 431.5 L 59.5 431.5 M 51.5 352.5 L 59.5 352.5 M 51.5 272.5 L 59.5 272.5 M 51.5 193.5 L 59.5 193.5 M 51.5 113.5 L 59.5 113.5 M 51.5 33.5 L 59.5 33.5" stroke-opacity="1" stroke-linejoin="bevel" stroke-miterlimit="10" stroke-dasharray=""/><path fill="none" stroke="rgb(0,0,0)" paint-order="fill" d="M 53.5 431.5 L 57.5 431.5 M 53.5 415.5 L 57.5 415.5 M 53.5 399.5 L 57.5 399.5 M 53.5 383.5 L 57.5 383.5 M 53.5 367.5 L 57.5 367.5 M 53.5 352.5 L 57.5 352.5 M 53.5 336.5 L 57.5 336.5 M 53.5 320.5 L 57.5 320.5 M 53.5 304.5 L 57.5 304.5 M 53.5 288.5 L 57.5 288.5 M 53.5 272.5 L 57.5 272.5 M 53.5 256.5 L 57.5 256.5 M 53.5 240.5 L 57.5 240.5 M 53.5 224.5 L 57.5 224.5 M 53.5 208.5 L 57.5 208.5 M 53.5 193.5 L 57.5 193.5 M 53.5 177.5 L 57.5 177.5 M 53.5 161.5 L 57.5 161.5 M 53.5 145.5 L 57.5 145.5 M 53.5 129.5 L 57.5 129.5 M 53.5 113.5 L 57.5 113.5 M 53.5 97.5 L 57.5 97.5 M 53.5 81.5 L 57.5 81.5 M 53.5 65.5 L 57.5 65.5 M 53.5 49.5 L 57.5 49.5 M 53.5 33.5 L 57.5 33.5" stroke-opacity="1" stroke-linejoin="bevel" stroke-miterlimit="10" stroke-dasharray=""/><text fill="rgb(68,68,68)" stroke="none" font-family="helvetica" font-size="14pt" font-style="normal" font-weight="normal" text-decoration="normal" x="0" y="0" text-anchor="end" dominant-baseline="central" transform="matrix(1, 0, 0, 1, 46.5, 431.5)" fill-opacity="1">-3</text><text fill="rgb(68,68,68)" stroke="none" font-family="helvetica" font-size="14pt" font-style="normal" font-weight="normal" text-decoration="normal" x="0" y="0" text-anchor="end" dominant-baseline="central" transform="matrix(1, 0, 0, 1, 46.5, 352.5)" fill-opacity="1">-2</text><text fill="rgb(68,68,68)" stroke="none" font-family="helvetica" font-size="14pt" font-style="normal" font-weight="normal" text-decoration="normal" x="0" y="0" text-anchor="end" dominant-baseline="central" transform="matrix(1, 0, 0, 1, 46.5, 272.5)" fill-opacity="1">-1</text><text fill="rgb(68,68,68)" stroke="none" font-family="helvetica" font-size="14pt" font-style="normal" font-weight="normal" text-decoration="normal" x="0" y="0" text-anchor="end" dominant-baseline="central" transform="matrix(1, 0, 0, 1, 46.5, 193.5)" fill-opacity="1">0</text><text fill="rgb(68,68,68)" stroke="none" font-family="helvetica" font-size="14pt" font-style="normal" font-weight="normal" text-decoration="normal" x="0" y="0" text-anchor="end" dominant-baseline="central" transform="matrix(1, 0, 0, 1, 46.5, 113.5)" fill-opacity="1">1</text><text fill="rgb(68,68,68)" stroke="none" font-family="helvetica" font-size="14pt" font-style="normal" font-weight="normal" text-decoration="normal" x="0" y="0" text-anchor="end" dominant-baseline="central" transform="matrix(1, 0, 0, 1, 46.5, 33.5)" fill-opacity="1">2</text><text fill="rgb(68,68,68)" stroke="none" font-family="helvetica" font-size="14pt" font-style="italic" font-weight="normal" text-decoration="normal" x="0" y="0" text-anchor="middle" dominant-baseline="alphabetic" transform="matrix(6.123233995736766e-17, -1, 1, 6.123233995736766e-17, 23.5, 236.5)" fill-opacity="1">R/σ</text><path fill="none" stroke="rgb(255,0,0)" paint-order="fill" d="M 57.5 193.01420358595297 L 470.5 193.01420358595297" stroke-opacity="1" stroke-linejoin="bevel" stroke-miterlimit="10" stroke-width="3" stroke-dasharray="" clip-path="url(#TRRvyTAGTsHt)"/><path fill="none" stroke="none"/><text fill="rgb(68,68,68)" stroke="none" font-family="helvetica" font-size="12pt" font-style="normal" font-weight="bold" text-decoration="normal" x="0" y="0" text-anchor="middle" dominant-baseline="text-before-edge" transform="matrix(1, 0, 0, 1, 264, 5.5)" fill-opacity="1">Error weighted residuals for P(r) fit (SASDBV9)</text></svg>