<svg version="1.1" xmlns="http://www.w3.org/2000/svg" xmlns:xlink="http://www.w3.org/1999/xlink" width="500" height="500"><defs><clipPath id="tILUzCWlikFJ"><path fill="none" stroke="none" d="M 67.5 33.5 L 470.5 33.5 L 470.5 439.5 L 67.5 439.5 L 67.5 33.5"/></clipPath><clipPath id="aLulKaRNaTgJ"><path fill="none" stroke="none" d="M 67.5 33.5 L 470.5 33.5 L 470.5 439.5 L 67.5 439.5 L 67.5 33.5"/></clipPath><clipPath id="ZaAOKXzLeVDO"><path fill="none" stroke="none" d="M 67.5 33.5 L 470.5 33.5 L 470.5 439.5 L 67.5 439.5 L 67.5 33.5"/></clipPath><clipPath id="VNbIcWcNfCGf"><path fill="none" stroke="none" d="M 67.5 33.5 L 470.5 33.5 L 470.5 439.5 L 67.5 439.5 L 67.5 33.5"/></clipPath><clipPath id="QPboQfvTCVqi"><path fill="none" stroke="none" d="M 67.5 33.5 L 470.5 33.5 L 470.5 439.5 L 67.5 439.5 L 67.5 33.5"/></clipPath><clipPath id="FRCBrrMVdlIA"><path fill="none" stroke="none" d="M 67.5 33.5 L 470.5 33.5 L 470.5 439.5 L 67.5 439.5 L 67.5 33.5"/></clipPath></defs><path fill="rgb(255,255,255)" stroke="none" paint-order="stroke" d="M 0.5 0.5 L 500.5 0.5 L 500.5 500.5 L 0.5 500.5 L 0.5 0.5" fill-opacity="1"/><rect fill="#FFFFFF" stroke="none" x="67" y="33" width="403" height="406" transform="matrix(1, 0, 0, 1, 0.5, 0.5)"/><path fill="rgb(255,255,255)" stroke="none" paint-order="stroke" d="M 67.5 33.5 L 470.5 33.5 L 470.5 439.5 L 67.5 439.5 L 67.5 33.5" fill-opacity="1"/><path fill="none" stroke="rgb(229,229,229)" paint-order="fill" d="M 67.5 33.5 L 470.5 33.5 L 470.5 439.5 L 67.5 439.5 L 67.5 33.5" stroke-opacity="1" stroke-linejoin="bevel" stroke-miterlimit="10" stroke-dasharray=""/><path fill="none" stroke="rgb(229,229,229)" paint-order="fill" d="M 84.5 439.5 L 84.5 33.5 M 148.5 439.5 L 148.5 33.5 M 211.5 439.5 L 211.5 33.5 M 275.5 439.5 L 275.5 33.5 M 338.5 439.5 L 338.5 33.5 M 402.5 439.5 L 402.5 33.5 M 465.5 439.5 L 465.5 33.5" stroke-opacity="1" stroke-linejoin="bevel" stroke-miterlimit="10" stroke-dasharray="" clip-path="url(#tILUzCWlikFJ)"/><path fill="none" stroke="rgb(229,229,229)" paint-order="fill" d="M 67.5 430.5 L 470.5 430.5 M 67.5 336.5 L 470.5 336.5 M 67.5 241.5 L 470.5 241.5 M 67.5 146.5 L 470.5 146.5 M 67.5 51.5 L 470.5 51.5" stroke-opacity="1" stroke-linejoin="bevel" stroke-miterlimit="10" stroke-dasharray="" clip-path="url(#aLulKaRNaTgJ)"/><path fill="none" stroke="none"/><path fill="rgb(0,0,255)" stroke="rgb(0,0,255)" paint-order="fill" d="M 88.31818389892578 51.95454406738281 A 2.5 2.5 0 1 1 88.31818264892588 51.95204406779948" fill-opacity="0.3" clip-path="url(#ZaAOKXzLeVDO)" stroke-opacity="1" stroke-linejoin="bevel" stroke-miterlimit="10" stroke-dasharray=""/><path fill="rgb(0,0,255)" stroke="rgb(0,0,255)" paint-order="fill" d="M 105.31485748291016 79.90933227539062 A 2.5 2.5 0 1 1 105.31485623291026 79.90683227580729" fill-opacity="0.3" clip-path="url(#ZaAOKXzLeVDO)" stroke-opacity="1" stroke-linejoin="bevel" stroke-miterlimit="10" stroke-dasharray=""/><path fill="rgb(0,0,255)" stroke="rgb(0,0,255)" paint-order="fill" d="M 123.37252044677734 107.23592376708984 A 2.5 2.5 0 1 1 123.37251919677745 107.23342376750651" fill-opacity="0.3" clip-path="url(#ZaAOKXzLeVDO)" stroke-opacity="1" stroke-linejoin="bevel" stroke-miterlimit="10" stroke-dasharray=""/><path fill="rgb(0,0,255)" stroke="rgb(0,0,255)" paint-order="fill" d="M 142.49114990234375 110.55319213867188 A 2.5 2.5 0 1 1 142.49114865234387 110.55069213908854" fill-opacity="0.3" clip-path="url(#ZaAOKXzLeVDO)" stroke-opacity="1" stroke-linejoin="bevel" stroke-miterlimit="10" stroke-dasharray=""/><path fill="rgb(0,0,255)" stroke="rgb(0,0,255)" paint-order="fill" d="M 162.67303466796875 136.32948303222656 A 2.5 2.5 0 1 1 162.67303341796887 136.32698303264323" fill-opacity="0.3" clip-path="url(#ZaAOKXzLeVDO)" stroke-opacity="1" stroke-linejoin="bevel" stroke-miterlimit="10" stroke-dasharray=""/><path fill="rgb(0,0,255)" stroke="rgb(0,0,255)" paint-order="fill" d="M 183.9137420654297 162.21905517578125 A 2.5 2.5 0 1 1 183.9137408154298 162.21655517619791" fill-opacity="0.3" clip-path="url(#ZaAOKXzLeVDO)" stroke-opacity="1" stroke-linejoin="bevel" stroke-miterlimit="10" stroke-dasharray=""/><path fill="rgb(0,0,255)" stroke="rgb(0,0,255)" paint-order="fill" d="M 206.21543884277344 180.45628356933594 A 2.5 2.5 0 1 1 206.21543759277355 180.4537835697526" fill-opacity="0.3" clip-path="url(#ZaAOKXzLeVDO)" stroke-opacity="1" stroke-linejoin="bevel" stroke-miterlimit="10" stroke-dasharray=""/><path fill="rgb(0,0,255)" stroke="rgb(0,0,255)" paint-order="fill" d="M 229.57810974121094 194.1474151611328 A 2.5 2.5 0 1 1 229.57810849121105 194.14491516154948" fill-opacity="0.3" clip-path="url(#ZaAOKXzLeVDO)" stroke-opacity="1" stroke-linejoin="bevel" stroke-miterlimit="10" stroke-dasharray=""/><path fill="rgb(0,0,255)" stroke="rgb(0,0,255)" paint-order="fill" d="M 254.0017547607422 229.2279815673828 A 2.5 2.5 0 1 1 254.0017535107423 229.22548156779948" fill-opacity="0.3" clip-path="url(#ZaAOKXzLeVDO)" stroke-opacity="1" stroke-linejoin="bevel" stroke-miterlimit="10" stroke-dasharray=""/><path fill="rgb(0,0,255)" stroke="rgb(0,0,255)" paint-order="fill" d="M 279.4892272949219 268.78118896484375 A 2.5 2.5 0 1 1 279.48922604492196 268.7786889652604" fill-opacity="0.3" clip-path="url(#ZaAOKXzLeVDO)" stroke-opacity="1" stroke-linejoin="bevel" stroke-miterlimit="10" stroke-dasharray=""/><path fill="rgb(0,0,255)" stroke="rgb(0,0,255)" paint-order="fill" d="M 306.03497314453125 293.6210632324219 A 2.5 2.5 0 1 1 306.03497189453134 293.61856323283854" fill-opacity="0.3" clip-path="url(#ZaAOKXzLeVDO)" stroke-opacity="1" stroke-linejoin="bevel" stroke-miterlimit="10" stroke-dasharray=""/><path fill="rgb(0,0,255)" stroke="rgb(0,0,255)" paint-order="fill" d="M 333.64166259765625 308.8625183105469 A 2.5 2.5 0 1 1 333.64166134765634 308.86001831096354" fill-opacity="0.3" clip-path="url(#ZaAOKXzLeVDO)" stroke-opacity="1" stroke-linejoin="bevel" stroke-miterlimit="10" stroke-dasharray=""/><path fill="rgb(0,0,255)" stroke="rgb(0,0,255)" paint-order="fill" d="M 362.3093566894531 332.0906066894531 A 2.5 2.5 0 1 1 362.3093554394532 332.0881066898698" fill-opacity="0.3" clip-path="url(#ZaAOKXzLeVDO)" stroke-opacity="1" stroke-linejoin="bevel" stroke-miterlimit="10" stroke-dasharray=""/><path fill="rgb(0,0,255)" stroke="rgb(0,0,255)" paint-order="fill" d="M 392.04132080078125 352.0115966796875 A 2.5 2.5 0 1 1 392.04131955078134 352.00909668010416" fill-opacity="0.3" clip-path="url(#ZaAOKXzLeVDO)" stroke-opacity="1" stroke-linejoin="bevel" stroke-miterlimit="10" stroke-dasharray=""/><path fill="rgb(0,0,255)" stroke="rgb(0,0,255)" paint-order="fill" d="M 422.8310852050781 384.1834411621094 A 2.5 2.5 0 1 1 422.8310839550782 384.18094116252604" fill-opacity="0.3" clip-path="url(#ZaAOKXzLeVDO)" stroke-opacity="1" stroke-linejoin="bevel" stroke-miterlimit="10" stroke-dasharray=""/><path fill="rgb(0,0,255)" stroke="rgb(0,0,255)" paint-order="fill" d="M 454.68182373046875 411.07061767578125 A 2.5 2.5 0 1 1 454.68182248046884 411.0681176761979" fill-opacity="0.3" clip-path="url(#ZaAOKXzLeVDO)" stroke-opacity="1" stroke-linejoin="bevel" stroke-miterlimit="10" stroke-dasharray=""/><path fill="none" stroke="none"/><path fill="none" stroke="rgb(255,0,0)" paint-order="fill" d="M 85.81818389892578 65.34220886230469 L 102.81485748291016 81.84431457519531 L 120.87252044677734 99.37653350830078 L 139.99114990234375 117.9388656616211 L 160.17303466796875 137.5334930419922 L 181.4137420654297 158.15614318847656 L 203.71543884277344 179.8089141845703 L 227.07810974121094 202.4917755126953 L 251.5017547607422 226.20474243164062 L 276.9892272949219 250.95059204101562 L 303.53497314453125 276.7239074707031 L 331.14166259765625 303.5273132324219 L 359.8093566894531 331.3608093261719 L 389.54132080078125 360.2276611328125 L 420.3310852050781 390.1214904785156 L 452.18182373046875 421.0454406738281" stroke-opacity="1" stroke-linejoin="bevel" stroke-miterlimit="10" stroke-width="3" stroke-dasharray="" clip-path="url(#VNbIcWcNfCGf)"/><path fill="none" stroke="rgb(0,0,0)" paint-order="fill" d="M 67.5 439.5 L 470.5 439.5" stroke-opacity="1" stroke-linejoin="bevel" stroke-miterlimit="10" stroke-dasharray=""/><path fill="none" stroke="rgb(0,0,0)" paint-order="fill" d="M 84.5 445.5 L 84.5 437.5 M 148.5 445.5 L 148.5 437.5 M 211.5 445.5 L 211.5 437.5 M 275.5 445.5 L 275.5 437.5 M 338.5 445.5 L 338.5 437.5 M 402.5 445.5 L 402.5 437.5 M 465.5 445.5 L 465.5 437.5" stroke-opacity="1" stroke-linejoin="bevel" stroke-miterlimit="10" stroke-dasharray=""/><path fill="none" stroke="rgb(0,0,0)" paint-order="fill" d="M 72.5 443.5 L 72.5 439.5 M 84.5 443.5 L 84.5 439.5 M 97.5 443.5 L 97.5 439.5 M 110.5 443.5 L 110.5 439.5 M 123.5 443.5 L 123.5 439.5 M 135.5 443.5 L 135.5 439.5 M 148.5 443.5 L 148.5 439.5 M 161.5 443.5 L 161.5 439.5 M 173.5 443.5 L 173.5 439.5 M 186.5 443.5 L 186.5 439.5 M 199.5 443.5 L 199.5 439.5 M 211.5 443.5 L 211.5 439.5 M 224.5 443.5 L 224.5 439.5 M 237.5 443.5 L 237.5 439.5 M 250.5 443.5 L 250.5 439.5 M 262.5 443.5 L 262.5 439.5 M 275.5 443.5 L 275.5 439.5 M 288.5 443.5 L 288.5 439.5 M 300.5 443.5 L 300.5 439.5 M 313.5 443.5 L 313.5 439.5 M 326.5 443.5 L 326.5 439.5 M 338.5 443.5 L 338.5 439.5 M 351.5 443.5 L 351.5 439.5 M 364.5 443.5 L 364.5 439.5 M 376.5 443.5 L 376.5 439.5 M 389.5 443.5 L 389.5 439.5 M 402.5 443.5 L 402.5 439.5 M 415.5 443.5 L 415.5 439.5 M 427.5 443.5 L 427.5 439.5 M 440.5 443.5 L 440.5 439.5 M 453.5 443.5 L 453.5 439.5 M 465.5 443.5 L 465.5 439.5" stroke-opacity="1" stroke-linejoin="bevel" stroke-miterlimit="10" stroke-dasharray=""/><text fill="rgb(68,68,68)" stroke="none" font-family="helvetica" font-size="14pt" font-style="normal" font-weight="normal" text-decoration="normal" x="0" y="0" text-anchor="middle" dominant-baseline="hanging" transform="matrix(1, 0, 0, 1, 84.5, 450.5)" fill-opacity="1">2</text><text fill="rgb(68,68,68)" stroke="none" font-family="helvetica" font-size="14pt" font-style="normal" font-weight="normal" text-decoration="normal" x="0" y="0" text-anchor="middle" dominant-baseline="hanging" transform="matrix(1, 0, 0, 1, 148.5, 450.5)" fill-opacity="1">3</text><text fill="rgb(68,68,68)" stroke="none" font-family="helvetica" font-size="14pt" font-style="normal" font-weight="normal" text-decoration="normal" x="0" y="0" text-anchor="middle" dominant-baseline="hanging" transform="matrix(1, 0, 0, 1, 211.5, 450.5)" fill-opacity="1">4</text><text fill="rgb(68,68,68)" stroke="none" font-family="helvetica" font-size="14pt" font-style="normal" font-weight="normal" text-decoration="normal" x="0" y="0" text-anchor="middle" dominant-baseline="hanging" transform="matrix(1, 0, 0, 1, 275.5, 450.5)" fill-opacity="1">5</text><text fill="rgb(68,68,68)" stroke="none" font-family="helvetica" font-size="14pt" font-style="normal" font-weight="normal" text-decoration="normal" x="0" y="0" text-anchor="middle" dominant-baseline="hanging" transform="matrix(1, 0, 0, 1, 338.5, 450.5)" fill-opacity="1">6</text><text fill="rgb(68,68,68)" stroke="none" font-family="helvetica" font-size="14pt" font-style="normal" font-weight="normal" text-decoration="normal" x="0" y="0" text-anchor="middle" dominant-baseline="hanging" transform="matrix(1, 0, 0, 1, 402.5, 450.5)" fill-opacity="1">7</text><text fill="rgb(68,68,68)" stroke="none" font-family="helvetica" font-size="14pt" font-style="normal" font-weight="normal" text-decoration="normal" x="0" y="0" text-anchor="middle" dominant-baseline="hanging" transform="matrix(1, 0, 0, 1, 465.5, 450.5)" fill-opacity="1">8</text><text fill="rgb(68,68,68)" stroke="none" font-family="helvetica" font-size="14pt" font-style="italic" font-weight="normal" text-decoration="normal" x="0" y="0" text-anchor="middle" dominant-baseline="hanging" transform="matrix(1, 0, 0, 1, 269.5, 477.5)" fill-opacity="1">q² [nm ²]</text><path fill="none" stroke="rgb(0,0,0)" paint-order="fill" d="M 67.5 439.5 L 67.5 33.5" stroke-opacity="1" stroke-linejoin="bevel" stroke-miterlimit="10" stroke-dasharray=""/><path fill="none" stroke="rgb(0,0,0)" paint-order="fill" d="M 61.5 430.5 L 69.5 430.5 M 61.5 336.5 L 69.5 336.5 M 61.5 241.5 L 69.5 241.5 M 61.5 146.5 L 69.5 146.5 M 61.5 51.5 L 69.5 51.5" stroke-opacity="1" stroke-linejoin="bevel" stroke-miterlimit="10" stroke-dasharray=""/><path fill="none" stroke="rgb(0,0,0)" paint-order="fill" d="M 63.5 430.5 L 67.5 430.5 M 63.5 412.5 L 67.5 412.5 M 63.5 393.5 L 67.5 393.5 M 63.5 374.5 L 67.5 374.5 M 63.5 355.5 L 67.5 355.5 M 63.5 336.5 L 67.5 336.5 M 63.5 317.5 L 67.5 317.5 M 63.5 298.5 L 67.5 298.5 M 63.5 279.5 L 67.5 279.5 M 63.5 260.5 L 67.5 260.5 M 63.5 241.5 L 67.5 241.5 M 63.5 222.5 L 67.5 222.5 M 63.5 203.5 L 67.5 203.5 M 63.5 184.5 L 67.5 184.5 M 63.5 165.5 L 67.5 165.5 M 63.5 146.5 L 67.5 146.5 M 63.5 127.5 L 67.5 127.5 M 63.5 108.5 L 67.5 108.5 M 63.5 89.5 L 67.5 89.5 M 63.5 70.5 L 67.5 70.5 M 63.5 51.5 L 67.5 51.5" stroke-opacity="1" stroke-linejoin="bevel" stroke-miterlimit="10" stroke-dasharray=""/><text fill="rgb(68,68,68)" stroke="none" font-family="helvetica" font-size="14pt" font-style="normal" font-weight="normal" text-decoration="normal" x="0" y="0" text-anchor="end" dominant-baseline="central" transform="matrix(1, 0, 0, 1, 56.5, 430.5)" fill-opacity="1">6.2</text><text fill="rgb(68,68,68)" stroke="none" font-family="helvetica" font-size="14pt" font-style="normal" font-weight="normal" text-decoration="normal" x="0" y="0" text-anchor="end" dominant-baseline="central" transform="matrix(1, 0, 0, 1, 56.5, 336.5)" fill-opacity="1">6.3</text><text fill="rgb(68,68,68)" stroke="none" font-family="helvetica" font-size="14pt" font-style="normal" font-weight="normal" text-decoration="normal" x="0" y="0" text-anchor="end" dominant-baseline="central" transform="matrix(1, 0, 0, 1, 56.5, 241.5)" fill-opacity="1">6.4</text><text fill="rgb(68,68,68)" stroke="none" font-family="helvetica" font-size="14pt" font-style="normal" font-weight="normal" text-decoration="normal" x="0" y="0" text-anchor="end" dominant-baseline="central" transform="matrix(1, 0, 0, 1, 56.5, 146.5)" fill-opacity="1">6.5</text><text fill="rgb(68,68,68)" stroke="none" font-family="helvetica" font-size="14pt" font-style="normal" font-weight="normal" text-decoration="normal" x="0" y="0" text-anchor="end" dominant-baseline="central" transform="matrix(1, 0, 0, 1, 56.5, 51.5)" fill-opacity="1">6.6</text><text fill="rgb(68,68,68)" stroke="none" font-family="helvetica" font-size="14pt" font-style="italic" font-weight="normal" text-decoration="normal" x="0" y="0" text-anchor="middle" dominant-baseline="alphabetic" transform="matrix(6.123233995736766e-17, -1, 1, 6.123233995736766e-17, 22.5, 236.5)" fill-opacity="1">Log I(q)</text><path fill="rgb(255,255,255)" stroke="rgb(229,229,229)" paint-order="fill" d="M 310.68333435058594 43.5 L 460.5 43.5 L 460.5 106.5 L 310.68333435058594 106.5 L 310.68333435058594 43.5" fill-opacity="0.95" clip-path="url(#QPboQfvTCVqi)" stroke-opacity="0.5" stroke-linejoin="bevel" stroke-miterlimit="10" stroke-dasharray=""/><text fill="rgb(68,68,68)" stroke="none" font-family="helvetica" font-size="13px" font-style="normal" font-weight="normal" text-decoration="normal" x="345.18333435058594" y="63" text-anchor="start" dominant-baseline="central" transform="matrix(1, 0, 0, 1, 0.5, 0.5)" fill-opacity="1">Experimental data</text><path fill="rgb(0,0,255)" stroke="rgb(0,0,255)" paint-order="fill" d="M 334.68333435058594 63.5 A 4 4 0 1 1 334.6833323505861 63.49600000066666" fill-opacity="0.3" clip-path="url(#QPboQfvTCVqi)" stroke-opacity="1" stroke-linejoin="bevel" stroke-miterlimit="10" stroke-dasharray=""/><text fill="rgb(68,68,68)" stroke="none" font-family="helvetica" font-size="13px" font-style="normal" font-weight="normal" text-decoration="normal" x="345.18333435058594" y="86" text-anchor="start" dominant-baseline="central" transform="matrix(1, 0, 0, 1, 0.5, 0.5)" fill-opacity="1">Linear fit</text><path fill="none" stroke="rgb(255,0,0)" paint-order="fill" d="M 320.68333435058594 86.5 L 340.68333435058594 86.5" stroke-opacity="1" stroke-linejoin="bevel" stroke-miterlimit="10" stroke-width="3" stroke-dasharray="" clip-path="url(#QPboQfvTCVqi)"/><path fill="none" stroke="none"/><text fill="rgb(68,68,68)" stroke="none" font-family="helvetica" font-size="12pt" font-style="normal" font-weight="bold" text-decoration="normal" x="0" y="0" text-anchor="middle" dominant-baseline="text-before-edge" transform="matrix(1, 0, 0, 1, 269, 5.5)" fill-opacity="1">Guinier plot for SASDBZ9 (R²=0.99)</text></svg>