<svg version="1.1" xmlns="http://www.w3.org/2000/svg" xmlns:xlink="http://www.w3.org/1999/xlink" width="700" height="250"><defs><clipPath id="TpbUegUVysdL"><path fill="none" stroke="none" d="M 54.5 37.5 L 670.5 37.5 L 670.5 198.5 L 54.5 198.5 L 54.5 37.5"/></clipPath><clipPath id="FutMSTastTqu"><path fill="none" stroke="none" d="M 54.5 37.5 L 670.5 37.5 L 670.5 198.5 L 54.5 198.5 L 54.5 37.5"/></clipPath><clipPath id="ufQOWVITIROI"><path fill="none" stroke="none" d="M 54.5 37.5 L 670.5 37.5 L 670.5 198.5 L 54.5 198.5 L 54.5 37.5"/></clipPath><clipPath id="DzmVJDppeMxT"><path fill="none" stroke="none" d="M 54.5 37.5 L 670.5 37.5 L 670.5 198.5 L 54.5 198.5 L 54.5 37.5"/></clipPath><clipPath id="vsiXvBMEugsT"><path fill="none" stroke="none" d="M 54.5 37.5 L 670.5 37.5 L 670.5 198.5 L 54.5 198.5 L 54.5 37.5"/></clipPath></defs><path fill="rgb(255,255,255)" stroke="none" paint-order="stroke" d="M 0.5 0.5 L 700.5 0.5 L 700.5 250.5 L 0.5 250.5 L 0.5 0.5" fill-opacity="1"/><rect fill="#FFFFFF" stroke="none" x="54" y="37" width="616" height="161" transform="matrix(1, 0, 0, 1, 0.5, 0.5)"/><path fill="rgb(255,255,255)" stroke="none" paint-order="stroke" d="M 54.5 37.5 L 670.5 37.5 L 670.5 198.5 L 54.5 198.5 L 54.5 37.5" fill-opacity="1"/><path fill="none" stroke="rgb(229,229,229)" paint-order="fill" d="M 54.5 37.5 L 670.5 37.5 L 670.5 198.5 L 54.5 198.5 L 54.5 37.5" stroke-opacity="1" stroke-linejoin="bevel" stroke-miterlimit="10" stroke-dasharray=""/><path fill="none" stroke="rgb(229,229,229)" paint-order="fill" d="M 116.5 198.5 L 116.5 37.5 M 193.5 198.5 L 193.5 37.5 M 270.5 198.5 L 270.5 37.5 M 347.5 198.5 L 347.5 37.5 M 424.5 198.5 L 424.5 37.5 M 501.5 198.5 L 501.5 37.5 M 578.5 198.5 L 578.5 37.5 M 655.5 198.5 L 655.5 37.5" stroke-opacity="1" stroke-linejoin="bevel" stroke-miterlimit="10" stroke-dasharray="" clip-path="url(#TpbUegUVysdL)"/><path fill="none" stroke="none"/><path fill="rgb(68,1,84)" stroke="none" paint-order="stroke" d="M 54.5 77.75 L 362.5 77.75 L 362.5 158.25 L 54.5 158.25 L 54.5 77.75" fill-opacity="0.8" clip-path="url(#ufQOWVITIROI)"/><path fill="none" stroke="rgb(68,1,84)" paint-order="fill" d="M 54.5 77.75 L 362.5 77.75 L 362.5 158.25 L 54.5 158.25 L 54.5 77.75" stroke-opacity="0.8" stroke-linejoin="bevel" stroke-miterlimit="10" stroke-dasharray="" clip-path="url(#ufQOWVITIROI)"/><path fill="none" stroke="rgb(0,0,0)" paint-order="fill" d="M 54.5 198.5 L 670.5 198.5" stroke-opacity="1" stroke-linejoin="bevel" stroke-miterlimit="10" stroke-dasharray=""/><path fill="none" stroke="rgb(0,0,0)" paint-order="fill" d="M 116.5 204.5 L 116.5 196.5 M 193.5 204.5 L 193.5 196.5 M 270.5 204.5 L 270.5 196.5 M 347.5 204.5 L 347.5 196.5 M 424.5 204.5 L 424.5 196.5 M 501.5 204.5 L 501.5 196.5 M 578.5 204.5 L 578.5 196.5 M 655.5 204.5 L 655.5 196.5" stroke-opacity="1" stroke-linejoin="bevel" stroke-miterlimit="10" stroke-dasharray=""/><path fill="none" stroke="rgb(0,0,0)" paint-order="fill" d="M 100.5 202.5 L 100.5 198.5 M 85.5 202.5 L 85.5 198.5 M 69.5 202.5 L 69.5 198.5 M 54.5 202.5 L 54.5 198.5 M 116.5 202.5 L 116.5 198.5 M 131.5 202.5 L 131.5 198.5 M 146.5 202.5 L 146.5 198.5 M 162.5 202.5 L 162.5 198.5 M 177.5 202.5 L 177.5 198.5 M 193.5 202.5 L 193.5 198.5 M 208.5 202.5 L 208.5 198.5 M 223.5 202.5 L 223.5 198.5 M 239.5 202.5 L 239.5 198.5 M 254.5 202.5 L 254.5 198.5 M 270.5 202.5 L 270.5 198.5 M 285.5 202.5 L 285.5 198.5 M 300.5 202.5 L 300.5 198.5 M 316.5 202.5 L 316.5 198.5 M 331.5 202.5 L 331.5 198.5 M 347.5 202.5 L 347.5 198.5 M 362.5 202.5 L 362.5 198.5 M 377.5 202.5 L 377.5 198.5 M 393.5 202.5 L 393.5 198.5 M 408.5 202.5 L 408.5 198.5 M 424.5 202.5 L 424.5 198.5 M 439.5 202.5 L 439.5 198.5 M 454.5 202.5 L 454.5 198.5 M 470.5 202.5 L 470.5 198.5 M 485.5 202.5 L 485.5 198.5 M 501.5 202.5 L 501.5 198.5 M 516.5 202.5 L 516.5 198.5 M 531.5 202.5 L 531.5 198.5 M 547.5 202.5 L 547.5 198.5 M 562.5 202.5 L 562.5 198.5 M 578.5 202.5 L 578.5 198.5 M 593.5 202.5 L 593.5 198.5 M 608.5 202.5 L 608.5 198.5 M 624.5 202.5 L 624.5 198.5 M 639.5 202.5 L 639.5 198.5 M 655.5 202.5 L 655.5 198.5 M 670.5 202.5 L 670.5 198.5" stroke-opacity="1" stroke-linejoin="bevel" stroke-miterlimit="10" stroke-dasharray=""/><text fill="rgb(68,68,68)" stroke="none" font-family="helvetica" font-size="11px" font-style="normal" font-weight="normal" text-decoration="normal" x="0" y="0" text-anchor="middle" dominant-baseline="hanging" transform="matrix(1, 0, 0, 1, 116.5, 209.5)" fill-opacity="1">76305</text><text fill="rgb(68,68,68)" stroke="none" font-family="helvetica" font-size="11px" font-style="normal" font-weight="normal" text-decoration="normal" x="0" y="0" text-anchor="middle" dominant-baseline="hanging" transform="matrix(1, 0, 0, 1, 193.5, 209.5)" fill-opacity="1">76310</text><text fill="rgb(68,68,68)" stroke="none" font-family="helvetica" font-size="11px" font-style="normal" font-weight="normal" text-decoration="normal" x="0" y="0" text-anchor="middle" dominant-baseline="hanging" transform="matrix(1, 0, 0, 1, 270.5, 209.5)" fill-opacity="1">76315</text><text fill="rgb(68,68,68)" stroke="none" font-family="helvetica" font-size="11px" font-style="normal" font-weight="normal" text-decoration="normal" x="0" y="0" text-anchor="middle" dominant-baseline="hanging" transform="matrix(1, 0, 0, 1, 347.5, 209.5)" fill-opacity="1">76320</text><text fill="rgb(68,68,68)" stroke="none" font-family="helvetica" font-size="11px" font-style="normal" font-weight="normal" text-decoration="normal" x="0" y="0" text-anchor="middle" dominant-baseline="hanging" transform="matrix(1, 0, 0, 1, 424.5, 209.5)" fill-opacity="1">76325</text><text fill="rgb(68,68,68)" stroke="none" font-family="helvetica" font-size="11px" font-style="normal" font-weight="normal" text-decoration="normal" x="0" y="0" text-anchor="middle" dominant-baseline="hanging" transform="matrix(1, 0, 0, 1, 501.5, 209.5)" fill-opacity="1">76330</text><text fill="rgb(68,68,68)" stroke="none" font-family="helvetica" font-size="11px" font-style="normal" font-weight="normal" text-decoration="normal" x="0" y="0" text-anchor="middle" dominant-baseline="hanging" transform="matrix(1, 0, 0, 1, 578.5, 209.5)" fill-opacity="1">76335</text><text fill="rgb(68,68,68)" stroke="none" font-family="helvetica" font-size="11px" font-style="normal" font-weight="normal" text-decoration="normal" x="0" y="0" text-anchor="middle" dominant-baseline="hanging" transform="matrix(1, 0, 0, 1, 655.5, 209.5)" fill-opacity="1">76340</text><text fill="rgb(68,68,68)" stroke="none" font-family="helvetica" font-size="14pt" font-style="italic" font-weight="normal" text-decoration="normal" x="0" y="0" text-anchor="middle" dominant-baseline="hanging" transform="matrix(1, 0, 0, 1, 362.5, 227.5)" fill-opacity="1">Number of violations</text><path fill="none" stroke="rgb(0,0,0)" paint-order="fill" d="M 54.5 198.5 L 54.5 37.5" stroke-opacity="1" stroke-linejoin="bevel" stroke-miterlimit="10" stroke-dasharray=""/><path fill="none" stroke="rgb(0,0,0)" paint-order="fill" d="M 48.5 118.5 L 56.5 118.5" stroke-opacity="1" stroke-linejoin="bevel" stroke-miterlimit="10" stroke-dasharray=""/><path fill="none" stroke="rgb(0,0,0)" paint-order="fill" d="" stroke-opacity="1" stroke-linejoin="bevel" stroke-miterlimit="10" stroke-dasharray=""/><text fill="rgb(68,68,68)" stroke="none" font-family="helvetica" font-size="11px" font-style="normal" font-weight="normal" text-decoration="normal" x="0" y="0" text-anchor="end" dominant-baseline="central" transform="matrix(1, 0, 0, 1, 43.5, 118.5)" fill-opacity="1">Model 1</text><path fill="rgb(255,255,255)" stroke="rgb(229,229,229)" paint-order="fill" d="M 525.8333358764648 47.5 L 660.5 47.5 L 660.5 87.5 L 525.8333358764648 87.5 L 525.8333358764648 47.5" fill-opacity="0.95" clip-path="url(#DzmVJDppeMxT)" stroke-opacity="0.5" stroke-linejoin="bevel" stroke-miterlimit="10" stroke-dasharray=""/><text fill="rgb(68,68,68)" stroke="none" font-family="helvetica" font-size="13px" font-style="normal" font-weight="normal" text-decoration="normal" x="560.3333358764648" y="67" text-anchor="start" dominant-baseline="central" transform="matrix(1, 0, 0, 1, 0.5, 0.5)" fill-opacity="1">Model 1: 76321</text><path fill="rgb(68,1,84)" stroke="none" paint-order="stroke" d="M 537.8333358764648 59.5 L 553.8333358764648 59.5 L 553.8333358764648 75.5 L 537.8333358764648 75.5 L 537.8333358764648 59.5" fill-opacity="0.8" clip-path="url(#DzmVJDppeMxT)"/><path fill="none" stroke="rgb(68,1,84)" paint-order="fill" d="M 537.8333358764648 59.5 L 553.8333358764648 59.5 L 553.8333358764648 75.5 L 537.8333358764648 75.5 L 537.8333358764648 59.5" stroke-opacity="0.8" stroke-linejoin="bevel" stroke-miterlimit="10" stroke-dasharray="" clip-path="url(#DzmVJDppeMxT)"/><path fill="none" stroke="none"/><text fill="rgb(68,68,68)" stroke="none" font-family="helvetica" font-size="14pt" font-style="normal" font-weight="bold" text-decoration="normal" x="0" y="0" text-anchor="middle" dominant-baseline="text-before-edge" transform="matrix(1, 0, 0, 1, 362.5, 5.5)" fill-opacity="1">Model quality: Excluded Volume Analysis</text></svg>