<svg version="1.1" xmlns="http://www.w3.org/2000/svg" xmlns:xlink="http://www.w3.org/1999/xlink" width="700" height="300"><defs><clipPath id="lUICNeakVpkV"><path fill="none" stroke="none" d="M 157.5 37.5 L 670.5 37.5 L 670.5 207.5 L 157.5 207.5 L 157.5 37.5"/></clipPath><clipPath id="ReXdlimmVmsv"><path fill="none" stroke="none" d="M 157.5 37.5 L 670.5 37.5 L 670.5 207.5 L 157.5 207.5 L 157.5 37.5"/></clipPath><clipPath id="IoKkXxswPTub"><path fill="none" stroke="none" d="M 157.5 37.5 L 670.5 37.5 L 670.5 207.5 L 157.5 207.5 L 157.5 37.5"/></clipPath><clipPath id="ELvoGivVCXlp"><path fill="none" stroke="none" d="M 157.5 37.5 L 670.5 37.5 L 670.5 207.5 L 157.5 207.5 L 157.5 37.5"/></clipPath></defs><path fill="rgb(255,255,255)" stroke="none" paint-order="stroke" d="M 0.5 0.5 L 700.5 0.5 L 700.5 300.5 L 0.5 300.5 L 0.5 0.5" fill-opacity="1"/><rect fill="#FFFFFF" stroke="none" x="157" y="37" width="513" height="170" transform="matrix(1, 0, 0, 1, 0.5, 0.5)"/><path fill="rgb(255,255,255)" stroke="none" paint-order="stroke" d="M 157.5 37.5 L 670.5 37.5 L 670.5 207.5 L 157.5 207.5 L 157.5 37.5" fill-opacity="1"/><path fill="none" stroke="rgb(229,229,229)" paint-order="fill" d="M 157.5 37.5 L 670.5 37.5 L 670.5 207.5 L 157.5 207.5 L 157.5 37.5" stroke-opacity="1" stroke-linejoin="bevel" stroke-miterlimit="10" stroke-dasharray=""/><path fill="none" stroke="rgb(229,229,229)" paint-order="fill" d="M 227.5 207.5 L 227.5 37.5 M 297.5 207.5 L 297.5 37.5 M 367.5 207.5 L 367.5 37.5 M 437.5 207.5 L 437.5 37.5 M 507.5 207.5 L 507.5 37.5 M 577.5 207.5 L 577.5 37.5 M 646.5 207.5 L 646.5 37.5" stroke-opacity="1" stroke-linejoin="bevel" stroke-miterlimit="10" stroke-dasharray="" clip-path="url(#lUICNeakVpkV)"/><path fill="none" stroke="none"/><path fill="rgb(68,1,84)" stroke="none" paint-order="stroke" d="M 157.5 183.21429443359375 L 654.2786865234375 183.21429443359375 L 654.2786865234375 207.5 L 157.5 207.5 L 157.5 183.21429443359375" fill-opacity="0.8" clip-path="url(#IoKkXxswPTub)"/><path fill="none" stroke="rgb(68,1,84)" paint-order="fill" d="M 157.5 183.21429443359375 L 654.2786865234375 183.21429443359375 L 654.2786865234375 207.5 L 157.5 207.5 L 157.5 183.21429443359375" stroke-opacity="0.8" stroke-linejoin="bevel" stroke-miterlimit="10" stroke-dasharray="" clip-path="url(#IoKkXxswPTub)"/><path fill="rgb(68,57,130)" stroke="none" paint-order="stroke" d="M 157.5 158.92857360839844 L 660.4315795898438 158.92857360839844 L 660.4315795898438 183.2142791748047 L 157.5 183.2142791748047 L 157.5 158.92857360839844" fill-opacity="0.8" clip-path="url(#IoKkXxswPTub)"/><path fill="none" stroke="rgb(68,57,130)" paint-order="fill" d="M 157.5 158.92857360839844 L 660.4315795898438 158.92857360839844 L 660.4315795898438 183.2142791748047 L 157.5 183.2142791748047 L 157.5 158.92857360839844" stroke-opacity="0.8" stroke-linejoin="bevel" stroke-miterlimit="10" stroke-dasharray="" clip-path="url(#IoKkXxswPTub)"/><path fill="rgb(48,103,141)" stroke="none" paint-order="stroke" d="M 157.5 134.64285278320312 L 663.508056640625 134.64285278320312 L 663.508056640625 158.9285888671875 L 157.5 158.9285888671875 L 157.5 134.64285278320312" fill-opacity="0.8" clip-path="url(#IoKkXxswPTub)"/><path fill="none" stroke="rgb(48,103,141)" paint-order="fill" d="M 157.5 134.64285278320312 L 663.508056640625 134.64285278320312 L 663.508056640625 158.9285888671875 L 157.5 158.9285888671875 L 157.5 134.64285278320312" stroke-opacity="0.8" stroke-linejoin="bevel" stroke-miterlimit="10" stroke-dasharray="" clip-path="url(#IoKkXxswPTub)"/><path fill="rgb(32,143,140)" stroke="none" paint-order="stroke" d="M 157.5 110.35714721679688 L 631.2750854492188 110.35714721679688 L 631.2750854492188 134.64285278320312 L 157.5 134.64285278320312 L 157.5 110.35714721679688" fill-opacity="0.8" clip-path="url(#IoKkXxswPTub)"/><path fill="none" stroke="rgb(32,143,140)" paint-order="fill" d="M 157.5 110.35714721679688 L 631.2750854492188 110.35714721679688 L 631.2750854492188 134.64285278320312 L 157.5 134.64285278320312 L 157.5 110.35714721679688" stroke-opacity="0.8" stroke-linejoin="bevel" stroke-miterlimit="10" stroke-dasharray="" clip-path="url(#IoKkXxswPTub)"/><path fill="rgb(53,183,120)" stroke="none" paint-order="stroke" d="M 157.5 86.07142639160156 L 599.1121215820312 86.07142639160156 L 599.1121215820312 110.35714721679688 L 157.5 110.35714721679688 L 157.5 86.07142639160156" fill-opacity="0.8" clip-path="url(#IoKkXxswPTub)"/><path fill="none" stroke="rgb(53,183,120)" paint-order="fill" d="M 157.5 86.07142639160156 L 599.1121215820312 86.07142639160156 L 599.1121215820312 110.35714721679688 L 157.5 110.35714721679688 L 157.5 86.07142639160156" stroke-opacity="0.8" stroke-linejoin="bevel" stroke-miterlimit="10" stroke-dasharray="" clip-path="url(#IoKkXxswPTub)"/><path fill="rgb(141,214,68)" stroke="none" paint-order="stroke" d="M 157.5 61.78571701049805 L 617.5009765625 61.78571701049805 L 617.5009765625 86.07142639160156 L 157.5 86.07142639160156 L 157.5 61.78571701049805" fill-opacity="0.8" clip-path="url(#IoKkXxswPTub)"/><path fill="none" stroke="rgb(141,214,68)" paint-order="fill" d="M 157.5 61.78571701049805 L 617.5009765625 61.78571701049805 L 617.5009765625 86.07142639160156 L 157.5 86.07142639160156 L 157.5 61.78571701049805" stroke-opacity="0.8" stroke-linejoin="bevel" stroke-miterlimit="10" stroke-dasharray="" clip-path="url(#IoKkXxswPTub)"/><path fill="rgb(253,231,36)" stroke="none" paint-order="stroke" d="M 157.5 37.5 L 517.8655395507812 37.5 L 517.8655395507812 61.78571319580078 L 157.5 61.78571319580078 L 157.5 37.5" fill-opacity="0.8" clip-path="url(#IoKkXxswPTub)"/><path fill="none" stroke="rgb(253,231,36)" paint-order="fill" d="M 157.5 37.5 L 517.8655395507812 37.5 L 517.8655395507812 61.78571319580078 L 157.5 61.78571319580078 L 157.5 37.5" stroke-opacity="0.8" stroke-linejoin="bevel" stroke-miterlimit="10" stroke-dasharray="" clip-path="url(#IoKkXxswPTub)"/><path fill="none" stroke="rgb(0,0,0)" paint-order="fill" d="M 157.5 207.5 L 670.5 207.5" stroke-opacity="1" stroke-linejoin="bevel" stroke-miterlimit="10" stroke-dasharray=""/><path fill="none" stroke="rgb(0,0,0)" paint-order="fill" d="M 157.5 213.5 L 157.5 205.5 M 227.5 213.5 L 227.5 205.5 M 297.5 213.5 L 297.5 205.5 M 367.5 213.5 L 367.5 205.5 M 437.5 213.5 L 437.5 205.5 M 507.5 213.5 L 507.5 205.5 M 577.5 213.5 L 577.5 205.5 M 646.5 213.5 L 646.5 205.5" stroke-opacity="1" stroke-linejoin="bevel" stroke-miterlimit="10" stroke-dasharray=""/><path fill="none" stroke="rgb(0,0,0)" paint-order="fill" d="M 157.5 211.5 L 157.5 207.5 M 171.5 211.5 L 171.5 207.5 M 185.5 211.5 L 185.5 207.5 M 199.5 211.5 L 199.5 207.5 M 213.5 211.5 L 213.5 207.5 M 227.5 211.5 L 227.5 207.5 M 241.5 211.5 L 241.5 207.5 M 255.5 211.5 L 255.5 207.5 M 269.5 211.5 L 269.5 207.5 M 283.5 211.5 L 283.5 207.5 M 297.5 211.5 L 297.5 207.5 M 311.5 211.5 L 311.5 207.5 M 325.5 211.5 L 325.5 207.5 M 339.5 211.5 L 339.5 207.5 M 353.5 211.5 L 353.5 207.5 M 367.5 211.5 L 367.5 207.5 M 381.5 211.5 L 381.5 207.5 M 395.5 211.5 L 395.5 207.5 M 409.5 211.5 L 409.5 207.5 M 423.5 211.5 L 423.5 207.5 M 437.5 211.5 L 437.5 207.5 M 451.5 211.5 L 451.5 207.5 M 465.5 211.5 L 465.5 207.5 M 479.5 211.5 L 479.5 207.5 M 493.5 211.5 L 493.5 207.5 M 507.5 211.5 L 507.5 207.5 M 521.5 211.5 L 521.5 207.5 M 535.5 211.5 L 535.5 207.5 M 549.5 211.5 L 549.5 207.5 M 563.5 211.5 L 563.5 207.5 M 577.5 211.5 L 577.5 207.5 M 591.5 211.5 L 591.5 207.5 M 604.5 211.5 L 604.5 207.5 M 618.5 211.5 L 618.5 207.5 M 632.5 211.5 L 632.5 207.5 M 646.5 211.5 L 646.5 207.5 M 660.5 211.5 L 660.5 207.5" stroke-opacity="1" stroke-linejoin="bevel" stroke-miterlimit="10" stroke-dasharray=""/><text fill="rgb(68,68,68)" stroke="none" font-family="helvetica" font-size="14pt" font-style="normal" font-weight="normal" text-decoration="normal" x="0" y="0" text-anchor="middle" dominant-baseline="hanging" transform="matrix(1, 0, 0, 1, 157.5, 218.5)" fill-opacity="1">0</text><text fill="rgb(68,68,68)" stroke="none" font-family="helvetica" font-size="14pt" font-style="normal" font-weight="normal" text-decoration="normal" x="0" y="0" text-anchor="middle" dominant-baseline="hanging" transform="matrix(1, 0, 0, 1, 227.5, 218.5)" fill-opacity="1">10</text><text fill="rgb(68,68,68)" stroke="none" font-family="helvetica" font-size="14pt" font-style="normal" font-weight="normal" text-decoration="normal" x="0" y="0" text-anchor="middle" dominant-baseline="hanging" transform="matrix(1, 0, 0, 1, 297.5, 218.5)" fill-opacity="1">20</text><text fill="rgb(68,68,68)" stroke="none" font-family="helvetica" font-size="14pt" font-style="normal" font-weight="normal" text-decoration="normal" x="0" y="0" text-anchor="middle" dominant-baseline="hanging" transform="matrix(1, 0, 0, 1, 367.5, 218.5)" fill-opacity="1">30</text><text fill="rgb(68,68,68)" stroke="none" font-family="helvetica" font-size="14pt" font-style="normal" font-weight="normal" text-decoration="normal" x="0" y="0" text-anchor="middle" dominant-baseline="hanging" transform="matrix(1, 0, 0, 1, 437.5, 218.5)" fill-opacity="1">40</text><text fill="rgb(68,68,68)" stroke="none" font-family="helvetica" font-size="14pt" font-style="normal" font-weight="normal" text-decoration="normal" x="0" y="0" text-anchor="middle" dominant-baseline="hanging" transform="matrix(1, 0, 0, 1, 507.5, 218.5)" fill-opacity="1">50</text><text fill="rgb(68,68,68)" stroke="none" font-family="helvetica" font-size="14pt" font-style="normal" font-weight="normal" text-decoration="normal" x="0" y="0" text-anchor="middle" dominant-baseline="hanging" transform="matrix(1, 0, 0, 1, 577.5, 218.5)" fill-opacity="1">60</text><text fill="rgb(68,68,68)" stroke="none" font-family="helvetica" font-size="14pt" font-style="normal" font-weight="normal" text-decoration="normal" x="0" y="0" text-anchor="middle" dominant-baseline="hanging" transform="matrix(1, 0, 0, 1, 646.5, 218.5)" fill-opacity="1">70</text><path fill="none" stroke="rgb(0,0,0)" paint-order="fill" d="M 157.5 207.5 L 157.5 37.5" stroke-opacity="1" stroke-linejoin="bevel" stroke-miterlimit="10" stroke-dasharray=""/><path fill="none" stroke="rgb(0,0,0)" paint-order="fill" d="M 151.5 195.5 L 159.5 195.5 M 151.5 171.5 L 159.5 171.5 M 151.5 146.5 L 159.5 146.5 M 151.5 122.5 L 159.5 122.5 M 151.5 98.5 L 159.5 98.5 M 151.5 73.5 L 159.5 73.5 M 151.5 49.5 L 159.5 49.5" stroke-opacity="1" stroke-linejoin="bevel" stroke-miterlimit="10" stroke-dasharray=""/><path fill="none" stroke="rgb(0,0,0)" paint-order="fill" d="" stroke-opacity="1" stroke-linejoin="bevel" stroke-miterlimit="10" stroke-dasharray=""/><text fill="rgb(68,68,68)" stroke="none" font-family="helvetica" font-size="14pt" font-style="normal" font-weight="normal" text-decoration="normal" x="0" y="0" text-anchor="end" dominant-baseline="central" transform="matrix(1, 0, 0, 1, 146.5, 195.5)" fill-opacity="1">Model Model #1</text><text fill="rgb(68,68,68)" stroke="none" font-family="helvetica" font-size="14pt" font-style="normal" font-weight="normal" text-decoration="normal" x="0" y="0" text-anchor="end" dominant-baseline="central" transform="matrix(1, 0, 0, 1, 146.5, 171.5)" fill-opacity="1">Model Model #2</text><text fill="rgb(68,68,68)" stroke="none" font-family="helvetica" font-size="14pt" font-style="normal" font-weight="normal" text-decoration="normal" x="0" y="0" text-anchor="end" dominant-baseline="central" transform="matrix(1, 0, 0, 1, 146.5, 146.5)" fill-opacity="1">Model Model #3</text><text fill="rgb(68,68,68)" stroke="none" font-family="helvetica" font-size="14pt" font-style="normal" font-weight="normal" text-decoration="normal" x="0" y="0" text-anchor="end" dominant-baseline="central" transform="matrix(1, 0, 0, 1, 146.5, 122.5)" fill-opacity="1">Model Model #4</text><text fill="rgb(68,68,68)" stroke="none" font-family="helvetica" font-size="14pt" font-style="normal" font-weight="normal" text-decoration="normal" x="0" y="0" text-anchor="end" dominant-baseline="central" transform="matrix(1, 0, 0, 1, 146.5, 98.5)" fill-opacity="1">Model Model #5</text><text fill="rgb(68,68,68)" stroke="none" font-family="helvetica" font-size="14pt" font-style="normal" font-weight="normal" text-decoration="normal" x="0" y="0" text-anchor="end" dominant-baseline="central" transform="matrix(1, 0, 0, 1, 146.5, 73.5)" fill-opacity="1">Model Model #6</text><text fill="rgb(68,68,68)" stroke="none" font-family="helvetica" font-size="14pt" font-style="normal" font-weight="normal" text-decoration="normal" x="0" y="0" text-anchor="end" dominant-baseline="central" transform="matrix(1, 0, 0, 1, 146.5, 49.5)" fill-opacity="1">Model Model #7</text><path fill="rgb(255,255,255)" stroke="rgb(229,229,229)" paint-order="fill" d="M 97.38333511352539 250.5 L 730.6166648864746 250.5 L 730.6166648864746 290.5 L 97.38333511352539 290.5 L 97.38333511352539 250.5" fill-opacity="0.95" stroke-opacity="0.5" stroke-linejoin="bevel" stroke-miterlimit="10" stroke-dasharray=""/><text fill="rgb(68,68,68)" stroke="none" font-family="helvetica" font-size="8px" font-style="normal" font-weight="normal" text-decoration="normal" x="131.8833351135254" y="270" text-anchor="start" dominant-baseline="central" transform="matrix(1, 0, 0, 1, 0.5, 0.5)" fill-opacity="1">Model 1: 71.05%</text><path fill="rgb(68,1,84)" stroke="none" paint-order="stroke" d="M 109.38333511352539 262.5 L 125.38333511352539 262.5 L 125.38333511352539 278.5 L 109.38333511352539 278.5 L 109.38333511352539 262.5" fill-opacity="0.8"/><path fill="none" stroke="rgb(68,1,84)" paint-order="fill" d="M 109.38333511352539 262.5 L 125.38333511352539 262.5 L 125.38333511352539 278.5 L 109.38333511352539 278.5 L 109.38333511352539 262.5" stroke-opacity="0.8" stroke-linejoin="bevel" stroke-miterlimit="10" stroke-dasharray=""/><text fill="rgb(68,68,68)" stroke="none" font-family="helvetica" font-size="8px" font-style="normal" font-weight="normal" text-decoration="normal" x="219.91666793823242" y="270" text-anchor="start" dominant-baseline="central" transform="matrix(1, 0, 0, 1, 0.5, 0.5)" fill-opacity="1">Model 2: 71.93%</text><path fill="rgb(68,57,130)" stroke="none" paint-order="stroke" d="M 197.41666793823242 262.5 L 213.41666793823242 262.5 L 213.41666793823242 278.5 L 197.41666793823242 278.5 L 197.41666793823242 262.5" fill-opacity="0.8"/><path fill="none" stroke="rgb(68,57,130)" paint-order="fill" d="M 197.41666793823242 262.5 L 213.41666793823242 262.5 L 213.41666793823242 278.5 L 197.41666793823242 278.5 L 197.41666793823242 262.5" stroke-opacity="0.8" stroke-linejoin="bevel" stroke-miterlimit="10" stroke-dasharray=""/><text fill="rgb(68,68,68)" stroke="none" font-family="helvetica" font-size="8px" font-style="normal" font-weight="normal" text-decoration="normal" x="307.95000076293945" y="270" text-anchor="start" dominant-baseline="central" transform="matrix(1, 0, 0, 1, 0.5, 0.5)" fill-opacity="1">Model 3: 72.37%</text><path fill="rgb(48,103,141)" stroke="none" paint-order="stroke" d="M 285.45000076293945 262.5 L 301.45000076293945 262.5 L 301.45000076293945 278.5 L 285.45000076293945 278.5 L 285.45000076293945 262.5" fill-opacity="0.8"/><path fill="none" stroke="rgb(48,103,141)" paint-order="fill" d="M 285.45000076293945 262.5 L 301.45000076293945 262.5 L 301.45000076293945 278.5 L 285.45000076293945 278.5 L 285.45000076293945 262.5" stroke-opacity="0.8" stroke-linejoin="bevel" stroke-miterlimit="10" stroke-dasharray=""/><text fill="rgb(68,68,68)" stroke="none" font-family="helvetica" font-size="8px" font-style="normal" font-weight="normal" text-decoration="normal" x="395.9833335876465" y="270" text-anchor="start" dominant-baseline="central" transform="matrix(1, 0, 0, 1, 0.5, 0.5)" fill-opacity="1">Model 4: 67.76%</text><path fill="rgb(32,143,140)" stroke="none" paint-order="stroke" d="M 373.4833335876465 262.5 L 389.4833335876465 262.5 L 389.4833335876465 278.5 L 373.4833335876465 278.5 L 373.4833335876465 262.5" fill-opacity="0.8"/><path fill="none" stroke="rgb(32,143,140)" paint-order="fill" d="M 373.4833335876465 262.5 L 389.4833335876465 262.5 L 389.4833335876465 278.5 L 373.4833335876465 278.5 L 373.4833335876465 262.5" stroke-opacity="0.8" stroke-linejoin="bevel" stroke-miterlimit="10" stroke-dasharray=""/><text fill="rgb(68,68,68)" stroke="none" font-family="helvetica" font-size="8px" font-style="normal" font-weight="normal" text-decoration="normal" x="484.0166664123535" y="270" text-anchor="start" dominant-baseline="central" transform="matrix(1, 0, 0, 1, 0.5, 0.5)" fill-opacity="1">Model 5: 63.16%</text><path fill="rgb(53,183,120)" stroke="none" paint-order="stroke" d="M 461.5166664123535 262.5 L 477.5166664123535 262.5 L 477.5166664123535 278.5 L 461.5166664123535 278.5 L 461.5166664123535 262.5" fill-opacity="0.8"/><path fill="none" stroke="rgb(53,183,120)" paint-order="fill" d="M 461.5166664123535 262.5 L 477.5166664123535 262.5 L 477.5166664123535 278.5 L 461.5166664123535 278.5 L 461.5166664123535 262.5" stroke-opacity="0.8" stroke-linejoin="bevel" stroke-miterlimit="10" stroke-dasharray=""/><text fill="rgb(68,68,68)" stroke="none" font-family="helvetica" font-size="8px" font-style="normal" font-weight="normal" text-decoration="normal" x="572.0499992370605" y="270" text-anchor="start" dominant-baseline="central" transform="matrix(1, 0, 0, 1, 0.5, 0.5)" fill-opacity="1">Model 6: 65.79%</text><path fill="rgb(141,214,68)" stroke="none" paint-order="stroke" d="M 549.5499992370605 262.5 L 565.5499992370605 262.5 L 565.5499992370605 278.5 L 549.5499992370605 278.5 L 549.5499992370605 262.5" fill-opacity="0.8"/><path fill="none" stroke="rgb(141,214,68)" paint-order="fill" d="M 549.5499992370605 262.5 L 565.5499992370605 262.5 L 565.5499992370605 278.5 L 549.5499992370605 278.5 L 549.5499992370605 262.5" stroke-opacity="0.8" stroke-linejoin="bevel" stroke-miterlimit="10" stroke-dasharray=""/><text fill="rgb(68,68,68)" stroke="none" font-family="helvetica" font-size="8px" font-style="normal" font-weight="normal" text-decoration="normal" x="660.0833320617676" y="270" text-anchor="start" dominant-baseline="central" transform="matrix(1, 0, 0, 1, 0.5, 0.5)" fill-opacity="1">Model 7: 51.54%</text><path fill="rgb(253,231,36)" stroke="none" paint-order="stroke" d="M 637.5833320617676 262.5 L 653.5833320617676 262.5 L 653.5833320617676 278.5 L 637.5833320617676 278.5 L 637.5833320617676 262.5" fill-opacity="0.8"/><path fill="none" stroke="rgb(253,231,36)" paint-order="fill" d="M 637.5833320617676 262.5 L 653.5833320617676 262.5 L 653.5833320617676 278.5 L 637.5833320617676 278.5 L 637.5833320617676 262.5" stroke-opacity="0.8" stroke-linejoin="bevel" stroke-miterlimit="10" stroke-dasharray=""/><path fill="none" stroke="none"/><text fill="rgb(68,68,68)" stroke="none" font-family="helvetica" font-size="14pt" font-style="normal" font-weight="bold" text-decoration="normal" x="0" y="0" text-anchor="middle" dominant-baseline="text-after-edge" transform="matrix(1, 0, 0, 1, 414, 32.5)" fill-opacity="1">Fit to XL-MS input</text></svg>