<svg version="1.1" xmlns="http://www.w3.org/2000/svg" xmlns:xlink="http://www.w3.org/1999/xlink" width="800" height="300"><defs><clipPath id="unQncICqyQlh"><path fill="none" stroke="none" d="M 84.5 37.5 L 770.5 37.5 L 770.5 179.5 L 84.5 179.5 L 84.5 37.5"/></clipPath><clipPath id="WtJgLhNGEdgx"><path fill="none" stroke="none" d="M 84.5 37.5 L 770.5 37.5 L 770.5 179.5 L 84.5 179.5 L 84.5 37.5"/></clipPath><clipPath id="qEuoFCUgBGtq"><path fill="none" stroke="none" d="M 84.5 37.5 L 770.5 37.5 L 770.5 179.5 L 84.5 179.5 L 84.5 37.5"/></clipPath><clipPath id="VQJqzqytbnLr"><path fill="none" stroke="none" d="M 84.5 37.5 L 770.5 37.5 L 770.5 179.5 L 84.5 179.5 L 84.5 37.5"/></clipPath></defs><path fill="rgb(255,255,255)" stroke="none" paint-order="stroke" d="M 0.5 0.5 L 800.5 0.5 L 800.5 300.5 L 0.5 300.5 L 0.5 0.5" fill-opacity="1"/><rect fill="#FFFFFF" stroke="none" x="84" y="37" width="686" height="142" transform="matrix(1, 0, 0, 1, 0.5, 0.5)"/><path fill="rgb(255,255,255)" stroke="none" paint-order="stroke" d="M 84.5 37.5 L 770.5 37.5 L 770.5 179.5 L 84.5 179.5 L 84.5 37.5" fill-opacity="1"/><path fill="none" stroke="rgb(229,229,229)" paint-order="fill" d="M 84.5 37.5 L 770.5 37.5 L 770.5 179.5 L 84.5 179.5 L 84.5 37.5" stroke-opacity="1" stroke-linejoin="bevel" stroke-miterlimit="10" stroke-dasharray=""/><path fill="none" stroke="rgb(229,229,229)" paint-order="fill" d="M 207.5 179.5 L 207.5 37.5 M 383.5 179.5 L 383.5 37.5 M 559.5 179.5 L 559.5 37.5 M 735.5 179.5 L 735.5 37.5" stroke-opacity="1" stroke-linejoin="bevel" stroke-miterlimit="10" stroke-dasharray="" clip-path="url(#unQncICqyQlh)"/><path fill="none" stroke="none"/><path fill="rgb(68,1,84)" stroke="none" paint-order="stroke" d="M 84.5 144 L 313.1666564941406 144 L 313.1666564941406 179.5 L 84.5 179.5 L 84.5 144" fill-opacity="0.8" clip-path="url(#qEuoFCUgBGtq)"/><path fill="none" stroke="rgb(0,0,0)" paint-order="fill" d="M 84.5 144 L 313.1666564941406 144 L 313.1666564941406 179.5 L 84.5 179.5 L 84.5 144" stroke-opacity="0.8" stroke-linejoin="bevel" stroke-miterlimit="10" stroke-dasharray="" clip-path="url(#qEuoFCUgBGtq)"/><path fill="rgb(48,103,141)" stroke="none" paint-order="stroke" d="M 84.5 108.5 L 422.22308349609375 108.5 L 422.22308349609375 144 L 84.5 144 L 84.5 108.5" fill-opacity="0.8" clip-path="url(#qEuoFCUgBGtq)"/><path fill="none" stroke="rgb(0,0,0)" paint-order="fill" d="M 84.5 108.5 L 422.22308349609375 108.5 L 422.22308349609375 144 L 84.5 144 L 84.5 108.5" stroke-opacity="0.8" stroke-linejoin="bevel" stroke-miterlimit="10" stroke-dasharray="" clip-path="url(#qEuoFCUgBGtq)"/><path fill="rgb(53,183,120)" stroke="none" paint-order="stroke" d="M 84.5 73 L 541.8333129882812 73 L 541.8333129882812 108.5 L 84.5 108.5 L 84.5 73" fill-opacity="0.8" clip-path="url(#qEuoFCUgBGtq)"/><path fill="none" stroke="rgb(0,0,0)" paint-order="fill" d="M 84.5 73 L 541.8333129882812 73 L 541.8333129882812 108.5 L 84.5 108.5 L 84.5 73" stroke-opacity="0.8" stroke-linejoin="bevel" stroke-miterlimit="10" stroke-dasharray="" clip-path="url(#qEuoFCUgBGtq)"/><path fill="rgb(253,231,36)" stroke="none" paint-order="stroke" d="M 84.5 37.5 L 499.6179504394531 37.5 L 499.6179504394531 73 L 84.5 73 L 84.5 37.5" fill-opacity="0.8" clip-path="url(#qEuoFCUgBGtq)"/><path fill="none" stroke="rgb(0,0,0)" paint-order="fill" d="M 84.5 37.5 L 499.6179504394531 37.5 L 499.6179504394531 73 L 84.5 73 L 84.5 37.5" stroke-opacity="0.8" stroke-linejoin="bevel" stroke-miterlimit="10" stroke-dasharray="" clip-path="url(#qEuoFCUgBGtq)"/><path fill="none" stroke="rgb(0,0,0)" paint-order="fill" d="M 84.5 179.5 L 770.5 179.5" stroke-opacity="1" stroke-linejoin="bevel" stroke-miterlimit="10" stroke-dasharray=""/><path fill="none" stroke="rgb(0,0,0)" paint-order="fill" d="M 207.5 185.5 L 207.5 177.5 M 383.5 185.5 L 383.5 177.5 M 559.5 185.5 L 559.5 177.5 M 735.5 185.5 L 735.5 177.5" stroke-opacity="1" stroke-linejoin="bevel" stroke-miterlimit="10" stroke-dasharray=""/><path fill="none" stroke="rgb(0,0,0)" paint-order="fill" d="M 172.5 183.5 L 172.5 179.5 M 137.5 183.5 L 137.5 179.5 M 102.5 183.5 L 102.5 179.5 M 207.5 183.5 L 207.5 179.5 M 242.5 183.5 L 242.5 179.5 M 277.5 183.5 L 277.5 179.5 M 313.5 183.5 L 313.5 179.5 M 348.5 183.5 L 348.5 179.5 M 383.5 183.5 L 383.5 179.5 M 418.5 183.5 L 418.5 179.5 M 453.5 183.5 L 453.5 179.5 M 489.5 183.5 L 489.5 179.5 M 524.5 183.5 L 524.5 179.5 M 559.5 183.5 L 559.5 179.5 M 594.5 183.5 L 594.5 179.5 M 629.5 183.5 L 629.5 179.5 M 664.5 183.5 L 664.5 179.5 M 700.5 183.5 L 700.5 179.5 M 735.5 183.5 L 735.5 179.5 M 770.5 183.5 L 770.5 179.5" stroke-opacity="1" stroke-linejoin="bevel" stroke-miterlimit="10" stroke-dasharray=""/><text fill="rgb(68,68,68)" stroke="none" font-family="helvetica" font-size="14pt" font-style="normal" font-weight="normal" text-decoration="normal" x="0" y="0" text-anchor="middle" dominant-baseline="hanging" transform="matrix(1, 0, 0, 1, 207.5, 190.5)" fill-opacity="1">9500</text><text fill="rgb(68,68,68)" stroke="none" font-family="helvetica" font-size="14pt" font-style="normal" font-weight="normal" text-decoration="normal" x="0" y="0" text-anchor="middle" dominant-baseline="hanging" transform="matrix(1, 0, 0, 1, 383.5, 190.5)" fill-opacity="1">9550</text><text fill="rgb(68,68,68)" stroke="none" font-family="helvetica" font-size="14pt" font-style="normal" font-weight="normal" text-decoration="normal" x="0" y="0" text-anchor="middle" dominant-baseline="hanging" transform="matrix(1, 0, 0, 1, 559.5, 190.5)" fill-opacity="1">9600</text><text fill="rgb(68,68,68)" stroke="none" font-family="helvetica" font-size="14pt" font-style="normal" font-weight="normal" text-decoration="normal" x="0" y="0" text-anchor="middle" dominant-baseline="hanging" transform="matrix(1, 0, 0, 1, 735.5, 190.5)" fill-opacity="1">9650</text><text fill="rgb(68,68,68)" stroke="none" font-family="helvetica" font-size="14pt" font-style="italic" font-weight="normal" text-decoration="normal" x="0" y="0" text-anchor="middle" dominant-baseline="hanging" transform="matrix(1, 0, 0, 1, 427.5, 217.5)" fill-opacity="1">Number of violations</text><path fill="none" stroke="rgb(0,0,0)" paint-order="fill" d="M 84.5 179.5 L 84.5 37.5" stroke-opacity="1" stroke-linejoin="bevel" stroke-miterlimit="10" stroke-dasharray=""/><path fill="none" stroke="rgb(0,0,0)" paint-order="fill" d="M 78.5 161.5 L 86.5 161.5 M 78.5 126.5 L 86.5 126.5 M 78.5 90.5 L 86.5 90.5 M 78.5 55.5 L 86.5 55.5" stroke-opacity="1" stroke-linejoin="bevel" stroke-miterlimit="10" stroke-dasharray=""/><path fill="none" stroke="rgb(0,0,0)" paint-order="fill" d="" stroke-opacity="1" stroke-linejoin="bevel" stroke-miterlimit="10" stroke-dasharray=""/><text fill="rgb(68,68,68)" stroke="none" font-family="helvetica" font-size="14pt" font-style="normal" font-weight="normal" text-decoration="normal" x="0" y="0" text-anchor="end" dominant-baseline="central" transform="matrix(1, 0, 0, 1, 73.5, 161.5)" fill-opacity="1">Model 1</text><text fill="rgb(68,68,68)" stroke="none" font-family="helvetica" font-size="14pt" font-style="normal" font-weight="normal" text-decoration="normal" x="0" y="0" text-anchor="end" dominant-baseline="central" transform="matrix(1, 0, 0, 1, 73.5, 126.5)" fill-opacity="1">Model 2</text><text fill="rgb(68,68,68)" stroke="none" font-family="helvetica" font-size="14pt" font-style="normal" font-weight="normal" text-decoration="normal" x="0" y="0" text-anchor="end" dominant-baseline="central" transform="matrix(1, 0, 0, 1, 73.5, 90.5)" fill-opacity="1">Model 3</text><text fill="rgb(68,68,68)" stroke="none" font-family="helvetica" font-size="14pt" font-style="normal" font-weight="normal" text-decoration="normal" x="0" y="0" text-anchor="end" dominant-baseline="central" transform="matrix(1, 0, 0, 1, 73.5, 55.5)" fill-opacity="1">Model 4</text><path fill="rgb(255,255,255)" stroke="rgb(229,229,229)" paint-order="fill" d="M 192.23333740234375 250.5 L 662.7666625976562 250.5 L 662.7666625976562 290.5 L 192.23333740234375 290.5 L 192.23333740234375 250.5" fill-opacity="0.95" stroke-opacity="0.5" stroke-linejoin="bevel" stroke-miterlimit="10" stroke-dasharray=""/><text fill="rgb(68,68,68)" stroke="none" font-family="helvetica" font-size="8px" font-style="normal" font-weight="normal" text-decoration="normal" x="226.73333740234375" y="270" text-anchor="start" dominant-baseline="central" transform="matrix(1, 0, 0, 1, 0.5, 0.5)" fill-opacity="1">Model 1: 9530(99.89 %)</text><path fill="rgb(68,1,84)" stroke="none" paint-order="stroke" d="M 204.23333740234375 262.5 L 220.23333740234375 262.5 L 220.23333740234375 278.5 L 204.23333740234375 278.5 L 204.23333740234375 262.5" fill-opacity="0.8"/><path fill="none" stroke="rgb(0,0,0)" paint-order="fill" d="M 204.23333740234375 262.5 L 220.23333740234375 262.5 L 220.23333740234375 278.5 L 204.23333740234375 278.5 L 204.23333740234375 262.5" stroke-opacity="0.8" stroke-linejoin="bevel" stroke-miterlimit="10" stroke-dasharray=""/><text fill="rgb(68,68,68)" stroke="none" font-family="helvetica" font-size="8px" font-style="normal" font-weight="normal" text-decoration="normal" x="340.1166687011719" y="270" text-anchor="start" dominant-baseline="central" transform="matrix(1, 0, 0, 1, 0.5, 0.5)" fill-opacity="1">Model 2: 9561(99.89 %)</text><path fill="rgb(48,103,141)" stroke="none" paint-order="stroke" d="M 317.6166687011719 262.5 L 333.6166687011719 262.5 L 333.6166687011719 278.5 L 317.6166687011719 278.5 L 317.6166687011719 262.5" fill-opacity="0.8"/><path fill="none" stroke="rgb(0,0,0)" paint-order="fill" d="M 317.6166687011719 262.5 L 333.6166687011719 262.5 L 333.6166687011719 278.5 L 317.6166687011719 278.5 L 317.6166687011719 262.5" stroke-opacity="0.8" stroke-linejoin="bevel" stroke-miterlimit="10" stroke-dasharray=""/><text fill="rgb(68,68,68)" stroke="none" font-family="helvetica" font-size="8px" font-style="normal" font-weight="normal" text-decoration="normal" x="453.5" y="270" text-anchor="start" dominant-baseline="central" transform="matrix(1, 0, 0, 1, 0.5, 0.5)" fill-opacity="1">Model 3: 9595(99.89 %)</text><path fill="rgb(53,183,120)" stroke="none" paint-order="stroke" d="M 431 262.5 L 447 262.5 L 447 278.5 L 431 278.5 L 431 262.5" fill-opacity="0.8"/><path fill="none" stroke="rgb(0,0,0)" paint-order="fill" d="M 431 262.5 L 447 262.5 L 447 278.5 L 431 278.5 L 431 262.5" stroke-opacity="0.8" stroke-linejoin="bevel" stroke-miterlimit="10" stroke-dasharray=""/><text fill="rgb(68,68,68)" stroke="none" font-family="helvetica" font-size="8px" font-style="normal" font-weight="normal" text-decoration="normal" x="566.8833312988281" y="270" text-anchor="start" dominant-baseline="central" transform="matrix(1, 0, 0, 1, 0.5, 0.5)" fill-opacity="1">Model 4: 9583(99.89 %)</text><path fill="rgb(253,231,36)" stroke="none" paint-order="stroke" d="M 544.3833312988281 262.5 L 560.3833312988281 262.5 L 560.3833312988281 278.5 L 544.3833312988281 278.5 L 544.3833312988281 262.5" fill-opacity="0.8"/><path fill="none" stroke="rgb(0,0,0)" paint-order="fill" d="M 544.3833312988281 262.5 L 560.3833312988281 262.5 L 560.3833312988281 278.5 L 544.3833312988281 278.5 L 544.3833312988281 262.5" stroke-opacity="0.8" stroke-linejoin="bevel" stroke-miterlimit="10" stroke-dasharray=""/><path fill="none" stroke="none"/><text fill="rgb(68,68,68)" stroke="none" font-family="helvetica" font-size="14pt" font-style="normal" font-weight="bold" text-decoration="normal" x="0" y="0" text-anchor="middle" dominant-baseline="text-before-edge" transform="matrix(1, 0, 0, 1, 427.5, 5.5)" fill-opacity="1">Model quality: Excluded Volume Analysis</text></svg>