<svg version="1.1" xmlns="http://www.w3.org/2000/svg" xmlns:xlink="http://www.w3.org/1999/xlink" width="700" height="250"><defs><clipPath id="hiFkqmwSQtPs"><path fill="none" stroke="none" d="M 157.5 37.5 L 670.5 37.5 L 670.5 217.5 L 157.5 217.5 L 157.5 37.5"/></clipPath><clipPath id="AuVzSNPqGpdH"><path fill="none" stroke="none" d="M 157.5 37.5 L 670.5 37.5 L 670.5 217.5 L 157.5 217.5 L 157.5 37.5"/></clipPath><clipPath id="gFIJLyoULXpG"><path fill="none" stroke="none" d="M 157.5 37.5 L 670.5 37.5 L 670.5 217.5 L 157.5 217.5 L 157.5 37.5"/></clipPath><clipPath id="EHFZGHEGSvrz"><path fill="none" stroke="none" d="M 157.5 37.5 L 670.5 37.5 L 670.5 217.5 L 157.5 217.5 L 157.5 37.5"/></clipPath><clipPath id="wEQOkmdBTETn"><path fill="none" stroke="none" d="M 157.5 37.5 L 670.5 37.5 L 670.5 217.5 L 157.5 217.5 L 157.5 37.5"/></clipPath></defs><path fill="rgb(255,255,255)" stroke="none" paint-order="stroke" d="M 0.5 0.5 L 700.5 0.5 L 700.5 250.5 L 0.5 250.5 L 0.5 0.5" fill-opacity="1"/><rect fill="#FFFFFF" stroke="none" x="157" y="37" width="513" height="180" transform="matrix(1, 0, 0, 1, 0.5, 0.5)"/><path fill="rgb(255,255,255)" stroke="none" paint-order="stroke" d="M 157.5 37.5 L 670.5 37.5 L 670.5 217.5 L 157.5 217.5 L 157.5 37.5" fill-opacity="1"/><path fill="none" stroke="rgb(229,229,229)" paint-order="fill" d="M 157.5 37.5 L 670.5 37.5 L 670.5 217.5 L 157.5 217.5 L 157.5 37.5" stroke-opacity="1" stroke-linejoin="bevel" stroke-miterlimit="10" stroke-dasharray=""/><path fill="none" stroke="rgb(229,229,229)" paint-order="fill" d="M 269.5 217.5 L 269.5 37.5 M 381.5 217.5 L 381.5 37.5 M 493.5 217.5 L 493.5 37.5 M 605.5 217.5 L 605.5 37.5" stroke-opacity="1" stroke-linejoin="bevel" stroke-miterlimit="10" stroke-dasharray="" clip-path="url(#hiFkqmwSQtPs)"/><path fill="none" stroke="none"/><path fill="rgb(68,1,84)" stroke="none" paint-order="stroke" d="M 157.5 181.5 L 655.535400390625 181.5 L 655.535400390625 208.5 L 157.5 208.5 L 157.5 181.5" fill-opacity="0.8" clip-path="url(#gFIJLyoULXpG)"/><path fill="none" stroke="rgb(68,1,84)" paint-order="fill" d="M 157.5 181.5 L 655.535400390625 181.5 L 655.535400390625 208.5 L 157.5 208.5 L 157.5 181.5" stroke-opacity="0.8" stroke-linejoin="bevel" stroke-miterlimit="10" stroke-dasharray="" clip-path="url(#gFIJLyoULXpG)"/><path fill="rgb(48,103,141)" stroke="none" paint-order="stroke" d="M 157.5 136.5 L 664.895263671875 136.5 L 664.895263671875 163.5 L 157.5 163.5 L 157.5 136.5" fill-opacity="0.8" clip-path="url(#gFIJLyoULXpG)"/><path fill="none" stroke="rgb(48,103,141)" paint-order="fill" d="M 157.5 136.5 L 664.895263671875 136.5 L 664.895263671875 163.5 L 157.5 163.5 L 157.5 136.5" stroke-opacity="0.8" stroke-linejoin="bevel" stroke-miterlimit="10" stroke-dasharray="" clip-path="url(#gFIJLyoULXpG)"/><path fill="rgb(53,183,120)" stroke="none" paint-order="stroke" d="M 157.5 91.5 L 652.396728515625 91.5 L 652.396728515625 118.5 L 157.5 118.5 L 157.5 91.5" fill-opacity="0.8" clip-path="url(#gFIJLyoULXpG)"/><path fill="none" stroke="rgb(53,183,120)" paint-order="fill" d="M 157.5 91.5 L 652.396728515625 91.5 L 652.396728515625 118.5 L 157.5 118.5 L 157.5 91.5" stroke-opacity="0.8" stroke-linejoin="bevel" stroke-miterlimit="10" stroke-dasharray="" clip-path="url(#gFIJLyoULXpG)"/><path fill="rgb(253,231,36)" stroke="none" paint-order="stroke" d="M 157.5 46.5 L 655.535400390625 46.5 L 655.535400390625 73.5 L 157.5 73.5 L 157.5 46.5" fill-opacity="0.8" clip-path="url(#gFIJLyoULXpG)"/><path fill="none" stroke="rgb(253,231,36)" paint-order="fill" d="M 157.5 46.5 L 655.535400390625 46.5 L 655.535400390625 73.5 L 157.5 73.5 L 157.5 46.5" stroke-opacity="0.8" stroke-linejoin="bevel" stroke-miterlimit="10" stroke-dasharray="" clip-path="url(#gFIJLyoULXpG)"/><path fill="none" stroke="rgb(0,0,0)" paint-order="fill" d="M 157.5 217.5 L 670.5 217.5" stroke-opacity="1" stroke-linejoin="bevel" stroke-miterlimit="10" stroke-dasharray=""/><path fill="none" stroke="rgb(0,0,0)" paint-order="fill" d="M 157.5 223.5 L 157.5 215.5 M 269.5 223.5 L 269.5 215.5 M 381.5 223.5 L 381.5 215.5 M 493.5 223.5 L 493.5 215.5 M 605.5 223.5 L 605.5 215.5" stroke-opacity="1" stroke-linejoin="bevel" stroke-miterlimit="10" stroke-dasharray=""/><path fill="none" stroke="rgb(0,0,0)" paint-order="fill" d="M 157.5 221.5 L 157.5 217.5 M 179.5 221.5 L 179.5 217.5 M 202.5 221.5 L 202.5 217.5 M 224.5 221.5 L 224.5 217.5 M 247.5 221.5 L 247.5 217.5 M 269.5 221.5 L 269.5 217.5 M 292.5 221.5 L 292.5 217.5 M 314.5 221.5 L 314.5 217.5 M 336.5 221.5 L 336.5 217.5 M 359.5 221.5 L 359.5 217.5 M 381.5 221.5 L 381.5 217.5 M 404.5 221.5 L 404.5 217.5 M 426.5 221.5 L 426.5 217.5 M 448.5 221.5 L 448.5 217.5 M 471.5 221.5 L 471.5 217.5 M 493.5 221.5 L 493.5 217.5 M 516.5 221.5 L 516.5 217.5 M 538.5 221.5 L 538.5 217.5 M 561.5 221.5 L 561.5 217.5 M 583.5 221.5 L 583.5 217.5 M 605.5 221.5 L 605.5 217.5 M 628.5 221.5 L 628.5 217.5 M 650.5 221.5 L 650.5 217.5" stroke-opacity="1" stroke-linejoin="bevel" stroke-miterlimit="10" stroke-dasharray=""/><text fill="rgb(68,68,68)" stroke="none" font-family="helvetica" font-size="14pt" font-style="normal" font-weight="normal" text-decoration="normal" x="0" y="0" text-anchor="middle" dominant-baseline="hanging" transform="matrix(1, 0, 0, 1, 157.5, 228.5)" fill-opacity="1">0</text><text fill="rgb(68,68,68)" stroke="none" font-family="helvetica" font-size="14pt" font-style="normal" font-weight="normal" text-decoration="normal" x="0" y="0" text-anchor="middle" dominant-baseline="hanging" transform="matrix(1, 0, 0, 1, 269.5, 228.5)" fill-opacity="1">20</text><text fill="rgb(68,68,68)" stroke="none" font-family="helvetica" font-size="14pt" font-style="normal" font-weight="normal" text-decoration="normal" x="0" y="0" text-anchor="middle" dominant-baseline="hanging" transform="matrix(1, 0, 0, 1, 381.5, 228.5)" fill-opacity="1">40</text><text fill="rgb(68,68,68)" stroke="none" font-family="helvetica" font-size="14pt" font-style="normal" font-weight="normal" text-decoration="normal" x="0" y="0" text-anchor="middle" dominant-baseline="hanging" transform="matrix(1, 0, 0, 1, 493.5, 228.5)" fill-opacity="1">60</text><text fill="rgb(68,68,68)" stroke="none" font-family="helvetica" font-size="14pt" font-style="normal" font-weight="normal" text-decoration="normal" x="0" y="0" text-anchor="middle" dominant-baseline="hanging" transform="matrix(1, 0, 0, 1, 605.5, 228.5)" fill-opacity="1">80</text><path fill="none" stroke="rgb(0,0,0)" paint-order="fill" d="M 157.5 217.5 L 157.5 37.5" stroke-opacity="1" stroke-linejoin="bevel" stroke-miterlimit="10" stroke-dasharray=""/><path fill="none" stroke="rgb(0,0,0)" paint-order="fill" d="M 151.5 195.5 L 159.5 195.5 M 151.5 150.5 L 159.5 150.5 M 151.5 105.5 L 159.5 105.5 M 151.5 60.5 L 159.5 60.5" stroke-opacity="1" stroke-linejoin="bevel" stroke-miterlimit="10" stroke-dasharray=""/><path fill="none" stroke="rgb(0,0,0)" paint-order="fill" d="" stroke-opacity="1" stroke-linejoin="bevel" stroke-miterlimit="10" stroke-dasharray=""/><text fill="rgb(68,68,68)" stroke="none" font-family="helvetica" font-size="14pt" font-style="normal" font-weight="normal" text-decoration="normal" x="0" y="0" text-anchor="end" dominant-baseline="central" transform="matrix(1, 0, 0, 1, 146.5, 195.5)" fill-opacity="1">Model Model #1</text><text fill="rgb(68,68,68)" stroke="none" font-family="helvetica" font-size="14pt" font-style="normal" font-weight="normal" text-decoration="normal" x="0" y="0" text-anchor="end" dominant-baseline="central" transform="matrix(1, 0, 0, 1, 146.5, 150.5)" fill-opacity="1">Model Model #2</text><text fill="rgb(68,68,68)" stroke="none" font-family="helvetica" font-size="14pt" font-style="normal" font-weight="normal" text-decoration="normal" x="0" y="0" text-anchor="end" dominant-baseline="central" transform="matrix(1, 0, 0, 1, 146.5, 105.5)" fill-opacity="1">Model Model #3</text><text fill="rgb(68,68,68)" stroke="none" font-family="helvetica" font-size="14pt" font-style="normal" font-weight="normal" text-decoration="normal" x="0" y="0" text-anchor="end" dominant-baseline="central" transform="matrix(1, 0, 0, 1, 146.5, 60.5)" fill-opacity="1">Model Model #4</text><path fill="rgb(255,255,255)" stroke="rgb(229,229,229)" paint-order="fill" d="M 517.8833312988281 47.5 L 660.5 47.5 L 660.5 156.5 L 517.8833312988281 156.5 L 517.8833312988281 47.5" fill-opacity="0.95" clip-path="url(#EHFZGHEGSvrz)" stroke-opacity="0.5" stroke-linejoin="bevel" stroke-miterlimit="10" stroke-dasharray=""/><text fill="rgb(68,68,68)" stroke="none" font-family="helvetica" font-size="13px" font-style="normal" font-weight="normal" text-decoration="normal" x="552.3833312988281" y="67" text-anchor="start" dominant-baseline="central" transform="matrix(1, 0, 0, 1, 0.5, 0.5)" fill-opacity="1">Model 1: 88.86%</text><path fill="rgb(68,1,84)" stroke="none" paint-order="stroke" d="M 529.8833312988281 59.5 L 545.8833312988281 59.5 L 545.8833312988281 75.5 L 529.8833312988281 75.5 L 529.8833312988281 59.5" fill-opacity="0.8" clip-path="url(#EHFZGHEGSvrz)"/><path fill="none" stroke="rgb(68,1,84)" paint-order="fill" d="M 529.8833312988281 59.5 L 545.8833312988281 59.5 L 545.8833312988281 75.5 L 529.8833312988281 75.5 L 529.8833312988281 59.5" stroke-opacity="0.8" stroke-linejoin="bevel" stroke-miterlimit="10" stroke-dasharray="" clip-path="url(#EHFZGHEGSvrz)"/><text fill="rgb(68,68,68)" stroke="none" font-family="helvetica" font-size="13px" font-style="normal" font-weight="normal" text-decoration="normal" x="552.3833312988281" y="90" text-anchor="start" dominant-baseline="central" transform="matrix(1, 0, 0, 1, 0.5, 0.5)" fill-opacity="1">Model 2: 90.53%</text><path fill="rgb(48,103,141)" stroke="none" paint-order="stroke" d="M 529.8833312988281 82.5 L 545.8833312988281 82.5 L 545.8833312988281 98.5 L 529.8833312988281 98.5 L 529.8833312988281 82.5" fill-opacity="0.8" clip-path="url(#EHFZGHEGSvrz)"/><path fill="none" stroke="rgb(48,103,141)" paint-order="fill" d="M 529.8833312988281 82.5 L 545.8833312988281 82.5 L 545.8833312988281 98.5 L 529.8833312988281 98.5 L 529.8833312988281 82.5" stroke-opacity="0.8" stroke-linejoin="bevel" stroke-miterlimit="10" stroke-dasharray="" clip-path="url(#EHFZGHEGSvrz)"/><text fill="rgb(68,68,68)" stroke="none" font-family="helvetica" font-size="13px" font-style="normal" font-weight="normal" text-decoration="normal" x="552.3833312988281" y="113" text-anchor="start" dominant-baseline="central" transform="matrix(1, 0, 0, 1, 0.5, 0.5)" fill-opacity="1">Model 3: 88.3%</text><path fill="rgb(53,183,120)" stroke="none" paint-order="stroke" d="M 529.8833312988281 105.5 L 545.8833312988281 105.5 L 545.8833312988281 121.5 L 529.8833312988281 121.5 L 529.8833312988281 105.5" fill-opacity="0.8" clip-path="url(#EHFZGHEGSvrz)"/><path fill="none" stroke="rgb(53,183,120)" paint-order="fill" d="M 529.8833312988281 105.5 L 545.8833312988281 105.5 L 545.8833312988281 121.5 L 529.8833312988281 121.5 L 529.8833312988281 105.5" stroke-opacity="0.8" stroke-linejoin="bevel" stroke-miterlimit="10" stroke-dasharray="" clip-path="url(#EHFZGHEGSvrz)"/><text fill="rgb(68,68,68)" stroke="none" font-family="helvetica" font-size="13px" font-style="normal" font-weight="normal" text-decoration="normal" x="552.3833312988281" y="136" text-anchor="start" dominant-baseline="central" transform="matrix(1, 0, 0, 1, 0.5, 0.5)" fill-opacity="1">Model 4: 88.86%</text><path fill="rgb(253,231,36)" stroke="none" paint-order="stroke" d="M 529.8833312988281 128.5 L 545.8833312988281 128.5 L 545.8833312988281 144.5 L 529.8833312988281 144.5 L 529.8833312988281 128.5" fill-opacity="0.8" clip-path="url(#EHFZGHEGSvrz)"/><path fill="none" stroke="rgb(253,231,36)" paint-order="fill" d="M 529.8833312988281 128.5 L 545.8833312988281 128.5 L 545.8833312988281 144.5 L 529.8833312988281 144.5 L 529.8833312988281 128.5" stroke-opacity="0.8" stroke-linejoin="bevel" stroke-miterlimit="10" stroke-dasharray="" clip-path="url(#EHFZGHEGSvrz)"/><path fill="none" stroke="none"/><text fill="rgb(68,68,68)" stroke="none" font-family="helvetica" font-size="14pt" font-style="normal" font-weight="bold" text-decoration="normal" x="0" y="0" text-anchor="middle" dominant-baseline="text-after-edge" transform="matrix(1, 0, 0, 1, 414, 32.5)" fill-opacity="1">Fit to XL-MS input</text></svg>