<svg version="1.1" xmlns="http://www.w3.org/2000/svg" xmlns:xlink="http://www.w3.org/1999/xlink" width="700" height="250"><defs><clipPath id="fhKwvrdoAzLf"><path fill="none" stroke="none" d="M 61.5 37.5 L 670.5 37.5 L 670.5 217.5 L 61.5 217.5 L 61.5 37.5"/></clipPath><clipPath id="OUOPkxWOFOgP"><path fill="none" stroke="none" d="M 61.5 37.5 L 670.5 37.5 L 670.5 217.5 L 61.5 217.5 L 61.5 37.5"/></clipPath><clipPath id="xppUnwaAXmOo"><path fill="none" stroke="none" d="M 61.5 37.5 L 670.5 37.5 L 670.5 217.5 L 61.5 217.5 L 61.5 37.5"/></clipPath><clipPath id="FBmBfyfkkAvI"><path fill="none" stroke="none" d="M 61.5 37.5 L 670.5 37.5 L 670.5 217.5 L 61.5 217.5 L 61.5 37.5"/></clipPath><clipPath id="VAbkNJXDdSMd"><path fill="none" stroke="none" d="M 61.5 37.5 L 670.5 37.5 L 670.5 217.5 L 61.5 217.5 L 61.5 37.5"/></clipPath></defs><path fill="rgb(255,255,255)" stroke="none" paint-order="stroke" d="M 0.5 0.5 L 700.5 0.5 L 700.5 250.5 L 0.5 250.5 L 0.5 0.5" fill-opacity="1"/><rect fill="#FFFFFF" stroke="none" x="61" y="37" width="609" height="180" transform="matrix(1, 0, 0, 1, 0.5, 0.5)"/><path fill="rgb(255,255,255)" stroke="none" paint-order="stroke" d="M 61.5 37.5 L 670.5 37.5 L 670.5 217.5 L 61.5 217.5 L 61.5 37.5" fill-opacity="1"/><path fill="none" stroke="rgb(229,229,229)" paint-order="fill" d="M 61.5 37.5 L 670.5 37.5 L 670.5 217.5 L 61.5 217.5 L 61.5 37.5" stroke-opacity="1" stroke-linejoin="bevel" stroke-miterlimit="10" stroke-dasharray=""/><path fill="none" stroke="rgb(229,229,229)" paint-order="fill" d="" stroke-opacity="1" stroke-linejoin="bevel" stroke-miterlimit="10" stroke-dasharray="" clip-path="url(#fhKwvrdoAzLf)"/><path fill="none" stroke="none"/><path fill="none" stroke="rgb(0,0,0)" paint-order="fill" d="" stroke-opacity="1" stroke-linejoin="bevel" stroke-miterlimit="10" stroke-dasharray=""/><path fill="none" stroke="rgb(0,0,0)" paint-order="fill" d="" stroke-opacity="1" stroke-linejoin="bevel" stroke-miterlimit="10" stroke-dasharray=""/><path fill="none" stroke="rgb(0,0,0)" paint-order="fill" d="" stroke-opacity="1" stroke-linejoin="bevel" stroke-miterlimit="10" stroke-dasharray=""/><text fill="rgb(68,68,68)" stroke="none" font-family="helvetica" font-size="14pt" font-style="italic" font-weight="normal" text-decoration="normal" x="0" y="0" text-anchor="middle" dominant-baseline="hanging" transform="matrix(1, 0, 0, 1, 366.5, 228.5)" fill-opacity="1">Number of violations</text><path fill="none" stroke="rgb(0,0,0)" paint-order="fill" d="" stroke-opacity="1" stroke-linejoin="bevel" stroke-miterlimit="10" stroke-dasharray=""/><path fill="none" stroke="rgb(0,0,0)" paint-order="fill" d="" stroke-opacity="1" stroke-linejoin="bevel" stroke-miterlimit="10" stroke-dasharray=""/><path fill="none" stroke="rgb(0,0,0)" paint-order="fill" d="" stroke-opacity="1" stroke-linejoin="bevel" stroke-miterlimit="10" stroke-dasharray=""/><text fill="rgb(68,68,68)" stroke="none" font-family="helvetica" font-size="11px" font-style="normal" font-weight="normal" text-decoration="normal" x="0" y="0" text-anchor="end" dominant-baseline="central" transform="matrix(1, 0, 0, 1, 0.5, 0.5)" fill-opacity="1">Model 1</text><text fill="rgb(68,68,68)" stroke="none" font-family="helvetica" font-size="11px" font-style="normal" font-weight="normal" text-decoration="normal" x="0" y="0" text-anchor="end" dominant-baseline="central" transform="matrix(1, 0, 0, 1, 0.5, 0.5)" fill-opacity="1">Model 2</text><text fill="rgb(68,68,68)" stroke="none" font-family="helvetica" font-size="11px" font-style="normal" font-weight="normal" text-decoration="normal" x="0" y="0" text-anchor="end" dominant-baseline="central" transform="matrix(1, 0, 0, 1, 0.5, 0.5)" fill-opacity="1">Model 3</text><text fill="rgb(68,68,68)" stroke="none" font-family="helvetica" font-size="11px" font-style="normal" font-weight="normal" text-decoration="normal" x="0" y="0" text-anchor="end" dominant-baseline="central" transform="matrix(1, 0, 0, 1, 0.5, 0.5)" fill-opacity="1">Model 4</text><text fill="rgb(68,68,68)" stroke="none" font-family="helvetica" font-size="11px" font-style="normal" font-weight="normal" text-decoration="normal" x="0" y="0" text-anchor="end" dominant-baseline="central" transform="matrix(1, 0, 0, 1, 0.5, 0.5)" fill-opacity="1">Model 5</text><text fill="rgb(68,68,68)" stroke="none" font-family="helvetica" font-size="11px" font-style="normal" font-weight="normal" text-decoration="normal" x="0" y="0" text-anchor="end" dominant-baseline="central" transform="matrix(1, 0, 0, 1, 0.5, 0.5)" fill-opacity="1">Model 6</text><text fill="rgb(68,68,68)" stroke="none" font-family="helvetica" font-size="11px" font-style="normal" font-weight="normal" text-decoration="normal" x="0" y="0" text-anchor="end" dominant-baseline="central" transform="matrix(1, 0, 0, 1, 0.5, 0.5)" fill-opacity="1">Model 7</text><text fill="rgb(68,68,68)" stroke="none" font-family="helvetica" font-size="11px" font-style="normal" font-weight="normal" text-decoration="normal" x="0" y="0" text-anchor="end" dominant-baseline="central" transform="matrix(1, 0, 0, 1, 0.5, 0.5)" fill-opacity="1">Model 8</text><text fill="rgb(68,68,68)" stroke="none" font-family="helvetica" font-size="11px" font-style="normal" font-weight="normal" text-decoration="normal" x="0" y="0" text-anchor="end" dominant-baseline="central" transform="matrix(1, 0, 0, 1, 0.5, 0.5)" fill-opacity="1">Model 9</text><text fill="rgb(68,68,68)" stroke="none" font-family="helvetica" font-size="11px" font-style="normal" font-weight="normal" text-decoration="normal" x="0" y="0" text-anchor="end" dominant-baseline="central" transform="matrix(1, 0, 0, 1, 0.5, 0.5)" fill-opacity="1">Model 10</text><path fill="rgb(255,255,255)" stroke="rgb(229,229,229)" paint-order="fill" d="M 547.533332824707 47.5 L 660.5 47.5 L 660.5 294.5 L 547.533332824707 294.5 L 547.533332824707 47.5" fill-opacity="0.95" clip-path="url(#FBmBfyfkkAvI)" stroke-opacity="0.5" stroke-linejoin="bevel" stroke-miterlimit="10" stroke-dasharray=""/><text fill="rgb(68,68,68)" stroke="none" font-family="helvetica" font-size="13px" font-style="normal" font-weight="normal" text-decoration="normal" x="582.033332824707" y="67" text-anchor="start" dominant-baseline="central" transform="matrix(1, 0, 0, 1, 0.5, 0.5)" fill-opacity="1">Model 10: 0</text><path fill="rgb(253,231,36)" stroke="none" paint-order="stroke" d="M 559.533332824707 59.5 L 575.533332824707 59.5 L 575.533332824707 75.5 L 559.533332824707 75.5 L 559.533332824707 59.5" fill-opacity="0.8" clip-path="url(#FBmBfyfkkAvI)"/><path fill="none" stroke="rgb(253,231,36)" paint-order="fill" d="M 559.533332824707 59.5 L 575.533332824707 59.5 L 575.533332824707 75.5 L 559.533332824707 75.5 L 559.533332824707 59.5" stroke-opacity="0.8" stroke-linejoin="bevel" stroke-miterlimit="10" stroke-dasharray="" clip-path="url(#FBmBfyfkkAvI)"/><text fill="rgb(68,68,68)" stroke="none" font-family="helvetica" font-size="13px" font-style="normal" font-weight="normal" text-decoration="normal" x="582.033332824707" y="90" text-anchor="start" dominant-baseline="central" transform="matrix(1, 0, 0, 1, 0.5, 0.5)" fill-opacity="1">Model 1: 0</text><path fill="rgb(68,1,84)" stroke="none" paint-order="stroke" d="M 559.533332824707 82.5 L 575.533332824707 82.5 L 575.533332824707 98.5 L 559.533332824707 98.5 L 559.533332824707 82.5" fill-opacity="0.8" clip-path="url(#FBmBfyfkkAvI)"/><path fill="none" stroke="rgb(68,1,84)" paint-order="fill" d="M 559.533332824707 82.5 L 575.533332824707 82.5 L 575.533332824707 98.5 L 559.533332824707 98.5 L 559.533332824707 82.5" stroke-opacity="0.8" stroke-linejoin="bevel" stroke-miterlimit="10" stroke-dasharray="" clip-path="url(#FBmBfyfkkAvI)"/><text fill="rgb(68,68,68)" stroke="none" font-family="helvetica" font-size="13px" font-style="normal" font-weight="normal" text-decoration="normal" x="582.033332824707" y="113" text-anchor="start" dominant-baseline="central" transform="matrix(1, 0, 0, 1, 0.5, 0.5)" fill-opacity="1">Model 2: 0</text><path fill="rgb(71,39,119)" stroke="none" paint-order="stroke" d="M 559.533332824707 105.5 L 575.533332824707 105.5 L 575.533332824707 121.5 L 559.533332824707 121.5 L 559.533332824707 105.5" fill-opacity="0.8" clip-path="url(#FBmBfyfkkAvI)"/><path fill="none" stroke="rgb(71,39,119)" paint-order="fill" d="M 559.533332824707 105.5 L 575.533332824707 105.5 L 575.533332824707 121.5 L 559.533332824707 121.5 L 559.533332824707 105.5" stroke-opacity="0.8" stroke-linejoin="bevel" stroke-miterlimit="10" stroke-dasharray="" clip-path="url(#FBmBfyfkkAvI)"/><text fill="rgb(68,68,68)" stroke="none" font-family="helvetica" font-size="13px" font-style="normal" font-weight="normal" text-decoration="normal" x="582.033332824707" y="136" text-anchor="start" dominant-baseline="central" transform="matrix(1, 0, 0, 1, 0.5, 0.5)" fill-opacity="1">Model 3: 0</text><path fill="rgb(62,73,137)" stroke="none" paint-order="stroke" d="M 559.533332824707 128.5 L 575.533332824707 128.5 L 575.533332824707 144.5 L 559.533332824707 144.5 L 559.533332824707 128.5" fill-opacity="0.8" clip-path="url(#FBmBfyfkkAvI)"/><path fill="none" stroke="rgb(62,73,137)" paint-order="fill" d="M 559.533332824707 128.5 L 575.533332824707 128.5 L 575.533332824707 144.5 L 559.533332824707 144.5 L 559.533332824707 128.5" stroke-opacity="0.8" stroke-linejoin="bevel" stroke-miterlimit="10" stroke-dasharray="" clip-path="url(#FBmBfyfkkAvI)"/><text fill="rgb(68,68,68)" stroke="none" font-family="helvetica" font-size="13px" font-style="normal" font-weight="normal" text-decoration="normal" x="582.033332824707" y="159" text-anchor="start" dominant-baseline="central" transform="matrix(1, 0, 0, 1, 0.5, 0.5)" fill-opacity="1">Model 4: 0</text><path fill="rgb(48,103,141)" stroke="none" paint-order="stroke" d="M 559.533332824707 151.5 L 575.533332824707 151.5 L 575.533332824707 167.5 L 559.533332824707 167.5 L 559.533332824707 151.5" fill-opacity="0.8" clip-path="url(#FBmBfyfkkAvI)"/><path fill="none" stroke="rgb(48,103,141)" paint-order="fill" d="M 559.533332824707 151.5 L 575.533332824707 151.5 L 575.533332824707 167.5 L 559.533332824707 167.5 L 559.533332824707 151.5" stroke-opacity="0.8" stroke-linejoin="bevel" stroke-miterlimit="10" stroke-dasharray="" clip-path="url(#FBmBfyfkkAvI)"/><text fill="rgb(68,68,68)" stroke="none" font-family="helvetica" font-size="13px" font-style="normal" font-weight="normal" text-decoration="normal" x="582.033332824707" y="182" text-anchor="start" dominant-baseline="central" transform="matrix(1, 0, 0, 1, 0.5, 0.5)" fill-opacity="1">Model 5: 0</text><path fill="rgb(37,130,142)" stroke="none" paint-order="stroke" d="M 559.533332824707 174.5 L 575.533332824707 174.5 L 575.533332824707 190.5 L 559.533332824707 190.5 L 559.533332824707 174.5" fill-opacity="0.8" clip-path="url(#FBmBfyfkkAvI)"/><path fill="none" stroke="rgb(37,130,142)" paint-order="fill" d="M 559.533332824707 174.5 L 575.533332824707 174.5 L 575.533332824707 190.5 L 559.533332824707 190.5 L 559.533332824707 174.5" stroke-opacity="0.8" stroke-linejoin="bevel" stroke-miterlimit="10" stroke-dasharray="" clip-path="url(#FBmBfyfkkAvI)"/><text fill="rgb(68,68,68)" stroke="none" font-family="helvetica" font-size="13px" font-style="normal" font-weight="normal" text-decoration="normal" x="582.033332824707" y="205" text-anchor="start" dominant-baseline="central" transform="matrix(1, 0, 0, 1, 0.5, 0.5)" fill-opacity="1">Model 6: 0</text><path fill="rgb(30,156,137)" stroke="none" paint-order="stroke" d="M 559.533332824707 197.5 L 575.533332824707 197.5 L 575.533332824707 213.5 L 559.533332824707 213.5 L 559.533332824707 197.5" fill-opacity="0.8" clip-path="url(#FBmBfyfkkAvI)"/><path fill="none" stroke="rgb(30,156,137)" paint-order="fill" d="M 559.533332824707 197.5 L 575.533332824707 197.5 L 575.533332824707 213.5 L 559.533332824707 213.5 L 559.533332824707 197.5" stroke-opacity="0.8" stroke-linejoin="bevel" stroke-miterlimit="10" stroke-dasharray="" clip-path="url(#FBmBfyfkkAvI)"/><text fill="rgb(68,68,68)" stroke="none" font-family="helvetica" font-size="13px" font-style="normal" font-weight="normal" text-decoration="normal" x="582.033332824707" y="228" text-anchor="start" dominant-baseline="central" transform="matrix(1, 0, 0, 1, 0.5, 0.5)" fill-opacity="1">Model 7: 0</text><path fill="rgb(53,183,120)" stroke="none" paint-order="stroke" d="M 559.533332824707 220.5 L 575.533332824707 220.5 L 575.533332824707 236.5 L 559.533332824707 236.5 L 559.533332824707 220.5" fill-opacity="0.8" clip-path="url(#FBmBfyfkkAvI)"/><path fill="none" stroke="rgb(53,183,120)" paint-order="fill" d="M 559.533332824707 220.5 L 575.533332824707 220.5 L 575.533332824707 236.5 L 559.533332824707 236.5 L 559.533332824707 220.5" stroke-opacity="0.8" stroke-linejoin="bevel" stroke-miterlimit="10" stroke-dasharray="" clip-path="url(#FBmBfyfkkAvI)"/><text fill="rgb(68,68,68)" stroke="none" font-family="helvetica" font-size="13px" font-style="normal" font-weight="normal" text-decoration="normal" x="582.033332824707" y="251" text-anchor="start" dominant-baseline="central" transform="matrix(1, 0, 0, 1, 0.5, 0.5)" fill-opacity="1">Model 8: 0</text><path fill="rgb(107,205,89)" stroke="none" paint-order="stroke" d="M 559.533332824707 243.5 L 575.533332824707 243.5 L 575.533332824707 259.5 L 559.533332824707 259.5 L 559.533332824707 243.5" fill-opacity="0.8" clip-path="url(#FBmBfyfkkAvI)"/><path fill="none" stroke="rgb(107,205,89)" paint-order="fill" d="M 559.533332824707 243.5 L 575.533332824707 243.5 L 575.533332824707 259.5 L 559.533332824707 259.5 L 559.533332824707 243.5" stroke-opacity="0.8" stroke-linejoin="bevel" stroke-miterlimit="10" stroke-dasharray="" clip-path="url(#FBmBfyfkkAvI)"/><text fill="rgb(68,68,68)" stroke="none" font-family="helvetica" font-size="13px" font-style="normal" font-weight="normal" text-decoration="normal" x="582.033332824707" y="274" text-anchor="start" dominant-baseline="central" transform="matrix(1, 0, 0, 1, 0.5, 0.5)" fill-opacity="1">Model 9: 0</text><path fill="rgb(178,221,44)" stroke="none" paint-order="stroke" d="M 559.533332824707 266.5 L 575.533332824707 266.5 L 575.533332824707 282.5 L 559.533332824707 282.5 L 559.533332824707 266.5" fill-opacity="0.8" clip-path="url(#FBmBfyfkkAvI)"/><path fill="none" stroke="rgb(178,221,44)" paint-order="fill" d="M 559.533332824707 266.5 L 575.533332824707 266.5 L 575.533332824707 282.5 L 559.533332824707 282.5 L 559.533332824707 266.5" stroke-opacity="0.8" stroke-linejoin="bevel" stroke-miterlimit="10" stroke-dasharray="" clip-path="url(#FBmBfyfkkAvI)"/><path fill="none" stroke="none"/><text fill="rgb(68,68,68)" stroke="none" font-family="helvetica" font-size="14pt" font-style="normal" font-weight="bold" text-decoration="normal" x="0" y="0" text-anchor="middle" dominant-baseline="text-before-edge" transform="matrix(1, 0, 0, 1, 366, 5.5)" fill-opacity="1">Model quality: Excluded Volume Analysis</text></svg>