<svg version="1.1" xmlns="http://www.w3.org/2000/svg" xmlns:xlink="http://www.w3.org/1999/xlink" width="700" height="250"><defs><clipPath id="eBWDdqRoLcyc"><path fill="none" stroke="none" d="M 157.5 37.5 L 670.5 37.5 L 670.5 217.5 L 157.5 217.5 L 157.5 37.5"/></clipPath><clipPath id="OCbXiCemUTpZ"><path fill="none" stroke="none" d="M 157.5 37.5 L 670.5 37.5 L 670.5 217.5 L 157.5 217.5 L 157.5 37.5"/></clipPath><clipPath id="nDCMpztMcuIW"><path fill="none" stroke="none" d="M 157.5 37.5 L 670.5 37.5 L 670.5 217.5 L 157.5 217.5 L 157.5 37.5"/></clipPath><clipPath id="AzoZzKnpbFGP"><path fill="none" stroke="none" d="M 157.5 37.5 L 670.5 37.5 L 670.5 217.5 L 157.5 217.5 L 157.5 37.5"/></clipPath><clipPath id="tRNpQbhicpqQ"><path fill="none" stroke="none" d="M 157.5 37.5 L 670.5 37.5 L 670.5 217.5 L 157.5 217.5 L 157.5 37.5"/></clipPath></defs><path fill="rgb(255,255,255)" stroke="none" paint-order="stroke" d="M 0.5 0.5 L 700.5 0.5 L 700.5 250.5 L 0.5 250.5 L 0.5 0.5" fill-opacity="1"/><rect fill="#FFFFFF" stroke="none" x="157" y="37" width="513" height="180" transform="matrix(1, 0, 0, 1, 0.5, 0.5)"/><path fill="rgb(255,255,255)" stroke="none" paint-order="stroke" d="M 157.5 37.5 L 670.5 37.5 L 670.5 217.5 L 157.5 217.5 L 157.5 37.5" fill-opacity="1"/><path fill="none" stroke="rgb(229,229,229)" paint-order="fill" d="M 157.5 37.5 L 670.5 37.5 L 670.5 217.5 L 157.5 217.5 L 157.5 37.5" stroke-opacity="1" stroke-linejoin="bevel" stroke-miterlimit="10" stroke-dasharray=""/><path fill="none" stroke="rgb(229,229,229)" paint-order="fill" d="M 259.5 217.5 L 259.5 37.5 M 360.5 217.5 L 360.5 37.5 M 462.5 217.5 L 462.5 37.5 M 563.5 217.5 L 563.5 37.5 M 665.5 217.5 L 665.5 37.5" stroke-opacity="1" stroke-linejoin="bevel" stroke-miterlimit="10" stroke-dasharray="" clip-path="url(#eBWDdqRoLcyc)"/><path fill="none" stroke="none"/><path fill="rgb(68,1,84)" stroke="none" paint-order="stroke" d="M 157.5 114 L 665.4207763671875 114 L 665.4207763671875 141 L 157.5 141 L 157.5 114" fill-opacity="0.8" clip-path="url(#nDCMpztMcuIW)"/><path fill="none" stroke="rgb(68,1,84)" paint-order="fill" d="M 157.5 114 L 665.4207763671875 114 L 665.4207763671875 141 L 157.5 141 L 157.5 114" stroke-opacity="0.8" stroke-linejoin="bevel" stroke-miterlimit="10" stroke-dasharray="" clip-path="url(#nDCMpztMcuIW)"/><path fill="none" stroke="rgb(0,0,0)" paint-order="fill" d="M 157.5 217.5 L 670.5 217.5" stroke-opacity="1" stroke-linejoin="bevel" stroke-miterlimit="10" stroke-dasharray=""/><path fill="none" stroke="rgb(0,0,0)" paint-order="fill" d="M 157.5 223.5 L 157.5 215.5 M 259.5 223.5 L 259.5 215.5 M 360.5 223.5 L 360.5 215.5 M 462.5 223.5 L 462.5 215.5 M 563.5 223.5 L 563.5 215.5 M 665.5 223.5 L 665.5 215.5" stroke-opacity="1" stroke-linejoin="bevel" stroke-miterlimit="10" stroke-dasharray=""/><path fill="none" stroke="rgb(0,0,0)" paint-order="fill" d="M 157.5 221.5 L 157.5 217.5 M 177.5 221.5 L 177.5 217.5 M 198.5 221.5 L 198.5 217.5 M 218.5 221.5 L 218.5 217.5 M 238.5 221.5 L 238.5 217.5 M 259.5 221.5 L 259.5 217.5 M 279.5 221.5 L 279.5 217.5 M 299.5 221.5 L 299.5 217.5 M 320.5 221.5 L 320.5 217.5 M 340.5 221.5 L 340.5 217.5 M 360.5 221.5 L 360.5 217.5 M 380.5 221.5 L 380.5 217.5 M 401.5 221.5 L 401.5 217.5 M 421.5 221.5 L 421.5 217.5 M 441.5 221.5 L 441.5 217.5 M 462.5 221.5 L 462.5 217.5 M 482.5 221.5 L 482.5 217.5 M 502.5 221.5 L 502.5 217.5 M 523.5 221.5 L 523.5 217.5 M 543.5 221.5 L 543.5 217.5 M 563.5 221.5 L 563.5 217.5 M 584.5 221.5 L 584.5 217.5 M 604.5 221.5 L 604.5 217.5 M 624.5 221.5 L 624.5 217.5 M 645.5 221.5 L 645.5 217.5 M 665.5 221.5 L 665.5 217.5" stroke-opacity="1" stroke-linejoin="bevel" stroke-miterlimit="10" stroke-dasharray=""/><text fill="rgb(68,68,68)" stroke="none" font-family="helvetica" font-size="14pt" font-style="normal" font-weight="normal" text-decoration="normal" x="0" y="0" text-anchor="middle" dominant-baseline="hanging" transform="matrix(1, 0, 0, 1, 157.5, 228.5)" fill-opacity="1">0</text><text fill="rgb(68,68,68)" stroke="none" font-family="helvetica" font-size="14pt" font-style="normal" font-weight="normal" text-decoration="normal" x="0" y="0" text-anchor="middle" dominant-baseline="hanging" transform="matrix(1, 0, 0, 1, 259.5, 228.5)" fill-opacity="1">20</text><text fill="rgb(68,68,68)" stroke="none" font-family="helvetica" font-size="14pt" font-style="normal" font-weight="normal" text-decoration="normal" x="0" y="0" text-anchor="middle" dominant-baseline="hanging" transform="matrix(1, 0, 0, 1, 360.5, 228.5)" fill-opacity="1">40</text><text fill="rgb(68,68,68)" stroke="none" font-family="helvetica" font-size="14pt" font-style="normal" font-weight="normal" text-decoration="normal" x="0" y="0" text-anchor="middle" dominant-baseline="hanging" transform="matrix(1, 0, 0, 1, 462.5, 228.5)" fill-opacity="1">60</text><text fill="rgb(68,68,68)" stroke="none" font-family="helvetica" font-size="14pt" font-style="normal" font-weight="normal" text-decoration="normal" x="0" y="0" text-anchor="middle" dominant-baseline="hanging" transform="matrix(1, 0, 0, 1, 563.5, 228.5)" fill-opacity="1">80</text><text fill="rgb(68,68,68)" stroke="none" font-family="helvetica" font-size="14pt" font-style="normal" font-weight="normal" text-decoration="normal" x="0" y="0" text-anchor="middle" dominant-baseline="hanging" transform="matrix(1, 0, 0, 1, 665.5, 228.5)" fill-opacity="1">100</text><path fill="none" stroke="rgb(0,0,0)" paint-order="fill" d="M 157.5 217.5 L 157.5 37.5" stroke-opacity="1" stroke-linejoin="bevel" stroke-miterlimit="10" stroke-dasharray=""/><path fill="none" stroke="rgb(0,0,0)" paint-order="fill" d="M 151.5 127.5 L 159.5 127.5" stroke-opacity="1" stroke-linejoin="bevel" stroke-miterlimit="10" stroke-dasharray=""/><path fill="none" stroke="rgb(0,0,0)" paint-order="fill" d="" stroke-opacity="1" stroke-linejoin="bevel" stroke-miterlimit="10" stroke-dasharray=""/><text fill="rgb(68,68,68)" stroke="none" font-family="helvetica" font-size="14pt" font-style="normal" font-weight="normal" text-decoration="normal" x="0" y="0" text-anchor="end" dominant-baseline="central" transform="matrix(1, 0, 0, 1, 146.5, 127.5)" fill-opacity="1">Model Model #1</text><path fill="rgb(255,255,255)" stroke="rgb(229,229,229)" paint-order="fill" d="M 517.8833312988281 47.5 L 660.5 47.5 L 660.5 87.5 L 517.8833312988281 87.5 L 517.8833312988281 47.5" fill-opacity="0.95" clip-path="url(#AzoZzKnpbFGP)" stroke-opacity="0.5" stroke-linejoin="bevel" stroke-miterlimit="10" stroke-dasharray=""/><text fill="rgb(68,68,68)" stroke="none" font-family="helvetica" font-size="13px" font-style="normal" font-weight="normal" text-decoration="normal" x="552.3833312988281" y="67" text-anchor="start" dominant-baseline="central" transform="matrix(1, 0, 0, 1, 0.5, 0.5)" fill-opacity="1">Model 1: 100.0%</text><path fill="rgb(68,1,84)" stroke="none" paint-order="stroke" d="M 529.8833312988281 59.5 L 545.8833312988281 59.5 L 545.8833312988281 75.5 L 529.8833312988281 75.5 L 529.8833312988281 59.5" fill-opacity="0.8" clip-path="url(#AzoZzKnpbFGP)"/><path fill="none" stroke="rgb(68,1,84)" paint-order="fill" d="M 529.8833312988281 59.5 L 545.8833312988281 59.5 L 545.8833312988281 75.5 L 529.8833312988281 75.5 L 529.8833312988281 59.5" stroke-opacity="0.8" stroke-linejoin="bevel" stroke-miterlimit="10" stroke-dasharray="" clip-path="url(#AzoZzKnpbFGP)"/><path fill="none" stroke="none"/><text fill="rgb(68,68,68)" stroke="none" font-family="helvetica" font-size="14pt" font-style="normal" font-weight="bold" text-decoration="normal" x="0" y="0" text-anchor="middle" dominant-baseline="text-after-edge" transform="matrix(1, 0, 0, 1, 414, 32.5)" fill-opacity="1">Fit to XL-MS input</text></svg>