<svg version="1.1" xmlns="http://www.w3.org/2000/svg" xmlns:xlink="http://www.w3.org/1999/xlink" width="700" height="300"><defs><clipPath id="wyRMbLBUBxOd"><path fill="none" stroke="none" d="M 54.5 37.5 L 670.5 37.5 L 670.5 188.5 L 54.5 188.5 L 54.5 37.5"/></clipPath><clipPath id="OwTvqKLWUwJD"><path fill="none" stroke="none" d="M 54.5 37.5 L 670.5 37.5 L 670.5 188.5 L 54.5 188.5 L 54.5 37.5"/></clipPath><clipPath id="WplrwKxakiPG"><path fill="none" stroke="none" d="M 54.5 37.5 L 670.5 37.5 L 670.5 188.5 L 54.5 188.5 L 54.5 37.5"/></clipPath><clipPath id="dACurvMdyiOT"><path fill="none" stroke="none" d="M 54.5 37.5 L 670.5 37.5 L 670.5 188.5 L 54.5 188.5 L 54.5 37.5"/></clipPath></defs><path fill="rgb(255,255,255)" stroke="none" paint-order="stroke" d="M 0.5 0.5 L 700.5 0.5 L 700.5 300.5 L 0.5 300.5 L 0.5 0.5" fill-opacity="1"/><rect fill="#FFFFFF" stroke="none" x="54" y="37" width="616" height="151" transform="matrix(1, 0, 0, 1, 0.5, 0.5)"/><path fill="rgb(255,255,255)" stroke="none" paint-order="stroke" d="M 54.5 37.5 L 670.5 37.5 L 670.5 188.5 L 54.5 188.5 L 54.5 37.5" fill-opacity="1"/><path fill="none" stroke="rgb(229,229,229)" paint-order="fill" d="M 54.5 37.5 L 670.5 37.5 L 670.5 188.5 L 54.5 188.5 L 54.5 37.5" stroke-opacity="1" stroke-linejoin="bevel" stroke-miterlimit="10" stroke-dasharray=""/><path fill="none" stroke="rgb(229,229,229)" paint-order="fill" d="M 115.5 188.5 L 115.5 37.5 M 223.5 188.5 L 223.5 37.5 M 331.5 188.5 L 331.5 37.5 M 439.5 188.5 L 439.5 37.5 M 547.5 188.5 L 547.5 37.5 M 655.5 188.5 L 655.5 37.5" stroke-opacity="1" stroke-linejoin="bevel" stroke-miterlimit="10" stroke-dasharray="" clip-path="url(#wyRMbLBUBxOd)"/><path fill="none" stroke="none"/><path fill="rgb(68,1,84)" stroke="none" paint-order="stroke" d="M 54.5 166.92855834960938 L 259.8333435058594 166.92855834960938 L 259.8333435058594 188.5 L 54.5 188.5 L 54.5 166.92855834960938" fill-opacity="0.8" clip-path="url(#WplrwKxakiPG)"/><path fill="none" stroke="rgb(0,0,0)" paint-order="fill" d="M 54.5 166.92855834960938 L 259.8333435058594 166.92855834960938 L 259.8333435058594 188.5 L 54.5 188.5 L 54.5 166.92855834960938" stroke-opacity="0.8" stroke-linejoin="bevel" stroke-miterlimit="10" stroke-dasharray="" clip-path="url(#WplrwKxakiPG)"/><path fill="rgb(68,57,130)" stroke="none" paint-order="stroke" d="M 54.5 145.35714721679688 L 465.1666564941406 145.35714721679688 L 465.1666564941406 166.92855834960938 L 54.5 166.92855834960938 L 54.5 145.35714721679688" fill-opacity="0.8" clip-path="url(#WplrwKxakiPG)"/><path fill="none" stroke="rgb(0,0,0)" paint-order="fill" d="M 54.5 145.35714721679688 L 465.1666564941406 145.35714721679688 L 465.1666564941406 166.92855834960938 L 54.5 166.92855834960938 L 54.5 145.35714721679688" stroke-opacity="0.8" stroke-linejoin="bevel" stroke-miterlimit="10" stroke-dasharray="" clip-path="url(#WplrwKxakiPG)"/><path fill="rgb(48,103,141)" stroke="none" paint-order="stroke" d="M 54.5 123.78570556640625 L 264.1561279296875 123.78570556640625 L 264.1561279296875 145.35714721679688 L 54.5 145.35714721679688 L 54.5 123.78570556640625" fill-opacity="0.8" clip-path="url(#WplrwKxakiPG)"/><path fill="none" stroke="rgb(0,0,0)" paint-order="fill" d="M 54.5 123.78570556640625 L 264.1561279296875 123.78570556640625 L 264.1561279296875 145.35714721679688 L 54.5 145.35714721679688 L 54.5 123.78570556640625" stroke-opacity="0.8" stroke-linejoin="bevel" stroke-miterlimit="10" stroke-dasharray="" clip-path="url(#WplrwKxakiPG)"/><path fill="rgb(32,143,140)" stroke="none" paint-order="stroke" d="M 54.5 102.21428680419922 L 352.773681640625 102.21428680419922 L 352.773681640625 123.78571319580078 L 54.5 123.78571319580078 L 54.5 102.21428680419922" fill-opacity="0.8" clip-path="url(#WplrwKxakiPG)"/><path fill="none" stroke="rgb(0,0,0)" paint-order="fill" d="M 54.5 102.21428680419922 L 352.773681640625 102.21428680419922 L 352.773681640625 123.78571319580078 L 54.5 123.78571319580078 L 54.5 102.21428680419922" stroke-opacity="0.8" stroke-linejoin="bevel" stroke-miterlimit="10" stroke-dasharray="" clip-path="url(#WplrwKxakiPG)"/><path fill="rgb(53,183,120)" stroke="none" paint-order="stroke" d="M 54.5 80.64286041259766 L 398.16314697265625 80.64286041259766 L 398.16314697265625 102.21428680419922 L 54.5 102.21428680419922 L 54.5 80.64286041259766" fill-opacity="0.8" clip-path="url(#WplrwKxakiPG)"/><path fill="none" stroke="rgb(0,0,0)" paint-order="fill" d="M 54.5 80.64286041259766 L 398.16314697265625 80.64286041259766 L 398.16314697265625 102.21428680419922 L 54.5 102.21428680419922 L 54.5 80.64286041259766" stroke-opacity="0.8" stroke-linejoin="bevel" stroke-miterlimit="10" stroke-dasharray="" clip-path="url(#WplrwKxakiPG)"/><path fill="rgb(141,214,68)" stroke="none" paint-order="stroke" d="M 54.5 59.07142639160156 L 417.61578369140625 59.07142639160156 L 417.61578369140625 80.64285278320312 L 54.5 80.64285278320312 L 54.5 59.07142639160156" fill-opacity="0.8" clip-path="url(#WplrwKxakiPG)"/><path fill="none" stroke="rgb(0,0,0)" paint-order="fill" d="M 54.5 59.07142639160156 L 417.61578369140625 59.07142639160156 L 417.61578369140625 80.64285278320312 L 54.5 80.64285278320312 L 54.5 59.07142639160156" stroke-opacity="0.8" stroke-linejoin="bevel" stroke-miterlimit="10" stroke-dasharray="" clip-path="url(#WplrwKxakiPG)"/><path fill="rgb(253,231,36)" stroke="none" paint-order="stroke" d="M 54.5 37.5 L 396.0017395019531 37.5 L 396.0017395019531 59.07142639160156 L 54.5 59.07142639160156 L 54.5 37.5" fill-opacity="0.8" clip-path="url(#WplrwKxakiPG)"/><path fill="none" stroke="rgb(0,0,0)" paint-order="fill" d="M 54.5 37.5 L 396.0017395019531 37.5 L 396.0017395019531 59.07142639160156 L 54.5 59.07142639160156 L 54.5 37.5" stroke-opacity="0.8" stroke-linejoin="bevel" stroke-miterlimit="10" stroke-dasharray="" clip-path="url(#WplrwKxakiPG)"/><path fill="none" stroke="rgb(0,0,0)" paint-order="fill" d="M 54.5 188.5 L 670.5 188.5" stroke-opacity="1" stroke-linejoin="bevel" stroke-miterlimit="10" stroke-dasharray=""/><path fill="none" stroke="rgb(0,0,0)" paint-order="fill" d="M 115.5 194.5 L 115.5 186.5 M 223.5 194.5 L 223.5 186.5 M 331.5 194.5 L 331.5 186.5 M 439.5 194.5 L 439.5 186.5 M 547.5 194.5 L 547.5 186.5 M 655.5 194.5 L 655.5 186.5" stroke-opacity="1" stroke-linejoin="bevel" stroke-miterlimit="10" stroke-dasharray=""/><path fill="none" stroke="rgb(0,0,0)" paint-order="fill" d="M 93.5 192.5 L 93.5 188.5 M 71.5 192.5 L 71.5 188.5 M 115.5 192.5 L 115.5 188.5 M 136.5 192.5 L 136.5 188.5 M 158.5 192.5 L 158.5 188.5 M 179.5 192.5 L 179.5 188.5 M 201.5 192.5 L 201.5 188.5 M 223.5 192.5 L 223.5 188.5 M 244.5 192.5 L 244.5 188.5 M 266.5 192.5 L 266.5 188.5 M 287.5 192.5 L 287.5 188.5 M 309.5 192.5 L 309.5 188.5 M 331.5 192.5 L 331.5 188.5 M 352.5 192.5 L 352.5 188.5 M 374.5 192.5 L 374.5 188.5 M 396.5 192.5 L 396.5 188.5 M 417.5 192.5 L 417.5 188.5 M 439.5 192.5 L 439.5 188.5 M 460.5 192.5 L 460.5 188.5 M 482.5 192.5 L 482.5 188.5 M 504.5 192.5 L 504.5 188.5 M 525.5 192.5 L 525.5 188.5 M 547.5 192.5 L 547.5 188.5 M 568.5 192.5 L 568.5 188.5 M 590.5 192.5 L 590.5 188.5 M 612.5 192.5 L 612.5 188.5 M 633.5 192.5 L 633.5 188.5 M 655.5 192.5 L 655.5 188.5" stroke-opacity="1" stroke-linejoin="bevel" stroke-miterlimit="10" stroke-dasharray=""/><text fill="rgb(68,68,68)" stroke="none" font-family="helvetica" font-size="11px" font-style="normal" font-weight="normal" text-decoration="normal" x="0" y="0" text-anchor="middle" dominant-baseline="hanging" transform="matrix(1, 0, 0, 1, 115.5, 199.5)" fill-opacity="1">6700</text><text fill="rgb(68,68,68)" stroke="none" font-family="helvetica" font-size="11px" font-style="normal" font-weight="normal" text-decoration="normal" x="0" y="0" text-anchor="middle" dominant-baseline="hanging" transform="matrix(1, 0, 0, 1, 223.5, 199.5)" fill-opacity="1">6750</text><text fill="rgb(68,68,68)" stroke="none" font-family="helvetica" font-size="11px" font-style="normal" font-weight="normal" text-decoration="normal" x="0" y="0" text-anchor="middle" dominant-baseline="hanging" transform="matrix(1, 0, 0, 1, 331.5, 199.5)" fill-opacity="1">6800</text><text fill="rgb(68,68,68)" stroke="none" font-family="helvetica" font-size="11px" font-style="normal" font-weight="normal" text-decoration="normal" x="0" y="0" text-anchor="middle" dominant-baseline="hanging" transform="matrix(1, 0, 0, 1, 439.5, 199.5)" fill-opacity="1">6850</text><text fill="rgb(68,68,68)" stroke="none" font-family="helvetica" font-size="11px" font-style="normal" font-weight="normal" text-decoration="normal" x="0" y="0" text-anchor="middle" dominant-baseline="hanging" transform="matrix(1, 0, 0, 1, 547.5, 199.5)" fill-opacity="1">6900</text><text fill="rgb(68,68,68)" stroke="none" font-family="helvetica" font-size="11px" font-style="normal" font-weight="normal" text-decoration="normal" x="0" y="0" text-anchor="middle" dominant-baseline="hanging" transform="matrix(1, 0, 0, 1, 655.5, 199.5)" fill-opacity="1">6950</text><text fill="rgb(68,68,68)" stroke="none" font-family="helvetica" font-size="14pt" font-style="italic" font-weight="normal" text-decoration="normal" x="0" y="0" text-anchor="middle" dominant-baseline="hanging" transform="matrix(1, 0, 0, 1, 362.5, 217.5)" fill-opacity="1">Number of violations</text><path fill="none" stroke="rgb(0,0,0)" paint-order="fill" d="M 54.5 188.5 L 54.5 37.5" stroke-opacity="1" stroke-linejoin="bevel" stroke-miterlimit="10" stroke-dasharray=""/><path fill="none" stroke="rgb(0,0,0)" paint-order="fill" d="M 48.5 177.5 L 56.5 177.5 M 48.5 156.5 L 56.5 156.5 M 48.5 134.5 L 56.5 134.5 M 48.5 113.5 L 56.5 113.5 M 48.5 91.5 L 56.5 91.5 M 48.5 69.5 L 56.5 69.5 M 48.5 48.5 L 56.5 48.5" stroke-opacity="1" stroke-linejoin="bevel" stroke-miterlimit="10" stroke-dasharray=""/><path fill="none" stroke="rgb(0,0,0)" paint-order="fill" d="" stroke-opacity="1" stroke-linejoin="bevel" stroke-miterlimit="10" stroke-dasharray=""/><text fill="rgb(68,68,68)" stroke="none" font-family="helvetica" font-size="11px" font-style="normal" font-weight="normal" text-decoration="normal" x="0" y="0" text-anchor="end" dominant-baseline="central" transform="matrix(1, 0, 0, 1, 43.5, 177.5)" fill-opacity="1">Model 1</text><text fill="rgb(68,68,68)" stroke="none" font-family="helvetica" font-size="11px" font-style="normal" font-weight="normal" text-decoration="normal" x="0" y="0" text-anchor="end" dominant-baseline="central" transform="matrix(1, 0, 0, 1, 43.5, 156.5)" fill-opacity="1">Model 2</text><text fill="rgb(68,68,68)" stroke="none" font-family="helvetica" font-size="11px" font-style="normal" font-weight="normal" text-decoration="normal" x="0" y="0" text-anchor="end" dominant-baseline="central" transform="matrix(1, 0, 0, 1, 43.5, 134.5)" fill-opacity="1">Model 3</text><text fill="rgb(68,68,68)" stroke="none" font-family="helvetica" font-size="11px" font-style="normal" font-weight="normal" text-decoration="normal" x="0" y="0" text-anchor="end" dominant-baseline="central" transform="matrix(1, 0, 0, 1, 43.5, 113.5)" fill-opacity="1">Model 4</text><text fill="rgb(68,68,68)" stroke="none" font-family="helvetica" font-size="11px" font-style="normal" font-weight="normal" text-decoration="normal" x="0" y="0" text-anchor="end" dominant-baseline="central" transform="matrix(1, 0, 0, 1, 43.5, 91.5)" fill-opacity="1">Model 5</text><text fill="rgb(68,68,68)" stroke="none" font-family="helvetica" font-size="11px" font-style="normal" font-weight="normal" text-decoration="normal" x="0" y="0" text-anchor="end" dominant-baseline="central" transform="matrix(1, 0, 0, 1, 43.5, 69.5)" fill-opacity="1">Model 6</text><text fill="rgb(68,68,68)" stroke="none" font-family="helvetica" font-size="11px" font-style="normal" font-weight="normal" text-decoration="normal" x="0" y="0" text-anchor="end" dominant-baseline="central" transform="matrix(1, 0, 0, 1, 43.5, 48.5)" fill-opacity="1">Model 7</text><path fill="rgb(255,255,255)" stroke="rgb(229,229,229)" paint-order="fill" d="M 78.54999732971191 250.5 L 646.4500026702881 250.5 L 646.4500026702881 290.5 L 78.54999732971191 290.5 L 78.54999732971191 250.5" fill-opacity="0.95" stroke-opacity="0.5" stroke-linejoin="bevel" stroke-miterlimit="10" stroke-dasharray=""/><text fill="rgb(68,68,68)" stroke="none" font-family="helvetica" font-size="8px" font-style="normal" font-weight="normal" text-decoration="normal" x="113.04999732971191" y="270" text-anchor="start" dominant-baseline="central" transform="matrix(1, 0, 0, 1, 0.5, 0.5)" fill-opacity="1">Model 1: 6767</text><path fill="rgb(68,1,84)" stroke="none" paint-order="stroke" d="M 90.54999732971191 262.5 L 106.54999732971191 262.5 L 106.54999732971191 278.5 L 90.54999732971191 278.5 L 90.54999732971191 262.5" fill-opacity="0.8"/><path fill="none" stroke="rgb(0,0,0)" paint-order="fill" d="M 90.54999732971191 262.5 L 106.54999732971191 262.5 L 106.54999732971191 278.5 L 90.54999732971191 278.5 L 90.54999732971191 262.5" stroke-opacity="0.8" stroke-linejoin="bevel" stroke-miterlimit="10" stroke-dasharray=""/><text fill="rgb(68,68,68)" stroke="none" font-family="helvetica" font-size="8px" font-style="normal" font-weight="normal" text-decoration="normal" x="191.74999809265137" y="270" text-anchor="start" dominant-baseline="central" transform="matrix(1, 0, 0, 1, 0.5, 0.5)" fill-opacity="1">Model 2: 6862</text><path fill="rgb(68,57,130)" stroke="none" paint-order="stroke" d="M 169.24999809265137 262.5 L 185.24999809265137 262.5 L 185.24999809265137 278.5 L 169.24999809265137 278.5 L 169.24999809265137 262.5" fill-opacity="0.8"/><path fill="none" stroke="rgb(0,0,0)" paint-order="fill" d="M 169.24999809265137 262.5 L 185.24999809265137 262.5 L 185.24999809265137 278.5 L 169.24999809265137 278.5 L 169.24999809265137 262.5" stroke-opacity="0.8" stroke-linejoin="bevel" stroke-miterlimit="10" stroke-dasharray=""/><text fill="rgb(68,68,68)" stroke="none" font-family="helvetica" font-size="8px" font-style="normal" font-weight="normal" text-decoration="normal" x="270.4499988555908" y="270" text-anchor="start" dominant-baseline="central" transform="matrix(1, 0, 0, 1, 0.5, 0.5)" fill-opacity="1">Model 3: 6769</text><path fill="rgb(48,103,141)" stroke="none" paint-order="stroke" d="M 247.94999885559082 262.5 L 263.9499988555908 262.5 L 263.9499988555908 278.5 L 247.94999885559082 278.5 L 247.94999885559082 262.5" fill-opacity="0.8"/><path fill="none" stroke="rgb(0,0,0)" paint-order="fill" d="M 247.94999885559082 262.5 L 263.9499988555908 262.5 L 263.9499988555908 278.5 L 247.94999885559082 278.5 L 247.94999885559082 262.5" stroke-opacity="0.8" stroke-linejoin="bevel" stroke-miterlimit="10" stroke-dasharray=""/><text fill="rgb(68,68,68)" stroke="none" font-family="helvetica" font-size="8px" font-style="normal" font-weight="normal" text-decoration="normal" x="349.1499996185303" y="270" text-anchor="start" dominant-baseline="central" transform="matrix(1, 0, 0, 1, 0.5, 0.5)" fill-opacity="1">Model 4: 6810</text><path fill="rgb(32,143,140)" stroke="none" paint-order="stroke" d="M 326.6499996185303 262.5 L 342.6499996185303 262.5 L 342.6499996185303 278.5 L 326.6499996185303 278.5 L 326.6499996185303 262.5" fill-opacity="0.8"/><path fill="none" stroke="rgb(0,0,0)" paint-order="fill" d="M 326.6499996185303 262.5 L 342.6499996185303 262.5 L 342.6499996185303 278.5 L 326.6499996185303 278.5 L 326.6499996185303 262.5" stroke-opacity="0.8" stroke-linejoin="bevel" stroke-miterlimit="10" stroke-dasharray=""/><text fill="rgb(68,68,68)" stroke="none" font-family="helvetica" font-size="8px" font-style="normal" font-weight="normal" text-decoration="normal" x="427.8500003814697" y="270" text-anchor="start" dominant-baseline="central" transform="matrix(1, 0, 0, 1, 0.5, 0.5)" fill-opacity="1">Model 5: 6831</text><path fill="rgb(53,183,120)" stroke="none" paint-order="stroke" d="M 405.3500003814697 262.5 L 421.3500003814697 262.5 L 421.3500003814697 278.5 L 405.3500003814697 278.5 L 405.3500003814697 262.5" fill-opacity="0.8"/><path fill="none" stroke="rgb(0,0,0)" paint-order="fill" d="M 405.3500003814697 262.5 L 421.3500003814697 262.5 L 421.3500003814697 278.5 L 405.3500003814697 278.5 L 405.3500003814697 262.5" stroke-opacity="0.8" stroke-linejoin="bevel" stroke-miterlimit="10" stroke-dasharray=""/><text fill="rgb(68,68,68)" stroke="none" font-family="helvetica" font-size="8px" font-style="normal" font-weight="normal" text-decoration="normal" x="506.5500011444092" y="270" text-anchor="start" dominant-baseline="central" transform="matrix(1, 0, 0, 1, 0.5, 0.5)" fill-opacity="1">Model 6: 6840</text><path fill="rgb(141,214,68)" stroke="none" paint-order="stroke" d="M 484.0500011444092 262.5 L 500.0500011444092 262.5 L 500.0500011444092 278.5 L 484.0500011444092 278.5 L 484.0500011444092 262.5" fill-opacity="0.8"/><path fill="none" stroke="rgb(0,0,0)" paint-order="fill" d="M 484.0500011444092 262.5 L 500.0500011444092 262.5 L 500.0500011444092 278.5 L 484.0500011444092 278.5 L 484.0500011444092 262.5" stroke-opacity="0.8" stroke-linejoin="bevel" stroke-miterlimit="10" stroke-dasharray=""/><text fill="rgb(68,68,68)" stroke="none" font-family="helvetica" font-size="8px" font-style="normal" font-weight="normal" text-decoration="normal" x="585.2500019073486" y="270" text-anchor="start" dominant-baseline="central" transform="matrix(1, 0, 0, 1, 0.5, 0.5)" fill-opacity="1">Model 7: 6830</text><path fill="rgb(253,231,36)" stroke="none" paint-order="stroke" d="M 562.7500019073486 262.5 L 578.7500019073486 262.5 L 578.7500019073486 278.5 L 562.7500019073486 278.5 L 562.7500019073486 262.5" fill-opacity="0.8"/><path fill="none" stroke="rgb(0,0,0)" paint-order="fill" d="M 562.7500019073486 262.5 L 578.7500019073486 262.5 L 578.7500019073486 278.5 L 562.7500019073486 278.5 L 562.7500019073486 262.5" stroke-opacity="0.8" stroke-linejoin="bevel" stroke-miterlimit="10" stroke-dasharray=""/><path fill="none" stroke="none"/><text fill="rgb(68,68,68)" stroke="none" font-family="helvetica" font-size="14pt" font-style="normal" font-weight="bold" text-decoration="normal" x="0" y="0" text-anchor="middle" dominant-baseline="text-before-edge" transform="matrix(1, 0, 0, 1, 362.5, 5.5)" fill-opacity="1">Model quality: Excluded Volume Analysis</text></svg>