<svg version="1.1" xmlns="http://www.w3.org/2000/svg" xmlns:xlink="http://www.w3.org/1999/xlink" width="700" height="250" style="width: 700px; height: 250px;"><defs><clipPath id="hTSmWDhTnPKJ"><path fill="none" stroke="none" d=" M 270 37 L 670 37 L 670 217 L 270 217 L 270 37 Z"/></clipPath><clipPath id="rDCToSIKklJG"><path fill="none" stroke="none" d=" M 270 37 L 670 37 L 670 217 L 270 217 L 270 37 Z"/></clipPath><clipPath id="WvEGFsVMOdgv"><path fill="none" stroke="none" d=" M 270 37 L 670 37 L 670 217 L 270 217 L 270 37 Z"/></clipPath><clipPath id="rJxSVqETbFtP"><path fill="none" stroke="none" d=" M 270 37 L 670 37 L 670 217 L 270 217 L 270 37 Z"/></clipPath><clipPath id="uJxQzDDsacQQ"><path fill="none" stroke="none" d=" M 270 37 L 670 37 L 670 217 L 270 217 L 270 37 Z"/></clipPath><clipPath id="TBifMCmqxqGT"><path fill="none" stroke="none" d=" M 270 37 L 670 37 L 670 217 L 270 217 L 270 37 Z"/></clipPath><clipPath id="HiIFKtNXUUdH"><path fill="none" stroke="none" d=" M 270 37 L 670 37 L 670 217 L 270 217 L 270 37 Z"/></clipPath><clipPath id="aynRHBlxEtZG"><path fill="none" stroke="none" d=" M 270 37 L 670 37 L 670 217 L 270 217 L 270 37 Z"/></clipPath><clipPath id="RAmkisFOcCQG"><path fill="none" stroke="none" d=" M 270 37 L 670 37 L 670 217 L 270 217 L 270 37 Z"/></clipPath><clipPath id="eBDreuQWpKLT"><path fill="none" stroke="none" d=" M 270 37 L 670 37 L 670 217 L 270 217 L 270 37 Z"/></clipPath></defs><g><g transform="scale(1,1) translate(0.5,0.5)"><rect fill="#FFFFFF" stroke="none" x="0" y="0" width="700" height="250"/><rect fill="#ffffff" stroke="none" x="0" y="0" width="700" height="250"/><rect fill="#FFFFFF" stroke="none" x="270" y="37" width="400" height="180"/><rect fill="#ffffff" stroke="none" x="270" y="37" width="400" height="180"/><g><rect fill="none" stroke="#e5e5e5" x="270" y="37" width="400" height="180" stroke-linejoin="bevel" stroke-miterlimit="10"/></g><g clip-path="url(#hTSmWDhTnPKJ)"><g><g><path fill="none" stroke="#e5e5e5" paint-order="fill stroke markers" d=" M 367 217 L 367 37" stroke-linejoin="bevel" stroke-miterlimit="10"/><path fill="none" stroke="#e5e5e5" paint-order="fill stroke markers" d=" M 465 217 L 465 37" stroke-linejoin="bevel" stroke-miterlimit="10"/><path fill="none" stroke="#e5e5e5" paint-order="fill stroke markers" d=" M 562 217 L 562 37" stroke-linejoin="bevel" stroke-miterlimit="10"/><path fill="none" stroke="#e5e5e5" paint-order="fill stroke markers" d=" M 659 217 L 659 37" stroke-linejoin="bevel" stroke-miterlimit="10"/></g></g></g><g clip-path="url(#rDCToSIKklJG)"><g><g/></g></g><g clip-path="url(#WvEGFsVMOdgv)"><g><g><path fill="none" stroke="none"/><path fill="#440154" stroke="none" paint-order="stroke fill markers" d=" M 270 149.5 L 572.6763990267641 149.5 L 572.6763990267641 194.5 L 270 194.5 L 270 149.5 Z" fill-opacity="0.8"/><path fill="none" stroke="#440154" paint-order="fill stroke markers" d=" M 270 149.5 L 572.6763990267641 149.5 L 572.6763990267641 194.5 L 270 194.5 L 270 149.5 Z" stroke-linejoin="bevel" stroke-miterlimit="10" stroke-opacity="0.8"/><path fill="#FDE724" stroke="none" paint-order="stroke fill markers" d=" M 270 59.5 L 561.9708029197081 59.5 L 561.9708029197081 104.5 L 270 104.5 L 270 59.5 Z" fill-opacity="0.8"/><path fill="none" stroke="#FDE724" paint-order="fill stroke markers" d=" M 270 59.5 L 561.9708029197081 59.5 L 561.9708029197081 104.5 L 270 104.5 L 270 59.5 Z" stroke-linejoin="bevel" stroke-miterlimit="10" stroke-opacity="0.8"/></g></g></g><g clip-path="url(#rJxSVqETbFtP)"><g><g/><g><path fill="#ffffff" stroke="#e5e5e5" paint-order="fill stroke markers" d=" M 568.966667175293 47 L 660 47 L 660 110 L 568.966667175293 110 L 568.966667175293 47 Z" fill-opacity="0.95" stroke-linejoin="bevel" stroke-miterlimit="10" stroke-opacity="0.5"/><text fill="#444444" stroke="none" font-family="helvetica" font-size="13px" font-style="normal" font-weight="normal" text-decoration="normal" x="603.966667175293" y="67" text-anchor="start" dominant-baseline="central">3.11 nm</text><rect fill="#440154" stroke="none" x="580.966667175293" y="59" width="16" height="16" fill-opacity="0.8"/><path fill="none" stroke="#440154" paint-order="fill stroke markers" d=" M 580.966667175293 59 L 596.966667175293 59 L 596.966667175293 75 L 580.966667175293 75 L 580.966667175293 59 Z" stroke-linejoin="bevel" stroke-miterlimit="10" stroke-opacity="0.8"/><text fill="#444444" stroke="none" font-family="helvetica" font-size="13px" font-style="normal" font-weight="normal" text-decoration="normal" x="603.966667175293" y="90" text-anchor="start" dominant-baseline="central">3.0 nm</text><rect fill="#FDE724" stroke="none" x="580.966667175293" y="82" width="16" height="16" fill-opacity="0.8"/><path fill="none" stroke="#FDE724" paint-order="fill stroke markers" d=" M 580.966667175293 82 L 596.966667175293 82 L 596.966667175293 98 L 580.966667175293 98 L 580.966667175293 82 Z" stroke-linejoin="bevel" stroke-miterlimit="10" stroke-opacity="0.8"/></g></g></g><g><g fill="#444444"><path fill="" stroke="none" d=""/><g transform="translate(470,32)"><path fill="none" stroke="none"/><text fill="" stroke="none" font-family="helvetica" font-size="14pt" font-style="normal" font-weight="bold" text-decoration="normal" x="0" y="0" text-anchor="middle" dominant-baseline="text-after-edge">Data Quality: Rg Analysis</text></g></g></g><g/><g><g fill="#444444"><path fill="none" stroke="black" paint-order="fill stroke markers" d=" M 270 217 L 670 217" stroke-linejoin="bevel" stroke-miterlimit="10"/><path fill="none" stroke="black" paint-order="fill stroke markers" d=" M 270 223 L 270 215" stroke-linejoin="bevel" stroke-miterlimit="10"/><path fill="none" stroke="black" paint-order="fill stroke markers" d=" M 367 223 L 367 215" stroke-linejoin="bevel" stroke-miterlimit="10"/><path fill="none" stroke="black" paint-order="fill stroke markers" d=" M 465 223 L 465 215" stroke-linejoin="bevel" stroke-miterlimit="10"/><path fill="none" stroke="black" paint-order="fill stroke markers" d=" M 562 223 L 562 215" stroke-linejoin="bevel" stroke-miterlimit="10"/><path fill="none" stroke="black" paint-order="fill stroke markers" d=" M 659 223 L 659 215" stroke-linejoin="bevel" stroke-miterlimit="10"/><path fill="none" stroke="black" paint-order="fill stroke markers" d=" M 270 221 L 270 217" stroke-linejoin="bevel" stroke-miterlimit="10"/><path fill="none" stroke="black" paint-order="fill stroke markers" d=" M 289 221 L 289 217" stroke-linejoin="bevel" stroke-miterlimit="10"/><path fill="none" stroke="black" paint-order="fill stroke markers" d=" M 309 221 L 309 217" stroke-linejoin="bevel" stroke-miterlimit="10"/><path fill="none" stroke="black" paint-order="fill stroke markers" d=" M 328 221 L 328 217" stroke-linejoin="bevel" stroke-miterlimit="10"/><path fill="none" stroke="black" paint-order="fill stroke markers" d=" M 348 221 L 348 217" stroke-linejoin="bevel" stroke-miterlimit="10"/><path fill="none" stroke="black" paint-order="fill stroke markers" d=" M 367 221 L 367 217" stroke-linejoin="bevel" stroke-miterlimit="10"/><path fill="none" stroke="black" paint-order="fill stroke markers" d=" M 387 221 L 387 217" stroke-linejoin="bevel" stroke-miterlimit="10"/><path fill="none" stroke="black" paint-order="fill stroke markers" d=" M 406 221 L 406 217" stroke-linejoin="bevel" stroke-miterlimit="10"/><path fill="none" stroke="black" paint-order="fill stroke markers" d=" M 426 221 L 426 217" stroke-linejoin="bevel" stroke-miterlimit="10"/><path fill="none" stroke="black" paint-order="fill stroke markers" d=" M 445 221 L 445 217" stroke-linejoin="bevel" stroke-miterlimit="10"/><path fill="none" stroke="black" paint-order="fill stroke markers" d=" M 465 221 L 465 217" stroke-linejoin="bevel" stroke-miterlimit="10"/><path fill="none" stroke="black" paint-order="fill stroke markers" d=" M 484 221 L 484 217" stroke-linejoin="bevel" stroke-miterlimit="10"/><path fill="none" stroke="black" paint-order="fill stroke markers" d=" M 504 221 L 504 217" stroke-linejoin="bevel" stroke-miterlimit="10"/><path fill="none" stroke="black" paint-order="fill stroke markers" d=" M 523 221 L 523 217" stroke-linejoin="bevel" stroke-miterlimit="10"/><path fill="none" stroke="black" paint-order="fill stroke markers" d=" M 543 221 L 543 217" stroke-linejoin="bevel" stroke-miterlimit="10"/><path fill="none" stroke="black" paint-order="fill stroke markers" d=" M 562 221 L 562 217" stroke-linejoin="bevel" stroke-miterlimit="10"/><path fill="none" stroke="black" paint-order="fill stroke markers" d=" M 581 221 L 581 217" stroke-linejoin="bevel" stroke-miterlimit="10"/><path fill="none" stroke="black" paint-order="fill stroke markers" d=" M 601 221 L 601 217" stroke-linejoin="bevel" stroke-miterlimit="10"/><path fill="none" stroke="black" paint-order="fill stroke markers" d=" M 620 221 L 620 217" stroke-linejoin="bevel" stroke-miterlimit="10"/><path fill="none" stroke="black" paint-order="fill stroke markers" d=" M 640 221 L 640 217" stroke-linejoin="bevel" stroke-miterlimit="10"/><path fill="" stroke="black" paint-order="fill stroke markers" d=" M 659 221 L 659 217" stroke-linejoin="bevel" stroke-miterlimit="10"/><g transform="translate(270,228) rotate(0,0,0)"><text fill="" stroke="none" font-family="helvetica" font-size="14pt" font-style="normal" font-weight="normal" text-decoration="normal" x="0" y="0" text-anchor="middle" dominant-baseline="hanging">0</text><g transform="rotate(0,0,0) translate(-270,-228) translate(367,228) rotate(0,0,0)"><text fill="" stroke="none" font-family="helvetica" font-size="14pt" font-style="normal" font-weight="normal" text-decoration="normal" x="0" y="0" text-anchor="middle" dominant-baseline="hanging">1</text><g transform="rotate(0,0,0) translate(-367,-228) translate(465,228) rotate(0,0,0)"><text fill="" stroke="none" font-family="helvetica" font-size="14pt" font-style="normal" font-weight="normal" text-decoration="normal" x="0" y="0" text-anchor="middle" dominant-baseline="hanging">2</text><g transform="rotate(0,0,0) translate(-465,-228) translate(562,228) rotate(0,0,0)"><text fill="" stroke="none" font-family="helvetica" font-size="14pt" font-style="normal" font-weight="normal" text-decoration="normal" x="0" y="0" text-anchor="middle" dominant-baseline="hanging">3</text><g transform="rotate(0,0,0) translate(-562,-228) translate(659,228) rotate(0,0,0)"><text fill="" stroke="none" font-family="helvetica" font-size="14pt" font-style="normal" font-weight="normal" text-decoration="normal" x="0" y="0" text-anchor="middle" dominant-baseline="hanging">4</text><g transform="rotate(0,0,0) translate(-659,-228)"/></g></g></g></g></g></g></g><g><g fill="#444444"><path fill="none" stroke="black" paint-order="fill stroke markers" d=" M 270 217 L 270 37" stroke-linejoin="bevel" stroke-miterlimit="10"/><path fill="none" stroke="black" paint-order="fill stroke markers" d=" M 264 172 L 272 172" stroke-linejoin="bevel" stroke-miterlimit="10"/><path fill="" stroke="black" paint-order="fill stroke markers" d=" M 264 82 L 272 82" stroke-linejoin="bevel" stroke-miterlimit="10"/><g transform="translate(259,172) rotate(0,0,0)"><text fill="" stroke="none" font-family="helvetica" font-size="14pt" font-style="normal" font-weight="normal" text-decoration="normal" x="0" y="0" text-anchor="end" dominant-baseline="central">Rg from p(r) (SASDEE2)</text><g transform="rotate(0,0,0) translate(-259,-172) translate(259,82) rotate(0,0,0)"><text fill="" stroke="none" font-family="helvetica" font-size="14pt" font-style="normal" font-weight="normal" text-decoration="normal" x="0" y="0" text-anchor="end" dominant-baseline="central">Rg from Guinier (SASDEE2)</text><g transform="rotate(0,0,0) translate(-259,-82)"/></g></g></g></g><g clip-path="url(#uJxQzDDsacQQ)"><g/></g></g><g transform="scale(1,1) translate(0.5,0.5)"><rect fill="#FFFFFF" stroke="none" x="0" y="0" width="700" height="250"/><rect fill="#ffffff" stroke="none" x="0" y="0" width="700" height="250"/><rect fill="#FFFFFF" stroke="none" x="270" y="37" width="400" height="180"/><rect fill="#ffffff" stroke="none" x="270" y="37" width="400" height="180"/><g><rect fill="none" stroke="#e5e5e5" x="270" y="37" width="400" height="180" stroke-linejoin="bevel" stroke-miterlimit="10"/></g><g clip-path="url(#TBifMCmqxqGT)"><g><g><path fill="none" stroke="#e5e5e5" paint-order="fill stroke markers" d=" M 367 217 L 367 37" stroke-linejoin="bevel" stroke-miterlimit="10"/><path fill="none" stroke="#e5e5e5" paint-order="fill stroke markers" d=" M 465 217 L 465 37" stroke-linejoin="bevel" stroke-miterlimit="10"/><path fill="none" stroke="#e5e5e5" paint-order="fill stroke markers" d=" M 562 217 L 562 37" stroke-linejoin="bevel" stroke-miterlimit="10"/><path fill="none" stroke="#e5e5e5" paint-order="fill stroke markers" d=" M 659 217 L 659 37" stroke-linejoin="bevel" stroke-miterlimit="10"/></g></g></g><g clip-path="url(#HiIFKtNXUUdH)"><g><g/></g></g><g clip-path="url(#aynRHBlxEtZG)"><g><g><path fill="none" stroke="none"/><path fill="#440154" stroke="none" paint-order="stroke fill markers" d=" M 270 149.5 L 572.6763990267641 149.5 L 572.6763990267641 194.5 L 270 194.5 L 270 149.5 Z" fill-opacity="0.8"/><path fill="none" stroke="#440154" paint-order="fill stroke markers" d=" M 270 149.5 L 572.6763990267641 149.5 L 572.6763990267641 194.5 L 270 194.5 L 270 149.5 Z" stroke-linejoin="bevel" stroke-miterlimit="10" stroke-opacity="0.8"/><path fill="#FDE724" stroke="none" paint-order="stroke fill markers" d=" M 270 59.5 L 561.9708029197081 59.5 L 561.9708029197081 104.5 L 270 104.5 L 270 59.5 Z" fill-opacity="0.8"/><path fill="none" stroke="#FDE724" paint-order="fill stroke markers" d=" M 270 59.5 L 561.9708029197081 59.5 L 561.9708029197081 104.5 L 270 104.5 L 270 59.5 Z" stroke-linejoin="bevel" stroke-miterlimit="10" stroke-opacity="0.8"/></g></g></g><g clip-path="url(#RAmkisFOcCQG)"><g><g/><g><path fill="#ffffff" stroke="#e5e5e5" paint-order="fill stroke markers" d=" M 568.966667175293 47 L 660 47 L 660 110 L 568.966667175293 110 L 568.966667175293 47 Z" fill-opacity="0.95" stroke-linejoin="bevel" stroke-miterlimit="10" stroke-opacity="0.5"/><text fill="#444444" stroke="none" font-family="helvetica" font-size="13px" font-style="normal" font-weight="normal" text-decoration="normal" x="603.966667175293" y="67" text-anchor="start" dominant-baseline="central">3.11 nm</text><rect fill="#440154" stroke="none" x="580.966667175293" y="59" width="16" height="16" fill-opacity="0.8"/><path fill="none" stroke="#440154" paint-order="fill stroke markers" d=" M 580.966667175293 59 L 596.966667175293 59 L 596.966667175293 75 L 580.966667175293 75 L 580.966667175293 59 Z" stroke-linejoin="bevel" stroke-miterlimit="10" stroke-opacity="0.8"/><text fill="#444444" stroke="none" font-family="helvetica" font-size="13px" font-style="normal" font-weight="normal" text-decoration="normal" x="603.966667175293" y="90" text-anchor="start" dominant-baseline="central">3.0 nm</text><rect fill="#FDE724" stroke="none" x="580.966667175293" y="82" width="16" height="16" fill-opacity="0.8"/><path fill="none" stroke="#FDE724" paint-order="fill stroke markers" d=" M 580.966667175293 82 L 596.966667175293 82 L 596.966667175293 98 L 580.966667175293 98 L 580.966667175293 82 Z" stroke-linejoin="bevel" stroke-miterlimit="10" stroke-opacity="0.8"/></g></g></g><g><g fill="#444444"><path fill="" stroke="none" d=""/><g transform="translate(470,32)"><path fill="none" stroke="none"/><text fill="" stroke="none" font-family="helvetica" font-size="14pt" font-style="normal" font-weight="bold" text-decoration="normal" x="0" y="0" text-anchor="middle" dominant-baseline="text-after-edge">Data Quality: Rg Analysis</text></g></g></g><g/><g><g fill="#444444"><path fill="none" stroke="black" paint-order="fill stroke markers" d=" M 270 217 L 670 217" stroke-linejoin="bevel" stroke-miterlimit="10"/><path fill="none" stroke="black" paint-order="fill stroke markers" d=" M 270 223 L 270 215" stroke-linejoin="bevel" stroke-miterlimit="10"/><path fill="none" stroke="black" paint-order="fill stroke markers" d=" M 367 223 L 367 215" stroke-linejoin="bevel" stroke-miterlimit="10"/><path fill="none" stroke="black" paint-order="fill stroke markers" d=" M 465 223 L 465 215" stroke-linejoin="bevel" stroke-miterlimit="10"/><path fill="none" stroke="black" paint-order="fill stroke markers" d=" M 562 223 L 562 215" stroke-linejoin="bevel" stroke-miterlimit="10"/><path fill="none" stroke="black" paint-order="fill stroke markers" d=" M 659 223 L 659 215" stroke-linejoin="bevel" stroke-miterlimit="10"/><path fill="none" stroke="black" paint-order="fill stroke markers" d=" M 270 221 L 270 217" stroke-linejoin="bevel" stroke-miterlimit="10"/><path fill="none" stroke="black" paint-order="fill stroke markers" d=" M 289 221 L 289 217" stroke-linejoin="bevel" stroke-miterlimit="10"/><path fill="none" stroke="black" paint-order="fill stroke markers" d=" M 309 221 L 309 217" stroke-linejoin="bevel" stroke-miterlimit="10"/><path fill="none" stroke="black" paint-order="fill stroke markers" d=" M 328 221 L 328 217" stroke-linejoin="bevel" stroke-miterlimit="10"/><path fill="none" stroke="black" paint-order="fill stroke markers" d=" M 348 221 L 348 217" stroke-linejoin="bevel" stroke-miterlimit="10"/><path fill="none" stroke="black" paint-order="fill stroke markers" d=" M 367 221 L 367 217" stroke-linejoin="bevel" stroke-miterlimit="10"/><path fill="none" stroke="black" paint-order="fill stroke markers" d=" M 387 221 L 387 217" stroke-linejoin="bevel" stroke-miterlimit="10"/><path fill="none" stroke="black" paint-order="fill stroke markers" d=" M 406 221 L 406 217" stroke-linejoin="bevel" stroke-miterlimit="10"/><path fill="none" stroke="black" paint-order="fill stroke markers" d=" M 426 221 L 426 217" stroke-linejoin="bevel" stroke-miterlimit="10"/><path fill="none" stroke="black" paint-order="fill stroke markers" d=" M 445 221 L 445 217" stroke-linejoin="bevel" stroke-miterlimit="10"/><path fill="none" stroke="black" paint-order="fill stroke markers" d=" M 465 221 L 465 217" stroke-linejoin="bevel" stroke-miterlimit="10"/><path fill="none" stroke="black" paint-order="fill stroke markers" d=" M 484 221 L 484 217" stroke-linejoin="bevel" stroke-miterlimit="10"/><path fill="none" stroke="black" paint-order="fill stroke markers" d=" M 504 221 L 504 217" stroke-linejoin="bevel" stroke-miterlimit="10"/><path fill="none" stroke="black" paint-order="fill stroke markers" d=" M 523 221 L 523 217" stroke-linejoin="bevel" stroke-miterlimit="10"/><path fill="none" stroke="black" paint-order="fill stroke markers" d=" M 543 221 L 543 217" stroke-linejoin="bevel" stroke-miterlimit="10"/><path fill="none" stroke="black" paint-order="fill stroke markers" d=" M 562 221 L 562 217" stroke-linejoin="bevel" stroke-miterlimit="10"/><path fill="none" stroke="black" paint-order="fill stroke markers" d=" M 581 221 L 581 217" stroke-linejoin="bevel" stroke-miterlimit="10"/><path fill="none" stroke="black" paint-order="fill stroke markers" d=" M 601 221 L 601 217" stroke-linejoin="bevel" stroke-miterlimit="10"/><path fill="none" stroke="black" paint-order="fill stroke markers" d=" M 620 221 L 620 217" stroke-linejoin="bevel" stroke-miterlimit="10"/><path fill="none" stroke="black" paint-order="fill stroke markers" d=" M 640 221 L 640 217" stroke-linejoin="bevel" stroke-miterlimit="10"/><path fill="" stroke="black" paint-order="fill stroke markers" d=" M 659 221 L 659 217" stroke-linejoin="bevel" stroke-miterlimit="10"/><g transform="translate(270,228) rotate(0,0,0)"><text fill="" stroke="none" font-family="helvetica" font-size="14pt" font-style="normal" font-weight="normal" text-decoration="normal" x="0" y="0" text-anchor="middle" dominant-baseline="hanging">0</text><g transform="rotate(0,0,0) translate(-270,-228) translate(367,228) rotate(0,0,0)"><text fill="" stroke="none" font-family="helvetica" font-size="14pt" font-style="normal" font-weight="normal" text-decoration="normal" x="0" y="0" text-anchor="middle" dominant-baseline="hanging">1</text><g transform="rotate(0,0,0) translate(-367,-228) translate(465,228) rotate(0,0,0)"><text fill="" stroke="none" font-family="helvetica" font-size="14pt" font-style="normal" font-weight="normal" text-decoration="normal" x="0" y="0" text-anchor="middle" dominant-baseline="hanging">2</text><g transform="rotate(0,0,0) translate(-465,-228) translate(562,228) rotate(0,0,0)"><text fill="" stroke="none" font-family="helvetica" font-size="14pt" font-style="normal" font-weight="normal" text-decoration="normal" x="0" y="0" text-anchor="middle" dominant-baseline="hanging">3</text><g transform="rotate(0,0,0) translate(-562,-228) translate(659,228) rotate(0,0,0)"><text fill="" stroke="none" font-family="helvetica" font-size="14pt" font-style="normal" font-weight="normal" text-decoration="normal" x="0" y="0" text-anchor="middle" dominant-baseline="hanging">4</text><g transform="rotate(0,0,0) translate(-659,-228)"/></g></g></g></g></g></g></g><g><g fill="#444444"><path fill="none" stroke="black" paint-order="fill stroke markers" d=" M 270 217 L 270 37" stroke-linejoin="bevel" stroke-miterlimit="10"/><path fill="none" stroke="black" paint-order="fill stroke markers" d=" M 264 172 L 272 172" stroke-linejoin="bevel" stroke-miterlimit="10"/><path fill="" stroke="black" paint-order="fill stroke markers" d=" M 264 82 L 272 82" stroke-linejoin="bevel" stroke-miterlimit="10"/><g transform="translate(259,172) rotate(0,0,0)"><text fill="" stroke="none" font-family="helvetica" font-size="14pt" font-style="normal" font-weight="normal" text-decoration="normal" x="0" y="0" text-anchor="end" dominant-baseline="central">Rg from p(r) (SASDEE2)</text><g transform="rotate(0,0,0) translate(-259,-172) translate(259,82) rotate(0,0,0)"><text fill="" stroke="none" font-family="helvetica" font-size="14pt" font-style="normal" font-weight="normal" text-decoration="normal" x="0" y="0" text-anchor="end" dominant-baseline="central">Rg from Guinier (SASDEE2)</text><g transform="rotate(0,0,0) translate(-259,-82)"/></g></g></g></g><g clip-path="url(#eBDreuQWpKLT)"><g/></g></g></g></svg>