<svg version="1.1" xmlns="http://www.w3.org/2000/svg" xmlns:xlink="http://www.w3.org/1999/xlink" width="700" height="250"><defs><clipPath id="xJhTCNaPAPrV"><path fill="none" stroke="none" d="M 157.5 37.5 L 670.5 37.5 L 670.5 217.5 L 157.5 217.5 L 157.5 37.5"/></clipPath><clipPath id="cZPVNoCfqwcw"><path fill="none" stroke="none" d="M 157.5 37.5 L 670.5 37.5 L 670.5 217.5 L 157.5 217.5 L 157.5 37.5"/></clipPath><clipPath id="pJZHaDwrCobF"><path fill="none" stroke="none" d="M 157.5 37.5 L 670.5 37.5 L 670.5 217.5 L 157.5 217.5 L 157.5 37.5"/></clipPath><clipPath id="eTOThbgCxaQA"><path fill="none" stroke="none" d="M 157.5 37.5 L 670.5 37.5 L 670.5 217.5 L 157.5 217.5 L 157.5 37.5"/></clipPath><clipPath id="zRyfFUinZIxG"><path fill="none" stroke="none" d="M 157.5 37.5 L 670.5 37.5 L 670.5 217.5 L 157.5 217.5 L 157.5 37.5"/></clipPath></defs><path fill="rgb(255,255,255)" stroke="none" paint-order="stroke" d="M 0.5 0.5 L 700.5 0.5 L 700.5 250.5 L 0.5 250.5 L 0.5 0.5" fill-opacity="1"/><rect fill="#FFFFFF" stroke="none" x="157" y="37" width="513" height="180" transform="matrix(1, 0, 0, 1, 0.5, 0.5)"/><path fill="rgb(255,255,255)" stroke="none" paint-order="stroke" d="M 157.5 37.5 L 670.5 37.5 L 670.5 217.5 L 157.5 217.5 L 157.5 37.5" fill-opacity="1"/><path fill="none" stroke="rgb(229,229,229)" paint-order="fill" d="M 157.5 37.5 L 670.5 37.5 L 670.5 217.5 L 157.5 217.5 L 157.5 37.5" stroke-opacity="1" stroke-linejoin="bevel" stroke-miterlimit="10" stroke-dasharray=""/><path fill="none" stroke="rgb(229,229,229)" paint-order="fill" d="M 237.5 217.5 L 237.5 37.5 M 316.5 217.5 L 316.5 37.5 M 396.5 217.5 L 396.5 37.5 M 475.5 217.5 L 475.5 37.5 M 555.5 217.5 L 555.5 37.5 M 634.5 217.5 L 634.5 37.5" stroke-opacity="1" stroke-linejoin="bevel" stroke-miterlimit="10" stroke-dasharray="" clip-path="url(#xJhTCNaPAPrV)"/><path fill="none" stroke="none"/><path fill="rgb(68,1,84)" stroke="none" paint-order="stroke" d="M 157.5 159 L 649.8972778320312 159 L 649.8972778320312 186 L 157.5 186 L 157.5 159" fill-opacity="0.8" clip-path="url(#pJZHaDwrCobF)"/><path fill="none" stroke="rgb(68,1,84)" paint-order="fill" d="M 157.5 159 L 649.8972778320312 159 L 649.8972778320312 186 L 157.5 186 L 157.5 159" stroke-opacity="0.8" stroke-linejoin="bevel" stroke-miterlimit="10" stroke-dasharray="" clip-path="url(#pJZHaDwrCobF)"/><path fill="rgb(253,231,36)" stroke="none" paint-order="stroke" d="M 157.5 69 L 662.5452880859375 69 L 662.5452880859375 96 L 157.5 96 L 157.5 69" fill-opacity="0.8" clip-path="url(#pJZHaDwrCobF)"/><path fill="none" stroke="rgb(253,231,36)" paint-order="fill" d="M 157.5 69 L 662.5452880859375 69 L 662.5452880859375 96 L 157.5 96 L 157.5 69" stroke-opacity="0.8" stroke-linejoin="bevel" stroke-miterlimit="10" stroke-dasharray="" clip-path="url(#pJZHaDwrCobF)"/><path fill="none" stroke="rgb(0,0,0)" paint-order="fill" d="M 157.5 217.5 L 670.5 217.5" stroke-opacity="1" stroke-linejoin="bevel" stroke-miterlimit="10" stroke-dasharray=""/><path fill="none" stroke="rgb(0,0,0)" paint-order="fill" d="M 157.5 223.5 L 157.5 215.5 M 237.5 223.5 L 237.5 215.5 M 316.5 223.5 L 316.5 215.5 M 396.5 223.5 L 396.5 215.5 M 475.5 223.5 L 475.5 215.5 M 555.5 223.5 L 555.5 215.5 M 634.5 223.5 L 634.5 215.5" stroke-opacity="1" stroke-linejoin="bevel" stroke-miterlimit="10" stroke-dasharray=""/><path fill="none" stroke="rgb(0,0,0)" paint-order="fill" d="M 157.5 221.5 L 157.5 217.5 M 173.5 221.5 L 173.5 217.5 M 189.5 221.5 L 189.5 217.5 M 205.5 221.5 L 205.5 217.5 M 221.5 221.5 L 221.5 217.5 M 237.5 221.5 L 237.5 217.5 M 252.5 221.5 L 252.5 217.5 M 268.5 221.5 L 268.5 217.5 M 284.5 221.5 L 284.5 217.5 M 300.5 221.5 L 300.5 217.5 M 316.5 221.5 L 316.5 217.5 M 332.5 221.5 L 332.5 217.5 M 348.5 221.5 L 348.5 217.5 M 364.5 221.5 L 364.5 217.5 M 380.5 221.5 L 380.5 217.5 M 396.5 221.5 L 396.5 217.5 M 412.5 221.5 L 412.5 217.5 M 427.5 221.5 L 427.5 217.5 M 443.5 221.5 L 443.5 217.5 M 459.5 221.5 L 459.5 217.5 M 475.5 221.5 L 475.5 217.5 M 491.5 221.5 L 491.5 217.5 M 507.5 221.5 L 507.5 217.5 M 523.5 221.5 L 523.5 217.5 M 539.5 221.5 L 539.5 217.5 M 555.5 221.5 L 555.5 217.5 M 571.5 221.5 L 571.5 217.5 M 587.5 221.5 L 587.5 217.5 M 602.5 221.5 L 602.5 217.5 M 618.5 221.5 L 618.5 217.5 M 634.5 221.5 L 634.5 217.5 M 650.5 221.5 L 650.5 217.5 M 666.5 221.5 L 666.5 217.5" stroke-opacity="1" stroke-linejoin="bevel" stroke-miterlimit="10" stroke-dasharray=""/><text fill="rgb(68,68,68)" stroke="none" font-family="helvetica" font-size="14pt" font-style="normal" font-weight="normal" text-decoration="normal" x="0" y="0" text-anchor="middle" dominant-baseline="hanging" transform="matrix(1, 0, 0, 1, 157.5, 228.5)" fill-opacity="1">0</text><text fill="rgb(68,68,68)" stroke="none" font-family="helvetica" font-size="14pt" font-style="normal" font-weight="normal" text-decoration="normal" x="0" y="0" text-anchor="middle" dominant-baseline="hanging" transform="matrix(1, 0, 0, 1, 237.5, 228.5)" fill-opacity="1">10</text><text fill="rgb(68,68,68)" stroke="none" font-family="helvetica" font-size="14pt" font-style="normal" font-weight="normal" text-decoration="normal" x="0" y="0" text-anchor="middle" dominant-baseline="hanging" transform="matrix(1, 0, 0, 1, 316.5, 228.5)" fill-opacity="1">20</text><text fill="rgb(68,68,68)" stroke="none" font-family="helvetica" font-size="14pt" font-style="normal" font-weight="normal" text-decoration="normal" x="0" y="0" text-anchor="middle" dominant-baseline="hanging" transform="matrix(1, 0, 0, 1, 396.5, 228.5)" fill-opacity="1">30</text><text fill="rgb(68,68,68)" stroke="none" font-family="helvetica" font-size="14pt" font-style="normal" font-weight="normal" text-decoration="normal" x="0" y="0" text-anchor="middle" dominant-baseline="hanging" transform="matrix(1, 0, 0, 1, 475.5, 228.5)" fill-opacity="1">40</text><text fill="rgb(68,68,68)" stroke="none" font-family="helvetica" font-size="14pt" font-style="normal" font-weight="normal" text-decoration="normal" x="0" y="0" text-anchor="middle" dominant-baseline="hanging" transform="matrix(1, 0, 0, 1, 555.5, 228.5)" fill-opacity="1">50</text><text fill="rgb(68,68,68)" stroke="none" font-family="helvetica" font-size="14pt" font-style="normal" font-weight="normal" text-decoration="normal" x="0" y="0" text-anchor="middle" dominant-baseline="hanging" transform="matrix(1, 0, 0, 1, 634.5, 228.5)" fill-opacity="1">60</text><path fill="none" stroke="rgb(0,0,0)" paint-order="fill" d="M 157.5 217.5 L 157.5 37.5" stroke-opacity="1" stroke-linejoin="bevel" stroke-miterlimit="10" stroke-dasharray=""/><path fill="none" stroke="rgb(0,0,0)" paint-order="fill" d="M 151.5 172.5 L 159.5 172.5 M 151.5 82.5 L 159.5 82.5" stroke-opacity="1" stroke-linejoin="bevel" stroke-miterlimit="10" stroke-dasharray=""/><path fill="none" stroke="rgb(0,0,0)" paint-order="fill" d="" stroke-opacity="1" stroke-linejoin="bevel" stroke-miterlimit="10" stroke-dasharray=""/><text fill="rgb(68,68,68)" stroke="none" font-family="helvetica" font-size="14pt" font-style="normal" font-weight="normal" text-decoration="normal" x="0" y="0" text-anchor="end" dominant-baseline="central" transform="matrix(1, 0, 0, 1, 146.5, 172.5)" fill-opacity="1">Model Model #1</text><text fill="rgb(68,68,68)" stroke="none" font-family="helvetica" font-size="14pt" font-style="normal" font-weight="normal" text-decoration="normal" x="0" y="0" text-anchor="end" dominant-baseline="central" transform="matrix(1, 0, 0, 1, 146.5, 82.5)" fill-opacity="1">Model Model #2</text><path fill="rgb(255,255,255)" stroke="rgb(229,229,229)" paint-order="fill" d="M 517.8833312988281 47.5 L 660.5 47.5 L 660.5 110.5 L 517.8833312988281 110.5 L 517.8833312988281 47.5" fill-opacity="0.95" clip-path="url(#eTOThbgCxaQA)" stroke-opacity="0.5" stroke-linejoin="bevel" stroke-miterlimit="10" stroke-dasharray=""/><text fill="rgb(68,68,68)" stroke="none" font-family="helvetica" font-size="13px" font-style="normal" font-weight="normal" text-decoration="normal" x="552.3833312988281" y="67" text-anchor="start" dominant-baseline="central" transform="matrix(1, 0, 0, 1, 0.5, 0.5)" fill-opacity="1">Model 1: 61.9%</text><path fill="rgb(68,1,84)" stroke="none" paint-order="stroke" d="M 529.8833312988281 59.5 L 545.8833312988281 59.5 L 545.8833312988281 75.5 L 529.8833312988281 75.5 L 529.8833312988281 59.5" fill-opacity="0.8" clip-path="url(#eTOThbgCxaQA)"/><path fill="none" stroke="rgb(68,1,84)" paint-order="fill" d="M 529.8833312988281 59.5 L 545.8833312988281 59.5 L 545.8833312988281 75.5 L 529.8833312988281 75.5 L 529.8833312988281 59.5" stroke-opacity="0.8" stroke-linejoin="bevel" stroke-miterlimit="10" stroke-dasharray="" clip-path="url(#eTOThbgCxaQA)"/><text fill="rgb(68,68,68)" stroke="none" font-family="helvetica" font-size="13px" font-style="normal" font-weight="normal" text-decoration="normal" x="552.3833312988281" y="90" text-anchor="start" dominant-baseline="central" transform="matrix(1, 0, 0, 1, 0.5, 0.5)" fill-opacity="1">Model 2: 63.49%</text><path fill="rgb(253,231,36)" stroke="none" paint-order="stroke" d="M 529.8833312988281 82.5 L 545.8833312988281 82.5 L 545.8833312988281 98.5 L 529.8833312988281 98.5 L 529.8833312988281 82.5" fill-opacity="0.8" clip-path="url(#eTOThbgCxaQA)"/><path fill="none" stroke="rgb(253,231,36)" paint-order="fill" d="M 529.8833312988281 82.5 L 545.8833312988281 82.5 L 545.8833312988281 98.5 L 529.8833312988281 98.5 L 529.8833312988281 82.5" stroke-opacity="0.8" stroke-linejoin="bevel" stroke-miterlimit="10" stroke-dasharray="" clip-path="url(#eTOThbgCxaQA)"/><path fill="none" stroke="none"/><text fill="rgb(68,68,68)" stroke="none" font-family="helvetica" font-size="14pt" font-style="normal" font-weight="bold" text-decoration="normal" x="0" y="0" text-anchor="middle" dominant-baseline="text-after-edge" transform="matrix(1, 0, 0, 1, 414, 32.5)" fill-opacity="1">Fit to XL-MS input</text></svg>