<svg version="1.1" xmlns="http://www.w3.org/2000/svg" xmlns:xlink="http://www.w3.org/1999/xlink" width="500" height="500" style="width: 500px; height: 500px;"><defs><clipPath id="rTwFTZHeErAv"><path fill="none" stroke="none" d=" M 67 33 L 470 33 L 470 439 L 67 439 L 67 33 Z"/></clipPath><clipPath id="QyuluyqvSzOD"><path fill="none" stroke="none" d=" M 67 33 L 470 33 L 470 439 L 67 439 L 67 33 Z"/></clipPath><clipPath id="DXamaghuQypi"><path fill="none" stroke="none" d=" M 67 33 L 470 33 L 470 439 L 67 439 L 67 33 Z"/></clipPath><clipPath id="RPyspWCBcUWd"><path fill="none" stroke="none" d=" M 67 33 L 470 33 L 470 439 L 67 439 L 67 33 Z"/></clipPath><clipPath id="MdVyqqhdzvSA"><path fill="none" stroke="none" d=" M 67 33 L 470 33 L 470 439 L 67 439 L 67 33 Z"/></clipPath><clipPath id="yaERRcwOupAG"><path fill="none" stroke="none" d=" M 67 33 L 470 33 L 470 439 L 67 439 L 67 33 Z"/></clipPath><clipPath id="mUKXTXBqRkqz"><path fill="none" stroke="none" d=" M 67 33 L 470 33 L 470 439 L 67 439 L 67 33 Z"/></clipPath><clipPath id="ircuwoakbFqp"><path fill="none" stroke="none" d=" M 67 33 L 470 33 L 470 439 L 67 439 L 67 33 Z"/></clipPath></defs><g transform="scale(1,1) translate(0.5,0.5) scale(1,1) translate(0.5,0.5)"><rect fill="#ffffff" stroke="none" x="0" y="0" width="500" height="500"/><rect fill="#FFFFFF" stroke="none" x="67" y="33" width="403" height="406"/><rect fill="#ffffff" stroke="none" x="67" y="33" width="403" height="406"/><g><rect fill="none" stroke="#e5e5e5" x="67" y="33" width="403" height="406" stroke-linejoin="bevel" stroke-miterlimit="10"/></g><g clip-path="url(#MdVyqqhdzvSA)"><g><g><path fill="none" stroke="#e5e5e5" paint-order="fill stroke markers" d=" M 140 439 L 140 33" stroke-linejoin="bevel" stroke-miterlimit="10"/><path fill="none" stroke="#e5e5e5" paint-order="fill stroke markers" d=" M 240 439 L 240 33" stroke-linejoin="bevel" stroke-miterlimit="10"/><path fill="none" stroke="#e5e5e5" paint-order="fill stroke markers" d=" M 340 439 L 340 33" stroke-linejoin="bevel" stroke-miterlimit="10"/><path fill="none" stroke="#e5e5e5" paint-order="fill stroke markers" d=" M 440 439 L 440 33" stroke-linejoin="bevel" stroke-miterlimit="10"/></g></g></g><g clip-path="url(#yaERRcwOupAG)"><g><g><path fill="none" stroke="#e5e5e5" paint-order="fill stroke markers" d=" M 67 437 L 470 437" stroke-linejoin="bevel" stroke-miterlimit="10"/><path fill="none" stroke="#e5e5e5" paint-order="fill stroke markers" d=" M 67 379 L 470 379" stroke-linejoin="bevel" stroke-miterlimit="10"/><path fill="none" stroke="#e5e5e5" paint-order="fill stroke markers" d=" M 67 321 L 470 321" stroke-linejoin="bevel" stroke-miterlimit="10"/><path fill="none" stroke="#e5e5e5" paint-order="fill stroke markers" d=" M 67 263 L 470 263" stroke-linejoin="bevel" stroke-miterlimit="10"/><path fill="none" stroke="#e5e5e5" paint-order="fill stroke markers" d=" M 67 206 L 470 206" stroke-linejoin="bevel" stroke-miterlimit="10"/><path fill="none" stroke="#e5e5e5" paint-order="fill stroke markers" d=" M 67 148 L 470 148" stroke-linejoin="bevel" stroke-miterlimit="10"/><path fill="none" stroke="#e5e5e5" paint-order="fill stroke markers" d=" M 67 90 L 470 90" stroke-linejoin="bevel" stroke-miterlimit="10"/></g></g></g><g clip-path="url(#mUKXTXBqRkqz)"><g><g><path fill="none" stroke="none"/><path fill="blue" stroke="blue" paint-order="fill stroke markers" d=" M 87.81818181818184 420.54545454545456 A 2.5 2.5 0 1 1 87.81818056818194 420.5429545458712" fill-opacity="0.3" stroke-linejoin="bevel" stroke-miterlimit="10"/><path fill="blue" stroke="blue" paint-order="fill stroke markers" d=" M 89.37057010785827 416.98384495935005 A 2.5 2.5 0 1 1 89.37056885785837 416.9813449597667" fill-opacity="0.3" stroke-linejoin="bevel" stroke-miterlimit="10"/><path fill="blue" stroke="blue" paint-order="fill stroke markers" d=" M 90.92295839753469 414.2916171179676 A 2.5 2.5 0 1 1 90.92295714753479 414.28911711838424" fill-opacity="0.3" stroke-linejoin="bevel" stroke-miterlimit="10"/><path fill="blue" stroke="blue" paint-order="fill stroke markers" d=" M 92.47534668721111 410.920366587527 A 2.5 2.5 0 1 1 92.47534543721122 410.91786658794365" fill-opacity="0.3" stroke-linejoin="bevel" stroke-miterlimit="10"/><path fill="blue" stroke="blue" paint-order="fill stroke markers" d=" M 94.02773497688753 406.52811469728056 A 2.5 2.5 0 1 1 94.02773372688763 406.5256146976972" fill-opacity="0.3" stroke-linejoin="bevel" stroke-miterlimit="10"/><path fill="blue" stroke="blue" paint-order="fill stroke markers" d=" M 95.58012326656397 402.71374931060006 A 2.5 2.5 0 1 1 95.58012201656408 402.71124931101673" fill-opacity="0.3" stroke-linejoin="bevel" stroke-miterlimit="10"/><path fill="blue" stroke="blue" paint-order="fill stroke markers" d=" M 97.13251155624039 399.28380302457543 A 2.5 2.5 0 1 1 97.13251030624049 399.2813030249921" fill-opacity="0.3" stroke-linejoin="bevel" stroke-miterlimit="10"/><path fill="blue" stroke="blue" paint-order="fill stroke markers" d=" M 98.68489984591682 395.5246380146692 A 2.5 2.5 0 1 1 98.68489859591692 395.5221380150859" fill-opacity="0.3" stroke-linejoin="bevel" stroke-miterlimit="10"/><path fill="blue" stroke="blue" paint-order="fill stroke markers" d=" M 100.23728813559323 392.28807446840005 A 2.5 2.5 0 1 1 100.23728688559333 392.2855744688167" fill-opacity="0.3" stroke-linejoin="bevel" stroke-miterlimit="10"/><path fill="blue" stroke="blue" paint-order="fill stroke markers" d=" M 101.78967642526966 388.6132702446464 A 2.5 2.5 0 1 1 101.78967517526976 388.61077024506307" fill-opacity="0.3" stroke-linejoin="bevel" stroke-miterlimit="10"/><path fill="blue" stroke="blue" paint-order="fill stroke markers" d=" M 103.3420647149461 386.3370408605714 A 2.5 2.5 0 1 1 103.34206346494621 386.33454086098806" fill-opacity="0.3" stroke-linejoin="bevel" stroke-miterlimit="10"/><path fill="blue" stroke="blue" paint-order="fill stroke markers" d=" M 104.8944530046225 384.14784519938587 A 2.5 2.5 0 1 1 104.89445175462261 384.14534519980253" fill-opacity="0.3" stroke-linejoin="bevel" stroke-miterlimit="10"/><path fill="blue" stroke="blue" paint-order="fill stroke markers" d=" M 106.44684129429895 380.57747902415235 A 2.5 2.5 0 1 1 106.44684004429905 380.574979024569" fill-opacity="0.3" stroke-linejoin="bevel" stroke-miterlimit="10"/><path fill="blue" stroke="blue" paint-order="fill stroke markers" d=" M 107.99922958397536 377.77208073459354 A 2.5 2.5 0 1 1 107.99922833397547 377.7695807350102" fill-opacity="0.3" stroke-linejoin="bevel" stroke-miterlimit="10"/><path fill="blue" stroke="blue" paint-order="fill stroke markers" d=" M 109.55161787365178 376.01951715095583 A 2.5 2.5 0 1 1 109.55161662365188 376.0170171513725" fill-opacity="0.3" stroke-linejoin="bevel" stroke-miterlimit="10"/><path fill="blue" stroke="blue" paint-order="fill stroke markers" d=" M 111.10400616332821 374.4519304652992 A 2.5 2.5 0 1 1 111.10400491332831 374.44943046571586" fill-opacity="0.3" stroke-linejoin="bevel" stroke-miterlimit="10"/><path fill="blue" stroke="blue" paint-order="fill stroke markers" d=" M 112.65639445300462 370.5037731049384 A 2.5 2.5 0 1 1 112.65639320300473 370.50127310535504" fill-opacity="0.3" stroke-linejoin="bevel" stroke-miterlimit="10"/><path fill="blue" stroke="blue" paint-order="fill stroke markers" d=" M 114.20878274268107 368.38961318816735 A 2.5 2.5 0 1 1 114.20878149268117 368.387113188584" fill-opacity="0.3" stroke-linejoin="bevel" stroke-miterlimit="10"/><path fill="blue" stroke="blue" paint-order="fill stroke markers" d=" M 115.76117103235748 362.74305247361553 A 2.5 2.5 0 1 1 115.76116978235758 362.7405524740322" fill-opacity="0.3" stroke-linejoin="bevel" stroke-miterlimit="10"/><path fill="blue" stroke="blue" paint-order="fill stroke markers" d=" M 117.31355932203391 362.82008384953036 A 2.5 2.5 0 1 1 117.31355807203401 362.817583849947" fill-opacity="0.3" stroke-linejoin="bevel" stroke-miterlimit="10"/><path fill="blue" stroke="blue" paint-order="fill stroke markers" d=" M 118.86594761171034 360.6767272391719 A 2.5 2.5 0 1 1 118.86594636171044 360.67422723958856" fill-opacity="0.3" stroke-linejoin="bevel" stroke-miterlimit="10"/><path fill="blue" stroke="blue" paint-order="fill stroke markers" d=" M 120.80643297380587 356.1780666142987 A 2.5 2.5 0 1 1 120.80643172380597 356.17556661471536" fill-opacity="0.3" stroke-linejoin="bevel" stroke-miterlimit="10"/><path fill="blue" stroke="blue" paint-order="fill stroke markers" d=" M 123.52311248073961 353.150487261776 A 2.5 2.5 0 1 1 123.52311123073972 353.14798726219266" fill-opacity="0.3" stroke-linejoin="bevel" stroke-miterlimit="10"/><path fill="blue" stroke="blue" paint-order="fill stroke markers" d=" M 126.62788906009247 348.5630021371102 A 2.5 2.5 0 1 1 126.62788781009257 348.56050213752684" fill-opacity="0.3" stroke-linejoin="bevel" stroke-miterlimit="10"/><path fill="blue" stroke="blue" paint-order="fill stroke markers" d=" M 129.73266563944532 344.4987836865814 A 2.5 2.5 0 1 1 129.73266438944543 344.4962836869981" fill-opacity="0.3" stroke-linejoin="bevel" stroke-miterlimit="10"/><path fill="blue" stroke="blue" paint-order="fill stroke markers" d=" M 132.83744221879817 341.45052309079404 A 2.5 2.5 0 1 1 132.8374409687983 341.4480230912107" fill-opacity="0.3" stroke-linejoin="bevel" stroke-miterlimit="10"/><path fill="blue" stroke="blue" paint-order="fill stroke markers" d=" M 135.94221879815103 334.02725769881806 A 2.5 2.5 0 1 1 135.94221754815115 334.0247576992347" fill-opacity="0.3" stroke-linejoin="bevel" stroke-miterlimit="10"/><path fill="blue" stroke="blue" paint-order="fill stroke markers" d=" M 139.04699537750386 334.7783892060901 A 2.5 2.5 0 1 1 139.04699412750398 334.77588920650675" fill-opacity="0.3" stroke-linejoin="bevel" stroke-miterlimit="10"/><path fill="blue" stroke="blue" paint-order="fill stroke markers" d=" M 142.15177195685672 330.900816727161 A 2.5 2.5 0 1 1 142.15177070685684 330.89831672757765" fill-opacity="0.3" stroke-linejoin="bevel" stroke-miterlimit="10"/><path fill="blue" stroke="blue" paint-order="fill stroke markers" d=" M 145.25654853620955 327.1586569165853 A 2.5 2.5 0 1 1 145.25654728620967 327.15615691700197" fill-opacity="0.3" stroke-linejoin="bevel" stroke-miterlimit="10"/><path fill="blue" stroke="blue" paint-order="fill stroke markers" d=" M 148.36132511556244 326.87801065394945 A 2.5 2.5 0 1 1 148.36132386556255 326.8755106543661" fill-opacity="0.3" stroke-linejoin="bevel" stroke-miterlimit="10"/><path fill="blue" stroke="blue" paint-order="fill stroke markers" d=" M 151.46610169491527 321.9736434364952 A 2.5 2.5 0 1 1 151.46610044491538 321.97114343691186" fill-opacity="0.3" stroke-linejoin="bevel" stroke-miterlimit="10"/><path fill="blue" stroke="blue" paint-order="fill stroke markers" d=" M 154.57087827426813 325.58377710490004 A 2.5 2.5 0 1 1 154.57087702426824 325.5812771053167" fill-opacity="0.3" stroke-linejoin="bevel" stroke-miterlimit="10"/><path fill="blue" stroke="blue" paint-order="fill stroke markers" d=" M 157.67565485362096 315.01331617366304 A 2.5 2.5 0 1 1 157.67565360362107 315.0108161740797" fill-opacity="0.3" stroke-linejoin="bevel" stroke-miterlimit="10"/><path fill="blue" stroke="blue" paint-order="fill stroke markers" d=" M 160.7804314329738 318.80646739275767 A 2.5 2.5 0 1 1 160.78043018297393 318.80396739317433" fill-opacity="0.3" stroke-linejoin="bevel" stroke-miterlimit="10"/><path fill="blue" stroke="blue" paint-order="fill stroke markers" d=" M 163.8852080123267 317.9035711335654 A 2.5 2.5 0 1 1 163.88520676232682 317.90107113398204" fill-opacity="0.3" stroke-linejoin="bevel" stroke-miterlimit="10"/><path fill="blue" stroke="blue" paint-order="fill stroke markers" d=" M 166.9899845916795 314.84984371694054 A 2.5 2.5 0 1 1 166.98998334167962 314.8473437173572" fill-opacity="0.3" stroke-linejoin="bevel" stroke-miterlimit="10"/><path fill="blue" stroke="blue" paint-order="fill stroke markers" d=" M 170.0947611710324 309.0927975856857 A 2.5 2.5 0 1 1 170.0947599210325 309.09029758610234" fill-opacity="0.3" stroke-linejoin="bevel" stroke-miterlimit="10"/><path fill="blue" stroke="blue" paint-order="fill stroke markers" d=" M 173.19953775038522 301.47770967494546 A 2.5 2.5 0 1 1 173.19953650038534 301.4752096753621" fill-opacity="0.3" stroke-linejoin="bevel" stroke-miterlimit="10"/><path fill="blue" stroke="blue" paint-order="fill stroke markers" d=" M 176.30431432973805 305.06118654439973 A 2.5 2.5 0 1 1 176.30431307973817 305.0586865448164" fill-opacity="0.3" stroke-linejoin="bevel" stroke-miterlimit="10"/><path fill="blue" stroke="blue" paint-order="fill stroke markers" d=" M 179.4090909090909 301.8641606913109 A 2.5 2.5 0 1 1 179.40908965909102 301.86166069172754" fill-opacity="0.3" stroke-linejoin="bevel" stroke-miterlimit="10"/><path fill="blue" stroke="blue" paint-order="fill stroke markers" d=" M 182.51386748844374 300.2611727123111 A 2.5 2.5 0 1 1 182.51386623844385 300.2586727127278" fill-opacity="0.3" stroke-linejoin="bevel" stroke-miterlimit="10"/><path fill="blue" stroke="blue" paint-order="fill stroke markers" d=" M 185.61864406779662 297.4729005694465 A 2.5 2.5 0 1 1 185.61864281779674 297.47040056986316" fill-opacity="0.3" stroke-linejoin="bevel" stroke-miterlimit="10"/><path fill="blue" stroke="blue" paint-order="fill stroke markers" d=" M 188.72342064714945 290.4193954576508 A 2.5 2.5 0 1 1 188.72341939714957 290.4168954580675" fill-opacity="0.3" stroke-linejoin="bevel" stroke-miterlimit="10"/><path fill="blue" stroke="blue" paint-order="fill stroke markers" d=" M 191.8281972265023 290.7857692116487 A 2.5 2.5 0 1 1 191.82819597650243 290.78326921206536" fill-opacity="0.3" stroke-linejoin="bevel" stroke-miterlimit="10"/><path fill="blue" stroke="blue" paint-order="fill stroke markers" d=" M 194.93297380585517 290.80778163183476 A 2.5 2.5 0 1 1 194.9329725558553 290.8052816322514" fill-opacity="0.3" stroke-linejoin="bevel" stroke-miterlimit="10"/><path fill="blue" stroke="blue" paint-order="fill stroke markers" d=" M 199.27966101694915 285.39615343056056 A 2.5 2.5 0 1 1 199.27965976694927 285.3936534309772" fill-opacity="0.3" stroke-linejoin="bevel" stroke-miterlimit="10"/><path fill="blue" stroke="blue" paint-order="fill stroke markers" d=" M 205.79969183359015 289.7487302314215 A 2.5 2.5 0 1 1 205.79969058359026 289.7462302318382" fill-opacity="0.3" stroke-linejoin="bevel" stroke-miterlimit="10"/><path fill="blue" stroke="blue" paint-order="fill stroke markers" d=" M 213.5616332819723 278.13264305713756 A 2.5 2.5 0 1 1 213.5616320319724 278.1301430575542" fill-opacity="0.3" stroke-linejoin="bevel" stroke-miterlimit="10"/><path fill="blue" stroke="blue" paint-order="fill stroke markers" d=" M 221.3235747303544 278.97594855025454 A 2.5 2.5 0 1 1 221.32357348035453 278.9734485506712" fill-opacity="0.3" stroke-linejoin="bevel" stroke-miterlimit="10"/><path fill="blue" stroke="blue" paint-order="fill stroke markers" d=" M 229.08551617873653 271.8506369886543 A 2.5 2.5 0 1 1 229.08551492873664 271.84813698907095" fill-opacity="0.3" stroke-linejoin="bevel" stroke-miterlimit="10"/><path fill="blue" stroke="blue" paint-order="fill stroke markers" d=" M 236.84745762711864 265.9553601154727 A 2.5 2.5 0 1 1 236.84745637711876 265.95286011588934" fill-opacity="0.3" stroke-linejoin="bevel" stroke-miterlimit="10"/><path fill="blue" stroke="blue" paint-order="fill stroke markers" d=" M 244.6093990755008 259.57568905083417 A 2.5 2.5 0 1 1 244.6093978255009 259.57318905125084" fill-opacity="0.3" stroke-linejoin="bevel" stroke-miterlimit="10"/><path fill="blue" stroke="blue" paint-order="fill stroke markers" d=" M 252.3713405238829 259.01691223072646 A 2.5 2.5 0 1 1 252.37133927388302 259.0144122311431" fill-opacity="0.3" stroke-linejoin="bevel" stroke-miterlimit="10"/><path fill="blue" stroke="blue" paint-order="fill stroke markers" d=" M 260.133281972265 242.20401920839552 A 2.5 2.5 0 1 1 260.1332807222651 242.2015192088122" fill-opacity="0.3" stroke-linejoin="bevel" stroke-miterlimit="10"/><path fill="blue" stroke="blue" paint-order="fill stroke markers" d=" M 267.8952234206472 249.62574252148494 A 2.5 2.5 0 1 1 267.8952221706473 249.6232425219016" fill-opacity="0.3" stroke-linejoin="bevel" stroke-miterlimit="10"/><path fill="blue" stroke="blue" paint-order="fill stroke markers" d=" M 275.6571648690293 236.83274678826962 A 2.5 2.5 0 1 1 275.6571636190294 236.83024678868628" fill-opacity="0.3" stroke-linejoin="bevel" stroke-miterlimit="10"/><path fill="blue" stroke="blue" paint-order="fill stroke markers" d=" M 283.41910631741143 231.08342314618432 A 2.5 2.5 0 1 1 283.4191050674115 231.08092314660098" fill-opacity="0.3" stroke-linejoin="bevel" stroke-miterlimit="10"/><path fill="blue" stroke="blue" paint-order="fill stroke markers" d=" M 291.18104776579355 225.1514085112912 A 2.5 2.5 0 1 1 291.18104651579364 225.14890851170787" fill-opacity="0.3" stroke-linejoin="bevel" stroke-miterlimit="10"/><path fill="blue" stroke="blue" paint-order="fill stroke markers" d=" M 298.94298921417567 223.40278176434055 A 2.5 2.5 0 1 1 298.94298796417576 223.4002817647572" fill-opacity="0.3" stroke-linejoin="bevel" stroke-miterlimit="10"/><path fill="blue" stroke="blue" paint-order="fill stroke markers" d=" M 306.7049306625578 216.82950420732385 A 2.5 2.5 0 1 1 306.7049294125579 216.82700420774052" fill-opacity="0.3" stroke-linejoin="bevel" stroke-miterlimit="10"/><path fill="blue" stroke="blue" paint-order="fill stroke markers" d=" M 314.4668721109399 204.5934710837613 A 2.5 2.5 0 1 1 314.46687086094 204.59097108417797" fill-opacity="0.3" stroke-linejoin="bevel" stroke-miterlimit="10"/><path fill="blue" stroke="blue" paint-order="fill stroke markers" d=" M 322.22881355932196 200.37364780251642 A 2.5 2.5 0 1 1 322.22881230932205 200.37114780293308" fill-opacity="0.3" stroke-linejoin="bevel" stroke-miterlimit="10"/><path fill="blue" stroke="blue" paint-order="fill stroke markers" d=" M 329.99075500770414 197.71861127545918 A 2.5 2.5 0 1 1 329.9907537577042 197.71611127587585" fill-opacity="0.3" stroke-linejoin="bevel" stroke-miterlimit="10"/><path fill="blue" stroke="blue" paint-order="fill stroke markers" d=" M 337.75269645608626 194.64920908050408 A 2.5 2.5 0 1 1 337.75269520608634 194.64670908092074" fill-opacity="0.3" stroke-linejoin="bevel" stroke-miterlimit="10"/><path fill="blue" stroke="blue" paint-order="fill stroke markers" d=" M 345.51463790446843 167.21196702905746 A 2.5 2.5 0 1 1 345.5146366544685 167.20946702947413" fill-opacity="0.3" stroke-linejoin="bevel" stroke-miterlimit="10"/><path fill="blue" stroke="blue" paint-order="fill stroke markers" d=" M 353.27657935285055 160.23073401441678 A 2.5 2.5 0 1 1 353.27657810285064 160.22823401483345" fill-opacity="0.3" stroke-linejoin="bevel" stroke-miterlimit="10"/><path fill="blue" stroke="blue" paint-order="fill stroke markers" d=" M 361.0385208012326 175.07935114039185 A 2.5 2.5 0 1 1 361.0385195512327 175.07685114080851" fill-opacity="0.3" stroke-linejoin="bevel" stroke-miterlimit="10"/><path fill="blue" stroke="blue" paint-order="fill stroke markers" d=" M 368.8004622496148 157.7643753746687 A 2.5 2.5 0 1 1 368.80046099961487 157.76187537508537" fill-opacity="0.3" stroke-linejoin="bevel" stroke-miterlimit="10"/><path fill="blue" stroke="blue" paint-order="fill stroke markers" d=" M 376.5624036979969 149.14518245082593 A 2.5 2.5 0 1 1 376.562402447997 149.1426824512426" fill-opacity="0.3" stroke-linejoin="bevel" stroke-miterlimit="10"/><path fill="blue" stroke="blue" paint-order="fill stroke markers" d=" M 384.3243451463791 160.29459422242905 A 2.5 2.5 0 1 1 384.32434389637916 160.29209422284572" fill-opacity="0.3" stroke-linejoin="bevel" stroke-miterlimit="10"/><path fill="blue" stroke="blue" paint-order="fill stroke markers" d=" M 392.08628659476113 110.89025700945382 A 2.5 2.5 0 1 1 392.0862853447612 110.88775700987048" fill-opacity="0.3" stroke-linejoin="bevel" stroke-miterlimit="10"/><path fill="blue" stroke="blue" paint-order="fill stroke markers" d=" M 399.8482280431433 104.97919650531463 A 2.5 2.5 0 1 1 399.8482267931434 104.9766965057313" fill-opacity="0.3" stroke-linejoin="bevel" stroke-miterlimit="10"/><path fill="blue" stroke="blue" paint-order="fill stroke markers" d=" M 407.61016949152537 134.21686101219922 A 2.5 2.5 0 1 1 407.61016824152546 134.21436101261588" fill-opacity="0.3" stroke-linejoin="bevel" stroke-miterlimit="10"/><path fill="blue" stroke="blue" paint-order="fill stroke markers" d=" M 415.37211093990754 91.27719062367424 A 2.5 2.5 0 1 1 415.37210968990763 91.27469062409091" fill-opacity="0.3" stroke-linejoin="bevel" stroke-miterlimit="10"/><path fill="blue" stroke="blue" paint-order="fill stroke markers" d=" M 423.1340523882897 109.2240256539963 A 2.5 2.5 0 1 1 423.1340511382898 109.22152565441297" fill-opacity="0.3" stroke-linejoin="bevel" stroke-miterlimit="10"/><path fill="blue" stroke="blue" paint-order="fill stroke markers" d=" M 430.8959938366718 55.46915129650091 A 2.5 2.5 0 1 1 430.89599258667187 55.466651296917576" fill-opacity="0.3" stroke-linejoin="bevel" stroke-miterlimit="10"/><path fill="blue" stroke="blue" paint-order="fill stroke markers" d=" M 438.6579352850539 60.22779508284981 A 2.5 2.5 0 1 1 438.657934035054 60.225295083266474" fill-opacity="0.3" stroke-linejoin="bevel" stroke-miterlimit="10"/><path fill="blue" stroke="blue" paint-order="fill stroke markers" d=" M 446.41987673343607 51.454545454545496 A 2.5 2.5 0 1 1 446.41987548343616 51.45204545496216" fill-opacity="0.3" stroke-linejoin="bevel" stroke-miterlimit="10"/><path fill="blue" stroke="blue" paint-order="fill stroke markers" d=" M 454.1818181818182 77.57010495275989 A 2.5 2.5 0 1 1 454.1818169318183 77.56760495317656" fill-opacity="0.3" stroke-linejoin="bevel" stroke-miterlimit="10"/></g></g></g><g><g fill="#444444"><path fill="" stroke="none" d=""/><g transform="translate(268.5,5)"><path fill="none" stroke="none"/><text fill="" stroke="none" font-family="helvetica" font-size="12pt" font-style="normal" font-weight="bold" text-decoration="normal" x="0" y="0" text-anchor="middle" dominant-baseline="text-before-edge">Dimensionless Kratky plot (SASDEE2)</text></g></g></g><g/><g><g fill="#444444"><path fill="none" stroke="black" paint-order="fill stroke markers" d=" M 67 439 L 470 439" stroke-linejoin="bevel" stroke-miterlimit="10"/><path fill="none" stroke="black" paint-order="fill stroke markers" d=" M 140 445 L 140 437" stroke-linejoin="bevel" stroke-miterlimit="10"/><path fill="none" stroke="black" paint-order="fill stroke markers" d=" M 240 445 L 240 437" stroke-linejoin="bevel" stroke-miterlimit="10"/><path fill="none" stroke="black" paint-order="fill stroke markers" d=" M 340 445 L 340 437" stroke-linejoin="bevel" stroke-miterlimit="10"/><path fill="none" stroke="black" paint-order="fill stroke markers" d=" M 440 445 L 440 437" stroke-linejoin="bevel" stroke-miterlimit="10"/><path fill="none" stroke="black" paint-order="fill stroke markers" d=" M 120 443 L 120 439" stroke-linejoin="bevel" stroke-miterlimit="10"/><path fill="none" stroke="black" paint-order="fill stroke markers" d=" M 100 443 L 100 439" stroke-linejoin="bevel" stroke-miterlimit="10"/><path fill="none" stroke="black" paint-order="fill stroke markers" d=" M 80 443 L 80 439" stroke-linejoin="bevel" stroke-miterlimit="10"/><path fill="none" stroke="black" paint-order="fill stroke markers" d=" M 140 443 L 140 439" stroke-linejoin="bevel" stroke-miterlimit="10"/><path fill="none" stroke="black" paint-order="fill stroke markers" d=" M 160 443 L 160 439" stroke-linejoin="bevel" stroke-miterlimit="10"/><path fill="none" stroke="black" paint-order="fill stroke markers" d=" M 180 443 L 180 439" stroke-linejoin="bevel" stroke-miterlimit="10"/><path fill="none" stroke="black" paint-order="fill stroke markers" d=" M 200 443 L 200 439" stroke-linejoin="bevel" stroke-miterlimit="10"/><path fill="none" stroke="black" paint-order="fill stroke markers" d=" M 220 443 L 220 439" stroke-linejoin="bevel" stroke-miterlimit="10"/><path fill="none" stroke="black" paint-order="fill stroke markers" d=" M 240 443 L 240 439" stroke-linejoin="bevel" stroke-miterlimit="10"/><path fill="none" stroke="black" paint-order="fill stroke markers" d=" M 260 443 L 260 439" stroke-linejoin="bevel" stroke-miterlimit="10"/><path fill="none" stroke="black" paint-order="fill stroke markers" d=" M 280 443 L 280 439" stroke-linejoin="bevel" stroke-miterlimit="10"/><path fill="none" stroke="black" paint-order="fill stroke markers" d=" M 300 443 L 300 439" stroke-linejoin="bevel" stroke-miterlimit="10"/><path fill="none" stroke="black" paint-order="fill stroke markers" d=" M 320 443 L 320 439" stroke-linejoin="bevel" stroke-miterlimit="10"/><path fill="none" stroke="black" paint-order="fill stroke markers" d=" M 340 443 L 340 439" stroke-linejoin="bevel" stroke-miterlimit="10"/><path fill="none" stroke="black" paint-order="fill stroke markers" d=" M 360 443 L 360 439" stroke-linejoin="bevel" stroke-miterlimit="10"/><path fill="none" stroke="black" paint-order="fill stroke markers" d=" M 380 443 L 380 439" stroke-linejoin="bevel" stroke-miterlimit="10"/><path fill="none" stroke="black" paint-order="fill stroke markers" d=" M 400 443 L 400 439" stroke-linejoin="bevel" stroke-miterlimit="10"/><path fill="none" stroke="black" paint-order="fill stroke markers" d=" M 420 443 L 420 439" stroke-linejoin="bevel" stroke-miterlimit="10"/><path fill="none" stroke="black" paint-order="fill stroke markers" d=" M 440 443 L 440 439" stroke-linejoin="bevel" stroke-miterlimit="10"/><path fill="" stroke="black" paint-order="fill stroke markers" d=" M 460 443 L 460 439" stroke-linejoin="bevel" stroke-miterlimit="10"/><g transform="translate(140,450) rotate(0,0,0)"><text fill="" stroke="none" font-family="helvetica" font-size="14pt" font-style="normal" font-weight="normal" text-decoration="normal" x="0" y="0" text-anchor="middle" dominant-baseline="hanging">2</text><g transform="rotate(0,0,0) translate(-140,-450) translate(240,450) rotate(0,0,0)"><text fill="" stroke="none" font-family="helvetica" font-size="14pt" font-style="normal" font-weight="normal" text-decoration="normal" x="0" y="0" text-anchor="middle" dominant-baseline="hanging">4</text><g transform="rotate(0,0,0) translate(-240,-450) translate(340,450) rotate(0,0,0)"><text fill="" stroke="none" font-family="helvetica" font-size="14pt" font-style="normal" font-weight="normal" text-decoration="normal" x="0" y="0" text-anchor="middle" dominant-baseline="hanging">6</text><g transform="rotate(0,0,0) translate(-340,-450) translate(440,450) rotate(0,0,0)"><text fill="" stroke="none" font-family="helvetica" font-size="14pt" font-style="normal" font-weight="normal" text-decoration="normal" x="0" y="0" text-anchor="middle" dominant-baseline="hanging">8</text><g transform="rotate(0,0,0) translate(-440,-450) translate(269,477) rotate(0,0,0)"><text fill="" stroke="none" font-family="helvetica" font-size="14pt" font-style="italic" font-weight="normal" text-decoration="normal" x="0" y="0" text-anchor="middle" dominant-baseline="hanging">qRg</text><g transform="rotate(0,0,0) translate(-269,-477)"/></g></g></g></g></g></g></g><g><g fill="#444444"><path fill="none" stroke="black" paint-order="fill stroke markers" d=" M 67 439 L 67 33" stroke-linejoin="bevel" stroke-miterlimit="10"/><path fill="none" stroke="black" paint-order="fill stroke markers" d=" M 61 437 L 69 437" stroke-linejoin="bevel" stroke-miterlimit="10"/><path fill="none" stroke="black" paint-order="fill stroke markers" d=" M 61 379 L 69 379" stroke-linejoin="bevel" stroke-miterlimit="10"/><path fill="none" stroke="black" paint-order="fill stroke markers" d=" M 61 321 L 69 321" stroke-linejoin="bevel" stroke-miterlimit="10"/><path fill="none" stroke="black" paint-order="fill stroke markers" d=" M 61 263 L 69 263" stroke-linejoin="bevel" stroke-miterlimit="10"/><path fill="none" stroke="black" paint-order="fill stroke markers" d=" M 61 206 L 69 206" stroke-linejoin="bevel" stroke-miterlimit="10"/><path fill="none" stroke="black" paint-order="fill stroke markers" d=" M 61 148 L 69 148" stroke-linejoin="bevel" stroke-miterlimit="10"/><path fill="none" stroke="black" paint-order="fill stroke markers" d=" M 61 90 L 69 90" stroke-linejoin="bevel" stroke-miterlimit="10"/><path fill="none" stroke="black" paint-order="fill stroke markers" d=" M 63 437 L 67 437" stroke-linejoin="bevel" stroke-miterlimit="10"/><path fill="none" stroke="black" paint-order="fill stroke markers" d=" M 63 425 L 67 425" stroke-linejoin="bevel" stroke-miterlimit="10"/><path fill="none" stroke="black" paint-order="fill stroke markers" d=" M 63 414 L 67 414" stroke-linejoin="bevel" stroke-miterlimit="10"/><path fill="none" stroke="black" paint-order="fill stroke markers" d=" M 63 402 L 67 402" stroke-linejoin="bevel" stroke-miterlimit="10"/><path fill="none" stroke="black" paint-order="fill stroke markers" d=" M 63 390 L 67 390" stroke-linejoin="bevel" stroke-miterlimit="10"/><path fill="none" stroke="black" paint-order="fill stroke markers" d=" M 63 379 L 67 379" stroke-linejoin="bevel" stroke-miterlimit="10"/><path fill="none" stroke="black" paint-order="fill stroke markers" d=" M 63 367 L 67 367" stroke-linejoin="bevel" stroke-miterlimit="10"/><path fill="none" stroke="black" paint-order="fill stroke markers" d=" M 63 356 L 67 356" stroke-linejoin="bevel" stroke-miterlimit="10"/><path fill="none" stroke="black" paint-order="fill stroke markers" d=" M 63 344 L 67 344" stroke-linejoin="bevel" stroke-miterlimit="10"/><path fill="none" stroke="black" paint-order="fill stroke markers" d=" M 63 333 L 67 333" stroke-linejoin="bevel" stroke-miterlimit="10"/><path fill="none" stroke="black" paint-order="fill stroke markers" d=" M 63 321 L 67 321" stroke-linejoin="bevel" stroke-miterlimit="10"/><path fill="none" stroke="black" paint-order="fill stroke markers" d=" M 63 310 L 67 310" stroke-linejoin="bevel" stroke-miterlimit="10"/><path fill="none" stroke="black" paint-order="fill stroke markers" d=" M 63 298 L 67 298" stroke-linejoin="bevel" stroke-miterlimit="10"/><path fill="none" stroke="black" paint-order="fill stroke markers" d=" M 63 287 L 67 287" stroke-linejoin="bevel" stroke-miterlimit="10"/><path fill="none" stroke="black" paint-order="fill stroke markers" d=" M 63 275 L 67 275" stroke-linejoin="bevel" stroke-miterlimit="10"/><path fill="none" stroke="black" paint-order="fill stroke markers" d=" M 63 263 L 67 263" stroke-linejoin="bevel" stroke-miterlimit="10"/><path fill="none" stroke="black" paint-order="fill stroke markers" d=" M 63 252 L 67 252" stroke-linejoin="bevel" stroke-miterlimit="10"/><path fill="none" stroke="black" paint-order="fill stroke markers" d=" M 63 240 L 67 240" stroke-linejoin="bevel" stroke-miterlimit="10"/><path fill="none" stroke="black" paint-order="fill stroke markers" d=" M 63 229 L 67 229" stroke-linejoin="bevel" stroke-miterlimit="10"/><path fill="none" stroke="black" paint-order="fill stroke markers" d=" M 63 217 L 67 217" stroke-linejoin="bevel" stroke-miterlimit="10"/><path fill="none" stroke="black" paint-order="fill stroke markers" d=" M 63 206 L 67 206" stroke-linejoin="bevel" stroke-miterlimit="10"/><path fill="none" stroke="black" paint-order="fill stroke markers" d=" M 63 194 L 67 194" stroke-linejoin="bevel" stroke-miterlimit="10"/><path fill="none" stroke="black" paint-order="fill stroke markers" d=" M 63 183 L 67 183" stroke-linejoin="bevel" stroke-miterlimit="10"/><path fill="none" stroke="black" paint-order="fill stroke markers" d=" M 63 171 L 67 171" stroke-linejoin="bevel" stroke-miterlimit="10"/><path fill="none" stroke="black" paint-order="fill stroke markers" d=" M 63 159 L 67 159" stroke-linejoin="bevel" stroke-miterlimit="10"/><path fill="none" stroke="black" paint-order="fill stroke markers" d=" M 63 148 L 67 148" stroke-linejoin="bevel" stroke-miterlimit="10"/><path fill="none" stroke="black" paint-order="fill stroke markers" d=" M 63 136 L 67 136" stroke-linejoin="bevel" stroke-miterlimit="10"/><path fill="none" stroke="black" paint-order="fill stroke markers" d=" M 63 125 L 67 125" stroke-linejoin="bevel" stroke-miterlimit="10"/><path fill="none" stroke="black" paint-order="fill stroke markers" d=" M 63 113 L 67 113" stroke-linejoin="bevel" stroke-miterlimit="10"/><path fill="none" stroke="black" paint-order="fill stroke markers" d=" M 63 102 L 67 102" stroke-linejoin="bevel" stroke-miterlimit="10"/><path fill="none" stroke="black" paint-order="fill stroke markers" d=" M 63 90 L 67 90" stroke-linejoin="bevel" stroke-miterlimit="10"/><path fill="none" stroke="black" paint-order="fill stroke markers" d=" M 63 79 L 67 79" stroke-linejoin="bevel" stroke-miterlimit="10"/><path fill="none" stroke="black" paint-order="fill stroke markers" d=" M 63 67 L 67 67" stroke-linejoin="bevel" stroke-miterlimit="10"/><path fill="none" stroke="black" paint-order="fill stroke markers" d=" M 63 56 L 67 56" stroke-linejoin="bevel" stroke-miterlimit="10"/><path fill="" stroke="black" paint-order="fill stroke markers" d=" M 63 44 L 67 44" stroke-linejoin="bevel" stroke-miterlimit="10"/><g transform="translate(56,437) rotate(0,0,0)"><text fill="" stroke="none" font-family="helvetica" font-size="14pt" font-style="normal" font-weight="normal" text-decoration="normal" x="0" y="0" text-anchor="end" dominant-baseline="central">0.5</text><g transform="rotate(0,0,0) translate(-56,-437) translate(56,379) rotate(0,0,0)"><text fill="" stroke="none" font-family="helvetica" font-size="14pt" font-style="normal" font-weight="normal" text-decoration="normal" x="0" y="0" text-anchor="end" dominant-baseline="central">1</text><g transform="rotate(0,0,0) translate(-56,-379) translate(56,321) rotate(0,0,0)"><text fill="" stroke="none" font-family="helvetica" font-size="14pt" font-style="normal" font-weight="normal" text-decoration="normal" x="0" y="0" text-anchor="end" dominant-baseline="central">1.5</text><g transform="rotate(0,0,0) translate(-56,-321) translate(56,263) rotate(0,0,0)"><text fill="" stroke="none" font-family="helvetica" font-size="14pt" font-style="normal" font-weight="normal" text-decoration="normal" x="0" y="0" text-anchor="end" dominant-baseline="central">2</text><g transform="rotate(0,0,0) translate(-56,-263) translate(56,206) rotate(0,0,0)"><text fill="" stroke="none" font-family="helvetica" font-size="14pt" font-style="normal" font-weight="normal" text-decoration="normal" x="0" y="0" text-anchor="end" dominant-baseline="central">2.5</text><g transform="rotate(0,0,0) translate(-56,-206) translate(56,148) rotate(0,0,0)"><text fill="" stroke="none" font-family="helvetica" font-size="14pt" font-style="normal" font-weight="normal" text-decoration="normal" x="0" y="0" text-anchor="end" dominant-baseline="central">3</text><g transform="rotate(0,0,0) translate(-56,-148) translate(56,90) rotate(0,0,0)"><text fill="" stroke="none" font-family="helvetica" font-size="14pt" font-style="normal" font-weight="normal" text-decoration="normal" x="0" y="0" text-anchor="end" dominant-baseline="central">3.5</text><g transform="rotate(0,0,0) translate(-56,-90) translate(22,236) rotate(-90,0,0)"><text fill="" stroke="none" font-family="helvetica" font-size="14pt" font-style="italic" font-weight="normal" text-decoration="normal" x="0" y="0" text-anchor="middle" dominant-baseline="alphabetic">q² Rg² I(q)/I(0)</text><g transform="rotate(90,0,0) translate(-22,-236)"/></g></g></g></g></g></g></g></g></g></g><g clip-path="url(#ircuwoakbFqp)"><g/></g></g></svg>