<svg version="1.1" xmlns="http://www.w3.org/2000/svg" xmlns:xlink="http://www.w3.org/1999/xlink" width="500" height="500"><defs><clipPath id="lzlvoFXoQZgW"><path fill="none" stroke="none" d="M 67.5 33.5 L 470.5 33.5 L 470.5 439.5 L 67.5 439.5 L 67.5 33.5"/></clipPath><clipPath id="RCITvqNVQuOi"><path fill="none" stroke="none" d="M 67.5 33.5 L 470.5 33.5 L 470.5 439.5 L 67.5 439.5 L 67.5 33.5"/></clipPath><clipPath id="FSSkBeGKCoRT"><path fill="none" stroke="none" d="M 67.5 33.5 L 470.5 33.5 L 470.5 439.5 L 67.5 439.5 L 67.5 33.5"/></clipPath><clipPath id="QrzkRbolKyBB"><path fill="none" stroke="none" d="M 67.5 33.5 L 470.5 33.5 L 470.5 439.5 L 67.5 439.5 L 67.5 33.5"/></clipPath><clipPath id="SsuoTrzCxkNb"><path fill="none" stroke="none" d="M 67.5 33.5 L 470.5 33.5 L 470.5 439.5 L 67.5 439.5 L 67.5 33.5"/></clipPath><clipPath id="VHqQOOhfUKWK"><path fill="none" stroke="none" d="M 67.5 33.5 L 470.5 33.5 L 470.5 439.5 L 67.5 439.5 L 67.5 33.5"/></clipPath></defs><path fill="rgb(255,255,255)" stroke="none" paint-order="stroke" d="M 0.5 0.5 L 500.5 0.5 L 500.5 500.5 L 0.5 500.5 L 0.5 0.5" fill-opacity="1"/><rect fill="#FFFFFF" stroke="none" x="67" y="33" width="403" height="406" transform="matrix(1, 0, 0, 1, 0.5, 0.5)"/><path fill="rgb(255,255,255)" stroke="none" paint-order="stroke" d="M 67.5 33.5 L 470.5 33.5 L 470.5 439.5 L 67.5 439.5 L 67.5 33.5" fill-opacity="1"/><path fill="none" stroke="rgb(229,229,229)" paint-order="fill" d="M 67.5 33.5 L 470.5 33.5 L 470.5 439.5 L 67.5 439.5 L 67.5 33.5" stroke-opacity="1" stroke-linejoin="bevel" stroke-miterlimit="10" stroke-dasharray=""/><path fill="none" stroke="rgb(229,229,229)" paint-order="fill" d="M 68.5 439.5 L 68.5 33.5 M 144.5 439.5 L 144.5 33.5 M 221.5 439.5 L 221.5 33.5 M 297.5 439.5 L 297.5 33.5 M 374.5 439.5 L 374.5 33.5 M 450.5 439.5 L 450.5 33.5" stroke-opacity="1" stroke-linejoin="bevel" stroke-miterlimit="10" stroke-dasharray="" clip-path="url(#lzlvoFXoQZgW)"/><path fill="none" stroke="rgb(229,229,229)" paint-order="fill" d="M 67.5 428.5 L 470.5 428.5 M 67.5 357.5 L 470.5 357.5 M 67.5 285.5 L 470.5 285.5 M 67.5 214.5 L 470.5 214.5 M 67.5 142.5 L 470.5 142.5 M 67.5 71.5 L 470.5 71.5" stroke-opacity="1" stroke-linejoin="bevel" stroke-miterlimit="10" stroke-dasharray="" clip-path="url(#RCITvqNVQuOi)"/><path fill="none" stroke="none"/><path fill="rgb(0,0,255)" stroke="rgb(0,0,255)" paint-order="fill" d="M 88.31818389892578 61.171226501464844 A 2.5 2.5 0 1 1 88.31818264892588 61.16872650188151" fill-opacity="0.3" clip-path="url(#FSSkBeGKCoRT)" stroke-opacity="1" stroke-linejoin="bevel" stroke-miterlimit="10" stroke-dasharray=""/><path fill="rgb(0,0,255)" stroke="rgb(0,0,255)" paint-order="fill" d="M 90.49208068847656 55.75249099731445 A 2.5 2.5 0 1 1 90.49207943847667 55.74999099773112" fill-opacity="0.3" clip-path="url(#FSSkBeGKCoRT)" stroke-opacity="1" stroke-linejoin="bevel" stroke-miterlimit="10" stroke-dasharray=""/><path fill="rgb(0,0,255)" stroke="rgb(0,0,255)" paint-order="fill" d="M 92.79370880126953 52.8187255859375 A 2.5 2.5 0 1 1 92.79370755126963 52.816225586354165" fill-opacity="0.3" clip-path="url(#FSSkBeGKCoRT)" stroke-opacity="1" stroke-linejoin="bevel" stroke-miterlimit="10" stroke-dasharray=""/><path fill="rgb(0,0,255)" stroke="rgb(0,0,255)" paint-order="fill" d="M 95.22333526611328 51.95454406738281 A 2.5 2.5 0 1 1 95.22333401611338 51.95204406779948" fill-opacity="0.3" clip-path="url(#FSSkBeGKCoRT)" stroke-opacity="1" stroke-linejoin="bevel" stroke-miterlimit="10" stroke-dasharray=""/><path fill="rgb(0,0,255)" stroke="rgb(0,0,255)" paint-order="fill" d="M 97.78043365478516 55.48828887939453 A 2.5 2.5 0 1 1 97.78043240478526 55.485788879811196" fill-opacity="0.3" clip-path="url(#FSSkBeGKCoRT)" stroke-opacity="1" stroke-linejoin="bevel" stroke-miterlimit="10" stroke-dasharray=""/><path fill="rgb(0,0,255)" stroke="rgb(0,0,255)" paint-order="fill" d="M 100.46525573730469 62.00852966308594 A 2.5 2.5 0 1 1 100.46525448730479 62.0060296635026" fill-opacity="0.3" clip-path="url(#FSSkBeGKCoRT)" stroke-opacity="1" stroke-linejoin="bevel" stroke-miterlimit="10" stroke-dasharray=""/><path fill="rgb(0,0,255)" stroke="rgb(0,0,255)" paint-order="fill" d="M 103.2778091430664 67.23523712158203 A 2.5 2.5 0 1 1 103.27780789306651 67.2327371219987" fill-opacity="0.3" clip-path="url(#FSSkBeGKCoRT)" stroke-opacity="1" stroke-linejoin="bevel" stroke-miterlimit="10" stroke-dasharray=""/><path fill="rgb(0,0,255)" stroke="rgb(0,0,255)" paint-order="fill" d="M 106.21808624267578 63.26633071899414 A 2.5 2.5 0 1 1 106.21808499267588 63.263830719410805" fill-opacity="0.3" clip-path="url(#FSSkBeGKCoRT)" stroke-opacity="1" stroke-linejoin="bevel" stroke-miterlimit="10" stroke-dasharray=""/><path fill="rgb(0,0,255)" stroke="rgb(0,0,255)" paint-order="fill" d="M 109.28643798828125 75.8121109008789 A 2.5 2.5 0 1 1 109.28643673828135 75.80961090129557" fill-opacity="0.3" clip-path="url(#FSSkBeGKCoRT)" stroke-opacity="1" stroke-linejoin="bevel" stroke-miterlimit="10" stroke-dasharray=""/><path fill="rgb(0,0,255)" stroke="rgb(0,0,255)" paint-order="fill" d="M 112.48218536376953 82.87387084960938 A 2.5 2.5 0 1 1 112.48218411376963 82.87137085002604" fill-opacity="0.3" clip-path="url(#FSSkBeGKCoRT)" stroke-opacity="1" stroke-linejoin="bevel" stroke-miterlimit="10" stroke-dasharray=""/><path fill="rgb(0,0,255)" stroke="rgb(0,0,255)" paint-order="fill" d="M 115.8056640625 90.42194366455078 A 2.5 2.5 0 1 1 115.8056628125001 90.41944366496745" fill-opacity="0.3" clip-path="url(#FSSkBeGKCoRT)" stroke-opacity="1" stroke-linejoin="bevel" stroke-miterlimit="10" stroke-dasharray=""/><path fill="rgb(0,0,255)" stroke="rgb(0,0,255)" paint-order="fill" d="M 119.25686645507812 99.5890121459961 A 2.5 2.5 0 1 1 119.25686520507823 99.58651214641276" fill-opacity="0.3" clip-path="url(#FSSkBeGKCoRT)" stroke-opacity="1" stroke-linejoin="bevel" stroke-miterlimit="10" stroke-dasharray=""/><path fill="rgb(0,0,255)" stroke="rgb(0,0,255)" paint-order="fill" d="M 122.83619689941406 98.8619384765625 A 2.5 2.5 0 1 1 122.83619564941417 98.85943847697916" fill-opacity="0.3" clip-path="url(#FSSkBeGKCoRT)" stroke-opacity="1" stroke-linejoin="bevel" stroke-miterlimit="10" stroke-dasharray=""/><path fill="rgb(0,0,255)" stroke="rgb(0,0,255)" paint-order="fill" d="M 126.54287719726562 91.89946746826172 A 2.5 2.5 0 1 1 126.54287594726573 91.89696746867838" fill-opacity="0.3" clip-path="url(#FSSkBeGKCoRT)" stroke-opacity="1" stroke-linejoin="bevel" stroke-miterlimit="10" stroke-dasharray=""/><path fill="rgb(0,0,255)" stroke="rgb(0,0,255)" paint-order="fill" d="M 130.3772735595703 94.63448333740234 A 2.5 2.5 0 1 1 130.37727230957043 94.63198333781901" fill-opacity="0.3" clip-path="url(#FSSkBeGKCoRT)" stroke-opacity="1" stroke-linejoin="bevel" stroke-miterlimit="10" stroke-dasharray=""/><path fill="rgb(0,0,255)" stroke="rgb(0,0,255)" paint-order="fill" d="M 134.3394012451172 99.02734375 A 2.5 2.5 0 1 1 134.3393999951173 99.02484375041666" fill-opacity="0.3" clip-path="url(#FSSkBeGKCoRT)" stroke-opacity="1" stroke-linejoin="bevel" stroke-miterlimit="10" stroke-dasharray=""/><path fill="rgb(0,0,255)" stroke="rgb(0,0,255)" paint-order="fill" d="M 138.42926025390625 112.12499237060547 A 2.5 2.5 0 1 1 138.42925900390637 112.12249237102213" fill-opacity="0.3" clip-path="url(#FSSkBeGKCoRT)" stroke-opacity="1" stroke-linejoin="bevel" stroke-miterlimit="10" stroke-dasharray=""/><path fill="rgb(0,0,255)" stroke="rgb(0,0,255)" paint-order="fill" d="M 142.64730834960938 115.72322082519531 A 2.5 2.5 0 1 1 142.6473070996095 115.72072082561198" fill-opacity="0.3" clip-path="url(#FSSkBeGKCoRT)" stroke-opacity="1" stroke-linejoin="bevel" stroke-miterlimit="10" stroke-dasharray=""/><path fill="rgb(0,0,255)" stroke="rgb(0,0,255)" paint-order="fill" d="M 146.99264526367188 118.01544189453125 A 2.5 2.5 0 1 1 146.992644013672 118.01294189494791" fill-opacity="0.3" clip-path="url(#FSSkBeGKCoRT)" stroke-opacity="1" stroke-linejoin="bevel" stroke-miterlimit="10" stroke-dasharray=""/><path fill="rgb(0,0,255)" stroke="rgb(0,0,255)" paint-order="fill" d="M 151.4656982421875 125.57089233398438 A 2.5 2.5 0 1 1 151.46569699218762 125.56839233440104" fill-opacity="0.3" clip-path="url(#FSSkBeGKCoRT)" stroke-opacity="1" stroke-linejoin="bevel" stroke-miterlimit="10" stroke-dasharray=""/><path fill="rgb(0,0,255)" stroke="rgb(0,0,255)" paint-order="fill" d="M 156.0664825439453 127.83751678466797 A 2.5 2.5 0 1 1 156.06648129394543 127.83501678508463" fill-opacity="0.3" clip-path="url(#FSSkBeGKCoRT)" stroke-opacity="1" stroke-linejoin="bevel" stroke-miterlimit="10" stroke-dasharray=""/><path fill="rgb(0,0,255)" stroke="rgb(0,0,255)" paint-order="fill" d="M 160.79551696777344 131.83065795898438 A 2.5 2.5 0 1 1 160.79551571777355 131.82815795940104" fill-opacity="0.3" clip-path="url(#FSSkBeGKCoRT)" stroke-opacity="1" stroke-linejoin="bevel" stroke-miterlimit="10" stroke-dasharray=""/><path fill="rgb(0,0,255)" stroke="rgb(0,0,255)" paint-order="fill" d="M 165.65176391601562 134.7861785888672 A 2.5 2.5 0 1 1 165.65176266601574 134.78367858928385" fill-opacity="0.3" clip-path="url(#FSSkBeGKCoRT)" stroke-opacity="1" stroke-linejoin="bevel" stroke-miterlimit="10" stroke-dasharray=""/><path fill="rgb(0,0,255)" stroke="rgb(0,0,255)" paint-order="fill" d="M 170.6357421875 143.5186309814453 A 2.5 2.5 0 1 1 170.63574093750012 143.51613098186198" fill-opacity="0.3" clip-path="url(#FSSkBeGKCoRT)" stroke-opacity="1" stroke-linejoin="bevel" stroke-miterlimit="10" stroke-dasharray=""/><path fill="rgb(0,0,255)" stroke="rgb(0,0,255)" paint-order="fill" d="M 175.74745178222656 144.95506286621094 A 2.5 2.5 0 1 1 175.74745053222668 144.9525628666276" fill-opacity="0.3" clip-path="url(#FSSkBeGKCoRT)" stroke-opacity="1" stroke-linejoin="bevel" stroke-miterlimit="10" stroke-dasharray=""/><path fill="rgb(0,0,255)" stroke="rgb(0,0,255)" paint-order="fill" d="M 180.98687744140625 149.6743927001953 A 2.5 2.5 0 1 1 180.98687619140637 149.67189270061198" fill-opacity="0.3" clip-path="url(#FSSkBeGKCoRT)" stroke-opacity="1" stroke-linejoin="bevel" stroke-miterlimit="10" stroke-dasharray=""/><path fill="rgb(0,0,255)" stroke="rgb(0,0,255)" paint-order="fill" d="M 186.35462951660156 158.36280822753906 A 2.5 2.5 0 1 1 186.35462826660168 158.36030822795573" fill-opacity="0.3" clip-path="url(#FSSkBeGKCoRT)" stroke-opacity="1" stroke-linejoin="bevel" stroke-miterlimit="10" stroke-dasharray=""/><path fill="rgb(0,0,255)" stroke="rgb(0,0,255)" paint-order="fill" d="M 191.8495330810547 156.7959747314453 A 2.5 2.5 0 1 1 191.8495318310548 156.79347473186198" fill-opacity="0.3" clip-path="url(#FSSkBeGKCoRT)" stroke-opacity="1" stroke-linejoin="bevel" stroke-miterlimit="10" stroke-dasharray=""/><path fill="rgb(0,0,255)" stroke="rgb(0,0,255)" paint-order="fill" d="M 197.47216796875 163.6214599609375 A 2.5 2.5 0 1 1 197.47216671875012 163.61895996135416" fill-opacity="0.3" clip-path="url(#FSSkBeGKCoRT)" stroke-opacity="1" stroke-linejoin="bevel" stroke-miterlimit="10" stroke-dasharray=""/><path fill="rgb(0,0,255)" stroke="rgb(0,0,255)" paint-order="fill" d="M 203.2225341796875 172.5652618408203 A 2.5 2.5 0 1 1 203.22253292968762 172.56276184123698" fill-opacity="0.3" clip-path="url(#FSSkBeGKCoRT)" stroke-opacity="1" stroke-linejoin="bevel" stroke-miterlimit="10" stroke-dasharray=""/><path fill="rgb(0,0,255)" stroke="rgb(0,0,255)" paint-order="fill" d="M 209.10061645507812 174.02786254882812 A 2.5 2.5 0 1 1 209.10061520507824 174.0253625492448" fill-opacity="0.3" clip-path="url(#FSSkBeGKCoRT)" stroke-opacity="1" stroke-linejoin="bevel" stroke-miterlimit="10" stroke-dasharray=""/><path fill="rgb(0,0,255)" stroke="rgb(0,0,255)" paint-order="fill" d="M 215.1071014404297 184.0738983154297 A 2.5 2.5 0 1 1 215.1071001904298 184.07139831584635" fill-opacity="0.3" clip-path="url(#FSSkBeGKCoRT)" stroke-opacity="1" stroke-linejoin="bevel" stroke-miterlimit="10" stroke-dasharray=""/><path fill="rgb(0,0,255)" stroke="rgb(0,0,255)" paint-order="fill" d="M 221.2406463623047 191.94749450683594 A 2.5 2.5 0 1 1 221.2406451123048 191.9449945072526" fill-opacity="0.3" clip-path="url(#FSSkBeGKCoRT)" stroke-opacity="1" stroke-linejoin="bevel" stroke-miterlimit="10" stroke-dasharray=""/><path fill="rgb(0,0,255)" stroke="rgb(0,0,255)" paint-order="fill" d="M 227.50193786621094 195.8280487060547 A 2.5 2.5 0 1 1 227.50193661621105 195.82554870647135" fill-opacity="0.3" clip-path="url(#FSSkBeGKCoRT)" stroke-opacity="1" stroke-linejoin="bevel" stroke-miterlimit="10" stroke-dasharray=""/><path fill="rgb(0,0,255)" stroke="rgb(0,0,255)" paint-order="fill" d="M 233.8909454345703 205.384033203125 A 2.5 2.5 0 1 1 233.89094418457043 205.38153320354166" fill-opacity="0.3" clip-path="url(#FSSkBeGKCoRT)" stroke-opacity="1" stroke-linejoin="bevel" stroke-miterlimit="10" stroke-dasharray=""/><path fill="rgb(0,0,255)" stroke="rgb(0,0,255)" paint-order="fill" d="M 240.4084014892578 210.85470581054688 A 2.5 2.5 0 1 1 240.40840023925793 210.85220581096354" fill-opacity="0.3" clip-path="url(#FSSkBeGKCoRT)" stroke-opacity="1" stroke-linejoin="bevel" stroke-miterlimit="10" stroke-dasharray=""/><path fill="rgb(0,0,255)" stroke="rgb(0,0,255)" paint-order="fill" d="M 247.05288696289062 219.55215454101562 A 2.5 2.5 0 1 1 247.05288571289074 219.5496545414323" fill-opacity="0.3" clip-path="url(#FSSkBeGKCoRT)" stroke-opacity="1" stroke-linejoin="bevel" stroke-miterlimit="10" stroke-dasharray=""/><path fill="rgb(0,0,255)" stroke="rgb(0,0,255)" paint-order="fill" d="M 253.82508850097656 232.94183349609375 A 2.5 2.5 0 1 1 253.82508725097668 232.93933349651041" fill-opacity="0.3" clip-path="url(#FSSkBeGKCoRT)" stroke-opacity="1" stroke-linejoin="bevel" stroke-miterlimit="10" stroke-dasharray=""/><path fill="rgb(0,0,255)" stroke="rgb(0,0,255)" paint-order="fill" d="M 260.72503662109375 237.98260498046875 A 2.5 2.5 0 1 1 260.72503537109384 237.98010498088541" fill-opacity="0.3" clip-path="url(#FSSkBeGKCoRT)" stroke-opacity="1" stroke-linejoin="bevel" stroke-miterlimit="10" stroke-dasharray=""/><path fill="rgb(0,0,255)" stroke="rgb(0,0,255)" paint-order="fill" d="M 267.752685546875 246.59300231933594 A 2.5 2.5 0 1 1 267.7526842968751 246.5905023197526" fill-opacity="0.3" clip-path="url(#FSSkBeGKCoRT)" stroke-opacity="1" stroke-linejoin="bevel" stroke-miterlimit="10" stroke-dasharray=""/><path fill="rgb(0,0,255)" stroke="rgb(0,0,255)" paint-order="fill" d="M 274.90887451171875 248.74642944335938 A 2.5 2.5 0 1 1 274.90887326171884 248.74392944377604" fill-opacity="0.3" clip-path="url(#FSSkBeGKCoRT)" stroke-opacity="1" stroke-linejoin="bevel" stroke-miterlimit="10" stroke-dasharray=""/><path fill="rgb(0,0,255)" stroke="rgb(0,0,255)" paint-order="fill" d="M 282.1920166015625 248.54254150390625 A 2.5 2.5 0 1 1 282.1920153515626 248.54004150432291" fill-opacity="0.3" clip-path="url(#FSSkBeGKCoRT)" stroke-opacity="1" stroke-linejoin="bevel" stroke-miterlimit="10" stroke-dasharray=""/><path fill="rgb(0,0,255)" stroke="rgb(0,0,255)" paint-order="fill" d="M 289.6028747558594 259.455078125 A 2.5 2.5 0 1 1 289.60287350585946 259.45257812541666" fill-opacity="0.3" clip-path="url(#FSSkBeGKCoRT)" stroke-opacity="1" stroke-linejoin="bevel" stroke-miterlimit="10" stroke-dasharray=""/><path fill="rgb(0,0,255)" stroke="rgb(0,0,255)" paint-order="fill" d="M 297.1414489746094 268.2849426269531 A 2.5 2.5 0 1 1 297.14144772460946 268.2824426273698" fill-opacity="0.3" clip-path="url(#FSSkBeGKCoRT)" stroke-opacity="1" stroke-linejoin="bevel" stroke-miterlimit="10" stroke-dasharray=""/><path fill="rgb(0,0,255)" stroke="rgb(0,0,255)" paint-order="fill" d="M 304.8086242675781 279.95037841796875 A 2.5 2.5 0 1 1 304.8086230175782 279.9478784183854" fill-opacity="0.3" clip-path="url(#FSSkBeGKCoRT)" stroke-opacity="1" stroke-linejoin="bevel" stroke-miterlimit="10" stroke-dasharray=""/><path fill="rgb(0,0,255)" stroke="rgb(0,0,255)" paint-order="fill" d="M 312.6026916503906 285.8096618652344 A 2.5 2.5 0 1 1 312.6026904003907 285.80716186565104" fill-opacity="0.3" clip-path="url(#FSSkBeGKCoRT)" stroke-opacity="1" stroke-linejoin="bevel" stroke-miterlimit="10" stroke-dasharray=""/><path fill="rgb(0,0,255)" stroke="rgb(0,0,255)" paint-order="fill" d="M 320.52447509765625 286.98858642578125 A 2.5 2.5 0 1 1 320.52447384765634 286.9860864261979" fill-opacity="0.3" clip-path="url(#FSSkBeGKCoRT)" stroke-opacity="1" stroke-linejoin="bevel" stroke-miterlimit="10" stroke-dasharray=""/><path fill="rgb(0,0,255)" stroke="rgb(0,0,255)" paint-order="fill" d="M 328.573974609375 297.54180908203125 A 2.5 2.5 0 1 1 328.5739733593751 297.5393090824479" fill-opacity="0.3" clip-path="url(#FSSkBeGKCoRT)" stroke-opacity="1" stroke-linejoin="bevel" stroke-miterlimit="10" stroke-dasharray=""/><path fill="rgb(0,0,255)" stroke="rgb(0,0,255)" paint-order="fill" d="M 336.751220703125 305.0434875488281 A 2.5 2.5 0 1 1 336.7512194531251 305.0409875492448" fill-opacity="0.3" clip-path="url(#FSSkBeGKCoRT)" stroke-opacity="1" stroke-linejoin="bevel" stroke-miterlimit="10" stroke-dasharray=""/><path fill="rgb(0,0,255)" stroke="rgb(0,0,255)" paint-order="fill" d="M 345.0570983886719 309.71173095703125 A 2.5 2.5 0 1 1 345.05709713867196 309.7092309574479" fill-opacity="0.3" clip-path="url(#FSSkBeGKCoRT)" stroke-opacity="1" stroke-linejoin="bevel" stroke-miterlimit="10" stroke-dasharray=""/><path fill="rgb(0,0,255)" stroke="rgb(0,0,255)" paint-order="fill" d="M 353.48980712890625 316.2350158691406 A 2.5 2.5 0 1 1 353.48980587890634 316.2325158695573" fill-opacity="0.3" clip-path="url(#FSSkBeGKCoRT)" stroke-opacity="1" stroke-linejoin="bevel" stroke-miterlimit="10" stroke-dasharray=""/><path fill="rgb(0,0,255)" stroke="rgb(0,0,255)" paint-order="fill" d="M 362.0502624511719 325.9572448730469 A 2.5 2.5 0 1 1 362.05026120117196 325.95474487346354" fill-opacity="0.3" clip-path="url(#FSSkBeGKCoRT)" stroke-opacity="1" stroke-linejoin="bevel" stroke-miterlimit="10" stroke-dasharray=""/><path fill="rgb(0,0,255)" stroke="rgb(0,0,255)" paint-order="fill" d="M 370.7384033203125 340.4977722167969 A 2.5 2.5 0 1 1 370.7384020703126 340.49527221721354" fill-opacity="0.3" clip-path="url(#FSSkBeGKCoRT)" stroke-opacity="1" stroke-linejoin="bevel" stroke-miterlimit="10" stroke-dasharray=""/><path fill="rgb(0,0,255)" stroke="rgb(0,0,255)" paint-order="fill" d="M 379.5552673339844 348.437744140625 A 2.5 2.5 0 1 1 379.55526608398446 348.43524414104166" fill-opacity="0.3" clip-path="url(#FSSkBeGKCoRT)" stroke-opacity="1" stroke-linejoin="bevel" stroke-miterlimit="10" stroke-dasharray=""/><path fill="rgb(0,0,255)" stroke="rgb(0,0,255)" paint-order="fill" d="M 388.4989013671875 358.6265563964844 A 2.5 2.5 0 1 1 388.4989001171876 358.62405639690104" fill-opacity="0.3" clip-path="url(#FSSkBeGKCoRT)" stroke-opacity="1" stroke-linejoin="bevel" stroke-miterlimit="10" stroke-dasharray=""/><path fill="rgb(0,0,255)" stroke="rgb(0,0,255)" paint-order="fill" d="M 397.5702819824219 362.367919921875 A 2.5 2.5 0 1 1 397.57028073242196 362.36541992229166" fill-opacity="0.3" clip-path="url(#FSSkBeGKCoRT)" stroke-opacity="1" stroke-linejoin="bevel" stroke-miterlimit="10" stroke-dasharray=""/><path fill="rgb(0,0,255)" stroke="rgb(0,0,255)" paint-order="fill" d="M 406.7693786621094 372.8092041015625 A 2.5 2.5 0 1 1 406.76937741210946 372.80670410197916" fill-opacity="0.3" clip-path="url(#FSSkBeGKCoRT)" stroke-opacity="1" stroke-linejoin="bevel" stroke-miterlimit="10" stroke-dasharray=""/><path fill="rgb(0,0,255)" stroke="rgb(0,0,255)" paint-order="fill" d="M 416.09619140625 378.39300537109375 A 2.5 2.5 0 1 1 416.0961901562501 378.3905053715104" fill-opacity="0.3" clip-path="url(#FSSkBeGKCoRT)" stroke-opacity="1" stroke-linejoin="bevel" stroke-miterlimit="10" stroke-dasharray=""/><path fill="rgb(0,0,255)" stroke="rgb(0,0,255)" paint-order="fill" d="M 425.5517578125 384.63092041015625 A 2.5 2.5 0 1 1 425.5517565625001 384.6284204105729" fill-opacity="0.3" clip-path="url(#FSSkBeGKCoRT)" stroke-opacity="1" stroke-linejoin="bevel" stroke-miterlimit="10" stroke-dasharray=""/><path fill="rgb(0,0,255)" stroke="rgb(0,0,255)" paint-order="fill" d="M 435.1340637207031 397.0860290527344 A 2.5 2.5 0 1 1 435.1340624707032 397.08352905315104" fill-opacity="0.3" clip-path="url(#FSSkBeGKCoRT)" stroke-opacity="1" stroke-linejoin="bevel" stroke-miterlimit="10" stroke-dasharray=""/><path fill="rgb(0,0,255)" stroke="rgb(0,0,255)" paint-order="fill" d="M 444.8440856933594 402.89471435546875 A 2.5 2.5 0 1 1 444.84408444335946 402.8922143558854" fill-opacity="0.3" clip-path="url(#FSSkBeGKCoRT)" stroke-opacity="1" stroke-linejoin="bevel" stroke-miterlimit="10" stroke-dasharray=""/><path fill="rgb(0,0,255)" stroke="rgb(0,0,255)" paint-order="fill" d="M 454.68182373046875 412.25726318359375 A 2.5 2.5 0 1 1 454.68182248046884 412.2547631840104" fill-opacity="0.3" clip-path="url(#FSSkBeGKCoRT)" stroke-opacity="1" stroke-linejoin="bevel" stroke-miterlimit="10" stroke-dasharray=""/><path fill="none" stroke="none"/><path fill="none" stroke="rgb(255,0,0)" paint-order="fill" d="M 85.81818389892578 57.75537109375 L 87.99208068847656 59.91102981567383 L 90.29370880126953 62.1933479309082 L 92.72333526611328 64.60259246826172 L 95.28043365478516 67.13823699951172 L 97.96525573730469 69.800537109375 L 100.7778091430664 72.58949279785156 L 103.71808624267578 75.50511169433594 L 106.78643798828125 78.54771423339844 L 109.98218536376953 81.71665954589844 L 113.3056640625 85.01225280761719 L 116.75686645507812 88.43450164794922 L 120.33619689941406 91.98380279541016 L 124.04287719726562 95.65938568115234 L 127.87727355957031 99.46161651611328 L 131.8394012451172 103.3905029296875 L 135.92926025390625 107.44605255126953 L 140.14730834960938 111.62871551513672 L 144.49264526367188 115.93759155273438 L 148.9656982421875 120.37311553955078 L 153.5664825439453 124.935302734375 L 158.29551696777344 129.62466430664062 L 163.15176391601562 134.44017028808594 L 168.1357421875 139.38233947753906 L 173.24745178222656 144.45115661621094 L 178.48687744140625 149.64663696289062 L 183.85462951660156 154.9693603515625 L 189.3495330810547 160.4181671142578 L 194.97216796875 165.99362182617188 L 200.7225341796875 171.69573974609375 L 206.60061645507812 177.52452087402344 L 212.6071014404297 183.48060607910156 L 218.7406463623047 189.56271362304688 L 225.00193786621094 195.77146911621094 L 231.3909454345703 202.10687255859375 L 237.9084014892578 208.5696563720703 L 244.55288696289062 215.15838623046875 L 251.32508850097656 221.87379455566406 L 258.22503662109375 228.71583557128906 L 265.252685546875 235.68453979492188 L 272.40887451171875 242.7806854248047 L 279.6920166015625 250.00271606445312 L 287.1028747558594 257.3514099121094 L 294.6414489746094 264.8267517089844 L 302.3086242675781 272.4295959472656 L 310.1026916503906 280.15826416015625 L 318.02447509765625 288.0135803222656 L 326.073974609375 295.9955749511719 L 334.251220703125 304.1042175292969 L 342.5570983886719 312.3404235839844 L 350.98980712890625 320.702392578125 L 359.5502624511719 329.1910095214844 L 368.2384033203125 337.8062744140625 L 377.0552673339844 346.5491638183594 L 385.9989013671875 355.41778564453125 L 395.0702819824219 364.4130554199219 L 404.2693786621094 373.53497314453125 L 413.59619140625 382.7835388183594 L 423.0517578125 392.1597900390625 L 432.6340637207031 401.66168212890625 L 442.3440856933594 411.2902526855469 L 452.18182373046875 421.0454406738281" stroke-opacity="1" stroke-linejoin="bevel" stroke-miterlimit="10" stroke-width="3" stroke-dasharray="" clip-path="url(#QrzkRbolKyBB)"/><path fill="none" stroke="rgb(0,0,0)" paint-order="fill" d="M 67.5 439.5 L 470.5 439.5" stroke-opacity="1" stroke-linejoin="bevel" stroke-miterlimit="10" stroke-dasharray=""/><path fill="none" stroke="rgb(0,0,0)" paint-order="fill" d="M 68.5 445.5 L 68.5 437.5 M 144.5 445.5 L 144.5 437.5 M 221.5 445.5 L 221.5 437.5 M 297.5 445.5 L 297.5 437.5 M 374.5 445.5 L 374.5 437.5 M 450.5 445.5 L 450.5 437.5" stroke-opacity="1" stroke-linejoin="bevel" stroke-miterlimit="10" stroke-dasharray=""/><path fill="none" stroke="rgb(0,0,0)" paint-order="fill" d="M 68.5 443.5 L 68.5 439.5 M 83.5 443.5 L 83.5 439.5 M 98.5 443.5 L 98.5 439.5 M 114.5 443.5 L 114.5 439.5 M 129.5 443.5 L 129.5 439.5 M 144.5 443.5 L 144.5 439.5 M 160.5 443.5 L 160.5 439.5 M 175.5 443.5 L 175.5 439.5 M 190.5 443.5 L 190.5 439.5 M 205.5 443.5 L 205.5 439.5 M 221.5 443.5 L 221.5 439.5 M 236.5 443.5 L 236.5 439.5 M 251.5 443.5 L 251.5 439.5 M 267.5 443.5 L 267.5 439.5 M 282.5 443.5 L 282.5 439.5 M 297.5 443.5 L 297.5 439.5 M 312.5 443.5 L 312.5 439.5 M 328.5 443.5 L 328.5 439.5 M 343.5 443.5 L 343.5 439.5 M 358.5 443.5 L 358.5 439.5 M 374.5 443.5 L 374.5 439.5 M 389.5 443.5 L 389.5 439.5 M 404.5 443.5 L 404.5 439.5 M 419.5 443.5 L 419.5 439.5 M 435.5 443.5 L 435.5 439.5 M 450.5 443.5 L 450.5 439.5 M 465.5 443.5 L 465.5 439.5" stroke-opacity="1" stroke-linejoin="bevel" stroke-miterlimit="10" stroke-dasharray=""/><text fill="rgb(68,68,68)" stroke="none" font-family="helvetica" font-size="14pt" font-style="normal" font-weight="normal" text-decoration="normal" x="0" y="0" text-anchor="middle" dominant-baseline="hanging" transform="matrix(1, 0, 0, 1, 68.5, 450.5)" fill-opacity="1">0</text><text fill="rgb(68,68,68)" stroke="none" font-family="helvetica" font-size="14pt" font-style="normal" font-weight="normal" text-decoration="normal" x="0" y="0" text-anchor="middle" dominant-baseline="hanging" transform="matrix(1, 0, 0, 1, 144.5, 450.5)" fill-opacity="1">10</text><text fill="rgb(68,68,68)" stroke="none" font-family="helvetica" font-size="14pt" font-style="normal" font-weight="normal" text-decoration="normal" x="0" y="0" text-anchor="middle" dominant-baseline="hanging" transform="matrix(1, 0, 0, 1, 221.5, 450.5)" fill-opacity="1">20</text><text fill="rgb(68,68,68)" stroke="none" font-family="helvetica" font-size="14pt" font-style="normal" font-weight="normal" text-decoration="normal" x="0" y="0" text-anchor="middle" dominant-baseline="hanging" transform="matrix(1, 0, 0, 1, 297.5, 450.5)" fill-opacity="1">30</text><text fill="rgb(68,68,68)" stroke="none" font-family="helvetica" font-size="14pt" font-style="normal" font-weight="normal" text-decoration="normal" x="0" y="0" text-anchor="middle" dominant-baseline="hanging" transform="matrix(1, 0, 0, 1, 374.5, 450.5)" fill-opacity="1">40</text><text fill="rgb(68,68,68)" stroke="none" font-family="helvetica" font-size="14pt" font-style="normal" font-weight="normal" text-decoration="normal" x="0" y="0" text-anchor="middle" dominant-baseline="hanging" transform="matrix(1, 0, 0, 1, 450.5, 450.5)" fill-opacity="1">50</text><text fill="rgb(68,68,68)" stroke="none" font-family="helvetica" font-size="14pt" font-style="italic" font-weight="normal" text-decoration="normal" x="0" y="0" text-anchor="middle" dominant-baseline="hanging" transform="matrix(1, 0, 0, 1, 269.5, 477.5)" fill-opacity="1">q² [nm ²]</text><path fill="none" stroke="rgb(0,0,0)" paint-order="fill" d="M 67.5 439.5 L 67.5 33.5" stroke-opacity="1" stroke-linejoin="bevel" stroke-miterlimit="10" stroke-dasharray=""/><path fill="none" stroke="rgb(0,0,0)" paint-order="fill" d="M 61.5 428.5 L 69.5 428.5 M 61.5 357.5 L 69.5 357.5 M 61.5 285.5 L 69.5 285.5 M 61.5 214.5 L 69.5 214.5 M 61.5 142.5 L 69.5 142.5 M 61.5 71.5 L 69.5 71.5" stroke-opacity="1" stroke-linejoin="bevel" stroke-miterlimit="10" stroke-dasharray=""/><path fill="none" stroke="rgb(0,0,0)" paint-order="fill" d="M 63.5 428.5 L 67.5 428.5 M 63.5 414.5 L 67.5 414.5 M 63.5 400.5 L 67.5 400.5 M 63.5 386.5 L 67.5 386.5 M 63.5 371.5 L 67.5 371.5 M 63.5 357.5 L 67.5 357.5 M 63.5 343.5 L 67.5 343.5 M 63.5 328.5 L 67.5 328.5 M 63.5 314.5 L 67.5 314.5 M 63.5 300.5 L 67.5 300.5 M 63.5 285.5 L 67.5 285.5 M 63.5 271.5 L 67.5 271.5 M 63.5 257.5 L 67.5 257.5 M 63.5 242.5 L 67.5 242.5 M 63.5 228.5 L 67.5 228.5 M 63.5 214.5 L 67.5 214.5 M 63.5 199.5 L 67.5 199.5 M 63.5 185.5 L 67.5 185.5 M 63.5 171.5 L 67.5 171.5 M 63.5 157.5 L 67.5 157.5 M 63.5 142.5 L 67.5 142.5 M 63.5 128.5 L 67.5 128.5 M 63.5 114.5 L 67.5 114.5 M 63.5 99.5 L 67.5 99.5 M 63.5 85.5 L 67.5 85.5 M 63.5 71.5 L 67.5 71.5 M 63.5 56.5 L 67.5 56.5 M 63.5 42.5 L 67.5 42.5" stroke-opacity="1" stroke-linejoin="bevel" stroke-miterlimit="10" stroke-dasharray=""/><text fill="rgb(68,68,68)" stroke="none" font-family="helvetica" font-size="14pt" font-style="normal" font-weight="normal" text-decoration="normal" x="0" y="0" text-anchor="end" dominant-baseline="central" transform="matrix(1, 0, 0, 1, 56.5, 428.5)" fill-opacity="1">4.5</text><text fill="rgb(68,68,68)" stroke="none" font-family="helvetica" font-size="14pt" font-style="normal" font-weight="normal" text-decoration="normal" x="0" y="0" text-anchor="end" dominant-baseline="central" transform="matrix(1, 0, 0, 1, 56.5, 357.5)" fill-opacity="1">4.6</text><text fill="rgb(68,68,68)" stroke="none" font-family="helvetica" font-size="14pt" font-style="normal" font-weight="normal" text-decoration="normal" x="0" y="0" text-anchor="end" dominant-baseline="central" transform="matrix(1, 0, 0, 1, 56.5, 285.5)" fill-opacity="1">4.7</text><text fill="rgb(68,68,68)" stroke="none" font-family="helvetica" font-size="14pt" font-style="normal" font-weight="normal" text-decoration="normal" x="0" y="0" text-anchor="end" dominant-baseline="central" transform="matrix(1, 0, 0, 1, 56.5, 214.5)" fill-opacity="1">4.8</text><text fill="rgb(68,68,68)" stroke="none" font-family="helvetica" font-size="14pt" font-style="normal" font-weight="normal" text-decoration="normal" x="0" y="0" text-anchor="end" dominant-baseline="central" transform="matrix(1, 0, 0, 1, 56.5, 142.5)" fill-opacity="1">4.9</text><text fill="rgb(68,68,68)" stroke="none" font-family="helvetica" font-size="14pt" font-style="normal" font-weight="normal" text-decoration="normal" x="0" y="0" text-anchor="end" dominant-baseline="central" transform="matrix(1, 0, 0, 1, 56.5, 71.5)" fill-opacity="1">5</text><text fill="rgb(68,68,68)" stroke="none" font-family="helvetica" font-size="14pt" font-style="italic" font-weight="normal" text-decoration="normal" x="0" y="0" text-anchor="middle" dominant-baseline="alphabetic" transform="matrix(6.123233995736766e-17, -1, 1, 6.123233995736766e-17, 22.5, 236.5)" fill-opacity="1">Log I(q)</text><path fill="rgb(255,255,255)" stroke="rgb(229,229,229)" paint-order="fill" d="M 310.68333435058594 43.5 L 460.5 43.5 L 460.5 106.5 L 310.68333435058594 106.5 L 310.68333435058594 43.5" fill-opacity="0.95" clip-path="url(#SsuoTrzCxkNb)" stroke-opacity="0.5" stroke-linejoin="bevel" stroke-miterlimit="10" stroke-dasharray=""/><text fill="rgb(68,68,68)" stroke="none" font-family="helvetica" font-size="13px" font-style="normal" font-weight="normal" text-decoration="normal" x="345.18333435058594" y="63" text-anchor="start" dominant-baseline="central" transform="matrix(1, 0, 0, 1, 0.5, 0.5)" fill-opacity="1">Experimental data</text><path fill="rgb(0,0,255)" stroke="rgb(0,0,255)" paint-order="fill" d="M 334.68333435058594 63.5 A 4 4 0 1 1 334.6833323505861 63.49600000066666" fill-opacity="0.3" clip-path="url(#SsuoTrzCxkNb)" stroke-opacity="1" stroke-linejoin="bevel" stroke-miterlimit="10" stroke-dasharray=""/><text fill="rgb(68,68,68)" stroke="none" font-family="helvetica" font-size="13px" font-style="normal" font-weight="normal" text-decoration="normal" x="345.18333435058594" y="86" text-anchor="start" dominant-baseline="central" transform="matrix(1, 0, 0, 1, 0.5, 0.5)" fill-opacity="1">Linear fit</text><path fill="none" stroke="rgb(255,0,0)" paint-order="fill" d="M 320.68333435058594 86.5 L 340.68333435058594 86.5" stroke-opacity="1" stroke-linejoin="bevel" stroke-miterlimit="10" stroke-width="3" stroke-dasharray="" clip-path="url(#SsuoTrzCxkNb)"/><path fill="none" stroke="none"/><text fill="rgb(68,68,68)" stroke="none" font-family="helvetica" font-size="12pt" font-style="normal" font-weight="bold" text-decoration="normal" x="0" y="0" text-anchor="middle" dominant-baseline="text-before-edge" transform="matrix(1, 0, 0, 1, 269, 5.5)" fill-opacity="1">Guinier plot for SASDBV9 (R²=1.00)</text></svg>