<svg version="1.1" xmlns="http://www.w3.org/2000/svg" xmlns:xlink="http://www.w3.org/1999/xlink" width="700" height="250" style="width: 700px; height: 250px;"><defs><clipPath id="aVBmlnhofTzT"><path fill="none" stroke="none" d=" M 276 37 L 670 37 L 670 217 L 276 217 L 276 37 Z"/></clipPath><clipPath id="AhyVxpWkgTtC"><path fill="none" stroke="none" d=" M 276 37 L 670 37 L 670 217 L 276 217 L 276 37 Z"/></clipPath><clipPath id="OAAEcmMFwbxa"><path fill="none" stroke="none" d=" M 276 37 L 670 37 L 670 217 L 276 217 L 276 37 Z"/></clipPath><clipPath id="EcPNeegWEfpF"><path fill="none" stroke="none" d=" M 276 37 L 670 37 L 670 217 L 276 217 L 276 37 Z"/></clipPath><clipPath id="OcTvlTAyUNRS"><path fill="none" stroke="none" d=" M 276 37 L 670 37 L 670 217 L 276 217 L 276 37 Z"/></clipPath><clipPath id="kXtpcIlIhubL"><path fill="none" stroke="none" d=" M 276 37 L 670 37 L 670 217 L 276 217 L 276 37 Z"/></clipPath><clipPath id="qiOVxEgKGtzU"><path fill="none" stroke="none" d=" M 276 37 L 670 37 L 670 217 L 276 217 L 276 37 Z"/></clipPath><clipPath id="nrRKbwcSpxid"><path fill="none" stroke="none" d=" M 276 37 L 670 37 L 670 217 L 276 217 L 276 37 Z"/></clipPath><clipPath id="ynDEwxkKBErr"><path fill="none" stroke="none" d=" M 276 37 L 670 37 L 670 217 L 276 217 L 276 37 Z"/></clipPath><clipPath id="EmLNToPhavIL"><path fill="none" stroke="none" d=" M 276 37 L 670 37 L 670 217 L 276 217 L 276 37 Z"/></clipPath></defs><g><g transform="scale(1,1) translate(0.5,0.5)"><rect fill="#FFFFFF" stroke="none" x="0" y="0" width="700" height="250"/><rect fill="#ffffff" stroke="none" x="0" y="0" width="700" height="250"/><rect fill="#FFFFFF" stroke="none" x="276" y="37" width="394" height="180"/><rect fill="#ffffff" stroke="none" x="276" y="37" width="394" height="180"/><g><rect fill="none" stroke="#e5e5e5" x="276" y="37" width="394" height="180" stroke-linejoin="bevel" stroke-miterlimit="10"/></g><g clip-path="url(#aVBmlnhofTzT)"><g><g><path fill="none" stroke="#e5e5e5" paint-order="fill stroke markers" d=" M 346 217 L 346 37" stroke-linejoin="bevel" stroke-miterlimit="10"/><path fill="none" stroke="#e5e5e5" paint-order="fill stroke markers" d=" M 416 217 L 416 37" stroke-linejoin="bevel" stroke-miterlimit="10"/><path fill="none" stroke="#e5e5e5" paint-order="fill stroke markers" d=" M 486 217 L 486 37" stroke-linejoin="bevel" stroke-miterlimit="10"/><path fill="none" stroke="#e5e5e5" paint-order="fill stroke markers" d=" M 556 217 L 556 37" stroke-linejoin="bevel" stroke-miterlimit="10"/><path fill="none" stroke="#e5e5e5" paint-order="fill stroke markers" d=" M 626 217 L 626 37" stroke-linejoin="bevel" stroke-miterlimit="10"/></g></g></g><g clip-path="url(#AhyVxpWkgTtC)"><g><g/></g></g><g clip-path="url(#OAAEcmMFwbxa)"><g><g><path fill="none" stroke="none"/><path fill="#440154" stroke="none" paint-order="stroke fill markers" d=" M 276 203.5 L 403.67027891277314 203.5 L 403.67027891277314 212.5 L 276 212.5 L 276 203.5 Z" fill-opacity="0.8"/><path fill="none" stroke="#440154" paint-order="fill stroke markers" d=" M 276 203.5 L 403.67027891277314 203.5 L 403.67027891277314 212.5 L 276 212.5 L 276 203.5 Z" stroke-linejoin="bevel" stroke-miterlimit="10" stroke-opacity="0.8"/><path fill="#472777" stroke="none" paint-order="stroke fill markers" d=" M 276 185.5 L 399.8905667081187 185.5 L 399.8905667081187 194.5 L 276 194.5 L 276 185.5 Z" fill-opacity="0.8"/><path fill="none" stroke="#472777" paint-order="fill stroke markers" d=" M 276 185.5 L 399.8905667081187 185.5 L 399.8905667081187 194.5 L 276 194.5 L 276 185.5 Z" stroke-linejoin="bevel" stroke-miterlimit="10" stroke-opacity="0.8"/><path fill="#3E4989" stroke="none" paint-order="stroke fill markers" d=" M 276 167.5 L 471.0751465624445 167.5 L 471.0751465624445 176.5 L 276 176.5 L 276 167.5 Z" fill-opacity="0.8"/><path fill="none" stroke="#3E4989" paint-order="fill stroke markers" d=" M 276 167.5 L 471.0751465624445 167.5 L 471.0751465624445 176.5 L 276 176.5 L 276 167.5 Z" stroke-linejoin="bevel" stroke-miterlimit="10" stroke-opacity="0.8"/><path fill="#30678D" stroke="none" paint-order="stroke fill markers" d=" M 276 149.5 L 465.68555693728905 149.5 L 465.68555693728905 158.5 L 276 158.5 L 276 149.5 Z" fill-opacity="0.8"/><path fill="none" stroke="#30678D" paint-order="fill stroke markers" d=" M 276 149.5 L 465.68555693728905 149.5 L 465.68555693728905 158.5 L 276 158.5 L 276 149.5 Z" stroke-linejoin="bevel" stroke-miterlimit="10" stroke-opacity="0.8"/><path fill="#25828E" stroke="none" paint-order="stroke fill markers" d=" M 276 131.5 L 460.50595132350327 131.5 L 460.50595132350327 140.5 L 276 140.5 L 276 131.5 Z" fill-opacity="0.8"/><path fill="none" stroke="#25828E" paint-order="fill stroke markers" d=" M 276 131.5 L 460.50595132350327 131.5 L 460.50595132350327 140.5 L 276 140.5 L 276 131.5 Z" stroke-linejoin="bevel" stroke-miterlimit="10" stroke-opacity="0.8"/><path fill="#1E9C89" stroke="none" paint-order="stroke fill markers" d=" M 276 113.5 L 470.5851838692485 113.5 L 470.5851838692485 122.5 L 276 122.5 L 276 113.5 Z" fill-opacity="0.8"/><path fill="none" stroke="#1E9C89" paint-order="fill stroke markers" d=" M 276 113.5 L 470.5851838692485 113.5 L 470.5851838692485 122.5 L 276 122.5 L 276 113.5 Z" stroke-linejoin="bevel" stroke-miterlimit="10" stroke-opacity="0.8"/><path fill="#35B778" stroke="none" paint-order="stroke fill markers" d=" M 276 95.5 L 484.30413927873514 95.5 L 484.30413927873514 104.5 L 276 104.5 L 276 95.5 Z" fill-opacity="0.8"/><path fill="none" stroke="#35B778" paint-order="fill stroke markers" d=" M 276 95.5 L 484.30413927873514 95.5 L 484.30413927873514 104.5 L 276 104.5 L 276 95.5 Z" stroke-linejoin="bevel" stroke-miterlimit="10" stroke-opacity="0.8"/><path fill="#6BCD59" stroke="none" paint-order="stroke fill markers" d=" M 276 77.5 L 482.4842778468645 77.5 L 482.4842778468645 86.5 L 276 86.5 L 276 77.5 Z" fill-opacity="0.8"/><path fill="none" stroke="#6BCD59" paint-order="fill stroke markers" d=" M 276 77.5 L 482.4842778468645 77.5 L 482.4842778468645 86.5 L 276 86.5 L 276 77.5 Z" stroke-linejoin="bevel" stroke-miterlimit="10" stroke-opacity="0.8"/><path fill="#B2DD2C" stroke="none" paint-order="stroke fill markers" d=" M 276 59.5 L 600.0053295434358 59.5 L 600.0053295434358 68.5 L 276 68.5 L 276 59.5 Z" fill-opacity="0.8"/><path fill="none" stroke="#B2DD2C" paint-order="fill stroke markers" d=" M 276 59.5 L 600.0053295434358 59.5 L 600.0053295434358 68.5 L 276 68.5 L 276 59.5 Z" stroke-linejoin="bevel" stroke-miterlimit="10" stroke-opacity="0.8"/><path fill="#FDE724" stroke="none" paint-order="stroke fill markers" d=" M 276 41.5 L 579.7768697814887 41.5 L 579.7768697814887 50.5 L 276 50.5 L 276 41.5 Z" fill-opacity="0.8"/><path fill="none" stroke="#FDE724" paint-order="fill stroke markers" d=" M 276 41.5 L 579.7768697814887 41.5 L 579.7768697814887 50.5 L 276 50.5 L 276 41.5 Z" stroke-linejoin="bevel" stroke-miterlimit="10" stroke-opacity="0.8"/></g></g></g><g clip-path="url(#EcPNeegWEfpF)"><g><g/><g><path fill="#ffffff" stroke="#e5e5e5" paint-order="fill stroke markers" d=" M 560.7666664123535 47 L 660 47 L 660 294 L 560.7666664123535 294 L 560.7666664123535 47 Z" fill-opacity="0.95" stroke-linejoin="bevel" stroke-miterlimit="10" stroke-opacity="0.5"/><text fill="#444444" stroke="none" font-family="helvetica" font-size="13px" font-style="normal" font-weight="normal" text-decoration="normal" x="595.7666664123535" y="67" text-anchor="start" dominant-baseline="central">1.824 nm</text><rect fill="#440154" stroke="none" x="572.7666664123535" y="59" width="16" height="16" fill-opacity="0.8"/><path fill="none" stroke="#440154" paint-order="fill stroke markers" d=" M 572.7666664123535 59 L 588.7666664123535 59 L 588.7666664123535 75 L 572.7666664123535 75 L 572.7666664123535 59 Z" stroke-linejoin="bevel" stroke-miterlimit="10" stroke-opacity="0.8"/><text fill="#444444" stroke="none" font-family="helvetica" font-size="13px" font-style="normal" font-weight="normal" text-decoration="normal" x="595.7666664123535" y="90" text-anchor="start" dominant-baseline="central">1.77 nm</text><rect fill="#472777" stroke="none" x="572.7666664123535" y="82" width="16" height="16" fill-opacity="0.8"/><path fill="none" stroke="#472777" paint-order="fill stroke markers" d=" M 572.7666664123535 82 L 588.7666664123535 82 L 588.7666664123535 98 L 572.7666664123535 98 L 572.7666664123535 82 Z" stroke-linejoin="bevel" stroke-miterlimit="10" stroke-opacity="0.8"/><text fill="#444444" stroke="none" font-family="helvetica" font-size="13px" font-style="normal" font-weight="normal" text-decoration="normal" x="595.7666664123535" y="113" text-anchor="start" dominant-baseline="central">2.787 nm</text><rect fill="#3E4989" stroke="none" x="572.7666664123535" y="105" width="16" height="16" fill-opacity="0.8"/><path fill="none" stroke="#3E4989" paint-order="fill stroke markers" d=" M 572.7666664123535 105 L 588.7666664123535 105 L 588.7666664123535 121 L 572.7666664123535 121 L 572.7666664123535 105 Z" stroke-linejoin="bevel" stroke-miterlimit="10" stroke-opacity="0.8"/><text fill="#444444" stroke="none" font-family="helvetica" font-size="13px" font-style="normal" font-weight="normal" text-decoration="normal" x="595.7666664123535" y="136" text-anchor="start" dominant-baseline="central">2.71 nm</text><rect fill="#30678D" stroke="none" x="572.7666664123535" y="128" width="16" height="16" fill-opacity="0.8"/><path fill="none" stroke="#30678D" paint-order="fill stroke markers" d=" M 572.7666664123535 128 L 588.7666664123535 128 L 588.7666664123535 144 L 572.7666664123535 144 L 572.7666664123535 128 Z" stroke-linejoin="bevel" stroke-miterlimit="10" stroke-opacity="0.8"/><text fill="#444444" stroke="none" font-family="helvetica" font-size="13px" font-style="normal" font-weight="normal" text-decoration="normal" x="595.7666664123535" y="159" text-anchor="start" dominant-baseline="central">2.636 nm</text><rect fill="#25828E" stroke="none" x="572.7666664123535" y="151" width="16" height="16" fill-opacity="0.8"/><path fill="none" stroke="#25828E" paint-order="fill stroke markers" d=" M 572.7666664123535 151 L 588.7666664123535 151 L 588.7666664123535 167 L 572.7666664123535 167 L 572.7666664123535 151 Z" stroke-linejoin="bevel" stroke-miterlimit="10" stroke-opacity="0.8"/><text fill="#444444" stroke="none" font-family="helvetica" font-size="13px" font-style="normal" font-weight="normal" text-decoration="normal" x="595.7666664123535" y="182" text-anchor="start" dominant-baseline="central">2.78 nm</text><rect fill="#1E9C89" stroke="none" x="572.7666664123535" y="174" width="16" height="16" fill-opacity="0.8"/><path fill="none" stroke="#1E9C89" paint-order="fill stroke markers" d=" M 572.7666664123535 174 L 588.7666664123535 174 L 588.7666664123535 190 L 572.7666664123535 190 L 572.7666664123535 174 Z" stroke-linejoin="bevel" stroke-miterlimit="10" stroke-opacity="0.8"/><text fill="#444444" stroke="none" font-family="helvetica" font-size="13px" font-style="normal" font-weight="normal" text-decoration="normal" x="595.7666664123535" y="205" text-anchor="start" dominant-baseline="central">2.976 nm</text><rect fill="#35B778" stroke="none" x="572.7666664123535" y="197" width="16" height="16" fill-opacity="0.8"/><path fill="none" stroke="#35B778" paint-order="fill stroke markers" d=" M 572.7666664123535 197 L 588.7666664123535 197 L 588.7666664123535 213 L 572.7666664123535 213 L 572.7666664123535 197 Z" stroke-linejoin="bevel" stroke-miterlimit="10" stroke-opacity="0.8"/><text fill="#444444" stroke="none" font-family="helvetica" font-size="13px" font-style="normal" font-weight="normal" text-decoration="normal" x="595.7666664123535" y="228" text-anchor="start" dominant-baseline="central">2.95 nm</text><rect fill="#6BCD59" stroke="none" x="572.7666664123535" y="220" width="16" height="16" fill-opacity="0.8"/><path fill="none" stroke="#6BCD59" paint-order="fill stroke markers" d=" M 572.7666664123535 220 L 588.7666664123535 220 L 588.7666664123535 236 L 572.7666664123535 236 L 572.7666664123535 220 Z" stroke-linejoin="bevel" stroke-miterlimit="10" stroke-opacity="0.8"/><text fill="#444444" stroke="none" font-family="helvetica" font-size="13px" font-style="normal" font-weight="normal" text-decoration="normal" x="595.7666664123535" y="251" text-anchor="start" dominant-baseline="central">4.629 nm</text><rect fill="#B2DD2C" stroke="none" x="572.7666664123535" y="243" width="16" height="16" fill-opacity="0.8"/><path fill="none" stroke="#B2DD2C" paint-order="fill stroke markers" d=" M 572.7666664123535 243 L 588.7666664123535 243 L 588.7666664123535 259 L 572.7666664123535 259 L 572.7666664123535 243 Z" stroke-linejoin="bevel" stroke-miterlimit="10" stroke-opacity="0.8"/><text fill="#444444" stroke="none" font-family="helvetica" font-size="13px" font-style="normal" font-weight="normal" text-decoration="normal" x="595.7666664123535" y="274" text-anchor="start" dominant-baseline="central">4.34 nm</text><rect fill="#FDE724" stroke="none" x="572.7666664123535" y="266" width="16" height="16" fill-opacity="0.8"/><path fill="none" stroke="#FDE724" paint-order="fill stroke markers" d=" M 572.7666664123535 266 L 588.7666664123535 266 L 588.7666664123535 282 L 572.7666664123535 282 L 572.7666664123535 266 Z" stroke-linejoin="bevel" stroke-miterlimit="10" stroke-opacity="0.8"/></g></g></g><g><g fill="#444444"><path fill="" stroke="none" d=""/><g transform="translate(473,32)"><path fill="none" stroke="none"/><text fill="" stroke="none" font-family="helvetica" font-size="14pt" font-style="normal" font-weight="bold" text-decoration="normal" x="0" y="0" text-anchor="middle" dominant-baseline="text-after-edge">Data Quality: Rg Analysis</text></g></g></g><g/><g><g fill="#444444"><path fill="none" stroke="black" paint-order="fill stroke markers" d=" M 276 217 L 670 217" stroke-linejoin="bevel" stroke-miterlimit="10"/><path fill="none" stroke="black" paint-order="fill stroke markers" d=" M 276 223 L 276 215" stroke-linejoin="bevel" stroke-miterlimit="10"/><path fill="none" stroke="black" paint-order="fill stroke markers" d=" M 346 223 L 346 215" stroke-linejoin="bevel" stroke-miterlimit="10"/><path fill="none" stroke="black" paint-order="fill stroke markers" d=" M 416 223 L 416 215" stroke-linejoin="bevel" stroke-miterlimit="10"/><path fill="none" stroke="black" paint-order="fill stroke markers" d=" M 486 223 L 486 215" stroke-linejoin="bevel" stroke-miterlimit="10"/><path fill="none" stroke="black" paint-order="fill stroke markers" d=" M 556 223 L 556 215" stroke-linejoin="bevel" stroke-miterlimit="10"/><path fill="none" stroke="black" paint-order="fill stroke markers" d=" M 626 223 L 626 215" stroke-linejoin="bevel" stroke-miterlimit="10"/><path fill="none" stroke="black" paint-order="fill stroke markers" d=" M 276 221 L 276 217" stroke-linejoin="bevel" stroke-miterlimit="10"/><path fill="none" stroke="black" paint-order="fill stroke markers" d=" M 290 221 L 290 217" stroke-linejoin="bevel" stroke-miterlimit="10"/><path fill="none" stroke="black" paint-order="fill stroke markers" d=" M 304 221 L 304 217" stroke-linejoin="bevel" stroke-miterlimit="10"/><path fill="none" stroke="black" paint-order="fill stroke markers" d=" M 318 221 L 318 217" stroke-linejoin="bevel" stroke-miterlimit="10"/><path fill="none" stroke="black" paint-order="fill stroke markers" d=" M 332 221 L 332 217" stroke-linejoin="bevel" stroke-miterlimit="10"/><path fill="none" stroke="black" paint-order="fill stroke markers" d=" M 346 221 L 346 217" stroke-linejoin="bevel" stroke-miterlimit="10"/><path fill="none" stroke="black" paint-order="fill stroke markers" d=" M 360 221 L 360 217" stroke-linejoin="bevel" stroke-miterlimit="10"/><path fill="none" stroke="black" paint-order="fill stroke markers" d=" M 374 221 L 374 217" stroke-linejoin="bevel" stroke-miterlimit="10"/><path fill="none" stroke="black" paint-order="fill stroke markers" d=" M 388 221 L 388 217" stroke-linejoin="bevel" stroke-miterlimit="10"/><path fill="none" stroke="black" paint-order="fill stroke markers" d=" M 402 221 L 402 217" stroke-linejoin="bevel" stroke-miterlimit="10"/><path fill="none" stroke="black" paint-order="fill stroke markers" d=" M 416 221 L 416 217" stroke-linejoin="bevel" stroke-miterlimit="10"/><path fill="none" stroke="black" paint-order="fill stroke markers" d=" M 430 221 L 430 217" stroke-linejoin="bevel" stroke-miterlimit="10"/><path fill="none" stroke="black" paint-order="fill stroke markers" d=" M 444 221 L 444 217" stroke-linejoin="bevel" stroke-miterlimit="10"/><path fill="none" stroke="black" paint-order="fill stroke markers" d=" M 458 221 L 458 217" stroke-linejoin="bevel" stroke-miterlimit="10"/><path fill="none" stroke="black" paint-order="fill stroke markers" d=" M 472 221 L 472 217" stroke-linejoin="bevel" stroke-miterlimit="10"/><path fill="none" stroke="black" paint-order="fill stroke markers" d=" M 486 221 L 486 217" stroke-linejoin="bevel" stroke-miterlimit="10"/><path fill="none" stroke="black" paint-order="fill stroke markers" d=" M 500 221 L 500 217" stroke-linejoin="bevel" stroke-miterlimit="10"/><path fill="none" stroke="black" paint-order="fill stroke markers" d=" M 514 221 L 514 217" stroke-linejoin="bevel" stroke-miterlimit="10"/><path fill="none" stroke="black" paint-order="fill stroke markers" d=" M 528 221 L 528 217" stroke-linejoin="bevel" stroke-miterlimit="10"/><path fill="none" stroke="black" paint-order="fill stroke markers" d=" M 542 221 L 542 217" stroke-linejoin="bevel" stroke-miterlimit="10"/><path fill="none" stroke="black" paint-order="fill stroke markers" d=" M 556 221 L 556 217" stroke-linejoin="bevel" stroke-miterlimit="10"/><path fill="none" stroke="black" paint-order="fill stroke markers" d=" M 570 221 L 570 217" stroke-linejoin="bevel" stroke-miterlimit="10"/><path fill="none" stroke="black" paint-order="fill stroke markers" d=" M 584 221 L 584 217" stroke-linejoin="bevel" stroke-miterlimit="10"/><path fill="none" stroke="black" paint-order="fill stroke markers" d=" M 598 221 L 598 217" stroke-linejoin="bevel" stroke-miterlimit="10"/><path fill="none" stroke="black" paint-order="fill stroke markers" d=" M 612 221 L 612 217" stroke-linejoin="bevel" stroke-miterlimit="10"/><path fill="none" stroke="black" paint-order="fill stroke markers" d=" M 626 221 L 626 217" stroke-linejoin="bevel" stroke-miterlimit="10"/><path fill="none" stroke="black" paint-order="fill stroke markers" d=" M 640 221 L 640 217" stroke-linejoin="bevel" stroke-miterlimit="10"/><path fill="none" stroke="black" paint-order="fill stroke markers" d=" M 654 221 L 654 217" stroke-linejoin="bevel" stroke-miterlimit="10"/><path fill="" stroke="black" paint-order="fill stroke markers" d=" M 668 221 L 668 217" stroke-linejoin="bevel" stroke-miterlimit="10"/><g transform="translate(276,228) rotate(0,0,0)"><text fill="" stroke="none" font-family="helvetica" font-size="14pt" font-style="normal" font-weight="normal" text-decoration="normal" x="0" y="0" text-anchor="middle" dominant-baseline="hanging">0</text><g transform="rotate(0,0,0) translate(-276,-228) translate(346,228) rotate(0,0,0)"><text fill="" stroke="none" font-family="helvetica" font-size="14pt" font-style="normal" font-weight="normal" text-decoration="normal" x="0" y="0" text-anchor="middle" dominant-baseline="hanging">1</text><g transform="rotate(0,0,0) translate(-346,-228) translate(416,228) rotate(0,0,0)"><text fill="" stroke="none" font-family="helvetica" font-size="14pt" font-style="normal" font-weight="normal" text-decoration="normal" x="0" y="0" text-anchor="middle" dominant-baseline="hanging">2</text><g transform="rotate(0,0,0) translate(-416,-228) translate(486,228) rotate(0,0,0)"><text fill="" stroke="none" font-family="helvetica" font-size="14pt" font-style="normal" font-weight="normal" text-decoration="normal" x="0" y="0" text-anchor="middle" dominant-baseline="hanging">3</text><g transform="rotate(0,0,0) translate(-486,-228) translate(556,228) rotate(0,0,0)"><text fill="" stroke="none" font-family="helvetica" font-size="14pt" font-style="normal" font-weight="normal" text-decoration="normal" x="0" y="0" text-anchor="middle" dominant-baseline="hanging">4</text><g transform="rotate(0,0,0) translate(-556,-228) translate(626,228) rotate(0,0,0)"><text fill="" stroke="none" font-family="helvetica" font-size="14pt" font-style="normal" font-weight="normal" text-decoration="normal" x="0" y="0" text-anchor="middle" dominant-baseline="hanging">5</text><g transform="rotate(0,0,0) translate(-626,-228)"/></g></g></g></g></g></g></g></g><g><g fill="#444444"><path fill="none" stroke="black" paint-order="fill stroke markers" d=" M 276 217 L 276 37" stroke-linejoin="bevel" stroke-miterlimit="10"/><path fill="none" stroke="black" paint-order="fill stroke markers" d=" M 270 208 L 278 208" stroke-linejoin="bevel" stroke-miterlimit="10"/><path fill="none" stroke="black" paint-order="fill stroke markers" d=" M 270 190 L 278 190" stroke-linejoin="bevel" stroke-miterlimit="10"/><path fill="none" stroke="black" paint-order="fill stroke markers" d=" M 270 172 L 278 172" stroke-linejoin="bevel" stroke-miterlimit="10"/><path fill="none" stroke="black" paint-order="fill stroke markers" d=" M 270 154 L 278 154" stroke-linejoin="bevel" stroke-miterlimit="10"/><path fill="none" stroke="black" paint-order="fill stroke markers" d=" M 270 136 L 278 136" stroke-linejoin="bevel" stroke-miterlimit="10"/><path fill="none" stroke="black" paint-order="fill stroke markers" d=" M 270 118 L 278 118" stroke-linejoin="bevel" stroke-miterlimit="10"/><path fill="none" stroke="black" paint-order="fill stroke markers" d=" M 270 100 L 278 100" stroke-linejoin="bevel" stroke-miterlimit="10"/><path fill="none" stroke="black" paint-order="fill stroke markers" d=" M 270 82 L 278 82" stroke-linejoin="bevel" stroke-miterlimit="10"/><path fill="none" stroke="black" paint-order="fill stroke markers" d=" M 270 64 L 278 64" stroke-linejoin="bevel" stroke-miterlimit="10"/><path fill="" stroke="black" paint-order="fill stroke markers" d=" M 270 46 L 278 46" stroke-linejoin="bevel" stroke-miterlimit="10"/><g transform="translate(265,208) rotate(0,0,0)"><text fill="" stroke="none" font-family="helvetica" font-size="14pt" font-style="normal" font-weight="normal" text-decoration="normal" x="0" y="0" text-anchor="end" dominant-baseline="central">Rg from p(r) (SASDBV9)</text><g transform="rotate(0,0,0) translate(-265,-208) translate(265,190) rotate(0,0,0)"><text fill="" stroke="none" font-family="helvetica" font-size="14pt" font-style="normal" font-weight="normal" text-decoration="normal" x="0" y="0" text-anchor="end" dominant-baseline="central">Rg from Guinier (SASDBV9)</text><g transform="rotate(0,0,0) translate(-265,-190) translate(265,172) rotate(0,0,0)"><text fill="" stroke="none" font-family="helvetica" font-size="14pt" font-style="normal" font-weight="normal" text-decoration="normal" x="0" y="0" text-anchor="end" dominant-baseline="central">Rg from p(r) (SASDBW9)</text><g transform="rotate(0,0,0) translate(-265,-172) translate(265,154) rotate(0,0,0)"><text fill="" stroke="none" font-family="helvetica" font-size="14pt" font-style="normal" font-weight="normal" text-decoration="normal" x="0" y="0" text-anchor="end" dominant-baseline="central">Rg from Guinier (SASDBW9)</text><g transform="rotate(0,0,0) translate(-265,-154) translate(265,136) rotate(0,0,0)"><text fill="" stroke="none" font-family="helvetica" font-size="14pt" font-style="normal" font-weight="normal" text-decoration="normal" x="0" y="0" text-anchor="end" dominant-baseline="central">Rg from p(r) (SASDBX9)</text><g transform="rotate(0,0,0) translate(-265,-136) translate(265,118) rotate(0,0,0)"><text fill="" stroke="none" font-family="helvetica" font-size="14pt" font-style="normal" font-weight="normal" text-decoration="normal" x="0" y="0" text-anchor="end" dominant-baseline="central">Rg from Guinier (SASDBX9)</text><g transform="rotate(0,0,0) translate(-265,-118) translate(265,100) rotate(0,0,0)"><text fill="" stroke="none" font-family="helvetica" font-size="14pt" font-style="normal" font-weight="normal" text-decoration="normal" x="0" y="0" text-anchor="end" dominant-baseline="central">Rg from p(r) (SASDBY9)</text><g transform="rotate(0,0,0) translate(-265,-100) translate(265,82) rotate(0,0,0)"><text fill="" stroke="none" font-family="helvetica" font-size="14pt" font-style="normal" font-weight="normal" text-decoration="normal" x="0" y="0" text-anchor="end" dominant-baseline="central">Rg from Guinier (SASDBY9)</text><g transform="rotate(0,0,0) translate(-265,-82) translate(265,64) rotate(0,0,0)"><text fill="" stroke="none" font-family="helvetica" font-size="14pt" font-style="normal" font-weight="normal" text-decoration="normal" x="0" y="0" text-anchor="end" dominant-baseline="central">Rg from p(r) (SASDBZ9)</text><g transform="rotate(0,0,0) translate(-265,-64) translate(265,46) rotate(0,0,0)"><text fill="" stroke="none" font-family="helvetica" font-size="14pt" font-style="normal" font-weight="normal" text-decoration="normal" x="0" y="0" text-anchor="end" dominant-baseline="central">Rg from Guinier (SASDBZ9)</text><g transform="rotate(0,0,0) translate(-265,-46)"/></g></g></g></g></g></g></g></g></g></g></g></g><g clip-path="url(#OcTvlTAyUNRS)"><g/></g></g><g transform="scale(1,1) translate(0.5,0.5)"><rect fill="#FFFFFF" stroke="none" x="0" y="0" width="700" height="250"/><rect fill="#ffffff" stroke="none" x="0" y="0" width="700" height="250"/><rect fill="#FFFFFF" stroke="none" x="276" y="37" width="394" height="180"/><rect fill="#ffffff" stroke="none" x="276" y="37" width="394" height="180"/><g><rect fill="none" stroke="#e5e5e5" x="276" y="37" width="394" height="180" stroke-linejoin="bevel" stroke-miterlimit="10"/></g><g clip-path="url(#kXtpcIlIhubL)"><g><g><path fill="none" stroke="#e5e5e5" paint-order="fill stroke markers" d=" M 346 217 L 346 37" stroke-linejoin="bevel" stroke-miterlimit="10"/><path fill="none" stroke="#e5e5e5" paint-order="fill stroke markers" d=" M 416 217 L 416 37" stroke-linejoin="bevel" stroke-miterlimit="10"/><path fill="none" stroke="#e5e5e5" paint-order="fill stroke markers" d=" M 486 217 L 486 37" stroke-linejoin="bevel" stroke-miterlimit="10"/><path fill="none" stroke="#e5e5e5" paint-order="fill stroke markers" d=" M 556 217 L 556 37" stroke-linejoin="bevel" stroke-miterlimit="10"/><path fill="none" stroke="#e5e5e5" paint-order="fill stroke markers" d=" M 626 217 L 626 37" stroke-linejoin="bevel" stroke-miterlimit="10"/></g></g></g><g clip-path="url(#qiOVxEgKGtzU)"><g><g/></g></g><g clip-path="url(#nrRKbwcSpxid)"><g><g><path fill="none" stroke="none"/><path fill="#440154" stroke="none" paint-order="stroke fill markers" d=" M 276 203.5 L 403.67027891277314 203.5 L 403.67027891277314 212.5 L 276 212.5 L 276 203.5 Z" fill-opacity="0.8"/><path fill="none" stroke="#440154" paint-order="fill stroke markers" d=" M 276 203.5 L 403.67027891277314 203.5 L 403.67027891277314 212.5 L 276 212.5 L 276 203.5 Z" stroke-linejoin="bevel" stroke-miterlimit="10" stroke-opacity="0.8"/><path fill="#472777" stroke="none" paint-order="stroke fill markers" d=" M 276 185.5 L 399.8905667081187 185.5 L 399.8905667081187 194.5 L 276 194.5 L 276 185.5 Z" fill-opacity="0.8"/><path fill="none" stroke="#472777" paint-order="fill stroke markers" d=" M 276 185.5 L 399.8905667081187 185.5 L 399.8905667081187 194.5 L 276 194.5 L 276 185.5 Z" stroke-linejoin="bevel" stroke-miterlimit="10" stroke-opacity="0.8"/><path fill="#3E4989" stroke="none" paint-order="stroke fill markers" d=" M 276 167.5 L 471.0751465624445 167.5 L 471.0751465624445 176.5 L 276 176.5 L 276 167.5 Z" fill-opacity="0.8"/><path fill="none" stroke="#3E4989" paint-order="fill stroke markers" d=" M 276 167.5 L 471.0751465624445 167.5 L 471.0751465624445 176.5 L 276 176.5 L 276 167.5 Z" stroke-linejoin="bevel" stroke-miterlimit="10" stroke-opacity="0.8"/><path fill="#30678D" stroke="none" paint-order="stroke fill markers" d=" M 276 149.5 L 465.68555693728905 149.5 L 465.68555693728905 158.5 L 276 158.5 L 276 149.5 Z" fill-opacity="0.8"/><path fill="none" stroke="#30678D" paint-order="fill stroke markers" d=" M 276 149.5 L 465.68555693728905 149.5 L 465.68555693728905 158.5 L 276 158.5 L 276 149.5 Z" stroke-linejoin="bevel" stroke-miterlimit="10" stroke-opacity="0.8"/><path fill="#25828E" stroke="none" paint-order="stroke fill markers" d=" M 276 131.5 L 460.50595132350327 131.5 L 460.50595132350327 140.5 L 276 140.5 L 276 131.5 Z" fill-opacity="0.8"/><path fill="none" stroke="#25828E" paint-order="fill stroke markers" d=" M 276 131.5 L 460.50595132350327 131.5 L 460.50595132350327 140.5 L 276 140.5 L 276 131.5 Z" stroke-linejoin="bevel" stroke-miterlimit="10" stroke-opacity="0.8"/><path fill="#1E9C89" stroke="none" paint-order="stroke fill markers" d=" M 276 113.5 L 470.5851838692485 113.5 L 470.5851838692485 122.5 L 276 122.5 L 276 113.5 Z" fill-opacity="0.8"/><path fill="none" stroke="#1E9C89" paint-order="fill stroke markers" d=" M 276 113.5 L 470.5851838692485 113.5 L 470.5851838692485 122.5 L 276 122.5 L 276 113.5 Z" stroke-linejoin="bevel" stroke-miterlimit="10" stroke-opacity="0.8"/><path fill="#35B778" stroke="none" paint-order="stroke fill markers" d=" M 276 95.5 L 484.30413927873514 95.5 L 484.30413927873514 104.5 L 276 104.5 L 276 95.5 Z" fill-opacity="0.8"/><path fill="none" stroke="#35B778" paint-order="fill stroke markers" d=" M 276 95.5 L 484.30413927873514 95.5 L 484.30413927873514 104.5 L 276 104.5 L 276 95.5 Z" stroke-linejoin="bevel" stroke-miterlimit="10" stroke-opacity="0.8"/><path fill="#6BCD59" stroke="none" paint-order="stroke fill markers" d=" M 276 77.5 L 482.4842778468645 77.5 L 482.4842778468645 86.5 L 276 86.5 L 276 77.5 Z" fill-opacity="0.8"/><path fill="none" stroke="#6BCD59" paint-order="fill stroke markers" d=" M 276 77.5 L 482.4842778468645 77.5 L 482.4842778468645 86.5 L 276 86.5 L 276 77.5 Z" stroke-linejoin="bevel" stroke-miterlimit="10" stroke-opacity="0.8"/><path fill="#B2DD2C" stroke="none" paint-order="stroke fill markers" d=" M 276 59.5 L 600.0053295434358 59.5 L 600.0053295434358 68.5 L 276 68.5 L 276 59.5 Z" fill-opacity="0.8"/><path fill="none" stroke="#B2DD2C" paint-order="fill stroke markers" d=" M 276 59.5 L 600.0053295434358 59.5 L 600.0053295434358 68.5 L 276 68.5 L 276 59.5 Z" stroke-linejoin="bevel" stroke-miterlimit="10" stroke-opacity="0.8"/><path fill="#FDE724" stroke="none" paint-order="stroke fill markers" d=" M 276 41.5 L 579.7768697814887 41.5 L 579.7768697814887 50.5 L 276 50.5 L 276 41.5 Z" fill-opacity="0.8"/><path fill="none" stroke="#FDE724" paint-order="fill stroke markers" d=" M 276 41.5 L 579.7768697814887 41.5 L 579.7768697814887 50.5 L 276 50.5 L 276 41.5 Z" stroke-linejoin="bevel" stroke-miterlimit="10" stroke-opacity="0.8"/></g></g></g><g clip-path="url(#ynDEwxkKBErr)"><g><g/><g><path fill="#ffffff" stroke="#e5e5e5" paint-order="fill stroke markers" d=" M 560.7666664123535 47 L 660 47 L 660 294 L 560.7666664123535 294 L 560.7666664123535 47 Z" fill-opacity="0.95" stroke-linejoin="bevel" stroke-miterlimit="10" stroke-opacity="0.5"/><text fill="#444444" stroke="none" font-family="helvetica" font-size="13px" font-style="normal" font-weight="normal" text-decoration="normal" x="595.7666664123535" y="67" text-anchor="start" dominant-baseline="central">1.824 nm</text><rect fill="#440154" stroke="none" x="572.7666664123535" y="59" width="16" height="16" fill-opacity="0.8"/><path fill="none" stroke="#440154" paint-order="fill stroke markers" d=" M 572.7666664123535 59 L 588.7666664123535 59 L 588.7666664123535 75 L 572.7666664123535 75 L 572.7666664123535 59 Z" stroke-linejoin="bevel" stroke-miterlimit="10" stroke-opacity="0.8"/><text fill="#444444" stroke="none" font-family="helvetica" font-size="13px" font-style="normal" font-weight="normal" text-decoration="normal" x="595.7666664123535" y="90" text-anchor="start" dominant-baseline="central">1.77 nm</text><rect fill="#472777" stroke="none" x="572.7666664123535" y="82" width="16" height="16" fill-opacity="0.8"/><path fill="none" stroke="#472777" paint-order="fill stroke markers" d=" M 572.7666664123535 82 L 588.7666664123535 82 L 588.7666664123535 98 L 572.7666664123535 98 L 572.7666664123535 82 Z" stroke-linejoin="bevel" stroke-miterlimit="10" stroke-opacity="0.8"/><text fill="#444444" stroke="none" font-family="helvetica" font-size="13px" font-style="normal" font-weight="normal" text-decoration="normal" x="595.7666664123535" y="113" text-anchor="start" dominant-baseline="central">2.787 nm</text><rect fill="#3E4989" stroke="none" x="572.7666664123535" y="105" width="16" height="16" fill-opacity="0.8"/><path fill="none" stroke="#3E4989" paint-order="fill stroke markers" d=" M 572.7666664123535 105 L 588.7666664123535 105 L 588.7666664123535 121 L 572.7666664123535 121 L 572.7666664123535 105 Z" stroke-linejoin="bevel" stroke-miterlimit="10" stroke-opacity="0.8"/><text fill="#444444" stroke="none" font-family="helvetica" font-size="13px" font-style="normal" font-weight="normal" text-decoration="normal" x="595.7666664123535" y="136" text-anchor="start" dominant-baseline="central">2.71 nm</text><rect fill="#30678D" stroke="none" x="572.7666664123535" y="128" width="16" height="16" fill-opacity="0.8"/><path fill="none" stroke="#30678D" paint-order="fill stroke markers" d=" M 572.7666664123535 128 L 588.7666664123535 128 L 588.7666664123535 144 L 572.7666664123535 144 L 572.7666664123535 128 Z" stroke-linejoin="bevel" stroke-miterlimit="10" stroke-opacity="0.8"/><text fill="#444444" stroke="none" font-family="helvetica" font-size="13px" font-style="normal" font-weight="normal" text-decoration="normal" x="595.7666664123535" y="159" text-anchor="start" dominant-baseline="central">2.636 nm</text><rect fill="#25828E" stroke="none" x="572.7666664123535" y="151" width="16" height="16" fill-opacity="0.8"/><path fill="none" stroke="#25828E" paint-order="fill stroke markers" d=" M 572.7666664123535 151 L 588.7666664123535 151 L 588.7666664123535 167 L 572.7666664123535 167 L 572.7666664123535 151 Z" stroke-linejoin="bevel" stroke-miterlimit="10" stroke-opacity="0.8"/><text fill="#444444" stroke="none" font-family="helvetica" font-size="13px" font-style="normal" font-weight="normal" text-decoration="normal" x="595.7666664123535" y="182" text-anchor="start" dominant-baseline="central">2.78 nm</text><rect fill="#1E9C89" stroke="none" x="572.7666664123535" y="174" width="16" height="16" fill-opacity="0.8"/><path fill="none" stroke="#1E9C89" paint-order="fill stroke markers" d=" M 572.7666664123535 174 L 588.7666664123535 174 L 588.7666664123535 190 L 572.7666664123535 190 L 572.7666664123535 174 Z" stroke-linejoin="bevel" stroke-miterlimit="10" stroke-opacity="0.8"/><text fill="#444444" stroke="none" font-family="helvetica" font-size="13px" font-style="normal" font-weight="normal" text-decoration="normal" x="595.7666664123535" y="205" text-anchor="start" dominant-baseline="central">2.976 nm</text><rect fill="#35B778" stroke="none" x="572.7666664123535" y="197" width="16" height="16" fill-opacity="0.8"/><path fill="none" stroke="#35B778" paint-order="fill stroke markers" d=" M 572.7666664123535 197 L 588.7666664123535 197 L 588.7666664123535 213 L 572.7666664123535 213 L 572.7666664123535 197 Z" stroke-linejoin="bevel" stroke-miterlimit="10" stroke-opacity="0.8"/><text fill="#444444" stroke="none" font-family="helvetica" font-size="13px" font-style="normal" font-weight="normal" text-decoration="normal" x="595.7666664123535" y="228" text-anchor="start" dominant-baseline="central">2.95 nm</text><rect fill="#6BCD59" stroke="none" x="572.7666664123535" y="220" width="16" height="16" fill-opacity="0.8"/><path fill="none" stroke="#6BCD59" paint-order="fill stroke markers" d=" M 572.7666664123535 220 L 588.7666664123535 220 L 588.7666664123535 236 L 572.7666664123535 236 L 572.7666664123535 220 Z" stroke-linejoin="bevel" stroke-miterlimit="10" stroke-opacity="0.8"/><text fill="#444444" stroke="none" font-family="helvetica" font-size="13px" font-style="normal" font-weight="normal" text-decoration="normal" x="595.7666664123535" y="251" text-anchor="start" dominant-baseline="central">4.629 nm</text><rect fill="#B2DD2C" stroke="none" x="572.7666664123535" y="243" width="16" height="16" fill-opacity="0.8"/><path fill="none" stroke="#B2DD2C" paint-order="fill stroke markers" d=" M 572.7666664123535 243 L 588.7666664123535 243 L 588.7666664123535 259 L 572.7666664123535 259 L 572.7666664123535 243 Z" stroke-linejoin="bevel" stroke-miterlimit="10" stroke-opacity="0.8"/><text fill="#444444" stroke="none" font-family="helvetica" font-size="13px" font-style="normal" font-weight="normal" text-decoration="normal" x="595.7666664123535" y="274" text-anchor="start" dominant-baseline="central">4.34 nm</text><rect fill="#FDE724" stroke="none" x="572.7666664123535" y="266" width="16" height="16" fill-opacity="0.8"/><path fill="none" stroke="#FDE724" paint-order="fill stroke markers" d=" M 572.7666664123535 266 L 588.7666664123535 266 L 588.7666664123535 282 L 572.7666664123535 282 L 572.7666664123535 266 Z" stroke-linejoin="bevel" stroke-miterlimit="10" stroke-opacity="0.8"/></g></g></g><g><g fill="#444444"><path fill="" stroke="none" d=""/><g transform="translate(473,32)"><path fill="none" stroke="none"/><text fill="" stroke="none" font-family="helvetica" font-size="14pt" font-style="normal" font-weight="bold" text-decoration="normal" x="0" y="0" text-anchor="middle" dominant-baseline="text-after-edge">Data Quality: Rg Analysis</text></g></g></g><g/><g><g fill="#444444"><path fill="none" stroke="black" paint-order="fill stroke markers" d=" M 276 217 L 670 217" stroke-linejoin="bevel" stroke-miterlimit="10"/><path fill="none" stroke="black" paint-order="fill stroke markers" d=" M 276 223 L 276 215" stroke-linejoin="bevel" stroke-miterlimit="10"/><path fill="none" stroke="black" paint-order="fill stroke markers" d=" M 346 223 L 346 215" stroke-linejoin="bevel" stroke-miterlimit="10"/><path fill="none" stroke="black" paint-order="fill stroke markers" d=" M 416 223 L 416 215" stroke-linejoin="bevel" stroke-miterlimit="10"/><path fill="none" stroke="black" paint-order="fill stroke markers" d=" M 486 223 L 486 215" stroke-linejoin="bevel" stroke-miterlimit="10"/><path fill="none" stroke="black" paint-order="fill stroke markers" d=" M 556 223 L 556 215" stroke-linejoin="bevel" stroke-miterlimit="10"/><path fill="none" stroke="black" paint-order="fill stroke markers" d=" M 626 223 L 626 215" stroke-linejoin="bevel" stroke-miterlimit="10"/><path fill="none" stroke="black" paint-order="fill stroke markers" d=" M 276 221 L 276 217" stroke-linejoin="bevel" stroke-miterlimit="10"/><path fill="none" stroke="black" paint-order="fill stroke markers" d=" M 290 221 L 290 217" stroke-linejoin="bevel" stroke-miterlimit="10"/><path fill="none" stroke="black" paint-order="fill stroke markers" d=" M 304 221 L 304 217" stroke-linejoin="bevel" stroke-miterlimit="10"/><path fill="none" stroke="black" paint-order="fill stroke markers" d=" M 318 221 L 318 217" stroke-linejoin="bevel" stroke-miterlimit="10"/><path fill="none" stroke="black" paint-order="fill stroke markers" d=" M 332 221 L 332 217" stroke-linejoin="bevel" stroke-miterlimit="10"/><path fill="none" stroke="black" paint-order="fill stroke markers" d=" M 346 221 L 346 217" stroke-linejoin="bevel" stroke-miterlimit="10"/><path fill="none" stroke="black" paint-order="fill stroke markers" d=" M 360 221 L 360 217" stroke-linejoin="bevel" stroke-miterlimit="10"/><path fill="none" stroke="black" paint-order="fill stroke markers" d=" M 374 221 L 374 217" stroke-linejoin="bevel" stroke-miterlimit="10"/><path fill="none" stroke="black" paint-order="fill stroke markers" d=" M 388 221 L 388 217" stroke-linejoin="bevel" stroke-miterlimit="10"/><path fill="none" stroke="black" paint-order="fill stroke markers" d=" M 402 221 L 402 217" stroke-linejoin="bevel" stroke-miterlimit="10"/><path fill="none" stroke="black" paint-order="fill stroke markers" d=" M 416 221 L 416 217" stroke-linejoin="bevel" stroke-miterlimit="10"/><path fill="none" stroke="black" paint-order="fill stroke markers" d=" M 430 221 L 430 217" stroke-linejoin="bevel" stroke-miterlimit="10"/><path fill="none" stroke="black" paint-order="fill stroke markers" d=" M 444 221 L 444 217" stroke-linejoin="bevel" stroke-miterlimit="10"/><path fill="none" stroke="black" paint-order="fill stroke markers" d=" M 458 221 L 458 217" stroke-linejoin="bevel" stroke-miterlimit="10"/><path fill="none" stroke="black" paint-order="fill stroke markers" d=" M 472 221 L 472 217" stroke-linejoin="bevel" stroke-miterlimit="10"/><path fill="none" stroke="black" paint-order="fill stroke markers" d=" M 486 221 L 486 217" stroke-linejoin="bevel" stroke-miterlimit="10"/><path fill="none" stroke="black" paint-order="fill stroke markers" d=" M 500 221 L 500 217" stroke-linejoin="bevel" stroke-miterlimit="10"/><path fill="none" stroke="black" paint-order="fill stroke markers" d=" M 514 221 L 514 217" stroke-linejoin="bevel" stroke-miterlimit="10"/><path fill="none" stroke="black" paint-order="fill stroke markers" d=" M 528 221 L 528 217" stroke-linejoin="bevel" stroke-miterlimit="10"/><path fill="none" stroke="black" paint-order="fill stroke markers" d=" M 542 221 L 542 217" stroke-linejoin="bevel" stroke-miterlimit="10"/><path fill="none" stroke="black" paint-order="fill stroke markers" d=" M 556 221 L 556 217" stroke-linejoin="bevel" stroke-miterlimit="10"/><path fill="none" stroke="black" paint-order="fill stroke markers" d=" M 570 221 L 570 217" stroke-linejoin="bevel" stroke-miterlimit="10"/><path fill="none" stroke="black" paint-order="fill stroke markers" d=" M 584 221 L 584 217" stroke-linejoin="bevel" stroke-miterlimit="10"/><path fill="none" stroke="black" paint-order="fill stroke markers" d=" M 598 221 L 598 217" stroke-linejoin="bevel" stroke-miterlimit="10"/><path fill="none" stroke="black" paint-order="fill stroke markers" d=" M 612 221 L 612 217" stroke-linejoin="bevel" stroke-miterlimit="10"/><path fill="none" stroke="black" paint-order="fill stroke markers" d=" M 626 221 L 626 217" stroke-linejoin="bevel" stroke-miterlimit="10"/><path fill="none" stroke="black" paint-order="fill stroke markers" d=" M 640 221 L 640 217" stroke-linejoin="bevel" stroke-miterlimit="10"/><path fill="none" stroke="black" paint-order="fill stroke markers" d=" M 654 221 L 654 217" stroke-linejoin="bevel" stroke-miterlimit="10"/><path fill="" stroke="black" paint-order="fill stroke markers" d=" M 668 221 L 668 217" stroke-linejoin="bevel" stroke-miterlimit="10"/><g transform="translate(276,228) rotate(0,0,0)"><text fill="" stroke="none" font-family="helvetica" font-size="14pt" font-style="normal" font-weight="normal" text-decoration="normal" x="0" y="0" text-anchor="middle" dominant-baseline="hanging">0</text><g transform="rotate(0,0,0) translate(-276,-228) translate(346,228) rotate(0,0,0)"><text fill="" stroke="none" font-family="helvetica" font-size="14pt" font-style="normal" font-weight="normal" text-decoration="normal" x="0" y="0" text-anchor="middle" dominant-baseline="hanging">1</text><g transform="rotate(0,0,0) translate(-346,-228) translate(416,228) rotate(0,0,0)"><text fill="" stroke="none" font-family="helvetica" font-size="14pt" font-style="normal" font-weight="normal" text-decoration="normal" x="0" y="0" text-anchor="middle" dominant-baseline="hanging">2</text><g transform="rotate(0,0,0) translate(-416,-228) translate(486,228) rotate(0,0,0)"><text fill="" stroke="none" font-family="helvetica" font-size="14pt" font-style="normal" font-weight="normal" text-decoration="normal" x="0" y="0" text-anchor="middle" dominant-baseline="hanging">3</text><g transform="rotate(0,0,0) translate(-486,-228) translate(556,228) rotate(0,0,0)"><text fill="" stroke="none" font-family="helvetica" font-size="14pt" font-style="normal" font-weight="normal" text-decoration="normal" x="0" y="0" text-anchor="middle" dominant-baseline="hanging">4</text><g transform="rotate(0,0,0) translate(-556,-228) translate(626,228) rotate(0,0,0)"><text fill="" stroke="none" font-family="helvetica" font-size="14pt" font-style="normal" font-weight="normal" text-decoration="normal" x="0" y="0" text-anchor="middle" dominant-baseline="hanging">5</text><g transform="rotate(0,0,0) translate(-626,-228)"/></g></g></g></g></g></g></g></g><g><g fill="#444444"><path fill="none" stroke="black" paint-order="fill stroke markers" d=" M 276 217 L 276 37" stroke-linejoin="bevel" stroke-miterlimit="10"/><path fill="none" stroke="black" paint-order="fill stroke markers" d=" M 270 208 L 278 208" stroke-linejoin="bevel" stroke-miterlimit="10"/><path fill="none" stroke="black" paint-order="fill stroke markers" d=" M 270 190 L 278 190" stroke-linejoin="bevel" stroke-miterlimit="10"/><path fill="none" stroke="black" paint-order="fill stroke markers" d=" M 270 172 L 278 172" stroke-linejoin="bevel" stroke-miterlimit="10"/><path fill="none" stroke="black" paint-order="fill stroke markers" d=" M 270 154 L 278 154" stroke-linejoin="bevel" stroke-miterlimit="10"/><path fill="none" stroke="black" paint-order="fill stroke markers" d=" M 270 136 L 278 136" stroke-linejoin="bevel" stroke-miterlimit="10"/><path fill="none" stroke="black" paint-order="fill stroke markers" d=" M 270 118 L 278 118" stroke-linejoin="bevel" stroke-miterlimit="10"/><path fill="none" stroke="black" paint-order="fill stroke markers" d=" M 270 100 L 278 100" stroke-linejoin="bevel" stroke-miterlimit="10"/><path fill="none" stroke="black" paint-order="fill stroke markers" d=" M 270 82 L 278 82" stroke-linejoin="bevel" stroke-miterlimit="10"/><path fill="none" stroke="black" paint-order="fill stroke markers" d=" M 270 64 L 278 64" stroke-linejoin="bevel" stroke-miterlimit="10"/><path fill="" stroke="black" paint-order="fill stroke markers" d=" M 270 46 L 278 46" stroke-linejoin="bevel" stroke-miterlimit="10"/><g transform="translate(265,208) rotate(0,0,0)"><text fill="" stroke="none" font-family="helvetica" font-size="14pt" font-style="normal" font-weight="normal" text-decoration="normal" x="0" y="0" text-anchor="end" dominant-baseline="central">Rg from p(r) (SASDBV9)</text><g transform="rotate(0,0,0) translate(-265,-208) translate(265,190) rotate(0,0,0)"><text fill="" stroke="none" font-family="helvetica" font-size="14pt" font-style="normal" font-weight="normal" text-decoration="normal" x="0" y="0" text-anchor="end" dominant-baseline="central">Rg from Guinier (SASDBV9)</text><g transform="rotate(0,0,0) translate(-265,-190) translate(265,172) rotate(0,0,0)"><text fill="" stroke="none" font-family="helvetica" font-size="14pt" font-style="normal" font-weight="normal" text-decoration="normal" x="0" y="0" text-anchor="end" dominant-baseline="central">Rg from p(r) (SASDBW9)</text><g transform="rotate(0,0,0) translate(-265,-172) translate(265,154) rotate(0,0,0)"><text fill="" stroke="none" font-family="helvetica" font-size="14pt" font-style="normal" font-weight="normal" text-decoration="normal" x="0" y="0" text-anchor="end" dominant-baseline="central">Rg from Guinier (SASDBW9)</text><g transform="rotate(0,0,0) translate(-265,-154) translate(265,136) rotate(0,0,0)"><text fill="" stroke="none" font-family="helvetica" font-size="14pt" font-style="normal" font-weight="normal" text-decoration="normal" x="0" y="0" text-anchor="end" dominant-baseline="central">Rg from p(r) (SASDBX9)</text><g transform="rotate(0,0,0) translate(-265,-136) translate(265,118) rotate(0,0,0)"><text fill="" stroke="none" font-family="helvetica" font-size="14pt" font-style="normal" font-weight="normal" text-decoration="normal" x="0" y="0" text-anchor="end" dominant-baseline="central">Rg from Guinier (SASDBX9)</text><g transform="rotate(0,0,0) translate(-265,-118) translate(265,100) rotate(0,0,0)"><text fill="" stroke="none" font-family="helvetica" font-size="14pt" font-style="normal" font-weight="normal" text-decoration="normal" x="0" y="0" text-anchor="end" dominant-baseline="central">Rg from p(r) (SASDBY9)</text><g transform="rotate(0,0,0) translate(-265,-100) translate(265,82) rotate(0,0,0)"><text fill="" stroke="none" font-family="helvetica" font-size="14pt" font-style="normal" font-weight="normal" text-decoration="normal" x="0" y="0" text-anchor="end" dominant-baseline="central">Rg from Guinier (SASDBY9)</text><g transform="rotate(0,0,0) translate(-265,-82) translate(265,64) rotate(0,0,0)"><text fill="" stroke="none" font-family="helvetica" font-size="14pt" font-style="normal" font-weight="normal" text-decoration="normal" x="0" y="0" text-anchor="end" dominant-baseline="central">Rg from p(r) (SASDBZ9)</text><g transform="rotate(0,0,0) translate(-265,-64) translate(265,46) rotate(0,0,0)"><text fill="" stroke="none" font-family="helvetica" font-size="14pt" font-style="normal" font-weight="normal" text-decoration="normal" x="0" y="0" text-anchor="end" dominant-baseline="central">Rg from Guinier (SASDBZ9)</text><g transform="rotate(0,0,0) translate(-265,-46)"/></g></g></g></g></g></g></g></g></g></g></g></g><g clip-path="url(#EmLNToPhavIL)"><g/></g></g></g></svg>