<svg version="1.1" xmlns="http://www.w3.org/2000/svg" xmlns:xlink="http://www.w3.org/1999/xlink" width="500" height="500" style="width: 500px; height: 500px;"><defs><clipPath id="WcDCicmhBNgq"><path fill="none" stroke="none" d=" M 50 33 L 470 33 L 470 439 L 50 439 L 50 33 Z"/></clipPath><clipPath id="TnVpHLuSttsM"><path fill="none" stroke="none" d=" M 50 33 L 470 33 L 470 439 L 50 439 L 50 33 Z"/></clipPath><clipPath id="BJXRfkTehyzN"><path fill="none" stroke="none" d=" M 50 33 L 470 33 L 470 439 L 50 439 L 50 33 Z"/></clipPath><clipPath id="LlAUDfmWIUFl"><path fill="none" stroke="none" d=" M 50 33 L 470 33 L 470 439 L 50 439 L 50 33 Z"/></clipPath><clipPath id="nnAeEFQTkUBE"><path fill="none" stroke="none" d=" M 50 33 L 470 33 L 470 439 L 50 439 L 50 33 Z"/></clipPath><clipPath id="hVidqEASRBFq"><path fill="none" stroke="none" d=" M 50 33 L 470 33 L 470 439 L 50 439 L 50 33 Z"/></clipPath><clipPath id="uTSIgWPsLJaM"><path fill="none" stroke="none" d=" M 50 33 L 470 33 L 470 439 L 50 439 L 50 33 Z"/></clipPath><clipPath id="DBBKTltutiBU"><path fill="none" stroke="none" d=" M 50 33 L 470 33 L 470 439 L 50 439 L 50 33 Z"/></clipPath><clipPath id="FRXhlllZXiwv"><path fill="none" stroke="none" d=" M 50 33 L 470 33 L 470 439 L 50 439 L 50 33 Z"/></clipPath><clipPath id="lnhtHGzOeFoO"><path fill="none" stroke="none" d=" M 50 33 L 470 33 L 470 439 L 50 439 L 50 33 Z"/></clipPath><clipPath id="rapDVZuZuvlv"><path fill="none" stroke="none" d=" M 50 33 L 470 33 L 470 439 L 50 439 L 50 33 Z"/></clipPath><clipPath id="gmsXVUSxkzmn"><path fill="none" stroke="none" d=" M 50 33 L 470 33 L 470 439 L 50 439 L 50 33 Z"/></clipPath></defs><g transform="scale(1,1) translate(0.5,0.5) scale(1,1) translate(0.5,0.5)"><rect fill="#ffffff" stroke="none" x="0" y="0" width="500" height="500"/><rect fill="#FFFFFF" stroke="none" x="50" y="33" width="420" height="406"/><rect fill="#ffffff" stroke="none" x="50" y="33" width="420" height="406"/><g><rect fill="none" stroke="#e5e5e5" x="50" y="33" width="420" height="406" stroke-linejoin="bevel" stroke-miterlimit="10"/></g><g clip-path="url(#uTSIgWPsLJaM)"><g><g><path fill="none" stroke="#e5e5e5" paint-order="fill stroke markers" d=" M 69 439 L 69 33" stroke-linejoin="bevel" stroke-miterlimit="10"/><path fill="none" stroke="#e5e5e5" paint-order="fill stroke markers" d=" M 139 439 L 139 33" stroke-linejoin="bevel" stroke-miterlimit="10"/><path fill="none" stroke="#e5e5e5" paint-order="fill stroke markers" d=" M 209 439 L 209 33" stroke-linejoin="bevel" stroke-miterlimit="10"/><path fill="none" stroke="#e5e5e5" paint-order="fill stroke markers" d=" M 280 439 L 280 33" stroke-linejoin="bevel" stroke-miterlimit="10"/><path fill="none" stroke="#e5e5e5" paint-order="fill stroke markers" d=" M 350 439 L 350 33" stroke-linejoin="bevel" stroke-miterlimit="10"/><path fill="none" stroke="#e5e5e5" paint-order="fill stroke markers" d=" M 420 439 L 420 33" stroke-linejoin="bevel" stroke-miterlimit="10"/></g></g></g><g clip-path="url(#DBBKTltutiBU)"><g><g><path fill="none" stroke="#e5e5e5" paint-order="fill stroke markers" d=" M 50 416 L 470 416" stroke-linejoin="bevel" stroke-miterlimit="10"/><path fill="none" stroke="#e5e5e5" paint-order="fill stroke markers" d=" M 50 338 L 470 338" stroke-linejoin="bevel" stroke-miterlimit="10"/><path fill="none" stroke="#e5e5e5" paint-order="fill stroke markers" d=" M 50 261 L 470 261" stroke-linejoin="bevel" stroke-miterlimit="10"/><path fill="none" stroke="#e5e5e5" paint-order="fill stroke markers" d=" M 50 184 L 470 184" stroke-linejoin="bevel" stroke-miterlimit="10"/><path fill="none" stroke="#e5e5e5" paint-order="fill stroke markers" d=" M 50 107 L 470 107" stroke-linejoin="bevel" stroke-miterlimit="10"/></g></g></g><g clip-path="url(#FRXhlllZXiwv)"><g><g><path fill="none" stroke="none"/><path fill="blue" stroke="blue" paint-order="fill stroke markers" d=" M 90.50750000000002 60.204079670535066 A 1.5 1.5 0 1 1 90.50749925000008 60.20257967078506" fill-opacity="0.3" stroke-linejoin="bevel" stroke-miterlimit="10"/><path fill="blue" stroke="blue" paint-order="fill stroke markers" d=" M 91.79080213903745 62.48023208724038 A 1.5 1.5 0 1 1 91.79080138903751 62.47873208749038" fill-opacity="0.3" stroke-linejoin="bevel" stroke-miterlimit="10"/><path fill="blue" stroke="blue" paint-order="fill stroke markers" d=" M 93.07410427807487 64.70523482814752 A 1.5 1.5 0 1 1 93.07410352807493 64.70373482839753" fill-opacity="0.3" stroke-linejoin="bevel" stroke-miterlimit="10"/><path fill="blue" stroke="blue" paint-order="fill stroke markers" d=" M 94.35740641711232 64.9753358984143 A 1.5 1.5 0 1 1 94.35740566711237 64.9738358986643" fill-opacity="0.3" stroke-linejoin="bevel" stroke-miterlimit="10"/><path fill="blue" stroke="blue" paint-order="fill stroke markers" d=" M 95.6408489304813 67.07410859246556 A 1.5 1.5 0 1 1 95.64084818048136 67.07260859271557" fill-opacity="0.3" stroke-linejoin="bevel" stroke-miterlimit="10"/><path fill="blue" stroke="blue" paint-order="fill stroke markers" d=" M 96.92415106951873 69.18210567984238 A 1.5 1.5 0 1 1 96.92415031951879 69.18060568009238" fill-opacity="0.3" stroke-linejoin="bevel" stroke-miterlimit="10"/><path fill="blue" stroke="blue" paint-order="fill stroke markers" d=" M 98.20745320855616 70.66702885361065 A 1.5 1.5 0 1 1 98.20745245855622 70.66552885386065" fill-opacity="0.3" stroke-linejoin="bevel" stroke-miterlimit="10"/><path fill="blue" stroke="blue" paint-order="fill stroke markers" d=" M 99.49075534759359 71.78179761512553 A 1.5 1.5 0 1 1 99.49075459759365 71.78029761537553" fill-opacity="0.3" stroke-linejoin="bevel" stroke-miterlimit="10"/><path fill="blue" stroke="blue" paint-order="fill stroke markers" d=" M 100.77405748663102 74.63814942657359 A 1.5 1.5 0 1 1 100.77405673663108 74.6366494268236" fill-opacity="0.3" stroke-linejoin="bevel" stroke-miterlimit="10"/><path fill="blue" stroke="blue" paint-order="fill stroke markers" d=" M 102.0575 77.85867511264433 A 1.5 1.5 0 1 1 102.05749925000006 77.85717511289434" fill-opacity="0.3" stroke-linejoin="bevel" stroke-miterlimit="10"/><path fill="blue" stroke="blue" paint-order="fill stroke markers" d=" M 103.34080213903744 79.881202236391 A 1.5 1.5 0 1 1 103.3408013890375 79.87970223664101" fill-opacity="0.3" stroke-linejoin="bevel" stroke-miterlimit="10"/><path fill="blue" stroke="blue" paint-order="fill stroke markers" d=" M 104.62410427807488 81.12220307892119 A 1.5 1.5 0 1 1 104.62410352807494 81.1207030791712" fill-opacity="0.3" stroke-linejoin="bevel" stroke-miterlimit="10"/><path fill="blue" stroke="blue" paint-order="fill stroke markers" d=" M 105.9074064171123 83.01349548368916 A 1.5 1.5 0 1 1 105.90740566711236 83.01199548393916" fill-opacity="0.3" stroke-linejoin="bevel" stroke-miterlimit="10"/><path fill="blue" stroke="blue" paint-order="fill stroke markers" d=" M 107.1908489304813 84.63551395967966 A 1.5 1.5 0 1 1 107.19084818048135 84.63401395992966" fill-opacity="0.3" stroke-linejoin="bevel" stroke-miterlimit="10"/><path fill="blue" stroke="blue" paint-order="fill stroke markers" d=" M 108.47415106951871 87.25503035516738 A 1.5 1.5 0 1 1 108.47415031951877 87.25353035541738" fill-opacity="0.3" stroke-linejoin="bevel" stroke-miterlimit="10"/><path fill="blue" stroke="blue" paint-order="fill stroke markers" d=" M 109.75745320855616 89.44425618117742 A 1.5 1.5 0 1 1 109.75745245855622 89.44275618142743" fill-opacity="0.3" stroke-linejoin="bevel" stroke-miterlimit="10"/><path fill="blue" stroke="blue" paint-order="fill stroke markers" d=" M 111.04075534759359 91.91784564751572 A 1.5 1.5 0 1 1 111.04075459759365 91.91634564776572" fill-opacity="0.3" stroke-linejoin="bevel" stroke-miterlimit="10"/><path fill="blue" stroke="blue" paint-order="fill stroke markers" d=" M 112.32405748663102 94.91447952823302 A 1.5 1.5 0 1 1 112.32405673663108 94.91297952848302" fill-opacity="0.3" stroke-linejoin="bevel" stroke-miterlimit="10"/><path fill="blue" stroke="blue" paint-order="fill stroke markers" d=" M 113.60750000000002 97.1503597400033 A 1.5 1.5 0 1 1 113.60749925000007 97.1488597402533" fill-opacity="0.3" stroke-linejoin="bevel" stroke-miterlimit="10"/><path fill="blue" stroke="blue" paint-order="fill stroke markers" d=" M 114.89080213903745 99.31301881415368 A 1.5 1.5 0 1 1 114.8908013890375 99.31151881440368" fill-opacity="0.3" stroke-linejoin="bevel" stroke-miterlimit="10"/><path fill="blue" stroke="blue" paint-order="fill stroke markers" d=" M 116.17410427807488 101.68947364642673 A 1.5 1.5 0 1 1 116.17410352807494 101.68797364667674" fill-opacity="0.3" stroke-linejoin="bevel" stroke-miterlimit="10"/><path fill="blue" stroke="blue" paint-order="fill stroke markers" d=" M 117.45740641711231 103.67110420427053 A 1.5 1.5 0 1 1 117.45740566711237 103.66960420452054" fill-opacity="0.3" stroke-linejoin="bevel" stroke-miterlimit="10"/><path fill="blue" stroke="blue" paint-order="fill stroke markers" d=" M 118.74084893048129 105.20172000121454 A 1.5 1.5 0 1 1 118.74084818048135 105.20022000146454" fill-opacity="0.3" stroke-linejoin="bevel" stroke-miterlimit="10"/><path fill="blue" stroke="blue" paint-order="fill stroke markers" d=" M 120.02415106951872 107.76877874518442 A 1.5 1.5 0 1 1 120.02415031951878 107.76727874543442" fill-opacity="0.3" stroke-linejoin="bevel" stroke-miterlimit="10"/><path fill="blue" stroke="blue" paint-order="fill stroke markers" d=" M 121.30745320855615 110.51033737390236 A 1.5 1.5 0 1 1 121.30745245855621 110.50883737415236" fill-opacity="0.3" stroke-linejoin="bevel" stroke-miterlimit="10"/><path fill="blue" stroke="blue" paint-order="fill stroke markers" d=" M 122.59075534759359 113.0456253621835 A 1.5 1.5 0 1 1 122.59075459759364 113.0441253624335" fill-opacity="0.3" stroke-linejoin="bevel" stroke-miterlimit="10"/><path fill="blue" stroke="blue" paint-order="fill stroke markers" d=" M 123.87405748663102 114.40919455208484 A 1.5 1.5 0 1 1 123.87405673663108 114.40769455233485" fill-opacity="0.3" stroke-linejoin="bevel" stroke-miterlimit="10"/><path fill="blue" stroke="blue" paint-order="fill stroke markers" d=" M 125.1575 115.35691508792422 A 1.5 1.5 0 1 1 125.15749925000006 115.35541508817423" fill-opacity="0.3" stroke-linejoin="bevel" stroke-miterlimit="10"/><path fill="blue" stroke="blue" paint-order="fill stroke markers" d=" M 126.44080213903743 117.60695963736475 A 1.5 1.5 0 1 1 126.44080138903749 117.60545963761476" fill-opacity="0.3" stroke-linejoin="bevel" stroke-miterlimit="10"/><path fill="blue" stroke="blue" paint-order="fill stroke markers" d=" M 127.72410427807488 119.65254319850521 A 1.5 1.5 0 1 1 127.72410352807493 119.65104319875522" fill-opacity="0.3" stroke-linejoin="bevel" stroke-miterlimit="10"/><path fill="blue" stroke="blue" paint-order="fill stroke markers" d=" M 129.0074064171123 121.49598604786445 A 1.5 1.5 0 1 1 129.00740566711238 121.49448604811445" fill-opacity="0.3" stroke-linejoin="bevel" stroke-miterlimit="10"/><path fill="blue" stroke="blue" paint-order="fill stroke markers" d=" M 130.29070855614972 124.03424438799965 A 1.5 1.5 0 1 1 130.29070780614978 124.03274438824965" fill-opacity="0.3" stroke-linejoin="bevel" stroke-miterlimit="10"/><path fill="blue" stroke="blue" paint-order="fill stroke markers" d=" M 131.5741510695187 126.60283621277227 A 1.5 1.5 0 1 1 131.57415031951876 126.60133621302228" fill-opacity="0.3" stroke-linejoin="bevel" stroke-miterlimit="10"/><path fill="blue" stroke="blue" paint-order="fill stroke markers" d=" M 132.85745320855614 128.3002708165871 A 1.5 1.5 0 1 1 132.8574524585562 128.2987708168371" fill-opacity="0.3" stroke-linejoin="bevel" stroke-miterlimit="10"/><path fill="blue" stroke="blue" paint-order="fill stroke markers" d=" M 134.1407553475936 130.54956676264743 A 1.5 1.5 0 1 1 134.14075459759366 130.54806676289743" fill-opacity="0.3" stroke-linejoin="bevel" stroke-miterlimit="10"/><path fill="blue" stroke="blue" paint-order="fill stroke markers" d=" M 135.42405748663103 131.8073103948928 A 1.5 1.5 0 1 1 135.4240567366311 131.8058103951428" fill-opacity="0.3" stroke-linejoin="bevel" stroke-miterlimit="10"/><path fill="blue" stroke="blue" paint-order="fill stroke markers" d=" M 136.7075 132.78690539131753 A 1.5 1.5 0 1 1 136.70749925000007 132.78540539156754" fill-opacity="0.3" stroke-linejoin="bevel" stroke-miterlimit="10"/><path fill="blue" stroke="blue" paint-order="fill stroke markers" d=" M 137.99080213903744 135.0918055149063 A 1.5 1.5 0 1 1 137.9908013890375 135.0903055151563" fill-opacity="0.3" stroke-linejoin="bevel" stroke-miterlimit="10"/><path fill="blue" stroke="blue" paint-order="fill stroke markers" d=" M 139.27410427807487 136.24270561381906 A 1.5 1.5 0 1 1 139.27410352807493 136.24120561406906" fill-opacity="0.3" stroke-linejoin="bevel" stroke-miterlimit="10"/><path fill="blue" stroke="blue" paint-order="fill stroke markers" d=" M 140.5574064171123 137.6155238877435 A 1.5 1.5 0 1 1 140.55740566711236 137.6140238879935" fill-opacity="0.3" stroke-linejoin="bevel" stroke-miterlimit="10"/><path fill="blue" stroke="blue" paint-order="fill stroke markers" d=" M 141.84070855614974 139.9763214073016 A 1.5 1.5 0 1 1 141.8407078061498 139.97482140755162" fill-opacity="0.3" stroke-linejoin="bevel" stroke-miterlimit="10"/><path fill="blue" stroke="blue" paint-order="fill stroke markers" d=" M 143.12415106951872 142.0209179839792 A 1.5 1.5 0 1 1 143.12415031951878 142.0194179842292" fill-opacity="0.3" stroke-linejoin="bevel" stroke-miterlimit="10"/><path fill="blue" stroke="blue" paint-order="fill stroke markers" d=" M 144.40745320855615 143.65700359074333 A 1.5 1.5 0 1 1 144.4074524585562 143.65550359099333" fill-opacity="0.3" stroke-linejoin="bevel" stroke-miterlimit="10"/><path fill="blue" stroke="blue" paint-order="fill stroke markers" d=" M 145.69075534759358 144.77473492021642 A 1.5 1.5 0 1 1 145.69075459759364 144.77323492046642" fill-opacity="0.3" stroke-linejoin="bevel" stroke-miterlimit="10"/><path fill="blue" stroke="blue" paint-order="fill stroke markers" d=" M 146.974057486631 147.65937529824095 A 1.5 1.5 0 1 1 146.97405673663107 147.65787529849095" fill-opacity="0.3" stroke-linejoin="bevel" stroke-miterlimit="10"/><path fill="blue" stroke="blue" paint-order="fill stroke markers" d=" M 148.2575 149.43810950388922 A 1.5 1.5 0 1 1 148.25749925000005 149.43660950413923" fill-opacity="0.3" stroke-linejoin="bevel" stroke-miterlimit="10"/><path fill="blue" stroke="blue" paint-order="fill stroke markers" d=" M 149.54080213903745 151.3305606419267 A 1.5 1.5 0 1 1 149.5408013890375 151.3290606421767" fill-opacity="0.3" stroke-linejoin="bevel" stroke-miterlimit="10"/><path fill="blue" stroke="blue" paint-order="fill stroke markers" d=" M 150.82410427807486 152.376065755254 A 1.5 1.5 0 1 1 150.82410352807491 152.374565755504" fill-opacity="0.3" stroke-linejoin="bevel" stroke-miterlimit="10"/><path fill="blue" stroke="blue" paint-order="fill stroke markers" d=" M 152.10740641711232 153.61045436884098 A 1.5 1.5 0 1 1 152.10740566711237 153.60895436909098" fill-opacity="0.3" stroke-linejoin="bevel" stroke-miterlimit="10"/><path fill="blue" stroke="blue" paint-order="fill stroke markers" d=" M 153.39070855614972 155.4388364681633 A 1.5 1.5 0 1 1 153.39070780614978 155.4373364684133" fill-opacity="0.3" stroke-linejoin="bevel" stroke-miterlimit="10"/><path fill="blue" stroke="blue" paint-order="fill stroke markers" d=" M 154.6741510695187 157.57327779697215 A 1.5 1.5 0 1 1 154.67415031951876 157.57177779722215" fill-opacity="0.3" stroke-linejoin="bevel" stroke-miterlimit="10"/><path fill="blue" stroke="blue" paint-order="fill stroke markers" d=" M 155.95745320855616 159.10924458753283 A 1.5 1.5 0 1 1 155.95745245855622 159.10774458778283" fill-opacity="0.3" stroke-linejoin="bevel" stroke-miterlimit="10"/><path fill="blue" stroke="blue" paint-order="fill stroke markers" d=" M 157.2407553475936 160.73931804275105 A 1.5 1.5 0 1 1 157.24075459759365 160.73781804300106" fill-opacity="0.3" stroke-linejoin="bevel" stroke-miterlimit="10"/><path fill="blue" stroke="blue" paint-order="fill stroke markers" d=" M 158.52405748663102 162.54202878827402 A 1.5 1.5 0 1 1 158.52405673663108 162.54052878852403" fill-opacity="0.3" stroke-linejoin="bevel" stroke-miterlimit="10"/><path fill="blue" stroke="blue" paint-order="fill stroke markers" d=" M 159.8075 163.83650879307874 A 1.5 1.5 0 1 1 159.80749925000006 163.83500879332874" fill-opacity="0.3" stroke-linejoin="bevel" stroke-miterlimit="10"/><path fill="blue" stroke="blue" paint-order="fill stroke markers" d=" M 161.0908021390374 166.00613985190517 A 1.5 1.5 0 1 1 161.09080138903747 166.00463985215518" fill-opacity="0.3" stroke-linejoin="bevel" stroke-miterlimit="10"/><path fill="blue" stroke="blue" paint-order="fill stroke markers" d=" M 162.37410427807487 167.87701571017413 A 1.5 1.5 0 1 1 162.37410352807493 167.87551571042414" fill-opacity="0.3" stroke-linejoin="bevel" stroke-miterlimit="10"/><path fill="blue" stroke="blue" paint-order="fill stroke markers" d=" M 163.6574064171123 169.1239335195467 A 1.5 1.5 0 1 1 163.65740566711236 169.12243351979672" fill-opacity="0.3" stroke-linejoin="bevel" stroke-miterlimit="10"/><path fill="blue" stroke="blue" paint-order="fill stroke markers" d=" M 164.94070855614973 168.95788550730163 A 1.5 1.5 0 1 1 164.9407078061498 168.95638550755163" fill-opacity="0.3" stroke-linejoin="bevel" stroke-miterlimit="10"/><path fill="blue" stroke="blue" paint-order="fill stroke markers" d=" M 166.2241510695187 170.4889895667809 A 1.5 1.5 0 1 1 166.22415031951877 170.4874895670309" fill-opacity="0.3" stroke-linejoin="bevel" stroke-miterlimit="10"/><path fill="blue" stroke="blue" paint-order="fill stroke markers" d=" M 167.50745320855614 173.40692070503832 A 1.5 1.5 0 1 1 167.5074524585562 173.40542070528832" fill-opacity="0.3" stroke-linejoin="bevel" stroke-miterlimit="10"/><path fill="blue" stroke="blue" paint-order="fill stroke markers" d=" M 168.79075534759357 175.99802590146953 A 1.5 1.5 0 1 1 168.79075459759363 175.99652590171954" fill-opacity="0.3" stroke-linejoin="bevel" stroke-miterlimit="10"/><path fill="blue" stroke="blue" paint-order="fill stroke markers" d=" M 170.074057486631 178.13032445035924 A 1.5 1.5 0 1 1 170.07405673663106 178.12882445060924" fill-opacity="0.3" stroke-linejoin="bevel" stroke-miterlimit="10"/><path fill="blue" stroke="blue" paint-order="fill stroke markers" d=" M 171.35750000000002 179.1463599087415 A 1.5 1.5 0 1 1 171.35749925000007 179.1448599089915" fill-opacity="0.3" stroke-linejoin="bevel" stroke-miterlimit="10"/><path fill="blue" stroke="blue" paint-order="fill stroke markers" d=" M 172.64080213903742 180.45767636588675 A 1.5 1.5 0 1 1 172.64080138903748 180.45617636613676" fill-opacity="0.3" stroke-linejoin="bevel" stroke-miterlimit="10"/><path fill="blue" stroke="blue" paint-order="fill stroke markers" d=" M 173.92410427807488 181.45648514934084 A 1.5 1.5 0 1 1 173.92410352807494 181.45498514959084" fill-opacity="0.3" stroke-linejoin="bevel" stroke-miterlimit="10"/><path fill="blue" stroke="blue" paint-order="fill stroke markers" d=" M 175.20740641711228 183.88837433899243 A 1.5 1.5 0 1 1 175.20740566711234 183.88687433924244" fill-opacity="0.3" stroke-linejoin="bevel" stroke-miterlimit="10"/><path fill="blue" stroke="blue" paint-order="fill stroke markers" d=" M 176.4907085561497 185.62233307726046 A 1.5 1.5 0 1 1 176.49070780614977 185.62083307751047" fill-opacity="0.3" stroke-linejoin="bevel" stroke-miterlimit="10"/><path fill="blue" stroke="blue" paint-order="fill stroke markers" d=" M 177.77415106951872 187.2761778119102 A 1.5 1.5 0 1 1 177.77415031951878 187.2746778121602" fill-opacity="0.3" stroke-linejoin="bevel" stroke-miterlimit="10"/><path fill="blue" stroke="blue" paint-order="fill stroke markers" d=" M 179.05745320855615 188.49994783915866 A 1.5 1.5 0 1 1 179.0574524585562 188.49844783940867" fill-opacity="0.3" stroke-linejoin="bevel" stroke-miterlimit="10"/><path fill="blue" stroke="blue" paint-order="fill stroke markers" d=" M 180.34075534759356 190.05898728720723 A 1.5 1.5 0 1 1 180.34075459759362 190.05748728745723" fill-opacity="0.3" stroke-linejoin="bevel" stroke-miterlimit="10"/><path fill="blue" stroke="blue" paint-order="fill stroke markers" d=" M 181.624057486631 191.41818653218058 A 1.5 1.5 0 1 1 181.62405673663105 191.4166865324306" fill-opacity="0.3" stroke-linejoin="bevel" stroke-miterlimit="10"/><path fill="blue" stroke="blue" paint-order="fill stroke markers" d=" M 182.9075 193.71100762250092 A 1.5 1.5 0 1 1 182.90749925000006 193.70950762275092" fill-opacity="0.3" stroke-linejoin="bevel" stroke-miterlimit="10"/><path fill="blue" stroke="blue" paint-order="fill stroke markers" d=" M 184.19080213903743 195.43266408015216 A 1.5 1.5 0 1 1 184.1908013890375 195.43116408040217" fill-opacity="0.3" stroke-linejoin="bevel" stroke-miterlimit="10"/><path fill="blue" stroke="blue" paint-order="fill stroke markers" d=" M 185.47410427807486 196.66955480781724 A 1.5 1.5 0 1 1 185.47410352807492 196.66805480806724" fill-opacity="0.3" stroke-linejoin="bevel" stroke-miterlimit="10"/><path fill="blue" stroke="blue" paint-order="fill stroke markers" d=" M 186.7574064171123 198.14821238529424 A 1.5 1.5 0 1 1 186.75740566711235 198.14671238554425" fill-opacity="0.3" stroke-linejoin="bevel" stroke-miterlimit="10"/><path fill="blue" stroke="blue" paint-order="fill stroke markers" d=" M 188.0407085561497 199.01709283923776 A 1.5 1.5 0 1 1 188.04070780614975 199.01559283948777" fill-opacity="0.3" stroke-linejoin="bevel" stroke-miterlimit="10"/><path fill="blue" stroke="blue" paint-order="fill stroke markers" d=" M 189.32415106951873 201.13847127762062 A 1.5 1.5 0 1 1 189.3241503195188 201.13697127787063" fill-opacity="0.3" stroke-linejoin="bevel" stroke-miterlimit="10"/><path fill="blue" stroke="blue" paint-order="fill stroke markers" d=" M 190.60745320855614 202.65156326857476 A 1.5 1.5 0 1 1 190.6074524585562 202.65006326882477" fill-opacity="0.3" stroke-linejoin="bevel" stroke-miterlimit="10"/><path fill="blue" stroke="blue" paint-order="fill stroke markers" d=" M 191.89075534759357 203.38078031524577 A 1.5 1.5 0 1 1 191.89075459759363 203.37928031549578" fill-opacity="0.3" stroke-linejoin="bevel" stroke-miterlimit="10"/><path fill="blue" stroke="blue" paint-order="fill stroke markers" d=" M 193.174057486631 205.85482559593498 A 1.5 1.5 0 1 1 193.17405673663106 205.853325596185" fill-opacity="0.3" stroke-linejoin="bevel" stroke-miterlimit="10"/><path fill="blue" stroke="blue" paint-order="fill stroke markers" d=" M 194.45735962566846 207.64687920753522 A 1.5 1.5 0 1 1 194.45735887566852 207.64537920778523" fill-opacity="0.3" stroke-linejoin="bevel" stroke-miterlimit="10"/><path fill="blue" stroke="blue" paint-order="fill stroke markers" d=" M 195.7408021390374 208.89415762306902 A 1.5 1.5 0 1 1 195.74080138903747 208.89265762331902" fill-opacity="0.3" stroke-linejoin="bevel" stroke-miterlimit="10"/><path fill="blue" stroke="blue" paint-order="fill stroke markers" d=" M 197.02410427807484 210.28872941870492 A 1.5 1.5 0 1 1 197.0241035280749 210.28722941895492" fill-opacity="0.3" stroke-linejoin="bevel" stroke-miterlimit="10"/><path fill="blue" stroke="blue" paint-order="fill stroke markers" d=" M 198.3074064171123 212.10227619939235 A 1.5 1.5 0 1 1 198.30740566711236 212.10077619964235" fill-opacity="0.3" stroke-linejoin="bevel" stroke-miterlimit="10"/><path fill="blue" stroke="blue" paint-order="fill stroke markers" d=" M 199.5907085561497 213.5419958797752 A 1.5 1.5 0 1 1 199.59070780614977 213.5404958800252" fill-opacity="0.3" stroke-linejoin="bevel" stroke-miterlimit="10"/><path fill="blue" stroke="blue" paint-order="fill stroke markers" d=" M 200.8741510695187 214.81579820346604 A 1.5 1.5 0 1 1 200.87415031951875 214.81429820371605" fill-opacity="0.3" stroke-linejoin="bevel" stroke-miterlimit="10"/><path fill="blue" stroke="blue" paint-order="fill stroke markers" d=" M 202.15745320855615 216.2049194633126 A 1.5 1.5 0 1 1 202.1574524585562 216.2034194635626" fill-opacity="0.3" stroke-linejoin="bevel" stroke-miterlimit="10"/><path fill="blue" stroke="blue" paint-order="fill stroke markers" d=" M 203.44075534759355 217.53876457417044 A 1.5 1.5 0 1 1 203.4407545975936 217.53726457442045" fill-opacity="0.3" stroke-linejoin="bevel" stroke-miterlimit="10"/><path fill="blue" stroke="blue" paint-order="fill stroke markers" d=" M 204.724057486631 218.69896271000533 A 1.5 1.5 0 1 1 204.72405673663107 218.69746271025534" fill-opacity="0.3" stroke-linejoin="bevel" stroke-miterlimit="10"/><path fill="blue" stroke="blue" paint-order="fill stroke markers" d=" M 206.0073596256684 220.2467909815361 A 1.5 1.5 0 1 1 206.00735887566847 220.2452909817861" fill-opacity="0.3" stroke-linejoin="bevel" stroke-miterlimit="10"/><path fill="blue" stroke="blue" paint-order="fill stroke markers" d=" M 207.2908021390374 222.18804947287356 A 1.5 1.5 0 1 1 207.29080138903745 222.18654947312356" fill-opacity="0.3" stroke-linejoin="bevel" stroke-miterlimit="10"/><path fill="blue" stroke="blue" paint-order="fill stroke markers" d=" M 208.57410427807486 222.76112216030543 A 1.5 1.5 0 1 1 208.57410352807491 222.75962216055544" fill-opacity="0.3" stroke-linejoin="bevel" stroke-miterlimit="10"/><path fill="blue" stroke="blue" paint-order="fill stroke markers" d=" M 209.85740641711232 223.3054735162621 A 1.5 1.5 0 1 1 209.85740566711237 223.30397351651212" fill-opacity="0.3" stroke-linejoin="bevel" stroke-miterlimit="10"/><path fill="blue" stroke="blue" paint-order="fill stroke markers" d=" M 211.14070855614972 226.57636470205233 A 1.5 1.5 0 1 1 211.14070780614978 226.57486470230234" fill-opacity="0.3" stroke-linejoin="bevel" stroke-miterlimit="10"/><path fill="blue" stroke="blue" paint-order="fill stroke markers" d=" M 212.42372994652408 228.71991459616754 A 1.5 1.5 0 1 1 212.42372919652414 228.71841459641755" fill-opacity="0.3" stroke-linejoin="bevel" stroke-miterlimit="10"/><path fill="blue" stroke="blue" paint-order="fill stroke markers" d=" M 213.70675133689838 228.39452428826792 A 1.5 1.5 0 1 1 213.70675058689844 228.39302428851792" fill-opacity="0.3" stroke-linejoin="bevel" stroke-miterlimit="10"/><path fill="blue" stroke="blue" paint-order="fill stroke markers" d=" M 214.99117647058824 229.15937691757074 A 1.5 1.5 0 1 1 214.9911757205883 229.15787691782074" fill-opacity="0.3" stroke-linejoin="bevel" stroke-miterlimit="10"/><path fill="blue" stroke="blue" paint-order="fill stroke markers" d=" M 216.27419786096254 230.27284892967754 A 1.5 1.5 0 1 1 216.2741971109626 230.27134892992754" fill-opacity="0.3" stroke-linejoin="bevel" stroke-miterlimit="10"/><path fill="blue" stroke="blue" paint-order="fill stroke markers" d=" M 217.55721925133685 231.2202789945585 A 1.5 1.5 0 1 1 217.5572185013369 231.2187789948085" fill-opacity="0.3" stroke-linejoin="bevel" stroke-miterlimit="10"/><path fill="blue" stroke="blue" paint-order="fill stroke markers" d=" M 218.8402406417112 233.77792407905508 A 1.5 1.5 0 1 1 218.84023989171126 233.7764240793051" fill-opacity="0.3" stroke-linejoin="bevel" stroke-miterlimit="10"/><path fill="blue" stroke="blue" paint-order="fill stroke markers" d=" M 220.12466577540107 236.49809952478188 A 1.5 1.5 0 1 1 220.12466502540113 236.49659952503188" fill-opacity="0.3" stroke-linejoin="bevel" stroke-miterlimit="10"/><path fill="blue" stroke="blue" paint-order="fill stroke markers" d=" M 221.40768716577543 237.3222848219101 A 1.5 1.5 0 1 1 221.4076864157755 237.3207848221601" fill-opacity="0.3" stroke-linejoin="bevel" stroke-miterlimit="10"/><path fill="blue" stroke="blue" paint-order="fill stroke markers" d=" M 222.69070855614973 238.23053320698472 A 1.5 1.5 0 1 1 222.6907078061498 238.22903320723472" fill-opacity="0.3" stroke-linejoin="bevel" stroke-miterlimit="10"/><path fill="blue" stroke="blue" paint-order="fill stroke markers" d=" M 223.97372994652403 240.75077989106973 A 1.5 1.5 0 1 1 223.9737291965241 240.74927989131973" fill-opacity="0.3" stroke-linejoin="bevel" stroke-miterlimit="10"/><path fill="blue" stroke="blue" paint-order="fill stroke markers" d=" M 225.2567513368984 242.59089169311557 A 1.5 1.5 0 1 1 225.25675058689845 242.58939169336557" fill-opacity="0.3" stroke-linejoin="bevel" stroke-miterlimit="10"/><path fill="blue" stroke="blue" paint-order="fill stroke markers" d=" M 226.5411764705882 244.0083802726208 A 1.5 1.5 0 1 1 226.54117572058826 244.0068802728708" fill-opacity="0.3" stroke-linejoin="bevel" stroke-miterlimit="10"/><path fill="blue" stroke="blue" paint-order="fill stroke markers" d=" M 227.82419786096256 246.2759659001535 A 1.5 1.5 0 1 1 227.82419711096261 246.2744659004035" fill-opacity="0.3" stroke-linejoin="bevel" stroke-miterlimit="10"/><path fill="blue" stroke="blue" paint-order="fill stroke markers" d=" M 229.10721925133691 246.1099115807924 A 1.5 1.5 0 1 1 229.10721850133697 246.10841158104242" fill-opacity="0.3" stroke-linejoin="bevel" stroke-miterlimit="10"/><path fill="blue" stroke="blue" paint-order="fill stroke markers" d=" M 230.39024064171122 246.91854566079422 A 1.5 1.5 0 1 1 230.39023989171127 246.91704566104423" fill-opacity="0.3" stroke-linejoin="bevel" stroke-miterlimit="10"/><path fill="blue" stroke="blue" paint-order="fill stroke markers" d=" M 231.67466577540102 248.5428751267163 A 1.5 1.5 0 1 1 231.67466502540108 248.5413751269663" fill-opacity="0.3" stroke-linejoin="bevel" stroke-miterlimit="10"/><path fill="blue" stroke="blue" paint-order="fill stroke markers" d=" M 232.95768716577538 249.427063459034 A 1.5 1.5 0 1 1 232.95768641577544 249.425563459284" fill-opacity="0.3" stroke-linejoin="bevel" stroke-miterlimit="10"/><path fill="blue" stroke="blue" paint-order="fill stroke markers" d=" M 234.24070855614974 250.85660664260143 A 1.5 1.5 0 1 1 234.2407078061498 250.85510664285144" fill-opacity="0.3" stroke-linejoin="bevel" stroke-miterlimit="10"/><path fill="blue" stroke="blue" paint-order="fill stroke markers" d=" M 235.52372994652404 252.62010935583078 A 1.5 1.5 0 1 1 235.5237291965241 252.61860935608078" fill-opacity="0.3" stroke-linejoin="bevel" stroke-miterlimit="10"/><path fill="blue" stroke="blue" paint-order="fill stroke markers" d=" M 236.8067513368984 254.94853777633256 A 1.5 1.5 0 1 1 236.80675058689846 254.94703777658256" fill-opacity="0.3" stroke-linejoin="bevel" stroke-miterlimit="10"/><path fill="blue" stroke="blue" paint-order="fill stroke markers" d=" M 238.0911764705882 256.07203181880163 A 1.5 1.5 0 1 1 238.09117572058827 256.0705318190516" fill-opacity="0.3" stroke-linejoin="bevel" stroke-miterlimit="10"/><path fill="blue" stroke="blue" paint-order="fill stroke markers" d=" M 239.37419786096257 257.0550968015479 A 1.5 1.5 0 1 1 239.37419711096263 257.0535968017979" fill-opacity="0.3" stroke-linejoin="bevel" stroke-miterlimit="10"/><path fill="blue" stroke="blue" paint-order="fill stroke markers" d=" M 240.65721925133687 257.34851912092563 A 1.5 1.5 0 1 1 240.65721850133693 257.3470191211756" fill-opacity="0.3" stroke-linejoin="bevel" stroke-miterlimit="10"/><path fill="blue" stroke="blue" paint-order="fill stroke markers" d=" M 241.94024064171117 258.4991017334067 A 1.5 1.5 0 1 1 241.94023989171123 258.49760173365667" fill-opacity="0.3" stroke-linejoin="bevel" stroke-miterlimit="10"/><path fill="blue" stroke="blue" paint-order="fill stroke markers" d=" M 243.22466577540104 259.7552717595902 A 1.5 1.5 0 1 1 243.2246650254011 259.75377175984016" fill-opacity="0.3" stroke-linejoin="bevel" stroke-miterlimit="10"/><path fill="blue" stroke="blue" paint-order="fill stroke markers" d=" M 244.5076871657754 260.7594427051465 A 1.5 1.5 0 1 1 244.50768641577545 260.7579427053965" fill-opacity="0.3" stroke-linejoin="bevel" stroke-miterlimit="10"/><path fill="blue" stroke="blue" paint-order="fill stroke markers" d=" M 245.7907085561497 262.5549796318822 A 1.5 1.5 0 1 1 245.79070780614975 262.55347963213217" fill-opacity="0.3" stroke-linejoin="bevel" stroke-miterlimit="10"/><path fill="blue" stroke="blue" paint-order="fill stroke markers" d=" M 247.07372994652405 262.69148321262986 A 1.5 1.5 0 1 1 247.0737291965241 262.68998321287984" fill-opacity="0.3" stroke-linejoin="bevel" stroke-miterlimit="10"/><path fill="blue" stroke="blue" paint-order="fill stroke markers" d=" M 248.35675133689836 264.29708648225125 A 1.5 1.5 0 1 1 248.35675058689841 264.2955864825012" fill-opacity="0.3" stroke-linejoin="bevel" stroke-miterlimit="10"/><path fill="blue" stroke="blue" paint-order="fill stroke markers" d=" M 249.64117647058822 265.8978768405882 A 1.5 1.5 0 1 1 249.64117572058828 265.8963768408382" fill-opacity="0.3" stroke-linejoin="bevel" stroke-miterlimit="10"/><path fill="blue" stroke="blue" paint-order="fill stroke markers" d=" M 250.92419786096252 266.55790180936464 A 1.5 1.5 0 1 1 250.92419711096258 266.5564018096146" fill-opacity="0.3" stroke-linejoin="bevel" stroke-miterlimit="10"/><path fill="blue" stroke="blue" paint-order="fill stroke markers" d=" M 252.20721925133688 268.6810029253966 A 1.5 1.5 0 1 1 252.20721850133694 268.6795029256466" fill-opacity="0.3" stroke-linejoin="bevel" stroke-miterlimit="10"/><path fill="blue" stroke="blue" paint-order="fill stroke markers" d=" M 253.49024064171118 271.504113603891 A 1.5 1.5 0 1 1 253.49023989171124 271.502613604141" fill-opacity="0.3" stroke-linejoin="bevel" stroke-miterlimit="10"/><path fill="blue" stroke="blue" paint-order="fill stroke markers" d=" M 254.77466577540105 272.51784480134813 A 1.5 1.5 0 1 1 254.7746650254011 272.5163448015981" fill-opacity="0.3" stroke-linejoin="bevel" stroke-miterlimit="10"/><path fill="blue" stroke="blue" paint-order="fill stroke markers" d=" M 256.05768716577535 271.87723038789716 A 1.5 1.5 0 1 1 256.05768641577544 271.87573038814713" fill-opacity="0.3" stroke-linejoin="bevel" stroke-miterlimit="10"/><path fill="blue" stroke="blue" paint-order="fill stroke markers" d=" M 257.3407085561497 273.6574448849791 A 1.5 1.5 0 1 1 257.3407078061498 273.6559448852291" fill-opacity="0.3" stroke-linejoin="bevel" stroke-miterlimit="10"/><path fill="blue" stroke="blue" paint-order="fill stroke markers" d=" M 258.623729946524 275.5038791551095 A 1.5 1.5 0 1 1 258.6237291965241 275.50237915535945" fill-opacity="0.3" stroke-linejoin="bevel" stroke-miterlimit="10"/><path fill="blue" stroke="blue" paint-order="fill stroke markers" d=" M 259.90675133689837 275.5293109850809 A 1.5 1.5 0 1 1 259.90675058689845 275.52781098533086" fill-opacity="0.3" stroke-linejoin="bevel" stroke-miterlimit="10"/><path fill="blue" stroke="blue" paint-order="fill stroke markers" d=" M 261.19117647058823 276.2541273263034 A 1.5 1.5 0 1 1 261.1911757205883 276.25262732655335" fill-opacity="0.3" stroke-linejoin="bevel" stroke-miterlimit="10"/><path fill="blue" stroke="blue" paint-order="fill stroke markers" d=" M 262.47419786096253 276.165433122964 A 1.5 1.5 0 1 1 262.4741971109626 276.16393312321395" fill-opacity="0.3" stroke-linejoin="bevel" stroke-miterlimit="10"/><path fill="blue" stroke="blue" paint-order="fill stroke markers" d=" M 263.7572192513369 277.0878163751988 A 1.5 1.5 0 1 1 263.757218501337 277.0863163754488" fill-opacity="0.3" stroke-linejoin="bevel" stroke-miterlimit="10"/><path fill="blue" stroke="blue" paint-order="fill stroke markers" d=" M 265.04024064171125 278.6896129794243 A 1.5 1.5 0 1 1 265.04023989171134 278.68811297967426" fill-opacity="0.3" stroke-linejoin="bevel" stroke-miterlimit="10"/><path fill="blue" stroke="blue" paint-order="fill stroke markers" d=" M 266.32466577540106 280.6210629024231 A 1.5 1.5 0 1 1 266.32466502540115 280.61956290267307" fill-opacity="0.3" stroke-linejoin="bevel" stroke-miterlimit="10"/><path fill="blue" stroke="blue" paint-order="fill stroke markers" d=" M 267.60768716577536 281.4266395611164 A 1.5 1.5 0 1 1 267.60768641577545 281.4251395613664" fill-opacity="0.3" stroke-linejoin="bevel" stroke-miterlimit="10"/><path fill="blue" stroke="blue" paint-order="fill stroke markers" d=" M 268.8907085561497 283.21772748185305 A 1.5 1.5 0 1 1 268.8907078061498 283.216227482103" fill-opacity="0.3" stroke-linejoin="bevel" stroke-miterlimit="10"/><path fill="blue" stroke="blue" paint-order="fill stroke markers" d=" M 270.1737299465241 284.8964198918293 A 1.5 1.5 0 1 1 270.17372919652416 284.89491989207926" fill-opacity="0.3" stroke-linejoin="bevel" stroke-miterlimit="10"/><path fill="blue" stroke="blue" paint-order="fill stroke markers" d=" M 271.4567513368984 286.16816054125877 A 1.5 1.5 0 1 1 271.45675058689847 286.16666054150875" fill-opacity="0.3" stroke-linejoin="bevel" stroke-miterlimit="10"/><path fill="blue" stroke="blue" paint-order="fill stroke markers" d=" M 272.74117647058824 287.5650507539309 A 1.5 1.5 0 1 1 272.74117572058833 287.5635507541809" fill-opacity="0.3" stroke-linejoin="bevel" stroke-miterlimit="10"/><path fill="blue" stroke="blue" paint-order="fill stroke markers" d=" M 274.02419786096254 285.0297020205798 A 1.5 1.5 0 1 1 274.02419711096263 285.0282020208298" fill-opacity="0.3" stroke-linejoin="bevel" stroke-miterlimit="10"/><path fill="blue" stroke="blue" paint-order="fill stroke markers" d=" M 275.30721925133685 284.400803984239 A 1.5 1.5 0 1 1 275.30721850133693 284.399303984489" fill-opacity="0.3" stroke-linejoin="bevel" stroke-miterlimit="10"/><path fill="blue" stroke="blue" paint-order="fill stroke markers" d=" M 276.5902406417112 286.23421221721526 A 1.5 1.5 0 1 1 276.5902398917113 286.23271221746523" fill-opacity="0.3" stroke-linejoin="bevel" stroke-miterlimit="10"/><path fill="blue" stroke="blue" paint-order="fill stroke markers" d=" M 277.874665775401 290.129701305422 A 1.5 1.5 0 1 1 277.8746650254011 290.12820130567195" fill-opacity="0.3" stroke-linejoin="bevel" stroke-miterlimit="10"/><path fill="blue" stroke="blue" paint-order="fill stroke markers" d=" M 279.15768716577537 293.2675670161409 A 1.5 1.5 0 1 1 279.15768641577546 293.2660670163909" fill-opacity="0.3" stroke-linejoin="bevel" stroke-miterlimit="10"/><path fill="blue" stroke="blue" paint-order="fill stroke markers" d=" M 280.4407085561497 293.09272606583033 A 1.5 1.5 0 1 1 280.44070780614976 293.0912260660803" fill-opacity="0.3" stroke-linejoin="bevel" stroke-miterlimit="10"/><path fill="blue" stroke="blue" paint-order="fill stroke markers" d=" M 281.72372994652403 296.94401017847014 A 1.5 1.5 0 1 1 281.7237291965241 296.9425101787201" fill-opacity="0.3" stroke-linejoin="bevel" stroke-miterlimit="10"/><path fill="blue" stroke="blue" paint-order="fill stroke markers" d=" M 283.0067513368984 300.24575119531266 A 1.5 1.5 0 1 1 283.0067505868985 300.24425119556264" fill-opacity="0.3" stroke-linejoin="bevel" stroke-miterlimit="10"/><path fill="blue" stroke="blue" paint-order="fill stroke markers" d=" M 284.29117647058825 300.58311252071417 A 1.5 1.5 0 1 1 284.29117572058834 300.58161252096414" fill-opacity="0.3" stroke-linejoin="bevel" stroke-miterlimit="10"/><path fill="blue" stroke="blue" paint-order="fill stroke markers" d=" M 285.57419786096256 299.0685823522403 A 1.5 1.5 0 1 1 285.57419711096264 299.0670823524903" fill-opacity="0.3" stroke-linejoin="bevel" stroke-miterlimit="10"/><path fill="blue" stroke="blue" paint-order="fill stroke markers" d=" M 286.85721925133686 297.60157087503757 A 1.5 1.5 0 1 1 286.85721850133694 297.60007087528754" fill-opacity="0.3" stroke-linejoin="bevel" stroke-miterlimit="10"/><path fill="blue" stroke="blue" paint-order="fill stroke markers" d=" M 288.1402406417112 300.2483370513886 A 1.5 1.5 0 1 1 288.1402398917113 300.2468370516386" fill-opacity="0.3" stroke-linejoin="bevel" stroke-miterlimit="10"/><path fill="blue" stroke="blue" paint-order="fill stroke markers" d=" M 289.4246657754011 301.54170924093256 A 1.5 1.5 0 1 1 289.42466502540117 301.54020924118254" fill-opacity="0.3" stroke-linejoin="bevel" stroke-miterlimit="10"/><path fill="blue" stroke="blue" paint-order="fill stroke markers" d=" M 290.7076871657754 300.3184231964578 A 1.5 1.5 0 1 1 290.70768641577547 300.31692319670776" fill-opacity="0.3" stroke-linejoin="bevel" stroke-miterlimit="10"/><path fill="blue" stroke="blue" paint-order="fill stroke markers" d=" M 291.9907085561497 302.80022575020286 A 1.5 1.5 0 1 1 291.99070780614977 302.79872575045283" fill-opacity="0.3" stroke-linejoin="bevel" stroke-miterlimit="10"/><path fill="blue" stroke="blue" paint-order="fill stroke markers" d=" M 293.27372994652404 305.4144075563342 A 1.5 1.5 0 1 1 293.27372919652413 305.4129075565842" fill-opacity="0.3" stroke-linejoin="bevel" stroke-miterlimit="10"/><path fill="blue" stroke="blue" paint-order="fill stroke markers" d=" M 294.55675133689834 307.7032433841079 A 1.5 1.5 0 1 1 294.55675058689843 307.7017433843579" fill-opacity="0.3" stroke-linejoin="bevel" stroke-miterlimit="10"/><path fill="blue" stroke="blue" paint-order="fill stroke markers" d=" M 295.8411764705882 310.41323136419095 A 1.5 1.5 0 1 1 295.8411757205883 310.4117313644409" fill-opacity="0.3" stroke-linejoin="bevel" stroke-miterlimit="10"/><path fill="blue" stroke="blue" paint-order="fill stroke markers" d=" M 297.1241978609625 311.8137369419078 A 1.5 1.5 0 1 1 297.1241971109626 311.81223694215777" fill-opacity="0.3" stroke-linejoin="bevel" stroke-miterlimit="10"/><path fill="blue" stroke="blue" paint-order="fill stroke markers" d=" M 298.40721925133687 311.49520584039436 A 1.5 1.5 0 1 1 298.40721850133696 311.49370584064434" fill-opacity="0.3" stroke-linejoin="bevel" stroke-miterlimit="10"/><path fill="blue" stroke="blue" paint-order="fill stroke markers" d=" M 299.69024064171117 313.267640156792 A 1.5 1.5 0 1 1 299.69023989171126 313.266140157042" fill-opacity="0.3" stroke-linejoin="bevel" stroke-miterlimit="10"/><path fill="blue" stroke="blue" paint-order="fill stroke markers" d=" M 300.97466577540104 313.72585205470955 A 1.5 1.5 0 1 1 300.9746650254011 313.7243520549595" fill-opacity="0.3" stroke-linejoin="bevel" stroke-miterlimit="10"/><path fill="blue" stroke="blue" paint-order="fill stroke markers" d=" M 302.2576871657754 315.0740041138272 A 1.5 1.5 0 1 1 302.2576864157755 315.07250411407716" fill-opacity="0.3" stroke-linejoin="bevel" stroke-miterlimit="10"/><path fill="blue" stroke="blue" paint-order="fill stroke markers" d=" M 303.5407085561497 317.07370313022426 A 1.5 1.5 0 1 1 303.5407078061498 317.07220313047424" fill-opacity="0.3" stroke-linejoin="bevel" stroke-miterlimit="10"/><path fill="blue" stroke="blue" paint-order="fill stroke markers" d=" M 304.82372994652405 317.8338552716234 A 1.5 1.5 0 1 1 304.82372919652414 317.8323552718734" fill-opacity="0.3" stroke-linejoin="bevel" stroke-miterlimit="10"/><path fill="blue" stroke="blue" paint-order="fill stroke markers" d=" M 306.1067513368984 319.6995491592111 A 1.5 1.5 0 1 1 306.1067505868985 319.69804915946105" fill-opacity="0.3" stroke-linejoin="bevel" stroke-miterlimit="10"/><path fill="blue" stroke="blue" paint-order="fill stroke markers" d=" M 307.3911764705882 324.1487617615426 A 1.5 1.5 0 1 1 307.3911757205883 324.14726176179255" fill-opacity="0.3" stroke-linejoin="bevel" stroke-miterlimit="10"/><path fill="blue" stroke="blue" paint-order="fill stroke markers" d=" M 308.6741978609626 323.74876828301456 A 1.5 1.5 0 1 1 308.67419711096267 323.74726828326453" fill-opacity="0.3" stroke-linejoin="bevel" stroke-miterlimit="10"/><path fill="blue" stroke="blue" paint-order="fill stroke markers" d=" M 309.9572192513369 325.9033462527761 A 1.5 1.5 0 1 1 309.95721850133697 325.90184625302606" fill-opacity="0.3" stroke-linejoin="bevel" stroke-miterlimit="10"/><path fill="blue" stroke="blue" paint-order="fill stroke markers" d=" M 311.2402406417112 327.4933959102475 A 1.5 1.5 0 1 1 311.24023989171127 327.4918959104975" fill-opacity="0.3" stroke-linejoin="bevel" stroke-miterlimit="10"/><path fill="blue" stroke="blue" paint-order="fill stroke markers" d=" M 312.52466577540105 326.9371499260426 A 1.5 1.5 0 1 1 312.52466502540113 326.93564992629257" fill-opacity="0.3" stroke-linejoin="bevel" stroke-miterlimit="10"/><path fill="blue" stroke="blue" paint-order="fill stroke markers" d=" M 313.80768716577535 327.35304033494225 A 1.5 1.5 0 1 1 313.80768641577544 327.3515403351922" fill-opacity="0.3" stroke-linejoin="bevel" stroke-miterlimit="10"/><path fill="blue" stroke="blue" paint-order="fill stroke markers" d=" M 315.0907085561497 325.143298564576 A 1.5 1.5 0 1 1 315.0907078061498 325.141798564826" fill-opacity="0.3" stroke-linejoin="bevel" stroke-miterlimit="10"/><path fill="blue" stroke="blue" paint-order="fill stroke markers" d=" M 316.373729946524 325.8954825745542 A 1.5 1.5 0 1 1 316.3737291965241 325.89398257480417" fill-opacity="0.3" stroke-linejoin="bevel" stroke-miterlimit="10"/><path fill="blue" stroke="blue" paint-order="fill stroke markers" d=" M 317.65675133689837 328.3108351018246 A 1.5 1.5 0 1 1 317.65675058689845 328.30933510207456" fill-opacity="0.3" stroke-linejoin="bevel" stroke-miterlimit="10"/><path fill="blue" stroke="blue" paint-order="fill stroke markers" d=" M 318.9411764705882 332.5808880688205 A 1.5 1.5 0 1 1 318.94117572058826 332.5793880690705" fill-opacity="0.3" stroke-linejoin="bevel" stroke-miterlimit="10"/><path fill="blue" stroke="blue" paint-order="fill stroke markers" d=" M 320.22419786096253 333.0395284831793 A 1.5 1.5 0 1 1 320.2241971109626 333.0380284834293" fill-opacity="0.3" stroke-linejoin="bevel" stroke-miterlimit="10"/><path fill="blue" stroke="blue" paint-order="fill stroke markers" d=" M 321.50721925133683 335.0920099351557 A 1.5 1.5 0 1 1 321.5072185013369 335.0905099354057" fill-opacity="0.3" stroke-linejoin="bevel" stroke-miterlimit="10"/><path fill="blue" stroke="blue" paint-order="fill stroke markers" d=" M 322.7902406417112 335.5944465125573 A 1.5 1.5 0 1 1 322.7902398917113 335.59294651280726" fill-opacity="0.3" stroke-linejoin="bevel" stroke-miterlimit="10"/><path fill="blue" stroke="blue" paint-order="fill stroke markers" d=" M 324.074665775401 334.4528759896626 A 1.5 1.5 0 1 1 324.0746650254011 334.45137598991255" fill-opacity="0.3" stroke-linejoin="bevel" stroke-miterlimit="10"/><path fill="blue" stroke="blue" paint-order="fill stroke markers" d=" M 325.3576871657754 336.12410546406113 A 1.5 1.5 0 1 1 325.3576864157755 336.1226054643111" fill-opacity="0.3" stroke-linejoin="bevel" stroke-miterlimit="10"/><path fill="blue" stroke="blue" paint-order="fill stroke markers" d=" M 326.6407085561497 336.24762990381504 A 1.5 1.5 0 1 1 326.6407078061498 336.246129904065" fill-opacity="0.3" stroke-linejoin="bevel" stroke-miterlimit="10"/><path fill="blue" stroke="blue" paint-order="fill stroke markers" d=" M 327.9237299465241 337.7856517520828 A 1.5 1.5 0 1 1 327.92372919652416 337.7841517523328" fill-opacity="0.3" stroke-linejoin="bevel" stroke-miterlimit="10"/><path fill="blue" stroke="blue" paint-order="fill stroke markers" d=" M 329.2067513368984 339.590829161173 A 1.5 1.5 0 1 1 329.20675058689847 339.589329161423" fill-opacity="0.3" stroke-linejoin="bevel" stroke-miterlimit="10"/><path fill="blue" stroke="blue" paint-order="fill stroke markers" d=" M 330.49117647058824 345.585492968184 A 1.5 1.5 0 1 1 330.49117572058833 345.58399296843396" fill-opacity="0.3" stroke-linejoin="bevel" stroke-miterlimit="10"/><path fill="blue" stroke="blue" paint-order="fill stroke markers" d=" M 331.77419786096254 342.098676999905 A 1.5 1.5 0 1 1 331.77419711096263 342.097177000155" fill-opacity="0.3" stroke-linejoin="bevel" stroke-miterlimit="10"/><path fill="blue" stroke="blue" paint-order="fill stroke markers" d=" M 333.0572192513369 346.9722074931476 A 1.5 1.5 0 1 1 333.057218501337 346.9707074933976" fill-opacity="0.3" stroke-linejoin="bevel" stroke-miterlimit="10"/><path fill="blue" stroke="blue" paint-order="fill stroke markers" d=" M 334.3402406417112 350.86161538770705 A 1.5 1.5 0 1 1 334.3402398917113 350.860115387957" fill-opacity="0.3" stroke-linejoin="bevel" stroke-miterlimit="10"/><path fill="blue" stroke="blue" paint-order="fill stroke markers" d=" M 335.62466577540107 347.094969348114 A 1.5 1.5 0 1 1 335.62466502540116 347.09346934836395" fill-opacity="0.3" stroke-linejoin="bevel" stroke-miterlimit="10"/><path fill="blue" stroke="blue" paint-order="fill stroke markers" d=" M 336.90768716577537 348.67587588834806 A 1.5 1.5 0 1 1 336.90768641577546 348.67437588859804" fill-opacity="0.3" stroke-linejoin="bevel" stroke-miterlimit="10"/><path fill="blue" stroke="blue" paint-order="fill stroke markers" d=" M 338.19070855614973 350.2570184969656 A 1.5 1.5 0 1 1 338.1907078061498 350.2555184972156" fill-opacity="0.3" stroke-linejoin="bevel" stroke-miterlimit="10"/><path fill="blue" stroke="blue" paint-order="fill stroke markers" d=" M 339.47372994652403 349.4559573198791 A 1.5 1.5 0 1 1 339.4737291965241 349.45445732012905" fill-opacity="0.3" stroke-linejoin="bevel" stroke-miterlimit="10"/><path fill="blue" stroke="blue" paint-order="fill stroke markers" d=" M 340.7567513368984 350.01712513614723 A 1.5 1.5 0 1 1 340.7567505868985 350.0156251363972" fill-opacity="0.3" stroke-linejoin="bevel" stroke-miterlimit="10"/><path fill="blue" stroke="blue" paint-order="fill stroke markers" d=" M 342.0411764705882 349.408414391338 A 1.5 1.5 0 1 1 342.0411757205883 349.406914391588" fill-opacity="0.3" stroke-linejoin="bevel" stroke-miterlimit="10"/><path fill="blue" stroke="blue" paint-order="fill stroke markers" d=" M 343.3241978609625 352.79708951893394 A 1.5 1.5 0 1 1 343.3241971109626 352.7955895191839" fill-opacity="0.3" stroke-linejoin="bevel" stroke-miterlimit="10"/><path fill="blue" stroke="blue" paint-order="fill stroke markers" d=" M 344.60721925133686 355.7507185735957 A 1.5 1.5 0 1 1 344.60721850133694 355.74921857384567" fill-opacity="0.3" stroke-linejoin="bevel" stroke-miterlimit="10"/><path fill="blue" stroke="blue" paint-order="fill stroke markers" d=" M 345.8902406417112 355.63604168566303 A 1.5 1.5 0 1 1 345.8902398917113 355.634541685913" fill-opacity="0.3" stroke-linejoin="bevel" stroke-miterlimit="10"/><path fill="blue" stroke="blue" paint-order="fill stroke markers" d=" M 347.1746657754011 351.980875957438 A 1.5 1.5 0 1 1 347.17466502540117 351.979375957688" fill-opacity="0.3" stroke-linejoin="bevel" stroke-miterlimit="10"/><path fill="blue" stroke="blue" paint-order="fill stroke markers" d=" M 348.4576871657754 349.38354376912935 A 1.5 1.5 0 1 1 348.45768641577547 349.3820437693793" fill-opacity="0.3" stroke-linejoin="bevel" stroke-miterlimit="10"/><path fill="blue" stroke="blue" paint-order="fill stroke markers" d=" M 349.7407085561497 353.9543780612976 A 1.5 1.5 0 1 1 349.74070780614977 353.95287806154755" fill-opacity="0.3" stroke-linejoin="bevel" stroke-miterlimit="10"/><path fill="blue" stroke="blue" paint-order="fill stroke markers" d=" M 351.02372994652404 358.05788824295354 A 1.5 1.5 0 1 1 351.02372919652413 358.0563882432035" fill-opacity="0.3" stroke-linejoin="bevel" stroke-miterlimit="10"/><path fill="blue" stroke="blue" paint-order="fill stroke markers" d=" M 352.3067513368984 361.29336018915734 A 1.5 1.5 0 1 1 352.3067505868985 361.2918601894073" fill-opacity="0.3" stroke-linejoin="bevel" stroke-miterlimit="10"/><path fill="blue" stroke="blue" paint-order="fill stroke markers" d=" M 353.59117647058827 357.67579367817905 A 1.5 1.5 0 1 1 353.59117572058835 357.674293678429" fill-opacity="0.3" stroke-linejoin="bevel" stroke-miterlimit="10"/><path fill="blue" stroke="blue" paint-order="fill stroke markers" d=" M 354.87419786096257 361.71621495007105 A 1.5 1.5 0 1 1 354.87419711096265 361.714714950321" fill-opacity="0.3" stroke-linejoin="bevel" stroke-miterlimit="10"/><path fill="blue" stroke="blue" paint-order="fill stroke markers" d=" M 356.15721925133687 363.57349913182964 A 1.5 1.5 0 1 1 356.15721850133696 363.5719991320796" fill-opacity="0.3" stroke-linejoin="bevel" stroke-miterlimit="10"/><path fill="blue" stroke="blue" paint-order="fill stroke markers" d=" M 357.4402406417112 362.69016393237405 A 1.5 1.5 0 1 1 357.4402398917113 362.688663932624" fill-opacity="0.3" stroke-linejoin="bevel" stroke-miterlimit="10"/><path fill="blue" stroke="blue" paint-order="fill stroke markers" d=" M 358.72466577540104 364.4470816618143 A 1.5 1.5 0 1 1 358.7246650254011 364.4455816620643" fill-opacity="0.3" stroke-linejoin="bevel" stroke-miterlimit="10"/><path fill="blue" stroke="blue" paint-order="fill stroke markers" d=" M 360.0076871657754 372.363413972643 A 1.5 1.5 0 1 1 360.0076864157755 372.361913972893" fill-opacity="0.3" stroke-linejoin="bevel" stroke-miterlimit="10"/><path fill="blue" stroke="blue" paint-order="fill stroke markers" d=" M 361.2907085561497 372.8606466412706 A 1.5 1.5 0 1 1 361.2907078061498 372.85914664152057" fill-opacity="0.3" stroke-linejoin="bevel" stroke-miterlimit="10"/><path fill="blue" stroke="blue" paint-order="fill stroke markers" d=" M 362.573729946524 370.5114602291394 A 1.5 1.5 0 1 1 362.5737291965241 370.5099602293894" fill-opacity="0.3" stroke-linejoin="bevel" stroke-miterlimit="10"/><path fill="blue" stroke="blue" paint-order="fill stroke markers" d=" M 363.85675133689836 365.5066195842786 A 1.5 1.5 0 1 1 363.85675058689844 365.5051195845286" fill-opacity="0.3" stroke-linejoin="bevel" stroke-miterlimit="10"/><path fill="blue" stroke="blue" paint-order="fill stroke markers" d=" M 365.14117647058816 366.1052673842003 A 1.5 1.5 0 1 1 365.14117572058825 366.1037673844503" fill-opacity="0.3" stroke-linejoin="bevel" stroke-miterlimit="10"/><path fill="blue" stroke="blue" paint-order="fill stroke markers" d=" M 366.42419786096247 371.81888239295165 A 1.5 1.5 0 1 1 366.42419711096255 371.8173823932016" fill-opacity="0.3" stroke-linejoin="bevel" stroke-miterlimit="10"/><path fill="blue" stroke="blue" paint-order="fill stroke markers" d=" M 367.7072192513369 373.3060064168458 A 1.5 1.5 0 1 1 367.70721850133697 373.30450641709575" fill-opacity="0.3" stroke-linejoin="bevel" stroke-miterlimit="10"/><path fill="blue" stroke="blue" paint-order="fill stroke markers" d=" M 368.9902406417112 372.4884704042082 A 1.5 1.5 0 1 1 368.99023989171127 372.4869704044582" fill-opacity="0.3" stroke-linejoin="bevel" stroke-miterlimit="10"/><path fill="blue" stroke="blue" paint-order="fill stroke markers" d=" M 370.27466577540105 372.48308102611963 A 1.5 1.5 0 1 1 370.27466502540113 372.4815810263696" fill-opacity="0.3" stroke-linejoin="bevel" stroke-miterlimit="10"/><path fill="blue" stroke="blue" paint-order="fill stroke markers" d=" M 371.55768716577535 372.9612013753727 A 1.5 1.5 0 1 1 371.55768641577544 372.95970137562267" fill-opacity="0.3" stroke-linejoin="bevel" stroke-miterlimit="10"/><path fill="blue" stroke="blue" paint-order="fill stroke markers" d=" M 372.84070855614976 376.42883220793 A 1.5 1.5 0 1 1 372.84070780614985 376.42733220817996" fill-opacity="0.3" stroke-linejoin="bevel" stroke-miterlimit="10"/><path fill="blue" stroke="blue" paint-order="fill stroke markers" d=" M 374.12372994652407 370.55408286803987 A 1.5 1.5 0 1 1 374.12372919652415 370.55258286828985" fill-opacity="0.3" stroke-linejoin="bevel" stroke-miterlimit="10"/><path fill="blue" stroke="blue" paint-order="fill stroke markers" d=" M 375.40675133689837 375.18919239063814 A 1.5 1.5 0 1 1 375.40675058689845 375.1876923908881" fill-opacity="0.3" stroke-linejoin="bevel" stroke-miterlimit="10"/><path fill="blue" stroke="blue" paint-order="fill stroke markers" d=" M 376.69117647058823 377.25052447745213 A 1.5 1.5 0 1 1 376.6911757205883 377.2490244777021" fill-opacity="0.3" stroke-linejoin="bevel" stroke-miterlimit="10"/><path fill="blue" stroke="blue" paint-order="fill stroke markers" d=" M 377.97419786096253 377.70918756277035 A 1.5 1.5 0 1 1 377.9741971109626 377.70768756302033" fill-opacity="0.3" stroke-linejoin="bevel" stroke-miterlimit="10"/><path fill="blue" stroke="blue" paint-order="fill stroke markers" d=" M 379.25721925133683 374.05402586390676 A 1.5 1.5 0 1 1 379.2572185013369 374.05252586415673" fill-opacity="0.3" stroke-linejoin="bevel" stroke-miterlimit="10"/><path fill="blue" stroke="blue" paint-order="fill stroke markers" d=" M 380.5402406417112 374.17144615756354 A 1.5 1.5 0 1 1 380.5402398917113 374.1699461578135" fill-opacity="0.3" stroke-linejoin="bevel" stroke-miterlimit="10"/><path fill="blue" stroke="blue" paint-order="fill stroke markers" d=" M 381.824665775401 373.04318706194107 A 1.5 1.5 0 1 1 381.8246650254011 373.04168706219104" fill-opacity="0.3" stroke-linejoin="bevel" stroke-miterlimit="10"/><path fill="blue" stroke="blue" paint-order="fill stroke markers" d=" M 383.10768716577536 375.8712530123323 A 1.5 1.5 0 1 1 383.10768641577545 375.8697530125823" fill-opacity="0.3" stroke-linejoin="bevel" stroke-miterlimit="10"/><path fill="blue" stroke="blue" paint-order="fill stroke markers" d=" M 384.3907085561497 373.850797260825 A 1.5 1.5 0 1 1 384.3907078061498 373.849297261075" fill-opacity="0.3" stroke-linejoin="bevel" stroke-miterlimit="10"/><path fill="blue" stroke="blue" paint-order="fill stroke markers" d=" M 385.673729946524 370.85075642346396 A 1.5 1.5 0 1 1 385.6737291965241 370.84925642371394" fill-opacity="0.3" stroke-linejoin="bevel" stroke-miterlimit="10"/><path fill="blue" stroke="blue" paint-order="fill stroke markers" d=" M 386.9567513368984 374.6977436033665 A 1.5 1.5 0 1 1 386.95675058689847 374.6962436036165" fill-opacity="0.3" stroke-linejoin="bevel" stroke-miterlimit="10"/><path fill="blue" stroke="blue" paint-order="fill stroke markers" d=" M 388.2411764705882 377.42651304375084 A 1.5 1.5 0 1 1 388.2411757205883 377.4250130440008" fill-opacity="0.3" stroke-linejoin="bevel" stroke-miterlimit="10"/><path fill="blue" stroke="blue" paint-order="fill stroke markers" d=" M 389.52419786096254 383.1962298409313 A 1.5 1.5 0 1 1 389.52419711096263 383.1947298411813" fill-opacity="0.3" stroke-linejoin="bevel" stroke-miterlimit="10"/><path fill="blue" stroke="blue" paint-order="fill stroke markers" d=" M 390.8072192513369 390.1766640616719 A 1.5 1.5 0 1 1 390.807218501337 390.17516406192186" fill-opacity="0.3" stroke-linejoin="bevel" stroke-miterlimit="10"/><path fill="blue" stroke="blue" paint-order="fill stroke markers" d=" M 392.0902406417112 391.0847210014427 A 1.5 1.5 0 1 1 392.0902398917113 391.08322100169266" fill-opacity="0.3" stroke-linejoin="bevel" stroke-miterlimit="10"/><path fill="blue" stroke="blue" paint-order="fill stroke markers" d=" M 393.37466577540107 389.9563752615337 A 1.5 1.5 0 1 1 393.37466502540116 389.9548752617837" fill-opacity="0.3" stroke-linejoin="bevel" stroke-miterlimit="10"/><path fill="blue" stroke="blue" paint-order="fill stroke markers" d=" M 394.65768716577537 391.70657137572505 A 1.5 1.5 0 1 1 394.65768641577546 391.705071375975" fill-opacity="0.3" stroke-linejoin="bevel" stroke-miterlimit="10"/><path fill="blue" stroke="blue" paint-order="fill stroke markers" d=" M 395.94070855614973 386.0999518327034 A 1.5 1.5 0 1 1 395.9407078061498 386.0984518329534" fill-opacity="0.3" stroke-linejoin="bevel" stroke-miterlimit="10"/><path fill="blue" stroke="blue" paint-order="fill stroke markers" d=" M 397.22372994652403 382.718952082045 A 1.5 1.5 0 1 1 397.2237291965241 382.717452082295" fill-opacity="0.3" stroke-linejoin="bevel" stroke-miterlimit="10"/><path fill="blue" stroke="blue" paint-order="fill stroke markers" d=" M 398.50675133689833 395.41571946759643 A 1.5 1.5 0 1 1 398.5067505868984 395.4142194678464" fill-opacity="0.3" stroke-linejoin="bevel" stroke-miterlimit="10"/><path fill="blue" stroke="blue" paint-order="fill stroke markers" d=" M 399.7911764705882 391.0672012767634 A 1.5 1.5 0 1 1 399.7911757205883 391.0657012770134" fill-opacity="0.3" stroke-linejoin="bevel" stroke-miterlimit="10"/><path fill="blue" stroke="blue" paint-order="fill stroke markers" d=" M 401.0741978609625 386.2880183273537 A 1.5 1.5 0 1 1 401.0741971109626 386.2865183276037" fill-opacity="0.3" stroke-linejoin="bevel" stroke-miterlimit="10"/><path fill="blue" stroke="blue" paint-order="fill stroke markers" d=" M 402.35721925133686 389.2047705396214 A 1.5 1.5 0 1 1 402.35721850133694 389.20327053987137" fill-opacity="0.3" stroke-linejoin="bevel" stroke-miterlimit="10"/><path fill="blue" stroke="blue" paint-order="fill stroke markers" d=" M 403.6402406417112 389.7292268002721 A 1.5 1.5 0 1 1 403.6402398917113 389.7277268005221" fill-opacity="0.3" stroke-linejoin="bevel" stroke-miterlimit="10"/><path fill="blue" stroke="blue" paint-order="fill stroke markers" d=" M 404.924665775401 387.9283751204184 A 1.5 1.5 0 1 1 404.9246650254011 387.9268751206684" fill-opacity="0.3" stroke-linejoin="bevel" stroke-miterlimit="10"/><path fill="blue" stroke="blue" paint-order="fill stroke markers" d=" M 406.2076871657754 387.7946599353787 A 1.5 1.5 0 1 1 406.20768641577547 387.7931599356287" fill-opacity="0.3" stroke-linejoin="bevel" stroke-miterlimit="10"/><path fill="blue" stroke="blue" paint-order="fill stroke markers" d=" M 407.4907085561497 389.6312271116087 A 1.5 1.5 0 1 1 407.49070780614977 389.6297271118587" fill-opacity="0.3" stroke-linejoin="bevel" stroke-miterlimit="10"/><path fill="blue" stroke="blue" paint-order="fill stroke markers" d=" M 408.77372994652404 393.3249291355962 A 1.5 1.5 0 1 1 408.77372919652413 393.3234291358462" fill-opacity="0.3" stroke-linejoin="bevel" stroke-miterlimit="10"/><path fill="blue" stroke="blue" paint-order="fill stroke markers" d=" M 410.05675133689834 395.0476491861366 A 1.5 1.5 0 1 1 410.05675058689843 395.0461491863866" fill-opacity="0.3" stroke-linejoin="bevel" stroke-miterlimit="10"/><path fill="blue" stroke="blue" paint-order="fill stroke markers" d=" M 411.34117647058815 394.5472770086409 A 1.5 1.5 0 1 1 411.34117572058824 394.54577700889087" fill-opacity="0.3" stroke-linejoin="bevel" stroke-miterlimit="10"/><path fill="blue" stroke="blue" paint-order="fill stroke markers" d=" M 412.62419786096257 403.35034261661326 A 1.5 1.5 0 1 1 412.62419711096265 403.34884261686324" fill-opacity="0.3" stroke-linejoin="bevel" stroke-miterlimit="10"/><path fill="blue" stroke="blue" paint-order="fill stroke markers" d=" M 413.90721925133687 400.4901714928561 A 1.5 1.5 0 1 1 413.90721850133696 400.4886714931061" fill-opacity="0.3" stroke-linejoin="bevel" stroke-miterlimit="10"/><path fill="blue" stroke="blue" paint-order="fill stroke markers" d=" M 415.19024064171117 402.943453622582 A 1.5 1.5 0 1 1 415.19023989171126 402.941953622832" fill-opacity="0.3" stroke-linejoin="bevel" stroke-miterlimit="10"/><path fill="blue" stroke="blue" paint-order="fill stroke markers" d=" M 416.47466577540104 401.6961495443214 A 1.5 1.5 0 1 1 416.4746650254011 401.69464954457135" fill-opacity="0.3" stroke-linejoin="bevel" stroke-miterlimit="10"/><path fill="blue" stroke="blue" paint-order="fill stroke markers" d=" M 417.75768716577534 394.8852726561412 A 1.5 1.5 0 1 1 417.7576864157754 394.88377265639116" fill-opacity="0.3" stroke-linejoin="bevel" stroke-miterlimit="10"/><path fill="blue" stroke="blue" paint-order="fill stroke markers" d=" M 419.0407085561497 396.7253690628319 A 1.5 1.5 0 1 1 419.0407078061498 396.72386906308185" fill-opacity="0.3" stroke-linejoin="bevel" stroke-miterlimit="10"/><path fill="blue" stroke="blue" paint-order="fill stroke markers" d=" M 420.32372994652405 392.0251670558438 A 1.5 1.5 0 1 1 420.32372919652414 392.02366705609376" fill-opacity="0.3" stroke-linejoin="bevel" stroke-miterlimit="10"/><path fill="blue" stroke="blue" paint-order="fill stroke markers" d=" M 421.6067513368983 396.3168571824687 A 1.5 1.5 0 1 1 421.6067505868984 396.3153571827187" fill-opacity="0.3" stroke-linejoin="bevel" stroke-miterlimit="10"/><path fill="blue" stroke="blue" paint-order="fill stroke markers" d=" M 422.89117647058816 395.6179830870289 A 1.5 1.5 0 1 1 422.89117572058825 395.6164830872789" fill-opacity="0.3" stroke-linejoin="bevel" stroke-miterlimit="10"/><path fill="blue" stroke="blue" paint-order="fill stroke markers" d=" M 424.1741978609625 397.84877603603707 A 1.5 1.5 0 1 1 424.1741971109626 397.84727603628704" fill-opacity="0.3" stroke-linejoin="bevel" stroke-miterlimit="10"/><path fill="blue" stroke="blue" paint-order="fill stroke markers" d=" M 425.45721925133694 405.56618885778516 A 1.5 1.5 0 1 1 425.457218501337 405.56468885803514" fill-opacity="0.3" stroke-linejoin="bevel" stroke-miterlimit="10"/><path fill="blue" stroke="blue" paint-order="fill stroke markers" d=" M 426.7402406417112 404.3818815069942 A 1.5 1.5 0 1 1 426.74023989171127 404.3803815072442" fill-opacity="0.3" stroke-linejoin="bevel" stroke-miterlimit="10"/><path fill="blue" stroke="blue" paint-order="fill stroke markers" d=" M 428.02466577540105 404.93384305967544 A 1.5 1.5 0 1 1 428.02466502540113 404.9323430599254" fill-opacity="0.3" stroke-linejoin="bevel" stroke-miterlimit="10"/><path fill="blue" stroke="blue" paint-order="fill stroke markers" d=" M 429.3076871657754 404.9611893597664 A 1.5 1.5 0 1 1 429.3076864157755 404.9596893600164" fill-opacity="0.3" stroke-linejoin="bevel" stroke-miterlimit="10"/><path fill="blue" stroke="blue" paint-order="fill stroke markers" d=" M 430.59070855614965 405.97940616954213 A 1.5 1.5 0 1 1 430.59070780614974 405.9779061697921" fill-opacity="0.3" stroke-linejoin="bevel" stroke-miterlimit="10"/><path fill="blue" stroke="blue" paint-order="fill stroke markers" d=" M 431.87372994652407 409.54704121595694 A 1.5 1.5 0 1 1 431.87372919652415 409.5455412162069" fill-opacity="0.3" stroke-linejoin="bevel" stroke-miterlimit="10"/><path fill="blue" stroke="blue" paint-order="fill stroke markers" d=" M 433.1567513368983 414.87846974103763 A 1.5 1.5 0 1 1 433.1567505868984 414.8769697412876" fill-opacity="0.3" stroke-linejoin="bevel" stroke-miterlimit="10"/><path fill="blue" stroke="blue" paint-order="fill stroke markers" d=" M 434.4411764705881 409.89611438973 A 1.5 1.5 0 1 1 434.4411757205882 409.89461438997995" fill-opacity="0.3" stroke-linejoin="bevel" stroke-miterlimit="10"/><path fill="blue" stroke="blue" paint-order="fill stroke markers" d=" M 435.72419786096253 410.6331650995245 A 1.5 1.5 0 1 1 435.7241971109626 410.63166509977447" fill-opacity="0.3" stroke-linejoin="bevel" stroke-miterlimit="10"/><path fill="blue" stroke="blue" paint-order="fill stroke markers" d=" M 437.00721925133683 407.4193671138845 A 1.5 1.5 0 1 1 437.0072185013369 407.4178671141345" fill-opacity="0.3" stroke-linejoin="bevel" stroke-miterlimit="10"/><path fill="blue" stroke="blue" paint-order="fill stroke markers" d=" M 438.2902406417112 406.51140253841305 A 1.5 1.5 0 1 1 438.2902398917113 406.509902538663" fill-opacity="0.3" stroke-linejoin="bevel" stroke-miterlimit="10"/><path fill="blue" stroke="blue" paint-order="fill stroke markers" d=" M 439.574665775401 411.3417589442934 A 1.5 1.5 0 1 1 439.5746650254011 411.3402589445434" fill-opacity="0.3" stroke-linejoin="bevel" stroke-miterlimit="10"/><path fill="blue" stroke="blue" paint-order="fill stroke markers" d=" M 440.8576871657753 415.097082797021 A 1.5 1.5 0 1 1 440.8576864157754 415.095582797271" fill-opacity="0.3" stroke-linejoin="bevel" stroke-miterlimit="10"/><path fill="blue" stroke="blue" paint-order="fill stroke markers" d=" M 442.1407085561497 420.5454545454545 A 1.5 1.5 0 1 1 442.1407078061498 420.5439545457045" fill-opacity="0.3" stroke-linejoin="bevel" stroke-miterlimit="10"/><path fill="blue" stroke="blue" paint-order="fill stroke markers" d=" M 443.42372994652396 414.7344156529206 A 1.5 1.5 0 1 1 443.42372919652405 414.73291565317055" fill-opacity="0.3" stroke-linejoin="bevel" stroke-miterlimit="10"/><path fill="blue" stroke="blue" paint-order="fill stroke markers" d=" M 444.7067513368984 404.8793616289831 A 1.5 1.5 0 1 1 444.70675058689847 404.87786162923305" fill-opacity="0.3" stroke-linejoin="bevel" stroke-miterlimit="10"/><path fill="blue" stroke="blue" paint-order="fill stroke markers" d=" M 445.9911764705882 405.9840253082126 A 1.5 1.5 0 1 1 445.9911757205883 405.9825253084626" fill-opacity="0.3" stroke-linejoin="bevel" stroke-miterlimit="10"/><path fill="blue" stroke="blue" paint-order="fill stroke markers" d=" M 447.2741978609626 408.4559408888549 A 1.5 1.5 0 1 1 447.2741971109627 408.4544408891049" fill-opacity="0.3" stroke-linejoin="bevel" stroke-miterlimit="10"/><path fill="blue" stroke="blue" paint-order="fill stroke markers" d=" M 448.55721925133685 414.54355168532226 A 1.5 1.5 0 1 1 448.55721850133693 414.54205168557223" fill-opacity="0.3" stroke-linejoin="bevel" stroke-miterlimit="10"/></g></g></g><g clip-path="url(#lnhtHGzOeFoO)"><g><g><path fill="none" stroke="none"/><path fill="none" stroke="red" paint-order="fill stroke markers" d=" M 69.09090909090911 51.454545454545496 L 70.41870989304815 51.51090317201954 L 71.74679144385028 51.65197759361297 L 73.07473262032087 51.90656254669841 L 74.40267379679146 52.24731943752499 L 75.72921122994654 52.68492971689341 L 77.05715240641713 53.23064745206568 L 78.38509358288772 53.86738485535932 L 79.71303475935831 54.597378012012996 L 81.0409759358289 55.42324371293785 L 82.36891711229948 56.3380095036174 L 83.68983957219253 57.34476123074819 L 85.02339572192514 58.446993890241515 L 86.35695187165777 59.63821665115728 L 87.6764705882353 60.91174200057321 L 89.01002673796793 62.271389557535144 L 90.28743315508022 63.66639154219001 L 91.57887700534761 65.13186564826589 L 92.85628342245991 66.67139742164369 L 94.14772727272728 68.28892095965972 L 95.42513368983958 69.96489546275501 L 96.70254010695189 71.7024375318473 L 97.99398395721926 73.50493651914383 L 99.27139037433156 75.36329070763958 L 100.56283422459893 77.28056567338035 L 101.84024064171123 79.24663481787996 L 103.11764705882354 81.25023728151086 L 104.40909090909092 83.30718827537856 L 105.68649732620321 85.40583396848291 L 106.97794117647061 87.53312189023069 L 108.2553475935829 89.68983730379693 L 109.54679144385028 91.87679788698728 L 110.82419786096258 94.07855140930229 L 112.10160427807487 96.29455148756682 L 113.39304812834226 98.54144448897165 L 114.67045454545456 100.78449167204604 L 115.96189839572193 103.02136804095181 L 117.23930481283423 105.2683960747924 L 118.5307486631016 107.50511619859014 L 119.80815508021391 109.72863523115973 L 121.08556149732621 111.93583992636945 L 122.37700534759358 114.12339030402882 L 123.6544117647059 116.30944946356561 L 124.94585561497325 118.44735005936451 L 126.22326203208557 120.57715098043798 L 127.50066844919786 122.64925832824315 L 128.79211229946526 124.72997903997475 L 130.06951871657753 126.74378562156011 L 131.36096256684493 128.73486163616553 L 132.6383689839572 130.70000594055614 L 133.9298128342246 132.6089934102199 L 135.2072192513369 134.51130281390687 L 136.4846256684492 136.3488540366019 L 137.77606951871658 138.1734592090396 L 139.05347593582889 139.9535867226715 L 140.34491978609628 141.71527272498508 L 141.62232620320856 143.4562639527257 L 142.91377005347596 145.17419885146103 L 144.19117647058823 146.8343312345329 L 145.46858288770053 148.49794153467167 L 146.7600267379679 150.1307798333553 L 148.03743315508024 151.76446962603933 L 149.32887700534758 153.36318775213311 L 150.6062834224599 154.99568927284867 L 151.88368983957218 156.59016871448898 L 153.17513368983958 158.18086530732865 L 154.4525401069519 159.76684252697044 L 155.74398395721926 161.34711134446042 L 157.02139037433156 162.92062875691812 L 158.31283422459893 164.52686196190768 L 159.59024064171123 166.08435094395975 L 160.86764705882354 167.71616050426093 L 162.1590909090909 169.29681296839254 L 163.4364973262032 170.91048171827794 L 164.7279411764706 172.51356703555075 L 166.00534759358288 174.15062253849908 L 167.29679144385028 175.77616865025533 L 168.57419786096256 177.43665393811682 L 169.85160427807486 179.0846079923939 L 171.14304812834223 180.71842865751972 L 172.42045454545453 182.33643615717176 L 173.7118983957219 183.98905605480564 L 174.98930481283423 185.67780163765354 L 176.28074866310158 187.34974686275524 L 177.5581550802139 189.0029561847839 L 178.8355614973262 190.63540598702292 L 180.12700534759358 192.30309559726902 L 181.40441176470588 193.88881445421515 L 182.69585561497325 195.56838134698722 L 183.97326203208556 197.1613663251968 L 185.25066844919786 198.7878902812625 L 186.54211229946523 200.38482672275092 L 187.81951871657753 201.94957963988338 L 189.11096256684493 203.546681151158 L 190.3883689839572 205.1088546293288 L 191.6798128342246 206.63325812564636 L 192.95721925133688 208.1169779111484 L 194.23462566844918 209.62975139129486 L 195.52606951871655 211.1727391695211 L 196.80347593582889 212.5958367520314 L 198.09491978609623 214.0456409286038 L 199.37232620320856 215.52317328117613 L 200.6637700534759 216.95749553940834 L 201.94117647058823 218.37005967711718 L 203.2185828877005 219.7757432778305 L 204.5100267379679 221.16523551939315 L 205.78743315508018 222.5457751828667 L 207.07887700534758 223.91641650195396 L 208.3562834224599 225.28508368312146 L 209.605614973262 226.64216064894504 L 210.86898395721926 228.00504428518616 L 212.27272727272725 229.35483101036994 L 213.53609625668452 230.6999482246622 L 214.79946524064172 232.0494503846412 L 216.06283422459893 233.40315067719445 L 217.32620320855614 234.75077831240674 L 218.58957219251334 236.10183313104466 L 219.85294117647055 237.44564737743434 L 221.2566844919786 238.80263745802353 L 222.5200534759358 240.1622850149854 L 223.78342245989307 241.51330974825896 L 225.04679144385022 242.8771937830482 L 226.3101604278075 244.24281273695118 L 227.5735294117647 245.5982340690353 L 228.8368983957219 246.9660647610948 L 230.2406417112299 248.3225299026255 L 231.50401069518716 249.69101852060277 L 232.76737967914437 251.04687236414196 L 234.03074866310158 252.40163344741165 L 235.29411764705884 253.7548150394187 L 236.55748663101605 255.10590573081913 L 237.82085561497325 256.4410335707496 L 239.22459893048125 257.7725046657331 L 240.4879679144385 259.09971915754704 L 241.75133689839572 260.4080122162604 L 243.01470588235293 261.7102869412091 L 244.27807486631013 262.99133651629734 L 245.5414438502674 264.26447111015875 L 246.8048128342246 265.5289352491381 L 248.2085561497326 266.78394549584954 L 249.47192513368987 268.01320029592245 L 250.73529411764702 269.23085505816067 L 251.99866310160422 270.4360384888194 L 253.2620320855615 271.6278529383437 L 254.5254010695187 272.8053749856832 L 255.7887700534759 273.96765618046356 L 257.19251336898395 275.13070538757836 L 258.45588235294116 276.27704937297506 L 259.71925133689837 277.40566978777514 L 260.9826203208556 278.5510225539584 L 262.2459893048128 279.65956648065156 L 263.50935828877004 280.78424849930565 L 264.77272727272725 281.90700300406985 L 266.17647058823525 283.0086929771907 L 267.4398395721925 284.12632066256174 L 268.7032085561497 285.24099372737516 L 269.9665775401069 286.3719851491679 L 271.22994652406413 287.49984509646555 L 272.4933155080214 288.6241876846477 L 273.7566844919786 289.7651350874442 L 275.16042780748666 290.90235269988744 L 276.4237967914438 292.0777065073677 L 277.68716577540107 293.2282737877218 L 278.9505347593582 294.41803183392835 L 280.2139037433155 295.60425924714514 L 281.4772727272727 296.7865034281387 L 282.7406417112299 298.0099541720652 L 284.00401069518716 299.22988800096596 L 285.40775401069516 300.44582284078973 L 286.67112299465236 301.68120149520485 L 287.9344919786096 302.9366559292451 L 289.19786096256684 304.18810738310844 L 290.46122994652404 305.4601647722944 L 291.72459893048125 306.7023883126062 L 292.98796791443846 307.99089440161316 L 294.3917112299465 309.2484120414095 L 295.6550802139037 310.5267375331978 L 296.9184491978609 311.7992669550408 L 298.1818181818182 313.03760746315845 L 299.4451871657754 314.29612091886474 L 300.7085561497326 315.57547546852516 L 301.9719251336898 316.81808780866606 L 303.37566844919786 318.0514075917332 L 304.63903743315507 319.2746570917261 L 305.9024064171122 320.48703245037893 L 307.1657754010695 321.68770389146874 L 308.42914438502675 322.84431471797956 L 309.6925133689839 324.01850461034195 L 310.95588235294116 325.1783484265617 L 312.35962566844916 326.3229180168958 L 313.62299465240636 327.45126245733604 L 314.8863636363636 328.5624091467474 L 316.1497326203208 329.65536508348964 L 317.41310160427804 330.72911832935006 L 318.67647058823525 331.78263966766156 L 319.93983957219245 332.8507262779133 L 321.3435828877005 333.8974388523098 L 322.6069518716577 334.92169483945077 L 323.8703208556149 335.9597128346554 L 325.1336898395722 336.9740429536198 L 326.3970588235294 337.9635554417508 L 327.6604278074866 338.9659062741226 L 328.9237967914438 339.94212641861776 L 330.3275401069518 340.93084012113906 L 331.59090909090907 341.93237131417993 L 332.8542780748663 342.906212371715 L 334.1176470588235 343.89248577830773 L 335.38101604278074 344.8915130734978 L 336.64438502673795 345.86119117204777 L 337.90775401069516 346.886175152099 L 339.3114973262032 347.83784158315564 L 340.5748663101604 348.84546107665506 L 341.8382352941176 349.8217260802485 L 343.1016042780749 350.81048579746164 L 344.36497326203204 351.81206420602393 L 345.6283422459893 352.8267980500741 L 346.8917112299465 353.8080012722605 L 348.2954545454545 354.80182675009985 L 349.55882352941177 355.76036304452487 L 350.8221925133689 356.77979204872076 L 352.0855614973262 357.713868747767 L 353.34893048128345 358.7094628642824 L 354.6122994652406 359.6673111215482 L 355.87566844919786 360.637184216578 L 357.27941176470586 361.56738048192756 L 358.54278074866306 362.5089132027624 L 359.8061497326203 363.40879976114866 L 361.06951871657753 364.319291812472 L 362.33288770053474 365.24064232020555 L 363.59625668449195 366.11794951088075 L 364.8596256684492 366.9495725492858 L 366.2633689839572 367.84661640708276 L 367.52673796791447 368.64016592238454 L 368.7901069518716 369.499541126917 L 370.0534759358289 370.25214463991006 L 371.3168449197861 371.070924809228 L 372.5802139037433 371.8390699101892 L 373.8435828877005 372.6149292277054 L 375.24732620320856 373.33808927483824 L 376.51069518716577 374.0680824314919 L 377.77406417112303 374.805039061994 L 379.03743315508024 375.486814346537 L 380.3008021390374 376.2374958894144 L 381.5641711229946 376.93208771735624 L 382.8275401069518 377.6329810829852 L 384.23128342245985 378.2757221802012 L 385.49465240641706 378.9889688550654 L 386.75802139037427 379.7088617192034 L 388.02139037433153 380.3691822712895 L 389.28475935828874 381.0351953121344 L 390.54812834224595 381.7069998433982 L 391.81149732620315 382.4527953471951 L 393.2152406417112 383.13709596166893 L 394.4786096256684 383.8275119441728 L 395.7419786096256 384.52415358309673 L 397.0053475935828 385.22713417751515 L 398.26871657754003 385.93657014777546 L 399.5320855614973 386.65258115121213 L 400.7954545454545 387.3752902032732 L 402.19919786096256 388.10482380436576 L 403.46256684491976 388.84131207274754 L 404.72593582887697 389.58488888381476 L 405.9893048128342 390.26028250867876 L 407.2526737967914 391.01771048020487 L 408.5160427807486 391.70580340934066 L 409.77941176470586 392.4698520315019 L 411.18315508021385 393.1867151833006 L 412.4465240641711 393.9023908991378 L 413.7098930481283 394.61678344302277 L 414.97326203208553 395.32174675593404 L 416.23663101604274 396.01695966611567 L 417.5 396.7020983286377 L 418.76336898395715 397.37683654135685 L 420.1671122994652 398.03251063942616 L 421.4304812834224 398.68539087087686 L 422.6938502673797 399.3268820038053 L 423.95721925133694 399.95665201856855 L 425.2205882352941 400.56575510523146 L 426.4839572192513 401.16233748500497 L 427.74732620320856 401.7460697570075 L 429.15106951871655 402.3254343926754 L 430.4144385026738 402.8825469950888 L 431.6778074866309 403.4347670226367 L 432.9411764705881 403.97295822227863 L 434.2045454545454 404.49679796456917 L 435.4679144385027 405.0150899047585 L 436.73128342245985 405.52769769999907 L 438.13502673796796 406.034484285016 L 439.39839572192506 406.53531195140636 L 440.66176470588226 407.03004243037446 L 441.9251336898395 407.51853697888964 L 443.18850267379673 408.010139932618 L 444.451871657754 408.5048911040517 L 445.71524064171115 408.9932249785863 L 447.11898395721914 409.48466520734956 L 448.3823529411764 409.9792515633105 L 449.64572192513367 410.48681697486506 L 450.9090909090909 410.98788171189005" stroke-linejoin="bevel" stroke-miterlimit="10" stroke-width="3"/></g></g></g><g clip-path="url(#rapDVZuZuvlv)"><g><g/><g><path fill="#ffffff" stroke="#e5e5e5" paint-order="fill stroke markers" d=" M 358.6166648864746 43 L 460 43 L 460 106 L 358.6166648864746 106 L 358.6166648864746 43 Z" fill-opacity="0.95" stroke-linejoin="bevel" stroke-miterlimit="10" stroke-opacity="0.5"/><text fill="#444444" stroke="none" font-family="helvetica" font-size="13px" font-style="normal" font-weight="normal" text-decoration="normal" x="393.6166648864746" y="63" text-anchor="start" dominant-baseline="central">Observed</text><path fill="blue" stroke="blue" paint-order="fill stroke markers" d=" M 382.6166648864746 63 A 4 4 0 1 1 382.6166628864748 62.99600000066666" fill-opacity="0.3" stroke-linejoin="bevel" stroke-miterlimit="10"/><text fill="#444444" stroke="none" font-family="helvetica" font-size="13px" font-style="normal" font-weight="normal" text-decoration="normal" x="393.6166648864746" y="86" text-anchor="start" dominant-baseline="central">Predicted</text><g><path fill="none" stroke="red" paint-order="fill stroke markers" d=" M 368.6166648864746 86 L 388.6166648864746 86" stroke-linejoin="bevel" stroke-miterlimit="10" stroke-width="3"/></g></g></g></g><g><g fill="#444444"><path fill="" stroke="none" d=""/><g transform="translate(260,5)"><path fill="none" stroke="none"/><text fill="" stroke="none" font-family="helvetica" font-size="12pt" font-style="normal" font-weight="bold" text-decoration="normal" x="0" y="0" text-anchor="middle" dominant-baseline="text-before-edge">P(r) extrapolated fit for SASDBZ9</text></g></g></g><g/><g><g fill="#444444"><path fill="none" stroke="black" paint-order="fill stroke markers" d=" M 50 439 L 470 439" stroke-linejoin="bevel" stroke-miterlimit="10"/><path fill="none" stroke="black" paint-order="fill stroke markers" d=" M 69 445 L 69 437" stroke-linejoin="bevel" stroke-miterlimit="10"/><path fill="none" stroke="black" paint-order="fill stroke markers" d=" M 139 445 L 139 437" stroke-linejoin="bevel" stroke-miterlimit="10"/><path fill="none" stroke="black" paint-order="fill stroke markers" d=" M 209 445 L 209 437" stroke-linejoin="bevel" stroke-miterlimit="10"/><path fill="none" stroke="black" paint-order="fill stroke markers" d=" M 280 445 L 280 437" stroke-linejoin="bevel" stroke-miterlimit="10"/><path fill="none" stroke="black" paint-order="fill stroke markers" d=" M 350 445 L 350 437" stroke-linejoin="bevel" stroke-miterlimit="10"/><path fill="none" stroke="black" paint-order="fill stroke markers" d=" M 420 445 L 420 437" stroke-linejoin="bevel" stroke-miterlimit="10"/><path fill="none" stroke="black" paint-order="fill stroke markers" d=" M 55 443 L 55 439" stroke-linejoin="bevel" stroke-miterlimit="10"/><path fill="none" stroke="black" paint-order="fill stroke markers" d=" M 69 443 L 69 439" stroke-linejoin="bevel" stroke-miterlimit="10"/><path fill="none" stroke="black" paint-order="fill stroke markers" d=" M 83 443 L 83 439" stroke-linejoin="bevel" stroke-miterlimit="10"/><path fill="none" stroke="black" paint-order="fill stroke markers" d=" M 97 443 L 97 439" stroke-linejoin="bevel" stroke-miterlimit="10"/><path fill="none" stroke="black" paint-order="fill stroke markers" d=" M 111 443 L 111 439" stroke-linejoin="bevel" stroke-miterlimit="10"/><path fill="none" stroke="black" paint-order="fill stroke markers" d=" M 125 443 L 125 439" stroke-linejoin="bevel" stroke-miterlimit="10"/><path fill="none" stroke="black" paint-order="fill stroke markers" d=" M 139 443 L 139 439" stroke-linejoin="bevel" stroke-miterlimit="10"/><path fill="none" stroke="black" paint-order="fill stroke markers" d=" M 153 443 L 153 439" stroke-linejoin="bevel" stroke-miterlimit="10"/><path fill="none" stroke="black" paint-order="fill stroke markers" d=" M 167 443 L 167 439" stroke-linejoin="bevel" stroke-miterlimit="10"/><path fill="none" stroke="black" paint-order="fill stroke markers" d=" M 181 443 L 181 439" stroke-linejoin="bevel" stroke-miterlimit="10"/><path fill="none" stroke="black" paint-order="fill stroke markers" d=" M 195 443 L 195 439" stroke-linejoin="bevel" stroke-miterlimit="10"/><path fill="none" stroke="black" paint-order="fill stroke markers" d=" M 209 443 L 209 439" stroke-linejoin="bevel" stroke-miterlimit="10"/><path fill="none" stroke="black" paint-order="fill stroke markers" d=" M 224 443 L 224 439" stroke-linejoin="bevel" stroke-miterlimit="10"/><path fill="none" stroke="black" paint-order="fill stroke markers" d=" M 238 443 L 238 439" stroke-linejoin="bevel" stroke-miterlimit="10"/><path fill="none" stroke="black" paint-order="fill stroke markers" d=" M 252 443 L 252 439" stroke-linejoin="bevel" stroke-miterlimit="10"/><path fill="none" stroke="black" paint-order="fill stroke markers" d=" M 266 443 L 266 439" stroke-linejoin="bevel" stroke-miterlimit="10"/><path fill="none" stroke="black" paint-order="fill stroke markers" d=" M 280 443 L 280 439" stroke-linejoin="bevel" stroke-miterlimit="10"/><path fill="none" stroke="black" paint-order="fill stroke markers" d=" M 294 443 L 294 439" stroke-linejoin="bevel" stroke-miterlimit="10"/><path fill="none" stroke="black" paint-order="fill stroke markers" d=" M 308 443 L 308 439" stroke-linejoin="bevel" stroke-miterlimit="10"/><path fill="none" stroke="black" paint-order="fill stroke markers" d=" M 322 443 L 322 439" stroke-linejoin="bevel" stroke-miterlimit="10"/><path fill="none" stroke="black" paint-order="fill stroke markers" d=" M 336 443 L 336 439" stroke-linejoin="bevel" stroke-miterlimit="10"/><path fill="none" stroke="black" paint-order="fill stroke markers" d=" M 350 443 L 350 439" stroke-linejoin="bevel" stroke-miterlimit="10"/><path fill="none" stroke="black" paint-order="fill stroke markers" d=" M 364 443 L 364 439" stroke-linejoin="bevel" stroke-miterlimit="10"/><path fill="none" stroke="black" paint-order="fill stroke markers" d=" M 378 443 L 378 439" stroke-linejoin="bevel" stroke-miterlimit="10"/><path fill="none" stroke="black" paint-order="fill stroke markers" d=" M 392 443 L 392 439" stroke-linejoin="bevel" stroke-miterlimit="10"/><path fill="none" stroke="black" paint-order="fill stroke markers" d=" M 406 443 L 406 439" stroke-linejoin="bevel" stroke-miterlimit="10"/><path fill="none" stroke="black" paint-order="fill stroke markers" d=" M 420 443 L 420 439" stroke-linejoin="bevel" stroke-miterlimit="10"/><path fill="none" stroke="black" paint-order="fill stroke markers" d=" M 434 443 L 434 439" stroke-linejoin="bevel" stroke-miterlimit="10"/><path fill="none" stroke="black" paint-order="fill stroke markers" d=" M 448 443 L 448 439" stroke-linejoin="bevel" stroke-miterlimit="10"/><path fill="" stroke="black" paint-order="fill stroke markers" d=" M 462 443 L 462 439" stroke-linejoin="bevel" stroke-miterlimit="10"/><g transform="translate(69,450) rotate(0,0,0)"><text fill="" stroke="none" font-family="helvetica" font-size="14pt" font-style="normal" font-weight="normal" text-decoration="normal" x="0" y="0" text-anchor="middle" dominant-baseline="hanging">0</text><g transform="rotate(0,0,0) translate(-69,-450) translate(139,450) rotate(0,0,0)"><text fill="" stroke="none" font-family="helvetica" font-size="14pt" font-style="normal" font-weight="normal" text-decoration="normal" x="0" y="0" text-anchor="middle" dominant-baseline="hanging">0.5</text><g transform="rotate(0,0,0) translate(-139,-450) translate(209,450) rotate(0,0,0)"><text fill="" stroke="none" font-family="helvetica" font-size="14pt" font-style="normal" font-weight="normal" text-decoration="normal" x="0" y="0" text-anchor="middle" dominant-baseline="hanging">1</text><g transform="rotate(0,0,0) translate(-209,-450) translate(280,450) rotate(0,0,0)"><text fill="" stroke="none" font-family="helvetica" font-size="14pt" font-style="normal" font-weight="normal" text-decoration="normal" x="0" y="0" text-anchor="middle" dominant-baseline="hanging">1.5</text><g transform="rotate(0,0,0) translate(-280,-450) translate(350,450) rotate(0,0,0)"><text fill="" stroke="none" font-family="helvetica" font-size="14pt" font-style="normal" font-weight="normal" text-decoration="normal" x="0" y="0" text-anchor="middle" dominant-baseline="hanging">2</text><g transform="rotate(0,0,0) translate(-350,-450) translate(420,450) rotate(0,0,0)"><text fill="" stroke="none" font-family="helvetica" font-size="14pt" font-style="normal" font-weight="normal" text-decoration="normal" x="0" y="0" text-anchor="middle" dominant-baseline="hanging">2.5</text><g transform="rotate(0,0,0) translate(-420,-450) translate(260,477) rotate(0,0,0)"><text fill="" stroke="none" font-family="helvetica" font-size="14pt" font-style="italic" font-weight="normal" text-decoration="normal" x="0" y="0" text-anchor="middle" dominant-baseline="hanging">q []</text><g transform="rotate(0,0,0) translate(-260,-477)"/></g></g></g></g></g></g></g></g></g><g><g fill="#444444"><path fill="none" stroke="black" paint-order="fill stroke markers" d=" M 50 439 L 50 33" stroke-linejoin="bevel" stroke-miterlimit="10"/><path fill="none" stroke="black" paint-order="fill stroke markers" d=" M 44 416 L 52 416" stroke-linejoin="bevel" stroke-miterlimit="10"/><path fill="none" stroke="black" paint-order="fill stroke markers" d=" M 44 338 L 52 338" stroke-linejoin="bevel" stroke-miterlimit="10"/><path fill="none" stroke="black" paint-order="fill stroke markers" d=" M 44 261 L 52 261" stroke-linejoin="bevel" stroke-miterlimit="10"/><path fill="none" stroke="black" paint-order="fill stroke markers" d=" M 44 184 L 52 184" stroke-linejoin="bevel" stroke-miterlimit="10"/><path fill="none" stroke="black" paint-order="fill stroke markers" d=" M 44 107 L 52 107" stroke-linejoin="bevel" stroke-miterlimit="10"/><path fill="none" stroke="black" paint-order="fill stroke markers" d=" M 46 431 L 50 431" stroke-linejoin="bevel" stroke-miterlimit="10"/><path fill="none" stroke="black" paint-order="fill stroke markers" d=" M 46 416 L 50 416" stroke-linejoin="bevel" stroke-miterlimit="10"/><path fill="none" stroke="black" paint-order="fill stroke markers" d=" M 46 400 L 50 400" stroke-linejoin="bevel" stroke-miterlimit="10"/><path fill="none" stroke="black" paint-order="fill stroke markers" d=" M 46 385 L 50 385" stroke-linejoin="bevel" stroke-miterlimit="10"/><path fill="none" stroke="black" paint-order="fill stroke markers" d=" M 46 369 L 50 369" stroke-linejoin="bevel" stroke-miterlimit="10"/><path fill="none" stroke="black" paint-order="fill stroke markers" d=" M 46 354 L 50 354" stroke-linejoin="bevel" stroke-miterlimit="10"/><path fill="none" stroke="black" paint-order="fill stroke markers" d=" M 46 338 L 50 338" stroke-linejoin="bevel" stroke-miterlimit="10"/><path fill="none" stroke="black" paint-order="fill stroke markers" d=" M 46 323 L 50 323" stroke-linejoin="bevel" stroke-miterlimit="10"/><path fill="none" stroke="black" paint-order="fill stroke markers" d=" M 46 307 L 50 307" stroke-linejoin="bevel" stroke-miterlimit="10"/><path fill="none" stroke="black" paint-order="fill stroke markers" d=" M 46 292 L 50 292" stroke-linejoin="bevel" stroke-miterlimit="10"/><path fill="none" stroke="black" paint-order="fill stroke markers" d=" M 46 276 L 50 276" stroke-linejoin="bevel" stroke-miterlimit="10"/><path fill="none" stroke="black" paint-order="fill stroke markers" d=" M 46 261 L 50 261" stroke-linejoin="bevel" stroke-miterlimit="10"/><path fill="none" stroke="black" paint-order="fill stroke markers" d=" M 46 246 L 50 246" stroke-linejoin="bevel" stroke-miterlimit="10"/><path fill="none" stroke="black" paint-order="fill stroke markers" d=" M 46 230 L 50 230" stroke-linejoin="bevel" stroke-miterlimit="10"/><path fill="none" stroke="black" paint-order="fill stroke markers" d=" M 46 215 L 50 215" stroke-linejoin="bevel" stroke-miterlimit="10"/><path fill="none" stroke="black" paint-order="fill stroke markers" d=" M 46 199 L 50 199" stroke-linejoin="bevel" stroke-miterlimit="10"/><path fill="none" stroke="black" paint-order="fill stroke markers" d=" M 46 184 L 50 184" stroke-linejoin="bevel" stroke-miterlimit="10"/><path fill="none" stroke="black" paint-order="fill stroke markers" d=" M 46 168 L 50 168" stroke-linejoin="bevel" stroke-miterlimit="10"/><path fill="none" stroke="black" paint-order="fill stroke markers" d=" M 46 153 L 50 153" stroke-linejoin="bevel" stroke-miterlimit="10"/><path fill="none" stroke="black" paint-order="fill stroke markers" d=" M 46 137 L 50 137" stroke-linejoin="bevel" stroke-miterlimit="10"/><path fill="none" stroke="black" paint-order="fill stroke markers" d=" M 46 122 L 50 122" stroke-linejoin="bevel" stroke-miterlimit="10"/><path fill="none" stroke="black" paint-order="fill stroke markers" d=" M 46 107 L 50 107" stroke-linejoin="bevel" stroke-miterlimit="10"/><path fill="none" stroke="black" paint-order="fill stroke markers" d=" M 46 91 L 50 91" stroke-linejoin="bevel" stroke-miterlimit="10"/><path fill="none" stroke="black" paint-order="fill stroke markers" d=" M 46 76 L 50 76" stroke-linejoin="bevel" stroke-miterlimit="10"/><path fill="none" stroke="black" paint-order="fill stroke markers" d=" M 46 60 L 50 60" stroke-linejoin="bevel" stroke-miterlimit="10"/><path fill="" stroke="black" paint-order="fill stroke markers" d=" M 46 45 L 50 45" stroke-linejoin="bevel" stroke-miterlimit="10"/><g transform="translate(39,416) rotate(0,0,0)"><text fill="" stroke="none" font-family="helvetica" font-size="14pt" font-style="normal" font-weight="normal" text-decoration="normal" x="0" y="0" text-anchor="end" dominant-baseline="central">2</text><g transform="rotate(0,0,0) translate(-39,-416) translate(39,338) rotate(0,0,0)"><text fill="" stroke="none" font-family="helvetica" font-size="14pt" font-style="normal" font-weight="normal" text-decoration="normal" x="0" y="0" text-anchor="end" dominant-baseline="central">3</text><g transform="rotate(0,0,0) translate(-39,-338) translate(39,261) rotate(0,0,0)"><text fill="" stroke="none" font-family="helvetica" font-size="14pt" font-style="normal" font-weight="normal" text-decoration="normal" x="0" y="0" text-anchor="end" dominant-baseline="central">4</text><g transform="rotate(0,0,0) translate(-39,-261) translate(39,184) rotate(0,0,0)"><text fill="" stroke="none" font-family="helvetica" font-size="14pt" font-style="normal" font-weight="normal" text-decoration="normal" x="0" y="0" text-anchor="end" dominant-baseline="central">5</text><g transform="rotate(0,0,0) translate(-39,-184) translate(39,107) rotate(0,0,0)"><text fill="" stroke="none" font-family="helvetica" font-size="14pt" font-style="normal" font-weight="normal" text-decoration="normal" x="0" y="0" text-anchor="end" dominant-baseline="central">6</text><g transform="rotate(0,0,0) translate(-39,-107) translate(23,236) rotate(-90,0,0)"><text fill="" stroke="none" font-family="helvetica" font-size="14pt" font-style="italic" font-weight="normal" text-decoration="normal" x="0" y="0" text-anchor="middle" dominant-baseline="alphabetic">Log I(q) [a.u]</text><g transform="rotate(90,0,0) translate(-23,-236)"/></g></g></g></g></g></g></g></g><g clip-path="url(#gmsXVUSxkzmn)"><g/></g></g></svg>