<svg version="1.1" xmlns="http://www.w3.org/2000/svg" xmlns:xlink="http://www.w3.org/1999/xlink" width="500" height="500"><defs><clipPath id="gKPvQuVwsMiP"><path fill="none" stroke="none" d="M 57.5 33.5 L 470.5 33.5 L 470.5 439.5 L 57.5 439.5 L 57.5 33.5"/></clipPath><clipPath id="SHTHLgDQqZLa"><path fill="none" stroke="none" d="M 57.5 33.5 L 470.5 33.5 L 470.5 439.5 L 57.5 439.5 L 57.5 33.5"/></clipPath><clipPath id="EhNKoJmkaHJa"><path fill="none" stroke="none" d="M 57.5 33.5 L 470.5 33.5 L 470.5 439.5 L 57.5 439.5 L 57.5 33.5"/></clipPath><clipPath id="DhbbnWXglWkg"><path fill="none" stroke="none" d="M 57.5 33.5 L 470.5 33.5 L 470.5 439.5 L 57.5 439.5 L 57.5 33.5"/></clipPath><clipPath id="ArTMTqQhNhIo"><path fill="none" stroke="none" d="M 57.5 33.5 L 470.5 33.5 L 470.5 439.5 L 57.5 439.5 L 57.5 33.5"/></clipPath></defs><path fill="rgb(255,255,255)" stroke="none" paint-order="stroke" d="M 0.5 0.5 L 500.5 0.5 L 500.5 500.5 L 0.5 500.5 L 0.5 0.5" fill-opacity="1"/><rect fill="#FFFFFF" stroke="none" x="57" y="33" width="413" height="406" transform="matrix(1, 0, 0, 1, 0.5, 0.5)"/><path fill="rgb(255,255,255)" stroke="none" paint-order="stroke" d="M 57.5 33.5 L 470.5 33.5 L 470.5 439.5 L 57.5 439.5 L 57.5 33.5" fill-opacity="1"/><path fill="none" stroke="rgb(229,229,229)" paint-order="fill" d="M 57.5 33.5 L 470.5 33.5 L 470.5 439.5 L 57.5 439.5 L 57.5 33.5" stroke-opacity="1" stroke-linejoin="bevel" stroke-miterlimit="10" stroke-dasharray=""/><path fill="none" stroke="rgb(229,229,229)" paint-order="fill" d="M 127.5 439.5 L 127.5 33.5 M 205.5 439.5 L 205.5 33.5 M 282.5 439.5 L 282.5 33.5 M 359.5 439.5 L 359.5 33.5 M 437.5 439.5 L 437.5 33.5" stroke-opacity="1" stroke-linejoin="bevel" stroke-miterlimit="10" stroke-dasharray="" clip-path="url(#gKPvQuVwsMiP)"/><path fill="none" stroke="rgb(229,229,229)" paint-order="fill" d="M 57.5 394.5 L 470.5 394.5 M 57.5 325.5 L 470.5 325.5 M 57.5 256.5 L 470.5 256.5 M 57.5 187.5 L 470.5 187.5 M 57.5 118.5 L 470.5 118.5 M 57.5 48.5 L 470.5 48.5" stroke-opacity="1" stroke-linejoin="bevel" stroke-miterlimit="10" stroke-dasharray="" clip-path="url(#SHTHLgDQqZLa)"/><path fill="none" stroke="none"/><path fill="rgb(0,0,255)" stroke="rgb(0,0,255)" paint-order="fill" d="M 78.7727279663086 375.155517578125 A 2.5 2.5 0 1 1 78.7727267163087 375.15301757854166" fill-opacity="0.3" clip-path="url(#EhNKoJmkaHJa)" stroke-opacity="1" stroke-linejoin="bevel" stroke-miterlimit="10" stroke-dasharray=""/><path fill="rgb(0,0,255)" stroke="rgb(0,0,255)" paint-order="fill" d="M 81.6087417602539 292.2767639160156 A 2.5 2.5 0 1 1 81.60874051025401 292.2742639164323" fill-opacity="0.3" clip-path="url(#EhNKoJmkaHJa)" stroke-opacity="1" stroke-linejoin="bevel" stroke-miterlimit="10" stroke-dasharray=""/><path fill="rgb(0,0,255)" stroke="rgb(0,0,255)" paint-order="fill" d="M 88.6910400390625 90.29088592529297 A 2.5 2.5 0 1 1 88.6910387890626 90.28838592570963" fill-opacity="0.3" clip-path="url(#EhNKoJmkaHJa)" stroke-opacity="1" stroke-linejoin="bevel" stroke-miterlimit="10" stroke-dasharray=""/><path fill="rgb(0,0,255)" stroke="rgb(0,0,255)" paint-order="fill" d="M 98.6093521118164 51.95454406738281 A 2.5 2.5 0 1 1 98.60935086181651 51.95204406779948" fill-opacity="0.3" clip-path="url(#EhNKoJmkaHJa)" stroke-opacity="1" stroke-linejoin="bevel" stroke-miterlimit="10" stroke-dasharray=""/><path fill="rgb(0,0,255)" stroke="rgb(0,0,255)" paint-order="fill" d="M 108.52765655517578 75.07491302490234 A 2.5 2.5 0 1 1 108.52765530517588 75.07241302531901" fill-opacity="0.3" clip-path="url(#EhNKoJmkaHJa)" stroke-opacity="1" stroke-linejoin="bevel" stroke-miterlimit="10" stroke-dasharray=""/><path fill="rgb(0,0,255)" stroke="rgb(0,0,255)" paint-order="fill" d="M 115.60995483398438 312.9949951171875 A 2.5 2.5 0 1 1 115.60995358398448 312.99249511760416" fill-opacity="0.3" clip-path="url(#EhNKoJmkaHJa)" stroke-opacity="1" stroke-linejoin="bevel" stroke-miterlimit="10" stroke-dasharray=""/><path fill="rgb(0,0,255)" stroke="rgb(0,0,255)" paint-order="fill" d="M 125.52825927734375 417.2821350097656 A 2.5 2.5 0 1 1 125.52825802734385 417.2796350101823" fill-opacity="0.3" clip-path="url(#EhNKoJmkaHJa)" stroke-opacity="1" stroke-linejoin="bevel" stroke-miterlimit="10" stroke-dasharray=""/><path fill="rgb(0,0,255)" stroke="rgb(0,0,255)" paint-order="fill" d="M 135.4465789794922 421.0454406738281 A 2.5 2.5 0 1 1 135.4465777294923 421.0429406742448" fill-opacity="0.3" clip-path="url(#EhNKoJmkaHJa)" stroke-opacity="1" stroke-linejoin="bevel" stroke-miterlimit="10" stroke-dasharray=""/><path fill="rgb(0,0,255)" stroke="rgb(0,0,255)" paint-order="fill" d="M 142.52886962890625 338.0482482910156 A 2.5 2.5 0 1 1 142.52886837890637 338.0457482914323" fill-opacity="0.3" clip-path="url(#EhNKoJmkaHJa)" stroke-opacity="1" stroke-linejoin="bevel" stroke-miterlimit="10" stroke-dasharray=""/><path fill="rgb(0,0,255)" stroke="rgb(0,0,255)" paint-order="fill" d="M 145.36488342285156 252.2286834716797 A 2.5 2.5 0 1 1 145.36488217285168 252.22618347209635" fill-opacity="0.3" clip-path="url(#EhNKoJmkaHJa)" stroke-opacity="1" stroke-linejoin="bevel" stroke-miterlimit="10" stroke-dasharray=""/><path fill="rgb(0,0,255)" stroke="rgb(0,0,255)" paint-order="fill" d="M 152.44717407226562 195.21664428710938 A 2.5 2.5 0 1 1 152.44717282226574 195.21414428752604" fill-opacity="0.3" clip-path="url(#EhNKoJmkaHJa)" stroke-opacity="1" stroke-linejoin="bevel" stroke-miterlimit="10" stroke-dasharray=""/><path fill="rgb(0,0,255)" stroke="rgb(0,0,255)" paint-order="fill" d="M 162.36549377441406 96.62979125976562 A 2.5 2.5 0 1 1 162.36549252441418 96.62729126018229" fill-opacity="0.3" clip-path="url(#EhNKoJmkaHJa)" stroke-opacity="1" stroke-linejoin="bevel" stroke-miterlimit="10" stroke-dasharray=""/><path fill="rgb(0,0,255)" stroke="rgb(0,0,255)" paint-order="fill" d="M 169.44778442382812 193.73899841308594 A 2.5 2.5 0 1 1 169.44778317382824 193.7364984135026" fill-opacity="0.3" clip-path="url(#EhNKoJmkaHJa)" stroke-opacity="1" stroke-linejoin="bevel" stroke-miterlimit="10" stroke-dasharray=""/><path fill="rgb(0,0,255)" stroke="rgb(0,0,255)" paint-order="fill" d="M 172.28379821777344 246.31723022460938 A 2.5 2.5 0 1 1 172.28379696777355 246.31473022502604" fill-opacity="0.3" clip-path="url(#EhNKoJmkaHJa)" stroke-opacity="1" stroke-linejoin="bevel" stroke-miterlimit="10" stroke-dasharray=""/><path fill="rgb(0,0,255)" stroke="rgb(0,0,255)" paint-order="fill" d="M 179.3660888671875 242.06056213378906 A 2.5 2.5 0 1 1 179.36608761718762 242.05806213420573" fill-opacity="0.3" clip-path="url(#EhNKoJmkaHJa)" stroke-opacity="1" stroke-linejoin="bevel" stroke-miterlimit="10" stroke-dasharray=""/><path fill="rgb(0,0,255)" stroke="rgb(0,0,255)" paint-order="fill" d="M 189.28440856933594 235.39134216308594 A 2.5 2.5 0 1 1 189.28440731933605 235.3888421635026" fill-opacity="0.3" clip-path="url(#EhNKoJmkaHJa)" stroke-opacity="1" stroke-linejoin="bevel" stroke-miterlimit="10" stroke-dasharray=""/><path fill="rgb(0,0,255)" stroke="rgb(0,0,255)" paint-order="fill" d="M 199.2027130126953 264.78802490234375 A 2.5 2.5 0 1 1 199.20271176269543 264.7855249027604" fill-opacity="0.3" clip-path="url(#EhNKoJmkaHJa)" stroke-opacity="1" stroke-linejoin="bevel" stroke-miterlimit="10" stroke-dasharray=""/><path fill="rgb(0,0,255)" stroke="rgb(0,0,255)" paint-order="fill" d="M 206.28500366210938 364.5926818847656 A 2.5 2.5 0 1 1 206.2850024121095 364.5901818851823" fill-opacity="0.3" clip-path="url(#EhNKoJmkaHJa)" stroke-opacity="1" stroke-linejoin="bevel" stroke-miterlimit="10" stroke-dasharray=""/><path fill="rgb(0,0,255)" stroke="rgb(0,0,255)" paint-order="fill" d="M 444.3089599609375 101.71527099609375 A 2.5 2.5 0 1 1 444.3089587109376 101.71277099651041" fill-opacity="0.3" clip-path="url(#EhNKoJmkaHJa)" stroke-opacity="1" stroke-linejoin="bevel" stroke-miterlimit="10" stroke-dasharray=""/><path fill="rgb(0,0,255)" stroke="rgb(0,0,255)" paint-order="fill" d="M 454.2272644042969 102.00786590576172 A 2.5 2.5 0 1 1 454.22726315429696 102.00536590617838" fill-opacity="0.3" clip-path="url(#EhNKoJmkaHJa)" stroke-opacity="1" stroke-linejoin="bevel" stroke-miterlimit="10" stroke-dasharray=""/><path fill="none" stroke="rgb(0,0,0)" paint-order="fill" d="M 57.5 439.5 L 470.5 439.5" stroke-opacity="1" stroke-linejoin="bevel" stroke-miterlimit="10" stroke-dasharray=""/><path fill="none" stroke="rgb(0,0,0)" paint-order="fill" d="M 127.5 445.5 L 127.5 437.5 M 205.5 445.5 L 205.5 437.5 M 282.5 445.5 L 282.5 437.5 M 359.5 445.5 L 359.5 437.5 M 437.5 445.5 L 437.5 437.5" stroke-opacity="1" stroke-linejoin="bevel" stroke-miterlimit="10" stroke-dasharray=""/><path fill="none" stroke="rgb(0,0,0)" paint-order="fill" d="M 112.5 443.5 L 112.5 439.5 M 96.5 443.5 L 96.5 439.5 M 81.5 443.5 L 81.5 439.5 M 65.5 443.5 L 65.5 439.5 M 127.5 443.5 L 127.5 439.5 M 143.5 443.5 L 143.5 439.5 M 158.5 443.5 L 158.5 439.5 M 174.5 443.5 L 174.5 439.5 M 189.5 443.5 L 189.5 439.5 M 205.5 443.5 L 205.5 439.5 M 220.5 443.5 L 220.5 439.5 M 236.5 443.5 L 236.5 439.5 M 251.5 443.5 L 251.5 439.5 M 266.5 443.5 L 266.5 439.5 M 282.5 443.5 L 282.5 439.5 M 297.5 443.5 L 297.5 439.5 M 313.5 443.5 L 313.5 439.5 M 328.5 443.5 L 328.5 439.5 M 344.5 443.5 L 344.5 439.5 M 359.5 443.5 L 359.5 439.5 M 375.5 443.5 L 375.5 439.5 M 390.5 443.5 L 390.5 439.5 M 406.5 443.5 L 406.5 439.5 M 421.5 443.5 L 421.5 439.5 M 437.5 443.5 L 437.5 439.5 M 452.5 443.5 L 452.5 439.5 M 468.5 443.5 L 468.5 439.5" stroke-opacity="1" stroke-linejoin="bevel" stroke-miterlimit="10" stroke-dasharray=""/><text fill="rgb(68,68,68)" stroke="none" font-family="helvetica" font-size="14pt" font-style="normal" font-weight="normal" text-decoration="normal" x="0" y="0" text-anchor="middle" dominant-baseline="hanging" transform="matrix(1, 0, 0, 1, 127.5, 450.5)" fill-opacity="1">0.5</text><text fill="rgb(68,68,68)" stroke="none" font-family="helvetica" font-size="14pt" font-style="normal" font-weight="normal" text-decoration="normal" x="0" y="0" text-anchor="middle" dominant-baseline="hanging" transform="matrix(1, 0, 0, 1, 205.5, 450.5)" fill-opacity="1">1</text><text fill="rgb(68,68,68)" stroke="none" font-family="helvetica" font-size="14pt" font-style="normal" font-weight="normal" text-decoration="normal" x="0" y="0" text-anchor="middle" dominant-baseline="hanging" transform="matrix(1, 0, 0, 1, 282.5, 450.5)" fill-opacity="1">1.5</text><text fill="rgb(68,68,68)" stroke="none" font-family="helvetica" font-size="14pt" font-style="normal" font-weight="normal" text-decoration="normal" x="0" y="0" text-anchor="middle" dominant-baseline="hanging" transform="matrix(1, 0, 0, 1, 359.5, 450.5)" fill-opacity="1">2</text><text fill="rgb(68,68,68)" stroke="none" font-family="helvetica" font-size="14pt" font-style="normal" font-weight="normal" text-decoration="normal" x="0" y="0" text-anchor="middle" dominant-baseline="hanging" transform="matrix(1, 0, 0, 1, 437.5, 450.5)" fill-opacity="1">2.5</text><text fill="rgb(68,68,68)" stroke="none" font-family="helvetica" font-size="14pt" font-style="italic" font-weight="normal" text-decoration="normal" x="0" y="0" text-anchor="middle" dominant-baseline="hanging" transform="matrix(1, 0, 0, 1, 264.5, 477.5)" fill-opacity="1">q² [nm ²]</text><path fill="none" stroke="rgb(0,0,0)" paint-order="fill" d="M 57.5 439.5 L 57.5 33.5" stroke-opacity="1" stroke-linejoin="bevel" stroke-miterlimit="10" stroke-dasharray=""/><path fill="none" stroke="rgb(0,0,0)" paint-order="fill" d="M 51.5 394.5 L 59.5 394.5 M 51.5 325.5 L 59.5 325.5 M 51.5 256.5 L 59.5 256.5 M 51.5 187.5 L 59.5 187.5 M 51.5 118.5 L 59.5 118.5 M 51.5 48.5 L 59.5 48.5" stroke-opacity="1" stroke-linejoin="bevel" stroke-miterlimit="10" stroke-dasharray=""/><path fill="none" stroke="rgb(0,0,0)" paint-order="fill" d="M 53.5 408.5 L 57.5 408.5 M 53.5 421.5 L 57.5 421.5 M 53.5 435.5 L 57.5 435.5 M 53.5 394.5 L 57.5 394.5 M 53.5 380.5 L 57.5 380.5 M 53.5 366.5 L 57.5 366.5 M 53.5 352.5 L 57.5 352.5 M 53.5 339.5 L 57.5 339.5 M 53.5 325.5 L 57.5 325.5 M 53.5 311.5 L 57.5 311.5 M 53.5 297.5 L 57.5 297.5 M 53.5 283.5 L 57.5 283.5 M 53.5 269.5 L 57.5 269.5 M 53.5 256.5 L 57.5 256.5 M 53.5 242.5 L 57.5 242.5 M 53.5 228.5 L 57.5 228.5 M 53.5 214.5 L 57.5 214.5 M 53.5 200.5 L 57.5 200.5 M 53.5 187.5 L 57.5 187.5 M 53.5 173.5 L 57.5 173.5 M 53.5 159.5 L 57.5 159.5 M 53.5 145.5 L 57.5 145.5 M 53.5 131.5 L 57.5 131.5 M 53.5 118.5 L 57.5 118.5 M 53.5 104.5 L 57.5 104.5 M 53.5 90.5 L 57.5 90.5 M 53.5 76.5 L 57.5 76.5 M 53.5 62.5 L 57.5 62.5 M 53.5 48.5 L 57.5 48.5 M 53.5 35.5 L 57.5 35.5" stroke-opacity="1" stroke-linejoin="bevel" stroke-miterlimit="10" stroke-dasharray=""/><text fill="rgb(68,68,68)" stroke="none" font-family="helvetica" font-size="14pt" font-style="normal" font-weight="normal" text-decoration="normal" x="0" y="0" text-anchor="end" dominant-baseline="central" transform="matrix(1, 0, 0, 1, 46.5, 394.5)" fill-opacity="1">-3</text><text fill="rgb(68,68,68)" stroke="none" font-family="helvetica" font-size="14pt" font-style="normal" font-weight="normal" text-decoration="normal" x="0" y="0" text-anchor="end" dominant-baseline="central" transform="matrix(1, 0, 0, 1, 46.5, 325.5)" fill-opacity="1">-2</text><text fill="rgb(68,68,68)" stroke="none" font-family="helvetica" font-size="14pt" font-style="normal" font-weight="normal" text-decoration="normal" x="0" y="0" text-anchor="end" dominant-baseline="central" transform="matrix(1, 0, 0, 1, 46.5, 256.5)" fill-opacity="1">-1</text><text fill="rgb(68,68,68)" stroke="none" font-family="helvetica" font-size="14pt" font-style="normal" font-weight="normal" text-decoration="normal" x="0" y="0" text-anchor="end" dominant-baseline="central" transform="matrix(1, 0, 0, 1, 46.5, 187.5)" fill-opacity="1">0</text><text fill="rgb(68,68,68)" stroke="none" font-family="helvetica" font-size="14pt" font-style="normal" font-weight="normal" text-decoration="normal" x="0" y="0" text-anchor="end" dominant-baseline="central" transform="matrix(1, 0, 0, 1, 46.5, 118.5)" fill-opacity="1">1</text><text fill="rgb(68,68,68)" stroke="none" font-family="helvetica" font-size="14pt" font-style="normal" font-weight="normal" text-decoration="normal" x="0" y="0" text-anchor="end" dominant-baseline="central" transform="matrix(1, 0, 0, 1, 46.5, 48.5)" fill-opacity="1">2</text><text fill="rgb(68,68,68)" stroke="none" font-family="helvetica" font-size="14pt" font-style="italic" font-weight="normal" text-decoration="normal" x="0" y="0" text-anchor="middle" dominant-baseline="alphabetic" transform="matrix(6.123233995736766e-17, -1, 1, 6.123233995736766e-17, 23.5, 236.5)" fill-opacity="1">R/σ</text><path fill="none" stroke="rgb(255,0,0)" paint-order="fill" d="M 57.5 187.0899680693988 L 470.5 187.0899680693988" stroke-opacity="1" stroke-linejoin="bevel" stroke-miterlimit="10" stroke-width="3" stroke-dasharray="" clip-path="url(#DhbbnWXglWkg)"/><path fill="none" stroke="none"/><text fill="rgb(68,68,68)" stroke="none" font-family="helvetica" font-size="12pt" font-style="normal" font-weight="bold" text-decoration="normal" x="0" y="0" text-anchor="middle" dominant-baseline="text-before-edge" transform="matrix(1, 0, 0, 1, 264, 5.5)" fill-opacity="1">Error weighted residuals for P(r) fit (SASDBZ9)</text></svg>