<svg version="1.1" xmlns="http://www.w3.org/2000/svg" xmlns:xlink="http://www.w3.org/1999/xlink" width="500" height="500"><defs><clipPath id="PcpTdNAEMfrx"><path fill="none" stroke="none" d="M 68.5 33.5 L 470.5 33.5 L 470.5 439.5 L 68.5 439.5 L 68.5 33.5"/></clipPath><clipPath id="acMmILTAMQdP"><path fill="none" stroke="none" d="M 68.5 33.5 L 470.5 33.5 L 470.5 439.5 L 68.5 439.5 L 68.5 33.5"/></clipPath><clipPath id="KzyUFviahfmu"><path fill="none" stroke="none" d="M 68.5 33.5 L 470.5 33.5 L 470.5 439.5 L 68.5 439.5 L 68.5 33.5"/></clipPath><clipPath id="bZcyrveTzQhv"><path fill="none" stroke="none" d="M 68.5 33.5 L 470.5 33.5 L 470.5 439.5 L 68.5 439.5 L 68.5 33.5"/></clipPath><clipPath id="gvLCDIQxukBT"><path fill="none" stroke="none" d="M 68.5 33.5 L 470.5 33.5 L 470.5 439.5 L 68.5 439.5 L 68.5 33.5"/></clipPath></defs><path fill="rgb(255,255,255)" stroke="none" paint-order="stroke" d="M 0.5 0.5 L 500.5 0.5 L 500.5 500.5 L 0.5 500.5 L 0.5 0.5" fill-opacity="1"/><rect fill="#FFFFFF" stroke="none" x="68" y="33" width="402" height="406" transform="matrix(1, 0, 0, 1, 0.5, 0.5)"/><path fill="rgb(255,255,255)" stroke="none" paint-order="stroke" d="M 68.5 33.5 L 470.5 33.5 L 470.5 439.5 L 68.5 439.5 L 68.5 33.5" fill-opacity="1"/><path fill="none" stroke="rgb(229,229,229)" paint-order="fill" d="M 68.5 33.5 L 470.5 33.5 L 470.5 439.5 L 68.5 439.5 L 68.5 33.5" stroke-opacity="1" stroke-linejoin="bevel" stroke-miterlimit="10" stroke-dasharray=""/><path fill="none" stroke="rgb(229,229,229)" paint-order="fill" d="M 138.5 439.5 L 138.5 33.5 M 217.5 439.5 L 217.5 33.5 M 297.5 439.5 L 297.5 33.5 M 376.5 439.5 L 376.5 33.5 M 455.5 439.5 L 455.5 33.5" stroke-opacity="1" stroke-linejoin="bevel" stroke-miterlimit="10" stroke-dasharray="" clip-path="url(#PcpTdNAEMfrx)"/><path fill="none" stroke="rgb(229,229,229)" paint-order="fill" d="M 68.5 347.5 L 470.5 347.5 M 68.5 249.5 L 470.5 249.5 M 68.5 151.5 L 470.5 151.5 M 68.5 53.5 L 470.5 53.5" stroke-opacity="1" stroke-linejoin="bevel" stroke-miterlimit="10" stroke-dasharray="" clip-path="url(#acMmILTAMQdP)"/><path fill="none" stroke="none"/><path fill="rgb(0,0,255)" stroke="rgb(0,0,255)" paint-order="fill" d="M 89.2727279663086 162.68182373046875 A 2.5 2.5 0 1 1 89.2727267163087 162.67932373088541" fill-opacity="0.3" clip-path="url(#KzyUFviahfmu)" stroke-opacity="1" stroke-linejoin="bevel" stroke-miterlimit="10" stroke-dasharray=""/><path fill="rgb(0,0,255)" stroke="rgb(0,0,255)" paint-order="fill" d="M 92.8941879272461 172.17831420898438 A 2.5 2.5 0 1 1 92.8941866772462 172.17581420940104" fill-opacity="0.3" clip-path="url(#KzyUFviahfmu)" stroke-opacity="1" stroke-linejoin="bevel" stroke-miterlimit="10" stroke-dasharray=""/><path fill="rgb(0,0,255)" stroke="rgb(0,0,255)" paint-order="fill" d="M 96.51168823242188 51.95454406738281 A 2.5 2.5 0 1 1 96.51168698242198 51.95204406779948" fill-opacity="0.3" clip-path="url(#KzyUFviahfmu)" stroke-opacity="1" stroke-linejoin="bevel" stroke-miterlimit="10" stroke-dasharray=""/><path fill="rgb(0,0,255)" stroke="rgb(0,0,255)" paint-order="fill" d="M 100.12918090820312 209.38111877441406 A 2.5 2.5 0 1 1 100.12917965820323 209.37861877483073" fill-opacity="0.3" clip-path="url(#KzyUFviahfmu)" stroke-opacity="1" stroke-linejoin="bevel" stroke-miterlimit="10" stroke-dasharray=""/><path fill="rgb(0,0,255)" stroke="rgb(0,0,255)" paint-order="fill" d="M 110.98564147949219 421.0454406738281 A 2.5 2.5 0 1 1 110.98564022949229 421.0429406742448" fill-opacity="0.3" clip-path="url(#KzyUFviahfmu)" stroke-opacity="1" stroke-linejoin="bevel" stroke-miterlimit="10" stroke-dasharray=""/><path fill="rgb(0,0,255)" stroke="rgb(0,0,255)" paint-order="fill" d="M 129.0731430053711 294.0664367675781 A 2.5 2.5 0 1 1 129.0731417553712 294.0639367679948" fill-opacity="0.3" clip-path="url(#KzyUFviahfmu)" stroke-opacity="1" stroke-linejoin="bevel" stroke-miterlimit="10" stroke-dasharray=""/><path fill="rgb(0,0,255)" stroke="rgb(0,0,255)" paint-order="fill" d="M 136.31605529785156 327.5489501953125 A 2.5 2.5 0 1 1 136.31605404785168 327.54645019572916" fill-opacity="0.3" clip-path="url(#KzyUFviahfmu)" stroke-opacity="1" stroke-linejoin="bevel" stroke-miterlimit="10" stroke-dasharray=""/><path fill="rgb(0,0,255)" stroke="rgb(0,0,255)" paint-order="fill" d="M 154.40354919433594 296.02447509765625 A 2.5 2.5 0 1 1 154.40354794433605 296.0219750980729" fill-opacity="0.3" clip-path="url(#KzyUFviahfmu)" stroke-opacity="1" stroke-linejoin="bevel" stroke-miterlimit="10" stroke-dasharray=""/><path fill="rgb(0,0,255)" stroke="rgb(0,0,255)" paint-order="fill" d="M 179.7339630126953 300.4300842285156 A 2.5 2.5 0 1 1 179.73396176269543 300.4275842289323" fill-opacity="0.3" clip-path="url(#KzyUFviahfmu)" stroke-opacity="1" stroke-linejoin="bevel" stroke-miterlimit="10" stroke-dasharray=""/><path fill="rgb(0,0,255)" stroke="rgb(0,0,255)" paint-order="fill" d="M 205.0643768310547 270.9615478515625 A 2.5 2.5 0 1 1 205.0643755810548 270.95904785197916" fill-opacity="0.3" clip-path="url(#KzyUFviahfmu)" stroke-opacity="1" stroke-linejoin="bevel" stroke-miterlimit="10" stroke-dasharray=""/><path fill="rgb(0,0,255)" stroke="rgb(0,0,255)" paint-order="fill" d="M 223.15188598632812 284.30560302734375 A 2.5 2.5 0 1 1 223.15188473632824 284.3031030277604" fill-opacity="0.3" clip-path="url(#KzyUFviahfmu)" stroke-opacity="1" stroke-linejoin="bevel" stroke-miterlimit="10" stroke-dasharray=""/><path fill="rgb(0,0,255)" stroke="rgb(0,0,255)" paint-order="fill" d="M 248.4822998046875 251.54754638671875 A 2.5 2.5 0 1 1 248.48229855468762 251.54504638713541" fill-opacity="0.3" clip-path="url(#KzyUFviahfmu)" stroke-opacity="1" stroke-linejoin="bevel" stroke-miterlimit="10" stroke-dasharray=""/><path fill="rgb(0,0,255)" stroke="rgb(0,0,255)" paint-order="fill" d="M 273.8127136230469 231.60488891601562 A 2.5 2.5 0 1 1 273.81271237304696 231.6023889164323" fill-opacity="0.3" clip-path="url(#KzyUFviahfmu)" stroke-opacity="1" stroke-linejoin="bevel" stroke-miterlimit="10" stroke-dasharray=""/><path fill="rgb(0,0,255)" stroke="rgb(0,0,255)" paint-order="fill" d="M 291.90020751953125 229.30322265625 A 2.5 2.5 0 1 1 291.90020626953134 229.30072265666666" fill-opacity="0.3" clip-path="url(#KzyUFviahfmu)" stroke-opacity="1" stroke-linejoin="bevel" stroke-miterlimit="10" stroke-dasharray=""/><path fill="rgb(0,0,255)" stroke="rgb(0,0,255)" paint-order="fill" d="M 299.14312744140625 231.87803649902344 A 2.5 2.5 0 1 1 299.14312619140634 231.8755364994401" fill-opacity="0.3" clip-path="url(#KzyUFviahfmu)" stroke-opacity="1" stroke-linejoin="bevel" stroke-miterlimit="10" stroke-dasharray=""/><path fill="rgb(0,0,255)" stroke="rgb(0,0,255)" paint-order="fill" d="M 317.2306213378906 270.30560302734375 A 2.5 2.5 0 1 1 317.2306200878907 270.3031030277604" fill-opacity="0.3" clip-path="url(#KzyUFviahfmu)" stroke-opacity="1" stroke-linejoin="bevel" stroke-miterlimit="10" stroke-dasharray=""/><path fill="rgb(0,0,255)" stroke="rgb(0,0,255)" paint-order="fill" d="M 342.56103515625 249.52098083496094 A 2.5 2.5 0 1 1 342.5610339062501 249.5184808353776" fill-opacity="0.3" clip-path="url(#KzyUFviahfmu)" stroke-opacity="1" stroke-linejoin="bevel" stroke-miterlimit="10" stroke-dasharray=""/><path fill="rgb(0,0,255)" stroke="rgb(0,0,255)" paint-order="fill" d="M 360.6485290527344 278.38250732421875 A 2.5 2.5 0 1 1 360.64852780273446 278.3800073246354" fill-opacity="0.3" clip-path="url(#KzyUFviahfmu)" stroke-opacity="1" stroke-linejoin="bevel" stroke-miterlimit="10" stroke-dasharray=""/><path fill="rgb(0,0,255)" stroke="rgb(0,0,255)" paint-order="fill" d="M 367.8914489746094 288.38714599609375 A 2.5 2.5 0 1 1 367.89144772460946 288.3846459965104" fill-opacity="0.3" clip-path="url(#KzyUFviahfmu)" stroke-opacity="1" stroke-linejoin="bevel" stroke-miterlimit="10" stroke-dasharray=""/><path fill="rgb(0,0,255)" stroke="rgb(0,0,255)" paint-order="fill" d="M 385.97894287109375 245.3307647705078 A 2.5 2.5 0 1 1 385.97894162109384 245.32826477092448" fill-opacity="0.3" clip-path="url(#KzyUFviahfmu)" stroke-opacity="1" stroke-linejoin="bevel" stroke-miterlimit="10" stroke-dasharray=""/><path fill="rgb(0,0,255)" stroke="rgb(0,0,255)" paint-order="fill" d="M 411.3093566894531 253.62307739257812 A 2.5 2.5 0 1 1 411.3093554394532 253.6205773929948" fill-opacity="0.3" clip-path="url(#KzyUFviahfmu)" stroke-opacity="1" stroke-linejoin="bevel" stroke-miterlimit="10" stroke-dasharray=""/><path fill="rgb(0,0,255)" stroke="rgb(0,0,255)" paint-order="fill" d="M 436.6397705078125 281.7405700683594 A 2.5 2.5 0 1 1 436.6397692578126 281.73807006877604" fill-opacity="0.3" clip-path="url(#KzyUFviahfmu)" stroke-opacity="1" stroke-linejoin="bevel" stroke-miterlimit="10" stroke-dasharray=""/><path fill="rgb(0,0,255)" stroke="rgb(0,0,255)" paint-order="fill" d="M 454.7272644042969 276.6888122558594 A 2.5 2.5 0 1 1 454.72726315429696 276.68631225627604" fill-opacity="0.3" clip-path="url(#KzyUFviahfmu)" stroke-opacity="1" stroke-linejoin="bevel" stroke-miterlimit="10" stroke-dasharray=""/><path fill="none" stroke="rgb(0,0,0)" paint-order="fill" d="M 68.5 439.5 L 470.5 439.5" stroke-opacity="1" stroke-linejoin="bevel" stroke-miterlimit="10" stroke-dasharray=""/><path fill="none" stroke="rgb(0,0,0)" paint-order="fill" d="M 138.5 445.5 L 138.5 437.5 M 217.5 445.5 L 217.5 437.5 M 297.5 445.5 L 297.5 437.5 M 376.5 445.5 L 376.5 437.5 M 455.5 445.5 L 455.5 437.5" stroke-opacity="1" stroke-linejoin="bevel" stroke-miterlimit="10" stroke-dasharray=""/><path fill="none" stroke="rgb(0,0,0)" paint-order="fill" d="M 122.5 443.5 L 122.5 439.5 M 107.5 443.5 L 107.5 439.5 M 91.5 443.5 L 91.5 439.5 M 75.5 443.5 L 75.5 439.5 M 138.5 443.5 L 138.5 439.5 M 154.5 443.5 L 154.5 439.5 M 170.5 443.5 L 170.5 439.5 M 186.5 443.5 L 186.5 439.5 M 202.5 443.5 L 202.5 439.5 M 217.5 443.5 L 217.5 439.5 M 233.5 443.5 L 233.5 439.5 M 249.5 443.5 L 249.5 439.5 M 265.5 443.5 L 265.5 439.5 M 281.5 443.5 L 281.5 439.5 M 297.5 443.5 L 297.5 439.5 M 312.5 443.5 L 312.5 439.5 M 328.5 443.5 L 328.5 439.5 M 344.5 443.5 L 344.5 439.5 M 360.5 443.5 L 360.5 439.5 M 376.5 443.5 L 376.5 439.5 M 392.5 443.5 L 392.5 439.5 M 407.5 443.5 L 407.5 439.5 M 423.5 443.5 L 423.5 439.5 M 439.5 443.5 L 439.5 439.5 M 455.5 443.5 L 455.5 439.5" stroke-opacity="1" stroke-linejoin="bevel" stroke-miterlimit="10" stroke-dasharray=""/><text fill="rgb(68,68,68)" stroke="none" font-family="helvetica" font-size="14pt" font-style="normal" font-weight="normal" text-decoration="normal" x="0" y="0" text-anchor="middle" dominant-baseline="hanging" transform="matrix(1, 0, 0, 1, 138.5, 450.5)" fill-opacity="1">0.2</text><text fill="rgb(68,68,68)" stroke="none" font-family="helvetica" font-size="14pt" font-style="normal" font-weight="normal" text-decoration="normal" x="0" y="0" text-anchor="middle" dominant-baseline="hanging" transform="matrix(1, 0, 0, 1, 217.5, 450.5)" fill-opacity="1">0.4</text><text fill="rgb(68,68,68)" stroke="none" font-family="helvetica" font-size="14pt" font-style="normal" font-weight="normal" text-decoration="normal" x="0" y="0" text-anchor="middle" dominant-baseline="hanging" transform="matrix(1, 0, 0, 1, 297.5, 450.5)" fill-opacity="1">0.6</text><text fill="rgb(68,68,68)" stroke="none" font-family="helvetica" font-size="14pt" font-style="normal" font-weight="normal" text-decoration="normal" x="0" y="0" text-anchor="middle" dominant-baseline="hanging" transform="matrix(1, 0, 0, 1, 376.5, 450.5)" fill-opacity="1">0.8</text><text fill="rgb(68,68,68)" stroke="none" font-family="helvetica" font-size="14pt" font-style="normal" font-weight="normal" text-decoration="normal" x="0" y="0" text-anchor="middle" dominant-baseline="hanging" transform="matrix(1, 0, 0, 1, 455.5, 450.5)" fill-opacity="1">1</text><text fill="rgb(68,68,68)" stroke="none" font-family="helvetica" font-size="14pt" font-style="italic" font-weight="normal" text-decoration="normal" x="0" y="0" text-anchor="middle" dominant-baseline="hanging" transform="matrix(1, 0, 0, 1, 269.5, 477.5)" fill-opacity="1">q² [nm ²]</text><path fill="none" stroke="rgb(0,0,0)" paint-order="fill" d="M 68.5 439.5 L 68.5 33.5" stroke-opacity="1" stroke-linejoin="bevel" stroke-miterlimit="10" stroke-dasharray=""/><path fill="none" stroke="rgb(0,0,0)" paint-order="fill" d="M 62.5 347.5 L 70.5 347.5 M 62.5 249.5 L 70.5 249.5 M 62.5 151.5 L 70.5 151.5 M 62.5 53.5 L 70.5 53.5" stroke-opacity="1" stroke-linejoin="bevel" stroke-miterlimit="10" stroke-dasharray=""/><path fill="none" stroke="rgb(0,0,0)" paint-order="fill" d="M 64.5 367.5 L 68.5 367.5 M 64.5 386.5 L 68.5 386.5 M 64.5 406.5 L 68.5 406.5 M 64.5 425.5 L 68.5 425.5 M 64.5 347.5 L 68.5 347.5 M 64.5 328.5 L 68.5 328.5 M 64.5 308.5 L 68.5 308.5 M 64.5 288.5 L 68.5 288.5 M 64.5 269.5 L 68.5 269.5 M 64.5 249.5 L 68.5 249.5 M 64.5 230.5 L 68.5 230.5 M 64.5 210.5 L 68.5 210.5 M 64.5 190.5 L 68.5 190.5 M 64.5 171.5 L 68.5 171.5 M 64.5 151.5 L 68.5 151.5 M 64.5 132.5 L 68.5 132.5 M 64.5 112.5 L 68.5 112.5 M 64.5 93.5 L 68.5 93.5 M 64.5 73.5 L 68.5 73.5 M 64.5 53.5 L 68.5 53.5 M 64.5 34.5 L 68.5 34.5" stroke-opacity="1" stroke-linejoin="bevel" stroke-miterlimit="10" stroke-dasharray=""/><text fill="rgb(68,68,68)" stroke="none" font-family="helvetica" font-size="14pt" font-style="normal" font-weight="normal" text-decoration="normal" x="0" y="0" text-anchor="end" dominant-baseline="central" transform="matrix(1, 0, 0, 1, 57.5, 347.5)" fill-opacity="1">-10</text><text fill="rgb(68,68,68)" stroke="none" font-family="helvetica" font-size="14pt" font-style="normal" font-weight="normal" text-decoration="normal" x="0" y="0" text-anchor="end" dominant-baseline="central" transform="matrix(1, 0, 0, 1, 57.5, 249.5)" fill-opacity="1">0</text><text fill="rgb(68,68,68)" stroke="none" font-family="helvetica" font-size="14pt" font-style="normal" font-weight="normal" text-decoration="normal" x="0" y="0" text-anchor="end" dominant-baseline="central" transform="matrix(1, 0, 0, 1, 57.5, 151.5)" fill-opacity="1">10</text><text fill="rgb(68,68,68)" stroke="none" font-family="helvetica" font-size="14pt" font-style="normal" font-weight="normal" text-decoration="normal" x="0" y="0" text-anchor="end" dominant-baseline="central" transform="matrix(1, 0, 0, 1, 57.5, 53.5)" fill-opacity="1">20</text><text fill="rgb(68,68,68)" stroke="none" font-family="helvetica" font-size="14pt" font-style="italic" font-weight="normal" text-decoration="normal" x="0" y="0" text-anchor="middle" dominant-baseline="alphabetic" transform="matrix(6.123233995736766e-17, -1, 1, 6.123233995736766e-17, 22.5, 236.5)" fill-opacity="1">R</text><path fill="none" stroke="rgb(255,0,0)" paint-order="fill" d="M 68.5 249.71678321678317 L 470.5 249.71678321678317" stroke-opacity="1" stroke-linejoin="bevel" stroke-miterlimit="10" stroke-width="3" stroke-dasharray="" clip-path="url(#bZcyrveTzQhv)"/><path fill="none" stroke="none"/><text fill="rgb(68,68,68)" stroke="none" font-family="helvetica" font-size="12pt" font-style="normal" font-weight="bold" text-decoration="normal" x="0" y="0" text-anchor="middle" dominant-baseline="text-before-edge" transform="matrix(1, 0, 0, 1, 269.5, 5.5)" fill-opacity="1">Residuals for P(r) fit (SASDBX9)</text></svg>