<svg version="1.1" xmlns="http://www.w3.org/2000/svg" xmlns:xlink="http://www.w3.org/1999/xlink" width="700" height="250"><defs><clipPath id="PyzZtorttXAl"><path fill="none" stroke="none" d="M 157.5 37.5 L 670.5 37.5 L 670.5 217.5 L 157.5 217.5 L 157.5 37.5"/></clipPath><clipPath id="UhdHOqShBAsh"><path fill="none" stroke="none" d="M 157.5 37.5 L 670.5 37.5 L 670.5 217.5 L 157.5 217.5 L 157.5 37.5"/></clipPath><clipPath id="WdnXHxbNBwAW"><path fill="none" stroke="none" d="M 157.5 37.5 L 670.5 37.5 L 670.5 217.5 L 157.5 217.5 L 157.5 37.5"/></clipPath><clipPath id="rDmZWMNaZEMR"><path fill="none" stroke="none" d="M 157.5 37.5 L 670.5 37.5 L 670.5 217.5 L 157.5 217.5 L 157.5 37.5"/></clipPath><clipPath id="GGOtgWQRUqEz"><path fill="none" stroke="none" d="M 157.5 37.5 L 670.5 37.5 L 670.5 217.5 L 157.5 217.5 L 157.5 37.5"/></clipPath></defs><path fill="rgb(255,255,255)" stroke="none" paint-order="stroke" d="M 0.5 0.5 L 700.5 0.5 L 700.5 250.5 L 0.5 250.5 L 0.5 0.5" fill-opacity="1"/><rect fill="#FFFFFF" stroke="none" x="157" y="37" width="513" height="180" transform="matrix(1, 0, 0, 1, 0.5, 0.5)"/><path fill="rgb(255,255,255)" stroke="none" paint-order="stroke" d="M 157.5 37.5 L 670.5 37.5 L 670.5 217.5 L 157.5 217.5 L 157.5 37.5" fill-opacity="1"/><path fill="none" stroke="rgb(229,229,229)" paint-order="fill" d="M 157.5 37.5 L 670.5 37.5 L 670.5 217.5 L 157.5 217.5 L 157.5 37.5" stroke-opacity="1" stroke-linejoin="bevel" stroke-miterlimit="10" stroke-dasharray=""/><path fill="none" stroke="rgb(229,229,229)" paint-order="fill" d="M 222.5 217.5 L 222.5 37.5 M 288.5 217.5 L 288.5 37.5 M 353.5 217.5 L 353.5 37.5 M 419.5 217.5 L 419.5 37.5 M 484.5 217.5 L 484.5 37.5 M 549.5 217.5 L 549.5 37.5 M 615.5 217.5 L 615.5 37.5" stroke-opacity="1" stroke-linejoin="bevel" stroke-miterlimit="10" stroke-dasharray="" clip-path="url(#PyzZtorttXAl)"/><path fill="none" stroke="none"/><path fill="rgb(68,1,84)" stroke="none" paint-order="stroke" d="M 157.5 114 L 663.9599609375 114 L 663.9599609375 141 L 157.5 141 L 157.5 114" fill-opacity="0.8" clip-path="url(#WdnXHxbNBwAW)"/><path fill="none" stroke="rgb(68,1,84)" paint-order="fill" d="M 157.5 114 L 663.9599609375 114 L 663.9599609375 141 L 157.5 141 L 157.5 114" stroke-opacity="0.8" stroke-linejoin="bevel" stroke-miterlimit="10" stroke-dasharray="" clip-path="url(#WdnXHxbNBwAW)"/><path fill="none" stroke="rgb(0,0,0)" paint-order="fill" d="M 157.5 217.5 L 670.5 217.5" stroke-opacity="1" stroke-linejoin="bevel" stroke-miterlimit="10" stroke-dasharray=""/><path fill="none" stroke="rgb(0,0,0)" paint-order="fill" d="M 157.5 223.5 L 157.5 215.5 M 222.5 223.5 L 222.5 215.5 M 288.5 223.5 L 288.5 215.5 M 353.5 223.5 L 353.5 215.5 M 419.5 223.5 L 419.5 215.5 M 484.5 223.5 L 484.5 215.5 M 549.5 223.5 L 549.5 215.5 M 615.5 223.5 L 615.5 215.5" stroke-opacity="1" stroke-linejoin="bevel" stroke-miterlimit="10" stroke-dasharray=""/><path fill="none" stroke="rgb(0,0,0)" paint-order="fill" d="M 157.5 221.5 L 157.5 217.5 M 170.5 221.5 L 170.5 217.5 M 183.5 221.5 L 183.5 217.5 M 196.5 221.5 L 196.5 217.5 M 209.5 221.5 L 209.5 217.5 M 222.5 221.5 L 222.5 217.5 M 235.5 221.5 L 235.5 217.5 M 249.5 221.5 L 249.5 217.5 M 262.5 221.5 L 262.5 217.5 M 275.5 221.5 L 275.5 217.5 M 288.5 221.5 L 288.5 217.5 M 301.5 221.5 L 301.5 217.5 M 314.5 221.5 L 314.5 217.5 M 327.5 221.5 L 327.5 217.5 M 340.5 221.5 L 340.5 217.5 M 353.5 221.5 L 353.5 217.5 M 366.5 221.5 L 366.5 217.5 M 379.5 221.5 L 379.5 217.5 M 392.5 221.5 L 392.5 217.5 M 406.5 221.5 L 406.5 217.5 M 419.5 221.5 L 419.5 217.5 M 432.5 221.5 L 432.5 217.5 M 445.5 221.5 L 445.5 217.5 M 458.5 221.5 L 458.5 217.5 M 471.5 221.5 L 471.5 217.5 M 484.5 221.5 L 484.5 217.5 M 497.5 221.5 L 497.5 217.5 M 510.5 221.5 L 510.5 217.5 M 523.5 221.5 L 523.5 217.5 M 536.5 221.5 L 536.5 217.5 M 549.5 221.5 L 549.5 217.5 M 562.5 221.5 L 562.5 217.5 M 576.5 221.5 L 576.5 217.5 M 589.5 221.5 L 589.5 217.5 M 602.5 221.5 L 602.5 217.5 M 615.5 221.5 L 615.5 217.5 M 628.5 221.5 L 628.5 217.5 M 641.5 221.5 L 641.5 217.5 M 654.5 221.5 L 654.5 217.5 M 667.5 221.5 L 667.5 217.5" stroke-opacity="1" stroke-linejoin="bevel" stroke-miterlimit="10" stroke-dasharray=""/><text fill="rgb(68,68,68)" stroke="none" font-family="helvetica" font-size="14pt" font-style="normal" font-weight="normal" text-decoration="normal" x="0" y="0" text-anchor="middle" dominant-baseline="hanging" transform="matrix(1, 0, 0, 1, 157.5, 228.5)" fill-opacity="1">0</text><text fill="rgb(68,68,68)" stroke="none" font-family="helvetica" font-size="14pt" font-style="normal" font-weight="normal" text-decoration="normal" x="0" y="0" text-anchor="middle" dominant-baseline="hanging" transform="matrix(1, 0, 0, 1, 222.5, 228.5)" fill-opacity="1">10</text><text fill="rgb(68,68,68)" stroke="none" font-family="helvetica" font-size="14pt" font-style="normal" font-weight="normal" text-decoration="normal" x="0" y="0" text-anchor="middle" dominant-baseline="hanging" transform="matrix(1, 0, 0, 1, 288.5, 228.5)" fill-opacity="1">20</text><text fill="rgb(68,68,68)" stroke="none" font-family="helvetica" font-size="14pt" font-style="normal" font-weight="normal" text-decoration="normal" x="0" y="0" text-anchor="middle" dominant-baseline="hanging" transform="matrix(1, 0, 0, 1, 353.5, 228.5)" fill-opacity="1">30</text><text fill="rgb(68,68,68)" stroke="none" font-family="helvetica" font-size="14pt" font-style="normal" font-weight="normal" text-decoration="normal" x="0" y="0" text-anchor="middle" dominant-baseline="hanging" transform="matrix(1, 0, 0, 1, 419.5, 228.5)" fill-opacity="1">40</text><text fill="rgb(68,68,68)" stroke="none" font-family="helvetica" font-size="14pt" font-style="normal" font-weight="normal" text-decoration="normal" x="0" y="0" text-anchor="middle" dominant-baseline="hanging" transform="matrix(1, 0, 0, 1, 484.5, 228.5)" fill-opacity="1">50</text><text fill="rgb(68,68,68)" stroke="none" font-family="helvetica" font-size="14pt" font-style="normal" font-weight="normal" text-decoration="normal" x="0" y="0" text-anchor="middle" dominant-baseline="hanging" transform="matrix(1, 0, 0, 1, 549.5, 228.5)" fill-opacity="1">60</text><text fill="rgb(68,68,68)" stroke="none" font-family="helvetica" font-size="14pt" font-style="normal" font-weight="normal" text-decoration="normal" x="0" y="0" text-anchor="middle" dominant-baseline="hanging" transform="matrix(1, 0, 0, 1, 615.5, 228.5)" fill-opacity="1">70</text><path fill="none" stroke="rgb(0,0,0)" paint-order="fill" d="M 157.5 217.5 L 157.5 37.5" stroke-opacity="1" stroke-linejoin="bevel" stroke-miterlimit="10" stroke-dasharray=""/><path fill="none" stroke="rgb(0,0,0)" paint-order="fill" d="M 151.5 127.5 L 159.5 127.5" stroke-opacity="1" stroke-linejoin="bevel" stroke-miterlimit="10" stroke-dasharray=""/><path fill="none" stroke="rgb(0,0,0)" paint-order="fill" d="" stroke-opacity="1" stroke-linejoin="bevel" stroke-miterlimit="10" stroke-dasharray=""/><text fill="rgb(68,68,68)" stroke="none" font-family="helvetica" font-size="14pt" font-style="normal" font-weight="normal" text-decoration="normal" x="0" y="0" text-anchor="end" dominant-baseline="central" transform="matrix(1, 0, 0, 1, 146.5, 127.5)" fill-opacity="1">Model Model #1</text><path fill="rgb(255,255,255)" stroke="rgb(229,229,229)" paint-order="fill" d="M 517.8833312988281 47.5 L 660.5 47.5 L 660.5 87.5 L 517.8833312988281 87.5 L 517.8833312988281 47.5" fill-opacity="0.95" clip-path="url(#rDmZWMNaZEMR)" stroke-opacity="0.5" stroke-linejoin="bevel" stroke-miterlimit="10" stroke-dasharray=""/><text fill="rgb(68,68,68)" stroke="none" font-family="helvetica" font-size="13px" font-style="normal" font-weight="normal" text-decoration="normal" x="552.3833312988281" y="67" text-anchor="start" dominant-baseline="central" transform="matrix(1, 0, 0, 1, 0.5, 0.5)" fill-opacity="1">Model 1: 77.44%</text><path fill="rgb(68,1,84)" stroke="none" paint-order="stroke" d="M 529.8833312988281 59.5 L 545.8833312988281 59.5 L 545.8833312988281 75.5 L 529.8833312988281 75.5 L 529.8833312988281 59.5" fill-opacity="0.8" clip-path="url(#rDmZWMNaZEMR)"/><path fill="none" stroke="rgb(68,1,84)" paint-order="fill" d="M 529.8833312988281 59.5 L 545.8833312988281 59.5 L 545.8833312988281 75.5 L 529.8833312988281 75.5 L 529.8833312988281 59.5" stroke-opacity="0.8" stroke-linejoin="bevel" stroke-miterlimit="10" stroke-dasharray="" clip-path="url(#rDmZWMNaZEMR)"/><path fill="none" stroke="none"/><text fill="rgb(68,68,68)" stroke="none" font-family="helvetica" font-size="14pt" font-style="normal" font-weight="bold" text-decoration="normal" x="0" y="0" text-anchor="middle" dominant-baseline="text-after-edge" transform="matrix(1, 0, 0, 1, 414, 32.5)" fill-opacity="1">Fit to XL-MS input</text></svg>