<svg version="1.1" xmlns="http://www.w3.org/2000/svg" xmlns:xlink="http://www.w3.org/1999/xlink" width="800" height="320"><defs><clipPath id="WwpUPKpSvTPO"><path fill="none" stroke="none" d="M 276.5 37.5 L 795.5 37.5 L 795.5 287.5 L 276.5 287.5 L 276.5 37.5"/></clipPath><clipPath id="vVwCoiokupkz"><path fill="none" stroke="none" d="M 276.5 37.5 L 795.5 37.5 L 795.5 287.5 L 276.5 287.5 L 276.5 37.5"/></clipPath><clipPath id="sgVAVAreCMpr"><path fill="none" stroke="none" d="M 276.5 37.5 L 795.5 37.5 L 795.5 287.5 L 276.5 287.5 L 276.5 37.5"/></clipPath><clipPath id="MByZxJWUBOMu"><path fill="none" stroke="none" d="M 276.5 37.5 L 795.5 37.5 L 795.5 287.5 L 276.5 287.5 L 276.5 37.5"/></clipPath><clipPath id="mfGXKPPlwfJx"><path fill="none" stroke="none" d="M 276.5 37.5 L 795.5 37.5 L 795.5 287.5 L 276.5 287.5 L 276.5 37.5"/></clipPath></defs><path fill="rgb(255,255,255)" stroke="none" paint-order="stroke" d="M 0.5 0.5 L 800.5 0.5 L 800.5 320.5 L 0.5 320.5 L 0.5 0.5" fill-opacity="1"/><rect fill="#FFFFFF" stroke="none" x="276" y="37" width="519" height="250" transform="matrix(1, 0, 0, 1, 0.5, 0.5)"/><path fill="rgb(255,255,255)" stroke="none" paint-order="stroke" d="M 276.5 37.5 L 795.5 37.5 L 795.5 287.5 L 276.5 287.5 L 276.5 37.5" fill-opacity="1"/><path fill="none" stroke="rgb(229,229,229)" paint-order="fill" d="M 276.5 37.5 L 795.5 37.5 L 795.5 287.5 L 276.5 287.5 L 276.5 37.5" stroke-opacity="1" stroke-linejoin="bevel" stroke-miterlimit="10" stroke-dasharray=""/><path fill="none" stroke="rgb(229,229,229)" paint-order="fill" d="M 368.5 287.5 L 368.5 37.5 M 460.5 287.5 L 460.5 37.5 M 553.5 287.5 L 553.5 37.5 M 645.5 287.5 L 645.5 37.5 M 737.5 287.5 L 737.5 37.5" stroke-opacity="1" stroke-linejoin="bevel" stroke-miterlimit="10" stroke-dasharray="" clip-path="url(#WwpUPKpSvTPO)"/><path fill="none" stroke="none"/><path fill="rgb(68,1,84)" stroke="none" paint-order="stroke" d="M 276.5 268.75 L 519.5421142578125 268.75 L 519.5421142578125 281.25 L 276.5 281.25 L 276.5 268.75" fill-opacity="0.8" clip-path="url(#sgVAVAreCMpr)"/><path fill="none" stroke="rgb(68,1,84)" paint-order="fill" d="M 276.5 268.75 L 519.5421142578125 268.75 L 519.5421142578125 281.25 L 276.5 281.25 L 276.5 268.75" stroke-opacity="0.8" stroke-linejoin="bevel" stroke-miterlimit="10" stroke-dasharray="" clip-path="url(#sgVAVAreCMpr)"/><path fill="rgb(71,39,119)" stroke="none" paint-order="stroke" d="M 276.5 243.75 L 532.819091796875 243.75 L 532.819091796875 256.25 L 276.5 256.25 L 276.5 243.75" fill-opacity="0.8" clip-path="url(#sgVAVAreCMpr)"/><path fill="none" stroke="rgb(71,39,119)" paint-order="fill" d="M 276.5 243.75 L 532.819091796875 243.75 L 532.819091796875 256.25 L 276.5 256.25 L 276.5 243.75" stroke-opacity="0.8" stroke-linejoin="bevel" stroke-miterlimit="10" stroke-dasharray="" clip-path="url(#sgVAVAreCMpr)"/><path fill="rgb(62,73,137)" stroke="none" paint-order="stroke" d="M 276.5 218.75 L 533.4644775390625 218.75 L 533.4644775390625 231.25 L 276.5 231.25 L 276.5 218.75" fill-opacity="0.8" clip-path="url(#sgVAVAreCMpr)"/><path fill="none" stroke="rgb(62,73,137)" paint-order="fill" d="M 276.5 218.75 L 533.4644775390625 218.75 L 533.4644775390625 231.25 L 276.5 231.25 L 276.5 218.75" stroke-opacity="0.8" stroke-linejoin="bevel" stroke-miterlimit="10" stroke-dasharray="" clip-path="url(#sgVAVAreCMpr)"/><path fill="rgb(48,103,141)" stroke="none" paint-order="stroke" d="M 276.5 193.75 L 526.364990234375 193.75 L 526.364990234375 206.25 L 276.5 206.25 L 276.5 193.75" fill-opacity="0.8" clip-path="url(#sgVAVAreCMpr)"/><path fill="none" stroke="rgb(48,103,141)" paint-order="fill" d="M 276.5 193.75 L 526.364990234375 193.75 L 526.364990234375 206.25 L 276.5 206.25 L 276.5 193.75" stroke-opacity="0.8" stroke-linejoin="bevel" stroke-miterlimit="10" stroke-dasharray="" clip-path="url(#sgVAVAreCMpr)"/><path fill="rgb(37,130,142)" stroke="none" paint-order="stroke" d="M 276.5 168.75 L 703.2988891601562 168.75 L 703.2988891601562 181.25 L 276.5 181.25 L 276.5 168.75" fill-opacity="0.8" clip-path="url(#sgVAVAreCMpr)"/><path fill="none" stroke="rgb(37,130,142)" paint-order="fill" d="M 276.5 168.75 L 703.2988891601562 168.75 L 703.2988891601562 181.25 L 276.5 181.25 L 276.5 168.75" stroke-opacity="0.8" stroke-linejoin="bevel" stroke-miterlimit="10" stroke-dasharray="" clip-path="url(#sgVAVAreCMpr)"/><path fill="rgb(30,156,137)" stroke="none" paint-order="stroke" d="M 276.5 143.75 L 676.6527709960938 143.75 L 676.6527709960938 156.25 L 276.5 156.25 L 276.5 143.75" fill-opacity="0.8" clip-path="url(#sgVAVAreCMpr)"/><path fill="none" stroke="rgb(30,156,137)" paint-order="fill" d="M 276.5 143.75 L 676.6527709960938 143.75 L 676.6527709960938 156.25 L 276.5 156.25 L 276.5 143.75" stroke-opacity="0.8" stroke-linejoin="bevel" stroke-miterlimit="10" stroke-dasharray="" clip-path="url(#sgVAVAreCMpr)"/><path fill="rgb(53,183,120)" stroke="none" paint-order="stroke" d="M 276.5 118.75 L 550.8905029296875 118.75 L 550.8905029296875 131.25 L 276.5 131.25 L 276.5 118.75" fill-opacity="0.8" clip-path="url(#sgVAVAreCMpr)"/><path fill="none" stroke="rgb(53,183,120)" paint-order="fill" d="M 276.5 118.75 L 550.8905029296875 118.75 L 550.8905029296875 131.25 L 276.5 131.25 L 276.5 118.75" stroke-opacity="0.8" stroke-linejoin="bevel" stroke-miterlimit="10" stroke-dasharray="" clip-path="url(#sgVAVAreCMpr)"/><path fill="rgb(107,205,89)" stroke="none" paint-order="stroke" d="M 276.5 93.75 L 548.4932250976562 93.75 L 548.4932250976562 106.25 L 276.5 106.25 L 276.5 93.75" fill-opacity="0.8" clip-path="url(#sgVAVAreCMpr)"/><path fill="none" stroke="rgb(107,205,89)" paint-order="fill" d="M 276.5 93.75 L 548.4932250976562 93.75 L 548.4932250976562 106.25 L 276.5 106.25 L 276.5 93.75" stroke-opacity="0.8" stroke-linejoin="bevel" stroke-miterlimit="10" stroke-dasharray="" clip-path="url(#sgVAVAreCMpr)"/><path fill="rgb(178,221,44)" stroke="none" paint-order="stroke" d="M 276.5 68.75 L 444.6748046875 68.75 L 444.6748046875 81.25 L 276.5 81.25 L 276.5 68.75" fill-opacity="0.8" clip-path="url(#sgVAVAreCMpr)"/><path fill="none" stroke="rgb(178,221,44)" paint-order="fill" d="M 276.5 68.75 L 444.6748046875 68.75 L 444.6748046875 81.25 L 276.5 81.25 L 276.5 68.75" stroke-opacity="0.8" stroke-linejoin="bevel" stroke-miterlimit="10" stroke-dasharray="" clip-path="url(#sgVAVAreCMpr)"/><path fill="rgb(253,231,36)" stroke="none" paint-order="stroke" d="M 276.5 43.75 L 439.6959533691406 43.75 L 439.6959533691406 56.25 L 276.5 56.25 L 276.5 43.75" fill-opacity="0.8" clip-path="url(#sgVAVAreCMpr)"/><path fill="none" stroke="rgb(253,231,36)" paint-order="fill" d="M 276.5 43.75 L 439.6959533691406 43.75 L 439.6959533691406 56.25 L 276.5 56.25 L 276.5 43.75" stroke-opacity="0.8" stroke-linejoin="bevel" stroke-miterlimit="10" stroke-dasharray="" clip-path="url(#sgVAVAreCMpr)"/><path fill="none" stroke="rgb(0,0,0)" paint-order="fill" d="M 276.5 287.5 L 795.5 287.5" stroke-opacity="1" stroke-linejoin="bevel" stroke-miterlimit="10" stroke-dasharray=""/><path fill="none" stroke="rgb(0,0,0)" paint-order="fill" d="M 276.5 293.5 L 276.5 285.5 M 368.5 293.5 L 368.5 285.5 M 460.5 293.5 L 460.5 285.5 M 553.5 293.5 L 553.5 285.5 M 645.5 293.5 L 645.5 285.5 M 737.5 293.5 L 737.5 285.5" stroke-opacity="1" stroke-linejoin="bevel" stroke-miterlimit="10" stroke-dasharray=""/><path fill="none" stroke="rgb(0,0,0)" paint-order="fill" d="M 276.5 291.5 L 276.5 287.5 M 294.5 291.5 L 294.5 287.5 M 313.5 291.5 L 313.5 287.5 M 331.5 291.5 L 331.5 287.5 M 350.5 291.5 L 350.5 287.5 M 368.5 291.5 L 368.5 287.5 M 387.5 291.5 L 387.5 287.5 M 405.5 291.5 L 405.5 287.5 M 424.5 291.5 L 424.5 287.5 M 442.5 291.5 L 442.5 287.5 M 460.5 291.5 L 460.5 287.5 M 479.5 291.5 L 479.5 287.5 M 497.5 291.5 L 497.5 287.5 M 516.5 291.5 L 516.5 287.5 M 534.5 291.5 L 534.5 287.5 M 553.5 291.5 L 553.5 287.5 M 571.5 291.5 L 571.5 287.5 M 589.5 291.5 L 589.5 287.5 M 608.5 291.5 L 608.5 287.5 M 626.5 291.5 L 626.5 287.5 M 645.5 291.5 L 645.5 287.5 M 663.5 291.5 L 663.5 287.5 M 682.5 291.5 L 682.5 287.5 M 700.5 291.5 L 700.5 287.5 M 719.5 291.5 L 719.5 287.5 M 737.5 291.5 L 737.5 287.5 M 755.5 291.5 L 755.5 287.5 M 774.5 291.5 L 774.5 287.5 M 792.5 291.5 L 792.5 287.5" stroke-opacity="1" stroke-linejoin="bevel" stroke-miterlimit="10" stroke-dasharray=""/><text fill="rgb(68,68,68)" stroke="none" font-family="helvetica" font-size="14pt" font-style="normal" font-weight="normal" text-decoration="normal" x="0" y="0" text-anchor="middle" dominant-baseline="hanging" transform="matrix(1, 0, 0, 1, 276.5, 298.5)" fill-opacity="1">0</text><text fill="rgb(68,68,68)" stroke="none" font-family="helvetica" font-size="14pt" font-style="normal" font-weight="normal" text-decoration="normal" x="0" y="0" text-anchor="middle" dominant-baseline="hanging" transform="matrix(1, 0, 0, 1, 368.5, 298.5)" fill-opacity="1">1</text><text fill="rgb(68,68,68)" stroke="none" font-family="helvetica" font-size="14pt" font-style="normal" font-weight="normal" text-decoration="normal" x="0" y="0" text-anchor="middle" dominant-baseline="hanging" transform="matrix(1, 0, 0, 1, 460.5, 298.5)" fill-opacity="1">2</text><text fill="rgb(68,68,68)" stroke="none" font-family="helvetica" font-size="14pt" font-style="normal" font-weight="normal" text-decoration="normal" x="0" y="0" text-anchor="middle" dominant-baseline="hanging" transform="matrix(1, 0, 0, 1, 553.5, 298.5)" fill-opacity="1">3</text><text fill="rgb(68,68,68)" stroke="none" font-family="helvetica" font-size="14pt" font-style="normal" font-weight="normal" text-decoration="normal" x="0" y="0" text-anchor="middle" dominant-baseline="hanging" transform="matrix(1, 0, 0, 1, 645.5, 298.5)" fill-opacity="1">4</text><text fill="rgb(68,68,68)" stroke="none" font-family="helvetica" font-size="14pt" font-style="normal" font-weight="normal" text-decoration="normal" x="0" y="0" text-anchor="middle" dominant-baseline="hanging" transform="matrix(1, 0, 0, 1, 737.5, 298.5)" fill-opacity="1">5</text><path fill="none" stroke="rgb(0,0,0)" paint-order="fill" d="M 276.5 287.5 L 276.5 37.5" stroke-opacity="1" stroke-linejoin="bevel" stroke-miterlimit="10" stroke-dasharray=""/><path fill="none" stroke="rgb(0,0,0)" paint-order="fill" d="M 270.5 275.5 L 278.5 275.5 M 270.5 250.5 L 278.5 250.5 M 270.5 225.5 L 278.5 225.5 M 270.5 200.5 L 278.5 200.5 M 270.5 175.5 L 278.5 175.5 M 270.5 150.5 L 278.5 150.5 M 270.5 125.5 L 278.5 125.5 M 270.5 100.5 L 278.5 100.5 M 270.5 75.5 L 278.5 75.5 M 270.5 50.5 L 278.5 50.5" stroke-opacity="1" stroke-linejoin="bevel" stroke-miterlimit="10" stroke-dasharray=""/><path fill="none" stroke="rgb(0,0,0)" paint-order="fill" d="" stroke-opacity="1" stroke-linejoin="bevel" stroke-miterlimit="10" stroke-dasharray=""/><text fill="rgb(68,68,68)" stroke="none" font-family="helvetica" font-size="14pt" font-style="normal" font-weight="normal" text-decoration="normal" x="0" y="0" text-anchor="end" dominant-baseline="central" transform="matrix(1, 0, 0, 1, 265.5, 275.5)" fill-opacity="1">Rg from p(r) (SASDBX9)</text><text fill="rgb(68,68,68)" stroke="none" font-family="helvetica" font-size="14pt" font-style="normal" font-weight="normal" text-decoration="normal" x="0" y="0" text-anchor="end" dominant-baseline="central" transform="matrix(1, 0, 0, 1, 265.5, 250.5)" fill-opacity="1">Rg from Guinier (SASDBX9)</text><text fill="rgb(68,68,68)" stroke="none" font-family="helvetica" font-size="14pt" font-style="normal" font-weight="normal" text-decoration="normal" x="0" y="0" text-anchor="end" dominant-baseline="central" transform="matrix(1, 0, 0, 1, 265.5, 225.5)" fill-opacity="1">Rg from p(r) (SASDBW9)</text><text fill="rgb(68,68,68)" stroke="none" font-family="helvetica" font-size="14pt" font-style="normal" font-weight="normal" text-decoration="normal" x="0" y="0" text-anchor="end" dominant-baseline="central" transform="matrix(1, 0, 0, 1, 265.5, 200.5)" fill-opacity="1">Rg from Guinier (SASDBW9)</text><text fill="rgb(68,68,68)" stroke="none" font-family="helvetica" font-size="14pt" font-style="normal" font-weight="normal" text-decoration="normal" x="0" y="0" text-anchor="end" dominant-baseline="central" transform="matrix(1, 0, 0, 1, 265.5, 175.5)" fill-opacity="1">Rg from p(r) (SASDBZ9)</text><text fill="rgb(68,68,68)" stroke="none" font-family="helvetica" font-size="14pt" font-style="normal" font-weight="normal" text-decoration="normal" x="0" y="0" text-anchor="end" dominant-baseline="central" transform="matrix(1, 0, 0, 1, 265.5, 150.5)" fill-opacity="1">Rg from Guinier (SASDBZ9)</text><text fill="rgb(68,68,68)" stroke="none" font-family="helvetica" font-size="14pt" font-style="normal" font-weight="normal" text-decoration="normal" x="0" y="0" text-anchor="end" dominant-baseline="central" transform="matrix(1, 0, 0, 1, 265.5, 125.5)" fill-opacity="1">Rg from p(r) (SASDBY9)</text><text fill="rgb(68,68,68)" stroke="none" font-family="helvetica" font-size="14pt" font-style="normal" font-weight="normal" text-decoration="normal" x="0" y="0" text-anchor="end" dominant-baseline="central" transform="matrix(1, 0, 0, 1, 265.5, 100.5)" fill-opacity="1">Rg from Guinier (SASDBY9)</text><text fill="rgb(68,68,68)" stroke="none" font-family="helvetica" font-size="14pt" font-style="normal" font-weight="normal" text-decoration="normal" x="0" y="0" text-anchor="end" dominant-baseline="central" transform="matrix(1, 0, 0, 1, 265.5, 75.5)" fill-opacity="1">Rg from p(r) (SASDBV9)</text><text fill="rgb(68,68,68)" stroke="none" font-family="helvetica" font-size="14pt" font-style="normal" font-weight="normal" text-decoration="normal" x="0" y="0" text-anchor="end" dominant-baseline="central" transform="matrix(1, 0, 0, 1, 265.5, 50.5)" fill-opacity="1">Rg from Guinier (SASDBV9)</text><path fill="rgb(255,255,255)" stroke="rgb(229,229,229)" paint-order="fill" d="M 707.1500015258789 47.5 L 785.5 47.5 L 785.5 294.5 L 707.1500015258789 294.5 L 707.1500015258789 47.5" fill-opacity="0.95" clip-path="url(#MByZxJWUBOMu)" stroke-opacity="0.5" stroke-linejoin="bevel" stroke-miterlimit="10" stroke-dasharray=""/><text fill="rgb(68,68,68)" stroke="none" font-family="helvetica" font-size="8px" font-style="normal" font-weight="normal" text-decoration="normal" x="741.6500015258789" y="67" text-anchor="start" dominant-baseline="central" transform="matrix(1, 0, 0, 1, 0.5, 0.5)" fill-opacity="1">1.77 nm</text><path fill="rgb(253,231,36)" stroke="none" paint-order="stroke" d="M 719.1500015258789 59.5 L 735.1500015258789 59.5 L 735.1500015258789 75.5 L 719.1500015258789 75.5 L 719.1500015258789 59.5" fill-opacity="0.8" clip-path="url(#MByZxJWUBOMu)"/><path fill="none" stroke="rgb(253,231,36)" paint-order="fill" d="M 719.1500015258789 59.5 L 735.1500015258789 59.5 L 735.1500015258789 75.5 L 719.1500015258789 75.5 L 719.1500015258789 59.5" stroke-opacity="0.8" stroke-linejoin="bevel" stroke-miterlimit="10" stroke-dasharray="" clip-path="url(#MByZxJWUBOMu)"/><text fill="rgb(68,68,68)" stroke="none" font-family="helvetica" font-size="8px" font-style="normal" font-weight="normal" text-decoration="normal" x="741.6500015258789" y="90" text-anchor="start" dominant-baseline="central" transform="matrix(1, 0, 0, 1, 0.5, 0.5)" fill-opacity="1">1.824 nm</text><path fill="rgb(178,221,44)" stroke="none" paint-order="stroke" d="M 719.1500015258789 82.5 L 735.1500015258789 82.5 L 735.1500015258789 98.5 L 719.1500015258789 98.5 L 719.1500015258789 82.5" fill-opacity="0.8" clip-path="url(#MByZxJWUBOMu)"/><path fill="none" stroke="rgb(178,221,44)" paint-order="fill" d="M 719.1500015258789 82.5 L 735.1500015258789 82.5 L 735.1500015258789 98.5 L 719.1500015258789 98.5 L 719.1500015258789 82.5" stroke-opacity="0.8" stroke-linejoin="bevel" stroke-miterlimit="10" stroke-dasharray="" clip-path="url(#MByZxJWUBOMu)"/><text fill="rgb(68,68,68)" stroke="none" font-family="helvetica" font-size="8px" font-style="normal" font-weight="normal" text-decoration="normal" x="741.6500015258789" y="113" text-anchor="start" dominant-baseline="central" transform="matrix(1, 0, 0, 1, 0.5, 0.5)" fill-opacity="1">2.636 nm</text><path fill="rgb(68,1,84)" stroke="none" paint-order="stroke" d="M 719.1500015258789 105.5 L 735.1500015258789 105.5 L 735.1500015258789 121.5 L 719.1500015258789 121.5 L 719.1500015258789 105.5" fill-opacity="0.8" clip-path="url(#MByZxJWUBOMu)"/><path fill="none" stroke="rgb(68,1,84)" paint-order="fill" d="M 719.1500015258789 105.5 L 735.1500015258789 105.5 L 735.1500015258789 121.5 L 719.1500015258789 121.5 L 719.1500015258789 105.5" stroke-opacity="0.8" stroke-linejoin="bevel" stroke-miterlimit="10" stroke-dasharray="" clip-path="url(#MByZxJWUBOMu)"/><text fill="rgb(68,68,68)" stroke="none" font-family="helvetica" font-size="8px" font-style="normal" font-weight="normal" text-decoration="normal" x="741.6500015258789" y="136" text-anchor="start" dominant-baseline="central" transform="matrix(1, 0, 0, 1, 0.5, 0.5)" fill-opacity="1">2.71 nm</text><path fill="rgb(48,103,141)" stroke="none" paint-order="stroke" d="M 719.1500015258789 128.5 L 735.1500015258789 128.5 L 735.1500015258789 144.5 L 719.1500015258789 144.5 L 719.1500015258789 128.5" fill-opacity="0.8" clip-path="url(#MByZxJWUBOMu)"/><path fill="none" stroke="rgb(48,103,141)" paint-order="fill" d="M 719.1500015258789 128.5 L 735.1500015258789 128.5 L 735.1500015258789 144.5 L 719.1500015258789 144.5 L 719.1500015258789 128.5" stroke-opacity="0.8" stroke-linejoin="bevel" stroke-miterlimit="10" stroke-dasharray="" clip-path="url(#MByZxJWUBOMu)"/><text fill="rgb(68,68,68)" stroke="none" font-family="helvetica" font-size="8px" font-style="normal" font-weight="normal" text-decoration="normal" x="741.6500015258789" y="159" text-anchor="start" dominant-baseline="central" transform="matrix(1, 0, 0, 1, 0.5, 0.5)" fill-opacity="1">2.78 nm</text><path fill="rgb(71,39,119)" stroke="none" paint-order="stroke" d="M 719.1500015258789 151.5 L 735.1500015258789 151.5 L 735.1500015258789 167.5 L 719.1500015258789 167.5 L 719.1500015258789 151.5" fill-opacity="0.8" clip-path="url(#MByZxJWUBOMu)"/><path fill="none" stroke="rgb(71,39,119)" paint-order="fill" d="M 719.1500015258789 151.5 L 735.1500015258789 151.5 L 735.1500015258789 167.5 L 719.1500015258789 167.5 L 719.1500015258789 151.5" stroke-opacity="0.8" stroke-linejoin="bevel" stroke-miterlimit="10" stroke-dasharray="" clip-path="url(#MByZxJWUBOMu)"/><text fill="rgb(68,68,68)" stroke="none" font-family="helvetica" font-size="8px" font-style="normal" font-weight="normal" text-decoration="normal" x="741.6500015258789" y="182" text-anchor="start" dominant-baseline="central" transform="matrix(1, 0, 0, 1, 0.5, 0.5)" fill-opacity="1">2.787 nm</text><path fill="rgb(62,73,137)" stroke="none" paint-order="stroke" d="M 719.1500015258789 174.5 L 735.1500015258789 174.5 L 735.1500015258789 190.5 L 719.1500015258789 190.5 L 719.1500015258789 174.5" fill-opacity="0.8" clip-path="url(#MByZxJWUBOMu)"/><path fill="none" stroke="rgb(62,73,137)" paint-order="fill" d="M 719.1500015258789 174.5 L 735.1500015258789 174.5 L 735.1500015258789 190.5 L 719.1500015258789 190.5 L 719.1500015258789 174.5" stroke-opacity="0.8" stroke-linejoin="bevel" stroke-miterlimit="10" stroke-dasharray="" clip-path="url(#MByZxJWUBOMu)"/><text fill="rgb(68,68,68)" stroke="none" font-family="helvetica" font-size="8px" font-style="normal" font-weight="normal" text-decoration="normal" x="741.6500015258789" y="205" text-anchor="start" dominant-baseline="central" transform="matrix(1, 0, 0, 1, 0.5, 0.5)" fill-opacity="1">2.95 nm</text><path fill="rgb(107,205,89)" stroke="none" paint-order="stroke" d="M 719.1500015258789 197.5 L 735.1500015258789 197.5 L 735.1500015258789 213.5 L 719.1500015258789 213.5 L 719.1500015258789 197.5" fill-opacity="0.8" clip-path="url(#MByZxJWUBOMu)"/><path fill="none" stroke="rgb(107,205,89)" paint-order="fill" d="M 719.1500015258789 197.5 L 735.1500015258789 197.5 L 735.1500015258789 213.5 L 719.1500015258789 213.5 L 719.1500015258789 197.5" stroke-opacity="0.8" stroke-linejoin="bevel" stroke-miterlimit="10" stroke-dasharray="" clip-path="url(#MByZxJWUBOMu)"/><text fill="rgb(68,68,68)" stroke="none" font-family="helvetica" font-size="8px" font-style="normal" font-weight="normal" text-decoration="normal" x="741.6500015258789" y="228" text-anchor="start" dominant-baseline="central" transform="matrix(1, 0, 0, 1, 0.5, 0.5)" fill-opacity="1">2.976 nm</text><path fill="rgb(53,183,120)" stroke="none" paint-order="stroke" d="M 719.1500015258789 220.5 L 735.1500015258789 220.5 L 735.1500015258789 236.5 L 719.1500015258789 236.5 L 719.1500015258789 220.5" fill-opacity="0.8" clip-path="url(#MByZxJWUBOMu)"/><path fill="none" stroke="rgb(53,183,120)" paint-order="fill" d="M 719.1500015258789 220.5 L 735.1500015258789 220.5 L 735.1500015258789 236.5 L 719.1500015258789 236.5 L 719.1500015258789 220.5" stroke-opacity="0.8" stroke-linejoin="bevel" stroke-miterlimit="10" stroke-dasharray="" clip-path="url(#MByZxJWUBOMu)"/><text fill="rgb(68,68,68)" stroke="none" font-family="helvetica" font-size="8px" font-style="normal" font-weight="normal" text-decoration="normal" x="741.6500015258789" y="251" text-anchor="start" dominant-baseline="central" transform="matrix(1, 0, 0, 1, 0.5, 0.5)" fill-opacity="1">4.34 nm</text><path fill="rgb(30,156,137)" stroke="none" paint-order="stroke" d="M 719.1500015258789 243.5 L 735.1500015258789 243.5 L 735.1500015258789 259.5 L 719.1500015258789 259.5 L 719.1500015258789 243.5" fill-opacity="0.8" clip-path="url(#MByZxJWUBOMu)"/><path fill="none" stroke="rgb(30,156,137)" paint-order="fill" d="M 719.1500015258789 243.5 L 735.1500015258789 243.5 L 735.1500015258789 259.5 L 719.1500015258789 259.5 L 719.1500015258789 243.5" stroke-opacity="0.8" stroke-linejoin="bevel" stroke-miterlimit="10" stroke-dasharray="" clip-path="url(#MByZxJWUBOMu)"/><text fill="rgb(68,68,68)" stroke="none" font-family="helvetica" font-size="8px" font-style="normal" font-weight="normal" text-decoration="normal" x="741.6500015258789" y="274" text-anchor="start" dominant-baseline="central" transform="matrix(1, 0, 0, 1, 0.5, 0.5)" fill-opacity="1">4.629 nm</text><path fill="rgb(37,130,142)" stroke="none" paint-order="stroke" d="M 719.1500015258789 266.5 L 735.1500015258789 266.5 L 735.1500015258789 282.5 L 719.1500015258789 282.5 L 719.1500015258789 266.5" fill-opacity="0.8" clip-path="url(#MByZxJWUBOMu)"/><path fill="none" stroke="rgb(37,130,142)" paint-order="fill" d="M 719.1500015258789 266.5 L 735.1500015258789 266.5 L 735.1500015258789 282.5 L 719.1500015258789 282.5 L 719.1500015258789 266.5" stroke-opacity="0.8" stroke-linejoin="bevel" stroke-miterlimit="10" stroke-dasharray="" clip-path="url(#MByZxJWUBOMu)"/><path fill="none" stroke="none"/><text fill="rgb(68,68,68)" stroke="none" font-family="helvetica" font-size="14pt" font-style="normal" font-weight="bold" text-decoration="normal" x="0" y="0" text-anchor="middle" dominant-baseline="text-after-edge" transform="matrix(1, 0, 0, 1, 536, 32.5)" fill-opacity="1">Data Quality: Rg Analysis</text></svg>