<svg version="1.1" xmlns="http://www.w3.org/2000/svg" xmlns:xlink="http://www.w3.org/1999/xlink" width="800" height="300"><defs><clipPath id="lZFhRxOxzCmR"><path fill="none" stroke="none" d="M 197.5 37.5 L 770.5 37.5 L 770.5 207.5 L 197.5 207.5 L 197.5 37.5"/></clipPath><clipPath id="buEBgBLPzOdr"><path fill="none" stroke="none" d="M 197.5 37.5 L 770.5 37.5 L 770.5 207.5 L 197.5 207.5 L 197.5 37.5"/></clipPath><clipPath id="XAIZNplIEkTu"><path fill="none" stroke="none" d="M 197.5 37.5 L 770.5 37.5 L 770.5 207.5 L 197.5 207.5 L 197.5 37.5"/></clipPath><clipPath id="SsLSndqLnNlA"><path fill="none" stroke="none" d="M 197.5 37.5 L 770.5 37.5 L 770.5 207.5 L 197.5 207.5 L 197.5 37.5"/></clipPath></defs><path fill="rgb(255,255,255)" stroke="none" paint-order="stroke" d="M 0.5 0.5 L 800.5 0.5 L 800.5 300.5 L 0.5 300.5 L 0.5 0.5" fill-opacity="1"/><rect fill="#FFFFFF" stroke="none" x="197" y="37" width="573" height="170" transform="matrix(1, 0, 0, 1, 0.5, 0.5)"/><path fill="rgb(255,255,255)" stroke="none" paint-order="stroke" d="M 197.5 37.5 L 770.5 37.5 L 770.5 207.5 L 197.5 207.5 L 197.5 37.5" fill-opacity="1"/><path fill="none" stroke="rgb(229,229,229)" paint-order="fill" d="M 197.5 37.5 L 770.5 37.5 L 770.5 207.5 L 197.5 207.5 L 197.5 37.5" stroke-opacity="1" stroke-linejoin="bevel" stroke-miterlimit="10" stroke-dasharray=""/><path fill="none" stroke="rgb(229,229,229)" paint-order="fill" d="M 299.5 207.5 L 299.5 37.5 M 401.5 207.5 L 401.5 37.5 M 502.5 207.5 L 502.5 37.5 M 604.5 207.5 L 604.5 37.5 M 706.5 207.5 L 706.5 37.5" stroke-opacity="1" stroke-linejoin="bevel" stroke-miterlimit="10" stroke-dasharray="" clip-path="url(#lZFhRxOxzCmR)"/><path fill="none" stroke="none"/><path fill="rgb(68,1,84)" stroke="none" paint-order="stroke" d="M 197.5 190.5 L 465.8297119140625 190.5 L 465.8297119140625 207.5 L 197.5 207.5 L 197.5 190.5" fill-opacity="0.8" clip-path="url(#XAIZNplIEkTu)"/><path fill="none" stroke="rgb(0,0,0)" paint-order="fill" d="M 197.5 190.5 L 465.8297119140625 190.5 L 465.8297119140625 207.5 L 197.5 207.5 L 197.5 190.5" stroke-opacity="0.8" stroke-linejoin="bevel" stroke-miterlimit="10" stroke-dasharray="" clip-path="url(#XAIZNplIEkTu)"/><path fill="rgb(71,39,119)" stroke="none" paint-order="stroke" d="M 197.5 173.5 L 480.48809814453125 173.5 L 480.48809814453125 190.5 L 197.5 190.5 L 197.5 173.5" fill-opacity="0.8" clip-path="url(#XAIZNplIEkTu)"/><path fill="none" stroke="rgb(0,0,0)" paint-order="fill" d="M 197.5 173.5 L 480.48809814453125 173.5 L 480.48809814453125 190.5 L 197.5 190.5 L 197.5 173.5" stroke-opacity="0.8" stroke-linejoin="bevel" stroke-miterlimit="10" stroke-dasharray="" clip-path="url(#XAIZNplIEkTu)"/><path fill="rgb(62,73,137)" stroke="none" paint-order="stroke" d="M 197.5 156.5 L 383.1727600097656 156.5 L 383.1727600097656 173.5 L 197.5 173.5 L 197.5 156.5" fill-opacity="0.8" clip-path="url(#XAIZNplIEkTu)"/><path fill="none" stroke="rgb(0,0,0)" paint-order="fill" d="M 197.5 156.5 L 383.1727600097656 156.5 L 383.1727600097656 173.5 L 197.5 173.5 L 197.5 156.5" stroke-opacity="0.8" stroke-linejoin="bevel" stroke-miterlimit="10" stroke-dasharray="" clip-path="url(#XAIZNplIEkTu)"/><path fill="rgb(48,103,141)" stroke="none" paint-order="stroke" d="M 197.5 139.5 L 377.6758728027344 139.5 L 377.6758728027344 156.5 L 197.5 156.5 L 197.5 139.5" fill-opacity="0.8" clip-path="url(#XAIZNplIEkTu)"/><path fill="none" stroke="rgb(0,0,0)" paint-order="fill" d="M 197.5 139.5 L 377.6758728027344 139.5 L 377.6758728027344 156.5 L 197.5 156.5 L 197.5 139.5" stroke-opacity="0.8" stroke-linejoin="bevel" stroke-miterlimit="10" stroke-dasharray="" clip-path="url(#XAIZNplIEkTu)"/><path fill="rgb(37,130,142)" stroke="none" paint-order="stroke" d="M 197.5 122.5 L 481.2006530761719 122.5 L 481.2006530761719 139.5 L 197.5 139.5 L 197.5 122.5" fill-opacity="0.8" clip-path="url(#XAIZNplIEkTu)"/><path fill="none" stroke="rgb(0,0,0)" paint-order="fill" d="M 197.5 122.5 L 481.2006530761719 122.5 L 481.2006530761719 139.5 L 197.5 139.5 L 197.5 122.5" stroke-opacity="0.8" stroke-linejoin="bevel" stroke-miterlimit="10" stroke-dasharray="" clip-path="url(#XAIZNplIEkTu)"/><path fill="rgb(30,156,137)" stroke="none" paint-order="stroke" d="M 197.5 105.5 L 473.36248779296875 105.5 L 473.36248779296875 122.5 L 197.5 122.5 L 197.5 105.5" fill-opacity="0.8" clip-path="url(#XAIZNplIEkTu)"/><path fill="none" stroke="rgb(0,0,0)" paint-order="fill" d="M 197.5 105.5 L 473.36248779296875 105.5 L 473.36248779296875 122.5 L 197.5 122.5 L 197.5 105.5" stroke-opacity="0.8" stroke-linejoin="bevel" stroke-miterlimit="10" stroke-dasharray="" clip-path="url(#XAIZNplIEkTu)"/><path fill="rgb(53,183,120)" stroke="none" paint-order="stroke" d="M 197.5 88.5 L 500.4397888183594 88.5 L 500.4397888183594 105.5 L 197.5 105.5 L 197.5 88.5" fill-opacity="0.8" clip-path="url(#XAIZNplIEkTu)"/><path fill="none" stroke="rgb(0,0,0)" paint-order="fill" d="M 197.5 88.5 L 500.4397888183594 88.5 L 500.4397888183594 105.5 L 197.5 105.5 L 197.5 88.5" stroke-opacity="0.8" stroke-linejoin="bevel" stroke-miterlimit="10" stroke-dasharray="" clip-path="url(#XAIZNplIEkTu)"/><path fill="rgb(107,205,89)" stroke="none" paint-order="stroke" d="M 197.5 71.5 L 497.7931213378906 71.5 L 497.7931213378906 88.5 L 197.5 88.5 L 197.5 71.5" fill-opacity="0.8" clip-path="url(#XAIZNplIEkTu)"/><path fill="none" stroke="rgb(0,0,0)" paint-order="fill" d="M 197.5 71.5 L 497.7931213378906 71.5 L 497.7931213378906 88.5 L 197.5 88.5 L 197.5 71.5" stroke-opacity="0.8" stroke-linejoin="bevel" stroke-miterlimit="10" stroke-dasharray="" clip-path="url(#XAIZNplIEkTu)"/><path fill="rgb(178,221,44)" stroke="none" paint-order="stroke" d="M 197.5 54.5 L 668.7057495117188 54.5 L 668.7057495117188 71.5 L 197.5 71.5 L 197.5 54.5" fill-opacity="0.8" clip-path="url(#XAIZNplIEkTu)"/><path fill="none" stroke="rgb(0,0,0)" paint-order="fill" d="M 197.5 54.5 L 668.7057495117188 54.5 L 668.7057495117188 71.5 L 197.5 71.5 L 197.5 54.5" stroke-opacity="0.8" stroke-linejoin="bevel" stroke-miterlimit="10" stroke-dasharray="" clip-path="url(#XAIZNplIEkTu)"/><path fill="rgb(253,231,36)" stroke="none" paint-order="stroke" d="M 197.5 37.5 L 639.2871704101562 37.5 L 639.2871704101562 54.5 L 197.5 54.5 L 197.5 37.5" fill-opacity="0.8" clip-path="url(#XAIZNplIEkTu)"/><path fill="none" stroke="rgb(0,0,0)" paint-order="fill" d="M 197.5 37.5 L 639.2871704101562 37.5 L 639.2871704101562 54.5 L 197.5 54.5 L 197.5 37.5" stroke-opacity="0.8" stroke-linejoin="bevel" stroke-miterlimit="10" stroke-dasharray="" clip-path="url(#XAIZNplIEkTu)"/><path fill="none" stroke="rgb(0,0,0)" paint-order="fill" d="M 197.5 207.5 L 770.5 207.5" stroke-opacity="1" stroke-linejoin="bevel" stroke-miterlimit="10" stroke-dasharray=""/><path fill="none" stroke="rgb(0,0,0)" paint-order="fill" d="M 197.5 213.5 L 197.5 205.5 M 299.5 213.5 L 299.5 205.5 M 401.5 213.5 L 401.5 205.5 M 502.5 213.5 L 502.5 205.5 M 604.5 213.5 L 604.5 205.5 M 706.5 213.5 L 706.5 205.5" stroke-opacity="1" stroke-linejoin="bevel" stroke-miterlimit="10" stroke-dasharray=""/><path fill="none" stroke="rgb(0,0,0)" paint-order="fill" d="M 197.5 211.5 L 197.5 207.5 M 217.5 211.5 L 217.5 207.5 M 238.5 211.5 L 238.5 207.5 M 258.5 211.5 L 258.5 207.5 M 278.5 211.5 L 278.5 207.5 M 299.5 211.5 L 299.5 207.5 M 319.5 211.5 L 319.5 207.5 M 340.5 211.5 L 340.5 207.5 M 360.5 211.5 L 360.5 207.5 M 380.5 211.5 L 380.5 207.5 M 401.5 211.5 L 401.5 207.5 M 421.5 211.5 L 421.5 207.5 M 441.5 211.5 L 441.5 207.5 M 462.5 211.5 L 462.5 207.5 M 482.5 211.5 L 482.5 207.5 M 502.5 211.5 L 502.5 207.5 M 523.5 211.5 L 523.5 207.5 M 543.5 211.5 L 543.5 207.5 M 563.5 211.5 L 563.5 207.5 M 584.5 211.5 L 584.5 207.5 M 604.5 211.5 L 604.5 207.5 M 625.5 211.5 L 625.5 207.5 M 645.5 211.5 L 645.5 207.5 M 665.5 211.5 L 665.5 207.5 M 686.5 211.5 L 686.5 207.5 M 706.5 211.5 L 706.5 207.5 M 726.5 211.5 L 726.5 207.5 M 747.5 211.5 L 747.5 207.5 M 767.5 211.5 L 767.5 207.5" stroke-opacity="1" stroke-linejoin="bevel" stroke-miterlimit="10" stroke-dasharray=""/><text fill="rgb(68,68,68)" stroke="none" font-family="helvetica" font-size="14pt" font-style="normal" font-weight="normal" text-decoration="normal" x="0" y="0" text-anchor="middle" dominant-baseline="hanging" transform="matrix(1, 0, 0, 1, 197.5, 218.5)" fill-opacity="1">0</text><text fill="rgb(68,68,68)" stroke="none" font-family="helvetica" font-size="14pt" font-style="normal" font-weight="normal" text-decoration="normal" x="0" y="0" text-anchor="middle" dominant-baseline="hanging" transform="matrix(1, 0, 0, 1, 299.5, 218.5)" fill-opacity="1">1</text><text fill="rgb(68,68,68)" stroke="none" font-family="helvetica" font-size="14pt" font-style="normal" font-weight="normal" text-decoration="normal" x="0" y="0" text-anchor="middle" dominant-baseline="hanging" transform="matrix(1, 0, 0, 1, 401.5, 218.5)" fill-opacity="1">2</text><text fill="rgb(68,68,68)" stroke="none" font-family="helvetica" font-size="14pt" font-style="normal" font-weight="normal" text-decoration="normal" x="0" y="0" text-anchor="middle" dominant-baseline="hanging" transform="matrix(1, 0, 0, 1, 502.5, 218.5)" fill-opacity="1">3</text><text fill="rgb(68,68,68)" stroke="none" font-family="helvetica" font-size="14pt" font-style="normal" font-weight="normal" text-decoration="normal" x="0" y="0" text-anchor="middle" dominant-baseline="hanging" transform="matrix(1, 0, 0, 1, 604.5, 218.5)" fill-opacity="1">4</text><text fill="rgb(68,68,68)" stroke="none" font-family="helvetica" font-size="14pt" font-style="normal" font-weight="normal" text-decoration="normal" x="0" y="0" text-anchor="middle" dominant-baseline="hanging" transform="matrix(1, 0, 0, 1, 706.5, 218.5)" fill-opacity="1">5</text><path fill="none" stroke="rgb(0,0,0)" paint-order="fill" d="M 197.5 207.5 L 197.5 37.5" stroke-opacity="1" stroke-linejoin="bevel" stroke-miterlimit="10" stroke-dasharray=""/><path fill="none" stroke="rgb(0,0,0)" paint-order="fill" d="M 191.5 199.5 L 199.5 199.5 M 191.5 182.5 L 199.5 182.5 M 191.5 165.5 L 199.5 165.5 M 191.5 148.5 L 199.5 148.5 M 191.5 131.5 L 199.5 131.5 M 191.5 114.5 L 199.5 114.5 M 191.5 97.5 L 199.5 97.5 M 191.5 80.5 L 199.5 80.5 M 191.5 63.5 L 199.5 63.5 M 191.5 46.5 L 199.5 46.5" stroke-opacity="1" stroke-linejoin="bevel" stroke-miterlimit="10" stroke-dasharray=""/><path fill="none" stroke="rgb(0,0,0)" paint-order="fill" d="" stroke-opacity="1" stroke-linejoin="bevel" stroke-miterlimit="10" stroke-dasharray=""/><text fill="rgb(68,68,68)" stroke="none" font-family="helvetica" font-size="14pt" font-style="normal" font-weight="normal" text-decoration="normal" x="0" y="0" text-anchor="end" dominant-baseline="central" transform="matrix(1, 0, 0, 1, 186.5, 199.5)" fill-opacity="1">p(r) (SASDBX9)</text><text fill="rgb(68,68,68)" stroke="none" font-family="helvetica" font-size="14pt" font-style="normal" font-weight="normal" text-decoration="normal" x="0" y="0" text-anchor="end" dominant-baseline="central" transform="matrix(1, 0, 0, 1, 186.5, 182.5)" fill-opacity="1">Guinier (SASDBX9)</text><text fill="rgb(68,68,68)" stroke="none" font-family="helvetica" font-size="14pt" font-style="normal" font-weight="normal" text-decoration="normal" x="0" y="0" text-anchor="end" dominant-baseline="central" transform="matrix(1, 0, 0, 1, 186.5, 165.5)" fill-opacity="1">p(r) (SASDBV9)</text><text fill="rgb(68,68,68)" stroke="none" font-family="helvetica" font-size="14pt" font-style="normal" font-weight="normal" text-decoration="normal" x="0" y="0" text-anchor="end" dominant-baseline="central" transform="matrix(1, 0, 0, 1, 186.5, 148.5)" fill-opacity="1">Guinier (SASDBV9)</text><text fill="rgb(68,68,68)" stroke="none" font-family="helvetica" font-size="14pt" font-style="normal" font-weight="normal" text-decoration="normal" x="0" y="0" text-anchor="end" dominant-baseline="central" transform="matrix(1, 0, 0, 1, 186.5, 131.5)" fill-opacity="1">p(r) (SASDBW9)</text><text fill="rgb(68,68,68)" stroke="none" font-family="helvetica" font-size="14pt" font-style="normal" font-weight="normal" text-decoration="normal" x="0" y="0" text-anchor="end" dominant-baseline="central" transform="matrix(1, 0, 0, 1, 186.5, 114.5)" fill-opacity="1">Guinier (SASDBW9)</text><text fill="rgb(68,68,68)" stroke="none" font-family="helvetica" font-size="14pt" font-style="normal" font-weight="normal" text-decoration="normal" x="0" y="0" text-anchor="end" dominant-baseline="central" transform="matrix(1, 0, 0, 1, 186.5, 97.5)" fill-opacity="1">p(r) (SASDBY9)</text><text fill="rgb(68,68,68)" stroke="none" font-family="helvetica" font-size="14pt" font-style="normal" font-weight="normal" text-decoration="normal" x="0" y="0" text-anchor="end" dominant-baseline="central" transform="matrix(1, 0, 0, 1, 186.5, 80.5)" fill-opacity="1">Guinier (SASDBY9)</text><text fill="rgb(68,68,68)" stroke="none" font-family="helvetica" font-size="14pt" font-style="normal" font-weight="normal" text-decoration="normal" x="0" y="0" text-anchor="end" dominant-baseline="central" transform="matrix(1, 0, 0, 1, 186.5, 63.5)" fill-opacity="1">p(r) (SASDBZ9)</text><text fill="rgb(68,68,68)" stroke="none" font-family="helvetica" font-size="14pt" font-style="normal" font-weight="normal" text-decoration="normal" x="0" y="0" text-anchor="end" dominant-baseline="central" transform="matrix(1, 0, 0, 1, 186.5, 46.5)" fill-opacity="1">Guinier (SASDBZ9)</text><path fill="rgb(255,255,255)" stroke="rgb(229,229,229)" paint-order="fill" d="M 179.87500476837158 250.5 L 788.1249952316284 250.5 L 788.1249952316284 290.5 L 179.87500476837158 290.5 L 179.87500476837158 250.5" fill-opacity="0.95" stroke-opacity="0.5" stroke-linejoin="bevel" stroke-miterlimit="10" stroke-dasharray=""/><text fill="rgb(68,68,68)" stroke="none" font-family="helvetica" font-size="8px" font-style="normal" font-weight="normal" text-decoration="normal" x="214.37500476837158" y="270" text-anchor="start" dominant-baseline="central" transform="matrix(1, 0, 0, 1, 0.5, 0.5)" fill-opacity="1">2.636 nm</text><path fill="rgb(68,1,84)" stroke="none" paint-order="stroke" d="M 191.87500476837158 262.5 L 207.87500476837158 262.5 L 207.87500476837158 278.5 L 191.87500476837158 278.5 L 191.87500476837158 262.5" fill-opacity="0.8"/><path fill="none" stroke="rgb(0,0,0)" paint-order="fill" d="M 191.87500476837158 262.5 L 207.87500476837158 262.5 L 207.87500476837158 278.5 L 191.87500476837158 278.5 L 191.87500476837158 262.5" stroke-opacity="0.8" stroke-linejoin="bevel" stroke-miterlimit="10" stroke-dasharray=""/><text fill="rgb(68,68,68)" stroke="none" font-family="helvetica" font-size="8px" font-style="normal" font-weight="normal" text-decoration="normal" x="275.7250032424927" y="270" text-anchor="start" dominant-baseline="central" transform="matrix(1, 0, 0, 1, 0.5, 0.5)" fill-opacity="1">2.78 nm</text><path fill="rgb(71,39,119)" stroke="none" paint-order="stroke" d="M 253.22500324249268 262.5 L 269.2250032424927 262.5 L 269.2250032424927 278.5 L 253.22500324249268 278.5 L 253.22500324249268 262.5" fill-opacity="0.8"/><path fill="none" stroke="rgb(0,0,0)" paint-order="fill" d="M 253.22500324249268 262.5 L 269.2250032424927 262.5 L 269.2250032424927 278.5 L 253.22500324249268 278.5 L 253.22500324249268 262.5" stroke-opacity="0.8" stroke-linejoin="bevel" stroke-miterlimit="10" stroke-dasharray=""/><text fill="rgb(68,68,68)" stroke="none" font-family="helvetica" font-size="8px" font-style="normal" font-weight="normal" text-decoration="normal" x="332.62500286102295" y="270" text-anchor="start" dominant-baseline="central" transform="matrix(1, 0, 0, 1, 0.5, 0.5)" fill-opacity="1">1.824 nm</text><path fill="rgb(62,73,137)" stroke="none" paint-order="stroke" d="M 310.12500286102295 262.5 L 326.12500286102295 262.5 L 326.12500286102295 278.5 L 310.12500286102295 278.5 L 310.12500286102295 262.5" fill-opacity="0.8"/><path fill="none" stroke="rgb(0,0,0)" paint-order="fill" d="M 310.12500286102295 262.5 L 326.12500286102295 262.5 L 326.12500286102295 278.5 L 310.12500286102295 278.5 L 310.12500286102295 262.5" stroke-opacity="0.8" stroke-linejoin="bevel" stroke-miterlimit="10" stroke-dasharray=""/><text fill="rgb(68,68,68)" stroke="none" font-family="helvetica" font-size="8px" font-style="normal" font-weight="normal" text-decoration="normal" x="393.97500133514404" y="270" text-anchor="start" dominant-baseline="central" transform="matrix(1, 0, 0, 1, 0.5, 0.5)" fill-opacity="1">1.77 nm</text><path fill="rgb(48,103,141)" stroke="none" paint-order="stroke" d="M 371.47500133514404 262.5 L 387.47500133514404 262.5 L 387.47500133514404 278.5 L 371.47500133514404 278.5 L 371.47500133514404 262.5" fill-opacity="0.8"/><path fill="none" stroke="rgb(0,0,0)" paint-order="fill" d="M 371.47500133514404 262.5 L 387.47500133514404 262.5 L 387.47500133514404 278.5 L 371.47500133514404 278.5 L 371.47500133514404 262.5" stroke-opacity="0.8" stroke-linejoin="bevel" stroke-miterlimit="10" stroke-dasharray=""/><text fill="rgb(68,68,68)" stroke="none" font-family="helvetica" font-size="8px" font-style="normal" font-weight="normal" text-decoration="normal" x="450.8750009536743" y="270" text-anchor="start" dominant-baseline="central" transform="matrix(1, 0, 0, 1, 0.5, 0.5)" fill-opacity="1">2.787 nm</text><path fill="rgb(37,130,142)" stroke="none" paint-order="stroke" d="M 428.3750009536743 262.5 L 444.3750009536743 262.5 L 444.3750009536743 278.5 L 428.3750009536743 278.5 L 428.3750009536743 262.5" fill-opacity="0.8"/><path fill="none" stroke="rgb(0,0,0)" paint-order="fill" d="M 428.3750009536743 262.5 L 444.3750009536743 262.5 L 444.3750009536743 278.5 L 428.3750009536743 278.5 L 428.3750009536743 262.5" stroke-opacity="0.8" stroke-linejoin="bevel" stroke-miterlimit="10" stroke-dasharray=""/><text fill="rgb(68,68,68)" stroke="none" font-family="helvetica" font-size="8px" font-style="normal" font-weight="normal" text-decoration="normal" x="512.2249994277954" y="270" text-anchor="start" dominant-baseline="central" transform="matrix(1, 0, 0, 1, 0.5, 0.5)" fill-opacity="1">2.71 nm</text><path fill="rgb(30,156,137)" stroke="none" paint-order="stroke" d="M 489.7249994277954 262.5 L 505.7249994277954 262.5 L 505.7249994277954 278.5 L 489.7249994277954 278.5 L 489.7249994277954 262.5" fill-opacity="0.8"/><path fill="none" stroke="rgb(0,0,0)" paint-order="fill" d="M 489.7249994277954 262.5 L 505.7249994277954 262.5 L 505.7249994277954 278.5 L 489.7249994277954 278.5 L 489.7249994277954 262.5" stroke-opacity="0.8" stroke-linejoin="bevel" stroke-miterlimit="10" stroke-dasharray=""/><text fill="rgb(68,68,68)" stroke="none" font-family="helvetica" font-size="8px" font-style="normal" font-weight="normal" text-decoration="normal" x="569.1249990463257" y="270" text-anchor="start" dominant-baseline="central" transform="matrix(1, 0, 0, 1, 0.5, 0.5)" fill-opacity="1">2.976 nm</text><path fill="rgb(53,183,120)" stroke="none" paint-order="stroke" d="M 546.6249990463257 262.5 L 562.6249990463257 262.5 L 562.6249990463257 278.5 L 546.6249990463257 278.5 L 546.6249990463257 262.5" fill-opacity="0.8"/><path fill="none" stroke="rgb(0,0,0)" paint-order="fill" d="M 546.6249990463257 262.5 L 562.6249990463257 262.5 L 562.6249990463257 278.5 L 546.6249990463257 278.5 L 546.6249990463257 262.5" stroke-opacity="0.8" stroke-linejoin="bevel" stroke-miterlimit="10" stroke-dasharray=""/><text fill="rgb(68,68,68)" stroke="none" font-family="helvetica" font-size="8px" font-style="normal" font-weight="normal" text-decoration="normal" x="630.4749975204468" y="270" text-anchor="start" dominant-baseline="central" transform="matrix(1, 0, 0, 1, 0.5, 0.5)" fill-opacity="1">2.95 nm</text><path fill="rgb(107,205,89)" stroke="none" paint-order="stroke" d="M 607.9749975204468 262.5 L 623.9749975204468 262.5 L 623.9749975204468 278.5 L 607.9749975204468 278.5 L 607.9749975204468 262.5" fill-opacity="0.8"/><path fill="none" stroke="rgb(0,0,0)" paint-order="fill" d="M 607.9749975204468 262.5 L 623.9749975204468 262.5 L 623.9749975204468 278.5 L 607.9749975204468 278.5 L 607.9749975204468 262.5" stroke-opacity="0.8" stroke-linejoin="bevel" stroke-miterlimit="10" stroke-dasharray=""/><text fill="rgb(68,68,68)" stroke="none" font-family="helvetica" font-size="8px" font-style="normal" font-weight="normal" text-decoration="normal" x="687.374997138977" y="270" text-anchor="start" dominant-baseline="central" transform="matrix(1, 0, 0, 1, 0.5, 0.5)" fill-opacity="1">4.629 nm</text><path fill="rgb(178,221,44)" stroke="none" paint-order="stroke" d="M 664.874997138977 262.5 L 680.874997138977 262.5 L 680.874997138977 278.5 L 664.874997138977 278.5 L 664.874997138977 262.5" fill-opacity="0.8"/><path fill="none" stroke="rgb(0,0,0)" paint-order="fill" d="M 664.874997138977 262.5 L 680.874997138977 262.5 L 680.874997138977 278.5 L 664.874997138977 278.5 L 664.874997138977 262.5" stroke-opacity="0.8" stroke-linejoin="bevel" stroke-miterlimit="10" stroke-dasharray=""/><text fill="rgb(68,68,68)" stroke="none" font-family="helvetica" font-size="8px" font-style="normal" font-weight="normal" text-decoration="normal" x="748.7249956130981" y="270" text-anchor="start" dominant-baseline="central" transform="matrix(1, 0, 0, 1, 0.5, 0.5)" fill-opacity="1">4.34 nm</text><path fill="rgb(253,231,36)" stroke="none" paint-order="stroke" d="M 726.2249956130981 262.5 L 742.2249956130981 262.5 L 742.2249956130981 278.5 L 726.2249956130981 278.5 L 726.2249956130981 262.5" fill-opacity="0.8"/><path fill="none" stroke="rgb(0,0,0)" paint-order="fill" d="M 726.2249956130981 262.5 L 742.2249956130981 262.5 L 742.2249956130981 278.5 L 726.2249956130981 278.5 L 726.2249956130981 262.5" stroke-opacity="0.8" stroke-linejoin="bevel" stroke-miterlimit="10" stroke-dasharray=""/><path fill="none" stroke="none"/><text fill="rgb(68,68,68)" stroke="none" font-family="helvetica" font-size="14pt" font-style="normal" font-weight="bold" text-decoration="normal" x="0" y="0" text-anchor="middle" dominant-baseline="text-after-edge" transform="matrix(1, 0, 0, 1, 484, 32.5)" fill-opacity="1">Data Quality: Rg Analysis</text></svg>