<svg version="1.1" xmlns="http://www.w3.org/2000/svg" xmlns:xlink="http://www.w3.org/1999/xlink" width="700" height="250"><defs><clipPath id="VZRkLfFODuUy"><path fill="none" stroke="none" d="M 157.5 37.5 L 670.5 37.5 L 670.5 217.5 L 157.5 217.5 L 157.5 37.5"/></clipPath><clipPath id="cvHePUKOPmrZ"><path fill="none" stroke="none" d="M 157.5 37.5 L 670.5 37.5 L 670.5 217.5 L 157.5 217.5 L 157.5 37.5"/></clipPath><clipPath id="bzMQdKdPpLzA"><path fill="none" stroke="none" d="M 157.5 37.5 L 670.5 37.5 L 670.5 217.5 L 157.5 217.5 L 157.5 37.5"/></clipPath><clipPath id="TdtGEoongeZM"><path fill="none" stroke="none" d="M 157.5 37.5 L 670.5 37.5 L 670.5 217.5 L 157.5 217.5 L 157.5 37.5"/></clipPath><clipPath id="TlnunVOpegmT"><path fill="none" stroke="none" d="M 157.5 37.5 L 670.5 37.5 L 670.5 217.5 L 157.5 217.5 L 157.5 37.5"/></clipPath></defs><path fill="rgb(255,255,255)" stroke="none" paint-order="stroke" d="M 0.5 0.5 L 700.5 0.5 L 700.5 250.5 L 0.5 250.5 L 0.5 0.5" fill-opacity="1"/><rect fill="#FFFFFF" stroke="none" x="157" y="37" width="513" height="180" transform="matrix(1, 0, 0, 1, 0.5, 0.5)"/><path fill="rgb(255,255,255)" stroke="none" paint-order="stroke" d="M 157.5 37.5 L 670.5 37.5 L 670.5 217.5 L 157.5 217.5 L 157.5 37.5" fill-opacity="1"/><path fill="none" stroke="rgb(229,229,229)" paint-order="fill" d="M 157.5 37.5 L 670.5 37.5 L 670.5 217.5 L 157.5 217.5 L 157.5 37.5" stroke-opacity="1" stroke-linejoin="bevel" stroke-miterlimit="10" stroke-dasharray=""/><path fill="none" stroke="rgb(229,229,229)" paint-order="fill" d="M 270.5 217.5 L 270.5 37.5 M 383.5 217.5 L 383.5 37.5 M 497.5 217.5 L 497.5 37.5 M 610.5 217.5 L 610.5 37.5" stroke-opacity="1" stroke-linejoin="bevel" stroke-miterlimit="10" stroke-dasharray="" clip-path="url(#VZRkLfFODuUy)"/><path fill="none" stroke="none"/><path fill="rgb(68,1,84)" stroke="none" paint-order="stroke" d="M 157.5 181.5 L 615.103271484375 181.5 L 615.103271484375 208.5 L 157.5 208.5 L 157.5 181.5" fill-opacity="0.8" clip-path="url(#bzMQdKdPpLzA)"/><path fill="none" stroke="rgb(68,1,84)" paint-order="fill" d="M 157.5 181.5 L 615.103271484375 181.5 L 615.103271484375 208.5 L 157.5 208.5 L 157.5 181.5" stroke-opacity="0.8" stroke-linejoin="bevel" stroke-miterlimit="10" stroke-dasharray="" clip-path="url(#bzMQdKdPpLzA)"/><path fill="rgb(48,103,141)" stroke="none" paint-order="stroke" d="M 157.5 136.5 L 664.8414916992188 136.5 L 664.8414916992188 163.5 L 157.5 163.5 L 157.5 136.5" fill-opacity="0.8" clip-path="url(#bzMQdKdPpLzA)"/><path fill="none" stroke="rgb(48,103,141)" paint-order="fill" d="M 157.5 136.5 L 664.8414916992188 136.5 L 664.8414916992188 163.5 L 157.5 163.5 L 157.5 136.5" stroke-opacity="0.8" stroke-linejoin="bevel" stroke-miterlimit="10" stroke-dasharray="" clip-path="url(#bzMQdKdPpLzA)"/><path fill="rgb(53,183,120)" stroke="none" paint-order="stroke" d="M 157.5 91.5 L 629.8719482421875 91.5 L 629.8719482421875 118.5 L 157.5 118.5 L 157.5 91.5" fill-opacity="0.8" clip-path="url(#bzMQdKdPpLzA)"/><path fill="none" stroke="rgb(53,183,120)" paint-order="fill" d="M 157.5 91.5 L 629.8719482421875 91.5 L 629.8719482421875 118.5 L 157.5 118.5 L 157.5 91.5" stroke-opacity="0.8" stroke-linejoin="bevel" stroke-miterlimit="10" stroke-dasharray="" clip-path="url(#bzMQdKdPpLzA)"/><path fill="rgb(253,231,36)" stroke="none" paint-order="stroke" d="M 157.5 46.5 L 634.7948608398438 46.5 L 634.7948608398438 73.5 L 157.5 73.5 L 157.5 46.5" fill-opacity="0.8" clip-path="url(#bzMQdKdPpLzA)"/><path fill="none" stroke="rgb(253,231,36)" paint-order="fill" d="M 157.5 46.5 L 634.7948608398438 46.5 L 634.7948608398438 73.5 L 157.5 73.5 L 157.5 46.5" stroke-opacity="0.8" stroke-linejoin="bevel" stroke-miterlimit="10" stroke-dasharray="" clip-path="url(#bzMQdKdPpLzA)"/><path fill="none" stroke="rgb(0,0,0)" paint-order="fill" d="M 157.5 217.5 L 670.5 217.5" stroke-opacity="1" stroke-linejoin="bevel" stroke-miterlimit="10" stroke-dasharray=""/><path fill="none" stroke="rgb(0,0,0)" paint-order="fill" d="M 157.5 223.5 L 157.5 215.5 M 270.5 223.5 L 270.5 215.5 M 383.5 223.5 L 383.5 215.5 M 497.5 223.5 L 497.5 215.5 M 610.5 223.5 L 610.5 215.5" stroke-opacity="1" stroke-linejoin="bevel" stroke-miterlimit="10" stroke-dasharray=""/><path fill="none" stroke="rgb(0,0,0)" paint-order="fill" d="M 157.5 221.5 L 157.5 217.5 M 180.5 221.5 L 180.5 217.5 M 202.5 221.5 L 202.5 217.5 M 225.5 221.5 L 225.5 217.5 M 248.5 221.5 L 248.5 217.5 M 270.5 221.5 L 270.5 217.5 M 293.5 221.5 L 293.5 217.5 M 315.5 221.5 L 315.5 217.5 M 338.5 221.5 L 338.5 217.5 M 361.5 221.5 L 361.5 217.5 M 383.5 221.5 L 383.5 217.5 M 406.5 221.5 L 406.5 217.5 M 429.5 221.5 L 429.5 217.5 M 451.5 221.5 L 451.5 217.5 M 474.5 221.5 L 474.5 217.5 M 497.5 221.5 L 497.5 217.5 M 519.5 221.5 L 519.5 217.5 M 542.5 221.5 L 542.5 217.5 M 564.5 221.5 L 564.5 217.5 M 587.5 221.5 L 587.5 217.5 M 610.5 221.5 L 610.5 217.5 M 632.5 221.5 L 632.5 217.5 M 655.5 221.5 L 655.5 217.5" stroke-opacity="1" stroke-linejoin="bevel" stroke-miterlimit="10" stroke-dasharray=""/><text fill="rgb(68,68,68)" stroke="none" font-family="helvetica" font-size="14pt" font-style="normal" font-weight="normal" text-decoration="normal" x="0" y="0" text-anchor="middle" dominant-baseline="hanging" transform="matrix(1, 0, 0, 1, 157.5, 228.5)" fill-opacity="1">0</text><text fill="rgb(68,68,68)" stroke="none" font-family="helvetica" font-size="14pt" font-style="normal" font-weight="normal" text-decoration="normal" x="0" y="0" text-anchor="middle" dominant-baseline="hanging" transform="matrix(1, 0, 0, 1, 270.5, 228.5)" fill-opacity="1">20</text><text fill="rgb(68,68,68)" stroke="none" font-family="helvetica" font-size="14pt" font-style="normal" font-weight="normal" text-decoration="normal" x="0" y="0" text-anchor="middle" dominant-baseline="hanging" transform="matrix(1, 0, 0, 1, 383.5, 228.5)" fill-opacity="1">40</text><text fill="rgb(68,68,68)" stroke="none" font-family="helvetica" font-size="14pt" font-style="normal" font-weight="normal" text-decoration="normal" x="0" y="0" text-anchor="middle" dominant-baseline="hanging" transform="matrix(1, 0, 0, 1, 497.5, 228.5)" fill-opacity="1">60</text><text fill="rgb(68,68,68)" stroke="none" font-family="helvetica" font-size="14pt" font-style="normal" font-weight="normal" text-decoration="normal" x="0" y="0" text-anchor="middle" dominant-baseline="hanging" transform="matrix(1, 0, 0, 1, 610.5, 228.5)" fill-opacity="1">80</text><path fill="none" stroke="rgb(0,0,0)" paint-order="fill" d="M 157.5 217.5 L 157.5 37.5" stroke-opacity="1" stroke-linejoin="bevel" stroke-miterlimit="10" stroke-dasharray=""/><path fill="none" stroke="rgb(0,0,0)" paint-order="fill" d="M 151.5 195.5 L 159.5 195.5 M 151.5 150.5 L 159.5 150.5 M 151.5 105.5 L 159.5 105.5 M 151.5 60.5 L 159.5 60.5" stroke-opacity="1" stroke-linejoin="bevel" stroke-miterlimit="10" stroke-dasharray=""/><path fill="none" stroke="rgb(0,0,0)" paint-order="fill" d="" stroke-opacity="1" stroke-linejoin="bevel" stroke-miterlimit="10" stroke-dasharray=""/><text fill="rgb(68,68,68)" stroke="none" font-family="helvetica" font-size="14pt" font-style="normal" font-weight="normal" text-decoration="normal" x="0" y="0" text-anchor="end" dominant-baseline="central" transform="matrix(1, 0, 0, 1, 146.5, 195.5)" fill-opacity="1">Model Model #1</text><text fill="rgb(68,68,68)" stroke="none" font-family="helvetica" font-size="14pt" font-style="normal" font-weight="normal" text-decoration="normal" x="0" y="0" text-anchor="end" dominant-baseline="central" transform="matrix(1, 0, 0, 1, 146.5, 150.5)" fill-opacity="1">Model Model #2</text><text fill="rgb(68,68,68)" stroke="none" font-family="helvetica" font-size="14pt" font-style="normal" font-weight="normal" text-decoration="normal" x="0" y="0" text-anchor="end" dominant-baseline="central" transform="matrix(1, 0, 0, 1, 146.5, 105.5)" fill-opacity="1">Model Model #3</text><text fill="rgb(68,68,68)" stroke="none" font-family="helvetica" font-size="14pt" font-style="normal" font-weight="normal" text-decoration="normal" x="0" y="0" text-anchor="end" dominant-baseline="central" transform="matrix(1, 0, 0, 1, 146.5, 60.5)" fill-opacity="1">Model Model #4</text><path fill="rgb(255,255,255)" stroke="rgb(229,229,229)" paint-order="fill" d="M 517.8833312988281 47.5 L 660.5 47.5 L 660.5 156.5 L 517.8833312988281 156.5 L 517.8833312988281 47.5" fill-opacity="0.95" clip-path="url(#TdtGEoongeZM)" stroke-opacity="0.5" stroke-linejoin="bevel" stroke-miterlimit="10" stroke-dasharray=""/><text fill="rgb(68,68,68)" stroke="none" font-family="helvetica" font-size="13px" font-style="normal" font-weight="normal" text-decoration="normal" x="552.3833312988281" y="67" text-anchor="start" dominant-baseline="central" transform="matrix(1, 0, 0, 1, 0.5, 0.5)" fill-opacity="1">Model 1: 80.87%</text><path fill="rgb(68,1,84)" stroke="none" paint-order="stroke" d="M 529.8833312988281 59.5 L 545.8833312988281 59.5 L 545.8833312988281 75.5 L 529.8833312988281 75.5 L 529.8833312988281 59.5" fill-opacity="0.8" clip-path="url(#TdtGEoongeZM)"/><path fill="none" stroke="rgb(68,1,84)" paint-order="fill" d="M 529.8833312988281 59.5 L 545.8833312988281 59.5 L 545.8833312988281 75.5 L 529.8833312988281 75.5 L 529.8833312988281 59.5" stroke-opacity="0.8" stroke-linejoin="bevel" stroke-miterlimit="10" stroke-dasharray="" clip-path="url(#TdtGEoongeZM)"/><text fill="rgb(68,68,68)" stroke="none" font-family="helvetica" font-size="13px" font-style="normal" font-weight="normal" text-decoration="normal" x="552.3833312988281" y="90" text-anchor="start" dominant-baseline="central" transform="matrix(1, 0, 0, 1, 0.5, 0.5)" fill-opacity="1">Model 2: 89.66%</text><path fill="rgb(48,103,141)" stroke="none" paint-order="stroke" d="M 529.8833312988281 82.5 L 545.8833312988281 82.5 L 545.8833312988281 98.5 L 529.8833312988281 98.5 L 529.8833312988281 82.5" fill-opacity="0.8" clip-path="url(#TdtGEoongeZM)"/><path fill="none" stroke="rgb(48,103,141)" paint-order="fill" d="M 529.8833312988281 82.5 L 545.8833312988281 82.5 L 545.8833312988281 98.5 L 529.8833312988281 98.5 L 529.8833312988281 82.5" stroke-opacity="0.8" stroke-linejoin="bevel" stroke-miterlimit="10" stroke-dasharray="" clip-path="url(#TdtGEoongeZM)"/><text fill="rgb(68,68,68)" stroke="none" font-family="helvetica" font-size="13px" font-style="normal" font-weight="normal" text-decoration="normal" x="552.3833312988281" y="113" text-anchor="start" dominant-baseline="central" transform="matrix(1, 0, 0, 1, 0.5, 0.5)" fill-opacity="1">Model 3: 83.48%</text><path fill="rgb(53,183,120)" stroke="none" paint-order="stroke" d="M 529.8833312988281 105.5 L 545.8833312988281 105.5 L 545.8833312988281 121.5 L 529.8833312988281 121.5 L 529.8833312988281 105.5" fill-opacity="0.8" clip-path="url(#TdtGEoongeZM)"/><path fill="none" stroke="rgb(53,183,120)" paint-order="fill" d="M 529.8833312988281 105.5 L 545.8833312988281 105.5 L 545.8833312988281 121.5 L 529.8833312988281 121.5 L 529.8833312988281 105.5" stroke-opacity="0.8" stroke-linejoin="bevel" stroke-miterlimit="10" stroke-dasharray="" clip-path="url(#TdtGEoongeZM)"/><text fill="rgb(68,68,68)" stroke="none" font-family="helvetica" font-size="13px" font-style="normal" font-weight="normal" text-decoration="normal" x="552.3833312988281" y="136" text-anchor="start" dominant-baseline="central" transform="matrix(1, 0, 0, 1, 0.5, 0.5)" fill-opacity="1">Model 4: 84.35%</text><path fill="rgb(253,231,36)" stroke="none" paint-order="stroke" d="M 529.8833312988281 128.5 L 545.8833312988281 128.5 L 545.8833312988281 144.5 L 529.8833312988281 144.5 L 529.8833312988281 128.5" fill-opacity="0.8" clip-path="url(#TdtGEoongeZM)"/><path fill="none" stroke="rgb(253,231,36)" paint-order="fill" d="M 529.8833312988281 128.5 L 545.8833312988281 128.5 L 545.8833312988281 144.5 L 529.8833312988281 144.5 L 529.8833312988281 128.5" stroke-opacity="0.8" stroke-linejoin="bevel" stroke-miterlimit="10" stroke-dasharray="" clip-path="url(#TdtGEoongeZM)"/><path fill="none" stroke="none"/><text fill="rgb(68,68,68)" stroke="none" font-family="helvetica" font-size="14pt" font-style="normal" font-weight="bold" text-decoration="normal" x="0" y="0" text-anchor="middle" dominant-baseline="text-after-edge" transform="matrix(1, 0, 0, 1, 414, 32.5)" fill-opacity="1">Fit to XL-MS input</text></svg>