<svg version="1.1" xmlns="http://www.w3.org/2000/svg" xmlns:xlink="http://www.w3.org/1999/xlink" width="500" height="500"><defs><clipPath id="hwSOHudmDuAK"><path fill="none" stroke="none" d="M 68.5 33.5 L 470.5 33.5 L 470.5 439.5 L 68.5 439.5 L 68.5 33.5"/></clipPath><clipPath id="zECkErezHcye"><path fill="none" stroke="none" d="M 68.5 33.5 L 470.5 33.5 L 470.5 439.5 L 68.5 439.5 L 68.5 33.5"/></clipPath><clipPath id="QXufmukgkSuW"><path fill="none" stroke="none" d="M 68.5 33.5 L 470.5 33.5 L 470.5 439.5 L 68.5 439.5 L 68.5 33.5"/></clipPath><clipPath id="keKxobiPJVDE"><path fill="none" stroke="none" d="M 68.5 33.5 L 470.5 33.5 L 470.5 439.5 L 68.5 439.5 L 68.5 33.5"/></clipPath><clipPath id="aIGVNrSHUUfy"><path fill="none" stroke="none" d="M 68.5 33.5 L 470.5 33.5 L 470.5 439.5 L 68.5 439.5 L 68.5 33.5"/></clipPath></defs><path fill="rgb(255,255,255)" stroke="none" paint-order="stroke" d="M 0.5 0.5 L 500.5 0.5 L 500.5 500.5 L 0.5 500.5 L 0.5 0.5" fill-opacity="1"/><rect fill="#FFFFFF" stroke="none" x="68" y="33" width="402" height="406" transform="matrix(1, 0, 0, 1, 0.5, 0.5)"/><path fill="rgb(255,255,255)" stroke="none" paint-order="stroke" d="M 68.5 33.5 L 470.5 33.5 L 470.5 439.5 L 68.5 439.5 L 68.5 33.5" fill-opacity="1"/><path fill="none" stroke="rgb(229,229,229)" paint-order="fill" d="M 68.5 33.5 L 470.5 33.5 L 470.5 439.5 L 68.5 439.5 L 68.5 33.5" stroke-opacity="1" stroke-linejoin="bevel" stroke-miterlimit="10" stroke-dasharray=""/><path fill="none" stroke="rgb(229,229,229)" paint-order="fill" d="M 136.5 439.5 L 136.5 33.5 M 212.5 439.5 L 212.5 33.5 M 287.5 439.5 L 287.5 33.5 M 362.5 439.5 L 362.5 33.5 M 438.5 439.5 L 438.5 33.5" stroke-opacity="1" stroke-linejoin="bevel" stroke-miterlimit="10" stroke-dasharray="" clip-path="url(#hwSOHudmDuAK)"/><path fill="none" stroke="rgb(229,229,229)" paint-order="fill" d="M 68.5 421.5 L 470.5 421.5 M 68.5 329.5 L 470.5 329.5 M 68.5 237.5 L 470.5 237.5 M 68.5 145.5 L 470.5 145.5 M 68.5 53.5 L 470.5 53.5" stroke-opacity="1" stroke-linejoin="bevel" stroke-miterlimit="10" stroke-dasharray="" clip-path="url(#zECkErezHcye)"/><path fill="none" stroke="none"/><path fill="rgb(0,0,255)" stroke="rgb(0,0,255)" paint-order="fill" d="M 89.2727279663086 421.0454406738281 A 2.5 2.5 0 1 1 89.2727267163087 421.0429406742448" fill-opacity="0.3" clip-path="url(#QXufmukgkSuW)" stroke-opacity="1" stroke-linejoin="bevel" stroke-miterlimit="10" stroke-dasharray=""/><path fill="rgb(0,0,255)" stroke="rgb(0,0,255)" paint-order="fill" d="M 92.03321075439453 266.7096862792969 A 2.5 2.5 0 1 1 92.03320950439463 266.70718627971354" fill-opacity="0.3" clip-path="url(#QXufmukgkSuW)" stroke-opacity="1" stroke-linejoin="bevel" stroke-miterlimit="10" stroke-dasharray=""/><path fill="rgb(0,0,255)" stroke="rgb(0,0,255)" paint-order="fill" d="M 98.92687225341797 59.35546112060547 A 2.5 2.5 0 1 1 98.92687100341807 59.35296112102213" fill-opacity="0.3" clip-path="url(#QXufmukgkSuW)" stroke-opacity="1" stroke-linejoin="bevel" stroke-miterlimit="10" stroke-dasharray=""/><path fill="rgb(0,0,255)" stroke="rgb(0,0,255)" paint-order="fill" d="M 108.58100891113281 51.95454406738281 A 2.5 2.5 0 1 1 108.58100766113292 51.95204406779948" fill-opacity="0.3" clip-path="url(#QXufmukgkSuW)" stroke-opacity="1" stroke-linejoin="bevel" stroke-miterlimit="10" stroke-dasharray=""/><path fill="rgb(0,0,255)" stroke="rgb(0,0,255)" paint-order="fill" d="M 118.23515319824219 74.06547546386719 A 2.5 2.5 0 1 1 118.23515194824229 74.06297546428385" fill-opacity="0.3" clip-path="url(#QXufmukgkSuW)" stroke-opacity="1" stroke-linejoin="bevel" stroke-miterlimit="10" stroke-dasharray=""/><path fill="rgb(0,0,255)" stroke="rgb(0,0,255)" paint-order="fill" d="M 125.12881469726562 219.97189331054688 A 2.5 2.5 0 1 1 125.12881344726573 219.96939331096354" fill-opacity="0.3" clip-path="url(#QXufmukgkSuW)" stroke-opacity="1" stroke-linejoin="bevel" stroke-miterlimit="10" stroke-dasharray=""/><path fill="rgb(0,0,255)" stroke="rgb(0,0,255)" paint-order="fill" d="M 134.782958984375 262.00836181640625 A 2.5 2.5 0 1 1 134.78295773437512 262.0058618168229" fill-opacity="0.3" clip-path="url(#QXufmukgkSuW)" stroke-opacity="1" stroke-linejoin="bevel" stroke-miterlimit="10" stroke-dasharray=""/><path fill="rgb(0,0,255)" stroke="rgb(0,0,255)" paint-order="fill" d="M 144.43710327148438 264.395751953125 A 2.5 2.5 0 1 1 144.4371020214845 264.39325195354166" fill-opacity="0.3" clip-path="url(#QXufmukgkSuW)" stroke-opacity="1" stroke-linejoin="bevel" stroke-miterlimit="10" stroke-dasharray=""/><path fill="rgb(0,0,255)" stroke="rgb(0,0,255)" paint-order="fill" d="M 151.3307647705078 217.18048095703125 A 2.5 2.5 0 1 1 151.33076352050793 217.17798095744791" fill-opacity="0.3" clip-path="url(#QXufmukgkSuW)" stroke-opacity="1" stroke-linejoin="bevel" stroke-miterlimit="10" stroke-dasharray=""/><path fill="rgb(0,0,255)" stroke="rgb(0,0,255)" paint-order="fill" d="M 154.09124755859375 175.5847625732422 A 2.5 2.5 0 1 1 154.09124630859387 175.58226257365885" fill-opacity="0.3" clip-path="url(#QXufmukgkSuW)" stroke-opacity="1" stroke-linejoin="bevel" stroke-miterlimit="10" stroke-dasharray=""/><path fill="rgb(0,0,255)" stroke="rgb(0,0,255)" paint-order="fill" d="M 160.9849090576172 149.08470153808594 A 2.5 2.5 0 1 1 160.9849078076173 149.0822015385026" fill-opacity="0.3" clip-path="url(#QXufmukgkSuW)" stroke-opacity="1" stroke-linejoin="bevel" stroke-miterlimit="10" stroke-dasharray=""/><path fill="rgb(0,0,255)" stroke="rgb(0,0,255)" paint-order="fill" d="M 170.63905334472656 119.16883087158203 A 2.5 2.5 0 1 1 170.63905209472668 119.1663308719987" fill-opacity="0.3" clip-path="url(#QXufmukgkSuW)" stroke-opacity="1" stroke-linejoin="bevel" stroke-miterlimit="10" stroke-dasharray=""/><path fill="rgb(0,0,255)" stroke="rgb(0,0,255)" paint-order="fill" d="M 177.53271484375 147.52371215820312 A 2.5 2.5 0 1 1 177.53271359375012 147.5212121586198" fill-opacity="0.3" clip-path="url(#QXufmukgkSuW)" stroke-opacity="1" stroke-linejoin="bevel" stroke-miterlimit="10" stroke-dasharray=""/><path fill="rgb(0,0,255)" stroke="rgb(0,0,255)" paint-order="fill" d="M 180.29318237304688 162.25209045410156 A 2.5 2.5 0 1 1 180.293181123047 162.24959045451823" fill-opacity="0.3" clip-path="url(#QXufmukgkSuW)" stroke-opacity="1" stroke-linejoin="bevel" stroke-miterlimit="10" stroke-dasharray=""/><path fill="rgb(0,0,255)" stroke="rgb(0,0,255)" paint-order="fill" d="M 187.1868438720703 160.25035095214844 A 2.5 2.5 0 1 1 187.18684262207043 160.2478509525651" fill-opacity="0.3" clip-path="url(#QXufmukgkSuW)" stroke-opacity="1" stroke-linejoin="bevel" stroke-miterlimit="10" stroke-dasharray=""/><path fill="rgb(0,0,255)" stroke="rgb(0,0,255)" paint-order="fill" d="M 196.8409881591797 157.75277709960938 A 2.5 2.5 0 1 1 196.8409869091798 157.75027710002604" fill-opacity="0.3" clip-path="url(#QXufmukgkSuW)" stroke-opacity="1" stroke-linejoin="bevel" stroke-miterlimit="10" stroke-dasharray=""/><path fill="rgb(0,0,255)" stroke="rgb(0,0,255)" paint-order="fill" d="M 206.49513244628906 164.45584106445312 A 2.5 2.5 0 1 1 206.49513119628918 164.4533410648698" fill-opacity="0.3" clip-path="url(#QXufmukgkSuW)" stroke-opacity="1" stroke-linejoin="bevel" stroke-miterlimit="10" stroke-dasharray=""/><path fill="rgb(0,0,255)" stroke="rgb(0,0,255)" paint-order="fill" d="M 213.3887939453125 186.94874572753906 A 2.5 2.5 0 1 1 213.38879269531262 186.94624572795573" fill-opacity="0.3" clip-path="url(#QXufmukgkSuW)" stroke-opacity="1" stroke-linejoin="bevel" stroke-miterlimit="10" stroke-dasharray=""/><path fill="rgb(0,0,255)" stroke="rgb(0,0,255)" paint-order="fill" d="M 445.0731201171875 133.98553466796875 A 2.5 2.5 0 1 1 445.0731188671876 133.98303466838541" fill-opacity="0.3" clip-path="url(#QXufmukgkSuW)" stroke-opacity="1" stroke-linejoin="bevel" stroke-miterlimit="10" stroke-dasharray=""/><path fill="rgb(0,0,255)" stroke="rgb(0,0,255)" paint-order="fill" d="M 454.7272644042969 133.98077392578125 A 2.5 2.5 0 1 1 454.72726315429696 133.97827392619791" fill-opacity="0.3" clip-path="url(#QXufmukgkSuW)" stroke-opacity="1" stroke-linejoin="bevel" stroke-miterlimit="10" stroke-dasharray=""/><path fill="none" stroke="rgb(0,0,0)" paint-order="fill" d="M 68.5 439.5 L 470.5 439.5" stroke-opacity="1" stroke-linejoin="bevel" stroke-miterlimit="10" stroke-dasharray=""/><path fill="none" stroke="rgb(0,0,0)" paint-order="fill" d="M 136.5 445.5 L 136.5 437.5 M 212.5 445.5 L 212.5 437.5 M 287.5 445.5 L 287.5 437.5 M 362.5 445.5 L 362.5 437.5 M 438.5 445.5 L 438.5 437.5" stroke-opacity="1" stroke-linejoin="bevel" stroke-miterlimit="10" stroke-dasharray=""/><path fill="none" stroke="rgb(0,0,0)" paint-order="fill" d="M 121.5 443.5 L 121.5 439.5 M 106.5 443.5 L 106.5 439.5 M 91.5 443.5 L 91.5 439.5 M 76.5 443.5 L 76.5 439.5 M 136.5 443.5 L 136.5 439.5 M 151.5 443.5 L 151.5 439.5 M 166.5 443.5 L 166.5 439.5 M 181.5 443.5 L 181.5 439.5 M 196.5 443.5 L 196.5 439.5 M 212.5 443.5 L 212.5 439.5 M 227.5 443.5 L 227.5 439.5 M 242.5 443.5 L 242.5 439.5 M 257.5 443.5 L 257.5 439.5 M 272.5 443.5 L 272.5 439.5 M 287.5 443.5 L 287.5 439.5 M 302.5 443.5 L 302.5 439.5 M 317.5 443.5 L 317.5 439.5 M 332.5 443.5 L 332.5 439.5 M 347.5 443.5 L 347.5 439.5 M 362.5 443.5 L 362.5 439.5 M 378.5 443.5 L 378.5 439.5 M 393.5 443.5 L 393.5 439.5 M 408.5 443.5 L 408.5 439.5 M 423.5 443.5 L 423.5 439.5 M 438.5 443.5 L 438.5 439.5 M 453.5 443.5 L 453.5 439.5 M 468.5 443.5 L 468.5 439.5" stroke-opacity="1" stroke-linejoin="bevel" stroke-miterlimit="10" stroke-dasharray=""/><text fill="rgb(68,68,68)" stroke="none" font-family="helvetica" font-size="14pt" font-style="normal" font-weight="normal" text-decoration="normal" x="0" y="0" text-anchor="middle" dominant-baseline="hanging" transform="matrix(1, 0, 0, 1, 136.5, 450.5)" fill-opacity="1">0.5</text><text fill="rgb(68,68,68)" stroke="none" font-family="helvetica" font-size="14pt" font-style="normal" font-weight="normal" text-decoration="normal" x="0" y="0" text-anchor="middle" dominant-baseline="hanging" transform="matrix(1, 0, 0, 1, 212.5, 450.5)" fill-opacity="1">1</text><text fill="rgb(68,68,68)" stroke="none" font-family="helvetica" font-size="14pt" font-style="normal" font-weight="normal" text-decoration="normal" x="0" y="0" text-anchor="middle" dominant-baseline="hanging" transform="matrix(1, 0, 0, 1, 287.5, 450.5)" fill-opacity="1">1.5</text><text fill="rgb(68,68,68)" stroke="none" font-family="helvetica" font-size="14pt" font-style="normal" font-weight="normal" text-decoration="normal" x="0" y="0" text-anchor="middle" dominant-baseline="hanging" transform="matrix(1, 0, 0, 1, 362.5, 450.5)" fill-opacity="1">2</text><text fill="rgb(68,68,68)" stroke="none" font-family="helvetica" font-size="14pt" font-style="normal" font-weight="normal" text-decoration="normal" x="0" y="0" text-anchor="middle" dominant-baseline="hanging" transform="matrix(1, 0, 0, 1, 438.5, 450.5)" fill-opacity="1">2.5</text><text fill="rgb(68,68,68)" stroke="none" font-family="helvetica" font-size="14pt" font-style="italic" font-weight="normal" text-decoration="normal" x="0" y="0" text-anchor="middle" dominant-baseline="hanging" transform="matrix(1, 0, 0, 1, 269.5, 477.5)" fill-opacity="1">q² [nm ²]</text><path fill="none" stroke="rgb(0,0,0)" paint-order="fill" d="M 68.5 439.5 L 68.5 33.5" stroke-opacity="1" stroke-linejoin="bevel" stroke-miterlimit="10" stroke-dasharray=""/><path fill="none" stroke="rgb(0,0,0)" paint-order="fill" d="M 62.5 421.5 L 70.5 421.5 M 62.5 329.5 L 70.5 329.5 M 62.5 237.5 L 70.5 237.5 M 62.5 145.5 L 70.5 145.5 M 62.5 53.5 L 70.5 53.5" stroke-opacity="1" stroke-linejoin="bevel" stroke-miterlimit="10" stroke-dasharray=""/><path fill="none" stroke="rgb(0,0,0)" paint-order="fill" d="M 64.5 439.5 L 68.5 439.5 M 64.5 421.5 L 68.5 421.5 M 64.5 402.5 L 68.5 402.5 M 64.5 384.5 L 68.5 384.5 M 64.5 365.5 L 68.5 365.5 M 64.5 347.5 L 68.5 347.5 M 64.5 329.5 L 68.5 329.5 M 64.5 310.5 L 68.5 310.5 M 64.5 292.5 L 68.5 292.5 M 64.5 274.5 L 68.5 274.5 M 64.5 255.5 L 68.5 255.5 M 64.5 237.5 L 68.5 237.5 M 64.5 219.5 L 68.5 219.5 M 64.5 200.5 L 68.5 200.5 M 64.5 182.5 L 68.5 182.5 M 64.5 163.5 L 68.5 163.5 M 64.5 145.5 L 68.5 145.5 M 64.5 127.5 L 68.5 127.5 M 64.5 108.5 L 68.5 108.5 M 64.5 90.5 L 68.5 90.5 M 64.5 72.5 L 68.5 72.5 M 64.5 53.5 L 68.5 53.5 M 64.5 35.5 L 68.5 35.5" stroke-opacity="1" stroke-linejoin="bevel" stroke-miterlimit="10" stroke-dasharray=""/><text fill="rgb(68,68,68)" stroke="none" font-family="helvetica" font-size="14pt" font-style="normal" font-weight="normal" text-decoration="normal" x="0" y="0" text-anchor="end" dominant-baseline="central" transform="matrix(1, 0, 0, 1, 57.5, 421.5)" fill-opacity="1">-15</text><text fill="rgb(68,68,68)" stroke="none" font-family="helvetica" font-size="14pt" font-style="normal" font-weight="normal" text-decoration="normal" x="0" y="0" text-anchor="end" dominant-baseline="central" transform="matrix(1, 0, 0, 1, 57.5, 329.5)" fill-opacity="1">-10</text><text fill="rgb(68,68,68)" stroke="none" font-family="helvetica" font-size="14pt" font-style="normal" font-weight="normal" text-decoration="normal" x="0" y="0" text-anchor="end" dominant-baseline="central" transform="matrix(1, 0, 0, 1, 57.5, 237.5)" fill-opacity="1">-5</text><text fill="rgb(68,68,68)" stroke="none" font-family="helvetica" font-size="14pt" font-style="normal" font-weight="normal" text-decoration="normal" x="0" y="0" text-anchor="end" dominant-baseline="central" transform="matrix(1, 0, 0, 1, 57.5, 145.5)" fill-opacity="1">0</text><text fill="rgb(68,68,68)" stroke="none" font-family="helvetica" font-size="14pt" font-style="normal" font-weight="normal" text-decoration="normal" x="0" y="0" text-anchor="end" dominant-baseline="central" transform="matrix(1, 0, 0, 1, 57.5, 53.5)" fill-opacity="1">5</text><text fill="rgb(68,68,68)" stroke="none" font-family="helvetica" font-size="14pt" font-style="italic" font-weight="normal" text-decoration="normal" x="0" y="0" text-anchor="middle" dominant-baseline="alphabetic" transform="matrix(6.123233995736766e-17, -1, 1, 6.123233995736766e-17, 22.5, 236.5)" fill-opacity="1">R</text><path fill="none" stroke="rgb(255,0,0)" paint-order="fill" d="M 68.5 145.6137969404462 L 470.5 145.6137969404462" stroke-opacity="1" stroke-linejoin="bevel" stroke-miterlimit="10" stroke-width="3" stroke-dasharray="" clip-path="url(#keKxobiPJVDE)"/><path fill="none" stroke="none"/><text fill="rgb(68,68,68)" stroke="none" font-family="helvetica" font-size="12pt" font-style="normal" font-weight="bold" text-decoration="normal" x="0" y="0" text-anchor="middle" dominant-baseline="text-before-edge" transform="matrix(1, 0, 0, 1, 269.5, 5.5)" fill-opacity="1">Residuals for P(r) fit (SASDBZ9)</text></svg>