<svg version="1.1" xmlns="http://www.w3.org/2000/svg" xmlns:xlink="http://www.w3.org/1999/xlink" width="500" height="500" style="width: 500px; height: 500px;"><defs><clipPath id="SadmLBTFeuKl"><path fill="none" stroke="none" d=" M 79 33 L 470 33 L 470 439 L 79 439 L 79 33 Z"/></clipPath><clipPath id="uZHTBJnQVPMn"><path fill="none" stroke="none" d=" M 79 33 L 470 33 L 470 439 L 79 439 L 79 33 Z"/></clipPath><clipPath id="NKFTJVIwdSmh"><path fill="none" stroke="none" d=" M 79 33 L 470 33 L 470 439 L 79 439 L 79 33 Z"/></clipPath><clipPath id="MfzbvGbaoIBs"><path fill="none" stroke="none" d=" M 79 33 L 470 33 L 470 439 L 79 439 L 79 33 Z"/></clipPath><clipPath id="fIPqEmITbOMn"><path fill="none" stroke="none" d=" M 79 33 L 470 33 L 470 439 L 79 439 L 79 33 Z"/></clipPath><clipPath id="vJVwXxWKQIvg"><path fill="none" stroke="none" d=" M 79 33 L 470 33 L 470 439 L 79 439 L 79 33 Z"/></clipPath><clipPath id="GLoyqaLxinSy"><path fill="none" stroke="none" d=" M 79 33 L 470 33 L 470 439 L 79 439 L 79 33 Z"/></clipPath><clipPath id="oVVbhLtRTSch"><path fill="none" stroke="none" d=" M 79 33 L 470 33 L 470 439 L 79 439 L 79 33 Z"/></clipPath><clipPath id="gadZTNKEUCyP"><path fill="none" stroke="none" d=" M 79 33 L 470 33 L 470 439 L 79 439 L 79 33 Z"/></clipPath><clipPath id="pCSqEXDrlcTS"><path fill="none" stroke="none" d=" M 79 33 L 470 33 L 470 439 L 79 439 L 79 33 Z"/></clipPath></defs><g transform="scale(1,1) translate(0.5,0.5) scale(1,1) translate(0.5,0.5)"><rect fill="#ffffff" stroke="none" x="0" y="0" width="500" height="500"/><rect fill="#FFFFFF" stroke="none" x="79" y="33" width="391" height="406"/><rect fill="#ffffff" stroke="none" x="79" y="33" width="391" height="406"/><g><rect fill="none" stroke="#e5e5e5" x="79" y="33" width="391" height="406" stroke-linejoin="bevel" stroke-miterlimit="10"/></g><g clip-path="url(#vJVwXxWKQIvg)"><g><g><path fill="none" stroke="#e5e5e5" paint-order="fill stroke markers" d=" M 91 439 L 91 33" stroke-linejoin="bevel" stroke-miterlimit="10"/><path fill="none" stroke="#e5e5e5" paint-order="fill stroke markers" d=" M 159 439 L 159 33" stroke-linejoin="bevel" stroke-miterlimit="10"/><path fill="none" stroke="#e5e5e5" paint-order="fill stroke markers" d=" M 228 439 L 228 33" stroke-linejoin="bevel" stroke-miterlimit="10"/><path fill="none" stroke="#e5e5e5" paint-order="fill stroke markers" d=" M 296 439 L 296 33" stroke-linejoin="bevel" stroke-miterlimit="10"/><path fill="none" stroke="#e5e5e5" paint-order="fill stroke markers" d=" M 364 439 L 364 33" stroke-linejoin="bevel" stroke-miterlimit="10"/><path fill="none" stroke="#e5e5e5" paint-order="fill stroke markers" d=" M 432 439 L 432 33" stroke-linejoin="bevel" stroke-miterlimit="10"/></g></g></g><g clip-path="url(#GLoyqaLxinSy)"><g><g><path fill="none" stroke="#e5e5e5" paint-order="fill stroke markers" d=" M 79 425 L 470 425" stroke-linejoin="bevel" stroke-miterlimit="10"/><path fill="none" stroke="#e5e5e5" paint-order="fill stroke markers" d=" M 79 372 L 470 372" stroke-linejoin="bevel" stroke-miterlimit="10"/><path fill="none" stroke="#e5e5e5" paint-order="fill stroke markers" d=" M 79 319 L 470 319" stroke-linejoin="bevel" stroke-miterlimit="10"/><path fill="none" stroke="#e5e5e5" paint-order="fill stroke markers" d=" M 79 266 L 470 266" stroke-linejoin="bevel" stroke-miterlimit="10"/><path fill="none" stroke="#e5e5e5" paint-order="fill stroke markers" d=" M 79 212 L 470 212" stroke-linejoin="bevel" stroke-miterlimit="10"/><path fill="none" stroke="#e5e5e5" paint-order="fill stroke markers" d=" M 79 159 L 470 159" stroke-linejoin="bevel" stroke-miterlimit="10"/><path fill="none" stroke="#e5e5e5" paint-order="fill stroke markers" d=" M 79 106 L 470 106" stroke-linejoin="bevel" stroke-miterlimit="10"/><path fill="none" stroke="#e5e5e5" paint-order="fill stroke markers" d=" M 79 53 L 470 53" stroke-linejoin="bevel" stroke-miterlimit="10"/></g></g></g><g clip-path="url(#oVVbhLtRTSch)"><g><g><path fill="none" stroke="none"/><path fill="blue" stroke="blue" paint-order="fill stroke markers" d=" M 99.27272727272727 420.54545454545456 A 2.5 2.5 0 1 1 99.27272602272737 420.5429545458712" fill-opacity="0.3" stroke-linejoin="bevel" stroke-miterlimit="10"/><path fill="blue" stroke="blue" paint-order="fill stroke markers" d=" M 101.99651689306862 417.84260360504135 A 2.5 2.5 0 1 1 101.99651564306872 417.840103605458" fill-opacity="0.3" stroke-linejoin="bevel" stroke-miterlimit="10"/><path fill="blue" stroke="blue" paint-order="fill stroke markers" d=" M 104.72030651340995 414.1043386923161 A 2.5 2.5 0 1 1 104.72030526341005 414.10183869273277" fill-opacity="0.3" stroke-linejoin="bevel" stroke-miterlimit="10"/><path fill="blue" stroke="blue" paint-order="fill stroke markers" d=" M 107.4440961337513 409.3543113954789 A 2.5 2.5 0 1 1 107.4440948837514 409.35181139589554" fill-opacity="0.3" stroke-linejoin="bevel" stroke-miterlimit="10"/><path fill="blue" stroke="blue" paint-order="fill stroke markers" d=" M 110.16788575409265 403.6279990968298 A 2.5 2.5 0 1 1 110.16788450409275 403.62549909724646" fill-opacity="0.3" stroke-linejoin="bevel" stroke-miterlimit="10"/><path fill="blue" stroke="blue" paint-order="fill stroke markers" d=" M 112.89167537443399 396.9840927744948 A 2.5 2.5 0 1 1 112.89167412443409 396.98159277491146" fill-opacity="0.3" stroke-linejoin="bevel" stroke-miterlimit="10"/><path fill="blue" stroke="blue" paint-order="fill stroke markers" d=" M 115.61546499477534 389.49004325408134 A 2.5 2.5 0 1 1 115.61546374477544 389.487543254498" fill-opacity="0.3" stroke-linejoin="bevel" stroke-miterlimit="10"/><path fill="blue" stroke="blue" paint-order="fill stroke markers" d=" M 118.33925461511667 381.21768128493767 A 2.5 2.5 0 1 1 118.33925336511678 381.21518128535433" fill-opacity="0.3" stroke-linejoin="bevel" stroke-miterlimit="10"/><path fill="blue" stroke="blue" paint-order="fill stroke markers" d=" M 121.06304423545802 372.2423415554045 A 2.5 2.5 0 1 1 121.06304298545813 372.23984155582116" fill-opacity="0.3" stroke-linejoin="bevel" stroke-miterlimit="10"/><path fill="blue" stroke="blue" paint-order="fill stroke markers" d=" M 123.78683385579936 362.64373867756336 A 2.5 2.5 0 1 1 123.78683260579946 362.64123867798" fill-opacity="0.3" stroke-linejoin="bevel" stroke-miterlimit="10"/><path fill="blue" stroke="blue" paint-order="fill stroke markers" d=" M 126.51062347614072 352.50947112622924 A 2.5 2.5 0 1 1 126.51062222614082 352.5069711266459" fill-opacity="0.3" stroke-linejoin="bevel" stroke-miterlimit="10"/><path fill="blue" stroke="blue" paint-order="fill stroke markers" d=" M 129.23441309648206 341.927575368591 A 2.5 2.5 0 1 1 129.23441184648217 341.9250753690077" fill-opacity="0.3" stroke-linejoin="bevel" stroke-miterlimit="10"/><path fill="blue" stroke="blue" paint-order="fill stroke markers" d=" M 131.9582027168234 330.98564987946367 A 2.5 2.5 0 1 1 131.9582014668235 330.98314987988033" fill-opacity="0.3" stroke-linejoin="bevel" stroke-miterlimit="10"/><path fill="blue" stroke="blue" paint-order="fill stroke markers" d=" M 133.32009752699406 52.235302027447865 A 2.5 2.5 0 1 1 133.32009627699418 52.23280202786453" fill-opacity="0.3" stroke-linejoin="bevel" stroke-miterlimit="10"/><path fill="blue" stroke="blue" paint-order="fill stroke markers" d=" M 134.68199233716473 52.316373814870346 A 2.5 2.5 0 1 1 134.68199108716485 52.31387381528701" fill-opacity="0.3" stroke-linejoin="bevel" stroke-miterlimit="10"/><path fill="blue" stroke="blue" paint-order="fill stroke markers" d=" M 136.04388714733543 52.72844742055242 A 2.5 2.5 0 1 1 136.04388589733554 52.725947420969085" fill-opacity="0.3" stroke-linejoin="bevel" stroke-miterlimit="10"/><path fill="blue" stroke="blue" paint-order="fill stroke markers" d=" M 137.4057819575061 52.827874705616 A 2.5 2.5 0 1 1 137.4057807075062 52.82537470603266" fill-opacity="0.3" stroke-linejoin="bevel" stroke-miterlimit="10"/><path fill="blue" stroke="blue" paint-order="fill stroke markers" d=" M 138.76767676767676 52.54279078353849 A 2.5 2.5 0 1 1 138.76767551767688 52.54029078395516" fill-opacity="0.3" stroke-linejoin="bevel" stroke-miterlimit="10"/><path fill="blue" stroke="blue" paint-order="fill stroke markers" d=" M 140.12957157784743 52.457276602628085 A 2.5 2.5 0 1 1 140.12957032784755 52.45477660304475" fill-opacity="0.3" stroke-linejoin="bevel" stroke-miterlimit="10"/><path fill="blue" stroke="blue" paint-order="fill stroke markers" d=" M 141.49146638801813 52.48722312546631 A 2.5 2.5 0 1 1 141.49146513801824 52.48472312588297" fill-opacity="0.3" stroke-linejoin="bevel" stroke-miterlimit="10"/><path fill="blue" stroke="blue" paint-order="fill stroke markers" d=" M 142.85336119818876 52.387701712384356 A 2.5 2.5 0 1 1 142.85335994818888 52.38520171280102" fill-opacity="0.3" stroke-linejoin="bevel" stroke-miterlimit="10"/><path fill="blue" stroke="blue" paint-order="fill stroke markers" d=" M 144.21525600835946 52.43442720883399 A 2.5 2.5 0 1 1 144.21525475835958 52.43192720925065" fill-opacity="0.3" stroke-linejoin="bevel" stroke-miterlimit="10"/><path fill="blue" stroke="blue" paint-order="fill stroke markers" d=" M 145.57715081853013 52.32482646637667 A 2.5 2.5 0 1 1 145.57714956853025 52.322326466793335" fill-opacity="0.3" stroke-linejoin="bevel" stroke-miterlimit="10"/><path fill="blue" stroke="blue" paint-order="fill stroke markers" d=" M 146.9390456287008 52.6028118659561 A 2.5 2.5 0 1 1 146.9390443787009 52.60031186637276" fill-opacity="0.3" stroke-linejoin="bevel" stroke-miterlimit="10"/><path fill="blue" stroke="blue" paint-order="fill stroke markers" d=" M 148.30094043887146 52.86216965289636 A 2.5 2.5 0 1 1 148.30093918887158 52.85966965331303" fill-opacity="0.3" stroke-linejoin="bevel" stroke-miterlimit="10"/><path fill="blue" stroke="blue" paint-order="fill stroke markers" d=" M 149.66283524904213 52.70895606860124 A 2.5 2.5 0 1 1 149.66283399904225 52.706456069017904" fill-opacity="0.3" stroke-linejoin="bevel" stroke-miterlimit="10"/><path fill="blue" stroke="blue" paint-order="fill stroke markers" d=" M 151.0247300592128 52.74044511438464 A 2.5 2.5 0 1 1 151.02472880921292 52.737945114801306" fill-opacity="0.3" stroke-linejoin="bevel" stroke-miterlimit="10"/><path fill="blue" stroke="blue" paint-order="fill stroke markers" d=" M 152.38662486938347 53.02295392958983 A 2.5 2.5 0 1 1 152.38662361938358 53.0204539300065" fill-opacity="0.3" stroke-linejoin="bevel" stroke-miterlimit="10"/><path fill="blue" stroke="blue" paint-order="fill stroke markers" d=" M 153.74851967955414 53.29952251354101 A 2.5 2.5 0 1 1 153.74851842955425 53.29702251395767" fill-opacity="0.3" stroke-linejoin="bevel" stroke-miterlimit="10"/><path fill="blue" stroke="blue" paint-order="fill stroke markers" d=" M 155.11041448972483 52.96398606415678 A 2.5 2.5 0 1 1 155.11041323972495 52.96148606457344" fill-opacity="0.3" stroke-linejoin="bevel" stroke-miterlimit="10"/><path fill="blue" stroke="blue" paint-order="fill stroke markers" d=" M 156.4723092998955 53.056709613239676 A 2.5 2.5 0 1 1 156.47230804989562 53.05420961365634" fill-opacity="0.3" stroke-linejoin="bevel" stroke-miterlimit="10"/><path fill="blue" stroke="blue" paint-order="fill stroke markers" d=" M 157.83420411006617 52.32577220024541 A 2.5 2.5 0 1 1 157.83420286006628 52.323272200662075" fill-opacity="0.3" stroke-linejoin="bevel" stroke-miterlimit="10"/><path fill="blue" stroke="blue" paint-order="fill stroke markers" d=" M 159.19609892023686 52.81704591282472 A 2.5 2.5 0 1 1 159.19609767023698 52.81454591324138" fill-opacity="0.3" stroke-linejoin="bevel" stroke-miterlimit="10"/><path fill="blue" stroke="blue" paint-order="fill stroke markers" d=" M 160.55799373040753 52.87675616507105 A 2.5 2.5 0 1 1 160.55799248040765 52.874256165487715" fill-opacity="0.3" stroke-linejoin="bevel" stroke-miterlimit="10"/><path fill="blue" stroke="blue" paint-order="fill stroke markers" d=" M 162.26036224312088 52.52068366990941 A 2.5 2.5 0 1 1 162.260360993121 52.518183670326074" fill-opacity="0.3" stroke-linejoin="bevel" stroke-miterlimit="10"/><path fill="blue" stroke="blue" paint-order="fill stroke markers" d=" M 164.64367816091954 52.67219803672495 A 2.5 2.5 0 1 1 164.64367691091965 52.669698037141615" fill-opacity="0.3" stroke-linejoin="bevel" stroke-miterlimit="10"/><path fill="blue" stroke="blue" paint-order="fill stroke markers" d=" M 167.36746778126087 52.478988671489255 A 2.5 2.5 0 1 1 167.367466531261 52.47648867190592" fill-opacity="0.3" stroke-linejoin="bevel" stroke-miterlimit="10"/><path fill="blue" stroke="blue" paint-order="fill stroke markers" d=" M 170.0912574016022 52.35476825935568 A 2.5 2.5 0 1 1 170.09125615160232 52.352268259772345" fill-opacity="0.3" stroke-linejoin="bevel" stroke-miterlimit="10"/><path fill="blue" stroke="blue" paint-order="fill stroke markers" d=" M 172.81504702194357 52.415586688844364 A 2.5 2.5 0 1 1 172.8150457719437 52.41308668926103" fill-opacity="0.3" stroke-linejoin="bevel" stroke-miterlimit="10"/><path fill="blue" stroke="blue" paint-order="fill stroke markers" d=" M 175.5388366422849 51.454545454545524 A 2.5 2.5 0 1 1 175.53883539228502 51.45204545496219" fill-opacity="0.3" stroke-linejoin="bevel" stroke-miterlimit="10"/><path fill="blue" stroke="blue" paint-order="fill stroke markers" d=" M 178.26262626262627 52.27649783504969 A 2.5 2.5 0 1 1 178.2626250126264 52.27399783546635" fill-opacity="0.3" stroke-linejoin="bevel" stroke-miterlimit="10"/><path fill="blue" stroke="blue" paint-order="fill stroke markers" d=" M 180.9864158829676 52.06691323286048 A 2.5 2.5 0 1 1 180.98641463296772 52.06441323327714" fill-opacity="0.3" stroke-linejoin="bevel" stroke-miterlimit="10"/><path fill="blue" stroke="blue" paint-order="fill stroke markers" d=" M 183.71020550330894 51.88979455685689 A 2.5 2.5 0 1 1 183.71020425330906 51.887294557273556" fill-opacity="0.3" stroke-linejoin="bevel" stroke-miterlimit="10"/><path fill="blue" stroke="blue" paint-order="fill stroke markers" d=" M 186.43399512365028 52.316593526037664 A 2.5 2.5 0 1 1 186.4339938736504 52.31409352645433" fill-opacity="0.3" stroke-linejoin="bevel" stroke-miterlimit="10"/><path fill="blue" stroke="blue" paint-order="fill stroke markers" d=" M 189.15778474399164 51.95283095366029 A 2.5 2.5 0 1 1 189.15778349399176 51.950330954076954" fill-opacity="0.3" stroke-linejoin="bevel" stroke-miterlimit="10"/><path fill="blue" stroke="blue" paint-order="fill stroke markers" d=" M 191.88157436433295 52.870902695378 A 2.5 2.5 0 1 1 191.88157311433307 52.868402695794664" fill-opacity="0.3" stroke-linejoin="bevel" stroke-miterlimit="10"/><path fill="blue" stroke="blue" paint-order="fill stroke markers" d=" M 194.6053639846743 51.69672756621742 A 2.5 2.5 0 1 1 194.60536273467443 51.69422756663408" fill-opacity="0.3" stroke-linejoin="bevel" stroke-miterlimit="10"/><path fill="blue" stroke="blue" paint-order="fill stroke markers" d=" M 197.32915360501568 52.582458514912844 A 2.5 2.5 0 1 1 197.3291523550158 52.57995851532951" fill-opacity="0.3" stroke-linejoin="bevel" stroke-miterlimit="10"/><path fill="blue" stroke="blue" paint-order="fill stroke markers" d=" M 200.052943225357 52.771071565313505 A 2.5 2.5 0 1 1 200.05294197535713 52.76857156573017" fill-opacity="0.3" stroke-linejoin="bevel" stroke-miterlimit="10"/><path fill="blue" stroke="blue" paint-order="fill stroke markers" d=" M 202.77673284569835 52.6888387074344 A 2.5 2.5 0 1 1 202.77673159569846 52.686338707851064" fill-opacity="0.3" stroke-linejoin="bevel" stroke-miterlimit="10"/><path fill="blue" stroke="blue" paint-order="fill stroke markers" d=" M 205.50052246603968 52.28425086175683 A 2.5 2.5 0 1 1 205.5005212160398 52.281750862173496" fill-opacity="0.3" stroke-linejoin="bevel" stroke-miterlimit="10"/><path fill="blue" stroke="blue" paint-order="fill stroke markers" d=" M 208.22431208638105 51.691983621420285 A 2.5 2.5 0 1 1 208.22431083638116 51.68948362183695" fill-opacity="0.3" stroke-linejoin="bevel" stroke-miterlimit="10"/><path fill="blue" stroke="blue" paint-order="fill stroke markers" d=" M 210.94810170672235 52.39980001790365 A 2.5 2.5 0 1 1 210.94810045672247 52.397300018320315" fill-opacity="0.3" stroke-linejoin="bevel" stroke-miterlimit="10"/><path fill="blue" stroke="blue" paint-order="fill stroke markers" d=" M 213.67189132706372 52.32176886005652 A 2.5 2.5 0 1 1 213.67189007706384 52.31926886047319" fill-opacity="0.3" stroke-linejoin="bevel" stroke-miterlimit="10"/><path fill="blue" stroke="blue" paint-order="fill stroke markers" d=" M 216.39568094740508 52.41472253625388 A 2.5 2.5 0 1 1 216.3956796974052 52.41222253667055" fill-opacity="0.3" stroke-linejoin="bevel" stroke-miterlimit="10"/><path fill="blue" stroke="blue" paint-order="fill stroke markers" d=" M 219.11947056774642 52.3756914962613 A 2.5 2.5 0 1 1 219.11946931774654 52.37319149667796" fill-opacity="0.3" stroke-linejoin="bevel" stroke-miterlimit="10"/><path fill="blue" stroke="blue" paint-order="fill stroke markers" d=" M 221.84326018808775 51.91043036783067 A 2.5 2.5 0 1 1 221.84325893808787 51.907930368247335" fill-opacity="0.3" stroke-linejoin="bevel" stroke-miterlimit="10"/><path fill="blue" stroke="blue" paint-order="fill stroke markers" d=" M 224.56704980842912 52.25041811602874 A 2.5 2.5 0 1 1 224.56704855842924 52.247918116445405" fill-opacity="0.3" stroke-linejoin="bevel" stroke-miterlimit="10"/><path fill="blue" stroke="blue" paint-order="fill stroke markers" d=" M 227.29083942877045 52.40564678853946 A 2.5 2.5 0 1 1 227.29083817877057 52.40314678895612" fill-opacity="0.3" stroke-linejoin="bevel" stroke-miterlimit="10"/><path fill="blue" stroke="blue" paint-order="fill stroke markers" d=" M 231.10414489724835 52.04626011957292 A 2.5 2.5 0 1 1 231.10414364724846 52.043760119989585" fill-opacity="0.3" stroke-linejoin="bevel" stroke-miterlimit="10"/><path fill="blue" stroke="blue" paint-order="fill stroke markers" d=" M 236.82410309996516 53.18414174758426 A 2.5 2.5 0 1 1 236.82410184996527 53.18164174800093" fill-opacity="0.3" stroke-linejoin="bevel" stroke-miterlimit="10"/><path fill="blue" stroke="blue" paint-order="fill stroke markers" d=" M 243.63357715081852 52.26862958834941 A 2.5 2.5 0 1 1 243.63357590081864 52.26612958876608" fill-opacity="0.3" stroke-linejoin="bevel" stroke-miterlimit="10"/><path fill="blue" stroke="blue" paint-order="fill stroke markers" d=" M 250.4430512016719 52.846986566264945 A 2.5 2.5 0 1 1 250.443049951672 52.84448656668161" fill-opacity="0.3" stroke-linejoin="bevel" stroke-miterlimit="10"/><path fill="blue" stroke="blue" paint-order="fill stroke markers" d=" M 257.25252525252523 52.524813593270146 A 2.5 2.5 0 1 1 257.2525240025253 52.52231359368681" fill-opacity="0.3" stroke-linejoin="bevel" stroke-miterlimit="10"/><path fill="blue" stroke="blue" paint-order="fill stroke markers" d=" M 264.06199930337857 52.386941658962826 A 2.5 2.5 0 1 1 264.06199805337866 52.38444165937949" fill-opacity="0.3" stroke-linejoin="bevel" stroke-miterlimit="10"/><path fill="blue" stroke="blue" paint-order="fill stroke markers" d=" M 270.87147335423197 52.28303915195035 A 2.5 2.5 0 1 1 270.87147210423205 52.28053915236701" fill-opacity="0.3" stroke-linejoin="bevel" stroke-miterlimit="10"/><path fill="blue" stroke="blue" paint-order="fill stroke markers" d=" M 277.68094740508536 52.73537279614134 A 2.5 2.5 0 1 1 277.68094615508545 52.732872796558006" fill-opacity="0.3" stroke-linejoin="bevel" stroke-miterlimit="10"/><path fill="blue" stroke="blue" paint-order="fill stroke markers" d=" M 284.4904214559387 51.96278261787803 A 2.5 2.5 0 1 1 284.4904202059388 51.96028261829469" fill-opacity="0.3" stroke-linejoin="bevel" stroke-miterlimit="10"/><path fill="blue" stroke="blue" paint-order="fill stroke markers" d=" M 291.29989550679204 53.04559375011729 A 2.5 2.5 0 1 1 291.29989425679213 53.043093750533956" fill-opacity="0.3" stroke-linejoin="bevel" stroke-miterlimit="10"/><path fill="blue" stroke="blue" paint-order="fill stroke markers" d=" M 298.10936955764544 52.70854051193065 A 2.5 2.5 0 1 1 298.1093683076455 52.706040512347315" fill-opacity="0.3" stroke-linejoin="bevel" stroke-miterlimit="10"/><path fill="blue" stroke="blue" paint-order="fill stroke markers" d=" M 304.9188436084988 52.86196121248748 A 2.5 2.5 0 1 1 304.91884235849886 52.859461212904144" fill-opacity="0.3" stroke-linejoin="bevel" stroke-miterlimit="10"/><path fill="blue" stroke="blue" paint-order="fill stroke markers" d=" M 311.7283176593521 52.981879445058865 A 2.5 2.5 0 1 1 311.7283164093522 52.97937944547553" fill-opacity="0.3" stroke-linejoin="bevel" stroke-miterlimit="10"/><path fill="blue" stroke="blue" paint-order="fill stroke markers" d=" M 318.5377917102055 53.298824360353855 A 2.5 2.5 0 1 1 318.5377904602056 53.29632436077052" fill-opacity="0.3" stroke-linejoin="bevel" stroke-miterlimit="10"/><path fill="blue" stroke="blue" paint-order="fill stroke markers" d=" M 325.34726576105885 53.23198501394862 A 2.5 2.5 0 1 1 325.34726451105894 53.22948501436529" fill-opacity="0.3" stroke-linejoin="bevel" stroke-miterlimit="10"/><path fill="blue" stroke="blue" paint-order="fill stroke markers" d=" M 332.1567398119122 52.88718786844821 A 2.5 2.5 0 1 1 332.1567385619123 52.88468786886487" fill-opacity="0.3" stroke-linejoin="bevel" stroke-miterlimit="10"/><path fill="blue" stroke="blue" paint-order="fill stroke markers" d=" M 338.9662138627656 52.901429421943575 A 2.5 2.5 0 1 1 338.9662126127657 52.89892942236024" fill-opacity="0.3" stroke-linejoin="bevel" stroke-miterlimit="10"/><path fill="blue" stroke="blue" paint-order="fill stroke markers" d=" M 345.7756879136189 52.94576689467734 A 2.5 2.5 0 1 1 345.775686663619 52.943266895094006" fill-opacity="0.3" stroke-linejoin="bevel" stroke-miterlimit="10"/><path fill="blue" stroke="blue" paint-order="fill stroke markers" d=" M 352.58516196447226 52.945548994666154 A 2.5 2.5 0 1 1 352.58516071447235 52.94304899508282" fill-opacity="0.3" stroke-linejoin="bevel" stroke-miterlimit="10"/><path fill="blue" stroke="blue" paint-order="fill stroke markers" d=" M 359.39463601532566 52.0844079793331 A 2.5 2.5 0 1 1 359.39463476532575 52.081907979749765" fill-opacity="0.3" stroke-linejoin="bevel" stroke-miterlimit="10"/><path fill="blue" stroke="blue" paint-order="fill stroke markers" d=" M 366.204110066179 51.982144962111924 A 2.5 2.5 0 1 1 366.2041088161791 51.97964496252859" fill-opacity="0.3" stroke-linejoin="bevel" stroke-miterlimit="10"/><path fill="blue" stroke="blue" paint-order="fill stroke markers" d=" M 373.01358411703234 52.58529047950914 A 2.5 2.5 0 1 1 373.0135828670324 52.582790479925805" fill-opacity="0.3" stroke-linejoin="bevel" stroke-miterlimit="10"/><path fill="blue" stroke="blue" paint-order="fill stroke markers" d=" M 379.82305816788573 52.185206938506994 A 2.5 2.5 0 1 1 379.8230569178858 52.18270693892366" fill-opacity="0.3" stroke-linejoin="bevel" stroke-miterlimit="10"/><path fill="blue" stroke="blue" paint-order="fill stroke markers" d=" M 386.6325322187391 52.1045054942566 A 2.5 2.5 0 1 1 386.63253096873916 52.102005494673264" fill-opacity="0.3" stroke-linejoin="bevel" stroke-miterlimit="10"/><path fill="blue" stroke="blue" paint-order="fill stroke markers" d=" M 393.44200626959247 52.56712516690397 A 2.5 2.5 0 1 1 393.44200501959256 52.564625167320635" fill-opacity="0.3" stroke-linejoin="bevel" stroke-miterlimit="10"/><path fill="blue" stroke="blue" paint-order="fill stroke markers" d=" M 400.2514803204458 51.71203016077175 A 2.5 2.5 0 1 1 400.2514790704459 51.70953016118841" fill-opacity="0.3" stroke-linejoin="bevel" stroke-miterlimit="10"/><path fill="blue" stroke="blue" paint-order="fill stroke markers" d=" M 407.0609543712992 51.86269275504114 A 2.5 2.5 0 1 1 407.0609531212993 51.8601927554578" fill-opacity="0.3" stroke-linejoin="bevel" stroke-miterlimit="10"/><path fill="blue" stroke="blue" paint-order="fill stroke markers" d=" M 413.87042842215254 52.54821046746858 A 2.5 2.5 0 1 1 413.87042717215263 52.54571046788524" fill-opacity="0.3" stroke-linejoin="bevel" stroke-miterlimit="10"/><path fill="blue" stroke="blue" paint-order="fill stroke markers" d=" M 420.6799024730059 52.14725136828655 A 2.5 2.5 0 1 1 420.67990122300597 52.14475136870321" fill-opacity="0.3" stroke-linejoin="bevel" stroke-miterlimit="10"/><path fill="blue" stroke="blue" paint-order="fill stroke markers" d=" M 427.4893765238593 52.54159280895705 A 2.5 2.5 0 1 1 427.48937527385937 52.53909280937371" fill-opacity="0.3" stroke-linejoin="bevel" stroke-miterlimit="10"/><path fill="blue" stroke="blue" paint-order="fill stroke markers" d=" M 434.2988505747126 52.13987066680943 A 2.5 2.5 0 1 1 434.2988493247127 52.137370667226094" fill-opacity="0.3" stroke-linejoin="bevel" stroke-miterlimit="10"/><path fill="blue" stroke="blue" paint-order="fill stroke markers" d=" M 441.10832462556596 52.36830159040879 A 2.5 2.5 0 1 1 441.10832337556604 52.365801590825455" fill-opacity="0.3" stroke-linejoin="bevel" stroke-miterlimit="10"/><path fill="blue" stroke="blue" paint-order="fill stroke markers" d=" M 447.91779867641935 52.45809450336793 A 2.5 2.5 0 1 1 447.91779742641944 52.455594503784596" fill-opacity="0.3" stroke-linejoin="bevel" stroke-miterlimit="10"/><path fill="blue" stroke="blue" paint-order="fill stroke markers" d=" M 454.7272727272727 52.771424612572105 A 2.5 2.5 0 1 1 454.7272714772728 52.76892461298877" fill-opacity="0.3" stroke-linejoin="bevel" stroke-miterlimit="10"/></g></g></g><g clip-path="url(#gadZTNKEUCyP)"><g><g><path fill="none" stroke="red" paint-order="fill stroke markers" d=" M 79 52.50173278859734 L 470 52.50173278859734" stroke-linejoin="bevel" stroke-miterlimit="10" stroke-width="3"/></g></g></g><g><g fill="#444444"><path fill="" stroke="none" d=""/><g transform="translate(274.5,5)"><path fill="none" stroke="none"/><text fill="" stroke="none" font-family="helvetica" font-size="12pt" font-style="normal" font-weight="bold" text-decoration="normal" x="0" y="0" text-anchor="middle" dominant-baseline="text-before-edge">Error-weighted residuals for model fit (SASDEE2)</text></g></g></g><g/><g><g fill="#444444"><path fill="none" stroke="black" paint-order="fill stroke markers" d=" M 79 439 L 470 439" stroke-linejoin="bevel" stroke-miterlimit="10"/><path fill="none" stroke="black" paint-order="fill stroke markers" d=" M 91 445 L 91 437" stroke-linejoin="bevel" stroke-miterlimit="10"/><path fill="none" stroke="black" paint-order="fill stroke markers" d=" M 159 445 L 159 437" stroke-linejoin="bevel" stroke-miterlimit="10"/><path fill="none" stroke="black" paint-order="fill stroke markers" d=" M 228 445 L 228 437" stroke-linejoin="bevel" stroke-miterlimit="10"/><path fill="none" stroke="black" paint-order="fill stroke markers" d=" M 296 445 L 296 437" stroke-linejoin="bevel" stroke-miterlimit="10"/><path fill="none" stroke="black" paint-order="fill stroke markers" d=" M 364 445 L 364 437" stroke-linejoin="bevel" stroke-miterlimit="10"/><path fill="none" stroke="black" paint-order="fill stroke markers" d=" M 432 445 L 432 437" stroke-linejoin="bevel" stroke-miterlimit="10"/><path fill="none" stroke="black" paint-order="fill stroke markers" d=" M 91 443 L 91 439" stroke-linejoin="bevel" stroke-miterlimit="10"/><path fill="none" stroke="black" paint-order="fill stroke markers" d=" M 105 443 L 105 439" stroke-linejoin="bevel" stroke-miterlimit="10"/><path fill="none" stroke="black" paint-order="fill stroke markers" d=" M 119 443 L 119 439" stroke-linejoin="bevel" stroke-miterlimit="10"/><path fill="none" stroke="black" paint-order="fill stroke markers" d=" M 132 443 L 132 439" stroke-linejoin="bevel" stroke-miterlimit="10"/><path fill="none" stroke="black" paint-order="fill stroke markers" d=" M 146 443 L 146 439" stroke-linejoin="bevel" stroke-miterlimit="10"/><path fill="none" stroke="black" paint-order="fill stroke markers" d=" M 159 443 L 159 439" stroke-linejoin="bevel" stroke-miterlimit="10"/><path fill="none" stroke="black" paint-order="fill stroke markers" d=" M 173 443 L 173 439" stroke-linejoin="bevel" stroke-miterlimit="10"/><path fill="none" stroke="black" paint-order="fill stroke markers" d=" M 187 443 L 187 439" stroke-linejoin="bevel" stroke-miterlimit="10"/><path fill="none" stroke="black" paint-order="fill stroke markers" d=" M 200 443 L 200 439" stroke-linejoin="bevel" stroke-miterlimit="10"/><path fill="none" stroke="black" paint-order="fill stroke markers" d=" M 214 443 L 214 439" stroke-linejoin="bevel" stroke-miterlimit="10"/><path fill="none" stroke="black" paint-order="fill stroke markers" d=" M 228 443 L 228 439" stroke-linejoin="bevel" stroke-miterlimit="10"/><path fill="none" stroke="black" paint-order="fill stroke markers" d=" M 241 443 L 241 439" stroke-linejoin="bevel" stroke-miterlimit="10"/><path fill="none" stroke="black" paint-order="fill stroke markers" d=" M 255 443 L 255 439" stroke-linejoin="bevel" stroke-miterlimit="10"/><path fill="none" stroke="black" paint-order="fill stroke markers" d=" M 268 443 L 268 439" stroke-linejoin="bevel" stroke-miterlimit="10"/><path fill="none" stroke="black" paint-order="fill stroke markers" d=" M 282 443 L 282 439" stroke-linejoin="bevel" stroke-miterlimit="10"/><path fill="none" stroke="black" paint-order="fill stroke markers" d=" M 296 443 L 296 439" stroke-linejoin="bevel" stroke-miterlimit="10"/><path fill="none" stroke="black" paint-order="fill stroke markers" d=" M 309 443 L 309 439" stroke-linejoin="bevel" stroke-miterlimit="10"/><path fill="none" stroke="black" paint-order="fill stroke markers" d=" M 323 443 L 323 439" stroke-linejoin="bevel" stroke-miterlimit="10"/><path fill="none" stroke="black" paint-order="fill stroke markers" d=" M 336 443 L 336 439" stroke-linejoin="bevel" stroke-miterlimit="10"/><path fill="none" stroke="black" paint-order="fill stroke markers" d=" M 350 443 L 350 439" stroke-linejoin="bevel" stroke-miterlimit="10"/><path fill="none" stroke="black" paint-order="fill stroke markers" d=" M 364 443 L 364 439" stroke-linejoin="bevel" stroke-miterlimit="10"/><path fill="none" stroke="black" paint-order="fill stroke markers" d=" M 377 443 L 377 439" stroke-linejoin="bevel" stroke-miterlimit="10"/><path fill="none" stroke="black" paint-order="fill stroke markers" d=" M 391 443 L 391 439" stroke-linejoin="bevel" stroke-miterlimit="10"/><path fill="none" stroke="black" paint-order="fill stroke markers" d=" M 405 443 L 405 439" stroke-linejoin="bevel" stroke-miterlimit="10"/><path fill="none" stroke="black" paint-order="fill stroke markers" d=" M 418 443 L 418 439" stroke-linejoin="bevel" stroke-miterlimit="10"/><path fill="none" stroke="black" paint-order="fill stroke markers" d=" M 432 443 L 432 439" stroke-linejoin="bevel" stroke-miterlimit="10"/><path fill="none" stroke="black" paint-order="fill stroke markers" d=" M 445 443 L 445 439" stroke-linejoin="bevel" stroke-miterlimit="10"/><path fill="" stroke="black" paint-order="fill stroke markers" d=" M 459 443 L 459 439" stroke-linejoin="bevel" stroke-miterlimit="10"/><g transform="translate(91,450) rotate(0,0,0)"><text fill="" stroke="none" font-family="helvetica" font-size="14pt" font-style="normal" font-weight="normal" text-decoration="normal" x="0" y="0" text-anchor="middle" dominant-baseline="hanging">0</text><g transform="rotate(0,0,0) translate(-91,-450) translate(159,450) rotate(0,0,0)"><text fill="" stroke="none" font-family="helvetica" font-size="14pt" font-style="normal" font-weight="normal" text-decoration="normal" x="0" y="0" text-anchor="middle" dominant-baseline="hanging">0.05</text><g transform="rotate(0,0,0) translate(-159,-450) translate(228,450) rotate(0,0,0)"><text fill="" stroke="none" font-family="helvetica" font-size="14pt" font-style="normal" font-weight="normal" text-decoration="normal" x="0" y="0" text-anchor="middle" dominant-baseline="hanging">0.1</text><g transform="rotate(0,0,0) translate(-228,-450) translate(296,450) rotate(0,0,0)"><text fill="" stroke="none" font-family="helvetica" font-size="14pt" font-style="normal" font-weight="normal" text-decoration="normal" x="0" y="0" text-anchor="middle" dominant-baseline="hanging">0.15</text><g transform="rotate(0,0,0) translate(-296,-450) translate(364,450) rotate(0,0,0)"><text fill="" stroke="none" font-family="helvetica" font-size="14pt" font-style="normal" font-weight="normal" text-decoration="normal" x="0" y="0" text-anchor="middle" dominant-baseline="hanging">0.2</text><g transform="rotate(0,0,0) translate(-364,-450) translate(432,450) rotate(0,0,0)"><text fill="" stroke="none" font-family="helvetica" font-size="14pt" font-style="normal" font-weight="normal" text-decoration="normal" x="0" y="0" text-anchor="middle" dominant-baseline="hanging">0.25</text><g transform="rotate(0,0,0) translate(-432,-450) translate(275,477) rotate(0,0,0)"><text fill="" stroke="none" font-family="helvetica" font-size="14pt" font-style="italic" font-weight="normal" text-decoration="normal" x="0" y="0" text-anchor="middle" dominant-baseline="hanging">q [Å⁻⁻¹]</text><g transform="rotate(0,0,0) translate(-275,-477)"/></g></g></g></g></g></g></g></g></g><g><g fill="#444444"><path fill="none" stroke="black" paint-order="fill stroke markers" d=" M 79 439 L 79 33" stroke-linejoin="bevel" stroke-miterlimit="10"/><path fill="none" stroke="black" paint-order="fill stroke markers" d=" M 73 425 L 81 425" stroke-linejoin="bevel" stroke-miterlimit="10"/><path fill="none" stroke="black" paint-order="fill stroke markers" d=" M 73 372 L 81 372" stroke-linejoin="bevel" stroke-miterlimit="10"/><path fill="none" stroke="black" paint-order="fill stroke markers" d=" M 73 319 L 81 319" stroke-linejoin="bevel" stroke-miterlimit="10"/><path fill="none" stroke="black" paint-order="fill stroke markers" d=" M 73 266 L 81 266" stroke-linejoin="bevel" stroke-miterlimit="10"/><path fill="none" stroke="black" paint-order="fill stroke markers" d=" M 73 212 L 81 212" stroke-linejoin="bevel" stroke-miterlimit="10"/><path fill="none" stroke="black" paint-order="fill stroke markers" d=" M 73 159 L 81 159" stroke-linejoin="bevel" stroke-miterlimit="10"/><path fill="none" stroke="black" paint-order="fill stroke markers" d=" M 73 106 L 81 106" stroke-linejoin="bevel" stroke-miterlimit="10"/><path fill="none" stroke="black" paint-order="fill stroke markers" d=" M 73 53 L 81 53" stroke-linejoin="bevel" stroke-miterlimit="10"/><path fill="none" stroke="black" paint-order="fill stroke markers" d=" M 75 436 L 79 436" stroke-linejoin="bevel" stroke-miterlimit="10"/><path fill="none" stroke="black" paint-order="fill stroke markers" d=" M 75 425 L 79 425" stroke-linejoin="bevel" stroke-miterlimit="10"/><path fill="none" stroke="black" paint-order="fill stroke markers" d=" M 75 415 L 79 415" stroke-linejoin="bevel" stroke-miterlimit="10"/><path fill="none" stroke="black" paint-order="fill stroke markers" d=" M 75 404 L 79 404" stroke-linejoin="bevel" stroke-miterlimit="10"/><path fill="none" stroke="black" paint-order="fill stroke markers" d=" M 75 393 L 79 393" stroke-linejoin="bevel" stroke-miterlimit="10"/><path fill="none" stroke="black" paint-order="fill stroke markers" d=" M 75 383 L 79 383" stroke-linejoin="bevel" stroke-miterlimit="10"/><path fill="none" stroke="black" paint-order="fill stroke markers" d=" M 75 372 L 79 372" stroke-linejoin="bevel" stroke-miterlimit="10"/><path fill="none" stroke="black" paint-order="fill stroke markers" d=" M 75 361 L 79 361" stroke-linejoin="bevel" stroke-miterlimit="10"/><path fill="none" stroke="black" paint-order="fill stroke markers" d=" M 75 351 L 79 351" stroke-linejoin="bevel" stroke-miterlimit="10"/><path fill="none" stroke="black" paint-order="fill stroke markers" d=" M 75 340 L 79 340" stroke-linejoin="bevel" stroke-miterlimit="10"/><path fill="none" stroke="black" paint-order="fill stroke markers" d=" M 75 329 L 79 329" stroke-linejoin="bevel" stroke-miterlimit="10"/><path fill="none" stroke="black" paint-order="fill stroke markers" d=" M 75 319 L 79 319" stroke-linejoin="bevel" stroke-miterlimit="10"/><path fill="none" stroke="black" paint-order="fill stroke markers" d=" M 75 308 L 79 308" stroke-linejoin="bevel" stroke-miterlimit="10"/><path fill="none" stroke="black" paint-order="fill stroke markers" d=" M 75 297 L 79 297" stroke-linejoin="bevel" stroke-miterlimit="10"/><path fill="none" stroke="black" paint-order="fill stroke markers" d=" M 75 287 L 79 287" stroke-linejoin="bevel" stroke-miterlimit="10"/><path fill="none" stroke="black" paint-order="fill stroke markers" d=" M 75 276 L 79 276" stroke-linejoin="bevel" stroke-miterlimit="10"/><path fill="none" stroke="black" paint-order="fill stroke markers" d=" M 75 266 L 79 266" stroke-linejoin="bevel" stroke-miterlimit="10"/><path fill="none" stroke="black" paint-order="fill stroke markers" d=" M 75 255 L 79 255" stroke-linejoin="bevel" stroke-miterlimit="10"/><path fill="none" stroke="black" paint-order="fill stroke markers" d=" M 75 244 L 79 244" stroke-linejoin="bevel" stroke-miterlimit="10"/><path fill="none" stroke="black" paint-order="fill stroke markers" d=" M 75 234 L 79 234" stroke-linejoin="bevel" stroke-miterlimit="10"/><path fill="none" stroke="black" paint-order="fill stroke markers" d=" M 75 223 L 79 223" stroke-linejoin="bevel" stroke-miterlimit="10"/><path fill="none" stroke="black" paint-order="fill stroke markers" d=" M 75 212 L 79 212" stroke-linejoin="bevel" stroke-miterlimit="10"/><path fill="none" stroke="black" paint-order="fill stroke markers" d=" M 75 202 L 79 202" stroke-linejoin="bevel" stroke-miterlimit="10"/><path fill="none" stroke="black" paint-order="fill stroke markers" d=" M 75 191 L 79 191" stroke-linejoin="bevel" stroke-miterlimit="10"/><path fill="none" stroke="black" paint-order="fill stroke markers" d=" M 75 180 L 79 180" stroke-linejoin="bevel" stroke-miterlimit="10"/><path fill="none" stroke="black" paint-order="fill stroke markers" d=" M 75 170 L 79 170" stroke-linejoin="bevel" stroke-miterlimit="10"/><path fill="none" stroke="black" paint-order="fill stroke markers" d=" M 75 159 L 79 159" stroke-linejoin="bevel" stroke-miterlimit="10"/><path fill="none" stroke="black" paint-order="fill stroke markers" d=" M 75 148 L 79 148" stroke-linejoin="bevel" stroke-miterlimit="10"/><path fill="none" stroke="black" paint-order="fill stroke markers" d=" M 75 138 L 79 138" stroke-linejoin="bevel" stroke-miterlimit="10"/><path fill="none" stroke="black" paint-order="fill stroke markers" d=" M 75 127 L 79 127" stroke-linejoin="bevel" stroke-miterlimit="10"/><path fill="none" stroke="black" paint-order="fill stroke markers" d=" M 75 116 L 79 116" stroke-linejoin="bevel" stroke-miterlimit="10"/><path fill="none" stroke="black" paint-order="fill stroke markers" d=" M 75 106 L 79 106" stroke-linejoin="bevel" stroke-miterlimit="10"/><path fill="none" stroke="black" paint-order="fill stroke markers" d=" M 75 95 L 79 95" stroke-linejoin="bevel" stroke-miterlimit="10"/><path fill="none" stroke="black" paint-order="fill stroke markers" d=" M 75 84 L 79 84" stroke-linejoin="bevel" stroke-miterlimit="10"/><path fill="none" stroke="black" paint-order="fill stroke markers" d=" M 75 74 L 79 74" stroke-linejoin="bevel" stroke-miterlimit="10"/><path fill="none" stroke="black" paint-order="fill stroke markers" d=" M 75 63 L 79 63" stroke-linejoin="bevel" stroke-miterlimit="10"/><path fill="none" stroke="black" paint-order="fill stroke markers" d=" M 75 53 L 79 53" stroke-linejoin="bevel" stroke-miterlimit="10"/><path fill="" stroke="black" paint-order="fill stroke markers" d=" M 75 42 L 79 42" stroke-linejoin="bevel" stroke-miterlimit="10"/><g transform="translate(68,425) rotate(0,0,0)"><text fill="" stroke="none" font-family="helvetica" font-size="14pt" font-style="normal" font-weight="normal" text-decoration="normal" x="0" y="0" text-anchor="end" dominant-baseline="central">-350</text><g transform="rotate(0,0,0) translate(-68,-425) translate(68,372) rotate(0,0,0)"><text fill="" stroke="none" font-family="helvetica" font-size="14pt" font-style="normal" font-weight="normal" text-decoration="normal" x="0" y="0" text-anchor="end" dominant-baseline="central">-300</text><g transform="rotate(0,0,0) translate(-68,-372) translate(68,319) rotate(0,0,0)"><text fill="" stroke="none" font-family="helvetica" font-size="14pt" font-style="normal" font-weight="normal" text-decoration="normal" x="0" y="0" text-anchor="end" dominant-baseline="central">-250</text><g transform="rotate(0,0,0) translate(-68,-319) translate(68,266) rotate(0,0,0)"><text fill="" stroke="none" font-family="helvetica" font-size="14pt" font-style="normal" font-weight="normal" text-decoration="normal" x="0" y="0" text-anchor="end" dominant-baseline="central">-200</text><g transform="rotate(0,0,0) translate(-68,-266) translate(68,212) rotate(0,0,0)"><text fill="" stroke="none" font-family="helvetica" font-size="14pt" font-style="normal" font-weight="normal" text-decoration="normal" x="0" y="0" text-anchor="end" dominant-baseline="central">-150</text><g transform="rotate(0,0,0) translate(-68,-212) translate(68,159) rotate(0,0,0)"><text fill="" stroke="none" font-family="helvetica" font-size="14pt" font-style="normal" font-weight="normal" text-decoration="normal" x="0" y="0" text-anchor="end" dominant-baseline="central">-100</text><g transform="rotate(0,0,0) translate(-68,-159) translate(68,106) rotate(0,0,0)"><text fill="" stroke="none" font-family="helvetica" font-size="14pt" font-style="normal" font-weight="normal" text-decoration="normal" x="0" y="0" text-anchor="end" dominant-baseline="central">-50</text><g transform="rotate(0,0,0) translate(-68,-106) translate(68,53) rotate(0,0,0)"><text fill="" stroke="none" font-family="helvetica" font-size="14pt" font-style="normal" font-weight="normal" text-decoration="normal" x="0" y="0" text-anchor="end" dominant-baseline="central">0</text><g transform="rotate(0,0,0) translate(-68,-53) translate(22,236) rotate(-90,0,0)"><text fill="" stroke="none" font-family="helvetica" font-size="14pt" font-style="italic" font-weight="normal" text-decoration="normal" x="0" y="0" text-anchor="middle" dominant-baseline="alphabetic">R/σ</text><g transform="rotate(90,0,0) translate(-22,-236)"/></g></g></g></g></g></g></g></g></g></g></g><g clip-path="url(#pCSqEXDrlcTS)"><g/></g></g></svg>