<svg version="1.1" xmlns="http://www.w3.org/2000/svg" xmlns:xlink="http://www.w3.org/1999/xlink" width="800" height="300"><defs><clipPath id="vIBzysfxhbPN"><path fill="none" stroke="none" d="M 243.5 37.5 L 770.5 37.5 L 770.5 207.5 L 243.5 207.5 L 243.5 37.5"/></clipPath><clipPath id="PoaIQUCdKzqf"><path fill="none" stroke="none" d="M 243.5 37.5 L 770.5 37.5 L 770.5 207.5 L 243.5 207.5 L 243.5 37.5"/></clipPath><clipPath id="GiXrkdrtqDMS"><path fill="none" stroke="none" d="M 243.5 37.5 L 770.5 37.5 L 770.5 207.5 L 243.5 207.5 L 243.5 37.5"/></clipPath><clipPath id="uTuDXokVyvJE"><path fill="none" stroke="none" d="M 243.5 37.5 L 770.5 37.5 L 770.5 207.5 L 243.5 207.5 L 243.5 37.5"/></clipPath></defs><path fill="rgb(255,255,255)" stroke="none" paint-order="stroke" d="M 0.5 0.5 L 800.5 0.5 L 800.5 300.5 L 0.5 300.5 L 0.5 0.5" fill-opacity="1"/><rect fill="#FFFFFF" stroke="none" x="243" y="37" width="527" height="170" transform="matrix(1, 0, 0, 1, 0.5, 0.5)"/><path fill="rgb(255,255,255)" stroke="none" paint-order="stroke" d="M 243.5 37.5 L 770.5 37.5 L 770.5 207.5 L 243.5 207.5 L 243.5 37.5" fill-opacity="1"/><path fill="none" stroke="rgb(229,229,229)" paint-order="fill" d="M 243.5 37.5 L 770.5 37.5 L 770.5 207.5 L 243.5 207.5 L 243.5 37.5" stroke-opacity="1" stroke-linejoin="bevel" stroke-miterlimit="10" stroke-dasharray=""/><path fill="none" stroke="rgb(229,229,229)" paint-order="fill" d="M 311.5 207.5 L 311.5 37.5 M 380.5 207.5 L 380.5 37.5 M 448.5 207.5 L 448.5 37.5 M 516.5 207.5 L 516.5 37.5 M 584.5 207.5 L 584.5 37.5 M 653.5 207.5 L 653.5 37.5 M 721.5 207.5 L 721.5 37.5" stroke-opacity="1" stroke-linejoin="bevel" stroke-miterlimit="10" stroke-dasharray="" clip-path="url(#vIBzysfxhbPN)"/><path fill="none" stroke="none"/><path fill="rgb(68,1,84)" stroke="none" paint-order="stroke" d="M 243.5 179.16665649414062 L 633.9714965820312 179.16665649414062 L 633.9714965820312 207.5 L 243.5 207.5 L 243.5 179.16665649414062" fill-opacity="0.8" clip-path="url(#GiXrkdrtqDMS)"/><path fill="none" stroke="rgb(0,0,0)" paint-order="fill" d="M 243.5 179.16665649414062 L 633.9714965820312 179.16665649414062 L 633.9714965820312 207.5 L 243.5 207.5 L 243.5 179.16665649414062" stroke-opacity="0.8" stroke-linejoin="bevel" stroke-miterlimit="10" stroke-dasharray="" clip-path="url(#GiXrkdrtqDMS)"/><path fill="rgb(64,67,135)" stroke="none" paint-order="stroke" d="M 243.5 150.8333282470703 L 418.2564697265625 150.8333282470703 L 418.2564697265625 179.1666717529297 L 243.5 179.1666717529297 L 243.5 150.8333282470703" fill-opacity="0.8" clip-path="url(#GiXrkdrtqDMS)"/><path fill="none" stroke="rgb(0,0,0)" paint-order="fill" d="M 243.5 150.8333282470703 L 418.2564697265625 150.8333282470703 L 418.2564697265625 179.1666717529297 L 243.5 179.1666717529297 L 243.5 150.8333282470703" stroke-opacity="0.8" stroke-linejoin="bevel" stroke-miterlimit="10" stroke-dasharray="" clip-path="url(#GiXrkdrtqDMS)"/><path fill="rgb(41,120,142)" stroke="none" paint-order="stroke" d="M 243.5 122.50000762939453 L 393.68133544921875 122.50000762939453 L 393.68133544921875 150.83334350585938 L 243.5 150.83334350585938 L 243.5 122.50000762939453" fill-opacity="0.8" clip-path="url(#GiXrkdrtqDMS)"/><path fill="none" stroke="rgb(0,0,0)" paint-order="fill" d="M 243.5 122.50000762939453 L 393.68133544921875 122.50000762939453 L 393.68133544921875 150.83334350585938 L 243.5 150.83334350585938 L 243.5 122.50000762939453" stroke-opacity="0.8" stroke-linejoin="bevel" stroke-miterlimit="10" stroke-dasharray="" clip-path="url(#GiXrkdrtqDMS)"/><path fill="rgb(34,167,132)" stroke="none" paint-order="stroke" d="M 243.5 94.16667175292969 L 512.4611511230469 94.16667175292969 L 512.4611511230469 122.5 L 243.5 122.5 L 243.5 94.16667175292969" fill-opacity="0.8" clip-path="url(#GiXrkdrtqDMS)"/><path fill="none" stroke="rgb(0,0,0)" paint-order="fill" d="M 243.5 94.16667175292969 L 512.4611511230469 94.16667175292969 L 512.4611511230469 122.5 L 243.5 122.5 L 243.5 94.16667175292969" stroke-opacity="0.8" stroke-linejoin="bevel" stroke-miterlimit="10" stroke-dasharray="" clip-path="url(#GiXrkdrtqDMS)"/><path fill="rgb(121,209,81)" stroke="none" paint-order="stroke" d="M 243.5 65.83333587646484 L 519.2875366210938 65.83333587646484 L 519.2875366210938 94.16666412353516 L 243.5 94.16666412353516 L 243.5 65.83333587646484" fill-opacity="0.8" clip-path="url(#GiXrkdrtqDMS)"/><path fill="none" stroke="rgb(0,0,0)" paint-order="fill" d="M 243.5 65.83333587646484 L 519.2875366210938 65.83333587646484 L 519.2875366210938 94.16666412353516 L 243.5 94.16666412353516 L 243.5 65.83333587646484" stroke-opacity="0.8" stroke-linejoin="bevel" stroke-miterlimit="10" stroke-dasharray="" clip-path="url(#GiXrkdrtqDMS)"/><path fill="rgb(253,231,36)" stroke="none" paint-order="stroke" d="M 243.5 37.5 L 508.36529541015625 37.5 L 508.36529541015625 65.83333587646484 L 243.5 65.83333587646484 L 243.5 37.5" fill-opacity="0.8" clip-path="url(#GiXrkdrtqDMS)"/><path fill="none" stroke="rgb(0,0,0)" paint-order="fill" d="M 243.5 37.5 L 508.36529541015625 37.5 L 508.36529541015625 65.83333587646484 L 243.5 65.83333587646484 L 243.5 37.5" stroke-opacity="0.8" stroke-linejoin="bevel" stroke-miterlimit="10" stroke-dasharray="" clip-path="url(#GiXrkdrtqDMS)"/><path fill="none" stroke="rgb(0,0,0)" paint-order="fill" d="M 243.5 207.5 L 770.5 207.5" stroke-opacity="1" stroke-linejoin="bevel" stroke-miterlimit="10" stroke-dasharray=""/><path fill="none" stroke="rgb(0,0,0)" paint-order="fill" d="M 243.5 213.5 L 243.5 205.5 M 311.5 213.5 L 311.5 205.5 M 380.5 213.5 L 380.5 205.5 M 448.5 213.5 L 448.5 205.5 M 516.5 213.5 L 516.5 205.5 M 584.5 213.5 L 584.5 205.5 M 653.5 213.5 L 653.5 205.5 M 721.5 213.5 L 721.5 205.5" stroke-opacity="1" stroke-linejoin="bevel" stroke-miterlimit="10" stroke-dasharray=""/><path fill="none" stroke="rgb(0,0,0)" paint-order="fill" d="M 243.5 211.5 L 243.5 207.5 M 257.5 211.5 L 257.5 207.5 M 270.5 211.5 L 270.5 207.5 M 284.5 211.5 L 284.5 207.5 M 298.5 211.5 L 298.5 207.5 M 311.5 211.5 L 311.5 207.5 M 325.5 211.5 L 325.5 207.5 M 339.5 211.5 L 339.5 207.5 M 352.5 211.5 L 352.5 207.5 M 366.5 211.5 L 366.5 207.5 M 380.5 211.5 L 380.5 207.5 M 393.5 211.5 L 393.5 207.5 M 407.5 211.5 L 407.5 207.5 M 420.5 211.5 L 420.5 207.5 M 434.5 211.5 L 434.5 207.5 M 448.5 211.5 L 448.5 207.5 M 461.5 211.5 L 461.5 207.5 M 475.5 211.5 L 475.5 207.5 M 489.5 211.5 L 489.5 207.5 M 502.5 211.5 L 502.5 207.5 M 516.5 211.5 L 516.5 207.5 M 530.5 211.5 L 530.5 207.5 M 543.5 211.5 L 543.5 207.5 M 557.5 211.5 L 557.5 207.5 M 571.5 211.5 L 571.5 207.5 M 584.5 211.5 L 584.5 207.5 M 598.5 211.5 L 598.5 207.5 M 612.5 211.5 L 612.5 207.5 M 625.5 211.5 L 625.5 207.5 M 639.5 211.5 L 639.5 207.5 M 653.5 211.5 L 653.5 207.5 M 666.5 211.5 L 666.5 207.5 M 680.5 211.5 L 680.5 207.5 M 694.5 211.5 L 694.5 207.5 M 707.5 211.5 L 707.5 207.5 M 721.5 211.5 L 721.5 207.5 M 735.5 211.5 L 735.5 207.5 M 748.5 211.5 L 748.5 207.5 M 762.5 211.5 L 762.5 207.5" stroke-opacity="1" stroke-linejoin="bevel" stroke-miterlimit="10" stroke-dasharray=""/><text fill="rgb(68,68,68)" stroke="none" font-family="helvetica" font-size="14pt" font-style="normal" font-weight="normal" text-decoration="normal" x="0" y="0" text-anchor="middle" dominant-baseline="hanging" transform="matrix(1, 0, 0, 1, 243.5, 218.5)" fill-opacity="1">0</text><text fill="rgb(68,68,68)" stroke="none" font-family="helvetica" font-size="14pt" font-style="normal" font-weight="normal" text-decoration="normal" x="0" y="0" text-anchor="middle" dominant-baseline="hanging" transform="matrix(1, 0, 0, 1, 311.5, 218.5)" fill-opacity="1">0.5</text><text fill="rgb(68,68,68)" stroke="none" font-family="helvetica" font-size="14pt" font-style="normal" font-weight="normal" text-decoration="normal" x="0" y="0" text-anchor="middle" dominant-baseline="hanging" transform="matrix(1, 0, 0, 1, 380.5, 218.5)" fill-opacity="1">1</text><text fill="rgb(68,68,68)" stroke="none" font-family="helvetica" font-size="14pt" font-style="normal" font-weight="normal" text-decoration="normal" x="0" y="0" text-anchor="middle" dominant-baseline="hanging" transform="matrix(1, 0, 0, 1, 448.5, 218.5)" fill-opacity="1">1.5</text><text fill="rgb(68,68,68)" stroke="none" font-family="helvetica" font-size="14pt" font-style="normal" font-weight="normal" text-decoration="normal" x="0" y="0" text-anchor="middle" dominant-baseline="hanging" transform="matrix(1, 0, 0, 1, 516.5, 218.5)" fill-opacity="1">2</text><text fill="rgb(68,68,68)" stroke="none" font-family="helvetica" font-size="14pt" font-style="normal" font-weight="normal" text-decoration="normal" x="0" y="0" text-anchor="middle" dominant-baseline="hanging" transform="matrix(1, 0, 0, 1, 584.5, 218.5)" fill-opacity="1">2.5</text><text fill="rgb(68,68,68)" stroke="none" font-family="helvetica" font-size="14pt" font-style="normal" font-weight="normal" text-decoration="normal" x="0" y="0" text-anchor="middle" dominant-baseline="hanging" transform="matrix(1, 0, 0, 1, 653.5, 218.5)" fill-opacity="1">3</text><text fill="rgb(68,68,68)" stroke="none" font-family="helvetica" font-size="14pt" font-style="normal" font-weight="normal" text-decoration="normal" x="0" y="0" text-anchor="middle" dominant-baseline="hanging" transform="matrix(1, 0, 0, 1, 721.5, 218.5)" fill-opacity="1">3.5</text><path fill="none" stroke="rgb(0,0,0)" paint-order="fill" d="M 243.5 207.5 L 243.5 37.5" stroke-opacity="1" stroke-linejoin="bevel" stroke-miterlimit="10" stroke-dasharray=""/><path fill="none" stroke="rgb(0,0,0)" paint-order="fill" d="M 237.5 193.5 L 245.5 193.5 M 237.5 165.5 L 245.5 165.5 M 237.5 136.5 L 245.5 136.5 M 237.5 108.5 L 245.5 108.5 M 237.5 80.5 L 245.5 80.5 M 237.5 51.5 L 245.5 51.5" stroke-opacity="1" stroke-linejoin="bevel" stroke-miterlimit="10" stroke-dasharray=""/><path fill="none" stroke="rgb(0,0,0)" paint-order="fill" d="" stroke-opacity="1" stroke-linejoin="bevel" stroke-miterlimit="10" stroke-dasharray=""/><text fill="rgb(68,68,68)" stroke="none" font-family="helvetica" font-size="14pt" font-style="normal" font-weight="normal" text-decoration="normal" x="0" y="0" text-anchor="end" dominant-baseline="central" transform="matrix(1, 0, 0, 1, 232.5, 193.5)" fill-opacity="1">χ² value fit 1 (SASDBX9)</text><text fill="rgb(68,68,68)" stroke="none" font-family="helvetica" font-size="14pt" font-style="normal" font-weight="normal" text-decoration="normal" x="0" y="0" text-anchor="end" dominant-baseline="central" transform="matrix(1, 0, 0, 1, 232.5, 165.5)" fill-opacity="1">χ² value fit 1 (SASDBV9)</text><text fill="rgb(68,68,68)" stroke="none" font-family="helvetica" font-size="14pt" font-style="normal" font-weight="normal" text-decoration="normal" x="0" y="0" text-anchor="end" dominant-baseline="central" transform="matrix(1, 0, 0, 1, 232.5, 136.5)" fill-opacity="1">χ² value fit 2 (SASDBV9)</text><text fill="rgb(68,68,68)" stroke="none" font-family="helvetica" font-size="14pt" font-style="normal" font-weight="normal" text-decoration="normal" x="0" y="0" text-anchor="end" dominant-baseline="central" transform="matrix(1, 0, 0, 1, 232.5, 108.5)" fill-opacity="1">χ² value fit 1 (SASDBW9)</text><text fill="rgb(68,68,68)" stroke="none" font-family="helvetica" font-size="14pt" font-style="normal" font-weight="normal" text-decoration="normal" x="0" y="0" text-anchor="end" dominant-baseline="central" transform="matrix(1, 0, 0, 1, 232.5, 80.5)" fill-opacity="1">χ² value fit 1 (SASDBY9)</text><text fill="rgb(68,68,68)" stroke="none" font-family="helvetica" font-size="14pt" font-style="normal" font-weight="normal" text-decoration="normal" x="0" y="0" text-anchor="end" dominant-baseline="central" transform="matrix(1, 0, 0, 1, 232.5, 51.5)" fill-opacity="1">χ² value fit 1 (SASDBZ9)</text><path fill="rgb(255,255,255)" stroke="rgb(229,229,229)" paint-order="fill" d="M 354.5 250.5 L 659.5 250.5 L 659.5 290.5 L 354.5 290.5 L 354.5 250.5" fill-opacity="0.95" stroke-opacity="0.5" stroke-linejoin="bevel" stroke-miterlimit="10" stroke-dasharray=""/><text fill="rgb(68,68,68)" stroke="none" font-family="helvetica" font-size="8px" font-style="normal" font-weight="normal" text-decoration="normal" x="389" y="270" text-anchor="start" dominant-baseline="central" transform="matrix(1, 0, 0, 1, 0.5, 0.5)" fill-opacity="1">2.86</text><path fill="rgb(68,1,84)" stroke="none" paint-order="stroke" d="M 366.5 262.5 L 382.5 262.5 L 382.5 278.5 L 366.5 278.5 L 366.5 262.5" fill-opacity="0.8"/><path fill="none" stroke="rgb(0,0,0)" paint-order="fill" d="M 366.5 262.5 L 382.5 262.5 L 382.5 278.5 L 366.5 278.5 L 366.5 262.5" stroke-opacity="0.8" stroke-linejoin="bevel" stroke-miterlimit="10" stroke-dasharray=""/><text fill="rgb(68,68,68)" stroke="none" font-family="helvetica" font-size="8px" font-style="normal" font-weight="normal" text-decoration="normal" x="437" y="270" text-anchor="start" dominant-baseline="central" transform="matrix(1, 0, 0, 1, 0.5, 0.5)" fill-opacity="1">1.28</text><path fill="rgb(64,67,135)" stroke="none" paint-order="stroke" d="M 414.5 262.5 L 430.5 262.5 L 430.5 278.5 L 414.5 278.5 L 414.5 262.5" fill-opacity="0.8"/><path fill="none" stroke="rgb(0,0,0)" paint-order="fill" d="M 414.5 262.5 L 430.5 262.5 L 430.5 278.5 L 414.5 278.5 L 414.5 262.5" stroke-opacity="0.8" stroke-linejoin="bevel" stroke-miterlimit="10" stroke-dasharray=""/><text fill="rgb(68,68,68)" stroke="none" font-family="helvetica" font-size="8px" font-style="normal" font-weight="normal" text-decoration="normal" x="485" y="270" text-anchor="start" dominant-baseline="central" transform="matrix(1, 0, 0, 1, 0.5, 0.5)" fill-opacity="1">1.1</text><path fill="rgb(41,120,142)" stroke="none" paint-order="stroke" d="M 462.5 262.5 L 478.5 262.5 L 478.5 278.5 L 462.5 278.5 L 462.5 262.5" fill-opacity="0.8"/><path fill="none" stroke="rgb(0,0,0)" paint-order="fill" d="M 462.5 262.5 L 478.5 262.5 L 478.5 278.5 L 462.5 278.5 L 462.5 262.5" stroke-opacity="0.8" stroke-linejoin="bevel" stroke-miterlimit="10" stroke-dasharray=""/><text fill="rgb(68,68,68)" stroke="none" font-family="helvetica" font-size="8px" font-style="normal" font-weight="normal" text-decoration="normal" x="533" y="270" text-anchor="start" dominant-baseline="central" transform="matrix(1, 0, 0, 1, 0.5, 0.5)" fill-opacity="1">1.97</text><path fill="rgb(34,167,132)" stroke="none" paint-order="stroke" d="M 510.5 262.5 L 526.5 262.5 L 526.5 278.5 L 510.5 278.5 L 510.5 262.5" fill-opacity="0.8"/><path fill="none" stroke="rgb(0,0,0)" paint-order="fill" d="M 510.5 262.5 L 526.5 262.5 L 526.5 278.5 L 510.5 278.5 L 510.5 262.5" stroke-opacity="0.8" stroke-linejoin="bevel" stroke-miterlimit="10" stroke-dasharray=""/><text fill="rgb(68,68,68)" stroke="none" font-family="helvetica" font-size="8px" font-style="normal" font-weight="normal" text-decoration="normal" x="581" y="270" text-anchor="start" dominant-baseline="central" transform="matrix(1, 0, 0, 1, 0.5, 0.5)" fill-opacity="1">2.02</text><path fill="rgb(121,209,81)" stroke="none" paint-order="stroke" d="M 558.5 262.5 L 574.5 262.5 L 574.5 278.5 L 558.5 278.5 L 558.5 262.5" fill-opacity="0.8"/><path fill="none" stroke="rgb(0,0,0)" paint-order="fill" d="M 558.5 262.5 L 574.5 262.5 L 574.5 278.5 L 558.5 278.5 L 558.5 262.5" stroke-opacity="0.8" stroke-linejoin="bevel" stroke-miterlimit="10" stroke-dasharray=""/><text fill="rgb(68,68,68)" stroke="none" font-family="helvetica" font-size="8px" font-style="normal" font-weight="normal" text-decoration="normal" x="629" y="270" text-anchor="start" dominant-baseline="central" transform="matrix(1, 0, 0, 1, 0.5, 0.5)" fill-opacity="1">1.94</text><path fill="rgb(253,231,36)" stroke="none" paint-order="stroke" d="M 606.5 262.5 L 622.5 262.5 L 622.5 278.5 L 606.5 278.5 L 606.5 262.5" fill-opacity="0.8"/><path fill="none" stroke="rgb(0,0,0)" paint-order="fill" d="M 606.5 262.5 L 622.5 262.5 L 622.5 278.5 L 606.5 278.5 L 606.5 262.5" stroke-opacity="0.8" stroke-linejoin="bevel" stroke-miterlimit="10" stroke-dasharray=""/><path fill="none" stroke="none"/><text fill="rgb(68,68,68)" stroke="none" font-family="helvetica" font-size="14pt" font-style="normal" font-weight="bold" text-decoration="normal" x="0" y="0" text-anchor="middle" dominant-baseline="text-after-edge" transform="matrix(1, 0, 0, 1, 507, 32.5)" fill-opacity="1">Fit to SAS input: χ² Fit</text></svg>