<svg version="1.1" xmlns="http://www.w3.org/2000/svg" xmlns:xlink="http://www.w3.org/1999/xlink" width="800" height="300"><defs><clipPath id="CDNoCmcAoQzz"><path fill="none" stroke="none" d="M 157.5 37.5 L 770.5 37.5 L 770.5 207.5 L 157.5 207.5 L 157.5 37.5"/></clipPath><clipPath id="UgaygEObeLCe"><path fill="none" stroke="none" d="M 157.5 37.5 L 770.5 37.5 L 770.5 207.5 L 157.5 207.5 L 157.5 37.5"/></clipPath><clipPath id="BJikgnnBFgdk"><path fill="none" stroke="none" d="M 157.5 37.5 L 770.5 37.5 L 770.5 207.5 L 157.5 207.5 L 157.5 37.5"/></clipPath><clipPath id="WvIpUtmuqyOU"><path fill="none" stroke="none" d="M 157.5 37.5 L 770.5 37.5 L 770.5 207.5 L 157.5 207.5 L 157.5 37.5"/></clipPath></defs><path fill="rgb(255,255,255)" stroke="none" paint-order="stroke" d="M 0.5 0.5 L 800.5 0.5 L 800.5 300.5 L 0.5 300.5 L 0.5 0.5" fill-opacity="1"/><rect fill="#FFFFFF" stroke="none" x="157" y="37" width="613" height="170" transform="matrix(1, 0, 0, 1, 0.5, 0.5)"/><path fill="rgb(255,255,255)" stroke="none" paint-order="stroke" d="M 157.5 37.5 L 770.5 37.5 L 770.5 207.5 L 157.5 207.5 L 157.5 37.5" fill-opacity="1"/><path fill="none" stroke="rgb(229,229,229)" paint-order="fill" d="M 157.5 37.5 L 770.5 37.5 L 770.5 207.5 L 157.5 207.5 L 157.5 37.5" stroke-opacity="1" stroke-linejoin="bevel" stroke-miterlimit="10" stroke-dasharray=""/><path fill="none" stroke="rgb(229,229,229)" paint-order="fill" d="M 286.5 207.5 L 286.5 37.5 M 415.5 207.5 L 415.5 37.5 M 544.5 207.5 L 544.5 37.5 M 673.5 207.5 L 673.5 37.5" stroke-opacity="1" stroke-linejoin="bevel" stroke-miterlimit="10" stroke-dasharray="" clip-path="url(#CDNoCmcAoQzz)"/><path fill="none" stroke="none"/><path fill="rgb(68,1,84)" stroke="none" paint-order="stroke" d="M 157.5 165 L 752.6412353515625 165 L 752.6412353515625 207.5 L 157.5 207.5 L 157.5 165" fill-opacity="0.8" clip-path="url(#BJikgnnBFgdk)"/><path fill="none" stroke="rgb(0,0,0)" paint-order="fill" d="M 157.5 165 L 752.6412353515625 165 L 752.6412353515625 207.5 L 157.5 207.5 L 157.5 165" stroke-opacity="0.8" stroke-linejoin="bevel" stroke-miterlimit="10" stroke-dasharray="" clip-path="url(#BJikgnnBFgdk)"/><path fill="rgb(48,103,141)" stroke="none" paint-order="stroke" d="M 157.5 122.5 L 764.0527954101562 122.5 L 764.0527954101562 165 L 157.5 165 L 157.5 122.5" fill-opacity="0.8" clip-path="url(#BJikgnnBFgdk)"/><path fill="none" stroke="rgb(0,0,0)" paint-order="fill" d="M 157.5 122.5 L 764.0527954101562 122.5 L 764.0527954101562 165 L 157.5 165 L 157.5 122.5" stroke-opacity="0.8" stroke-linejoin="bevel" stroke-miterlimit="10" stroke-dasharray="" clip-path="url(#BJikgnnBFgdk)"/><path fill="rgb(53,183,120)" stroke="none" paint-order="stroke" d="M 157.5 80 L 753.2859497070312 80 L 753.2859497070312 122.5 L 157.5 122.5 L 157.5 80" fill-opacity="0.8" clip-path="url(#BJikgnnBFgdk)"/><path fill="none" stroke="rgb(0,0,0)" paint-order="fill" d="M 157.5 80 L 753.2859497070312 80 L 753.2859497070312 122.5 L 157.5 122.5 L 157.5 80" stroke-opacity="0.8" stroke-linejoin="bevel" stroke-miterlimit="10" stroke-dasharray="" clip-path="url(#BJikgnnBFgdk)"/><path fill="rgb(253,231,36)" stroke="none" paint-order="stroke" d="M 157.5 37.5 L 762.18310546875 37.5 L 762.18310546875 80 L 157.5 80 L 157.5 37.5" fill-opacity="0.8" clip-path="url(#BJikgnnBFgdk)"/><path fill="none" stroke="rgb(0,0,0)" paint-order="fill" d="M 157.5 37.5 L 762.18310546875 37.5 L 762.18310546875 80 L 157.5 80 L 157.5 37.5" stroke-opacity="0.8" stroke-linejoin="bevel" stroke-miterlimit="10" stroke-dasharray="" clip-path="url(#BJikgnnBFgdk)"/><path fill="none" stroke="rgb(0,0,0)" paint-order="fill" d="M 157.5 207.5 L 770.5 207.5" stroke-opacity="1" stroke-linejoin="bevel" stroke-miterlimit="10" stroke-dasharray=""/><path fill="none" stroke="rgb(0,0,0)" paint-order="fill" d="M 157.5 213.5 L 157.5 205.5 M 286.5 213.5 L 286.5 205.5 M 415.5 213.5 L 415.5 205.5 M 544.5 213.5 L 544.5 205.5 M 673.5 213.5 L 673.5 205.5" stroke-opacity="1" stroke-linejoin="bevel" stroke-miterlimit="10" stroke-dasharray=""/><path fill="none" stroke="rgb(0,0,0)" paint-order="fill" d="M 157.5 211.5 L 157.5 207.5 M 183.5 211.5 L 183.5 207.5 M 209.5 211.5 L 209.5 207.5 M 234.5 211.5 L 234.5 207.5 M 260.5 211.5 L 260.5 207.5 M 286.5 211.5 L 286.5 207.5 M 312.5 211.5 L 312.5 207.5 M 338.5 211.5 L 338.5 207.5 M 363.5 211.5 L 363.5 207.5 M 389.5 211.5 L 389.5 207.5 M 415.5 211.5 L 415.5 207.5 M 441.5 211.5 L 441.5 207.5 M 466.5 211.5 L 466.5 207.5 M 492.5 211.5 L 492.5 207.5 M 518.5 211.5 L 518.5 207.5 M 544.5 211.5 L 544.5 207.5 M 570.5 211.5 L 570.5 207.5 M 595.5 211.5 L 595.5 207.5 M 621.5 211.5 L 621.5 207.5 M 647.5 211.5 L 647.5 207.5 M 673.5 211.5 L 673.5 207.5 M 699.5 211.5 L 699.5 207.5 M 724.5 211.5 L 724.5 207.5 M 750.5 211.5 L 750.5 207.5" stroke-opacity="1" stroke-linejoin="bevel" stroke-miterlimit="10" stroke-dasharray=""/><text fill="rgb(68,68,68)" stroke="none" font-family="helvetica" font-size="14pt" font-style="normal" font-weight="normal" text-decoration="normal" x="0" y="0" text-anchor="middle" dominant-baseline="hanging" transform="matrix(1, 0, 0, 1, 157.5, 218.5)" fill-opacity="1">0</text><text fill="rgb(68,68,68)" stroke="none" font-family="helvetica" font-size="14pt" font-style="normal" font-weight="normal" text-decoration="normal" x="0" y="0" text-anchor="middle" dominant-baseline="hanging" transform="matrix(1, 0, 0, 1, 286.5, 218.5)" fill-opacity="1">20</text><text fill="rgb(68,68,68)" stroke="none" font-family="helvetica" font-size="14pt" font-style="normal" font-weight="normal" text-decoration="normal" x="0" y="0" text-anchor="middle" dominant-baseline="hanging" transform="matrix(1, 0, 0, 1, 415.5, 218.5)" fill-opacity="1">40</text><text fill="rgb(68,68,68)" stroke="none" font-family="helvetica" font-size="14pt" font-style="normal" font-weight="normal" text-decoration="normal" x="0" y="0" text-anchor="middle" dominant-baseline="hanging" transform="matrix(1, 0, 0, 1, 544.5, 218.5)" fill-opacity="1">60</text><text fill="rgb(68,68,68)" stroke="none" font-family="helvetica" font-size="14pt" font-style="normal" font-weight="normal" text-decoration="normal" x="0" y="0" text-anchor="middle" dominant-baseline="hanging" transform="matrix(1, 0, 0, 1, 673.5, 218.5)" fill-opacity="1">80</text><path fill="none" stroke="rgb(0,0,0)" paint-order="fill" d="M 157.5 207.5 L 157.5 37.5" stroke-opacity="1" stroke-linejoin="bevel" stroke-miterlimit="10" stroke-dasharray=""/><path fill="none" stroke="rgb(0,0,0)" paint-order="fill" d="M 151.5 186.5 L 159.5 186.5 M 151.5 143.5 L 159.5 143.5 M 151.5 101.5 L 159.5 101.5 M 151.5 58.5 L 159.5 58.5" stroke-opacity="1" stroke-linejoin="bevel" stroke-miterlimit="10" stroke-dasharray=""/><path fill="none" stroke="rgb(0,0,0)" paint-order="fill" d="" stroke-opacity="1" stroke-linejoin="bevel" stroke-miterlimit="10" stroke-dasharray=""/><text fill="rgb(68,68,68)" stroke="none" font-family="helvetica" font-size="14pt" font-style="normal" font-weight="normal" text-decoration="normal" x="0" y="0" text-anchor="end" dominant-baseline="central" transform="matrix(1, 0, 0, 1, 146.5, 186.5)" fill-opacity="1">Model Model #1</text><text fill="rgb(68,68,68)" stroke="none" font-family="helvetica" font-size="14pt" font-style="normal" font-weight="normal" text-decoration="normal" x="0" y="0" text-anchor="end" dominant-baseline="central" transform="matrix(1, 0, 0, 1, 146.5, 143.5)" fill-opacity="1">Model Model #2</text><text fill="rgb(68,68,68)" stroke="none" font-family="helvetica" font-size="14pt" font-style="normal" font-weight="normal" text-decoration="normal" x="0" y="0" text-anchor="end" dominant-baseline="central" transform="matrix(1, 0, 0, 1, 146.5, 101.5)" fill-opacity="1">Model Model #3</text><text fill="rgb(68,68,68)" stroke="none" font-family="helvetica" font-size="14pt" font-style="normal" font-weight="normal" text-decoration="normal" x="0" y="0" text-anchor="end" dominant-baseline="central" transform="matrix(1, 0, 0, 1, 146.5, 58.5)" fill-opacity="1">Model Model #4</text><path fill="rgb(255,255,255)" stroke="rgb(229,229,229)" paint-order="fill" d="M 279.43333435058594 250.5 L 648.5666656494141 250.5 L 648.5666656494141 290.5 L 279.43333435058594 290.5 L 279.43333435058594 250.5" fill-opacity="0.95" stroke-opacity="0.5" stroke-linejoin="bevel" stroke-miterlimit="10" stroke-dasharray=""/><text fill="rgb(68,68,68)" stroke="none" font-family="helvetica" font-size="8px" font-style="normal" font-weight="normal" text-decoration="normal" x="313.93333435058594" y="270" text-anchor="start" dominant-baseline="central" transform="matrix(1, 0, 0, 1, 0.5, 0.5)" fill-opacity="1">Model 1: 92.31%</text><path fill="rgb(68,1,84)" stroke="none" paint-order="stroke" d="M 291.43333435058594 262.5 L 307.43333435058594 262.5 L 307.43333435058594 278.5 L 291.43333435058594 278.5 L 291.43333435058594 262.5" fill-opacity="0.8"/><path fill="none" stroke="rgb(0,0,0)" paint-order="fill" d="M 291.43333435058594 262.5 L 307.43333435058594 262.5 L 307.43333435058594 278.5 L 291.43333435058594 278.5 L 291.43333435058594 262.5" stroke-opacity="0.8" stroke-linejoin="bevel" stroke-miterlimit="10" stroke-dasharray=""/><text fill="rgb(68,68,68)" stroke="none" font-family="helvetica" font-size="8px" font-style="normal" font-weight="normal" text-decoration="normal" x="401.96666717529297" y="270" text-anchor="start" dominant-baseline="central" transform="matrix(1, 0, 0, 1, 0.5, 0.5)" fill-opacity="1">Model 2: 94.08%</text><path fill="rgb(48,103,141)" stroke="none" paint-order="stroke" d="M 379.46666717529297 262.5 L 395.46666717529297 262.5 L 395.46666717529297 278.5 L 379.46666717529297 278.5 L 379.46666717529297 262.5" fill-opacity="0.8"/><path fill="none" stroke="rgb(0,0,0)" paint-order="fill" d="M 379.46666717529297 262.5 L 395.46666717529297 262.5 L 395.46666717529297 278.5 L 379.46666717529297 278.5 L 379.46666717529297 262.5" stroke-opacity="0.8" stroke-linejoin="bevel" stroke-miterlimit="10" stroke-dasharray=""/><text fill="rgb(68,68,68)" stroke="none" font-family="helvetica" font-size="8px" font-style="normal" font-weight="normal" text-decoration="normal" x="490" y="270" text-anchor="start" dominant-baseline="central" transform="matrix(1, 0, 0, 1, 0.5, 0.5)" fill-opacity="1">Model 3: 92.41%</text><path fill="rgb(53,183,120)" stroke="none" paint-order="stroke" d="M 467.5 262.5 L 483.5 262.5 L 483.5 278.5 L 467.5 278.5 L 467.5 262.5" fill-opacity="0.8"/><path fill="none" stroke="rgb(0,0,0)" paint-order="fill" d="M 467.5 262.5 L 483.5 262.5 L 483.5 278.5 L 467.5 278.5 L 467.5 262.5" stroke-opacity="0.8" stroke-linejoin="bevel" stroke-miterlimit="10" stroke-dasharray=""/><text fill="rgb(68,68,68)" stroke="none" font-family="helvetica" font-size="8px" font-style="normal" font-weight="normal" text-decoration="normal" x="578.033332824707" y="270" text-anchor="start" dominant-baseline="central" transform="matrix(1, 0, 0, 1, 0.5, 0.5)" fill-opacity="1">Model 4: 93.79%</text><path fill="rgb(253,231,36)" stroke="none" paint-order="stroke" d="M 555.533332824707 262.5 L 571.533332824707 262.5 L 571.533332824707 278.5 L 555.533332824707 278.5 L 555.533332824707 262.5" fill-opacity="0.8"/><path fill="none" stroke="rgb(0,0,0)" paint-order="fill" d="M 555.533332824707 262.5 L 571.533332824707 262.5 L 571.533332824707 278.5 L 555.533332824707 278.5 L 555.533332824707 262.5" stroke-opacity="0.8" stroke-linejoin="bevel" stroke-miterlimit="10" stroke-dasharray=""/><path fill="none" stroke="none"/><text fill="rgb(68,68,68)" stroke="none" font-family="helvetica" font-size="14pt" font-style="normal" font-weight="bold" text-decoration="normal" x="0" y="0" text-anchor="middle" dominant-baseline="text-after-edge" transform="matrix(1, 0, 0, 1, 464, 32.5)" fill-opacity="1">Fit to XL-MS input</text></svg>