<svg version="1.1" xmlns="http://www.w3.org/2000/svg" xmlns:xlink="http://www.w3.org/1999/xlink" width="700" height="250"><defs><clipPath id="rLbkFmwXyiUt"><path fill="none" stroke="none" d="M 54.5 37.5 L 670.5 37.5 L 670.5 198.5 L 54.5 198.5 L 54.5 37.5"/></clipPath><clipPath id="oOKnzpURSniC"><path fill="none" stroke="none" d="M 54.5 37.5 L 670.5 37.5 L 670.5 198.5 L 54.5 198.5 L 54.5 37.5"/></clipPath><clipPath id="GheLTkTZxmys"><path fill="none" stroke="none" d="M 54.5 37.5 L 670.5 37.5 L 670.5 198.5 L 54.5 198.5 L 54.5 37.5"/></clipPath><clipPath id="WrlIsEyILIZs"><path fill="none" stroke="none" d="M 54.5 37.5 L 670.5 37.5 L 670.5 198.5 L 54.5 198.5 L 54.5 37.5"/></clipPath><clipPath id="ADrTpfeWvnXF"><path fill="none" stroke="none" d="M 54.5 37.5 L 670.5 37.5 L 670.5 198.5 L 54.5 198.5 L 54.5 37.5"/></clipPath></defs><path fill="rgb(255,255,255)" stroke="none" paint-order="stroke" d="M 0.5 0.5 L 700.5 0.5 L 700.5 250.5 L 0.5 250.5 L 0.5 0.5" fill-opacity="1"/><rect fill="#FFFFFF" stroke="none" x="54" y="37" width="616" height="161" transform="matrix(1, 0, 0, 1, 0.5, 0.5)"/><path fill="rgb(255,255,255)" stroke="none" paint-order="stroke" d="M 54.5 37.5 L 670.5 37.5 L 670.5 198.5 L 54.5 198.5 L 54.5 37.5" fill-opacity="1"/><path fill="none" stroke="rgb(229,229,229)" paint-order="fill" d="M 54.5 37.5 L 670.5 37.5 L 670.5 198.5 L 54.5 198.5 L 54.5 37.5" stroke-opacity="1" stroke-linejoin="bevel" stroke-miterlimit="10" stroke-dasharray=""/><path fill="none" stroke="rgb(229,229,229)" paint-order="fill" d="M 179.5 198.5 L 179.5 37.5 M 313.5 198.5 L 313.5 37.5 M 446.5 198.5 L 446.5 37.5 M 579.5 198.5 L 579.5 37.5" stroke-opacity="1" stroke-linejoin="bevel" stroke-miterlimit="10" stroke-dasharray="" clip-path="url(#rLbkFmwXyiUt)"/><path fill="none" stroke="none"/><path fill="rgb(68,1,84)" stroke="none" paint-order="stroke" d="M 54.5 138.125 L 465.1666564941406 138.125 L 465.1666564941406 178.375 L 54.5 178.375 L 54.5 138.125" fill-opacity="0.8" clip-path="url(#GheLTkTZxmys)"/><path fill="none" stroke="rgb(68,1,84)" paint-order="fill" d="M 54.5 138.125 L 465.1666564941406 138.125 L 465.1666564941406 178.375 L 54.5 178.375 L 54.5 138.125" stroke-opacity="0.8" stroke-linejoin="bevel" stroke-miterlimit="10" stroke-dasharray="" clip-path="url(#GheLTkTZxmys)"/><path fill="rgb(32,143,140)" stroke="none" paint-order="stroke" d="M 54.5 57.625 L 259.8333435058594 57.625 L 259.8333435058594 97.875 L 54.5 97.875 L 54.5 57.625" fill-opacity="0.8" clip-path="url(#GheLTkTZxmys)"/><path fill="none" stroke="rgb(32,143,140)" paint-order="fill" d="M 54.5 57.625 L 259.8333435058594 57.625 L 259.8333435058594 97.875 L 54.5 97.875 L 54.5 57.625" stroke-opacity="0.8" stroke-linejoin="bevel" stroke-miterlimit="10" stroke-dasharray="" clip-path="url(#GheLTkTZxmys)"/><path fill="none" stroke="rgb(0,0,0)" paint-order="fill" d="M 54.5 198.5 L 670.5 198.5" stroke-opacity="1" stroke-linejoin="bevel" stroke-miterlimit="10" stroke-dasharray=""/><path fill="none" stroke="rgb(0,0,0)" paint-order="fill" d="M 179.5 204.5 L 179.5 196.5 M 313.5 204.5 L 313.5 196.5 M 446.5 204.5 L 446.5 196.5 M 579.5 204.5 L 579.5 196.5" stroke-opacity="1" stroke-linejoin="bevel" stroke-miterlimit="10" stroke-dasharray=""/><path fill="none" stroke="rgb(0,0,0)" paint-order="fill" d="M 153.5 202.5 L 153.5 198.5 M 126.5 202.5 L 126.5 198.5 M 99.5 202.5 L 99.5 198.5 M 73.5 202.5 L 73.5 198.5 M 179.5 202.5 L 179.5 198.5 M 206.5 202.5 L 206.5 198.5 M 233.5 202.5 L 233.5 198.5 M 259.5 202.5 L 259.5 198.5 M 286.5 202.5 L 286.5 198.5 M 313.5 202.5 L 313.5 198.5 M 339.5 202.5 L 339.5 198.5 M 366.5 202.5 L 366.5 198.5 M 393.5 202.5 L 393.5 198.5 M 419.5 202.5 L 419.5 198.5 M 446.5 202.5 L 446.5 198.5 M 473.5 202.5 L 473.5 198.5 M 499.5 202.5 L 499.5 198.5 M 526.5 202.5 L 526.5 198.5 M 553.5 202.5 L 553.5 198.5 M 579.5 202.5 L 579.5 198.5 M 606.5 202.5 L 606.5 198.5 M 633.5 202.5 L 633.5 198.5 M 659.5 202.5 L 659.5 198.5" stroke-opacity="1" stroke-linejoin="bevel" stroke-miterlimit="10" stroke-dasharray=""/><text fill="rgb(68,68,68)" stroke="none" font-family="helvetica" font-size="11px" font-style="normal" font-weight="normal" text-decoration="normal" x="0" y="0" text-anchor="middle" dominant-baseline="hanging" transform="matrix(1, 0, 0, 1, 179.5, 209.5)" fill-opacity="1">22150</text><text fill="rgb(68,68,68)" stroke="none" font-family="helvetica" font-size="11px" font-style="normal" font-weight="normal" text-decoration="normal" x="0" y="0" text-anchor="middle" dominant-baseline="hanging" transform="matrix(1, 0, 0, 1, 313.5, 209.5)" fill-opacity="1">22200</text><text fill="rgb(68,68,68)" stroke="none" font-family="helvetica" font-size="11px" font-style="normal" font-weight="normal" text-decoration="normal" x="0" y="0" text-anchor="middle" dominant-baseline="hanging" transform="matrix(1, 0, 0, 1, 446.5, 209.5)" fill-opacity="1">22250</text><text fill="rgb(68,68,68)" stroke="none" font-family="helvetica" font-size="11px" font-style="normal" font-weight="normal" text-decoration="normal" x="0" y="0" text-anchor="middle" dominant-baseline="hanging" transform="matrix(1, 0, 0, 1, 579.5, 209.5)" fill-opacity="1">22300</text><text fill="rgb(68,68,68)" stroke="none" font-family="helvetica" font-size="14pt" font-style="italic" font-weight="normal" text-decoration="normal" x="0" y="0" text-anchor="middle" dominant-baseline="hanging" transform="matrix(1, 0, 0, 1, 362.5, 227.5)" fill-opacity="1">Number of violations</text><path fill="none" stroke="rgb(0,0,0)" paint-order="fill" d="M 54.5 198.5 L 54.5 37.5" stroke-opacity="1" stroke-linejoin="bevel" stroke-miterlimit="10" stroke-dasharray=""/><path fill="none" stroke="rgb(0,0,0)" paint-order="fill" d="M 48.5 158.5 L 56.5 158.5 M 48.5 77.5 L 56.5 77.5" stroke-opacity="1" stroke-linejoin="bevel" stroke-miterlimit="10" stroke-dasharray=""/><path fill="none" stroke="rgb(0,0,0)" paint-order="fill" d="" stroke-opacity="1" stroke-linejoin="bevel" stroke-miterlimit="10" stroke-dasharray=""/><text fill="rgb(68,68,68)" stroke="none" font-family="helvetica" font-size="11px" font-style="normal" font-weight="normal" text-decoration="normal" x="0" y="0" text-anchor="end" dominant-baseline="central" transform="matrix(1, 0, 0, 1, 43.5, 158.5)" fill-opacity="1">Model 1</text><text fill="rgb(68,68,68)" stroke="none" font-family="helvetica" font-size="11px" font-style="normal" font-weight="normal" text-decoration="normal" x="0" y="0" text-anchor="end" dominant-baseline="central" transform="matrix(1, 0, 0, 1, 43.5, 77.5)" fill-opacity="1">Model 2</text><path fill="rgb(255,255,255)" stroke="rgb(229,229,229)" paint-order="fill" d="M 525.8333358764648 47.5 L 660.5 47.5 L 660.5 110.5 L 525.8333358764648 110.5 L 525.8333358764648 47.5" fill-opacity="0.95" clip-path="url(#WrlIsEyILIZs)" stroke-opacity="0.5" stroke-linejoin="bevel" stroke-miterlimit="10" stroke-dasharray=""/><text fill="rgb(68,68,68)" stroke="none" font-family="helvetica" font-size="13px" font-style="normal" font-weight="normal" text-decoration="normal" x="560.3333358764648" y="67" text-anchor="start" dominant-baseline="central" transform="matrix(1, 0, 0, 1, 0.5, 0.5)" fill-opacity="1">Model 1: 22257</text><path fill="rgb(68,1,84)" stroke="none" paint-order="stroke" d="M 537.8333358764648 59.5 L 553.8333358764648 59.5 L 553.8333358764648 75.5 L 537.8333358764648 75.5 L 537.8333358764648 59.5" fill-opacity="0.8" clip-path="url(#WrlIsEyILIZs)"/><path fill="none" stroke="rgb(68,1,84)" paint-order="fill" d="M 537.8333358764648 59.5 L 553.8333358764648 59.5 L 553.8333358764648 75.5 L 537.8333358764648 75.5 L 537.8333358764648 59.5" stroke-opacity="0.8" stroke-linejoin="bevel" stroke-miterlimit="10" stroke-dasharray="" clip-path="url(#WrlIsEyILIZs)"/><text fill="rgb(68,68,68)" stroke="none" font-family="helvetica" font-size="13px" font-style="normal" font-weight="normal" text-decoration="normal" x="560.3333358764648" y="90" text-anchor="start" dominant-baseline="central" transform="matrix(1, 0, 0, 1, 0.5, 0.5)" fill-opacity="1">Model 2: 22180</text><path fill="rgb(32,143,140)" stroke="none" paint-order="stroke" d="M 537.8333358764648 82.5 L 553.8333358764648 82.5 L 553.8333358764648 98.5 L 537.8333358764648 98.5 L 537.8333358764648 82.5" fill-opacity="0.8" clip-path="url(#WrlIsEyILIZs)"/><path fill="none" stroke="rgb(32,143,140)" paint-order="fill" d="M 537.8333358764648 82.5 L 553.8333358764648 82.5 L 553.8333358764648 98.5 L 537.8333358764648 98.5 L 537.8333358764648 82.5" stroke-opacity="0.8" stroke-linejoin="bevel" stroke-miterlimit="10" stroke-dasharray="" clip-path="url(#WrlIsEyILIZs)"/><path fill="none" stroke="none"/><text fill="rgb(68,68,68)" stroke="none" font-family="helvetica" font-size="14pt" font-style="normal" font-weight="bold" text-decoration="normal" x="0" y="0" text-anchor="middle" dominant-baseline="text-before-edge" transform="matrix(1, 0, 0, 1, 362.5, 5.5)" fill-opacity="1">Model quality: Excluded Volume Analysis</text></svg>