<svg version="1.1" xmlns="http://www.w3.org/2000/svg" xmlns:xlink="http://www.w3.org/1999/xlink" width="700" height="250"><defs><clipPath id="HLVFwXVZhFda"><path fill="none" stroke="none" d="M 169.5 37.5 L 670.5 37.5 L 670.5 217.5 L 169.5 217.5 L 169.5 37.5"/></clipPath><clipPath id="umGnWZNTyLtk"><path fill="none" stroke="none" d="M 169.5 37.5 L 670.5 37.5 L 670.5 217.5 L 169.5 217.5 L 169.5 37.5"/></clipPath><clipPath id="tBEpfllGxhbg"><path fill="none" stroke="none" d="M 169.5 37.5 L 670.5 37.5 L 670.5 217.5 L 169.5 217.5 L 169.5 37.5"/></clipPath><clipPath id="BVQNKxvDgDPp"><path fill="none" stroke="none" d="M 169.5 37.5 L 670.5 37.5 L 670.5 217.5 L 169.5 217.5 L 169.5 37.5"/></clipPath><clipPath id="uVTTauIHyDhh"><path fill="none" stroke="none" d="M 169.5 37.5 L 670.5 37.5 L 670.5 217.5 L 169.5 217.5 L 169.5 37.5"/></clipPath></defs><path fill="rgb(255,255,255)" stroke="none" paint-order="stroke" d="M 0.5 0.5 L 700.5 0.5 L 700.5 250.5 L 0.5 250.5 L 0.5 0.5" fill-opacity="1"/><rect fill="#FFFFFF" stroke="none" x="169" y="37" width="501" height="180" transform="matrix(1, 0, 0, 1, 0.5, 0.5)"/><path fill="rgb(255,255,255)" stroke="none" paint-order="stroke" d="M 169.5 37.5 L 670.5 37.5 L 670.5 217.5 L 169.5 217.5 L 169.5 37.5" fill-opacity="1"/><path fill="none" stroke="rgb(229,229,229)" paint-order="fill" d="M 169.5 37.5 L 670.5 37.5 L 670.5 217.5 L 169.5 217.5 L 169.5 37.5" stroke-opacity="1" stroke-linejoin="bevel" stroke-miterlimit="10" stroke-dasharray=""/><path fill="none" stroke="rgb(229,229,229)" paint-order="fill" d="M 271.5 217.5 L 271.5 37.5 M 374.5 217.5 L 374.5 37.5 M 476.5 217.5 L 476.5 37.5 M 578.5 217.5 L 578.5 37.5" stroke-opacity="1" stroke-linejoin="bevel" stroke-miterlimit="10" stroke-dasharray="" clip-path="url(#HLVFwXVZhFda)"/><path fill="none" stroke="none"/><path fill="rgb(68,1,84)" stroke="none" paint-order="stroke" d="M 169.5 195 L 664.9259643554688 195 L 664.9259643554688 217.5 L 169.5 217.5 L 169.5 195" fill-opacity="0.8" clip-path="url(#tBEpfllGxhbg)"/><path fill="none" stroke="rgb(68,1,84)" paint-order="fill" d="M 169.5 195 L 664.9259643554688 195 L 664.9259643554688 217.5 L 169.5 217.5 L 169.5 195" stroke-opacity="0.8" stroke-linejoin="bevel" stroke-miterlimit="10" stroke-dasharray="" clip-path="url(#tBEpfllGxhbg)"/><path fill="rgb(71,39,119)" stroke="none" paint-order="stroke" d="M 169.5 177 L 664.9259643554688 177 L 664.9259643554688 204 L 169.5 204 L 169.5 177" fill-opacity="0.8" clip-path="url(#tBEpfllGxhbg)"/><path fill="none" stroke="rgb(71,39,119)" paint-order="fill" d="M 169.5 177 L 664.9259643554688 177 L 664.9259643554688 204 L 169.5 204 L 169.5 177" stroke-opacity="0.8" stroke-linejoin="bevel" stroke-miterlimit="10" stroke-dasharray="" clip-path="url(#tBEpfllGxhbg)"/><path fill="rgb(62,73,137)" stroke="none" paint-order="stroke" d="M 169.5 159 L 664.9259643554688 159 L 664.9259643554688 186 L 169.5 186 L 169.5 159" fill-opacity="0.8" clip-path="url(#tBEpfllGxhbg)"/><path fill="none" stroke="rgb(62,73,137)" paint-order="fill" d="M 169.5 159 L 664.9259643554688 159 L 664.9259643554688 186 L 169.5 186 L 169.5 159" stroke-opacity="0.8" stroke-linejoin="bevel" stroke-miterlimit="10" stroke-dasharray="" clip-path="url(#tBEpfllGxhbg)"/><path fill="rgb(48,103,141)" stroke="none" paint-order="stroke" d="M 169.5 141 L 664.9259643554688 141 L 664.9259643554688 168 L 169.5 168 L 169.5 141" fill-opacity="0.8" clip-path="url(#tBEpfllGxhbg)"/><path fill="none" stroke="rgb(48,103,141)" paint-order="fill" d="M 169.5 141 L 664.9259643554688 141 L 664.9259643554688 168 L 169.5 168 L 169.5 141" stroke-opacity="0.8" stroke-linejoin="bevel" stroke-miterlimit="10" stroke-dasharray="" clip-path="url(#tBEpfllGxhbg)"/><path fill="rgb(37,130,142)" stroke="none" paint-order="stroke" d="M 169.5 123 L 664.9259643554688 123 L 664.9259643554688 150 L 169.5 150 L 169.5 123" fill-opacity="0.8" clip-path="url(#tBEpfllGxhbg)"/><path fill="none" stroke="rgb(37,130,142)" paint-order="fill" d="M 169.5 123 L 664.9259643554688 123 L 664.9259643554688 150 L 169.5 150 L 169.5 123" stroke-opacity="0.8" stroke-linejoin="bevel" stroke-miterlimit="10" stroke-dasharray="" clip-path="url(#tBEpfllGxhbg)"/><path fill="rgb(30,156,137)" stroke="none" paint-order="stroke" d="M 169.5 105 L 664.9259643554688 105 L 664.9259643554688 132 L 169.5 132 L 169.5 105" fill-opacity="0.8" clip-path="url(#tBEpfllGxhbg)"/><path fill="none" stroke="rgb(30,156,137)" paint-order="fill" d="M 169.5 105 L 664.9259643554688 105 L 664.9259643554688 132 L 169.5 132 L 169.5 105" stroke-opacity="0.8" stroke-linejoin="bevel" stroke-miterlimit="10" stroke-dasharray="" clip-path="url(#tBEpfllGxhbg)"/><path fill="rgb(53,183,120)" stroke="none" paint-order="stroke" d="M 169.5 87 L 665.3861694335938 87 L 665.3861694335938 114 L 169.5 114 L 169.5 87" fill-opacity="0.8" clip-path="url(#tBEpfllGxhbg)"/><path fill="none" stroke="rgb(53,183,120)" paint-order="fill" d="M 169.5 87 L 665.3861694335938 87 L 665.3861694335938 114 L 169.5 114 L 169.5 87" stroke-opacity="0.8" stroke-linejoin="bevel" stroke-miterlimit="10" stroke-dasharray="" clip-path="url(#tBEpfllGxhbg)"/><path fill="rgb(107,205,89)" stroke="none" paint-order="stroke" d="M 169.5 69 L 664.9259643554688 69 L 664.9259643554688 96 L 169.5 96 L 169.5 69" fill-opacity="0.8" clip-path="url(#tBEpfllGxhbg)"/><path fill="none" stroke="rgb(107,205,89)" paint-order="fill" d="M 169.5 69 L 664.9259643554688 69 L 664.9259643554688 96 L 169.5 96 L 169.5 69" stroke-opacity="0.8" stroke-linejoin="bevel" stroke-miterlimit="10" stroke-dasharray="" clip-path="url(#tBEpfllGxhbg)"/><path fill="rgb(178,221,44)" stroke="none" paint-order="stroke" d="M 169.5 51 L 664.9259643554688 51 L 664.9259643554688 78 L 169.5 78 L 169.5 51" fill-opacity="0.8" clip-path="url(#tBEpfllGxhbg)"/><path fill="none" stroke="rgb(178,221,44)" paint-order="fill" d="M 169.5 51 L 664.9259643554688 51 L 664.9259643554688 78 L 169.5 78 L 169.5 51" stroke-opacity="0.8" stroke-linejoin="bevel" stroke-miterlimit="10" stroke-dasharray="" clip-path="url(#tBEpfllGxhbg)"/><path fill="rgb(253,231,36)" stroke="none" paint-order="stroke" d="M 169.5 37.5 L 664.9259643554688 37.5 L 664.9259643554688 60 L 169.5 60 L 169.5 37.5" fill-opacity="0.8" clip-path="url(#tBEpfllGxhbg)"/><path fill="none" stroke="rgb(253,231,36)" paint-order="fill" d="M 169.5 37.5 L 664.9259643554688 37.5 L 664.9259643554688 60 L 169.5 60 L 169.5 37.5" stroke-opacity="0.8" stroke-linejoin="bevel" stroke-miterlimit="10" stroke-dasharray="" clip-path="url(#tBEpfllGxhbg)"/><path fill="none" stroke="rgb(0,0,0)" paint-order="fill" d="M 169.5 217.5 L 670.5 217.5" stroke-opacity="1" stroke-linejoin="bevel" stroke-miterlimit="10" stroke-dasharray=""/><path fill="none" stroke="rgb(0,0,0)" paint-order="fill" d="M 169.5 223.5 L 169.5 215.5 M 271.5 223.5 L 271.5 215.5 M 374.5 223.5 L 374.5 215.5 M 476.5 223.5 L 476.5 215.5 M 578.5 223.5 L 578.5 215.5" stroke-opacity="1" stroke-linejoin="bevel" stroke-miterlimit="10" stroke-dasharray=""/><path fill="none" stroke="rgb(0,0,0)" paint-order="fill" d="M 169.5 221.5 L 169.5 217.5 M 189.5 221.5 L 189.5 217.5 M 210.5 221.5 L 210.5 217.5 M 230.5 221.5 L 230.5 217.5 M 251.5 221.5 L 251.5 217.5 M 271.5 221.5 L 271.5 217.5 M 292.5 221.5 L 292.5 217.5 M 312.5 221.5 L 312.5 217.5 M 333.5 221.5 L 333.5 217.5 M 353.5 221.5 L 353.5 217.5 M 374.5 221.5 L 374.5 217.5 M 394.5 221.5 L 394.5 217.5 M 414.5 221.5 L 414.5 217.5 M 435.5 221.5 L 435.5 217.5 M 455.5 221.5 L 455.5 217.5 M 476.5 221.5 L 476.5 217.5 M 496.5 221.5 L 496.5 217.5 M 517.5 221.5 L 517.5 217.5 M 537.5 221.5 L 537.5 217.5 M 558.5 221.5 L 558.5 217.5 M 578.5 221.5 L 578.5 217.5 M 599.5 221.5 L 599.5 217.5 M 619.5 221.5 L 619.5 217.5 M 639.5 221.5 L 639.5 217.5 M 660.5 221.5 L 660.5 217.5" stroke-opacity="1" stroke-linejoin="bevel" stroke-miterlimit="10" stroke-dasharray=""/><text fill="rgb(68,68,68)" stroke="none" font-family="helvetica" font-size="14pt" font-style="normal" font-weight="normal" text-decoration="normal" x="0" y="0" text-anchor="middle" dominant-baseline="hanging" transform="matrix(1, 0, 0, 1, 169.5, 228.5)" fill-opacity="1">0</text><text fill="rgb(68,68,68)" stroke="none" font-family="helvetica" font-size="14pt" font-style="normal" font-weight="normal" text-decoration="normal" x="0" y="0" text-anchor="middle" dominant-baseline="hanging" transform="matrix(1, 0, 0, 1, 271.5, 228.5)" fill-opacity="1">20</text><text fill="rgb(68,68,68)" stroke="none" font-family="helvetica" font-size="14pt" font-style="normal" font-weight="normal" text-decoration="normal" x="0" y="0" text-anchor="middle" dominant-baseline="hanging" transform="matrix(1, 0, 0, 1, 374.5, 228.5)" fill-opacity="1">40</text><text fill="rgb(68,68,68)" stroke="none" font-family="helvetica" font-size="14pt" font-style="normal" font-weight="normal" text-decoration="normal" x="0" y="0" text-anchor="middle" dominant-baseline="hanging" transform="matrix(1, 0, 0, 1, 476.5, 228.5)" fill-opacity="1">60</text><text fill="rgb(68,68,68)" stroke="none" font-family="helvetica" font-size="14pt" font-style="normal" font-weight="normal" text-decoration="normal" x="0" y="0" text-anchor="middle" dominant-baseline="hanging" transform="matrix(1, 0, 0, 1, 578.5, 228.5)" fill-opacity="1">80</text><path fill="none" stroke="rgb(0,0,0)" paint-order="fill" d="M 169.5 217.5 L 169.5 37.5" stroke-opacity="1" stroke-linejoin="bevel" stroke-miterlimit="10" stroke-dasharray=""/><path fill="none" stroke="rgb(0,0,0)" paint-order="fill" d="M 163.5 208.5 L 171.5 208.5 M 163.5 190.5 L 171.5 190.5 M 163.5 172.5 L 171.5 172.5 M 163.5 154.5 L 171.5 154.5 M 163.5 136.5 L 171.5 136.5 M 163.5 118.5 L 171.5 118.5 M 163.5 100.5 L 171.5 100.5 M 163.5 82.5 L 171.5 82.5 M 163.5 64.5 L 171.5 64.5 M 163.5 46.5 L 171.5 46.5" stroke-opacity="1" stroke-linejoin="bevel" stroke-miterlimit="10" stroke-dasharray=""/><path fill="none" stroke="rgb(0,0,0)" paint-order="fill" d="" stroke-opacity="1" stroke-linejoin="bevel" stroke-miterlimit="10" stroke-dasharray=""/><text fill="rgb(68,68,68)" stroke="none" font-family="helvetica" font-size="14pt" font-style="normal" font-weight="normal" text-decoration="normal" x="0" y="0" text-anchor="end" dominant-baseline="central" transform="matrix(1, 0, 0, 1, 158.5, 208.5)" fill-opacity="1">Model Model #1</text><text fill="rgb(68,68,68)" stroke="none" font-family="helvetica" font-size="14pt" font-style="normal" font-weight="normal" text-decoration="normal" x="0" y="0" text-anchor="end" dominant-baseline="central" transform="matrix(1, 0, 0, 1, 158.5, 190.5)" fill-opacity="1">Model Model #2</text><text fill="rgb(68,68,68)" stroke="none" font-family="helvetica" font-size="14pt" font-style="normal" font-weight="normal" text-decoration="normal" x="0" y="0" text-anchor="end" dominant-baseline="central" transform="matrix(1, 0, 0, 1, 158.5, 172.5)" fill-opacity="1">Model Model #3</text><text fill="rgb(68,68,68)" stroke="none" font-family="helvetica" font-size="14pt" font-style="normal" font-weight="normal" text-decoration="normal" x="0" y="0" text-anchor="end" dominant-baseline="central" transform="matrix(1, 0, 0, 1, 158.5, 154.5)" fill-opacity="1">Model Model #4</text><text fill="rgb(68,68,68)" stroke="none" font-family="helvetica" font-size="14pt" font-style="normal" font-weight="normal" text-decoration="normal" x="0" y="0" text-anchor="end" dominant-baseline="central" transform="matrix(1, 0, 0, 1, 158.5, 136.5)" fill-opacity="1">Model Model #5</text><text fill="rgb(68,68,68)" stroke="none" font-family="helvetica" font-size="14pt" font-style="normal" font-weight="normal" text-decoration="normal" x="0" y="0" text-anchor="end" dominant-baseline="central" transform="matrix(1, 0, 0, 1, 158.5, 118.5)" fill-opacity="1">Model Model #6</text><text fill="rgb(68,68,68)" stroke="none" font-family="helvetica" font-size="14pt" font-style="normal" font-weight="normal" text-decoration="normal" x="0" y="0" text-anchor="end" dominant-baseline="central" transform="matrix(1, 0, 0, 1, 158.5, 100.5)" fill-opacity="1">Model Model #7</text><text fill="rgb(68,68,68)" stroke="none" font-family="helvetica" font-size="14pt" font-style="normal" font-weight="normal" text-decoration="normal" x="0" y="0" text-anchor="end" dominant-baseline="central" transform="matrix(1, 0, 0, 1, 158.5, 82.5)" fill-opacity="1">Model Model #8</text><text fill="rgb(68,68,68)" stroke="none" font-family="helvetica" font-size="14pt" font-style="normal" font-weight="normal" text-decoration="normal" x="0" y="0" text-anchor="end" dominant-baseline="central" transform="matrix(1, 0, 0, 1, 158.5, 64.5)" fill-opacity="1">Model Model #9</text><text fill="rgb(68,68,68)" stroke="none" font-family="helvetica" font-size="14pt" font-style="normal" font-weight="normal" text-decoration="normal" x="0" y="0" text-anchor="end" dominant-baseline="central" transform="matrix(1, 0, 0, 1, 158.5, 46.5)" fill-opacity="1">Model Model #10</text><path fill="rgb(255,255,255)" stroke="rgb(229,229,229)" paint-order="fill" d="M 510.6500015258789 47.5 L 660.5 47.5 L 660.5 294.5 L 510.6500015258789 294.5 L 510.6500015258789 47.5" fill-opacity="0.95" clip-path="url(#BVQNKxvDgDPp)" stroke-opacity="0.5" stroke-linejoin="bevel" stroke-miterlimit="10" stroke-dasharray=""/><text fill="rgb(68,68,68)" stroke="none" font-family="helvetica" font-size="13px" font-style="normal" font-weight="normal" text-decoration="normal" x="545.1500015258789" y="67" text-anchor="start" dominant-baseline="central" transform="matrix(1, 0, 0, 1, 0.5, 0.5)" fill-opacity="1">Model 10: 96.88%</text><path fill="rgb(253,231,36)" stroke="none" paint-order="stroke" d="M 522.6500015258789 59.5 L 538.6500015258789 59.5 L 538.6500015258789 75.5 L 522.6500015258789 75.5 L 522.6500015258789 59.5" fill-opacity="0.8" clip-path="url(#BVQNKxvDgDPp)"/><path fill="none" stroke="rgb(253,231,36)" paint-order="fill" d="M 522.6500015258789 59.5 L 538.6500015258789 59.5 L 538.6500015258789 75.5 L 522.6500015258789 75.5 L 522.6500015258789 59.5" stroke-opacity="0.8" stroke-linejoin="bevel" stroke-miterlimit="10" stroke-dasharray="" clip-path="url(#BVQNKxvDgDPp)"/><text fill="rgb(68,68,68)" stroke="none" font-family="helvetica" font-size="13px" font-style="normal" font-weight="normal" text-decoration="normal" x="545.1500015258789" y="90" text-anchor="start" dominant-baseline="central" transform="matrix(1, 0, 0, 1, 0.5, 0.5)" fill-opacity="1">Model 1: 96.88%</text><path fill="rgb(68,1,84)" stroke="none" paint-order="stroke" d="M 522.6500015258789 82.5 L 538.6500015258789 82.5 L 538.6500015258789 98.5 L 522.6500015258789 98.5 L 522.6500015258789 82.5" fill-opacity="0.8" clip-path="url(#BVQNKxvDgDPp)"/><path fill="none" stroke="rgb(68,1,84)" paint-order="fill" d="M 522.6500015258789 82.5 L 538.6500015258789 82.5 L 538.6500015258789 98.5 L 522.6500015258789 98.5 L 522.6500015258789 82.5" stroke-opacity="0.8" stroke-linejoin="bevel" stroke-miterlimit="10" stroke-dasharray="" clip-path="url(#BVQNKxvDgDPp)"/><text fill="rgb(68,68,68)" stroke="none" font-family="helvetica" font-size="13px" font-style="normal" font-weight="normal" text-decoration="normal" x="545.1500015258789" y="113" text-anchor="start" dominant-baseline="central" transform="matrix(1, 0, 0, 1, 0.5, 0.5)" fill-opacity="1">Model 2: 96.88%</text><path fill="rgb(71,39,119)" stroke="none" paint-order="stroke" d="M 522.6500015258789 105.5 L 538.6500015258789 105.5 L 538.6500015258789 121.5 L 522.6500015258789 121.5 L 522.6500015258789 105.5" fill-opacity="0.8" clip-path="url(#BVQNKxvDgDPp)"/><path fill="none" stroke="rgb(71,39,119)" paint-order="fill" d="M 522.6500015258789 105.5 L 538.6500015258789 105.5 L 538.6500015258789 121.5 L 522.6500015258789 121.5 L 522.6500015258789 105.5" stroke-opacity="0.8" stroke-linejoin="bevel" stroke-miterlimit="10" stroke-dasharray="" clip-path="url(#BVQNKxvDgDPp)"/><text fill="rgb(68,68,68)" stroke="none" font-family="helvetica" font-size="13px" font-style="normal" font-weight="normal" text-decoration="normal" x="545.1500015258789" y="136" text-anchor="start" dominant-baseline="central" transform="matrix(1, 0, 0, 1, 0.5, 0.5)" fill-opacity="1">Model 3: 96.88%</text><path fill="rgb(62,73,137)" stroke="none" paint-order="stroke" d="M 522.6500015258789 128.5 L 538.6500015258789 128.5 L 538.6500015258789 144.5 L 522.6500015258789 144.5 L 522.6500015258789 128.5" fill-opacity="0.8" clip-path="url(#BVQNKxvDgDPp)"/><path fill="none" stroke="rgb(62,73,137)" paint-order="fill" d="M 522.6500015258789 128.5 L 538.6500015258789 128.5 L 538.6500015258789 144.5 L 522.6500015258789 144.5 L 522.6500015258789 128.5" stroke-opacity="0.8" stroke-linejoin="bevel" stroke-miterlimit="10" stroke-dasharray="" clip-path="url(#BVQNKxvDgDPp)"/><text fill="rgb(68,68,68)" stroke="none" font-family="helvetica" font-size="13px" font-style="normal" font-weight="normal" text-decoration="normal" x="545.1500015258789" y="159" text-anchor="start" dominant-baseline="central" transform="matrix(1, 0, 0, 1, 0.5, 0.5)" fill-opacity="1">Model 4: 96.88%</text><path fill="rgb(48,103,141)" stroke="none" paint-order="stroke" d="M 522.6500015258789 151.5 L 538.6500015258789 151.5 L 538.6500015258789 167.5 L 522.6500015258789 167.5 L 522.6500015258789 151.5" fill-opacity="0.8" clip-path="url(#BVQNKxvDgDPp)"/><path fill="none" stroke="rgb(48,103,141)" paint-order="fill" d="M 522.6500015258789 151.5 L 538.6500015258789 151.5 L 538.6500015258789 167.5 L 522.6500015258789 167.5 L 522.6500015258789 151.5" stroke-opacity="0.8" stroke-linejoin="bevel" stroke-miterlimit="10" stroke-dasharray="" clip-path="url(#BVQNKxvDgDPp)"/><text fill="rgb(68,68,68)" stroke="none" font-family="helvetica" font-size="13px" font-style="normal" font-weight="normal" text-decoration="normal" x="545.1500015258789" y="182" text-anchor="start" dominant-baseline="central" transform="matrix(1, 0, 0, 1, 0.5, 0.5)" fill-opacity="1">Model 5: 96.88%</text><path fill="rgb(37,130,142)" stroke="none" paint-order="stroke" d="M 522.6500015258789 174.5 L 538.6500015258789 174.5 L 538.6500015258789 190.5 L 522.6500015258789 190.5 L 522.6500015258789 174.5" fill-opacity="0.8" clip-path="url(#BVQNKxvDgDPp)"/><path fill="none" stroke="rgb(37,130,142)" paint-order="fill" d="M 522.6500015258789 174.5 L 538.6500015258789 174.5 L 538.6500015258789 190.5 L 522.6500015258789 190.5 L 522.6500015258789 174.5" stroke-opacity="0.8" stroke-linejoin="bevel" stroke-miterlimit="10" stroke-dasharray="" clip-path="url(#BVQNKxvDgDPp)"/><text fill="rgb(68,68,68)" stroke="none" font-family="helvetica" font-size="13px" font-style="normal" font-weight="normal" text-decoration="normal" x="545.1500015258789" y="205" text-anchor="start" dominant-baseline="central" transform="matrix(1, 0, 0, 1, 0.5, 0.5)" fill-opacity="1">Model 6: 96.88%</text><path fill="rgb(30,156,137)" stroke="none" paint-order="stroke" d="M 522.6500015258789 197.5 L 538.6500015258789 197.5 L 538.6500015258789 213.5 L 522.6500015258789 213.5 L 522.6500015258789 197.5" fill-opacity="0.8" clip-path="url(#BVQNKxvDgDPp)"/><path fill="none" stroke="rgb(30,156,137)" paint-order="fill" d="M 522.6500015258789 197.5 L 538.6500015258789 197.5 L 538.6500015258789 213.5 L 522.6500015258789 213.5 L 522.6500015258789 197.5" stroke-opacity="0.8" stroke-linejoin="bevel" stroke-miterlimit="10" stroke-dasharray="" clip-path="url(#BVQNKxvDgDPp)"/><text fill="rgb(68,68,68)" stroke="none" font-family="helvetica" font-size="13px" font-style="normal" font-weight="normal" text-decoration="normal" x="545.1500015258789" y="228" text-anchor="start" dominant-baseline="central" transform="matrix(1, 0, 0, 1, 0.5, 0.5)" fill-opacity="1">Model 7: 96.97%</text><path fill="rgb(53,183,120)" stroke="none" paint-order="stroke" d="M 522.6500015258789 220.5 L 538.6500015258789 220.5 L 538.6500015258789 236.5 L 522.6500015258789 236.5 L 522.6500015258789 220.5" fill-opacity="0.8" clip-path="url(#BVQNKxvDgDPp)"/><path fill="none" stroke="rgb(53,183,120)" paint-order="fill" d="M 522.6500015258789 220.5 L 538.6500015258789 220.5 L 538.6500015258789 236.5 L 522.6500015258789 236.5 L 522.6500015258789 220.5" stroke-opacity="0.8" stroke-linejoin="bevel" stroke-miterlimit="10" stroke-dasharray="" clip-path="url(#BVQNKxvDgDPp)"/><text fill="rgb(68,68,68)" stroke="none" font-family="helvetica" font-size="13px" font-style="normal" font-weight="normal" text-decoration="normal" x="545.1500015258789" y="251" text-anchor="start" dominant-baseline="central" transform="matrix(1, 0, 0, 1, 0.5, 0.5)" fill-opacity="1">Model 8: 96.88%</text><path fill="rgb(107,205,89)" stroke="none" paint-order="stroke" d="M 522.6500015258789 243.5 L 538.6500015258789 243.5 L 538.6500015258789 259.5 L 522.6500015258789 259.5 L 522.6500015258789 243.5" fill-opacity="0.8" clip-path="url(#BVQNKxvDgDPp)"/><path fill="none" stroke="rgb(107,205,89)" paint-order="fill" d="M 522.6500015258789 243.5 L 538.6500015258789 243.5 L 538.6500015258789 259.5 L 522.6500015258789 259.5 L 522.6500015258789 243.5" stroke-opacity="0.8" stroke-linejoin="bevel" stroke-miterlimit="10" stroke-dasharray="" clip-path="url(#BVQNKxvDgDPp)"/><text fill="rgb(68,68,68)" stroke="none" font-family="helvetica" font-size="13px" font-style="normal" font-weight="normal" text-decoration="normal" x="545.1500015258789" y="274" text-anchor="start" dominant-baseline="central" transform="matrix(1, 0, 0, 1, 0.5, 0.5)" fill-opacity="1">Model 9: 96.88%</text><path fill="rgb(178,221,44)" stroke="none" paint-order="stroke" d="M 522.6500015258789 266.5 L 538.6500015258789 266.5 L 538.6500015258789 282.5 L 522.6500015258789 282.5 L 522.6500015258789 266.5" fill-opacity="0.8" clip-path="url(#BVQNKxvDgDPp)"/><path fill="none" stroke="rgb(178,221,44)" paint-order="fill" d="M 522.6500015258789 266.5 L 538.6500015258789 266.5 L 538.6500015258789 282.5 L 522.6500015258789 282.5 L 522.6500015258789 266.5" stroke-opacity="0.8" stroke-linejoin="bevel" stroke-miterlimit="10" stroke-dasharray="" clip-path="url(#BVQNKxvDgDPp)"/><path fill="none" stroke="none"/><text fill="rgb(68,68,68)" stroke="none" font-family="helvetica" font-size="14pt" font-style="normal" font-weight="bold" text-decoration="normal" x="0" y="0" text-anchor="middle" dominant-baseline="text-after-edge" transform="matrix(1, 0, 0, 1, 420, 32.5)" fill-opacity="1">Fit to XL-MS input</text></svg>