<svg version="1.1" xmlns="http://www.w3.org/2000/svg" xmlns:xlink="http://www.w3.org/1999/xlink" width="500" height="500" style="width: 500px; height: 500px;"><defs><clipPath id="ETUUnzyGfgIi"><path fill="none" stroke="none" d=" M 79 33 L 470 33 L 470 439 L 79 439 L 79 33 Z"/></clipPath><clipPath id="dxbEpnicfQDg"><path fill="none" stroke="none" d=" M 79 33 L 470 33 L 470 439 L 79 439 L 79 33 Z"/></clipPath><clipPath id="WsbtofLSQDxC"><path fill="none" stroke="none" d=" M 79 33 L 470 33 L 470 439 L 79 439 L 79 33 Z"/></clipPath><clipPath id="nwuyBcQTDVwl"><path fill="none" stroke="none" d=" M 79 33 L 470 33 L 470 439 L 79 439 L 79 33 Z"/></clipPath><clipPath id="MbFDcFXmGBAC"><path fill="none" stroke="none" d=" M 79 33 L 470 33 L 470 439 L 79 439 L 79 33 Z"/></clipPath><clipPath id="oIaTPguWfdhm"><path fill="none" stroke="none" d=" M 79 33 L 470 33 L 470 439 L 79 439 L 79 33 Z"/></clipPath><clipPath id="hwhDXDFxJTPp"><path fill="none" stroke="none" d=" M 79 33 L 470 33 L 470 439 L 79 439 L 79 33 Z"/></clipPath><clipPath id="HoeXuNQaWJgZ"><path fill="none" stroke="none" d=" M 79 33 L 470 33 L 470 439 L 79 439 L 79 33 Z"/></clipPath><clipPath id="ZhAxRrXsEXqQ"><path fill="none" stroke="none" d=" M 79 33 L 470 33 L 470 439 L 79 439 L 79 33 Z"/></clipPath><clipPath id="kOdqOndcAWPd"><path fill="none" stroke="none" d=" M 79 33 L 470 33 L 470 439 L 79 439 L 79 33 Z"/></clipPath></defs><g transform="scale(1,1) translate(0.5,0.5) scale(1,1) translate(0.5,0.5)"><rect fill="#ffffff" stroke="none" x="0" y="0" width="500" height="500"/><rect fill="#FFFFFF" stroke="none" x="79" y="33" width="391" height="406"/><rect fill="#ffffff" stroke="none" x="79" y="33" width="391" height="406"/><g><rect fill="none" stroke="#e5e5e5" x="79" y="33" width="391" height="406" stroke-linejoin="bevel" stroke-miterlimit="10"/></g><g clip-path="url(#oIaTPguWfdhm)"><g><g><path fill="none" stroke="#e5e5e5" paint-order="fill stroke markers" d=" M 91 439 L 91 33" stroke-linejoin="bevel" stroke-miterlimit="10"/><path fill="none" stroke="#e5e5e5" paint-order="fill stroke markers" d=" M 159 439 L 159 33" stroke-linejoin="bevel" stroke-miterlimit="10"/><path fill="none" stroke="#e5e5e5" paint-order="fill stroke markers" d=" M 228 439 L 228 33" stroke-linejoin="bevel" stroke-miterlimit="10"/><path fill="none" stroke="#e5e5e5" paint-order="fill stroke markers" d=" M 296 439 L 296 33" stroke-linejoin="bevel" stroke-miterlimit="10"/><path fill="none" stroke="#e5e5e5" paint-order="fill stroke markers" d=" M 364 439 L 364 33" stroke-linejoin="bevel" stroke-miterlimit="10"/><path fill="none" stroke="#e5e5e5" paint-order="fill stroke markers" d=" M 432 439 L 432 33" stroke-linejoin="bevel" stroke-miterlimit="10"/></g></g></g><g clip-path="url(#hwhDXDFxJTPp)"><g><g><path fill="none" stroke="#e5e5e5" paint-order="fill stroke markers" d=" M 79 388 L 470 388" stroke-linejoin="bevel" stroke-miterlimit="10"/><path fill="none" stroke="#e5e5e5" paint-order="fill stroke markers" d=" M 79 332 L 470 332" stroke-linejoin="bevel" stroke-miterlimit="10"/><path fill="none" stroke="#e5e5e5" paint-order="fill stroke markers" d=" M 79 276 L 470 276" stroke-linejoin="bevel" stroke-miterlimit="10"/><path fill="none" stroke="#e5e5e5" paint-order="fill stroke markers" d=" M 79 220 L 470 220" stroke-linejoin="bevel" stroke-miterlimit="10"/><path fill="none" stroke="#e5e5e5" paint-order="fill stroke markers" d=" M 79 165 L 470 165" stroke-linejoin="bevel" stroke-miterlimit="10"/><path fill="none" stroke="#e5e5e5" paint-order="fill stroke markers" d=" M 79 109 L 470 109" stroke-linejoin="bevel" stroke-miterlimit="10"/><path fill="none" stroke="#e5e5e5" paint-order="fill stroke markers" d=" M 79 53 L 470 53" stroke-linejoin="bevel" stroke-miterlimit="10"/></g></g></g><g clip-path="url(#HoeXuNQaWJgZ)"><g><g><path fill="none" stroke="none"/><path fill="blue" stroke="blue" paint-order="fill stroke markers" d=" M 99.27272727272727 420.5454545454545 A 2.5 2.5 0 1 1 99.27272602272737 420.54295454587117" fill-opacity="0.3" stroke-linejoin="bevel" stroke-miterlimit="10"/><path fill="blue" stroke="blue" paint-order="fill stroke markers" d=" M 101.99651689306862 418.1711294295921 A 2.5 2.5 0 1 1 101.99651564306872 418.16862943000876" fill-opacity="0.3" stroke-linejoin="bevel" stroke-miterlimit="10"/><path fill="blue" stroke="blue" paint-order="fill stroke markers" d=" M 104.72030651340995 414.88469917913955 A 2.5 2.5 0 1 1 104.72030526341005 414.8821991795562" fill-opacity="0.3" stroke-linejoin="bevel" stroke-miterlimit="10"/><path fill="blue" stroke="blue" paint-order="fill stroke markers" d=" M 107.4440961337513 410.7036423594595 A 2.5 2.5 0 1 1 107.4440948837514 410.70114235987614" fill-opacity="0.3" stroke-linejoin="bevel" stroke-miterlimit="10"/><path fill="blue" stroke="blue" paint-order="fill stroke markers" d=" M 110.16788575409265 405.65509674308896 A 2.5 2.5 0 1 1 110.16788450409275 405.6525967435056" fill-opacity="0.3" stroke-linejoin="bevel" stroke-miterlimit="10"/><path fill="blue" stroke="blue" paint-order="fill stroke markers" d=" M 112.89167537443399 399.7864384414059 A 2.5 2.5 0 1 1 112.89167412443409 399.78393844182256" fill-opacity="0.3" stroke-linejoin="bevel" stroke-miterlimit="10"/><path fill="blue" stroke="blue" paint-order="fill stroke markers" d=" M 115.61546499477534 393.15240296173084 A 2.5 2.5 0 1 1 115.61546374477544 393.1499029621475" fill-opacity="0.3" stroke-linejoin="bevel" stroke-miterlimit="10"/><path fill="blue" stroke="blue" paint-order="fill stroke markers" d=" M 118.33925461511667 385.81232543384806 A 2.5 2.5 0 1 1 118.33925336511678 385.8098254342647" fill-opacity="0.3" stroke-linejoin="bevel" stroke-miterlimit="10"/><path fill="blue" stroke="blue" paint-order="fill stroke markers" d=" M 121.06304423545802 377.8269208742808 A 2.5 2.5 0 1 1 121.06304298545813 377.82442087469747" fill-opacity="0.3" stroke-linejoin="bevel" stroke-miterlimit="10"/><path fill="blue" stroke="blue" paint-order="fill stroke markers" d=" M 123.78683385579936 369.2610439597701 A 2.5 2.5 0 1 1 123.78683260579946 369.2585439601868" fill-opacity="0.3" stroke-linejoin="bevel" stroke-miterlimit="10"/><path fill="blue" stroke="blue" paint-order="fill stroke markers" d=" M 126.51062347614072 360.1855288762599 A 2.5 2.5 0 1 1 126.51062222614082 360.1830288766766" fill-opacity="0.3" stroke-linejoin="bevel" stroke-miterlimit="10"/><path fill="blue" stroke="blue" paint-order="fill stroke markers" d=" M 129.23441309648206 350.6712098096941 A 2.5 2.5 0 1 1 129.23441184648217 350.6687098101108" fill-opacity="0.3" stroke-linejoin="bevel" stroke-miterlimit="10"/><path fill="blue" stroke="blue" paint-order="fill stroke markers" d=" M 131.9582027168234 340.78892094601684 A 2.5 2.5 0 1 1 131.9582014668235 340.7864209464335" fill-opacity="0.3" stroke-linejoin="bevel" stroke-miterlimit="10"/><path fill="blue" stroke="blue" paint-order="fill stroke markers" d=" M 133.32009752699406 51.45454545454541 A 2.5 2.5 0 1 1 133.32009627699418 51.452045454962075" fill-opacity="0.3" stroke-linejoin="bevel" stroke-miterlimit="10"/><path fill="blue" stroke="blue" paint-order="fill stroke markers" d=" M 134.68199233716473 51.58130173995136 A 2.5 2.5 0 1 1 134.68199108716485 51.57880174036802" fill-opacity="0.3" stroke-linejoin="bevel" stroke-miterlimit="10"/><path fill="blue" stroke="blue" paint-order="fill stroke markers" d=" M 136.04388714733543 52.0954131631132 A 2.5 2.5 0 1 1 136.04388589733554 52.092913163529865" fill-opacity="0.3" stroke-linejoin="bevel" stroke-miterlimit="10"/><path fill="blue" stroke="blue" paint-order="fill stroke markers" d=" M 137.4057819575061 52.27651627601997 A 2.5 2.5 0 1 1 137.4057807075062 52.27401627643663" fill-opacity="0.3" stroke-linejoin="bevel" stroke-miterlimit="10"/><path fill="blue" stroke="blue" paint-order="fill stroke markers" d=" M 138.76767676767676 52.02652885601199 A 2.5 2.5 0 1 1 138.76767551767688 52.02402885642866" fill-opacity="0.3" stroke-linejoin="bevel" stroke-miterlimit="10"/><path fill="blue" stroke="blue" paint-order="fill stroke markers" d=" M 140.12957157784743 52.01302237286087 A 2.5 2.5 0 1 1 140.12957032784755 52.01052237327753" fill-opacity="0.3" stroke-linejoin="bevel" stroke-miterlimit="10"/><path fill="blue" stroke="blue" paint-order="fill stroke markers" d=" M 141.49146638801813 52.116245944717036 A 2.5 2.5 0 1 1 141.49146513801824 52.1137459451337" fill-opacity="0.3" stroke-linejoin="bevel" stroke-miterlimit="10"/><path fill="blue" stroke="blue" paint-order="fill stroke markers" d=" M 142.85336119818876 52.084223669403805 A 2.5 2.5 0 1 1 142.85335994818888 52.08172366982047" fill-opacity="0.3" stroke-linejoin="bevel" stroke-miterlimit="10"/><path fill="blue" stroke="blue" paint-order="fill stroke markers" d=" M 144.21525600835946 52.202796533630384 A 2.5 2.5 0 1 1 144.21525475835958 52.20029653404705" fill-opacity="0.3" stroke-linejoin="bevel" stroke-miterlimit="10"/><path fill="blue" stroke="blue" paint-order="fill stroke markers" d=" M 145.57715081853013 52.16434440223078 A 2.5 2.5 0 1 1 145.57714956853025 52.161844402647446" fill-opacity="0.3" stroke-linejoin="bevel" stroke-miterlimit="10"/><path fill="blue" stroke="blue" paint-order="fill stroke markers" d=" M 146.9390456287008 52.528126220575665 A 2.5 2.5 0 1 1 146.9390443787009 52.52562622099233" fill-opacity="0.3" stroke-linejoin="bevel" stroke-miterlimit="10"/><path fill="blue" stroke="blue" paint-order="fill stroke markers" d=" M 148.30094043887146 52.87412856996078 A 2.5 2.5 0 1 1 148.30093918887158 52.871628570377446" fill-opacity="0.3" stroke-linejoin="bevel" stroke-miterlimit="10"/><path fill="blue" stroke="blue" paint-order="fill stroke markers" d=" M 149.66283524904213 52.78420876534083 A 2.5 2.5 0 1 1 149.66283399904225 52.78170876575749" fill-opacity="0.3" stroke-linejoin="bevel" stroke-miterlimit="10"/><path fill="blue" stroke="blue" paint-order="fill stroke markers" d=" M 151.0247300592128 52.88868420583557 A 2.5 2.5 0 1 1 151.02472880921292 52.88618420625223" fill-opacity="0.3" stroke-linejoin="bevel" stroke-miterlimit="10"/><path fill="blue" stroke="blue" paint-order="fill stroke markers" d=" M 152.38662486938347 53.25547140710516 A 2.5 2.5 0 1 1 152.38662361938358 53.25297140752183" fill-opacity="0.3" stroke-linejoin="bevel" stroke-miterlimit="10"/><path fill="blue" stroke="blue" paint-order="fill stroke markers" d=" M 153.74851967955414 53.614297326020385 A 2.5 2.5 0 1 1 153.74851842955425 53.61179732643705" fill-opacity="0.3" stroke-linejoin="bevel" stroke-miterlimit="10"/><path fill="blue" stroke="blue" paint-order="fill stroke markers" d=" M 155.11041448972483 53.32736274292096 A 2.5 2.5 0 1 1 155.11041323972495 53.324862743337626" fill-opacity="0.3" stroke-linejoin="bevel" stroke-miterlimit="10"/><path fill="blue" stroke="blue" paint-order="fill stroke markers" d=" M 156.4723092998955 53.48779591252716 A 2.5 2.5 0 1 1 156.47230804989562 53.485295912943826" fill-opacity="0.3" stroke-linejoin="bevel" stroke-miterlimit="10"/><path fill="blue" stroke="blue" paint-order="fill stroke markers" d=" M 157.83420411006617 52.776990540800305 A 2.5 2.5 0 1 1 157.83420286006628 52.77449054121697" fill-opacity="0.3" stroke-linejoin="bevel" stroke-miterlimit="10"/><path fill="blue" stroke="blue" paint-order="fill stroke markers" d=" M 159.19609892023686 53.30726976125213 A 2.5 2.5 0 1 1 159.19609767023698 53.304769761668794" fill-opacity="0.3" stroke-linejoin="bevel" stroke-miterlimit="10"/><path fill="blue" stroke="blue" paint-order="fill stroke markers" d=" M 160.55799373040753 53.45451213436344 A 2.5 2.5 0 1 1 160.55799248040765 53.452012134780105" fill-opacity="0.3" stroke-linejoin="bevel" stroke-miterlimit="10"/><path fill="blue" stroke="blue" paint-order="fill stroke markers" d=" M 162.26036224312088 53.266432622527624 A 2.5 2.5 0 1 1 162.260360993121 53.26393262294429" fill-opacity="0.3" stroke-linejoin="bevel" stroke-miterlimit="10"/><path fill="blue" stroke="blue" paint-order="fill stroke markers" d=" M 164.64367816091954 53.54872682205536 A 2.5 2.5 0 1 1 164.64367691091965 53.54622682247202" fill-opacity="0.3" stroke-linejoin="bevel" stroke-miterlimit="10"/><path fill="blue" stroke="blue" paint-order="fill stroke markers" d=" M 167.36746778126087 53.45437916843984 A 2.5 2.5 0 1 1 167.367466531261 53.45187916885651" fill-opacity="0.3" stroke-linejoin="bevel" stroke-miterlimit="10"/><path fill="blue" stroke="blue" paint-order="fill stroke markers" d=" M 170.0912574016022 53.40654139892545 A 2.5 2.5 0 1 1 170.09125615160232 53.40404139934211" fill-opacity="0.3" stroke-linejoin="bevel" stroke-miterlimit="10"/><path fill="blue" stroke="blue" paint-order="fill stroke markers" d=" M 172.81504702194357 53.521278269924906 A 2.5 2.5 0 1 1 172.8150457719437 53.51877827034157" fill-opacity="0.3" stroke-linejoin="bevel" stroke-miterlimit="10"/><path fill="blue" stroke="blue" paint-order="fill stroke markers" d=" M 175.5388366422849 52.549985052833094 A 2.5 2.5 0 1 1 175.53883539228502 52.54748505324976" fill-opacity="0.3" stroke-linejoin="bevel" stroke-miterlimit="10"/><path fill="blue" stroke="blue" paint-order="fill stroke markers" d=" M 178.26262626262627 53.38521303939773 A 2.5 2.5 0 1 1 178.2626250126264 53.3827130398144" fill-opacity="0.3" stroke-linejoin="bevel" stroke-miterlimit="10"/><path fill="blue" stroke="blue" paint-order="fill stroke markers" d=" M 180.9864158829676 53.13402671576857 A 2.5 2.5 0 1 1 180.98641463296772 53.131526716185235" fill-opacity="0.3" stroke-linejoin="bevel" stroke-miterlimit="10"/><path fill="blue" stroke="blue" paint-order="fill stroke markers" d=" M 183.71020550330894 52.8885562363982 A 2.5 2.5 0 1 1 183.71020425330906 52.886056236814866" fill-opacity="0.3" stroke-linejoin="bevel" stroke-miterlimit="10"/><path fill="blue" stroke="blue" paint-order="fill stroke markers" d=" M 186.43399512365028 53.239496170773734 A 2.5 2.5 0 1 1 186.4339938736504 53.2369961711904" fill-opacity="0.3" stroke-linejoin="bevel" stroke-miterlimit="10"/><path fill="blue" stroke="blue" paint-order="fill stroke markers" d=" M 189.15778474399164 52.771190667454846 A 2.5 2.5 0 1 1 189.15778349399176 52.76869066787151" fill-opacity="0.3" stroke-linejoin="bevel" stroke-miterlimit="10"/><path fill="blue" stroke="blue" paint-order="fill stroke markers" d=" M 191.88157436433295 53.65046832897982 A 2.5 2.5 0 1 1 191.88157311433307 53.647968329396484" fill-opacity="0.3" stroke-linejoin="bevel" stroke-miterlimit="10"/><path fill="blue" stroke="blue" paint-order="fill stroke markers" d=" M 194.6053639846743 52.33215252117475 A 2.5 2.5 0 1 1 194.60536273467443 52.32965252159141" fill-opacity="0.3" stroke-linejoin="bevel" stroke-miterlimit="10"/><path fill="blue" stroke="blue" paint-order="fill stroke markers" d=" M 197.32915360501568 53.16371986719169 A 2.5 2.5 0 1 1 197.3291523550158 53.16121986760835" fill-opacity="0.3" stroke-linejoin="bevel" stroke-miterlimit="10"/><path fill="blue" stroke="blue" paint-order="fill stroke markers" d=" M 200.052943225357 53.25294525927628 A 2.5 2.5 0 1 1 200.05294197535713 53.250445259692945" fill-opacity="0.3" stroke-linejoin="bevel" stroke-miterlimit="10"/><path fill="blue" stroke="blue" paint-order="fill stroke markers" d=" M 202.77673284569835 53.07229538591013 A 2.5 2.5 0 1 1 202.77673159569846 53.069795386326795" fill-opacity="0.3" stroke-linejoin="bevel" stroke-miterlimit="10"/><path fill="blue" stroke="blue" paint-order="fill stroke markers" d=" M 205.50052246603968 52.55233568548896 A 2.5 2.5 0 1 1 205.5005212160398 52.54983568590563" fill-opacity="0.3" stroke-linejoin="bevel" stroke-miterlimit="10"/><path fill="blue" stroke="blue" paint-order="fill stroke markers" d=" M 208.22431208638105 51.83701446530269 A 2.5 2.5 0 1 1 208.22431083638116 51.83451446571935" fill-opacity="0.3" stroke-linejoin="bevel" stroke-miterlimit="10"/><path fill="blue" stroke="blue" paint-order="fill stroke markers" d=" M 210.94810170672235 52.49235910736891 A 2.5 2.5 0 1 1 210.94810045672247 52.48985910778558" fill-opacity="0.3" stroke-linejoin="bevel" stroke-miterlimit="10"/><path fill="blue" stroke="blue" paint-order="fill stroke markers" d=" M 213.67189132706372 52.33193457265998 A 2.5 2.5 0 1 1 213.67189007706384 52.32943457307665" fill-opacity="0.3" stroke-linejoin="bevel" stroke-miterlimit="10"/><path fill="blue" stroke="blue" paint-order="fill stroke markers" d=" M 216.39568094740508 52.35962005944209 A 2.5 2.5 0 1 1 216.3956796974052 52.35712005985876" fill-opacity="0.3" stroke-linejoin="bevel" stroke-miterlimit="10"/><path fill="blue" stroke="blue" paint-order="fill stroke markers" d=" M 219.11947056774642 52.25951933463918 A 2.5 2.5 0 1 1 219.11946931774654 52.257019335055844" fill-opacity="0.3" stroke-linejoin="bevel" stroke-miterlimit="10"/><path fill="blue" stroke="blue" paint-order="fill stroke markers" d=" M 221.84326018808775 51.72710502824918 A 2.5 2.5 0 1 1 221.84325893808787 51.72460502866584" fill-opacity="0.3" stroke-linejoin="bevel" stroke-miterlimit="10"/><path fill="blue" stroke="blue" paint-order="fill stroke markers" d=" M 224.56704980842912 52.13074941166492 A 2.5 2.5 0 1 1 224.56704855842924 52.12824941208159" fill-opacity="0.3" stroke-linejoin="bevel" stroke-miterlimit="10"/><path fill="blue" stroke="blue" paint-order="fill stroke markers" d=" M 227.29083942877045 52.193375239429315 A 2.5 2.5 0 1 1 227.29083817877057 52.19087523984598" fill-opacity="0.3" stroke-linejoin="bevel" stroke-miterlimit="10"/><path fill="blue" stroke="blue" paint-order="fill stroke markers" d=" M 231.10414489724835 51.608439820039116 A 2.5 2.5 0 1 1 231.10414364724846 51.60593982045578" fill-opacity="0.3" stroke-linejoin="bevel" stroke-miterlimit="10"/><path fill="blue" stroke="blue" paint-order="fill stroke markers" d=" M 236.82410309996516 52.78725464951115 A 2.5 2.5 0 1 1 236.82410184996527 52.78475464992781" fill-opacity="0.3" stroke-linejoin="bevel" stroke-miterlimit="10"/><path fill="blue" stroke="blue" paint-order="fill stroke markers" d=" M 243.63357715081852 51.969522019106954 A 2.5 2.5 0 1 1 243.63357590081864 51.96702201952362" fill-opacity="0.3" stroke-linejoin="bevel" stroke-miterlimit="10"/><path fill="blue" stroke="blue" paint-order="fill stroke markers" d=" M 250.4430512016719 52.70220997773407 A 2.5 2.5 0 1 1 250.443049951672 52.699709978150736" fill-opacity="0.3" stroke-linejoin="bevel" stroke-miterlimit="10"/><path fill="blue" stroke="blue" paint-order="fill stroke markers" d=" M 257.25252525252523 52.46782409050961 A 2.5 2.5 0 1 1 257.2525240025253 52.46532409092627" fill-opacity="0.3" stroke-linejoin="bevel" stroke-miterlimit="10"/><path fill="blue" stroke="blue" paint-order="fill stroke markers" d=" M 264.06199930337857 52.36600317514121 A 2.5 2.5 0 1 1 264.06199805337866 52.363503175557874" fill-opacity="0.3" stroke-linejoin="bevel" stroke-miterlimit="10"/><path fill="blue" stroke="blue" paint-order="fill stroke markers" d=" M 270.87147335423197 52.220121078102636 A 2.5 2.5 0 1 1 270.87147210423205 52.2176210785193" fill-opacity="0.3" stroke-linejoin="bevel" stroke-miterlimit="10"/><path fill="blue" stroke="blue" paint-order="fill stroke markers" d=" M 277.68094740508536 52.56301206751156 A 2.5 2.5 0 1 1 277.68094615508545 52.56051206792822" fill-opacity="0.3" stroke-linejoin="bevel" stroke-miterlimit="10"/><path fill="blue" stroke="blue" paint-order="fill stroke markers" d=" M 284.4904214559387 51.55132966241543 A 2.5 2.5 0 1 1 284.4904202059388 51.54882966283209" fill-opacity="0.3" stroke-linejoin="bevel" stroke-miterlimit="10"/><path fill="blue" stroke="blue" paint-order="fill stroke markers" d=" M 291.29989550679204 52.439874519801776 A 2.5 2.5 0 1 1 291.29989425679213 52.43737452021844" fill-opacity="0.3" stroke-linejoin="bevel" stroke-miterlimit="10"/><path fill="blue" stroke="blue" paint-order="fill stroke markers" d=" M 298.10936955764544 51.82452919791728 A 2.5 2.5 0 1 1 298.1093683076455 51.822029198333944" fill-opacity="0.3" stroke-linejoin="bevel" stroke-miterlimit="10"/><path fill="blue" stroke="blue" paint-order="fill stroke markers" d=" M 304.9188436084988 51.78192524355737 A 2.5 2.5 0 1 1 304.91884235849886 51.77942524397403" fill-opacity="0.3" stroke-linejoin="bevel" stroke-miterlimit="10"/><path fill="blue" stroke="blue" paint-order="fill stroke markers" d=" M 311.7283176593521 51.79096881788655 A 2.5 2.5 0 1 1 311.7283164093522 51.788468818303215" fill-opacity="0.3" stroke-linejoin="bevel" stroke-miterlimit="10"/><path fill="blue" stroke="blue" paint-order="fill stroke markers" d=" M 318.5377917102055 52.126403787063865 A 2.5 2.5 0 1 1 318.5377904602056 52.12390378748053" fill-opacity="0.3" stroke-linejoin="bevel" stroke-miterlimit="10"/><path fill="blue" stroke="blue" paint-order="fill stroke markers" d=" M 325.34726576105885 52.28328759313386 A 2.5 2.5 0 1 1 325.34726451105894 52.28078759355053" fill-opacity="0.3" stroke-linejoin="bevel" stroke-miterlimit="10"/><path fill="blue" stroke="blue" paint-order="fill stroke markers" d=" M 332.1567398119122 52.228413855977514 A 2.5 2.5 0 1 1 332.1567385619123 52.22591385639418" fill-opacity="0.3" stroke-linejoin="bevel" stroke-miterlimit="10"/><path fill="blue" stroke="blue" paint-order="fill stroke markers" d=" M 338.9662138627656 52.59963904238312 A 2.5 2.5 0 1 1 338.9662126127657 52.59713904279978" fill-opacity="0.3" stroke-linejoin="bevel" stroke-miterlimit="10"/><path fill="blue" stroke="blue" paint-order="fill stroke markers" d=" M 345.7756879136189 53.050868059744936 A 2.5 2.5 0 1 1 345.775686663619 53.0483680601616" fill-opacity="0.3" stroke-linejoin="bevel" stroke-miterlimit="10"/><path fill="blue" stroke="blue" paint-order="fill stroke markers" d=" M 352.58516196447226 53.478188388419625 A 2.5 2.5 0 1 1 352.58516071447235 53.47568838883629" fill-opacity="0.3" stroke-linejoin="bevel" stroke-miterlimit="10"/><path fill="blue" stroke="blue" paint-order="fill stroke markers" d=" M 359.39463601532566 52.987123049000814 A 2.5 2.5 0 1 1 359.39463476532575 52.98462304941748" fill-opacity="0.3" stroke-linejoin="bevel" stroke-miterlimit="10"/><path fill="blue" stroke="blue" paint-order="fill stroke markers" d=" M 366.204110066179 53.254180471627045 A 2.5 2.5 0 1 1 366.2041088161791 53.25168047204371" fill-opacity="0.3" stroke-linejoin="bevel" stroke-miterlimit="10"/><path fill="blue" stroke="blue" paint-order="fill stroke markers" d=" M 373.01358411703234 54.182543553547525 A 2.5 2.5 0 1 1 373.0135828670324 54.18004355396419" fill-opacity="0.3" stroke-linejoin="bevel" stroke-miterlimit="10"/><path fill="blue" stroke="blue" paint-order="fill stroke markers" d=" M 379.82305816788573 53.98235169932563 A 2.5 2.5 0 1 1 379.8230569178858 53.9798516997423" fill-opacity="0.3" stroke-linejoin="bevel" stroke-miterlimit="10"/><path fill="blue" stroke="blue" paint-order="fill stroke markers" d=" M 386.6325322187391 53.970005557837744 A 2.5 2.5 0 1 1 386.63253096873916 53.96750555825441" fill-opacity="0.3" stroke-linejoin="bevel" stroke-miterlimit="10"/><path fill="blue" stroke="blue" paint-order="fill stroke markers" d=" M 393.44200626959247 54.25844533005342 A 2.5 2.5 0 1 1 393.44200501959256 54.255945330470084" fill-opacity="0.3" stroke-linejoin="bevel" stroke-miterlimit="10"/><path fill="blue" stroke="blue" paint-order="fill stroke markers" d=" M 400.2514803204458 53.17365631053764 A 2.5 2.5 0 1 1 400.2514790704459 53.1711563109543" fill-opacity="0.3" stroke-linejoin="bevel" stroke-miterlimit="10"/><path fill="blue" stroke="blue" paint-order="fill stroke markers" d=" M 407.0609543712992 53.11415514195696 A 2.5 2.5 0 1 1 407.0609531212993 53.11165514237362" fill-opacity="0.3" stroke-linejoin="bevel" stroke-miterlimit="10"/><path fill="blue" stroke="blue" paint-order="fill stroke markers" d=" M 413.87042842215254 53.592368670800354 A 2.5 2.5 0 1 1 413.87042717215263 53.58986867121702" fill-opacity="0.3" stroke-linejoin="bevel" stroke-miterlimit="10"/><path fill="blue" stroke="blue" paint-order="fill stroke markers" d=" M 420.6799024730059 52.92557618661449 A 2.5 2.5 0 1 1 420.67990122300597 52.92307618703116" fill-opacity="0.3" stroke-linejoin="bevel" stroke-miterlimit="10"/><path fill="blue" stroke="blue" paint-order="fill stroke markers" d=" M 427.4893765238593 53.13067975382873 A 2.5 2.5 0 1 1 427.48937527385937 53.128179754245394" fill-opacity="0.3" stroke-linejoin="bevel" stroke-miterlimit="10"/><path fill="blue" stroke="blue" paint-order="fill stroke markers" d=" M 434.2988505747126 52.55351748549889 A 2.5 2.5 0 1 1 434.2988493247127 52.55101748591555" fill-opacity="0.3" stroke-linejoin="bevel" stroke-miterlimit="10"/><path fill="blue" stroke="blue" paint-order="fill stroke markers" d=" M 441.10832462556596 52.63903928523947 A 2.5 2.5 0 1 1 441.10832337556604 52.636539285656134" fill-opacity="0.3" stroke-linejoin="bevel" stroke-miterlimit="10"/><path fill="blue" stroke="blue" paint-order="fill stroke markers" d=" M 447.91779867641935 52.59719136312641 A 2.5 2.5 0 1 1 447.91779742641944 52.59469136354308" fill-opacity="0.3" stroke-linejoin="bevel" stroke-miterlimit="10"/><path fill="blue" stroke="blue" paint-order="fill stroke markers" d=" M 454.7272727272727 52.83629424637739 A 2.5 2.5 0 1 1 454.7272714772728 52.83379424679406" fill-opacity="0.3" stroke-linejoin="bevel" stroke-miterlimit="10"/></g></g></g><g clip-path="url(#ZhAxRrXsEXqQ)"><g><g><path fill="none" stroke="red" paint-order="fill stroke markers" d=" M 79 52.70463084778265 L 470 52.70463084778265" stroke-linejoin="bevel" stroke-miterlimit="10" stroke-width="3"/></g></g></g><g><g fill="#444444"><path fill="" stroke="none" d=""/><g transform="translate(274.5,5)"><path fill="none" stroke="none"/><text fill="" stroke="none" font-family="helvetica" font-size="12pt" font-style="normal" font-weight="bold" text-decoration="normal" x="0" y="0" text-anchor="middle" dominant-baseline="text-before-edge">Error-weighted residuals for model fit (SASDEE2)</text></g></g></g><g/><g><g fill="#444444"><path fill="none" stroke="black" paint-order="fill stroke markers" d=" M 79 439 L 470 439" stroke-linejoin="bevel" stroke-miterlimit="10"/><path fill="none" stroke="black" paint-order="fill stroke markers" d=" M 91 445 L 91 437" stroke-linejoin="bevel" stroke-miterlimit="10"/><path fill="none" stroke="black" paint-order="fill stroke markers" d=" M 159 445 L 159 437" stroke-linejoin="bevel" stroke-miterlimit="10"/><path fill="none" stroke="black" paint-order="fill stroke markers" d=" M 228 445 L 228 437" stroke-linejoin="bevel" stroke-miterlimit="10"/><path fill="none" stroke="black" paint-order="fill stroke markers" d=" M 296 445 L 296 437" stroke-linejoin="bevel" stroke-miterlimit="10"/><path fill="none" stroke="black" paint-order="fill stroke markers" d=" M 364 445 L 364 437" stroke-linejoin="bevel" stroke-miterlimit="10"/><path fill="none" stroke="black" paint-order="fill stroke markers" d=" M 432 445 L 432 437" stroke-linejoin="bevel" stroke-miterlimit="10"/><path fill="none" stroke="black" paint-order="fill stroke markers" d=" M 91 443 L 91 439" stroke-linejoin="bevel" stroke-miterlimit="10"/><path fill="none" stroke="black" paint-order="fill stroke markers" d=" M 105 443 L 105 439" stroke-linejoin="bevel" stroke-miterlimit="10"/><path fill="none" stroke="black" paint-order="fill stroke markers" d=" M 119 443 L 119 439" stroke-linejoin="bevel" stroke-miterlimit="10"/><path fill="none" stroke="black" paint-order="fill stroke markers" d=" M 132 443 L 132 439" stroke-linejoin="bevel" stroke-miterlimit="10"/><path fill="none" stroke="black" paint-order="fill stroke markers" d=" M 146 443 L 146 439" stroke-linejoin="bevel" stroke-miterlimit="10"/><path fill="none" stroke="black" paint-order="fill stroke markers" d=" M 159 443 L 159 439" stroke-linejoin="bevel" stroke-miterlimit="10"/><path fill="none" stroke="black" paint-order="fill stroke markers" d=" M 173 443 L 173 439" stroke-linejoin="bevel" stroke-miterlimit="10"/><path fill="none" stroke="black" paint-order="fill stroke markers" d=" M 187 443 L 187 439" stroke-linejoin="bevel" stroke-miterlimit="10"/><path fill="none" stroke="black" paint-order="fill stroke markers" d=" M 200 443 L 200 439" stroke-linejoin="bevel" stroke-miterlimit="10"/><path fill="none" stroke="black" paint-order="fill stroke markers" d=" M 214 443 L 214 439" stroke-linejoin="bevel" stroke-miterlimit="10"/><path fill="none" stroke="black" paint-order="fill stroke markers" d=" M 228 443 L 228 439" stroke-linejoin="bevel" stroke-miterlimit="10"/><path fill="none" stroke="black" paint-order="fill stroke markers" d=" M 241 443 L 241 439" stroke-linejoin="bevel" stroke-miterlimit="10"/><path fill="none" stroke="black" paint-order="fill stroke markers" d=" M 255 443 L 255 439" stroke-linejoin="bevel" stroke-miterlimit="10"/><path fill="none" stroke="black" paint-order="fill stroke markers" d=" M 268 443 L 268 439" stroke-linejoin="bevel" stroke-miterlimit="10"/><path fill="none" stroke="black" paint-order="fill stroke markers" d=" M 282 443 L 282 439" stroke-linejoin="bevel" stroke-miterlimit="10"/><path fill="none" stroke="black" paint-order="fill stroke markers" d=" M 296 443 L 296 439" stroke-linejoin="bevel" stroke-miterlimit="10"/><path fill="none" stroke="black" paint-order="fill stroke markers" d=" M 309 443 L 309 439" stroke-linejoin="bevel" stroke-miterlimit="10"/><path fill="none" stroke="black" paint-order="fill stroke markers" d=" M 323 443 L 323 439" stroke-linejoin="bevel" stroke-miterlimit="10"/><path fill="none" stroke="black" paint-order="fill stroke markers" d=" M 336 443 L 336 439" stroke-linejoin="bevel" stroke-miterlimit="10"/><path fill="none" stroke="black" paint-order="fill stroke markers" d=" M 350 443 L 350 439" stroke-linejoin="bevel" stroke-miterlimit="10"/><path fill="none" stroke="black" paint-order="fill stroke markers" d=" M 364 443 L 364 439" stroke-linejoin="bevel" stroke-miterlimit="10"/><path fill="none" stroke="black" paint-order="fill stroke markers" d=" M 377 443 L 377 439" stroke-linejoin="bevel" stroke-miterlimit="10"/><path fill="none" stroke="black" paint-order="fill stroke markers" d=" M 391 443 L 391 439" stroke-linejoin="bevel" stroke-miterlimit="10"/><path fill="none" stroke="black" paint-order="fill stroke markers" d=" M 405 443 L 405 439" stroke-linejoin="bevel" stroke-miterlimit="10"/><path fill="none" stroke="black" paint-order="fill stroke markers" d=" M 418 443 L 418 439" stroke-linejoin="bevel" stroke-miterlimit="10"/><path fill="none" stroke="black" paint-order="fill stroke markers" d=" M 432 443 L 432 439" stroke-linejoin="bevel" stroke-miterlimit="10"/><path fill="none" stroke="black" paint-order="fill stroke markers" d=" M 445 443 L 445 439" stroke-linejoin="bevel" stroke-miterlimit="10"/><path fill="" stroke="black" paint-order="fill stroke markers" d=" M 459 443 L 459 439" stroke-linejoin="bevel" stroke-miterlimit="10"/><g transform="translate(91,450) rotate(0,0,0)"><text fill="" stroke="none" font-family="helvetica" font-size="14pt" font-style="normal" font-weight="normal" text-decoration="normal" x="0" y="0" text-anchor="middle" dominant-baseline="hanging">0</text><g transform="rotate(0,0,0) translate(-91,-450) translate(159,450) rotate(0,0,0)"><text fill="" stroke="none" font-family="helvetica" font-size="14pt" font-style="normal" font-weight="normal" text-decoration="normal" x="0" y="0" text-anchor="middle" dominant-baseline="hanging">0.05</text><g transform="rotate(0,0,0) translate(-159,-450) translate(228,450) rotate(0,0,0)"><text fill="" stroke="none" font-family="helvetica" font-size="14pt" font-style="normal" font-weight="normal" text-decoration="normal" x="0" y="0" text-anchor="middle" dominant-baseline="hanging">0.1</text><g transform="rotate(0,0,0) translate(-228,-450) translate(296,450) rotate(0,0,0)"><text fill="" stroke="none" font-family="helvetica" font-size="14pt" font-style="normal" font-weight="normal" text-decoration="normal" x="0" y="0" text-anchor="middle" dominant-baseline="hanging">0.15</text><g transform="rotate(0,0,0) translate(-296,-450) translate(364,450) rotate(0,0,0)"><text fill="" stroke="none" font-family="helvetica" font-size="14pt" font-style="normal" font-weight="normal" text-decoration="normal" x="0" y="0" text-anchor="middle" dominant-baseline="hanging">0.2</text><g transform="rotate(0,0,0) translate(-364,-450) translate(432,450) rotate(0,0,0)"><text fill="" stroke="none" font-family="helvetica" font-size="14pt" font-style="normal" font-weight="normal" text-decoration="normal" x="0" y="0" text-anchor="middle" dominant-baseline="hanging">0.25</text><g transform="rotate(0,0,0) translate(-432,-450) translate(275,477) rotate(0,0,0)"><text fill="" stroke="none" font-family="helvetica" font-size="14pt" font-style="italic" font-weight="normal" text-decoration="normal" x="0" y="0" text-anchor="middle" dominant-baseline="hanging">q [Å⁻⁻¹]</text><g transform="rotate(0,0,0) translate(-275,-477)"/></g></g></g></g></g></g></g></g></g><g><g fill="#444444"><path fill="none" stroke="black" paint-order="fill stroke markers" d=" M 79 439 L 79 33" stroke-linejoin="bevel" stroke-miterlimit="10"/><path fill="none" stroke="black" paint-order="fill stroke markers" d=" M 73 388 L 81 388" stroke-linejoin="bevel" stroke-miterlimit="10"/><path fill="none" stroke="black" paint-order="fill stroke markers" d=" M 73 332 L 81 332" stroke-linejoin="bevel" stroke-miterlimit="10"/><path fill="none" stroke="black" paint-order="fill stroke markers" d=" M 73 276 L 81 276" stroke-linejoin="bevel" stroke-miterlimit="10"/><path fill="none" stroke="black" paint-order="fill stroke markers" d=" M 73 220 L 81 220" stroke-linejoin="bevel" stroke-miterlimit="10"/><path fill="none" stroke="black" paint-order="fill stroke markers" d=" M 73 165 L 81 165" stroke-linejoin="bevel" stroke-miterlimit="10"/><path fill="none" stroke="black" paint-order="fill stroke markers" d=" M 73 109 L 81 109" stroke-linejoin="bevel" stroke-miterlimit="10"/><path fill="none" stroke="black" paint-order="fill stroke markers" d=" M 73 53 L 81 53" stroke-linejoin="bevel" stroke-miterlimit="10"/><path fill="none" stroke="black" paint-order="fill stroke markers" d=" M 75 399 L 79 399" stroke-linejoin="bevel" stroke-miterlimit="10"/><path fill="none" stroke="black" paint-order="fill stroke markers" d=" M 75 411 L 79 411" stroke-linejoin="bevel" stroke-miterlimit="10"/><path fill="none" stroke="black" paint-order="fill stroke markers" d=" M 75 422 L 79 422" stroke-linejoin="bevel" stroke-miterlimit="10"/><path fill="none" stroke="black" paint-order="fill stroke markers" d=" M 75 433 L 79 433" stroke-linejoin="bevel" stroke-miterlimit="10"/><path fill="none" stroke="black" paint-order="fill stroke markers" d=" M 75 388 L 79 388" stroke-linejoin="bevel" stroke-miterlimit="10"/><path fill="none" stroke="black" paint-order="fill stroke markers" d=" M 75 377 L 79 377" stroke-linejoin="bevel" stroke-miterlimit="10"/><path fill="none" stroke="black" paint-order="fill stroke markers" d=" M 75 366 L 79 366" stroke-linejoin="bevel" stroke-miterlimit="10"/><path fill="none" stroke="black" paint-order="fill stroke markers" d=" M 75 355 L 79 355" stroke-linejoin="bevel" stroke-miterlimit="10"/><path fill="none" stroke="black" paint-order="fill stroke markers" d=" M 75 344 L 79 344" stroke-linejoin="bevel" stroke-miterlimit="10"/><path fill="none" stroke="black" paint-order="fill stroke markers" d=" M 75 332 L 79 332" stroke-linejoin="bevel" stroke-miterlimit="10"/><path fill="none" stroke="black" paint-order="fill stroke markers" d=" M 75 321 L 79 321" stroke-linejoin="bevel" stroke-miterlimit="10"/><path fill="none" stroke="black" paint-order="fill stroke markers" d=" M 75 310 L 79 310" stroke-linejoin="bevel" stroke-miterlimit="10"/><path fill="none" stroke="black" paint-order="fill stroke markers" d=" M 75 299 L 79 299" stroke-linejoin="bevel" stroke-miterlimit="10"/><path fill="none" stroke="black" paint-order="fill stroke markers" d=" M 75 288 L 79 288" stroke-linejoin="bevel" stroke-miterlimit="10"/><path fill="none" stroke="black" paint-order="fill stroke markers" d=" M 75 276 L 79 276" stroke-linejoin="bevel" stroke-miterlimit="10"/><path fill="none" stroke="black" paint-order="fill stroke markers" d=" M 75 265 L 79 265" stroke-linejoin="bevel" stroke-miterlimit="10"/><path fill="none" stroke="black" paint-order="fill stroke markers" d=" M 75 254 L 79 254" stroke-linejoin="bevel" stroke-miterlimit="10"/><path fill="none" stroke="black" paint-order="fill stroke markers" d=" M 75 243 L 79 243" stroke-linejoin="bevel" stroke-miterlimit="10"/><path fill="none" stroke="black" paint-order="fill stroke markers" d=" M 75 232 L 79 232" stroke-linejoin="bevel" stroke-miterlimit="10"/><path fill="none" stroke="black" paint-order="fill stroke markers" d=" M 75 220 L 79 220" stroke-linejoin="bevel" stroke-miterlimit="10"/><path fill="none" stroke="black" paint-order="fill stroke markers" d=" M 75 209 L 79 209" stroke-linejoin="bevel" stroke-miterlimit="10"/><path fill="none" stroke="black" paint-order="fill stroke markers" d=" M 75 198 L 79 198" stroke-linejoin="bevel" stroke-miterlimit="10"/><path fill="none" stroke="black" paint-order="fill stroke markers" d=" M 75 187 L 79 187" stroke-linejoin="bevel" stroke-miterlimit="10"/><path fill="none" stroke="black" paint-order="fill stroke markers" d=" M 75 176 L 79 176" stroke-linejoin="bevel" stroke-miterlimit="10"/><path fill="none" stroke="black" paint-order="fill stroke markers" d=" M 75 165 L 79 165" stroke-linejoin="bevel" stroke-miterlimit="10"/><path fill="none" stroke="black" paint-order="fill stroke markers" d=" M 75 153 L 79 153" stroke-linejoin="bevel" stroke-miterlimit="10"/><path fill="none" stroke="black" paint-order="fill stroke markers" d=" M 75 142 L 79 142" stroke-linejoin="bevel" stroke-miterlimit="10"/><path fill="none" stroke="black" paint-order="fill stroke markers" d=" M 75 131 L 79 131" stroke-linejoin="bevel" stroke-miterlimit="10"/><path fill="none" stroke="black" paint-order="fill stroke markers" d=" M 75 120 L 79 120" stroke-linejoin="bevel" stroke-miterlimit="10"/><path fill="none" stroke="black" paint-order="fill stroke markers" d=" M 75 109 L 79 109" stroke-linejoin="bevel" stroke-miterlimit="10"/><path fill="none" stroke="black" paint-order="fill stroke markers" d=" M 75 97 L 79 97" stroke-linejoin="bevel" stroke-miterlimit="10"/><path fill="none" stroke="black" paint-order="fill stroke markers" d=" M 75 86 L 79 86" stroke-linejoin="bevel" stroke-miterlimit="10"/><path fill="none" stroke="black" paint-order="fill stroke markers" d=" M 75 75 L 79 75" stroke-linejoin="bevel" stroke-miterlimit="10"/><path fill="none" stroke="black" paint-order="fill stroke markers" d=" M 75 64 L 79 64" stroke-linejoin="bevel" stroke-miterlimit="10"/><path fill="none" stroke="black" paint-order="fill stroke markers" d=" M 75 53 L 79 53" stroke-linejoin="bevel" stroke-miterlimit="10"/><path fill="" stroke="black" paint-order="fill stroke markers" d=" M 75 42 L 79 42" stroke-linejoin="bevel" stroke-miterlimit="10"/><g transform="translate(68,388) rotate(0,0,0)"><text fill="" stroke="none" font-family="helvetica" font-size="14pt" font-style="normal" font-weight="normal" text-decoration="normal" x="0" y="0" text-anchor="end" dominant-baseline="central">-300</text><g transform="rotate(0,0,0) translate(-68,-388) translate(68,332) rotate(0,0,0)"><text fill="" stroke="none" font-family="helvetica" font-size="14pt" font-style="normal" font-weight="normal" text-decoration="normal" x="0" y="0" text-anchor="end" dominant-baseline="central">-250</text><g transform="rotate(0,0,0) translate(-68,-332) translate(68,276) rotate(0,0,0)"><text fill="" stroke="none" font-family="helvetica" font-size="14pt" font-style="normal" font-weight="normal" text-decoration="normal" x="0" y="0" text-anchor="end" dominant-baseline="central">-200</text><g transform="rotate(0,0,0) translate(-68,-276) translate(68,220) rotate(0,0,0)"><text fill="" stroke="none" font-family="helvetica" font-size="14pt" font-style="normal" font-weight="normal" text-decoration="normal" x="0" y="0" text-anchor="end" dominant-baseline="central">-150</text><g transform="rotate(0,0,0) translate(-68,-220) translate(68,165) rotate(0,0,0)"><text fill="" stroke="none" font-family="helvetica" font-size="14pt" font-style="normal" font-weight="normal" text-decoration="normal" x="0" y="0" text-anchor="end" dominant-baseline="central">-100</text><g transform="rotate(0,0,0) translate(-68,-165) translate(68,109) rotate(0,0,0)"><text fill="" stroke="none" font-family="helvetica" font-size="14pt" font-style="normal" font-weight="normal" text-decoration="normal" x="0" y="0" text-anchor="end" dominant-baseline="central">-50</text><g transform="rotate(0,0,0) translate(-68,-109) translate(68,53) rotate(0,0,0)"><text fill="" stroke="none" font-family="helvetica" font-size="14pt" font-style="normal" font-weight="normal" text-decoration="normal" x="0" y="0" text-anchor="end" dominant-baseline="central">0</text><g transform="rotate(0,0,0) translate(-68,-53) translate(22,236) rotate(-90,0,0)"><text fill="" stroke="none" font-family="helvetica" font-size="14pt" font-style="italic" font-weight="normal" text-decoration="normal" x="0" y="0" text-anchor="middle" dominant-baseline="alphabetic">R/σ</text><g transform="rotate(90,0,0) translate(-22,-236)"/></g></g></g></g></g></g></g></g></g></g><g clip-path="url(#kOdqOndcAWPd)"><g/></g></g></svg>