<svg version="1.1" xmlns="http://www.w3.org/2000/svg" xmlns:xlink="http://www.w3.org/1999/xlink" width="700" height="250"><defs><clipPath id="xScbqJBZtwPU"><path fill="none" stroke="none" d="M 54.5 37.5 L 670.5 37.5 L 670.5 198.5 L 54.5 198.5 L 54.5 37.5"/></clipPath><clipPath id="JevJExNOebZz"><path fill="none" stroke="none" d="M 54.5 37.5 L 670.5 37.5 L 670.5 198.5 L 54.5 198.5 L 54.5 37.5"/></clipPath><clipPath id="cNChmPdtlSDm"><path fill="none" stroke="none" d="M 54.5 37.5 L 670.5 37.5 L 670.5 198.5 L 54.5 198.5 L 54.5 37.5"/></clipPath><clipPath id="MvanssXVmTNT"><path fill="none" stroke="none" d="M 54.5 37.5 L 670.5 37.5 L 670.5 198.5 L 54.5 198.5 L 54.5 37.5"/></clipPath><clipPath id="DosmttdkIaWa"><path fill="none" stroke="none" d="M 54.5 37.5 L 670.5 37.5 L 670.5 198.5 L 54.5 198.5 L 54.5 37.5"/></clipPath></defs><path fill="rgb(255,255,255)" stroke="none" paint-order="stroke" d="M 0.5 0.5 L 700.5 0.5 L 700.5 250.5 L 0.5 250.5 L 0.5 0.5" fill-opacity="1"/><rect fill="#FFFFFF" stroke="none" x="54" y="37" width="616" height="161" transform="matrix(1, 0, 0, 1, 0.5, 0.5)"/><path fill="rgb(255,255,255)" stroke="none" paint-order="stroke" d="M 54.5 37.5 L 670.5 37.5 L 670.5 198.5 L 54.5 198.5 L 54.5 37.5" fill-opacity="1"/><path fill="none" stroke="rgb(229,229,229)" paint-order="fill" d="M 54.5 37.5 L 670.5 37.5 L 670.5 198.5 L 54.5 198.5 L 54.5 37.5" stroke-opacity="1" stroke-linejoin="bevel" stroke-miterlimit="10" stroke-dasharray=""/><path fill="none" stroke="rgb(229,229,229)" paint-order="fill" d="M 132.5 198.5 L 132.5 37.5 M 273.5 198.5 L 273.5 37.5 M 415.5 198.5 L 415.5 37.5 M 557.5 198.5 L 557.5 37.5" stroke-opacity="1" stroke-linejoin="bevel" stroke-miterlimit="10" stroke-dasharray="" clip-path="url(#xScbqJBZtwPU)"/><path fill="none" stroke="none"/><path fill="rgb(68,1,84)" stroke="none" paint-order="stroke" d="M 54.5 168.3125 L 358.95977783203125 168.3125 L 358.95977783203125 188.4375 L 54.5 188.4375 L 54.5 168.3125" fill-opacity="0.8" clip-path="url(#cNChmPdtlSDm)"/><path fill="none" stroke="rgb(68,1,84)" paint-order="fill" d="M 54.5 168.3125 L 358.95977783203125 168.3125 L 358.95977783203125 188.4375 L 54.5 188.4375 L 54.5 168.3125" stroke-opacity="0.8" stroke-linejoin="bevel" stroke-miterlimit="10" stroke-dasharray="" clip-path="url(#cNChmPdtlSDm)"/><path fill="rgb(48,103,141)" stroke="none" paint-order="stroke" d="M 54.5 128.0625 L 259.8333435058594 128.0625 L 259.8333435058594 148.1875 L 54.5 148.1875 L 54.5 128.0625" fill-opacity="0.8" clip-path="url(#cNChmPdtlSDm)"/><path fill="none" stroke="rgb(48,103,141)" paint-order="fill" d="M 54.5 128.0625 L 259.8333435058594 128.0625 L 259.8333435058594 148.1875 L 54.5 148.1875 L 54.5 128.0625" stroke-opacity="0.8" stroke-linejoin="bevel" stroke-miterlimit="10" stroke-dasharray="" clip-path="url(#cNChmPdtlSDm)"/><path fill="rgb(53,183,120)" stroke="none" paint-order="stroke" d="M 54.5 87.8125 L 465.1666564941406 87.8125 L 465.1666564941406 107.9375 L 54.5 107.9375 L 54.5 87.8125" fill-opacity="0.8" clip-path="url(#cNChmPdtlSDm)"/><path fill="none" stroke="rgb(53,183,120)" paint-order="fill" d="M 54.5 87.8125 L 465.1666564941406 87.8125 L 465.1666564941406 107.9375 L 54.5 107.9375 L 54.5 87.8125" stroke-opacity="0.8" stroke-linejoin="bevel" stroke-miterlimit="10" stroke-dasharray="" clip-path="url(#cNChmPdtlSDm)"/><path fill="rgb(253,231,36)" stroke="none" paint-order="stroke" d="M 54.5 47.5625 L 394.362060546875 47.5625 L 394.362060546875 67.6875 L 54.5 67.6875 L 54.5 47.5625" fill-opacity="0.8" clip-path="url(#cNChmPdtlSDm)"/><path fill="none" stroke="rgb(253,231,36)" paint-order="fill" d="M 54.5 47.5625 L 394.362060546875 47.5625 L 394.362060546875 67.6875 L 54.5 67.6875 L 54.5 47.5625" stroke-opacity="0.8" stroke-linejoin="bevel" stroke-miterlimit="10" stroke-dasharray="" clip-path="url(#cNChmPdtlSDm)"/><path fill="none" stroke="rgb(0,0,0)" paint-order="fill" d="M 54.5 198.5 L 670.5 198.5" stroke-opacity="1" stroke-linejoin="bevel" stroke-miterlimit="10" stroke-dasharray=""/><path fill="none" stroke="rgb(0,0,0)" paint-order="fill" d="M 132.5 204.5 L 132.5 196.5 M 273.5 204.5 L 273.5 196.5 M 415.5 204.5 L 415.5 196.5 M 557.5 204.5 L 557.5 196.5" stroke-opacity="1" stroke-linejoin="bevel" stroke-miterlimit="10" stroke-dasharray=""/><path fill="none" stroke="rgb(0,0,0)" paint-order="fill" d="M 104.5 202.5 L 104.5 198.5 M 75.5 202.5 L 75.5 198.5 M 132.5 202.5 L 132.5 198.5 M 160.5 202.5 L 160.5 198.5 M 189.5 202.5 L 189.5 198.5 M 217.5 202.5 L 217.5 198.5 M 245.5 202.5 L 245.5 198.5 M 273.5 202.5 L 273.5 198.5 M 302.5 202.5 L 302.5 198.5 M 330.5 202.5 L 330.5 198.5 M 358.5 202.5 L 358.5 198.5 M 387.5 202.5 L 387.5 198.5 M 415.5 202.5 L 415.5 198.5 M 443.5 202.5 L 443.5 198.5 M 472.5 202.5 L 472.5 198.5 M 500.5 202.5 L 500.5 198.5 M 528.5 202.5 L 528.5 198.5 M 557.5 202.5 L 557.5 198.5 M 585.5 202.5 L 585.5 198.5 M 613.5 202.5 L 613.5 198.5 M 642.5 202.5 L 642.5 198.5 M 670.5 202.5 L 670.5 198.5" stroke-opacity="1" stroke-linejoin="bevel" stroke-miterlimit="10" stroke-dasharray=""/><text fill="rgb(68,68,68)" stroke="none" font-family="helvetica" font-size="11px" font-style="normal" font-weight="normal" text-decoration="normal" x="0" y="0" text-anchor="middle" dominant-baseline="hanging" transform="matrix(1, 0, 0, 1, 132.5, 209.5)" fill-opacity="1">6300</text><text fill="rgb(68,68,68)" stroke="none" font-family="helvetica" font-size="11px" font-style="normal" font-weight="normal" text-decoration="normal" x="0" y="0" text-anchor="middle" dominant-baseline="hanging" transform="matrix(1, 0, 0, 1, 273.5, 209.5)" fill-opacity="1">6320</text><text fill="rgb(68,68,68)" stroke="none" font-family="helvetica" font-size="11px" font-style="normal" font-weight="normal" text-decoration="normal" x="0" y="0" text-anchor="middle" dominant-baseline="hanging" transform="matrix(1, 0, 0, 1, 415.5, 209.5)" fill-opacity="1">6340</text><text fill="rgb(68,68,68)" stroke="none" font-family="helvetica" font-size="11px" font-style="normal" font-weight="normal" text-decoration="normal" x="0" y="0" text-anchor="middle" dominant-baseline="hanging" transform="matrix(1, 0, 0, 1, 557.5, 209.5)" fill-opacity="1">6360</text><text fill="rgb(68,68,68)" stroke="none" font-family="helvetica" font-size="14pt" font-style="italic" font-weight="normal" text-decoration="normal" x="0" y="0" text-anchor="middle" dominant-baseline="hanging" transform="matrix(1, 0, 0, 1, 362.5, 227.5)" fill-opacity="1">Number of violations</text><path fill="none" stroke="rgb(0,0,0)" paint-order="fill" d="M 54.5 198.5 L 54.5 37.5" stroke-opacity="1" stroke-linejoin="bevel" stroke-miterlimit="10" stroke-dasharray=""/><path fill="none" stroke="rgb(0,0,0)" paint-order="fill" d="M 48.5 178.5 L 56.5 178.5 M 48.5 138.5 L 56.5 138.5 M 48.5 97.5 L 56.5 97.5 M 48.5 57.5 L 56.5 57.5" stroke-opacity="1" stroke-linejoin="bevel" stroke-miterlimit="10" stroke-dasharray=""/><path fill="none" stroke="rgb(0,0,0)" paint-order="fill" d="" stroke-opacity="1" stroke-linejoin="bevel" stroke-miterlimit="10" stroke-dasharray=""/><text fill="rgb(68,68,68)" stroke="none" font-family="helvetica" font-size="11px" font-style="normal" font-weight="normal" text-decoration="normal" x="0" y="0" text-anchor="end" dominant-baseline="central" transform="matrix(1, 0, 0, 1, 43.5, 178.5)" fill-opacity="1">Model 1</text><text fill="rgb(68,68,68)" stroke="none" font-family="helvetica" font-size="11px" font-style="normal" font-weight="normal" text-decoration="normal" x="0" y="0" text-anchor="end" dominant-baseline="central" transform="matrix(1, 0, 0, 1, 43.5, 138.5)" fill-opacity="1">Model 2</text><text fill="rgb(68,68,68)" stroke="none" font-family="helvetica" font-size="11px" font-style="normal" font-weight="normal" text-decoration="normal" x="0" y="0" text-anchor="end" dominant-baseline="central" transform="matrix(1, 0, 0, 1, 43.5, 97.5)" fill-opacity="1">Model 3</text><text fill="rgb(68,68,68)" stroke="none" font-family="helvetica" font-size="11px" font-style="normal" font-weight="normal" text-decoration="normal" x="0" y="0" text-anchor="end" dominant-baseline="central" transform="matrix(1, 0, 0, 1, 43.5, 57.5)" fill-opacity="1">Model 4</text><path fill="rgb(255,255,255)" stroke="rgb(229,229,229)" paint-order="fill" d="M 533.0666656494141 47.5 L 660.5 47.5 L 660.5 156.5 L 533.0666656494141 156.5 L 533.0666656494141 47.5" fill-opacity="0.95" clip-path="url(#MvanssXVmTNT)" stroke-opacity="0.5" stroke-linejoin="bevel" stroke-miterlimit="10" stroke-dasharray=""/><text fill="rgb(68,68,68)" stroke="none" font-family="helvetica" font-size="13px" font-style="normal" font-weight="normal" text-decoration="normal" x="567.5666656494141" y="67" text-anchor="start" dominant-baseline="central" transform="matrix(1, 0, 0, 1, 0.5, 0.5)" fill-opacity="1">Model 1: 6332</text><path fill="rgb(68,1,84)" stroke="none" paint-order="stroke" d="M 545.0666656494141 59.5 L 561.0666656494141 59.5 L 561.0666656494141 75.5 L 545.0666656494141 75.5 L 545.0666656494141 59.5" fill-opacity="0.8" clip-path="url(#MvanssXVmTNT)"/><path fill="none" stroke="rgb(68,1,84)" paint-order="fill" d="M 545.0666656494141 59.5 L 561.0666656494141 59.5 L 561.0666656494141 75.5 L 545.0666656494141 75.5 L 545.0666656494141 59.5" stroke-opacity="0.8" stroke-linejoin="bevel" stroke-miterlimit="10" stroke-dasharray="" clip-path="url(#MvanssXVmTNT)"/><text fill="rgb(68,68,68)" stroke="none" font-family="helvetica" font-size="13px" font-style="normal" font-weight="normal" text-decoration="normal" x="567.5666656494141" y="90" text-anchor="start" dominant-baseline="central" transform="matrix(1, 0, 0, 1, 0.5, 0.5)" fill-opacity="1">Model 2: 6318</text><path fill="rgb(48,103,141)" stroke="none" paint-order="stroke" d="M 545.0666656494141 82.5 L 561.0666656494141 82.5 L 561.0666656494141 98.5 L 545.0666656494141 98.5 L 545.0666656494141 82.5" fill-opacity="0.8" clip-path="url(#MvanssXVmTNT)"/><path fill="none" stroke="rgb(48,103,141)" paint-order="fill" d="M 545.0666656494141 82.5 L 561.0666656494141 82.5 L 561.0666656494141 98.5 L 545.0666656494141 98.5 L 545.0666656494141 82.5" stroke-opacity="0.8" stroke-linejoin="bevel" stroke-miterlimit="10" stroke-dasharray="" clip-path="url(#MvanssXVmTNT)"/><text fill="rgb(68,68,68)" stroke="none" font-family="helvetica" font-size="13px" font-style="normal" font-weight="normal" text-decoration="normal" x="567.5666656494141" y="113" text-anchor="start" dominant-baseline="central" transform="matrix(1, 0, 0, 1, 0.5, 0.5)" fill-opacity="1">Model 3: 6347</text><path fill="rgb(53,183,120)" stroke="none" paint-order="stroke" d="M 545.0666656494141 105.5 L 561.0666656494141 105.5 L 561.0666656494141 121.5 L 545.0666656494141 121.5 L 545.0666656494141 105.5" fill-opacity="0.8" clip-path="url(#MvanssXVmTNT)"/><path fill="none" stroke="rgb(53,183,120)" paint-order="fill" d="M 545.0666656494141 105.5 L 561.0666656494141 105.5 L 561.0666656494141 121.5 L 545.0666656494141 121.5 L 545.0666656494141 105.5" stroke-opacity="0.8" stroke-linejoin="bevel" stroke-miterlimit="10" stroke-dasharray="" clip-path="url(#MvanssXVmTNT)"/><text fill="rgb(68,68,68)" stroke="none" font-family="helvetica" font-size="13px" font-style="normal" font-weight="normal" text-decoration="normal" x="567.5666656494141" y="136" text-anchor="start" dominant-baseline="central" transform="matrix(1, 0, 0, 1, 0.5, 0.5)" fill-opacity="1">Model 4: 6337</text><path fill="rgb(253,231,36)" stroke="none" paint-order="stroke" d="M 545.0666656494141 128.5 L 561.0666656494141 128.5 L 561.0666656494141 144.5 L 545.0666656494141 144.5 L 545.0666656494141 128.5" fill-opacity="0.8" clip-path="url(#MvanssXVmTNT)"/><path fill="none" stroke="rgb(253,231,36)" paint-order="fill" d="M 545.0666656494141 128.5 L 561.0666656494141 128.5 L 561.0666656494141 144.5 L 545.0666656494141 144.5 L 545.0666656494141 128.5" stroke-opacity="0.8" stroke-linejoin="bevel" stroke-miterlimit="10" stroke-dasharray="" clip-path="url(#MvanssXVmTNT)"/><path fill="none" stroke="none"/><text fill="rgb(68,68,68)" stroke="none" font-family="helvetica" font-size="14pt" font-style="normal" font-weight="bold" text-decoration="normal" x="0" y="0" text-anchor="middle" dominant-baseline="text-before-edge" transform="matrix(1, 0, 0, 1, 362.5, 5.5)" fill-opacity="1">Model quality: Excluded Volume Analysis</text></svg>