<svg version="1.1" xmlns="http://www.w3.org/2000/svg" xmlns:xlink="http://www.w3.org/1999/xlink" width="500" height="500"><defs><clipPath id="CoCKmUVyVRmx"><path fill="none" stroke="none" d="M 97.5 33.5 L 470.5 33.5 L 470.5 439.5 L 97.5 439.5 L 97.5 33.5"/></clipPath><clipPath id="FFVztHWKAnba"><path fill="none" stroke="none" d="M 97.5 33.5 L 470.5 33.5 L 470.5 439.5 L 97.5 439.5 L 97.5 33.5"/></clipPath><clipPath id="QZeAmFJGhIAL"><path fill="none" stroke="none" d="M 97.5 33.5 L 470.5 33.5 L 470.5 439.5 L 97.5 439.5 L 97.5 33.5"/></clipPath><clipPath id="XOsTmnJQPpRT"><path fill="none" stroke="none" d="M 97.5 33.5 L 470.5 33.5 L 470.5 439.5 L 97.5 439.5 L 97.5 33.5"/></clipPath><clipPath id="RwEMyErOOwJI"><path fill="none" stroke="none" d="M 97.5 33.5 L 470.5 33.5 L 470.5 439.5 L 97.5 439.5 L 97.5 33.5"/></clipPath></defs><path fill="rgb(255,255,255)" stroke="none" paint-order="stroke" d="M 0.5 0.5 L 500.5 0.5 L 500.5 500.5 L 0.5 500.5 L 0.5 0.5" fill-opacity="1"/><rect fill="#FFFFFF" stroke="none" x="97" y="33" width="373" height="406" transform="matrix(1, 0, 0, 1, 0.5, 0.5)"/><path fill="rgb(255,255,255)" stroke="none" paint-order="stroke" d="M 97.5 33.5 L 470.5 33.5 L 470.5 439.5 L 97.5 439.5 L 97.5 33.5" fill-opacity="1"/><path fill="none" stroke="rgb(229,229,229)" paint-order="fill" d="M 97.5 33.5 L 470.5 33.5 L 470.5 439.5 L 97.5 439.5 L 97.5 33.5" stroke-opacity="1" stroke-linejoin="bevel" stroke-miterlimit="10" stroke-dasharray=""/><path fill="none" stroke="rgb(229,229,229)" paint-order="fill" d="M 191.5 439.5 L 191.5 33.5 M 285.5 439.5 L 285.5 33.5 M 380.5 439.5 L 380.5 33.5" stroke-opacity="1" stroke-linejoin="bevel" stroke-miterlimit="10" stroke-dasharray="" clip-path="url(#CoCKmUVyVRmx)"/><path fill="none" stroke="rgb(229,229,229)" paint-order="fill" d="M 97.5 344.5 L 470.5 344.5 M 97.5 239.5 L 470.5 239.5 M 97.5 135.5 L 470.5 135.5" stroke-opacity="1" stroke-linejoin="bevel" stroke-miterlimit="10" stroke-dasharray="" clip-path="url(#FFVztHWKAnba)"/><path fill="none" stroke="none"/><path fill="rgb(0,0,255)" stroke="rgb(0,0,255)" paint-order="fill" d="M 116.95454406738281 127.3224105834961 A 2.5 2.5 0 1 1 116.95454281738292 127.31991058391276" fill-opacity="0.3" clip-path="url(#QZeAmFJGhIAL)" stroke-opacity="1" stroke-linejoin="bevel" stroke-miterlimit="10" stroke-dasharray=""/><path fill="rgb(0,0,255)" stroke="rgb(0,0,255)" paint-order="fill" d="M 120.43468475341797 198.10769653320312 A 2.5 2.5 0 1 1 120.43468350341807 198.1051965336198" fill-opacity="0.3" clip-path="url(#QZeAmFJGhIAL)" stroke-opacity="1" stroke-linejoin="bevel" stroke-miterlimit="10" stroke-dasharray=""/><path fill="rgb(0,0,255)" stroke="rgb(0,0,255)" paint-order="fill" d="M 124.23043823242188 175.24530029296875 A 2.5 2.5 0 1 1 124.23043698242198 175.24280029338541" fill-opacity="0.3" clip-path="url(#QZeAmFJGhIAL)" stroke-opacity="1" stroke-linejoin="bevel" stroke-miterlimit="10" stroke-dasharray=""/><path fill="rgb(0,0,255)" stroke="rgb(0,0,255)" paint-order="fill" d="M 128.34198760986328 84.75640106201172 A 2.5 2.5 0 1 1 128.34198635986337 84.75390106242838" fill-opacity="0.3" clip-path="url(#QZeAmFJGhIAL)" stroke-opacity="1" stroke-linejoin="bevel" stroke-miterlimit="10" stroke-dasharray=""/><path fill="rgb(0,0,255)" stroke="rgb(0,0,255)" paint-order="fill" d="M 132.76931762695312 93.93006134033203 A 2.5 2.5 0 1 1 132.76931637695324 93.9275613407487" fill-opacity="0.3" clip-path="url(#QZeAmFJGhIAL)" stroke-opacity="1" stroke-linejoin="bevel" stroke-miterlimit="10" stroke-dasharray=""/><path fill="rgb(0,0,255)" stroke="rgb(0,0,255)" paint-order="fill" d="M 137.51300048828125 123.00711059570312 A 2.5 2.5 0 1 1 137.51299923828137 123.00461059611979" fill-opacity="0.3" clip-path="url(#QZeAmFJGhIAL)" stroke-opacity="1" stroke-linejoin="bevel" stroke-miterlimit="10" stroke-dasharray=""/><path fill="rgb(0,0,255)" stroke="rgb(0,0,255)" paint-order="fill" d="M 142.57196044921875 152.95370483398438 A 2.5 2.5 0 1 1 142.57195919921887 152.95120483440104" fill-opacity="0.3" clip-path="url(#QZeAmFJGhIAL)" stroke-opacity="1" stroke-linejoin="bevel" stroke-miterlimit="10" stroke-dasharray=""/><path fill="rgb(0,0,255)" stroke="rgb(0,0,255)" paint-order="fill" d="M 147.94671630859375 212.3797149658203 A 2.5 2.5 0 1 1 147.94671505859387 212.37721496623698" fill-opacity="0.3" clip-path="url(#QZeAmFJGhIAL)" stroke-opacity="1" stroke-linejoin="bevel" stroke-miterlimit="10" stroke-dasharray=""/><path fill="rgb(0,0,255)" stroke="rgb(0,0,255)" paint-order="fill" d="M 153.63726806640625 182.75640869140625 A 2.5 2.5 0 1 1 153.63726681640637 182.75390869182291" fill-opacity="0.3" clip-path="url(#QZeAmFJGhIAL)" stroke-opacity="1" stroke-linejoin="bevel" stroke-miterlimit="10" stroke-dasharray=""/><path fill="rgb(0,0,255)" stroke="rgb(0,0,255)" paint-order="fill" d="M 159.64430236816406 166.06887817382812 A 2.5 2.5 0 1 1 159.64430111816418 166.0663781742448" fill-opacity="0.3" clip-path="url(#QZeAmFJGhIAL)" stroke-opacity="1" stroke-linejoin="bevel" stroke-miterlimit="10" stroke-dasharray=""/><path fill="rgb(0,0,255)" stroke="rgb(0,0,255)" paint-order="fill" d="M 165.9664764404297 201.61184692382812 A 2.5 2.5 0 1 1 165.9664751904298 201.6093469242448" fill-opacity="0.3" clip-path="url(#QZeAmFJGhIAL)" stroke-opacity="1" stroke-linejoin="bevel" stroke-miterlimit="10" stroke-dasharray=""/><path fill="rgb(0,0,255)" stroke="rgb(0,0,255)" paint-order="fill" d="M 172.6044464111328 185.9066925048828 A 2.5 2.5 0 1 1 172.60444516113293 185.90419250529948" fill-opacity="0.3" clip-path="url(#QZeAmFJGhIAL)" stroke-opacity="1" stroke-linejoin="bevel" stroke-miterlimit="10" stroke-dasharray=""/><path fill="rgb(0,0,255)" stroke="rgb(0,0,255)" paint-order="fill" d="M 179.55821228027344 265.4363708496094 A 2.5 2.5 0 1 1 179.55821103027355 265.43387085002604" fill-opacity="0.3" clip-path="url(#QZeAmFJGhIAL)" stroke-opacity="1" stroke-linejoin="bevel" stroke-miterlimit="10" stroke-dasharray=""/><path fill="rgb(0,0,255)" stroke="rgb(0,0,255)" paint-order="fill" d="M 186.82777404785156 251.9078369140625 A 2.5 2.5 0 1 1 186.82777279785168 251.90533691447916" fill-opacity="0.3" clip-path="url(#QZeAmFJGhIAL)" stroke-opacity="1" stroke-linejoin="bevel" stroke-miterlimit="10" stroke-dasharray=""/><path fill="rgb(0,0,255)" stroke="rgb(0,0,255)" paint-order="fill" d="M 194.41397094726562 369.2900085449219 A 2.5 2.5 0 1 1 194.41396969726574 369.28750854533854" fill-opacity="0.3" clip-path="url(#QZeAmFJGhIAL)" stroke-opacity="1" stroke-linejoin="bevel" stroke-miterlimit="10" stroke-dasharray=""/><path fill="rgb(0,0,255)" stroke="rgb(0,0,255)" paint-order="fill" d="M 202.31517028808594 359.2019348144531 A 2.5 2.5 0 1 1 202.31516903808605 359.1994348148698" fill-opacity="0.3" clip-path="url(#QZeAmFJGhIAL)" stroke-opacity="1" stroke-linejoin="bevel" stroke-miterlimit="10" stroke-dasharray=""/><path fill="rgb(0,0,255)" stroke="rgb(0,0,255)" paint-order="fill" d="M 210.5321502685547 330.3595275878906 A 2.5 2.5 0 1 1 210.5321490185548 330.3570275883073" fill-opacity="0.3" clip-path="url(#QZeAmFJGhIAL)" stroke-opacity="1" stroke-linejoin="bevel" stroke-miterlimit="10" stroke-dasharray=""/><path fill="rgb(0,0,255)" stroke="rgb(0,0,255)" paint-order="fill" d="M 219.06491088867188 318.2002258300781 A 2.5 2.5 0 1 1 219.064909638672 318.1977258304948" fill-opacity="0.3" clip-path="url(#QZeAmFJGhIAL)" stroke-opacity="1" stroke-linejoin="bevel" stroke-miterlimit="10" stroke-dasharray=""/><path fill="rgb(0,0,255)" stroke="rgb(0,0,255)" paint-order="fill" d="M 227.9144744873047 352.1899108886719 A 2.5 2.5 0 1 1 227.9144732373048 352.18741088908854" fill-opacity="0.3" clip-path="url(#QZeAmFJGhIAL)" stroke-opacity="1" stroke-linejoin="bevel" stroke-miterlimit="10" stroke-dasharray=""/><path fill="rgb(0,0,255)" stroke="rgb(0,0,255)" paint-order="fill" d="M 237.07887268066406 327.58221435546875 A 2.5 2.5 0 1 1 237.07887143066418 327.5797143558854" fill-opacity="0.3" clip-path="url(#QZeAmFJGhIAL)" stroke-opacity="1" stroke-linejoin="bevel" stroke-miterlimit="10" stroke-dasharray=""/><path fill="rgb(0,0,255)" stroke="rgb(0,0,255)" paint-order="fill" d="M 246.55906677246094 351.572509765625 A 2.5 2.5 0 1 1 246.55906552246105 351.57000976604166" fill-opacity="0.3" clip-path="url(#QZeAmFJGhIAL)" stroke-opacity="1" stroke-linejoin="bevel" stroke-miterlimit="10" stroke-dasharray=""/><path fill="rgb(0,0,255)" stroke="rgb(0,0,255)" paint-order="fill" d="M 256.35504150390625 353.0016174316406 A 2.5 2.5 0 1 1 256.3550402539064 352.9991174320573" fill-opacity="0.3" clip-path="url(#QZeAmFJGhIAL)" stroke-opacity="1" stroke-linejoin="bevel" stroke-miterlimit="10" stroke-dasharray=""/><path fill="rgb(0,0,255)" stroke="rgb(0,0,255)" paint-order="fill" d="M 266.4668273925781 421.0454406738281 A 2.5 2.5 0 1 1 266.4668261425782 421.0429406742448" fill-opacity="0.3" clip-path="url(#QZeAmFJGhIAL)" stroke-opacity="1" stroke-linejoin="bevel" stroke-miterlimit="10" stroke-dasharray=""/><path fill="rgb(0,0,255)" stroke="rgb(0,0,255)" paint-order="fill" d="M 276.89556884765625 373.26409912109375 A 2.5 2.5 0 1 1 276.89556759765634 373.2615991215104" fill-opacity="0.3" clip-path="url(#QZeAmFJGhIAL)" stroke-opacity="1" stroke-linejoin="bevel" stroke-miterlimit="10" stroke-dasharray=""/><path fill="rgb(0,0,255)" stroke="rgb(0,0,255)" paint-order="fill" d="M 287.63897705078125 348.656982421875 A 2.5 2.5 0 1 1 287.63897580078134 348.65448242229166" fill-opacity="0.3" clip-path="url(#QZeAmFJGhIAL)" stroke-opacity="1" stroke-linejoin="bevel" stroke-miterlimit="10" stroke-dasharray=""/><path fill="rgb(0,0,255)" stroke="rgb(0,0,255)" paint-order="fill" d="M 298.6981506347656 376.62335205078125 A 2.5 2.5 0 1 1 298.6981493847657 376.6208520511979" fill-opacity="0.3" clip-path="url(#QZeAmFJGhIAL)" stroke-opacity="1" stroke-linejoin="bevel" stroke-miterlimit="10" stroke-dasharray=""/><path fill="rgb(0,0,255)" stroke="rgb(0,0,255)" paint-order="fill" d="M 310.0731506347656 304.2770080566406 A 2.5 2.5 0 1 1 310.0731493847657 304.2745080570573" fill-opacity="0.3" clip-path="url(#QZeAmFJGhIAL)" stroke-opacity="1" stroke-linejoin="bevel" stroke-miterlimit="10" stroke-dasharray=""/><path fill="rgb(0,0,255)" stroke="rgb(0,0,255)" paint-order="fill" d="M 321.7652282714844 284.6012878417969 A 2.5 2.5 0 1 1 321.76522702148446 284.59878784221354" fill-opacity="0.3" clip-path="url(#QZeAmFJGhIAL)" stroke-opacity="1" stroke-linejoin="bevel" stroke-miterlimit="10" stroke-dasharray=""/><path fill="rgb(0,0,255)" stroke="rgb(0,0,255)" paint-order="fill" d="M 333.7718505859375 282.257080078125 A 2.5 2.5 0 1 1 333.7718493359376 282.25458007854166" fill-opacity="0.3" clip-path="url(#QZeAmFJGhIAL)" stroke-opacity="1" stroke-linejoin="bevel" stroke-miterlimit="10" stroke-dasharray=""/><path fill="rgb(0,0,255)" stroke="rgb(0,0,255)" paint-order="fill" d="M 346.0942687988281 273.97979736328125 A 2.5 2.5 0 1 1 346.0942675488282 273.9772973636979" fill-opacity="0.3" clip-path="url(#QZeAmFJGhIAL)" stroke-opacity="1" stroke-linejoin="bevel" stroke-miterlimit="10" stroke-dasharray=""/><path fill="rgb(0,0,255)" stroke="rgb(0,0,255)" paint-order="fill" d="M 358.73248291015625 197.86630249023438 A 2.5 2.5 0 1 1 358.73248166015634 197.86380249065104" fill-opacity="0.3" clip-path="url(#QZeAmFJGhIAL)" stroke-opacity="1" stroke-linejoin="bevel" stroke-miterlimit="10" stroke-dasharray=""/><path fill="rgb(0,0,255)" stroke="rgb(0,0,255)" paint-order="fill" d="M 371.6864929199219 344.3558349609375 A 2.5 2.5 0 1 1 371.68649166992196 344.35333496135416" fill-opacity="0.3" clip-path="url(#QZeAmFJGhIAL)" stroke-opacity="1" stroke-linejoin="bevel" stroke-miterlimit="10" stroke-dasharray=""/><path fill="rgb(0,0,255)" stroke="rgb(0,0,255)" paint-order="fill" d="M 384.9577331542969 267.6722717285156 A 2.5 2.5 0 1 1 384.95773190429696 267.6697717289323" fill-opacity="0.3" clip-path="url(#QZeAmFJGhIAL)" stroke-opacity="1" stroke-linejoin="bevel" stroke-miterlimit="10" stroke-dasharray=""/><path fill="rgb(0,0,255)" stroke="rgb(0,0,255)" paint-order="fill" d="M 398.5433654785156 63.84146499633789 A 2.5 2.5 0 1 1 398.5433642285157 63.838964996754555" fill-opacity="0.3" clip-path="url(#QZeAmFJGhIAL)" stroke-opacity="1" stroke-linejoin="bevel" stroke-miterlimit="10" stroke-dasharray=""/><path fill="rgb(0,0,255)" stroke="rgb(0,0,255)" paint-order="fill" d="M 412.4447937011719 51.95454406738281 A 2.5 2.5 0 1 1 412.44479245117196 51.95204406779948" fill-opacity="0.3" clip-path="url(#QZeAmFJGhIAL)" stroke-opacity="1" stroke-linejoin="bevel" stroke-miterlimit="10" stroke-dasharray=""/><path fill="rgb(0,0,255)" stroke="rgb(0,0,255)" paint-order="fill" d="M 426.6619873046875 94.42902374267578 A 2.5 2.5 0 1 1 426.6619860546876 94.42652374309245" fill-opacity="0.3" clip-path="url(#QZeAmFJGhIAL)" stroke-opacity="1" stroke-linejoin="bevel" stroke-miterlimit="10" stroke-dasharray=""/><path fill="rgb(0,0,255)" stroke="rgb(0,0,255)" paint-order="fill" d="M 441.19500732421875 127.03178405761719 A 2.5 2.5 0 1 1 441.19500607421884 127.02928405803385" fill-opacity="0.3" clip-path="url(#QZeAmFJGhIAL)" stroke-opacity="1" stroke-linejoin="bevel" stroke-miterlimit="10" stroke-dasharray=""/><path fill="rgb(0,0,255)" stroke="rgb(0,0,255)" paint-order="fill" d="M 456.0454406738281 124.31491088867188 A 2.5 2.5 0 1 1 456.0454394238282 124.31241088908854" fill-opacity="0.3" clip-path="url(#QZeAmFJGhIAL)" stroke-opacity="1" stroke-linejoin="bevel" stroke-miterlimit="10" stroke-dasharray=""/><path fill="none" stroke="rgb(0,0,0)" paint-order="fill" d="M 97.5 439.5 L 470.5 439.5" stroke-opacity="1" stroke-linejoin="bevel" stroke-miterlimit="10" stroke-dasharray=""/><path fill="none" stroke="rgb(0,0,0)" paint-order="fill" d="M 191.5 445.5 L 191.5 437.5 M 285.5 445.5 L 285.5 437.5 M 380.5 445.5 L 380.5 437.5" stroke-opacity="1" stroke-linejoin="bevel" stroke-miterlimit="10" stroke-dasharray=""/><path fill="none" stroke="rgb(0,0,0)" paint-order="fill" d="M 172.5 443.5 L 172.5 439.5 M 153.5 443.5 L 153.5 439.5 M 134.5 443.5 L 134.5 439.5 M 115.5 443.5 L 115.5 439.5 M 191.5 443.5 L 191.5 439.5 M 210.5 443.5 L 210.5 439.5 M 229.5 443.5 L 229.5 439.5 M 248.5 443.5 L 248.5 439.5 M 267.5 443.5 L 267.5 439.5 M 285.5 443.5 L 285.5 439.5 M 304.5 443.5 L 304.5 439.5 M 323.5 443.5 L 323.5 439.5 M 342.5 443.5 L 342.5 439.5 M 361.5 443.5 L 361.5 439.5 M 380.5 443.5 L 380.5 439.5 M 399.5 443.5 L 399.5 439.5 M 418.5 443.5 L 418.5 439.5 M 437.5 443.5 L 437.5 439.5 M 455.5 443.5 L 455.5 439.5" stroke-opacity="1" stroke-linejoin="bevel" stroke-miterlimit="10" stroke-dasharray=""/><text fill="rgb(68,68,68)" stroke="none" font-family="helvetica" font-size="14pt" font-style="normal" font-weight="normal" text-decoration="normal" x="0" y="0" text-anchor="middle" dominant-baseline="hanging" transform="matrix(1, 0, 0, 1, 191.5, 450.5)" fill-opacity="1">5</text><text fill="rgb(68,68,68)" stroke="none" font-family="helvetica" font-size="14pt" font-style="normal" font-weight="normal" text-decoration="normal" x="0" y="0" text-anchor="middle" dominant-baseline="hanging" transform="matrix(1, 0, 0, 1, 285.5, 450.5)" fill-opacity="1">10</text><text fill="rgb(68,68,68)" stroke="none" font-family="helvetica" font-size="14pt" font-style="normal" font-weight="normal" text-decoration="normal" x="0" y="0" text-anchor="middle" dominant-baseline="hanging" transform="matrix(1, 0, 0, 1, 380.5, 450.5)" fill-opacity="1">15</text><text fill="rgb(68,68,68)" stroke="none" font-family="helvetica" font-size="14pt" font-style="italic" font-weight="normal" text-decoration="normal" x="0" y="0" text-anchor="middle" dominant-baseline="hanging" transform="matrix(1, 0, 0, 1, 284.5, 477.5)" fill-opacity="1">q² [nm ²]</text><path fill="none" stroke="rgb(0,0,0)" paint-order="fill" d="M 97.5 439.5 L 97.5 33.5" stroke-opacity="1" stroke-linejoin="bevel" stroke-miterlimit="10" stroke-dasharray=""/><path fill="none" stroke="rgb(0,0,0)" paint-order="fill" d="M 91.5 344.5 L 99.5 344.5 M 91.5 239.5 L 99.5 239.5 M 91.5 135.5 L 99.5 135.5" stroke-opacity="1" stroke-linejoin="bevel" stroke-miterlimit="10" stroke-dasharray=""/><path fill="none" stroke="rgb(0,0,0)" paint-order="fill" d="M 93.5 364.5 L 97.5 364.5 M 93.5 385.5 L 97.5 385.5 M 93.5 406.5 L 97.5 406.5 M 93.5 427.5 L 97.5 427.5 M 93.5 344.5 L 97.5 344.5 M 93.5 323.5 L 97.5 323.5 M 93.5 302.5 L 97.5 302.5 M 93.5 281.5 L 97.5 281.5 M 93.5 260.5 L 97.5 260.5 M 93.5 239.5 L 97.5 239.5 M 93.5 219.5 L 97.5 219.5 M 93.5 198.5 L 97.5 198.5 M 93.5 177.5 L 97.5 177.5 M 93.5 156.5 L 97.5 156.5 M 93.5 135.5 L 97.5 135.5 M 93.5 114.5 L 97.5 114.5 M 93.5 94.5 L 97.5 94.5 M 93.5 73.5 L 97.5 73.5 M 93.5 52.5 L 97.5 52.5" stroke-opacity="1" stroke-linejoin="bevel" stroke-miterlimit="10" stroke-dasharray=""/><text fill="rgb(68,68,68)" stroke="none" font-family="helvetica" font-size="14pt" font-style="normal" font-weight="normal" text-decoration="normal" x="0" y="0" text-anchor="end" dominant-baseline="central" transform="matrix(1, 0, 0, 1, 86.5, 344.5)" fill-opacity="1">-0.005</text><text fill="rgb(68,68,68)" stroke="none" font-family="helvetica" font-size="14pt" font-style="normal" font-weight="normal" text-decoration="normal" x="0" y="0" text-anchor="end" dominant-baseline="central" transform="matrix(1, 0, 0, 1, 86.5, 239.5)" fill-opacity="1">0</text><text fill="rgb(68,68,68)" stroke="none" font-family="helvetica" font-size="14pt" font-style="normal" font-weight="normal" text-decoration="normal" x="0" y="0" text-anchor="end" dominant-baseline="central" transform="matrix(1, 0, 0, 1, 86.5, 135.5)" fill-opacity="1">0.005</text><text fill="rgb(68,68,68)" stroke="none" font-family="helvetica" font-size="14pt" font-style="italic" font-weight="normal" text-decoration="normal" x="0" y="0" text-anchor="middle" dominant-baseline="alphabetic" transform="matrix(6.123233995736766e-17, -1, 1, 6.123233995736766e-17, 23.5, 236.5)" fill-opacity="1">R</text><path fill="none" stroke="rgb(255,0,0)" paint-order="fill" d="M 97.5 239.97262131378545 L 470.5 239.97262131378545" stroke-opacity="1" stroke-linejoin="bevel" stroke-miterlimit="10" stroke-width="3" stroke-dasharray="" clip-path="url(#XOsTmnJQPpRT)"/><path fill="none" stroke="none"/><text fill="rgb(68,68,68)" stroke="none" font-family="helvetica" font-size="12pt" font-style="normal" font-weight="bold" text-decoration="normal" x="0" y="0" text-anchor="middle" dominant-baseline="text-before-edge" transform="matrix(1, 0, 0, 1, 284, 5.5)" fill-opacity="1">Residuals for Guinier plot fit (SASDBY9)</text></svg>