<svg version="1.1" xmlns="http://www.w3.org/2000/svg" xmlns:xlink="http://www.w3.org/1999/xlink" width="700" height="250"><defs><clipPath id="XyBWmBpBLnfk"><path fill="none" stroke="none" d="M 54.5 37.5 L 670.5 37.5 L 670.5 198.5 L 54.5 198.5 L 54.5 37.5"/></clipPath><clipPath id="VaDsqmOlchwX"><path fill="none" stroke="none" d="M 54.5 37.5 L 670.5 37.5 L 670.5 198.5 L 54.5 198.5 L 54.5 37.5"/></clipPath><clipPath id="RZNfPSphzMbT"><path fill="none" stroke="none" d="M 54.5 37.5 L 670.5 37.5 L 670.5 198.5 L 54.5 198.5 L 54.5 37.5"/></clipPath><clipPath id="TDBQVNMWofOA"><path fill="none" stroke="none" d="M 54.5 37.5 L 670.5 37.5 L 670.5 198.5 L 54.5 198.5 L 54.5 37.5"/></clipPath><clipPath id="EBbqWuRVSFhm"><path fill="none" stroke="none" d="M 54.5 37.5 L 670.5 37.5 L 670.5 198.5 L 54.5 198.5 L 54.5 37.5"/></clipPath></defs><path fill="rgb(255,255,255)" stroke="none" paint-order="stroke" d="M 0.5 0.5 L 700.5 0.5 L 700.5 250.5 L 0.5 250.5 L 0.5 0.5" fill-opacity="1"/><rect fill="#FFFFFF" stroke="none" x="54" y="37" width="616" height="161" transform="matrix(1, 0, 0, 1, 0.5, 0.5)"/><path fill="rgb(255,255,255)" stroke="none" paint-order="stroke" d="M 54.5 37.5 L 670.5 37.5 L 670.5 198.5 L 54.5 198.5 L 54.5 37.5" fill-opacity="1"/><path fill="none" stroke="rgb(229,229,229)" paint-order="fill" d="M 54.5 37.5 L 670.5 37.5 L 670.5 198.5 L 54.5 198.5 L 54.5 37.5" stroke-opacity="1" stroke-linejoin="bevel" stroke-miterlimit="10" stroke-dasharray=""/><path fill="none" stroke="rgb(229,229,229)" paint-order="fill" d="M 76.5 198.5 L 76.5 37.5 M 162.5 198.5 L 162.5 37.5 M 247.5 198.5 L 247.5 37.5 M 333.5 198.5 L 333.5 37.5 M 418.5 198.5 L 418.5 37.5 M 504.5 198.5 L 504.5 37.5 M 590.5 198.5 L 590.5 37.5" stroke-opacity="1" stroke-linejoin="bevel" stroke-miterlimit="10" stroke-dasharray="" clip-path="url(#XyBWmBpBLnfk)"/><path fill="none" stroke="none"/><path fill="rgb(68,1,84)" stroke="none" paint-order="stroke" d="M 54.5 168.3125 L 399.28887939453125 168.3125 L 399.28887939453125 188.4375 L 54.5 188.4375 L 54.5 168.3125" fill-opacity="0.8" clip-path="url(#RZNfPSphzMbT)"/><path fill="none" stroke="rgb(68,1,84)" paint-order="fill" d="M 54.5 168.3125 L 399.28887939453125 168.3125 L 399.28887939453125 188.4375 L 54.5 188.4375 L 54.5 168.3125" stroke-opacity="0.8" stroke-linejoin="bevel" stroke-miterlimit="10" stroke-dasharray="" clip-path="url(#RZNfPSphzMbT)"/><path fill="rgb(48,103,141)" stroke="none" paint-order="stroke" d="M 54.5 128.0625 L 259.8333435058594 128.0625 L 259.8333435058594 148.1875 L 54.5 148.1875 L 54.5 128.0625" fill-opacity="0.8" clip-path="url(#RZNfPSphzMbT)"/><path fill="none" stroke="rgb(48,103,141)" paint-order="fill" d="M 54.5 128.0625 L 259.8333435058594 128.0625 L 259.8333435058594 148.1875 L 54.5 148.1875 L 54.5 128.0625" stroke-opacity="0.8" stroke-linejoin="bevel" stroke-miterlimit="10" stroke-dasharray="" clip-path="url(#RZNfPSphzMbT)"/><path fill="rgb(53,183,120)" stroke="none" paint-order="stroke" d="M 54.5 87.8125 L 465.1666564941406 87.8125 L 465.1666564941406 107.9375 L 54.5 107.9375 L 54.5 87.8125" fill-opacity="0.8" clip-path="url(#RZNfPSphzMbT)"/><path fill="none" stroke="rgb(53,183,120)" paint-order="fill" d="M 54.5 87.8125 L 465.1666564941406 87.8125 L 465.1666564941406 107.9375 L 54.5 107.9375 L 54.5 87.8125" stroke-opacity="0.8" stroke-linejoin="bevel" stroke-miterlimit="10" stroke-dasharray="" clip-path="url(#RZNfPSphzMbT)"/><path fill="rgb(253,231,36)" stroke="none" paint-order="stroke" d="M 54.5 47.5625 L 405.27777099609375 47.5625 L 405.27777099609375 67.6875 L 54.5 67.6875 L 54.5 47.5625" fill-opacity="0.8" clip-path="url(#RZNfPSphzMbT)"/><path fill="none" stroke="rgb(253,231,36)" paint-order="fill" d="M 54.5 47.5625 L 405.27777099609375 47.5625 L 405.27777099609375 67.6875 L 54.5 67.6875 L 54.5 47.5625" stroke-opacity="0.8" stroke-linejoin="bevel" stroke-miterlimit="10" stroke-dasharray="" clip-path="url(#RZNfPSphzMbT)"/><path fill="none" stroke="rgb(0,0,0)" paint-order="fill" d="M 54.5 198.5 L 670.5 198.5" stroke-opacity="1" stroke-linejoin="bevel" stroke-miterlimit="10" stroke-dasharray=""/><path fill="none" stroke="rgb(0,0,0)" paint-order="fill" d="M 76.5 204.5 L 76.5 196.5 M 162.5 204.5 L 162.5 196.5 M 247.5 204.5 L 247.5 196.5 M 333.5 204.5 L 333.5 196.5 M 418.5 204.5 L 418.5 196.5 M 504.5 204.5 L 504.5 196.5 M 590.5 204.5 L 590.5 196.5" stroke-opacity="1" stroke-linejoin="bevel" stroke-miterlimit="10" stroke-dasharray=""/><path fill="none" stroke="rgb(0,0,0)" paint-order="fill" d="M 59.5 202.5 L 59.5 198.5 M 76.5 202.5 L 76.5 198.5 M 93.5 202.5 L 93.5 198.5 M 110.5 202.5 L 110.5 198.5 M 128.5 202.5 L 128.5 198.5 M 145.5 202.5 L 145.5 198.5 M 162.5 202.5 L 162.5 198.5 M 179.5 202.5 L 179.5 198.5 M 196.5 202.5 L 196.5 198.5 M 213.5 202.5 L 213.5 198.5 M 230.5 202.5 L 230.5 198.5 M 247.5 202.5 L 247.5 198.5 M 264.5 202.5 L 264.5 198.5 M 282.5 202.5 L 282.5 198.5 M 299.5 202.5 L 299.5 198.5 M 316.5 202.5 L 316.5 198.5 M 333.5 202.5 L 333.5 198.5 M 350.5 202.5 L 350.5 198.5 M 367.5 202.5 L 367.5 198.5 M 384.5 202.5 L 384.5 198.5 M 401.5 202.5 L 401.5 198.5 M 418.5 202.5 L 418.5 198.5 M 436.5 202.5 L 436.5 198.5 M 453.5 202.5 L 453.5 198.5 M 470.5 202.5 L 470.5 198.5 M 487.5 202.5 L 487.5 198.5 M 504.5 202.5 L 504.5 198.5 M 521.5 202.5 L 521.5 198.5 M 538.5 202.5 L 538.5 198.5 M 555.5 202.5 L 555.5 198.5 M 572.5 202.5 L 572.5 198.5 M 590.5 202.5 L 590.5 198.5 M 607.5 202.5 L 607.5 198.5 M 624.5 202.5 L 624.5 198.5 M 641.5 202.5 L 641.5 198.5 M 658.5 202.5 L 658.5 198.5" stroke-opacity="1" stroke-linejoin="bevel" stroke-miterlimit="10" stroke-dasharray=""/><text fill="rgb(68,68,68)" stroke="none" font-family="helvetica" font-size="11px" font-style="normal" font-weight="normal" text-decoration="normal" x="0" y="0" text-anchor="middle" dominant-baseline="hanging" transform="matrix(1, 0, 0, 1, 76.5, 209.5)" fill-opacity="1">3300</text><text fill="rgb(68,68,68)" stroke="none" font-family="helvetica" font-size="11px" font-style="normal" font-weight="normal" text-decoration="normal" x="0" y="0" text-anchor="middle" dominant-baseline="hanging" transform="matrix(1, 0, 0, 1, 162.5, 209.5)" fill-opacity="1">3400</text><text fill="rgb(68,68,68)" stroke="none" font-family="helvetica" font-size="11px" font-style="normal" font-weight="normal" text-decoration="normal" x="0" y="0" text-anchor="middle" dominant-baseline="hanging" transform="matrix(1, 0, 0, 1, 247.5, 209.5)" fill-opacity="1">3500</text><text fill="rgb(68,68,68)" stroke="none" font-family="helvetica" font-size="11px" font-style="normal" font-weight="normal" text-decoration="normal" x="0" y="0" text-anchor="middle" dominant-baseline="hanging" transform="matrix(1, 0, 0, 1, 333.5, 209.5)" fill-opacity="1">3600</text><text fill="rgb(68,68,68)" stroke="none" font-family="helvetica" font-size="11px" font-style="normal" font-weight="normal" text-decoration="normal" x="0" y="0" text-anchor="middle" dominant-baseline="hanging" transform="matrix(1, 0, 0, 1, 418.5, 209.5)" fill-opacity="1">3700</text><text fill="rgb(68,68,68)" stroke="none" font-family="helvetica" font-size="11px" font-style="normal" font-weight="normal" text-decoration="normal" x="0" y="0" text-anchor="middle" dominant-baseline="hanging" transform="matrix(1, 0, 0, 1, 504.5, 209.5)" fill-opacity="1">3800</text><text fill="rgb(68,68,68)" stroke="none" font-family="helvetica" font-size="11px" font-style="normal" font-weight="normal" text-decoration="normal" x="0" y="0" text-anchor="middle" dominant-baseline="hanging" transform="matrix(1, 0, 0, 1, 590.5, 209.5)" fill-opacity="1">3900</text><text fill="rgb(68,68,68)" stroke="none" font-family="helvetica" font-size="14pt" font-style="italic" font-weight="normal" text-decoration="normal" x="0" y="0" text-anchor="middle" dominant-baseline="hanging" transform="matrix(1, 0, 0, 1, 362.5, 227.5)" fill-opacity="1">Number of violations</text><path fill="none" stroke="rgb(0,0,0)" paint-order="fill" d="M 54.5 198.5 L 54.5 37.5" stroke-opacity="1" stroke-linejoin="bevel" stroke-miterlimit="10" stroke-dasharray=""/><path fill="none" stroke="rgb(0,0,0)" paint-order="fill" d="M 48.5 178.5 L 56.5 178.5 M 48.5 138.5 L 56.5 138.5 M 48.5 97.5 L 56.5 97.5 M 48.5 57.5 L 56.5 57.5" stroke-opacity="1" stroke-linejoin="bevel" stroke-miterlimit="10" stroke-dasharray=""/><path fill="none" stroke="rgb(0,0,0)" paint-order="fill" d="" stroke-opacity="1" stroke-linejoin="bevel" stroke-miterlimit="10" stroke-dasharray=""/><text fill="rgb(68,68,68)" stroke="none" font-family="helvetica" font-size="11px" font-style="normal" font-weight="normal" text-decoration="normal" x="0" y="0" text-anchor="end" dominant-baseline="central" transform="matrix(1, 0, 0, 1, 43.5, 178.5)" fill-opacity="1">Model 1</text><text fill="rgb(68,68,68)" stroke="none" font-family="helvetica" font-size="11px" font-style="normal" font-weight="normal" text-decoration="normal" x="0" y="0" text-anchor="end" dominant-baseline="central" transform="matrix(1, 0, 0, 1, 43.5, 138.5)" fill-opacity="1">Model 2</text><text fill="rgb(68,68,68)" stroke="none" font-family="helvetica" font-size="11px" font-style="normal" font-weight="normal" text-decoration="normal" x="0" y="0" text-anchor="end" dominant-baseline="central" transform="matrix(1, 0, 0, 1, 43.5, 97.5)" fill-opacity="1">Model 3</text><text fill="rgb(68,68,68)" stroke="none" font-family="helvetica" font-size="11px" font-style="normal" font-weight="normal" text-decoration="normal" x="0" y="0" text-anchor="end" dominant-baseline="central" transform="matrix(1, 0, 0, 1, 43.5, 57.5)" fill-opacity="1">Model 4</text><path fill="rgb(255,255,255)" stroke="rgb(229,229,229)" paint-order="fill" d="M 533.0666656494141 47.5 L 660.5 47.5 L 660.5 156.5 L 533.0666656494141 156.5 L 533.0666656494141 47.5" fill-opacity="0.95" clip-path="url(#TDBQVNMWofOA)" stroke-opacity="0.5" stroke-linejoin="bevel" stroke-miterlimit="10" stroke-dasharray=""/><text fill="rgb(68,68,68)" stroke="none" font-family="helvetica" font-size="13px" font-style="normal" font-weight="normal" text-decoration="normal" x="567.5666656494141" y="67" text-anchor="start" dominant-baseline="central" transform="matrix(1, 0, 0, 1, 0.5, 0.5)" fill-opacity="1">Model 1: 3677</text><path fill="rgb(68,1,84)" stroke="none" paint-order="stroke" d="M 545.0666656494141 59.5 L 561.0666656494141 59.5 L 561.0666656494141 75.5 L 545.0666656494141 75.5 L 545.0666656494141 59.5" fill-opacity="0.8" clip-path="url(#TDBQVNMWofOA)"/><path fill="none" stroke="rgb(68,1,84)" paint-order="fill" d="M 545.0666656494141 59.5 L 561.0666656494141 59.5 L 561.0666656494141 75.5 L 545.0666656494141 75.5 L 545.0666656494141 59.5" stroke-opacity="0.8" stroke-linejoin="bevel" stroke-miterlimit="10" stroke-dasharray="" clip-path="url(#TDBQVNMWofOA)"/><text fill="rgb(68,68,68)" stroke="none" font-family="helvetica" font-size="13px" font-style="normal" font-weight="normal" text-decoration="normal" x="567.5666656494141" y="90" text-anchor="start" dominant-baseline="central" transform="matrix(1, 0, 0, 1, 0.5, 0.5)" fill-opacity="1">Model 2: 3514</text><path fill="rgb(48,103,141)" stroke="none" paint-order="stroke" d="M 545.0666656494141 82.5 L 561.0666656494141 82.5 L 561.0666656494141 98.5 L 545.0666656494141 98.5 L 545.0666656494141 82.5" fill-opacity="0.8" clip-path="url(#TDBQVNMWofOA)"/><path fill="none" stroke="rgb(48,103,141)" paint-order="fill" d="M 545.0666656494141 82.5 L 561.0666656494141 82.5 L 561.0666656494141 98.5 L 545.0666656494141 98.5 L 545.0666656494141 82.5" stroke-opacity="0.8" stroke-linejoin="bevel" stroke-miterlimit="10" stroke-dasharray="" clip-path="url(#TDBQVNMWofOA)"/><text fill="rgb(68,68,68)" stroke="none" font-family="helvetica" font-size="13px" font-style="normal" font-weight="normal" text-decoration="normal" x="567.5666656494141" y="113" text-anchor="start" dominant-baseline="central" transform="matrix(1, 0, 0, 1, 0.5, 0.5)" fill-opacity="1">Model 3: 3754</text><path fill="rgb(53,183,120)" stroke="none" paint-order="stroke" d="M 545.0666656494141 105.5 L 561.0666656494141 105.5 L 561.0666656494141 121.5 L 545.0666656494141 121.5 L 545.0666656494141 105.5" fill-opacity="0.8" clip-path="url(#TDBQVNMWofOA)"/><path fill="none" stroke="rgb(53,183,120)" paint-order="fill" d="M 545.0666656494141 105.5 L 561.0666656494141 105.5 L 561.0666656494141 121.5 L 545.0666656494141 121.5 L 545.0666656494141 105.5" stroke-opacity="0.8" stroke-linejoin="bevel" stroke-miterlimit="10" stroke-dasharray="" clip-path="url(#TDBQVNMWofOA)"/><text fill="rgb(68,68,68)" stroke="none" font-family="helvetica" font-size="13px" font-style="normal" font-weight="normal" text-decoration="normal" x="567.5666656494141" y="136" text-anchor="start" dominant-baseline="central" transform="matrix(1, 0, 0, 1, 0.5, 0.5)" fill-opacity="1">Model 4: 3684</text><path fill="rgb(253,231,36)" stroke="none" paint-order="stroke" d="M 545.0666656494141 128.5 L 561.0666656494141 128.5 L 561.0666656494141 144.5 L 545.0666656494141 144.5 L 545.0666656494141 128.5" fill-opacity="0.8" clip-path="url(#TDBQVNMWofOA)"/><path fill="none" stroke="rgb(253,231,36)" paint-order="fill" d="M 545.0666656494141 128.5 L 561.0666656494141 128.5 L 561.0666656494141 144.5 L 545.0666656494141 144.5 L 545.0666656494141 128.5" stroke-opacity="0.8" stroke-linejoin="bevel" stroke-miterlimit="10" stroke-dasharray="" clip-path="url(#TDBQVNMWofOA)"/><path fill="none" stroke="none"/><text fill="rgb(68,68,68)" stroke="none" font-family="helvetica" font-size="14pt" font-style="normal" font-weight="bold" text-decoration="normal" x="0" y="0" text-anchor="middle" dominant-baseline="text-before-edge" transform="matrix(1, 0, 0, 1, 362.5, 5.5)" fill-opacity="1">Model quality: Excluded Volume Analysis</text></svg>