<svg version="1.1" xmlns="http://www.w3.org/2000/svg" xmlns:xlink="http://www.w3.org/1999/xlink" width="500" height="500" style="width: 500px; height: 500px;"><defs><clipPath id="qZBJWDKvOnuZ"><path fill="none" stroke="none" d=" M 74 33 L 470 33 L 470 439 L 74 439 L 74 33 Z"/></clipPath><clipPath id="QvspFZPSNeXw"><path fill="none" stroke="none" d=" M 74 33 L 470 33 L 470 439 L 74 439 L 74 33 Z"/></clipPath><clipPath id="OEVbABECZDKz"><path fill="none" stroke="none" d=" M 74 33 L 470 33 L 470 439 L 74 439 L 74 33 Z"/></clipPath><clipPath id="oobheOgSVdgP"><path fill="none" stroke="none" d=" M 74 33 L 470 33 L 470 439 L 74 439 L 74 33 Z"/></clipPath><clipPath id="pFywxZLkufXM"><path fill="none" stroke="none" d=" M 74 33 L 470 33 L 470 439 L 74 439 L 74 33 Z"/></clipPath><clipPath id="PyTitGCkDGeH"><path fill="none" stroke="none" d=" M 74 33 L 470 33 L 470 439 L 74 439 L 74 33 Z"/></clipPath><clipPath id="UhmNeoklZIBH"><path fill="none" stroke="none" d=" M 74 33 L 470 33 L 470 439 L 74 439 L 74 33 Z"/></clipPath><clipPath id="tmNwvWXddrbw"><path fill="none" stroke="none" d=" M 74 33 L 470 33 L 470 439 L 74 439 L 74 33 Z"/></clipPath><clipPath id="BriHymAntdpu"><path fill="none" stroke="none" d=" M 74 33 L 470 33 L 470 439 L 74 439 L 74 33 Z"/></clipPath><clipPath id="tHToRwhhxOly"><path fill="none" stroke="none" d=" M 74 33 L 470 33 L 470 439 L 74 439 L 74 33 Z"/></clipPath></defs><g transform="scale(1,1) translate(0.5,0.5) scale(1,1) translate(0.5,0.5)"><rect fill="#ffffff" stroke="none" x="0" y="0" width="500" height="500"/><rect fill="#FFFFFF" stroke="none" x="74" y="33" width="396" height="406"/><rect fill="#ffffff" stroke="none" x="74" y="33" width="396" height="406"/><g><rect fill="none" stroke="#e5e5e5" x="74" y="33" width="396" height="406" stroke-linejoin="bevel" stroke-miterlimit="10"/></g><g clip-path="url(#PyTitGCkDGeH)"><g><g><path fill="none" stroke="#e5e5e5" paint-order="fill stroke markers" d=" M 141 439 L 141 33" stroke-linejoin="bevel" stroke-miterlimit="10"/><path fill="none" stroke="#e5e5e5" paint-order="fill stroke markers" d=" M 215 439 L 215 33" stroke-linejoin="bevel" stroke-miterlimit="10"/><path fill="none" stroke="#e5e5e5" paint-order="fill stroke markers" d=" M 290 439 L 290 33" stroke-linejoin="bevel" stroke-miterlimit="10"/><path fill="none" stroke="#e5e5e5" paint-order="fill stroke markers" d=" M 364 439 L 364 33" stroke-linejoin="bevel" stroke-miterlimit="10"/><path fill="none" stroke="#e5e5e5" paint-order="fill stroke markers" d=" M 438 439 L 438 33" stroke-linejoin="bevel" stroke-miterlimit="10"/></g></g></g><g clip-path="url(#UhmNeoklZIBH)"><g><g><path fill="none" stroke="#e5e5e5" paint-order="fill stroke markers" d=" M 74 410 L 470 410" stroke-linejoin="bevel" stroke-miterlimit="10"/><path fill="none" stroke="#e5e5e5" paint-order="fill stroke markers" d=" M 74 357 L 470 357" stroke-linejoin="bevel" stroke-miterlimit="10"/><path fill="none" stroke="#e5e5e5" paint-order="fill stroke markers" d=" M 74 304 L 470 304" stroke-linejoin="bevel" stroke-miterlimit="10"/><path fill="none" stroke="#e5e5e5" paint-order="fill stroke markers" d=" M 74 251 L 470 251" stroke-linejoin="bevel" stroke-miterlimit="10"/><path fill="none" stroke="#e5e5e5" paint-order="fill stroke markers" d=" M 74 198 L 470 198" stroke-linejoin="bevel" stroke-miterlimit="10"/><path fill="none" stroke="#e5e5e5" paint-order="fill stroke markers" d=" M 74 145 L 470 145" stroke-linejoin="bevel" stroke-miterlimit="10"/><path fill="none" stroke="#e5e5e5" paint-order="fill stroke markers" d=" M 74 92 L 470 92" stroke-linejoin="bevel" stroke-miterlimit="10"/><path fill="none" stroke="#e5e5e5" paint-order="fill stroke markers" d=" M 74 40 L 470 40" stroke-linejoin="bevel" stroke-miterlimit="10"/></g></g></g><g clip-path="url(#tmNwvWXddrbw)"><g><g><path fill="none" stroke="none"/><path fill="blue" stroke="blue" paint-order="fill stroke markers" d=" M 94.50000000000003 364.13186927777565 A 2.5 2.5 0 1 1 94.49999875000013 364.1293692781923" fill-opacity="0.3" stroke-linejoin="bevel" stroke-miterlimit="10"/><path fill="blue" stroke="blue" paint-order="fill stroke markers" d=" M 97.21928014199037 420.5454545454545 A 2.5 2.5 0 1 1 97.21927889199047 420.54295454587117" fill-opacity="0.3" stroke-linejoin="bevel" stroke-miterlimit="10"/><path fill="blue" stroke="blue" paint-order="fill stroke markers" d=" M 104.01005076980232 145.7806002210679 A 2.5 2.5 0 1 1 104.01004951980242 145.77810022148458" fill-opacity="0.3" stroke-linejoin="bevel" stroke-miterlimit="10"/><path fill="blue" stroke="blue" paint-order="fill stroke markers" d=" M 113.52010153960461 87.77939060251771 A 2.5 2.5 0 1 1 113.52010028960471 87.77689060293437" fill-opacity="0.3" stroke-linejoin="bevel" stroke-miterlimit="10"/><path fill="blue" stroke="blue" paint-order="fill stroke markers" d=" M 123.0301523094069 117.83841164570555 A 2.5 2.5 0 1 1 123.030151059407 117.83591164612221" fill-opacity="0.3" stroke-linejoin="bevel" stroke-miterlimit="10"/><path fill="blue" stroke="blue" paint-order="fill stroke markers" d=" M 129.82092293721885 243.1548937412681 A 2.5 2.5 0 1 1 129.82092168721897 243.15239374168476" fill-opacity="0.3" stroke-linejoin="bevel" stroke-miterlimit="10"/><path fill="blue" stroke="blue" paint-order="fill stroke markers" d=" M 139.33097370702114 155.20050470291457 A 2.5 2.5 0 1 1 139.33097245702126 155.19800470333124" fill-opacity="0.3" stroke-linejoin="bevel" stroke-miterlimit="10"/><path fill="blue" stroke="blue" paint-order="fill stroke markers" d=" M 148.8410244768234 142.81703476610625 A 2.5 2.5 0 1 1 148.84102322682352 142.8145347665229" fill-opacity="0.3" stroke-linejoin="bevel" stroke-miterlimit="10"/><path fill="blue" stroke="blue" paint-order="fill stroke markers" d=" M 155.6317951046354 130.8569313228645 A 2.5 2.5 0 1 1 155.6317938546355 130.85443132328118" fill-opacity="0.3" stroke-linejoin="bevel" stroke-miterlimit="10"/><path fill="blue" stroke="blue" paint-order="fill stroke markers" d=" M 158.35107524662573 181.237544057228 A 2.5 2.5 0 1 1 158.35107399662584 181.23504405764467" fill-opacity="0.3" stroke-linejoin="bevel" stroke-miterlimit="10"/><path fill="blue" stroke="blue" paint-order="fill stroke markers" d=" M 165.14184587443765 51.45454545454544 A 2.5 2.5 0 1 1 165.14184462443777 51.452045454962104" fill-opacity="0.3" stroke-linejoin="bevel" stroke-miterlimit="10"/><path fill="blue" stroke="blue" paint-order="fill stroke markers" d=" M 174.65189664423994 159.285991365826 A 2.5 2.5 0 1 1 174.65189539424006 159.28349136624266" fill-opacity="0.3" stroke-linejoin="bevel" stroke-miterlimit="10"/><path fill="blue" stroke="blue" paint-order="fill stroke markers" d=" M 181.4426672720519 217.90108240005085 A 2.5 2.5 0 1 1 181.442666022052 217.89858240046752" fill-opacity="0.3" stroke-linejoin="bevel" stroke-miterlimit="10"/><path fill="blue" stroke="blue" paint-order="fill stroke markers" d=" M 184.16194741404223 202.86098771611594 A 2.5 2.5 0 1 1 184.16194616404235 202.8584877165326" fill-opacity="0.3" stroke-linejoin="bevel" stroke-miterlimit="10"/><path fill="blue" stroke="blue" paint-order="fill stroke markers" d=" M 190.95271804185418 297.4198940541 A 2.5 2.5 0 1 1 190.9527167918543 297.41739405451665" fill-opacity="0.3" stroke-linejoin="bevel" stroke-miterlimit="10"/><path fill="blue" stroke="blue" paint-order="fill stroke markers" d=" M 200.46276881165647 58.03789442949844 A 2.5 2.5 0 1 1 200.4627675616566 58.0353944299151" fill-opacity="0.3" stroke-linejoin="bevel" stroke-miterlimit="10"/><path fill="blue" stroke="blue" paint-order="fill stroke markers" d=" M 209.97281958145874 108.3550021898279 A 2.5 2.5 0 1 1 209.97281833145885 108.35250219024456" fill-opacity="0.3" stroke-linejoin="bevel" stroke-miterlimit="10"/><path fill="blue" stroke="blue" paint-order="fill stroke markers" d=" M 216.76359020927072 137.23918121337297 A 2.5 2.5 0 1 1 216.76358895927083 137.23668121378964" fill-opacity="0.3" stroke-linejoin="bevel" stroke-miterlimit="10"/><path fill="blue" stroke="blue" paint-order="fill stroke markers" d=" M 444.9899492301979 103.69267867943094 A 2.5 2.5 0 1 1 444.989947980198 103.6901786798476" fill-opacity="0.3" stroke-linejoin="bevel" stroke-miterlimit="10"/><path fill="blue" stroke="blue" paint-order="fill stroke markers" d=" M 454.50000000000006 116.7662360007515 A 2.5 2.5 0 1 1 454.49999875000015 116.76373600116817" fill-opacity="0.3" stroke-linejoin="bevel" stroke-miterlimit="10"/></g></g></g><g clip-path="url(#BriHymAntdpu)"><g><g><path fill="none" stroke="red" paint-order="fill stroke markers" d=" M 74 145.35723372750283 L 470 145.35723372750283" stroke-linejoin="bevel" stroke-miterlimit="10" stroke-width="3"/></g></g></g><g><g fill="#444444"><path fill="" stroke="none" d=""/><g transform="translate(272,5)"><path fill="none" stroke="none"/><text fill="" stroke="none" font-family="helvetica" font-size="12pt" font-style="normal" font-weight="bold" text-decoration="normal" x="0" y="0" text-anchor="middle" dominant-baseline="text-before-edge">Residuals for P(r) fit (SASDBV9)</text></g></g></g><g/><g><g fill="#444444"><path fill="none" stroke="black" paint-order="fill stroke markers" d=" M 74 439 L 470 439" stroke-linejoin="bevel" stroke-miterlimit="10"/><path fill="none" stroke="black" paint-order="fill stroke markers" d=" M 141 445 L 141 437" stroke-linejoin="bevel" stroke-miterlimit="10"/><path fill="none" stroke="black" paint-order="fill stroke markers" d=" M 215 445 L 215 437" stroke-linejoin="bevel" stroke-miterlimit="10"/><path fill="none" stroke="black" paint-order="fill stroke markers" d=" M 290 445 L 290 437" stroke-linejoin="bevel" stroke-miterlimit="10"/><path fill="none" stroke="black" paint-order="fill stroke markers" d=" M 364 445 L 364 437" stroke-linejoin="bevel" stroke-miterlimit="10"/><path fill="none" stroke="black" paint-order="fill stroke markers" d=" M 438 445 L 438 437" stroke-linejoin="bevel" stroke-miterlimit="10"/><path fill="none" stroke="black" paint-order="fill stroke markers" d=" M 126 443 L 126 439" stroke-linejoin="bevel" stroke-miterlimit="10"/><path fill="none" stroke="black" paint-order="fill stroke markers" d=" M 111 443 L 111 439" stroke-linejoin="bevel" stroke-miterlimit="10"/><path fill="none" stroke="black" paint-order="fill stroke markers" d=" M 97 443 L 97 439" stroke-linejoin="bevel" stroke-miterlimit="10"/><path fill="none" stroke="black" paint-order="fill stroke markers" d=" M 82 443 L 82 439" stroke-linejoin="bevel" stroke-miterlimit="10"/><path fill="none" stroke="black" paint-order="fill stroke markers" d=" M 141 443 L 141 439" stroke-linejoin="bevel" stroke-miterlimit="10"/><path fill="none" stroke="black" paint-order="fill stroke markers" d=" M 156 443 L 156 439" stroke-linejoin="bevel" stroke-miterlimit="10"/><path fill="none" stroke="black" paint-order="fill stroke markers" d=" M 171 443 L 171 439" stroke-linejoin="bevel" stroke-miterlimit="10"/><path fill="none" stroke="black" paint-order="fill stroke markers" d=" M 186 443 L 186 439" stroke-linejoin="bevel" stroke-miterlimit="10"/><path fill="none" stroke="black" paint-order="fill stroke markers" d=" M 201 443 L 201 439" stroke-linejoin="bevel" stroke-miterlimit="10"/><path fill="none" stroke="black" paint-order="fill stroke markers" d=" M 215 443 L 215 439" stroke-linejoin="bevel" stroke-miterlimit="10"/><path fill="none" stroke="black" paint-order="fill stroke markers" d=" M 230 443 L 230 439" stroke-linejoin="bevel" stroke-miterlimit="10"/><path fill="none" stroke="black" paint-order="fill stroke markers" d=" M 245 443 L 245 439" stroke-linejoin="bevel" stroke-miterlimit="10"/><path fill="none" stroke="black" paint-order="fill stroke markers" d=" M 260 443 L 260 439" stroke-linejoin="bevel" stroke-miterlimit="10"/><path fill="none" stroke="black" paint-order="fill stroke markers" d=" M 275 443 L 275 439" stroke-linejoin="bevel" stroke-miterlimit="10"/><path fill="none" stroke="black" paint-order="fill stroke markers" d=" M 290 443 L 290 439" stroke-linejoin="bevel" stroke-miterlimit="10"/><path fill="none" stroke="black" paint-order="fill stroke markers" d=" M 305 443 L 305 439" stroke-linejoin="bevel" stroke-miterlimit="10"/><path fill="none" stroke="black" paint-order="fill stroke markers" d=" M 319 443 L 319 439" stroke-linejoin="bevel" stroke-miterlimit="10"/><path fill="none" stroke="black" paint-order="fill stroke markers" d=" M 334 443 L 334 439" stroke-linejoin="bevel" stroke-miterlimit="10"/><path fill="none" stroke="black" paint-order="fill stroke markers" d=" M 349 443 L 349 439" stroke-linejoin="bevel" stroke-miterlimit="10"/><path fill="none" stroke="black" paint-order="fill stroke markers" d=" M 364 443 L 364 439" stroke-linejoin="bevel" stroke-miterlimit="10"/><path fill="none" stroke="black" paint-order="fill stroke markers" d=" M 379 443 L 379 439" stroke-linejoin="bevel" stroke-miterlimit="10"/><path fill="none" stroke="black" paint-order="fill stroke markers" d=" M 394 443 L 394 439" stroke-linejoin="bevel" stroke-miterlimit="10"/><path fill="none" stroke="black" paint-order="fill stroke markers" d=" M 409 443 L 409 439" stroke-linejoin="bevel" stroke-miterlimit="10"/><path fill="none" stroke="black" paint-order="fill stroke markers" d=" M 423 443 L 423 439" stroke-linejoin="bevel" stroke-miterlimit="10"/><path fill="none" stroke="black" paint-order="fill stroke markers" d=" M 438 443 L 438 439" stroke-linejoin="bevel" stroke-miterlimit="10"/><path fill="none" stroke="black" paint-order="fill stroke markers" d=" M 453 443 L 453 439" stroke-linejoin="bevel" stroke-miterlimit="10"/><path fill="" stroke="black" paint-order="fill stroke markers" d=" M 468 443 L 468 439" stroke-linejoin="bevel" stroke-miterlimit="10"/><g transform="translate(141,450) rotate(0,0,0)"><text fill="" stroke="none" font-family="helvetica" font-size="14pt" font-style="normal" font-weight="normal" text-decoration="normal" x="0" y="0" text-anchor="middle" dominant-baseline="hanging">0.5</text><g transform="rotate(0,0,0) translate(-141,-450) translate(215,450) rotate(0,0,0)"><text fill="" stroke="none" font-family="helvetica" font-size="14pt" font-style="normal" font-weight="normal" text-decoration="normal" x="0" y="0" text-anchor="middle" dominant-baseline="hanging">1</text><g transform="rotate(0,0,0) translate(-215,-450) translate(290,450) rotate(0,0,0)"><text fill="" stroke="none" font-family="helvetica" font-size="14pt" font-style="normal" font-weight="normal" text-decoration="normal" x="0" y="0" text-anchor="middle" dominant-baseline="hanging">1.5</text><g transform="rotate(0,0,0) translate(-290,-450) translate(364,450) rotate(0,0,0)"><text fill="" stroke="none" font-family="helvetica" font-size="14pt" font-style="normal" font-weight="normal" text-decoration="normal" x="0" y="0" text-anchor="middle" dominant-baseline="hanging">2</text><g transform="rotate(0,0,0) translate(-364,-450) translate(438,450) rotate(0,0,0)"><text fill="" stroke="none" font-family="helvetica" font-size="14pt" font-style="normal" font-weight="normal" text-decoration="normal" x="0" y="0" text-anchor="middle" dominant-baseline="hanging">2.5</text><g transform="rotate(0,0,0) translate(-438,-450) translate(272,477) rotate(0,0,0)"><text fill="" stroke="none" font-family="helvetica" font-size="14pt" font-style="italic" font-weight="normal" text-decoration="normal" x="0" y="0" text-anchor="middle" dominant-baseline="hanging">q² [nm ²]</text><g transform="rotate(0,0,0) translate(-272,-477)"/></g></g></g></g></g></g></g></g><g><g fill="#444444"><path fill="none" stroke="black" paint-order="fill stroke markers" d=" M 74 439 L 74 33" stroke-linejoin="bevel" stroke-miterlimit="10"/><path fill="none" stroke="black" paint-order="fill stroke markers" d=" M 68 410 L 76 410" stroke-linejoin="bevel" stroke-miterlimit="10"/><path fill="none" stroke="black" paint-order="fill stroke markers" d=" M 68 357 L 76 357" stroke-linejoin="bevel" stroke-miterlimit="10"/><path fill="none" stroke="black" paint-order="fill stroke markers" d=" M 68 304 L 76 304" stroke-linejoin="bevel" stroke-miterlimit="10"/><path fill="none" stroke="black" paint-order="fill stroke markers" d=" M 68 251 L 76 251" stroke-linejoin="bevel" stroke-miterlimit="10"/><path fill="none" stroke="black" paint-order="fill stroke markers" d=" M 68 198 L 76 198" stroke-linejoin="bevel" stroke-miterlimit="10"/><path fill="none" stroke="black" paint-order="fill stroke markers" d=" M 68 145 L 76 145" stroke-linejoin="bevel" stroke-miterlimit="10"/><path fill="none" stroke="black" paint-order="fill stroke markers" d=" M 68 92 L 76 92" stroke-linejoin="bevel" stroke-miterlimit="10"/><path fill="none" stroke="black" paint-order="fill stroke markers" d=" M 68 40 L 76 40" stroke-linejoin="bevel" stroke-miterlimit="10"/><path fill="none" stroke="black" paint-order="fill stroke markers" d=" M 70 421 L 74 421" stroke-linejoin="bevel" stroke-miterlimit="10"/><path fill="none" stroke="black" paint-order="fill stroke markers" d=" M 70 431 L 74 431" stroke-linejoin="bevel" stroke-miterlimit="10"/><path fill="none" stroke="black" paint-order="fill stroke markers" d=" M 70 410 L 74 410" stroke-linejoin="bevel" stroke-miterlimit="10"/><path fill="none" stroke="black" paint-order="fill stroke markers" d=" M 70 399 L 74 399" stroke-linejoin="bevel" stroke-miterlimit="10"/><path fill="none" stroke="black" paint-order="fill stroke markers" d=" M 70 389 L 74 389" stroke-linejoin="bevel" stroke-miterlimit="10"/><path fill="none" stroke="black" paint-order="fill stroke markers" d=" M 70 378 L 74 378" stroke-linejoin="bevel" stroke-miterlimit="10"/><path fill="none" stroke="black" paint-order="fill stroke markers" d=" M 70 368 L 74 368" stroke-linejoin="bevel" stroke-miterlimit="10"/><path fill="none" stroke="black" paint-order="fill stroke markers" d=" M 70 357 L 74 357" stroke-linejoin="bevel" stroke-miterlimit="10"/><path fill="none" stroke="black" paint-order="fill stroke markers" d=" M 70 346 L 74 346" stroke-linejoin="bevel" stroke-miterlimit="10"/><path fill="none" stroke="black" paint-order="fill stroke markers" d=" M 70 336 L 74 336" stroke-linejoin="bevel" stroke-miterlimit="10"/><path fill="none" stroke="black" paint-order="fill stroke markers" d=" M 70 325 L 74 325" stroke-linejoin="bevel" stroke-miterlimit="10"/><path fill="none" stroke="black" paint-order="fill stroke markers" d=" M 70 315 L 74 315" stroke-linejoin="bevel" stroke-miterlimit="10"/><path fill="none" stroke="black" paint-order="fill stroke markers" d=" M 70 304 L 74 304" stroke-linejoin="bevel" stroke-miterlimit="10"/><path fill="none" stroke="black" paint-order="fill stroke markers" d=" M 70 294 L 74 294" stroke-linejoin="bevel" stroke-miterlimit="10"/><path fill="none" stroke="black" paint-order="fill stroke markers" d=" M 70 283 L 74 283" stroke-linejoin="bevel" stroke-miterlimit="10"/><path fill="none" stroke="black" paint-order="fill stroke markers" d=" M 70 272 L 74 272" stroke-linejoin="bevel" stroke-miterlimit="10"/><path fill="none" stroke="black" paint-order="fill stroke markers" d=" M 70 262 L 74 262" stroke-linejoin="bevel" stroke-miterlimit="10"/><path fill="none" stroke="black" paint-order="fill stroke markers" d=" M 70 251 L 74 251" stroke-linejoin="bevel" stroke-miterlimit="10"/><path fill="none" stroke="black" paint-order="fill stroke markers" d=" M 70 241 L 74 241" stroke-linejoin="bevel" stroke-miterlimit="10"/><path fill="none" stroke="black" paint-order="fill stroke markers" d=" M 70 230 L 74 230" stroke-linejoin="bevel" stroke-miterlimit="10"/><path fill="none" stroke="black" paint-order="fill stroke markers" d=" M 70 219 L 74 219" stroke-linejoin="bevel" stroke-miterlimit="10"/><path fill="none" stroke="black" paint-order="fill stroke markers" d=" M 70 209 L 74 209" stroke-linejoin="bevel" stroke-miterlimit="10"/><path fill="none" stroke="black" paint-order="fill stroke markers" d=" M 70 198 L 74 198" stroke-linejoin="bevel" stroke-miterlimit="10"/><path fill="none" stroke="black" paint-order="fill stroke markers" d=" M 70 188 L 74 188" stroke-linejoin="bevel" stroke-miterlimit="10"/><path fill="none" stroke="black" paint-order="fill stroke markers" d=" M 70 177 L 74 177" stroke-linejoin="bevel" stroke-miterlimit="10"/><path fill="none" stroke="black" paint-order="fill stroke markers" d=" M 70 167 L 74 167" stroke-linejoin="bevel" stroke-miterlimit="10"/><path fill="none" stroke="black" paint-order="fill stroke markers" d=" M 70 156 L 74 156" stroke-linejoin="bevel" stroke-miterlimit="10"/><path fill="none" stroke="black" paint-order="fill stroke markers" d=" M 70 145 L 74 145" stroke-linejoin="bevel" stroke-miterlimit="10"/><path fill="none" stroke="black" paint-order="fill stroke markers" d=" M 70 135 L 74 135" stroke-linejoin="bevel" stroke-miterlimit="10"/><path fill="none" stroke="black" paint-order="fill stroke markers" d=" M 70 124 L 74 124" stroke-linejoin="bevel" stroke-miterlimit="10"/><path fill="none" stroke="black" paint-order="fill stroke markers" d=" M 70 114 L 74 114" stroke-linejoin="bevel" stroke-miterlimit="10"/><path fill="none" stroke="black" paint-order="fill stroke markers" d=" M 70 103 L 74 103" stroke-linejoin="bevel" stroke-miterlimit="10"/><path fill="none" stroke="black" paint-order="fill stroke markers" d=" M 70 92 L 74 92" stroke-linejoin="bevel" stroke-miterlimit="10"/><path fill="none" stroke="black" paint-order="fill stroke markers" d=" M 70 82 L 74 82" stroke-linejoin="bevel" stroke-miterlimit="10"/><path fill="none" stroke="black" paint-order="fill stroke markers" d=" M 70 71 L 74 71" stroke-linejoin="bevel" stroke-miterlimit="10"/><path fill="none" stroke="black" paint-order="fill stroke markers" d=" M 70 61 L 74 61" stroke-linejoin="bevel" stroke-miterlimit="10"/><path fill="none" stroke="black" paint-order="fill stroke markers" d=" M 70 50 L 74 50" stroke-linejoin="bevel" stroke-miterlimit="10"/><path fill="" stroke="black" paint-order="fill stroke markers" d=" M 70 40 L 74 40" stroke-linejoin="bevel" stroke-miterlimit="10"/><g transform="translate(63,410) rotate(0,0,0)"><text fill="" stroke="none" font-family="helvetica" font-size="14pt" font-style="normal" font-weight="normal" text-decoration="normal" x="0" y="0" text-anchor="end" dominant-baseline="central">-2.5</text><g transform="rotate(0,0,0) translate(-63,-410) translate(63,357) rotate(0,0,0)"><text fill="" stroke="none" font-family="helvetica" font-size="14pt" font-style="normal" font-weight="normal" text-decoration="normal" x="0" y="0" text-anchor="end" dominant-baseline="central">-2</text><g transform="rotate(0,0,0) translate(-63,-357) translate(63,304) rotate(0,0,0)"><text fill="" stroke="none" font-family="helvetica" font-size="14pt" font-style="normal" font-weight="normal" text-decoration="normal" x="0" y="0" text-anchor="end" dominant-baseline="central">-1.5</text><g transform="rotate(0,0,0) translate(-63,-304) translate(63,251) rotate(0,0,0)"><text fill="" stroke="none" font-family="helvetica" font-size="14pt" font-style="normal" font-weight="normal" text-decoration="normal" x="0" y="0" text-anchor="end" dominant-baseline="central">-1</text><g transform="rotate(0,0,0) translate(-63,-251) translate(63,198) rotate(0,0,0)"><text fill="" stroke="none" font-family="helvetica" font-size="14pt" font-style="normal" font-weight="normal" text-decoration="normal" x="0" y="0" text-anchor="end" dominant-baseline="central">-0.5</text><g transform="rotate(0,0,0) translate(-63,-198) translate(63,145) rotate(0,0,0)"><text fill="" stroke="none" font-family="helvetica" font-size="14pt" font-style="normal" font-weight="normal" text-decoration="normal" x="0" y="0" text-anchor="end" dominant-baseline="central">0</text><g transform="rotate(0,0,0) translate(-63,-145) translate(63,92) rotate(0,0,0)"><text fill="" stroke="none" font-family="helvetica" font-size="14pt" font-style="normal" font-weight="normal" text-decoration="normal" x="0" y="0" text-anchor="end" dominant-baseline="central">0.5</text><g transform="rotate(0,0,0) translate(-63,-92) translate(63,40) rotate(0,0,0)"><text fill="" stroke="none" font-family="helvetica" font-size="14pt" font-style="normal" font-weight="normal" text-decoration="normal" x="0" y="0" text-anchor="end" dominant-baseline="central">1</text><g transform="rotate(0,0,0) translate(-63,-40) translate(23,236) rotate(-90,0,0)"><text fill="" stroke="none" font-family="helvetica" font-size="14pt" font-style="italic" font-weight="normal" text-decoration="normal" x="0" y="0" text-anchor="middle" dominant-baseline="alphabetic">R</text><g transform="rotate(90,0,0) translate(-23,-236)"/></g></g></g></g></g></g></g></g></g></g></g><g clip-path="url(#tHToRwhhxOly)"><g/></g></g></svg>