<svg version="1.1" xmlns="http://www.w3.org/2000/svg" xmlns:xlink="http://www.w3.org/1999/xlink" width="500" height="500" style="width: 500px; height: 500px;"><defs><clipPath id="KNpgnMkDgnyH"><path fill="none" stroke="none" d=" M 50 33 L 470 33 L 470 439 L 50 439 L 50 33 Z"/></clipPath><clipPath id="RopgEuAcuFgu"><path fill="none" stroke="none" d=" M 50 33 L 470 33 L 470 439 L 50 439 L 50 33 Z"/></clipPath><clipPath id="qUASrmhMevIG"><path fill="none" stroke="none" d=" M 50 33 L 470 33 L 470 439 L 50 439 L 50 33 Z"/></clipPath><clipPath id="gknlkQWOaTvy"><path fill="none" stroke="none" d=" M 50 33 L 470 33 L 470 439 L 50 439 L 50 33 Z"/></clipPath><clipPath id="shqvMyZdklAh"><path fill="none" stroke="none" d=" M 50 33 L 470 33 L 470 439 L 50 439 L 50 33 Z"/></clipPath><clipPath id="ViWcqmhETzpB"><path fill="none" stroke="none" d=" M 50 33 L 470 33 L 470 439 L 50 439 L 50 33 Z"/></clipPath><clipPath id="zBzesqiaIbQu"><path fill="none" stroke="none" d=" M 50 33 L 470 33 L 470 439 L 50 439 L 50 33 Z"/></clipPath><clipPath id="mwnwCPUNXBTz"><path fill="none" stroke="none" d=" M 50 33 L 470 33 L 470 439 L 50 439 L 50 33 Z"/></clipPath><clipPath id="VyuqiPuuzNBp"><path fill="none" stroke="none" d=" M 50 33 L 470 33 L 470 439 L 50 439 L 50 33 Z"/></clipPath><clipPath id="ZMbnDdTkQvxe"><path fill="none" stroke="none" d=" M 50 33 L 470 33 L 470 439 L 50 439 L 50 33 Z"/></clipPath><clipPath id="FoLbeDxAkfmV"><path fill="none" stroke="none" d=" M 50 33 L 470 33 L 470 439 L 50 439 L 50 33 Z"/></clipPath><clipPath id="WJETGqHiACJK"><path fill="none" stroke="none" d=" M 50 33 L 470 33 L 470 439 L 50 439 L 50 33 Z"/></clipPath></defs><g transform="scale(1,1) translate(0.5,0.5) scale(1,1) translate(0.5,0.5)"><rect fill="#ffffff" stroke="none" x="0" y="0" width="500" height="500"/><rect fill="#FFFFFF" stroke="none" x="50" y="33" width="420" height="406"/><rect fill="#ffffff" stroke="none" x="50" y="33" width="420" height="406"/><g><rect fill="none" stroke="#e5e5e5" x="50" y="33" width="420" height="406" stroke-linejoin="bevel" stroke-miterlimit="10"/></g><g clip-path="url(#zBzesqiaIbQu)"><g><g><path fill="none" stroke="#e5e5e5" paint-order="fill stroke markers" d=" M 69 439 L 69 33" stroke-linejoin="bevel" stroke-miterlimit="10"/><path fill="none" stroke="#e5e5e5" paint-order="fill stroke markers" d=" M 157 439 L 157 33" stroke-linejoin="bevel" stroke-miterlimit="10"/><path fill="none" stroke="#e5e5e5" paint-order="fill stroke markers" d=" M 245 439 L 245 33" stroke-linejoin="bevel" stroke-miterlimit="10"/><path fill="none" stroke="#e5e5e5" paint-order="fill stroke markers" d=" M 333 439 L 333 33" stroke-linejoin="bevel" stroke-miterlimit="10"/><path fill="none" stroke="#e5e5e5" paint-order="fill stroke markers" d=" M 421 439 L 421 33" stroke-linejoin="bevel" stroke-miterlimit="10"/></g></g></g><g clip-path="url(#mwnwCPUNXBTz)"><g><g><path fill="none" stroke="#e5e5e5" paint-order="fill stroke markers" d=" M 50 369 L 470 369" stroke-linejoin="bevel" stroke-miterlimit="10"/><path fill="none" stroke="#e5e5e5" paint-order="fill stroke markers" d=" M 50 274 L 470 274" stroke-linejoin="bevel" stroke-miterlimit="10"/><path fill="none" stroke="#e5e5e5" paint-order="fill stroke markers" d=" M 50 179 L 470 179" stroke-linejoin="bevel" stroke-miterlimit="10"/><path fill="none" stroke="#e5e5e5" paint-order="fill stroke markers" d=" M 50 84 L 470 84" stroke-linejoin="bevel" stroke-miterlimit="10"/></g></g></g><g clip-path="url(#VyuqiPuuzNBp)"><g><g><path fill="none" stroke="none"/><path fill="blue" stroke="blue" paint-order="fill stroke markers" d=" M 76.64154784358107 61.84665062356095 A 1.5 1.5 0 1 1 76.64154709358112 61.845150623810945" fill-opacity="0.3" stroke-linejoin="bevel" stroke-miterlimit="10"/><path fill="blue" stroke="blue" paint-order="fill stroke markers" d=" M 77.44621777945433 61.659500123164946 A 1.5 1.5 0 1 1 77.44621702945439 61.65800012341494" fill-opacity="0.3" stroke-linejoin="bevel" stroke-miterlimit="10"/><path fill="blue" stroke="blue" paint-order="fill stroke markers" d=" M 78.25088771532758 68.45592256068778 A 1.5 1.5 0 1 1 78.25088696532764 68.45442256093779" fill-opacity="0.3" stroke-linejoin="bevel" stroke-miterlimit="10"/><path fill="blue" stroke="blue" paint-order="fill stroke markers" d=" M 79.05555765120083 60.454422565520076 A 1.5 1.5 0 1 1 79.05555690120089 60.45292256577007" fill-opacity="0.3" stroke-linejoin="bevel" stroke-miterlimit="10"/><path fill="blue" stroke="blue" paint-order="fill stroke markers" d=" M 79.86025399220424 57.34747714968523 A 1.5 1.5 0 1 1 79.8602532422043 57.34597714993523" fill-opacity="0.3" stroke-linejoin="bevel" stroke-miterlimit="10"/><path fill="blue" stroke="blue" paint-order="fill stroke markers" d=" M 80.6649063246574 54.502827878423204 A 1.5 1.5 0 1 1 80.66490557465745 54.5013278786732" fill-opacity="0.3" stroke-linejoin="bevel" stroke-miterlimit="10"/><path fill="blue" stroke="blue" paint-order="fill stroke markers" d=" M 81.46955865711055 51.45454545454544 A 1.5 1.5 0 1 1 81.46955790711061 51.453045454795436" fill-opacity="0.3" stroke-linejoin="bevel" stroke-miterlimit="10"/><path fill="blue" stroke="blue" paint-order="fill stroke markers" d=" M 82.27421098956371 56.97637897029267 A 1.5 1.5 0 1 1 82.27421023956377 56.97487897054267" fill-opacity="0.3" stroke-linejoin="bevel" stroke-miterlimit="10"/><path fill="blue" stroke="blue" paint-order="fill stroke markers" d=" M 83.07895133911734 57.32816357985985 A 1.5 1.5 0 1 1 83.0789505891174 57.326663580109845" fill-opacity="0.3" stroke-linejoin="bevel" stroke-miterlimit="10"/><path fill="blue" stroke="blue" paint-order="fill stroke markers" d=" M 83.88360367157051 57.64734072849319 A 1.5 1.5 0 1 1 83.88360292157057 57.64584072874319" fill-opacity="0.3" stroke-linejoin="bevel" stroke-miterlimit="10"/><path fill="blue" stroke="blue" paint-order="fill stroke markers" d=" M 84.68825600402366 57.101522797673226 A 1.5 1.5 0 1 1 84.68825525402372 57.10002279792322" fill-opacity="0.3" stroke-linejoin="bevel" stroke-miterlimit="10"/><path fill="blue" stroke="blue" paint-order="fill stroke markers" d=" M 85.49290833647683 60.37961042928572 A 1.5 1.5 0 1 1 85.49290758647689 60.37811042953572" fill-opacity="0.3" stroke-linejoin="bevel" stroke-miterlimit="10"/><path fill="blue" stroke="blue" paint-order="fill stroke markers" d=" M 86.29764868603046 60.12071692281569 A 1.5 1.5 0 1 1 86.29764793603051 60.119216923065686" fill-opacity="0.3" stroke-linejoin="bevel" stroke-miterlimit="10"/><path fill="blue" stroke="blue" paint-order="fill stroke markers" d=" M 87.10230101848362 60.07101050385478 A 1.5 1.5 0 1 1 87.10230026848367 60.06951050410478" fill-opacity="0.3" stroke-linejoin="bevel" stroke-miterlimit="10"/><path fill="blue" stroke="blue" paint-order="fill stroke markers" d=" M 87.90695335093679 60.504330077027305 A 1.5 1.5 0 1 1 87.90695260093685 60.5028300772773" fill-opacity="0.3" stroke-linejoin="bevel" stroke-miterlimit="10"/><path fill="blue" stroke="blue" paint-order="fill stroke markers" d=" M 88.71160568338995 62.23731215772733 A 1.5 1.5 0 1 1 88.71160493339 62.23581215797733" fill-opacity="0.3" stroke-linejoin="bevel" stroke-miterlimit="10"/><path fill="blue" stroke="blue" paint-order="fill stroke markers" d=" M 89.5162580158431 64.62084816500607 A 1.5 1.5 0 1 1 89.51625726584317 64.61934816525607" fill-opacity="0.3" stroke-linejoin="bevel" stroke-miterlimit="10"/><path fill="blue" stroke="blue" paint-order="fill stroke markers" d=" M 90.32099836539673 64.71473140131098 A 1.5 1.5 0 1 1 90.32099761539679 64.71323140156099" fill-opacity="0.3" stroke-linejoin="bevel" stroke-miterlimit="10"/><path fill="blue" stroke="blue" paint-order="fill stroke markers" d=" M 91.12565069784989 65.76416995457004 A 1.5 1.5 0 1 1 91.12564994784995 65.76266995482004" fill-opacity="0.3" stroke-linejoin="bevel" stroke-miterlimit="10"/><path fill="blue" stroke="blue" paint-order="fill stroke markers" d=" M 91.93030303030307 68.57541238250928 A 1.5 1.5 0 1 1 91.93030228030312 68.57391238275929" fill-opacity="0.3" stroke-linejoin="bevel" stroke-miterlimit="10"/><path fill="blue" stroke="blue" paint-order="fill stroke markers" d=" M 92.73495536275621 67.58601953386267 A 1.5 1.5 0 1 1 92.73495461275627 67.58451953411267" fill-opacity="0.3" stroke-linejoin="bevel" stroke-miterlimit="10"/><path fill="blue" stroke="blue" paint-order="fill stroke markers" d=" M 93.53969571230985 69.67962984798743 A 1.5 1.5 0 1 1 93.53969496230991 69.67812984823743" fill-opacity="0.3" stroke-linejoin="bevel" stroke-miterlimit="10"/><path fill="blue" stroke="blue" paint-order="fill stroke markers" d=" M 94.34434804476301 73.0144889399948 A 1.5 1.5 0 1 1 94.34434729476307 73.01298894024481" fill-opacity="0.3" stroke-linejoin="bevel" stroke-miterlimit="10"/><path fill="blue" stroke="blue" paint-order="fill stroke markers" d=" M 95.14900037721617 72.5316616496018 A 1.5 1.5 0 1 1 95.14899962721623 72.5301616498518" fill-opacity="0.3" stroke-linejoin="bevel" stroke-miterlimit="10"/><path fill="blue" stroke="blue" paint-order="fill stroke markers" d=" M 95.95365270966933 71.93859646936772 A 1.5 1.5 0 1 1 95.95365195966939 71.93709646961773" fill-opacity="0.3" stroke-linejoin="bevel" stroke-miterlimit="10"/><path fill="blue" stroke="blue" paint-order="fill stroke markers" d=" M 96.75830504212249 72.68476451178338 A 1.5 1.5 0 1 1 96.75830429212255 72.68326451203339" fill-opacity="0.3" stroke-linejoin="bevel" stroke-miterlimit="10"/><path fill="blue" stroke="blue" paint-order="fill stroke markers" d=" M 97.56304539167613 74.03936399407496 A 1.5 1.5 0 1 1 97.56304464167619 74.03786399432497" fill-opacity="0.3" stroke-linejoin="bevel" stroke-miterlimit="10"/><path fill="blue" stroke="blue" paint-order="fill stroke markers" d=" M 98.36769772412929 78.0727975972826 A 1.5 1.5 0 1 1 98.36769697412934 78.0712975975326" fill-opacity="0.3" stroke-linejoin="bevel" stroke-miterlimit="10"/><path fill="blue" stroke="blue" paint-order="fill stroke markers" d=" M 99.17235005658245 80.83954372911296 A 1.5 1.5 0 1 1 99.1723493065825 80.83804372936297" fill-opacity="0.3" stroke-linejoin="bevel" stroke-miterlimit="10"/><path fill="blue" stroke="blue" paint-order="fill stroke markers" d=" M 99.9770023890356 83.03523113228397 A 1.5 1.5 0 1 1 99.97700163903566 83.03373113253397" fill-opacity="0.3" stroke-linejoin="bevel" stroke-miterlimit="10"/><path fill="blue" stroke="blue" paint-order="fill stroke markers" d=" M 100.78174273858923 82.57437923930547 A 1.5 1.5 0 1 1 100.78174198858929 82.57287923955548" fill-opacity="0.3" stroke-linejoin="bevel" stroke-miterlimit="10"/><path fill="blue" stroke="blue" paint-order="fill stroke markers" d=" M 101.5863950710424 86.25332224528023 A 1.5 1.5 0 1 1 101.58639432104246 86.25182224553024" fill-opacity="0.3" stroke-linejoin="bevel" stroke-miterlimit="10"/><path fill="blue" stroke="blue" paint-order="fill stroke markers" d=" M 102.39104740349556 83.3077419421387 A 1.5 1.5 0 1 1 102.39104665349562 83.30624194238871" fill-opacity="0.3" stroke-linejoin="bevel" stroke-miterlimit="10"/><path fill="blue" stroke="blue" paint-order="fill stroke markers" d=" M 103.19569973594872 83.60649959665187 A 1.5 1.5 0 1 1 103.19569898594878 83.60499959690188" fill-opacity="0.3" stroke-linejoin="bevel" stroke-miterlimit="10"/><path fill="blue" stroke="blue" paint-order="fill stroke markers" d=" M 104.0003520684019 89.4284583395551 A 1.5 1.5 0 1 1 104.00035131840195 89.42695833980511" fill-opacity="0.3" stroke-linejoin="bevel" stroke-miterlimit="10"/><path fill="blue" stroke="blue" paint-order="fill stroke markers" d=" M 104.8050924179555 90.02804682692886 A 1.5 1.5 0 1 1 104.80509166795557 90.02654682717886" fill-opacity="0.3" stroke-linejoin="bevel" stroke-miterlimit="10"/><path fill="blue" stroke="blue" paint-order="fill stroke markers" d=" M 105.60974475040868 87.2132834470691 A 1.5 1.5 0 1 1 105.60974400040874 87.2117834473191" fill-opacity="0.3" stroke-linejoin="bevel" stroke-miterlimit="10"/><path fill="blue" stroke="blue" paint-order="fill stroke markers" d=" M 106.41439708286184 89.69756731302664 A 1.5 1.5 0 1 1 106.4143963328619 89.69606731327664" fill-opacity="0.3" stroke-linejoin="bevel" stroke-miterlimit="10"/><path fill="blue" stroke="blue" paint-order="fill stroke markers" d=" M 107.219049415315 93.29185535191272 A 1.5 1.5 0 1 1 107.21904866531506 93.29035535216272" fill-opacity="0.3" stroke-linejoin="bevel" stroke-miterlimit="10"/><path fill="blue" stroke="blue" paint-order="fill stroke markers" d=" M 108.02370174776816 96.42812548124061 A 1.5 1.5 0 1 1 108.02370099776822 96.42662548149062" fill-opacity="0.3" stroke-linejoin="bevel" stroke-miterlimit="10"/><path fill="blue" stroke="blue" paint-order="fill stroke markers" d=" M 108.82844209732178 99.47490986430648 A 1.5 1.5 0 1 1 108.82844134732184 99.47340986455649" fill-opacity="0.3" stroke-linejoin="bevel" stroke-miterlimit="10"/><path fill="blue" stroke="blue" paint-order="fill stroke markers" d=" M 109.63309442977496 102.79782602884006 A 1.5 1.5 0 1 1 109.63309367977502 102.79632602909007" fill-opacity="0.3" stroke-linejoin="bevel" stroke-miterlimit="10"/><path fill="blue" stroke="blue" paint-order="fill stroke markers" d=" M 110.4377467622281 103.60381016602395 A 1.5 1.5 0 1 1 110.43774601222816 103.60231016627395" fill-opacity="0.3" stroke-linejoin="bevel" stroke-miterlimit="10"/><path fill="blue" stroke="blue" paint-order="fill stroke markers" d=" M 111.24239909468128 104.92929404989746 A 1.5 1.5 0 1 1 111.24239834468133 104.92779405014747" fill-opacity="0.3" stroke-linejoin="bevel" stroke-miterlimit="10"/><path fill="blue" stroke="blue" paint-order="fill stroke markers" d=" M 112.04713944423492 103.75244979997069 A 1.5 1.5 0 1 1 112.04713869423497 103.7509498002207" fill-opacity="0.3" stroke-linejoin="bevel" stroke-miterlimit="10"/><path fill="blue" stroke="blue" paint-order="fill stroke markers" d=" M 112.85179177668806 105.8565933233337 A 1.5 1.5 0 1 1 112.85179102668812 105.8550933235837" fill-opacity="0.3" stroke-linejoin="bevel" stroke-miterlimit="10"/><path fill="blue" stroke="blue" paint-order="fill stroke markers" d=" M 113.65644410914123 107.42822353751615 A 1.5 1.5 0 1 1 113.65644335914129 107.42672353776615" fill-opacity="0.3" stroke-linejoin="bevel" stroke-miterlimit="10"/><path fill="blue" stroke="blue" paint-order="fill stroke markers" d=" M 114.46109644159438 108.30519639006957 A 1.5 1.5 0 1 1 114.46109569159444 108.30369639031957" fill-opacity="0.3" stroke-linejoin="bevel" stroke-miterlimit="10"/><path fill="blue" stroke="blue" paint-order="fill stroke markers" d=" M 115.26574877404755 110.70081466631291 A 1.5 1.5 0 1 1 115.26574802404761 110.69931466656291" fill-opacity="0.3" stroke-linejoin="bevel" stroke-miterlimit="10"/><path fill="blue" stroke="blue" paint-order="fill stroke markers" d=" M 116.07048912360118 114.28784636410114 A 1.5 1.5 0 1 1 116.07048837360124 114.28634636435115" fill-opacity="0.3" stroke-linejoin="bevel" stroke-miterlimit="10"/><path fill="blue" stroke="blue" paint-order="fill stroke markers" d=" M 116.87514145605434 111.85435815646275 A 1.5 1.5 0 1 1 116.8751407060544 111.85285815671276" fill-opacity="0.3" stroke-linejoin="bevel" stroke-miterlimit="10"/><path fill="blue" stroke="blue" paint-order="fill stroke markers" d=" M 117.6797937885075 118.66725392722668 A 1.5 1.5 0 1 1 117.67979303850755 118.66575392747669" fill-opacity="0.3" stroke-linejoin="bevel" stroke-miterlimit="10"/><path fill="blue" stroke="blue" paint-order="fill stroke markers" d=" M 118.48444612096067 120.42011107654389 A 1.5 1.5 0 1 1 118.48444537096073 120.4186110767939" fill-opacity="0.3" stroke-linejoin="bevel" stroke-miterlimit="10"/><path fill="blue" stroke="blue" paint-order="fill stroke markers" d=" M 119.2891864705143 121.4244065503355 A 1.5 1.5 0 1 1 119.28918572051435 121.42290655058551" fill-opacity="0.3" stroke-linejoin="bevel" stroke-miterlimit="10"/><path fill="blue" stroke="blue" paint-order="fill stroke markers" d=" M 120.09383880296745 121.30029925298408 A 1.5 1.5 0 1 1 120.09383805296751 121.29879925323408" fill-opacity="0.3" stroke-linejoin="bevel" stroke-miterlimit="10"/><path fill="blue" stroke="blue" paint-order="fill stroke markers" d=" M 120.89849113542061 123.44218115936059 A 1.5 1.5 0 1 1 120.89849038542067 123.44068115961059" fill-opacity="0.3" stroke-linejoin="bevel" stroke-miterlimit="10"/><path fill="blue" stroke="blue" paint-order="fill stroke markers" d=" M 121.70314346787379 129.20900390547837 A 1.5 1.5 0 1 1 121.70314271787385 129.20750390572837" fill-opacity="0.3" stroke-linejoin="bevel" stroke-miterlimit="10"/><path fill="blue" stroke="blue" paint-order="fill stroke markers" d=" M 122.50779580032693 128.6721683317699 A 1.5 1.5 0 1 1 122.50779505032699 128.67066833201991" fill-opacity="0.3" stroke-linejoin="bevel" stroke-miterlimit="10"/><path fill="blue" stroke="blue" paint-order="fill stroke markers" d=" M 123.31253614988057 133.20934493596405 A 1.5 1.5 0 1 1 123.31253539988063 133.20784493621406" fill-opacity="0.3" stroke-linejoin="bevel" stroke-miterlimit="10"/><path fill="blue" stroke="blue" paint-order="fill stroke markers" d=" M 124.11718848233373 138.15680303886467 A 1.5 1.5 0 1 1 124.11718773233379 138.15530303911467" fill-opacity="0.3" stroke-linejoin="bevel" stroke-miterlimit="10"/><path fill="blue" stroke="blue" paint-order="fill stroke markers" d=" M 124.92184081478689 138.8262135927152 A 1.5 1.5 0 1 1 124.92184006478695 138.8247135929652" fill-opacity="0.3" stroke-linejoin="bevel" stroke-miterlimit="10"/><path fill="blue" stroke="blue" paint-order="fill stroke markers" d=" M 125.72649314724006 139.07817839465469 A 1.5 1.5 0 1 1 125.72649239724012 139.0766783949047" fill-opacity="0.3" stroke-linejoin="bevel" stroke-miterlimit="10"/><path fill="blue" stroke="blue" paint-order="fill stroke markers" d=" M 126.53123349679367 139.6083420028649 A 1.5 1.5 0 1 1 126.53123274679373 139.6068420031149" fill-opacity="0.3" stroke-linejoin="bevel" stroke-miterlimit="10"/><path fill="blue" stroke="blue" paint-order="fill stroke markers" d=" M 127.33588582924685 139.63004196988174 A 1.5 1.5 0 1 1 127.3358850792469 139.62854197013175" fill-opacity="0.3" stroke-linejoin="bevel" stroke-miterlimit="10"/><path fill="blue" stroke="blue" paint-order="fill stroke markers" d=" M 128.14053816170002 141.79021567968658 A 1.5 1.5 0 1 1 128.14053741170008 141.7887156799366" fill-opacity="0.3" stroke-linejoin="bevel" stroke-miterlimit="10"/><path fill="blue" stroke="blue" paint-order="fill stroke markers" d=" M 128.94519049415317 142.36177395912205 A 1.5 1.5 0 1 1 128.94518974415323 142.36027395937205" fill-opacity="0.3" stroke-linejoin="bevel" stroke-miterlimit="10"/><path fill="blue" stroke="blue" paint-order="fill stroke markers" d=" M 129.7498428266063 149.11607846584621 A 1.5 1.5 0 1 1 129.74984207660637 149.11457846609622" fill-opacity="0.3" stroke-linejoin="bevel" stroke-miterlimit="10"/><path fill="blue" stroke="blue" paint-order="fill stroke markers" d=" M 130.55458317615995 147.19925207982197 A 1.5 1.5 0 1 1 130.55458242616 147.19775208007198" fill-opacity="0.3" stroke-linejoin="bevel" stroke-miterlimit="10"/><path fill="blue" stroke="blue" paint-order="fill stroke markers" d=" M 131.35923550861312 147.5206239517433 A 1.5 1.5 0 1 1 131.35923475861318 147.5191239519933" fill-opacity="0.3" stroke-linejoin="bevel" stroke-miterlimit="10"/><path fill="blue" stroke="blue" paint-order="fill stroke markers" d=" M 132.1638878410663 157.31005357578005 A 1.5 1.5 0 1 1 132.16388709106636 157.30855357603005" fill-opacity="0.3" stroke-linejoin="bevel" stroke-miterlimit="10"/><path fill="blue" stroke="blue" paint-order="fill stroke markers" d=" M 132.96854017351944 157.78706552354498 A 1.5 1.5 0 1 1 132.9685394235195 157.785565523795" fill-opacity="0.3" stroke-linejoin="bevel" stroke-miterlimit="10"/><path fill="blue" stroke="blue" paint-order="fill stroke markers" d=" M 133.77328052307308 160.10896160907265 A 1.5 1.5 0 1 1 133.77327977307314 160.10746160932266" fill-opacity="0.3" stroke-linejoin="bevel" stroke-miterlimit="10"/><path fill="blue" stroke="blue" paint-order="fill stroke markers" d=" M 134.57793285552623 158.1617539498023 A 1.5 1.5 0 1 1 134.5779321055263 158.1602539500523" fill-opacity="0.3" stroke-linejoin="bevel" stroke-miterlimit="10"/><path fill="blue" stroke="blue" paint-order="fill stroke markers" d=" M 135.3825851879794 161.3333846370959 A 1.5 1.5 0 1 1 135.38258443797946 161.3318846373459" fill-opacity="0.3" stroke-linejoin="bevel" stroke-miterlimit="10"/><path fill="blue" stroke="blue" paint-order="fill stroke markers" d=" M 136.18723752043257 162.89158165228127 A 1.5 1.5 0 1 1 136.18723677043263 162.89008165253128" fill-opacity="0.3" stroke-linejoin="bevel" stroke-miterlimit="10"/><path fill="blue" stroke="blue" paint-order="fill stroke markers" d=" M 136.99188985288572 164.7087361285689 A 1.5 1.5 0 1 1 136.99188910288578 164.7072361288189" fill-opacity="0.3" stroke-linejoin="bevel" stroke-miterlimit="10"/><path fill="blue" stroke="blue" paint-order="fill stroke markers" d=" M 137.79663020243936 169.42785620561784 A 1.5 1.5 0 1 1 137.79662945243942 169.42635620586785" fill-opacity="0.3" stroke-linejoin="bevel" stroke-miterlimit="10"/><path fill="blue" stroke="blue" paint-order="fill stroke markers" d=" M 138.6012825348925 167.4976626006361 A 1.5 1.5 0 1 1 138.60128178489256 167.4961626008861" fill-opacity="0.3" stroke-linejoin="bevel" stroke-miterlimit="10"/><path fill="blue" stroke="blue" paint-order="fill stroke markers" d=" M 139.40593486734565 170.4436723668835 A 1.5 1.5 0 1 1 139.4059341173457 170.4421723671335" fill-opacity="0.3" stroke-linejoin="bevel" stroke-miterlimit="10"/><path fill="blue" stroke="blue" paint-order="fill stroke markers" d=" M 140.21058719979885 175.74779250839794 A 1.5 1.5 0 1 1 140.2105864497989 175.74629250864794" fill-opacity="0.3" stroke-linejoin="bevel" stroke-miterlimit="10"/><path fill="blue" stroke="blue" paint-order="fill stroke markers" d=" M 141.01532754935246 180.87341212835645 A 1.5 1.5 0 1 1 141.01532679935252 180.87191212860645" fill-opacity="0.3" stroke-linejoin="bevel" stroke-miterlimit="10"/><path fill="blue" stroke="blue" paint-order="fill stroke markers" d=" M 141.81997988180564 181.35679043915616 A 1.5 1.5 0 1 1 141.8199791318057 181.35529043940616" fill-opacity="0.3" stroke-linejoin="bevel" stroke-miterlimit="10"/><path fill="blue" stroke="blue" paint-order="fill stroke markers" d=" M 142.62463221425878 186.01786798733843 A 1.5 1.5 0 1 1 142.62463146425884 186.01636798758844" fill-opacity="0.3" stroke-linejoin="bevel" stroke-miterlimit="10"/><path fill="blue" stroke="blue" paint-order="fill stroke markers" d=" M 143.42928454671195 187.06781315348093 A 1.5 1.5 0 1 1 143.429283796712 187.06631315373093" fill-opacity="0.3" stroke-linejoin="bevel" stroke-miterlimit="10"/><path fill="blue" stroke="blue" paint-order="fill stroke markers" d=" M 144.2339368791651 186.7600955961376 A 1.5 1.5 0 1 1 144.23393612916516 186.7585955963876" fill-opacity="0.3" stroke-linejoin="bevel" stroke-miterlimit="10"/><path fill="blue" stroke="blue" paint-order="fill stroke markers" d=" M 145.03867722871874 193.27952762761697 A 1.5 1.5 0 1 1 145.0386764787188 193.27802762786698" fill-opacity="0.3" stroke-linejoin="bevel" stroke-miterlimit="10"/><path fill="blue" stroke="blue" paint-order="fill stroke markers" d=" M 145.8433295611719 192.649386051544 A 1.5 1.5 0 1 1 145.84332881117197 192.64788605179402" fill-opacity="0.3" stroke-linejoin="bevel" stroke-miterlimit="10"/><path fill="blue" stroke="blue" paint-order="fill stroke markers" d=" M 146.64798189362506 189.48223480522347 A 1.5 1.5 0 1 1 146.64798114362512 189.48073480547347" fill-opacity="0.3" stroke-linejoin="bevel" stroke-miterlimit="10"/><path fill="blue" stroke="blue" paint-order="fill stroke markers" d=" M 147.45263422607823 188.58596006732995 A 1.5 1.5 0 1 1 147.4526334760783 188.58446006757995" fill-opacity="0.3" stroke-linejoin="bevel" stroke-miterlimit="10"/><path fill="blue" stroke="blue" paint-order="fill stroke markers" d=" M 148.2572865585314 199.92388474302703 A 1.5 1.5 0 1 1 148.25728580853146 199.92238474327704" fill-opacity="0.3" stroke-linejoin="bevel" stroke-miterlimit="10"/><path fill="blue" stroke="blue" paint-order="fill stroke markers" d=" M 149.062026908085 197.65283409882062 A 1.5 1.5 0 1 1 149.06202615808505 197.65133409907062" fill-opacity="0.3" stroke-linejoin="bevel" stroke-miterlimit="10"/><path fill="blue" stroke="blue" paint-order="fill stroke markers" d=" M 149.8666792405382 204.52646473973272 A 1.5 1.5 0 1 1 149.86667849053825 204.52496473998272" fill-opacity="0.3" stroke-linejoin="bevel" stroke-miterlimit="10"/><path fill="blue" stroke="blue" paint-order="fill stroke markers" d=" M 150.67133157299133 207.68912584492386 A 1.5 1.5 0 1 1 150.6713308229914 207.68762584517387" fill-opacity="0.3" stroke-linejoin="bevel" stroke-miterlimit="10"/><path fill="blue" stroke="blue" paint-order="fill stroke markers" d=" M 151.4759839054445 207.48951732193086 A 1.5 1.5 0 1 1 151.47598315544457 207.48801732218087" fill-opacity="0.3" stroke-linejoin="bevel" stroke-miterlimit="10"/><path fill="blue" stroke="blue" paint-order="fill stroke markers" d=" M 152.28072425499812 210.78084040857044 A 1.5 1.5 0 1 1 152.28072350499818 210.77934040882045" fill-opacity="0.3" stroke-linejoin="bevel" stroke-miterlimit="10"/><path fill="blue" stroke="blue" paint-order="fill stroke markers" d=" M 153.0853765874513 207.2575596451003 A 1.5 1.5 0 1 1 153.08537583745135 207.2560596453503" fill-opacity="0.3" stroke-linejoin="bevel" stroke-miterlimit="10"/><path fill="blue" stroke="blue" paint-order="fill stroke markers" d=" M 153.89002891990447 207.58574671486696 A 1.5 1.5 0 1 1 153.89002816990453 207.58424671511696" fill-opacity="0.3" stroke-linejoin="bevel" stroke-miterlimit="10"/><path fill="blue" stroke="blue" paint-order="fill stroke markers" d=" M 154.6946812523576 209.74465275751447 A 1.5 1.5 0 1 1 154.69468050235767 209.74315275776448" fill-opacity="0.3" stroke-linejoin="bevel" stroke-miterlimit="10"/><path fill="blue" stroke="blue" paint-order="fill stroke markers" d=" M 155.49933358481078 208.84568177293426 A 1.5 1.5 0 1 1 155.49933283481084 208.84418177318426" fill-opacity="0.3" stroke-linejoin="bevel" stroke-miterlimit="10"/><path fill="blue" stroke="blue" paint-order="fill stroke markers" d=" M 156.3040739343644 218.83579053490644 A 1.5 1.5 0 1 1 156.30407318436446 218.83429053515644" fill-opacity="0.3" stroke-linejoin="bevel" stroke-miterlimit="10"/><path fill="blue" stroke="blue" paint-order="fill stroke markers" d=" M 157.10872626681757 219.5442409623393 A 1.5 1.5 0 1 1 157.10872551681763 219.5427409625893" fill-opacity="0.3" stroke-linejoin="bevel" stroke-miterlimit="10"/><path fill="blue" stroke="blue" paint-order="fill stroke markers" d=" M 157.91337859927074 218.01457793536787 A 1.5 1.5 0 1 1 157.9133778492708 218.01307793561787" fill-opacity="0.3" stroke-linejoin="bevel" stroke-miterlimit="10"/><path fill="blue" stroke="blue" paint-order="fill stroke markers" d=" M 158.7180309317239 225.2239938457035 A 1.5 1.5 0 1 1 158.71803018172395 225.2224938459535" fill-opacity="0.3" stroke-linejoin="bevel" stroke-miterlimit="10"/><path fill="blue" stroke="blue" paint-order="fill stroke markers" d=" M 159.52250722997613 230.39170674601934 A 1.5 1.5 0 1 1 159.5225064799762 230.39020674626934" fill-opacity="0.3" stroke-linejoin="bevel" stroke-miterlimit="10"/><path fill="blue" stroke="blue" paint-order="fill stroke markers" d=" M 160.32698352822837 230.76862383447138 A 1.5 1.5 0 1 1 160.32698277822843 230.7671238347214" fill-opacity="0.3" stroke-linejoin="bevel" stroke-miterlimit="10"/><path fill="blue" stroke="blue" paint-order="fill stroke markers" d=" M 161.13233999748525 230.57997833905694 A 1.5 1.5 0 1 1 161.1323392474853 230.57847833930694" fill-opacity="0.3" stroke-linejoin="bevel" stroke-miterlimit="10"/><path fill="blue" stroke="blue" paint-order="fill stroke markers" d=" M 161.93681629573746 234.00016368536456 A 1.5 1.5 0 1 1 161.93681554573752 233.99866368561456" fill-opacity="0.3" stroke-linejoin="bevel" stroke-miterlimit="10"/><path fill="blue" stroke="blue" paint-order="fill stroke markers" d=" M 162.7412925939897 241.5421111467266 A 1.5 1.5 0 1 1 162.74129184398976 241.5406111469766" fill-opacity="0.3" stroke-linejoin="bevel" stroke-miterlimit="10"/><path fill="blue" stroke="blue" paint-order="fill stroke markers" d=" M 163.54576889224194 238.6913023029527 A 1.5 1.5 0 1 1 163.545768142242 238.6898023032027" fill-opacity="0.3" stroke-linejoin="bevel" stroke-miterlimit="10"/><path fill="blue" stroke="blue" paint-order="fill stroke markers" d=" M 164.35112536149882 241.6126412747367 A 1.5 1.5 0 1 1 164.35112461149888 241.6111412749867" fill-opacity="0.3" stroke-linejoin="bevel" stroke-miterlimit="10"/><path fill="blue" stroke="blue" paint-order="fill stroke markers" d=" M 165.15560165975108 246.67362933177134 A 1.5 1.5 0 1 1 165.15560090975114 246.67212933202134" fill-opacity="0.3" stroke-linejoin="bevel" stroke-miterlimit="10"/><path fill="blue" stroke="blue" paint-order="fill stroke markers" d=" M 165.9600779580033 246.12629169800977 A 1.5 1.5 0 1 1 165.96007720800336 246.12479169825977" fill-opacity="0.3" stroke-linejoin="bevel" stroke-miterlimit="10"/><path fill="blue" stroke="blue" paint-order="fill stroke markers" d=" M 166.7645542562555 250.88368633296977 A 1.5 1.5 0 1 1 166.76455350625557 250.88218633321978" fill-opacity="0.3" stroke-linejoin="bevel" stroke-miterlimit="10"/><path fill="blue" stroke="blue" paint-order="fill stroke markers" d=" M 167.56903055450772 250.74302772065175 A 1.5 1.5 0 1 1 167.56902980450778 250.74152772090176" fill-opacity="0.3" stroke-linejoin="bevel" stroke-miterlimit="10"/><path fill="blue" stroke="blue" paint-order="fill stroke markers" d=" M 168.37438702376463 252.73145874291646 A 1.5 1.5 0 1 1 168.37438627376469 252.72995874316646" fill-opacity="0.3" stroke-linejoin="bevel" stroke-miterlimit="10"/><path fill="blue" stroke="blue" paint-order="fill stroke markers" d=" M 169.17886332201687 258.06827368751993 A 1.5 1.5 0 1 1 169.17886257201693 258.0667736877699" fill-opacity="0.3" stroke-linejoin="bevel" stroke-miterlimit="10"/><path fill="blue" stroke="blue" paint-order="fill stroke markers" d=" M 169.98333962026908 258.0602833641247 A 1.5 1.5 0 1 1 169.98333887026914 258.0587833643747" fill-opacity="0.3" stroke-linejoin="bevel" stroke-miterlimit="10"/><path fill="blue" stroke="blue" paint-order="fill stroke markers" d=" M 170.78781591852132 260.5864545657368 A 1.5 1.5 0 1 1 170.78781516852138 260.5849545659868" fill-opacity="0.3" stroke-linejoin="bevel" stroke-miterlimit="10"/><path fill="blue" stroke="blue" paint-order="fill stroke markers" d=" M 171.5931723877782 251.1581996604217 A 1.5 1.5 0 1 1 171.59317163777825 251.1566996606717" fill-opacity="0.3" stroke-linejoin="bevel" stroke-miterlimit="10"/><path fill="blue" stroke="blue" paint-order="fill stroke markers" d=" M 172.39764868603044 251.7208283919984 A 1.5 1.5 0 1 1 172.3976479360305 251.7193283922484" fill-opacity="0.3" stroke-linejoin="bevel" stroke-miterlimit="10"/><path fill="blue" stroke="blue" paint-order="fill stroke markers" d=" M 173.20212498428268 246.41564498413902 A 1.5 1.5 0 1 1 173.20212423428273 246.41414498438903" fill-opacity="0.3" stroke-linejoin="bevel" stroke-miterlimit="10"/><path fill="blue" stroke="blue" paint-order="fill stroke markers" d=" M 174.00660128253492 254.1086858939732 A 1.5 1.5 0 1 1 174.00660053253497 254.1071858942232" fill-opacity="0.3" stroke-linejoin="bevel" stroke-miterlimit="10"/><path fill="blue" stroke="blue" paint-order="fill stroke markers" d=" M 174.81107758078713 258.29227606572596 A 1.5 1.5 0 1 1 174.8110768307872 258.29077606597593" fill-opacity="0.3" stroke-linejoin="bevel" stroke-miterlimit="10"/><path fill="blue" stroke="blue" paint-order="fill stroke markers" d=" M 175.616434050044 263.33777870235605 A 1.5 1.5 0 1 1 175.61643330004406 263.336278702606" fill-opacity="0.3" stroke-linejoin="bevel" stroke-miterlimit="10"/><path fill="blue" stroke="blue" paint-order="fill stroke markers" d=" M 176.42091034829625 270.5475997414562 A 1.5 1.5 0 1 1 176.4209095982963 270.5460997417062" fill-opacity="0.3" stroke-linejoin="bevel" stroke-miterlimit="10"/><path fill="blue" stroke="blue" paint-order="fill stroke markers" d=" M 177.2253866465485 269.0333851404884 A 1.5 1.5 0 1 1 177.22538589654854 269.0318851407384" fill-opacity="0.3" stroke-linejoin="bevel" stroke-miterlimit="10"/><path fill="blue" stroke="blue" paint-order="fill stroke markers" d=" M 178.0298629448007 281.67192206059923 A 1.5 1.5 0 1 1 178.02986219480076 281.6704220608492" fill-opacity="0.3" stroke-linejoin="bevel" stroke-miterlimit="10"/><path fill="blue" stroke="blue" paint-order="fill stroke markers" d=" M 178.83521941405758 270.05679355131804 A 1.5 1.5 0 1 1 178.83521866405763 270.055293551568" fill-opacity="0.3" stroke-linejoin="bevel" stroke-miterlimit="10"/><path fill="blue" stroke="blue" paint-order="fill stroke markers" d=" M 179.63969571230984 282.2576729268065 A 1.5 1.5 0 1 1 179.6396949623099 282.25617292705647" fill-opacity="0.3" stroke-linejoin="bevel" stroke-miterlimit="10"/><path fill="blue" stroke="blue" paint-order="fill stroke markers" d=" M 180.44417201056206 283.28890445815495 A 1.5 1.5 0 1 1 180.44417126056211 283.2874044584049" fill-opacity="0.3" stroke-linejoin="bevel" stroke-miterlimit="10"/><path fill="blue" stroke="blue" paint-order="fill stroke markers" d=" M 181.2486483088143 290.09177061680356 A 1.5 1.5 0 1 1 181.24864755881435 290.09027061705353" fill-opacity="0.3" stroke-linejoin="bevel" stroke-miterlimit="10"/><path fill="blue" stroke="blue" paint-order="fill stroke markers" d=" M 182.05312460706654 288.41080070310056 A 1.5 1.5 0 1 1 182.0531238570666 288.40930070335054" fill-opacity="0.3" stroke-linejoin="bevel" stroke-miterlimit="10"/><path fill="blue" stroke="blue" paint-order="fill stroke markers" d=" M 182.85848107632341 280.07696801520353 A 1.5 1.5 0 1 1 182.85848032632347 280.0754680154535" fill-opacity="0.3" stroke-linejoin="bevel" stroke-miterlimit="10"/><path fill="blue" stroke="blue" paint-order="fill stroke markers" d=" M 183.66295737457563 282.9093120873337 A 1.5 1.5 0 1 1 183.66295662457568 282.9078120875837" fill-opacity="0.3" stroke-linejoin="bevel" stroke-miterlimit="10"/><path fill="blue" stroke="blue" paint-order="fill stroke markers" d=" M 184.4674336728279 282.14949969563713 A 1.5 1.5 0 1 1 184.46743292282795 282.1479996958871" fill-opacity="0.3" stroke-linejoin="bevel" stroke-miterlimit="10"/><path fill="blue" stroke="blue" paint-order="fill stroke markers" d=" M 185.2719099710801 284.82262744472865 A 1.5 1.5 0 1 1 185.27190922108016 284.82112744497863" fill-opacity="0.3" stroke-linejoin="bevel" stroke-miterlimit="10"/><path fill="blue" stroke="blue" paint-order="fill stroke markers" d=" M 186.07726644033698 281.7641692413264 A 1.5 1.5 0 1 1 186.07726569033704 281.76266924157636" fill-opacity="0.3" stroke-linejoin="bevel" stroke-miterlimit="10"/><path fill="blue" stroke="blue" paint-order="fill stroke markers" d=" M 186.8817427385892 288.68614718979364 A 1.5 1.5 0 1 1 186.88174198858925 288.6846471900436" fill-opacity="0.3" stroke-linejoin="bevel" stroke-miterlimit="10"/><path fill="blue" stroke="blue" paint-order="fill stroke markers" d=" M 187.68621903684144 278.11774649435523 A 1.5 1.5 0 1 1 187.6862182868415 278.1162464946052" fill-opacity="0.3" stroke-linejoin="bevel" stroke-miterlimit="10"/><path fill="blue" stroke="blue" paint-order="fill stroke markers" d=" M 188.49069533509368 292.0255413198349 A 1.5 1.5 0 1 1 188.49069458509373 292.02404132008485" fill-opacity="0.3" stroke-linejoin="bevel" stroke-miterlimit="10"/><path fill="blue" stroke="blue" paint-order="fill stroke markers" d=" M 189.29517163334594 290.78272505934973 A 1.5 1.5 0 1 1 189.295170883346 290.7812250595997" fill-opacity="0.3" stroke-linejoin="bevel" stroke-miterlimit="10"/><path fill="blue" stroke="blue" paint-order="fill stroke markers" d=" M 190.10052810260282 296.0034355372961 A 1.5 1.5 0 1 1 190.10052735260288 296.0019355375461" fill-opacity="0.3" stroke-linejoin="bevel" stroke-miterlimit="10"/><path fill="blue" stroke="blue" paint-order="fill stroke markers" d=" M 190.90500440085503 295.12593308933276 A 1.5 1.5 0 1 1 190.9050036508551 295.12443308958274" fill-opacity="0.3" stroke-linejoin="bevel" stroke-miterlimit="10"/><path fill="blue" stroke="blue" paint-order="fill stroke markers" d=" M 191.70948069910725 303.89295459752304 A 1.5 1.5 0 1 1 191.7094799491073 303.891454597773" fill-opacity="0.3" stroke-linejoin="bevel" stroke-miterlimit="10"/><path fill="blue" stroke="blue" paint-order="fill stroke markers" d=" M 192.51395699735951 280.33420630796604 A 1.5 1.5 0 1 1 192.51395624735957 280.332706308216" fill-opacity="0.3" stroke-linejoin="bevel" stroke-miterlimit="10"/><path fill="blue" stroke="blue" paint-order="fill stroke markers" d=" M 193.3193134666164 280.3089560447943 A 1.5 1.5 0 1 1 193.31931271661645 280.30745604504426" fill-opacity="0.3" stroke-linejoin="bevel" stroke-miterlimit="10"/><path fill="blue" stroke="blue" paint-order="fill stroke markers" d=" M 194.1237897648686 292.52955389050516 A 1.5 1.5 0 1 1 194.12378901486866 292.52805389075513" fill-opacity="0.3" stroke-linejoin="bevel" stroke-miterlimit="10"/><path fill="blue" stroke="blue" paint-order="fill stroke markers" d=" M 194.92826606312082 312.3489084029075 A 1.5 1.5 0 1 1 194.92826531312087 312.3474084031575" fill-opacity="0.3" stroke-linejoin="bevel" stroke-miterlimit="10"/><path fill="blue" stroke="blue" paint-order="fill stroke markers" d=" M 195.73274236137308 297.34716037875074 A 1.5 1.5 0 1 1 195.73274161137314 297.3456603790007" fill-opacity="0.3" stroke-linejoin="bevel" stroke-miterlimit="10"/><path fill="blue" stroke="blue" paint-order="fill stroke markers" d=" M 196.5372186596253 291.3992632125521 A 1.5 1.5 0 1 1 196.53721790962535 291.3977632128021" fill-opacity="0.3" stroke-linejoin="bevel" stroke-miterlimit="10"/><path fill="blue" stroke="blue" paint-order="fill stroke markers" d=" M 197.34257512888217 292.4549289259136 A 1.5 1.5 0 1 1 197.34257437888223 292.45342892616355" fill-opacity="0.3" stroke-linejoin="bevel" stroke-miterlimit="10"/><path fill="blue" stroke="blue" paint-order="fill stroke markers" d=" M 198.14705142713441 293.6676441963354 A 1.5 1.5 0 1 1 198.14705067713447 293.6661441965854" fill-opacity="0.3" stroke-linejoin="bevel" stroke-miterlimit="10"/><path fill="blue" stroke="blue" paint-order="fill stroke markers" d=" M 198.95152772538665 301.2630692869036 A 1.5 1.5 0 1 1 198.9515269753867 301.2615692871536" fill-opacity="0.3" stroke-linejoin="bevel" stroke-miterlimit="10"/><path fill="blue" stroke="blue" paint-order="fill stroke markers" d=" M 199.75600402363887 301.14981489444494 A 1.5 1.5 0 1 1 199.75600327363892 301.1483148946949" fill-opacity="0.3" stroke-linejoin="bevel" stroke-miterlimit="10"/><path fill="blue" stroke="blue" paint-order="fill stroke markers" d=" M 200.56136049289574 301.9264247991064 A 1.5 1.5 0 1 1 200.5613597428958 301.9249247993564" fill-opacity="0.3" stroke-linejoin="bevel" stroke-miterlimit="10"/><path fill="blue" stroke="blue" paint-order="fill stroke markers" d=" M 201.36583679114798 318.2974665888063 A 1.5 1.5 0 1 1 201.36583604114804 318.29596658905626" fill-opacity="0.3" stroke-linejoin="bevel" stroke-miterlimit="10"/><path fill="blue" stroke="blue" paint-order="fill stroke markers" d=" M 202.17031308940022 314.1992389205747 A 1.5 1.5 0 1 1 202.17031233940028 314.1977389208247" fill-opacity="0.3" stroke-linejoin="bevel" stroke-miterlimit="10"/><path fill="blue" stroke="blue" paint-order="fill stroke markers" d=" M 202.97478938765246 306.185744866592 A 1.5 1.5 0 1 1 202.97478863765252 306.184244866842" fill-opacity="0.3" stroke-linejoin="bevel" stroke-miterlimit="10"/><path fill="blue" stroke="blue" paint-order="fill stroke markers" d=" M 203.7792656859047 303.0360023872422 A 1.5 1.5 0 1 1 203.77926493590476 303.0345023874922" fill-opacity="0.3" stroke-linejoin="bevel" stroke-miterlimit="10"/><path fill="blue" stroke="blue" paint-order="fill stroke markers" d=" M 204.58462215516158 295.6407796855848 A 1.5 1.5 0 1 1 204.58462140516164 295.63927968583477" fill-opacity="0.3" stroke-linejoin="bevel" stroke-miterlimit="10"/><path fill="blue" stroke="blue" paint-order="fill stroke markers" d=" M 205.38909845341382 306.61770997875425 A 1.5 1.5 0 1 1 205.38909770341388 306.6162099790042" fill-opacity="0.3" stroke-linejoin="bevel" stroke-miterlimit="10"/><path fill="blue" stroke="blue" paint-order="fill stroke markers" d=" M 206.19357475166603 319.6630370765131 A 1.5 1.5 0 1 1 206.1935740016661 319.66153707676307" fill-opacity="0.3" stroke-linejoin="bevel" stroke-miterlimit="10"/><path fill="blue" stroke="blue" paint-order="fill stroke markers" d=" M 206.99805104991827 310.6242108449136 A 1.5 1.5 0 1 1 206.99805029991833 310.62271084516357" fill-opacity="0.3" stroke-linejoin="bevel" stroke-miterlimit="10"/><path fill="blue" stroke="blue" paint-order="fill stroke markers" d=" M 207.80340751917518 318.72777695908434 A 1.5 1.5 0 1 1 207.80340676917524 318.7262769593343" fill-opacity="0.3" stroke-linejoin="bevel" stroke-miterlimit="10"/><path fill="blue" stroke="blue" paint-order="fill stroke markers" d=" M 208.6078838174274 321.3825157480426 A 1.5 1.5 0 1 1 208.60788306742745 321.38101574829255" fill-opacity="0.3" stroke-linejoin="bevel" stroke-miterlimit="10"/><path fill="blue" stroke="blue" paint-order="fill stroke markers" d=" M 209.41236011567963 317.6818230263623 A 1.5 1.5 0 1 1 209.4123593656797 317.68032302661226" fill-opacity="0.3" stroke-linejoin="bevel" stroke-miterlimit="10"/><path fill="blue" stroke="blue" paint-order="fill stroke markers" d=" M 210.21683641393184 307.58846232910696 A 1.5 1.5 0 1 1 210.2168356639319 307.58696232935694" fill-opacity="0.3" stroke-linejoin="bevel" stroke-miterlimit="10"/><path fill="blue" stroke="blue" paint-order="fill stroke markers" d=" M 211.02131271218408 320.58444723853034 A 1.5 1.5 0 1 1 211.02131196218414 320.5829472387803" fill-opacity="0.3" stroke-linejoin="bevel" stroke-miterlimit="10"/><path fill="blue" stroke="blue" paint-order="fill stroke markers" d=" M 211.82666918144096 325.31431211688385 A 1.5 1.5 0 1 1 211.82666843144102 325.31281211713383" fill-opacity="0.3" stroke-linejoin="bevel" stroke-miterlimit="10"/><path fill="blue" stroke="blue" paint-order="fill stroke markers" d=" M 212.6311454796932 315.0616279660709 A 1.5 1.5 0 1 1 212.63114472969326 315.06012796632086" fill-opacity="0.3" stroke-linejoin="bevel" stroke-miterlimit="10"/><path fill="blue" stroke="blue" paint-order="fill stroke markers" d=" M 213.4356217779454 309.2241956816563 A 1.5 1.5 0 1 1 213.43562102794547 309.22269568190626" fill-opacity="0.3" stroke-linejoin="bevel" stroke-miterlimit="10"/><path fill="blue" stroke="blue" paint-order="fill stroke markers" d=" M 214.24009807619765 299.6401404170253 A 1.5 1.5 0 1 1 214.2400973261977 299.63864041727527" fill-opacity="0.3" stroke-linejoin="bevel" stroke-miterlimit="10"/><path fill="blue" stroke="blue" paint-order="fill stroke markers" d=" M 215.04545454545453 308.2502207828069 A 1.5 1.5 0 1 1 215.0454537954546 308.24872078305685" fill-opacity="0.3" stroke-linejoin="bevel" stroke-miterlimit="10"/><path fill="blue" stroke="blue" paint-order="fill stroke markers" d=" M 215.84993084370677 309.25774725874385 A 1.5 1.5 0 1 1 215.84993009370683 309.2562472589938" fill-opacity="0.3" stroke-linejoin="bevel" stroke-miterlimit="10"/><path fill="blue" stroke="blue" paint-order="fill stroke markers" d=" M 216.654407141959 307.4472547673506 A 1.5 1.5 0 1 1 216.65440639195907 307.4457547676006" fill-opacity="0.3" stroke-linejoin="bevel" stroke-miterlimit="10"/><path fill="blue" stroke="blue" paint-order="fill stroke markers" d=" M 217.45888344021125 312.20044945453196 A 1.5 1.5 0 1 1 217.4588826902113 312.19894945478194" fill-opacity="0.3" stroke-linejoin="bevel" stroke-miterlimit="10"/><path fill="blue" stroke="blue" paint-order="fill stroke markers" d=" M 218.2633597384635 307.3800867794955 A 1.5 1.5 0 1 1 218.26335898846355 307.3785867797455" fill-opacity="0.3" stroke-linejoin="bevel" stroke-miterlimit="10"/><path fill="blue" stroke="blue" paint-order="fill stroke markers" d=" M 219.06871620772037 317.89159446622295 A 1.5 1.5 0 1 1 219.06871545772043 317.89009446647293" fill-opacity="0.3" stroke-linejoin="bevel" stroke-miterlimit="10"/><path fill="blue" stroke="blue" paint-order="fill stroke markers" d=" M 219.8731925059726 321.20372391304545 A 1.5 1.5 0 1 1 219.87319175597267 321.2022239132954" fill-opacity="0.3" stroke-linejoin="bevel" stroke-miterlimit="10"/><path fill="blue" stroke="blue" paint-order="fill stroke markers" d=" M 220.67766880422482 320.6539146515481 A 1.5 1.5 0 1 1 220.67766805422488 320.6524146517981" fill-opacity="0.3" stroke-linejoin="bevel" stroke-miterlimit="10"/><path fill="blue" stroke="blue" paint-order="fill stroke markers" d=" M 221.48214510247706 320.36865071528666 A 1.5 1.5 0 1 1 221.48214435247712 320.36715071553664" fill-opacity="0.3" stroke-linejoin="bevel" stroke-miterlimit="10"/><path fill="blue" stroke="blue" paint-order="fill stroke markers" d=" M 222.28750157173394 319.0840665376426 A 1.5 1.5 0 1 1 222.287500821734 319.0825665378926" fill-opacity="0.3" stroke-linejoin="bevel" stroke-miterlimit="10"/><path fill="blue" stroke="blue" paint-order="fill stroke markers" d=" M 223.09197786998615 318.6294642606807 A 1.5 1.5 0 1 1 223.0919771199862 318.6279642609307" fill-opacity="0.3" stroke-linejoin="bevel" stroke-miterlimit="10"/><path fill="blue" stroke="blue" paint-order="fill stroke markers" d=" M 223.8964541682384 318.8868050389441 A 1.5 1.5 0 1 1 223.89645341823845 318.88530503919407" fill-opacity="0.3" stroke-linejoin="bevel" stroke-miterlimit="10"/><path fill="blue" stroke="blue" paint-order="fill stroke markers" d=" M 224.70093046649063 324.51482535843616 A 1.5 1.5 0 1 1 224.7009297164907 324.51332535868613" fill-opacity="0.3" stroke-linejoin="bevel" stroke-miterlimit="10"/><path fill="blue" stroke="blue" paint-order="fill stroke markers" d=" M 225.50540676474284 324.53895362522695 A 1.5 1.5 0 1 1 225.5054060147429 324.5374536254769" fill-opacity="0.3" stroke-linejoin="bevel" stroke-miterlimit="10"/><path fill="blue" stroke="blue" paint-order="fill stroke markers" d=" M 226.31076323399975 317.12220691225167 A 1.5 1.5 0 1 1 226.3107624839998 317.12070691250165" fill-opacity="0.3" stroke-linejoin="bevel" stroke-miterlimit="10"/><path fill="blue" stroke="blue" paint-order="fill stroke markers" d=" M 227.115239532252 332.935058682857 A 1.5 1.5 0 1 1 227.11523878225205 332.933558683107" fill-opacity="0.3" stroke-linejoin="bevel" stroke-miterlimit="10"/><path fill="blue" stroke="blue" paint-order="fill stroke markers" d=" M 227.9197158305042 336.2523430170717 A 1.5 1.5 0 1 1 227.91971508050426 336.2508430173217" fill-opacity="0.3" stroke-linejoin="bevel" stroke-miterlimit="10"/><path fill="blue" stroke="blue" paint-order="fill stroke markers" d=" M 228.72419212875644 325.38732750931615 A 1.5 1.5 0 1 1 228.7241913787565 325.3858275095661" fill-opacity="0.3" stroke-linejoin="bevel" stroke-miterlimit="10"/><path fill="blue" stroke="blue" paint-order="fill stroke markers" d=" M 229.52954859801332 328.9429044685886 A 1.5 1.5 0 1 1 229.52954784801338 328.9414044688386" fill-opacity="0.3" stroke-linejoin="bevel" stroke-miterlimit="10"/><path fill="blue" stroke="blue" paint-order="fill stroke markers" d=" M 230.3340248962656 323.55468614130564 A 1.5 1.5 0 1 1 230.33402414626565 323.5531861415556" fill-opacity="0.3" stroke-linejoin="bevel" stroke-miterlimit="10"/><path fill="blue" stroke="blue" paint-order="fill stroke markers" d=" M 231.1385011945178 334.0754173060465 A 1.5 1.5 0 1 1 231.13850044451786 334.0739173062965" fill-opacity="0.3" stroke-linejoin="bevel" stroke-miterlimit="10"/><path fill="blue" stroke="blue" paint-order="fill stroke markers" d=" M 231.94297749277004 356.74794912472396 A 1.5 1.5 0 1 1 231.9429767427701 356.74644912497394" fill-opacity="0.3" stroke-linejoin="bevel" stroke-miterlimit="10"/><path fill="blue" stroke="blue" paint-order="fill stroke markers" d=" M 232.74745379102225 342.77701813311126 A 1.5 1.5 0 1 1 232.7474530410223 342.77551813336123" fill-opacity="0.3" stroke-linejoin="bevel" stroke-miterlimit="10"/><path fill="blue" stroke="blue" paint-order="fill stroke markers" d=" M 233.55281026027913 331.7908625719974 A 1.5 1.5 0 1 1 233.5528095102792 331.7893625722474" fill-opacity="0.3" stroke-linejoin="bevel" stroke-miterlimit="10"/><path fill="blue" stroke="blue" paint-order="fill stroke markers" d=" M 234.35728655853137 329.6872563517155 A 1.5 1.5 0 1 1 234.35728580853143 329.6857563519655" fill-opacity="0.3" stroke-linejoin="bevel" stroke-miterlimit="10"/><path fill="blue" stroke="blue" paint-order="fill stroke markers" d=" M 235.1617628567836 329.32281017883463 A 1.5 1.5 0 1 1 235.16176210678367 329.3213101790846" fill-opacity="0.3" stroke-linejoin="bevel" stroke-miterlimit="10"/><path fill="blue" stroke="blue" paint-order="fill stroke markers" d=" M 235.96623915503582 344.4682732457521 A 1.5 1.5 0 1 1 235.96623840503588 344.46677324600205" fill-opacity="0.3" stroke-linejoin="bevel" stroke-miterlimit="10"/><path fill="blue" stroke="blue" paint-order="fill stroke markers" d=" M 236.77159562429273 338.28490942376357 A 1.5 1.5 0 1 1 236.7715948742928 338.28340942401354" fill-opacity="0.3" stroke-linejoin="bevel" stroke-miterlimit="10"/><path fill="blue" stroke="blue" paint-order="fill stroke markers" d=" M 237.57607192254494 346.0997076163086 A 1.5 1.5 0 1 1 237.576071172545 346.09820761655857" fill-opacity="0.3" stroke-linejoin="bevel" stroke-miterlimit="10"/><path fill="blue" stroke="blue" paint-order="fill stroke markers" d=" M 238.38054822079718 355.3476600390784 A 1.5 1.5 0 1 1 238.38054747079724 355.34616003932837" fill-opacity="0.3" stroke-linejoin="bevel" stroke-miterlimit="10"/><path fill="blue" stroke="blue" paint-order="fill stroke markers" d=" M 239.18502451904942 325.27377224837267 A 1.5 1.5 0 1 1 239.18502376904948 325.27227224862264" fill-opacity="0.3" stroke-linejoin="bevel" stroke-miterlimit="10"/><path fill="blue" stroke="blue" paint-order="fill stroke markers" d=" M 239.98950081730163 327.67910031708476 A 1.5 1.5 0 1 1 239.9895000673017 327.67760031733474" fill-opacity="0.3" stroke-linejoin="bevel" stroke-miterlimit="10"/><path fill="blue" stroke="blue" paint-order="fill stroke markers" d=" M 240.7948572865585 340.4192341214573 A 1.5 1.5 0 1 1 240.79485653655857 340.41773412170727" fill-opacity="0.3" stroke-linejoin="bevel" stroke-miterlimit="10"/><path fill="blue" stroke="blue" paint-order="fill stroke markers" d=" M 241.59933358481075 325.0875113776823 A 1.5 1.5 0 1 1 241.5993328348108 325.08601137793227" fill-opacity="0.3" stroke-linejoin="bevel" stroke-miterlimit="10"/><path fill="blue" stroke="blue" paint-order="fill stroke markers" d=" M 242.40380988306296 325.7206652539821 A 1.5 1.5 0 1 1 242.40380913306302 325.71916525423205" fill-opacity="0.3" stroke-linejoin="bevel" stroke-miterlimit="10"/><path fill="blue" stroke="blue" paint-order="fill stroke markers" d=" M 243.2082861813152 340.26695132210085 A 1.5 1.5 0 1 1 243.20828543131526 340.2654513223508" fill-opacity="0.3" stroke-linejoin="bevel" stroke-miterlimit="10"/><path fill="blue" stroke="blue" paint-order="fill stroke markers" d=" M 244.0136426505721 327.6624735072284 A 1.5 1.5 0 1 1 244.01364190057217 327.6609735074784" fill-opacity="0.3" stroke-linejoin="bevel" stroke-miterlimit="10"/><path fill="blue" stroke="blue" paint-order="fill stroke markers" d=" M 244.81811894882435 331.35775510787465 A 1.5 1.5 0 1 1 244.8181181988244 331.3562551081246" fill-opacity="0.3" stroke-linejoin="bevel" stroke-miterlimit="10"/><path fill="blue" stroke="blue" paint-order="fill stroke markers" d=" M 245.62259524707656 349.58440901906124 A 1.5 1.5 0 1 1 245.62259449707662 349.5829090193112" fill-opacity="0.3" stroke-linejoin="bevel" stroke-miterlimit="10"/><path fill="blue" stroke="blue" paint-order="fill stroke markers" d=" M 246.4270715453288 354.54899071358864 A 1.5 1.5 0 1 1 246.42707079532886 354.5474907138386" fill-opacity="0.3" stroke-linejoin="bevel" stroke-miterlimit="10"/></g></g></g><g clip-path="url(#ZMbnDdTkQvxe)"><g><g><path fill="none" stroke="none"/><path fill="none" stroke="red" paint-order="fill stroke markers" d=" M 69.09090909090912 56.391357500459094 L 69.95532503457818 56.43917475013063 L 70.8195649440463 56.48701608303145 L 71.6838928706149 56.58277109564301 L 72.54822079718349 56.726584846757646 L 73.41254872375207 56.918675841374295 L 74.27687665032066 57.159337141799256 L 75.14120457688925 57.44893786754358 L 75.94656104614614 57.7394242237969 L 76.75103734439837 58.07945156273206 L 77.5555136426506 58.42070045490476 L 78.35910976989818 58.86125815275358 L 79.16886709417832 59.30386867669375 L 79.96982270841195 59.748551247048226 L 80.77077832264557 60.29489450960631 L 81.58053564692571 60.844398334516086 L 82.38149126115934 61.39709950197158 L 83.19124858543948 62.0544652014284 L 83.99220419967311 62.665328814501436 L 84.80196152395325 63.383003843389304 L 85.60291713818688 64.10614246503923 L 86.4038727524205 64.8870920362586 L 87.21363007670064 65.6745154274173 L 88.01458569093427 66.52169129458764 L 88.82434301521441 67.37649089404516 L 89.62529862944804 68.29322375219891 L 90.42625424368165 69.27362314366076 L 91.2360115679618 70.26424704687435 L 92.03696718219543 71.26531097269304 L 92.84672450647557 72.33356154763118 L 93.6476801207092 73.41396249436679 L 94.45743744498934 74.50679339463414 L 95.25839305922295 75.6708884105791 L 96.05934867345658 76.84942666100591 L 96.86910599773672 78.10283363372787 L 97.67006161197035 79.31213022720624 L 98.4798189362505 80.66038332547294 L 99.28077455048413 81.96545341525348 L 100.09053187476427 83.28870416985995 L 100.89148748899788 84.69502677385515 L 101.69244310323151 86.12248343056268 L 102.50220042751165 87.5717190440248 L 103.30315604174528 89.1108483022524 L 104.11291336602542 90.6067684227076 L 104.91386898025905 92.12662427831935 L 105.71482459449267 93.7420023450992 L 106.52458191877281 95.38532740934278 L 107.32553753300644 96.98426127426853 L 108.13529485728658 98.68516011264427 L 108.9362504715202 100.34111109781674 L 109.74600779580035 102.10376448521004 L 110.54696341003398 103.89974579780312 L 111.34791902426758 105.65001074217031 L 112.15767634854774 107.51498416355304 L 112.95863196278137 109.33380145315192 L 113.76838928706151 111.18812583907686 L 114.56934490129512 113.07937131597942 L 115.37910222557528 115.00903806143987 L 116.18005783980891 116.97871958526315 L 116.98101345404253 118.99011063584015 L 117.79077077832267 120.95064043053401 L 118.5917263925563 122.97175847558651 L 119.40148371683642 125.01712433945175 L 120.20243933107005 127.08737650736185 L 121.00339494530368 129.1728940362728 L 121.81315226958382 131.27367714451697 L 122.61410788381745 133.40046394924502 L 123.4238652080976 135.54295857612897 L 124.22482082233122 137.70113304864833 L 125.03457814661137 139.87494051482878 L 125.83553376084498 142.07609513186662 L 126.63648937507861 144.2812206245028 L 127.44624669935875 146.50171622985823 L 128.24720231359237 148.72480424222636 L 129.05695963787252 150.97528744916474 L 129.85791525210615 153.22737114332932 L 130.66767257638628 155.49343033182646 L 131.4686281906199 157.75926658730134 L 132.26958380485354 160.03776082283912 L 133.07934112913367 162.31391710356417 L 133.8802967433673 164.60114053715154 L 134.69005406764745 166.89888506683138 L 135.49100968188105 169.19087215660858 L 136.3007670061612 171.49134364655566 L 137.10172262039484 173.7830869366984 L 137.90267823462847 176.06406379306458 L 138.71243555890862 178.3493663405335 L 139.51339117314222 180.63794680469118 L 140.32314849742238 182.91056127635954 L 141.12410411165598 185.1832206355491 L 141.92505972588964 187.4545796602619 L 142.73481705016977 189.70374045818323 L 143.5357726644034 191.94767861169743 L 144.34552998868355 194.18471316584873 L 145.14648560291715 196.39217903970285 L 145.9562429271973 198.6094279281569 L 146.7571985414309 200.79218474035122 L 147.55815415566454 202.95915918944257 L 148.36791147994467 205.10806655523947 L 149.16886709417832 207.25989982234552 L 149.97862441845845 209.36585675855554 L 150.77958003269208 211.47062640793217 L 151.58933735697224 213.54805183055407 L 152.39029297120584 215.59525255899888 L 153.19124858543947 217.63532776275014 L 154.00100590971962 219.6401678870314 L 154.80196152395325 221.63377009611003 L 155.61171884823338 223.5867030737749 L 156.412674462467 225.5238881511425 L 157.19602665660756 227.44350124494008 L 157.9881805607947 229.34363621199793 L 158.86835156544703 231.19219291727052 L 159.66050546963413 233.0467331273635 L 160.45265937382123 234.8442940907775 L 161.2448132780083 236.61275674261128 L 162.0369671821954 238.38228904783108 L 162.8291210863825 240.1192410562453 L 163.6212749905696 241.82117915095733 L 164.50144599522196 243.5198825838882 L 165.29359989940903 245.1797247063787 L 166.08575380359616 246.7980943586145 L 166.87790770778324 248.40841862810385 L 167.67006161197034 250.00980308237496 L 168.46221551615744 251.5640007881683 L 169.25436942034452 253.10612436071824 L 170.13454042499686 254.63515479155006 L 170.926694329184 256.1108920160883 L 171.71884823337106 257.5701657581359 L 172.51100213755814 259.05220791774616 L 173.3031560417453 260.4757471938459 L 174.09530994593237 261.8793471745657 L 174.88746385011945 263.30399884265915 L 175.76763485477179 264.6646518584426 L 176.55978875895892 266.0450789060774 L 177.351942663146 267.35770639616965 L 178.14409656733307 268.6887272092235 L 178.93625047152017 269.99335580137955 L 179.7284043757073 271.31615267379374 L 180.52055827989437 272.611056370817 L 181.40072928454668 273.8766571509645 L 182.19288318873384 275.1115310803684 L 182.9850370929209 276.362670280534 L 183.777190997108 277.5814317326629 L 184.56934490129512 278.81603404190895 L 185.3614988054822 280.01654246325074 L 186.1536527096693 281.2324178093569 L 187.03382371432167 282.4124201200864 L 187.82597761850874 283.6072656161679 L 188.61813152269585 284.7643990938772 L 189.41028542688292 285.93580251431337 L 190.20243933107002 287.06759931045 L 190.99459323525716 288.2130442864963 L 191.78674713944423 289.31693776144095 L 192.66691814409657 290.43381088086113 L 193.45907204828367 291.5639725108714 L 194.25122595247075 292.65022589208246 L 195.04337985665788 293.74904504005923 L 195.83553376084495 294.80188916858475 L 196.62768766503206 295.866533788328 L 197.4198415692192 296.9432464252197 L 198.30001257387153 297.9714719353813 L 199.09216647805857 299.010949573423 L 199.8843203822457 300.06192833636993 L 200.67647428643278 301.06182140555245 L 201.4686281906199 302.07235183463484 L 202.26078209480698 303.0295883310956 L 203.0529359989941 303.99656951313295 L 203.84508990318122 304.9734958251895 L 204.72526090783353 305.9605739606306 L 205.51741481202063 306.8911940722474 L 206.30956871620774 307.83102188216185 L 207.10172262039484 308.7121245522328 L 207.8938765245819 309.6014767731019 L 208.68603042876902 310.4992344830215 L 209.47818433295612 311.40555808393094 L 210.35835533760846 312.24990999429383 L 211.15050924179553 313.1018346685997 L 211.94266314598264 313.8895350808364 L 212.73481705016977 314.7563605438314 L 213.52697095435684 315.55795993777235 L 214.31912485854397 316.2926036960363 L 215.11127876273102 317.10732885372545 L 215.9914497673834 317.85410128852413 L 216.78360367157046 318.6067911577047 L 217.57575757575756 319.2893495279012 L 218.36791147994467 319.97684804990445 L 219.16006538413177 320.6693587560397 L 219.95221928831887 321.36695526566416 L 220.74437319250598 321.99137141369886 L 221.62454419715831 322.61991937771245 L 222.4166981013454 323.2526542033202 L 223.20885200553252 323.8896320435262 L 224.0010059097196 324.4505132608768 L 224.79315981390673 325.0956020862998 L 225.5853137180938 325.66367105938946 L 226.3774676222809 326.1533059809942 L 227.25763862693321 326.72775503305974 L 228.04979253112035 327.2229201741677 L 228.84194643530742 327.8038942449971 L 229.63410033949452 328.30471595595543 L 230.42625424368163 328.724093963741 L 231.21840814786873 329.22980393088324 L 232.01056205205583 329.73822065471757 L 232.89073305670814 330.1639899218721 L 233.68288696089527 330.5916762115502 L 234.47504086508235 331.0212968646139 L 235.26719476926945 331.45286945828536 L 236.05934867345655 331.88641181046273 L 236.85150257764366 332.3219419841337 L 237.64365648183076 332.67180965210434 L 238.5238274864831 333.11096422288034 L 239.31598139067017 333.4637555827924 L 240.10813529485728 333.8178621045888 L 240.9002891990444 334.26235970777503 L 241.69244310323145 334.6194614985298 L 242.48459700741859 334.97791084640414 L 243.27675091160566 335.3377179602006 L 244.156921916258 335.6988931651725 L 244.9490758204451 336.0614469048017 L 245.74122972463218 336.33427322294654 L 246.5333836288193 336.69926488995486 L 247.32553753300644 337.0656644357303 L 248.11769143719349 337.43348276353726 L 248.90984534138062 337.7102842157495 L 249.79001634603293 338.08061203166073 L 250.58217025022003 338.45238927520234 L 251.37432415440716 338.73218024175287 L 252.16647805859424 339.1065214728984 L 252.95863196278134 339.38824871194265 L 253.7507858669684 339.76518954177027 L 254.54293977115555 340.0488800397443 L 255.42311077580786 340.399935894075 L 256.215264679995 340.72367566132294 L 257.007418584182 341.0485225673262 L 257.79957248836917 341.37448421055626 L 258.59172639255627 341.70156826797853 L 259.3838802967433 342.0297824961368 L 260.1760342009304 342.34943158454314 L 261.0562052055828 342.6701599628585 L 261.8483591097699 342.99197494419207 L 262.64051301395705 343.3148839162341 L 263.4326669181441 343.63889434227445 L 264.2248208223312 343.9541452915547 L 265.01697472651824 344.2803473736592 L 265.80912863070535 344.58780343936496 L 266.6892996353577 344.90622473722357 L 267.4814535395448 345.21571661840017 L 268.2736074437319 345.53625334172665 L 269.065761347919 345.83774205588907 L 269.8579152521061 346.15028894917964 L 270.6500691562932 346.45373601098794 L 271.4422230604803 346.7581555572972 L 272.3223940651327 347.05335806349933 L 273.11454796931974 347.3494808477476 L 273.90670187350685 347.6465296658255 L 274.6988557776939 347.93421955637587 L 275.491009681881 348.2227834112647 L 276.28316358606816 348.50187410016133 L 277.0753174902552 348.7817872130133 L 277.9554884949076 349.06252761118435 L 278.7476423990947 349.33365668714157 L 279.5397963032818 349.5950895721178 L 280.3319502074688 349.8677452104297 L 281.1241041116559 350.1201238762443 L 281.916258015843 350.3731748802911 L 282.70841192003013 350.6269018143668 L 283.58858292468244 350.8813082991275 L 284.3807368288696 351.11511432657585 L 285.1728907330567 351.36016478862547 L 285.96504463724375 351.59515391310964 L 286.75719854143085 351.8200053119985 L 287.549352445618 352.04539022693757 L 288.34150634980506 352.2713111957495 L 289.2216773544574 352.4869747336547 L 290.0138312586445 352.70312902983454 L 290.80598516283163 352.9089322148354 L 291.5981390670188 353.11518226156795 L 292.3902929712058 353.3218811148032 L 293.1824468753929 353.51811685088705 L 293.97460077958004 353.71475882570246 L 294.85477178423236 353.91180872469465 L 295.6469256884195 354.0982874953579 L 296.4390795926065 354.2851330743687 L 297.2312334967936 354.4833709852059 L 298.0233874009807 354.6599304495457 L 298.81554130516787 354.84788516325114 L 299.607695209355 355.02512409880933 L 300.48786621400734 355.2138035317556 L 301.28002011819433 355.39172718849 L 302.07217402238143 355.56998473921647 L 302.8643279265686 355.75975064003364 L 303.65648183075564 355.9387008202958 L 304.4486357349428 356.117988762099 L 305.24078963912984 356.2976157428783 L 306.12096064378215 356.47758304732963 L 306.91311454796926 356.66917264730296 L 307.7052684521564 356.8498459580097 L 308.4974223563435 357.04218863535925 L 309.28957626053057 357.2349215768081 L 310.08173016471767 357.42804636927167 L 310.8738840689048 357.6215646093643 L 311.75405507355714 357.81547790347844 L 312.54620897774424 358.0212302535278 L 313.33836288193135 358.2274292443401 L 314.1305167861184 358.43407681924214 L 314.92267069030555 358.6411749342716 L 315.7148245944926 358.86026945627464 L 316.5069784986797 359.0798704940192 L 317.38714950333207 359.3115792672055 L 318.1793034075191 359.53222736750354 L 318.9714573117062 359.7650435734324 L 319.7636112158933 360.01011628801064 L 320.5557651200805 360.25582292914385 L 321.3479190242675 360.50216678487925 L 322.14007292845463 360.74915116891174 L 323.02024393310694 361.0085873597655 L 323.8123978372941 361.2687340701418 L 324.60455174148115 361.5414695652608 L 325.39670564566825 361.81499040310825 L 326.1888595498554 362.08930111954226 L 326.98101345404245 362.3763854769916 L 327.77316735822956 362.66434011802255 L 328.65333836288187 362.95317033513584 L 329.445492267069 363.2549719630649 L 330.23764617125613 363.55773554081907 L 331.0298000754432 363.8614672201683 L 331.8219539796303 364.1661732120839 L 332.6141078838174 364.48410773600096 L 333.4062617880045 364.8031099831336 L 334.28643279265685 365.1231871491483 L 335.07858669684396 365.4567204966538 L 335.870740601031 365.79142910275453 L 336.66289450521816 366.1273212791735 L 337.4550484094052 366.4644054261207 L 338.24720231359237 366.8026900335536 L 339.0393562177794 367.14218368245986 L 339.9195272224318 367.49553748505485 L 340.7116811266188 367.83752092539794 L 341.50383503080593 368.19347570557073 L 342.2959889349931 368.53798572665175 L 343.0881428391802 368.8965800591018 L 343.88029674336724 369.25653325814983 L 344.67245064755434 369.617855661631 L 345.5526216522067 369.96758020484873 L 346.34477555639376 370.3316226713819 L 347.1369294605809 370.6970656894622 L 347.929083364768 371.0507937088257 L 348.72123726895506 371.41901942331253 L 349.51339117314217 371.77545122789553 L 350.3055450773293 372.14650234215986 L 351.18571608198164 372.5056795841477 L 351.97786998616874 372.8662201225121 L 352.7700238903558 373.2281343457765 L 353.5621777945429 373.59143276166157 L 354.35433169873 373.95612599891615 L 355.1464856029171 374.3086404023715 L 355.93863950710426 374.6624678997589 L 356.81881051175657 375.0313044947088 L 357.6109644159436 375.3878392104053 L 358.4031183201307 375.73192769963094 L 359.1952722243179 376.09110687630357 L 359.987426128505 376.43775701092125 L 360.779580032692 376.7996201703269 L 361.5717339368791 377.148870377972 L 362.45190494153144 377.49940942980817 L 363.2440588457186 377.83714832594166 L 364.03621274990564 378.1902413072928 L 364.8283666540928 378.53044987081375 L 365.62052055827985 378.87188129236597 L 366.41267446246695 379.2145443946423 L 367.20482836665406 379.5584480961627 L 368.0849993713064 379.9036014126666 L 368.8771532754935 380.23555437265725 L 369.6693071796806 380.58318134606236 L 370.4614610838677 380.91752191355465 L 371.2536149880548 381.25304344534317 L 372.0457688922419 381.5897543138602 L 372.837922796429 381.9276629808896 L 373.71809380108135 382.26677799884186 L 374.5102477052684 382.592285672246 L 375.3024016094555 382.93378602956 L 376.0945555136426 383.2765185659045 L 376.8867094178297 383.60551090017293 L 377.6788633220168 383.950680121557 L 378.4710172262039 384.28201979766123 L 379.263171130391 384.6296605998414 L 380.1433421350433 384.9633813548323 L 380.9354960392305 385.3135293885854 L 381.72764994341753 385.6496656921052 L 382.5198038476047 386.0023573851678 L 383.31195775179174 386.34094446081554 L 384.10411165597884 386.6962170406259 L 384.98428266063115 387.03729088810735 L 385.77643656481825 387.39518240538666 L 386.5685904690054 387.7544274578929 L 387.36074437319246 388.0993291766911 L 388.15289827737956 388.46125228209775 L 388.94505218156667 388.824559648198 L 389.73720608575377 389.1892619045262 L 390.5293599899409 389.5553698035227 L 391.40953099459324 389.9389058473314 L 392.2016848987803 390.3079201080142 L 392.9938388029674 390.67837351231185 L 393.7859927071545 391.0664801378919 L 394.57814661134165 391.45617900023944 L 395.3703005155287 391.8311466514441 L 396.1624544197158 392.2240017947731 L 397.0426254243681 392.6184884574802 L 397.8347793285552 393.0146202474316 L 398.6269332327423 393.4124109434534 L 399.4190871369294 393.81187449820754 L 400.21124104111647 394.2130250411284 L 401.0033949453036 394.63269950866237 L 401.79554884949073 395.0373389468256 L 402.67571985414304 395.4606793590409 L 403.4678737583302 395.8688689123747 L 404.2600276625173 396.2959398793565 L 405.05218156670435 396.7077423934004 L 405.84433547089145 397.1386102484937 L 406.63648937507855 397.5540902524673 L 407.42864327926566 397.9888231141099 L 408.30881428391797 398.4255547545561 L 409.100968188105 398.8467147179514 L 409.8931220922922 399.28741776543256 L 410.6852759964793 399.7301749969335 L 411.4774299006664 400.1571723721167 L 412.2695838048535 400.60401186610557 L 413.0617377090406 401.03496442896954 L 413.9419087136929 401.48596216378803 L 414.73406261788 401.92094387167026 L 415.5262165220671 402.35792665253075 L 416.3183704262542 402.815264870923 L 417.11052433044125 403.25639088569693 L 417.9026782346284 403.6995750386271 L 418.6948321388155 404.1262423281488 L 419.5750031434678 404.5735131461382 L 420.3671570476549 405.02289997823766 L 421.15931095184203 405.4555665709737 L 421.9514648560291 405.89021294412953 L 422.74361876021624 406.3458874432419 L 423.53577266440334 406.78463632705893 L 424.32792656859044 407.20621402496056 L 425.2080975732428 407.64896407828604 L 426.0002514774299 408.07440396257687 L 426.79240538161696 408.5212288345016 L 427.5845592858041 408.9506023246463 L 428.37671318999116 409.3819255050224 L 429.16886709417827 409.79547819594006 L 429.9610209983653 410.2306637172887 L 430.8411920030176 410.64793627488285 L 431.6333459072048 411.067049940173 L 432.4254998113919 411.48802103201547 L 433.21765371557905 411.910866087199 L 434.0098076197661 412.3153332278697 L 434.80196152395314 412.7215299745732 L 435.59411542814024 413.1294711833452 L 436.47428643279255 413.539171902451 L 437.2664403369797 413.950647375716 L 438.0585942411668 414.3639130459293 L 438.85074814535386 414.7581878500897 L 439.642902049541 415.1541060112588 L 440.4350559537281 415.5516812859822 L 441.22720985791517 415.950927604266 L 442.1073808625676 416.3307151738164 L 442.89953476675464 416.73325627470524 L 443.69168867094174 417.1161910285735 L 444.4838425751288 417.50067578117194 L 445.27599647931595 417.8867231313229 L 446.06815038350305 418.27434583208577 L 446.8603042876901 418.663556793285 L 447.7404752923425 419.03261505571936 L 448.53262919652957 419.4249518595575 L 449.3247831007167 419.7969860630302 L 450.1169370049037 420.17048310858087 L 450.9090909090909 420.5454545454546" stroke-linejoin="bevel" stroke-miterlimit="10" stroke-width="3"/></g></g></g><g clip-path="url(#FoLbeDxAkfmV)"><g><g/><g><path fill="#ffffff" stroke="#e5e5e5" paint-order="fill stroke markers" d=" M 358.6166648864746 43 L 460 43 L 460 106 L 358.6166648864746 106 L 358.6166648864746 43 Z" fill-opacity="0.95" stroke-linejoin="bevel" stroke-miterlimit="10" stroke-opacity="0.5"/><text fill="#444444" stroke="none" font-family="helvetica" font-size="13px" font-style="normal" font-weight="normal" text-decoration="normal" x="393.6166648864746" y="63" text-anchor="start" dominant-baseline="central">Observed</text><path fill="blue" stroke="blue" paint-order="fill stroke markers" d=" M 382.6166648864746 63 A 4 4 0 1 1 382.6166628864748 62.99600000066666" fill-opacity="0.3" stroke-linejoin="bevel" stroke-miterlimit="10"/><text fill="#444444" stroke="none" font-family="helvetica" font-size="13px" font-style="normal" font-weight="normal" text-decoration="normal" x="393.6166648864746" y="86" text-anchor="start" dominant-baseline="central">Predicted</text><g><path fill="none" stroke="red" paint-order="fill stroke markers" d=" M 368.6166648864746 86 L 388.6166648864746 86" stroke-linejoin="bevel" stroke-miterlimit="10" stroke-width="3"/></g></g></g></g><g><g fill="#444444"><path fill="" stroke="none" d=""/><g transform="translate(260,5)"><path fill="none" stroke="none"/><text fill="" stroke="none" font-family="helvetica" font-size="12pt" font-style="normal" font-weight="bold" text-decoration="normal" x="0" y="0" text-anchor="middle" dominant-baseline="text-before-edge">P(r) extrapolated fit for SASDBX9</text></g></g></g><g/><g><g fill="#444444"><path fill="none" stroke="black" paint-order="fill stroke markers" d=" M 50 439 L 470 439" stroke-linejoin="bevel" stroke-miterlimit="10"/><path fill="none" stroke="black" paint-order="fill stroke markers" d=" M 69 445 L 69 437" stroke-linejoin="bevel" stroke-miterlimit="10"/><path fill="none" stroke="black" paint-order="fill stroke markers" d=" M 157 445 L 157 437" stroke-linejoin="bevel" stroke-miterlimit="10"/><path fill="none" stroke="black" paint-order="fill stroke markers" d=" M 245 445 L 245 437" stroke-linejoin="bevel" stroke-miterlimit="10"/><path fill="none" stroke="black" paint-order="fill stroke markers" d=" M 333 445 L 333 437" stroke-linejoin="bevel" stroke-miterlimit="10"/><path fill="none" stroke="black" paint-order="fill stroke markers" d=" M 421 445 L 421 437" stroke-linejoin="bevel" stroke-miterlimit="10"/><path fill="none" stroke="black" paint-order="fill stroke markers" d=" M 51 443 L 51 439" stroke-linejoin="bevel" stroke-miterlimit="10"/><path fill="none" stroke="black" paint-order="fill stroke markers" d=" M 69 443 L 69 439" stroke-linejoin="bevel" stroke-miterlimit="10"/><path fill="none" stroke="black" paint-order="fill stroke markers" d=" M 87 443 L 87 439" stroke-linejoin="bevel" stroke-miterlimit="10"/><path fill="none" stroke="black" paint-order="fill stroke markers" d=" M 104 443 L 104 439" stroke-linejoin="bevel" stroke-miterlimit="10"/><path fill="none" stroke="black" paint-order="fill stroke markers" d=" M 122 443 L 122 439" stroke-linejoin="bevel" stroke-miterlimit="10"/><path fill="none" stroke="black" paint-order="fill stroke markers" d=" M 140 443 L 140 439" stroke-linejoin="bevel" stroke-miterlimit="10"/><path fill="none" stroke="black" paint-order="fill stroke markers" d=" M 157 443 L 157 439" stroke-linejoin="bevel" stroke-miterlimit="10"/><path fill="none" stroke="black" paint-order="fill stroke markers" d=" M 175 443 L 175 439" stroke-linejoin="bevel" stroke-miterlimit="10"/><path fill="none" stroke="black" paint-order="fill stroke markers" d=" M 192 443 L 192 439" stroke-linejoin="bevel" stroke-miterlimit="10"/><path fill="none" stroke="black" paint-order="fill stroke markers" d=" M 210 443 L 210 439" stroke-linejoin="bevel" stroke-miterlimit="10"/><path fill="none" stroke="black" paint-order="fill stroke markers" d=" M 228 443 L 228 439" stroke-linejoin="bevel" stroke-miterlimit="10"/><path fill="none" stroke="black" paint-order="fill stroke markers" d=" M 245 443 L 245 439" stroke-linejoin="bevel" stroke-miterlimit="10"/><path fill="none" stroke="black" paint-order="fill stroke markers" d=" M 263 443 L 263 439" stroke-linejoin="bevel" stroke-miterlimit="10"/><path fill="none" stroke="black" paint-order="fill stroke markers" d=" M 280 443 L 280 439" stroke-linejoin="bevel" stroke-miterlimit="10"/><path fill="none" stroke="black" paint-order="fill stroke markers" d=" M 298 443 L 298 439" stroke-linejoin="bevel" stroke-miterlimit="10"/><path fill="none" stroke="black" paint-order="fill stroke markers" d=" M 316 443 L 316 439" stroke-linejoin="bevel" stroke-miterlimit="10"/><path fill="none" stroke="black" paint-order="fill stroke markers" d=" M 333 443 L 333 439" stroke-linejoin="bevel" stroke-miterlimit="10"/><path fill="none" stroke="black" paint-order="fill stroke markers" d=" M 351 443 L 351 439" stroke-linejoin="bevel" stroke-miterlimit="10"/><path fill="none" stroke="black" paint-order="fill stroke markers" d=" M 368 443 L 368 439" stroke-linejoin="bevel" stroke-miterlimit="10"/><path fill="none" stroke="black" paint-order="fill stroke markers" d=" M 386 443 L 386 439" stroke-linejoin="bevel" stroke-miterlimit="10"/><path fill="none" stroke="black" paint-order="fill stroke markers" d=" M 404 443 L 404 439" stroke-linejoin="bevel" stroke-miterlimit="10"/><path fill="none" stroke="black" paint-order="fill stroke markers" d=" M 421 443 L 421 439" stroke-linejoin="bevel" stroke-miterlimit="10"/><path fill="none" stroke="black" paint-order="fill stroke markers" d=" M 439 443 L 439 439" stroke-linejoin="bevel" stroke-miterlimit="10"/><path fill="" stroke="black" paint-order="fill stroke markers" d=" M 456 443 L 456 439" stroke-linejoin="bevel" stroke-miterlimit="10"/><g transform="translate(69,450) rotate(0,0,0)"><text fill="" stroke="none" font-family="helvetica" font-size="14pt" font-style="normal" font-weight="normal" text-decoration="normal" x="0" y="0" text-anchor="middle" dominant-baseline="hanging">0</text><g transform="rotate(0,0,0) translate(-69,-450) translate(157,450) rotate(0,0,0)"><text fill="" stroke="none" font-family="helvetica" font-size="14pt" font-style="normal" font-weight="normal" text-decoration="normal" x="0" y="0" text-anchor="middle" dominant-baseline="hanging">1</text><g transform="rotate(0,0,0) translate(-157,-450) translate(245,450) rotate(0,0,0)"><text fill="" stroke="none" font-family="helvetica" font-size="14pt" font-style="normal" font-weight="normal" text-decoration="normal" x="0" y="0" text-anchor="middle" dominant-baseline="hanging">2</text><g transform="rotate(0,0,0) translate(-245,-450) translate(333,450) rotate(0,0,0)"><text fill="" stroke="none" font-family="helvetica" font-size="14pt" font-style="normal" font-weight="normal" text-decoration="normal" x="0" y="0" text-anchor="middle" dominant-baseline="hanging">3</text><g transform="rotate(0,0,0) translate(-333,-450) translate(421,450) rotate(0,0,0)"><text fill="" stroke="none" font-family="helvetica" font-size="14pt" font-style="normal" font-weight="normal" text-decoration="normal" x="0" y="0" text-anchor="middle" dominant-baseline="hanging">4</text><g transform="rotate(0,0,0) translate(-421,-450) translate(260,477) rotate(0,0,0)"><text fill="" stroke="none" font-family="helvetica" font-size="14pt" font-style="italic" font-weight="normal" text-decoration="normal" x="0" y="0" text-anchor="middle" dominant-baseline="hanging">q []</text><g transform="rotate(0,0,0) translate(-260,-477)"/></g></g></g></g></g></g></g></g><g><g fill="#444444"><path fill="none" stroke="black" paint-order="fill stroke markers" d=" M 50 439 L 50 33" stroke-linejoin="bevel" stroke-miterlimit="10"/><path fill="none" stroke="black" paint-order="fill stroke markers" d=" M 44 369 L 52 369" stroke-linejoin="bevel" stroke-miterlimit="10"/><path fill="none" stroke="black" paint-order="fill stroke markers" d=" M 44 274 L 52 274" stroke-linejoin="bevel" stroke-miterlimit="10"/><path fill="none" stroke="black" paint-order="fill stroke markers" d=" M 44 179 L 52 179" stroke-linejoin="bevel" stroke-miterlimit="10"/><path fill="none" stroke="black" paint-order="fill stroke markers" d=" M 44 84 L 52 84" stroke-linejoin="bevel" stroke-miterlimit="10"/><path fill="none" stroke="black" paint-order="fill stroke markers" d=" M 46 388 L 50 388" stroke-linejoin="bevel" stroke-miterlimit="10"/><path fill="none" stroke="black" paint-order="fill stroke markers" d=" M 46 407 L 50 407" stroke-linejoin="bevel" stroke-miterlimit="10"/><path fill="none" stroke="black" paint-order="fill stroke markers" d=" M 46 426 L 50 426" stroke-linejoin="bevel" stroke-miterlimit="10"/><path fill="none" stroke="black" paint-order="fill stroke markers" d=" M 46 369 L 50 369" stroke-linejoin="bevel" stroke-miterlimit="10"/><path fill="none" stroke="black" paint-order="fill stroke markers" d=" M 46 350 L 50 350" stroke-linejoin="bevel" stroke-miterlimit="10"/><path fill="none" stroke="black" paint-order="fill stroke markers" d=" M 46 331 L 50 331" stroke-linejoin="bevel" stroke-miterlimit="10"/><path fill="none" stroke="black" paint-order="fill stroke markers" d=" M 46 312 L 50 312" stroke-linejoin="bevel" stroke-miterlimit="10"/><path fill="none" stroke="black" paint-order="fill stroke markers" d=" M 46 293 L 50 293" stroke-linejoin="bevel" stroke-miterlimit="10"/><path fill="none" stroke="black" paint-order="fill stroke markers" d=" M 46 274 L 50 274" stroke-linejoin="bevel" stroke-miterlimit="10"/><path fill="none" stroke="black" paint-order="fill stroke markers" d=" M 46 255 L 50 255" stroke-linejoin="bevel" stroke-miterlimit="10"/><path fill="none" stroke="black" paint-order="fill stroke markers" d=" M 46 236 L 50 236" stroke-linejoin="bevel" stroke-miterlimit="10"/><path fill="none" stroke="black" paint-order="fill stroke markers" d=" M 46 217 L 50 217" stroke-linejoin="bevel" stroke-miterlimit="10"/><path fill="none" stroke="black" paint-order="fill stroke markers" d=" M 46 198 L 50 198" stroke-linejoin="bevel" stroke-miterlimit="10"/><path fill="none" stroke="black" paint-order="fill stroke markers" d=" M 46 179 L 50 179" stroke-linejoin="bevel" stroke-miterlimit="10"/><path fill="none" stroke="black" paint-order="fill stroke markers" d=" M 46 160 L 50 160" stroke-linejoin="bevel" stroke-miterlimit="10"/><path fill="none" stroke="black" paint-order="fill stroke markers" d=" M 46 141 L 50 141" stroke-linejoin="bevel" stroke-miterlimit="10"/><path fill="none" stroke="black" paint-order="fill stroke markers" d=" M 46 122 L 50 122" stroke-linejoin="bevel" stroke-miterlimit="10"/><path fill="none" stroke="black" paint-order="fill stroke markers" d=" M 46 103 L 50 103" stroke-linejoin="bevel" stroke-miterlimit="10"/><path fill="none" stroke="black" paint-order="fill stroke markers" d=" M 46 84 L 50 84" stroke-linejoin="bevel" stroke-miterlimit="10"/><path fill="none" stroke="black" paint-order="fill stroke markers" d=" M 46 65 L 50 65" stroke-linejoin="bevel" stroke-miterlimit="10"/><path fill="" stroke="black" paint-order="fill stroke markers" d=" M 46 46 L 50 46" stroke-linejoin="bevel" stroke-miterlimit="10"/><g transform="translate(39,369) rotate(0,0,0)"><text fill="" stroke="none" font-family="helvetica" font-size="14pt" font-style="normal" font-weight="normal" text-decoration="normal" x="0" y="0" text-anchor="end" dominant-baseline="central">2</text><g transform="rotate(0,0,0) translate(-39,-369) translate(39,274) rotate(0,0,0)"><text fill="" stroke="none" font-family="helvetica" font-size="14pt" font-style="normal" font-weight="normal" text-decoration="normal" x="0" y="0" text-anchor="end" dominant-baseline="central">3</text><g transform="rotate(0,0,0) translate(-39,-274) translate(39,179) rotate(0,0,0)"><text fill="" stroke="none" font-family="helvetica" font-size="14pt" font-style="normal" font-weight="normal" text-decoration="normal" x="0" y="0" text-anchor="end" dominant-baseline="central">4</text><g transform="rotate(0,0,0) translate(-39,-179) translate(39,84) rotate(0,0,0)"><text fill="" stroke="none" font-family="helvetica" font-size="14pt" font-style="normal" font-weight="normal" text-decoration="normal" x="0" y="0" text-anchor="end" dominant-baseline="central">5</text><g transform="rotate(0,0,0) translate(-39,-84) translate(23,236) rotate(-90,0,0)"><text fill="" stroke="none" font-family="helvetica" font-size="14pt" font-style="italic" font-weight="normal" text-decoration="normal" x="0" y="0" text-anchor="middle" dominant-baseline="alphabetic">Log I(q) [a.u]</text><g transform="rotate(90,0,0) translate(-23,-236)"/></g></g></g></g></g></g></g><g clip-path="url(#WJETGqHiACJK)"><g/></g></g></svg>