<svg version="1.1" xmlns="http://www.w3.org/2000/svg" xmlns:xlink="http://www.w3.org/1999/xlink" width="700" height="250" style="width: 700px; height: 250px;"><defs><clipPath id="UgQAJnmOgxFe"><path fill="none" stroke="none" d=" M 97 42 L 670 42 L 670 182 L 97 182 L 97 42 Z"/></clipPath><clipPath id="mvTtMdKWNtzO"><path fill="none" stroke="none" d=" M 97 42 L 670 42 L 670 182 L 97 182 L 97 42 Z"/></clipPath><clipPath id="lupUFcwKzCmE"><path fill="none" stroke="none" d=" M 97 42 L 670 42 L 670 182 L 97 182 L 97 42 Z"/></clipPath><clipPath id="BTBBLIzzunSV"><path fill="none" stroke="none" d=" M 97 42 L 670 42 L 670 182 L 97 182 L 97 42 Z"/></clipPath><clipPath id="yiNZqyigWWst"><path fill="none" stroke="none" d=" M 97 42 L 670 42 L 670 182 L 97 182 L 97 42 Z"/></clipPath></defs><g><g transform="scale(1,1) translate(0.5,0.5)"><rect fill="#FFFFFF" stroke="none" x="0" y="0" width="700" height="250"/><rect fill="#ffffff" stroke="none" x="0" y="0" width="700" height="250"/><rect fill="#FFFFFF" stroke="none" x="97" y="42" width="573" height="140"/><rect fill="#ffffff" stroke="none" x="97" y="42" width="573" height="140"/><g><rect fill="none" stroke="#e5e5e5" x="97" y="42" width="573" height="140" stroke-linejoin="bevel" stroke-miterlimit="10"/></g><g clip-path="url(#UgQAJnmOgxFe)"><g><g><path fill="none" stroke="#e5e5e5" paint-order="fill stroke markers" d=" M 118 182 L 118 42" stroke-linejoin="bevel" stroke-miterlimit="10"/><path fill="none" stroke="#e5e5e5" paint-order="fill stroke markers" d=" M 197 182 L 197 42" stroke-linejoin="bevel" stroke-miterlimit="10"/><path fill="none" stroke="#e5e5e5" paint-order="fill stroke markers" d=" M 277 182 L 277 42" stroke-linejoin="bevel" stroke-miterlimit="10"/><path fill="none" stroke="#e5e5e5" paint-order="fill stroke markers" d=" M 356 182 L 356 42" stroke-linejoin="bevel" stroke-miterlimit="10"/><path fill="none" stroke="#e5e5e5" paint-order="fill stroke markers" d=" M 436 182 L 436 42" stroke-linejoin="bevel" stroke-miterlimit="10"/><path fill="none" stroke="#e5e5e5" paint-order="fill stroke markers" d=" M 516 182 L 516 42" stroke-linejoin="bevel" stroke-miterlimit="10"/><path fill="none" stroke="#e5e5e5" paint-order="fill stroke markers" d=" M 595 182 L 595 42" stroke-linejoin="bevel" stroke-miterlimit="10"/></g></g></g><g clip-path="url(#mvTtMdKWNtzO)"><g><g/></g></g><g clip-path="url(#lupUFcwKzCmE)"><g><g><path fill="none" stroke="none"/><path fill="#e41a1c" stroke="none" paint-order="stroke fill markers" d=" M 97 155.75 L 417.72083333333376 155.75 L 417.72083333333376 173.25 L 97 173.25 L 97 155.75 Z" fill-opacity="0.8"/><path fill="none" stroke="#e41a1c" paint-order="fill stroke markers" d=" M 97 155.75 L 417.72083333333376 155.75 L 417.72083333333376 173.25 L 97 173.25 L 97 155.75 Z" stroke-linejoin="bevel" stroke-miterlimit="10" stroke-opacity="0.8"/><path fill="#377eb8" stroke="none" paint-order="stroke fill markers" d=" M 97 120.75 L 288 120.75 L 288 138.25 L 97 138.25 L 97 120.75 Z" fill-opacity="0.8"/><path fill="none" stroke="#377eb8" paint-order="fill stroke markers" d=" M 97 120.75 L 288 120.75 L 288 138.25 L 97 138.25 L 97 120.75 Z" stroke-linejoin="bevel" stroke-miterlimit="10" stroke-opacity="0.8"/><path fill="#4daf4a" stroke="none" paint-order="stroke fill markers" d=" M 97 85.75 L 479 85.75 L 479 103.25 L 97 103.25 L 97 85.75 Z" fill-opacity="0.8"/><path fill="none" stroke="#4daf4a" paint-order="fill stroke markers" d=" M 97 85.75 L 479 85.75 L 479 103.25 L 97 103.25 L 97 85.75 Z" stroke-linejoin="bevel" stroke-miterlimit="10" stroke-opacity="0.8"/><path fill="#984ea3" stroke="none" paint-order="stroke fill markers" d=" M 97 50.75 L 423.29166666666697 50.75 L 423.29166666666697 68.25 L 97 68.25 L 97 50.75 Z" fill-opacity="0.8"/><path fill="none" stroke="#984ea3" paint-order="fill stroke markers" d=" M 97 50.75 L 423.29166666666697 50.75 L 423.29166666666697 68.25 L 97 68.25 L 97 50.75 Z" stroke-linejoin="bevel" stroke-miterlimit="10" stroke-opacity="0.8"/></g></g></g><g clip-path="url(#BTBBLIzzunSV)"><g><g/><g><path fill="#ffffff" stroke="#e5e5e5" paint-order="fill stroke markers" d=" M 519.78125 52 L 660 52 L 660 161 L 519.78125 161 L 519.78125 52 Z" fill-opacity="0.95" stroke-linejoin="bevel" stroke-miterlimit="10" stroke-opacity="0.5"/><text fill="#444444" stroke="none" font-family="helvetica" font-size="10pt" font-style="normal" font-weight="normal" text-decoration="normal" x="554.78125" y="72" text-anchor="start" dominant-baseline="central">Model 1: 3677</text><rect fill="#e41a1c" stroke="none" x="531.78125" y="64" width="16" height="16" fill-opacity="0.8"/><path fill="none" stroke="#e41a1c" paint-order="fill stroke markers" d=" M 531.78125 64 L 547.78125 64 L 547.78125 80 L 531.78125 80 L 531.78125 64 Z" stroke-linejoin="bevel" stroke-miterlimit="10" stroke-opacity="0.8"/><text fill="#444444" stroke="none" font-family="helvetica" font-size="10pt" font-style="normal" font-weight="normal" text-decoration="normal" x="554.78125" y="95" text-anchor="start" dominant-baseline="central">Model 2: 3514</text><rect fill="#377eb8" stroke="none" x="531.78125" y="87" width="16" height="16" fill-opacity="0.8"/><path fill="none" stroke="#377eb8" paint-order="fill stroke markers" d=" M 531.78125 87 L 547.78125 87 L 547.78125 103 L 531.78125 103 L 531.78125 87 Z" stroke-linejoin="bevel" stroke-miterlimit="10" stroke-opacity="0.8"/><text fill="#444444" stroke="none" font-family="helvetica" font-size="10pt" font-style="normal" font-weight="normal" text-decoration="normal" x="554.78125" y="118" text-anchor="start" dominant-baseline="central">Model 3: 3754</text><rect fill="#4daf4a" stroke="none" x="531.78125" y="110" width="16" height="16" fill-opacity="0.8"/><path fill="none" stroke="#4daf4a" paint-order="fill stroke markers" d=" M 531.78125 110 L 547.78125 110 L 547.78125 126 L 531.78125 126 L 531.78125 110 Z" stroke-linejoin="bevel" stroke-miterlimit="10" stroke-opacity="0.8"/><text fill="#444444" stroke="none" font-family="helvetica" font-size="10pt" font-style="normal" font-weight="normal" text-decoration="normal" x="554.78125" y="141" text-anchor="start" dominant-baseline="central">Model 4: 3684</text><rect fill="#984ea3" stroke="none" x="531.78125" y="133" width="16" height="16" fill-opacity="0.8"/><path fill="none" stroke="#984ea3" paint-order="fill stroke markers" d=" M 531.78125 133 L 547.78125 133 L 547.78125 149 L 531.78125 149 L 531.78125 133 Z" stroke-linejoin="bevel" stroke-miterlimit="10" stroke-opacity="0.8"/></g></g></g><g><g fill="#444444"><path fill="" stroke="none" d=""/><g transform="translate(383.5,5)"><path fill="none" stroke="none"/><text fill="" stroke="none" font-family="helvetica" font-size="14pt" font-style="normal" font-weight="bold" text-decoration="normal" x="0" y="0" text-anchor="middle" dominant-baseline="text-before-edge">Model quality: Excluded Volume Analysis</text></g></g></g><g/><g><g fill="#444444"><path fill="none" stroke="black" paint-order="fill stroke markers" d=" M 97 182 L 670 182" stroke-linejoin="bevel" stroke-miterlimit="10"/><path fill="none" stroke="black" paint-order="fill stroke markers" d=" M 118 188 L 118 180" stroke-linejoin="bevel" stroke-miterlimit="10"/><path fill="none" stroke="black" paint-order="fill stroke markers" d=" M 197 188 L 197 180" stroke-linejoin="bevel" stroke-miterlimit="10"/><path fill="none" stroke="black" paint-order="fill stroke markers" d=" M 277 188 L 277 180" stroke-linejoin="bevel" stroke-miterlimit="10"/><path fill="none" stroke="black" paint-order="fill stroke markers" d=" M 356 188 L 356 180" stroke-linejoin="bevel" stroke-miterlimit="10"/><path fill="none" stroke="black" paint-order="fill stroke markers" d=" M 436 188 L 436 180" stroke-linejoin="bevel" stroke-miterlimit="10"/><path fill="none" stroke="black" paint-order="fill stroke markers" d=" M 516 188 L 516 180" stroke-linejoin="bevel" stroke-miterlimit="10"/><path fill="none" stroke="black" paint-order="fill stroke markers" d=" M 595 188 L 595 180" stroke-linejoin="bevel" stroke-miterlimit="10"/><path fill="none" stroke="black" paint-order="fill stroke markers" d=" M 102 186 L 102 182" stroke-linejoin="bevel" stroke-miterlimit="10"/><path fill="none" stroke="black" paint-order="fill stroke markers" d=" M 118 186 L 118 182" stroke-linejoin="bevel" stroke-miterlimit="10"/><path fill="none" stroke="black" paint-order="fill stroke markers" d=" M 134 186 L 134 182" stroke-linejoin="bevel" stroke-miterlimit="10"/><path fill="none" stroke="black" paint-order="fill stroke markers" d=" M 150 186 L 150 182" stroke-linejoin="bevel" stroke-miterlimit="10"/><path fill="none" stroke="black" paint-order="fill stroke markers" d=" M 165 186 L 165 182" stroke-linejoin="bevel" stroke-miterlimit="10"/><path fill="none" stroke="black" paint-order="fill stroke markers" d=" M 181 186 L 181 182" stroke-linejoin="bevel" stroke-miterlimit="10"/><path fill="none" stroke="black" paint-order="fill stroke markers" d=" M 197 186 L 197 182" stroke-linejoin="bevel" stroke-miterlimit="10"/><path fill="none" stroke="black" paint-order="fill stroke markers" d=" M 213 186 L 213 182" stroke-linejoin="bevel" stroke-miterlimit="10"/><path fill="none" stroke="black" paint-order="fill stroke markers" d=" M 229 186 L 229 182" stroke-linejoin="bevel" stroke-miterlimit="10"/><path fill="none" stroke="black" paint-order="fill stroke markers" d=" M 245 186 L 245 182" stroke-linejoin="bevel" stroke-miterlimit="10"/><path fill="none" stroke="black" paint-order="fill stroke markers" d=" M 261 186 L 261 182" stroke-linejoin="bevel" stroke-miterlimit="10"/><path fill="none" stroke="black" paint-order="fill stroke markers" d=" M 277 186 L 277 182" stroke-linejoin="bevel" stroke-miterlimit="10"/><path fill="none" stroke="black" paint-order="fill stroke markers" d=" M 293 186 L 293 182" stroke-linejoin="bevel" stroke-miterlimit="10"/><path fill="none" stroke="black" paint-order="fill stroke markers" d=" M 309 186 L 309 182" stroke-linejoin="bevel" stroke-miterlimit="10"/><path fill="none" stroke="black" paint-order="fill stroke markers" d=" M 325 186 L 325 182" stroke-linejoin="bevel" stroke-miterlimit="10"/><path fill="none" stroke="black" paint-order="fill stroke markers" d=" M 341 186 L 341 182" stroke-linejoin="bevel" stroke-miterlimit="10"/><path fill="none" stroke="black" paint-order="fill stroke markers" d=" M 356 186 L 356 182" stroke-linejoin="bevel" stroke-miterlimit="10"/><path fill="none" stroke="black" paint-order="fill stroke markers" d=" M 372 186 L 372 182" stroke-linejoin="bevel" stroke-miterlimit="10"/><path fill="none" stroke="black" paint-order="fill stroke markers" d=" M 388 186 L 388 182" stroke-linejoin="bevel" stroke-miterlimit="10"/><path fill="none" stroke="black" paint-order="fill stroke markers" d=" M 404 186 L 404 182" stroke-linejoin="bevel" stroke-miterlimit="10"/><path fill="none" stroke="black" paint-order="fill stroke markers" d=" M 420 186 L 420 182" stroke-linejoin="bevel" stroke-miterlimit="10"/><path fill="none" stroke="black" paint-order="fill stroke markers" d=" M 436 186 L 436 182" stroke-linejoin="bevel" stroke-miterlimit="10"/><path fill="none" stroke="black" paint-order="fill stroke markers" d=" M 452 186 L 452 182" stroke-linejoin="bevel" stroke-miterlimit="10"/><path fill="none" stroke="black" paint-order="fill stroke markers" d=" M 468 186 L 468 182" stroke-linejoin="bevel" stroke-miterlimit="10"/><path fill="none" stroke="black" paint-order="fill stroke markers" d=" M 484 186 L 484 182" stroke-linejoin="bevel" stroke-miterlimit="10"/><path fill="none" stroke="black" paint-order="fill stroke markers" d=" M 500 186 L 500 182" stroke-linejoin="bevel" stroke-miterlimit="10"/><path fill="none" stroke="black" paint-order="fill stroke markers" d=" M 516 186 L 516 182" stroke-linejoin="bevel" stroke-miterlimit="10"/><path fill="none" stroke="black" paint-order="fill stroke markers" d=" M 532 186 L 532 182" stroke-linejoin="bevel" stroke-miterlimit="10"/><path fill="none" stroke="black" paint-order="fill stroke markers" d=" M 547 186 L 547 182" stroke-linejoin="bevel" stroke-miterlimit="10"/><path fill="none" stroke="black" paint-order="fill stroke markers" d=" M 563 186 L 563 182" stroke-linejoin="bevel" stroke-miterlimit="10"/><path fill="none" stroke="black" paint-order="fill stroke markers" d=" M 579 186 L 579 182" stroke-linejoin="bevel" stroke-miterlimit="10"/><path fill="none" stroke="black" paint-order="fill stroke markers" d=" M 595 186 L 595 182" stroke-linejoin="bevel" stroke-miterlimit="10"/><path fill="none" stroke="black" paint-order="fill stroke markers" d=" M 611 186 L 611 182" stroke-linejoin="bevel" stroke-miterlimit="10"/><path fill="none" stroke="black" paint-order="fill stroke markers" d=" M 627 186 L 627 182" stroke-linejoin="bevel" stroke-miterlimit="10"/><path fill="none" stroke="black" paint-order="fill stroke markers" d=" M 643 186 L 643 182" stroke-linejoin="bevel" stroke-miterlimit="10"/><path fill="" stroke="black" paint-order="fill stroke markers" d=" M 659 186 L 659 182" stroke-linejoin="bevel" stroke-miterlimit="10"/><g transform="translate(118,193) rotate(0,0,0)"><text fill="" stroke="none" font-family="helvetica" font-size="14pt" font-style="normal" font-weight="normal" text-decoration="normal" x="0" y="0" text-anchor="middle" dominant-baseline="hanging">3300</text><g transform="rotate(0,0,0) translate(-118,-193) translate(197,193) rotate(0,0,0)"><text fill="" stroke="none" font-family="helvetica" font-size="14pt" font-style="normal" font-weight="normal" text-decoration="normal" x="0" y="0" text-anchor="middle" dominant-baseline="hanging">3400</text><g transform="rotate(0,0,0) translate(-197,-193) translate(277,193) rotate(0,0,0)"><text fill="" stroke="none" font-family="helvetica" font-size="14pt" font-style="normal" font-weight="normal" text-decoration="normal" x="0" y="0" text-anchor="middle" dominant-baseline="hanging">3500</text><g transform="rotate(0,0,0) translate(-277,-193) translate(356,193) rotate(0,0,0)"><text fill="" stroke="none" font-family="helvetica" font-size="14pt" font-style="normal" font-weight="normal" text-decoration="normal" x="0" y="0" text-anchor="middle" dominant-baseline="hanging">3600</text><g transform="rotate(0,0,0) translate(-356,-193) translate(436,193) rotate(0,0,0)"><text fill="" stroke="none" font-family="helvetica" font-size="14pt" font-style="normal" font-weight="normal" text-decoration="normal" x="0" y="0" text-anchor="middle" dominant-baseline="hanging">3700</text><g transform="rotate(0,0,0) translate(-436,-193) translate(516,193) rotate(0,0,0)"><text fill="" stroke="none" font-family="helvetica" font-size="14pt" font-style="normal" font-weight="normal" text-decoration="normal" x="0" y="0" text-anchor="middle" dominant-baseline="hanging">3800</text><g transform="rotate(0,0,0) translate(-516,-193) translate(595,193) rotate(0,0,0)"><text fill="" stroke="none" font-family="helvetica" font-size="14pt" font-style="normal" font-weight="normal" text-decoration="normal" x="0" y="0" text-anchor="middle" dominant-baseline="hanging">3900</text><g transform="rotate(0,0,0) translate(-595,-193) translate(384,224) rotate(0,0,0)"><text fill="" stroke="none" font-family="helvetica" font-size="14pt" font-style="italic" font-weight="normal" text-decoration="normal" x="0" y="0" text-anchor="middle" dominant-baseline="hanging">Number of violations</text><g transform="rotate(0,0,0) translate(-384,-224)"/></g></g></g></g></g></g></g></g></g></g><g><g fill="#444444"><path fill="none" stroke="black" paint-order="fill stroke markers" d=" M 97 182 L 97 42" stroke-linejoin="bevel" stroke-miterlimit="10"/><path fill="none" stroke="black" paint-order="fill stroke markers" d=" M 91 165 L 99 165" stroke-linejoin="bevel" stroke-miterlimit="10"/><path fill="none" stroke="black" paint-order="fill stroke markers" d=" M 91 130 L 99 130" stroke-linejoin="bevel" stroke-miterlimit="10"/><path fill="none" stroke="black" paint-order="fill stroke markers" d=" M 91 95 L 99 95" stroke-linejoin="bevel" stroke-miterlimit="10"/><path fill="" stroke="black" paint-order="fill stroke markers" d=" M 91 60 L 99 60" stroke-linejoin="bevel" stroke-miterlimit="10"/><g transform="translate(86,165) rotate(0,0,0)"><text fill="" stroke="none" font-family="helvetica" font-size="14pt" font-style="normal" font-weight="normal" text-decoration="normal" x="0" y="0" text-anchor="end" dominant-baseline="central">Model 1</text><g transform="rotate(0,0,0) translate(-86,-165) translate(86,130) rotate(0,0,0)"><text fill="" stroke="none" font-family="helvetica" font-size="14pt" font-style="normal" font-weight="normal" text-decoration="normal" x="0" y="0" text-anchor="end" dominant-baseline="central">Model 2</text><g transform="rotate(0,0,0) translate(-86,-130) translate(86,95) rotate(0,0,0)"><text fill="" stroke="none" font-family="helvetica" font-size="14pt" font-style="normal" font-weight="normal" text-decoration="normal" x="0" y="0" text-anchor="end" dominant-baseline="central">Model 3</text><g transform="rotate(0,0,0) translate(-86,-95) translate(86,60) rotate(0,0,0)"><text fill="" stroke="none" font-family="helvetica" font-size="14pt" font-style="normal" font-weight="normal" text-decoration="normal" x="0" y="0" text-anchor="end" dominant-baseline="central">Model 4</text><g transform="rotate(0,0,0) translate(-86,-60)"/></g></g></g></g></g></g><g clip-path="url(#yiNZqyigWWst)"><g/></g></g></g></svg>