<svg version="1.1" xmlns="http://www.w3.org/2000/svg" xmlns:xlink="http://www.w3.org/1999/xlink" width="500" height="500"><defs><clipPath id="ZcArelTOGLfr"><path fill="none" stroke="none" d="M 74.5 33.5 L 470.5 33.5 L 470.5 439.5 L 74.5 439.5 L 74.5 33.5"/></clipPath><clipPath id="BATEPCbXqsgi"><path fill="none" stroke="none" d="M 74.5 33.5 L 470.5 33.5 L 470.5 439.5 L 74.5 439.5 L 74.5 33.5"/></clipPath><clipPath id="wUeRGwDxNxiU"><path fill="none" stroke="none" d="M 74.5 33.5 L 470.5 33.5 L 470.5 439.5 L 74.5 439.5 L 74.5 33.5"/></clipPath><clipPath id="VAoOyWtiGJlq"><path fill="none" stroke="none" d="M 74.5 33.5 L 470.5 33.5 L 470.5 439.5 L 74.5 439.5 L 74.5 33.5"/></clipPath><clipPath id="nNTlXACmHhOT"><path fill="none" stroke="none" d="M 74.5 33.5 L 470.5 33.5 L 470.5 439.5 L 74.5 439.5 L 74.5 33.5"/></clipPath></defs><path fill="rgb(255,255,255)" stroke="none" paint-order="stroke" d="M 0.5 0.5 L 500.5 0.5 L 500.5 500.5 L 0.5 500.5 L 0.5 0.5" fill-opacity="1"/><rect fill="#FFFFFF" stroke="none" x="74" y="33" width="396" height="406" transform="matrix(1, 0, 0, 1, 0.5, 0.5)"/><path fill="rgb(255,255,255)" stroke="none" paint-order="stroke" d="M 74.5 33.5 L 470.5 33.5 L 470.5 439.5 L 74.5 439.5 L 74.5 33.5" fill-opacity="1"/><path fill="none" stroke="rgb(229,229,229)" paint-order="fill" d="M 74.5 33.5 L 470.5 33.5 L 470.5 439.5 L 74.5 439.5 L 74.5 33.5" stroke-opacity="1" stroke-linejoin="bevel" stroke-miterlimit="10" stroke-dasharray=""/><path fill="none" stroke="rgb(229,229,229)" paint-order="fill" d="M 141.5 439.5 L 141.5 33.5 M 215.5 439.5 L 215.5 33.5 M 290.5 439.5 L 290.5 33.5 M 364.5 439.5 L 364.5 33.5 M 438.5 439.5 L 438.5 33.5" stroke-opacity="1" stroke-linejoin="bevel" stroke-miterlimit="10" stroke-dasharray="" clip-path="url(#ZcArelTOGLfr)"/><path fill="none" stroke="rgb(229,229,229)" paint-order="fill" d="M 74.5 410.5 L 470.5 410.5 M 74.5 357.5 L 470.5 357.5 M 74.5 304.5 L 470.5 304.5 M 74.5 251.5 L 470.5 251.5 M 74.5 198.5 L 470.5 198.5 M 74.5 145.5 L 470.5 145.5 M 74.5 92.5 L 470.5 92.5 M 74.5 40.5 L 470.5 40.5" stroke-opacity="1" stroke-linejoin="bevel" stroke-miterlimit="10" stroke-dasharray="" clip-path="url(#BATEPCbXqsgi)"/><path fill="none" stroke="none"/><path fill="rgb(0,0,255)" stroke="rgb(0,0,255)" paint-order="fill" d="M 95 364.6318664550781 A 2.5 2.5 0 1 1 94.9999987500001 364.6293664554948" fill-opacity="0.3" clip-path="url(#wUeRGwDxNxiU)" stroke-opacity="1" stroke-linejoin="bevel" stroke-miterlimit="10" stroke-dasharray=""/><path fill="rgb(0,0,255)" stroke="rgb(0,0,255)" paint-order="fill" d="M 97.71927642822266 421.0454406738281 A 2.5 2.5 0 1 1 97.71927517822276 421.0429406742448" fill-opacity="0.3" clip-path="url(#wUeRGwDxNxiU)" stroke-opacity="1" stroke-linejoin="bevel" stroke-miterlimit="10" stroke-dasharray=""/><path fill="rgb(0,0,255)" stroke="rgb(0,0,255)" paint-order="fill" d="M 104.51004791259766 146.2805938720703 A 2.5 2.5 0 1 1 104.51004666259776 146.27809387248698" fill-opacity="0.3" clip-path="url(#wUeRGwDxNxiU)" stroke-opacity="1" stroke-linejoin="bevel" stroke-miterlimit="10" stroke-dasharray=""/><path fill="rgb(0,0,255)" stroke="rgb(0,0,255)" paint-order="fill" d="M 114.02010345458984 88.27938842773438 A 2.5 2.5 0 1 1 114.02010220458995 88.27688842815104" fill-opacity="0.3" clip-path="url(#wUeRGwDxNxiU)" stroke-opacity="1" stroke-linejoin="bevel" stroke-miterlimit="10" stroke-dasharray=""/><path fill="rgb(0,0,255)" stroke="rgb(0,0,255)" paint-order="fill" d="M 123.5301513671875 118.33840942382812 A 2.5 2.5 0 1 1 123.5301501171876 118.33590942424479" fill-opacity="0.3" clip-path="url(#wUeRGwDxNxiU)" stroke-opacity="1" stroke-linejoin="bevel" stroke-miterlimit="10" stroke-dasharray=""/><path fill="rgb(0,0,255)" stroke="rgb(0,0,255)" paint-order="fill" d="M 130.3209228515625 243.65489196777344 A 2.5 2.5 0 1 1 130.32092160156262 243.6523919681901" fill-opacity="0.3" clip-path="url(#wUeRGwDxNxiU)" stroke-opacity="1" stroke-linejoin="bevel" stroke-miterlimit="10" stroke-dasharray=""/><path fill="rgb(0,0,255)" stroke="rgb(0,0,255)" paint-order="fill" d="M 139.8309783935547 155.70050048828125 A 2.5 2.5 0 1 1 139.8309771435548 155.69800048869791" fill-opacity="0.3" clip-path="url(#wUeRGwDxNxiU)" stroke-opacity="1" stroke-linejoin="bevel" stroke-miterlimit="10" stroke-dasharray=""/><path fill="rgb(0,0,255)" stroke="rgb(0,0,255)" paint-order="fill" d="M 149.3410186767578 143.31703186035156 A 2.5 2.5 0 1 1 149.34101742675793 143.31453186076823" fill-opacity="0.3" clip-path="url(#wUeRGwDxNxiU)" stroke-opacity="1" stroke-linejoin="bevel" stroke-miterlimit="10" stroke-dasharray=""/><path fill="rgb(0,0,255)" stroke="rgb(0,0,255)" paint-order="fill" d="M 156.1317901611328 131.35693359375 A 2.5 2.5 0 1 1 156.13178891113293 131.35443359416666" fill-opacity="0.3" clip-path="url(#wUeRGwDxNxiU)" stroke-opacity="1" stroke-linejoin="bevel" stroke-miterlimit="10" stroke-dasharray=""/><path fill="rgb(0,0,255)" stroke="rgb(0,0,255)" paint-order="fill" d="M 158.85107421875 181.737548828125 A 2.5 2.5 0 1 1 158.85107296875012 181.73504882854166" fill-opacity="0.3" clip-path="url(#wUeRGwDxNxiU)" stroke-opacity="1" stroke-linejoin="bevel" stroke-miterlimit="10" stroke-dasharray=""/><path fill="rgb(0,0,255)" stroke="rgb(0,0,255)" paint-order="fill" d="M 165.641845703125 51.95454406738281 A 2.5 2.5 0 1 1 165.64184445312512 51.95204406779948" fill-opacity="0.3" clip-path="url(#wUeRGwDxNxiU)" stroke-opacity="1" stroke-linejoin="bevel" stroke-miterlimit="10" stroke-dasharray=""/><path fill="rgb(0,0,255)" stroke="rgb(0,0,255)" paint-order="fill" d="M 175.1519012451172 159.78599548339844 A 2.5 2.5 0 1 1 175.1518999951173 159.7834954838151" fill-opacity="0.3" clip-path="url(#wUeRGwDxNxiU)" stroke-opacity="1" stroke-linejoin="bevel" stroke-miterlimit="10" stroke-dasharray=""/><path fill="rgb(0,0,255)" stroke="rgb(0,0,255)" paint-order="fill" d="M 181.9426727294922 218.4010772705078 A 2.5 2.5 0 1 1 181.9426714794923 218.39857727092448" fill-opacity="0.3" clip-path="url(#wUeRGwDxNxiU)" stroke-opacity="1" stroke-linejoin="bevel" stroke-miterlimit="10" stroke-dasharray=""/><path fill="rgb(0,0,255)" stroke="rgb(0,0,255)" paint-order="fill" d="M 184.6619415283203 203.36099243164062 A 2.5 2.5 0 1 1 184.66194027832043 203.3584924320573" fill-opacity="0.3" clip-path="url(#wUeRGwDxNxiU)" stroke-opacity="1" stroke-linejoin="bevel" stroke-miterlimit="10" stroke-dasharray=""/><path fill="rgb(0,0,255)" stroke="rgb(0,0,255)" paint-order="fill" d="M 191.4527130126953 297.9198913574219 A 2.5 2.5 0 1 1 191.45271176269543 297.91739135783854" fill-opacity="0.3" clip-path="url(#wUeRGwDxNxiU)" stroke-opacity="1" stroke-linejoin="bevel" stroke-miterlimit="10" stroke-dasharray=""/><path fill="rgb(0,0,255)" stroke="rgb(0,0,255)" paint-order="fill" d="M 200.9627685546875 58.53789520263672 A 2.5 2.5 0 1 1 200.96276730468762 58.53539520305338" fill-opacity="0.3" clip-path="url(#wUeRGwDxNxiU)" stroke-opacity="1" stroke-linejoin="bevel" stroke-miterlimit="10" stroke-dasharray=""/><path fill="rgb(0,0,255)" stroke="rgb(0,0,255)" paint-order="fill" d="M 210.4728240966797 108.8550033569336 A 2.5 2.5 0 1 1 210.4728228466798 108.85250335735026" fill-opacity="0.3" clip-path="url(#wUeRGwDxNxiU)" stroke-opacity="1" stroke-linejoin="bevel" stroke-miterlimit="10" stroke-dasharray=""/><path fill="rgb(0,0,255)" stroke="rgb(0,0,255)" paint-order="fill" d="M 217.2635955810547 137.7391815185547 A 2.5 2.5 0 1 1 217.2635943310548 137.73668151897135" fill-opacity="0.3" clip-path="url(#wUeRGwDxNxiU)" stroke-opacity="1" stroke-linejoin="bevel" stroke-miterlimit="10" stroke-dasharray=""/><path fill="rgb(0,0,255)" stroke="rgb(0,0,255)" paint-order="fill" d="M 445.4899597167969 104.19268035888672 A 2.5 2.5 0 1 1 445.48995846679696 104.19018035930338" fill-opacity="0.3" clip-path="url(#wUeRGwDxNxiU)" stroke-opacity="1" stroke-linejoin="bevel" stroke-miterlimit="10" stroke-dasharray=""/><path fill="rgb(0,0,255)" stroke="rgb(0,0,255)" paint-order="fill" d="M 455 117.2662353515625 A 2.5 2.5 0 1 1 454.9999987500001 117.26373535197916" fill-opacity="0.3" clip-path="url(#wUeRGwDxNxiU)" stroke-opacity="1" stroke-linejoin="bevel" stroke-miterlimit="10" stroke-dasharray=""/><path fill="none" stroke="rgb(0,0,0)" paint-order="fill" d="M 74.5 439.5 L 470.5 439.5" stroke-opacity="1" stroke-linejoin="bevel" stroke-miterlimit="10" stroke-dasharray=""/><path fill="none" stroke="rgb(0,0,0)" paint-order="fill" d="M 141.5 445.5 L 141.5 437.5 M 215.5 445.5 L 215.5 437.5 M 290.5 445.5 L 290.5 437.5 M 364.5 445.5 L 364.5 437.5 M 438.5 445.5 L 438.5 437.5" stroke-opacity="1" stroke-linejoin="bevel" stroke-miterlimit="10" stroke-dasharray=""/><path fill="none" stroke="rgb(0,0,0)" paint-order="fill" d="M 126.5 443.5 L 126.5 439.5 M 111.5 443.5 L 111.5 439.5 M 97.5 443.5 L 97.5 439.5 M 82.5 443.5 L 82.5 439.5 M 141.5 443.5 L 141.5 439.5 M 156.5 443.5 L 156.5 439.5 M 171.5 443.5 L 171.5 439.5 M 186.5 443.5 L 186.5 439.5 M 201.5 443.5 L 201.5 439.5 M 215.5 443.5 L 215.5 439.5 M 230.5 443.5 L 230.5 439.5 M 245.5 443.5 L 245.5 439.5 M 260.5 443.5 L 260.5 439.5 M 275.5 443.5 L 275.5 439.5 M 290.5 443.5 L 290.5 439.5 M 305.5 443.5 L 305.5 439.5 M 319.5 443.5 L 319.5 439.5 M 334.5 443.5 L 334.5 439.5 M 349.5 443.5 L 349.5 439.5 M 364.5 443.5 L 364.5 439.5 M 379.5 443.5 L 379.5 439.5 M 394.5 443.5 L 394.5 439.5 M 409.5 443.5 L 409.5 439.5 M 423.5 443.5 L 423.5 439.5 M 438.5 443.5 L 438.5 439.5 M 453.5 443.5 L 453.5 439.5 M 468.5 443.5 L 468.5 439.5" stroke-opacity="1" stroke-linejoin="bevel" stroke-miterlimit="10" stroke-dasharray=""/><text fill="rgb(68,68,68)" stroke="none" font-family="helvetica" font-size="14pt" font-style="normal" font-weight="normal" text-decoration="normal" x="0" y="0" text-anchor="middle" dominant-baseline="hanging" transform="matrix(1, 0, 0, 1, 141.5, 450.5)" fill-opacity="1">0.5</text><text fill="rgb(68,68,68)" stroke="none" font-family="helvetica" font-size="14pt" font-style="normal" font-weight="normal" text-decoration="normal" x="0" y="0" text-anchor="middle" dominant-baseline="hanging" transform="matrix(1, 0, 0, 1, 215.5, 450.5)" fill-opacity="1">1</text><text fill="rgb(68,68,68)" stroke="none" font-family="helvetica" font-size="14pt" font-style="normal" font-weight="normal" text-decoration="normal" x="0" y="0" text-anchor="middle" dominant-baseline="hanging" transform="matrix(1, 0, 0, 1, 290.5, 450.5)" fill-opacity="1">1.5</text><text fill="rgb(68,68,68)" stroke="none" font-family="helvetica" font-size="14pt" font-style="normal" font-weight="normal" text-decoration="normal" x="0" y="0" text-anchor="middle" dominant-baseline="hanging" transform="matrix(1, 0, 0, 1, 364.5, 450.5)" fill-opacity="1">2</text><text fill="rgb(68,68,68)" stroke="none" font-family="helvetica" font-size="14pt" font-style="normal" font-weight="normal" text-decoration="normal" x="0" y="0" text-anchor="middle" dominant-baseline="hanging" transform="matrix(1, 0, 0, 1, 438.5, 450.5)" fill-opacity="1">2.5</text><text fill="rgb(68,68,68)" stroke="none" font-family="helvetica" font-size="14pt" font-style="italic" font-weight="normal" text-decoration="normal" x="0" y="0" text-anchor="middle" dominant-baseline="hanging" transform="matrix(1, 0, 0, 1, 272.5, 477.5)" fill-opacity="1">q² [nm ²]</text><path fill="none" stroke="rgb(0,0,0)" paint-order="fill" d="M 74.5 439.5 L 74.5 33.5" stroke-opacity="1" stroke-linejoin="bevel" stroke-miterlimit="10" stroke-dasharray=""/><path fill="none" stroke="rgb(0,0,0)" paint-order="fill" d="M 68.5 410.5 L 76.5 410.5 M 68.5 357.5 L 76.5 357.5 M 68.5 304.5 L 76.5 304.5 M 68.5 251.5 L 76.5 251.5 M 68.5 198.5 L 76.5 198.5 M 68.5 145.5 L 76.5 145.5 M 68.5 92.5 L 76.5 92.5 M 68.5 40.5 L 76.5 40.5" stroke-opacity="1" stroke-linejoin="bevel" stroke-miterlimit="10" stroke-dasharray=""/><path fill="none" stroke="rgb(0,0,0)" paint-order="fill" d="M 70.5 421.5 L 74.5 421.5 M 70.5 431.5 L 74.5 431.5 M 70.5 410.5 L 74.5 410.5 M 70.5 399.5 L 74.5 399.5 M 70.5 389.5 L 74.5 389.5 M 70.5 378.5 L 74.5 378.5 M 70.5 368.5 L 74.5 368.5 M 70.5 357.5 L 74.5 357.5 M 70.5 346.5 L 74.5 346.5 M 70.5 336.5 L 74.5 336.5 M 70.5 325.5 L 74.5 325.5 M 70.5 315.5 L 74.5 315.5 M 70.5 304.5 L 74.5 304.5 M 70.5 294.5 L 74.5 294.5 M 70.5 283.5 L 74.5 283.5 M 70.5 272.5 L 74.5 272.5 M 70.5 262.5 L 74.5 262.5 M 70.5 251.5 L 74.5 251.5 M 70.5 241.5 L 74.5 241.5 M 70.5 230.5 L 74.5 230.5 M 70.5 219.5 L 74.5 219.5 M 70.5 209.5 L 74.5 209.5 M 70.5 198.5 L 74.5 198.5 M 70.5 188.5 L 74.5 188.5 M 70.5 177.5 L 74.5 177.5 M 70.5 167.5 L 74.5 167.5 M 70.5 156.5 L 74.5 156.5 M 70.5 145.5 L 74.5 145.5 M 70.5 135.5 L 74.5 135.5 M 70.5 124.5 L 74.5 124.5 M 70.5 114.5 L 74.5 114.5 M 70.5 103.5 L 74.5 103.5 M 70.5 92.5 L 74.5 92.5 M 70.5 82.5 L 74.5 82.5 M 70.5 71.5 L 74.5 71.5 M 70.5 61.5 L 74.5 61.5 M 70.5 50.5 L 74.5 50.5 M 70.5 40.5 L 74.5 40.5" stroke-opacity="1" stroke-linejoin="bevel" stroke-miterlimit="10" stroke-dasharray=""/><text fill="rgb(68,68,68)" stroke="none" font-family="helvetica" font-size="14pt" font-style="normal" font-weight="normal" text-decoration="normal" x="0" y="0" text-anchor="end" dominant-baseline="central" transform="matrix(1, 0, 0, 1, 63.5, 410.5)" fill-opacity="1">-2.5</text><text fill="rgb(68,68,68)" stroke="none" font-family="helvetica" font-size="14pt" font-style="normal" font-weight="normal" text-decoration="normal" x="0" y="0" text-anchor="end" dominant-baseline="central" transform="matrix(1, 0, 0, 1, 63.5, 357.5)" fill-opacity="1">-2</text><text fill="rgb(68,68,68)" stroke="none" font-family="helvetica" font-size="14pt" font-style="normal" font-weight="normal" text-decoration="normal" x="0" y="0" text-anchor="end" dominant-baseline="central" transform="matrix(1, 0, 0, 1, 63.5, 304.5)" fill-opacity="1">-1.5</text><text fill="rgb(68,68,68)" stroke="none" font-family="helvetica" font-size="14pt" font-style="normal" font-weight="normal" text-decoration="normal" x="0" y="0" text-anchor="end" dominant-baseline="central" transform="matrix(1, 0, 0, 1, 63.5, 251.5)" fill-opacity="1">-1</text><text fill="rgb(68,68,68)" stroke="none" font-family="helvetica" font-size="14pt" font-style="normal" font-weight="normal" text-decoration="normal" x="0" y="0" text-anchor="end" dominant-baseline="central" transform="matrix(1, 0, 0, 1, 63.5, 198.5)" fill-opacity="1">-0.5</text><text fill="rgb(68,68,68)" stroke="none" font-family="helvetica" font-size="14pt" font-style="normal" font-weight="normal" text-decoration="normal" x="0" y="0" text-anchor="end" dominant-baseline="central" transform="matrix(1, 0, 0, 1, 63.5, 145.5)" fill-opacity="1">0</text><text fill="rgb(68,68,68)" stroke="none" font-family="helvetica" font-size="14pt" font-style="normal" font-weight="normal" text-decoration="normal" x="0" y="0" text-anchor="end" dominant-baseline="central" transform="matrix(1, 0, 0, 1, 63.5, 92.5)" fill-opacity="1">0.5</text><text fill="rgb(68,68,68)" stroke="none" font-family="helvetica" font-size="14pt" font-style="normal" font-weight="normal" text-decoration="normal" x="0" y="0" text-anchor="end" dominant-baseline="central" transform="matrix(1, 0, 0, 1, 63.5, 40.5)" fill-opacity="1">1</text><text fill="rgb(68,68,68)" stroke="none" font-family="helvetica" font-size="14pt" font-style="italic" font-weight="normal" text-decoration="normal" x="0" y="0" text-anchor="middle" dominant-baseline="alphabetic" transform="matrix(6.123233995736766e-17, -1, 1, 6.123233995736766e-17, 23.5, 236.5)" fill-opacity="1">R</text><path fill="none" stroke="rgb(255,0,0)" paint-order="fill" d="M 74.5 145.85723372750283 L 470.5 145.85723372750283" stroke-opacity="1" stroke-linejoin="bevel" stroke-miterlimit="10" stroke-width="3" stroke-dasharray="" clip-path="url(#VAoOyWtiGJlq)"/><path fill="none" stroke="none"/><text fill="rgb(68,68,68)" stroke="none" font-family="helvetica" font-size="12pt" font-style="normal" font-weight="bold" text-decoration="normal" x="0" y="0" text-anchor="middle" dominant-baseline="text-before-edge" transform="matrix(1, 0, 0, 1, 272.5, 5.5)" fill-opacity="1">Residuals for P(r) fit (SASDBV9)</text></svg>