<svg version="1.1" xmlns="http://www.w3.org/2000/svg" xmlns:xlink="http://www.w3.org/1999/xlink" width="700" height="250"><defs><clipPath id="hLrCBATLbJGR"><path fill="none" stroke="none" d="M 243.5 37.5 L 670.5 37.5 L 670.5 217.5 L 243.5 217.5 L 243.5 37.5"/></clipPath><clipPath id="mBnLbOcPURZD"><path fill="none" stroke="none" d="M 243.5 37.5 L 670.5 37.5 L 670.5 217.5 L 243.5 217.5 L 243.5 37.5"/></clipPath><clipPath id="sCpfUekbXScM"><path fill="none" stroke="none" d="M 243.5 37.5 L 670.5 37.5 L 670.5 217.5 L 243.5 217.5 L 243.5 37.5"/></clipPath><clipPath id="VDnebdCDGsXS"><path fill="none" stroke="none" d="M 243.5 37.5 L 670.5 37.5 L 670.5 217.5 L 243.5 217.5 L 243.5 37.5"/></clipPath><clipPath id="FLVPPsaxKVsT"><path fill="none" stroke="none" d="M 243.5 37.5 L 670.5 37.5 L 670.5 217.5 L 243.5 217.5 L 243.5 37.5"/></clipPath></defs><path fill="rgb(255,255,255)" stroke="none" paint-order="stroke" d="M 0.5 0.5 L 700.5 0.5 L 700.5 250.5 L 0.5 250.5 L 0.5 0.5" fill-opacity="1"/><rect fill="#FFFFFF" stroke="none" x="243" y="37" width="427" height="180" transform="matrix(1, 0, 0, 1, 0.5, 0.5)"/><path fill="rgb(255,255,255)" stroke="none" paint-order="stroke" d="M 243.5 37.5 L 670.5 37.5 L 670.5 217.5 L 243.5 217.5 L 243.5 37.5" fill-opacity="1"/><path fill="none" stroke="rgb(229,229,229)" paint-order="fill" d="M 243.5 37.5 L 670.5 37.5 L 670.5 217.5 L 243.5 217.5 L 243.5 37.5" stroke-opacity="1" stroke-linejoin="bevel" stroke-miterlimit="10" stroke-dasharray=""/><path fill="none" stroke="rgb(229,229,229)" paint-order="fill" d="M 298.5 217.5 L 298.5 37.5 M 354.5 217.5 L 354.5 37.5 M 409.5 217.5 L 409.5 37.5 M 464.5 217.5 L 464.5 37.5 M 520.5 217.5 L 520.5 37.5 M 575.5 217.5 L 575.5 37.5 M 630.5 217.5 L 630.5 37.5" stroke-opacity="1" stroke-linejoin="bevel" stroke-miterlimit="10" stroke-dasharray="" clip-path="url(#hLrCBATLbJGR)"/><path fill="none" stroke="none"/><path fill="rgb(68,1,84)" stroke="none" paint-order="stroke" d="M 243.5 198.75 L 559.8782348632812 198.75 L 559.8782348632812 206.25 L 243.5 206.25 L 243.5 198.75" fill-opacity="0.8" clip-path="url(#sCpfUekbXScM)"/><path fill="none" stroke="rgb(68,1,84)" paint-order="fill" d="M 243.5 198.75 L 559.8782348632812 198.75 L 559.8782348632812 206.25 L 243.5 206.25 L 243.5 198.75" stroke-opacity="0.8" stroke-linejoin="bevel" stroke-miterlimit="10" stroke-dasharray="" clip-path="url(#sCpfUekbXScM)"/><path fill="rgb(64,67,135)" stroke="none" paint-order="stroke" d="M 243.5 168.75 L 461.42486572265625 168.75 L 461.42486572265625 176.25 L 243.5 176.25 L 243.5 168.75" fill-opacity="0.8" clip-path="url(#sCpfUekbXScM)"/><path fill="none" stroke="rgb(64,67,135)" paint-order="fill" d="M 243.5 168.75 L 461.42486572265625 168.75 L 461.42486572265625 176.25 L 243.5 176.25 L 243.5 168.75" stroke-opacity="0.8" stroke-linejoin="bevel" stroke-miterlimit="10" stroke-dasharray="" clip-path="url(#sCpfUekbXScM)"/><path fill="rgb(41,120,142)" stroke="none" paint-order="stroke" d="M 243.5 138.75 L 458.1062316894531 138.75 L 458.1062316894531 146.25 L 243.5 146.25 L 243.5 138.75" fill-opacity="0.8" clip-path="url(#sCpfUekbXScM)"/><path fill="none" stroke="rgb(41,120,142)" paint-order="fill" d="M 243.5 138.75 L 458.1062316894531 138.75 L 458.1062316894531 146.25 L 243.5 146.25 L 243.5 138.75" stroke-opacity="0.8" stroke-linejoin="bevel" stroke-miterlimit="10" stroke-dasharray="" clip-path="url(#sCpfUekbXScM)"/><path fill="rgb(34,167,132)" stroke="none" paint-order="stroke" d="M 243.5 108.75 L 466.9559631347656 108.75 L 466.9559631347656 116.25 L 243.5 116.25 L 243.5 108.75" fill-opacity="0.8" clip-path="url(#sCpfUekbXScM)"/><path fill="none" stroke="rgb(34,167,132)" paint-order="fill" d="M 243.5 108.75 L 466.9559631347656 108.75 L 466.9559631347656 116.25 L 243.5 116.25 L 243.5 108.75" stroke-opacity="0.8" stroke-linejoin="bevel" stroke-miterlimit="10" stroke-dasharray="" clip-path="url(#sCpfUekbXScM)"/><path fill="rgb(121,209,81)" stroke="none" paint-order="stroke" d="M 243.5 78.75 L 385.0958557128906 78.75 L 385.0958557128906 86.25 L 243.5 86.25 L 243.5 78.75" fill-opacity="0.8" clip-path="url(#sCpfUekbXScM)"/><path fill="none" stroke="rgb(121,209,81)" paint-order="fill" d="M 243.5 78.75 L 385.0958557128906 78.75 L 385.0958557128906 86.25 L 243.5 86.25 L 243.5 78.75" stroke-opacity="0.8" stroke-linejoin="bevel" stroke-miterlimit="10" stroke-dasharray="" clip-path="url(#sCpfUekbXScM)"/><path fill="rgb(253,231,36)" stroke="none" paint-order="stroke" d="M 243.5 48.75 L 365.1839294433594 48.75 L 365.1839294433594 56.25 L 243.5 56.25 L 243.5 48.75" fill-opacity="0.8" clip-path="url(#sCpfUekbXScM)"/><path fill="none" stroke="rgb(253,231,36)" paint-order="fill" d="M 243.5 48.75 L 365.1839294433594 48.75 L 365.1839294433594 56.25 L 243.5 56.25 L 243.5 48.75" stroke-opacity="0.8" stroke-linejoin="bevel" stroke-miterlimit="10" stroke-dasharray="" clip-path="url(#sCpfUekbXScM)"/><path fill="none" stroke="rgb(0,0,0)" paint-order="fill" d="M 243.5 217.5 L 670.5 217.5" stroke-opacity="1" stroke-linejoin="bevel" stroke-miterlimit="10" stroke-dasharray=""/><path fill="none" stroke="rgb(0,0,0)" paint-order="fill" d="M 243.5 223.5 L 243.5 215.5 M 298.5 223.5 L 298.5 215.5 M 354.5 223.5 L 354.5 215.5 M 409.5 223.5 L 409.5 215.5 M 464.5 223.5 L 464.5 215.5 M 520.5 223.5 L 520.5 215.5 M 575.5 223.5 L 575.5 215.5 M 630.5 223.5 L 630.5 215.5" stroke-opacity="1" stroke-linejoin="bevel" stroke-miterlimit="10" stroke-dasharray=""/><path fill="none" stroke="rgb(0,0,0)" paint-order="fill" d="M 243.5 221.5 L 243.5 217.5 M 254.5 221.5 L 254.5 217.5 M 265.5 221.5 L 265.5 217.5 M 276.5 221.5 L 276.5 217.5 M 287.5 221.5 L 287.5 217.5 M 298.5 221.5 L 298.5 217.5 M 309.5 221.5 L 309.5 217.5 M 320.5 221.5 L 320.5 217.5 M 331.5 221.5 L 331.5 217.5 M 343.5 221.5 L 343.5 217.5 M 354.5 221.5 L 354.5 217.5 M 365.5 221.5 L 365.5 217.5 M 376.5 221.5 L 376.5 217.5 M 387.5 221.5 L 387.5 217.5 M 398.5 221.5 L 398.5 217.5 M 409.5 221.5 L 409.5 217.5 M 420.5 221.5 L 420.5 217.5 M 431.5 221.5 L 431.5 217.5 M 442.5 221.5 L 442.5 217.5 M 453.5 221.5 L 453.5 217.5 M 464.5 221.5 L 464.5 217.5 M 475.5 221.5 L 475.5 217.5 M 486.5 221.5 L 486.5 217.5 M 497.5 221.5 L 497.5 217.5 M 508.5 221.5 L 508.5 217.5 M 520.5 221.5 L 520.5 217.5 M 531.5 221.5 L 531.5 217.5 M 542.5 221.5 L 542.5 217.5 M 553.5 221.5 L 553.5 217.5 M 564.5 221.5 L 564.5 217.5 M 575.5 221.5 L 575.5 217.5 M 586.5 221.5 L 586.5 217.5 M 597.5 221.5 L 597.5 217.5 M 608.5 221.5 L 608.5 217.5 M 619.5 221.5 L 619.5 217.5 M 630.5 221.5 L 630.5 217.5 M 641.5 221.5 L 641.5 217.5 M 652.5 221.5 L 652.5 217.5 M 663.5 221.5 L 663.5 217.5" stroke-opacity="1" stroke-linejoin="bevel" stroke-miterlimit="10" stroke-dasharray=""/><text fill="rgb(68,68,68)" stroke="none" font-family="helvetica" font-size="14pt" font-style="normal" font-weight="normal" text-decoration="normal" x="0" y="0" text-anchor="middle" dominant-baseline="hanging" transform="matrix(1, 0, 0, 1, 243.5, 228.5)" fill-opacity="1">0</text><text fill="rgb(68,68,68)" stroke="none" font-family="helvetica" font-size="14pt" font-style="normal" font-weight="normal" text-decoration="normal" x="0" y="0" text-anchor="middle" dominant-baseline="hanging" transform="matrix(1, 0, 0, 1, 298.5, 228.5)" fill-opacity="1">0.5</text><text fill="rgb(68,68,68)" stroke="none" font-family="helvetica" font-size="14pt" font-style="normal" font-weight="normal" text-decoration="normal" x="0" y="0" text-anchor="middle" dominant-baseline="hanging" transform="matrix(1, 0, 0, 1, 354.5, 228.5)" fill-opacity="1">1</text><text fill="rgb(68,68,68)" stroke="none" font-family="helvetica" font-size="14pt" font-style="normal" font-weight="normal" text-decoration="normal" x="0" y="0" text-anchor="middle" dominant-baseline="hanging" transform="matrix(1, 0, 0, 1, 409.5, 228.5)" fill-opacity="1">1.5</text><text fill="rgb(68,68,68)" stroke="none" font-family="helvetica" font-size="14pt" font-style="normal" font-weight="normal" text-decoration="normal" x="0" y="0" text-anchor="middle" dominant-baseline="hanging" transform="matrix(1, 0, 0, 1, 464.5, 228.5)" fill-opacity="1">2</text><text fill="rgb(68,68,68)" stroke="none" font-family="helvetica" font-size="14pt" font-style="normal" font-weight="normal" text-decoration="normal" x="0" y="0" text-anchor="middle" dominant-baseline="hanging" transform="matrix(1, 0, 0, 1, 520.5, 228.5)" fill-opacity="1">2.5</text><text fill="rgb(68,68,68)" stroke="none" font-family="helvetica" font-size="14pt" font-style="normal" font-weight="normal" text-decoration="normal" x="0" y="0" text-anchor="middle" dominant-baseline="hanging" transform="matrix(1, 0, 0, 1, 575.5, 228.5)" fill-opacity="1">3</text><text fill="rgb(68,68,68)" stroke="none" font-family="helvetica" font-size="14pt" font-style="normal" font-weight="normal" text-decoration="normal" x="0" y="0" text-anchor="middle" dominant-baseline="hanging" transform="matrix(1, 0, 0, 1, 630.5, 228.5)" fill-opacity="1">3.5</text><path fill="none" stroke="rgb(0,0,0)" paint-order="fill" d="M 243.5 217.5 L 243.5 37.5" stroke-opacity="1" stroke-linejoin="bevel" stroke-miterlimit="10" stroke-dasharray=""/><path fill="none" stroke="rgb(0,0,0)" paint-order="fill" d="M 237.5 202.5 L 245.5 202.5 M 237.5 172.5 L 245.5 172.5 M 237.5 142.5 L 245.5 142.5 M 237.5 112.5 L 245.5 112.5 M 237.5 82.5 L 245.5 82.5 M 237.5 52.5 L 245.5 52.5" stroke-opacity="1" stroke-linejoin="bevel" stroke-miterlimit="10" stroke-dasharray=""/><path fill="none" stroke="rgb(0,0,0)" paint-order="fill" d="" stroke-opacity="1" stroke-linejoin="bevel" stroke-miterlimit="10" stroke-dasharray=""/><text fill="rgb(68,68,68)" stroke="none" font-family="helvetica" font-size="14pt" font-style="normal" font-weight="normal" text-decoration="normal" x="0" y="0" text-anchor="end" dominant-baseline="central" transform="matrix(1, 0, 0, 1, 232.5, 202.5)" fill-opacity="1">χ² value fit 1 (SASDBX9)</text><text fill="rgb(68,68,68)" stroke="none" font-family="helvetica" font-size="14pt" font-style="normal" font-weight="normal" text-decoration="normal" x="0" y="0" text-anchor="end" dominant-baseline="central" transform="matrix(1, 0, 0, 1, 232.5, 172.5)" fill-opacity="1">χ² value fit 1 (SASDBW9)</text><text fill="rgb(68,68,68)" stroke="none" font-family="helvetica" font-size="14pt" font-style="normal" font-weight="normal" text-decoration="normal" x="0" y="0" text-anchor="end" dominant-baseline="central" transform="matrix(1, 0, 0, 1, 232.5, 142.5)" fill-opacity="1">χ² value fit 1 (SASDBZ9)</text><text fill="rgb(68,68,68)" stroke="none" font-family="helvetica" font-size="14pt" font-style="normal" font-weight="normal" text-decoration="normal" x="0" y="0" text-anchor="end" dominant-baseline="central" transform="matrix(1, 0, 0, 1, 232.5, 112.5)" fill-opacity="1">χ² value fit 1 (SASDBY9)</text><text fill="rgb(68,68,68)" stroke="none" font-family="helvetica" font-size="14pt" font-style="normal" font-weight="normal" text-decoration="normal" x="0" y="0" text-anchor="end" dominant-baseline="central" transform="matrix(1, 0, 0, 1, 232.5, 82.5)" fill-opacity="1">χ² value fit 1 (SASDBV9)</text><text fill="rgb(68,68,68)" stroke="none" font-family="helvetica" font-size="14pt" font-style="normal" font-weight="normal" text-decoration="normal" x="0" y="0" text-anchor="end" dominant-baseline="central" transform="matrix(1, 0, 0, 1, 232.5, 52.5)" fill-opacity="1">χ² value fit 2 (SASDBV9)</text><path fill="rgb(255,255,255)" stroke="rgb(229,229,229)" paint-order="fill" d="M 595.5 47.5 L 660.5 47.5 L 660.5 202.5 L 595.5 202.5 L 595.5 47.5" fill-opacity="0.95" clip-path="url(#VDnebdCDGsXS)" stroke-opacity="0.5" stroke-linejoin="bevel" stroke-miterlimit="10" stroke-dasharray=""/><text fill="rgb(68,68,68)" stroke="none" font-family="helvetica" font-size="8px" font-style="normal" font-weight="normal" text-decoration="normal" x="630" y="67" text-anchor="start" dominant-baseline="central" transform="matrix(1, 0, 0, 1, 0.5, 0.5)" fill-opacity="1">1.1</text><path fill="rgb(253,231,36)" stroke="none" paint-order="stroke" d="M 607.5 59.5 L 623.5 59.5 L 623.5 75.5 L 607.5 75.5 L 607.5 59.5" fill-opacity="0.8" clip-path="url(#VDnebdCDGsXS)"/><path fill="none" stroke="rgb(253,231,36)" paint-order="fill" d="M 607.5 59.5 L 623.5 59.5 L 623.5 75.5 L 607.5 75.5 L 607.5 59.5" stroke-opacity="0.8" stroke-linejoin="bevel" stroke-miterlimit="10" stroke-dasharray="" clip-path="url(#VDnebdCDGsXS)"/><text fill="rgb(68,68,68)" stroke="none" font-family="helvetica" font-size="8px" font-style="normal" font-weight="normal" text-decoration="normal" x="630" y="90" text-anchor="start" dominant-baseline="central" transform="matrix(1, 0, 0, 1, 0.5, 0.5)" fill-opacity="1">1.28</text><path fill="rgb(121,209,81)" stroke="none" paint-order="stroke" d="M 607.5 82.5 L 623.5 82.5 L 623.5 98.5 L 607.5 98.5 L 607.5 82.5" fill-opacity="0.8" clip-path="url(#VDnebdCDGsXS)"/><path fill="none" stroke="rgb(121,209,81)" paint-order="fill" d="M 607.5 82.5 L 623.5 82.5 L 623.5 98.5 L 607.5 98.5 L 607.5 82.5" stroke-opacity="0.8" stroke-linejoin="bevel" stroke-miterlimit="10" stroke-dasharray="" clip-path="url(#VDnebdCDGsXS)"/><text fill="rgb(68,68,68)" stroke="none" font-family="helvetica" font-size="8px" font-style="normal" font-weight="normal" text-decoration="normal" x="630" y="113" text-anchor="start" dominant-baseline="central" transform="matrix(1, 0, 0, 1, 0.5, 0.5)" fill-opacity="1">1.94</text><path fill="rgb(41,120,142)" stroke="none" paint-order="stroke" d="M 607.5 105.5 L 623.5 105.5 L 623.5 121.5 L 607.5 121.5 L 607.5 105.5" fill-opacity="0.8" clip-path="url(#VDnebdCDGsXS)"/><path fill="none" stroke="rgb(41,120,142)" paint-order="fill" d="M 607.5 105.5 L 623.5 105.5 L 623.5 121.5 L 607.5 121.5 L 607.5 105.5" stroke-opacity="0.8" stroke-linejoin="bevel" stroke-miterlimit="10" stroke-dasharray="" clip-path="url(#VDnebdCDGsXS)"/><text fill="rgb(68,68,68)" stroke="none" font-family="helvetica" font-size="8px" font-style="normal" font-weight="normal" text-decoration="normal" x="630" y="136" text-anchor="start" dominant-baseline="central" transform="matrix(1, 0, 0, 1, 0.5, 0.5)" fill-opacity="1">1.97</text><path fill="rgb(64,67,135)" stroke="none" paint-order="stroke" d="M 607.5 128.5 L 623.5 128.5 L 623.5 144.5 L 607.5 144.5 L 607.5 128.5" fill-opacity="0.8" clip-path="url(#VDnebdCDGsXS)"/><path fill="none" stroke="rgb(64,67,135)" paint-order="fill" d="M 607.5 128.5 L 623.5 128.5 L 623.5 144.5 L 607.5 144.5 L 607.5 128.5" stroke-opacity="0.8" stroke-linejoin="bevel" stroke-miterlimit="10" stroke-dasharray="" clip-path="url(#VDnebdCDGsXS)"/><text fill="rgb(68,68,68)" stroke="none" font-family="helvetica" font-size="8px" font-style="normal" font-weight="normal" text-decoration="normal" x="630" y="159" text-anchor="start" dominant-baseline="central" transform="matrix(1, 0, 0, 1, 0.5, 0.5)" fill-opacity="1">2.02</text><path fill="rgb(34,167,132)" stroke="none" paint-order="stroke" d="M 607.5 151.5 L 623.5 151.5 L 623.5 167.5 L 607.5 167.5 L 607.5 151.5" fill-opacity="0.8" clip-path="url(#VDnebdCDGsXS)"/><path fill="none" stroke="rgb(34,167,132)" paint-order="fill" d="M 607.5 151.5 L 623.5 151.5 L 623.5 167.5 L 607.5 167.5 L 607.5 151.5" stroke-opacity="0.8" stroke-linejoin="bevel" stroke-miterlimit="10" stroke-dasharray="" clip-path="url(#VDnebdCDGsXS)"/><text fill="rgb(68,68,68)" stroke="none" font-family="helvetica" font-size="8px" font-style="normal" font-weight="normal" text-decoration="normal" x="630" y="182" text-anchor="start" dominant-baseline="central" transform="matrix(1, 0, 0, 1, 0.5, 0.5)" fill-opacity="1">2.86</text><path fill="rgb(68,1,84)" stroke="none" paint-order="stroke" d="M 607.5 174.5 L 623.5 174.5 L 623.5 190.5 L 607.5 190.5 L 607.5 174.5" fill-opacity="0.8" clip-path="url(#VDnebdCDGsXS)"/><path fill="none" stroke="rgb(68,1,84)" paint-order="fill" d="M 607.5 174.5 L 623.5 174.5 L 623.5 190.5 L 607.5 190.5 L 607.5 174.5" stroke-opacity="0.8" stroke-linejoin="bevel" stroke-miterlimit="10" stroke-dasharray="" clip-path="url(#VDnebdCDGsXS)"/><path fill="none" stroke="none"/><text fill="rgb(68,68,68)" stroke="none" font-family="helvetica" font-size="14pt" font-style="normal" font-weight="bold" text-decoration="normal" x="0" y="0" text-anchor="middle" dominant-baseline="text-after-edge" transform="matrix(1, 0, 0, 1, 457, 32.5)" fill-opacity="1">Fit to SAS input: χ² Fit</text></svg>