<svg version="1.1" xmlns="http://www.w3.org/2000/svg" xmlns:xlink="http://www.w3.org/1999/xlink" width="800" height="300"><defs><clipPath id="xdCAfrqHTagG"><path fill="none" stroke="none" d="M 84.5 37.5 L 770.5 37.5 L 770.5 179.5 L 84.5 179.5 L 84.5 37.5"/></clipPath><clipPath id="uTkVUCTHIaJO"><path fill="none" stroke="none" d="M 84.5 37.5 L 770.5 37.5 L 770.5 179.5 L 84.5 179.5 L 84.5 37.5"/></clipPath><clipPath id="vcTPRcACTXsh"><path fill="none" stroke="none" d="M 84.5 37.5 L 770.5 37.5 L 770.5 179.5 L 84.5 179.5 L 84.5 37.5"/></clipPath><clipPath id="UktrvwCtqkIC"><path fill="none" stroke="none" d="M 84.5 37.5 L 770.5 37.5 L 770.5 179.5 L 84.5 179.5 L 84.5 37.5"/></clipPath></defs><path fill="rgb(255,255,255)" stroke="none" paint-order="stroke" d="M 0.5 0.5 L 800.5 0.5 L 800.5 300.5 L 0.5 300.5 L 0.5 0.5" fill-opacity="1"/><rect fill="#FFFFFF" stroke="none" x="84" y="37" width="686" height="142" transform="matrix(1, 0, 0, 1, 0.5, 0.5)"/><path fill="rgb(255,255,255)" stroke="none" paint-order="stroke" d="M 84.5 37.5 L 770.5 37.5 L 770.5 179.5 L 84.5 179.5 L 84.5 37.5" fill-opacity="1"/><path fill="none" stroke="rgb(229,229,229)" paint-order="fill" d="M 84.5 37.5 L 770.5 37.5 L 770.5 179.5 L 84.5 179.5 L 84.5 37.5" stroke-opacity="1" stroke-linejoin="bevel" stroke-miterlimit="10" stroke-dasharray=""/><path fill="none" stroke="rgb(229,229,229)" paint-order="fill" d="M 101.5 179.5 L 101.5 37.5 M 187.5 179.5 L 187.5 37.5 M 273.5 179.5 L 273.5 37.5 M 358.5 179.5 L 358.5 37.5 M 444.5 179.5 L 444.5 37.5 M 530.5 179.5 L 530.5 37.5 M 616.5 179.5 L 616.5 37.5 M 701.5 179.5 L 701.5 37.5" stroke-opacity="1" stroke-linejoin="bevel" stroke-miterlimit="10" stroke-dasharray="" clip-path="url(#xdCAfrqHTagG)"/><path fill="none" stroke="none"/><path fill="rgb(68,1,84)" stroke="none" paint-order="stroke" d="M 84.5 37.5 L 427.5 37.5 L 427.5 179.5 L 84.5 179.5 L 84.5 37.5" fill-opacity="0.8" clip-path="url(#vcTPRcACTXsh)"/><path fill="none" stroke="rgb(0,0,0)" paint-order="fill" d="M 84.5 37.5 L 427.5 37.5 L 427.5 179.5 L 84.5 179.5 L 84.5 37.5" stroke-opacity="0.8" stroke-linejoin="bevel" stroke-miterlimit="10" stroke-dasharray="" clip-path="url(#vcTPRcACTXsh)"/><path fill="none" stroke="rgb(0,0,0)" paint-order="fill" d="M 84.5 179.5 L 770.5 179.5" stroke-opacity="1" stroke-linejoin="bevel" stroke-miterlimit="10" stroke-dasharray=""/><path fill="none" stroke="rgb(0,0,0)" paint-order="fill" d="M 101.5 185.5 L 101.5 177.5 M 187.5 185.5 L 187.5 177.5 M 273.5 185.5 L 273.5 177.5 M 358.5 185.5 L 358.5 177.5 M 444.5 185.5 L 444.5 177.5 M 530.5 185.5 L 530.5 177.5 M 616.5 185.5 L 616.5 177.5 M 701.5 185.5 L 701.5 177.5" stroke-opacity="1" stroke-linejoin="bevel" stroke-miterlimit="10" stroke-dasharray=""/><path fill="none" stroke="rgb(0,0,0)" paint-order="fill" d="M 84.5 183.5 L 84.5 179.5 M 101.5 183.5 L 101.5 179.5 M 118.5 183.5 L 118.5 179.5 M 135.5 183.5 L 135.5 179.5 M 153.5 183.5 L 153.5 179.5 M 170.5 183.5 L 170.5 179.5 M 187.5 183.5 L 187.5 179.5 M 204.5 183.5 L 204.5 179.5 M 221.5 183.5 L 221.5 179.5 M 238.5 183.5 L 238.5 179.5 M 256.5 183.5 L 256.5 179.5 M 273.5 183.5 L 273.5 179.5 M 290.5 183.5 L 290.5 179.5 M 307.5 183.5 L 307.5 179.5 M 324.5 183.5 L 324.5 179.5 M 341.5 183.5 L 341.5 179.5 M 358.5 183.5 L 358.5 179.5 M 376.5 183.5 L 376.5 179.5 M 393.5 183.5 L 393.5 179.5 M 410.5 183.5 L 410.5 179.5 M 427.5 183.5 L 427.5 179.5 M 444.5 183.5 L 444.5 179.5 M 461.5 183.5 L 461.5 179.5 M 478.5 183.5 L 478.5 179.5 M 496.5 183.5 L 496.5 179.5 M 513.5 183.5 L 513.5 179.5 M 530.5 183.5 L 530.5 179.5 M 547.5 183.5 L 547.5 179.5 M 564.5 183.5 L 564.5 179.5 M 581.5 183.5 L 581.5 179.5 M 599.5 183.5 L 599.5 179.5 M 616.5 183.5 L 616.5 179.5 M 633.5 183.5 L 633.5 179.5 M 650.5 183.5 L 650.5 179.5 M 667.5 183.5 L 667.5 179.5 M 684.5 183.5 L 684.5 179.5 M 701.5 183.5 L 701.5 179.5 M 719.5 183.5 L 719.5 179.5 M 736.5 183.5 L 736.5 179.5 M 753.5 183.5 L 753.5 179.5 M 770.5 183.5 L 770.5 179.5" stroke-opacity="1" stroke-linejoin="bevel" stroke-miterlimit="10" stroke-dasharray=""/><text fill="rgb(68,68,68)" stroke="none" font-family="helvetica" font-size="14pt" font-style="normal" font-weight="normal" text-decoration="normal" x="0" y="0" text-anchor="middle" dominant-baseline="hanging" transform="matrix(1, 0, 0, 1, 101.5, 190.5)" fill-opacity="1">2070</text><text fill="rgb(68,68,68)" stroke="none" font-family="helvetica" font-size="14pt" font-style="normal" font-weight="normal" text-decoration="normal" x="0" y="0" text-anchor="middle" dominant-baseline="hanging" transform="matrix(1, 0, 0, 1, 187.5, 190.5)" fill-opacity="1">2075</text><text fill="rgb(68,68,68)" stroke="none" font-family="helvetica" font-size="14pt" font-style="normal" font-weight="normal" text-decoration="normal" x="0" y="0" text-anchor="middle" dominant-baseline="hanging" transform="matrix(1, 0, 0, 1, 273.5, 190.5)" fill-opacity="1">2080</text><text fill="rgb(68,68,68)" stroke="none" font-family="helvetica" font-size="14pt" font-style="normal" font-weight="normal" text-decoration="normal" x="0" y="0" text-anchor="middle" dominant-baseline="hanging" transform="matrix(1, 0, 0, 1, 358.5, 190.5)" fill-opacity="1">2085</text><text fill="rgb(68,68,68)" stroke="none" font-family="helvetica" font-size="14pt" font-style="normal" font-weight="normal" text-decoration="normal" x="0" y="0" text-anchor="middle" dominant-baseline="hanging" transform="matrix(1, 0, 0, 1, 444.5, 190.5)" fill-opacity="1">2090</text><text fill="rgb(68,68,68)" stroke="none" font-family="helvetica" font-size="14pt" font-style="normal" font-weight="normal" text-decoration="normal" x="0" y="0" text-anchor="middle" dominant-baseline="hanging" transform="matrix(1, 0, 0, 1, 530.5, 190.5)" fill-opacity="1">2095</text><text fill="rgb(68,68,68)" stroke="none" font-family="helvetica" font-size="14pt" font-style="normal" font-weight="normal" text-decoration="normal" x="0" y="0" text-anchor="middle" dominant-baseline="hanging" transform="matrix(1, 0, 0, 1, 616.5, 190.5)" fill-opacity="1">2100</text><text fill="rgb(68,68,68)" stroke="none" font-family="helvetica" font-size="14pt" font-style="normal" font-weight="normal" text-decoration="normal" x="0" y="0" text-anchor="middle" dominant-baseline="hanging" transform="matrix(1, 0, 0, 1, 701.5, 190.5)" fill-opacity="1">2105</text><text fill="rgb(68,68,68)" stroke="none" font-family="helvetica" font-size="14pt" font-style="italic" font-weight="normal" text-decoration="normal" x="0" y="0" text-anchor="middle" dominant-baseline="hanging" transform="matrix(1, 0, 0, 1, 427.5, 217.5)" fill-opacity="1">Number of violations</text><path fill="none" stroke="rgb(0,0,0)" paint-order="fill" d="M 84.5 179.5 L 84.5 37.5" stroke-opacity="1" stroke-linejoin="bevel" stroke-miterlimit="10" stroke-dasharray=""/><path fill="none" stroke="rgb(0,0,0)" paint-order="fill" d="M 78.5 108.5 L 86.5 108.5" stroke-opacity="1" stroke-linejoin="bevel" stroke-miterlimit="10" stroke-dasharray=""/><path fill="none" stroke="rgb(0,0,0)" paint-order="fill" d="" stroke-opacity="1" stroke-linejoin="bevel" stroke-miterlimit="10" stroke-dasharray=""/><text fill="rgb(68,68,68)" stroke="none" font-family="helvetica" font-size="14pt" font-style="normal" font-weight="normal" text-decoration="normal" x="0" y="0" text-anchor="end" dominant-baseline="central" transform="matrix(1, 0, 0, 1, 73.5, 108.5)" fill-opacity="1">Model 1</text><path fill="rgb(255,255,255)" stroke="rgb(229,229,229)" paint-order="fill" d="M 362.30833435058594 250.5 L 492.69166564941406 250.5 L 492.69166564941406 290.5 L 362.30833435058594 290.5 L 362.30833435058594 250.5" fill-opacity="0.95" stroke-opacity="0.5" stroke-linejoin="bevel" stroke-miterlimit="10" stroke-dasharray=""/><text fill="rgb(68,68,68)" stroke="none" font-family="helvetica" font-size="8px" font-style="normal" font-weight="normal" text-decoration="normal" x="396.80833435058594" y="270" text-anchor="start" dominant-baseline="central" transform="matrix(1, 0, 0, 1, 0.5, 0.5)" fill-opacity="1">Model 1: 2089(99.46 %)</text><path fill="rgb(68,1,84)" stroke="none" paint-order="stroke" d="M 374.30833435058594 262.5 L 390.30833435058594 262.5 L 390.30833435058594 278.5 L 374.30833435058594 278.5 L 374.30833435058594 262.5" fill-opacity="0.8"/><path fill="none" stroke="rgb(0,0,0)" paint-order="fill" d="M 374.30833435058594 262.5 L 390.30833435058594 262.5 L 390.30833435058594 278.5 L 374.30833435058594 278.5 L 374.30833435058594 262.5" stroke-opacity="0.8" stroke-linejoin="bevel" stroke-miterlimit="10" stroke-dasharray=""/><path fill="none" stroke="none"/><text fill="rgb(68,68,68)" stroke="none" font-family="helvetica" font-size="14pt" font-style="normal" font-weight="bold" text-decoration="normal" x="0" y="0" text-anchor="middle" dominant-baseline="text-before-edge" transform="matrix(1, 0, 0, 1, 427.5, 5.5)" fill-opacity="1">Model quality: Excluded Volume Analysis</text></svg>