<svg version="1.1" xmlns="http://www.w3.org/2000/svg" xmlns:xlink="http://www.w3.org/1999/xlink" width="800" height="300"><defs><clipPath id="VtrtuSZqnyAR"><path fill="none" stroke="none" d="M 157.5 37.5 L 770.5 37.5 L 770.5 207.5 L 157.5 207.5 L 157.5 37.5"/></clipPath><clipPath id="tqimoxvONWKo"><path fill="none" stroke="none" d="M 157.5 37.5 L 770.5 37.5 L 770.5 207.5 L 157.5 207.5 L 157.5 37.5"/></clipPath><clipPath id="bawyNbMQNVcV"><path fill="none" stroke="none" d="M 157.5 37.5 L 770.5 37.5 L 770.5 207.5 L 157.5 207.5 L 157.5 37.5"/></clipPath><clipPath id="fOZwbVcOZoMD"><path fill="none" stroke="none" d="M 157.5 37.5 L 770.5 37.5 L 770.5 207.5 L 157.5 207.5 L 157.5 37.5"/></clipPath></defs><path fill="rgb(255,255,255)" stroke="none" paint-order="stroke" d="M 0.5 0.5 L 800.5 0.5 L 800.5 300.5 L 0.5 300.5 L 0.5 0.5" fill-opacity="1"/><rect fill="#FFFFFF" stroke="none" x="157" y="37" width="613" height="170" transform="matrix(1, 0, 0, 1, 0.5, 0.5)"/><path fill="rgb(255,255,255)" stroke="none" paint-order="stroke" d="M 157.5 37.5 L 770.5 37.5 L 770.5 207.5 L 157.5 207.5 L 157.5 37.5" fill-opacity="1"/><path fill="none" stroke="rgb(229,229,229)" paint-order="fill" d="M 157.5 37.5 L 770.5 37.5 L 770.5 207.5 L 157.5 207.5 L 157.5 37.5" stroke-opacity="1" stroke-linejoin="bevel" stroke-miterlimit="10" stroke-dasharray=""/><path fill="none" stroke="rgb(229,229,229)" paint-order="fill" d="M 305.5 207.5 L 305.5 37.5 M 454.5 207.5 L 454.5 37.5 M 602.5 207.5 L 602.5 37.5 M 750.5 207.5 L 750.5 37.5" stroke-opacity="1" stroke-linejoin="bevel" stroke-miterlimit="10" stroke-dasharray="" clip-path="url(#VtrtuSZqnyAR)"/><path fill="none" stroke="none"/><path fill="rgb(68,1,84)" stroke="none" paint-order="stroke" d="M 157.5 122.5 L 760.4921264648438 122.5 L 760.4921264648438 207.5 L 157.5 207.5 L 157.5 122.5" fill-opacity="0.8" clip-path="url(#bawyNbMQNVcV)"/><path fill="none" stroke="rgb(0,0,0)" paint-order="fill" d="M 157.5 122.5 L 760.4921264648438 122.5 L 760.4921264648438 207.5 L 157.5 207.5 L 157.5 122.5" stroke-opacity="0.8" stroke-linejoin="bevel" stroke-miterlimit="10" stroke-dasharray="" clip-path="url(#bawyNbMQNVcV)"/><path fill="rgb(253,231,36)" stroke="none" paint-order="stroke" d="M 157.5 37.5 L 763.0867919921875 37.5 L 763.0867919921875 122.5 L 157.5 122.5 L 157.5 37.5" fill-opacity="0.8" clip-path="url(#bawyNbMQNVcV)"/><path fill="none" stroke="rgb(0,0,0)" paint-order="fill" d="M 157.5 37.5 L 763.0867919921875 37.5 L 763.0867919921875 122.5 L 157.5 122.5 L 157.5 37.5" stroke-opacity="0.8" stroke-linejoin="bevel" stroke-miterlimit="10" stroke-dasharray="" clip-path="url(#bawyNbMQNVcV)"/><path fill="none" stroke="rgb(0,0,0)" paint-order="fill" d="M 157.5 207.5 L 770.5 207.5" stroke-opacity="1" stroke-linejoin="bevel" stroke-miterlimit="10" stroke-dasharray=""/><path fill="none" stroke="rgb(0,0,0)" paint-order="fill" d="M 157.5 213.5 L 157.5 205.5 M 305.5 213.5 L 305.5 205.5 M 454.5 213.5 L 454.5 205.5 M 602.5 213.5 L 602.5 205.5 M 750.5 213.5 L 750.5 205.5" stroke-opacity="1" stroke-linejoin="bevel" stroke-miterlimit="10" stroke-dasharray=""/><path fill="none" stroke="rgb(0,0,0)" paint-order="fill" d="M 157.5 211.5 L 157.5 207.5 M 187.5 211.5 L 187.5 207.5 M 216.5 211.5 L 216.5 207.5 M 246.5 211.5 L 246.5 207.5 M 276.5 211.5 L 276.5 207.5 M 305.5 211.5 L 305.5 207.5 M 335.5 211.5 L 335.5 207.5 M 365.5 211.5 L 365.5 207.5 M 394.5 211.5 L 394.5 207.5 M 424.5 211.5 L 424.5 207.5 M 454.5 211.5 L 454.5 207.5 M 483.5 211.5 L 483.5 207.5 M 513.5 211.5 L 513.5 207.5 M 542.5 211.5 L 542.5 207.5 M 572.5 211.5 L 572.5 207.5 M 602.5 211.5 L 602.5 207.5 M 631.5 211.5 L 631.5 207.5 M 661.5 211.5 L 661.5 207.5 M 691.5 211.5 L 691.5 207.5 M 720.5 211.5 L 720.5 207.5 M 750.5 211.5 L 750.5 207.5" stroke-opacity="1" stroke-linejoin="bevel" stroke-miterlimit="10" stroke-dasharray=""/><text fill="rgb(68,68,68)" stroke="none" font-family="helvetica" font-size="14pt" font-style="normal" font-weight="normal" text-decoration="normal" x="0" y="0" text-anchor="middle" dominant-baseline="hanging" transform="matrix(1, 0, 0, 1, 157.5, 218.5)" fill-opacity="1">0</text><text fill="rgb(68,68,68)" stroke="none" font-family="helvetica" font-size="14pt" font-style="normal" font-weight="normal" text-decoration="normal" x="0" y="0" text-anchor="middle" dominant-baseline="hanging" transform="matrix(1, 0, 0, 1, 305.5, 218.5)" fill-opacity="1">20</text><text fill="rgb(68,68,68)" stroke="none" font-family="helvetica" font-size="14pt" font-style="normal" font-weight="normal" text-decoration="normal" x="0" y="0" text-anchor="middle" dominant-baseline="hanging" transform="matrix(1, 0, 0, 1, 454.5, 218.5)" fill-opacity="1">40</text><text fill="rgb(68,68,68)" stroke="none" font-family="helvetica" font-size="14pt" font-style="normal" font-weight="normal" text-decoration="normal" x="0" y="0" text-anchor="middle" dominant-baseline="hanging" transform="matrix(1, 0, 0, 1, 602.5, 218.5)" fill-opacity="1">60</text><text fill="rgb(68,68,68)" stroke="none" font-family="helvetica" font-size="14pt" font-style="normal" font-weight="normal" text-decoration="normal" x="0" y="0" text-anchor="middle" dominant-baseline="hanging" transform="matrix(1, 0, 0, 1, 750.5, 218.5)" fill-opacity="1">80</text><path fill="none" stroke="rgb(0,0,0)" paint-order="fill" d="M 157.5 207.5 L 157.5 37.5" stroke-opacity="1" stroke-linejoin="bevel" stroke-miterlimit="10" stroke-dasharray=""/><path fill="none" stroke="rgb(0,0,0)" paint-order="fill" d="M 151.5 165.5 L 159.5 165.5 M 151.5 80.5 L 159.5 80.5" stroke-opacity="1" stroke-linejoin="bevel" stroke-miterlimit="10" stroke-dasharray=""/><path fill="none" stroke="rgb(0,0,0)" paint-order="fill" d="" stroke-opacity="1" stroke-linejoin="bevel" stroke-miterlimit="10" stroke-dasharray=""/><text fill="rgb(68,68,68)" stroke="none" font-family="helvetica" font-size="14pt" font-style="normal" font-weight="normal" text-decoration="normal" x="0" y="0" text-anchor="end" dominant-baseline="central" transform="matrix(1, 0, 0, 1, 146.5, 165.5)" fill-opacity="1">Model Model #1</text><text fill="rgb(68,68,68)" stroke="none" font-family="helvetica" font-size="14pt" font-style="normal" font-weight="normal" text-decoration="normal" x="0" y="0" text-anchor="end" dominant-baseline="central" transform="matrix(1, 0, 0, 1, 146.5, 80.5)" fill-opacity="1">Model Model #2</text><path fill="rgb(255,255,255)" stroke="rgb(229,229,229)" paint-order="fill" d="M 367.46666717529297 250.5 L 560.533332824707 250.5 L 560.533332824707 290.5 L 367.46666717529297 290.5 L 367.46666717529297 250.5" fill-opacity="0.95" stroke-opacity="0.5" stroke-linejoin="bevel" stroke-miterlimit="10" stroke-dasharray=""/><text fill="rgb(68,68,68)" stroke="none" font-family="helvetica" font-size="8px" font-style="normal" font-weight="normal" text-decoration="normal" x="401.96666717529297" y="270" text-anchor="start" dominant-baseline="central" transform="matrix(1, 0, 0, 1, 0.5, 0.5)" fill-opacity="1">Model 1: 81.34%</text><path fill="rgb(68,1,84)" stroke="none" paint-order="stroke" d="M 379.46666717529297 262.5 L 395.46666717529297 262.5 L 395.46666717529297 278.5 L 379.46666717529297 278.5 L 379.46666717529297 262.5" fill-opacity="0.8"/><path fill="none" stroke="rgb(0,0,0)" paint-order="fill" d="M 379.46666717529297 262.5 L 395.46666717529297 262.5 L 395.46666717529297 278.5 L 379.46666717529297 278.5 L 379.46666717529297 262.5" stroke-opacity="0.8" stroke-linejoin="bevel" stroke-miterlimit="10" stroke-dasharray=""/><text fill="rgb(68,68,68)" stroke="none" font-family="helvetica" font-size="8px" font-style="normal" font-weight="normal" text-decoration="normal" x="490" y="270" text-anchor="start" dominant-baseline="central" transform="matrix(1, 0, 0, 1, 0.5, 0.5)" fill-opacity="1">Model 2: 81.69%</text><path fill="rgb(253,231,36)" stroke="none" paint-order="stroke" d="M 467.5 262.5 L 483.5 262.5 L 483.5 278.5 L 467.5 278.5 L 467.5 262.5" fill-opacity="0.8"/><path fill="none" stroke="rgb(0,0,0)" paint-order="fill" d="M 467.5 262.5 L 483.5 262.5 L 483.5 278.5 L 467.5 278.5 L 467.5 262.5" stroke-opacity="0.8" stroke-linejoin="bevel" stroke-miterlimit="10" stroke-dasharray=""/><path fill="none" stroke="none"/><text fill="rgb(68,68,68)" stroke="none" font-family="helvetica" font-size="14pt" font-style="normal" font-weight="bold" text-decoration="normal" x="0" y="0" text-anchor="middle" dominant-baseline="text-after-edge" transform="matrix(1, 0, 0, 1, 464, 32.5)" fill-opacity="1">Fit to XL-MS input</text></svg>