<svg version="1.1" xmlns="http://www.w3.org/2000/svg" xmlns:xlink="http://www.w3.org/1999/xlink" width="700" height="250" style="width: 700px; height: 250px;"><defs><clipPath id="dVyrHdKeoXZk"><path fill="none" stroke="none" d=" M 264 42 L 670 42 L 670 213 L 264 213 L 264 42 Z"/></clipPath><clipPath id="GtOxOdvNXqNw"><path fill="none" stroke="none" d=" M 264 42 L 670 42 L 670 213 L 264 213 L 264 42 Z"/></clipPath><clipPath id="nbNuVBQNXTwz"><path fill="none" stroke="none" d=" M 264 42 L 670 42 L 670 213 L 264 213 L 264 42 Z"/></clipPath><clipPath id="poghvKWwuFQG"><path fill="none" stroke="none" d=" M 264 42 L 670 42 L 670 213 L 264 213 L 264 42 Z"/></clipPath><clipPath id="LxIbzxvRmDOp"><path fill="none" stroke="none" d=" M 264 42 L 670 42 L 670 213 L 264 213 L 264 42 Z"/></clipPath></defs><g><g transform="scale(1,1) translate(0.5,0.5)"><rect fill="#FFFFFF" stroke="none" x="0" y="0" width="700" height="250"/><rect fill="#ffffff" stroke="none" x="0" y="0" width="700" height="250"/><rect fill="#FFFFFF" stroke="none" x="264" y="42" width="406" height="171"/><rect fill="#ffffff" stroke="none" x="264" y="42" width="406" height="171"/><g><rect fill="none" stroke="#e5e5e5" x="264" y="42" width="406" height="171" stroke-linejoin="bevel" stroke-miterlimit="10"/></g><g clip-path="url(#dVyrHdKeoXZk)"><g><g><path fill="none" stroke="#e5e5e5" paint-order="fill stroke markers" d=" M 317 213 L 317 42" stroke-linejoin="bevel" stroke-miterlimit="10"/><path fill="none" stroke="#e5e5e5" paint-order="fill stroke markers" d=" M 369 213 L 369 42" stroke-linejoin="bevel" stroke-miterlimit="10"/><path fill="none" stroke="#e5e5e5" paint-order="fill stroke markers" d=" M 422 213 L 422 42" stroke-linejoin="bevel" stroke-miterlimit="10"/><path fill="none" stroke="#e5e5e5" paint-order="fill stroke markers" d=" M 474 213 L 474 42" stroke-linejoin="bevel" stroke-miterlimit="10"/><path fill="none" stroke="#e5e5e5" paint-order="fill stroke markers" d=" M 527 213 L 527 42" stroke-linejoin="bevel" stroke-miterlimit="10"/><path fill="none" stroke="#e5e5e5" paint-order="fill stroke markers" d=" M 580 213 L 580 42" stroke-linejoin="bevel" stroke-miterlimit="10"/><path fill="none" stroke="#e5e5e5" paint-order="fill stroke markers" d=" M 632 213 L 632 42" stroke-linejoin="bevel" stroke-miterlimit="10"/></g></g></g><g clip-path="url(#GtOxOdvNXqNw)"><g><g/></g></g><g clip-path="url(#nbNuVBQNXTwz)"><g><g><path fill="none" stroke="none"/><path fill="#e41a1c" stroke="none" paint-order="stroke fill markers" d=" M 264 170.25 L 354.4559585492228 170.25 L 354.4559585492228 198.75 L 264 198.75 L 264 170.25 Z" fill-opacity="0.8"/><path fill="none" stroke="#e41a1c" paint-order="fill stroke markers" d=" M 264 170.25 L 354.4559585492228 170.25 L 354.4559585492228 198.75 L 264 198.75 L 264 170.25 Z" stroke-linejoin="bevel" stroke-miterlimit="10" stroke-opacity="0.8"/><path fill="#377eb8" stroke="none" paint-order="stroke fill markers" d=" M 264 113.25 L 403.8911917098446 113.25 L 403.8911917098446 141.75 L 264 141.75 L 264 113.25 Z" fill-opacity="0.8"/><path fill="none" stroke="#377eb8" paint-order="fill stroke markers" d=" M 264 113.25 L 403.8911917098446 113.25 L 403.8911917098446 141.75 L 264 141.75 L 264 113.25 Z" stroke-linejoin="bevel" stroke-miterlimit="10" stroke-opacity="0.8"/><path fill="#4daf4a" stroke="none" paint-order="stroke fill markers" d=" M 264 56.25 L 564.8186528497409 56.25 L 564.8186528497409 84.75 L 264 84.75 L 264 56.25 Z" fill-opacity="0.8"/><path fill="none" stroke="#4daf4a" paint-order="fill stroke markers" d=" M 264 56.25 L 564.8186528497409 56.25 L 564.8186528497409 84.75 L 264 84.75 L 264 56.25 Z" stroke-linejoin="bevel" stroke-miterlimit="10" stroke-opacity="0.8"/></g></g></g><g clip-path="url(#poghvKWwuFQG)"><g><g/><g><path fill="#ffffff" stroke="#e5e5e5" paint-order="fill stroke markers" d=" M 573.734375 52 L 660 52 L 660 138 L 573.734375 138 L 573.734375 52 Z" fill-opacity="0.95" stroke-linejoin="bevel" stroke-miterlimit="10" stroke-opacity="0.5"/><text fill="#444444" stroke="none" font-family="helvetica" font-size="10pt" font-style="normal" font-weight="normal" text-decoration="normal" x="608.734375" y="72" text-anchor="start" dominant-baseline="central">0.86</text><rect fill="#e41a1c" stroke="none" x="585.734375" y="64" width="16" height="16" fill-opacity="0.8"/><path fill="none" stroke="#e41a1c" paint-order="fill stroke markers" d=" M 585.734375 64 L 601.734375 64 L 601.734375 80 L 585.734375 80 L 585.734375 64 Z" stroke-linejoin="bevel" stroke-miterlimit="10" stroke-opacity="0.8"/><text fill="#444444" stroke="none" font-family="helvetica" font-size="10pt" font-style="normal" font-weight="normal" text-decoration="normal" x="608.734375" y="95" text-anchor="start" dominant-baseline="central">1.33%</text><rect fill="#377eb8" stroke="none" x="585.734375" y="87" width="16" height="16" fill-opacity="0.8"/><path fill="none" stroke="#377eb8" paint-order="fill stroke markers" d=" M 585.734375 87 L 601.734375 87 L 601.734375 103 L 585.734375 103 L 585.734375 87 Z" stroke-linejoin="bevel" stroke-miterlimit="10" stroke-opacity="0.8"/><text fill="#444444" stroke="none" font-family="helvetica" font-size="10pt" font-style="normal" font-weight="normal" text-decoration="normal" x="608.734375" y="118" text-anchor="start" dominant-baseline="central">2.86%</text><rect fill="#4daf4a" stroke="none" x="585.734375" y="110" width="16" height="16" fill-opacity="0.8"/><path fill="none" stroke="#4daf4a" paint-order="fill stroke markers" d=" M 585.734375 110 L 601.734375 110 L 601.734375 126 L 585.734375 126 L 585.734375 110 Z" stroke-linejoin="bevel" stroke-miterlimit="10" stroke-opacity="0.8"/></g></g></g><g><g fill="#444444"><path fill="" stroke="none" d=""/><g transform="translate(467,5)"><path fill="none" stroke="none"/><text fill="" stroke="none" font-family="helvetica" font-size="14pt" font-style="normal" font-weight="bold" text-decoration="normal" x="0" y="0" text-anchor="middle" dominant-baseline="text-before-edge">Model Quality: Molprobity Analysis</text></g></g></g><g/><g><g fill="#444444"><path fill="none" stroke="black" paint-order="fill stroke markers" d=" M 264 213 L 670 213" stroke-linejoin="bevel" stroke-miterlimit="10"/><path fill="none" stroke="black" paint-order="fill stroke markers" d=" M 264 219 L 264 211" stroke-linejoin="bevel" stroke-miterlimit="10"/><path fill="none" stroke="black" paint-order="fill stroke markers" d=" M 317 219 L 317 211" stroke-linejoin="bevel" stroke-miterlimit="10"/><path fill="none" stroke="black" paint-order="fill stroke markers" d=" M 369 219 L 369 211" stroke-linejoin="bevel" stroke-miterlimit="10"/><path fill="none" stroke="black" paint-order="fill stroke markers" d=" M 422 219 L 422 211" stroke-linejoin="bevel" stroke-miterlimit="10"/><path fill="none" stroke="black" paint-order="fill stroke markers" d=" M 474 219 L 474 211" stroke-linejoin="bevel" stroke-miterlimit="10"/><path fill="none" stroke="black" paint-order="fill stroke markers" d=" M 527 219 L 527 211" stroke-linejoin="bevel" stroke-miterlimit="10"/><path fill="none" stroke="black" paint-order="fill stroke markers" d=" M 580 219 L 580 211" stroke-linejoin="bevel" stroke-miterlimit="10"/><path fill="none" stroke="black" paint-order="fill stroke markers" d=" M 632 219 L 632 211" stroke-linejoin="bevel" stroke-miterlimit="10"/><path fill="none" stroke="black" paint-order="fill stroke markers" d=" M 264 217 L 264 213" stroke-linejoin="bevel" stroke-miterlimit="10"/><path fill="none" stroke="black" paint-order="fill stroke markers" d=" M 275 217 L 275 213" stroke-linejoin="bevel" stroke-miterlimit="10"/><path fill="none" stroke="black" paint-order="fill stroke markers" d=" M 285 217 L 285 213" stroke-linejoin="bevel" stroke-miterlimit="10"/><path fill="none" stroke="black" paint-order="fill stroke markers" d=" M 296 217 L 296 213" stroke-linejoin="bevel" stroke-miterlimit="10"/><path fill="none" stroke="black" paint-order="fill stroke markers" d=" M 306 217 L 306 213" stroke-linejoin="bevel" stroke-miterlimit="10"/><path fill="none" stroke="black" paint-order="fill stroke markers" d=" M 317 217 L 317 213" stroke-linejoin="bevel" stroke-miterlimit="10"/><path fill="none" stroke="black" paint-order="fill stroke markers" d=" M 327 217 L 327 213" stroke-linejoin="bevel" stroke-miterlimit="10"/><path fill="none" stroke="black" paint-order="fill stroke markers" d=" M 338 217 L 338 213" stroke-linejoin="bevel" stroke-miterlimit="10"/><path fill="none" stroke="black" paint-order="fill stroke markers" d=" M 348 217 L 348 213" stroke-linejoin="bevel" stroke-miterlimit="10"/><path fill="none" stroke="black" paint-order="fill stroke markers" d=" M 359 217 L 359 213" stroke-linejoin="bevel" stroke-miterlimit="10"/><path fill="none" stroke="black" paint-order="fill stroke markers" d=" M 369 217 L 369 213" stroke-linejoin="bevel" stroke-miterlimit="10"/><path fill="none" stroke="black" paint-order="fill stroke markers" d=" M 380 217 L 380 213" stroke-linejoin="bevel" stroke-miterlimit="10"/><path fill="none" stroke="black" paint-order="fill stroke markers" d=" M 390 217 L 390 213" stroke-linejoin="bevel" stroke-miterlimit="10"/><path fill="none" stroke="black" paint-order="fill stroke markers" d=" M 401 217 L 401 213" stroke-linejoin="bevel" stroke-miterlimit="10"/><path fill="none" stroke="black" paint-order="fill stroke markers" d=" M 411 217 L 411 213" stroke-linejoin="bevel" stroke-miterlimit="10"/><path fill="none" stroke="black" paint-order="fill stroke markers" d=" M 422 217 L 422 213" stroke-linejoin="bevel" stroke-miterlimit="10"/><path fill="none" stroke="black" paint-order="fill stroke markers" d=" M 432 217 L 432 213" stroke-linejoin="bevel" stroke-miterlimit="10"/><path fill="none" stroke="black" paint-order="fill stroke markers" d=" M 443 217 L 443 213" stroke-linejoin="bevel" stroke-miterlimit="10"/><path fill="none" stroke="black" paint-order="fill stroke markers" d=" M 453 217 L 453 213" stroke-linejoin="bevel" stroke-miterlimit="10"/><path fill="none" stroke="black" paint-order="fill stroke markers" d=" M 464 217 L 464 213" stroke-linejoin="bevel" stroke-miterlimit="10"/><path fill="none" stroke="black" paint-order="fill stroke markers" d=" M 474 217 L 474 213" stroke-linejoin="bevel" stroke-miterlimit="10"/><path fill="none" stroke="black" paint-order="fill stroke markers" d=" M 485 217 L 485 213" stroke-linejoin="bevel" stroke-miterlimit="10"/><path fill="none" stroke="black" paint-order="fill stroke markers" d=" M 495 217 L 495 213" stroke-linejoin="bevel" stroke-miterlimit="10"/><path fill="none" stroke="black" paint-order="fill stroke markers" d=" M 506 217 L 506 213" stroke-linejoin="bevel" stroke-miterlimit="10"/><path fill="none" stroke="black" paint-order="fill stroke markers" d=" M 516 217 L 516 213" stroke-linejoin="bevel" stroke-miterlimit="10"/><path fill="none" stroke="black" paint-order="fill stroke markers" d=" M 527 217 L 527 213" stroke-linejoin="bevel" stroke-miterlimit="10"/><path fill="none" stroke="black" paint-order="fill stroke markers" d=" M 537 217 L 537 213" stroke-linejoin="bevel" stroke-miterlimit="10"/><path fill="none" stroke="black" paint-order="fill stroke markers" d=" M 548 217 L 548 213" stroke-linejoin="bevel" stroke-miterlimit="10"/><path fill="none" stroke="black" paint-order="fill stroke markers" d=" M 559 217 L 559 213" stroke-linejoin="bevel" stroke-miterlimit="10"/><path fill="none" stroke="black" paint-order="fill stroke markers" d=" M 569 217 L 569 213" stroke-linejoin="bevel" stroke-miterlimit="10"/><path fill="none" stroke="black" paint-order="fill stroke markers" d=" M 580 217 L 580 213" stroke-linejoin="bevel" stroke-miterlimit="10"/><path fill="none" stroke="black" paint-order="fill stroke markers" d=" M 590 217 L 590 213" stroke-linejoin="bevel" stroke-miterlimit="10"/><path fill="none" stroke="black" paint-order="fill stroke markers" d=" M 601 217 L 601 213" stroke-linejoin="bevel" stroke-miterlimit="10"/><path fill="none" stroke="black" paint-order="fill stroke markers" d=" M 611 217 L 611 213" stroke-linejoin="bevel" stroke-miterlimit="10"/><path fill="none" stroke="black" paint-order="fill stroke markers" d=" M 622 217 L 622 213" stroke-linejoin="bevel" stroke-miterlimit="10"/><path fill="none" stroke="black" paint-order="fill stroke markers" d=" M 632 217 L 632 213" stroke-linejoin="bevel" stroke-miterlimit="10"/><path fill="none" stroke="black" paint-order="fill stroke markers" d=" M 643 217 L 643 213" stroke-linejoin="bevel" stroke-miterlimit="10"/><path fill="none" stroke="black" paint-order="fill stroke markers" d=" M 653 217 L 653 213" stroke-linejoin="bevel" stroke-miterlimit="10"/><path fill="" stroke="black" paint-order="fill stroke markers" d=" M 664 217 L 664 213" stroke-linejoin="bevel" stroke-miterlimit="10"/><g transform="translate(264,224) rotate(0,0,0)"><text fill="" stroke="none" font-family="helvetica" font-size="14pt" font-style="normal" font-weight="normal" text-decoration="normal" x="0" y="0" text-anchor="middle" dominant-baseline="hanging">0</text><g transform="rotate(0,0,0) translate(-264,-224) translate(317,224) rotate(0,0,0)"><text fill="" stroke="none" font-family="helvetica" font-size="14pt" font-style="normal" font-weight="normal" text-decoration="normal" x="0" y="0" text-anchor="middle" dominant-baseline="hanging">0.5</text><g transform="rotate(0,0,0) translate(-317,-224) translate(369,224) rotate(0,0,0)"><text fill="" stroke="none" font-family="helvetica" font-size="14pt" font-style="normal" font-weight="normal" text-decoration="normal" x="0" y="0" text-anchor="middle" dominant-baseline="hanging">1</text><g transform="rotate(0,0,0) translate(-369,-224) translate(422,224) rotate(0,0,0)"><text fill="" stroke="none" font-family="helvetica" font-size="14pt" font-style="normal" font-weight="normal" text-decoration="normal" x="0" y="0" text-anchor="middle" dominant-baseline="hanging">1.5</text><g transform="rotate(0,0,0) translate(-422,-224) translate(474,224) rotate(0,0,0)"><text fill="" stroke="none" font-family="helvetica" font-size="14pt" font-style="normal" font-weight="normal" text-decoration="normal" x="0" y="0" text-anchor="middle" dominant-baseline="hanging">2</text><g transform="rotate(0,0,0) translate(-474,-224) translate(527,224) rotate(0,0,0)"><text fill="" stroke="none" font-family="helvetica" font-size="14pt" font-style="normal" font-weight="normal" text-decoration="normal" x="0" y="0" text-anchor="middle" dominant-baseline="hanging">2.5</text><g transform="rotate(0,0,0) translate(-527,-224) translate(580,224) rotate(0,0,0)"><text fill="" stroke="none" font-family="helvetica" font-size="14pt" font-style="normal" font-weight="normal" text-decoration="normal" x="0" y="0" text-anchor="middle" dominant-baseline="hanging">3</text><g transform="rotate(0,0,0) translate(-580,-224) translate(632,224) rotate(0,0,0)"><text fill="" stroke="none" font-family="helvetica" font-size="14pt" font-style="normal" font-weight="normal" text-decoration="normal" x="0" y="0" text-anchor="middle" dominant-baseline="hanging">3.5</text><g transform="rotate(0,0,0) translate(-632,-224)"/></g></g></g></g></g></g></g></g></g></g><g><g fill="#444444"><path fill="none" stroke="black" paint-order="fill stroke markers" d=" M 264 213 L 264 42" stroke-linejoin="bevel" stroke-miterlimit="10"/><path fill="none" stroke="black" paint-order="fill stroke markers" d=" M 258 185 L 266 185" stroke-linejoin="bevel" stroke-miterlimit="10"/><path fill="none" stroke="black" paint-order="fill stroke markers" d=" M 258 128 L 266 128" stroke-linejoin="bevel" stroke-miterlimit="10"/><path fill="" stroke="black" paint-order="fill stroke markers" d=" M 258 71 L 266 71" stroke-linejoin="bevel" stroke-miterlimit="10"/><g transform="translate(253,185) rotate(0,0,0)"><text fill="" stroke="none" font-family="helvetica" font-size="14pt" font-style="normal" font-weight="normal" text-decoration="normal" x="0" y="0" text-anchor="end" dominant-baseline="central">Clashscore</text><g transform="rotate(0,0,0) translate(-253,-185) translate(253,128) rotate(0,0,0)"><text fill="" stroke="none" font-family="helvetica" font-size="14pt" font-style="normal" font-weight="normal" text-decoration="normal" x="0" y="0" text-anchor="end" dominant-baseline="central">Ramachandran Outliers</text><g transform="rotate(0,0,0) translate(-253,-128) translate(253,71) rotate(0,0,0)"><text fill="" stroke="none" font-family="helvetica" font-size="14pt" font-style="normal" font-weight="normal" text-decoration="normal" x="0" y="0" text-anchor="end" dominant-baseline="central">Sidechain Outliers</text><g transform="rotate(0,0,0) translate(-253,-71)"/></g></g></g></g></g><g clip-path="url(#LxIbzxvRmDOp)"><g/></g></g></g></svg>