<svg version="1.1" xmlns="http://www.w3.org/2000/svg" xmlns:xlink="http://www.w3.org/1999/xlink" width="700" height="250" style="width: 700px; height: 250px;"><defs><clipPath id="JgbCZUdIfIBf"><path fill="none" stroke="none" d=" M 264 42 L 670 42 L 670 213 L 264 213 L 264 42 Z"/></clipPath><clipPath id="htPwlOXZpBHW"><path fill="none" stroke="none" d=" M 264 42 L 670 42 L 670 213 L 264 213 L 264 42 Z"/></clipPath><clipPath id="EmxtMIJfqJQi"><path fill="none" stroke="none" d=" M 264 42 L 670 42 L 670 213 L 264 213 L 264 42 Z"/></clipPath><clipPath id="JPemnwdoMWDK"><path fill="none" stroke="none" d=" M 264 42 L 670 42 L 670 213 L 264 213 L 264 42 Z"/></clipPath><clipPath id="AnfTICdMMJFf"><path fill="none" stroke="none" d=" M 264 42 L 670 42 L 670 213 L 264 213 L 264 42 Z"/></clipPath></defs><g><g transform="scale(1,1) translate(0.5,0.5)"><rect fill="#FFFFFF" stroke="none" x="0" y="0" width="700" height="250"/><rect fill="#ffffff" stroke="none" x="0" y="0" width="700" height="250"/><rect fill="#FFFFFF" stroke="none" x="264" y="42" width="406" height="171"/><rect fill="#ffffff" stroke="none" x="264" y="42" width="406" height="171"/><g><rect fill="none" stroke="#e5e5e5" x="264" y="42" width="406" height="171" stroke-linejoin="bevel" stroke-miterlimit="10"/></g><g clip-path="url(#JgbCZUdIfIBf)"><g><g><path fill="none" stroke="#e5e5e5" paint-order="fill stroke markers" d=" M 352 213 L 352 42" stroke-linejoin="bevel" stroke-miterlimit="10"/><path fill="none" stroke="#e5e5e5" paint-order="fill stroke markers" d=" M 441 213 L 441 42" stroke-linejoin="bevel" stroke-miterlimit="10"/><path fill="none" stroke="#e5e5e5" paint-order="fill stroke markers" d=" M 529 213 L 529 42" stroke-linejoin="bevel" stroke-miterlimit="10"/><path fill="none" stroke="#e5e5e5" paint-order="fill stroke markers" d=" M 618 213 L 618 42" stroke-linejoin="bevel" stroke-miterlimit="10"/></g></g></g><g clip-path="url(#htPwlOXZpBHW)"><g><g/></g></g><g clip-path="url(#EmxtMIJfqJQi)"><g><g><path fill="none" stroke="none"/><path fill="#e41a1c" stroke="none" paint-order="stroke fill markers" d=" M 264 170.25 L 652.3093681917212 170.25 L 652.3093681917212 198.75 L 264 198.75 L 264 170.25 Z" fill-opacity="0.8"/><path fill="none" stroke="#e41a1c" paint-order="fill stroke markers" d=" M 264 170.25 L 652.3093681917212 170.25 L 652.3093681917212 198.75 L 264 198.75 L 264 170.25 Z" stroke-linejoin="bevel" stroke-miterlimit="10" stroke-opacity="0.8"/><path fill="#377eb8" stroke="none" paint-order="stroke fill markers" d=" M 264 113.25 L 271.07625272331154 113.25 L 271.07625272331154 141.75 L 264 141.75 L 264 113.25 Z" fill-opacity="0.8"/><path fill="none" stroke="#377eb8" paint-order="fill stroke markers" d=" M 264 113.25 L 271.07625272331154 113.25 L 271.07625272331154 141.75 L 264 141.75 L 264 113.25 Z" stroke-linejoin="bevel" stroke-miterlimit="10" stroke-opacity="0.8"/><path fill="#4daf4a" stroke="none" paint-order="stroke fill markers" d=" M 264 56.25 L 329.45533769063184 56.25 L 329.45533769063184 84.75 L 264 84.75 L 264 56.25 Z" fill-opacity="0.8"/><path fill="none" stroke="#4daf4a" paint-order="fill stroke markers" d=" M 264 56.25 L 329.45533769063184 56.25 L 329.45533769063184 84.75 L 264 84.75 L 264 56.25 Z" stroke-linejoin="bevel" stroke-miterlimit="10" stroke-opacity="0.8"/></g></g></g><g clip-path="url(#JPemnwdoMWDK)"><g><g/><g><path fill="#ffffff" stroke="#e5e5e5" paint-order="fill stroke markers" d=" M 577.8125 52 L 660 52 L 660 138 L 577.8125 138 L 577.8125 52 Z" fill-opacity="0.95" stroke-linejoin="bevel" stroke-miterlimit="10" stroke-opacity="0.5"/><text fill="#444444" stroke="none" font-family="helvetica" font-size="10pt" font-style="normal" font-weight="normal" text-decoration="normal" x="612.8125" y="72" text-anchor="start" dominant-baseline="central">21.95</text><rect fill="#e41a1c" stroke="none" x="589.8125" y="64" width="16" height="16" fill-opacity="0.8"/><path fill="none" stroke="#e41a1c" paint-order="fill stroke markers" d=" M 589.8125 64 L 605.8125 64 L 605.8125 80 L 589.8125 80 L 589.8125 64 Z" stroke-linejoin="bevel" stroke-miterlimit="10" stroke-opacity="0.8"/><text fill="#444444" stroke="none" font-family="helvetica" font-size="10pt" font-style="normal" font-weight="normal" text-decoration="normal" x="612.8125" y="95" text-anchor="start" dominant-baseline="central">0.4%</text><rect fill="#377eb8" stroke="none" x="589.8125" y="87" width="16" height="16" fill-opacity="0.8"/><path fill="none" stroke="#377eb8" paint-order="fill stroke markers" d=" M 589.8125 87 L 605.8125 87 L 605.8125 103 L 589.8125 103 L 589.8125 87 Z" stroke-linejoin="bevel" stroke-miterlimit="10" stroke-opacity="0.8"/><text fill="#444444" stroke="none" font-family="helvetica" font-size="10pt" font-style="normal" font-weight="normal" text-decoration="normal" x="612.8125" y="118" text-anchor="start" dominant-baseline="central">3.7%</text><rect fill="#4daf4a" stroke="none" x="589.8125" y="110" width="16" height="16" fill-opacity="0.8"/><path fill="none" stroke="#4daf4a" paint-order="fill stroke markers" d=" M 589.8125 110 L 605.8125 110 L 605.8125 126 L 589.8125 126 L 589.8125 110 Z" stroke-linejoin="bevel" stroke-miterlimit="10" stroke-opacity="0.8"/></g></g></g><g><g fill="#444444"><path fill="" stroke="none" d=""/><g transform="translate(467,5)"><path fill="none" stroke="none"/><text fill="" stroke="none" font-family="helvetica" font-size="14pt" font-style="normal" font-weight="bold" text-decoration="normal" x="0" y="0" text-anchor="middle" dominant-baseline="text-before-edge">Model Quality: Molprobity Analysis</text></g></g></g><g/><g><g fill="#444444"><path fill="none" stroke="black" paint-order="fill stroke markers" d=" M 264 213 L 670 213" stroke-linejoin="bevel" stroke-miterlimit="10"/><path fill="none" stroke="black" paint-order="fill stroke markers" d=" M 264 219 L 264 211" stroke-linejoin="bevel" stroke-miterlimit="10"/><path fill="none" stroke="black" paint-order="fill stroke markers" d=" M 352 219 L 352 211" stroke-linejoin="bevel" stroke-miterlimit="10"/><path fill="none" stroke="black" paint-order="fill stroke markers" d=" M 441 219 L 441 211" stroke-linejoin="bevel" stroke-miterlimit="10"/><path fill="none" stroke="black" paint-order="fill stroke markers" d=" M 529 219 L 529 211" stroke-linejoin="bevel" stroke-miterlimit="10"/><path fill="none" stroke="black" paint-order="fill stroke markers" d=" M 618 219 L 618 211" stroke-linejoin="bevel" stroke-miterlimit="10"/><path fill="none" stroke="black" paint-order="fill stroke markers" d=" M 264 217 L 264 213" stroke-linejoin="bevel" stroke-miterlimit="10"/><path fill="none" stroke="black" paint-order="fill stroke markers" d=" M 282 217 L 282 213" stroke-linejoin="bevel" stroke-miterlimit="10"/><path fill="none" stroke="black" paint-order="fill stroke markers" d=" M 299 217 L 299 213" stroke-linejoin="bevel" stroke-miterlimit="10"/><path fill="none" stroke="black" paint-order="fill stroke markers" d=" M 317 217 L 317 213" stroke-linejoin="bevel" stroke-miterlimit="10"/><path fill="none" stroke="black" paint-order="fill stroke markers" d=" M 335 217 L 335 213" stroke-linejoin="bevel" stroke-miterlimit="10"/><path fill="none" stroke="black" paint-order="fill stroke markers" d=" M 352 217 L 352 213" stroke-linejoin="bevel" stroke-miterlimit="10"/><path fill="none" stroke="black" paint-order="fill stroke markers" d=" M 370 217 L 370 213" stroke-linejoin="bevel" stroke-miterlimit="10"/><path fill="none" stroke="black" paint-order="fill stroke markers" d=" M 388 217 L 388 213" stroke-linejoin="bevel" stroke-miterlimit="10"/><path fill="none" stroke="black" paint-order="fill stroke markers" d=" M 406 217 L 406 213" stroke-linejoin="bevel" stroke-miterlimit="10"/><path fill="none" stroke="black" paint-order="fill stroke markers" d=" M 423 217 L 423 213" stroke-linejoin="bevel" stroke-miterlimit="10"/><path fill="none" stroke="black" paint-order="fill stroke markers" d=" M 441 217 L 441 213" stroke-linejoin="bevel" stroke-miterlimit="10"/><path fill="none" stroke="black" paint-order="fill stroke markers" d=" M 459 217 L 459 213" stroke-linejoin="bevel" stroke-miterlimit="10"/><path fill="none" stroke="black" paint-order="fill stroke markers" d=" M 476 217 L 476 213" stroke-linejoin="bevel" stroke-miterlimit="10"/><path fill="none" stroke="black" paint-order="fill stroke markers" d=" M 494 217 L 494 213" stroke-linejoin="bevel" stroke-miterlimit="10"/><path fill="none" stroke="black" paint-order="fill stroke markers" d=" M 512 217 L 512 213" stroke-linejoin="bevel" stroke-miterlimit="10"/><path fill="none" stroke="black" paint-order="fill stroke markers" d=" M 529 217 L 529 213" stroke-linejoin="bevel" stroke-miterlimit="10"/><path fill="none" stroke="black" paint-order="fill stroke markers" d=" M 547 217 L 547 213" stroke-linejoin="bevel" stroke-miterlimit="10"/><path fill="none" stroke="black" paint-order="fill stroke markers" d=" M 565 217 L 565 213" stroke-linejoin="bevel" stroke-miterlimit="10"/><path fill="none" stroke="black" paint-order="fill stroke markers" d=" M 582 217 L 582 213" stroke-linejoin="bevel" stroke-miterlimit="10"/><path fill="none" stroke="black" paint-order="fill stroke markers" d=" M 600 217 L 600 213" stroke-linejoin="bevel" stroke-miterlimit="10"/><path fill="none" stroke="black" paint-order="fill stroke markers" d=" M 618 217 L 618 213" stroke-linejoin="bevel" stroke-miterlimit="10"/><path fill="none" stroke="black" paint-order="fill stroke markers" d=" M 636 217 L 636 213" stroke-linejoin="bevel" stroke-miterlimit="10"/><path fill="" stroke="black" paint-order="fill stroke markers" d=" M 653 217 L 653 213" stroke-linejoin="bevel" stroke-miterlimit="10"/><g transform="translate(264,224) rotate(0,0,0)"><text fill="" stroke="none" font-family="helvetica" font-size="14pt" font-style="normal" font-weight="normal" text-decoration="normal" x="0" y="0" text-anchor="middle" dominant-baseline="hanging">0</text><g transform="rotate(0,0,0) translate(-264,-224) translate(352,224) rotate(0,0,0)"><text fill="" stroke="none" font-family="helvetica" font-size="14pt" font-style="normal" font-weight="normal" text-decoration="normal" x="0" y="0" text-anchor="middle" dominant-baseline="hanging">5</text><g transform="rotate(0,0,0) translate(-352,-224) translate(441,224) rotate(0,0,0)"><text fill="" stroke="none" font-family="helvetica" font-size="14pt" font-style="normal" font-weight="normal" text-decoration="normal" x="0" y="0" text-anchor="middle" dominant-baseline="hanging">10</text><g transform="rotate(0,0,0) translate(-441,-224) translate(529,224) rotate(0,0,0)"><text fill="" stroke="none" font-family="helvetica" font-size="14pt" font-style="normal" font-weight="normal" text-decoration="normal" x="0" y="0" text-anchor="middle" dominant-baseline="hanging">15</text><g transform="rotate(0,0,0) translate(-529,-224) translate(618,224) rotate(0,0,0)"><text fill="" stroke="none" font-family="helvetica" font-size="14pt" font-style="normal" font-weight="normal" text-decoration="normal" x="0" y="0" text-anchor="middle" dominant-baseline="hanging">20</text><g transform="rotate(0,0,0) translate(-618,-224)"/></g></g></g></g></g></g></g><g><g fill="#444444"><path fill="none" stroke="black" paint-order="fill stroke markers" d=" M 264 213 L 264 42" stroke-linejoin="bevel" stroke-miterlimit="10"/><path fill="none" stroke="black" paint-order="fill stroke markers" d=" M 258 185 L 266 185" stroke-linejoin="bevel" stroke-miterlimit="10"/><path fill="none" stroke="black" paint-order="fill stroke markers" d=" M 258 128 L 266 128" stroke-linejoin="bevel" stroke-miterlimit="10"/><path fill="" stroke="black" paint-order="fill stroke markers" d=" M 258 71 L 266 71" stroke-linejoin="bevel" stroke-miterlimit="10"/><g transform="translate(253,185) rotate(0,0,0)"><text fill="" stroke="none" font-family="helvetica" font-size="14pt" font-style="normal" font-weight="normal" text-decoration="normal" x="0" y="0" text-anchor="end" dominant-baseline="central">Clashscore</text><g transform="rotate(0,0,0) translate(-253,-185) translate(253,128) rotate(0,0,0)"><text fill="" stroke="none" font-family="helvetica" font-size="14pt" font-style="normal" font-weight="normal" text-decoration="normal" x="0" y="0" text-anchor="end" dominant-baseline="central">Ramachandran Outliers</text><g transform="rotate(0,0,0) translate(-253,-128) translate(253,71) rotate(0,0,0)"><text fill="" stroke="none" font-family="helvetica" font-size="14pt" font-style="normal" font-weight="normal" text-decoration="normal" x="0" y="0" text-anchor="end" dominant-baseline="central">Sidechain Outliers</text><g transform="rotate(0,0,0) translate(-253,-71)"/></g></g></g></g></g><g clip-path="url(#AnfTICdMMJFf)"><g/></g></g></g></svg>