<svg version="1.1" xmlns="http://www.w3.org/2000/svg" xmlns:xlink="http://www.w3.org/1999/xlink" width="450" height="450" style="width: 450px; height: 450px;"><defs><clipPath id="UXaDJvTvdZvu"><path fill="none" stroke="none" d=" M 109 37 L 420 37 L 420 382 L 109 382 L 109 37 Z"/></clipPath><clipPath id="VlmrHOoqTJZO"><path fill="none" stroke="none" d=" M 109 37 L 420 37 L 420 382 L 109 382 L 109 37 Z"/></clipPath><clipPath id="mNoHWETvXNRb"><path fill="none" stroke="none" d=" M 109 37 L 420 37 L 420 382 L 109 382 L 109 37 Z"/></clipPath><clipPath id="CJuVkvemBeVd"><path fill="none" stroke="none" d=" M 109 37 L 420 37 L 420 382 L 109 382 L 109 37 Z"/></clipPath><clipPath id="rSNriClLROSG"><path fill="none" stroke="none" d=" M 109 37 L 420 37 L 420 382 L 109 382 L 109 37 Z"/></clipPath></defs><g><g transform="scale(1,1) translate(0.5,0.5)"><rect fill="#FFFFFF" stroke="none" x="0" y="0" width="450" height="450"/><rect fill="#ffffff" stroke="none" x="0" y="0" width="450" height="450"/><rect fill="#FFFFFF" stroke="none" x="109" y="37" width="311" height="345"/><rect fill="#ffffff" stroke="none" x="109" y="37" width="311" height="345"/><g><rect fill="none" stroke="#e5e5e5" x="109" y="37" width="311" height="345" stroke-linejoin="bevel" stroke-miterlimit="10"/></g><g clip-path="url(#UXaDJvTvdZvu)"><g><g><path fill="none" stroke="#e5e5e5" paint-order="fill stroke markers" d=" M 186 382 L 186 37" stroke-linejoin="bevel" stroke-miterlimit="10"/><path fill="none" stroke="#e5e5e5" paint-order="fill stroke markers" d=" M 267 382 L 267 37" stroke-linejoin="bevel" stroke-miterlimit="10"/><path fill="none" stroke="#e5e5e5" paint-order="fill stroke markers" d=" M 349 382 L 349 37" stroke-linejoin="bevel" stroke-miterlimit="10"/></g></g></g><g clip-path="url(#VlmrHOoqTJZO)"><g><g><path fill="none" stroke="#e5e5e5" paint-order="fill stroke markers" d=" M 109 345 L 420 345" stroke-linejoin="bevel" stroke-miterlimit="10"/><path fill="none" stroke="#e5e5e5" paint-order="fill stroke markers" d=" M 109 292 L 420 292" stroke-linejoin="bevel" stroke-miterlimit="10"/><path fill="none" stroke="#e5e5e5" paint-order="fill stroke markers" d=" M 109 239 L 420 239" stroke-linejoin="bevel" stroke-miterlimit="10"/><path fill="none" stroke="#e5e5e5" paint-order="fill stroke markers" d=" M 109 185 L 420 185" stroke-linejoin="bevel" stroke-miterlimit="10"/><path fill="none" stroke="#e5e5e5" paint-order="fill stroke markers" d=" M 109 132 L 420 132" stroke-linejoin="bevel" stroke-miterlimit="10"/><path fill="none" stroke="#e5e5e5" paint-order="fill stroke markers" d=" M 109 79 L 420 79" stroke-linejoin="bevel" stroke-miterlimit="10"/></g></g></g><g clip-path="url(#mNoHWETvXNRb)"><g><g><path fill="none" stroke="none"/><path fill="blue" stroke="blue" paint-order="fill stroke markers" d=" M 125.63636363636364 358.23007122164523 A 2.5 2.5 0 1 1 125.63636238636374 358.2275712220619" fill-opacity="0.3" stroke-linejoin="bevel" stroke-miterlimit="10"/><path fill="blue" stroke="blue" paint-order="fill stroke markers" d=" M 127.73114709081484 260.95682805389464 A 2.5 2.5 0 1 1 127.73114584081495 260.9543280543113" fill-opacity="0.3" stroke-linejoin="bevel" stroke-miterlimit="10"/><path fill="blue" stroke="blue" paint-order="fill stroke markers" d=" M 129.93335374176587 192.2312451706166 A 2.5 2.5 0 1 1 129.933352491766 192.22874517103327" fill-opacity="0.3" stroke-linejoin="bevel" stroke-miterlimit="10"/><path fill="blue" stroke="blue" paint-order="fill stroke markers" d=" M 132.2429830078347 331.4857997540977 A 2.5 2.5 0 1 1 132.24298175783483 331.48329975451435" fill-opacity="0.3" stroke-linejoin="bevel" stroke-miterlimit="10"/><path fill="blue" stroke="blue" paint-order="fill stroke markers" d=" M 134.66003509531936 52.68181818181819 A 2.5 2.5 0 1 1 134.66003384531948 52.67931818223485" fill-opacity="0.3" stroke-linejoin="bevel" stroke-miterlimit="10"/><path fill="blue" stroke="blue" paint-order="fill stroke markers" d=" M 137.18450893522714 133.90269446857258 A 2.5 2.5 0 1 1 137.18450768522726 133.90019446898924" fill-opacity="0.3" stroke-linejoin="bevel" stroke-miterlimit="10"/><path fill="blue" stroke="blue" paint-order="fill stroke markers" d=" M 139.81640518395892 284.2729442085132 A 2.5 2.5 0 1 1 139.81640393395904 284.27044420892986" fill-opacity="0.3" stroke-linejoin="bevel" stroke-miterlimit="10"/><path fill="blue" stroke="blue" paint-order="fill stroke markers" d=" M 142.5557226975056 303.75628407924614 A 2.5 2.5 0 1 1 142.5557214475057 303.7537840796628" fill-opacity="0.3" stroke-linejoin="bevel" stroke-miterlimit="10"/><path fill="blue" stroke="blue" paint-order="fill stroke markers" d=" M 145.40246119455506 366.3181818181818 A 2.5 2.5 0 1 1 145.40245994455518 366.3156818185985" fill-opacity="0.3" stroke-linejoin="bevel" stroke-miterlimit="10"/><path fill="blue" stroke="blue" paint-order="fill stroke markers" d=" M 148.3566209189145 278.0224702053336 A 2.5 2.5 0 1 1 148.35661966891462 278.01997020575027" fill-opacity="0.3" stroke-linejoin="bevel" stroke-miterlimit="10"/><path fill="blue" stroke="blue" paint-order="fill stroke markers" d=" M 151.41820110166145 322.4523024292674 A 2.5 2.5 0 1 1 151.41819985166157 322.44980242968404" fill-opacity="0.3" stroke-linejoin="bevel" stroke-miterlimit="10"/><path fill="blue" stroke="blue" paint-order="fill stroke markers" d=" M 154.58720146148445 326.2174742977997 A 2.5 2.5 0 1 1 154.58720021148457 326.21497429821636" fill-opacity="0.3" stroke-linejoin="bevel" stroke-miterlimit="10"/><path fill="blue" stroke="blue" paint-order="fill stroke markers" d=" M 157.8636217170723 304.4419042879996 A 2.5 2.5 0 1 1 157.86362046707242 304.43940428841626" fill-opacity="0.3" stroke-linejoin="bevel" stroke-miterlimit="10"/><path fill="blue" stroke="blue" paint-order="fill stroke markers" d=" M 161.24746158711412 193.69549889147024 A 2.5 2.5 0 1 1 161.24746033711423 193.6929988918869" fill-opacity="0.3" stroke-linejoin="bevel" stroke-miterlimit="10"/><path fill="blue" stroke="blue" paint-order="fill stroke markers" d=" M 164.7387201714098 237.34647209694455 A 2.5 2.5 0 1 1 164.7387189214099 237.34397209736122" fill-opacity="0.3" stroke-linejoin="bevel" stroke-miterlimit="10"/><path fill="blue" stroke="blue" paint-order="fill stroke markers" d=" M 168.33739777003026 328.87709201997967 A 2.5 2.5 0 1 1 168.33739652003038 328.87459202039634" fill-opacity="0.3" stroke-linejoin="bevel" stroke-miterlimit="10"/><path fill="blue" stroke="blue" paint-order="fill stroke markers" d=" M 172.04349278887065 203.56305866684704 A 2.5 2.5 0 1 1 172.04349153887077 203.5605586672637" fill-opacity="0.3" stroke-linejoin="bevel" stroke-miterlimit="10"/><path fill="blue" stroke="blue" paint-order="fill stroke markers" d=" M 175.8570061843998 317.5669936984204 A 2.5 2.5 0 1 1 175.85700493439992 317.56449369883705" fill-opacity="0.3" stroke-linejoin="bevel" stroke-miterlimit="10"/><path fill="blue" stroke="blue" paint-order="fill stroke markers" d=" M 179.77793628749768 234.7610297479643 A 2.5 2.5 0 1 1 179.7779350374978 234.75852974838097" fill-opacity="0.3" stroke-linejoin="bevel" stroke-miterlimit="10"/><path fill="blue" stroke="blue" paint-order="fill stroke markers" d=" M 183.80628341699054 115.3339923831278 A 2.5 2.5 0 1 1 183.80628216699066 115.33149238354447" fill-opacity="0.3" stroke-linejoin="bevel" stroke-miterlimit="10"/><path fill="blue" stroke="blue" paint-order="fill stroke markers" d=" M 187.94204723530763 156.83938273668605 A 2.5 2.5 0 1 1 187.94204598530774 156.8368827371027" fill-opacity="0.3" stroke-linejoin="bevel" stroke-miterlimit="10"/><path fill="blue" stroke="blue" paint-order="fill stroke markers" d=" M 192.18522590454472 193.19902547165333 A 2.5 2.5 0 1 1 192.18522465454484 193.19652547207" fill-opacity="0.3" stroke-linejoin="bevel" stroke-miterlimit="10"/><path fill="blue" stroke="blue" paint-order="fill stroke markers" d=" M 196.5358205124502 220.16938371102194 A 2.5 2.5 0 1 1 196.5358192624503 220.1668837114386" fill-opacity="0.3" stroke-linejoin="bevel" stroke-miterlimit="10"/><path fill="blue" stroke="blue" paint-order="fill stroke markers" d=" M 200.99382993377992 193.78308795513544 A 2.5 2.5 0 1 1 200.99382868378004 193.7805879555521" fill-opacity="0.3" stroke-linejoin="bevel" stroke-miterlimit="10"/><path fill="blue" stroke="blue" paint-order="fill stroke markers" d=" M 205.5592537747032 178.36122060775006 A 2.5 2.5 0 1 1 205.5592525247033 178.35872060816672" fill-opacity="0.3" stroke-linejoin="bevel" stroke-miterlimit="10"/><path fill="blue" stroke="blue" paint-order="fill stroke markers" d=" M 210.23209081620757 81.18921448128421 A 2.5 2.5 0 1 1 210.2320895662077 81.18671448170088" fill-opacity="0.3" stroke-linejoin="bevel" stroke-miterlimit="10"/><path fill="blue" stroke="blue" paint-order="fill stroke markers" d=" M 215.01234060820215 275.73881548619613 A 2.5 2.5 0 1 1 215.01233935820227 275.7363154866128" fill-opacity="0.3" stroke-linejoin="bevel" stroke-miterlimit="10"/><path fill="blue" stroke="blue" paint-order="fill stroke markers" d=" M 219.90000356328625 190.62211333055012 A 2.5 2.5 0 1 1 219.90000231328636 190.61961333096679" fill-opacity="0.3" stroke-linejoin="bevel" stroke-miterlimit="10"/><path fill="blue" stroke="blue" paint-order="fill stroke markers" d=" M 224.89507840618785 193.6853473169291 A 2.5 2.5 0 1 1 224.89507715618797 193.68284731734576" fill-opacity="0.3" stroke-linejoin="bevel" stroke-miterlimit="10"/><path fill="blue" stroke="blue" paint-order="fill stroke markers" d=" M 229.99756468681778 234.61218125577125 A 2.5 2.5 0 1 1 229.9975634368179 234.6096812561879" fill-opacity="0.3" stroke-linejoin="bevel" stroke-miterlimit="10"/><path fill="blue" stroke="blue" paint-order="fill stroke markers" d=" M 235.2074619550874 271.2693086171852 A 2.5 2.5 0 1 1 235.20746070508753 271.26680861760184" fill-opacity="0.3" stroke-linejoin="bevel" stroke-miterlimit="10"/><path fill="blue" stroke="blue" paint-order="fill stroke markers" d=" M 240.5247688232044 311.3208985844272 A 2.5 2.5 0 1 1 240.5247675732045 311.31839858484386" fill-opacity="0.3" stroke-linejoin="bevel" stroke-miterlimit="10"/><path fill="blue" stroke="blue" paint-order="fill stroke markers" d=" M 245.94948478482058 212.27601094041563 A 2.5 2.5 0 1 1 245.9494835348207 212.2735109408323" fill-opacity="0.3" stroke-linejoin="bevel" stroke-miterlimit="10"/><path fill="blue" stroke="blue" paint-order="fill stroke markers" d=" M 251.48161030880038 171.88358158570531 A 2.5 2.5 0 1 1 251.4816090588005 171.88108158612198" fill-opacity="0.3" stroke-linejoin="bevel" stroke-miterlimit="10"/><path fill="blue" stroke="blue" paint-order="fill stroke markers" d=" M 257.1211439510926 180.42885363289054 A 2.5 2.5 0 1 1 257.1211427010927 180.4263536333072" fill-opacity="0.3" stroke-linejoin="bevel" stroke-miterlimit="10"/><path fill="blue" stroke="blue" paint-order="fill stroke markers" d=" M 262.8680852053515 263.8347621634814 A 2.5 2.5 0 1 1 262.8680839553516 263.83226216389806" fill-opacity="0.3" stroke-linejoin="bevel" stroke-miterlimit="10"/><path fill="blue" stroke="blue" paint-order="fill stroke markers" d=" M 268.72243253375984 287.02230578858587 A 2.5 2.5 0 1 1 268.72243128375993 287.01980578900253" fill-opacity="0.3" stroke-linejoin="bevel" stroke-miterlimit="10"/><path fill="blue" stroke="blue" paint-order="fill stroke markers" d=" M 274.6841864239387 196.0733351005029 A 2.5 2.5 0 1 1 274.6841851739388 196.07083510091957" fill-opacity="0.3" stroke-linejoin="bevel" stroke-miterlimit="10"/><path fill="blue" stroke="blue" paint-order="fill stroke markers" d=" M 280.7533463695446 274.0092992118651 A 2.5 2.5 0 1 1 280.7533451195447 274.00679921228175" fill-opacity="0.3" stroke-linejoin="bevel" stroke-miterlimit="10"/><path fill="blue" stroke="blue" paint-order="fill stroke markers" d=" M 286.92990968877007 247.61402930687882 A 2.5 2.5 0 1 1 286.92990843877016 247.61152930729548" fill-opacity="0.3" stroke-linejoin="bevel" stroke-miterlimit="10"/><path fill="blue" stroke="blue" paint-order="fill stroke markers" d=" M 293.2138779757251 269.0551088068809 A 2.5 2.5 0 1 1 293.2138767257252 269.0526088072976" fill-opacity="0.3" stroke-linejoin="bevel" stroke-miterlimit="10"/><path fill="blue" stroke="blue" paint-order="fill stroke markers" d=" M 299.6052484735902 78.70388861602441 A 2.5 2.5 0 1 1 299.6052472235903 78.70138861644108" fill-opacity="0.3" stroke-linejoin="bevel" stroke-miterlimit="10"/><path fill="blue" stroke="blue" paint-order="fill stroke markers" d=" M 306.1040217074983 151.529608745185 A 2.5 2.5 0 1 1 306.1040204574984 151.52710874560165" fill-opacity="0.3" stroke-linejoin="bevel" stroke-miterlimit="10"/><path fill="blue" stroke="blue" paint-order="fill stroke markers" d=" M 312.71019711485053 294.3529960996432 A 2.5 2.5 0 1 1 312.7101958648506 294.35049610005984" fill-opacity="0.3" stroke-linejoin="bevel" stroke-miterlimit="10"/><path fill="blue" stroke="blue" paint-order="fill stroke markers" d=" M 319.42377177005113 262.50232810814487 A 2.5 2.5 0 1 1 319.4237705200512 262.49982810856153" fill-opacity="0.3" stroke-linejoin="bevel" stroke-miterlimit="10"/><path fill="blue" stroke="blue" paint-order="fill stroke markers" d=" M 326.24474859874056 260.6159303313235 A 2.5 2.5 0 1 1 326.24474734874065 260.6134303317402" fill-opacity="0.3" stroke-linejoin="bevel" stroke-miterlimit="10"/><path fill="blue" stroke="blue" paint-order="fill stroke markers" d=" M 333.17312343756674 225.1445452501372 A 2.5 2.5 0 1 1 333.17312218756683 225.14204525055388" fill-opacity="0.3" stroke-linejoin="bevel" stroke-miterlimit="10"/><path fill="blue" stroke="blue" paint-order="fill stroke markers" d=" M 340.2088956114162 316.329148393817 A 2.5 2.5 0 1 1 340.2088943614163 316.32664839423364" fill-opacity="0.3" stroke-linejoin="bevel" stroke-miterlimit="10"/><path fill="blue" stroke="blue" paint-order="fill stroke markers" d=" M 347.3520669581999 198.08986893576207 A 2.5 2.5 0 1 1 347.3520657082 198.08736893617873" fill-opacity="0.3" stroke-linejoin="bevel" stroke-miterlimit="10"/><path fill="blue" stroke="blue" paint-order="fill stroke markers" d=" M 354.6026343647962 304.813154115967 A 2.5 2.5 0 1 1 354.6026331147963 304.81065411638366" fill-opacity="0.3" stroke-linejoin="bevel" stroke-miterlimit="10"/><path fill="blue" stroke="blue" paint-order="fill stroke markers" d=" M 361.9605971560956 189.07194099911868 A 2.5 2.5 0 1 1 361.9605959060957 189.06944099953535" fill-opacity="0.3" stroke-linejoin="bevel" stroke-miterlimit="10"/><path fill="blue" stroke="blue" paint-order="fill stroke markers" d=" M 369.4259559697607 257.0230849405302 A 2.5 2.5 0 1 1 369.4259547197608 257.0205849409469" fill-opacity="0.3" stroke-linejoin="bevel" stroke-miterlimit="10"/><path fill="blue" stroke="blue" paint-order="fill stroke markers" d=" M 376.99870752389666 214.78426374298297 A 2.5 2.5 0 1 1 376.99870627389674 214.78176374339964" fill-opacity="0.3" stroke-linejoin="bevel" stroke-miterlimit="10"/><path fill="blue" stroke="blue" paint-order="fill stroke markers" d=" M 384.6788524374157 309.26672834877763 A 2.5 2.5 0 1 1 384.6788511874158 309.2642283491943" fill-opacity="0.3" stroke-linejoin="bevel" stroke-miterlimit="10"/><path fill="blue" stroke="blue" paint-order="fill stroke markers" d=" M 392.466390035214 244.0486054146778 A 2.5 2.5 0 1 1 392.46638878521406 244.04610541509447" fill-opacity="0.3" stroke-linejoin="bevel" stroke-miterlimit="10"/><path fill="blue" stroke="blue" paint-order="fill stroke markers" d=" M 400.3613182544073 240.2336489618059 A 2.5 2.5 0 1 1 400.3613170044074 240.23114896222256" fill-opacity="0.3" stroke-linejoin="bevel" stroke-miterlimit="10"/><path fill="blue" stroke="blue" paint-order="fill stroke markers" d=" M 408.3636363636364 303.2273448106131 A 2.5 2.5 0 1 1 408.36363511363646 303.22484481102975" fill-opacity="0.3" stroke-linejoin="bevel" stroke-miterlimit="10"/></g></g></g><g clip-path="url(#CJuVkvemBeVd)"><g><g><path fill="none" stroke="red" paint-order="fill stroke markers" d=" M 109 238.57611416821 L 420 238.57611416821" stroke-linejoin="bevel" stroke-miterlimit="10" stroke-width="3"/></g></g></g><g><g fill="#444444"><path fill="" stroke="none" d=""/><g transform="translate(264.5,5)"><path fill="none" stroke="none"/><text fill="" stroke="none" font-family="helvetica" font-size="12pt" font-style="normal" font-weight="bold" text-decoration="normal" x="0" y="0" text-anchor="middle" dominant-baseline="text-before-edge">Residuals for Guinier plot fit</text></g></g></g><g/><g><g fill="#444444"><path fill="none" stroke="black" paint-order="fill stroke markers" d=" M 109 382 L 420 382" stroke-linejoin="bevel" stroke-miterlimit="10"/><path fill="none" stroke="black" paint-order="fill stroke markers" d=" M 186 388 L 186 380" stroke-linejoin="bevel" stroke-miterlimit="10"/><path fill="none" stroke="black" paint-order="fill stroke markers" d=" M 267 388 L 267 380" stroke-linejoin="bevel" stroke-miterlimit="10"/><path fill="none" stroke="black" paint-order="fill stroke markers" d=" M 349 388 L 349 380" stroke-linejoin="bevel" stroke-miterlimit="10"/><path fill="none" stroke="black" paint-order="fill stroke markers" d=" M 169 386 L 169 382" stroke-linejoin="bevel" stroke-miterlimit="10"/><path fill="none" stroke="black" paint-order="fill stroke markers" d=" M 153 386 L 153 382" stroke-linejoin="bevel" stroke-miterlimit="10"/><path fill="none" stroke="black" paint-order="fill stroke markers" d=" M 136 386 L 136 382" stroke-linejoin="bevel" stroke-miterlimit="10"/><path fill="none" stroke="black" paint-order="fill stroke markers" d=" M 120 386 L 120 382" stroke-linejoin="bevel" stroke-miterlimit="10"/><path fill="none" stroke="black" paint-order="fill stroke markers" d=" M 186 386 L 186 382" stroke-linejoin="bevel" stroke-miterlimit="10"/><path fill="none" stroke="black" paint-order="fill stroke markers" d=" M 202 386 L 202 382" stroke-linejoin="bevel" stroke-miterlimit="10"/><path fill="none" stroke="black" paint-order="fill stroke markers" d=" M 218 386 L 218 382" stroke-linejoin="bevel" stroke-miterlimit="10"/><path fill="none" stroke="black" paint-order="fill stroke markers" d=" M 235 386 L 235 382" stroke-linejoin="bevel" stroke-miterlimit="10"/><path fill="none" stroke="black" paint-order="fill stroke markers" d=" M 251 386 L 251 382" stroke-linejoin="bevel" stroke-miterlimit="10"/><path fill="none" stroke="black" paint-order="fill stroke markers" d=" M 267 386 L 267 382" stroke-linejoin="bevel" stroke-miterlimit="10"/><path fill="none" stroke="black" paint-order="fill stroke markers" d=" M 284 386 L 284 382" stroke-linejoin="bevel" stroke-miterlimit="10"/><path fill="none" stroke="black" paint-order="fill stroke markers" d=" M 300 386 L 300 382" stroke-linejoin="bevel" stroke-miterlimit="10"/><path fill="none" stroke="black" paint-order="fill stroke markers" d=" M 317 386 L 317 382" stroke-linejoin="bevel" stroke-miterlimit="10"/><path fill="none" stroke="black" paint-order="fill stroke markers" d=" M 333 386 L 333 382" stroke-linejoin="bevel" stroke-miterlimit="10"/><path fill="none" stroke="black" paint-order="fill stroke markers" d=" M 349 386 L 349 382" stroke-linejoin="bevel" stroke-miterlimit="10"/><path fill="none" stroke="black" paint-order="fill stroke markers" d=" M 366 386 L 366 382" stroke-linejoin="bevel" stroke-miterlimit="10"/><path fill="none" stroke="black" paint-order="fill stroke markers" d=" M 382 386 L 382 382" stroke-linejoin="bevel" stroke-miterlimit="10"/><path fill="none" stroke="black" paint-order="fill stroke markers" d=" M 398 386 L 398 382" stroke-linejoin="bevel" stroke-miterlimit="10"/><path fill="" stroke="black" paint-order="fill stroke markers" d=" M 415 386 L 415 382" stroke-linejoin="bevel" stroke-miterlimit="10"/><g transform="translate(186,393) rotate(0,0,0)"><text fill="" stroke="none" font-family="helvetica" font-size="14pt" font-style="normal" font-weight="normal" text-decoration="normal" x="0" y="0" text-anchor="middle" dominant-baseline="hanging">0.05</text><g transform="rotate(0,0,0) translate(-186,-393) translate(267,393) rotate(0,0,0)"><text fill="" stroke="none" font-family="helvetica" font-size="14pt" font-style="normal" font-weight="normal" text-decoration="normal" x="0" y="0" text-anchor="middle" dominant-baseline="hanging">0.1</text><g transform="rotate(0,0,0) translate(-267,-393) translate(349,393) rotate(0,0,0)"><text fill="" stroke="none" font-family="helvetica" font-size="14pt" font-style="normal" font-weight="normal" text-decoration="normal" x="0" y="0" text-anchor="middle" dominant-baseline="hanging">0.15</text><g transform="rotate(0,0,0) translate(-349,-393) translate(265,424) rotate(0,0,0)"><text fill="" stroke="none" font-family="helvetica" font-size="14pt" font-style="italic" font-weight="normal" text-decoration="normal" x="0" y="0" text-anchor="middle" dominant-baseline="hanging">s² Å⁻²</text><g transform="rotate(0,0,0) translate(-265,-424)"/></g></g></g></g></g></g><g><g fill="#444444"><path fill="none" stroke="black" paint-order="fill stroke markers" d=" M 109 382 L 109 37" stroke-linejoin="bevel" stroke-miterlimit="10"/><path fill="none" stroke="black" paint-order="fill stroke markers" d=" M 103 345 L 111 345" stroke-linejoin="bevel" stroke-miterlimit="10"/><path fill="none" stroke="black" paint-order="fill stroke markers" d=" M 103 292 L 111 292" stroke-linejoin="bevel" stroke-miterlimit="10"/><path fill="none" stroke="black" paint-order="fill stroke markers" d=" M 103 239 L 111 239" stroke-linejoin="bevel" stroke-miterlimit="10"/><path fill="none" stroke="black" paint-order="fill stroke markers" d=" M 103 185 L 111 185" stroke-linejoin="bevel" stroke-miterlimit="10"/><path fill="none" stroke="black" paint-order="fill stroke markers" d=" M 103 132 L 111 132" stroke-linejoin="bevel" stroke-miterlimit="10"/><path fill="none" stroke="black" paint-order="fill stroke markers" d=" M 103 79 L 111 79" stroke-linejoin="bevel" stroke-miterlimit="10"/><path fill="none" stroke="black" paint-order="fill stroke markers" d=" M 105 356 L 109 356" stroke-linejoin="bevel" stroke-miterlimit="10"/><path fill="none" stroke="black" paint-order="fill stroke markers" d=" M 105 366 L 109 366" stroke-linejoin="bevel" stroke-miterlimit="10"/><path fill="none" stroke="black" paint-order="fill stroke markers" d=" M 105 377 L 109 377" stroke-linejoin="bevel" stroke-miterlimit="10"/><path fill="none" stroke="black" paint-order="fill stroke markers" d=" M 105 345 L 109 345" stroke-linejoin="bevel" stroke-miterlimit="10"/><path fill="none" stroke="black" paint-order="fill stroke markers" d=" M 105 334 L 109 334" stroke-linejoin="bevel" stroke-miterlimit="10"/><path fill="none" stroke="black" paint-order="fill stroke markers" d=" M 105 324 L 109 324" stroke-linejoin="bevel" stroke-miterlimit="10"/><path fill="none" stroke="black" paint-order="fill stroke markers" d=" M 105 313 L 109 313" stroke-linejoin="bevel" stroke-miterlimit="10"/><path fill="none" stroke="black" paint-order="fill stroke markers" d=" M 105 302 L 109 302" stroke-linejoin="bevel" stroke-miterlimit="10"/><path fill="none" stroke="black" paint-order="fill stroke markers" d=" M 105 292 L 109 292" stroke-linejoin="bevel" stroke-miterlimit="10"/><path fill="none" stroke="black" paint-order="fill stroke markers" d=" M 105 281 L 109 281" stroke-linejoin="bevel" stroke-miterlimit="10"/><path fill="none" stroke="black" paint-order="fill stroke markers" d=" M 105 270 L 109 270" stroke-linejoin="bevel" stroke-miterlimit="10"/><path fill="none" stroke="black" paint-order="fill stroke markers" d=" M 105 260 L 109 260" stroke-linejoin="bevel" stroke-miterlimit="10"/><path fill="none" stroke="black" paint-order="fill stroke markers" d=" M 105 249 L 109 249" stroke-linejoin="bevel" stroke-miterlimit="10"/><path fill="none" stroke="black" paint-order="fill stroke markers" d=" M 105 239 L 109 239" stroke-linejoin="bevel" stroke-miterlimit="10"/><path fill="none" stroke="black" paint-order="fill stroke markers" d=" M 105 228 L 109 228" stroke-linejoin="bevel" stroke-miterlimit="10"/><path fill="none" stroke="black" paint-order="fill stroke markers" d=" M 105 217 L 109 217" stroke-linejoin="bevel" stroke-miterlimit="10"/><path fill="none" stroke="black" paint-order="fill stroke markers" d=" M 105 207 L 109 207" stroke-linejoin="bevel" stroke-miterlimit="10"/><path fill="none" stroke="black" paint-order="fill stroke markers" d=" M 105 196 L 109 196" stroke-linejoin="bevel" stroke-miterlimit="10"/><path fill="none" stroke="black" paint-order="fill stroke markers" d=" M 105 185 L 109 185" stroke-linejoin="bevel" stroke-miterlimit="10"/><path fill="none" stroke="black" paint-order="fill stroke markers" d=" M 105 175 L 109 175" stroke-linejoin="bevel" stroke-miterlimit="10"/><path fill="none" stroke="black" paint-order="fill stroke markers" d=" M 105 164 L 109 164" stroke-linejoin="bevel" stroke-miterlimit="10"/><path fill="none" stroke="black" paint-order="fill stroke markers" d=" M 105 154 L 109 154" stroke-linejoin="bevel" stroke-miterlimit="10"/><path fill="none" stroke="black" paint-order="fill stroke markers" d=" M 105 143 L 109 143" stroke-linejoin="bevel" stroke-miterlimit="10"/><path fill="none" stroke="black" paint-order="fill stroke markers" d=" M 105 132 L 109 132" stroke-linejoin="bevel" stroke-miterlimit="10"/><path fill="none" stroke="black" paint-order="fill stroke markers" d=" M 105 122 L 109 122" stroke-linejoin="bevel" stroke-miterlimit="10"/><path fill="none" stroke="black" paint-order="fill stroke markers" d=" M 105 111 L 109 111" stroke-linejoin="bevel" stroke-miterlimit="10"/><path fill="none" stroke="black" paint-order="fill stroke markers" d=" M 105 100 L 109 100" stroke-linejoin="bevel" stroke-miterlimit="10"/><path fill="none" stroke="black" paint-order="fill stroke markers" d=" M 105 90 L 109 90" stroke-linejoin="bevel" stroke-miterlimit="10"/><path fill="none" stroke="black" paint-order="fill stroke markers" d=" M 105 79 L 109 79" stroke-linejoin="bevel" stroke-miterlimit="10"/><path fill="none" stroke="black" paint-order="fill stroke markers" d=" M 105 68 L 109 68" stroke-linejoin="bevel" stroke-miterlimit="10"/><path fill="none" stroke="black" paint-order="fill stroke markers" d=" M 105 58 L 109 58" stroke-linejoin="bevel" stroke-miterlimit="10"/><path fill="" stroke="black" paint-order="fill stroke markers" d=" M 105 47 L 109 47" stroke-linejoin="bevel" stroke-miterlimit="10"/><g transform="translate(98,345) rotate(0,0,0)"><text fill="" stroke="none" font-family="helvetica" font-size="14pt" font-style="normal" font-weight="normal" text-decoration="normal" x="0" y="0" text-anchor="end" dominant-baseline="central">-0.004</text><g transform="rotate(0,0,0) translate(-98,-345) translate(98,292) rotate(0,0,0)"><text fill="" stroke="none" font-family="helvetica" font-size="14pt" font-style="normal" font-weight="normal" text-decoration="normal" x="0" y="0" text-anchor="end" dominant-baseline="central">-0.002</text><g transform="rotate(0,0,0) translate(-98,-292) translate(98,239) rotate(0,0,0)"><text fill="" stroke="none" font-family="helvetica" font-size="14pt" font-style="normal" font-weight="normal" text-decoration="normal" x="0" y="0" text-anchor="end" dominant-baseline="central">0</text><g transform="rotate(0,0,0) translate(-98,-239) translate(98,185) rotate(0,0,0)"><text fill="" stroke="none" font-family="helvetica" font-size="14pt" font-style="normal" font-weight="normal" text-decoration="normal" x="0" y="0" text-anchor="end" dominant-baseline="central">0.002</text><g transform="rotate(0,0,0) translate(-98,-185) translate(98,132) rotate(0,0,0)"><text fill="" stroke="none" font-family="helvetica" font-size="14pt" font-style="normal" font-weight="normal" text-decoration="normal" x="0" y="0" text-anchor="end" dominant-baseline="central">0.004</text><g transform="rotate(0,0,0) translate(-98,-132) translate(98,79) rotate(0,0,0)"><text fill="" stroke="none" font-family="helvetica" font-size="14pt" font-style="normal" font-weight="normal" text-decoration="normal" x="0" y="0" text-anchor="end" dominant-baseline="central">0.006</text><g transform="rotate(0,0,0) translate(-98,-79) translate(26,210) rotate(-90,0,0)"><text fill="" stroke="none" font-family="helvetica" font-size="14pt" font-style="italic" font-weight="normal" text-decoration="normal" x="0" y="0" text-anchor="middle" dominant-baseline="alphabetic">R</text><g transform="rotate(90,0,0) translate(-26,-210)"/></g></g></g></g></g></g></g></g></g><g clip-path="url(#rSNriClLROSG)"><g/></g></g></g></svg>