<svg version="1.1" xmlns="http://www.w3.org/2000/svg" xmlns:xlink="http://www.w3.org/1999/xlink" width="500" height="500" style="width: 500px; height: 500px;"><defs><clipPath id="vsvpyPKuBMpA"><path fill="none" stroke="none" d=" M 67 33 L 470 33 L 470 439 L 67 439 L 67 33 Z"/></clipPath><clipPath id="etHPPpTfsSka"><path fill="none" stroke="none" d=" M 67 33 L 470 33 L 470 439 L 67 439 L 67 33 Z"/></clipPath><clipPath id="EJtQqqFaxmMZ"><path fill="none" stroke="none" d=" M 67 33 L 470 33 L 470 439 L 67 439 L 67 33 Z"/></clipPath><clipPath id="ohspGICUJBTN"><path fill="none" stroke="none" d=" M 67 33 L 470 33 L 470 439 L 67 439 L 67 33 Z"/></clipPath><clipPath id="zDCHbbKbVzoa"><path fill="none" stroke="none" d=" M 67 33 L 470 33 L 470 439 L 67 439 L 67 33 Z"/></clipPath><clipPath id="PmIciXsWuSRl"><path fill="none" stroke="none" d=" M 67 33 L 470 33 L 470 439 L 67 439 L 67 33 Z"/></clipPath><clipPath id="WirTmdsAwTlK"><path fill="none" stroke="none" d=" M 67 33 L 470 33 L 470 439 L 67 439 L 67 33 Z"/></clipPath><clipPath id="DlOqTknZBuAa"><path fill="none" stroke="none" d=" M 67 33 L 470 33 L 470 439 L 67 439 L 67 33 Z"/></clipPath><clipPath id="kcPmXATuObiT"><path fill="none" stroke="none" d=" M 67 33 L 470 33 L 470 439 L 67 439 L 67 33 Z"/></clipPath><clipPath id="fFgViIfWTwik"><path fill="none" stroke="none" d=" M 67 33 L 470 33 L 470 439 L 67 439 L 67 33 Z"/></clipPath><clipPath id="bIsfByTZpETv"><path fill="none" stroke="none" d=" M 67 33 L 470 33 L 470 439 L 67 439 L 67 33 Z"/></clipPath><clipPath id="CXIseRAMtgdc"><path fill="none" stroke="none" d=" M 67 33 L 470 33 L 470 439 L 67 439 L 67 33 Z"/></clipPath></defs><g transform="scale(1,1) translate(0.5,0.5) scale(1,1) translate(0.5,0.5)"><rect fill="#ffffff" stroke="none" x="0" y="0" width="500" height="500"/><rect fill="#FFFFFF" stroke="none" x="67" y="33" width="403" height="406"/><rect fill="#ffffff" stroke="none" x="67" y="33" width="403" height="406"/><g><rect fill="none" stroke="#e5e5e5" x="67" y="33" width="403" height="406" stroke-linejoin="bevel" stroke-miterlimit="10"/></g><g clip-path="url(#WirTmdsAwTlK)"><g><g><path fill="none" stroke="#e5e5e5" paint-order="fill stroke markers" d=" M 77 439 L 77 33" stroke-linejoin="bevel" stroke-miterlimit="10"/><path fill="none" stroke="#e5e5e5" paint-order="fill stroke markers" d=" M 152 439 L 152 33" stroke-linejoin="bevel" stroke-miterlimit="10"/><path fill="none" stroke="#e5e5e5" paint-order="fill stroke markers" d=" M 226 439 L 226 33" stroke-linejoin="bevel" stroke-miterlimit="10"/><path fill="none" stroke="#e5e5e5" paint-order="fill stroke markers" d=" M 301 439 L 301 33" stroke-linejoin="bevel" stroke-miterlimit="10"/><path fill="none" stroke="#e5e5e5" paint-order="fill stroke markers" d=" M 375 439 L 375 33" stroke-linejoin="bevel" stroke-miterlimit="10"/><path fill="none" stroke="#e5e5e5" paint-order="fill stroke markers" d=" M 450 439 L 450 33" stroke-linejoin="bevel" stroke-miterlimit="10"/></g></g></g><g clip-path="url(#DlOqTknZBuAa)"><g><g><path fill="none" stroke="#e5e5e5" paint-order="fill stroke markers" d=" M 67 418 L 470 418" stroke-linejoin="bevel" stroke-miterlimit="10"/><path fill="none" stroke="#e5e5e5" paint-order="fill stroke markers" d=" M 67 354 L 470 354" stroke-linejoin="bevel" stroke-miterlimit="10"/><path fill="none" stroke="#e5e5e5" paint-order="fill stroke markers" d=" M 67 289 L 470 289" stroke-linejoin="bevel" stroke-miterlimit="10"/><path fill="none" stroke="#e5e5e5" paint-order="fill stroke markers" d=" M 67 225 L 470 225" stroke-linejoin="bevel" stroke-miterlimit="10"/><path fill="none" stroke="#e5e5e5" paint-order="fill stroke markers" d=" M 67 161 L 470 161" stroke-linejoin="bevel" stroke-miterlimit="10"/><path fill="none" stroke="#e5e5e5" paint-order="fill stroke markers" d=" M 67 97 L 470 97" stroke-linejoin="bevel" stroke-miterlimit="10"/><path fill="none" stroke="#e5e5e5" paint-order="fill stroke markers" d=" M 67 33 L 470 33" stroke-linejoin="bevel" stroke-miterlimit="10"/></g></g></g><g clip-path="url(#kcPmXATuObiT)"><g><g><path fill="none" stroke="none"/><path fill="blue" stroke="blue" paint-order="fill stroke markers" d=" M 87.81818181818184 71.30977460732493 A 2.5 2.5 0 1 1 87.81818056818194 71.30727460774159" fill-opacity="0.3" stroke-linejoin="bevel" stroke-miterlimit="10"/><path fill="blue" stroke="blue" paint-order="fill stroke markers" d=" M 89.31680345073255 61.725213634596 A 2.5 2.5 0 1 1 89.31680220073265 61.72271363501267" fill-opacity="0.3" stroke-linejoin="bevel" stroke-miterlimit="10"/><path fill="blue" stroke="blue" paint-order="fill stroke markers" d=" M 90.94010564610204 51.454545454545496 A 2.5 2.5 0 1 1 90.94010439610214 51.45204545496216" fill-opacity="0.3" stroke-linejoin="bevel" stroke-miterlimit="10"/><path fill="blue" stroke="blue" paint-order="fill stroke markers" d=" M 92.6880884042903 70.05942252941168 A 2.5 2.5 0 1 1 92.6880871542904 70.05692252982834" fill-opacity="0.3" stroke-linejoin="bevel" stroke-miterlimit="10"/><path fill="blue" stroke="blue" paint-order="fill stroke markers" d=" M 94.56096338690547 71.24470082495668 A 2.5 2.5 0 1 1 94.56096213690557 71.24220082537335" fill-opacity="0.3" stroke-linejoin="bevel" stroke-miterlimit="10"/><path fill="blue" stroke="blue" paint-order="fill stroke markers" d=" M 96.55832090894643 72.32011383740883 A 2.5 2.5 0 1 1 96.55831965894653 72.31761383782549" fill-opacity="0.3" stroke-linejoin="bevel" stroke-miterlimit="10"/><path fill="blue" stroke="blue" paint-order="fill stroke markers" d=" M 98.68035899380617 70.48107333044618 A 2.5 2.5 0 1 1 98.68035774380627 70.47857333086284" fill-opacity="0.3" stroke-linejoin="bevel" stroke-miterlimit="10"/><path fill="blue" stroke="blue" paint-order="fill stroke markers" d=" M 100.92707764148467 81.5260309976527 A 2.5 2.5 0 1 1 100.92707639148477 81.52353099806936" fill-opacity="0.3" stroke-linejoin="bevel" stroke-miterlimit="10"/><path fill="blue" stroke="blue" paint-order="fill stroke markers" d=" M 103.29874306794248 80.65373344474392 A 2.5 2.5 0 1 1 103.29874181794258 80.65123344516059" fill-opacity="0.3" stroke-linejoin="bevel" stroke-miterlimit="10"/><path fill="blue" stroke="blue" paint-order="fill stroke markers" d=" M 105.79483647947369 80.48625613635318 A 2.5 2.5 0 1 1 105.79483522947379 80.48375613676984" fill-opacity="0.3" stroke-linejoin="bevel" stroke-miterlimit="10"/><path fill="blue" stroke="blue" paint-order="fill stroke markers" d=" M 108.41561045382367 81.94625259767668 A 2.5 2.5 0 1 1 108.41560920382378 81.94375259809334" fill-opacity="0.3" stroke-linejoin="bevel" stroke-miterlimit="10"/><path fill="blue" stroke="blue" paint-order="fill stroke markers" d=" M 111.16106499099244 87.78524040714638 A 2.5 2.5 0 1 1 111.16106374099255 87.78274040756304" fill-opacity="0.3" stroke-linejoin="bevel" stroke-miterlimit="10"/><path fill="blue" stroke="blue" paint-order="fill stroke markers" d=" M 114.03120009097998 95.8161588135913 A 2.5 2.5 0 1 1 114.03119884098008 95.81365881400797" fill-opacity="0.3" stroke-linejoin="bevel" stroke-miterlimit="10"/><path fill="blue" stroke="blue" paint-order="fill stroke markers" d=" M 117.02635016231434 96.13248238000506 A 2.5 2.5 0 1 1 117.02634891231445 96.12998238042172" fill-opacity="0.3" stroke-linejoin="bevel" stroke-miterlimit="10"/><path fill="blue" stroke="blue" paint-order="fill stroke markers" d=" M 120.14586002615458 99.66838675403756 A 2.5 2.5 0 1 1 120.14585877615468 99.66588675445422" fill-opacity="0.3" stroke-linejoin="bevel" stroke-miterlimit="10"/><path fill="blue" stroke="blue" paint-order="fill stroke markers" d=" M 123.3900504528136 109.14038906093447 A 2.5 2.5 0 1 1 123.3900492028137 109.13788906135113" fill-opacity="0.3" stroke-linejoin="bevel" stroke-miterlimit="10"/><path fill="blue" stroke="blue" paint-order="fill stroke markers" d=" M 126.75892144229138 105.80679845641362 A 2.5 2.5 0 1 1 126.75892019229148 105.80429845683028" fill-opacity="0.3" stroke-linejoin="bevel" stroke-miterlimit="10"/><path fill="blue" stroke="blue" paint-order="fill stroke markers" d=" M 130.25286195746838 112.86086164500534 A 2.5 2.5 0 1 1 130.2528607074685 112.85836164542201" fill-opacity="0.3" stroke-linejoin="bevel" stroke-miterlimit="10"/><path fill="blue" stroke="blue" paint-order="fill stroke markers" d=" M 133.87110771079887 124.09710107378532 A 2.5 2.5 0 1 1 133.87110646079898 124.09460107420199" fill-opacity="0.3" stroke-linejoin="bevel" stroke-miterlimit="10"/><path fill="blue" stroke="blue" paint-order="fill stroke markers" d=" M 137.61403402694813 122.47029679572506 A 2.5 2.5 0 1 1 137.61403277694825 122.46779679614173" fill-opacity="0.3" stroke-linejoin="bevel" stroke-miterlimit="10"/><path fill="blue" stroke="blue" paint-order="fill stroke markers" d=" M 141.48164090591618 120.47206473310098 A 2.5 2.5 0 1 1 141.4816396559163 120.46956473351764" fill-opacity="0.3" stroke-linejoin="bevel" stroke-miterlimit="10"/><path fill="blue" stroke="blue" paint-order="fill stroke markers" d=" M 145.473928347703 122.98615080011973 A 2.5 2.5 0 1 1 145.47392709770313 122.9836508005364" fill-opacity="0.3" stroke-linejoin="bevel" stroke-miterlimit="10"/><path fill="blue" stroke="blue" paint-order="fill stroke markers" d=" M 149.59135350775654 127.55024292311487 A 2.5 2.5 0 1 1 149.59135225775665 127.54774292353153" fill-opacity="0.3" stroke-linejoin="bevel" stroke-miterlimit="10"/><path fill="blue" stroke="blue" paint-order="fill stroke markers" d=" M 153.8330157133961 141.1402101257313 A 2.5 2.5 0 1 1 153.8330144633962 141.13771012614797" fill-opacity="0.3" stroke-linejoin="bevel" stroke-miterlimit="10"/><path fill="blue" stroke="blue" paint-order="fill stroke markers" d=" M 158.19935848185435 150.46228974534847 A 2.5 2.5 0 1 1 158.19935723185446 150.45978974576514" fill-opacity="0.3" stroke-linejoin="bevel" stroke-miterlimit="10"/><path fill="blue" stroke="blue" paint-order="fill stroke markers" d=" M 162.69038181313147 157.86028429087946 A 2.5 2.5 0 1 1 162.69038056313158 157.85778429129613" fill-opacity="0.3" stroke-linejoin="bevel" stroke-miterlimit="10"/><path fill="blue" stroke="blue" paint-order="fill stroke markers" d=" M 167.30659741702758 156.3075223696569 A 2.5 2.5 0 1 1 167.3065961670277 156.30502237007357" fill-opacity="0.3" stroke-linejoin="bevel" stroke-miterlimit="10"/><path fill="blue" stroke="blue" paint-order="fill stroke markers" d=" M 172.04699551215742 168.70309391240676 A 2.5 2.5 0 1 1 172.04699426215754 168.70059391282342" fill-opacity="0.3" stroke-linejoin="bevel" stroke-miterlimit="10"/><path fill="blue" stroke="blue" paint-order="fill stroke markers" d=" M 176.91207417010594 158.77846302706575 A 2.5 2.5 0 1 1 176.91207292010606 158.77596302748242" fill-opacity="0.3" stroke-linejoin="bevel" stroke-miterlimit="10"/><path fill="blue" stroke="blue" paint-order="fill stroke markers" d=" M 181.90183339087326 159.7850760336953 A 2.5 2.5 0 1 1 181.90183214087338 159.78257603411197" fill-opacity="0.3" stroke-linejoin="bevel" stroke-miterlimit="10"/><path fill="blue" stroke="blue" paint-order="fill stroke markers" d=" M 187.0162731744594 179.4011739181674 A 2.5 2.5 0 1 1 187.01627192445952 179.39867391858405" fill-opacity="0.3" stroke-linejoin="bevel" stroke-miterlimit="10"/><path fill="blue" stroke="blue" paint-order="fill stroke markers" d=" M 192.2559734232321 181.42138515258466 A 2.5 2.5 0 1 1 192.2559721732322 181.41888515300133" fill-opacity="0.3" stroke-linejoin="bevel" stroke-miterlimit="10"/><path fill="blue" stroke="blue" paint-order="fill stroke markers" d=" M 197.61978797067093 171.93751959818496 A 2.5 2.5 0 1 1 197.61978672067104 171.93501959860163" fill-opacity="0.3" stroke-linejoin="bevel" stroke-miterlimit="10"/><path fill="blue" stroke="blue" paint-order="fill stroke markers" d=" M 203.10828308092843 180.30789074635572 A 2.5 2.5 0 1 1 203.10828183092855 180.3053907467724" fill-opacity="0.3" stroke-linejoin="bevel" stroke-miterlimit="10"/><path fill="blue" stroke="blue" paint-order="fill stroke markers" d=" M 208.72145875400486 192.41823180325878 A 2.5 2.5 0 1 1 208.72145750400497 192.41573180367544" fill-opacity="0.3" stroke-linejoin="bevel" stroke-miterlimit="10"/><path fill="blue" stroke="blue" paint-order="fill stroke markers" d=" M 214.45931498989995 202.9853595631448 A 2.5 2.5 0 1 1 214.45931373990007 202.98285956356148" fill-opacity="0.3" stroke-linejoin="bevel" stroke-miterlimit="10"/><path fill="blue" stroke="blue" paint-order="fill stroke markers" d=" M 220.32249988354926 213.2509803499554 A 2.5 2.5 0 1 1 220.32249863354937 213.24848035037206" fill-opacity="0.3" stroke-linejoin="bevel" stroke-miterlimit="10"/><path fill="blue" stroke="blue" paint-order="fill stroke markers" d=" M 226.3097308832971 224.44698011976516 A 2.5 2.5 0 1 1 226.30972963329722 224.44448012018182" fill-opacity="0.3" stroke-linejoin="bevel" stroke-miterlimit="10"/><path fill="blue" stroke="blue" paint-order="fill stroke markers" d=" M 232.42164244586365 227.1626063250526 A 2.5 2.5 0 1 1 232.42164119586377 227.16010632546926" fill-opacity="0.3" stroke-linejoin="bevel" stroke-miterlimit="10"/><path fill="blue" stroke="blue" paint-order="fill stroke markers" d=" M 238.65823457124907 231.62859840066585 A 2.5 2.5 0 1 1 238.65823332124918 231.62609840108252" fill-opacity="0.3" stroke-linejoin="bevel" stroke-miterlimit="10"/><path fill="blue" stroke="blue" paint-order="fill stroke markers" d=" M 245.02020990874092 227.66342224247296 A 2.5 2.5 0 1 1 245.02020865874104 227.66092224288963" fill-opacity="0.3" stroke-linejoin="bevel" stroke-miterlimit="10"/><path fill="blue" stroke="blue" paint-order="fill stroke markers" d=" M 251.50617679797904 234.75297528466535 A 2.5 2.5 0 1 1 251.50617554797915 234.75047528508202" fill-opacity="0.3" stroke-linejoin="bevel" stroke-miterlimit="10"/><path fill="blue" stroke="blue" paint-order="fill stroke markers" d=" M 258.1168242500359 240.04831547531444 A 2.5 2.5 0 1 1 258.116823000036 240.0458154757311" fill-opacity="0.3" stroke-linejoin="bevel" stroke-miterlimit="10"/><path fill="blue" stroke="blue" paint-order="fill stroke markers" d=" M 264.8521522649116 243.0031260600997 A 2.5 2.5 0 1 1 264.85215101491167 243.00062606051637" fill-opacity="0.3" stroke-linejoin="bevel" stroke-miterlimit="10"/><path fill="blue" stroke="blue" paint-order="fill stroke markers" d=" M 271.71216084260595 251.07475361292336 A 2.5 2.5 0 1 1 271.71215959260604 251.07225361334002" fill-opacity="0.3" stroke-linejoin="bevel" stroke-miterlimit="10"/><path fill="blue" stroke="blue" paint-order="fill stroke markers" d=" M 278.69762082497454 263.1606456650252 A 2.5 2.5 0 1 1 278.6976195749746 263.15814566544185" fill-opacity="0.3" stroke-linejoin="bevel" stroke-miterlimit="10"/><path fill="blue" stroke="blue" paint-order="fill stroke markers" d=" M 285.80700416652155 254.9614218316492 A 2.5 2.5 0 1 1 285.80700291652164 254.95892183206587" fill-opacity="0.3" stroke-linejoin="bevel" stroke-miterlimit="10"/><path fill="blue" stroke="blue" paint-order="fill stroke markers" d=" M 293.04106807088743 277.9163131693658 A 2.5 2.5 0 1 1 293.0410668208875 277.9138131697825" fill-opacity="0.3" stroke-linejoin="bevel" stroke-miterlimit="10"/><path fill="blue" stroke="blue" paint-order="fill stroke markers" d=" M 300.39981253807207 283.82226663569986 A 2.5 2.5 0 1 1 300.39981128807216 283.8197666361165" fill-opacity="0.3" stroke-linejoin="bevel" stroke-miterlimit="10"/><path fill="blue" stroke="blue" paint-order="fill stroke markers" d=" M 307.88406296428315 287.2060690961423 A 2.5 2.5 0 1 1 307.88406171428323 287.20356909655897" fill-opacity="0.3" stroke-linejoin="bevel" stroke-miterlimit="10"/><path fill="blue" stroke="blue" paint-order="fill stroke markers" d=" M 315.49218219532054 286.7879107064093 A 2.5 2.5 0 1 1 315.4921809453206 286.785410706826" fill-opacity="0.3" stroke-linejoin="bevel" stroke-miterlimit="10"/><path fill="blue" stroke="blue" paint-order="fill stroke markers" d=" M 323.22498198917674 294.00461679929936 A 2.5 2.5 0 1 1 323.22498073917683 294.002116799716" fill-opacity="0.3" stroke-linejoin="bevel" stroke-miterlimit="10"/><path fill="blue" stroke="blue" paint-order="fill stroke markers" d=" M 331.08246234585164 313.43494333813624 A 2.5 2.5 0 1 1 331.0824610958517 313.4324433385529" fill-opacity="0.3" stroke-linejoin="bevel" stroke-miterlimit="10"/><path fill="blue" stroke="blue" paint-order="fill stroke markers" d=" M 339.06462326534535 311.6261673528088 A 2.5 2.5 0 1 1 339.06462201534544 311.62366735322547" fill-opacity="0.3" stroke-linejoin="bevel" stroke-miterlimit="10"/><path fill="blue" stroke="blue" paint-order="fill stroke markers" d=" M 347.172358336433 326.9134107561563 A 2.5 2.5 0 1 1 347.17235708643307 326.91091075657295" fill-opacity="0.3" stroke-linejoin="bevel" stroke-miterlimit="10"/><path fill="blue" stroke="blue" paint-order="fill stroke markers" d=" M 355.40389401977933 343.58302775475227 A 2.5 2.5 0 1 1 355.4038927697794 343.58052775516893" fill-opacity="0.3" stroke-linejoin="bevel" stroke-miterlimit="10"/><path fill="blue" stroke="blue" paint-order="fill stroke markers" d=" M 363.7601102659445 345.83849254402753 A 2.5 2.5 0 1 1 363.7601090159446 345.8359925444442" fill-opacity="0.3" stroke-linejoin="bevel" stroke-miterlimit="10"/><path fill="blue" stroke="blue" paint-order="fill stroke markers" d=" M 372.24100707492846 346.6874450077171 A 2.5 2.5 0 1 1 372.24100582492855 346.68494500813375" fill-opacity="0.3" stroke-linejoin="bevel" stroke-miterlimit="10"/><path fill="blue" stroke="blue" paint-order="fill stroke markers" d=" M 380.8475325898589 348.47374094224483 A 2.5 2.5 0 1 1 380.84753133985896 348.4712409426615" fill-opacity="0.3" stroke-linejoin="bevel" stroke-miterlimit="10"/><path fill="blue" stroke="blue" paint-order="fill stroke markers" d=" M 389.5778041626955 348.5468552832922 A 2.5 2.5 0 1 1 389.5778029126956 348.54435528370885" fill-opacity="0.3" stroke-linejoin="bevel" stroke-miterlimit="10"/><path fill="blue" stroke="blue" paint-order="fill stroke markers" d=" M 398.4327562983508 355.8251924907911 A 2.5 2.5 0 1 1 398.4327550483509 355.82269249120776" fill-opacity="0.3" stroke-linejoin="bevel" stroke-miterlimit="10"/><path fill="blue" stroke="blue" paint-order="fill stroke markers" d=" M 407.4123889968251 357.7509607160903 A 2.5 2.5 0 1 1 407.4123877468252 357.74846071650694" fill-opacity="0.3" stroke-linejoin="bevel" stroke-miterlimit="10"/><path fill="blue" stroke="blue" paint-order="fill stroke markers" d=" M 416.5167022581179 380.50843877395846 A 2.5 2.5 0 1 1 416.516701008118 380.5059387743751" fill-opacity="0.3" stroke-linejoin="bevel" stroke-miterlimit="10"/><path fill="blue" stroke="blue" paint-order="fill stroke markers" d=" M 425.7467124179249 374.05001890596736 A 2.5 2.5 0 1 1 425.746711167925 374.047518906384" fill-opacity="0.3" stroke-linejoin="bevel" stroke-miterlimit="10"/><path fill="blue" stroke="blue" paint-order="fill stroke markers" d=" M 435.10040044307044 375.1328266645437 A 2.5 2.5 0 1 1 435.10039919307053 375.13032666496036" fill-opacity="0.3" stroke-linejoin="bevel" stroke-miterlimit="10"/><path fill="blue" stroke="blue" paint-order="fill stroke markers" d=" M 444.5787690310349 408.1166416000815 A 2.5 2.5 0 1 1 444.57876778103497 408.11414160049816" fill-opacity="0.3" stroke-linejoin="bevel" stroke-miterlimit="10"/><path fill="blue" stroke="blue" paint-order="fill stroke markers" d=" M 454.1818181818182 409.72385207212847 A 2.5 2.5 0 1 1 454.1818169318183 409.72135207254513" fill-opacity="0.3" stroke-linejoin="bevel" stroke-miterlimit="10"/></g></g></g><g clip-path="url(#fFgViIfWTwik)"><g><g><path fill="none" stroke="none"/><path fill="none" stroke="red" paint-order="fill stroke markers" d=" M 85.31818181818184 73.14343559347367 L 86.81680345073255 74.56449415146994 L 88.44010564610204 76.10378027068737 L 90.1880884042903 77.76129395112548 L 92.06096338690547 79.53723589957644 L 94.05832090894643 81.43121763480849 L 96.18035899380617 83.44342693126168 L 98.42707764148467 85.5738637889358 L 100.79874306794248 87.82278064544448 L 103.29483647947369 90.1896855579123 L 105.91561045382367 92.67481803160103 L 108.66106499099244 95.27817806651115 L 111.53120009097998 97.99976566264172 L 114.52635016231434 100.83989792078137 L 117.64586002615458 103.7979535717061 L 120.8900504528136 106.87423678385153 L 124.25892144229138 110.06874755721765 L 127.75286195746838 113.3818547234157 L 131.37110771079887 116.81283355157575 L 135.11403402694813 120.36203994095695 L 138.98164090591618 124.02947389155929 L 142.973928347703 127.81513540338256 L 147.09135350775654 131.7194579712109 L 151.3330157133961 135.74158753782785 L 155.69935848185435 139.88194466566574 L 160.19038181313147 144.14052935472478 L 164.80659741702758 148.51782683061128 L 169.54699551215742 153.0128795744638 L 174.41207417010594 157.62615987953745 L 179.40183339087326 162.35766774583226 L 184.5162731744594 167.20740317334753 L 189.7559734232321 172.17591605086523 L 195.11978797067093 177.26211953317465 L 200.60828308092843 182.46655057670478 L 206.22145875400486 187.78920918145604 L 211.95931498989995 193.23009534742823 L 217.82249988354926 198.78982362657644 L 223.8097308832971 204.46717784734255 L 229.92164244586365 210.26275962932937 L 236.15823457124907 216.17656897253732 L 242.52020990874092 222.2092721597437 L 249.00617679797904 228.3595495577456 L 255.6168242500359 234.6280545169684 L 262.3521522649116 241.01478703741213 L 269.21216084260595 247.51974711907633 L 276.19762082497454 254.1436657079139 L 283.30700416652155 260.88509384437225 L 290.54106807088743 267.7447495420515 L 297.89981253807207 274.72263280095194 L 305.38406296428315 281.81952629784723 L 312.99218219532054 289.03387761154136 L 320.72498198917674 296.3664564864566 L 328.58246234585164 303.8172629225926 L 336.56462326534535 311.3862969199495 L 344.672358336433 319.0744058184757 L 352.90389401977933 326.87990787062654 L 361.2601102659445 334.8036374839983 L 369.74100707492846 342.8455946585909 L 378.3475325898589 351.0066784651751 L 387.0778041626955 359.2851036945617 L 395.9327562983508 367.6817564851692 L 404.9123889968251 376.19663683699764 L 414.0167022581179 384.829744750047 L 423.2467124179249 393.58204395826215 L 432.60040044307044 402.4516199261054 L 442.0787690310349 411.4394234551694 L 451.6818181818182 420.5454545454545" stroke-linejoin="bevel" stroke-miterlimit="10" stroke-width="3"/></g></g></g><g clip-path="url(#bIsfByTZpETv)"><g><g/><g><path fill="#ffffff" stroke="#e5e5e5" paint-order="fill stroke markers" d=" M 357.20000076293945 43 L 460 43 L 460 106 L 357.20000076293945 106 L 357.20000076293945 43 Z" fill-opacity="0.95" stroke-linejoin="bevel" stroke-miterlimit="10" stroke-opacity="0.5"/><text fill="#444444" stroke="none" font-family="helvetica" font-size="10pt" font-style="normal" font-weight="normal" text-decoration="normal" x="392.20000076293945" y="63" text-anchor="start" dominant-baseline="central">Observed</text><path fill="blue" stroke="blue" paint-order="fill stroke markers" d=" M 381.20000076293945 63 A 4 4 0 1 1 381.19999876293963 62.99600000066666" fill-opacity="0.3" stroke-linejoin="bevel" stroke-miterlimit="10"/><text fill="#444444" stroke="none" font-family="helvetica" font-size="10pt" font-style="normal" font-weight="normal" text-decoration="normal" x="392.20000076293945" y="86" text-anchor="start" dominant-baseline="central">Predicted</text><g><path fill="none" stroke="red" paint-order="fill stroke markers" d=" M 367.20000076293945 86 L 387.20000076293945 86" stroke-linejoin="bevel" stroke-miterlimit="10" stroke-width="3"/></g></g></g></g><g><g fill="#444444"><path fill="" stroke="none" d=""/><g transform="translate(268.5,5)"><path fill="none" stroke="none"/><text fill="" stroke="none" font-family="helvetica" font-size="12pt" font-style="normal" font-weight="bold" text-decoration="normal" x="0" y="0" text-anchor="middle" dominant-baseline="text-before-edge">Guinier plot for SASDBX9 (R²=0.99)</text></g></g></g><g/><g><g fill="#444444"><path fill="none" stroke="black" paint-order="fill stroke markers" d=" M 67 439 L 470 439" stroke-linejoin="bevel" stroke-miterlimit="10"/><path fill="none" stroke="black" paint-order="fill stroke markers" d=" M 77 445 L 77 437" stroke-linejoin="bevel" stroke-miterlimit="10"/><path fill="none" stroke="black" paint-order="fill stroke markers" d=" M 152 445 L 152 437" stroke-linejoin="bevel" stroke-miterlimit="10"/><path fill="none" stroke="black" paint-order="fill stroke markers" d=" M 226 445 L 226 437" stroke-linejoin="bevel" stroke-miterlimit="10"/><path fill="none" stroke="black" paint-order="fill stroke markers" d=" M 301 445 L 301 437" stroke-linejoin="bevel" stroke-miterlimit="10"/><path fill="none" stroke="black" paint-order="fill stroke markers" d=" M 375 445 L 375 437" stroke-linejoin="bevel" stroke-miterlimit="10"/><path fill="none" stroke="black" paint-order="fill stroke markers" d=" M 450 445 L 450 437" stroke-linejoin="bevel" stroke-miterlimit="10"/><path fill="none" stroke="black" paint-order="fill stroke markers" d=" M 77 443 L 77 439" stroke-linejoin="bevel" stroke-miterlimit="10"/><path fill="none" stroke="black" paint-order="fill stroke markers" d=" M 92 443 L 92 439" stroke-linejoin="bevel" stroke-miterlimit="10"/><path fill="none" stroke="black" paint-order="fill stroke markers" d=" M 107 443 L 107 439" stroke-linejoin="bevel" stroke-miterlimit="10"/><path fill="none" stroke="black" paint-order="fill stroke markers" d=" M 122 443 L 122 439" stroke-linejoin="bevel" stroke-miterlimit="10"/><path fill="none" stroke="black" paint-order="fill stroke markers" d=" M 137 443 L 137 439" stroke-linejoin="bevel" stroke-miterlimit="10"/><path fill="none" stroke="black" paint-order="fill stroke markers" d=" M 152 443 L 152 439" stroke-linejoin="bevel" stroke-miterlimit="10"/><path fill="none" stroke="black" paint-order="fill stroke markers" d=" M 167 443 L 167 439" stroke-linejoin="bevel" stroke-miterlimit="10"/><path fill="none" stroke="black" paint-order="fill stroke markers" d=" M 181 443 L 181 439" stroke-linejoin="bevel" stroke-miterlimit="10"/><path fill="none" stroke="black" paint-order="fill stroke markers" d=" M 196 443 L 196 439" stroke-linejoin="bevel" stroke-miterlimit="10"/><path fill="none" stroke="black" paint-order="fill stroke markers" d=" M 211 443 L 211 439" stroke-linejoin="bevel" stroke-miterlimit="10"/><path fill="none" stroke="black" paint-order="fill stroke markers" d=" M 226 443 L 226 439" stroke-linejoin="bevel" stroke-miterlimit="10"/><path fill="none" stroke="black" paint-order="fill stroke markers" d=" M 241 443 L 241 439" stroke-linejoin="bevel" stroke-miterlimit="10"/><path fill="none" stroke="black" paint-order="fill stroke markers" d=" M 256 443 L 256 439" stroke-linejoin="bevel" stroke-miterlimit="10"/><path fill="none" stroke="black" paint-order="fill stroke markers" d=" M 271 443 L 271 439" stroke-linejoin="bevel" stroke-miterlimit="10"/><path fill="none" stroke="black" paint-order="fill stroke markers" d=" M 286 443 L 286 439" stroke-linejoin="bevel" stroke-miterlimit="10"/><path fill="none" stroke="black" paint-order="fill stroke markers" d=" M 301 443 L 301 439" stroke-linejoin="bevel" stroke-miterlimit="10"/><path fill="none" stroke="black" paint-order="fill stroke markers" d=" M 316 443 L 316 439" stroke-linejoin="bevel" stroke-miterlimit="10"/><path fill="none" stroke="black" paint-order="fill stroke markers" d=" M 331 443 L 331 439" stroke-linejoin="bevel" stroke-miterlimit="10"/><path fill="none" stroke="black" paint-order="fill stroke markers" d=" M 346 443 L 346 439" stroke-linejoin="bevel" stroke-miterlimit="10"/><path fill="none" stroke="black" paint-order="fill stroke markers" d=" M 360 443 L 360 439" stroke-linejoin="bevel" stroke-miterlimit="10"/><path fill="none" stroke="black" paint-order="fill stroke markers" d=" M 375 443 L 375 439" stroke-linejoin="bevel" stroke-miterlimit="10"/><path fill="none" stroke="black" paint-order="fill stroke markers" d=" M 390 443 L 390 439" stroke-linejoin="bevel" stroke-miterlimit="10"/><path fill="none" stroke="black" paint-order="fill stroke markers" d=" M 405 443 L 405 439" stroke-linejoin="bevel" stroke-miterlimit="10"/><path fill="none" stroke="black" paint-order="fill stroke markers" d=" M 420 443 L 420 439" stroke-linejoin="bevel" stroke-miterlimit="10"/><path fill="none" stroke="black" paint-order="fill stroke markers" d=" M 435 443 L 435 439" stroke-linejoin="bevel" stroke-miterlimit="10"/><path fill="none" stroke="black" paint-order="fill stroke markers" d=" M 450 443 L 450 439" stroke-linejoin="bevel" stroke-miterlimit="10"/><path fill="" stroke="black" paint-order="fill stroke markers" d=" M 465 443 L 465 439" stroke-linejoin="bevel" stroke-miterlimit="10"/><g transform="translate(77,450) rotate(0,0,0)"><text fill="" stroke="none" font-family="helvetica" font-size="14pt" font-style="normal" font-weight="normal" text-decoration="normal" x="0" y="0" text-anchor="middle" dominant-baseline="hanging">0</text><g transform="rotate(0,0,0) translate(-77,-450) translate(152,450) rotate(0,0,0)"><text fill="" stroke="none" font-family="helvetica" font-size="14pt" font-style="normal" font-weight="normal" text-decoration="normal" x="0" y="0" text-anchor="middle" dominant-baseline="hanging">0.1</text><g transform="rotate(0,0,0) translate(-152,-450) translate(226,450) rotate(0,0,0)"><text fill="" stroke="none" font-family="helvetica" font-size="14pt" font-style="normal" font-weight="normal" text-decoration="normal" x="0" y="0" text-anchor="middle" dominant-baseline="hanging">0.2</text><g transform="rotate(0,0,0) translate(-226,-450) translate(301,450) rotate(0,0,0)"><text fill="" stroke="none" font-family="helvetica" font-size="14pt" font-style="normal" font-weight="normal" text-decoration="normal" x="0" y="0" text-anchor="middle" dominant-baseline="hanging">0.3</text><g transform="rotate(0,0,0) translate(-301,-450) translate(375,450) rotate(0,0,0)"><text fill="" stroke="none" font-family="helvetica" font-size="14pt" font-style="normal" font-weight="normal" text-decoration="normal" x="0" y="0" text-anchor="middle" dominant-baseline="hanging">0.4</text><g transform="rotate(0,0,0) translate(-375,-450) translate(450,450) rotate(0,0,0)"><text fill="" stroke="none" font-family="helvetica" font-size="14pt" font-style="normal" font-weight="normal" text-decoration="normal" x="0" y="0" text-anchor="middle" dominant-baseline="hanging">0.5</text><g transform="rotate(0,0,0) translate(-450,-450) translate(269,477) rotate(0,0,0)"><text fill="" stroke="none" font-family="helvetica" font-size="14pt" font-style="italic" font-weight="normal" text-decoration="normal" x="0" y="0" text-anchor="middle" dominant-baseline="hanging">q² Å⁻²</text><g transform="rotate(0,0,0) translate(-269,-477)"/></g></g></g></g></g></g></g></g></g><g><g fill="#444444"><path fill="none" stroke="black" paint-order="fill stroke markers" d=" M 67 439 L 67 33" stroke-linejoin="bevel" stroke-miterlimit="10"/><path fill="none" stroke="black" paint-order="fill stroke markers" d=" M 61 418 L 69 418" stroke-linejoin="bevel" stroke-miterlimit="10"/><path fill="none" stroke="black" paint-order="fill stroke markers" d=" M 61 354 L 69 354" stroke-linejoin="bevel" stroke-miterlimit="10"/><path fill="none" stroke="black" paint-order="fill stroke markers" d=" M 61 289 L 69 289" stroke-linejoin="bevel" stroke-miterlimit="10"/><path fill="none" stroke="black" paint-order="fill stroke markers" d=" M 61 225 L 69 225" stroke-linejoin="bevel" stroke-miterlimit="10"/><path fill="none" stroke="black" paint-order="fill stroke markers" d=" M 61 161 L 69 161" stroke-linejoin="bevel" stroke-miterlimit="10"/><path fill="none" stroke="black" paint-order="fill stroke markers" d=" M 61 97 L 69 97" stroke-linejoin="bevel" stroke-miterlimit="10"/><path fill="none" stroke="black" paint-order="fill stroke markers" d=" M 61 33 L 69 33" stroke-linejoin="bevel" stroke-miterlimit="10"/><path fill="none" stroke="black" paint-order="fill stroke markers" d=" M 63 430 L 67 430" stroke-linejoin="bevel" stroke-miterlimit="10"/><path fill="none" stroke="black" paint-order="fill stroke markers" d=" M 63 418 L 67 418" stroke-linejoin="bevel" stroke-miterlimit="10"/><path fill="none" stroke="black" paint-order="fill stroke markers" d=" M 63 405 L 67 405" stroke-linejoin="bevel" stroke-miterlimit="10"/><path fill="none" stroke="black" paint-order="fill stroke markers" d=" M 63 392 L 67 392" stroke-linejoin="bevel" stroke-miterlimit="10"/><path fill="none" stroke="black" paint-order="fill stroke markers" d=" M 63 379 L 67 379" stroke-linejoin="bevel" stroke-miterlimit="10"/><path fill="none" stroke="black" paint-order="fill stroke markers" d=" M 63 366 L 67 366" stroke-linejoin="bevel" stroke-miterlimit="10"/><path fill="none" stroke="black" paint-order="fill stroke markers" d=" M 63 354 L 67 354" stroke-linejoin="bevel" stroke-miterlimit="10"/><path fill="none" stroke="black" paint-order="fill stroke markers" d=" M 63 341 L 67 341" stroke-linejoin="bevel" stroke-miterlimit="10"/><path fill="none" stroke="black" paint-order="fill stroke markers" d=" M 63 328 L 67 328" stroke-linejoin="bevel" stroke-miterlimit="10"/><path fill="none" stroke="black" paint-order="fill stroke markers" d=" M 63 315 L 67 315" stroke-linejoin="bevel" stroke-miterlimit="10"/><path fill="none" stroke="black" paint-order="fill stroke markers" d=" M 63 302 L 67 302" stroke-linejoin="bevel" stroke-miterlimit="10"/><path fill="none" stroke="black" paint-order="fill stroke markers" d=" M 63 289 L 67 289" stroke-linejoin="bevel" stroke-miterlimit="10"/><path fill="none" stroke="black" paint-order="fill stroke markers" d=" M 63 277 L 67 277" stroke-linejoin="bevel" stroke-miterlimit="10"/><path fill="none" stroke="black" paint-order="fill stroke markers" d=" M 63 264 L 67 264" stroke-linejoin="bevel" stroke-miterlimit="10"/><path fill="none" stroke="black" paint-order="fill stroke markers" d=" M 63 251 L 67 251" stroke-linejoin="bevel" stroke-miterlimit="10"/><path fill="none" stroke="black" paint-order="fill stroke markers" d=" M 63 238 L 67 238" stroke-linejoin="bevel" stroke-miterlimit="10"/><path fill="none" stroke="black" paint-order="fill stroke markers" d=" M 63 225 L 67 225" stroke-linejoin="bevel" stroke-miterlimit="10"/><path fill="none" stroke="black" paint-order="fill stroke markers" d=" M 63 213 L 67 213" stroke-linejoin="bevel" stroke-miterlimit="10"/><path fill="none" stroke="black" paint-order="fill stroke markers" d=" M 63 200 L 67 200" stroke-linejoin="bevel" stroke-miterlimit="10"/><path fill="none" stroke="black" paint-order="fill stroke markers" d=" M 63 187 L 67 187" stroke-linejoin="bevel" stroke-miterlimit="10"/><path fill="none" stroke="black" paint-order="fill stroke markers" d=" M 63 174 L 67 174" stroke-linejoin="bevel" stroke-miterlimit="10"/><path fill="none" stroke="black" paint-order="fill stroke markers" d=" M 63 161 L 67 161" stroke-linejoin="bevel" stroke-miterlimit="10"/><path fill="none" stroke="black" paint-order="fill stroke markers" d=" M 63 149 L 67 149" stroke-linejoin="bevel" stroke-miterlimit="10"/><path fill="none" stroke="black" paint-order="fill stroke markers" d=" M 63 136 L 67 136" stroke-linejoin="bevel" stroke-miterlimit="10"/><path fill="none" stroke="black" paint-order="fill stroke markers" d=" M 63 123 L 67 123" stroke-linejoin="bevel" stroke-miterlimit="10"/><path fill="none" stroke="black" paint-order="fill stroke markers" d=" M 63 110 L 67 110" stroke-linejoin="bevel" stroke-miterlimit="10"/><path fill="none" stroke="black" paint-order="fill stroke markers" d=" M 63 97 L 67 97" stroke-linejoin="bevel" stroke-miterlimit="10"/><path fill="none" stroke="black" paint-order="fill stroke markers" d=" M 63 85 L 67 85" stroke-linejoin="bevel" stroke-miterlimit="10"/><path fill="none" stroke="black" paint-order="fill stroke markers" d=" M 63 72 L 67 72" stroke-linejoin="bevel" stroke-miterlimit="10"/><path fill="none" stroke="black" paint-order="fill stroke markers" d=" M 63 59 L 67 59" stroke-linejoin="bevel" stroke-miterlimit="10"/><path fill="none" stroke="black" paint-order="fill stroke markers" d=" M 63 46 L 67 46" stroke-linejoin="bevel" stroke-miterlimit="10"/><path fill="" stroke="black" paint-order="fill stroke markers" d=" M 63 33 L 67 33" stroke-linejoin="bevel" stroke-miterlimit="10"/><g transform="translate(56,418) rotate(0,0,0)"><text fill="" stroke="none" font-family="helvetica" font-size="14pt" font-style="normal" font-weight="normal" text-decoration="normal" x="0" y="0" text-anchor="end" dominant-baseline="central">4.2</text><g transform="rotate(0,0,0) translate(-56,-418) translate(56,354) rotate(0,0,0)"><text fill="" stroke="none" font-family="helvetica" font-size="14pt" font-style="normal" font-weight="normal" text-decoration="normal" x="0" y="0" text-anchor="end" dominant-baseline="central">4.4</text><g transform="rotate(0,0,0) translate(-56,-354) translate(56,289) rotate(0,0,0)"><text fill="" stroke="none" font-family="helvetica" font-size="14pt" font-style="normal" font-weight="normal" text-decoration="normal" x="0" y="0" text-anchor="end" dominant-baseline="central">4.6</text><g transform="rotate(0,0,0) translate(-56,-289) translate(56,225) rotate(0,0,0)"><text fill="" stroke="none" font-family="helvetica" font-size="14pt" font-style="normal" font-weight="normal" text-decoration="normal" x="0" y="0" text-anchor="end" dominant-baseline="central">4.8</text><g transform="rotate(0,0,0) translate(-56,-225) translate(56,161) rotate(0,0,0)"><text fill="" stroke="none" font-family="helvetica" font-size="14pt" font-style="normal" font-weight="normal" text-decoration="normal" x="0" y="0" text-anchor="end" dominant-baseline="central">5</text><g transform="rotate(0,0,0) translate(-56,-161) translate(56,97) rotate(0,0,0)"><text fill="" stroke="none" font-family="helvetica" font-size="14pt" font-style="normal" font-weight="normal" text-decoration="normal" x="0" y="0" text-anchor="end" dominant-baseline="central">5.2</text><g transform="rotate(0,0,0) translate(-56,-97) translate(56,33) rotate(0,0,0)"><text fill="" stroke="none" font-family="helvetica" font-size="14pt" font-style="normal" font-weight="normal" text-decoration="normal" x="0" y="0" text-anchor="end" dominant-baseline="central">5.4</text><g transform="rotate(0,0,0) translate(-56,-33) translate(22,236) rotate(-90,0,0)"><text fill="" stroke="none" font-family="helvetica" font-size="14pt" font-style="italic" font-weight="normal" text-decoration="normal" x="0" y="0" text-anchor="middle" dominant-baseline="alphabetic">Log I(q)</text><g transform="rotate(90,0,0) translate(-22,-236)"/></g></g></g></g></g></g></g></g></g></g><g clip-path="url(#CXIseRAMtgdc)"><g/></g></g></svg>