<svg version="1.1" xmlns="http://www.w3.org/2000/svg" xmlns:xlink="http://www.w3.org/1999/xlink" width="500" height="500" style="width: 500px; height: 500px;"><defs><clipPath id="uLWOekXDMBqe"><path fill="none" stroke="none" d=" M 74 33 L 470 33 L 470 439 L 74 439 L 74 33 Z"/></clipPath><clipPath id="WGwewRTiEgtT"><path fill="none" stroke="none" d=" M 74 33 L 470 33 L 470 439 L 74 439 L 74 33 Z"/></clipPath><clipPath id="upAQzHGIZOAP"><path fill="none" stroke="none" d=" M 74 33 L 470 33 L 470 439 L 74 439 L 74 33 Z"/></clipPath><clipPath id="BUpfogdcxpFl"><path fill="none" stroke="none" d=" M 74 33 L 470 33 L 470 439 L 74 439 L 74 33 Z"/></clipPath><clipPath id="EtoqTRMhKWHu"><path fill="none" stroke="none" d=" M 74 33 L 470 33 L 470 439 L 74 439 L 74 33 Z"/></clipPath><clipPath id="rXrvaymgkmPE"><path fill="none" stroke="none" d=" M 74 33 L 470 33 L 470 439 L 74 439 L 74 33 Z"/></clipPath><clipPath id="KZTqITzhcgHo"><path fill="none" stroke="none" d=" M 74 33 L 470 33 L 470 439 L 74 439 L 74 33 Z"/></clipPath><clipPath id="cuMnPpgdiLKg"><path fill="none" stroke="none" d=" M 74 33 L 470 33 L 470 439 L 74 439 L 74 33 Z"/></clipPath><clipPath id="RLmLkTXMOdaI"><path fill="none" stroke="none" d=" M 74 33 L 470 33 L 470 439 L 74 439 L 74 33 Z"/></clipPath><clipPath id="VEeDEnzeTupV"><path fill="none" stroke="none" d=" M 74 33 L 470 33 L 470 439 L 74 439 L 74 33 Z"/></clipPath><clipPath id="MXdOwpURcUrE"><path fill="none" stroke="none" d=" M 74 33 L 470 33 L 470 439 L 74 439 L 74 33 Z"/></clipPath><clipPath id="SPKHHFUMxJDw"><path fill="none" stroke="none" d=" M 74 33 L 470 33 L 470 439 L 74 439 L 74 33 Z"/></clipPath></defs><g transform="scale(1,1) translate(0.5,0.5) scale(1,1) translate(0.5,0.5)"><rect fill="#ffffff" stroke="none" x="0" y="0" width="500" height="500"/><rect fill="#FFFFFF" stroke="none" x="74" y="33" width="396" height="406"/><rect fill="#ffffff" stroke="none" x="74" y="33" width="396" height="406"/><g><rect fill="none" stroke="#e5e5e5" x="74" y="33" width="396" height="406" stroke-linejoin="bevel" stroke-miterlimit="10"/></g><g clip-path="url(#KZTqITzhcgHo)"><g><g><path fill="none" stroke="#e5e5e5" paint-order="fill stroke markers" d=" M 86 439 L 86 33" stroke-linejoin="bevel" stroke-miterlimit="10"/><path fill="none" stroke="#e5e5e5" paint-order="fill stroke markers" d=" M 155 439 L 155 33" stroke-linejoin="bevel" stroke-miterlimit="10"/><path fill="none" stroke="#e5e5e5" paint-order="fill stroke markers" d=" M 224 439 L 224 33" stroke-linejoin="bevel" stroke-miterlimit="10"/><path fill="none" stroke="#e5e5e5" paint-order="fill stroke markers" d=" M 293 439 L 293 33" stroke-linejoin="bevel" stroke-miterlimit="10"/><path fill="none" stroke="#e5e5e5" paint-order="fill stroke markers" d=" M 362 439 L 362 33" stroke-linejoin="bevel" stroke-miterlimit="10"/><path fill="none" stroke="#e5e5e5" paint-order="fill stroke markers" d=" M 431 439 L 431 33" stroke-linejoin="bevel" stroke-miterlimit="10"/></g></g></g><g clip-path="url(#cuMnPpgdiLKg)"><g><g><path fill="none" stroke="#e5e5e5" paint-order="fill stroke markers" d=" M 74 406 L 470 406" stroke-linejoin="bevel" stroke-miterlimit="10"/><path fill="none" stroke="#e5e5e5" paint-order="fill stroke markers" d=" M 74 350 L 470 350" stroke-linejoin="bevel" stroke-miterlimit="10"/><path fill="none" stroke="#e5e5e5" paint-order="fill stroke markers" d=" M 74 295 L 470 295" stroke-linejoin="bevel" stroke-miterlimit="10"/><path fill="none" stroke="#e5e5e5" paint-order="fill stroke markers" d=" M 74 240 L 470 240" stroke-linejoin="bevel" stroke-miterlimit="10"/><path fill="none" stroke="#e5e5e5" paint-order="fill stroke markers" d=" M 74 184 L 470 184" stroke-linejoin="bevel" stroke-miterlimit="10"/><path fill="none" stroke="#e5e5e5" paint-order="fill stroke markers" d=" M 74 129 L 470 129" stroke-linejoin="bevel" stroke-miterlimit="10"/><path fill="none" stroke="#e5e5e5" paint-order="fill stroke markers" d=" M 74 74 L 470 74" stroke-linejoin="bevel" stroke-miterlimit="10"/></g></g></g><g clip-path="url(#RLmLkTXMOdaI)"><g><g><path fill="none" stroke="none"/><path fill="blue" stroke="blue" paint-order="fill stroke markers" d=" M 93.5 332.9828634836961 A 1.5 1.5 0 1 1 93.49999925000006 332.9813634839461" fill-opacity="0.3" stroke-linejoin="bevel" stroke-miterlimit="10"/><path fill="blue" stroke="blue" paint-order="fill stroke markers" d=" M 96.25862068965517 332.9828634836961 A 1.5 1.5 0 1 1 96.25861993965523 332.9813634839461" fill-opacity="0.3" stroke-linejoin="bevel" stroke-miterlimit="10"/><path fill="blue" stroke="blue" paint-order="fill stroke markers" d=" M 99.01724137931033 332.9828634836961 A 1.5 1.5 0 1 1 99.0172406293104 332.9813634839461" fill-opacity="0.3" stroke-linejoin="bevel" stroke-miterlimit="10"/><path fill="blue" stroke="blue" paint-order="fill stroke markers" d=" M 101.77586206896551 332.9828634836961 A 1.5 1.5 0 1 1 101.77586131896557 332.9813634839461" fill-opacity="0.3" stroke-linejoin="bevel" stroke-miterlimit="10"/><path fill="blue" stroke="blue" paint-order="fill stroke markers" d=" M 104.53448275862068 332.9828634836961 A 1.5 1.5 0 1 1 104.53448200862074 332.9813634839461" fill-opacity="0.3" stroke-linejoin="bevel" stroke-miterlimit="10"/><path fill="blue" stroke="blue" paint-order="fill stroke markers" d=" M 107.29310344827586 332.9828634836961 A 1.5 1.5 0 1 1 107.29310269827592 332.9813634839461" fill-opacity="0.3" stroke-linejoin="bevel" stroke-miterlimit="10"/><path fill="blue" stroke="blue" paint-order="fill stroke markers" d=" M 110.05172413793103 332.9828634836961 A 1.5 1.5 0 1 1 110.05172338793109 332.9813634839461" fill-opacity="0.3" stroke-linejoin="bevel" stroke-miterlimit="10"/><path fill="blue" stroke="blue" paint-order="fill stroke markers" d=" M 112.81034482758619 332.9828634836961 A 1.5 1.5 0 1 1 112.81034407758625 332.9813634839461" fill-opacity="0.3" stroke-linejoin="bevel" stroke-miterlimit="10"/><path fill="blue" stroke="blue" paint-order="fill stroke markers" d=" M 115.56896551724137 332.9828634836961 A 1.5 1.5 0 1 1 115.56896476724143 332.9813634839461" fill-opacity="0.3" stroke-linejoin="bevel" stroke-miterlimit="10"/><path fill="blue" stroke="blue" paint-order="fill stroke markers" d=" M 118.32758620689654 332.9828634836961 A 1.5 1.5 0 1 1 118.3275854568966 332.9813634839461" fill-opacity="0.3" stroke-linejoin="bevel" stroke-miterlimit="10"/><path fill="blue" stroke="blue" paint-order="fill stroke markers" d=" M 121.08620689655172 332.9828634836961 A 1.5 1.5 0 1 1 121.08620614655177 332.9813634839461" fill-opacity="0.3" stroke-linejoin="bevel" stroke-miterlimit="10"/><path fill="blue" stroke="blue" paint-order="fill stroke markers" d=" M 123.84482758620689 332.9828634836961 A 1.5 1.5 0 1 1 123.84482683620695 332.9813634839461" fill-opacity="0.3" stroke-linejoin="bevel" stroke-miterlimit="10"/><path fill="blue" stroke="blue" paint-order="fill stroke markers" d=" M 126.60344827586206 332.9828634836961 A 1.5 1.5 0 1 1 126.60344752586212 332.9813634839461" fill-opacity="0.3" stroke-linejoin="bevel" stroke-miterlimit="10"/><path fill="blue" stroke="blue" paint-order="fill stroke markers" d=" M 127.98275862068965 78.45163702700947 A 1.5 1.5 0 1 1 127.98275787068971 78.45013702725947" fill-opacity="0.3" stroke-linejoin="bevel" stroke-miterlimit="10"/><path fill="blue" stroke="blue" paint-order="fill stroke markers" d=" M 129.36206896551724 80.79797647785767 A 1.5 1.5 0 1 1 129.3620682155173 80.79647647810768" fill-opacity="0.3" stroke-linejoin="bevel" stroke-miterlimit="10"/><path fill="blue" stroke="blue" paint-order="fill stroke markers" d=" M 130.74137931034483 84.3560528700894 A 1.5 1.5 0 1 1 130.74137856034488 84.3545528703394" fill-opacity="0.3" stroke-linejoin="bevel" stroke-miterlimit="10"/><path fill="blue" stroke="blue" paint-order="fill stroke markers" d=" M 132.1206896551724 86.88301591679149 A 1.5 1.5 0 1 1 132.12068890517247 86.8815159170415" fill-opacity="0.3" stroke-linejoin="bevel" stroke-miterlimit="10"/><path fill="blue" stroke="blue" paint-order="fill stroke markers" d=" M 133.5 88.04946870250765 A 1.5 1.5 0 1 1 133.49999925000006 88.04796870275766" fill-opacity="0.3" stroke-linejoin="bevel" stroke-miterlimit="10"/><path fill="blue" stroke="blue" paint-order="fill stroke markers" d=" M 134.8793103448276 90.00403405825594 A 1.5 1.5 0 1 1 134.87930959482765 90.00253405850594" fill-opacity="0.3" stroke-linejoin="bevel" stroke-miterlimit="10"/><path fill="blue" stroke="blue" paint-order="fill stroke markers" d=" M 136.25862068965517 92.4172799401972 A 1.5 1.5 0 1 1 136.25861993965523 92.41577994044721" fill-opacity="0.3" stroke-linejoin="bevel" stroke-miterlimit="10"/><path fill="blue" stroke="blue" paint-order="fill stroke markers" d=" M 137.63793103448273 94.41534108321576 A 1.5 1.5 0 1 1 137.6379302844828 94.41384108346577" fill-opacity="0.3" stroke-linejoin="bevel" stroke-miterlimit="10"/><path fill="blue" stroke="blue" paint-order="fill stroke markers" d=" M 139.01724137931035 96.98322467619266 A 1.5 1.5 0 1 1 139.0172406293104 96.98172467644267" fill-opacity="0.3" stroke-linejoin="bevel" stroke-miterlimit="10"/><path fill="blue" stroke="blue" paint-order="fill stroke markers" d=" M 140.3965517241379 99.02879836127079 A 1.5 1.5 0 1 1 140.39655097413797 99.02729836152079" fill-opacity="0.3" stroke-linejoin="bevel" stroke-miterlimit="10"/><path fill="blue" stroke="blue" paint-order="fill stroke markers" d=" M 141.77586206896552 102.51806628183655 A 1.5 1.5 0 1 1 141.77586131896558 102.51656628208656" fill-opacity="0.3" stroke-linejoin="bevel" stroke-miterlimit="10"/><path fill="blue" stroke="blue" paint-order="fill stroke markers" d=" M 143.15517241379308 106.0010612010318 A 1.5 1.5 0 1 1 143.15517166379314 105.99956120128181" fill-opacity="0.3" stroke-linejoin="bevel" stroke-miterlimit="10"/><path fill="blue" stroke="blue" paint-order="fill stroke markers" d=" M 144.5344827586207 107.9981244962552 A 1.5 1.5 0 1 1 144.53448200862076 107.9966244965052" fill-opacity="0.3" stroke-linejoin="bevel" stroke-miterlimit="10"/><path fill="blue" stroke="blue" paint-order="fill stroke markers" d=" M 145.91379310344826 110.718269006777 A 1.5 1.5 0 1 1 145.91379235344831 110.71676900702701" fill-opacity="0.3" stroke-linejoin="bevel" stroke-miterlimit="10"/><path fill="blue" stroke="blue" paint-order="fill stroke markers" d=" M 147.29310344827584 114.38776954719324 A 1.5 1.5 0 1 1 147.2931026982759 114.38626954744325" fill-opacity="0.3" stroke-linejoin="bevel" stroke-miterlimit="10"/><path fill="blue" stroke="blue" paint-order="fill stroke markers" d=" M 148.67241379310343 118.13864481272924 A 1.5 1.5 0 1 1 148.6724130431035 118.13714481297924" fill-opacity="0.3" stroke-linejoin="bevel" stroke-miterlimit="10"/><path fill="blue" stroke="blue" paint-order="fill stroke markers" d=" M 150.05172413793102 119.57587307406988 A 1.5 1.5 0 1 1 150.05172338793108 119.57437307431988" fill-opacity="0.3" stroke-linejoin="bevel" stroke-miterlimit="10"/><path fill="blue" stroke="blue" paint-order="fill stroke markers" d=" M 151.4310344827586 122.67022885198509 A 1.5 1.5 0 1 1 151.43103373275866 122.66872885223509" fill-opacity="0.3" stroke-linejoin="bevel" stroke-miterlimit="10"/><path fill="blue" stroke="blue" paint-order="fill stroke markers" d=" M 152.8103448275862 122.57728801025388 A 1.5 1.5 0 1 1 152.81034407758625 122.57578801050389" fill-opacity="0.3" stroke-linejoin="bevel" stroke-miterlimit="10"/><path fill="blue" stroke="blue" paint-order="fill stroke markers" d=" M 154.18965517241378 127.46835757469788 A 1.5 1.5 0 1 1 154.18965442241384 127.46685757494788" fill-opacity="0.3" stroke-linejoin="bevel" stroke-miterlimit="10"/><path fill="blue" stroke="blue" paint-order="fill stroke markers" d=" M 155.56896551724137 130.3457961972462 A 1.5 1.5 0 1 1 155.56896476724143 130.3442961974962" fill-opacity="0.3" stroke-linejoin="bevel" stroke-miterlimit="10"/><path fill="blue" stroke="blue" paint-order="fill stroke markers" d=" M 157.29310344827587 132.33192628366083 A 1.5 1.5 0 1 1 157.29310269827593 132.33042628391084" fill-opacity="0.3" stroke-linejoin="bevel" stroke-miterlimit="10"/><path fill="blue" stroke="blue" paint-order="fill stroke markers" d=" M 159.70689655172413 137.71194711205956 A 1.5 1.5 0 1 1 159.7068958017242 137.71044711230957" fill-opacity="0.3" stroke-linejoin="bevel" stroke-miterlimit="10"/><path fill="blue" stroke="blue" paint-order="fill stroke markers" d=" M 162.4655172413793 142.72442026510294 A 1.5 1.5 0 1 1 162.46551649137936 142.72292026535294" fill-opacity="0.3" stroke-linejoin="bevel" stroke-miterlimit="10"/><path fill="blue" stroke="blue" paint-order="fill stroke markers" d=" M 165.22413793103448 147.9458026569883 A 1.5 1.5 0 1 1 165.22413718103454 147.9443026572383" fill-opacity="0.3" stroke-linejoin="bevel" stroke-miterlimit="10"/><path fill="blue" stroke="blue" paint-order="fill stroke markers" d=" M 167.98275862068965 153.73353915204882 A 1.5 1.5 0 1 1 167.9827578706897 153.73203915229882" fill-opacity="0.3" stroke-linejoin="bevel" stroke-miterlimit="10"/><path fill="blue" stroke="blue" paint-order="fill stroke markers" d=" M 170.74137931034483 156.09848636701403 A 1.5 1.5 0 1 1 170.74137856034488 156.09698636726404" fill-opacity="0.3" stroke-linejoin="bevel" stroke-miterlimit="10"/><path fill="blue" stroke="blue" paint-order="fill stroke markers" d=" M 173.5 164.2554166916044 A 1.5 1.5 0 1 1 173.49999925000006 164.2539166918544" fill-opacity="0.3" stroke-linejoin="bevel" stroke-miterlimit="10"/><path fill="blue" stroke="blue" paint-order="fill stroke markers" d=" M 176.25862068965517 168.85333415619323 A 1.5 1.5 0 1 1 176.25861993965523 168.85183415644323" fill-opacity="0.3" stroke-linejoin="bevel" stroke-miterlimit="10"/><path fill="blue" stroke="blue" paint-order="fill stroke markers" d=" M 179.01724137931035 173.39307261136867 A 1.5 1.5 0 1 1 179.0172406293104 173.39157261161867" fill-opacity="0.3" stroke-linejoin="bevel" stroke-miterlimit="10"/><path fill="blue" stroke="blue" paint-order="fill stroke markers" d=" M 181.77586206896552 180.1808458188878 A 1.5 1.5 0 1 1 181.77586131896558 180.1793458191378" fill-opacity="0.3" stroke-linejoin="bevel" stroke-miterlimit="10"/><path fill="blue" stroke="blue" paint-order="fill stroke markers" d=" M 184.5344827586207 183.59644702466187 A 1.5 1.5 0 1 1 184.53448200862076 183.59494702491187" fill-opacity="0.3" stroke-linejoin="bevel" stroke-miterlimit="10"/><path fill="blue" stroke="blue" paint-order="fill stroke markers" d=" M 187.29310344827584 192.71540933188118 A 1.5 1.5 0 1 1 187.2931026982759 192.71390933213118" fill-opacity="0.3" stroke-linejoin="bevel" stroke-miterlimit="10"/><path fill="blue" stroke="blue" paint-order="fill stroke markers" d=" M 190.05172413793102 192.01674450797236 A 1.5 1.5 0 1 1 190.05172338793108 192.01524450822237" fill-opacity="0.3" stroke-linejoin="bevel" stroke-miterlimit="10"/><path fill="blue" stroke="blue" paint-order="fill stroke markers" d=" M 192.8103448275862 200.8484639357857 A 1.5 1.5 0 1 1 192.81034407758625 200.8469639360357" fill-opacity="0.3" stroke-linejoin="bevel" stroke-miterlimit="10"/><path fill="blue" stroke="blue" paint-order="fill stroke markers" d=" M 195.56896551724137 206.40812852685903 A 1.5 1.5 0 1 1 195.56896476724143 206.40662852710904" fill-opacity="0.3" stroke-linejoin="bevel" stroke-miterlimit="10"/><path fill="blue" stroke="blue" paint-order="fill stroke markers" d=" M 198.32758620689654 210.3961313668715 A 1.5 1.5 0 1 1 198.3275854568966 210.3946313671215" fill-opacity="0.3" stroke-linejoin="bevel" stroke-miterlimit="10"/><path fill="blue" stroke="blue" paint-order="fill stroke markers" d=" M 201.08620689655172 212.52399133779062 A 1.5 1.5 0 1 1 201.08620614655177 212.52249133804062" fill-opacity="0.3" stroke-linejoin="bevel" stroke-miterlimit="10"/><path fill="blue" stroke="blue" paint-order="fill stroke markers" d=" M 203.8448275862069 213.47127022598875 A 1.5 1.5 0 1 1 203.84482683620695 213.46977022623875" fill-opacity="0.3" stroke-linejoin="bevel" stroke-miterlimit="10"/><path fill="blue" stroke="blue" paint-order="fill stroke markers" d=" M 206.60344827586204 221.35675008877377 A 1.5 1.5 0 1 1 206.6034475258621 221.35525008902377" fill-opacity="0.3" stroke-linejoin="bevel" stroke-miterlimit="10"/><path fill="blue" stroke="blue" paint-order="fill stroke markers" d=" M 209.3620689655172 224.874538816446 A 1.5 1.5 0 1 1 209.36206821551727 224.873038816696" fill-opacity="0.3" stroke-linejoin="bevel" stroke-miterlimit="10"/><path fill="blue" stroke="blue" paint-order="fill stroke markers" d=" M 212.12068965517238 229.29798464243197 A 1.5 1.5 0 1 1 212.12068890517244 229.29648464268197" fill-opacity="0.3" stroke-linejoin="bevel" stroke-miterlimit="10"/><path fill="blue" stroke="blue" paint-order="fill stroke markers" d=" M 214.87931034482756 232.89314726998902 A 1.5 1.5 0 1 1 214.87930959482762 232.89164727023902" fill-opacity="0.3" stroke-linejoin="bevel" stroke-miterlimit="10"/><path fill="blue" stroke="blue" paint-order="fill stroke markers" d=" M 217.63793103448273 233.84227880611527 A 1.5 1.5 0 1 1 217.6379302844828 233.84077880636528" fill-opacity="0.3" stroke-linejoin="bevel" stroke-miterlimit="10"/><path fill="blue" stroke="blue" paint-order="fill stroke markers" d=" M 220.3965517241379 239.18002668662095 A 1.5 1.5 0 1 1 220.39655097413797 239.17852668687095" fill-opacity="0.3" stroke-linejoin="bevel" stroke-miterlimit="10"/><path fill="blue" stroke="blue" paint-order="fill stroke markers" d=" M 223.15517241379308 244.22877303242603 A 1.5 1.5 0 1 1 223.15517166379314 244.22727303267604" fill-opacity="0.3" stroke-linejoin="bevel" stroke-miterlimit="10"/><path fill="blue" stroke="blue" paint-order="fill stroke markers" d=" M 227.01724137931032 247.91974729023187 A 1.5 1.5 0 1 1 227.01724062931038 247.91824729048187" fill-opacity="0.3" stroke-linejoin="bevel" stroke-miterlimit="10"/><path fill="blue" stroke="blue" paint-order="fill stroke markers" d=" M 232.8103448275862 260.60184115941075 A 1.5 1.5 0 1 1 232.81034407758625 260.60034115966073" fill-opacity="0.3" stroke-linejoin="bevel" stroke-miterlimit="10"/><path fill="blue" stroke="blue" paint-order="fill stroke markers" d=" M 239.70689655172413 265.3152446839455 A 1.5 1.5 0 1 1 239.7068958017242 265.31374468419546" fill-opacity="0.3" stroke-linejoin="bevel" stroke-miterlimit="10"/><path fill="blue" stroke="blue" paint-order="fill stroke markers" d=" M 246.60344827586206 276.9760356997382 A 1.5 1.5 0 1 1 246.60344752586212 276.97453569998817" fill-opacity="0.3" stroke-linejoin="bevel" stroke-miterlimit="10"/><path fill="blue" stroke="blue" paint-order="fill stroke markers" d=" M 253.49999999999997 283.65117269056674 A 1.5 1.5 0 1 1 253.49999925000003 283.6496726908167" fill-opacity="0.3" stroke-linejoin="bevel" stroke-miterlimit="10"/><path fill="blue" stroke="blue" paint-order="fill stroke markers" d=" M 260.3965517241379 290.7554456213411 A 1.5 1.5 0 1 1 260.396550974138 290.7539456215911" fill-opacity="0.3" stroke-linejoin="bevel" stroke-miterlimit="10"/><path fill="blue" stroke="blue" paint-order="fill stroke markers" d=" M 267.2931034482758 297.3277940299413 A 1.5 1.5 0 1 1 267.2931026982759 297.32629403019126" fill-opacity="0.3" stroke-linejoin="bevel" stroke-miterlimit="10"/><path fill="blue" stroke="blue" paint-order="fill stroke markers" d=" M 274.1896551724138 306.86927345435674 A 1.5 1.5 0 1 1 274.18965442241387 306.8677734546067" fill-opacity="0.3" stroke-linejoin="bevel" stroke-miterlimit="10"/><path fill="blue" stroke="blue" paint-order="fill stroke markers" d=" M 281.08620689655174 307.362489563318 A 1.5 1.5 0 1 1 281.08620614655183 307.36098956356795" fill-opacity="0.3" stroke-linejoin="bevel" stroke-miterlimit="10"/><path fill="blue" stroke="blue" paint-order="fill stroke markers" d=" M 287.98275862068965 320.6484660775707 A 1.5 1.5 0 1 1 287.98275787068974 320.64696607782065" fill-opacity="0.3" stroke-linejoin="bevel" stroke-miterlimit="10"/><path fill="blue" stroke="blue" paint-order="fill stroke markers" d=" M 294.87931034482756 322.91527806382186 A 1.5 1.5 0 1 1 294.87930959482765 322.91377806407183" fill-opacity="0.3" stroke-linejoin="bevel" stroke-miterlimit="10"/><path fill="blue" stroke="blue" paint-order="fill stroke markers" d=" M 301.77586206896547 328.8019193444112 A 1.5 1.5 0 1 1 301.77586131896555 328.8004193446612" fill-opacity="0.3" stroke-linejoin="bevel" stroke-miterlimit="10"/><path fill="blue" stroke="blue" paint-order="fill stroke markers" d=" M 308.67241379310343 334.43408532305773 A 1.5 1.5 0 1 1 308.6724130431035 334.4325853233077" fill-opacity="0.3" stroke-linejoin="bevel" stroke-miterlimit="10"/><path fill="blue" stroke="blue" paint-order="fill stroke markers" d=" M 315.5689655172414 342.0471640851867 A 1.5 1.5 0 1 1 315.5689647672415 342.04566408543667" fill-opacity="0.3" stroke-linejoin="bevel" stroke-miterlimit="10"/><path fill="blue" stroke="blue" paint-order="fill stroke markers" d=" M 322.4655172413793 347.0463176759652 A 1.5 1.5 0 1 1 322.4655164913794 347.0448176762152" fill-opacity="0.3" stroke-linejoin="bevel" stroke-miterlimit="10"/><path fill="blue" stroke="blue" paint-order="fill stroke markers" d=" M 329.3620689655172 349.136291707882 A 1.5 1.5 0 1 1 329.3620682155173 349.13479170813196" fill-opacity="0.3" stroke-linejoin="bevel" stroke-miterlimit="10"/><path fill="blue" stroke="blue" paint-order="fill stroke markers" d=" M 336.2586206896551 355.0819414760304 A 1.5 1.5 0 1 1 336.2586199396552 355.0804414762804" fill-opacity="0.3" stroke-linejoin="bevel" stroke-miterlimit="10"/><path fill="blue" stroke="blue" paint-order="fill stroke markers" d=" M 343.155172413793 361.6682082983699 A 1.5 1.5 0 1 1 343.1551716637931 361.6667082986199" fill-opacity="0.3" stroke-linejoin="bevel" stroke-miterlimit="10"/><path fill="blue" stroke="blue" paint-order="fill stroke markers" d=" M 350.051724137931 367.9426701362327 A 1.5 1.5 0 1 1 350.0517233879311 367.9411701364827" fill-opacity="0.3" stroke-linejoin="bevel" stroke-miterlimit="10"/><path fill="blue" stroke="blue" paint-order="fill stroke markers" d=" M 356.94827586206895 362.74390431983136 A 1.5 1.5 0 1 1 356.94827511206904 362.74240432008133" fill-opacity="0.3" stroke-linejoin="bevel" stroke-miterlimit="10"/><path fill="blue" stroke="blue" paint-order="fill stroke markers" d=" M 363.84482758620686 367.0484491339388 A 1.5 1.5 0 1 1 363.84482683620695 367.04694913418876" fill-opacity="0.3" stroke-linejoin="bevel" stroke-miterlimit="10"/><path fill="blue" stroke="blue" paint-order="fill stroke markers" d=" M 370.74137931034477 381.165936092979 A 1.5 1.5 0 1 1 370.74137856034486 381.16443609322897" fill-opacity="0.3" stroke-linejoin="bevel" stroke-miterlimit="10"/><path fill="blue" stroke="blue" paint-order="fill stroke markers" d=" M 377.63793103448273 380.4694156783497 A 1.5 1.5 0 1 1 377.6379302844828 380.4679156785997" fill-opacity="0.3" stroke-linejoin="bevel" stroke-miterlimit="10"/><path fill="blue" stroke="blue" paint-order="fill stroke markers" d=" M 384.53448275862064 383.774507798974 A 1.5 1.5 0 1 1 384.5344820086207 383.773007799224" fill-opacity="0.3" stroke-linejoin="bevel" stroke-miterlimit="10"/><path fill="blue" stroke="blue" paint-order="fill stroke markers" d=" M 391.4310344827586 395.96811210855776 A 1.5 1.5 0 1 1 391.4310337327587 395.96661210880774" fill-opacity="0.3" stroke-linejoin="bevel" stroke-miterlimit="10"/><path fill="blue" stroke="blue" paint-order="fill stroke markers" d=" M 398.3275862068965 381.62466830034845 A 1.5 1.5 0 1 1 398.3275854568966 381.6231683005984" fill-opacity="0.3" stroke-linejoin="bevel" stroke-miterlimit="10"/><path fill="blue" stroke="blue" paint-order="fill stroke markers" d=" M 405.2241379310345 385.9921547337894 A 1.5 1.5 0 1 1 405.22413718103456 385.99065473403937" fill-opacity="0.3" stroke-linejoin="bevel" stroke-miterlimit="10"/><path fill="blue" stroke="blue" paint-order="fill stroke markers" d=" M 412.1206896551723 405.00461447608484 A 1.5 1.5 0 1 1 412.1206889051724 405.0031144763348" fill-opacity="0.3" stroke-linejoin="bevel" stroke-miterlimit="10"/><path fill="blue" stroke="blue" paint-order="fill stroke markers" d=" M 419.0172413793103 393.8131163563019 A 1.5 1.5 0 1 1 419.0172406293104 393.8116163565519" fill-opacity="0.3" stroke-linejoin="bevel" stroke-miterlimit="10"/><path fill="blue" stroke="blue" paint-order="fill stroke markers" d=" M 425.9137931034482 407.63634092738516 A 1.5 1.5 0 1 1 425.9137923534483 407.63484092763514" fill-opacity="0.3" stroke-linejoin="bevel" stroke-miterlimit="10"/><path fill="blue" stroke="blue" paint-order="fill stroke markers" d=" M 432.81034482758616 393.2741473920706 A 1.5 1.5 0 1 1 432.81034407758625 393.27264739232055" fill-opacity="0.3" stroke-linejoin="bevel" stroke-miterlimit="10"/><path fill="blue" stroke="blue" paint-order="fill stroke markers" d=" M 439.7068965517241 401.24310702587127 A 1.5 1.5 0 1 1 439.7068958017242 401.24160702612124" fill-opacity="0.3" stroke-linejoin="bevel" stroke-miterlimit="10"/><path fill="blue" stroke="blue" paint-order="fill stroke markers" d=" M 446.60344827586204 404.25981715049005 A 1.5 1.5 0 1 1 446.6034475258621 404.25831715074" fill-opacity="0.3" stroke-linejoin="bevel" stroke-miterlimit="10"/><path fill="blue" stroke="blue" paint-order="fill stroke markers" d=" M 453.5 420.5454545454546 A 1.5 1.5 0 1 1 453.4999992500001 420.5439545457046" fill-opacity="0.3" stroke-linejoin="bevel" stroke-miterlimit="10"/></g></g></g><g clip-path="url(#VEeDEnzeTupV)"><g><g><path fill="none" stroke="none"/><path fill="none" stroke="red" paint-order="fill stroke markers" d=" M 92 51.45454545454547 L 94.75862068965517 52.21754393399095 L 97.51724137931033 53.27903230318705 L 100.27586206896551 54.641742723943054 L 103.03448275862068 56.30662569250606 L 105.79310344827586 58.26728781359935 L 108.55172413793103 60.51556580619962 L 111.31034482758619 63.04354108259463 L 114.06896551724137 65.84275884750238 L 116.82758620689654 68.90477059509169 L 119.58620689655172 72.21840110007423 L 122.34482758620689 75.77168367120626 L 125.10344827586206 79.5530948060792 L 126.48275862068965 81.5256381928775 L 127.86206896551724 83.55082598192396 L 129.24137931034483 85.62694391601917 L 130.6206896551724 87.75212322995912 L 132 89.92414715638776 L 133.3793103448276 92.14094037517489 L 134.75862068965517 94.40022040648859 L 136.13793103448273 96.69984137914966 L 137.51724137931035 99.03799567714881 L 138.8965517241379 101.41210037860773 L 140.27586206896552 103.82008491737074 L 141.65517241379308 106.26025125957318 L 143.0344827586207 108.72988513628957 L 144.41379310344826 111.22682013947454 L 145.79310344827584 113.74886477910516 L 147.17241379310343 116.293806087011 L 148.55172413793102 118.85896537874928 L 149.9310344827586 121.44207099803879 L 151.3103448275862 124.04108231117095 L 152.68965517241378 126.65350437682281 L 154.06896551724137 129.2768364136869 L 155.79310344827587 132.56784753326977 L 158.20689655172413 137.1903679021617 L 160.9655172413793 142.483617808503 L 163.72413793103448 147.77384991286064 L 166.48275862068965 153.0475775890814 L 169.24137931034483 158.29065026709065 L 172 163.49008889901606 L 174.75862068965517 168.63927141389962 L 177.51724137931035 173.7330719499302 L 180.27586206896552 178.7659816339845 L 183.0344827586207 183.73286771156387 L 185.79310344827584 188.62952485840873 L 188.55172413793102 193.45423218036223 L 191.3103448275862 198.20783474578886 L 194.06896551724137 202.88942289901019 L 196.82758620689654 207.49982786417547 L 199.58620689655172 212.03772608981848 L 202.3448275862069 216.5017852615126 L 205.10344827586204 220.8888979796073 L 207.8620689655172 225.19670029904333 L 210.62068965517238 229.42186051385326 L 213.37931034482756 233.56111963796783 L 216.13793103448273 237.6079967551079 L 218.8965517241379 241.5555862582772 L 221.65517241379308 245.3958247365822 L 225.51724137931032 250.5780344817094 L 231.3103448275862 257.89341136204257 L 238.20689655172413 265.83092618905755 L 245.10344827586206 272.8899382679532 L 251.99999999999997 279.1556417768481 L 258.8965517241379 284.7686995413076 L 265.7931034482758 289.9797571819403 L 272.6896551724138 295.06842886816537 L 279.58620689655174 300.31976766929256 L 286.48275862068965 306.00005267948967 L 293.37931034482756 312.2978098848468 L 300.27586206896547 319.3552554610102 L 307.17241379310343 327.2077016679213 L 314.0689655172414 335.8371193997637 L 320.9655172413793 345.12060787738096 L 327.8620689655172 354.88079301207057 L 334.7586206896551 364.8286605064088 L 341.655172413793 374.6270665869005 L 348.551724137931 383.85619270062176 L 355.44827586206895 392.08455296734803 L 362.34482758620686 398.9125389608324 L 369.24137931034477 404.00594748334515 L 376.13793103448273 407.2595294170029 L 383.03448275862064 408.69508379312583 L 389.9310344827586 408.6159894062192 L 396.8275862068965 407.41950975175274 L 403.7241379310345 405.59086327215715 L 410.6206896551723 403.6123583447183 L 417.5172413793103 401.86284977854604 L 424.4137931034482 400.6509567843005 L 431.31034482758616 400.11171137045983 L 438.2068965517241 400.29517804316146 L 445.10344827586204 401.0877750282074 L 452 402.31178597670066" stroke-linejoin="bevel" stroke-miterlimit="10" stroke-width="3"/></g></g></g><g clip-path="url(#MXdOwpURcUrE)"><g><g/><g><path fill="#ffffff" stroke="#e5e5e5" paint-order="fill stroke markers" d=" M 357.20000076293945 43 L 460 43 L 460 106 L 357.20000076293945 106 L 357.20000076293945 43 Z" fill-opacity="0.95" stroke-linejoin="bevel" stroke-miterlimit="10" stroke-opacity="0.5"/><text fill="#444444" stroke="none" font-family="helvetica" font-size="10pt" font-style="normal" font-weight="normal" text-decoration="normal" x="392.20000076293945" y="63" text-anchor="start" dominant-baseline="central">Observed</text><path fill="blue" stroke="blue" paint-order="fill stroke markers" d=" M 381.20000076293945 63 A 4 4 0 1 1 381.19999876293963 62.99600000066666" fill-opacity="0.3" stroke-linejoin="bevel" stroke-miterlimit="10"/><text fill="#444444" stroke="none" font-family="helvetica" font-size="10pt" font-style="normal" font-weight="normal" text-decoration="normal" x="392.20000076293945" y="86" text-anchor="start" dominant-baseline="central">Predicted</text><g><path fill="none" stroke="red" paint-order="fill stroke markers" d=" M 367.20000076293945 86 L 387.20000076293945 86" stroke-linejoin="bevel" stroke-miterlimit="10" stroke-width="3"/></g></g></g></g><g><g fill="#444444"><path fill="" stroke="none" d=""/><g transform="translate(272,5)"><path fill="none" stroke="none"/><text fill="" stroke="none" font-family="helvetica" font-size="12pt" font-style="normal" font-weight="bold" text-decoration="normal" x="0" y="0" text-anchor="middle" dominant-baseline="text-before-edge">Model fit for SASDEE2</text></g></g></g><g/><g><g fill="#444444"><path fill="none" stroke="black" paint-order="fill stroke markers" d=" M 74 439 L 470 439" stroke-linejoin="bevel" stroke-miterlimit="10"/><path fill="none" stroke="black" paint-order="fill stroke markers" d=" M 86 445 L 86 437" stroke-linejoin="bevel" stroke-miterlimit="10"/><path fill="none" stroke="black" paint-order="fill stroke markers" d=" M 155 445 L 155 437" stroke-linejoin="bevel" stroke-miterlimit="10"/><path fill="none" stroke="black" paint-order="fill stroke markers" d=" M 224 445 L 224 437" stroke-linejoin="bevel" stroke-miterlimit="10"/><path fill="none" stroke="black" paint-order="fill stroke markers" d=" M 293 445 L 293 437" stroke-linejoin="bevel" stroke-miterlimit="10"/><path fill="none" stroke="black" paint-order="fill stroke markers" d=" M 362 445 L 362 437" stroke-linejoin="bevel" stroke-miterlimit="10"/><path fill="none" stroke="black" paint-order="fill stroke markers" d=" M 431 445 L 431 437" stroke-linejoin="bevel" stroke-miterlimit="10"/><path fill="none" stroke="black" paint-order="fill stroke markers" d=" M 86 443 L 86 439" stroke-linejoin="bevel" stroke-miterlimit="10"/><path fill="none" stroke="black" paint-order="fill stroke markers" d=" M 100 443 L 100 439" stroke-linejoin="bevel" stroke-miterlimit="10"/><path fill="none" stroke="black" paint-order="fill stroke markers" d=" M 114 443 L 114 439" stroke-linejoin="bevel" stroke-miterlimit="10"/><path fill="none" stroke="black" paint-order="fill stroke markers" d=" M 128 443 L 128 439" stroke-linejoin="bevel" stroke-miterlimit="10"/><path fill="none" stroke="black" paint-order="fill stroke markers" d=" M 142 443 L 142 439" stroke-linejoin="bevel" stroke-miterlimit="10"/><path fill="none" stroke="black" paint-order="fill stroke markers" d=" M 155 443 L 155 439" stroke-linejoin="bevel" stroke-miterlimit="10"/><path fill="none" stroke="black" paint-order="fill stroke markers" d=" M 169 443 L 169 439" stroke-linejoin="bevel" stroke-miterlimit="10"/><path fill="none" stroke="black" paint-order="fill stroke markers" d=" M 183 443 L 183 439" stroke-linejoin="bevel" stroke-miterlimit="10"/><path fill="none" stroke="black" paint-order="fill stroke markers" d=" M 197 443 L 197 439" stroke-linejoin="bevel" stroke-miterlimit="10"/><path fill="none" stroke="black" paint-order="fill stroke markers" d=" M 211 443 L 211 439" stroke-linejoin="bevel" stroke-miterlimit="10"/><path fill="none" stroke="black" paint-order="fill stroke markers" d=" M 224 443 L 224 439" stroke-linejoin="bevel" stroke-miterlimit="10"/><path fill="none" stroke="black" paint-order="fill stroke markers" d=" M 238 443 L 238 439" stroke-linejoin="bevel" stroke-miterlimit="10"/><path fill="none" stroke="black" paint-order="fill stroke markers" d=" M 252 443 L 252 439" stroke-linejoin="bevel" stroke-miterlimit="10"/><path fill="none" stroke="black" paint-order="fill stroke markers" d=" M 266 443 L 266 439" stroke-linejoin="bevel" stroke-miterlimit="10"/><path fill="none" stroke="black" paint-order="fill stroke markers" d=" M 280 443 L 280 439" stroke-linejoin="bevel" stroke-miterlimit="10"/><path fill="none" stroke="black" paint-order="fill stroke markers" d=" M 293 443 L 293 439" stroke-linejoin="bevel" stroke-miterlimit="10"/><path fill="none" stroke="black" paint-order="fill stroke markers" d=" M 307 443 L 307 439" stroke-linejoin="bevel" stroke-miterlimit="10"/><path fill="none" stroke="black" paint-order="fill stroke markers" d=" M 321 443 L 321 439" stroke-linejoin="bevel" stroke-miterlimit="10"/><path fill="none" stroke="black" paint-order="fill stroke markers" d=" M 335 443 L 335 439" stroke-linejoin="bevel" stroke-miterlimit="10"/><path fill="none" stroke="black" paint-order="fill stroke markers" d=" M 349 443 L 349 439" stroke-linejoin="bevel" stroke-miterlimit="10"/><path fill="none" stroke="black" paint-order="fill stroke markers" d=" M 362 443 L 362 439" stroke-linejoin="bevel" stroke-miterlimit="10"/><path fill="none" stroke="black" paint-order="fill stroke markers" d=" M 376 443 L 376 439" stroke-linejoin="bevel" stroke-miterlimit="10"/><path fill="none" stroke="black" paint-order="fill stroke markers" d=" M 390 443 L 390 439" stroke-linejoin="bevel" stroke-miterlimit="10"/><path fill="none" stroke="black" paint-order="fill stroke markers" d=" M 404 443 L 404 439" stroke-linejoin="bevel" stroke-miterlimit="10"/><path fill="none" stroke="black" paint-order="fill stroke markers" d=" M 418 443 L 418 439" stroke-linejoin="bevel" stroke-miterlimit="10"/><path fill="none" stroke="black" paint-order="fill stroke markers" d=" M 431 443 L 431 439" stroke-linejoin="bevel" stroke-miterlimit="10"/><path fill="none" stroke="black" paint-order="fill stroke markers" d=" M 445 443 L 445 439" stroke-linejoin="bevel" stroke-miterlimit="10"/><path fill="" stroke="black" paint-order="fill stroke markers" d=" M 459 443 L 459 439" stroke-linejoin="bevel" stroke-miterlimit="10"/><g transform="translate(86,450) rotate(0,0,0)"><text fill="" stroke="none" font-family="helvetica" font-size="14pt" font-style="normal" font-weight="normal" text-decoration="normal" x="0" y="0" text-anchor="middle" dominant-baseline="hanging">0</text><g transform="rotate(0,0,0) translate(-86,-450) translate(155,450) rotate(0,0,0)"><text fill="" stroke="none" font-family="helvetica" font-size="14pt" font-style="normal" font-weight="normal" text-decoration="normal" x="0" y="0" text-anchor="middle" dominant-baseline="hanging">0.05</text><g transform="rotate(0,0,0) translate(-155,-450) translate(224,450) rotate(0,0,0)"><text fill="" stroke="none" font-family="helvetica" font-size="14pt" font-style="normal" font-weight="normal" text-decoration="normal" x="0" y="0" text-anchor="middle" dominant-baseline="hanging">0.1</text><g transform="rotate(0,0,0) translate(-224,-450) translate(293,450) rotate(0,0,0)"><text fill="" stroke="none" font-family="helvetica" font-size="14pt" font-style="normal" font-weight="normal" text-decoration="normal" x="0" y="0" text-anchor="middle" dominant-baseline="hanging">0.15</text><g transform="rotate(0,0,0) translate(-293,-450) translate(362,450) rotate(0,0,0)"><text fill="" stroke="none" font-family="helvetica" font-size="14pt" font-style="normal" font-weight="normal" text-decoration="normal" x="0" y="0" text-anchor="middle" dominant-baseline="hanging">0.2</text><g transform="rotate(0,0,0) translate(-362,-450) translate(431,450) rotate(0,0,0)"><text fill="" stroke="none" font-family="helvetica" font-size="14pt" font-style="normal" font-weight="normal" text-decoration="normal" x="0" y="0" text-anchor="middle" dominant-baseline="hanging">0.25</text><g transform="rotate(0,0,0) translate(-431,-450) translate(272,477) rotate(0,0,0)"><text fill="" stroke="none" font-family="helvetica" font-size="14pt" font-style="italic" font-weight="normal" text-decoration="normal" x="0" y="0" text-anchor="middle" dominant-baseline="hanging">q nm⁻¹</text><g transform="rotate(0,0,0) translate(-272,-477)"/></g></g></g></g></g></g></g></g></g><g><g fill="#444444"><path fill="none" stroke="black" paint-order="fill stroke markers" d=" M 74 439 L 74 33" stroke-linejoin="bevel" stroke-miterlimit="10"/><path fill="none" stroke="black" paint-order="fill stroke markers" d=" M 68 406 L 76 406" stroke-linejoin="bevel" stroke-miterlimit="10"/><path fill="none" stroke="black" paint-order="fill stroke markers" d=" M 68 350 L 76 350" stroke-linejoin="bevel" stroke-miterlimit="10"/><path fill="none" stroke="black" paint-order="fill stroke markers" d=" M 68 295 L 76 295" stroke-linejoin="bevel" stroke-miterlimit="10"/><path fill="none" stroke="black" paint-order="fill stroke markers" d=" M 68 240 L 76 240" stroke-linejoin="bevel" stroke-miterlimit="10"/><path fill="none" stroke="black" paint-order="fill stroke markers" d=" M 68 184 L 76 184" stroke-linejoin="bevel" stroke-miterlimit="10"/><path fill="none" stroke="black" paint-order="fill stroke markers" d=" M 68 129 L 76 129" stroke-linejoin="bevel" stroke-miterlimit="10"/><path fill="none" stroke="black" paint-order="fill stroke markers" d=" M 68 74 L 76 74" stroke-linejoin="bevel" stroke-miterlimit="10"/><path fill="none" stroke="black" paint-order="fill stroke markers" d=" M 70 417 L 74 417" stroke-linejoin="bevel" stroke-miterlimit="10"/><path fill="none" stroke="black" paint-order="fill stroke markers" d=" M 70 428 L 74 428" stroke-linejoin="bevel" stroke-miterlimit="10"/><path fill="none" stroke="black" paint-order="fill stroke markers" d=" M 70 439 L 74 439" stroke-linejoin="bevel" stroke-miterlimit="10"/><path fill="none" stroke="black" paint-order="fill stroke markers" d=" M 70 406 L 74 406" stroke-linejoin="bevel" stroke-miterlimit="10"/><path fill="none" stroke="black" paint-order="fill stroke markers" d=" M 70 395 L 74 395" stroke-linejoin="bevel" stroke-miterlimit="10"/><path fill="none" stroke="black" paint-order="fill stroke markers" d=" M 70 383 L 74 383" stroke-linejoin="bevel" stroke-miterlimit="10"/><path fill="none" stroke="black" paint-order="fill stroke markers" d=" M 70 372 L 74 372" stroke-linejoin="bevel" stroke-miterlimit="10"/><path fill="none" stroke="black" paint-order="fill stroke markers" d=" M 70 361 L 74 361" stroke-linejoin="bevel" stroke-miterlimit="10"/><path fill="none" stroke="black" paint-order="fill stroke markers" d=" M 70 350 L 74 350" stroke-linejoin="bevel" stroke-miterlimit="10"/><path fill="none" stroke="black" paint-order="fill stroke markers" d=" M 70 339 L 74 339" stroke-linejoin="bevel" stroke-miterlimit="10"/><path fill="none" stroke="black" paint-order="fill stroke markers" d=" M 70 328 L 74 328" stroke-linejoin="bevel" stroke-miterlimit="10"/><path fill="none" stroke="black" paint-order="fill stroke markers" d=" M 70 317 L 74 317" stroke-linejoin="bevel" stroke-miterlimit="10"/><path fill="none" stroke="black" paint-order="fill stroke markers" d=" M 70 306 L 74 306" stroke-linejoin="bevel" stroke-miterlimit="10"/><path fill="none" stroke="black" paint-order="fill stroke markers" d=" M 70 295 L 74 295" stroke-linejoin="bevel" stroke-miterlimit="10"/><path fill="none" stroke="black" paint-order="fill stroke markers" d=" M 70 284 L 74 284" stroke-linejoin="bevel" stroke-miterlimit="10"/><path fill="none" stroke="black" paint-order="fill stroke markers" d=" M 70 273 L 74 273" stroke-linejoin="bevel" stroke-miterlimit="10"/><path fill="none" stroke="black" paint-order="fill stroke markers" d=" M 70 262 L 74 262" stroke-linejoin="bevel" stroke-miterlimit="10"/><path fill="none" stroke="black" paint-order="fill stroke markers" d=" M 70 251 L 74 251" stroke-linejoin="bevel" stroke-miterlimit="10"/><path fill="none" stroke="black" paint-order="fill stroke markers" d=" M 70 240 L 74 240" stroke-linejoin="bevel" stroke-miterlimit="10"/><path fill="none" stroke="black" paint-order="fill stroke markers" d=" M 70 229 L 74 229" stroke-linejoin="bevel" stroke-miterlimit="10"/><path fill="none" stroke="black" paint-order="fill stroke markers" d=" M 70 218 L 74 218" stroke-linejoin="bevel" stroke-miterlimit="10"/><path fill="none" stroke="black" paint-order="fill stroke markers" d=" M 70 207 L 74 207" stroke-linejoin="bevel" stroke-miterlimit="10"/><path fill="none" stroke="black" paint-order="fill stroke markers" d=" M 70 196 L 74 196" stroke-linejoin="bevel" stroke-miterlimit="10"/><path fill="none" stroke="black" paint-order="fill stroke markers" d=" M 70 184 L 74 184" stroke-linejoin="bevel" stroke-miterlimit="10"/><path fill="none" stroke="black" paint-order="fill stroke markers" d=" M 70 173 L 74 173" stroke-linejoin="bevel" stroke-miterlimit="10"/><path fill="none" stroke="black" paint-order="fill stroke markers" d=" M 70 162 L 74 162" stroke-linejoin="bevel" stroke-miterlimit="10"/><path fill="none" stroke="black" paint-order="fill stroke markers" d=" M 70 151 L 74 151" stroke-linejoin="bevel" stroke-miterlimit="10"/><path fill="none" stroke="black" paint-order="fill stroke markers" d=" M 70 140 L 74 140" stroke-linejoin="bevel" stroke-miterlimit="10"/><path fill="none" stroke="black" paint-order="fill stroke markers" d=" M 70 129 L 74 129" stroke-linejoin="bevel" stroke-miterlimit="10"/><path fill="none" stroke="black" paint-order="fill stroke markers" d=" M 70 118 L 74 118" stroke-linejoin="bevel" stroke-miterlimit="10"/><path fill="none" stroke="black" paint-order="fill stroke markers" d=" M 70 107 L 74 107" stroke-linejoin="bevel" stroke-miterlimit="10"/><path fill="none" stroke="black" paint-order="fill stroke markers" d=" M 70 96 L 74 96" stroke-linejoin="bevel" stroke-miterlimit="10"/><path fill="none" stroke="black" paint-order="fill stroke markers" d=" M 70 85 L 74 85" stroke-linejoin="bevel" stroke-miterlimit="10"/><path fill="none" stroke="black" paint-order="fill stroke markers" d=" M 70 74 L 74 74" stroke-linejoin="bevel" stroke-miterlimit="10"/><path fill="none" stroke="black" paint-order="fill stroke markers" d=" M 70 63 L 74 63" stroke-linejoin="bevel" stroke-miterlimit="10"/><path fill="none" stroke="black" paint-order="fill stroke markers" d=" M 70 52 L 74 52" stroke-linejoin="bevel" stroke-miterlimit="10"/><path fill="" stroke="black" paint-order="fill stroke markers" d=" M 70 41 L 74 41" stroke-linejoin="bevel" stroke-miterlimit="10"/><g transform="translate(63,406) rotate(0,0,0)"><text fill="" stroke="none" font-family="helvetica" font-size="14pt" font-style="normal" font-weight="normal" text-decoration="normal" x="0" y="0" text-anchor="end" dominant-baseline="central">-1</text><g transform="rotate(0,0,0) translate(-63,-406) translate(63,350) rotate(0,0,0)"><text fill="" stroke="none" font-family="helvetica" font-size="14pt" font-style="normal" font-weight="normal" text-decoration="normal" x="0" y="0" text-anchor="end" dominant-baseline="central">-0.5</text><g transform="rotate(0,0,0) translate(-63,-350) translate(63,295) rotate(0,0,0)"><text fill="" stroke="none" font-family="helvetica" font-size="14pt" font-style="normal" font-weight="normal" text-decoration="normal" x="0" y="0" text-anchor="end" dominant-baseline="central">0</text><g transform="rotate(0,0,0) translate(-63,-295) translate(63,240) rotate(0,0,0)"><text fill="" stroke="none" font-family="helvetica" font-size="14pt" font-style="normal" font-weight="normal" text-decoration="normal" x="0" y="0" text-anchor="end" dominant-baseline="central">0.5</text><g transform="rotate(0,0,0) translate(-63,-240) translate(63,184) rotate(0,0,0)"><text fill="" stroke="none" font-family="helvetica" font-size="14pt" font-style="normal" font-weight="normal" text-decoration="normal" x="0" y="0" text-anchor="end" dominant-baseline="central">1</text><g transform="rotate(0,0,0) translate(-63,-184) translate(63,129) rotate(0,0,0)"><text fill="" stroke="none" font-family="helvetica" font-size="14pt" font-style="normal" font-weight="normal" text-decoration="normal" x="0" y="0" text-anchor="end" dominant-baseline="central">1.5</text><g transform="rotate(0,0,0) translate(-63,-129) translate(63,74) rotate(0,0,0)"><text fill="" stroke="none" font-family="helvetica" font-size="14pt" font-style="normal" font-weight="normal" text-decoration="normal" x="0" y="0" text-anchor="end" dominant-baseline="central">2</text><g transform="rotate(0,0,0) translate(-63,-74) translate(23,236) rotate(-90,0,0)"><text fill="" stroke="none" font-family="helvetica" font-size="14pt" font-style="italic" font-weight="normal" text-decoration="normal" x="0" y="0" text-anchor="middle" dominant-baseline="alphabetic">Log I(q)</text><g transform="rotate(90,0,0) translate(-23,-236)"/></g></g></g></g></g></g></g></g></g></g><g clip-path="url(#SPKHHFUMxJDw)"><g/></g></g></svg>