<svg version="1.1" xmlns="http://www.w3.org/2000/svg" xmlns:xlink="http://www.w3.org/1999/xlink" width="500" height="500" style="width: 500px; height: 500px;"><defs><clipPath id="gxlkNZOLpFoo"><path fill="none" stroke="none" d=" M 85 33 L 470 33 L 470 439 L 85 439 L 85 33 Z"/></clipPath><clipPath id="NDAprQMZDkAr"><path fill="none" stroke="none" d=" M 85 33 L 470 33 L 470 439 L 85 439 L 85 33 Z"/></clipPath><clipPath id="efyTDlAUEeXm"><path fill="none" stroke="none" d=" M 85 33 L 470 33 L 470 439 L 85 439 L 85 33 Z"/></clipPath><clipPath id="LwdtSvXLEWqs"><path fill="none" stroke="none" d=" M 85 33 L 470 33 L 470 439 L 85 439 L 85 33 Z"/></clipPath><clipPath id="LvNFlcscSpMB"><path fill="none" stroke="none" d=" M 85 33 L 470 33 L 470 439 L 85 439 L 85 33 Z"/></clipPath><clipPath id="BVPBfJvrkCTT"><path fill="none" stroke="none" d=" M 85 33 L 470 33 L 470 439 L 85 439 L 85 33 Z"/></clipPath><clipPath id="UUJnOyoFxoxE"><path fill="none" stroke="none" d=" M 85 33 L 470 33 L 470 439 L 85 439 L 85 33 Z"/></clipPath><clipPath id="sWNRFshWawrJ"><path fill="none" stroke="none" d=" M 85 33 L 470 33 L 470 439 L 85 439 L 85 33 Z"/></clipPath><clipPath id="qEggiiLTTHSi"><path fill="none" stroke="none" d=" M 85 33 L 470 33 L 470 439 L 85 439 L 85 33 Z"/></clipPath><clipPath id="idMUyQprOdhn"><path fill="none" stroke="none" d=" M 85 33 L 470 33 L 470 439 L 85 439 L 85 33 Z"/></clipPath></defs><g transform="scale(1,1) translate(0.5,0.5) scale(1,1) translate(0.5,0.5)"><rect fill="#ffffff" stroke="none" x="0" y="0" width="500" height="500"/><rect fill="#FFFFFF" stroke="none" x="85" y="33" width="385" height="406"/><rect fill="#ffffff" stroke="none" x="85" y="33" width="385" height="406"/><g><rect fill="none" stroke="#e5e5e5" x="85" y="33" width="385" height="406" stroke-linejoin="bevel" stroke-miterlimit="10"/></g><g clip-path="url(#BVPBfJvrkCTT)"><g><g><path fill="none" stroke="#e5e5e5" paint-order="fill stroke markers" d=" M 88 439 L 88 33" stroke-linejoin="bevel" stroke-miterlimit="10"/><path fill="none" stroke="#e5e5e5" paint-order="fill stroke markers" d=" M 169 439 L 169 33" stroke-linejoin="bevel" stroke-miterlimit="10"/><path fill="none" stroke="#e5e5e5" paint-order="fill stroke markers" d=" M 250 439 L 250 33" stroke-linejoin="bevel" stroke-miterlimit="10"/><path fill="none" stroke="#e5e5e5" paint-order="fill stroke markers" d=" M 331 439 L 331 33" stroke-linejoin="bevel" stroke-miterlimit="10"/><path fill="none" stroke="#e5e5e5" paint-order="fill stroke markers" d=" M 412 439 L 412 33" stroke-linejoin="bevel" stroke-miterlimit="10"/></g></g></g><g clip-path="url(#UUJnOyoFxoxE)"><g><g><path fill="none" stroke="#e5e5e5" paint-order="fill stroke markers" d=" M 85 411 L 470 411" stroke-linejoin="bevel" stroke-miterlimit="10"/><path fill="none" stroke="#e5e5e5" paint-order="fill stroke markers" d=" M 85 331 L 470 331" stroke-linejoin="bevel" stroke-miterlimit="10"/><path fill="none" stroke="#e5e5e5" paint-order="fill stroke markers" d=" M 85 252 L 470 252" stroke-linejoin="bevel" stroke-miterlimit="10"/><path fill="none" stroke="#e5e5e5" paint-order="fill stroke markers" d=" M 85 172 L 470 172" stroke-linejoin="bevel" stroke-miterlimit="10"/><path fill="none" stroke="#e5e5e5" paint-order="fill stroke markers" d=" M 85 92 L 470 92" stroke-linejoin="bevel" stroke-miterlimit="10"/></g></g></g><g clip-path="url(#sWNRFshWawrJ)"><g><g><path fill="none" stroke="none"/><path fill="blue" stroke="blue" paint-order="fill stroke markers" d=" M 104.99999999999997 345.331074434192 A 2.5 2.5 0 1 1 104.99999875000007 345.32857443460864" fill-opacity="0.3" stroke-linejoin="bevel" stroke-miterlimit="10"/><path fill="blue" stroke="blue" paint-order="fill stroke markers" d=" M 112.03468110969311 337.1034621014164 A 2.5 2.5 0 1 1 112.03467985969321 337.1009621018331" fill-opacity="0.3" stroke-linejoin="bevel" stroke-miterlimit="10"/><path fill="blue" stroke="blue" paint-order="fill stroke markers" d=" M 119.3337056640154 277.7335654849671 A 2.5 2.5 0 1 1 119.3337044140155 277.73106548538374" fill-opacity="0.3" stroke-linejoin="bevel" stroke-miterlimit="10"/><path fill="blue" stroke="blue" paint-order="fill stroke markers" d=" M 126.87091228463579 161.7077769276155 A 2.5 2.5 0 1 1 126.8709110346359 161.70527692803216" fill-opacity="0.3" stroke-linejoin="bevel" stroke-miterlimit="10"/><path fill="blue" stroke="blue" paint-order="fill stroke markers" d=" M 134.6733645500844 365.76709769843325 A 2.5 2.5 0 1 1 134.6733633000845 365.7645976988499" fill-opacity="0.3" stroke-linejoin="bevel" stroke-miterlimit="10"/><path fill="blue" stroke="blue" paint-order="fill stroke markers" d=" M 142.71309668163207 288.8538099189631 A 2.5 2.5 0 1 1 142.71309543163218 288.8513099193798" fill-opacity="0.3" stroke-linejoin="bevel" stroke-miterlimit="10"/><path fill="blue" stroke="blue" paint-order="fill stroke markers" d=" M 151.01897665820707 394.8195921511681 A 2.5 2.5 0 1 1 151.01897540820718 394.81709215158475" fill-opacity="0.3" stroke-linejoin="bevel" stroke-miterlimit="10"/><path fill="blue" stroke="blue" paint-order="fill stroke markers" d=" M 159.56123430068197 202.22658699371186 A 2.5 2.5 0 1 1 159.5612330506821 202.22408699412853" fill-opacity="0.3" stroke-linejoin="bevel" stroke-miterlimit="10"/><path fill="blue" stroke="blue" paint-order="fill stroke markers" d=" M 168.35452935085772 55.61935387046432 A 2.5 2.5 0 1 1 168.35452810085783 55.61685387088099" fill-opacity="0.3" stroke-linejoin="bevel" stroke-miterlimit="10"/><path fill="blue" stroke="blue" paint-order="fill stroke markers" d=" M 177.4153251417855 356.5070249547657 A 2.5 2.5 0 1 1 177.41532389178562 356.5045249551824" fill-opacity="0.3" stroke-linejoin="bevel" stroke-miterlimit="10"/><path fill="blue" stroke="blue" paint-order="fill stroke markers" d=" M 186.71114570288853 142.62638347879232 A 2.5 2.5 0 1 1 186.71114445288865 142.62388347920898" fill-opacity="0.3" stroke-linejoin="bevel" stroke-miterlimit="10"/><path fill="blue" stroke="blue" paint-order="fill stroke markers" d=" M 196.27536920494265 325.0667293656863 A 2.5 2.5 0 1 1 196.27536795494277 325.06422936610295" fill-opacity="0.3" stroke-linejoin="bevel" stroke-miterlimit="10"/><path fill="blue" stroke="blue" paint-order="fill stroke markers" d=" M 206.0737152769729 395.5625102366393 A 2.5 2.5 0 1 1 206.07371402697302 395.56001023705596" fill-opacity="0.3" stroke-linejoin="bevel" stroke-miterlimit="10"/><path fill="blue" stroke="blue" paint-order="fill stroke markers" d=" M 216.14136649015353 304.3553136497231 A 2.5 2.5 0 1 1 216.14136524015365 304.35281365013975" fill-opacity="0.3" stroke-linejoin="bevel" stroke-miterlimit="10"/><path fill="blue" stroke="blue" paint-order="fill stroke markers" d=" M 226.442238073111 72.62325369078394 A 2.5 2.5 0 1 1 226.44223682311113 72.6207536912006" fill-opacity="0.3" stroke-linejoin="bevel" stroke-miterlimit="10"/><path fill="blue" stroke="blue" paint-order="fill stroke markers" d=" M 237.01331699741797 51.45454545454544 A 2.5 2.5 0 1 1 237.0133157474181 51.452045454962104" fill-opacity="0.3" stroke-linejoin="bevel" stroke-miterlimit="10"/><path fill="blue" stroke="blue" paint-order="fill stroke markers" d=" M 247.81671409130263 167.64369446748503 A 2.5 2.5 0 1 1 247.81671284130275 167.6411944679017" fill-opacity="0.3" stroke-linejoin="bevel" stroke-miterlimit="10"/><path fill="blue" stroke="blue" paint-order="fill stroke markers" d=" M 258.89122072673604 58.96126819916455 A 2.5 2.5 0 1 1 258.8912194767361 58.958768199581215" fill-opacity="0.3" stroke-linejoin="bevel" stroke-miterlimit="10"/><path fill="blue" stroke="blue" paint-order="fill stroke markers" d=" M 270.1971433315481 284.0458624261974 A 2.5 2.5 0 1 1 270.1971420815482 284.04336242661407" fill-opacity="0.3" stroke-linejoin="bevel" stroke-miterlimit="10"/><path fill="blue" stroke="blue" paint-order="fill stroke markers" d=" M 281.75410334406087 361.1304373183379 A 2.5 2.5 0 1 1 281.75410209406095 361.12793731875456" fill-opacity="0.3" stroke-linejoin="bevel" stroke-miterlimit="10"/><path fill="blue" stroke="blue" paint-order="fill stroke markers" d=" M 293.58352579384695 102.1064250577246 A 2.5 2.5 0 1 1 293.58352454384703 102.10392505814127" fill-opacity="0.3" stroke-linejoin="bevel" stroke-miterlimit="10"/><path fill="blue" stroke="blue" paint-order="fill stroke markers" d=" M 305.64301131728706 245.6240399282082 A 2.5 2.5 0 1 1 305.64301006728715 245.62153992862486" fill-opacity="0.3" stroke-linejoin="bevel" stroke-miterlimit="10"/><path fill="blue" stroke="blue" paint-order="fill stroke markers" d=" M 317.97586147819965 182.9811064265994 A 2.5 2.5 0 1 1 317.97586022819974 182.97860642701608" fill-opacity="0.3" stroke-linejoin="bevel" stroke-miterlimit="10"/><path fill="blue" stroke="blue" paint-order="fill stroke markers" d=" M 330.5378725125669 85.55825715637039 A 2.5 2.5 0 1 1 330.53787126256697 85.55575715678705" fill-opacity="0.3" stroke-linejoin="bevel" stroke-miterlimit="10"/><path fill="blue" stroke="blue" paint-order="fill stroke markers" d=" M 343.37415038460574 390.56970062775804 A 2.5 2.5 0 1 1 343.37414913460583 390.5672006281747" fill-opacity="0.3" stroke-linejoin="bevel" stroke-miterlimit="10"/><path fill="blue" stroke="blue" paint-order="fill stroke markers" d=" M 356.43868692990054 267.16547932507615 A 2.5 2.5 0 1 1 356.43868567990063 267.1629793254928" fill-opacity="0.3" stroke-linejoin="bevel" stroke-miterlimit="10"/><path fill="blue" stroke="blue" paint-order="fill stroke markers" d=" M 369.7783925130657 318.8405724998804 A 2.5 2.5 0 1 1 369.77839126306577 318.8380725002971" fill-opacity="0.3" stroke-linejoin="bevel" stroke-miterlimit="10"/><path fill="blue" stroke="blue" paint-order="fill stroke markers" d=" M 383.3454545692875 420.5454545454545 A 2.5 2.5 0 1 1 383.34545331928757 420.54295454587117" fill-opacity="0.3" stroke-linejoin="bevel" stroke-miterlimit="10"/><path fill="blue" stroke="blue" paint-order="fill stroke markers" d=" M 397.1635540332102 270.4239400305251 A 2.5 2.5 0 1 1 397.16355278321026 270.42144003094177" fill-opacity="0.3" stroke-linejoin="bevel" stroke-miterlimit="10"/><path fill="blue" stroke="blue" paint-order="fill stroke markers" d=" M 411.2581754307284 340.3879398077603 A 2.5 2.5 0 1 1 411.2581741807285 340.38543980817695" fill-opacity="0.3" stroke-linejoin="bevel" stroke-miterlimit="10"/><path fill="blue" stroke="blue" paint-order="fill stroke markers" d=" M 425.57880040557825 186.22253218427414 A 2.5 2.5 0 1 1 425.57879915557834 186.2200321846908" fill-opacity="0.3" stroke-linejoin="bevel" stroke-miterlimit="10"/><path fill="blue" stroke="blue" paint-order="fill stroke markers" d=" M 440.17684951422274 381.436922494256 A 2.5 2.5 0 1 1 440.1768482642228 381.4344224946727" fill-opacity="0.3" stroke-linejoin="bevel" stroke-miterlimit="10"/><path fill="blue" stroke="blue" paint-order="fill stroke markers" d=" M 455 160.4745055423043 A 2.5 2.5 0 1 1 454.9999987500001 160.47200554272098" fill-opacity="0.3" stroke-linejoin="bevel" stroke-miterlimit="10"/></g></g></g><g clip-path="url(#qEggiiLTTHSi)"><g><g><path fill="none" stroke="red" paint-order="fill stroke markers" d=" M 85 251.55988540755243 L 470 251.55988540755243" stroke-linejoin="bevel" stroke-miterlimit="10" stroke-width="3"/></g></g></g><g><g fill="#444444"><path fill="" stroke="none" d=""/><g transform="translate(277.5,5)"><path fill="none" stroke="none"/><text fill="" stroke="none" font-family="helvetica" font-size="12pt" font-style="normal" font-weight="bold" text-decoration="normal" x="0" y="0" text-anchor="middle" dominant-baseline="text-before-edge">Residuals for Guinier plot fit (SASDG85)</text></g></g></g><g/><g><g fill="#444444"><path fill="none" stroke="black" paint-order="fill stroke markers" d=" M 85 439 L 470 439" stroke-linejoin="bevel" stroke-miterlimit="10"/><path fill="none" stroke="black" paint-order="fill stroke markers" d=" M 88 445 L 88 437" stroke-linejoin="bevel" stroke-miterlimit="10"/><path fill="none" stroke="black" paint-order="fill stroke markers" d=" M 169 445 L 169 437" stroke-linejoin="bevel" stroke-miterlimit="10"/><path fill="none" stroke="black" paint-order="fill stroke markers" d=" M 250 445 L 250 437" stroke-linejoin="bevel" stroke-miterlimit="10"/><path fill="none" stroke="black" paint-order="fill stroke markers" d=" M 331 445 L 331 437" stroke-linejoin="bevel" stroke-miterlimit="10"/><path fill="none" stroke="black" paint-order="fill stroke markers" d=" M 412 445 L 412 437" stroke-linejoin="bevel" stroke-miterlimit="10"/><path fill="none" stroke="black" paint-order="fill stroke markers" d=" M 88 443 L 88 439" stroke-linejoin="bevel" stroke-miterlimit="10"/><path fill="none" stroke="black" paint-order="fill stroke markers" d=" M 105 443 L 105 439" stroke-linejoin="bevel" stroke-miterlimit="10"/><path fill="none" stroke="black" paint-order="fill stroke markers" d=" M 121 443 L 121 439" stroke-linejoin="bevel" stroke-miterlimit="10"/><path fill="none" stroke="black" paint-order="fill stroke markers" d=" M 137 443 L 137 439" stroke-linejoin="bevel" stroke-miterlimit="10"/><path fill="none" stroke="black" paint-order="fill stroke markers" d=" M 153 443 L 153 439" stroke-linejoin="bevel" stroke-miterlimit="10"/><path fill="none" stroke="black" paint-order="fill stroke markers" d=" M 169 443 L 169 439" stroke-linejoin="bevel" stroke-miterlimit="10"/><path fill="none" stroke="black" paint-order="fill stroke markers" d=" M 185 443 L 185 439" stroke-linejoin="bevel" stroke-miterlimit="10"/><path fill="none" stroke="black" paint-order="fill stroke markers" d=" M 202 443 L 202 439" stroke-linejoin="bevel" stroke-miterlimit="10"/><path fill="none" stroke="black" paint-order="fill stroke markers" d=" M 218 443 L 218 439" stroke-linejoin="bevel" stroke-miterlimit="10"/><path fill="none" stroke="black" paint-order="fill stroke markers" d=" M 234 443 L 234 439" stroke-linejoin="bevel" stroke-miterlimit="10"/><path fill="none" stroke="black" paint-order="fill stroke markers" d=" M 250 443 L 250 439" stroke-linejoin="bevel" stroke-miterlimit="10"/><path fill="none" stroke="black" paint-order="fill stroke markers" d=" M 266 443 L 266 439" stroke-linejoin="bevel" stroke-miterlimit="10"/><path fill="none" stroke="black" paint-order="fill stroke markers" d=" M 283 443 L 283 439" stroke-linejoin="bevel" stroke-miterlimit="10"/><path fill="none" stroke="black" paint-order="fill stroke markers" d=" M 299 443 L 299 439" stroke-linejoin="bevel" stroke-miterlimit="10"/><path fill="none" stroke="black" paint-order="fill stroke markers" d=" M 315 443 L 315 439" stroke-linejoin="bevel" stroke-miterlimit="10"/><path fill="none" stroke="black" paint-order="fill stroke markers" d=" M 331 443 L 331 439" stroke-linejoin="bevel" stroke-miterlimit="10"/><path fill="none" stroke="black" paint-order="fill stroke markers" d=" M 347 443 L 347 439" stroke-linejoin="bevel" stroke-miterlimit="10"/><path fill="none" stroke="black" paint-order="fill stroke markers" d=" M 363 443 L 363 439" stroke-linejoin="bevel" stroke-miterlimit="10"/><path fill="none" stroke="black" paint-order="fill stroke markers" d=" M 380 443 L 380 439" stroke-linejoin="bevel" stroke-miterlimit="10"/><path fill="none" stroke="black" paint-order="fill stroke markers" d=" M 396 443 L 396 439" stroke-linejoin="bevel" stroke-miterlimit="10"/><path fill="none" stroke="black" paint-order="fill stroke markers" d=" M 412 443 L 412 439" stroke-linejoin="bevel" stroke-miterlimit="10"/><path fill="none" stroke="black" paint-order="fill stroke markers" d=" M 428 443 L 428 439" stroke-linejoin="bevel" stroke-miterlimit="10"/><path fill="none" stroke="black" paint-order="fill stroke markers" d=" M 444 443 L 444 439" stroke-linejoin="bevel" stroke-miterlimit="10"/><path fill="" stroke="black" paint-order="fill stroke markers" d=" M 461 443 L 461 439" stroke-linejoin="bevel" stroke-miterlimit="10"/><g transform="translate(88,450) rotate(0,0,0)"><text fill="" stroke="none" font-family="helvetica" font-size="14pt" font-style="normal" font-weight="normal" text-decoration="normal" x="0" y="0" text-anchor="middle" dominant-baseline="hanging">2</text><g transform="rotate(0,0,0) translate(-88,-450) translate(169,450) rotate(0,0,0)"><text fill="" stroke="none" font-family="helvetica" font-size="14pt" font-style="normal" font-weight="normal" text-decoration="normal" x="0" y="0" text-anchor="middle" dominant-baseline="hanging">4</text><g transform="rotate(0,0,0) translate(-169,-450) translate(250,450) rotate(0,0,0)"><text fill="" stroke="none" font-family="helvetica" font-size="14pt" font-style="normal" font-weight="normal" text-decoration="normal" x="0" y="0" text-anchor="middle" dominant-baseline="hanging">6</text><g transform="rotate(0,0,0) translate(-250,-450) translate(331,450) rotate(0,0,0)"><text fill="" stroke="none" font-family="helvetica" font-size="14pt" font-style="normal" font-weight="normal" text-decoration="normal" x="0" y="0" text-anchor="middle" dominant-baseline="hanging">8</text><g transform="rotate(0,0,0) translate(-331,-450) translate(412,450) rotate(0,0,0)"><text fill="" stroke="none" font-family="helvetica" font-size="14pt" font-style="normal" font-weight="normal" text-decoration="normal" x="0" y="0" text-anchor="middle" dominant-baseline="hanging">10</text><g transform="rotate(0,0,0) translate(-412,-450) translate(278,477) rotate(0,0,0)"><text fill="" stroke="none" font-family="helvetica" font-size="14pt" font-style="italic" font-weight="normal" text-decoration="normal" x="0" y="0" text-anchor="middle" dominant-baseline="hanging">q² Å⁻²</text><g transform="rotate(0,0,0) translate(-278,-477)"/></g></g></g></g></g></g></g></g><g><g fill="#444444"><path fill="none" stroke="black" paint-order="fill stroke markers" d=" M 85 439 L 85 33" stroke-linejoin="bevel" stroke-miterlimit="10"/><path fill="none" stroke="black" paint-order="fill stroke markers" d=" M 79 411 L 87 411" stroke-linejoin="bevel" stroke-miterlimit="10"/><path fill="none" stroke="black" paint-order="fill stroke markers" d=" M 79 331 L 87 331" stroke-linejoin="bevel" stroke-miterlimit="10"/><path fill="none" stroke="black" paint-order="fill stroke markers" d=" M 79 252 L 87 252" stroke-linejoin="bevel" stroke-miterlimit="10"/><path fill="none" stroke="black" paint-order="fill stroke markers" d=" M 79 172 L 87 172" stroke-linejoin="bevel" stroke-miterlimit="10"/><path fill="none" stroke="black" paint-order="fill stroke markers" d=" M 79 92 L 87 92" stroke-linejoin="bevel" stroke-miterlimit="10"/><path fill="none" stroke="black" paint-order="fill stroke markers" d=" M 81 427 L 85 427" stroke-linejoin="bevel" stroke-miterlimit="10"/><path fill="none" stroke="black" paint-order="fill stroke markers" d=" M 81 411 L 85 411" stroke-linejoin="bevel" stroke-miterlimit="10"/><path fill="none" stroke="black" paint-order="fill stroke markers" d=" M 81 395 L 85 395" stroke-linejoin="bevel" stroke-miterlimit="10"/><path fill="none" stroke="black" paint-order="fill stroke markers" d=" M 81 379 L 85 379" stroke-linejoin="bevel" stroke-miterlimit="10"/><path fill="none" stroke="black" paint-order="fill stroke markers" d=" M 81 363 L 85 363" stroke-linejoin="bevel" stroke-miterlimit="10"/><path fill="none" stroke="black" paint-order="fill stroke markers" d=" M 81 347 L 85 347" stroke-linejoin="bevel" stroke-miterlimit="10"/><path fill="none" stroke="black" paint-order="fill stroke markers" d=" M 81 331 L 85 331" stroke-linejoin="bevel" stroke-miterlimit="10"/><path fill="none" stroke="black" paint-order="fill stroke markers" d=" M 81 315 L 85 315" stroke-linejoin="bevel" stroke-miterlimit="10"/><path fill="none" stroke="black" paint-order="fill stroke markers" d=" M 81 299 L 85 299" stroke-linejoin="bevel" stroke-miterlimit="10"/><path fill="none" stroke="black" paint-order="fill stroke markers" d=" M 81 283 L 85 283" stroke-linejoin="bevel" stroke-miterlimit="10"/><path fill="none" stroke="black" paint-order="fill stroke markers" d=" M 81 268 L 85 268" stroke-linejoin="bevel" stroke-miterlimit="10"/><path fill="none" stroke="black" paint-order="fill stroke markers" d=" M 81 252 L 85 252" stroke-linejoin="bevel" stroke-miterlimit="10"/><path fill="none" stroke="black" paint-order="fill stroke markers" d=" M 81 236 L 85 236" stroke-linejoin="bevel" stroke-miterlimit="10"/><path fill="none" stroke="black" paint-order="fill stroke markers" d=" M 81 220 L 85 220" stroke-linejoin="bevel" stroke-miterlimit="10"/><path fill="none" stroke="black" paint-order="fill stroke markers" d=" M 81 204 L 85 204" stroke-linejoin="bevel" stroke-miterlimit="10"/><path fill="none" stroke="black" paint-order="fill stroke markers" d=" M 81 188 L 85 188" stroke-linejoin="bevel" stroke-miterlimit="10"/><path fill="none" stroke="black" paint-order="fill stroke markers" d=" M 81 172 L 85 172" stroke-linejoin="bevel" stroke-miterlimit="10"/><path fill="none" stroke="black" paint-order="fill stroke markers" d=" M 81 156 L 85 156" stroke-linejoin="bevel" stroke-miterlimit="10"/><path fill="none" stroke="black" paint-order="fill stroke markers" d=" M 81 140 L 85 140" stroke-linejoin="bevel" stroke-miterlimit="10"/><path fill="none" stroke="black" paint-order="fill stroke markers" d=" M 81 124 L 85 124" stroke-linejoin="bevel" stroke-miterlimit="10"/><path fill="none" stroke="black" paint-order="fill stroke markers" d=" M 81 108 L 85 108" stroke-linejoin="bevel" stroke-miterlimit="10"/><path fill="none" stroke="black" paint-order="fill stroke markers" d=" M 81 92 L 85 92" stroke-linejoin="bevel" stroke-miterlimit="10"/><path fill="none" stroke="black" paint-order="fill stroke markers" d=" M 81 76 L 85 76" stroke-linejoin="bevel" stroke-miterlimit="10"/><path fill="none" stroke="black" paint-order="fill stroke markers" d=" M 81 60 L 85 60" stroke-linejoin="bevel" stroke-miterlimit="10"/><path fill="" stroke="black" paint-order="fill stroke markers" d=" M 81 44 L 85 44" stroke-linejoin="bevel" stroke-miterlimit="10"/><g transform="translate(74,411) rotate(0,0,0)"><text fill="" stroke="none" font-family="helvetica" font-size="14pt" font-style="normal" font-weight="normal" text-decoration="normal" x="0" y="0" text-anchor="end" dominant-baseline="central">-0.02</text><g transform="rotate(0,0,0) translate(-74,-411) translate(74,331) rotate(0,0,0)"><text fill="" stroke="none" font-family="helvetica" font-size="14pt" font-style="normal" font-weight="normal" text-decoration="normal" x="0" y="0" text-anchor="end" dominant-baseline="central">-0.01</text><g transform="rotate(0,0,0) translate(-74,-331) translate(74,252) rotate(0,0,0)"><text fill="" stroke="none" font-family="helvetica" font-size="14pt" font-style="normal" font-weight="normal" text-decoration="normal" x="0" y="0" text-anchor="end" dominant-baseline="central">0</text><g transform="rotate(0,0,0) translate(-74,-252) translate(74,172) rotate(0,0,0)"><text fill="" stroke="none" font-family="helvetica" font-size="14pt" font-style="normal" font-weight="normal" text-decoration="normal" x="0" y="0" text-anchor="end" dominant-baseline="central">0.01</text><g transform="rotate(0,0,0) translate(-74,-172) translate(74,92) rotate(0,0,0)"><text fill="" stroke="none" font-family="helvetica" font-size="14pt" font-style="normal" font-weight="normal" text-decoration="normal" x="0" y="0" text-anchor="end" dominant-baseline="central">0.02</text><g transform="rotate(0,0,0) translate(-74,-92) translate(22,236) rotate(-90,0,0)"><text fill="" stroke="none" font-family="helvetica" font-size="14pt" font-style="italic" font-weight="normal" text-decoration="normal" x="0" y="0" text-anchor="middle" dominant-baseline="alphabetic">R</text><g transform="rotate(90,0,0) translate(-22,-236)"/></g></g></g></g></g></g></g></g><g clip-path="url(#idMUyQprOdhn)"><g/></g></g></svg>