<svg version="1.1" xmlns="http://www.w3.org/2000/svg" xmlns:xlink="http://www.w3.org/1999/xlink" width="500" height="500" style="width: 500px; height: 500px;"><defs><clipPath id="TctlAgoqNLfA"><path fill="none" stroke="none" d=" M 57 33 L 470 33 L 470 439 L 57 439 L 57 33 Z"/></clipPath><clipPath id="xFHKfPMlBzTe"><path fill="none" stroke="none" d=" M 57 33 L 470 33 L 470 439 L 57 439 L 57 33 Z"/></clipPath><clipPath id="XxpfZOUAPPQF"><path fill="none" stroke="none" d=" M 57 33 L 470 33 L 470 439 L 57 439 L 57 33 Z"/></clipPath><clipPath id="krlQxAqzwyFL"><path fill="none" stroke="none" d=" M 57 33 L 470 33 L 470 439 L 57 439 L 57 33 Z"/></clipPath><clipPath id="aXvxWZeZnviJ"><path fill="none" stroke="none" d=" M 57 33 L 470 33 L 470 439 L 57 439 L 57 33 Z"/></clipPath><clipPath id="EGuEpopzyBLT"><path fill="none" stroke="none" d=" M 57 33 L 470 33 L 470 439 L 57 439 L 57 33 Z"/></clipPath><clipPath id="bkeXJMcSdFMv"><path fill="none" stroke="none" d=" M 57 33 L 470 33 L 470 439 L 57 439 L 57 33 Z"/></clipPath><clipPath id="zXtlAfAEtwdC"><path fill="none" stroke="none" d=" M 57 33 L 470 33 L 470 439 L 57 439 L 57 33 Z"/></clipPath><clipPath id="LwpxRvVvoLpb"><path fill="none" stroke="none" d=" M 57 33 L 470 33 L 470 439 L 57 439 L 57 33 Z"/></clipPath><clipPath id="sXXnToUvMUkT"><path fill="none" stroke="none" d=" M 57 33 L 470 33 L 470 439 L 57 439 L 57 33 Z"/></clipPath><clipPath id="BZBnLoXcpAZh"><path fill="none" stroke="none" d=" M 57 33 L 470 33 L 470 439 L 57 439 L 57 33 Z"/></clipPath><clipPath id="epGTExxalTLu"><path fill="none" stroke="none" d=" M 57 33 L 470 33 L 470 439 L 57 439 L 57 33 Z"/></clipPath></defs><g transform="scale(1,1) translate(0.5,0.5) scale(1,1) translate(0.5,0.5)"><rect fill="#ffffff" stroke="none" x="0" y="0" width="500" height="500"/><rect fill="#FFFFFF" stroke="none" x="57" y="33" width="413" height="406"/><rect fill="#ffffff" stroke="none" x="57" y="33" width="413" height="406"/><g><rect fill="none" stroke="#e5e5e5" x="57" y="33" width="413" height="406" stroke-linejoin="bevel" stroke-miterlimit="10"/></g><g clip-path="url(#bkeXJMcSdFMv)"><g><g><path fill="none" stroke="#e5e5e5" paint-order="fill stroke markers" d=" M 70 439 L 70 33" stroke-linejoin="bevel" stroke-miterlimit="10"/><path fill="none" stroke="#e5e5e5" paint-order="fill stroke markers" d=" M 142 439 L 142 33" stroke-linejoin="bevel" stroke-miterlimit="10"/><path fill="none" stroke="#e5e5e5" paint-order="fill stroke markers" d=" M 214 439 L 214 33" stroke-linejoin="bevel" stroke-miterlimit="10"/><path fill="none" stroke="#e5e5e5" paint-order="fill stroke markers" d=" M 286 439 L 286 33" stroke-linejoin="bevel" stroke-miterlimit="10"/><path fill="none" stroke="#e5e5e5" paint-order="fill stroke markers" d=" M 358 439 L 358 33" stroke-linejoin="bevel" stroke-miterlimit="10"/><path fill="none" stroke="#e5e5e5" paint-order="fill stroke markers" d=" M 430 439 L 430 33" stroke-linejoin="bevel" stroke-miterlimit="10"/></g></g></g><g clip-path="url(#zXtlAfAEtwdC)"><g><g><path fill="none" stroke="#e5e5e5" paint-order="fill stroke markers" d=" M 57 369 L 470 369" stroke-linejoin="bevel" stroke-miterlimit="10"/><path fill="none" stroke="#e5e5e5" paint-order="fill stroke markers" d=" M 57 270 L 470 270" stroke-linejoin="bevel" stroke-miterlimit="10"/><path fill="none" stroke="#e5e5e5" paint-order="fill stroke markers" d=" M 57 171 L 470 171" stroke-linejoin="bevel" stroke-miterlimit="10"/><path fill="none" stroke="#e5e5e5" paint-order="fill stroke markers" d=" M 57 72 L 470 72" stroke-linejoin="bevel" stroke-miterlimit="10"/></g></g></g><g clip-path="url(#LwpxRvVvoLpb)"><g><g><path fill="none" stroke="none"/><path fill="blue" stroke="blue" paint-order="fill stroke markers" d=" M 77.27272727272728 305.13540409623005 A 1.5 1.5 0 1 1 77.27272652272734 305.13390409648" fill-opacity="0.3" stroke-linejoin="bevel" stroke-miterlimit="10"/><path fill="blue" stroke="blue" paint-order="fill stroke markers" d=" M 80.14977359804946 305.13540409623005 A 1.5 1.5 0 1 1 80.14977284804952 305.13390409648" fill-opacity="0.3" stroke-linejoin="bevel" stroke-miterlimit="10"/><path fill="blue" stroke="blue" paint-order="fill stroke markers" d=" M 83.02681992337165 305.13540409623005 A 1.5 1.5 0 1 1 83.0268191733717 305.13390409648" fill-opacity="0.3" stroke-linejoin="bevel" stroke-miterlimit="10"/><path fill="blue" stroke="blue" paint-order="fill stroke markers" d=" M 85.90386624869383 305.13540409623005 A 1.5 1.5 0 1 1 85.90386549869389 305.13390409648" fill-opacity="0.3" stroke-linejoin="bevel" stroke-miterlimit="10"/><path fill="blue" stroke="blue" paint-order="fill stroke markers" d=" M 88.78091257401603 305.13540409623005 A 1.5 1.5 0 1 1 88.78091182401609 305.13390409648" fill-opacity="0.3" stroke-linejoin="bevel" stroke-miterlimit="10"/><path fill="blue" stroke="blue" paint-order="fill stroke markers" d=" M 91.65795889933821 305.13540409623005 A 1.5 1.5 0 1 1 91.65795814933827 305.13390409648" fill-opacity="0.3" stroke-linejoin="bevel" stroke-miterlimit="10"/><path fill="blue" stroke="blue" paint-order="fill stroke markers" d=" M 94.5350052246604 305.13540409623005 A 1.5 1.5 0 1 1 94.53500447466045 305.13390409648" fill-opacity="0.3" stroke-linejoin="bevel" stroke-miterlimit="10"/><path fill="blue" stroke="blue" paint-order="fill stroke markers" d=" M 97.41205154998258 305.13540409623005 A 1.5 1.5 0 1 1 97.41205079998264 305.13390409648" fill-opacity="0.3" stroke-linejoin="bevel" stroke-miterlimit="10"/><path fill="blue" stroke="blue" paint-order="fill stroke markers" d=" M 100.28909787530478 305.13540409623005 A 1.5 1.5 0 1 1 100.28909712530483 305.13390409648" fill-opacity="0.3" stroke-linejoin="bevel" stroke-miterlimit="10"/><path fill="blue" stroke="blue" paint-order="fill stroke markers" d=" M 103.16614420062696 305.13540409623005 A 1.5 1.5 0 1 1 103.16614345062702 305.13390409648" fill-opacity="0.3" stroke-linejoin="bevel" stroke-miterlimit="10"/><path fill="blue" stroke="blue" paint-order="fill stroke markers" d=" M 106.04319052594914 305.13540409623005 A 1.5 1.5 0 1 1 106.0431897759492 305.13390409648" fill-opacity="0.3" stroke-linejoin="bevel" stroke-miterlimit="10"/><path fill="blue" stroke="blue" paint-order="fill stroke markers" d=" M 108.92023685127134 305.13540409623005 A 1.5 1.5 0 1 1 108.9202361012714 305.13390409648" fill-opacity="0.3" stroke-linejoin="bevel" stroke-miterlimit="10"/><path fill="blue" stroke="blue" paint-order="fill stroke markers" d=" M 111.79728317659352 305.13540409623005 A 1.5 1.5 0 1 1 111.79728242659358 305.13390409648" fill-opacity="0.3" stroke-linejoin="bevel" stroke-miterlimit="10"/><path fill="blue" stroke="blue" paint-order="fill stroke markers" d=" M 113.23580633925462 77.54110697012206 A 1.5 1.5 0 1 1 113.23580558925468 77.53960697037206" fill-opacity="0.3" stroke-linejoin="bevel" stroke-miterlimit="10"/><path fill="blue" stroke="blue" paint-order="fill stroke markers" d=" M 114.67432950191571 79.67062753288465 A 1.5 1.5 0 1 1 114.67432875191577 79.66912753313466" fill-opacity="0.3" stroke-linejoin="bevel" stroke-miterlimit="10"/><path fill="blue" stroke="blue" paint-order="fill stroke markers" d=" M 116.1128526645768 82.90122552364633 A 1.5 1.5 0 1 1 116.11285191457686 82.89972552389634" fill-opacity="0.3" stroke-linejoin="bevel" stroke-miterlimit="10"/><path fill="blue" stroke="blue" paint-order="fill stroke markers" d=" M 117.5513758272379 85.19659899500357 A 1.5 1.5 0 1 1 117.55137507723796 85.19509899525357" fill-opacity="0.3" stroke-linejoin="bevel" stroke-miterlimit="10"/><path fill="blue" stroke="blue" paint-order="fill stroke markers" d=" M 118.98989898989899 86.25643230374322 A 1.5 1.5 0 1 1 118.98989823989905 86.25493230399323" fill-opacity="0.3" stroke-linejoin="bevel" stroke-miterlimit="10"/><path fill="blue" stroke="blue" paint-order="fill stroke markers" d=" M 120.42842215256009 88.03274849496827 A 1.5 1.5 0 1 1 120.42842140256015 88.03124849521828" fill-opacity="0.3" stroke-linejoin="bevel" stroke-miterlimit="10"/><path fill="blue" stroke="blue" paint-order="fill stroke markers" d=" M 121.86694531522119 90.22663186949791 A 1.5 1.5 0 1 1 121.86694456522125 90.22513186974791" fill-opacity="0.3" stroke-linejoin="bevel" stroke-miterlimit="10"/><path fill="blue" stroke="blue" paint-order="fill stroke markers" d=" M 123.30546847788227 92.04368178753387 A 1.5 1.5 0 1 1 123.30546772788233 92.04218178778387" fill-opacity="0.3" stroke-linejoin="bevel" stroke-miterlimit="10"/><path fill="blue" stroke="blue" paint-order="fill stroke markers" d=" M 124.74399164054336 94.37976298961141 A 1.5 1.5 0 1 1 124.74399089054342 94.37826298986141" fill-opacity="0.3" stroke-linejoin="bevel" stroke-miterlimit="10"/><path fill="blue" stroke="blue" paint-order="fill stroke markers" d=" M 126.18251480320446 96.24136591711596 A 1.5 1.5 0 1 1 126.18251405320451 96.23986591736596" fill-opacity="0.3" stroke-linejoin="bevel" stroke-miterlimit="10"/><path fill="blue" stroke="blue" paint-order="fill stroke markers" d=" M 127.62103796586555 99.41825613018005 A 1.5 1.5 0 1 1 127.62103721586561 99.41675613043006" fill-opacity="0.3" stroke-linejoin="bevel" stroke-miterlimit="10"/><path fill="blue" stroke="blue" paint-order="fill stroke markers" d=" M 129.05956112852664 102.59128863175269 A 1.5 1.5 0 1 1 129.0595603785267 102.5897886320027" fill-opacity="0.3" stroke-linejoin="bevel" stroke-miterlimit="10"/><path fill="blue" stroke="blue" paint-order="fill stroke markers" d=" M 130.49808429118775 104.41148626585931 A 1.5 1.5 0 1 1 130.4980835411878 104.40998626610931" fill-opacity="0.3" stroke-linejoin="bevel" stroke-miterlimit="10"/><path fill="blue" stroke="blue" paint-order="fill stroke markers" d=" M 131.93660745384884 106.89176046155924 A 1.5 1.5 0 1 1 131.9366067038489 106.89026046180925" fill-opacity="0.3" stroke-linejoin="bevel" stroke-miterlimit="10"/><path fill="blue" stroke="blue" paint-order="fill stroke markers" d=" M 133.37513061650992 110.23961256032564 A 1.5 1.5 0 1 1 133.37512986650998 110.23811256057564" fill-opacity="0.3" stroke-linejoin="bevel" stroke-miterlimit="10"/><path fill="blue" stroke="blue" paint-order="fill stroke markers" d=" M 134.81365377917103 113.6640825710785 A 1.5 1.5 0 1 1 134.8136530291711 113.6625825713285" fill-opacity="0.3" stroke-linejoin="bevel" stroke-miterlimit="10"/><path fill="blue" stroke="blue" paint-order="fill stroke markers" d=" M 136.25217694183212 114.97689614184583 A 1.5 1.5 0 1 1 136.25217619183218 114.97539614209583" fill-opacity="0.3" stroke-linejoin="bevel" stroke-miterlimit="10"/><path fill="blue" stroke="blue" paint-order="fill stroke markers" d=" M 137.6907001044932 117.80465005351826 A 1.5 1.5 0 1 1 137.69069935449326 117.80315005376826" fill-opacity="0.3" stroke-linejoin="bevel" stroke-miterlimit="10"/><path fill="blue" stroke="blue" paint-order="fill stroke markers" d=" M 139.12922326715432 117.71969127591174 A 1.5 1.5 0 1 1 139.12922251715437 117.71819127616175" fill-opacity="0.3" stroke-linejoin="bevel" stroke-miterlimit="10"/><path fill="blue" stroke="blue" paint-order="fill stroke markers" d=" M 140.5677464298154 122.19289771503708 A 1.5 1.5 0 1 1 140.56774567981546 122.19139771528708" fill-opacity="0.3" stroke-linejoin="bevel" stroke-miterlimit="10"/><path fill="blue" stroke="blue" paint-order="fill stroke markers" d=" M 142.00626959247649 124.82665054130243 A 1.5 1.5 0 1 1 142.00626884247654 124.82515054155243" fill-opacity="0.3" stroke-linejoin="bevel" stroke-miterlimit="10"/><path fill="blue" stroke="blue" paint-order="fill stroke markers" d=" M 143.80442354580288 126.64553421246927 A 1.5 1.5 0 1 1 143.80442279580294 126.64403421271928" fill-opacity="0.3" stroke-linejoin="bevel" stroke-miterlimit="10"/><path fill="blue" stroke="blue" paint-order="fill stroke markers" d=" M 146.32183908045977 131.57656951006098 A 1.5 1.5 0 1 1 146.32183833045983 131.57506951031098" fill-opacity="0.3" stroke-linejoin="bevel" stroke-miterlimit="10"/><path fill="blue" stroke="blue" paint-order="fill stroke markers" d=" M 149.19888540578194 136.1762686721163 A 1.5 1.5 0 1 1 149.198884655782 136.1747686723663" fill-opacity="0.3" stroke-linejoin="bevel" stroke-miterlimit="10"/><path fill="blue" stroke="blue" paint-order="fill stroke markers" d=" M 152.07593173110416 140.97364299392075 A 1.5 1.5 0 1 1 152.07593098110422 140.97214299417075" fill-opacity="0.3" stroke-linejoin="bevel" stroke-miterlimit="10"/><path fill="blue" stroke="blue" paint-order="fill stroke markers" d=" M 154.95297805642633 146.29887077309542 A 1.5 1.5 0 1 1 154.9529773064264 146.29737077334542" fill-opacity="0.3" stroke-linejoin="bevel" stroke-miterlimit="10"/><path fill="blue" stroke="blue" paint-order="fill stroke markers" d=" M 157.8300243817485 148.47719588709958 A 1.5 1.5 0 1 1 157.83002363174856 148.4756958873496" fill-opacity="0.3" stroke-linejoin="bevel" stroke-miterlimit="10"/><path fill="blue" stroke="blue" paint-order="fill stroke markers" d=" M 160.70707070707073 156.00154197960958 A 1.5 1.5 0 1 1 160.7070699570708 156.0000419798596" fill-opacity="0.3" stroke-linejoin="bevel" stroke-miterlimit="10"/><path fill="blue" stroke="blue" paint-order="fill stroke markers" d=" M 163.5841170323929 160.2508403836269 A 1.5 1.5 0 1 1 163.58411628239296 160.2493403838769" fill-opacity="0.3" stroke-linejoin="bevel" stroke-miterlimit="10"/><path fill="blue" stroke="blue" paint-order="fill stroke markers" d=" M 166.4611633577151 164.4523206439938 A 1.5 1.5 0 1 1 166.46116260771515 164.4508206442438" fill-opacity="0.3" stroke-linejoin="bevel" stroke-miterlimit="10"/><path fill="blue" stroke="blue" paint-order="fill stroke markers" d=" M 169.3382096830373 170.7459440417464 A 1.5 1.5 0 1 1 169.33820893303735 170.74444404199642" fill-opacity="0.3" stroke-linejoin="bevel" stroke-miterlimit="10"/><path fill="blue" stroke="blue" paint-order="fill stroke markers" d=" M 172.21525600835946 173.91840921311817 A 1.5 1.5 0 1 1 172.21525525835952 173.91690921336817" fill-opacity="0.3" stroke-linejoin="bevel" stroke-miterlimit="10"/><path fill="blue" stroke="blue" paint-order="fill stroke markers" d=" M 175.09230233368163 182.40752683499824 A 1.5 1.5 0 1 1 175.0923015836817 182.40602683524824" fill-opacity="0.3" stroke-linejoin="bevel" stroke-miterlimit="10"/><path fill="blue" stroke="blue" paint-order="fill stroke markers" d=" M 177.96934865900383 181.75608744932111 A 1.5 1.5 0 1 1 177.9693479090039 181.75458744957112" fill-opacity="0.3" stroke-linejoin="bevel" stroke-miterlimit="10"/><path fill="blue" stroke="blue" paint-order="fill stroke markers" d=" M 180.84639498432603 190.00415874857757 A 1.5 1.5 0 1 1 180.84639423432608 190.00265874882757" fill-opacity="0.3" stroke-linejoin="bevel" stroke-miterlimit="10"/><path fill="blue" stroke="blue" paint-order="fill stroke markers" d=" M 183.7234413096482 195.2119365141286 A 1.5 1.5 0 1 1 183.72344055964825 195.2104365143786" fill-opacity="0.3" stroke-linejoin="bevel" stroke-miterlimit="10"/><path fill="blue" stroke="blue" paint-order="fill stroke markers" d=" M 186.6004876349704 198.95537606797643 A 1.5 1.5 0 1 1 186.60048688497045 198.95387606822644" fill-opacity="0.3" stroke-linejoin="bevel" stroke-miterlimit="10"/><path fill="blue" stroke="blue" paint-order="fill stroke markers" d=" M 189.4775339602926 200.95553356991468 A 1.5 1.5 0 1 1 189.47753321029265 200.95403357016468" fill-opacity="0.3" stroke-linejoin="bevel" stroke-miterlimit="10"/><path fill="blue" stroke="blue" paint-order="fill stroke markers" d=" M 192.35458028561476 201.84660083714013 A 1.5 1.5 0 1 1 192.35457953561482 201.84510083739013" fill-opacity="0.3" stroke-linejoin="bevel" stroke-miterlimit="10"/><path fill="blue" stroke="blue" paint-order="fill stroke markers" d=" M 195.23162661093693 209.2800018880365 A 1.5 1.5 0 1 1 195.231625860937 209.2785018882865" fill-opacity="0.3" stroke-linejoin="bevel" stroke-miterlimit="10"/><path fill="blue" stroke="blue" paint-order="fill stroke markers" d=" M 198.10867293625915 212.60562609970407 A 1.5 1.5 0 1 1 198.1086721862592 212.60412609995407" fill-opacity="0.3" stroke-linejoin="bevel" stroke-miterlimit="10"/><path fill="blue" stroke="blue" paint-order="fill stroke markers" d=" M 200.98571926158132 216.79621760222713 A 1.5 1.5 0 1 1 200.98571851158138 216.79471760247714" fill-opacity="0.3" stroke-linejoin="bevel" stroke-miterlimit="10"/><path fill="blue" stroke="blue" paint-order="fill stroke markers" d=" M 203.8627655869035 220.20962166780646 A 1.5 1.5 0 1 1 203.86276483690355 220.20812166805646" fill-opacity="0.3" stroke-linejoin="bevel" stroke-miterlimit="10"/><path fill="blue" stroke="blue" paint-order="fill stroke markers" d=" M 206.73981191222572 221.11192420513146 A 1.5 1.5 0 1 1 206.73981116222578 221.11042420538146" fill-opacity="0.3" stroke-linejoin="bevel" stroke-miterlimit="10"/><path fill="blue" stroke="blue" paint-order="fill stroke markers" d=" M 209.6168582375479 226.19561337141002 A 1.5 1.5 0 1 1 209.61685748754795 226.19411337166002" fill-opacity="0.3" stroke-linejoin="bevel" stroke-miterlimit="10"/><path fill="blue" stroke="blue" paint-order="fill stroke markers" d=" M 212.4939045628701 231.01916308670852 A 1.5 1.5 0 1 1 212.49390381287017 231.01766308695852" fill-opacity="0.3" stroke-linejoin="bevel" stroke-miterlimit="10"/><path fill="blue" stroke="blue" paint-order="fill stroke markers" d=" M 216.52176941832113 234.55525498466068 A 1.5 1.5 0 1 1 216.5217686683212 234.55375498491068" fill-opacity="0.3" stroke-linejoin="bevel" stroke-miterlimit="10"/><path fill="blue" stroke="blue" paint-order="fill stroke markers" d=" M 222.56356670149773 246.77280286814246 A 1.5 1.5 0 1 1 222.5635659514978 246.77130286839247" fill-opacity="0.3" stroke-linejoin="bevel" stroke-miterlimit="10"/><path fill="blue" stroke="blue" paint-order="fill stroke markers" d=" M 229.75618251480319 251.34229450012506 A 1.5 1.5 0 1 1 229.75618176480324 251.34079450037507" fill-opacity="0.3" stroke-linejoin="bevel" stroke-miterlimit="10"/><path fill="blue" stroke="blue" paint-order="fill stroke markers" d=" M 236.9487983281087 262.7211893512549 A 1.5 1.5 0 1 1 236.94879757810875 262.7196893515049" fill-opacity="0.3" stroke-linejoin="bevel" stroke-miterlimit="10"/><path fill="blue" stroke="blue" paint-order="fill stroke markers" d=" M 244.14141414141415 269.2865630401605 A 1.5 1.5 0 1 1 244.1414133914142 269.2850630404105" fill-opacity="0.3" stroke-linejoin="bevel" stroke-miterlimit="10"/><path fill="blue" stroke="blue" paint-order="fill stroke markers" d=" M 251.3340299547196 276.31956456591746 A 1.5 1.5 0 1 1 251.33402920471966 276.31806456616744" fill-opacity="0.3" stroke-linejoin="bevel" stroke-miterlimit="10"/><path fill="blue" stroke="blue" paint-order="fill stroke markers" d=" M 258.5266457680251 282.8701137977634 A 1.5 1.5 0 1 1 258.5266450180252 282.86861379801337" fill-opacity="0.3" stroke-linejoin="bevel" stroke-miterlimit="10"/><path fill="blue" stroke="blue" paint-order="fill stroke markers" d=" M 265.71926158133056 292.4638492826127 A 1.5 1.5 0 1 1 265.71926083133064 292.4623492828627" fill-opacity="0.3" stroke-linejoin="bevel" stroke-miterlimit="10"/><path fill="blue" stroke="blue" paint-order="fill stroke markers" d=" M 272.911877394636 292.96262449701726 A 1.5 1.5 0 1 1 272.9118766446361 292.96112449726724" fill-opacity="0.3" stroke-linejoin="bevel" stroke-miterlimit="10"/><path fill="blue" stroke="blue" paint-order="fill stroke markers" d=" M 280.10449320794146 306.5139323726711 A 1.5 1.5 0 1 1 280.10449245794155 306.51243237292107" fill-opacity="0.3" stroke-linejoin="bevel" stroke-miterlimit="10"/><path fill="blue" stroke="blue" paint-order="fill stroke markers" d=" M 287.29710902124697 308.84970087992497 A 1.5 1.5 0 1 1 287.29710827124705 308.84820088017494" fill-opacity="0.3" stroke-linejoin="bevel" stroke-miterlimit="10"/><path fill="blue" stroke="blue" paint-order="fill stroke markers" d=" M 294.4897248345524 314.95046577184416 A 1.5 1.5 0 1 1 294.4897240845525 314.94896577209414" fill-opacity="0.3" stroke-linejoin="bevel" stroke-miterlimit="10"/><path fill="blue" stroke="blue" paint-order="fill stroke markers" d=" M 301.68234064785787 320.83756156171324 A 1.5 1.5 0 1 1 301.68233989785796 320.8360615619632" fill-opacity="0.3" stroke-linejoin="bevel" stroke-miterlimit="10"/><path fill="blue" stroke="blue" paint-order="fill stroke markers" d=" M 308.8749564611634 328.8793105548201 A 1.5 1.5 0 1 1 308.87495571116347 328.8778105550701" fill-opacity="0.3" stroke-linejoin="bevel" stroke-miterlimit="10"/><path fill="blue" stroke="blue" paint-order="fill stroke markers" d=" M 316.06757227446883 334.21661253973616 A 1.5 1.5 0 1 1 316.0675715244689 334.21511253998614" fill-opacity="0.3" stroke-linejoin="bevel" stroke-miterlimit="10"/><path fill="blue" stroke="blue" paint-order="fill stroke markers" d=" M 323.2601880877743 336.46210601099415 A 1.5 1.5 0 1 1 323.26018733777437 336.4606060112441" fill-opacity="0.3" stroke-linejoin="bevel" stroke-miterlimit="10"/><path fill="blue" stroke="blue" paint-order="fill stroke markers" d=" M 330.4528039010798 342.8984100168357 A 1.5 1.5 0 1 1 330.4528031510799 342.8969100170857" fill-opacity="0.3" stroke-linejoin="bevel" stroke-miterlimit="10"/><path fill="blue" stroke="blue" paint-order="fill stroke markers" d=" M 337.64541971438524 350.1169475443547 A 1.5 1.5 0 1 1 337.6454189643853 350.11544754460465" fill-opacity="0.3" stroke-linejoin="bevel" stroke-miterlimit="10"/><path fill="blue" stroke="blue" paint-order="fill stroke markers" d=" M 344.8380355276907 357.08796720822505 A 1.5 1.5 0 1 1 344.8380347776908 357.086467208475" fill-opacity="0.3" stroke-linejoin="bevel" stroke-miterlimit="10"/><path fill="blue" stroke="blue" paint-order="fill stroke markers" d=" M 352.0306513409962 351.30530952670154 A 1.5 1.5 0 1 1 352.0306505909963 351.3038095269515" fill-opacity="0.3" stroke-linejoin="bevel" stroke-miterlimit="10"/><path fill="blue" stroke="blue" paint-order="fill stroke markers" d=" M 359.22326715430165 356.0885524077842 A 1.5 1.5 0 1 1 359.22326640430174 356.0870524080342" fill-opacity="0.3" stroke-linejoin="bevel" stroke-miterlimit="10"/><path fill="blue" stroke="blue" paint-order="fill stroke markers" d=" M 366.4158829676071 372.11813429144365 A 1.5 1.5 0 1 1 366.4158822176072 372.11663429169363" fill-opacity="0.3" stroke-linejoin="bevel" stroke-miterlimit="10"/><path fill="blue" stroke="blue" paint-order="fill stroke markers" d=" M 373.60849878091256 371.31393571338947 A 1.5 1.5 0 1 1 373.60849803091264 371.31243571363945" fill-opacity="0.3" stroke-linejoin="bevel" stroke-miterlimit="10"/><path fill="blue" stroke="blue" paint-order="fill stroke markers" d=" M 380.80111459421806 375.1432777729247 A 1.5 1.5 0 1 1 380.80111384421815 375.1417777731747" fill-opacity="0.3" stroke-linejoin="bevel" stroke-miterlimit="10"/><path fill="blue" stroke="blue" paint-order="fill stroke markers" d=" M 387.9937304075235 389.5847350284798 A 1.5 1.5 0 1 1 387.9937296575236 389.5832350287298" fill-opacity="0.3" stroke-linejoin="bevel" stroke-miterlimit="10"/><path fill="blue" stroke="blue" paint-order="fill stroke markers" d=" M 395.186346220829 372.64859311557063 A 1.5 1.5 0 1 1 395.1863454708291 372.6470931158206" fill-opacity="0.3" stroke-linejoin="bevel" stroke-miterlimit="10"/><path fill="blue" stroke="blue" paint-order="fill stroke markers" d=" M 402.3789620341345 377.7320262505241 A 1.5 1.5 0 1 1 402.37896128413456 377.73052625077406" fill-opacity="0.3" stroke-linejoin="bevel" stroke-miterlimit="10"/><path fill="blue" stroke="blue" paint-order="fill stroke markers" d=" M 409.5715778474399 400.64754323427667 A 1.5 1.5 0 1 1 409.57157709744 400.64604323452664" fill-opacity="0.3" stroke-linejoin="bevel" stroke-miterlimit="10"/><path fill="blue" stroke="blue" paint-order="fill stroke markers" d=" M 416.7641936607454 386.99413074614876 A 1.5 1.5 0 1 1 416.76419291074546 386.99263074639873" fill-opacity="0.3" stroke-linejoin="bevel" stroke-miterlimit="10"/><path fill="blue" stroke="blue" paint-order="fill stroke markers" d=" M 423.9568094740509 403.9345893759619 A 1.5 1.5 0 1 1 423.956808724051 403.93308937621185" fill-opacity="0.3" stroke-linejoin="bevel" stroke-miterlimit="10"/><path fill="blue" stroke="blue" paint-order="fill stroke markers" d=" M 431.14942528735634 386.34891212827074 A 1.5 1.5 0 1 1 431.1494245373564 386.3474121285207" fill-opacity="0.3" stroke-linejoin="bevel" stroke-miterlimit="10"/><path fill="blue" stroke="blue" paint-order="fill stroke markers" d=" M 438.3420411006618 396.0018640205464 A 1.5 1.5 0 1 1 438.3420403506619 396.0003640207964" fill-opacity="0.3" stroke-linejoin="bevel" stroke-miterlimit="10"/><path fill="blue" stroke="blue" paint-order="fill stroke markers" d=" M 445.5346569139673 399.722861507714 A 1.5 1.5 0 1 1 445.5346561639674 399.721361507964" fill-opacity="0.3" stroke-linejoin="bevel" stroke-miterlimit="10"/><path fill="blue" stroke="blue" paint-order="fill stroke markers" d=" M 452.72727272727275 420.5454545454545 A 1.5 1.5 0 1 1 452.72727197727284 420.5439545457045" fill-opacity="0.3" stroke-linejoin="bevel" stroke-miterlimit="10"/></g></g></g><g clip-path="url(#sXXnToUvMUkT)"><g><g><path fill="none" stroke="none"/><path fill="none" stroke="red" paint-order="fill stroke markers" d=" M 75.77272727272728 51.45454545454547 L 78.64977359804946 52.126962763306096 L 81.52681992337165 53.0645747094955 L 84.40386624869383 54.26892762794088 L 87.28091257401603 55.74059716403647 L 90.15795889933821 57.47601004424885 L 93.0350052246604 59.470761773467984 L 95.91205154998258 61.720460771643616 L 98.78909787530478 64.22068316256292 L 101.66614420062696 66.96641535802789 L 104.54319052594914 69.95061606245343 L 107.42023685127134 73.16587556727598 L 110.29728317659352 76.60431202719798 L 111.73580633925462 78.40496001595687 L 113.17432950191571 80.25863859115111 L 114.6128526645768 82.16404263923505 L 116.0513758272379 84.12004738168608 L 117.48989898989899 86.12479508450411 L 118.92842215256009 88.17655738403514 L 120.36694531522119 90.27374415857659 L 121.80546847788227 92.41475051598513 L 123.24399164054336 94.59812041395173 L 124.68251480320446 96.82187446439156 L 126.12103796586555 99.08450335705109 L 127.55956112852664 101.38430409173387 L 128.99808429118775 103.71972639528309 L 130.43660745384884 106.08826114573168 L 131.87513061650992 108.48787237693853 L 133.31365377917103 110.91587360159028 L 134.75217694183212 113.36986815955464 L 136.1907001044932 115.84800413644345 L 137.62922326715432 118.34734473226084 L 139.0677464298154 120.86570921111107 L 140.50626959247649 123.40088606598673 L 142.30442354580288 126.58978116598851 L 144.82183908045977 131.0829409350918 L 147.69888540578194 136.24256679578562 L 150.57593173110416 141.40895481043592 L 153.45297805642633 146.56172845846578 L 156.3300243817485 151.67954778097382 L 159.20707070707073 156.74360444975707 L 162.0841170323929 161.73989960322106 L 164.9611633577151 166.65472350285597 L 167.8382096830373 171.4761551156294 L 170.71525600835946 176.19096146750894 L 173.59230233368163 180.7885158689656 L 176.46934865900383 185.2679467320675 L 179.34639498432603 189.63210729394382 L 182.2234413096482 193.88174953773125 L 185.1004876349704 198.01905680950335 L 187.9775339602926 202.0472062809155 L 190.85458028561476 205.97653015035553 L 193.73162661093693 209.8175758727481 L 196.60867293625915 213.58184416599084 L 199.48571926158132 217.27984456203717 L 202.3627655869035 220.923565622709 L 205.23981191222572 224.5208197177007 L 208.1168582375479 228.08066870405077 L 210.9939045628701 231.61211601885236 L 215.02176941832113 236.52292125449682 L 221.06356670149773 243.84052915681366 L 228.25618251480319 252.46201028686275 L 235.4487983281087 260.94485598279 L 242.64141414141415 269.162679968134 L 249.8340299547196 276.971162432408 L 257.0266457680251 284.23729600721157 L 264.21926158133056 290.85754833872295 L 271.411877394636 296.83502016842374 L 278.60449320794146 302.22554084533306 L 285.79710902124697 307.1878069495724 L 292.9897248345524 311.91054632246 L 300.18234064785787 316.595410250566 L 307.3749564611634 321.4326853522997 L 314.56757227446883 326.55105769240026 L 321.7601880877743 332.0442021223582 L 328.9528039010798 337.92508495799655 L 336.14541971438524 344.1703577744724 L 343.3380355276907 350.6927519953943 L 350.5306513409962 357.3811370301325 L 357.72326715430165 364.0906921040834 L 364.9158829676071 370.66674866535504 L 372.10849878091256 376.94708834816623 L 379.30111459421806 382.7702602857138 L 386.4937304075235 387.99215524768294 L 393.686346220829 392.482574080033 L 400.8789620341345 396.1540816041033 L 408.0715778474399 398.9483751627937 L 415.2641936607454 400.8834240577163 L 422.4568094740509 402.01405908355594 L 429.64942528735634 402.4736689574969 L 436.8420411006618 402.423714636679 L 444.0346569139673 402.057775391429 L 451.22727272727275 401.570078879681" stroke-linejoin="bevel" stroke-miterlimit="10" stroke-width="3"/></g></g></g><g clip-path="url(#BZBnLoXcpAZh)"><g><g/><g><path fill="#ffffff" stroke="#e5e5e5" paint-order="fill stroke markers" d=" M 357.20000076293945 43 L 460 43 L 460 106 L 357.20000076293945 106 L 357.20000076293945 43 Z" fill-opacity="0.95" stroke-linejoin="bevel" stroke-miterlimit="10" stroke-opacity="0.5"/><text fill="#444444" stroke="none" font-family="helvetica" font-size="10pt" font-style="normal" font-weight="normal" text-decoration="normal" x="392.20000076293945" y="63" text-anchor="start" dominant-baseline="central">Observed</text><path fill="blue" stroke="blue" paint-order="fill stroke markers" d=" M 381.20000076293945 63 A 4 4 0 1 1 381.19999876293963 62.99600000066666" fill-opacity="0.3" stroke-linejoin="bevel" stroke-miterlimit="10"/><text fill="#444444" stroke="none" font-family="helvetica" font-size="10pt" font-style="normal" font-weight="normal" text-decoration="normal" x="392.20000076293945" y="86" text-anchor="start" dominant-baseline="central">Predicted</text><g><path fill="none" stroke="red" paint-order="fill stroke markers" d=" M 367.20000076293945 86 L 387.20000076293945 86" stroke-linejoin="bevel" stroke-miterlimit="10" stroke-width="3"/></g></g></g></g><g><g fill="#444444"><path fill="" stroke="none" d=""/><g transform="translate(263.5,5)"><path fill="none" stroke="none"/><text fill="" stroke="none" font-family="helvetica" font-size="12pt" font-style="normal" font-weight="bold" text-decoration="normal" x="0" y="0" text-anchor="middle" dominant-baseline="text-before-edge">Model fit for SASDEE2</text></g></g></g><g/><g><g fill="#444444"><path fill="none" stroke="black" paint-order="fill stroke markers" d=" M 57 439 L 470 439" stroke-linejoin="bevel" stroke-miterlimit="10"/><path fill="none" stroke="black" paint-order="fill stroke markers" d=" M 70 445 L 70 437" stroke-linejoin="bevel" stroke-miterlimit="10"/><path fill="none" stroke="black" paint-order="fill stroke markers" d=" M 142 445 L 142 437" stroke-linejoin="bevel" stroke-miterlimit="10"/><path fill="none" stroke="black" paint-order="fill stroke markers" d=" M 214 445 L 214 437" stroke-linejoin="bevel" stroke-miterlimit="10"/><path fill="none" stroke="black" paint-order="fill stroke markers" d=" M 286 445 L 286 437" stroke-linejoin="bevel" stroke-miterlimit="10"/><path fill="none" stroke="black" paint-order="fill stroke markers" d=" M 358 445 L 358 437" stroke-linejoin="bevel" stroke-miterlimit="10"/><path fill="none" stroke="black" paint-order="fill stroke markers" d=" M 430 445 L 430 437" stroke-linejoin="bevel" stroke-miterlimit="10"/><path fill="none" stroke="black" paint-order="fill stroke markers" d=" M 70 443 L 70 439" stroke-linejoin="bevel" stroke-miterlimit="10"/><path fill="none" stroke="black" paint-order="fill stroke markers" d=" M 84 443 L 84 439" stroke-linejoin="bevel" stroke-miterlimit="10"/><path fill="none" stroke="black" paint-order="fill stroke markers" d=" M 99 443 L 99 439" stroke-linejoin="bevel" stroke-miterlimit="10"/><path fill="none" stroke="black" paint-order="fill stroke markers" d=" M 113 443 L 113 439" stroke-linejoin="bevel" stroke-miterlimit="10"/><path fill="none" stroke="black" paint-order="fill stroke markers" d=" M 128 443 L 128 439" stroke-linejoin="bevel" stroke-miterlimit="10"/><path fill="none" stroke="black" paint-order="fill stroke markers" d=" M 142 443 L 142 439" stroke-linejoin="bevel" stroke-miterlimit="10"/><path fill="none" stroke="black" paint-order="fill stroke markers" d=" M 156 443 L 156 439" stroke-linejoin="bevel" stroke-miterlimit="10"/><path fill="none" stroke="black" paint-order="fill stroke markers" d=" M 171 443 L 171 439" stroke-linejoin="bevel" stroke-miterlimit="10"/><path fill="none" stroke="black" paint-order="fill stroke markers" d=" M 185 443 L 185 439" stroke-linejoin="bevel" stroke-miterlimit="10"/><path fill="none" stroke="black" paint-order="fill stroke markers" d=" M 199 443 L 199 439" stroke-linejoin="bevel" stroke-miterlimit="10"/><path fill="none" stroke="black" paint-order="fill stroke markers" d=" M 214 443 L 214 439" stroke-linejoin="bevel" stroke-miterlimit="10"/><path fill="none" stroke="black" paint-order="fill stroke markers" d=" M 228 443 L 228 439" stroke-linejoin="bevel" stroke-miterlimit="10"/><path fill="none" stroke="black" paint-order="fill stroke markers" d=" M 243 443 L 243 439" stroke-linejoin="bevel" stroke-miterlimit="10"/><path fill="none" stroke="black" paint-order="fill stroke markers" d=" M 257 443 L 257 439" stroke-linejoin="bevel" stroke-miterlimit="10"/><path fill="none" stroke="black" paint-order="fill stroke markers" d=" M 271 443 L 271 439" stroke-linejoin="bevel" stroke-miterlimit="10"/><path fill="none" stroke="black" paint-order="fill stroke markers" d=" M 286 443 L 286 439" stroke-linejoin="bevel" stroke-miterlimit="10"/><path fill="none" stroke="black" paint-order="fill stroke markers" d=" M 300 443 L 300 439" stroke-linejoin="bevel" stroke-miterlimit="10"/><path fill="none" stroke="black" paint-order="fill stroke markers" d=" M 315 443 L 315 439" stroke-linejoin="bevel" stroke-miterlimit="10"/><path fill="none" stroke="black" paint-order="fill stroke markers" d=" M 329 443 L 329 439" stroke-linejoin="bevel" stroke-miterlimit="10"/><path fill="none" stroke="black" paint-order="fill stroke markers" d=" M 343 443 L 343 439" stroke-linejoin="bevel" stroke-miterlimit="10"/><path fill="none" stroke="black" paint-order="fill stroke markers" d=" M 358 443 L 358 439" stroke-linejoin="bevel" stroke-miterlimit="10"/><path fill="none" stroke="black" paint-order="fill stroke markers" d=" M 372 443 L 372 439" stroke-linejoin="bevel" stroke-miterlimit="10"/><path fill="none" stroke="black" paint-order="fill stroke markers" d=" M 386 443 L 386 439" stroke-linejoin="bevel" stroke-miterlimit="10"/><path fill="none" stroke="black" paint-order="fill stroke markers" d=" M 401 443 L 401 439" stroke-linejoin="bevel" stroke-miterlimit="10"/><path fill="none" stroke="black" paint-order="fill stroke markers" d=" M 415 443 L 415 439" stroke-linejoin="bevel" stroke-miterlimit="10"/><path fill="none" stroke="black" paint-order="fill stroke markers" d=" M 430 443 L 430 439" stroke-linejoin="bevel" stroke-miterlimit="10"/><path fill="none" stroke="black" paint-order="fill stroke markers" d=" M 444 443 L 444 439" stroke-linejoin="bevel" stroke-miterlimit="10"/><path fill="" stroke="black" paint-order="fill stroke markers" d=" M 458 443 L 458 439" stroke-linejoin="bevel" stroke-miterlimit="10"/><g transform="translate(70,450) rotate(0,0,0)"><text fill="" stroke="none" font-family="helvetica" font-size="14pt" font-style="normal" font-weight="normal" text-decoration="normal" x="0" y="0" text-anchor="middle" dominant-baseline="hanging">0</text><g transform="rotate(0,0,0) translate(-70,-450) translate(142,450) rotate(0,0,0)"><text fill="" stroke="none" font-family="helvetica" font-size="14pt" font-style="normal" font-weight="normal" text-decoration="normal" x="0" y="0" text-anchor="middle" dominant-baseline="hanging">0.05</text><g transform="rotate(0,0,0) translate(-142,-450) translate(214,450) rotate(0,0,0)"><text fill="" stroke="none" font-family="helvetica" font-size="14pt" font-style="normal" font-weight="normal" text-decoration="normal" x="0" y="0" text-anchor="middle" dominant-baseline="hanging">0.1</text><g transform="rotate(0,0,0) translate(-214,-450) translate(286,450) rotate(0,0,0)"><text fill="" stroke="none" font-family="helvetica" font-size="14pt" font-style="normal" font-weight="normal" text-decoration="normal" x="0" y="0" text-anchor="middle" dominant-baseline="hanging">0.15</text><g transform="rotate(0,0,0) translate(-286,-450) translate(358,450) rotate(0,0,0)"><text fill="" stroke="none" font-family="helvetica" font-size="14pt" font-style="normal" font-weight="normal" text-decoration="normal" x="0" y="0" text-anchor="middle" dominant-baseline="hanging">0.2</text><g transform="rotate(0,0,0) translate(-358,-450) translate(430,450) rotate(0,0,0)"><text fill="" stroke="none" font-family="helvetica" font-size="14pt" font-style="normal" font-weight="normal" text-decoration="normal" x="0" y="0" text-anchor="middle" dominant-baseline="hanging">0.25</text><g transform="rotate(0,0,0) translate(-430,-450) translate(264,477) rotate(0,0,0)"><text fill="" stroke="none" font-family="helvetica" font-size="14pt" font-style="italic" font-weight="normal" text-decoration="normal" x="0" y="0" text-anchor="middle" dominant-baseline="hanging">q nm⁻¹</text><g transform="rotate(0,0,0) translate(-264,-477)"/></g></g></g></g></g></g></g></g></g><g><g fill="#444444"><path fill="none" stroke="black" paint-order="fill stroke markers" d=" M 57 439 L 57 33" stroke-linejoin="bevel" stroke-miterlimit="10"/><path fill="none" stroke="black" paint-order="fill stroke markers" d=" M 51 369 L 59 369" stroke-linejoin="bevel" stroke-miterlimit="10"/><path fill="none" stroke="black" paint-order="fill stroke markers" d=" M 51 270 L 59 270" stroke-linejoin="bevel" stroke-miterlimit="10"/><path fill="none" stroke="black" paint-order="fill stroke markers" d=" M 51 171 L 59 171" stroke-linejoin="bevel" stroke-miterlimit="10"/><path fill="none" stroke="black" paint-order="fill stroke markers" d=" M 51 72 L 59 72" stroke-linejoin="bevel" stroke-miterlimit="10"/><path fill="none" stroke="black" paint-order="fill stroke markers" d=" M 53 388 L 57 388" stroke-linejoin="bevel" stroke-miterlimit="10"/><path fill="none" stroke="black" paint-order="fill stroke markers" d=" M 53 408 L 57 408" stroke-linejoin="bevel" stroke-miterlimit="10"/><path fill="none" stroke="black" paint-order="fill stroke markers" d=" M 53 428 L 57 428" stroke-linejoin="bevel" stroke-miterlimit="10"/><path fill="none" stroke="black" paint-order="fill stroke markers" d=" M 53 369 L 57 369" stroke-linejoin="bevel" stroke-miterlimit="10"/><path fill="none" stroke="black" paint-order="fill stroke markers" d=" M 53 349 L 57 349" stroke-linejoin="bevel" stroke-miterlimit="10"/><path fill="none" stroke="black" paint-order="fill stroke markers" d=" M 53 329 L 57 329" stroke-linejoin="bevel" stroke-miterlimit="10"/><path fill="none" stroke="black" paint-order="fill stroke markers" d=" M 53 309 L 57 309" stroke-linejoin="bevel" stroke-miterlimit="10"/><path fill="none" stroke="black" paint-order="fill stroke markers" d=" M 53 290 L 57 290" stroke-linejoin="bevel" stroke-miterlimit="10"/><path fill="none" stroke="black" paint-order="fill stroke markers" d=" M 53 270 L 57 270" stroke-linejoin="bevel" stroke-miterlimit="10"/><path fill="none" stroke="black" paint-order="fill stroke markers" d=" M 53 250 L 57 250" stroke-linejoin="bevel" stroke-miterlimit="10"/><path fill="none" stroke="black" paint-order="fill stroke markers" d=" M 53 230 L 57 230" stroke-linejoin="bevel" stroke-miterlimit="10"/><path fill="none" stroke="black" paint-order="fill stroke markers" d=" M 53 210 L 57 210" stroke-linejoin="bevel" stroke-miterlimit="10"/><path fill="none" stroke="black" paint-order="fill stroke markers" d=" M 53 191 L 57 191" stroke-linejoin="bevel" stroke-miterlimit="10"/><path fill="none" stroke="black" paint-order="fill stroke markers" d=" M 53 171 L 57 171" stroke-linejoin="bevel" stroke-miterlimit="10"/><path fill="none" stroke="black" paint-order="fill stroke markers" d=" M 53 151 L 57 151" stroke-linejoin="bevel" stroke-miterlimit="10"/><path fill="none" stroke="black" paint-order="fill stroke markers" d=" M 53 131 L 57 131" stroke-linejoin="bevel" stroke-miterlimit="10"/><path fill="none" stroke="black" paint-order="fill stroke markers" d=" M 53 112 L 57 112" stroke-linejoin="bevel" stroke-miterlimit="10"/><path fill="none" stroke="black" paint-order="fill stroke markers" d=" M 53 92 L 57 92" stroke-linejoin="bevel" stroke-miterlimit="10"/><path fill="none" stroke="black" paint-order="fill stroke markers" d=" M 53 72 L 57 72" stroke-linejoin="bevel" stroke-miterlimit="10"/><path fill="" stroke="black" paint-order="fill stroke markers" d=" M 53 52 L 57 52" stroke-linejoin="bevel" stroke-miterlimit="10"/><g transform="translate(46,369) rotate(0,0,0)"><text fill="" stroke="none" font-family="helvetica" font-size="14pt" font-style="normal" font-weight="normal" text-decoration="normal" x="0" y="0" text-anchor="end" dominant-baseline="central">-1</text><g transform="rotate(0,0,0) translate(-46,-369) translate(46,270) rotate(0,0,0)"><text fill="" stroke="none" font-family="helvetica" font-size="14pt" font-style="normal" font-weight="normal" text-decoration="normal" x="0" y="0" text-anchor="end" dominant-baseline="central">0</text><g transform="rotate(0,0,0) translate(-46,-270) translate(46,171) rotate(0,0,0)"><text fill="" stroke="none" font-family="helvetica" font-size="14pt" font-style="normal" font-weight="normal" text-decoration="normal" x="0" y="0" text-anchor="end" dominant-baseline="central">1</text><g transform="rotate(0,0,0) translate(-46,-171) translate(46,72) rotate(0,0,0)"><text fill="" stroke="none" font-family="helvetica" font-size="14pt" font-style="normal" font-weight="normal" text-decoration="normal" x="0" y="0" text-anchor="end" dominant-baseline="central">2</text><g transform="rotate(0,0,0) translate(-46,-72) translate(23,236) rotate(-90,0,0)"><text fill="" stroke="none" font-family="helvetica" font-size="14pt" font-style="italic" font-weight="normal" text-decoration="normal" x="0" y="0" text-anchor="middle" dominant-baseline="alphabetic">Log I(q)</text><g transform="rotate(90,0,0) translate(-23,-236)"/></g></g></g></g></g></g></g><g clip-path="url(#epGTExxalTLu)"><g/></g></g></svg>