<svg version="1.1" xmlns="http://www.w3.org/2000/svg" xmlns:xlink="http://www.w3.org/1999/xlink" width="500" height="500" style="width: 500px; height: 500px;"><defs><clipPath id="VNVGcnxhNxAv"><path fill="none" stroke="none" d=" M 67 33 L 470 33 L 470 439 L 67 439 L 67 33 Z"/></clipPath><clipPath id="rqublvDCmENA"><path fill="none" stroke="none" d=" M 67 33 L 470 33 L 470 439 L 67 439 L 67 33 Z"/></clipPath><clipPath id="uJwGVryMSUbz"><path fill="none" stroke="none" d=" M 67 33 L 470 33 L 470 439 L 67 439 L 67 33 Z"/></clipPath><clipPath id="RWlLzpAmLkyk"><path fill="none" stroke="none" d=" M 67 33 L 470 33 L 470 439 L 67 439 L 67 33 Z"/></clipPath><clipPath id="EhvGBRqzwbQn"><path fill="none" stroke="none" d=" M 67 33 L 470 33 L 470 439 L 67 439 L 67 33 Z"/></clipPath><clipPath id="TDtLzKvhrpEq"><path fill="none" stroke="none" d=" M 67 33 L 470 33 L 470 439 L 67 439 L 67 33 Z"/></clipPath><clipPath id="pBZgTboTqhyu"><path fill="none" stroke="none" d=" M 67 33 L 470 33 L 470 439 L 67 439 L 67 33 Z"/></clipPath><clipPath id="KWGEhgTglqgA"><path fill="none" stroke="none" d=" M 67 33 L 470 33 L 470 439 L 67 439 L 67 33 Z"/></clipPath></defs><g transform="scale(1,1) translate(0.5,0.5) scale(1,1) translate(0.5,0.5)"><rect fill="#ffffff" stroke="none" x="0" y="0" width="500" height="500"/><rect fill="#FFFFFF" stroke="none" x="67" y="33" width="403" height="406"/><rect fill="#ffffff" stroke="none" x="67" y="33" width="403" height="406"/><g><rect fill="none" stroke="#e5e5e5" x="67" y="33" width="403" height="406" stroke-linejoin="bevel" stroke-miterlimit="10"/></g><g clip-path="url(#EhvGBRqzwbQn)"><g><g><path fill="none" stroke="#e5e5e5" paint-order="fill stroke markers" d=" M 118 439 L 118 33" stroke-linejoin="bevel" stroke-miterlimit="10"/><path fill="none" stroke="#e5e5e5" paint-order="fill stroke markers" d=" M 196 439 L 196 33" stroke-linejoin="bevel" stroke-miterlimit="10"/><path fill="none" stroke="#e5e5e5" paint-order="fill stroke markers" d=" M 273 439 L 273 33" stroke-linejoin="bevel" stroke-miterlimit="10"/><path fill="none" stroke="#e5e5e5" paint-order="fill stroke markers" d=" M 351 439 L 351 33" stroke-linejoin="bevel" stroke-miterlimit="10"/><path fill="none" stroke="#e5e5e5" paint-order="fill stroke markers" d=" M 428 439 L 428 33" stroke-linejoin="bevel" stroke-miterlimit="10"/></g></g></g><g clip-path="url(#TDtLzKvhrpEq)"><g><g><path fill="none" stroke="#e5e5e5" paint-order="fill stroke markers" d=" M 67 434 L 470 434" stroke-linejoin="bevel" stroke-miterlimit="10"/><path fill="none" stroke="#e5e5e5" paint-order="fill stroke markers" d=" M 67 373 L 470 373" stroke-linejoin="bevel" stroke-miterlimit="10"/><path fill="none" stroke="#e5e5e5" paint-order="fill stroke markers" d=" M 67 313 L 470 313" stroke-linejoin="bevel" stroke-miterlimit="10"/><path fill="none" stroke="#e5e5e5" paint-order="fill stroke markers" d=" M 67 253 L 470 253" stroke-linejoin="bevel" stroke-miterlimit="10"/><path fill="none" stroke="#e5e5e5" paint-order="fill stroke markers" d=" M 67 192 L 470 192" stroke-linejoin="bevel" stroke-miterlimit="10"/><path fill="none" stroke="#e5e5e5" paint-order="fill stroke markers" d=" M 67 132 L 470 132" stroke-linejoin="bevel" stroke-miterlimit="10"/><path fill="none" stroke="#e5e5e5" paint-order="fill stroke markers" d=" M 67 71 L 470 71" stroke-linejoin="bevel" stroke-miterlimit="10"/></g></g></g><g clip-path="url(#pBZgTboTqhyu)"><g><g><path fill="none" stroke="none"/><path fill="blue" stroke="blue" paint-order="fill stroke markers" d=" M 87.81818181818183 420.5454545454545 A 2.5 2.5 0 1 1 87.81818056818193 420.54295454587117" fill-opacity="0.3" stroke-linejoin="bevel" stroke-miterlimit="10"/><path fill="blue" stroke="blue" paint-order="fill stroke markers" d=" M 89.37057010785824 416.98384495935 A 2.5 2.5 0 1 1 89.37056885785834 416.98134495976666" fill-opacity="0.3" stroke-linejoin="bevel" stroke-miterlimit="10"/><path fill="blue" stroke="blue" paint-order="fill stroke markers" d=" M 90.92295839753467 414.2916171179676 A 2.5 2.5 0 1 1 90.92295714753477 414.28911711838424" fill-opacity="0.3" stroke-linejoin="bevel" stroke-miterlimit="10"/><path fill="blue" stroke="blue" paint-order="fill stroke markers" d=" M 92.4753466872111 410.920366587527 A 2.5 2.5 0 1 1 92.4753454372112 410.91786658794365" fill-opacity="0.3" stroke-linejoin="bevel" stroke-miterlimit="10"/><path fill="blue" stroke="blue" paint-order="fill stroke markers" d=" M 94.02773497688753 406.52811469728056 A 2.5 2.5 0 1 1 94.02773372688763 406.5256146976972" fill-opacity="0.3" stroke-linejoin="bevel" stroke-miterlimit="10"/><path fill="blue" stroke="blue" paint-order="fill stroke markers" d=" M 95.58012326656396 402.7137493106 A 2.5 2.5 0 1 1 95.58012201656406 402.7112493110167" fill-opacity="0.3" stroke-linejoin="bevel" stroke-miterlimit="10"/><path fill="blue" stroke="blue" paint-order="fill stroke markers" d=" M 97.13251155624037 399.2838030245754 A 2.5 2.5 0 1 1 97.13251030624048 399.28130302499204" fill-opacity="0.3" stroke-linejoin="bevel" stroke-miterlimit="10"/><path fill="blue" stroke="blue" paint-order="fill stroke markers" d=" M 98.68489984591679 395.52463801466916 A 2.5 2.5 0 1 1 98.68489859591689 395.52213801508583" fill-opacity="0.3" stroke-linejoin="bevel" stroke-miterlimit="10"/><path fill="blue" stroke="blue" paint-order="fill stroke markers" d=" M 100.23728813559322 392.2880744684 A 2.5 2.5 0 1 1 100.23728688559332 392.28557446881666" fill-opacity="0.3" stroke-linejoin="bevel" stroke-miterlimit="10"/><path fill="blue" stroke="blue" paint-order="fill stroke markers" d=" M 101.78967642526965 388.6132702446464 A 2.5 2.5 0 1 1 101.78967517526975 388.61077024506307" fill-opacity="0.3" stroke-linejoin="bevel" stroke-miterlimit="10"/><path fill="blue" stroke="blue" paint-order="fill stroke markers" d=" M 103.34206471494608 386.33704086057134 A 2.5 2.5 0 1 1 103.34206346494618 386.334540860988" fill-opacity="0.3" stroke-linejoin="bevel" stroke-miterlimit="10"/><path fill="blue" stroke="blue" paint-order="fill stroke markers" d=" M 104.8944530046225 384.1478451993858 A 2.5 2.5 0 1 1 104.89445175462261 384.1453451998025" fill-opacity="0.3" stroke-linejoin="bevel" stroke-miterlimit="10"/><path fill="blue" stroke="blue" paint-order="fill stroke markers" d=" M 106.44684129429892 380.57747902415235 A 2.5 2.5 0 1 1 106.44684004429902 380.574979024569" fill-opacity="0.3" stroke-linejoin="bevel" stroke-miterlimit="10"/><path fill="blue" stroke="blue" paint-order="fill stroke markers" d=" M 107.99922958397535 377.77208073459354 A 2.5 2.5 0 1 1 107.99922833397545 377.7695807350102" fill-opacity="0.3" stroke-linejoin="bevel" stroke-miterlimit="10"/><path fill="blue" stroke="blue" paint-order="fill stroke markers" d=" M 109.55161787365176 376.01951715095583 A 2.5 2.5 0 1 1 109.55161662365187 376.0170171513725" fill-opacity="0.3" stroke-linejoin="bevel" stroke-miterlimit="10"/><path fill="blue" stroke="blue" paint-order="fill stroke markers" d=" M 111.10400616332818 374.4519304652992 A 2.5 2.5 0 1 1 111.10400491332828 374.44943046571586" fill-opacity="0.3" stroke-linejoin="bevel" stroke-miterlimit="10"/><path fill="blue" stroke="blue" paint-order="fill stroke markers" d=" M 112.65639445300461 370.5037731049384 A 2.5 2.5 0 1 1 112.65639320300471 370.50127310535504" fill-opacity="0.3" stroke-linejoin="bevel" stroke-miterlimit="10"/><path fill="blue" stroke="blue" paint-order="fill stroke markers" d=" M 114.20878274268104 368.3896131881673 A 2.5 2.5 0 1 1 114.20878149268114 368.38711318858395" fill-opacity="0.3" stroke-linejoin="bevel" stroke-miterlimit="10"/><path fill="blue" stroke="blue" paint-order="fill stroke markers" d=" M 115.76117103235747 362.7430524736155 A 2.5 2.5 0 1 1 115.76116978235757 362.74055247403214" fill-opacity="0.3" stroke-linejoin="bevel" stroke-miterlimit="10"/><path fill="blue" stroke="blue" paint-order="fill stroke markers" d=" M 117.31355932203388 362.82008384953036 A 2.5 2.5 0 1 1 117.31355807203398 362.817583849947" fill-opacity="0.3" stroke-linejoin="bevel" stroke-miterlimit="10"/><path fill="blue" stroke="blue" paint-order="fill stroke markers" d=" M 118.86594761171031 360.6767272391719 A 2.5 2.5 0 1 1 118.86594636171041 360.67422723958856" fill-opacity="0.3" stroke-linejoin="bevel" stroke-miterlimit="10"/><path fill="blue" stroke="blue" paint-order="fill stroke markers" d=" M 120.80643297380585 356.17806661429864 A 2.5 2.5 0 1 1 120.80643172380596 356.1755666147153" fill-opacity="0.3" stroke-linejoin="bevel" stroke-miterlimit="10"/><path fill="blue" stroke="blue" paint-order="fill stroke markers" d=" M 123.5231124807396 353.150487261776 A 2.5 2.5 0 1 1 123.5231112307397 353.14798726219266" fill-opacity="0.3" stroke-linejoin="bevel" stroke-miterlimit="10"/><path fill="blue" stroke="blue" paint-order="fill stroke markers" d=" M 126.62788906009244 348.5630021371102 A 2.5 2.5 0 1 1 126.62788781009255 348.56050213752684" fill-opacity="0.3" stroke-linejoin="bevel" stroke-miterlimit="10"/><path fill="blue" stroke="blue" paint-order="fill stroke markers" d=" M 129.73266563944532 344.4987836865814 A 2.5 2.5 0 1 1 129.7326643894454 344.4962836869981" fill-opacity="0.3" stroke-linejoin="bevel" stroke-miterlimit="10"/><path fill="blue" stroke="blue" paint-order="fill stroke markers" d=" M 132.83744221879815 341.45052309079404 A 2.5 2.5 0 1 1 132.83744096879826 341.4480230912107" fill-opacity="0.3" stroke-linejoin="bevel" stroke-miterlimit="10"/><path fill="blue" stroke="blue" paint-order="fill stroke markers" d=" M 135.94221879815098 334.02725769881806 A 2.5 2.5 0 1 1 135.9422175481511 334.0247576992347" fill-opacity="0.3" stroke-linejoin="bevel" stroke-miterlimit="10"/><path fill="blue" stroke="blue" paint-order="fill stroke markers" d=" M 139.04699537750383 334.7783892060901 A 2.5 2.5 0 1 1 139.04699412750395 334.77588920650675" fill-opacity="0.3" stroke-linejoin="bevel" stroke-miterlimit="10"/><path fill="blue" stroke="blue" paint-order="fill stroke markers" d=" M 142.1517719568567 330.900816727161 A 2.5 2.5 0 1 1 142.1517707068568 330.89831672757765" fill-opacity="0.3" stroke-linejoin="bevel" stroke-miterlimit="10"/><path fill="blue" stroke="blue" paint-order="fill stroke markers" d=" M 145.25654853620955 327.1586569165853 A 2.5 2.5 0 1 1 145.25654728620967 327.15615691700197" fill-opacity="0.3" stroke-linejoin="bevel" stroke-miterlimit="10"/><path fill="blue" stroke="blue" paint-order="fill stroke markers" d=" M 148.3613251155624 326.8780106539494 A 2.5 2.5 0 1 1 148.36132386556253 326.87551065436605" fill-opacity="0.3" stroke-linejoin="bevel" stroke-miterlimit="10"/><path fill="blue" stroke="blue" paint-order="fill stroke markers" d=" M 151.46610169491524 321.9736434364952 A 2.5 2.5 0 1 1 151.46610044491536 321.97114343691186" fill-opacity="0.3" stroke-linejoin="bevel" stroke-miterlimit="10"/><path fill="blue" stroke="blue" paint-order="fill stroke markers" d=" M 154.57087827426807 325.58377710490004 A 2.5 2.5 0 1 1 154.57087702426819 325.5812771053167" fill-opacity="0.3" stroke-linejoin="bevel" stroke-miterlimit="10"/><path fill="blue" stroke="blue" paint-order="fill stroke markers" d=" M 157.67565485362093 315.01331617366304 A 2.5 2.5 0 1 1 157.67565360362104 315.0108161740797" fill-opacity="0.3" stroke-linejoin="bevel" stroke-miterlimit="10"/><path fill="blue" stroke="blue" paint-order="fill stroke markers" d=" M 160.78043143297378 318.80646739275767 A 2.5 2.5 0 1 1 160.7804301829739 318.80396739317433" fill-opacity="0.3" stroke-linejoin="bevel" stroke-miterlimit="10"/><path fill="blue" stroke="blue" paint-order="fill stroke markers" d=" M 163.88520801232664 317.9035711335654 A 2.5 2.5 0 1 1 163.88520676232676 317.90107113398204" fill-opacity="0.3" stroke-linejoin="bevel" stroke-miterlimit="10"/><path fill="blue" stroke="blue" paint-order="fill stroke markers" d=" M 166.9899845916795 314.84984371694054 A 2.5 2.5 0 1 1 166.98998334167962 314.8473437173572" fill-opacity="0.3" stroke-linejoin="bevel" stroke-miterlimit="10"/><path fill="blue" stroke="blue" paint-order="fill stroke markers" d=" M 170.09476117103233 309.0927975856857 A 2.5 2.5 0 1 1 170.09475992103245 309.09029758610234" fill-opacity="0.3" stroke-linejoin="bevel" stroke-miterlimit="10"/><path fill="blue" stroke="blue" paint-order="fill stroke markers" d=" M 173.1995377503852 301.47770967494546 A 2.5 2.5 0 1 1 173.1995365003853 301.4752096753621" fill-opacity="0.3" stroke-linejoin="bevel" stroke-miterlimit="10"/><path fill="blue" stroke="blue" paint-order="fill stroke markers" d=" M 176.30431432973802 305.06118654439973 A 2.5 2.5 0 1 1 176.30431307973814 305.0586865448164" fill-opacity="0.3" stroke-linejoin="bevel" stroke-miterlimit="10"/><path fill="blue" stroke="blue" paint-order="fill stroke markers" d=" M 179.40909090909085 301.8641606913109 A 2.5 2.5 0 1 1 179.40908965909097 301.86166069172754" fill-opacity="0.3" stroke-linejoin="bevel" stroke-miterlimit="10"/><path fill="blue" stroke="blue" paint-order="fill stroke markers" d=" M 182.5138674884437 300.26117271231107 A 2.5 2.5 0 1 1 182.51386623844382 300.25867271272773" fill-opacity="0.3" stroke-linejoin="bevel" stroke-miterlimit="10"/><path fill="blue" stroke="blue" paint-order="fill stroke markers" d=" M 185.61864406779657 297.4729005694465 A 2.5 2.5 0 1 1 185.61864281779668 297.47040056986316" fill-opacity="0.3" stroke-linejoin="bevel" stroke-miterlimit="10"/><path fill="blue" stroke="blue" paint-order="fill stroke markers" d=" M 188.72342064714942 290.4193954576508 A 2.5 2.5 0 1 1 188.72341939714954 290.4168954580675" fill-opacity="0.3" stroke-linejoin="bevel" stroke-miterlimit="10"/><path fill="blue" stroke="blue" paint-order="fill stroke markers" d=" M 191.82819722650225 290.7857692116487 A 2.5 2.5 0 1 1 191.82819597650237 290.78326921206536" fill-opacity="0.3" stroke-linejoin="bevel" stroke-miterlimit="10"/><path fill="blue" stroke="blue" paint-order="fill stroke markers" d=" M 194.9329738058551 290.8077816318348 A 2.5 2.5 0 1 1 194.93297255585523 290.8052816322515" fill-opacity="0.3" stroke-linejoin="bevel" stroke-miterlimit="10"/><path fill="blue" stroke="blue" paint-order="fill stroke markers" d=" M 199.27966101694912 285.39615343056056 A 2.5 2.5 0 1 1 199.27965976694924 285.3936534309772" fill-opacity="0.3" stroke-linejoin="bevel" stroke-miterlimit="10"/><path fill="blue" stroke="blue" paint-order="fill stroke markers" d=" M 205.7996918335901 289.7487302314215 A 2.5 2.5 0 1 1 205.7996905835902 289.7462302318382" fill-opacity="0.3" stroke-linejoin="bevel" stroke-miterlimit="10"/><path fill="blue" stroke="blue" paint-order="fill stroke markers" d=" M 213.56163328197223 278.13264305713756 A 2.5 2.5 0 1 1 213.56163203197235 278.1301430575542" fill-opacity="0.3" stroke-linejoin="bevel" stroke-miterlimit="10"/><path fill="blue" stroke="blue" paint-order="fill stroke markers" d=" M 221.32357473035435 278.9759485502546 A 2.5 2.5 0 1 1 221.32357348035447 278.97344855067126" fill-opacity="0.3" stroke-linejoin="bevel" stroke-miterlimit="10"/><path fill="blue" stroke="blue" paint-order="fill stroke markers" d=" M 229.08551617873647 271.8506369886543 A 2.5 2.5 0 1 1 229.0855149287366 271.84813698907095" fill-opacity="0.3" stroke-linejoin="bevel" stroke-miterlimit="10"/><path fill="blue" stroke="blue" paint-order="fill stroke markers" d=" M 236.8474576271186 265.9553601154727 A 2.5 2.5 0 1 1 236.8474563771187 265.95286011588934" fill-opacity="0.3" stroke-linejoin="bevel" stroke-miterlimit="10"/><path fill="blue" stroke="blue" paint-order="fill stroke markers" d=" M 244.6093990755007 259.57568905083417 A 2.5 2.5 0 1 1 244.60939782550082 259.57318905125084" fill-opacity="0.3" stroke-linejoin="bevel" stroke-miterlimit="10"/><path fill="blue" stroke="blue" paint-order="fill stroke markers" d=" M 252.37134052388285 259.01691223072646 A 2.5 2.5 0 1 1 252.37133927388297 259.0144122311431" fill-opacity="0.3" stroke-linejoin="bevel" stroke-miterlimit="10"/><path fill="blue" stroke="blue" paint-order="fill stroke markers" d=" M 260.13328197226497 242.20401920839555 A 2.5 2.5 0 1 1 260.13328072226506 242.20151920881221" fill-opacity="0.3" stroke-linejoin="bevel" stroke-miterlimit="10"/><path fill="blue" stroke="blue" paint-order="fill stroke markers" d=" M 267.8952234206471 249.62574252148497 A 2.5 2.5 0 1 1 267.8952221706472 249.62324252190163" fill-opacity="0.3" stroke-linejoin="bevel" stroke-miterlimit="10"/><path fill="blue" stroke="blue" paint-order="fill stroke markers" d=" M 275.6571648690292 236.83274678826962 A 2.5 2.5 0 1 1 275.6571636190293 236.83024678868628" fill-opacity="0.3" stroke-linejoin="bevel" stroke-miterlimit="10"/><path fill="blue" stroke="blue" paint-order="fill stroke markers" d=" M 283.4191063174113 231.08342314618432 A 2.5 2.5 0 1 1 283.4191050674114 231.08092314660098" fill-opacity="0.3" stroke-linejoin="bevel" stroke-miterlimit="10"/><path fill="blue" stroke="blue" paint-order="fill stroke markers" d=" M 291.18104776579344 225.1514085112912 A 2.5 2.5 0 1 1 291.1810465157935 225.14890851170787" fill-opacity="0.3" stroke-linejoin="bevel" stroke-miterlimit="10"/><path fill="blue" stroke="blue" paint-order="fill stroke markers" d=" M 298.9429892141756 223.4027817643406 A 2.5 2.5 0 1 1 298.9429879641757 223.40028176475727" fill-opacity="0.3" stroke-linejoin="bevel" stroke-miterlimit="10"/><path fill="blue" stroke="blue" paint-order="fill stroke markers" d=" M 306.70493066255773 216.82950420732385 A 2.5 2.5 0 1 1 306.7049294125578 216.82700420774052" fill-opacity="0.3" stroke-linejoin="bevel" stroke-miterlimit="10"/><path fill="blue" stroke="blue" paint-order="fill stroke markers" d=" M 314.46687211093985 204.59347108376136 A 2.5 2.5 0 1 1 314.46687086093993 204.59097108417802" fill-opacity="0.3" stroke-linejoin="bevel" stroke-miterlimit="10"/><path fill="blue" stroke="blue" paint-order="fill stroke markers" d=" M 322.2288135593219 200.37364780251642 A 2.5 2.5 0 1 1 322.228812309322 200.37114780293308" fill-opacity="0.3" stroke-linejoin="bevel" stroke-miterlimit="10"/><path fill="blue" stroke="blue" paint-order="fill stroke markers" d=" M 329.9907550077041 197.71861127545918 A 2.5 2.5 0 1 1 329.99075375770417 197.71611127587585" fill-opacity="0.3" stroke-linejoin="bevel" stroke-miterlimit="10"/><path fill="blue" stroke="blue" paint-order="fill stroke markers" d=" M 337.7526964560862 194.64920908050414 A 2.5 2.5 0 1 1 337.7526952060863 194.6467090809208" fill-opacity="0.3" stroke-linejoin="bevel" stroke-miterlimit="10"/><path fill="blue" stroke="blue" paint-order="fill stroke markers" d=" M 345.5146379044683 167.21196702905752 A 2.5 2.5 0 1 1 345.5146366544684 167.20946702947418" fill-opacity="0.3" stroke-linejoin="bevel" stroke-miterlimit="10"/><path fill="blue" stroke="blue" paint-order="fill stroke markers" d=" M 353.27657935285043 160.23073401441684 A 2.5 2.5 0 1 1 353.2765781028505 160.2282340148335" fill-opacity="0.3" stroke-linejoin="bevel" stroke-miterlimit="10"/><path fill="blue" stroke="blue" paint-order="fill stroke markers" d=" M 361.03852080123255 175.0793511403919 A 2.5 2.5 0 1 1 361.03851955123264 175.07685114080857" fill-opacity="0.3" stroke-linejoin="bevel" stroke-miterlimit="10"/><path fill="blue" stroke="blue" paint-order="fill stroke markers" d=" M 368.80046224961467 157.76437537466876 A 2.5 2.5 0 1 1 368.80046099961476 157.76187537508542" fill-opacity="0.3" stroke-linejoin="bevel" stroke-miterlimit="10"/><path fill="blue" stroke="blue" paint-order="fill stroke markers" d=" M 376.5624036979968 149.14518245082598 A 2.5 2.5 0 1 1 376.5624024479969 149.14268245124265" fill-opacity="0.3" stroke-linejoin="bevel" stroke-miterlimit="10"/><path fill="blue" stroke="blue" paint-order="fill stroke markers" d=" M 384.32434514637896 160.29459422242905 A 2.5 2.5 0 1 1 384.32434389637905 160.29209422284572" fill-opacity="0.3" stroke-linejoin="bevel" stroke-miterlimit="10"/><path fill="blue" stroke="blue" paint-order="fill stroke markers" d=" M 392.086286594761 110.89025700945393 A 2.5 2.5 0 1 1 392.0862853447611 110.8877570098706" fill-opacity="0.3" stroke-linejoin="bevel" stroke-miterlimit="10"/><path fill="blue" stroke="blue" paint-order="fill stroke markers" d=" M 399.8482280431432 104.97919650531469 A 2.5 2.5 0 1 1 399.8482267931433 104.97669650573135" fill-opacity="0.3" stroke-linejoin="bevel" stroke-miterlimit="10"/><path fill="blue" stroke="blue" paint-order="fill stroke markers" d=" M 407.61016949152526 134.21686101219927 A 2.5 2.5 0 1 1 407.61016824152534 134.21436101261594" fill-opacity="0.3" stroke-linejoin="bevel" stroke-miterlimit="10"/><path fill="blue" stroke="blue" paint-order="fill stroke markers" d=" M 415.37211093990743 91.2771906236743 A 2.5 2.5 0 1 1 415.3721096899075 91.27469062409097" fill-opacity="0.3" stroke-linejoin="bevel" stroke-miterlimit="10"/><path fill="blue" stroke="blue" paint-order="fill stroke markers" d=" M 423.13405238828955 109.22402565399636 A 2.5 2.5 0 1 1 423.13405113828964 109.22152565441303" fill-opacity="0.3" stroke-linejoin="bevel" stroke-miterlimit="10"/><path fill="blue" stroke="blue" paint-order="fill stroke markers" d=" M 430.89599383667166 55.469151296501025 A 2.5 2.5 0 1 1 430.89599258667175 55.46665129691769" fill-opacity="0.3" stroke-linejoin="bevel" stroke-miterlimit="10"/><path fill="blue" stroke="blue" paint-order="fill stroke markers" d=" M 438.6579352850538 60.227795082849866 A 2.5 2.5 0 1 1 438.65793403505387 60.22529508326653" fill-opacity="0.3" stroke-linejoin="bevel" stroke-miterlimit="10"/><path fill="blue" stroke="blue" paint-order="fill stroke markers" d=" M 446.4198767334359 51.45454545454555 A 2.5 2.5 0 1 1 446.419875483436 51.45204545496222" fill-opacity="0.3" stroke-linejoin="bevel" stroke-miterlimit="10"/><path fill="blue" stroke="blue" paint-order="fill stroke markers" d=" M 454.1818181818181 77.57010495275995 A 2.5 2.5 0 1 1 454.18181693181816 77.56760495317661" fill-opacity="0.3" stroke-linejoin="bevel" stroke-miterlimit="10"/></g></g></g><g><g fill="#444444"><path fill="" stroke="none" d=""/><g transform="translate(268.5,5)"><path fill="none" stroke="none"/><text fill="" stroke="none" font-family="helvetica" font-size="12pt" font-style="normal" font-weight="bold" text-decoration="normal" x="0" y="0" text-anchor="middle" dominant-baseline="text-before-edge">Kratky plot (SASDEE2)</text></g></g></g><g/><g><g fill="#444444"><path fill="none" stroke="black" paint-order="fill stroke markers" d=" M 67 439 L 470 439" stroke-linejoin="bevel" stroke-miterlimit="10"/><path fill="none" stroke="black" paint-order="fill stroke markers" d=" M 118 445 L 118 437" stroke-linejoin="bevel" stroke-miterlimit="10"/><path fill="none" stroke="black" paint-order="fill stroke markers" d=" M 196 445 L 196 437" stroke-linejoin="bevel" stroke-miterlimit="10"/><path fill="none" stroke="black" paint-order="fill stroke markers" d=" M 273 445 L 273 437" stroke-linejoin="bevel" stroke-miterlimit="10"/><path fill="none" stroke="black" paint-order="fill stroke markers" d=" M 351 445 L 351 437" stroke-linejoin="bevel" stroke-miterlimit="10"/><path fill="none" stroke="black" paint-order="fill stroke markers" d=" M 428 445 L 428 437" stroke-linejoin="bevel" stroke-miterlimit="10"/><path fill="none" stroke="black" paint-order="fill stroke markers" d=" M 102 443 L 102 439" stroke-linejoin="bevel" stroke-miterlimit="10"/><path fill="none" stroke="black" paint-order="fill stroke markers" d=" M 87 443 L 87 439" stroke-linejoin="bevel" stroke-miterlimit="10"/><path fill="none" stroke="black" paint-order="fill stroke markers" d=" M 71 443 L 71 439" stroke-linejoin="bevel" stroke-miterlimit="10"/><path fill="none" stroke="black" paint-order="fill stroke markers" d=" M 118 443 L 118 439" stroke-linejoin="bevel" stroke-miterlimit="10"/><path fill="none" stroke="black" paint-order="fill stroke markers" d=" M 133 443 L 133 439" stroke-linejoin="bevel" stroke-miterlimit="10"/><path fill="none" stroke="black" paint-order="fill stroke markers" d=" M 149 443 L 149 439" stroke-linejoin="bevel" stroke-miterlimit="10"/><path fill="none" stroke="black" paint-order="fill stroke markers" d=" M 164 443 L 164 439" stroke-linejoin="bevel" stroke-miterlimit="10"/><path fill="none" stroke="black" paint-order="fill stroke markers" d=" M 180 443 L 180 439" stroke-linejoin="bevel" stroke-miterlimit="10"/><path fill="none" stroke="black" paint-order="fill stroke markers" d=" M 196 443 L 196 439" stroke-linejoin="bevel" stroke-miterlimit="10"/><path fill="none" stroke="black" paint-order="fill stroke markers" d=" M 211 443 L 211 439" stroke-linejoin="bevel" stroke-miterlimit="10"/><path fill="none" stroke="black" paint-order="fill stroke markers" d=" M 227 443 L 227 439" stroke-linejoin="bevel" stroke-miterlimit="10"/><path fill="none" stroke="black" paint-order="fill stroke markers" d=" M 242 443 L 242 439" stroke-linejoin="bevel" stroke-miterlimit="10"/><path fill="none" stroke="black" paint-order="fill stroke markers" d=" M 258 443 L 258 439" stroke-linejoin="bevel" stroke-miterlimit="10"/><path fill="none" stroke="black" paint-order="fill stroke markers" d=" M 273 443 L 273 439" stroke-linejoin="bevel" stroke-miterlimit="10"/><path fill="none" stroke="black" paint-order="fill stroke markers" d=" M 289 443 L 289 439" stroke-linejoin="bevel" stroke-miterlimit="10"/><path fill="none" stroke="black" paint-order="fill stroke markers" d=" M 304 443 L 304 439" stroke-linejoin="bevel" stroke-miterlimit="10"/><path fill="none" stroke="black" paint-order="fill stroke markers" d=" M 320 443 L 320 439" stroke-linejoin="bevel" stroke-miterlimit="10"/><path fill="none" stroke="black" paint-order="fill stroke markers" d=" M 335 443 L 335 439" stroke-linejoin="bevel" stroke-miterlimit="10"/><path fill="none" stroke="black" paint-order="fill stroke markers" d=" M 351 443 L 351 439" stroke-linejoin="bevel" stroke-miterlimit="10"/><path fill="none" stroke="black" paint-order="fill stroke markers" d=" M 366 443 L 366 439" stroke-linejoin="bevel" stroke-miterlimit="10"/><path fill="none" stroke="black" paint-order="fill stroke markers" d=" M 382 443 L 382 439" stroke-linejoin="bevel" stroke-miterlimit="10"/><path fill="none" stroke="black" paint-order="fill stroke markers" d=" M 397 443 L 397 439" stroke-linejoin="bevel" stroke-miterlimit="10"/><path fill="none" stroke="black" paint-order="fill stroke markers" d=" M 413 443 L 413 439" stroke-linejoin="bevel" stroke-miterlimit="10"/><path fill="none" stroke="black" paint-order="fill stroke markers" d=" M 428 443 L 428 439" stroke-linejoin="bevel" stroke-miterlimit="10"/><path fill="none" stroke="black" paint-order="fill stroke markers" d=" M 444 443 L 444 439" stroke-linejoin="bevel" stroke-miterlimit="10"/><path fill="" stroke="black" paint-order="fill stroke markers" d=" M 459 443 L 459 439" stroke-linejoin="bevel" stroke-miterlimit="10"/><g transform="translate(118,450) rotate(0,0,0)"><text fill="" stroke="none" font-family="helvetica" font-size="14pt" font-style="normal" font-weight="normal" text-decoration="normal" x="0" y="0" text-anchor="middle" dominant-baseline="hanging">0.5</text><g transform="rotate(0,0,0) translate(-118,-450) translate(196,450) rotate(0,0,0)"><text fill="" stroke="none" font-family="helvetica" font-size="14pt" font-style="normal" font-weight="normal" text-decoration="normal" x="0" y="0" text-anchor="middle" dominant-baseline="hanging">1</text><g transform="rotate(0,0,0) translate(-196,-450) translate(273,450) rotate(0,0,0)"><text fill="" stroke="none" font-family="helvetica" font-size="14pt" font-style="normal" font-weight="normal" text-decoration="normal" x="0" y="0" text-anchor="middle" dominant-baseline="hanging">1.5</text><g transform="rotate(0,0,0) translate(-273,-450) translate(351,450) rotate(0,0,0)"><text fill="" stroke="none" font-family="helvetica" font-size="14pt" font-style="normal" font-weight="normal" text-decoration="normal" x="0" y="0" text-anchor="middle" dominant-baseline="hanging">2</text><g transform="rotate(0,0,0) translate(-351,-450) translate(428,450) rotate(0,0,0)"><text fill="" stroke="none" font-family="helvetica" font-size="14pt" font-style="normal" font-weight="normal" text-decoration="normal" x="0" y="0" text-anchor="middle" dominant-baseline="hanging">2.5</text><g transform="rotate(0,0,0) translate(-428,-450) translate(269,477) rotate(0,0,0)"><text fill="" stroke="none" font-family="helvetica" font-size="14pt" font-style="italic" font-weight="normal" text-decoration="normal" x="0" y="0" text-anchor="middle" dominant-baseline="hanging">Log q nm⁻¹</text><g transform="rotate(0,0,0) translate(-269,-477)"/></g></g></g></g></g></g></g></g><g><g fill="#444444"><path fill="none" stroke="black" paint-order="fill stroke markers" d=" M 67 439 L 67 33" stroke-linejoin="bevel" stroke-miterlimit="10"/><path fill="none" stroke="black" paint-order="fill stroke markers" d=" M 61 434 L 69 434" stroke-linejoin="bevel" stroke-miterlimit="10"/><path fill="none" stroke="black" paint-order="fill stroke markers" d=" M 61 373 L 69 373" stroke-linejoin="bevel" stroke-miterlimit="10"/><path fill="none" stroke="black" paint-order="fill stroke markers" d=" M 61 313 L 69 313" stroke-linejoin="bevel" stroke-miterlimit="10"/><path fill="none" stroke="black" paint-order="fill stroke markers" d=" M 61 253 L 69 253" stroke-linejoin="bevel" stroke-miterlimit="10"/><path fill="none" stroke="black" paint-order="fill stroke markers" d=" M 61 192 L 69 192" stroke-linejoin="bevel" stroke-miterlimit="10"/><path fill="none" stroke="black" paint-order="fill stroke markers" d=" M 61 132 L 69 132" stroke-linejoin="bevel" stroke-miterlimit="10"/><path fill="none" stroke="black" paint-order="fill stroke markers" d=" M 61 71 L 69 71" stroke-linejoin="bevel" stroke-miterlimit="10"/><path fill="none" stroke="black" paint-order="fill stroke markers" d=" M 63 434 L 67 434" stroke-linejoin="bevel" stroke-miterlimit="10"/><path fill="none" stroke="black" paint-order="fill stroke markers" d=" M 63 422 L 67 422" stroke-linejoin="bevel" stroke-miterlimit="10"/><path fill="none" stroke="black" paint-order="fill stroke markers" d=" M 63 410 L 67 410" stroke-linejoin="bevel" stroke-miterlimit="10"/><path fill="none" stroke="black" paint-order="fill stroke markers" d=" M 63 398 L 67 398" stroke-linejoin="bevel" stroke-miterlimit="10"/><path fill="none" stroke="black" paint-order="fill stroke markers" d=" M 63 386 L 67 386" stroke-linejoin="bevel" stroke-miterlimit="10"/><path fill="none" stroke="black" paint-order="fill stroke markers" d=" M 63 373 L 67 373" stroke-linejoin="bevel" stroke-miterlimit="10"/><path fill="none" stroke="black" paint-order="fill stroke markers" d=" M 63 361 L 67 361" stroke-linejoin="bevel" stroke-miterlimit="10"/><path fill="none" stroke="black" paint-order="fill stroke markers" d=" M 63 349 L 67 349" stroke-linejoin="bevel" stroke-miterlimit="10"/><path fill="none" stroke="black" paint-order="fill stroke markers" d=" M 63 337 L 67 337" stroke-linejoin="bevel" stroke-miterlimit="10"/><path fill="none" stroke="black" paint-order="fill stroke markers" d=" M 63 325 L 67 325" stroke-linejoin="bevel" stroke-miterlimit="10"/><path fill="none" stroke="black" paint-order="fill stroke markers" d=" M 63 313 L 67 313" stroke-linejoin="bevel" stroke-miterlimit="10"/><path fill="none" stroke="black" paint-order="fill stroke markers" d=" M 63 301 L 67 301" stroke-linejoin="bevel" stroke-miterlimit="10"/><path fill="none" stroke="black" paint-order="fill stroke markers" d=" M 63 289 L 67 289" stroke-linejoin="bevel" stroke-miterlimit="10"/><path fill="none" stroke="black" paint-order="fill stroke markers" d=" M 63 277 L 67 277" stroke-linejoin="bevel" stroke-miterlimit="10"/><path fill="none" stroke="black" paint-order="fill stroke markers" d=" M 63 265 L 67 265" stroke-linejoin="bevel" stroke-miterlimit="10"/><path fill="none" stroke="black" paint-order="fill stroke markers" d=" M 63 253 L 67 253" stroke-linejoin="bevel" stroke-miterlimit="10"/><path fill="none" stroke="black" paint-order="fill stroke markers" d=" M 63 240 L 67 240" stroke-linejoin="bevel" stroke-miterlimit="10"/><path fill="none" stroke="black" paint-order="fill stroke markers" d=" M 63 228 L 67 228" stroke-linejoin="bevel" stroke-miterlimit="10"/><path fill="none" stroke="black" paint-order="fill stroke markers" d=" M 63 216 L 67 216" stroke-linejoin="bevel" stroke-miterlimit="10"/><path fill="none" stroke="black" paint-order="fill stroke markers" d=" M 63 204 L 67 204" stroke-linejoin="bevel" stroke-miterlimit="10"/><path fill="none" stroke="black" paint-order="fill stroke markers" d=" M 63 192 L 67 192" stroke-linejoin="bevel" stroke-miterlimit="10"/><path fill="none" stroke="black" paint-order="fill stroke markers" d=" M 63 180 L 67 180" stroke-linejoin="bevel" stroke-miterlimit="10"/><path fill="none" stroke="black" paint-order="fill stroke markers" d=" M 63 168 L 67 168" stroke-linejoin="bevel" stroke-miterlimit="10"/><path fill="none" stroke="black" paint-order="fill stroke markers" d=" M 63 156 L 67 156" stroke-linejoin="bevel" stroke-miterlimit="10"/><path fill="none" stroke="black" paint-order="fill stroke markers" d=" M 63 144 L 67 144" stroke-linejoin="bevel" stroke-miterlimit="10"/><path fill="none" stroke="black" paint-order="fill stroke markers" d=" M 63 132 L 67 132" stroke-linejoin="bevel" stroke-miterlimit="10"/><path fill="none" stroke="black" paint-order="fill stroke markers" d=" M 63 119 L 67 119" stroke-linejoin="bevel" stroke-miterlimit="10"/><path fill="none" stroke="black" paint-order="fill stroke markers" d=" M 63 107 L 67 107" stroke-linejoin="bevel" stroke-miterlimit="10"/><path fill="none" stroke="black" paint-order="fill stroke markers" d=" M 63 95 L 67 95" stroke-linejoin="bevel" stroke-miterlimit="10"/><path fill="none" stroke="black" paint-order="fill stroke markers" d=" M 63 83 L 67 83" stroke-linejoin="bevel" stroke-miterlimit="10"/><path fill="none" stroke="black" paint-order="fill stroke markers" d=" M 63 71 L 67 71" stroke-linejoin="bevel" stroke-miterlimit="10"/><path fill="none" stroke="black" paint-order="fill stroke markers" d=" M 63 59 L 67 59" stroke-linejoin="bevel" stroke-miterlimit="10"/><path fill="none" stroke="black" paint-order="fill stroke markers" d=" M 63 47 L 67 47" stroke-linejoin="bevel" stroke-miterlimit="10"/><path fill="" stroke="black" paint-order="fill stroke markers" d=" M 63 35 L 67 35" stroke-linejoin="bevel" stroke-miterlimit="10"/><g transform="translate(56,434) rotate(0,0,0)"><text fill="" stroke="none" font-family="helvetica" font-size="14pt" font-style="normal" font-weight="normal" text-decoration="normal" x="0" y="0" text-anchor="end" dominant-baseline="central">0.5</text><g transform="rotate(0,0,0) translate(-56,-434) translate(56,373) rotate(0,0,0)"><text fill="" stroke="none" font-family="helvetica" font-size="14pt" font-style="normal" font-weight="normal" text-decoration="normal" x="0" y="0" text-anchor="end" dominant-baseline="central">1</text><g transform="rotate(0,0,0) translate(-56,-373) translate(56,313) rotate(0,0,0)"><text fill="" stroke="none" font-family="helvetica" font-size="14pt" font-style="normal" font-weight="normal" text-decoration="normal" x="0" y="0" text-anchor="end" dominant-baseline="central">1.5</text><g transform="rotate(0,0,0) translate(-56,-313) translate(56,253) rotate(0,0,0)"><text fill="" stroke="none" font-family="helvetica" font-size="14pt" font-style="normal" font-weight="normal" text-decoration="normal" x="0" y="0" text-anchor="end" dominant-baseline="central">2</text><g transform="rotate(0,0,0) translate(-56,-253) translate(56,192) rotate(0,0,0)"><text fill="" stroke="none" font-family="helvetica" font-size="14pt" font-style="normal" font-weight="normal" text-decoration="normal" x="0" y="0" text-anchor="end" dominant-baseline="central">2.5</text><g transform="rotate(0,0,0) translate(-56,-192) translate(56,132) rotate(0,0,0)"><text fill="" stroke="none" font-family="helvetica" font-size="14pt" font-style="normal" font-weight="normal" text-decoration="normal" x="0" y="0" text-anchor="end" dominant-baseline="central">3</text><g transform="rotate(0,0,0) translate(-56,-132) translate(56,71) rotate(0,0,0)"><text fill="" stroke="none" font-family="helvetica" font-size="14pt" font-style="normal" font-weight="normal" text-decoration="normal" x="0" y="0" text-anchor="end" dominant-baseline="central">3.5</text><g transform="rotate(0,0,0) translate(-56,-71) translate(22,236) rotate(-90,0,0)"><text fill="" stroke="none" font-family="helvetica" font-size="14pt" font-style="italic" font-weight="normal" text-decoration="normal" x="0" y="0" text-anchor="middle" dominant-baseline="alphabetic">q² I(q)</text><g transform="rotate(90,0,0) translate(-22,-236)"/></g></g></g></g></g></g></g></g></g></g><g clip-path="url(#KWGEhgTglqgA)"><g/></g></g></svg>