<svg version="1.1" xmlns="http://www.w3.org/2000/svg" xmlns:xlink="http://www.w3.org/1999/xlink" width="700" height="250" style="width: 700px; height: 250px;"><defs><clipPath id="dCVqdTHQKFzc"><path fill="none" stroke="none" d=" M 228 37 L 670 37 L 670 217 L 228 217 L 228 37 Z"/></clipPath><clipPath id="CfkZRuNqGdTb"><path fill="none" stroke="none" d=" M 228 37 L 670 37 L 670 217 L 228 217 L 228 37 Z"/></clipPath><clipPath id="NzMZxcgprsot"><path fill="none" stroke="none" d=" M 228 37 L 670 37 L 670 217 L 228 217 L 228 37 Z"/></clipPath><clipPath id="TlgFQnTKWEPD"><path fill="none" stroke="none" d=" M 228 37 L 670 37 L 670 217 L 228 217 L 228 37 Z"/></clipPath><clipPath id="fSoKRRVnxppn"><path fill="none" stroke="none" d=" M 228 37 L 670 37 L 670 217 L 228 217 L 228 37 Z"/></clipPath><clipPath id="XSqtEIRsdUDo"><path fill="none" stroke="none" d=" M 228 37 L 670 37 L 670 217 L 228 217 L 228 37 Z"/></clipPath><clipPath id="SqoenitFoZqV"><path fill="none" stroke="none" d=" M 228 37 L 670 37 L 670 217 L 228 217 L 228 37 Z"/></clipPath><clipPath id="aNqbQmiioVoy"><path fill="none" stroke="none" d=" M 228 37 L 670 37 L 670 217 L 228 217 L 228 37 Z"/></clipPath><clipPath id="TNxmgnLeQPMB"><path fill="none" stroke="none" d=" M 228 37 L 670 37 L 670 217 L 228 217 L 228 37 Z"/></clipPath><clipPath id="EwcqKdBqTsPi"><path fill="none" stroke="none" d=" M 228 37 L 670 37 L 670 217 L 228 217 L 228 37 Z"/></clipPath></defs><g><g transform="scale(1,1) translate(0.5,0.5)"><rect fill="#FFFFFF" stroke="none" x="0" y="0" width="700" height="250"/><rect fill="#ffffff" stroke="none" x="0" y="0" width="700" height="250"/><rect fill="#FFFFFF" stroke="none" x="228" y="37" width="442" height="180"/><rect fill="#ffffff" stroke="none" x="228" y="37" width="442" height="180"/><g><rect fill="none" stroke="#e5e5e5" x="228" y="37" width="442" height="180" stroke-linejoin="bevel" stroke-miterlimit="10"/></g><g clip-path="url(#dCVqdTHQKFzc)"><g><g><path fill="none" stroke="#e5e5e5" paint-order="fill stroke markers" d=" M 319 217 L 319 37" stroke-linejoin="bevel" stroke-miterlimit="10"/><path fill="none" stroke="#e5e5e5" paint-order="fill stroke markers" d=" M 410 217 L 410 37" stroke-linejoin="bevel" stroke-miterlimit="10"/><path fill="none" stroke="#e5e5e5" paint-order="fill stroke markers" d=" M 501 217 L 501 37" stroke-linejoin="bevel" stroke-miterlimit="10"/><path fill="none" stroke="#e5e5e5" paint-order="fill stroke markers" d=" M 591 217 L 591 37" stroke-linejoin="bevel" stroke-miterlimit="10"/></g></g></g><g clip-path="url(#CfkZRuNqGdTb)"><g><g/></g></g><g clip-path="url(#NzMZxcgprsot)"><g><g><path fill="none" stroke="none"/><path fill="#08519c" stroke="none" paint-order="stroke fill markers" d=" M 228 172 L 624.573484069887 172 L 624.573484069887 202 L 228 202 L 228 172 Z" fill-opacity="0.8"/><path fill="none" stroke="#08519c" paint-order="fill stroke markers" d=" M 228 172 L 624.573484069887 172 L 624.573484069887 202 L 228 202 L 228 172 Z" stroke-linejoin="bevel" stroke-miterlimit="10" stroke-opacity="0.8"/><path fill="#3182bd" stroke="none" paint-order="stroke fill markers" d=" M 228 112 L 247.0791366906475 112 L 247.0791366906475 142 L 228 142 L 228 112 Z" fill-opacity="0.8"/><path fill="none" stroke="#3182bd" paint-order="fill stroke markers" d=" M 228 112 L 247.0791366906475 112 L 247.0791366906475 142 L 228 142 L 228 112 Z" stroke-linejoin="bevel" stroke-miterlimit="10" stroke-opacity="0.8"/><path fill="#6baed6" stroke="none" paint-order="stroke fill markers" d=" M 228 52 L 387.9013360739979 52 L 387.9013360739979 82 L 228 82 L 228 52 Z" fill-opacity="0.8"/><path fill="none" stroke="#6baed6" paint-order="fill stroke markers" d=" M 228 52 L 387.9013360739979 52 L 387.9013360739979 82 L 228 82 L 228 52 Z" stroke-linejoin="bevel" stroke-miterlimit="10" stroke-opacity="0.8"/></g></g></g><g clip-path="url(#TlgFQnTKWEPD)"><g><g/><g><path fill="#ffffff" stroke="#e5e5e5" paint-order="fill stroke markers" d=" M 577.2000007629395 47 L 660 47 L 660 133 L 577.2000007629395 133 L 577.2000007629395 47 Z" fill-opacity="0.95" stroke-linejoin="bevel" stroke-miterlimit="10" stroke-opacity="0.5"/><text fill="#444444" stroke="none" font-family="helvetica" font-size="10pt" font-style="normal" font-weight="normal" text-decoration="normal" x="612.2000007629395" y="67" text-anchor="start" dominant-baseline="central">8.73</text><rect fill="#08519c" stroke="none" x="589.2000007629395" y="59" width="16" height="16" fill-opacity="0.8"/><path fill="none" stroke="#08519c" paint-order="fill stroke markers" d=" M 589.2000007629395 59 L 605.2000007629395 59 L 605.2000007629395 75 L 589.2000007629395 75 L 589.2000007629395 59 Z" stroke-linejoin="bevel" stroke-miterlimit="10" stroke-opacity="0.8"/><text fill="#444444" stroke="none" font-family="helvetica" font-size="10pt" font-style="normal" font-weight="normal" text-decoration="normal" x="612.2000007629395" y="90" text-anchor="start" dominant-baseline="central">0.42%</text><rect fill="#3182bd" stroke="none" x="589.2000007629395" y="82" width="16" height="16" fill-opacity="0.8"/><path fill="none" stroke="#3182bd" paint-order="fill stroke markers" d=" M 589.2000007629395 82 L 605.2000007629395 82 L 605.2000007629395 98 L 589.2000007629395 98 L 589.2000007629395 82 Z" stroke-linejoin="bevel" stroke-miterlimit="10" stroke-opacity="0.8"/><text fill="#444444" stroke="none" font-family="helvetica" font-size="10pt" font-style="normal" font-weight="normal" text-decoration="normal" x="612.2000007629395" y="113" text-anchor="start" dominant-baseline="central">3.52%</text><rect fill="#6baed6" stroke="none" x="589.2000007629395" y="105" width="16" height="16" fill-opacity="0.8"/><path fill="none" stroke="#6baed6" paint-order="fill stroke markers" d=" M 589.2000007629395 105 L 605.2000007629395 105 L 605.2000007629395 121 L 589.2000007629395 121 L 589.2000007629395 105 Z" stroke-linejoin="bevel" stroke-miterlimit="10" stroke-opacity="0.8"/></g></g></g><g><g fill="#444444"><path fill="" stroke="none" d=""/><g transform="translate(449,5)"><path fill="none" stroke="none"/><text fill="" stroke="none" font-family="helvetica" font-size="14pt" font-style="normal" font-weight="bold" text-decoration="normal" x="0" y="0" text-anchor="middle" dominant-baseline="text-before-edge">Model Quality: Molprobity Analysis</text></g></g></g><g/><g><g fill="#444444"><path fill="none" stroke="black" paint-order="fill stroke markers" d=" M 228 217 L 670 217" stroke-linejoin="bevel" stroke-miterlimit="10"/><path fill="none" stroke="black" paint-order="fill stroke markers" d=" M 228 223 L 228 215" stroke-linejoin="bevel" stroke-miterlimit="10"/><path fill="none" stroke="black" paint-order="fill stroke markers" d=" M 319 223 L 319 215" stroke-linejoin="bevel" stroke-miterlimit="10"/><path fill="none" stroke="black" paint-order="fill stroke markers" d=" M 410 223 L 410 215" stroke-linejoin="bevel" stroke-miterlimit="10"/><path fill="none" stroke="black" paint-order="fill stroke markers" d=" M 501 223 L 501 215" stroke-linejoin="bevel" stroke-miterlimit="10"/><path fill="none" stroke="black" paint-order="fill stroke markers" d=" M 591 223 L 591 215" stroke-linejoin="bevel" stroke-miterlimit="10"/><path fill="none" stroke="black" paint-order="fill stroke markers" d=" M 228 221 L 228 217" stroke-linejoin="bevel" stroke-miterlimit="10"/><path fill="none" stroke="black" paint-order="fill stroke markers" d=" M 246 221 L 246 217" stroke-linejoin="bevel" stroke-miterlimit="10"/><path fill="none" stroke="black" paint-order="fill stroke markers" d=" M 264 221 L 264 217" stroke-linejoin="bevel" stroke-miterlimit="10"/><path fill="none" stroke="black" paint-order="fill stroke markers" d=" M 283 221 L 283 217" stroke-linejoin="bevel" stroke-miterlimit="10"/><path fill="none" stroke="black" paint-order="fill stroke markers" d=" M 301 221 L 301 217" stroke-linejoin="bevel" stroke-miterlimit="10"/><path fill="none" stroke="black" paint-order="fill stroke markers" d=" M 319 221 L 319 217" stroke-linejoin="bevel" stroke-miterlimit="10"/><path fill="none" stroke="black" paint-order="fill stroke markers" d=" M 337 221 L 337 217" stroke-linejoin="bevel" stroke-miterlimit="10"/><path fill="none" stroke="black" paint-order="fill stroke markers" d=" M 355 221 L 355 217" stroke-linejoin="bevel" stroke-miterlimit="10"/><path fill="none" stroke="black" paint-order="fill stroke markers" d=" M 373 221 L 373 217" stroke-linejoin="bevel" stroke-miterlimit="10"/><path fill="none" stroke="black" paint-order="fill stroke markers" d=" M 392 221 L 392 217" stroke-linejoin="bevel" stroke-miterlimit="10"/><path fill="none" stroke="black" paint-order="fill stroke markers" d=" M 410 221 L 410 217" stroke-linejoin="bevel" stroke-miterlimit="10"/><path fill="none" stroke="black" paint-order="fill stroke markers" d=" M 428 221 L 428 217" stroke-linejoin="bevel" stroke-miterlimit="10"/><path fill="none" stroke="black" paint-order="fill stroke markers" d=" M 446 221 L 446 217" stroke-linejoin="bevel" stroke-miterlimit="10"/><path fill="none" stroke="black" paint-order="fill stroke markers" d=" M 464 221 L 464 217" stroke-linejoin="bevel" stroke-miterlimit="10"/><path fill="none" stroke="black" paint-order="fill stroke markers" d=" M 482 221 L 482 217" stroke-linejoin="bevel" stroke-miterlimit="10"/><path fill="none" stroke="black" paint-order="fill stroke markers" d=" M 501 221 L 501 217" stroke-linejoin="bevel" stroke-miterlimit="10"/><path fill="none" stroke="black" paint-order="fill stroke markers" d=" M 519 221 L 519 217" stroke-linejoin="bevel" stroke-miterlimit="10"/><path fill="none" stroke="black" paint-order="fill stroke markers" d=" M 537 221 L 537 217" stroke-linejoin="bevel" stroke-miterlimit="10"/><path fill="none" stroke="black" paint-order="fill stroke markers" d=" M 555 221 L 555 217" stroke-linejoin="bevel" stroke-miterlimit="10"/><path fill="none" stroke="black" paint-order="fill stroke markers" d=" M 573 221 L 573 217" stroke-linejoin="bevel" stroke-miterlimit="10"/><path fill="none" stroke="black" paint-order="fill stroke markers" d=" M 591 221 L 591 217" stroke-linejoin="bevel" stroke-miterlimit="10"/><path fill="none" stroke="black" paint-order="fill stroke markers" d=" M 610 221 L 610 217" stroke-linejoin="bevel" stroke-miterlimit="10"/><path fill="none" stroke="black" paint-order="fill stroke markers" d=" M 628 221 L 628 217" stroke-linejoin="bevel" stroke-miterlimit="10"/><path fill="none" stroke="black" paint-order="fill stroke markers" d=" M 646 221 L 646 217" stroke-linejoin="bevel" stroke-miterlimit="10"/><path fill="" stroke="black" paint-order="fill stroke markers" d=" M 664 221 L 664 217" stroke-linejoin="bevel" stroke-miterlimit="10"/><g transform="translate(228,228) rotate(0,0,0)"><text fill="" stroke="none" font-family="helvetica" font-size="14pt" font-style="normal" font-weight="normal" text-decoration="normal" x="0" y="0" text-anchor="middle" dominant-baseline="hanging">0</text><g transform="rotate(0,0,0) translate(-228,-228) translate(319,228) rotate(0,0,0)"><text fill="" stroke="none" font-family="helvetica" font-size="14pt" font-style="normal" font-weight="normal" text-decoration="normal" x="0" y="0" text-anchor="middle" dominant-baseline="hanging">2</text><g transform="rotate(0,0,0) translate(-319,-228) translate(410,228) rotate(0,0,0)"><text fill="" stroke="none" font-family="helvetica" font-size="14pt" font-style="normal" font-weight="normal" text-decoration="normal" x="0" y="0" text-anchor="middle" dominant-baseline="hanging">4</text><g transform="rotate(0,0,0) translate(-410,-228) translate(501,228) rotate(0,0,0)"><text fill="" stroke="none" font-family="helvetica" font-size="14pt" font-style="normal" font-weight="normal" text-decoration="normal" x="0" y="0" text-anchor="middle" dominant-baseline="hanging">6</text><g transform="rotate(0,0,0) translate(-501,-228) translate(591,228) rotate(0,0,0)"><text fill="" stroke="none" font-family="helvetica" font-size="14pt" font-style="normal" font-weight="normal" text-decoration="normal" x="0" y="0" text-anchor="middle" dominant-baseline="hanging">8</text><g transform="rotate(0,0,0) translate(-591,-228)"/></g></g></g></g></g></g></g><g><g fill="#444444"><path fill="none" stroke="black" paint-order="fill stroke markers" d=" M 228 217 L 228 37" stroke-linejoin="bevel" stroke-miterlimit="10"/><path fill="none" stroke="black" paint-order="fill stroke markers" d=" M 222 187 L 230 187" stroke-linejoin="bevel" stroke-miterlimit="10"/><path fill="none" stroke="black" paint-order="fill stroke markers" d=" M 222 127 L 230 127" stroke-linejoin="bevel" stroke-miterlimit="10"/><path fill="" stroke="black" paint-order="fill stroke markers" d=" M 222 67 L 230 67" stroke-linejoin="bevel" stroke-miterlimit="10"/><g transform="translate(217,187) rotate(0,0,0)"><text fill="" stroke="none" font-family="helvetica" font-size="14pt" font-style="normal" font-weight="normal" text-decoration="normal" x="0" y="0" text-anchor="end" dominant-baseline="central">Clashscore</text><g transform="rotate(0,0,0) translate(-217,-187) translate(217,127) rotate(0,0,0)"><text fill="" stroke="none" font-family="helvetica" font-size="14pt" font-style="normal" font-weight="normal" text-decoration="normal" x="0" y="0" text-anchor="end" dominant-baseline="central">Ramachandran Outliers</text><g transform="rotate(0,0,0) translate(-217,-127) translate(217,67) rotate(0,0,0)"><text fill="" stroke="none" font-family="helvetica" font-size="14pt" font-style="normal" font-weight="normal" text-decoration="normal" x="0" y="0" text-anchor="end" dominant-baseline="central">Sidechain Outliers</text><g transform="rotate(0,0,0) translate(-217,-67)"/></g></g></g></g></g><g clip-path="url(#fSoKRRVnxppn)"><g/></g></g><g transform="scale(1,1) translate(0.5,0.5)"><rect fill="#FFFFFF" stroke="none" x="0" y="0" width="700" height="250"/><rect fill="#ffffff" stroke="none" x="0" y="0" width="700" height="250"/><rect fill="#FFFFFF" stroke="none" x="228" y="37" width="442" height="180"/><rect fill="#ffffff" stroke="none" x="228" y="37" width="442" height="180"/><g><rect fill="none" stroke="#e5e5e5" x="228" y="37" width="442" height="180" stroke-linejoin="bevel" stroke-miterlimit="10"/></g><g clip-path="url(#XSqtEIRsdUDo)"><g><g><path fill="none" stroke="#e5e5e5" paint-order="fill stroke markers" d=" M 319 217 L 319 37" stroke-linejoin="bevel" stroke-miterlimit="10"/><path fill="none" stroke="#e5e5e5" paint-order="fill stroke markers" d=" M 410 217 L 410 37" stroke-linejoin="bevel" stroke-miterlimit="10"/><path fill="none" stroke="#e5e5e5" paint-order="fill stroke markers" d=" M 501 217 L 501 37" stroke-linejoin="bevel" stroke-miterlimit="10"/><path fill="none" stroke="#e5e5e5" paint-order="fill stroke markers" d=" M 591 217 L 591 37" stroke-linejoin="bevel" stroke-miterlimit="10"/></g></g></g><g clip-path="url(#SqoenitFoZqV)"><g><g/></g></g><g clip-path="url(#aNqbQmiioVoy)"><g><g><path fill="none" stroke="none"/><path fill="#08519c" stroke="none" paint-order="stroke fill markers" d=" M 228 172 L 624.573484069887 172 L 624.573484069887 202 L 228 202 L 228 172 Z" fill-opacity="0.8"/><path fill="none" stroke="#08519c" paint-order="fill stroke markers" d=" M 228 172 L 624.573484069887 172 L 624.573484069887 202 L 228 202 L 228 172 Z" stroke-linejoin="bevel" stroke-miterlimit="10" stroke-opacity="0.8"/><path fill="#3182bd" stroke="none" paint-order="stroke fill markers" d=" M 228 112 L 247.0791366906475 112 L 247.0791366906475 142 L 228 142 L 228 112 Z" fill-opacity="0.8"/><path fill="none" stroke="#3182bd" paint-order="fill stroke markers" d=" M 228 112 L 247.0791366906475 112 L 247.0791366906475 142 L 228 142 L 228 112 Z" stroke-linejoin="bevel" stroke-miterlimit="10" stroke-opacity="0.8"/><path fill="#6baed6" stroke="none" paint-order="stroke fill markers" d=" M 228 52 L 387.9013360739979 52 L 387.9013360739979 82 L 228 82 L 228 52 Z" fill-opacity="0.8"/><path fill="none" stroke="#6baed6" paint-order="fill stroke markers" d=" M 228 52 L 387.9013360739979 52 L 387.9013360739979 82 L 228 82 L 228 52 Z" stroke-linejoin="bevel" stroke-miterlimit="10" stroke-opacity="0.8"/></g></g></g><g clip-path="url(#TNxmgnLeQPMB)"><g><g/><g><path fill="#ffffff" stroke="#e5e5e5" paint-order="fill stroke markers" d=" M 577.2000007629395 47 L 660 47 L 660 133 L 577.2000007629395 133 L 577.2000007629395 47 Z" fill-opacity="0.95" stroke-linejoin="bevel" stroke-miterlimit="10" stroke-opacity="0.5"/><text fill="#444444" stroke="none" font-family="helvetica" font-size="10pt" font-style="normal" font-weight="normal" text-decoration="normal" x="612.2000007629395" y="67" text-anchor="start" dominant-baseline="central">8.73</text><rect fill="#08519c" stroke="none" x="589.2000007629395" y="59" width="16" height="16" fill-opacity="0.8"/><path fill="none" stroke="#08519c" paint-order="fill stroke markers" d=" M 589.2000007629395 59 L 605.2000007629395 59 L 605.2000007629395 75 L 589.2000007629395 75 L 589.2000007629395 59 Z" stroke-linejoin="bevel" stroke-miterlimit="10" stroke-opacity="0.8"/><text fill="#444444" stroke="none" font-family="helvetica" font-size="10pt" font-style="normal" font-weight="normal" text-decoration="normal" x="612.2000007629395" y="90" text-anchor="start" dominant-baseline="central">0.42%</text><rect fill="#3182bd" stroke="none" x="589.2000007629395" y="82" width="16" height="16" fill-opacity="0.8"/><path fill="none" stroke="#3182bd" paint-order="fill stroke markers" d=" M 589.2000007629395 82 L 605.2000007629395 82 L 605.2000007629395 98 L 589.2000007629395 98 L 589.2000007629395 82 Z" stroke-linejoin="bevel" stroke-miterlimit="10" stroke-opacity="0.8"/><text fill="#444444" stroke="none" font-family="helvetica" font-size="10pt" font-style="normal" font-weight="normal" text-decoration="normal" x="612.2000007629395" y="113" text-anchor="start" dominant-baseline="central">3.52%</text><rect fill="#6baed6" stroke="none" x="589.2000007629395" y="105" width="16" height="16" fill-opacity="0.8"/><path fill="none" stroke="#6baed6" paint-order="fill stroke markers" d=" M 589.2000007629395 105 L 605.2000007629395 105 L 605.2000007629395 121 L 589.2000007629395 121 L 589.2000007629395 105 Z" stroke-linejoin="bevel" stroke-miterlimit="10" stroke-opacity="0.8"/></g></g></g><g><g fill="#444444"><path fill="" stroke="none" d=""/><g transform="translate(449,5)"><path fill="none" stroke="none"/><text fill="" stroke="none" font-family="helvetica" font-size="14pt" font-style="normal" font-weight="bold" text-decoration="normal" x="0" y="0" text-anchor="middle" dominant-baseline="text-before-edge">Model Quality: Molprobity Analysis</text></g></g></g><g/><g><g fill="#444444"><path fill="none" stroke="black" paint-order="fill stroke markers" d=" M 228 217 L 670 217" stroke-linejoin="bevel" stroke-miterlimit="10"/><path fill="none" stroke="black" paint-order="fill stroke markers" d=" M 228 223 L 228 215" stroke-linejoin="bevel" stroke-miterlimit="10"/><path fill="none" stroke="black" paint-order="fill stroke markers" d=" M 319 223 L 319 215" stroke-linejoin="bevel" stroke-miterlimit="10"/><path fill="none" stroke="black" paint-order="fill stroke markers" d=" M 410 223 L 410 215" stroke-linejoin="bevel" stroke-miterlimit="10"/><path fill="none" stroke="black" paint-order="fill stroke markers" d=" M 501 223 L 501 215" stroke-linejoin="bevel" stroke-miterlimit="10"/><path fill="none" stroke="black" paint-order="fill stroke markers" d=" M 591 223 L 591 215" stroke-linejoin="bevel" stroke-miterlimit="10"/><path fill="none" stroke="black" paint-order="fill stroke markers" d=" M 228 221 L 228 217" stroke-linejoin="bevel" stroke-miterlimit="10"/><path fill="none" stroke="black" paint-order="fill stroke markers" d=" M 246 221 L 246 217" stroke-linejoin="bevel" stroke-miterlimit="10"/><path fill="none" stroke="black" paint-order="fill stroke markers" d=" M 264 221 L 264 217" stroke-linejoin="bevel" stroke-miterlimit="10"/><path fill="none" stroke="black" paint-order="fill stroke markers" d=" M 283 221 L 283 217" stroke-linejoin="bevel" stroke-miterlimit="10"/><path fill="none" stroke="black" paint-order="fill stroke markers" d=" M 301 221 L 301 217" stroke-linejoin="bevel" stroke-miterlimit="10"/><path fill="none" stroke="black" paint-order="fill stroke markers" d=" M 319 221 L 319 217" stroke-linejoin="bevel" stroke-miterlimit="10"/><path fill="none" stroke="black" paint-order="fill stroke markers" d=" M 337 221 L 337 217" stroke-linejoin="bevel" stroke-miterlimit="10"/><path fill="none" stroke="black" paint-order="fill stroke markers" d=" M 355 221 L 355 217" stroke-linejoin="bevel" stroke-miterlimit="10"/><path fill="none" stroke="black" paint-order="fill stroke markers" d=" M 373 221 L 373 217" stroke-linejoin="bevel" stroke-miterlimit="10"/><path fill="none" stroke="black" paint-order="fill stroke markers" d=" M 392 221 L 392 217" stroke-linejoin="bevel" stroke-miterlimit="10"/><path fill="none" stroke="black" paint-order="fill stroke markers" d=" M 410 221 L 410 217" stroke-linejoin="bevel" stroke-miterlimit="10"/><path fill="none" stroke="black" paint-order="fill stroke markers" d=" M 428 221 L 428 217" stroke-linejoin="bevel" stroke-miterlimit="10"/><path fill="none" stroke="black" paint-order="fill stroke markers" d=" M 446 221 L 446 217" stroke-linejoin="bevel" stroke-miterlimit="10"/><path fill="none" stroke="black" paint-order="fill stroke markers" d=" M 464 221 L 464 217" stroke-linejoin="bevel" stroke-miterlimit="10"/><path fill="none" stroke="black" paint-order="fill stroke markers" d=" M 482 221 L 482 217" stroke-linejoin="bevel" stroke-miterlimit="10"/><path fill="none" stroke="black" paint-order="fill stroke markers" d=" M 501 221 L 501 217" stroke-linejoin="bevel" stroke-miterlimit="10"/><path fill="none" stroke="black" paint-order="fill stroke markers" d=" M 519 221 L 519 217" stroke-linejoin="bevel" stroke-miterlimit="10"/><path fill="none" stroke="black" paint-order="fill stroke markers" d=" M 537 221 L 537 217" stroke-linejoin="bevel" stroke-miterlimit="10"/><path fill="none" stroke="black" paint-order="fill stroke markers" d=" M 555 221 L 555 217" stroke-linejoin="bevel" stroke-miterlimit="10"/><path fill="none" stroke="black" paint-order="fill stroke markers" d=" M 573 221 L 573 217" stroke-linejoin="bevel" stroke-miterlimit="10"/><path fill="none" stroke="black" paint-order="fill stroke markers" d=" M 591 221 L 591 217" stroke-linejoin="bevel" stroke-miterlimit="10"/><path fill="none" stroke="black" paint-order="fill stroke markers" d=" M 610 221 L 610 217" stroke-linejoin="bevel" stroke-miterlimit="10"/><path fill="none" stroke="black" paint-order="fill stroke markers" d=" M 628 221 L 628 217" stroke-linejoin="bevel" stroke-miterlimit="10"/><path fill="none" stroke="black" paint-order="fill stroke markers" d=" M 646 221 L 646 217" stroke-linejoin="bevel" stroke-miterlimit="10"/><path fill="" stroke="black" paint-order="fill stroke markers" d=" M 664 221 L 664 217" stroke-linejoin="bevel" stroke-miterlimit="10"/><g transform="translate(228,228) rotate(0,0,0)"><text fill="" stroke="none" font-family="helvetica" font-size="14pt" font-style="normal" font-weight="normal" text-decoration="normal" x="0" y="0" text-anchor="middle" dominant-baseline="hanging">0</text><g transform="rotate(0,0,0) translate(-228,-228) translate(319,228) rotate(0,0,0)"><text fill="" stroke="none" font-family="helvetica" font-size="14pt" font-style="normal" font-weight="normal" text-decoration="normal" x="0" y="0" text-anchor="middle" dominant-baseline="hanging">2</text><g transform="rotate(0,0,0) translate(-319,-228) translate(410,228) rotate(0,0,0)"><text fill="" stroke="none" font-family="helvetica" font-size="14pt" font-style="normal" font-weight="normal" text-decoration="normal" x="0" y="0" text-anchor="middle" dominant-baseline="hanging">4</text><g transform="rotate(0,0,0) translate(-410,-228) translate(501,228) rotate(0,0,0)"><text fill="" stroke="none" font-family="helvetica" font-size="14pt" font-style="normal" font-weight="normal" text-decoration="normal" x="0" y="0" text-anchor="middle" dominant-baseline="hanging">6</text><g transform="rotate(0,0,0) translate(-501,-228) translate(591,228) rotate(0,0,0)"><text fill="" stroke="none" font-family="helvetica" font-size="14pt" font-style="normal" font-weight="normal" text-decoration="normal" x="0" y="0" text-anchor="middle" dominant-baseline="hanging">8</text><g transform="rotate(0,0,0) translate(-591,-228)"/></g></g></g></g></g></g></g><g><g fill="#444444"><path fill="none" stroke="black" paint-order="fill stroke markers" d=" M 228 217 L 228 37" stroke-linejoin="bevel" stroke-miterlimit="10"/><path fill="none" stroke="black" paint-order="fill stroke markers" d=" M 222 187 L 230 187" stroke-linejoin="bevel" stroke-miterlimit="10"/><path fill="none" stroke="black" paint-order="fill stroke markers" d=" M 222 127 L 230 127" stroke-linejoin="bevel" stroke-miterlimit="10"/><path fill="" stroke="black" paint-order="fill stroke markers" d=" M 222 67 L 230 67" stroke-linejoin="bevel" stroke-miterlimit="10"/><g transform="translate(217,187) rotate(0,0,0)"><text fill="" stroke="none" font-family="helvetica" font-size="14pt" font-style="normal" font-weight="normal" text-decoration="normal" x="0" y="0" text-anchor="end" dominant-baseline="central">Clashscore</text><g transform="rotate(0,0,0) translate(-217,-187) translate(217,127) rotate(0,0,0)"><text fill="" stroke="none" font-family="helvetica" font-size="14pt" font-style="normal" font-weight="normal" text-decoration="normal" x="0" y="0" text-anchor="end" dominant-baseline="central">Ramachandran Outliers</text><g transform="rotate(0,0,0) translate(-217,-127) translate(217,67) rotate(0,0,0)"><text fill="" stroke="none" font-family="helvetica" font-size="14pt" font-style="normal" font-weight="normal" text-decoration="normal" x="0" y="0" text-anchor="end" dominant-baseline="central">Sidechain Outliers</text><g transform="rotate(0,0,0) translate(-217,-67)"/></g></g></g></g></g><g clip-path="url(#EwcqKdBqTsPi)"><g/></g></g></g></svg>