<svg version="1.1" xmlns="http://www.w3.org/2000/svg" xmlns:xlink="http://www.w3.org/1999/xlink" width="700" height="250" style="width: 700px; height: 250px;"><defs><clipPath id="zhTWxKcIbmcH"><path fill="none" stroke="none" d=" M 97 42 L 670 42 L 670 182 L 97 182 L 97 42 Z"/></clipPath><clipPath id="xyQeWMqMZsMk"><path fill="none" stroke="none" d=" M 97 42 L 670 42 L 670 182 L 97 182 L 97 42 Z"/></clipPath><clipPath id="sfpQaHGRLpyT"><path fill="none" stroke="none" d=" M 97 42 L 670 42 L 670 182 L 97 182 L 97 42 Z"/></clipPath><clipPath id="MhEOsAzayQQu"><path fill="none" stroke="none" d=" M 97 42 L 670 42 L 670 182 L 97 182 L 97 42 Z"/></clipPath><clipPath id="wmkgwFDnbqKD"><path fill="none" stroke="none" d=" M 97 42 L 670 42 L 670 182 L 97 182 L 97 42 Z"/></clipPath></defs><g><g transform="scale(1,1) translate(0.5,0.5)"><rect fill="#FFFFFF" stroke="none" x="0" y="0" width="700" height="250"/><rect fill="#ffffff" stroke="none" x="0" y="0" width="700" height="250"/><rect fill="#FFFFFF" stroke="none" x="97" y="42" width="573" height="140"/><rect fill="#ffffff" stroke="none" x="97" y="42" width="573" height="140"/><g><rect fill="none" stroke="#e5e5e5" x="97" y="42" width="573" height="140" stroke-linejoin="bevel" stroke-miterlimit="10"/></g><g clip-path="url(#zhTWxKcIbmcH)"><g><g><path fill="none" stroke="#e5e5e5" paint-order="fill stroke markers" d=" M 154 182 L 154 42" stroke-linejoin="bevel" stroke-miterlimit="10"/><path fill="none" stroke="#e5e5e5" paint-order="fill stroke markers" d=" M 226 182 L 226 42" stroke-linejoin="bevel" stroke-miterlimit="10"/><path fill="none" stroke="#e5e5e5" paint-order="fill stroke markers" d=" M 298 182 L 298 42" stroke-linejoin="bevel" stroke-miterlimit="10"/><path fill="none" stroke="#e5e5e5" paint-order="fill stroke markers" d=" M 369 182 L 369 42" stroke-linejoin="bevel" stroke-miterlimit="10"/><path fill="none" stroke="#e5e5e5" paint-order="fill stroke markers" d=" M 441 182 L 441 42" stroke-linejoin="bevel" stroke-miterlimit="10"/><path fill="none" stroke="#e5e5e5" paint-order="fill stroke markers" d=" M 512 182 L 512 42" stroke-linejoin="bevel" stroke-miterlimit="10"/><path fill="none" stroke="#e5e5e5" paint-order="fill stroke markers" d=" M 584 182 L 584 42" stroke-linejoin="bevel" stroke-miterlimit="10"/><path fill="none" stroke="#e5e5e5" paint-order="fill stroke markers" d=" M 656 182 L 656 42" stroke-linejoin="bevel" stroke-miterlimit="10"/></g></g></g><g clip-path="url(#xyQeWMqMZsMk)"><g><g/></g></g><g clip-path="url(#sfpQaHGRLpyT)"><g><g><path fill="none" stroke="none"/><path fill="#e41a1c" stroke="none" paint-order="stroke fill markers" d=" M 97 77 L 383.5 77 L 383.5 147 L 97 147 L 97 77 Z" fill-opacity="0.8"/><path fill="none" stroke="#e41a1c" paint-order="fill stroke markers" d=" M 97 77 L 383.5 77 L 383.5 147 L 97 147 L 97 77 Z" stroke-linejoin="bevel" stroke-miterlimit="10" stroke-opacity="0.8"/></g></g></g><g clip-path="url(#MhEOsAzayQQu)"><g><g/><g><path fill="#ffffff" stroke="#e5e5e5" paint-order="fill stroke markers" d=" M 511.515625 52 L 660 52 L 660 92 L 511.515625 92 L 511.515625 52 Z" fill-opacity="0.95" stroke-linejoin="bevel" stroke-miterlimit="10" stroke-opacity="0.5"/><text fill="#444444" stroke="none" font-family="helvetica" font-size="10pt" font-style="normal" font-weight="normal" text-decoration="normal" x="546.515625" y="72" text-anchor="start" dominant-baseline="central">Model 1: 76321</text><rect fill="#e41a1c" stroke="none" x="523.515625" y="64" width="16" height="16" fill-opacity="0.8"/><path fill="none" stroke="#e41a1c" paint-order="fill stroke markers" d=" M 523.515625 64 L 539.515625 64 L 539.515625 80 L 523.515625 80 L 523.515625 64 Z" stroke-linejoin="bevel" stroke-miterlimit="10" stroke-opacity="0.8"/></g></g></g><g><g fill="#444444"><path fill="" stroke="none" d=""/><g transform="translate(383.5,5)"><path fill="none" stroke="none"/><text fill="" stroke="none" font-family="helvetica" font-size="14pt" font-style="normal" font-weight="bold" text-decoration="normal" x="0" y="0" text-anchor="middle" dominant-baseline="text-before-edge">Model quality: Excluded Volume Analysis</text></g></g></g><g/><g><g fill="#444444"><path fill="none" stroke="black" paint-order="fill stroke markers" d=" M 97 182 L 670 182" stroke-linejoin="bevel" stroke-miterlimit="10"/><path fill="none" stroke="black" paint-order="fill stroke markers" d=" M 154 188 L 154 180" stroke-linejoin="bevel" stroke-miterlimit="10"/><path fill="none" stroke="black" paint-order="fill stroke markers" d=" M 226 188 L 226 180" stroke-linejoin="bevel" stroke-miterlimit="10"/><path fill="none" stroke="black" paint-order="fill stroke markers" d=" M 298 188 L 298 180" stroke-linejoin="bevel" stroke-miterlimit="10"/><path fill="none" stroke="black" paint-order="fill stroke markers" d=" M 369 188 L 369 180" stroke-linejoin="bevel" stroke-miterlimit="10"/><path fill="none" stroke="black" paint-order="fill stroke markers" d=" M 441 188 L 441 180" stroke-linejoin="bevel" stroke-miterlimit="10"/><path fill="none" stroke="black" paint-order="fill stroke markers" d=" M 512 188 L 512 180" stroke-linejoin="bevel" stroke-miterlimit="10"/><path fill="none" stroke="black" paint-order="fill stroke markers" d=" M 584 188 L 584 180" stroke-linejoin="bevel" stroke-miterlimit="10"/><path fill="none" stroke="black" paint-order="fill stroke markers" d=" M 656 188 L 656 180" stroke-linejoin="bevel" stroke-miterlimit="10"/><path fill="none" stroke="black" paint-order="fill stroke markers" d=" M 140 186 L 140 182" stroke-linejoin="bevel" stroke-miterlimit="10"/><path fill="none" stroke="black" paint-order="fill stroke markers" d=" M 126 186 L 126 182" stroke-linejoin="bevel" stroke-miterlimit="10"/><path fill="none" stroke="black" paint-order="fill stroke markers" d=" M 111 186 L 111 182" stroke-linejoin="bevel" stroke-miterlimit="10"/><path fill="none" stroke="black" paint-order="fill stroke markers" d=" M 97 186 L 97 182" stroke-linejoin="bevel" stroke-miterlimit="10"/><path fill="none" stroke="black" paint-order="fill stroke markers" d=" M 154 186 L 154 182" stroke-linejoin="bevel" stroke-miterlimit="10"/><path fill="none" stroke="black" paint-order="fill stroke markers" d=" M 169 186 L 169 182" stroke-linejoin="bevel" stroke-miterlimit="10"/><path fill="none" stroke="black" paint-order="fill stroke markers" d=" M 183 186 L 183 182" stroke-linejoin="bevel" stroke-miterlimit="10"/><path fill="none" stroke="black" paint-order="fill stroke markers" d=" M 197 186 L 197 182" stroke-linejoin="bevel" stroke-miterlimit="10"/><path fill="none" stroke="black" paint-order="fill stroke markers" d=" M 212 186 L 212 182" stroke-linejoin="bevel" stroke-miterlimit="10"/><path fill="none" stroke="black" paint-order="fill stroke markers" d=" M 226 186 L 226 182" stroke-linejoin="bevel" stroke-miterlimit="10"/><path fill="none" stroke="black" paint-order="fill stroke markers" d=" M 240 186 L 240 182" stroke-linejoin="bevel" stroke-miterlimit="10"/><path fill="none" stroke="black" paint-order="fill stroke markers" d=" M 255 186 L 255 182" stroke-linejoin="bevel" stroke-miterlimit="10"/><path fill="none" stroke="black" paint-order="fill stroke markers" d=" M 269 186 L 269 182" stroke-linejoin="bevel" stroke-miterlimit="10"/><path fill="none" stroke="black" paint-order="fill stroke markers" d=" M 283 186 L 283 182" stroke-linejoin="bevel" stroke-miterlimit="10"/><path fill="none" stroke="black" paint-order="fill stroke markers" d=" M 298 186 L 298 182" stroke-linejoin="bevel" stroke-miterlimit="10"/><path fill="none" stroke="black" paint-order="fill stroke markers" d=" M 312 186 L 312 182" stroke-linejoin="bevel" stroke-miterlimit="10"/><path fill="none" stroke="black" paint-order="fill stroke markers" d=" M 326 186 L 326 182" stroke-linejoin="bevel" stroke-miterlimit="10"/><path fill="none" stroke="black" paint-order="fill stroke markers" d=" M 341 186 L 341 182" stroke-linejoin="bevel" stroke-miterlimit="10"/><path fill="none" stroke="black" paint-order="fill stroke markers" d=" M 355 186 L 355 182" stroke-linejoin="bevel" stroke-miterlimit="10"/><path fill="none" stroke="black" paint-order="fill stroke markers" d=" M 369 186 L 369 182" stroke-linejoin="bevel" stroke-miterlimit="10"/><path fill="none" stroke="black" paint-order="fill stroke markers" d=" M 384 186 L 384 182" stroke-linejoin="bevel" stroke-miterlimit="10"/><path fill="none" stroke="black" paint-order="fill stroke markers" d=" M 398 186 L 398 182" stroke-linejoin="bevel" stroke-miterlimit="10"/><path fill="none" stroke="black" paint-order="fill stroke markers" d=" M 412 186 L 412 182" stroke-linejoin="bevel" stroke-miterlimit="10"/><path fill="none" stroke="black" paint-order="fill stroke markers" d=" M 426 186 L 426 182" stroke-linejoin="bevel" stroke-miterlimit="10"/><path fill="none" stroke="black" paint-order="fill stroke markers" d=" M 441 186 L 441 182" stroke-linejoin="bevel" stroke-miterlimit="10"/><path fill="none" stroke="black" paint-order="fill stroke markers" d=" M 455 186 L 455 182" stroke-linejoin="bevel" stroke-miterlimit="10"/><path fill="none" stroke="black" paint-order="fill stroke markers" d=" M 469 186 L 469 182" stroke-linejoin="bevel" stroke-miterlimit="10"/><path fill="none" stroke="black" paint-order="fill stroke markers" d=" M 484 186 L 484 182" stroke-linejoin="bevel" stroke-miterlimit="10"/><path fill="none" stroke="black" paint-order="fill stroke markers" d=" M 498 186 L 498 182" stroke-linejoin="bevel" stroke-miterlimit="10"/><path fill="none" stroke="black" paint-order="fill stroke markers" d=" M 512 186 L 512 182" stroke-linejoin="bevel" stroke-miterlimit="10"/><path fill="none" stroke="black" paint-order="fill stroke markers" d=" M 527 186 L 527 182" stroke-linejoin="bevel" stroke-miterlimit="10"/><path fill="none" stroke="black" paint-order="fill stroke markers" d=" M 541 186 L 541 182" stroke-linejoin="bevel" stroke-miterlimit="10"/><path fill="none" stroke="black" paint-order="fill stroke markers" d=" M 555 186 L 555 182" stroke-linejoin="bevel" stroke-miterlimit="10"/><path fill="none" stroke="black" paint-order="fill stroke markers" d=" M 570 186 L 570 182" stroke-linejoin="bevel" stroke-miterlimit="10"/><path fill="none" stroke="black" paint-order="fill stroke markers" d=" M 584 186 L 584 182" stroke-linejoin="bevel" stroke-miterlimit="10"/><path fill="none" stroke="black" paint-order="fill stroke markers" d=" M 598 186 L 598 182" stroke-linejoin="bevel" stroke-miterlimit="10"/><path fill="none" stroke="black" paint-order="fill stroke markers" d=" M 613 186 L 613 182" stroke-linejoin="bevel" stroke-miterlimit="10"/><path fill="none" stroke="black" paint-order="fill stroke markers" d=" M 627 186 L 627 182" stroke-linejoin="bevel" stroke-miterlimit="10"/><path fill="none" stroke="black" paint-order="fill stroke markers" d=" M 641 186 L 641 182" stroke-linejoin="bevel" stroke-miterlimit="10"/><path fill="none" stroke="black" paint-order="fill stroke markers" d=" M 656 186 L 656 182" stroke-linejoin="bevel" stroke-miterlimit="10"/><path fill="" stroke="black" paint-order="fill stroke markers" d=" M 670 186 L 670 182" stroke-linejoin="bevel" stroke-miterlimit="10"/><g transform="translate(154,193) rotate(0,0,0)"><text fill="" stroke="none" font-family="helvetica" font-size="14pt" font-style="normal" font-weight="normal" text-decoration="normal" x="0" y="0" text-anchor="middle" dominant-baseline="hanging">76305</text><g transform="rotate(0,0,0) translate(-154,-193) translate(226,193) rotate(0,0,0)"><text fill="" stroke="none" font-family="helvetica" font-size="14pt" font-style="normal" font-weight="normal" text-decoration="normal" x="0" y="0" text-anchor="middle" dominant-baseline="hanging">76310</text><g transform="rotate(0,0,0) translate(-226,-193) translate(298,193) rotate(0,0,0)"><text fill="" stroke="none" font-family="helvetica" font-size="14pt" font-style="normal" font-weight="normal" text-decoration="normal" x="0" y="0" text-anchor="middle" dominant-baseline="hanging">76315</text><g transform="rotate(0,0,0) translate(-298,-193) translate(369,193) rotate(0,0,0)"><text fill="" stroke="none" font-family="helvetica" font-size="14pt" font-style="normal" font-weight="normal" text-decoration="normal" x="0" y="0" text-anchor="middle" dominant-baseline="hanging">76320</text><g transform="rotate(0,0,0) translate(-369,-193) translate(441,193) rotate(0,0,0)"><text fill="" stroke="none" font-family="helvetica" font-size="14pt" font-style="normal" font-weight="normal" text-decoration="normal" x="0" y="0" text-anchor="middle" dominant-baseline="hanging">76325</text><g transform="rotate(0,0,0) translate(-441,-193) translate(512,193) rotate(0,0,0)"><text fill="" stroke="none" font-family="helvetica" font-size="14pt" font-style="normal" font-weight="normal" text-decoration="normal" x="0" y="0" text-anchor="middle" dominant-baseline="hanging">76330</text><g transform="rotate(0,0,0) translate(-512,-193) translate(584,193) rotate(0,0,0)"><text fill="" stroke="none" font-family="helvetica" font-size="14pt" font-style="normal" font-weight="normal" text-decoration="normal" x="0" y="0" text-anchor="middle" dominant-baseline="hanging">76335</text><g transform="rotate(0,0,0) translate(-584,-193) translate(656,193) rotate(0,0,0)"><text fill="" stroke="none" font-family="helvetica" font-size="14pt" font-style="normal" font-weight="normal" text-decoration="normal" x="0" y="0" text-anchor="middle" dominant-baseline="hanging">76340</text><g transform="rotate(0,0,0) translate(-656,-193) translate(384,224) rotate(0,0,0)"><text fill="" stroke="none" font-family="helvetica" font-size="14pt" font-style="italic" font-weight="normal" text-decoration="normal" x="0" y="0" text-anchor="middle" dominant-baseline="hanging">Number of violations</text><g transform="rotate(0,0,0) translate(-384,-224)"/></g></g></g></g></g></g></g></g></g></g></g><g><g fill="#444444"><path fill="none" stroke="black" paint-order="fill stroke markers" d=" M 97 182 L 97 42" stroke-linejoin="bevel" stroke-miterlimit="10"/><path fill="" stroke="black" paint-order="fill stroke markers" d=" M 91 112 L 99 112" stroke-linejoin="bevel" stroke-miterlimit="10"/><g transform="translate(86,112) rotate(0,0,0)"><text fill="" stroke="none" font-family="helvetica" font-size="14pt" font-style="normal" font-weight="normal" text-decoration="normal" x="0" y="0" text-anchor="end" dominant-baseline="central">Model 1</text><g transform="rotate(0,0,0) translate(-86,-112)"/></g></g></g><g clip-path="url(#wmkgwFDnbqKD)"><g/></g></g></g></svg>