<svg version="1.1" xmlns="http://www.w3.org/2000/svg" xmlns:xlink="http://www.w3.org/1999/xlink" width="500" height="500" style="width: 500px; height: 500px;"><defs><clipPath id="TPhyQmBOqomW"><path fill="none" stroke="none" d=" M 85 33 L 470 33 L 470 439 L 85 439 L 85 33 Z"/></clipPath><clipPath id="UXdWHedlBqAk"><path fill="none" stroke="none" d=" M 85 33 L 470 33 L 470 439 L 85 439 L 85 33 Z"/></clipPath><clipPath id="cTdyFQURbKLR"><path fill="none" stroke="none" d=" M 85 33 L 470 33 L 470 439 L 85 439 L 85 33 Z"/></clipPath><clipPath id="urwrUDFeMCBf"><path fill="none" stroke="none" d=" M 85 33 L 470 33 L 470 439 L 85 439 L 85 33 Z"/></clipPath><clipPath id="bWlSHUFqtMpZ"><path fill="none" stroke="none" d=" M 85 33 L 470 33 L 470 439 L 85 439 L 85 33 Z"/></clipPath><clipPath id="qUaxQFwEtExD"><path fill="none" stroke="none" d=" M 85 33 L 470 33 L 470 439 L 85 439 L 85 33 Z"/></clipPath><clipPath id="EedzKcEeTtRK"><path fill="none" stroke="none" d=" M 85 33 L 470 33 L 470 439 L 85 439 L 85 33 Z"/></clipPath><clipPath id="eoiPhZFfZbTN"><path fill="none" stroke="none" d=" M 85 33 L 470 33 L 470 439 L 85 439 L 85 33 Z"/></clipPath><clipPath id="sWDcsZhOmONm"><path fill="none" stroke="none" d=" M 85 33 L 470 33 L 470 439 L 85 439 L 85 33 Z"/></clipPath><clipPath id="FvlSALcpaLmR"><path fill="none" stroke="none" d=" M 85 33 L 470 33 L 470 439 L 85 439 L 85 33 Z"/></clipPath></defs><g transform="scale(1,1) translate(0.5,0.5) scale(1,1) translate(0.5,0.5)"><rect fill="#ffffff" stroke="none" x="0" y="0" width="500" height="500"/><rect fill="#FFFFFF" stroke="none" x="85" y="33" width="385" height="406"/><rect fill="#ffffff" stroke="none" x="85" y="33" width="385" height="406"/><g><rect fill="none" stroke="#e5e5e5" x="85" y="33" width="385" height="406" stroke-linejoin="bevel" stroke-miterlimit="10"/></g><g clip-path="url(#qUaxQFwEtExD)"><g><g><path fill="none" stroke="#e5e5e5" paint-order="fill stroke markers" d=" M 114 439 L 114 33" stroke-linejoin="bevel" stroke-miterlimit="10"/><path fill="none" stroke="#e5e5e5" paint-order="fill stroke markers" d=" M 166 439 L 166 33" stroke-linejoin="bevel" stroke-miterlimit="10"/><path fill="none" stroke="#e5e5e5" paint-order="fill stroke markers" d=" M 217 439 L 217 33" stroke-linejoin="bevel" stroke-miterlimit="10"/><path fill="none" stroke="#e5e5e5" paint-order="fill stroke markers" d=" M 269 439 L 269 33" stroke-linejoin="bevel" stroke-miterlimit="10"/><path fill="none" stroke="#e5e5e5" paint-order="fill stroke markers" d=" M 320 439 L 320 33" stroke-linejoin="bevel" stroke-miterlimit="10"/><path fill="none" stroke="#e5e5e5" paint-order="fill stroke markers" d=" M 372 439 L 372 33" stroke-linejoin="bevel" stroke-miterlimit="10"/><path fill="none" stroke="#e5e5e5" paint-order="fill stroke markers" d=" M 423 439 L 423 33" stroke-linejoin="bevel" stroke-miterlimit="10"/></g></g></g><g clip-path="url(#EedzKcEeTtRK)"><g><g><path fill="none" stroke="#e5e5e5" paint-order="fill stroke markers" d=" M 85 414 L 470 414" stroke-linejoin="bevel" stroke-miterlimit="10"/><path fill="none" stroke="#e5e5e5" paint-order="fill stroke markers" d=" M 85 327 L 470 327" stroke-linejoin="bevel" stroke-miterlimit="10"/><path fill="none" stroke="#e5e5e5" paint-order="fill stroke markers" d=" M 85 240 L 470 240" stroke-linejoin="bevel" stroke-miterlimit="10"/><path fill="none" stroke="#e5e5e5" paint-order="fill stroke markers" d=" M 85 153 L 470 153" stroke-linejoin="bevel" stroke-miterlimit="10"/><path fill="none" stroke="#e5e5e5" paint-order="fill stroke markers" d=" M 85 66 L 470 66" stroke-linejoin="bevel" stroke-miterlimit="10"/></g></g></g><g clip-path="url(#eoiPhZFfZbTN)"><g><g><path fill="none" stroke="none"/><path fill="blue" stroke="blue" paint-order="fill stroke markers" d=" M 105.00000000000004 155.08866727470712 A 2.5 2.5 0 1 1 104.99999875000015 155.08616727512378" fill-opacity="0.3" stroke-linejoin="bevel" stroke-miterlimit="10"/><path fill="blue" stroke="blue" paint-order="fill stroke markers" d=" M 107.02159155897073 262.4980415811301 A 2.5 2.5 0 1 1 107.02159030897083 262.4955415815468" fill-opacity="0.3" stroke-linejoin="bevel" stroke-miterlimit="10"/><path fill="blue" stroke="blue" paint-order="fill stroke markers" d=" M 109.09310021121092 399.8153111866385 A 2.5 2.5 0 1 1 109.09309896121103 399.81281118705516" fill-opacity="0.3" stroke-linejoin="bevel" stroke-miterlimit="10"/><path fill="blue" stroke="blue" paint-order="fill stroke markers" d=" M 111.21452595672065 293.54370026772585 A 2.5 2.5 0 1 1 111.21452470672075 293.5412002681425" fill-opacity="0.3" stroke-linejoin="bevel" stroke-miterlimit="10"/><path fill="blue" stroke="blue" paint-order="fill stroke markers" d=" M 113.38586879549989 179.8523631053629 A 2.5 2.5 0 1 1 113.38586754549999 179.84986310577958" fill-opacity="0.3" stroke-linejoin="bevel" stroke-miterlimit="10"/><path fill="blue" stroke="blue" paint-order="fill stroke markers" d=" M 115.60667227288356 190.79325326578646 A 2.5 2.5 0 1 1 115.60667102288366 190.79075326620313" fill-opacity="0.3" stroke-linejoin="bevel" stroke-miterlimit="10"/><path fill="blue" stroke="blue" paint-order="fill stroke markers" d=" M 117.87783915451288 51.45454545454547 A 2.5 2.5 0 1 1 117.87783790451299 51.45204545496213" fill-opacity="0.3" stroke-linejoin="bevel" stroke-miterlimit="10"/><path fill="blue" stroke="blue" paint-order="fill stroke markers" d=" M 120.19892312941171 63.79168600086902 A 2.5 2.5 0 1 1 120.19892187941181 63.789186001285685" fill-opacity="0.3" stroke-linejoin="bevel" stroke-miterlimit="10"/><path fill="blue" stroke="blue" paint-order="fill stroke markers" d=" M 122.56992419758008 224.3489887535322 A 2.5 2.5 0 1 1 122.56992294758018 224.34648875394888" fill-opacity="0.3" stroke-linejoin="bevel" stroke-miterlimit="10"/><path fill="blue" stroke="blue" paint-order="fill stroke markers" d=" M 124.99084235901795 219.3116566471062 A 2.5 2.5 0 1 1 124.99084110901805 219.30915664752285" fill-opacity="0.3" stroke-linejoin="bevel" stroke-miterlimit="10"/><path fill="blue" stroke="blue" paint-order="fill stroke markers" d=" M 127.46167761372531 255.41736618368316 A 2.5 2.5 0 1 1 127.46167636372542 255.41486618409982" fill-opacity="0.3" stroke-linejoin="bevel" stroke-miterlimit="10"/><path fill="blue" stroke="blue" paint-order="fill stroke markers" d=" M 129.98191264696482 136.53110011315547 A 2.5 2.5 0 1 1 129.98191139696493 136.52860011357214" fill-opacity="0.3" stroke-linejoin="bevel" stroke-miterlimit="10"/><path fill="blue" stroke="blue" paint-order="fill stroke markers" d=" M 132.5525719445223 347.98746159827647 A 2.5 2.5 0 1 1 132.55257069452242 347.98496159869313" fill-opacity="0.3" stroke-linejoin="bevel" stroke-miterlimit="10"/><path fill="blue" stroke="blue" paint-order="fill stroke markers" d=" M 135.1731483353493 196.01513990371933 A 2.5 2.5 0 1 1 135.17314708534943 196.012639904136" fill-opacity="0.3" stroke-linejoin="bevel" stroke-miterlimit="10"/><path fill="blue" stroke="blue" paint-order="fill stroke markers" d=" M 137.8436418194458 209.9262846792256 A 2.5 2.5 0 1 1 137.8436405694459 209.92378467964227" fill-opacity="0.3" stroke-linejoin="bevel" stroke-miterlimit="10"/><path fill="blue" stroke="blue" paint-order="fill stroke markers" d=" M 140.56405239681183 183.98071810290864 A 2.5 2.5 0 1 1 140.56405114681195 183.9782181033253" fill-opacity="0.3" stroke-linejoin="bevel" stroke-miterlimit="10"/><path fill="blue" stroke="blue" paint-order="fill stroke markers" d=" M 143.33381203632655 420.5454545454545 A 2.5 2.5 0 1 1 143.33381078632667 420.54295454587117" fill-opacity="0.3" stroke-linejoin="bevel" stroke-miterlimit="10"/><path fill="blue" stroke="blue" paint-order="fill stroke markers" d=" M 146.15404665654268 193.13953075841482 A 2.5 2.5 0 1 1 146.1540454065428 193.1370307588315" fill-opacity="0.3" stroke-linejoin="bevel" stroke-miterlimit="10"/><path fill="blue" stroke="blue" paint-order="fill stroke markers" d=" M 149.02419837002833 218.62578325595507 A 2.5 2.5 0 1 1 149.02419712002845 218.62328325637174" fill-opacity="0.3" stroke-linejoin="bevel" stroke-miterlimit="10"/><path fill="blue" stroke="blue" paint-order="fill stroke markers" d=" M 151.94426717678348 263.6405530485554 A 2.5 2.5 0 1 1 151.9442659267836 263.63805304897204" fill-opacity="0.3" stroke-linejoin="bevel" stroke-miterlimit="10"/><path fill="blue" stroke="blue" paint-order="fill stroke markers" d=" M 154.91425307680814 315.91100244273605 A 2.5 2.5 0 1 1 154.91425182680825 315.9085024431527" fill-opacity="0.3" stroke-linejoin="bevel" stroke-miterlimit="10"/><path fill="blue" stroke="blue" paint-order="fill stroke markers" d=" M 157.9335373225981 184.34460470795642 A 2.5 2.5 0 1 1 157.93353607259823 184.34210470837309" fill-opacity="0.3" stroke-linejoin="bevel" stroke-miterlimit="10"/><path fill="blue" stroke="blue" paint-order="fill stroke markers" d=" M 161.00334726547288 209.07155664811302 A 2.5 2.5 0 1 1 161.003346015473 209.06905664852968" fill-opacity="0.3" stroke-linejoin="bevel" stroke-miterlimit="10"/><path fill="blue" stroke="blue" paint-order="fill stroke markers" d=" M 164.12307430161718 224.58549221455252 A 2.5 2.5 0 1 1 164.1230730516173 224.58299221496918" fill-opacity="0.3" stroke-linejoin="bevel" stroke-miterlimit="10"/><path fill="blue" stroke="blue" paint-order="fill stroke markers" d=" M 167.29271843103095 201.56190891864372 A 2.5 2.5 0 1 1 167.29271718103107 201.5594089190604" fill-opacity="0.3" stroke-linejoin="bevel" stroke-miterlimit="10"/><path fill="blue" stroke="blue" paint-order="fill stroke markers" d=" M 170.51162033351562 256.1383120185506 A 2.5 2.5 0 1 1 170.51161908351574 256.1358120189673" fill-opacity="0.3" stroke-linejoin="bevel" stroke-miterlimit="10"/><path fill="blue" stroke="blue" paint-order="fill stroke markers" d=" M 173.7810885057795 251.2231773630583 A 2.5 2.5 0 1 1 173.78108725577962 251.22067736347498" fill-opacity="0.3" stroke-linejoin="bevel" stroke-miterlimit="10"/><path fill="blue" stroke="blue" paint-order="fill stroke markers" d=" M 177.10047377131286 212.27680030424688 A 2.5 2.5 0 1 1 177.10047252131298 212.27430030466354" fill-opacity="0.3" stroke-linejoin="bevel" stroke-miterlimit="10"/><path fill="blue" stroke="blue" paint-order="fill stroke markers" d=" M 180.46977613011578 217.83536750681048 A 2.5 2.5 0 1 1 180.4697748801159 217.83286750722715" fill-opacity="0.3" stroke-linejoin="bevel" stroke-miterlimit="10"/><path fill="blue" stroke="blue" paint-order="fill stroke markers" d=" M 183.88829568929515 196.66177541938023 A 2.5 2.5 0 1 1 183.88829443929527 196.6592754197969" fill-opacity="0.3" stroke-linejoin="bevel" stroke-miterlimit="10"/><path fill="blue" stroke="blue" paint-order="fill stroke markers" d=" M 187.35742209094815 247.78006672206928 A 2.5 2.5 0 1 1 187.35742084094827 247.77756672248594" fill-opacity="0.3" stroke-linejoin="bevel" stroke-miterlimit="10"/><path fill="blue" stroke="blue" paint-order="fill stroke markers" d=" M 190.87646558587062 279.1491848018449 A 2.5 2.5 0 1 1 190.87646433587074 279.1466848022616" fill-opacity="0.3" stroke-linejoin="bevel" stroke-miterlimit="10"/><path fill="blue" stroke="blue" paint-order="fill stroke markers" d=" M 194.44469585216416 229.69363314540908 A 2.5 2.5 0 1 1 194.44469460216428 229.69113314582575" fill-opacity="0.3" stroke-linejoin="bevel" stroke-miterlimit="10"/><path fill="blue" stroke="blue" paint-order="fill stroke markers" d=" M 198.06356338993672 262.8670920574815 A 2.5 2.5 0 1 1 198.06356213993683 262.86459205789816" fill-opacity="0.3" stroke-linejoin="bevel" stroke-miterlimit="10"/><path fill="blue" stroke="blue" paint-order="fill stroke markers" d=" M 201.73234802097886 240.6613457557069 A 2.5 2.5 0 1 1 201.73234677097898 240.65884575612355" fill-opacity="0.3" stroke-linejoin="bevel" stroke-miterlimit="10"/><path fill="blue" stroke="blue" paint-order="fill stroke markers" d=" M 205.45104974529053 284.740396975106 A 2.5 2.5 0 1 1 205.45104849529065 284.7378969755227" fill-opacity="0.3" stroke-linejoin="bevel" stroke-miterlimit="10"/><path fill="blue" stroke="blue" paint-order="fill stroke markers" d=" M 209.2188976682786 147.96583118637443 A 2.5 2.5 0 1 1 209.21889641827872 147.9633311867911" fill-opacity="0.3" stroke-linejoin="bevel" stroke-miterlimit="10"/><path fill="blue" stroke="blue" paint-order="fill stroke markers" d=" M 213.0374234354403 251.21331849354755 A 2.5 2.5 0 1 1 213.03742218544042 251.2108184939642" fill-opacity="0.3" stroke-linejoin="bevel" stroke-miterlimit="10"/><path fill="blue" stroke="blue" paint-order="fill stroke markers" d=" M 216.90586629587156 211.11520441290338 A 2.5 2.5 0 1 1 216.90586504587168 211.11270441332005" fill-opacity="0.3" stroke-linejoin="bevel" stroke-miterlimit="10"/><path fill="blue" stroke="blue" paint-order="fill stroke markers" d=" M 220.8234249259738 306.5666921670586 A 2.5 2.5 0 1 1 220.8234236759739 306.56419216747526" fill-opacity="0.3" stroke-linejoin="bevel" stroke-miterlimit="10"/><path fill="blue" stroke="blue" paint-order="fill stroke markers" d=" M 224.79169182925514 245.56408885075862 A 2.5 2.5 0 1 1 224.79169057925526 245.5615888511753" fill-opacity="0.3" stroke-linejoin="bevel" stroke-miterlimit="10"/><path fill="blue" stroke="blue" paint-order="fill stroke markers" d=" M 228.80987582580593 210.0829732451848 A 2.5 2.5 0 1 1 228.80987457580605 210.08047324560147" fill-opacity="0.3" stroke-linejoin="bevel" stroke-miterlimit="10"/><path fill="blue" stroke="blue" paint-order="fill stroke markers" d=" M 232.87714516302233 328.0483338012659 A 2.5 2.5 0 1 1 232.87714391302245 328.0458338016826" fill-opacity="0.3" stroke-linejoin="bevel" stroke-miterlimit="10"/><path fill="blue" stroke="blue" paint-order="fill stroke markers" d=" M 236.99515320242324 344.8999240791064 A 2.5 2.5 0 1 1 236.99515195242336 344.8974240795231" fill-opacity="0.3" stroke-linejoin="bevel" stroke-miterlimit="10"/><path fill="blue" stroke="blue" paint-order="fill stroke markers" d=" M 241.1630783350937 221.9589139217452 A 2.5 2.5 0 1 1 241.16307708509382 221.95641392216186" fill-opacity="0.3" stroke-linejoin="bevel" stroke-miterlimit="10"/><path fill="blue" stroke="blue" paint-order="fill stroke markers" d=" M 245.3800583794241 289.89272513059484 A 2.5 2.5 0 1 1 245.38005712942422 289.8902251310115" fill-opacity="0.3" stroke-linejoin="bevel" stroke-miterlimit="10"/><path fill="blue" stroke="blue" paint-order="fill stroke markers" d=" M 249.64780755494465 393.8434810546168 A 2.5 2.5 0 1 1 249.64780630494477 393.84098105503347" fill-opacity="0.3" stroke-linejoin="bevel" stroke-miterlimit="10"/><path fill="blue" stroke="blue" paint-order="fill stroke markers" d=" M 253.96547382373467 264.01441815842816 A 2.5 2.5 0 1 1 253.9654725737348 264.0119181588448" fill-opacity="0.3" stroke-linejoin="bevel" stroke-miterlimit="10"/><path fill="blue" stroke="blue" paint-order="fill stroke markers" d=" M 258.33216457517915 269.9387273461553 A 2.5 2.5 0 1 1 258.3321633251793 269.93622734657197" fill-opacity="0.3" stroke-linejoin="bevel" stroke-miterlimit="10"/><path fill="blue" stroke="blue" paint-order="fill stroke markers" d=" M 262.74965488681937 267.3814698335153 A 2.5 2.5 0 1 1 262.74965363681946 267.378969833932" fill-opacity="0.3" stroke-linejoin="bevel" stroke-miterlimit="10"/><path fill="blue" stroke="blue" paint-order="fill stroke markers" d=" M 267.2161493957974 239.6285027939843 A 2.5 2.5 0 1 1 267.2161481457975 239.62600279440096" fill-opacity="0.3" stroke-linejoin="bevel" stroke-miterlimit="10"/><path fill="blue" stroke="blue" paint-order="fill stroke markers" d=" M 271.7334637502877 312.7939412894603 A 2.5 2.5 0 1 1 271.73346250028777 312.79144128987696" fill-opacity="0.3" stroke-linejoin="bevel" stroke-miterlimit="10"/><path fill="blue" stroke="blue" paint-order="fill stroke markers" d=" M 276.3006951980475 366.7126721023105 A 2.5 2.5 0 1 1 276.3006939480476 366.71017210272714" fill-opacity="0.3" stroke-linejoin="bevel" stroke-miterlimit="10"/><path fill="blue" stroke="blue" paint-order="fill stroke markers" d=" M 280.9169004141396 292.2999085875029 A 2.5 2.5 0 1 1 280.9168991641397 292.29740858791956" fill-opacity="0.3" stroke-linejoin="bevel" stroke-miterlimit="10"/><path fill="blue" stroke="blue" paint-order="fill stroke markers" d=" M 285.5839559047494 343.6320787444272 A 2.5 2.5 0 1 1 285.5839546547495 343.62957874484385" fill-opacity="0.3" stroke-linejoin="bevel" stroke-miterlimit="10"/><path fill="blue" stroke="blue" paint-order="fill stroke markers" d=" M 290.299964878375 285.70187236036895 A 2.5 2.5 0 1 1 290.2999636283751 285.6993723607856" fill-opacity="0.3" stroke-linejoin="bevel" stroke-miterlimit="10"/><path fill="blue" stroke="blue" paint-order="fill stroke markers" d=" M 295.066844411835 300.5504991540311 A 2.5 2.5 0 1 1 295.0668431618351 300.5479991544478" fill-opacity="0.3" stroke-linejoin="bevel" stroke-miterlimit="10"/><path fill="blue" stroke="blue" paint-order="fill stroke markers" d=" M 299.8826571429941 225.18378400414642 A 2.5 2.5 0 1 1 299.8826558929942 225.18128400456308" fill-opacity="0.3" stroke-linejoin="bevel" stroke-miterlimit="10"/><path fill="blue" stroke="blue" paint-order="fill stroke markers" d=" M 304.74936071930426 245.19441991419347 A 2.5 2.5 0 1 1 304.74935946930435 245.19191991461014" fill-opacity="0.3" stroke-linejoin="bevel" stroke-miterlimit="10"/><path fill="blue" stroke="blue" paint-order="fill stroke markers" d=" M 309.6659813888838 220.63621308409134 A 2.5 2.5 0 1 1 309.66598013888387 220.633713084508" fill-opacity="0.3" stroke-linejoin="bevel" stroke-miterlimit="10"/><path fill="blue" stroke="blue" paint-order="fill stroke markers" d=" M 314.631504827157 177.90334574393293 A 2.5 2.5 0 1 1 314.6315035771571 177.9008457443496" fill-opacity="0.3" stroke-linejoin="bevel" stroke-miterlimit="10"/><path fill="blue" stroke="blue" paint-order="fill stroke markers" d=" M 319.64794953958665 253.4691140713334 A 2.5 2.5 0 1 1 319.64794828958674 253.46661407175006" fill-opacity="0.3" stroke-linejoin="bevel" stroke-miterlimit="10"/><path fill="blue" stroke="blue" paint-order="fill stroke markers" d=" M 324.7132767353934 242.3370596376653 A 2.5 2.5 0 1 1 324.71327548539347 242.33455963808197" fill-opacity="0.3" stroke-linejoin="bevel" stroke-miterlimit="10"/><path fill="blue" stroke="blue" paint-order="fill stroke markers" d=" M 329.8295454906731 180.68885604701774 A 2.5 2.5 0 1 1 329.8295442406732 180.6863560474344" fill-opacity="0.3" stroke-linejoin="bevel" stroke-miterlimit="10"/><path fill="blue" stroke="blue" paint-order="fill stroke markers" d=" M 334.9946764440135 303.243250496661 A 2.5 2.5 0 1 1 334.9946751940136 303.24075049707767" fill-opacity="0.3" stroke-linejoin="bevel" stroke-miterlimit="10"/><path fill="blue" stroke="blue" paint-order="fill stroke markers" d=" M 340.21076924214333 243.57655105795257 A 2.5 2.5 0 1 1 340.2107679921434 243.57405105836924" fill-opacity="0.3" stroke-linejoin="bevel" stroke-miterlimit="10"/><path fill="blue" stroke="blue" paint-order="fill stroke markers" d=" M 345.47570395301716 184.40101256765203 A 2.5 2.5 0 1 1 345.47570270301725 184.3985125680687" fill-opacity="0.3" stroke-linejoin="bevel" stroke-miterlimit="10"/><path fill="blue" stroke="blue" paint-order="fill stroke markers" d=" M 350.79162079399714 251.30164091298732 A 2.5 2.5 0 1 1 350.79161954399723 251.299140913404" fill-opacity="0.3" stroke-linejoin="bevel" stroke-miterlimit="10"/><path fill="blue" stroke="blue" paint-order="fill stroke markers" d=" M 356.1563592624043 225.84100553144327 A 2.5 2.5 0 1 1 356.1563580124044 225.83850553185994" fill-opacity="0.3" stroke-linejoin="bevel" stroke-miterlimit="10"/><path fill="blue" stroke="blue" paint-order="fill stroke markers" d=" M 361.57210014623433 223.8107335792977 A 2.5 2.5 0 1 1 361.5720988962344 223.80823357971437" fill-opacity="0.3" stroke-linejoin="bevel" stroke-miterlimit="10"/><path fill="blue" stroke="blue" paint-order="fill stroke markers" d=" M 367.03664237217515 204.69913511925162 A 2.5 2.5 0 1 1 367.03664112217524 204.6966351196683" fill-opacity="0.3" stroke-linejoin="bevel" stroke-miterlimit="10"/><path fill="blue" stroke="blue" paint-order="fill stroke markers" d=" M 372.55220729885536 224.24523283301446 A 2.5 2.5 0 1 1 372.55220604885545 224.24273283343112" fill-opacity="0.3" stroke-linejoin="bevel" stroke-miterlimit="10"/><path fill="blue" stroke="blue" paint-order="fill stroke markers" d=" M 378.11655328232973 212.73347744595475 A 2.5 2.5 0 1 1 378.1165520323298 212.7309774463714" fill-opacity="0.3" stroke-linejoin="bevel" stroke-miterlimit="10"/><path fill="blue" stroke="blue" paint-order="fill stroke markers" d=" M 383.73194225186 234.31902899046887 A 2.5 2.5 0 1 1 383.7319410018601 234.31652899088553" fill-opacity="0.3" stroke-linejoin="bevel" stroke-miterlimit="10"/><path fill="blue" stroke="blue" paint-order="fill stroke markers" d=" M 389.3960919928679 200.77110725545478 A 2.5 2.5 0 1 1 389.396090742868 200.76860725587144" fill-opacity="0.3" stroke-linejoin="bevel" stroke-miterlimit="10"/><path fill="blue" stroke="blue" paint-order="fill stroke markers" d=" M 395.11013854182863 222.45654621457513 A 2.5 2.5 0 1 1 395.1101372918287 222.4540462149918" fill-opacity="0.3" stroke-linejoin="bevel" stroke-miterlimit="10"/><path fill="blue" stroke="blue" paint-order="fill stroke markers" d=" M 400.8752585037896 207.75707023403226 A 2.5 2.5 0 1 1 400.8752572537897 207.75457023444892" fill-opacity="0.3" stroke-linejoin="bevel" stroke-miterlimit="10"/><path fill="blue" stroke="blue" paint-order="fill stroke markers" d=" M 406.68910881028387 207.96210128227864 A 2.5 2.5 0 1 1 406.68910756028396 207.9596012826953" fill-opacity="0.3" stroke-linejoin="bevel" stroke-miterlimit="10"/><path fill="blue" stroke="blue" paint-order="fill stroke markers" d=" M 412.5540528150948 226.18394456737317 A 2.5 2.5 0 1 1 412.5540515650949 226.18144456778984" fill-opacity="0.3" stroke-linejoin="bevel" stroke-miterlimit="10"/><path fill="blue" stroke="blue" paint-order="fill stroke markers" d=" M 418.46770687912283 198.7900591733207 A 2.5 2.5 0 1 1 418.4677056291229 198.78755917373738" fill-opacity="0.3" stroke-linejoin="bevel" stroke-miterlimit="10"/><path fill="blue" stroke="blue" paint-order="fill stroke markers" d=" M 424.43125775110354 222.2344708785088 A 2.5 2.5 0 1 1 424.43125650110363 222.23197087892547" fill-opacity="0.3" stroke-linejoin="bevel" stroke-miterlimit="10"/><path fill="blue" stroke="blue" paint-order="fill stroke markers" d=" M 430.4459327483452 248.87640115089653 A 2.5 2.5 0 1 1 430.44593149834526 248.8739011513132" fill-opacity="0.3" stroke-linejoin="bevel" stroke-miterlimit="10"/><path fill="blue" stroke="blue" paint-order="fill stroke markers" d=" M 436.50928737785955 215.92626450376724 A 2.5 2.5 0 1 1 436.50928612785964 215.9237645041839" fill-opacity="0.3" stroke-linejoin="bevel" stroke-miterlimit="10"/><path fill="blue" stroke="blue" paint-order="fill stroke markers" d=" M 442.62253881532695 207.32592983714088 A 2.5 2.5 0 1 1 442.62253756532704 207.32342983755754" fill-opacity="0.3" stroke-linejoin="bevel" stroke-miterlimit="10"/><path fill="blue" stroke="blue" paint-order="fill stroke markers" d=" M 448.78694480499917 227.64847725167874 A 2.5 2.5 0 1 1 448.78694355499925 227.6459772520954" fill-opacity="0.3" stroke-linejoin="bevel" stroke-miterlimit="10"/><path fill="blue" stroke="blue" paint-order="fill stroke markers" d=" M 455 238.27488405284632 A 2.5 2.5 0 1 1 454.9999987500001 238.27238405326298" fill-opacity="0.3" stroke-linejoin="bevel" stroke-miterlimit="10"/></g></g></g><g clip-path="url(#sWDcsZhOmONm)"><g><g><path fill="none" stroke="red" paint-order="fill stroke markers" d=" M 85 240.1442560102376 L 470 240.1442560102376" stroke-linejoin="bevel" stroke-miterlimit="10" stroke-width="3"/></g></g></g><g><g fill="#444444"><path fill="" stroke="none" d=""/><g transform="translate(277.5,5)"><path fill="none" stroke="none"/><text fill="" stroke="none" font-family="helvetica" font-size="12pt" font-style="normal" font-weight="bold" text-decoration="normal" x="0" y="0" text-anchor="middle" dominant-baseline="text-before-edge">Residuals for Guinier plot fit (SASDCG7)</text></g></g></g><g/><g><g fill="#444444"><path fill="none" stroke="black" paint-order="fill stroke markers" d=" M 85 439 L 470 439" stroke-linejoin="bevel" stroke-miterlimit="10"/><path fill="none" stroke="black" paint-order="fill stroke markers" d=" M 114 445 L 114 437" stroke-linejoin="bevel" stroke-miterlimit="10"/><path fill="none" stroke="black" paint-order="fill stroke markers" d=" M 166 445 L 166 437" stroke-linejoin="bevel" stroke-miterlimit="10"/><path fill="none" stroke="black" paint-order="fill stroke markers" d=" M 217 445 L 217 437" stroke-linejoin="bevel" stroke-miterlimit="10"/><path fill="none" stroke="black" paint-order="fill stroke markers" d=" M 269 445 L 269 437" stroke-linejoin="bevel" stroke-miterlimit="10"/><path fill="none" stroke="black" paint-order="fill stroke markers" d=" M 320 445 L 320 437" stroke-linejoin="bevel" stroke-miterlimit="10"/><path fill="none" stroke="black" paint-order="fill stroke markers" d=" M 372 445 L 372 437" stroke-linejoin="bevel" stroke-miterlimit="10"/><path fill="none" stroke="black" paint-order="fill stroke markers" d=" M 423 445 L 423 437" stroke-linejoin="bevel" stroke-miterlimit="10"/><path fill="none" stroke="black" paint-order="fill stroke markers" d=" M 104 443 L 104 439" stroke-linejoin="bevel" stroke-miterlimit="10"/><path fill="none" stroke="black" paint-order="fill stroke markers" d=" M 93 443 L 93 439" stroke-linejoin="bevel" stroke-miterlimit="10"/><path fill="none" stroke="black" paint-order="fill stroke markers" d=" M 114 443 L 114 439" stroke-linejoin="bevel" stroke-miterlimit="10"/><path fill="none" stroke="black" paint-order="fill stroke markers" d=" M 124 443 L 124 439" stroke-linejoin="bevel" stroke-miterlimit="10"/><path fill="none" stroke="black" paint-order="fill stroke markers" d=" M 135 443 L 135 439" stroke-linejoin="bevel" stroke-miterlimit="10"/><path fill="none" stroke="black" paint-order="fill stroke markers" d=" M 145 443 L 145 439" stroke-linejoin="bevel" stroke-miterlimit="10"/><path fill="none" stroke="black" paint-order="fill stroke markers" d=" M 155 443 L 155 439" stroke-linejoin="bevel" stroke-miterlimit="10"/><path fill="none" stroke="black" paint-order="fill stroke markers" d=" M 166 443 L 166 439" stroke-linejoin="bevel" stroke-miterlimit="10"/><path fill="none" stroke="black" paint-order="fill stroke markers" d=" M 176 443 L 176 439" stroke-linejoin="bevel" stroke-miterlimit="10"/><path fill="none" stroke="black" paint-order="fill stroke markers" d=" M 186 443 L 186 439" stroke-linejoin="bevel" stroke-miterlimit="10"/><path fill="none" stroke="black" paint-order="fill stroke markers" d=" M 197 443 L 197 439" stroke-linejoin="bevel" stroke-miterlimit="10"/><path fill="none" stroke="black" paint-order="fill stroke markers" d=" M 207 443 L 207 439" stroke-linejoin="bevel" stroke-miterlimit="10"/><path fill="none" stroke="black" paint-order="fill stroke markers" d=" M 217 443 L 217 439" stroke-linejoin="bevel" stroke-miterlimit="10"/><path fill="none" stroke="black" paint-order="fill stroke markers" d=" M 227 443 L 227 439" stroke-linejoin="bevel" stroke-miterlimit="10"/><path fill="none" stroke="black" paint-order="fill stroke markers" d=" M 238 443 L 238 439" stroke-linejoin="bevel" stroke-miterlimit="10"/><path fill="none" stroke="black" paint-order="fill stroke markers" d=" M 248 443 L 248 439" stroke-linejoin="bevel" stroke-miterlimit="10"/><path fill="none" stroke="black" paint-order="fill stroke markers" d=" M 258 443 L 258 439" stroke-linejoin="bevel" stroke-miterlimit="10"/><path fill="none" stroke="black" paint-order="fill stroke markers" d=" M 269 443 L 269 439" stroke-linejoin="bevel" stroke-miterlimit="10"/><path fill="none" stroke="black" paint-order="fill stroke markers" d=" M 279 443 L 279 439" stroke-linejoin="bevel" stroke-miterlimit="10"/><path fill="none" stroke="black" paint-order="fill stroke markers" d=" M 289 443 L 289 439" stroke-linejoin="bevel" stroke-miterlimit="10"/><path fill="none" stroke="black" paint-order="fill stroke markers" d=" M 300 443 L 300 439" stroke-linejoin="bevel" stroke-miterlimit="10"/><path fill="none" stroke="black" paint-order="fill stroke markers" d=" M 310 443 L 310 439" stroke-linejoin="bevel" stroke-miterlimit="10"/><path fill="none" stroke="black" paint-order="fill stroke markers" d=" M 320 443 L 320 439" stroke-linejoin="bevel" stroke-miterlimit="10"/><path fill="none" stroke="black" paint-order="fill stroke markers" d=" M 331 443 L 331 439" stroke-linejoin="bevel" stroke-miterlimit="10"/><path fill="none" stroke="black" paint-order="fill stroke markers" d=" M 341 443 L 341 439" stroke-linejoin="bevel" stroke-miterlimit="10"/><path fill="none" stroke="black" paint-order="fill stroke markers" d=" M 351 443 L 351 439" stroke-linejoin="bevel" stroke-miterlimit="10"/><path fill="none" stroke="black" paint-order="fill stroke markers" d=" M 361 443 L 361 439" stroke-linejoin="bevel" stroke-miterlimit="10"/><path fill="none" stroke="black" paint-order="fill stroke markers" d=" M 372 443 L 372 439" stroke-linejoin="bevel" stroke-miterlimit="10"/><path fill="none" stroke="black" paint-order="fill stroke markers" d=" M 382 443 L 382 439" stroke-linejoin="bevel" stroke-miterlimit="10"/><path fill="none" stroke="black" paint-order="fill stroke markers" d=" M 392 443 L 392 439" stroke-linejoin="bevel" stroke-miterlimit="10"/><path fill="none" stroke="black" paint-order="fill stroke markers" d=" M 403 443 L 403 439" stroke-linejoin="bevel" stroke-miterlimit="10"/><path fill="none" stroke="black" paint-order="fill stroke markers" d=" M 413 443 L 413 439" stroke-linejoin="bevel" stroke-miterlimit="10"/><path fill="none" stroke="black" paint-order="fill stroke markers" d=" M 423 443 L 423 439" stroke-linejoin="bevel" stroke-miterlimit="10"/><path fill="none" stroke="black" paint-order="fill stroke markers" d=" M 434 443 L 434 439" stroke-linejoin="bevel" stroke-miterlimit="10"/><path fill="none" stroke="black" paint-order="fill stroke markers" d=" M 444 443 L 444 439" stroke-linejoin="bevel" stroke-miterlimit="10"/><path fill="none" stroke="black" paint-order="fill stroke markers" d=" M 454 443 L 454 439" stroke-linejoin="bevel" stroke-miterlimit="10"/><path fill="" stroke="black" paint-order="fill stroke markers" d=" M 465 443 L 465 439" stroke-linejoin="bevel" stroke-miterlimit="10"/><g transform="translate(114,450) rotate(0,0,0)"><text fill="" stroke="none" font-family="helvetica" font-size="14pt" font-style="normal" font-weight="normal" text-decoration="normal" x="0" y="0" text-anchor="middle" dominant-baseline="hanging">5</text><g transform="rotate(0,0,0) translate(-114,-450) translate(166,450) rotate(0,0,0)"><text fill="" stroke="none" font-family="helvetica" font-size="14pt" font-style="normal" font-weight="normal" text-decoration="normal" x="0" y="0" text-anchor="middle" dominant-baseline="hanging">10</text><g transform="rotate(0,0,0) translate(-166,-450) translate(217,450) rotate(0,0,0)"><text fill="" stroke="none" font-family="helvetica" font-size="14pt" font-style="normal" font-weight="normal" text-decoration="normal" x="0" y="0" text-anchor="middle" dominant-baseline="hanging">15</text><g transform="rotate(0,0,0) translate(-217,-450) translate(269,450) rotate(0,0,0)"><text fill="" stroke="none" font-family="helvetica" font-size="14pt" font-style="normal" font-weight="normal" text-decoration="normal" x="0" y="0" text-anchor="middle" dominant-baseline="hanging">20</text><g transform="rotate(0,0,0) translate(-269,-450) translate(320,450) rotate(0,0,0)"><text fill="" stroke="none" font-family="helvetica" font-size="14pt" font-style="normal" font-weight="normal" text-decoration="normal" x="0" y="0" text-anchor="middle" dominant-baseline="hanging">25</text><g transform="rotate(0,0,0) translate(-320,-450) translate(372,450) rotate(0,0,0)"><text fill="" stroke="none" font-family="helvetica" font-size="14pt" font-style="normal" font-weight="normal" text-decoration="normal" x="0" y="0" text-anchor="middle" dominant-baseline="hanging">30</text><g transform="rotate(0,0,0) translate(-372,-450) translate(423,450) rotate(0,0,0)"><text fill="" stroke="none" font-family="helvetica" font-size="14pt" font-style="normal" font-weight="normal" text-decoration="normal" x="0" y="0" text-anchor="middle" dominant-baseline="hanging">35</text><g transform="rotate(0,0,0) translate(-423,-450) translate(278,477) rotate(0,0,0)"><text fill="" stroke="none" font-family="helvetica" font-size="14pt" font-style="italic" font-weight="normal" text-decoration="normal" x="0" y="0" text-anchor="middle" dominant-baseline="hanging">q² [nm ²]</text><g transform="rotate(0,0,0) translate(-278,-477)"/></g></g></g></g></g></g></g></g></g></g><g><g fill="#444444"><path fill="none" stroke="black" paint-order="fill stroke markers" d=" M 85 439 L 85 33" stroke-linejoin="bevel" stroke-miterlimit="10"/><path fill="none" stroke="black" paint-order="fill stroke markers" d=" M 79 414 L 87 414" stroke-linejoin="bevel" stroke-miterlimit="10"/><path fill="none" stroke="black" paint-order="fill stroke markers" d=" M 79 327 L 87 327" stroke-linejoin="bevel" stroke-miterlimit="10"/><path fill="none" stroke="black" paint-order="fill stroke markers" d=" M 79 240 L 87 240" stroke-linejoin="bevel" stroke-miterlimit="10"/><path fill="none" stroke="black" paint-order="fill stroke markers" d=" M 79 153 L 87 153" stroke-linejoin="bevel" stroke-miterlimit="10"/><path fill="none" stroke="black" paint-order="fill stroke markers" d=" M 79 66 L 87 66" stroke-linejoin="bevel" stroke-miterlimit="10"/><path fill="none" stroke="black" paint-order="fill stroke markers" d=" M 81 432 L 85 432" stroke-linejoin="bevel" stroke-miterlimit="10"/><path fill="none" stroke="black" paint-order="fill stroke markers" d=" M 81 414 L 85 414" stroke-linejoin="bevel" stroke-miterlimit="10"/><path fill="none" stroke="black" paint-order="fill stroke markers" d=" M 81 397 L 85 397" stroke-linejoin="bevel" stroke-miterlimit="10"/><path fill="none" stroke="black" paint-order="fill stroke markers" d=" M 81 379 L 85 379" stroke-linejoin="bevel" stroke-miterlimit="10"/><path fill="none" stroke="black" paint-order="fill stroke markers" d=" M 81 362 L 85 362" stroke-linejoin="bevel" stroke-miterlimit="10"/><path fill="none" stroke="black" paint-order="fill stroke markers" d=" M 81 345 L 85 345" stroke-linejoin="bevel" stroke-miterlimit="10"/><path fill="none" stroke="black" paint-order="fill stroke markers" d=" M 81 327 L 85 327" stroke-linejoin="bevel" stroke-miterlimit="10"/><path fill="none" stroke="black" paint-order="fill stroke markers" d=" M 81 310 L 85 310" stroke-linejoin="bevel" stroke-miterlimit="10"/><path fill="none" stroke="black" paint-order="fill stroke markers" d=" M 81 292 L 85 292" stroke-linejoin="bevel" stroke-miterlimit="10"/><path fill="none" stroke="black" paint-order="fill stroke markers" d=" M 81 275 L 85 275" stroke-linejoin="bevel" stroke-miterlimit="10"/><path fill="none" stroke="black" paint-order="fill stroke markers" d=" M 81 258 L 85 258" stroke-linejoin="bevel" stroke-miterlimit="10"/><path fill="none" stroke="black" paint-order="fill stroke markers" d=" M 81 240 L 85 240" stroke-linejoin="bevel" stroke-miterlimit="10"/><path fill="none" stroke="black" paint-order="fill stroke markers" d=" M 81 223 L 85 223" stroke-linejoin="bevel" stroke-miterlimit="10"/><path fill="none" stroke="black" paint-order="fill stroke markers" d=" M 81 205 L 85 205" stroke-linejoin="bevel" stroke-miterlimit="10"/><path fill="none" stroke="black" paint-order="fill stroke markers" d=" M 81 188 L 85 188" stroke-linejoin="bevel" stroke-miterlimit="10"/><path fill="none" stroke="black" paint-order="fill stroke markers" d=" M 81 171 L 85 171" stroke-linejoin="bevel" stroke-miterlimit="10"/><path fill="none" stroke="black" paint-order="fill stroke markers" d=" M 81 153 L 85 153" stroke-linejoin="bevel" stroke-miterlimit="10"/><path fill="none" stroke="black" paint-order="fill stroke markers" d=" M 81 136 L 85 136" stroke-linejoin="bevel" stroke-miterlimit="10"/><path fill="none" stroke="black" paint-order="fill stroke markers" d=" M 81 118 L 85 118" stroke-linejoin="bevel" stroke-miterlimit="10"/><path fill="none" stroke="black" paint-order="fill stroke markers" d=" M 81 101 L 85 101" stroke-linejoin="bevel" stroke-miterlimit="10"/><path fill="none" stroke="black" paint-order="fill stroke markers" d=" M 81 83 L 85 83" stroke-linejoin="bevel" stroke-miterlimit="10"/><path fill="none" stroke="black" paint-order="fill stroke markers" d=" M 81 66 L 85 66" stroke-linejoin="bevel" stroke-miterlimit="10"/><path fill="" stroke="black" paint-order="fill stroke markers" d=" M 81 49 L 85 49" stroke-linejoin="bevel" stroke-miterlimit="10"/><g transform="translate(74,414) rotate(0,0,0)"><text fill="" stroke="none" font-family="helvetica" font-size="14pt" font-style="normal" font-weight="normal" text-decoration="normal" x="0" y="0" text-anchor="end" dominant-baseline="central">-0.04</text><g transform="rotate(0,0,0) translate(-74,-414) translate(74,327) rotate(0,0,0)"><text fill="" stroke="none" font-family="helvetica" font-size="14pt" font-style="normal" font-weight="normal" text-decoration="normal" x="0" y="0" text-anchor="end" dominant-baseline="central">-0.02</text><g transform="rotate(0,0,0) translate(-74,-327) translate(74,240) rotate(0,0,0)"><text fill="" stroke="none" font-family="helvetica" font-size="14pt" font-style="normal" font-weight="normal" text-decoration="normal" x="0" y="0" text-anchor="end" dominant-baseline="central">0</text><g transform="rotate(0,0,0) translate(-74,-240) translate(74,153) rotate(0,0,0)"><text fill="" stroke="none" font-family="helvetica" font-size="14pt" font-style="normal" font-weight="normal" text-decoration="normal" x="0" y="0" text-anchor="end" dominant-baseline="central">0.02</text><g transform="rotate(0,0,0) translate(-74,-153) translate(74,66) rotate(0,0,0)"><text fill="" stroke="none" font-family="helvetica" font-size="14pt" font-style="normal" font-weight="normal" text-decoration="normal" x="0" y="0" text-anchor="end" dominant-baseline="central">0.04</text><g transform="rotate(0,0,0) translate(-74,-66) translate(22,236) rotate(-90,0,0)"><text fill="" stroke="none" font-family="helvetica" font-size="14pt" font-style="italic" font-weight="normal" text-decoration="normal" x="0" y="0" text-anchor="middle" dominant-baseline="alphabetic">R</text><g transform="rotate(90,0,0) translate(-22,-236)"/></g></g></g></g></g></g></g></g><g clip-path="url(#FvlSALcpaLmR)"><g/></g></g></svg>