<svg version="1.1" xmlns="http://www.w3.org/2000/svg" xmlns:xlink="http://www.w3.org/1999/xlink" width="500" height="500" style="width: 500px; height: 500px;"><defs><clipPath id="senCqkgsJkpB"><path fill="none" stroke="none" d=" M 67 33 L 470 33 L 470 439 L 67 439 L 67 33 Z"/></clipPath><clipPath id="erNaHLPvvmXQ"><path fill="none" stroke="none" d=" M 67 33 L 470 33 L 470 439 L 67 439 L 67 33 Z"/></clipPath><clipPath id="TcTuBnTlQwkE"><path fill="none" stroke="none" d=" M 67 33 L 470 33 L 470 439 L 67 439 L 67 33 Z"/></clipPath><clipPath id="oMPIFsMQzyLs"><path fill="none" stroke="none" d=" M 67 33 L 470 33 L 470 439 L 67 439 L 67 33 Z"/></clipPath><clipPath id="TeqmERyJoDHf"><path fill="none" stroke="none" d=" M 67 33 L 470 33 L 470 439 L 67 439 L 67 33 Z"/></clipPath><clipPath id="tyoauTvJqEyU"><path fill="none" stroke="none" d=" M 67 33 L 470 33 L 470 439 L 67 439 L 67 33 Z"/></clipPath><clipPath id="uwXAbEPGQRuQ"><path fill="none" stroke="none" d=" M 67 33 L 470 33 L 470 439 L 67 439 L 67 33 Z"/></clipPath><clipPath id="JxkvBcdACSod"><path fill="none" stroke="none" d=" M 67 33 L 470 33 L 470 439 L 67 439 L 67 33 Z"/></clipPath><clipPath id="WWaJcKgoOLHa"><path fill="none" stroke="none" d=" M 67 33 L 470 33 L 470 439 L 67 439 L 67 33 Z"/></clipPath><clipPath id="WrDHXSlzFbna"><path fill="none" stroke="none" d=" M 67 33 L 470 33 L 470 439 L 67 439 L 67 33 Z"/></clipPath><clipPath id="UdcdAuLiGTBU"><path fill="none" stroke="none" d=" M 67 33 L 470 33 L 470 439 L 67 439 L 67 33 Z"/></clipPath><clipPath id="xSuJstvlRLrk"><path fill="none" stroke="none" d=" M 67 33 L 470 33 L 470 439 L 67 439 L 67 33 Z"/></clipPath></defs><g transform="scale(1,1) translate(0.5,0.5) scale(1,1) translate(0.5,0.5)"><rect fill="#ffffff" stroke="none" x="0" y="0" width="500" height="500"/><rect fill="#FFFFFF" stroke="none" x="67" y="33" width="403" height="406"/><rect fill="#ffffff" stroke="none" x="67" y="33" width="403" height="406"/><g><rect fill="none" stroke="#e5e5e5" x="67" y="33" width="403" height="406" stroke-linejoin="bevel" stroke-miterlimit="10"/></g><g clip-path="url(#uwXAbEPGQRuQ)"><g><g><path fill="none" stroke="#e5e5e5" paint-order="fill stroke markers" d=" M 97 439 L 97 33" stroke-linejoin="bevel" stroke-miterlimit="10"/><path fill="none" stroke="#e5e5e5" paint-order="fill stroke markers" d=" M 151 439 L 151 33" stroke-linejoin="bevel" stroke-miterlimit="10"/><path fill="none" stroke="#e5e5e5" paint-order="fill stroke markers" d=" M 205 439 L 205 33" stroke-linejoin="bevel" stroke-miterlimit="10"/><path fill="none" stroke="#e5e5e5" paint-order="fill stroke markers" d=" M 259 439 L 259 33" stroke-linejoin="bevel" stroke-miterlimit="10"/><path fill="none" stroke="#e5e5e5" paint-order="fill stroke markers" d=" M 313 439 L 313 33" stroke-linejoin="bevel" stroke-miterlimit="10"/><path fill="none" stroke="#e5e5e5" paint-order="fill stroke markers" d=" M 367 439 L 367 33" stroke-linejoin="bevel" stroke-miterlimit="10"/><path fill="none" stroke="#e5e5e5" paint-order="fill stroke markers" d=" M 421 439 L 421 33" stroke-linejoin="bevel" stroke-miterlimit="10"/></g></g></g><g clip-path="url(#JxkvBcdACSod)"><g><g><path fill="none" stroke="#e5e5e5" paint-order="fill stroke markers" d=" M 67 405 L 470 405" stroke-linejoin="bevel" stroke-miterlimit="10"/><path fill="none" stroke="#e5e5e5" paint-order="fill stroke markers" d=" M 67 319 L 470 319" stroke-linejoin="bevel" stroke-miterlimit="10"/><path fill="none" stroke="#e5e5e5" paint-order="fill stroke markers" d=" M 67 234 L 470 234" stroke-linejoin="bevel" stroke-miterlimit="10"/><path fill="none" stroke="#e5e5e5" paint-order="fill stroke markers" d=" M 67 148 L 470 148" stroke-linejoin="bevel" stroke-miterlimit="10"/><path fill="none" stroke="#e5e5e5" paint-order="fill stroke markers" d=" M 67 62 L 470 62" stroke-linejoin="bevel" stroke-miterlimit="10"/></g></g></g><g clip-path="url(#WWaJcKgoOLHa)"><g><g><path fill="none" stroke="none"/><path fill="blue" stroke="blue" paint-order="fill stroke markers" d=" M 87.81818181818186 59.22480080434525 A 2.5 2.5 0 1 1 87.81818056818196 59.222300804761915" fill-opacity="0.3" stroke-linejoin="bevel" stroke-miterlimit="10"/><path fill="blue" stroke="blue" paint-order="fill stroke markers" d=" M 89.93428934614337 82.40687864439724 A 2.5 2.5 0 1 1 89.93428809614348 82.4043786448139" fill-opacity="0.3" stroke-linejoin="bevel" stroke-miterlimit="10"/><path fill="blue" stroke="blue" paint-order="fill stroke markers" d=" M 92.10264775355324 111.5389667491304 A 2.5 2.5 0 1 1 92.10264650355334 111.53646674954706" fill-opacity="0.3" stroke-linejoin="bevel" stroke-miterlimit="10"/><path fill="blue" stroke="blue" paint-order="fill stroke markers" d=" M 94.32325704041148 92.65974641930325 A 2.5 2.5 0 1 1 94.32325579041158 92.65724641971991" fill-opacity="0.3" stroke-linejoin="bevel" stroke-miterlimit="10"/><path fill="blue" stroke="blue" paint-order="fill stroke markers" d=" M 96.59611720671805 72.36574137155912 A 2.5 2.5 0 1 1 96.59611595671815 72.36324137197579" fill-opacity="0.3" stroke-linejoin="bevel" stroke-miterlimit="10"/><path fill="blue" stroke="blue" paint-order="fill stroke markers" d=" M 98.92075045707031 76.71054817475351 A 2.5 2.5 0 1 1 98.92074920707041 76.70804817517018" fill-opacity="0.3" stroke-linejoin="bevel" stroke-miterlimit="10"/><path fill="blue" stroke="blue" paint-order="fill stroke markers" d=" M 101.29810176433426 51.45454545454595 A 2.5 2.5 0 1 1 101.29810051433437 51.452045454962615" fill-opacity="0.3" stroke-linejoin="bevel" stroke-miterlimit="10"/><path fill="blue" stroke="blue" paint-order="fill stroke markers" d=" M 103.72770395104654 56.17355037808693 A 2.5 2.5 0 1 1 103.72770270104664 56.171050378503594" fill-opacity="0.3" stroke-linejoin="bevel" stroke-miterlimit="10"/><path fill="blue" stroke="blue" paint-order="fill stroke markers" d=" M 106.2095570172072 90.18575095264123 A 2.5 2.5 0 1 1 106.2095557672073 90.1832509530579" fill-opacity="0.3" stroke-linejoin="bevel" stroke-miterlimit="10"/><path fill="blue" stroke="blue" paint-order="fill stroke markers" d=" M 108.74366096281618 91.57502320929734 A 2.5 2.5 0 1 1 108.74365971281628 91.572523209714" fill-opacity="0.3" stroke-linejoin="bevel" stroke-miterlimit="10"/><path fill="blue" stroke="blue" paint-order="fill stroke markers" d=" M 111.33001578787352 101.1310167345273 A 2.5 2.5 0 1 1 111.33001453787362 101.12851673494396" fill-opacity="0.3" stroke-linejoin="bevel" stroke-miterlimit="10"/><path fill="blue" stroke="blue" paint-order="fill stroke markers" d=" M 113.96807999149826 80.15549306306775 A 2.5 2.5 0 1 1 113.96807874149836 80.15299306348442" fill-opacity="0.3" stroke-linejoin="bevel" stroke-miterlimit="10"/><path fill="blue" stroke="blue" paint-order="fill stroke markers" d=" M 116.65892595751296 124.4066962910897 A 2.5 2.5 0 1 1 116.65892470751307 124.40419629150637" fill-opacity="0.3" stroke-linejoin="bevel" stroke-miterlimit="10"/><path fill="blue" stroke="blue" paint-order="fill stroke markers" d=" M 119.402022802976 97.00202063408369 A 2.5 2.5 0 1 1 119.40202155297611 96.99952063450036" fill-opacity="0.3" stroke-linejoin="bevel" stroke-miterlimit="10"/><path fill="blue" stroke="blue" paint-order="fill stroke markers" d=" M 122.19737052788741 102.37553670450416 A 2.5 2.5 0 1 1 122.19736927788752 102.37303670492082" fill-opacity="0.3" stroke-linejoin="bevel" stroke-miterlimit="10"/><path fill="blue" stroke="blue" paint-order="fill stroke markers" d=" M 125.04496913224719 99.93440288197917 A 2.5 2.5 0 1 1 125.04496788224729 99.93190288239583" fill-opacity="0.3" stroke-linejoin="bevel" stroke-miterlimit="10"/><path fill="blue" stroke="blue" paint-order="fill stroke markers" d=" M 127.94422402763533 149.33551949645926 A 2.5 2.5 0 1 1 127.94422277763543 149.33301949687592" fill-opacity="0.3" stroke-linejoin="bevel" stroke-miterlimit="10"/><path fill="blue" stroke="blue" paint-order="fill stroke markers" d=" M 130.89631377295248 107.24422551486168 A 2.5 2.5 0 1 1 130.8963125229526 107.24172551527835" fill-opacity="0.3" stroke-linejoin="bevel" stroke-miterlimit="10"/><path fill="blue" stroke="blue" paint-order="fill stroke markers" d=" M 133.90065439771797 115.0980704971762 A 2.5 2.5 0 1 1 133.9006531477181 115.09557049759286" fill-opacity="0.3" stroke-linejoin="bevel" stroke-miterlimit="10"/><path fill="blue" stroke="blue" paint-order="fill stroke markers" d=" M 136.9572459019318 126.85405910044847 A 2.5 2.5 0 1 1 136.95724465193192 126.85155910086513" fill-opacity="0.3" stroke-linejoin="bevel" stroke-miterlimit="10"/><path fill="blue" stroke="blue" paint-order="fill stroke markers" d=" M 140.06608828559396 140.09074228152895 A 2.5 2.5 0 1 1 140.06608703559408 140.0882422819456" fill-opacity="0.3" stroke-linejoin="bevel" stroke-miterlimit="10"/><path fill="blue" stroke="blue" paint-order="fill stroke markers" d=" M 143.22653387274556 117.10467256840639 A 2.5 2.5 0 1 1 143.22653262274568 117.10217256882305" fill-opacity="0.3" stroke-linejoin="bevel" stroke-miterlimit="10"/><path fill="blue" stroke="blue" paint-order="fill stroke markers" d=" M 146.43986739736513 125.00524945172583 A 2.5 2.5 0 1 1 146.43986614736525 125.0027494521425" fill-opacity="0.3" stroke-linejoin="bevel" stroke-miterlimit="10"/><path fill="blue" stroke="blue" paint-order="fill stroke markers" d=" M 149.70545180143304 131.1372228200039 A 2.5 2.5 0 1 1 149.70545055143316 131.13472282042056" fill-opacity="0.3" stroke-linejoin="bevel" stroke-miterlimit="10"/><path fill="blue" stroke="blue" paint-order="fill stroke markers" d=" M 153.0232870849493 129.71482492617588 A 2.5 2.5 0 1 1 153.0232858349494 129.71232492659254" fill-opacity="0.3" stroke-linejoin="bevel" stroke-miterlimit="10"/><path fill="blue" stroke="blue" paint-order="fill stroke markers" d=" M 156.3926831023553 143.6515084310986 A 2.5 2.5 0 1 1 156.39268185235542 143.64900843151526" fill-opacity="0.3" stroke-linejoin="bevel" stroke-miterlimit="10"/><path fill="blue" stroke="blue" paint-order="fill stroke markers" d=" M 159.81500952682893 145.9002007778431 A 2.5 2.5 0 1 1 159.81500827682905 145.89770077825978" fill-opacity="0.3" stroke-linejoin="bevel" stroke-miterlimit="10"/><path fill="blue" stroke="blue" paint-order="fill stroke markers" d=" M 163.2895868307509 141.48361687802662 A 2.5 2.5 0 1 1 163.289585580751 141.4811168784433" fill-opacity="0.3" stroke-linejoin="bevel" stroke-miterlimit="10"/><path fill="blue" stroke="blue" paint-order="fill stroke markers" d=" M 166.8164150141212 145.89706260966886 A 2.5 2.5 0 1 1 166.8164137641213 145.89456261008553" fill-opacity="0.3" stroke-linejoin="bevel" stroke-miterlimit="10"/><path fill="blue" stroke="blue" paint-order="fill stroke markers" d=" M 170.39476146178168 145.08466302441093 A 2.5 2.5 0 1 1 170.3947602117818 145.0821630248276" fill-opacity="0.3" stroke-linejoin="bevel" stroke-miterlimit="10"/><path fill="blue" stroke="blue" paint-order="fill stroke markers" d=" M 174.02608078610936 158.5853762781362 A 2.5 2.5 0 1 1 174.02607953610948 158.58287627855287" fill-opacity="0.3" stroke-linejoin="bevel" stroke-miterlimit="10"/><path fill="blue" stroke="blue" paint-order="fill stroke markers" d=" M 177.70965098988538 168.23868667487977 A 2.5 2.5 0 1 1 177.7096497398855 168.23618667529644" fill-opacity="0.3" stroke-linejoin="bevel" stroke-miterlimit="10"/><path fill="blue" stroke="blue" paint-order="fill stroke markers" d=" M 181.4447076062913 161.99358942185063 A 2.5 2.5 0 1 1 181.44470635629142 161.9910894222673" fill-opacity="0.3" stroke-linejoin="bevel" stroke-miterlimit="10"/><path fill="blue" stroke="blue" paint-order="fill stroke markers" d=" M 185.23276895102467 172.1011654553231 A 2.5 2.5 0 1 1 185.23276770102478 172.09866545573976" fill-opacity="0.3" stroke-linejoin="bevel" stroke-miterlimit="10"/><path fill="blue" stroke="blue" paint-order="fill stroke markers" d=" M 189.07308117520645 171.3314805805153 A 2.5 2.5 0 1 1 189.07307992520657 171.32898058093195" fill-opacity="0.3" stroke-linejoin="bevel" stroke-miterlimit="10"/><path fill="blue" stroke="blue" paint-order="fill stroke markers" d=" M 192.96564427883658 183.68902262381016 A 2.5 2.5 0 1 1 192.9656430288367 183.68652262422682" fill-opacity="0.3" stroke-linejoin="bevel" stroke-miterlimit="10"/><path fill="blue" stroke="blue" paint-order="fill stroke markers" d=" M 196.9096513254968 160.41225771832524 A 2.5 2.5 0 1 1 196.90965007549693 160.4097577187419" fill-opacity="0.3" stroke-linejoin="bevel" stroke-miterlimit="10"/><path fill="blue" stroke="blue" paint-order="fill stroke markers" d=" M 200.90670557008428 184.5420863024492 A 2.5 2.5 0 1 1 200.9067043200844 184.53958630286587" fill-opacity="0.3" stroke-linejoin="bevel" stroke-miterlimit="10"/><path fill="blue" stroke="blue" paint-order="fill stroke markers" d=" M 204.9560106941201 180.43875380552254 A 2.5 2.5 0 1 1 204.9560094441202 180.4362538059392" fill-opacity="0.3" stroke-linejoin="bevel" stroke-miterlimit="10"/><path fill="blue" stroke="blue" paint-order="fill stroke markers" d=" M 209.05672790952582 203.12790782257298 A 2.5 2.5 0 1 1 209.05672665952594 203.12540782298964" fill-opacity="0.3" stroke-linejoin="bevel" stroke-miterlimit="10"/><path fill="blue" stroke="blue" paint-order="fill stroke markers" d=" M 213.210524174519 194.99835517641213 A 2.5 2.5 0 1 1 213.21052292451913 194.9958551768288" fill-opacity="0.3" stroke-linejoin="bevel" stroke-miterlimit="10"/><path fill="blue" stroke="blue" paint-order="fill stroke markers" d=" M 217.4165713189605 191.95336808499997 A 2.5 2.5 0 1 1 217.41657006896062 191.95086808541663" fill-opacity="0.3" stroke-linejoin="bevel" stroke-miterlimit="10"/><path fill="blue" stroke="blue" paint-order="fill stroke markers" d=" M 221.6739987031117 219.23191734893226 A 2.5 2.5 0 1 1 221.6739974531118 219.22941734934892" fill-opacity="0.3" stroke-linejoin="bevel" stroke-miterlimit="10"/><path fill="blue" stroke="blue" paint-order="fill stroke markers" d=" M 225.98453698851057 226.61051711079745 A 2.5 2.5 0 1 1 225.9845357385107 226.6080171112141" fill-opacity="0.3" stroke-linejoin="bevel" stroke-miterlimit="10"/><path fill="blue" stroke="blue" paint-order="fill stroke markers" d=" M 230.3473261533578 206.456968138707 A 2.5 2.5 0 1 1 230.34732490335793 206.45446813912366" fill-opacity="0.3" stroke-linejoin="bevel" stroke-miterlimit="10"/><path fill="blue" stroke="blue" paint-order="fill stroke markers" d=" M 234.76146370625432 224.01159347793373 A 2.5 2.5 0 1 1 234.76146245625443 224.0090934783504" fill-opacity="0.3" stroke-linejoin="bevel" stroke-miterlimit="10"/><path fill="blue" stroke="blue" paint-order="fill stroke markers" d=" M 239.22874401205897 248.7223923180777 A 2.5 2.5 0 1 1 239.22874276205908 248.71989231849437" fill-opacity="0.3" stroke-linejoin="bevel" stroke-miterlimit="10"/><path fill="blue" stroke="blue" paint-order="fill stroke markers" d=" M 243.74827519731187 227.3572251172509 A 2.5 2.5 0 1 1 243.748273947312 227.35472511766756" fill-opacity="0.3" stroke-linejoin="bevel" stroke-miterlimit="10"/><path fill="blue" stroke="blue" paint-order="fill stroke markers" d=" M 248.3191229189538 232.8246587394774 A 2.5 2.5 0 1 1 248.31912166895393 232.82215873989406" fill-opacity="0.3" stroke-linejoin="bevel" stroke-miterlimit="10"/><path fill="blue" stroke="blue" paint-order="fill stroke markers" d=" M 252.9431452451642 236.6686736479778 A 2.5 2.5 0 1 1 252.94314399516432 236.66617364839448" fill-opacity="0.3" stroke-linejoin="bevel" stroke-miterlimit="10"/><path fill="blue" stroke="blue" paint-order="fill stroke markers" d=" M 257.61846287404245 235.58977737246823 A 2.5 2.5 0 1 1 257.61846162404254 235.5872773728849" fill-opacity="0.3" stroke-linejoin="bevel" stroke-miterlimit="10"/><path fill="blue" stroke="blue" paint-order="fill stroke markers" d=" M 262.34697634121017 254.47225880765654 A 2.5 2.5 0 1 1 262.34697509121025 254.4697588080732" fill-opacity="0.3" stroke-linejoin="bevel" stroke-miterlimit="10"/><path fill="blue" stroke="blue" paint-order="fill stroke markers" d=" M 267.1277406878263 269.6064745807107 A 2.5 2.5 0 1 1 267.1277394378264 269.6039745811274" fill-opacity="0.3" stroke-linejoin="bevel" stroke-miterlimit="10"/><path fill="blue" stroke="blue" paint-order="fill stroke markers" d=" M 271.95976848545 259.4689062129928 A 2.5 2.5 0 1 1 271.9597672354501 259.46640621340947" fill-opacity="0.3" stroke-linejoin="bevel" stroke-miterlimit="10"/><path fill="blue" stroke="blue" paint-order="fill stroke markers" d=" M 276.8450239730234 274.1910562597468 A 2.5 2.5 0 1 1 276.8450227230235 274.18855626016347" fill-opacity="0.3" stroke-linejoin="bevel" stroke-miterlimit="10"/><path fill="blue" stroke="blue" paint-order="fill stroke markers" d=" M 281.78152167788346 267.40376736229155 A 2.5 2.5 0 1 1 281.78152042788355 267.4012673627082" fill-opacity="0.3" stroke-linejoin="bevel" stroke-miterlimit="10"/><path fill="blue" stroke="blue" paint-order="fill stroke markers" d=" M 286.7712683064143 275.0259268203572 A 2.5 2.5 0 1 1 286.7712670564144 275.02342682077386" fill-opacity="0.3" stroke-linejoin="bevel" stroke-miterlimit="10"/><path fill="blue" stroke="blue" paint-order="fill stroke markers" d=" M 291.8122359185107 264.8966354848503 A 2.5 2.5 0 1 1 291.81223466851077 264.894135485267" fill-opacity="0.3" stroke-linejoin="bevel" stroke-miterlimit="10"/><path fill="blue" stroke="blue" paint-order="fill stroke markers" d=" M 296.906473687999 273.6355335021076 A 2.5 2.5 0 1 1 296.90647243799907 273.63303350252426" fill-opacity="0.3" stroke-linejoin="bevel" stroke-miterlimit="10"/><path fill="blue" stroke="blue" paint-order="fill stroke markers" d=" M 302.0529623369354 273.6300711286176 A 2.5 2.5 0 1 1 302.0529610869355 273.62757112903427" fill-opacity="0.3" stroke-linejoin="bevel" stroke-miterlimit="10"/><path fill="blue" stroke="blue" paint-order="fill stroke markers" d=" M 307.2506401177773 270.08686108859456 A 2.5 2.5 0 1 1 307.2506388677774 270.0843610890112" fill-opacity="0.3" stroke-linejoin="bevel" stroke-miterlimit="10"/><path fill="blue" stroke="blue" paint-order="fill stroke markers" d=" M 312.5016199076712 289.934273736681 A 2.5 2.5 0 1 1 312.5016186576713 289.93177373709767" fill-opacity="0.3" stroke-linejoin="bevel" stroke-miterlimit="10"/><path fill="blue" stroke="blue" paint-order="fill stroke markers" d=" M 317.80376759574943 292.7241974094791 A 2.5 2.5 0 1 1 317.8037663457495 292.72169740989574" fill-opacity="0.3" stroke-linejoin="bevel" stroke-miterlimit="10"/><path fill="blue" stroke="blue" paint-order="fill stroke markers" d=" M 323.15923852660075 285.59735681408165 A 2.5 2.5 0 1 1 323.15923727660083 285.5948568144983" fill-opacity="0.3" stroke-linejoin="bevel" stroke-miterlimit="10"/><path fill="blue" stroke="blue" paint-order="fill stroke markers" d=" M 328.5658561219154 314.862061284839 A 2.5 2.5 0 1 1 328.56585487191546 314.85956128525567" fill-opacity="0.3" stroke-linejoin="bevel" stroke-miterlimit="10"/><path fill="blue" stroke="blue" paint-order="fill stroke markers" d=" M 334.0258181937241 308.22444091137186 A 2.5 2.5 0 1 1 334.0258169437242 308.2219409117885" fill-opacity="0.3" stroke-linejoin="bevel" stroke-miterlimit="10"/><path fill="blue" stroke="blue" paint-order="fill stroke markers" d=" M 339.5369056962751 301.731807167796 A 2.5 2.5 0 1 1 339.5369044462752 301.72930716821264" fill-opacity="0.3" stroke-linejoin="bevel" stroke-miterlimit="10"/><path fill="blue" stroke="blue" paint-order="fill stroke markers" d=" M 345.10135890904115 320.16437443050836 A 2.5 2.5 0 1 1 345.10135765904124 320.161874430925" fill-opacity="0.3" stroke-linejoin="bevel" stroke-miterlimit="10"/><path fill="blue" stroke="blue" paint-order="fill stroke markers" d=" M 350.71691631882845 320.4219875259323 A 2.5 2.5 0 1 1 350.71691506882854 320.419487526349" fill-opacity="0.3" stroke-linejoin="bevel" stroke-miterlimit="10"/><path fill="blue" stroke="blue" paint-order="fill stroke markers" d=" M 356.3858606725518 325.35265264833515 A 2.5 2.5 0 1 1 356.3858594225519 325.3501526487518" fill-opacity="0.3" stroke-linejoin="bevel" stroke-miterlimit="10"/><path fill="blue" stroke="blue" paint-order="fill stroke markers" d=" M 362.1058879895756 326.9611866771238 A 2.5 2.5 0 1 1 362.1058867395757 326.95868667754047" fill-opacity="0.3" stroke-linejoin="bevel" stroke-miterlimit="10"/><path fill="blue" stroke="blue" paint-order="fill stroke markers" d=" M 367.8793234842564 336.24716799163616 A 2.5 2.5 0 1 1 367.8793222342565 336.2446679920528" fill-opacity="0.3" stroke-linejoin="bevel" stroke-miterlimit="10"/><path fill="blue" stroke="blue" paint-order="fill stroke markers" d=" M 373.70382070851656 339.45340885891846 A 2.5 2.5 0 1 1 373.70381945851665 339.45090885933513" fill-opacity="0.3" stroke-linejoin="bevel" stroke-miterlimit="10"/><path fill="blue" stroke="blue" paint-order="fill stroke markers" d=" M 379.5817473441547 349.24004395276825 A 2.5 2.5 0 1 1 379.58174609415477 349.2375439531849" fill-opacity="0.3" stroke-linejoin="bevel" stroke-miterlimit="10"/><path fill="blue" stroke="blue" paint-order="fill stroke markers" d=" M 385.51071447565135 348.19676313264335 A 2.5 2.5 0 1 1 385.51071322565144 348.19426313306" fill-opacity="0.3" stroke-linejoin="bevel" stroke-miterlimit="10"/><path fill="blue" stroke="blue" paint-order="fill stroke markers" d=" M 391.4919112528752 358.10022441752517 A 2.5 2.5 0 1 1 391.4919100028753 358.09772441794183" fill-opacity="0.3" stroke-linejoin="bevel" stroke-miterlimit="10"/><path fill="blue" stroke="blue" paint-order="fill stroke markers" d=" M 397.5265692909798 360.8751646585638 A 2.5 2.5 0 1 1 397.5265680409799 360.87266465898045" fill-opacity="0.3" stroke-linejoin="bevel" stroke-miterlimit="10"/><path fill="blue" stroke="blue" paint-order="fill stroke markers" d=" M 403.61223597544 366.63875621830675 A 2.5 2.5 0 1 1 403.6122347254401 366.6362562187234" fill-opacity="0.3" stroke-linejoin="bevel" stroke-miterlimit="10"/><path fill="blue" stroke="blue" paint-order="fill stroke markers" d=" M 409.7513851545018 376.00738800024783 A 2.5 2.5 0 1 1 409.7513839045019 376.0048880006645" fill-opacity="0.3" stroke-linejoin="bevel" stroke-miterlimit="10"/><path fill="blue" stroke="blue" paint-order="fill stroke markers" d=" M 415.9415217461987 376.4239190449998 A 2.5 2.5 0 1 1 415.9415204961988 376.4214190454165" fill-opacity="0.3" stroke-linejoin="bevel" stroke-miterlimit="10"/><path fill="blue" stroke="blue" paint-order="fill stroke markers" d=" M 422.1838879836227 386.9200396419228 A 2.5 2.5 0 1 1 422.1838867336228 386.9175396423395" fill-opacity="0.3" stroke-linejoin="bevel" stroke-miterlimit="10"/><path fill="blue" stroke="blue" paint-order="fill stroke markers" d=" M 428.47976856515083 398.0973618367425 A 2.5 2.5 0 1 1 428.4797673151509 398.09486183715916" fill-opacity="0.3" stroke-linejoin="bevel" stroke-miterlimit="10"/><path fill="blue" stroke="blue" paint-order="fill stroke markers" d=" M 434.8266047098114 397.5650011196035 A 2.5 2.5 0 1 1 434.8266034598115 397.56250112002016" fill-opacity="0.3" stroke-linejoin="bevel" stroke-miterlimit="10"/><path fill="blue" stroke="blue" paint-order="fill stroke markers" d=" M 441.2256705001993 401.886010659503 A 2.5 2.5 0 1 1 441.2256692501994 401.88351065991964" fill-opacity="0.3" stroke-linejoin="bevel" stroke-miterlimit="10"/><path fill="blue" stroke="blue" paint-order="fill stroke markers" d=" M 447.67828248419386 411.9639040494267 A 2.5 2.5 0 1 1 447.67828123419395 411.96140404984334" fill-opacity="0.3" stroke-linejoin="bevel" stroke-miterlimit="10"/><path fill="blue" stroke="blue" paint-order="fill stroke markers" d=" M 454.1818181818182 420.1766246912216 A 2.5 2.5 0 1 1 454.1818169318183 420.17412469163827" fill-opacity="0.3" stroke-linejoin="bevel" stroke-miterlimit="10"/></g></g></g><g clip-path="url(#WrDHXSlzFbna)"><g><g><path fill="none" stroke="none"/><path fill="none" stroke="red" paint-order="fill stroke markers" d=" M 85.31818181818186 76.00639436094161 L 87.43428934614337 77.99644366324083 L 89.60264775355324 80.03563121811794 L 91.82325704041148 82.12395702557251 L 94.09611720671805 84.26142108560498 L 96.42075045707031 86.44757406546842 L 98.79810176433426 88.68330464523615 L 101.22770395104654 90.96817347758224 L 103.7095570172072 93.30218056250533 L 106.24366096281618 95.68532590000632 L 108.83001578787352 98.11760949008612 L 111.46807999149826 100.59852208950451 L 114.15892595751296 103.12907219931822 L 116.902022802976 105.70876056171073 L 119.69737052788741 108.3375871766807 L 122.54496913224719 111.01555204422812 L 125.44422402763533 113.7420959960441 L 128.39631377295248 116.51832738332678 L 131.40065439771797 119.34369702318736 L 134.4572459019318 122.21820491562676 L 137.56608828559396 125.14185106064224 L 140.72653387274556 128.1140263648549 L 143.93986739736513 131.13593902960747 L 147.20545180143304 134.20698994693703 L 150.5232870849493 137.32717911684404 L 153.8926831023553 140.49585750629558 L 157.31500952682893 143.7143131959392 L 160.7895868307509 146.98190713815893 L 164.3164150141212 150.29863933295746 L 167.89476146178168 153.66382080764924 L 171.52608078610936 157.07881952218304 L 175.20965098988538 160.54295648929474 L 178.9447076062913 164.05551278206804 L 182.73276895102467 167.617916268915 L 186.57308117520645 171.2294580083394 L 190.46564427883658 174.89013800034218 L 194.4096513254968 178.5991973783548 L 198.40670557008428 182.35814389009238 L 202.4560106941201 186.16622865440831 L 206.55672790952582 190.0226628505029 L 210.710524174519 193.9290141345541 L 214.9165713189605 197.88450367118276 L 219.1739987031117 201.88831268535932 L 223.48453698851057 205.9420687417237 L 227.8473261533578 210.0449630506655 L 232.26146370625432 214.19614688292404 L 236.72874401205897 218.39730771160112 L 241.24827519731187 222.64760679285655 L 245.8191229189538 226.9461654431966 L 250.4431452451642 231.2947310441873 L 255.11846287404245 235.69153624545197 L 259.84697634121017 240.13836836617747 L 264.6277406878263 244.6343387394818 L 269.45976848545 249.17851875882798 L 274.3450239730234 253.7727556518671 L 279.28152167788346 258.41518222213745 L 284.2712683064143 263.10768563491183 L 289.3122359185107 267.8483587561068 L 294.406473687999 272.6391286886169 L 299.5529623369354 277.47903687370444 L 304.7506401177773 282.3670848129814 L 310.0016199076712 287.3052595178042 L 315.30376759574943 292.2915540080053 L 320.65923852660075 297.3279952325638 L 326.0658561219154 302.4125362736886 L 331.5258181937241 307.54724401798285 L 337.0369056962751 312.7300316100318 L 342.60135890904115 317.96300587406176 L 348.21691631882845 323.2440400170349 L 353.8858606725518 328.5752808008001 L 359.6058879895756 333.9545614946974 L 365.3793234842564 339.38406879819786 L 371.20382070851656 344.86159604301974 L 377.0817473441547 350.3893698662555 L 383.01071447565135 355.96514366200154 L 388.9919112528752 361.5900357415144 L 395.0265692909798 367.2652043516432 L 401.11223597544 372.9883429820802 L 407.2513851545018 378.76177811194384 L 413.4415217461987 384.58316329330546 L 419.6838879836227 390.4536667584334 L 425.97976856515083 396.37449667519013 L 432.3266047098114 402.3432466912427 L 438.7256705001993 408.36111499106164 L 445.17828248419386 414.42933969471187 L 451.6818181818182 420.5454545454545" stroke-linejoin="bevel" stroke-miterlimit="10" stroke-width="3"/></g></g></g><g clip-path="url(#UdcdAuLiGTBU)"><g><g/><g><path fill="#ffffff" stroke="#e5e5e5" paint-order="fill stroke markers" d=" M 357.20000076293945 43 L 460 43 L 460 106 L 357.20000076293945 106 L 357.20000076293945 43 Z" fill-opacity="0.95" stroke-linejoin="bevel" stroke-miterlimit="10" stroke-opacity="0.5"/><text fill="#444444" stroke="none" font-family="helvetica" font-size="10pt" font-style="normal" font-weight="normal" text-decoration="normal" x="392.20000076293945" y="63" text-anchor="start" dominant-baseline="central">Observed</text><path fill="blue" stroke="blue" paint-order="fill stroke markers" d=" M 381.20000076293945 63 A 4 4 0 1 1 381.19999876293963 62.99600000066666" fill-opacity="0.3" stroke-linejoin="bevel" stroke-miterlimit="10"/><text fill="#444444" stroke="none" font-family="helvetica" font-size="10pt" font-style="normal" font-weight="normal" text-decoration="normal" x="392.20000076293945" y="86" text-anchor="start" dominant-baseline="central">Predicted</text><g><path fill="none" stroke="red" paint-order="fill stroke markers" d=" M 367.20000076293945 86 L 387.20000076293945 86" stroke-linejoin="bevel" stroke-miterlimit="10" stroke-width="3"/></g></g></g></g><g><g fill="#444444"><path fill="" stroke="none" d=""/><g transform="translate(268.5,5)"><path fill="none" stroke="none"/><text fill="" stroke="none" font-family="helvetica" font-size="12pt" font-style="normal" font-weight="bold" text-decoration="normal" x="0" y="0" text-anchor="middle" dominant-baseline="text-before-edge">Guinier plot for SASDCG7 (R²=0.99)</text></g></g></g><g/><g><g fill="#444444"><path fill="none" stroke="black" paint-order="fill stroke markers" d=" M 67 439 L 470 439" stroke-linejoin="bevel" stroke-miterlimit="10"/><path fill="none" stroke="black" paint-order="fill stroke markers" d=" M 97 445 L 97 437" stroke-linejoin="bevel" stroke-miterlimit="10"/><path fill="none" stroke="black" paint-order="fill stroke markers" d=" M 151 445 L 151 437" stroke-linejoin="bevel" stroke-miterlimit="10"/><path fill="none" stroke="black" paint-order="fill stroke markers" d=" M 205 445 L 205 437" stroke-linejoin="bevel" stroke-miterlimit="10"/><path fill="none" stroke="black" paint-order="fill stroke markers" d=" M 259 445 L 259 437" stroke-linejoin="bevel" stroke-miterlimit="10"/><path fill="none" stroke="black" paint-order="fill stroke markers" d=" M 313 445 L 313 437" stroke-linejoin="bevel" stroke-miterlimit="10"/><path fill="none" stroke="black" paint-order="fill stroke markers" d=" M 367 445 L 367 437" stroke-linejoin="bevel" stroke-miterlimit="10"/><path fill="none" stroke="black" paint-order="fill stroke markers" d=" M 421 445 L 421 437" stroke-linejoin="bevel" stroke-miterlimit="10"/><path fill="none" stroke="black" paint-order="fill stroke markers" d=" M 87 443 L 87 439" stroke-linejoin="bevel" stroke-miterlimit="10"/><path fill="none" stroke="black" paint-order="fill stroke markers" d=" M 76 443 L 76 439" stroke-linejoin="bevel" stroke-miterlimit="10"/><path fill="none" stroke="black" paint-order="fill stroke markers" d=" M 97 443 L 97 439" stroke-linejoin="bevel" stroke-miterlimit="10"/><path fill="none" stroke="black" paint-order="fill stroke markers" d=" M 108 443 L 108 439" stroke-linejoin="bevel" stroke-miterlimit="10"/><path fill="none" stroke="black" paint-order="fill stroke markers" d=" M 119 443 L 119 439" stroke-linejoin="bevel" stroke-miterlimit="10"/><path fill="none" stroke="black" paint-order="fill stroke markers" d=" M 130 443 L 130 439" stroke-linejoin="bevel" stroke-miterlimit="10"/><path fill="none" stroke="black" paint-order="fill stroke markers" d=" M 141 443 L 141 439" stroke-linejoin="bevel" stroke-miterlimit="10"/><path fill="none" stroke="black" paint-order="fill stroke markers" d=" M 151 443 L 151 439" stroke-linejoin="bevel" stroke-miterlimit="10"/><path fill="none" stroke="black" paint-order="fill stroke markers" d=" M 162 443 L 162 439" stroke-linejoin="bevel" stroke-miterlimit="10"/><path fill="none" stroke="black" paint-order="fill stroke markers" d=" M 173 443 L 173 439" stroke-linejoin="bevel" stroke-miterlimit="10"/><path fill="none" stroke="black" paint-order="fill stroke markers" d=" M 184 443 L 184 439" stroke-linejoin="bevel" stroke-miterlimit="10"/><path fill="none" stroke="black" paint-order="fill stroke markers" d=" M 195 443 L 195 439" stroke-linejoin="bevel" stroke-miterlimit="10"/><path fill="none" stroke="black" paint-order="fill stroke markers" d=" M 205 443 L 205 439" stroke-linejoin="bevel" stroke-miterlimit="10"/><path fill="none" stroke="black" paint-order="fill stroke markers" d=" M 216 443 L 216 439" stroke-linejoin="bevel" stroke-miterlimit="10"/><path fill="none" stroke="black" paint-order="fill stroke markers" d=" M 227 443 L 227 439" stroke-linejoin="bevel" stroke-miterlimit="10"/><path fill="none" stroke="black" paint-order="fill stroke markers" d=" M 238 443 L 238 439" stroke-linejoin="bevel" stroke-miterlimit="10"/><path fill="none" stroke="black" paint-order="fill stroke markers" d=" M 248 443 L 248 439" stroke-linejoin="bevel" stroke-miterlimit="10"/><path fill="none" stroke="black" paint-order="fill stroke markers" d=" M 259 443 L 259 439" stroke-linejoin="bevel" stroke-miterlimit="10"/><path fill="none" stroke="black" paint-order="fill stroke markers" d=" M 270 443 L 270 439" stroke-linejoin="bevel" stroke-miterlimit="10"/><path fill="none" stroke="black" paint-order="fill stroke markers" d=" M 281 443 L 281 439" stroke-linejoin="bevel" stroke-miterlimit="10"/><path fill="none" stroke="black" paint-order="fill stroke markers" d=" M 292 443 L 292 439" stroke-linejoin="bevel" stroke-miterlimit="10"/><path fill="none" stroke="black" paint-order="fill stroke markers" d=" M 302 443 L 302 439" stroke-linejoin="bevel" stroke-miterlimit="10"/><path fill="none" stroke="black" paint-order="fill stroke markers" d=" M 313 443 L 313 439" stroke-linejoin="bevel" stroke-miterlimit="10"/><path fill="none" stroke="black" paint-order="fill stroke markers" d=" M 324 443 L 324 439" stroke-linejoin="bevel" stroke-miterlimit="10"/><path fill="none" stroke="black" paint-order="fill stroke markers" d=" M 335 443 L 335 439" stroke-linejoin="bevel" stroke-miterlimit="10"/><path fill="none" stroke="black" paint-order="fill stroke markers" d=" M 346 443 L 346 439" stroke-linejoin="bevel" stroke-miterlimit="10"/><path fill="none" stroke="black" paint-order="fill stroke markers" d=" M 356 443 L 356 439" stroke-linejoin="bevel" stroke-miterlimit="10"/><path fill="none" stroke="black" paint-order="fill stroke markers" d=" M 367 443 L 367 439" stroke-linejoin="bevel" stroke-miterlimit="10"/><path fill="none" stroke="black" paint-order="fill stroke markers" d=" M 378 443 L 378 439" stroke-linejoin="bevel" stroke-miterlimit="10"/><path fill="none" stroke="black" paint-order="fill stroke markers" d=" M 389 443 L 389 439" stroke-linejoin="bevel" stroke-miterlimit="10"/><path fill="none" stroke="black" paint-order="fill stroke markers" d=" M 400 443 L 400 439" stroke-linejoin="bevel" stroke-miterlimit="10"/><path fill="none" stroke="black" paint-order="fill stroke markers" d=" M 410 443 L 410 439" stroke-linejoin="bevel" stroke-miterlimit="10"/><path fill="none" stroke="black" paint-order="fill stroke markers" d=" M 421 443 L 421 439" stroke-linejoin="bevel" stroke-miterlimit="10"/><path fill="none" stroke="black" paint-order="fill stroke markers" d=" M 432 443 L 432 439" stroke-linejoin="bevel" stroke-miterlimit="10"/><path fill="none" stroke="black" paint-order="fill stroke markers" d=" M 443 443 L 443 439" stroke-linejoin="bevel" stroke-miterlimit="10"/><path fill="none" stroke="black" paint-order="fill stroke markers" d=" M 453 443 L 453 439" stroke-linejoin="bevel" stroke-miterlimit="10"/><path fill="" stroke="black" paint-order="fill stroke markers" d=" M 464 443 L 464 439" stroke-linejoin="bevel" stroke-miterlimit="10"/><g transform="translate(97,450) rotate(0,0,0)"><text fill="" stroke="none" font-family="helvetica" font-size="14pt" font-style="normal" font-weight="normal" text-decoration="normal" x="0" y="0" text-anchor="middle" dominant-baseline="hanging">5</text><g transform="rotate(0,0,0) translate(-97,-450) translate(151,450) rotate(0,0,0)"><text fill="" stroke="none" font-family="helvetica" font-size="14pt" font-style="normal" font-weight="normal" text-decoration="normal" x="0" y="0" text-anchor="middle" dominant-baseline="hanging">10</text><g transform="rotate(0,0,0) translate(-151,-450) translate(205,450) rotate(0,0,0)"><text fill="" stroke="none" font-family="helvetica" font-size="14pt" font-style="normal" font-weight="normal" text-decoration="normal" x="0" y="0" text-anchor="middle" dominant-baseline="hanging">15</text><g transform="rotate(0,0,0) translate(-205,-450) translate(259,450) rotate(0,0,0)"><text fill="" stroke="none" font-family="helvetica" font-size="14pt" font-style="normal" font-weight="normal" text-decoration="normal" x="0" y="0" text-anchor="middle" dominant-baseline="hanging">20</text><g transform="rotate(0,0,0) translate(-259,-450) translate(313,450) rotate(0,0,0)"><text fill="" stroke="none" font-family="helvetica" font-size="14pt" font-style="normal" font-weight="normal" text-decoration="normal" x="0" y="0" text-anchor="middle" dominant-baseline="hanging">25</text><g transform="rotate(0,0,0) translate(-313,-450) translate(367,450) rotate(0,0,0)"><text fill="" stroke="none" font-family="helvetica" font-size="14pt" font-style="normal" font-weight="normal" text-decoration="normal" x="0" y="0" text-anchor="middle" dominant-baseline="hanging">30</text><g transform="rotate(0,0,0) translate(-367,-450) translate(421,450) rotate(0,0,0)"><text fill="" stroke="none" font-family="helvetica" font-size="14pt" font-style="normal" font-weight="normal" text-decoration="normal" x="0" y="0" text-anchor="middle" dominant-baseline="hanging">35</text><g transform="rotate(0,0,0) translate(-421,-450) translate(269,477) rotate(0,0,0)"><text fill="" stroke="none" font-family="helvetica" font-size="14pt" font-style="italic" font-weight="normal" text-decoration="normal" x="0" y="0" text-anchor="middle" dominant-baseline="hanging">q² [nm ²]</text><g transform="rotate(0,0,0) translate(-269,-477)"/></g></g></g></g></g></g></g></g></g></g><g><g fill="#444444"><path fill="none" stroke="black" paint-order="fill stroke markers" d=" M 67 439 L 67 33" stroke-linejoin="bevel" stroke-miterlimit="10"/><path fill="none" stroke="black" paint-order="fill stroke markers" d=" M 61 405 L 69 405" stroke-linejoin="bevel" stroke-miterlimit="10"/><path fill="none" stroke="black" paint-order="fill stroke markers" d=" M 61 319 L 69 319" stroke-linejoin="bevel" stroke-miterlimit="10"/><path fill="none" stroke="black" paint-order="fill stroke markers" d=" M 61 234 L 69 234" stroke-linejoin="bevel" stroke-miterlimit="10"/><path fill="none" stroke="black" paint-order="fill stroke markers" d=" M 61 148 L 69 148" stroke-linejoin="bevel" stroke-miterlimit="10"/><path fill="none" stroke="black" paint-order="fill stroke markers" d=" M 61 62 L 69 62" stroke-linejoin="bevel" stroke-miterlimit="10"/><path fill="none" stroke="black" paint-order="fill stroke markers" d=" M 63 422 L 67 422" stroke-linejoin="bevel" stroke-miterlimit="10"/><path fill="none" stroke="black" paint-order="fill stroke markers" d=" M 63 405 L 67 405" stroke-linejoin="bevel" stroke-miterlimit="10"/><path fill="none" stroke="black" paint-order="fill stroke markers" d=" M 63 388 L 67 388" stroke-linejoin="bevel" stroke-miterlimit="10"/><path fill="none" stroke="black" paint-order="fill stroke markers" d=" M 63 371 L 67 371" stroke-linejoin="bevel" stroke-miterlimit="10"/><path fill="none" stroke="black" paint-order="fill stroke markers" d=" M 63 354 L 67 354" stroke-linejoin="bevel" stroke-miterlimit="10"/><path fill="none" stroke="black" paint-order="fill stroke markers" d=" M 63 337 L 67 337" stroke-linejoin="bevel" stroke-miterlimit="10"/><path fill="none" stroke="black" paint-order="fill stroke markers" d=" M 63 319 L 67 319" stroke-linejoin="bevel" stroke-miterlimit="10"/><path fill="none" stroke="black" paint-order="fill stroke markers" d=" M 63 302 L 67 302" stroke-linejoin="bevel" stroke-miterlimit="10"/><path fill="none" stroke="black" paint-order="fill stroke markers" d=" M 63 285 L 67 285" stroke-linejoin="bevel" stroke-miterlimit="10"/><path fill="none" stroke="black" paint-order="fill stroke markers" d=" M 63 268 L 67 268" stroke-linejoin="bevel" stroke-miterlimit="10"/><path fill="none" stroke="black" paint-order="fill stroke markers" d=" M 63 251 L 67 251" stroke-linejoin="bevel" stroke-miterlimit="10"/><path fill="none" stroke="black" paint-order="fill stroke markers" d=" M 63 234 L 67 234" stroke-linejoin="bevel" stroke-miterlimit="10"/><path fill="none" stroke="black" paint-order="fill stroke markers" d=" M 63 216 L 67 216" stroke-linejoin="bevel" stroke-miterlimit="10"/><path fill="none" stroke="black" paint-order="fill stroke markers" d=" M 63 199 L 67 199" stroke-linejoin="bevel" stroke-miterlimit="10"/><path fill="none" stroke="black" paint-order="fill stroke markers" d=" M 63 182 L 67 182" stroke-linejoin="bevel" stroke-miterlimit="10"/><path fill="none" stroke="black" paint-order="fill stroke markers" d=" M 63 165 L 67 165" stroke-linejoin="bevel" stroke-miterlimit="10"/><path fill="none" stroke="black" paint-order="fill stroke markers" d=" M 63 148 L 67 148" stroke-linejoin="bevel" stroke-miterlimit="10"/><path fill="none" stroke="black" paint-order="fill stroke markers" d=" M 63 131 L 67 131" stroke-linejoin="bevel" stroke-miterlimit="10"/><path fill="none" stroke="black" paint-order="fill stroke markers" d=" M 63 113 L 67 113" stroke-linejoin="bevel" stroke-miterlimit="10"/><path fill="none" stroke="black" paint-order="fill stroke markers" d=" M 63 96 L 67 96" stroke-linejoin="bevel" stroke-miterlimit="10"/><path fill="none" stroke="black" paint-order="fill stroke markers" d=" M 63 79 L 67 79" stroke-linejoin="bevel" stroke-miterlimit="10"/><path fill="none" stroke="black" paint-order="fill stroke markers" d=" M 63 62 L 67 62" stroke-linejoin="bevel" stroke-miterlimit="10"/><path fill="" stroke="black" paint-order="fill stroke markers" d=" M 63 45 L 67 45" stroke-linejoin="bevel" stroke-miterlimit="10"/><g transform="translate(56,405) rotate(0,0,0)"><text fill="" stroke="none" font-family="helvetica" font-size="14pt" font-style="normal" font-weight="normal" text-decoration="normal" x="0" y="0" text-anchor="end" dominant-baseline="central">3.7</text><g transform="rotate(0,0,0) translate(-56,-405) translate(56,319) rotate(0,0,0)"><text fill="" stroke="none" font-family="helvetica" font-size="14pt" font-style="normal" font-weight="normal" text-decoration="normal" x="0" y="0" text-anchor="end" dominant-baseline="central">3.8</text><g transform="rotate(0,0,0) translate(-56,-319) translate(56,234) rotate(0,0,0)"><text fill="" stroke="none" font-family="helvetica" font-size="14pt" font-style="normal" font-weight="normal" text-decoration="normal" x="0" y="0" text-anchor="end" dominant-baseline="central">3.9</text><g transform="rotate(0,0,0) translate(-56,-234) translate(56,148) rotate(0,0,0)"><text fill="" stroke="none" font-family="helvetica" font-size="14pt" font-style="normal" font-weight="normal" text-decoration="normal" x="0" y="0" text-anchor="end" dominant-baseline="central">4</text><g transform="rotate(0,0,0) translate(-56,-148) translate(56,62) rotate(0,0,0)"><text fill="" stroke="none" font-family="helvetica" font-size="14pt" font-style="normal" font-weight="normal" text-decoration="normal" x="0" y="0" text-anchor="end" dominant-baseline="central">4.1</text><g transform="rotate(0,0,0) translate(-56,-62) translate(22,236) rotate(-90,0,0)"><text fill="" stroke="none" font-family="helvetica" font-size="14pt" font-style="italic" font-weight="normal" text-decoration="normal" x="0" y="0" text-anchor="middle" dominant-baseline="alphabetic">Log I(q)</text><g transform="rotate(90,0,0) translate(-22,-236)"/></g></g></g></g></g></g></g></g><g clip-path="url(#xSuJstvlRLrk)"><g/></g></g></svg>