<svg version="1.1" xmlns="http://www.w3.org/2000/svg" xmlns:xlink="http://www.w3.org/1999/xlink" width="500" height="500" style="width: 500px; height: 500px;"><defs><clipPath id="yTEarxSyUKSA"><path fill="none" stroke="none" d=" M 97 33 L 470 33 L 470 439 L 97 439 L 97 33 Z"/></clipPath><clipPath id="GBQMsGFpgZgn"><path fill="none" stroke="none" d=" M 97 33 L 470 33 L 470 439 L 97 439 L 97 33 Z"/></clipPath><clipPath id="QOMNUlTxorIB"><path fill="none" stroke="none" d=" M 97 33 L 470 33 L 470 439 L 97 439 L 97 33 Z"/></clipPath><clipPath id="mkmRpIweyuwe"><path fill="none" stroke="none" d=" M 97 33 L 470 33 L 470 439 L 97 439 L 97 33 Z"/></clipPath><clipPath id="PDahKxdwKvfT"><path fill="none" stroke="none" d=" M 97 33 L 470 33 L 470 439 L 97 439 L 97 33 Z"/></clipPath><clipPath id="wVVCZTocgUze"><path fill="none" stroke="none" d=" M 97 33 L 470 33 L 470 439 L 97 439 L 97 33 Z"/></clipPath><clipPath id="mQPJGasvyzFd"><path fill="none" stroke="none" d=" M 97 33 L 470 33 L 470 439 L 97 439 L 97 33 Z"/></clipPath><clipPath id="TTDmTgscUmlO"><path fill="none" stroke="none" d=" M 97 33 L 470 33 L 470 439 L 97 439 L 97 33 Z"/></clipPath><clipPath id="RIoCzafbOvgA"><path fill="none" stroke="none" d=" M 97 33 L 470 33 L 470 439 L 97 439 L 97 33 Z"/></clipPath><clipPath id="StgDnNettdfF"><path fill="none" stroke="none" d=" M 97 33 L 470 33 L 470 439 L 97 439 L 97 33 Z"/></clipPath></defs><g transform="scale(1,1) translate(0.5,0.5) scale(1,1) translate(0.5,0.5)"><rect fill="#ffffff" stroke="none" x="0" y="0" width="500" height="500"/><rect fill="#FFFFFF" stroke="none" x="97" y="33" width="373" height="406"/><rect fill="#ffffff" stroke="none" x="97" y="33" width="373" height="406"/><g><rect fill="none" stroke="#e5e5e5" x="97" y="33" width="373" height="406" stroke-linejoin="bevel" stroke-miterlimit="10"/></g><g clip-path="url(#wVVCZTocgUze)"><g><g><path fill="none" stroke="#e5e5e5" paint-order="fill stroke markers" d=" M 113 439 L 113 33" stroke-linejoin="bevel" stroke-miterlimit="10"/><path fill="none" stroke="#e5e5e5" paint-order="fill stroke markers" d=" M 172 439 L 172 33" stroke-linejoin="bevel" stroke-miterlimit="10"/><path fill="none" stroke="#e5e5e5" paint-order="fill stroke markers" d=" M 231 439 L 231 33" stroke-linejoin="bevel" stroke-miterlimit="10"/><path fill="none" stroke="#e5e5e5" paint-order="fill stroke markers" d=" M 289 439 L 289 33" stroke-linejoin="bevel" stroke-miterlimit="10"/><path fill="none" stroke="#e5e5e5" paint-order="fill stroke markers" d=" M 348 439 L 348 33" stroke-linejoin="bevel" stroke-miterlimit="10"/><path fill="none" stroke="#e5e5e5" paint-order="fill stroke markers" d=" M 407 439 L 407 33" stroke-linejoin="bevel" stroke-miterlimit="10"/><path fill="none" stroke="#e5e5e5" paint-order="fill stroke markers" d=" M 466 439 L 466 33" stroke-linejoin="bevel" stroke-miterlimit="10"/></g></g></g><g clip-path="url(#mQPJGasvyzFd)"><g><g><path fill="none" stroke="#e5e5e5" paint-order="fill stroke markers" d=" M 97 434 L 470 434" stroke-linejoin="bevel" stroke-miterlimit="10"/><path fill="none" stroke="#e5e5e5" paint-order="fill stroke markers" d=" M 97 378 L 470 378" stroke-linejoin="bevel" stroke-miterlimit="10"/><path fill="none" stroke="#e5e5e5" paint-order="fill stroke markers" d=" M 97 322 L 470 322" stroke-linejoin="bevel" stroke-miterlimit="10"/><path fill="none" stroke="#e5e5e5" paint-order="fill stroke markers" d=" M 97 266 L 470 266" stroke-linejoin="bevel" stroke-miterlimit="10"/><path fill="none" stroke="#e5e5e5" paint-order="fill stroke markers" d=" M 97 210 L 470 210" stroke-linejoin="bevel" stroke-miterlimit="10"/><path fill="none" stroke="#e5e5e5" paint-order="fill stroke markers" d=" M 97 154 L 470 154" stroke-linejoin="bevel" stroke-miterlimit="10"/><path fill="none" stroke="#e5e5e5" paint-order="fill stroke markers" d=" M 97 98 L 470 98" stroke-linejoin="bevel" stroke-miterlimit="10"/><path fill="none" stroke="#e5e5e5" paint-order="fill stroke markers" d=" M 97 41 L 470 41" stroke-linejoin="bevel" stroke-miterlimit="10"/></g></g></g><g clip-path="url(#TTDmTgscUmlO)"><g><g><path fill="none" stroke="none"/><path fill="blue" stroke="blue" paint-order="fill stroke markers" d=" M 116.45454545454544 51.45454545454544 A 2.5 2.5 0 1 1 116.45454420454554 51.452045454962104" fill-opacity="0.3" stroke-linejoin="bevel" stroke-miterlimit="10"/><path fill="blue" stroke="blue" paint-order="fill stroke markers" d=" M 132.1859617707258 186.85863919667082 A 2.5 2.5 0 1 1 132.18596052072593 186.8561391970875" fill-opacity="0.3" stroke-linejoin="bevel" stroke-miterlimit="10"/><path fill="blue" stroke="blue" paint-order="fill stroke markers" d=" M 148.8993764615555 302.65670070464176 A 2.5 2.5 0 1 1 148.89937521155562 302.65420070505843" fill-opacity="0.3" stroke-linejoin="bevel" stroke-miterlimit="10"/><path fill="blue" stroke="blue" paint-order="fill stroke markers" d=" M 166.5947895270346 122.41564867703505 A 2.5 2.5 0 1 1 166.59478827703472 122.41314867745172" fill-opacity="0.3" stroke-linejoin="bevel" stroke-miterlimit="10"/><path fill="blue" stroke="blue" paint-order="fill stroke markers" d=" M 185.2742977145198 195.50080039261815 A 2.5 2.5 0 1 1 185.27429646451992 195.4983003930348" fill-opacity="0.3" stroke-linejoin="bevel" stroke-miterlimit="10"/><path fill="blue" stroke="blue" paint-order="fill stroke markers" d=" M 204.93381494544016 257.77116962012525 A 2.5 2.5 0 1 1 204.93381369544028 257.7686696205419" fill-opacity="0.3" stroke-linejoin="bevel" stroke-miterlimit="10"/><path fill="blue" stroke="blue" paint-order="fill stroke markers" d=" M 225.57533055100973 217.3896163098795 A 2.5 2.5 0 1 1 225.57532930100984 217.38711631029616" fill-opacity="0.3" stroke-linejoin="bevel" stroke-miterlimit="10"/><path fill="blue" stroke="blue" paint-order="fill stroke markers" d=" M 247.19884453122867 111.08115363075959 A 2.5 2.5 0 1 1 247.1988432812288 111.07865363117625" fill-opacity="0.3" stroke-linejoin="bevel" stroke-miterlimit="10"/><path fill="blue" stroke="blue" paint-order="fill stroke markers" d=" M 269.804356886097 245.47925860786376 A 2.5 2.5 0 1 1 269.8043556360971 245.47675860828042" fill-opacity="0.3" stroke-linejoin="bevel" stroke-miterlimit="10"/><path fill="blue" stroke="blue" paint-order="fill stroke markers" d=" M 293.3945014554336 420.5454545454545 A 2.5 2.5 0 1 1 293.3945002054337 420.54295454587117" fill-opacity="0.3" stroke-linejoin="bevel" stroke-miterlimit="10"/><path fill="blue" stroke="blue" paint-order="fill stroke markers" d=" M 317.96411797574314 409.5094979580441 A 2.5 2.5 0 1 1 317.9641167257432 409.5069979584608" fill-opacity="0.3" stroke-linejoin="bevel" stroke-miterlimit="10"/><path fill="blue" stroke="blue" paint-order="fill stroke markers" d=" M 343.5157328707021 272.81364492871114 A 2.5 2.5 0 1 1 343.5157316207022 272.8111449291278" fill-opacity="0.3" stroke-linejoin="bevel" stroke-miterlimit="10"/><path fill="blue" stroke="blue" paint-order="fill stroke markers" d=" M 370.0493461403102 218.36408250324007 A 2.5 2.5 0 1 1 370.0493448903103 218.36158250365673" fill-opacity="0.3" stroke-linejoin="bevel" stroke-miterlimit="10"/><path fill="blue" stroke="blue" paint-order="fill stroke markers" d=" M 397.56802130070645 112.5979021459529 A 2.5 2.5 0 1 1 397.56802005070654 112.59540214636957" fill-opacity="0.3" stroke-linejoin="bevel" stroke-miterlimit="10"/><path fill="blue" stroke="blue" paint-order="fill stroke markers" d=" M 426.06573873575576 139.53054964965898 A 2.5 2.5 0 1 1 426.06573748575585 139.52804965007564" fill-opacity="0.3" stroke-linejoin="bevel" stroke-miterlimit="10"/><path fill="blue" stroke="blue" paint-order="fill stroke markers" d=" M 455.54545454545456 91.80425583696612 A 2.5 2.5 0 1 1 455.54545329545465 91.80175583738279" fill-opacity="0.3" stroke-linejoin="bevel" stroke-miterlimit="10"/></g></g></g><g clip-path="url(#RIoCzafbOvgA)"><g><g><path fill="none" stroke="red" paint-order="fill stroke markers" d=" M 97 209.73580751013918 L 470 209.73580751013918" stroke-linejoin="bevel" stroke-miterlimit="10" stroke-width="3"/></g></g></g><g><g fill="#444444"><path fill="" stroke="none" d=""/><g transform="translate(283.5,5)"><path fill="none" stroke="none"/><text fill="" stroke="none" font-family="helvetica" font-size="12pt" font-style="normal" font-weight="bold" text-decoration="normal" x="0" y="0" text-anchor="middle" dominant-baseline="text-before-edge">Residuals for Guinier plot fit (SASDBZ9)</text></g></g></g><g/><g><g fill="#444444"><path fill="none" stroke="black" paint-order="fill stroke markers" d=" M 97 439 L 470 439" stroke-linejoin="bevel" stroke-miterlimit="10"/><path fill="none" stroke="black" paint-order="fill stroke markers" d=" M 113 445 L 113 437" stroke-linejoin="bevel" stroke-miterlimit="10"/><path fill="none" stroke="black" paint-order="fill stroke markers" d=" M 172 445 L 172 437" stroke-linejoin="bevel" stroke-miterlimit="10"/><path fill="none" stroke="black" paint-order="fill stroke markers" d=" M 231 445 L 231 437" stroke-linejoin="bevel" stroke-miterlimit="10"/><path fill="none" stroke="black" paint-order="fill stroke markers" d=" M 289 445 L 289 437" stroke-linejoin="bevel" stroke-miterlimit="10"/><path fill="none" stroke="black" paint-order="fill stroke markers" d=" M 348 445 L 348 437" stroke-linejoin="bevel" stroke-miterlimit="10"/><path fill="none" stroke="black" paint-order="fill stroke markers" d=" M 407 445 L 407 437" stroke-linejoin="bevel" stroke-miterlimit="10"/><path fill="none" stroke="black" paint-order="fill stroke markers" d=" M 466 445 L 466 437" stroke-linejoin="bevel" stroke-miterlimit="10"/><path fill="none" stroke="black" paint-order="fill stroke markers" d=" M 101 443 L 101 439" stroke-linejoin="bevel" stroke-miterlimit="10"/><path fill="none" stroke="black" paint-order="fill stroke markers" d=" M 113 443 L 113 439" stroke-linejoin="bevel" stroke-miterlimit="10"/><path fill="none" stroke="black" paint-order="fill stroke markers" d=" M 125 443 L 125 439" stroke-linejoin="bevel" stroke-miterlimit="10"/><path fill="none" stroke="black" paint-order="fill stroke markers" d=" M 137 443 L 137 439" stroke-linejoin="bevel" stroke-miterlimit="10"/><path fill="none" stroke="black" paint-order="fill stroke markers" d=" M 148 443 L 148 439" stroke-linejoin="bevel" stroke-miterlimit="10"/><path fill="none" stroke="black" paint-order="fill stroke markers" d=" M 160 443 L 160 439" stroke-linejoin="bevel" stroke-miterlimit="10"/><path fill="none" stroke="black" paint-order="fill stroke markers" d=" M 172 443 L 172 439" stroke-linejoin="bevel" stroke-miterlimit="10"/><path fill="none" stroke="black" paint-order="fill stroke markers" d=" M 184 443 L 184 439" stroke-linejoin="bevel" stroke-miterlimit="10"/><path fill="none" stroke="black" paint-order="fill stroke markers" d=" M 195 443 L 195 439" stroke-linejoin="bevel" stroke-miterlimit="10"/><path fill="none" stroke="black" paint-order="fill stroke markers" d=" M 207 443 L 207 439" stroke-linejoin="bevel" stroke-miterlimit="10"/><path fill="none" stroke="black" paint-order="fill stroke markers" d=" M 219 443 L 219 439" stroke-linejoin="bevel" stroke-miterlimit="10"/><path fill="none" stroke="black" paint-order="fill stroke markers" d=" M 231 443 L 231 439" stroke-linejoin="bevel" stroke-miterlimit="10"/><path fill="none" stroke="black" paint-order="fill stroke markers" d=" M 242 443 L 242 439" stroke-linejoin="bevel" stroke-miterlimit="10"/><path fill="none" stroke="black" paint-order="fill stroke markers" d=" M 254 443 L 254 439" stroke-linejoin="bevel" stroke-miterlimit="10"/><path fill="none" stroke="black" paint-order="fill stroke markers" d=" M 266 443 L 266 439" stroke-linejoin="bevel" stroke-miterlimit="10"/><path fill="none" stroke="black" paint-order="fill stroke markers" d=" M 278 443 L 278 439" stroke-linejoin="bevel" stroke-miterlimit="10"/><path fill="none" stroke="black" paint-order="fill stroke markers" d=" M 289 443 L 289 439" stroke-linejoin="bevel" stroke-miterlimit="10"/><path fill="none" stroke="black" paint-order="fill stroke markers" d=" M 301 443 L 301 439" stroke-linejoin="bevel" stroke-miterlimit="10"/><path fill="none" stroke="black" paint-order="fill stroke markers" d=" M 313 443 L 313 439" stroke-linejoin="bevel" stroke-miterlimit="10"/><path fill="none" stroke="black" paint-order="fill stroke markers" d=" M 325 443 L 325 439" stroke-linejoin="bevel" stroke-miterlimit="10"/><path fill="none" stroke="black" paint-order="fill stroke markers" d=" M 336 443 L 336 439" stroke-linejoin="bevel" stroke-miterlimit="10"/><path fill="none" stroke="black" paint-order="fill stroke markers" d=" M 348 443 L 348 439" stroke-linejoin="bevel" stroke-miterlimit="10"/><path fill="none" stroke="black" paint-order="fill stroke markers" d=" M 360 443 L 360 439" stroke-linejoin="bevel" stroke-miterlimit="10"/><path fill="none" stroke="black" paint-order="fill stroke markers" d=" M 372 443 L 372 439" stroke-linejoin="bevel" stroke-miterlimit="10"/><path fill="none" stroke="black" paint-order="fill stroke markers" d=" M 383 443 L 383 439" stroke-linejoin="bevel" stroke-miterlimit="10"/><path fill="none" stroke="black" paint-order="fill stroke markers" d=" M 395 443 L 395 439" stroke-linejoin="bevel" stroke-miterlimit="10"/><path fill="none" stroke="black" paint-order="fill stroke markers" d=" M 407 443 L 407 439" stroke-linejoin="bevel" stroke-miterlimit="10"/><path fill="none" stroke="black" paint-order="fill stroke markers" d=" M 419 443 L 419 439" stroke-linejoin="bevel" stroke-miterlimit="10"/><path fill="none" stroke="black" paint-order="fill stroke markers" d=" M 430 443 L 430 439" stroke-linejoin="bevel" stroke-miterlimit="10"/><path fill="none" stroke="black" paint-order="fill stroke markers" d=" M 442 443 L 442 439" stroke-linejoin="bevel" stroke-miterlimit="10"/><path fill="none" stroke="black" paint-order="fill stroke markers" d=" M 454 443 L 454 439" stroke-linejoin="bevel" stroke-miterlimit="10"/><path fill="" stroke="black" paint-order="fill stroke markers" d=" M 466 443 L 466 439" stroke-linejoin="bevel" stroke-miterlimit="10"/><g transform="translate(113,450) rotate(0,0,0)"><text fill="" stroke="none" font-family="helvetica" font-size="14pt" font-style="normal" font-weight="normal" text-decoration="normal" x="0" y="0" text-anchor="middle" dominant-baseline="hanging">2</text><g transform="rotate(0,0,0) translate(-113,-450) translate(172,450) rotate(0,0,0)"><text fill="" stroke="none" font-family="helvetica" font-size="14pt" font-style="normal" font-weight="normal" text-decoration="normal" x="0" y="0" text-anchor="middle" dominant-baseline="hanging">3</text><g transform="rotate(0,0,0) translate(-172,-450) translate(231,450) rotate(0,0,0)"><text fill="" stroke="none" font-family="helvetica" font-size="14pt" font-style="normal" font-weight="normal" text-decoration="normal" x="0" y="0" text-anchor="middle" dominant-baseline="hanging">4</text><g transform="rotate(0,0,0) translate(-231,-450) translate(289,450) rotate(0,0,0)"><text fill="" stroke="none" font-family="helvetica" font-size="14pt" font-style="normal" font-weight="normal" text-decoration="normal" x="0" y="0" text-anchor="middle" dominant-baseline="hanging">5</text><g transform="rotate(0,0,0) translate(-289,-450) translate(348,450) rotate(0,0,0)"><text fill="" stroke="none" font-family="helvetica" font-size="14pt" font-style="normal" font-weight="normal" text-decoration="normal" x="0" y="0" text-anchor="middle" dominant-baseline="hanging">6</text><g transform="rotate(0,0,0) translate(-348,-450) translate(407,450) rotate(0,0,0)"><text fill="" stroke="none" font-family="helvetica" font-size="14pt" font-style="normal" font-weight="normal" text-decoration="normal" x="0" y="0" text-anchor="middle" dominant-baseline="hanging">7</text><g transform="rotate(0,0,0) translate(-407,-450) translate(466,450) rotate(0,0,0)"><text fill="" stroke="none" font-family="helvetica" font-size="14pt" font-style="normal" font-weight="normal" text-decoration="normal" x="0" y="0" text-anchor="middle" dominant-baseline="hanging">8</text><g transform="rotate(0,0,0) translate(-466,-450) translate(284,477) rotate(0,0,0)"><text fill="" stroke="none" font-family="helvetica" font-size="14pt" font-style="italic" font-weight="normal" text-decoration="normal" x="0" y="0" text-anchor="middle" dominant-baseline="hanging">q² [nm ²]</text><g transform="rotate(0,0,0) translate(-284,-477)"/></g></g></g></g></g></g></g></g></g></g><g><g fill="#444444"><path fill="none" stroke="black" paint-order="fill stroke markers" d=" M 97 439 L 97 33" stroke-linejoin="bevel" stroke-miterlimit="10"/><path fill="none" stroke="black" paint-order="fill stroke markers" d=" M 91 434 L 99 434" stroke-linejoin="bevel" stroke-miterlimit="10"/><path fill="none" stroke="black" paint-order="fill stroke markers" d=" M 91 378 L 99 378" stroke-linejoin="bevel" stroke-miterlimit="10"/><path fill="none" stroke="black" paint-order="fill stroke markers" d=" M 91 322 L 99 322" stroke-linejoin="bevel" stroke-miterlimit="10"/><path fill="none" stroke="black" paint-order="fill stroke markers" d=" M 91 266 L 99 266" stroke-linejoin="bevel" stroke-miterlimit="10"/><path fill="none" stroke="black" paint-order="fill stroke markers" d=" M 91 210 L 99 210" stroke-linejoin="bevel" stroke-miterlimit="10"/><path fill="none" stroke="black" paint-order="fill stroke markers" d=" M 91 154 L 99 154" stroke-linejoin="bevel" stroke-miterlimit="10"/><path fill="none" stroke="black" paint-order="fill stroke markers" d=" M 91 98 L 99 98" stroke-linejoin="bevel" stroke-miterlimit="10"/><path fill="none" stroke="black" paint-order="fill stroke markers" d=" M 91 41 L 99 41" stroke-linejoin="bevel" stroke-miterlimit="10"/><path fill="none" stroke="black" paint-order="fill stroke markers" d=" M 93 434 L 97 434" stroke-linejoin="bevel" stroke-miterlimit="10"/><path fill="none" stroke="black" paint-order="fill stroke markers" d=" M 93 423 L 97 423" stroke-linejoin="bevel" stroke-miterlimit="10"/><path fill="none" stroke="black" paint-order="fill stroke markers" d=" M 93 412 L 97 412" stroke-linejoin="bevel" stroke-miterlimit="10"/><path fill="none" stroke="black" paint-order="fill stroke markers" d=" M 93 400 L 97 400" stroke-linejoin="bevel" stroke-miterlimit="10"/><path fill="none" stroke="black" paint-order="fill stroke markers" d=" M 93 389 L 97 389" stroke-linejoin="bevel" stroke-miterlimit="10"/><path fill="none" stroke="black" paint-order="fill stroke markers" d=" M 93 378 L 97 378" stroke-linejoin="bevel" stroke-miterlimit="10"/><path fill="none" stroke="black" paint-order="fill stroke markers" d=" M 93 367 L 97 367" stroke-linejoin="bevel" stroke-miterlimit="10"/><path fill="none" stroke="black" paint-order="fill stroke markers" d=" M 93 356 L 97 356" stroke-linejoin="bevel" stroke-miterlimit="10"/><path fill="none" stroke="black" paint-order="fill stroke markers" d=" M 93 344 L 97 344" stroke-linejoin="bevel" stroke-miterlimit="10"/><path fill="none" stroke="black" paint-order="fill stroke markers" d=" M 93 333 L 97 333" stroke-linejoin="bevel" stroke-miterlimit="10"/><path fill="none" stroke="black" paint-order="fill stroke markers" d=" M 93 322 L 97 322" stroke-linejoin="bevel" stroke-miterlimit="10"/><path fill="none" stroke="black" paint-order="fill stroke markers" d=" M 93 311 L 97 311" stroke-linejoin="bevel" stroke-miterlimit="10"/><path fill="none" stroke="black" paint-order="fill stroke markers" d=" M 93 299 L 97 299" stroke-linejoin="bevel" stroke-miterlimit="10"/><path fill="none" stroke="black" paint-order="fill stroke markers" d=" M 93 288 L 97 288" stroke-linejoin="bevel" stroke-miterlimit="10"/><path fill="none" stroke="black" paint-order="fill stroke markers" d=" M 93 277 L 97 277" stroke-linejoin="bevel" stroke-miterlimit="10"/><path fill="none" stroke="black" paint-order="fill stroke markers" d=" M 93 266 L 97 266" stroke-linejoin="bevel" stroke-miterlimit="10"/><path fill="none" stroke="black" paint-order="fill stroke markers" d=" M 93 255 L 97 255" stroke-linejoin="bevel" stroke-miterlimit="10"/><path fill="none" stroke="black" paint-order="fill stroke markers" d=" M 93 243 L 97 243" stroke-linejoin="bevel" stroke-miterlimit="10"/><path fill="none" stroke="black" paint-order="fill stroke markers" d=" M 93 232 L 97 232" stroke-linejoin="bevel" stroke-miterlimit="10"/><path fill="none" stroke="black" paint-order="fill stroke markers" d=" M 93 221 L 97 221" stroke-linejoin="bevel" stroke-miterlimit="10"/><path fill="none" stroke="black" paint-order="fill stroke markers" d=" M 93 210 L 97 210" stroke-linejoin="bevel" stroke-miterlimit="10"/><path fill="none" stroke="black" paint-order="fill stroke markers" d=" M 93 199 L 97 199" stroke-linejoin="bevel" stroke-miterlimit="10"/><path fill="none" stroke="black" paint-order="fill stroke markers" d=" M 93 187 L 97 187" stroke-linejoin="bevel" stroke-miterlimit="10"/><path fill="none" stroke="black" paint-order="fill stroke markers" d=" M 93 176 L 97 176" stroke-linejoin="bevel" stroke-miterlimit="10"/><path fill="none" stroke="black" paint-order="fill stroke markers" d=" M 93 165 L 97 165" stroke-linejoin="bevel" stroke-miterlimit="10"/><path fill="none" stroke="black" paint-order="fill stroke markers" d=" M 93 154 L 97 154" stroke-linejoin="bevel" stroke-miterlimit="10"/><path fill="none" stroke="black" paint-order="fill stroke markers" d=" M 93 142 L 97 142" stroke-linejoin="bevel" stroke-miterlimit="10"/><path fill="none" stroke="black" paint-order="fill stroke markers" d=" M 93 131 L 97 131" stroke-linejoin="bevel" stroke-miterlimit="10"/><path fill="none" stroke="black" paint-order="fill stroke markers" d=" M 93 120 L 97 120" stroke-linejoin="bevel" stroke-miterlimit="10"/><path fill="none" stroke="black" paint-order="fill stroke markers" d=" M 93 109 L 97 109" stroke-linejoin="bevel" stroke-miterlimit="10"/><path fill="none" stroke="black" paint-order="fill stroke markers" d=" M 93 98 L 97 98" stroke-linejoin="bevel" stroke-miterlimit="10"/><path fill="none" stroke="black" paint-order="fill stroke markers" d=" M 93 86 L 97 86" stroke-linejoin="bevel" stroke-miterlimit="10"/><path fill="none" stroke="black" paint-order="fill stroke markers" d=" M 93 75 L 97 75" stroke-linejoin="bevel" stroke-miterlimit="10"/><path fill="none" stroke="black" paint-order="fill stroke markers" d=" M 93 64 L 97 64" stroke-linejoin="bevel" stroke-miterlimit="10"/><path fill="none" stroke="black" paint-order="fill stroke markers" d=" M 93 53 L 97 53" stroke-linejoin="bevel" stroke-miterlimit="10"/><path fill="" stroke="black" paint-order="fill stroke markers" d=" M 93 41 L 97 41" stroke-linejoin="bevel" stroke-miterlimit="10"/><g transform="translate(86,434) rotate(0,0,0)"><text fill="" stroke="none" font-family="helvetica" font-size="14pt" font-style="normal" font-weight="normal" text-decoration="normal" x="0" y="0" text-anchor="end" dominant-baseline="central">-0.02</text><g transform="rotate(0,0,0) translate(-86,-434) translate(86,378) rotate(0,0,0)"><text fill="" stroke="none" font-family="helvetica" font-size="14pt" font-style="normal" font-weight="normal" text-decoration="normal" x="0" y="0" text-anchor="end" dominant-baseline="central">-0.015</text><g transform="rotate(0,0,0) translate(-86,-378) translate(86,322) rotate(0,0,0)"><text fill="" stroke="none" font-family="helvetica" font-size="14pt" font-style="normal" font-weight="normal" text-decoration="normal" x="0" y="0" text-anchor="end" dominant-baseline="central">-0.01</text><g transform="rotate(0,0,0) translate(-86,-322) translate(86,266) rotate(0,0,0)"><text fill="" stroke="none" font-family="helvetica" font-size="14pt" font-style="normal" font-weight="normal" text-decoration="normal" x="0" y="0" text-anchor="end" dominant-baseline="central">-0.005</text><g transform="rotate(0,0,0) translate(-86,-266) translate(86,210) rotate(0,0,0)"><text fill="" stroke="none" font-family="helvetica" font-size="14pt" font-style="normal" font-weight="normal" text-decoration="normal" x="0" y="0" text-anchor="end" dominant-baseline="central">0</text><g transform="rotate(0,0,0) translate(-86,-210) translate(86,154) rotate(0,0,0)"><text fill="" stroke="none" font-family="helvetica" font-size="14pt" font-style="normal" font-weight="normal" text-decoration="normal" x="0" y="0" text-anchor="end" dominant-baseline="central">0.005</text><g transform="rotate(0,0,0) translate(-86,-154) translate(86,98) rotate(0,0,0)"><text fill="" stroke="none" font-family="helvetica" font-size="14pt" font-style="normal" font-weight="normal" text-decoration="normal" x="0" y="0" text-anchor="end" dominant-baseline="central">0.01</text><g transform="rotate(0,0,0) translate(-86,-98) translate(86,41) rotate(0,0,0)"><text fill="" stroke="none" font-family="helvetica" font-size="14pt" font-style="normal" font-weight="normal" text-decoration="normal" x="0" y="0" text-anchor="end" dominant-baseline="central">0.015</text><g transform="rotate(0,0,0) translate(-86,-41) translate(23,236) rotate(-90,0,0)"><text fill="" stroke="none" font-family="helvetica" font-size="14pt" font-style="italic" font-weight="normal" text-decoration="normal" x="0" y="0" text-anchor="middle" dominant-baseline="alphabetic">R</text><g transform="rotate(90,0,0) translate(-23,-236)"/></g></g></g></g></g></g></g></g></g></g></g><g clip-path="url(#StgDnNettdfF)"><g/></g></g></svg>