<svg version="1.1" xmlns="http://www.w3.org/2000/svg" xmlns:xlink="http://www.w3.org/1999/xlink" width="500" height="500" style="width: 500px; height: 500px;"><defs><clipPath id="NhUNXMXJurqF"><path fill="none" stroke="none" d=" M 50 33 L 470 33 L 470 439 L 50 439 L 50 33 Z"/></clipPath><clipPath id="OEEgxSIGidZl"><path fill="none" stroke="none" d=" M 50 33 L 470 33 L 470 439 L 50 439 L 50 33 Z"/></clipPath><clipPath id="REITiTRWURWK"><path fill="none" stroke="none" d=" M 50 33 L 470 33 L 470 439 L 50 439 L 50 33 Z"/></clipPath><clipPath id="CLqTTMFqpOMG"><path fill="none" stroke="none" d=" M 50 33 L 470 33 L 470 439 L 50 439 L 50 33 Z"/></clipPath><clipPath id="vXtNdNQIkcuO"><path fill="none" stroke="none" d=" M 50 33 L 470 33 L 470 439 L 50 439 L 50 33 Z"/></clipPath><clipPath id="iXzIHtJDAmym"><path fill="none" stroke="none" d=" M 50 33 L 470 33 L 470 439 L 50 439 L 50 33 Z"/></clipPath><clipPath id="DGWFcODNCyni"><path fill="none" stroke="none" d=" M 50 33 L 470 33 L 470 439 L 50 439 L 50 33 Z"/></clipPath><clipPath id="yLNaWGpdOkqe"><path fill="none" stroke="none" d=" M 50 33 L 470 33 L 470 439 L 50 439 L 50 33 Z"/></clipPath><clipPath id="XPbCULSLBZnh"><path fill="none" stroke="none" d=" M 50 33 L 470 33 L 470 439 L 50 439 L 50 33 Z"/></clipPath><clipPath id="sETyuUvtxqbE"><path fill="none" stroke="none" d=" M 50 33 L 470 33 L 470 439 L 50 439 L 50 33 Z"/></clipPath><clipPath id="hCTKGdOneEBB"><path fill="none" stroke="none" d=" M 50 33 L 470 33 L 470 439 L 50 439 L 50 33 Z"/></clipPath><clipPath id="LnaURDLaRhhs"><path fill="none" stroke="none" d=" M 50 33 L 470 33 L 470 439 L 50 439 L 50 33 Z"/></clipPath></defs><g transform="scale(1,1) translate(0.5,0.5) scale(1,1) translate(0.5,0.5)"><rect fill="#ffffff" stroke="none" x="0" y="0" width="500" height="500"/><rect fill="#FFFFFF" stroke="none" x="50" y="33" width="420" height="406"/><rect fill="#ffffff" stroke="none" x="50" y="33" width="420" height="406"/><g><rect fill="none" stroke="#e5e5e5" x="50" y="33" width="420" height="406" stroke-linejoin="bevel" stroke-miterlimit="10"/></g><g clip-path="url(#DGWFcODNCyni)"><g><g><path fill="none" stroke="#e5e5e5" paint-order="fill stroke markers" d=" M 120 439 L 120 33" stroke-linejoin="bevel" stroke-miterlimit="10"/><path fill="none" stroke="#e5e5e5" paint-order="fill stroke markers" d=" M 194 439 L 194 33" stroke-linejoin="bevel" stroke-miterlimit="10"/><path fill="none" stroke="#e5e5e5" paint-order="fill stroke markers" d=" M 269 439 L 269 33" stroke-linejoin="bevel" stroke-miterlimit="10"/><path fill="none" stroke="#e5e5e5" paint-order="fill stroke markers" d=" M 344 439 L 344 33" stroke-linejoin="bevel" stroke-miterlimit="10"/><path fill="none" stroke="#e5e5e5" paint-order="fill stroke markers" d=" M 418 439 L 418 33" stroke-linejoin="bevel" stroke-miterlimit="10"/></g></g></g><g clip-path="url(#yLNaWGpdOkqe)"><g><g><path fill="none" stroke="#e5e5e5" paint-order="fill stroke markers" d=" M 50 415 L 470 415" stroke-linejoin="bevel" stroke-miterlimit="10"/><path fill="none" stroke="#e5e5e5" paint-order="fill stroke markers" d=" M 50 335 L 470 335" stroke-linejoin="bevel" stroke-miterlimit="10"/><path fill="none" stroke="#e5e5e5" paint-order="fill stroke markers" d=" M 50 255 L 470 255" stroke-linejoin="bevel" stroke-miterlimit="10"/><path fill="none" stroke="#e5e5e5" paint-order="fill stroke markers" d=" M 50 175 L 470 175" stroke-linejoin="bevel" stroke-miterlimit="10"/><path fill="none" stroke="#e5e5e5" paint-order="fill stroke markers" d=" M 50 95 L 470 95" stroke-linejoin="bevel" stroke-miterlimit="10"/></g></g></g><g clip-path="url(#XPbCULSLBZnh)"><g><g><path fill="none" stroke="none"/><path fill="blue" stroke="blue" paint-order="fill stroke markers" d=" M 70.59090909090912 51.45454545454538 A 1.5 1.5 0 1 1 70.59090834090918 51.45304545479538" fill-opacity="0.3" stroke-linejoin="bevel" stroke-miterlimit="10"/><path fill="blue" stroke="blue" paint-order="fill stroke markers" d=" M 71.94825945208791 51.73250907485851 A 1.5 1.5 0 1 1 71.94825870208797 51.73100907510851" fill-opacity="0.3" stroke-linejoin="bevel" stroke-miterlimit="10"/><path fill="blue" stroke="blue" paint-order="fill stroke markers" d=" M 73.32052575130163 53.90813397646821 A 1.5 1.5 0 1 1 73.32052500130169 53.906633976718204" fill-opacity="0.3" stroke-linejoin="bevel" stroke-miterlimit="10"/><path fill="blue" stroke="blue" paint-order="fill stroke markers" d=" M 74.6778761124804 56.095459280145406 A 1.5 1.5 0 1 1 74.67787536248046 56.0939592803954" fill-opacity="0.3" stroke-linejoin="bevel" stroke-miterlimit="10"/><path fill="blue" stroke="blue" paint-order="fill stroke markers" d=" M 76.0352264736592 57.64166984608221 A 1.5 1.5 0 1 1 76.03522572365925 57.640169846332206" fill-opacity="0.3" stroke-linejoin="bevel" stroke-miterlimit="10"/><path fill="blue" stroke="blue" paint-order="fill stroke markers" d=" M 77.40749277287291 58.799048737382236 A 1.5 1.5 0 1 1 77.40749202287297 58.79754873763223" fill-opacity="0.3" stroke-linejoin="bevel" stroke-miterlimit="10"/><path fill="blue" stroke="blue" paint-order="fill stroke markers" d=" M 78.76484313405169 61.754662589200734 A 1.5 1.5 0 1 1 78.76484238405175 61.75316258945073" fill-opacity="0.3" stroke-linejoin="bevel" stroke-miterlimit="10"/><path fill="blue" stroke="blue" paint-order="fill stroke markers" d=" M 80.13710943326541 65.09716105788021 A 1.5 1.5 0 1 1 80.13710868326547 65.09566105813022" fill-opacity="0.3" stroke-linejoin="bevel" stroke-miterlimit="10"/><path fill="blue" stroke="blue" paint-order="fill stroke markers" d=" M 81.4944597944442 67.19420677414439 A 1.5 1.5 0 1 1 81.49445904444426 67.1927067743944" fill-opacity="0.3" stroke-linejoin="bevel" stroke-miterlimit="10"/><path fill="blue" stroke="blue" paint-order="fill stroke markers" d=" M 82.85181015562299 68.48501101186702 A 1.5 1.5 0 1 1 82.85180940562304 68.48351101211702" fill-opacity="0.3" stroke-linejoin="bevel" stroke-miterlimit="10"/><path fill="blue" stroke="blue" paint-order="fill stroke markers" d=" M 84.2240764548367 70.43907866858683 A 1.5 1.5 0 1 1 84.22407570483676 70.43757866883684" fill-opacity="0.3" stroke-linejoin="bevel" stroke-miterlimit="10"/><path fill="blue" stroke="blue" paint-order="fill stroke markers" d=" M 85.5814268160155 72.1271186756016 A 1.5 1.5 0 1 1 85.58142606601555 72.1256186758516" fill-opacity="0.3" stroke-linejoin="bevel" stroke-miterlimit="10"/><path fill="blue" stroke="blue" paint-order="fill stroke markers" d=" M 86.9536931152292 74.83606322983405 A 1.5 1.5 0 1 1 86.95369236522926 74.83456323008406" fill-opacity="0.3" stroke-linejoin="bevel" stroke-miterlimit="10"/><path fill="blue" stroke="blue" paint-order="fill stroke markers" d=" M 88.31104347640799 77.11254204378264 A 1.5 1.5 0 1 1 88.31104272640805 77.11104204403264" fill-opacity="0.3" stroke-linejoin="bevel" stroke-miterlimit="10"/><path fill="blue" stroke="blue" paint-order="fill stroke markers" d=" M 89.6833097756217 79.68548146225606 A 1.5 1.5 0 1 1 89.68330902562175 79.68398146250607" fill-opacity="0.3" stroke-linejoin="bevel" stroke-miterlimit="10"/><path fill="blue" stroke="blue" paint-order="fill stroke markers" d=" M 91.04066013680048 82.78698461991206 A 1.5 1.5 0 1 1 91.04065938680054 82.78548462016207" fill-opacity="0.3" stroke-linejoin="bevel" stroke-miterlimit="10"/><path fill="blue" stroke="blue" paint-order="fill stroke markers" d=" M 92.39801049797927 85.11089233766836 A 1.5 1.5 0 1 1 92.39800974797933 85.10939233791837" fill-opacity="0.3" stroke-linejoin="bevel" stroke-miterlimit="10"/><path fill="blue" stroke="blue" paint-order="fill stroke markers" d=" M 93.77027679719299 87.34120759507243 A 1.5 1.5 0 1 1 93.77027604719305 87.33970759532244" fill-opacity="0.3" stroke-linejoin="bevel" stroke-miterlimit="10"/><path fill="blue" stroke="blue" paint-order="fill stroke markers" d=" M 95.12762715837178 89.82178156330195 A 1.5 1.5 0 1 1 95.12762640837184 89.82028156355196" fill-opacity="0.3" stroke-linejoin="bevel" stroke-miterlimit="10"/><path fill="blue" stroke="blue" paint-order="fill stroke markers" d=" M 96.49989345758549 91.86305410929765 A 1.5 1.5 0 1 1 96.49989270758554 91.86155410954765" fill-opacity="0.3" stroke-linejoin="bevel" stroke-miterlimit="10"/><path fill="blue" stroke="blue" paint-order="fill stroke markers" d=" M 97.85724381876427 93.44839658189085 A 1.5 1.5 0 1 1 97.85724306876433 93.44689658214085" fill-opacity="0.3" stroke-linejoin="bevel" stroke-miterlimit="10"/><path fill="blue" stroke="blue" paint-order="fill stroke markers" d=" M 99.229510117978 96.12873055697418 A 1.5 1.5 0 1 1 99.22950936797805 96.12723055722418" fill-opacity="0.3" stroke-linejoin="bevel" stroke-miterlimit="10"/><path fill="blue" stroke="blue" paint-order="fill stroke markers" d=" M 100.58686047915678 98.96455546270624 A 1.5 1.5 0 1 1 100.58685972915684 98.96305546295625" fill-opacity="0.3" stroke-linejoin="bevel" stroke-miterlimit="10"/><path fill="blue" stroke="blue" paint-order="fill stroke markers" d=" M 101.94421084033556 101.60121672669771 A 1.5 1.5 0 1 1 101.94421009033562 101.59971672694772" fill-opacity="0.3" stroke-linejoin="bevel" stroke-miterlimit="10"/><path fill="blue" stroke="blue" paint-order="fill stroke markers" d=" M 103.31647713954928 103.01879171885469 A 1.5 1.5 0 1 1 103.31647638954934 103.01729171910469" fill-opacity="0.3" stroke-linejoin="bevel" stroke-miterlimit="10"/><path fill="blue" stroke="blue" paint-order="fill stroke markers" d=" M 104.67382750072807 103.99281439040163 A 1.5 1.5 0 1 1 104.67382675072813 103.99131439065164" fill-opacity="0.3" stroke-linejoin="bevel" stroke-miterlimit="10"/><path fill="blue" stroke="blue" paint-order="fill stroke markers" d=" M 106.04609379994179 106.3203021343972 A 1.5 1.5 0 1 1 106.04609304994185 106.3188021346472" fill-opacity="0.3" stroke-linejoin="bevel" stroke-miterlimit="10"/><path fill="blue" stroke="blue" paint-order="fill stroke markers" d=" M 107.40344416112058 108.45796886789088 A 1.5 1.5 0 1 1 107.40344341112063 108.45646886814089" fill-opacity="0.3" stroke-linejoin="bevel" stroke-miterlimit="10"/><path fill="blue" stroke="blue" paint-order="fill stroke markers" d=" M 108.76079452229936 110.36432139215327 A 1.5 1.5 0 1 1 108.76079377229942 110.36282139240328" fill-opacity="0.3" stroke-linejoin="bevel" stroke-miterlimit="10"/><path fill="blue" stroke="blue" paint-order="fill stroke markers" d=" M 110.13306082151307 112.98709506468651 A 1.5 1.5 0 1 1 110.13306007151313 112.98559506493652" fill-opacity="0.3" stroke-linejoin="bevel" stroke-miterlimit="10"/><path fill="blue" stroke="blue" paint-order="fill stroke markers" d=" M 111.49041118269184 115.64709084646131 A 1.5 1.5 0 1 1 111.4904104326919 115.64559084671131" fill-opacity="0.3" stroke-linejoin="bevel" stroke-miterlimit="10"/><path fill="blue" stroke="blue" paint-order="fill stroke markers" d=" M 112.86267748190556 117.41809143523915 A 1.5 1.5 0 1 1 112.86267673190562 117.41659143548915" fill-opacity="0.3" stroke-linejoin="bevel" stroke-miterlimit="10"/><path fill="blue" stroke="blue" paint-order="fill stroke markers" d=" M 114.22002784308435 119.74254272109442 A 1.5 1.5 0 1 1 114.22002709308441 119.74104272134443" fill-opacity="0.3" stroke-linejoin="bevel" stroke-miterlimit="10"/><path fill="blue" stroke="blue" paint-order="fill stroke markers" d=" M 115.59229414229807 121.05446039938568 A 1.5 1.5 0 1 1 115.59229339229813 121.05296039963568" fill-opacity="0.3" stroke-linejoin="bevel" stroke-miterlimit="10"/><path fill="blue" stroke="blue" paint-order="fill stroke markers" d=" M 116.94964450347686 122.08059556819069 A 1.5 1.5 0 1 1 116.94964375347692 122.07909556844069" fill-opacity="0.3" stroke-linejoin="bevel" stroke-miterlimit="10"/><path fill="blue" stroke="blue" paint-order="fill stroke markers" d=" M 118.30699486465565 124.46016215625576 A 1.5 1.5 0 1 1 118.30699411465571 124.45866215650577" fill-opacity="0.3" stroke-linejoin="bevel" stroke-miterlimit="10"/><path fill="blue" stroke="blue" paint-order="fill stroke markers" d=" M 119.67926116386937 125.64779102058748 A 1.5 1.5 0 1 1 119.67926041386943 125.64629102083748" fill-opacity="0.3" stroke-linejoin="bevel" stroke-miterlimit="10"/><path fill="blue" stroke="blue" paint-order="fill stroke markers" d=" M 121.03661152504813 127.09063405406641 A 1.5 1.5 0 1 1 121.03661077504819 127.08913405431642" fill-opacity="0.3" stroke-linejoin="bevel" stroke-miterlimit="10"/><path fill="blue" stroke="blue" paint-order="fill stroke markers" d=" M 122.40887782426185 129.53422474785827 A 1.5 1.5 0 1 1 122.40887707426191 129.53272474810828" fill-opacity="0.3" stroke-linejoin="bevel" stroke-miterlimit="10"/><path fill="blue" stroke="blue" paint-order="fill stroke markers" d=" M 123.76622818544067 131.64478323447588 A 1.5 1.5 0 1 1 123.76622743544073 131.64328323472589" fill-opacity="0.3" stroke-linejoin="bevel" stroke-miterlimit="10"/><path fill="blue" stroke="blue" paint-order="fill stroke markers" d=" M 125.13849448465436 133.32921142195585 A 1.5 1.5 0 1 1 125.13849373465442 133.32771142220585" fill-opacity="0.3" stroke-linejoin="bevel" stroke-miterlimit="10"/><path fill="blue" stroke="blue" paint-order="fill stroke markers" d=" M 126.49584484583315 134.49388373630256 A 1.5 1.5 0 1 1 126.4958440958332 134.49238373655257" fill-opacity="0.3" stroke-linejoin="bevel" stroke-miterlimit="10"/><path fill="blue" stroke="blue" paint-order="fill stroke markers" d=" M 127.85319520701194 137.48184642084067 A 1.5 1.5 0 1 1 127.853194457012 137.48034642109067" fill-opacity="0.3" stroke-linejoin="bevel" stroke-miterlimit="10"/><path fill="blue" stroke="blue" paint-order="fill stroke markers" d=" M 129.22546150622566 139.32960711132415 A 1.5 1.5 0 1 1 129.22546075622571 139.32810711157416" fill-opacity="0.3" stroke-linejoin="bevel" stroke-miterlimit="10"/><path fill="blue" stroke="blue" paint-order="fill stroke markers" d=" M 130.58281186740444 141.29189704546138 A 1.5 1.5 0 1 1 130.5828111174045 141.2903970457114" fill-opacity="0.3" stroke-linejoin="bevel" stroke-miterlimit="10"/><path fill="blue" stroke="blue" paint-order="fill stroke markers" d=" M 131.95507816661816 142.39918899636297 A 1.5 1.5 0 1 1 131.95507741661822 142.39768899661297" fill-opacity="0.3" stroke-linejoin="bevel" stroke-miterlimit="10"/><path fill="blue" stroke="blue" paint-order="fill stroke markers" d=" M 133.31242852779695 143.66802709778477 A 1.5 1.5 0 1 1 133.312427777797 143.66652709803478" fill-opacity="0.3" stroke-linejoin="bevel" stroke-miterlimit="10"/><path fill="blue" stroke="blue" paint-order="fill stroke markers" d=" M 134.6697788889757 145.55363209604263 A 1.5 1.5 0 1 1 134.66977813897577 145.55213209629264" fill-opacity="0.3" stroke-linejoin="bevel" stroke-miterlimit="10"/><path fill="blue" stroke="blue" paint-order="fill stroke markers" d=" M 136.04204518818943 147.79185398934573 A 1.5 1.5 0 1 1 136.0420444381895 147.79035398959573" fill-opacity="0.3" stroke-linejoin="bevel" stroke-miterlimit="10"/><path fill="blue" stroke="blue" paint-order="fill stroke markers" d=" M 137.39939554936822 149.38488347596018 A 1.5 1.5 0 1 1 137.39939479936828 149.38338347621018" fill-opacity="0.3" stroke-linejoin="bevel" stroke-miterlimit="10"/><path fill="blue" stroke="blue" paint-order="fill stroke markers" d=" M 138.7716618485819 151.05028217433568 A 1.5 1.5 0 1 1 138.77166109858197 151.04878217458568" fill-opacity="0.3" stroke-linejoin="bevel" stroke-miterlimit="10"/><path fill="blue" stroke="blue" paint-order="fill stroke markers" d=" M 140.12901220976073 152.91490230941343 A 1.5 1.5 0 1 1 140.1290114597608 152.91340230966344" fill-opacity="0.3" stroke-linejoin="bevel" stroke-miterlimit="10"/><path fill="blue" stroke="blue" paint-order="fill stroke markers" d=" M 141.50127850897445 154.2798070461521 A 1.5 1.5 0 1 1 141.5012777589745 154.2783070464021" fill-opacity="0.3" stroke-linejoin="bevel" stroke-miterlimit="10"/><path fill="blue" stroke="blue" paint-order="fill stroke markers" d=" M 142.8586288701532 156.52177396455545 A 1.5 1.5 0 1 1 142.85862812015327 156.52027396480545" fill-opacity="0.3" stroke-linejoin="bevel" stroke-miterlimit="10"/><path fill="blue" stroke="blue" paint-order="fill stroke markers" d=" M 144.215979231332 158.47584162127538 A 1.5 1.5 0 1 1 144.21597848133206 158.47434162152538" fill-opacity="0.3" stroke-linejoin="bevel" stroke-miterlimit="10"/><path fill="blue" stroke="blue" paint-order="fill stroke markers" d=" M 145.58824553054572 159.76085723296455 A 1.5 1.5 0 1 1 145.58824478054578 159.75935723321456" fill-opacity="0.3" stroke-linejoin="bevel" stroke-miterlimit="10"/><path fill="blue" stroke="blue" paint-order="fill stroke markers" d=" M 146.9455958917245 159.5823838517863 A 1.5 1.5 0 1 1 146.94559514172457 159.5808838520363" fill-opacity="0.3" stroke-linejoin="bevel" stroke-miterlimit="10"/><path fill="blue" stroke="blue" paint-order="fill stroke markers" d=" M 148.31786219093823 161.15767076322885 A 1.5 1.5 0 1 1 148.3178614409383 161.15617076347885" fill-opacity="0.3" stroke-linejoin="bevel" stroke-miterlimit="10"/><path fill="blue" stroke="blue" paint-order="fill stroke markers" d=" M 149.67521255211702 164.21519654594834 A 1.5 1.5 0 1 1 149.67521180211708 164.21369654619835" fill-opacity="0.3" stroke-linejoin="bevel" stroke-miterlimit="10"/><path fill="blue" stroke="blue" paint-order="fill stroke markers" d=" M 151.04747885133074 166.90420428707586 A 1.5 1.5 0 1 1 151.0474781013308 166.90270428732586" fill-opacity="0.3" stroke-linejoin="bevel" stroke-miterlimit="10"/><path fill="blue" stroke="blue" paint-order="fill stroke markers" d=" M 152.40482921250953 169.08217569325666 A 1.5 1.5 0 1 1 152.40482846250958 169.08067569350666" fill-opacity="0.3" stroke-linejoin="bevel" stroke-miterlimit="10"/><path fill="blue" stroke="blue" paint-order="fill stroke markers" d=" M 153.7621795736883 170.14290647597664 A 1.5 1.5 0 1 1 153.76217882368834 170.14140647622665" fill-opacity="0.3" stroke-linejoin="bevel" stroke-miterlimit="10"/><path fill="blue" stroke="blue" paint-order="fill stroke markers" d=" M 155.134445872902 171.52766535352305 A 1.5 1.5 0 1 1 155.13444512290206 171.52616535377305" fill-opacity="0.3" stroke-linejoin="bevel" stroke-miterlimit="10"/><path fill="blue" stroke="blue" paint-order="fill stroke markers" d=" M 156.49179623408082 172.56906422064276 A 1.5 1.5 0 1 1 156.49179548408088 172.56756422089276" fill-opacity="0.3" stroke-linejoin="bevel" stroke-miterlimit="10"/><path fill="blue" stroke="blue" paint-order="fill stroke markers" d=" M 157.86406253329451 175.07097597388986 A 1.5 1.5 0 1 1 157.86406178329457 175.06947597413986" fill-opacity="0.3" stroke-linejoin="bevel" stroke-miterlimit="10"/><path fill="blue" stroke="blue" paint-order="fill stroke markers" d=" M 159.2214128944733 176.87551418220443 A 1.5 1.5 0 1 1 159.22141214447336 176.87401418245443" fill-opacity="0.3" stroke-linejoin="bevel" stroke-miterlimit="10"/><path fill="blue" stroke="blue" paint-order="fill stroke markers" d=" M 160.59367919368702 178.60852205406093 A 1.5 1.5 0 1 1 160.59367844368708 178.60702205431093" fill-opacity="0.3" stroke-linejoin="bevel" stroke-miterlimit="10"/><path fill="blue" stroke="blue" paint-order="fill stroke markers" d=" M 161.9510295548658 179.8615392895723 A 1.5 1.5 0 1 1 161.95102880486587 179.8600392898223" fill-opacity="0.3" stroke-linejoin="bevel" stroke-miterlimit="10"/><path fill="blue" stroke="blue" paint-order="fill stroke markers" d=" M 163.3083799160446 181.48515953457928 A 1.5 1.5 0 1 1 163.30837916604466 181.4836595348293" fill-opacity="0.3" stroke-linejoin="bevel" stroke-miterlimit="10"/><path fill="blue" stroke="blue" paint-order="fill stroke markers" d=" M 164.68064621525832 182.90350656158358 A 1.5 1.5 0 1 1 164.68064546525838 182.9020065618336" fill-opacity="0.3" stroke-linejoin="bevel" stroke-miterlimit="10"/><path fill="blue" stroke="blue" paint-order="fill stroke markers" d=" M 166.03799657643708 185.26324375870394 A 1.5 1.5 0 1 1 166.03799582643714 185.26174375895394" fill-opacity="0.3" stroke-linejoin="bevel" stroke-miterlimit="10"/><path fill="blue" stroke="blue" paint-order="fill stroke markers" d=" M 167.4102628756508 187.0640951636306 A 1.5 1.5 0 1 1 167.41026212565086 187.06259516388062" fill-opacity="0.3" stroke-linejoin="bevel" stroke-miterlimit="10"/><path fill="blue" stroke="blue" paint-order="fill stroke markers" d=" M 168.7676132368296 188.33006959784115 A 1.5 1.5 0 1 1 168.76761248682965 188.32856959809115" fill-opacity="0.3" stroke-linejoin="bevel" stroke-miterlimit="10"/><path fill="blue" stroke="blue" paint-order="fill stroke markers" d=" M 170.12496359800838 189.87612105828634 A 1.5 1.5 0 1 1 170.12496284800844 189.87462105853635" fill-opacity="0.3" stroke-linejoin="bevel" stroke-miterlimit="10"/><path fill="blue" stroke="blue" paint-order="fill stroke markers" d=" M 171.4972298972221 190.79195405547813 A 1.5 1.5 0 1 1 171.49722914722216 190.79045405572813" fill-opacity="0.3" stroke-linejoin="bevel" stroke-miterlimit="10"/><path fill="blue" stroke="blue" paint-order="fill stroke markers" d=" M 172.85458025840086 192.99304040880594 A 1.5 1.5 0 1 1 172.85457950840092 192.99154040905594" fill-opacity="0.3" stroke-linejoin="bevel" stroke-miterlimit="10"/><path fill="blue" stroke="blue" paint-order="fill stroke markers" d=" M 174.2268465576146 194.56368621150665 A 1.5 1.5 0 1 1 174.22684580761467 194.56218621175665" fill-opacity="0.3" stroke-linejoin="bevel" stroke-miterlimit="10"/><path fill="blue" stroke="blue" paint-order="fill stroke markers" d=" M 175.58419691879337 195.32588795022207 A 1.5 1.5 0 1 1 175.58419616879343 195.32438795047207" fill-opacity="0.3" stroke-linejoin="bevel" stroke-miterlimit="10"/><path fill="blue" stroke="blue" paint-order="fill stroke markers" d=" M 176.9564632180071 197.87230038336293 A 1.5 1.5 0 1 1 176.95646246800715 197.87080038361293" fill-opacity="0.3" stroke-linejoin="bevel" stroke-miterlimit="10"/><path fill="blue" stroke="blue" paint-order="fill stroke markers" d=" M 178.31381357918588 199.68948743507428 A 1.5 1.5 0 1 1 178.31381282918593 199.6879874353243" fill-opacity="0.3" stroke-linejoin="bevel" stroke-miterlimit="10"/><path fill="blue" stroke="blue" paint-order="fill stroke markers" d=" M 179.67116394036466 201.023858017375 A 1.5 1.5 0 1 1 179.67116319036472 201.022358017625" fill-opacity="0.3" stroke-linejoin="bevel" stroke-miterlimit="10"/><path fill="blue" stroke="blue" paint-order="fill stroke markers" d=" M 181.04343023957838 202.45688988636977 A 1.5 1.5 0 1 1 181.04342948957844 202.45538988661977" fill-opacity="0.3" stroke-linejoin="bevel" stroke-miterlimit="10"/><path fill="blue" stroke="blue" paint-order="fill stroke markers" d=" M 182.40078060075714 204.30445333868425 A 1.5 1.5 0 1 1 182.4007798507572 204.30295333893426" fill-opacity="0.3" stroke-linejoin="bevel" stroke-miterlimit="10"/><path fill="blue" stroke="blue" paint-order="fill stroke markers" d=" M 183.77304689997086 205.79793039204947 A 1.5 1.5 0 1 1 183.77304614997092 205.79643039229947" fill-opacity="0.3" stroke-linejoin="bevel" stroke-miterlimit="10"/><path fill="blue" stroke="blue" paint-order="fill stroke markers" d=" M 185.13039726114968 207.15013990573777 A 1.5 1.5 0 1 1 185.13039651114974 207.14863990598778" fill-opacity="0.3" stroke-linejoin="bevel" stroke-miterlimit="10"/><path fill="blue" stroke="blue" paint-order="fill stroke markers" d=" M 186.50266356036337 208.59125663703338 A 1.5 1.5 0 1 1 186.50266281036343 208.5897566372834" fill-opacity="0.3" stroke-linejoin="bevel" stroke-miterlimit="10"/><path fill="blue" stroke="blue" paint-order="fill stroke markers" d=" M 187.86001392154216 209.9751350920526 A 1.5 1.5 0 1 1 187.86001317154222 209.9736350923026" fill-opacity="0.3" stroke-linejoin="bevel" stroke-miterlimit="10"/><path fill="blue" stroke="blue" paint-order="fill stroke markers" d=" M 189.21736428272095 211.17942822668874 A 1.5 1.5 0 1 1 189.217363532721 211.17792822693875" fill-opacity="0.3" stroke-linejoin="bevel" stroke-miterlimit="10"/><path fill="blue" stroke="blue" paint-order="fill stroke markers" d=" M 190.58963058193467 212.79074335149795 A 1.5 1.5 0 1 1 190.58962983193473 212.78924335174796" fill-opacity="0.3" stroke-linejoin="bevel" stroke-miterlimit="10"/><path fill="blue" stroke="blue" paint-order="fill stroke markers" d=" M 191.94698094311343 214.79826549495692 A 1.5 1.5 0 1 1 191.9469801931135 214.79676549520693" fill-opacity="0.3" stroke-linejoin="bevel" stroke-miterlimit="10"/><path fill="blue" stroke="blue" paint-order="fill stroke markers" d=" M 193.31924724232718 215.39525635930357 A 1.5 1.5 0 1 1 193.31924649232724 215.39375635955358" fill-opacity="0.3" stroke-linejoin="bevel" stroke-miterlimit="10"/><path fill="blue" stroke="blue" paint-order="fill stroke markers" d=" M 194.67659760350597 215.9606923667863 A 1.5 1.5 0 1 1 194.67659685350603 215.9591923670363" fill-opacity="0.3" stroke-linejoin="bevel" stroke-miterlimit="10"/><path fill="blue" stroke="blue" paint-order="fill stroke markers" d=" M 196.00411608861486 219.35513223268805 A 1.5 1.5 0 1 1 196.00411533861492 219.35363223293805" fill-opacity="0.3" stroke-linejoin="bevel" stroke-miterlimit="10"/><path fill="blue" stroke="blue" paint-order="fill stroke markers" d=" M 197.34655051175875 221.57501406282876 A 1.5 1.5 0 1 1 197.3465497617588 221.57351406307876" fill-opacity="0.3" stroke-linejoin="bevel" stroke-miterlimit="10"/><path fill="blue" stroke="blue" paint-order="fill stroke markers" d=" M 198.8381443152519 221.23760508003284 A 1.5 1.5 0 1 1 198.83814356525195 221.23610508028284" fill-opacity="0.3" stroke-linejoin="bevel" stroke-miterlimit="10"/><path fill="blue" stroke="blue" paint-order="fill stroke markers" d=" M 200.18057873839575 222.030352555219 A 1.5 1.5 0 1 1 200.1805779883958 222.028852555469" fill-opacity="0.3" stroke-linejoin="bevel" stroke-miterlimit="10"/><path fill="blue" stroke="blue" paint-order="fill stroke markers" d=" M 201.5230131615396 223.185076745333 A 1.5 1.5 0 1 1 201.52301241153967 223.183576745583" fill-opacity="0.3" stroke-linejoin="bevel" stroke-miterlimit="10"/><path fill="blue" stroke="blue" paint-order="fill stroke markers" d=" M 202.86544758468347 224.16687443424883 A 1.5 1.5 0 1 1 202.86544683468352 224.16537443449883" fill-opacity="0.3" stroke-linejoin="bevel" stroke-miterlimit="10"/><path fill="blue" stroke="blue" paint-order="fill stroke markers" d=" M 204.20788200782732 226.82474375345663 A 1.5 1.5 0 1 1 204.20788125782738 226.82324375370663" fill-opacity="0.3" stroke-linejoin="bevel" stroke-miterlimit="10"/><path fill="blue" stroke="blue" paint-order="fill stroke markers" d=" M 205.55031643097115 229.64855868655292 A 1.5 1.5 0 1 1 205.5503156809712 229.64705868680292" fill-opacity="0.3" stroke-linejoin="bevel" stroke-miterlimit="10"/><path fill="blue" stroke="blue" paint-order="fill stroke markers" d=" M 206.892750854115 230.49711921760388 A 1.5 1.5 0 1 1 206.89275010411507 230.49561921785389" fill-opacity="0.3" stroke-linejoin="bevel" stroke-miterlimit="10"/><path fill="blue" stroke="blue" paint-order="fill stroke markers" d=" M 208.38434465760818 231.4421254666824 A 1.5 1.5 0 1 1 208.38434390760824 231.4406254669324" fill-opacity="0.3" stroke-linejoin="bevel" stroke-miterlimit="10"/><path fill="blue" stroke="blue" paint-order="fill stroke markers" d=" M 209.72677908075204 234.0518774837572 A 1.5 1.5 0 1 1 209.7267783307521 234.0503774840072" fill-opacity="0.3" stroke-linejoin="bevel" stroke-miterlimit="10"/><path fill="blue" stroke="blue" paint-order="fill stroke markers" d=" M 211.0692135038959 235.95952426518568 A 1.5 1.5 0 1 1 211.06921275389595 235.95802426543568" fill-opacity="0.3" stroke-linejoin="bevel" stroke-miterlimit="10"/><path fill="blue" stroke="blue" paint-order="fill stroke markers" d=" M 212.41164792703975 237.42949544330054 A 1.5 1.5 0 1 1 212.4116471770398 237.42799544355054" fill-opacity="0.3" stroke-linejoin="bevel" stroke-miterlimit="10"/><path fill="blue" stroke="blue" paint-order="fill stroke markers" d=" M 213.7540823501836 239.78322401537866 A 1.5 1.5 0 1 1 213.75408160018367 239.78172401562867" fill-opacity="0.3" stroke-linejoin="bevel" stroke-miterlimit="10"/><path fill="blue" stroke="blue" paint-order="fill stroke markers" d=" M 215.09651677332747 239.61365272925735 A 1.5 1.5 0 1 1 215.09651602332752 239.61215272950736" fill-opacity="0.3" stroke-linejoin="bevel" stroke-miterlimit="10"/><path fill="blue" stroke="blue" paint-order="fill stroke markers" d=" M 216.4389511964713 240.45289262830875 A 1.5 1.5 0 1 1 216.43895044647135 240.45139262855875" fill-opacity="0.3" stroke-linejoin="bevel" stroke-miterlimit="10"/><path fill="blue" stroke="blue" paint-order="fill stroke markers" d=" M 217.93054499996447 242.13323388200092 A 1.5 1.5 0 1 1 217.93054424996453 242.13173388225093" fill-opacity="0.3" stroke-linejoin="bevel" stroke-miterlimit="10"/><path fill="blue" stroke="blue" paint-order="fill stroke markers" d=" M 219.27297942310832 243.04992798046578 A 1.5 1.5 0 1 1 219.27297867310838 243.0484279807158" fill-opacity="0.3" stroke-linejoin="bevel" stroke-miterlimit="10"/><path fill="blue" stroke="blue" paint-order="fill stroke markers" d=" M 220.61541384625218 244.54137932912045 A 1.5 1.5 0 1 1 220.61541309625224 244.53987932937045" fill-opacity="0.3" stroke-linejoin="bevel" stroke-miterlimit="10"/><path fill="blue" stroke="blue" paint-order="fill stroke markers" d=" M 221.95784826939604 246.36328828640177 A 1.5 1.5 0 1 1 221.9578475193961 246.36178828665177" fill-opacity="0.3" stroke-linejoin="bevel" stroke-miterlimit="10"/><path fill="blue" stroke="blue" paint-order="fill stroke markers" d=" M 223.3002826925399 248.78187073470127 A 1.5 1.5 0 1 1 223.30028194253995 248.78037073495128" fill-opacity="0.3" stroke-linejoin="bevel" stroke-miterlimit="10"/><path fill="blue" stroke="blue" paint-order="fill stroke markers" d=" M 224.64271711568375 249.94335986829122 A 1.5 1.5 0 1 1 224.6427163656838 249.94185986854123" fill-opacity="0.3" stroke-linejoin="bevel" stroke-miterlimit="10"/><path fill="blue" stroke="blue" paint-order="fill stroke markers" d=" M 225.9851515388276 250.96843073648955 A 1.5 1.5 0 1 1 225.98515078882767 250.96693073673956" fill-opacity="0.3" stroke-linejoin="bevel" stroke-miterlimit="10"/><path fill="blue" stroke="blue" paint-order="fill stroke markers" d=" M 227.47674534232078 251.27572749280165 A 1.5 1.5 0 1 1 227.47674459232084 251.27422749305165" fill-opacity="0.3" stroke-linejoin="bevel" stroke-miterlimit="10"/><path fill="blue" stroke="blue" paint-order="fill stroke markers" d=" M 228.8191797654646 252.46000296344226 A 1.5 1.5 0 1 1 228.81917901546467 252.45850296369227" fill-opacity="0.3" stroke-linejoin="bevel" stroke-miterlimit="10"/><path fill="blue" stroke="blue" paint-order="fill stroke markers" d=" M 230.16161418860847 253.76303191755278 A 1.5 1.5 0 1 1 230.16161343860853 253.76153191780278" fill-opacity="0.3" stroke-linejoin="bevel" stroke-miterlimit="10"/><path fill="blue" stroke="blue" paint-order="fill stroke markers" d=" M 231.50404861175232 254.8092272091393 A 1.5 1.5 0 1 1 231.50404786175238 254.8077272093893" fill-opacity="0.3" stroke-linejoin="bevel" stroke-miterlimit="10"/><path fill="blue" stroke="blue" paint-order="fill stroke markers" d=" M 232.84648303489618 256.6735928534795 A 1.5 1.5 0 1 1 232.84648228489624 256.67209285372945" fill-opacity="0.3" stroke-linejoin="bevel" stroke-miterlimit="10"/><path fill="blue" stroke="blue" paint-order="fill stroke markers" d=" M 234.18891745804004 256.80843641810515 A 1.5 1.5 0 1 1 234.1889167080401 256.8069364183551" fill-opacity="0.3" stroke-linejoin="bevel" stroke-miterlimit="10"/><path fill="blue" stroke="blue" paint-order="fill stroke markers" d=" M 235.53135188118387 258.47512471673235 A 1.5 1.5 0 1 1 235.53135113118392 258.47362471698233" fill-opacity="0.3" stroke-linejoin="bevel" stroke-miterlimit="10"/><path fill="blue" stroke="blue" paint-order="fill stroke markers" d=" M 237.02294568467704 260.14594347198215 A 1.5 1.5 0 1 1 237.0229449346771 260.1444434722321" fill-opacity="0.3" stroke-linejoin="bevel" stroke-miterlimit="10"/><path fill="blue" stroke="blue" paint-order="fill stroke markers" d=" M 238.36538010782093 260.8209957833045 A 1.5 1.5 0 1 1 238.36537935782098 260.8194957835545" fill-opacity="0.3" stroke-linejoin="bevel" stroke-miterlimit="10"/><path fill="blue" stroke="blue" paint-order="fill stroke markers" d=" M 239.70781453096475 263.026672136635 A 1.5 1.5 0 1 1 239.7078137809648 263.025172136885" fill-opacity="0.3" stroke-linejoin="bevel" stroke-miterlimit="10"/><path fill="blue" stroke="blue" paint-order="fill stroke markers" d=" M 241.0502489541086 265.9475780389685 A 1.5 1.5 0 1 1 241.05024820410867 265.9460780392185" fill-opacity="0.3" stroke-linejoin="bevel" stroke-miterlimit="10"/><path fill="blue" stroke="blue" paint-order="fill stroke markers" d=" M 242.3926833772525 267.0134597824516 A 1.5 1.5 0 1 1 242.39268262725255 267.0119597827016" fill-opacity="0.3" stroke-linejoin="bevel" stroke-miterlimit="10"/><path fill="blue" stroke="blue" paint-order="fill stroke markers" d=" M 243.73511780039632 266.33506830215424 A 1.5 1.5 0 1 1 243.73511705039638 266.3335683024042" fill-opacity="0.3" stroke-linejoin="bevel" stroke-miterlimit="10"/><path fill="blue" stroke="blue" paint-order="fill stroke markers" d=" M 245.07755222354018 268.1800714849725 A 1.5 1.5 0 1 1 245.07755147354024 268.17857148522245" fill-opacity="0.3" stroke-linejoin="bevel" stroke-miterlimit="10"/><path fill="blue" stroke="blue" paint-order="fill stroke markers" d=" M 246.56914602703336 270.10395189655026 A 1.5 1.5 0 1 1 246.5691452770334 270.10245189680023" fill-opacity="0.3" stroke-linejoin="bevel" stroke-miterlimit="10"/><path fill="blue" stroke="blue" paint-order="fill stroke markers" d=" M 247.91158045017718 270.12165531317476 A 1.5 1.5 0 1 1 247.91157970017724 270.12015531342473" fill-opacity="0.3" stroke-linejoin="bevel" stroke-miterlimit="10"/><path fill="blue" stroke="blue" paint-order="fill stroke markers" d=" M 249.25401487332107 270.8866259676802 A 1.5 1.5 0 1 1 249.25401412332113 270.88512596793015" fill-opacity="0.3" stroke-linejoin="bevel" stroke-miterlimit="10"/><path fill="blue" stroke="blue" paint-order="fill stroke markers" d=" M 250.5964492964649 270.7972997796047 A 1.5 1.5 0 1 1 250.59644854646496 270.7957997798547" fill-opacity="0.3" stroke-linejoin="bevel" stroke-miterlimit="10"/><path fill="blue" stroke="blue" paint-order="fill stroke markers" d=" M 251.93888371960875 271.74926195460637 A 1.5 1.5 0 1 1 251.9388829696088 271.74776195485634" fill-opacity="0.3" stroke-linejoin="bevel" stroke-miterlimit="10"/><path fill="blue" stroke="blue" paint-order="fill stroke markers" d=" M 253.28131814275264 273.4106133749493 A 1.5 1.5 0 1 1 253.2813173927527 273.4091133751993" fill-opacity="0.3" stroke-linejoin="bevel" stroke-miterlimit="10"/><path fill="blue" stroke="blue" paint-order="fill stroke markers" d=" M 254.62375256589647 275.4091770735739 A 1.5 1.5 0 1 1 254.62375181589653 275.4076770738239" fill-opacity="0.3" stroke-linejoin="bevel" stroke-miterlimit="10"/><path fill="blue" stroke="blue" paint-order="fill stroke markers" d=" M 256.1153463693896 276.24570155284624 A 1.5 1.5 0 1 1 256.1153456193897 276.2442015530962" fill-opacity="0.3" stroke-linejoin="bevel" stroke-miterlimit="10"/><path fill="blue" stroke="blue" paint-order="fill stroke markers" d=" M 257.4577807925335 278.1017346884181 A 1.5 1.5 0 1 1 257.45778004253356 278.1002346886681" fill-opacity="0.3" stroke-linejoin="bevel" stroke-miterlimit="10"/><path fill="blue" stroke="blue" paint-order="fill stroke markers" d=" M 258.8002152156773 279.84170862768246 A 1.5 1.5 0 1 1 258.8002144656774 279.84020862793244" fill-opacity="0.3" stroke-linejoin="bevel" stroke-miterlimit="10"/><path fill="blue" stroke="blue" paint-order="fill stroke markers" d=" M 260.14264963882124 281.1719398754279 A 1.5 1.5 0 1 1 260.1426488888213 281.17043987567786" fill-opacity="0.3" stroke-linejoin="bevel" stroke-miterlimit="10"/><path fill="blue" stroke="blue" paint-order="fill stroke markers" d=" M 261.48508406196504 282.60734571870046 A 1.5 1.5 0 1 1 261.4850833119651 282.60584571895043" fill-opacity="0.3" stroke-linejoin="bevel" stroke-miterlimit="10"/><path fill="blue" stroke="blue" paint-order="fill stroke markers" d=" M 262.8275184851089 279.9817515057096 A 1.5 1.5 0 1 1 262.827517735109 279.9802515059596" fill-opacity="0.3" stroke-linejoin="bevel" stroke-miterlimit="10"/><path fill="blue" stroke="blue" paint-order="fill stroke markers" d=" M 264.1699529082528 279.3236816146776 A 1.5 1.5 0 1 1 264.1699521582529 279.32218161492756" fill-opacity="0.3" stroke-linejoin="bevel" stroke-miterlimit="10"/><path fill="blue" stroke="blue" paint-order="fill stroke markers" d=" M 265.661546711746 281.2329327859138 A 1.5 1.5 0 1 1 265.66154596174607 281.2314327861638" fill-opacity="0.3" stroke-linejoin="bevel" stroke-miterlimit="10"/><path fill="blue" stroke="blue" paint-order="fill stroke markers" d=" M 267.0039811348898 285.27909427762694 A 1.5 1.5 0 1 1 267.00398038488987 285.2775942778769" fill-opacity="0.3" stroke-linejoin="bevel" stroke-miterlimit="10"/><path fill="blue" stroke="blue" paint-order="fill stroke markers" d=" M 268.34641555803364 288.5316291772193 A 1.5 1.5 0 1 1 268.3464148080337 288.5301291774693" fill-opacity="0.3" stroke-linejoin="bevel" stroke-miterlimit="10"/><path fill="blue" stroke="blue" paint-order="fill stroke markers" d=" M 269.6888499811775 288.35360185595596 A 1.5 1.5 0 1 1 269.6888492311776 288.35210185620593" fill-opacity="0.3" stroke-linejoin="bevel" stroke-miterlimit="10"/><path fill="blue" stroke="blue" paint-order="fill stroke markers" d=" M 271.03128440432135 292.34121629137275 A 1.5 1.5 0 1 1 271.03128365432144 292.3397162916227" fill-opacity="0.3" stroke-linejoin="bevel" stroke-miterlimit="10"/><path fill="blue" stroke="blue" paint-order="fill stroke markers" d=" M 272.3737188274652 295.7537419288577 A 1.5 1.5 0 1 1 272.3737180774653 295.7522419291077" fill-opacity="0.3" stroke-linejoin="bevel" stroke-miterlimit="10"/><path fill="blue" stroke="blue" paint-order="fill stroke markers" d=" M 273.71615325060907 296.12026725921993 A 1.5 1.5 0 1 1 273.71615250060916 296.1187672594699" fill-opacity="0.3" stroke-linejoin="bevel" stroke-miterlimit="10"/><path fill="blue" stroke="blue" paint-order="fill stroke markers" d=" M 275.0585876737529 294.5439587613234 A 1.5 1.5 0 1 1 275.058586923753 294.54245876157336" fill-opacity="0.3" stroke-linejoin="bevel" stroke-miterlimit="10"/><path fill="blue" stroke="blue" paint-order="fill stroke markers" d=" M 276.55018147724604 293.0216188377358 A 1.5 1.5 0 1 1 276.55018072724613 293.02011883798576" fill-opacity="0.3" stroke-linejoin="bevel" stroke-miterlimit="10"/><path fill="blue" stroke="blue" paint-order="fill stroke markers" d=" M 277.89261590038996 295.7781248637864 A 1.5 1.5 0 1 1 277.89261515039004 295.77662486403636" fill-opacity="0.3" stroke-linejoin="bevel" stroke-miterlimit="10"/><path fill="blue" stroke="blue" paint-order="fill stroke markers" d=" M 279.2350503235338 297.10594407796304 A 1.5 1.5 0 1 1 279.2350495735339 297.104444078213" fill-opacity="0.3" stroke-linejoin="bevel" stroke-miterlimit="10"/><path fill="blue" stroke="blue" paint-order="fill stroke markers" d=" M 280.5774847466776 295.8513182149167 A 1.5 1.5 0 1 1 280.5774839966777 295.8498182151667" fill-opacity="0.3" stroke-linejoin="bevel" stroke-miterlimit="10"/><path fill="blue" stroke="blue" paint-order="fill stroke markers" d=" M 281.9199191698215 298.4057214134554 A 1.5 1.5 0 1 1 281.9199184198216 298.4042214137054" fill-opacity="0.3" stroke-linejoin="bevel" stroke-miterlimit="10"/><path fill="blue" stroke="blue" paint-order="fill stroke markers" d=" M 283.2623535929653 301.1224058155738 A 1.5 1.5 0 1 1 283.2623528429654 301.1209058158238" fill-opacity="0.3" stroke-linejoin="bevel" stroke-miterlimit="10"/><path fill="blue" stroke="blue" paint-order="fill stroke markers" d=" M 284.6047880161092 303.5035999465191 A 1.5 1.5 0 1 1 284.60478726610927 303.5020999467691" fill-opacity="0.3" stroke-linejoin="bevel" stroke-miterlimit="10"/><path fill="blue" stroke="blue" paint-order="fill stroke markers" d=" M 286.09638181960236 306.31850318535714 A 1.5 1.5 0 1 1 286.09638106960244 306.3170031856071" fill-opacity="0.3" stroke-linejoin="bevel" stroke-miterlimit="10"/><path fill="blue" stroke="blue" paint-order="fill stroke markers" d=" M 287.4388162427462 307.7780863666868 A 1.5 1.5 0 1 1 287.4388154927463 307.7765863669368" fill-opacity="0.3" stroke-linejoin="bevel" stroke-miterlimit="10"/><path fill="blue" stroke="blue" paint-order="fill stroke markers" d=" M 288.78125066589007 307.43889214586073 A 1.5 1.5 0 1 1 288.78124991589016 307.4373921461107" fill-opacity="0.3" stroke-linejoin="bevel" stroke-miterlimit="10"/><path fill="blue" stroke="blue" paint-order="fill stroke markers" d=" M 290.1236850890339 309.2647486203066 A 1.5 1.5 0 1 1 290.123684339034 309.26324862055657" fill-opacity="0.3" stroke-linejoin="bevel" stroke-miterlimit="10"/><path fill="blue" stroke="blue" paint-order="fill stroke markers" d=" M 291.4661195121778 309.7568169013111 A 1.5 1.5 0 1 1 291.46611876217787 309.75531690156106" fill-opacity="0.3" stroke-linejoin="bevel" stroke-miterlimit="10"/><path fill="blue" stroke="blue" paint-order="fill stroke markers" d=" M 292.80855393532164 311.13317896794666 A 1.5 1.5 0 1 1 292.8085531853217 311.13167896819664" fill-opacity="0.3" stroke-linejoin="bevel" stroke-miterlimit="10"/><path fill="blue" stroke="blue" paint-order="fill stroke markers" d=" M 294.1509883584655 313.2279270886103 A 1.5 1.5 0 1 1 294.1509876084656 313.22642708886025" fill-opacity="0.3" stroke-linejoin="bevel" stroke-miterlimit="10"/><path fill="blue" stroke="blue" paint-order="fill stroke markers" d=" M 295.64258216195867 314.02013787170097 A 1.5 1.5 0 1 1 295.64258141195876 314.01863787195094" fill-opacity="0.3" stroke-linejoin="bevel" stroke-miterlimit="10"/><path fill="blue" stroke="blue" paint-order="fill stroke markers" d=" M 296.9850165851025 315.941475049114 A 1.5 1.5 0 1 1 296.9850158351026 315.93997504936397" fill-opacity="0.3" stroke-linejoin="bevel" stroke-miterlimit="10"/><path fill="blue" stroke="blue" paint-order="fill stroke markers" d=" M 298.3274510082463 320.55689815231335 A 1.5 1.5 0 1 1 298.3274502582464 320.5553981525633" fill-opacity="0.3" stroke-linejoin="bevel" stroke-miterlimit="10"/><path fill="blue" stroke="blue" paint-order="fill stroke markers" d=" M 299.66988543139024 320.15920743521167 A 1.5 1.5 0 1 1 299.66988468139033 320.15770743546165" fill-opacity="0.3" stroke-linejoin="bevel" stroke-miterlimit="10"/><path fill="blue" stroke="blue" paint-order="fill stroke markers" d=" M 301.0123198545341 322.3713420456154 A 1.5 1.5 0 1 1 301.0123191045342 322.36984204586537" fill-opacity="0.3" stroke-linejoin="bevel" stroke-miterlimit="10"/><path fill="blue" stroke="blue" paint-order="fill stroke markers" d=" M 302.35475427767796 324.01941072547214 A 1.5 1.5 0 1 1 302.35475352767804 324.0179107257221" fill-opacity="0.3" stroke-linejoin="bevel" stroke-miterlimit="10"/><path fill="blue" stroke="blue" paint-order="fill stroke markers" d=" M 303.6971887008218 323.46627986651526 A 1.5 1.5 0 1 1 303.6971879508219 323.46477986676524" fill-opacity="0.3" stroke-linejoin="bevel" stroke-miterlimit="10"/><path fill="blue" stroke="blue" paint-order="fill stroke markers" d=" M 305.18878250431493 323.8807696614351 A 1.5 1.5 0 1 1 305.188781754315 323.8792696616851" fill-opacity="0.3" stroke-linejoin="bevel" stroke-miterlimit="10"/><path fill="blue" stroke="blue" paint-order="fill stroke markers" d=" M 306.5312169274588 321.5934951086647 A 1.5 1.5 0 1 1 306.5312161774589 321.59199510891466" fill-opacity="0.3" stroke-linejoin="bevel" stroke-miterlimit="10"/><path fill="blue" stroke="blue" paint-order="fill stroke markers" d=" M 307.87365135060264 322.3713420456154 A 1.5 1.5 0 1 1 307.87365060060273 322.36984204586537" fill-opacity="0.3" stroke-linejoin="bevel" stroke-miterlimit="10"/><path fill="blue" stroke="blue" paint-order="fill stroke markers" d=" M 309.2160857737465 324.8913944657423 A 1.5 1.5 0 1 1 309.2160850237466 324.88989446599226" fill-opacity="0.3" stroke-linejoin="bevel" stroke-miterlimit="10"/><path fill="blue" stroke="blue" paint-order="fill stroke markers" d=" M 310.55852019689036 329.28836547867706 A 1.5 1.5 0 1 1 310.55851944689044 329.28686547892704" fill-opacity="0.3" stroke-linejoin="bevel" stroke-miterlimit="10"/><path fill="blue" stroke="blue" paint-order="fill stroke markers" d=" M 311.9009546200342 329.7714407627589 A 1.5 1.5 0 1 1 311.9009538700343 329.7699407630089" fill-opacity="0.3" stroke-linejoin="bevel" stroke-miterlimit="10"/><path fill="blue" stroke="blue" paint-order="fill stroke markers" d=" M 313.24338904317807 331.9246069946445 A 1.5 1.5 0 1 1 313.24338829317816 331.92310699489445" fill-opacity="0.3" stroke-linejoin="bevel" stroke-miterlimit="10"/><path fill="blue" stroke="blue" paint-order="fill stroke markers" d=" M 314.73498284667124 332.42388907724944 A 1.5 1.5 0 1 1 314.73498209667133 332.4223890774994" fill-opacity="0.3" stroke-linejoin="bevel" stroke-miterlimit="10"/><path fill="blue" stroke="blue" paint-order="fill stroke markers" d=" M 316.0774172698151 331.23838906653003 A 1.5 1.5 0 1 1 316.0774165198152 331.23688906678" fill-opacity="0.3" stroke-linejoin="bevel" stroke-miterlimit="10"/><path fill="blue" stroke="blue" paint-order="fill stroke markers" d=" M 317.41985169295896 332.9650793688277 A 1.5 1.5 0 1 1 317.41985094295904 332.96357936907765" fill-opacity="0.3" stroke-linejoin="bevel" stroke-miterlimit="10"/><path fill="blue" stroke="blue" paint-order="fill stroke markers" d=" M 318.7622861161028 333.1203788651561 A 1.5 1.5 0 1 1 318.7622853661029 333.1188788654061" fill-opacity="0.3" stroke-linejoin="bevel" stroke-miterlimit="10"/><path fill="blue" stroke="blue" paint-order="fill stroke markers" d=" M 320.1047205392466 334.6901551153418 A 1.5 1.5 0 1 1 320.1047197892467 334.68865511559176" fill-opacity="0.3" stroke-linejoin="bevel" stroke-miterlimit="10"/><path fill="blue" stroke="blue" paint-order="fill stroke markers" d=" M 321.4471549623905 336.57481651646304 A 1.5 1.5 0 1 1 321.4471542123906 336.573316516713" fill-opacity="0.3" stroke-linejoin="bevel" stroke-miterlimit="10"/><path fill="blue" stroke="blue" paint-order="fill stroke markers" d=" M 322.7895893855343 342.7728947312148 A 1.5 1.5 0 1 1 322.7895886355344 342.7713947314648" fill-opacity="0.3" stroke-linejoin="bevel" stroke-miterlimit="10"/><path fill="blue" stroke="blue" paint-order="fill stroke markers" d=" M 324.2811831890275 339.17266400096617 A 1.5 1.5 0 1 1 324.2811824390276 339.17116400121614" fill-opacity="0.3" stroke-linejoin="bevel" stroke-miterlimit="10"/><path fill="blue" stroke="blue" paint-order="fill stroke markers" d=" M 325.62361761217136 344.2327413394372 A 1.5 1.5 0 1 1 325.62361686217145 344.2312413396872" fill-opacity="0.3" stroke-linejoin="bevel" stroke-miterlimit="10"/><path fill="blue" stroke="blue" paint-order="fill stroke markers" d=" M 326.9660520353153 348.2609093341901 A 1.5 1.5 0 1 1 326.96605128531536 348.2594093344401" fill-opacity="0.3" stroke-linejoin="bevel" stroke-miterlimit="10"/><path fill="blue" stroke="blue" paint-order="fill stroke markers" d=" M 328.3084864584591 344.36678293471317 A 1.5 1.5 0 1 1 328.30848570845916 344.36528293496315" fill-opacity="0.3" stroke-linejoin="bevel" stroke-miterlimit="10"/><path fill="blue" stroke="blue" paint-order="fill stroke markers" d=" M 329.65092088160293 345.99301830550974 A 1.5 1.5 0 1 1 329.650920131603 345.9915183057597" fill-opacity="0.3" stroke-linejoin="bevel" stroke-miterlimit="10"/><path fill="blue" stroke="blue" paint-order="fill stroke markers" d=" M 330.9933553047468 347.65294102823145 A 1.5 1.5 0 1 1 330.9933545547469 347.65144102848143" fill-opacity="0.3" stroke-linejoin="bevel" stroke-miterlimit="10"/><path fill="blue" stroke="blue" paint-order="fill stroke markers" d=" M 332.33578972789064 346.8186817463909 A 1.5 1.5 0 1 1 332.33578897789073 346.81718174664087" fill-opacity="0.3" stroke-linejoin="bevel" stroke-miterlimit="10"/><path fill="blue" stroke="blue" paint-order="fill stroke markers" d=" M 333.8273835313838 347.3738884594437 A 1.5 1.5 0 1 1 333.8273827813839 347.3723884596937" fill-opacity="0.3" stroke-linejoin="bevel" stroke-miterlimit="10"/><path fill="blue" stroke="blue" paint-order="fill stroke markers" d=" M 335.1698179545277 346.77258768988565 A 1.5 1.5 0 1 1 335.16981720452776 346.77108769013563" fill-opacity="0.3" stroke-linejoin="bevel" stroke-miterlimit="10"/><path fill="blue" stroke="blue" paint-order="fill stroke markers" d=" M 336.51225237767153 350.2572460459752 A 1.5 1.5 0 1 1 336.5122516276716 350.25574604622517" fill-opacity="0.3" stroke-linejoin="bevel" stroke-miterlimit="10"/><path fill="blue" stroke="blue" paint-order="fill stroke markers" d=" M 337.8546868008154 353.34821657937323 A 1.5 1.5 0 1 1 337.8546860508155 353.3467165796232" fill-opacity="0.3" stroke-linejoin="bevel" stroke-miterlimit="10"/><path fill="blue" stroke="blue" paint-order="fill stroke markers" d=" M 339.19712122395924 353.19829227928096 A 1.5 1.5 0 1 1 339.19712047395933 353.19679227953094" fill-opacity="0.3" stroke-linejoin="bevel" stroke-miterlimit="10"/><path fill="blue" stroke="blue" paint-order="fill stroke markers" d=" M 340.5395556471031 349.443204533952 A 1.5 1.5 0 1 1 340.5395548971032 349.44170453420196" fill-opacity="0.3" stroke-linejoin="bevel" stroke-miterlimit="10"/><path fill="blue" stroke="blue" paint-order="fill stroke markers" d=" M 341.8819900702469 346.7265201318336 A 1.5 1.5 0 1 1 341.881989320247 346.72502013208356" fill-opacity="0.3" stroke-linejoin="bevel" stroke-miterlimit="10"/><path fill="blue" stroke="blue" paint-order="fill stroke markers" d=" M 343.3735838737401 351.4695916355621 A 1.5 1.5 0 1 1 343.37358312374016 351.4680916358121" fill-opacity="0.3" stroke-linejoin="bevel" stroke-miterlimit="10"/><path fill="blue" stroke="blue" paint-order="fill stroke markers" d=" M 344.716018296884 355.73440631522396 A 1.5 1.5 0 1 1 344.7160175468841 355.73290631547394" fill-opacity="0.3" stroke-linejoin="bevel" stroke-miterlimit="10"/><path fill="blue" stroke="blue" paint-order="fill stroke markers" d=" M 346.0584527200278 359.10234056915556 A 1.5 1.5 0 1 1 346.0584519700279 359.10084056940553" fill-opacity="0.3" stroke-linejoin="bevel" stroke-miterlimit="10"/><path fill="blue" stroke="blue" paint-order="fill stroke markers" d=" M 347.40088714317164 355.3231955859416 A 1.5 1.5 0 1 1 347.40088639317173 355.3216955861916" fill-opacity="0.3" stroke-linejoin="bevel" stroke-miterlimit="10"/><path fill="blue" stroke="blue" paint-order="fill stroke markers" d=" M 348.74332156631556 359.5334620664513 A 1.5 1.5 0 1 1 348.74332081631565 359.5319620667013" fill-opacity="0.3" stroke-linejoin="bevel" stroke-miterlimit="10"/><path fill="blue" stroke="blue" paint-order="fill stroke markers" d=" M 350.08575598945936 361.4473763276378 A 1.5 1.5 0 1 1 350.08575523945944 361.4458763278878" fill-opacity="0.3" stroke-linejoin="bevel" stroke-miterlimit="10"/><path fill="blue" stroke="blue" paint-order="fill stroke markers" d=" M 351.4281904126032 360.51205039475485 A 1.5 1.5 0 1 1 351.4281896626033 360.5105503950048" fill-opacity="0.3" stroke-linejoin="bevel" stroke-miterlimit="10"/><path fill="blue" stroke="blue" paint-order="fill stroke markers" d=" M 352.9197842160964 362.33776898840694 A 1.5 1.5 0 1 1 352.9197834660965 362.3362689886569" fill-opacity="0.3" stroke-linejoin="bevel" stroke-miterlimit="10"/><path fill="blue" stroke="blue" paint-order="fill stroke markers" d=" M 354.26221863924025 370.5820610376078 A 1.5 1.5 0 1 1 354.26221788924033 370.58056103785776" fill-opacity="0.3" stroke-linejoin="bevel" stroke-miterlimit="10"/><path fill="blue" stroke="blue" paint-order="fill stroke markers" d=" M 355.6046530623841 371.07979254475345 A 1.5 1.5 0 1 1 355.6046523123842 371.0782925450034" fill-opacity="0.3" stroke-linejoin="bevel" stroke-miterlimit="10"/><path fill="blue" stroke="blue" paint-order="fill stroke markers" d=" M 356.94708748552796 368.6214858136433 A 1.5 1.5 0 1 1 356.94708673552805 368.61998581389327" fill-opacity="0.3" stroke-linejoin="bevel" stroke-miterlimit="10"/><path fill="blue" stroke="blue" paint-order="fill stroke markers" d=" M 358.2895219086718 363.4648552901351 A 1.5 1.5 0 1 1 358.2895211586719 363.4633552903851" fill-opacity="0.3" stroke-linejoin="bevel" stroke-miterlimit="10"/><path fill="blue" stroke="blue" paint-order="fill stroke markers" d=" M 359.6319563318156 364.0915770521823 A 1.5 1.5 0 1 1 359.6319555818157 364.09007705243226" fill-opacity="0.3" stroke-linejoin="bevel" stroke-miterlimit="10"/><path fill="blue" stroke="blue" paint-order="fill stroke markers" d=" M 360.97439075495953 370.0257837283963 A 1.5 1.5 0 1 1 360.9743900049596 370.02428372864625" fill-opacity="0.3" stroke-linejoin="bevel" stroke-miterlimit="10"/><path fill="blue" stroke="blue" paint-order="fill stroke markers" d=" M 362.4659845584527 371.51785814577295 A 1.5 1.5 0 1 1 362.4659838084528 371.5163581460229" fill-opacity="0.3" stroke-linejoin="bevel" stroke-miterlimit="10"/><path fill="blue" stroke="blue" paint-order="fill stroke markers" d=" M 363.80841898159656 370.7062043854801 A 1.5 1.5 0 1 1 363.80841823159665 370.70470438573005" fill-opacity="0.3" stroke-linejoin="bevel" stroke-miterlimit="10"/><path fill="blue" stroke="blue" paint-order="fill stroke markers" d=" M 365.15085340474036 370.7062043854801 A 1.5 1.5 0 1 1 365.15085265474045 370.70470438573005" fill-opacity="0.3" stroke-linejoin="bevel" stroke-miterlimit="10"/><path fill="blue" stroke="blue" paint-order="fill stroke markers" d=" M 366.4932878278843 371.2047099746086 A 1.5 1.5 0 1 1 366.49328707788436 371.20320997485857" fill-opacity="0.3" stroke-linejoin="bevel" stroke-miterlimit="10"/><path fill="blue" stroke="blue" paint-order="fill stroke markers" d=" M 367.8357222510281 374.78387970251254 A 1.5 1.5 0 1 1 367.83572150102816 374.7823797027625" fill-opacity="0.3" stroke-linejoin="bevel" stroke-miterlimit="10"/><path fill="blue" stroke="blue" paint-order="fill stroke markers" d=" M 369.17815667417193 368.6820332400408 A 1.5 1.5 0 1 1 369.178155924172 368.6805332402908" fill-opacity="0.3" stroke-linejoin="bevel" stroke-miterlimit="10"/><path fill="blue" stroke="blue" paint-order="fill stroke markers" d=" M 370.5205910973158 373.4871764083948 A 1.5 1.5 0 1 1 370.5205903473159 373.4856764086448" fill-opacity="0.3" stroke-linejoin="bevel" stroke-miterlimit="10"/><path fill="blue" stroke="blue" paint-order="fill stroke markers" d=" M 372.01218490080896 375.6381302647641 A 1.5 1.5 0 1 1 372.01218415080905 375.63663026501405" fill-opacity="0.3" stroke-linejoin="bevel" stroke-miterlimit="10"/><path fill="blue" stroke="blue" paint-order="fill stroke markers" d=" M 373.3546193239528 376.10191130728197 A 1.5 1.5 0 1 1 373.3546185739529 376.10041130753194" fill-opacity="0.3" stroke-linejoin="bevel" stroke-miterlimit="10"/><path fill="blue" stroke="blue" paint-order="fill stroke markers" d=" M 374.6970537470967 372.33781704740807 A 1.5 1.5 0 1 1 374.69705299709676 372.33631704765804" fill-opacity="0.3" stroke-linejoin="bevel" stroke-miterlimit="10"/><path fill="blue" stroke="blue" paint-order="fill stroke markers" d=" M 376.03948817024053 372.4647125846527 A 1.5 1.5 0 1 1 376.0394874202406 372.4632125849027" fill-opacity="0.3" stroke-linejoin="bevel" stroke-miterlimit="10"/><path fill="blue" stroke="blue" paint-order="fill stroke markers" d=" M 377.3819225933844 371.26724178817943 A 1.5 1.5 0 1 1 377.3819218433845 371.2657417884294" fill-opacity="0.3" stroke-linejoin="bevel" stroke-miterlimit="10"/><path fill="blue" stroke="blue" paint-order="fill stroke markers" d=" M 378.72435701652824 374.19776523651547 A 1.5 1.5 0 1 1 378.72435626652833 374.19626523676544" fill-opacity="0.3" stroke-linejoin="bevel" stroke-miterlimit="10"/><path fill="blue" stroke="blue" paint-order="fill stroke markers" d=" M 380.0667914396721 372.08462721584783 A 1.5 1.5 0 1 1 380.0667906896722 372.0831272160978" fill-opacity="0.3" stroke-linejoin="bevel" stroke-miterlimit="10"/><path fill="blue" stroke="blue" paint-order="fill stroke markers" d=" M 381.5583852431653 368.9854584985292 A 1.5 1.5 0 1 1 381.55838449316536 368.9839584987792" fill-opacity="0.3" stroke-linejoin="bevel" stroke-miterlimit="10"/><path fill="blue" stroke="blue" paint-order="fill stroke markers" d=" M 382.9008196663091 372.97431376166026 A 1.5 1.5 0 1 1 382.90081891630916 372.97281376191023" fill-opacity="0.3" stroke-linejoin="bevel" stroke-miterlimit="10"/><path fill="blue" stroke="blue" paint-order="fill stroke markers" d=" M 384.243254089453 375.8365649885931 A 1.5 1.5 0 1 1 384.2432533394531 375.8350649888431" fill-opacity="0.3" stroke-linejoin="bevel" stroke-miterlimit="10"/><path fill="blue" stroke="blue" paint-order="fill stroke markers" d=" M 385.58568851259685 381.8159367618584 A 1.5 1.5 0 1 1 385.58568776259693 381.81443676210836" fill-opacity="0.3" stroke-linejoin="bevel" stroke-miterlimit="10"/><path fill="blue" stroke="blue" paint-order="fill stroke markers" d=" M 386.92812293574065 389.0549626222062 A 1.5 1.5 0 1 1 386.92812218574073 389.05346262245615" fill-opacity="0.3" stroke-linejoin="bevel" stroke-miterlimit="10"/><path fill="blue" stroke="blue" paint-order="fill stroke markers" d=" M 388.27055735888456 389.99773249652975 A 1.5 1.5 0 1 1 388.27055660888465 389.9962324967797" fill-opacity="0.3" stroke-linejoin="bevel" stroke-miterlimit="10"/><path fill="blue" stroke="blue" paint-order="fill stroke markers" d=" M 389.61299178202836 388.82099306906247 A 1.5 1.5 0 1 1 389.61299103202845 388.81949306931244" fill-opacity="0.3" stroke-linejoin="bevel" stroke-miterlimit="10"/><path fill="blue" stroke="blue" paint-order="fill stroke markers" d=" M 391.10458558552153 390.6324646469587 A 1.5 1.5 0 1 1 391.1045848355216 390.63096464720866" fill-opacity="0.3" stroke-linejoin="bevel" stroke-miterlimit="10"/><path fill="blue" stroke="blue" paint-order="fill stroke markers" d=" M 392.4470200086654 384.7963393378511 A 1.5 1.5 0 1 1 392.4470192586655 384.7948393381011" fill-opacity="0.3" stroke-linejoin="bevel" stroke-miterlimit="10"/><path fill="blue" stroke="blue" paint-order="fill stroke markers" d=" M 393.78945443180925 381.3179843338474 A 1.5 1.5 0 1 1 393.78945368180933 381.31648433409737" fill-opacity="0.3" stroke-linejoin="bevel" stroke-miterlimit="10"/><path fill="blue" stroke="blue" paint-order="fill stroke markers" d=" M 395.1318888549531 394.48331659399827 A 1.5 1.5 0 1 1 395.1318881049532 394.48181659424824" fill-opacity="0.3" stroke-linejoin="bevel" stroke-miterlimit="10"/><path fill="blue" stroke="blue" paint-order="fill stroke markers" d=" M 396.47432327809696 389.99773249652975 A 1.5 1.5 0 1 1 396.47432252809705 389.9962324967797" fill-opacity="0.3" stroke-linejoin="bevel" stroke-miterlimit="10"/><path fill="blue" stroke="blue" paint-order="fill stroke markers" d=" M 397.8167577012408 385.01883234989367 A 1.5 1.5 0 1 1 397.8167569512409 385.01733235014365" fill-opacity="0.3" stroke-linejoin="bevel" stroke-miterlimit="10"/><path fill="blue" stroke="blue" paint-order="fill stroke markers" d=" M 399.1591921243847 388.04599171870655 A 1.5 1.5 0 1 1 399.15919137438476 388.0444917189565" fill-opacity="0.3" stroke-linejoin="bevel" stroke-miterlimit="10"/><path fill="blue" stroke="blue" paint-order="fill stroke markers" d=" M 400.65078592787785 388.58770465095256 A 1.5 1.5 0 1 1 400.65078517787794 388.58620465120254" fill-opacity="0.3" stroke-linejoin="bevel" stroke-miterlimit="10"/><path fill="blue" stroke="blue" paint-order="fill stroke markers" d=" M 401.9932203510217 386.74545075736285 A 1.5 1.5 0 1 1 401.9932196010218 386.7439507576128" fill-opacity="0.3" stroke-linejoin="bevel" stroke-miterlimit="10"/><path fill="blue" stroke="blue" paint-order="fill stroke markers" d=" M 403.33565477416556 386.5938243828443 A 1.5 1.5 0 1 1 403.33565402416565 386.59232438309425" fill-opacity="0.3" stroke-linejoin="bevel" stroke-miterlimit="10"/><path fill="blue" stroke="blue" paint-order="fill stroke markers" d=" M 404.67808919730936 388.5100925237963 A 1.5 1.5 0 1 1 404.67808844730945 388.50859252404626" fill-opacity="0.3" stroke-linejoin="bevel" stroke-miterlimit="10"/><path fill="blue" stroke="blue" paint-order="fill stroke markers" d=" M 406.0205236204533 392.31482402503286 A 1.5 1.5 0 1 1 406.02052287045336 392.31332402528284" fill-opacity="0.3" stroke-linejoin="bevel" stroke-miterlimit="10"/><path fill="blue" stroke="blue" paint-order="fill stroke markers" d=" M 407.3629580435971 394.0997774484405 A 1.5 1.5 0 1 1 407.36295729359716 394.09827744869045" fill-opacity="0.3" stroke-linejoin="bevel" stroke-miterlimit="10"/><path fill="blue" stroke="blue" paint-order="fill stroke markers" d=" M 408.70539246674093 393.5774565834828 A 1.5 1.5 0 1 1 408.705391716741 393.57595658373276" fill-opacity="0.3" stroke-linejoin="bevel" stroke-miterlimit="10"/><path fill="blue" stroke="blue" paint-order="fill stroke markers" d=" M 410.1969862702341 402.71487889911816 A 1.5 1.5 0 1 1 410.1969855202342 402.71337889936814" fill-opacity="0.3" stroke-linejoin="bevel" stroke-miterlimit="10"/><path fill="blue" stroke="blue" paint-order="fill stroke markers" d=" M 411.539420693378 399.74204790362904 A 1.5 1.5 0 1 1 411.5394199433781 399.740547903879" fill-opacity="0.3" stroke-linejoin="bevel" stroke-miterlimit="10"/><path fill="blue" stroke="blue" paint-order="fill stroke markers" d=" M 412.8818551165218 402.2899571321585 A 1.5 1.5 0 1 1 412.8818543665219 402.2884571324085" fill-opacity="0.3" stroke-linejoin="bevel" stroke-miterlimit="10"/><path fill="blue" stroke="blue" paint-order="fill stroke markers" d=" M 414.2242895396657 400.9922778298695 A 1.5 1.5 0 1 1 414.22428878966576 400.9907778301195" fill-opacity="0.3" stroke-linejoin="bevel" stroke-miterlimit="10"/><path fill="blue" stroke="blue" paint-order="fill stroke markers" d=" M 415.56672396280953 393.9335921648552 A 1.5 1.5 0 1 1 415.5667232128096 393.9320921651052" fill-opacity="0.3" stroke-linejoin="bevel" stroke-miterlimit="10"/><path fill="blue" stroke="blue" paint-order="fill stroke markers" d=" M 416.9091583859534 395.84034685844324 A 1.5 1.5 0 1 1 416.9091576359535 395.8388468586932" fill-opacity="0.3" stroke-linejoin="bevel" stroke-miterlimit="10"/><path fill="blue" stroke="blue" paint-order="fill stroke markers" d=" M 418.25159280909725 390.95172608529094 A 1.5 1.5 0 1 1 418.25159205909733 390.9502260855409" fill-opacity="0.3" stroke-linejoin="bevel" stroke-miterlimit="10"/><path fill="blue" stroke="blue" paint-order="fill stroke markers" d=" M 419.7431866125904 395.41644344174915 A 1.5 1.5 0 1 1 419.7431858625905 395.4149434419991" fill-opacity="0.3" stroke-linejoin="bevel" stroke-miterlimit="10"/><path fill="blue" stroke="blue" paint-order="fill stroke markers" d=" M 421.0856210357343 394.69253428640104 A 1.5 1.5 0 1 1 421.08562028573436 394.691034286651" fill-opacity="0.3" stroke-linejoin="bevel" stroke-miterlimit="10"/><path fill="blue" stroke="blue" paint-order="fill stroke markers" d=" M 422.42805545887813 397.0048394138769 A 1.5 1.5 0 1 1 422.4280547088782 397.00333941412686" fill-opacity="0.3" stroke-linejoin="bevel" stroke-miterlimit="10"/><path fill="blue" stroke="blue" paint-order="fill stroke markers" d=" M 423.770489882022 405.00727691484576 A 1.5 1.5 0 1 1 423.7704891320221 405.00577691509574" fill-opacity="0.3" stroke-linejoin="bevel" stroke-miterlimit="10"/><path fill="blue" stroke="blue" paint-order="fill stroke markers" d=" M 425.1129243051658 403.77776064911313 A 1.5 1.5 0 1 1 425.1129235551659 403.7762606493631" fill-opacity="0.3" stroke-linejoin="bevel" stroke-miterlimit="10"/><path fill="blue" stroke="blue" paint-order="fill stroke markers" d=" M 426.4553587283097 404.352339122102 A 1.5 1.5 0 1 1 426.4553579783098 404.350839122352" fill-opacity="0.3" stroke-linejoin="bevel" stroke-miterlimit="10"/><path fill="blue" stroke="blue" paint-order="fill stroke markers" d=" M 427.79779315145356 404.3807036489835 A 1.5 1.5 0 1 1 427.79779240145365 404.3792036492335" fill-opacity="0.3" stroke-linejoin="bevel" stroke-miterlimit="10"/><path fill="blue" stroke="blue" paint-order="fill stroke markers" d=" M 429.28938695494674 405.437312312875 A 1.5 1.5 0 1 1 429.2893862049468 405.435812313125" fill-opacity="0.3" stroke-linejoin="bevel" stroke-miterlimit="10"/><path fill="blue" stroke="blue" paint-order="fill stroke markers" d=" M 430.6318213780906 409.1336935757696 A 1.5 1.5 0 1 1 430.6318206280907 409.1321935760196" fill-opacity="0.3" stroke-linejoin="bevel" stroke-miterlimit="10"/><path fill="blue" stroke="blue" paint-order="fill stroke markers" d=" M 431.9742558012344 414.6688548015337 A 1.5 1.5 0 1 1 431.9742550512345 414.6673548017837" fill-opacity="0.3" stroke-linejoin="bevel" stroke-miterlimit="10"/><path fill="blue" stroke="blue" paint-order="fill stroke markers" d=" M 433.31669022437825 409.49574772339247 A 1.5 1.5 0 1 1 433.31668947437834 409.49424772364245" fill-opacity="0.3" stroke-linejoin="bevel" stroke-miterlimit="10"/><path fill="blue" stroke="blue" paint-order="fill stroke markers" d=" M 434.6591246475221 410.2654987308037 A 1.5 1.5 0 1 1 434.6591238975222 410.2639987310537" fill-opacity="0.3" stroke-linejoin="bevel" stroke-miterlimit="10"/><path fill="blue" stroke="blue" paint-order="fill stroke markers" d=" M 436.001559070666 406.9267005053769 A 1.5 1.5 0 1 1 436.0015583206661 406.9252005056269" fill-opacity="0.3" stroke-linejoin="bevel" stroke-miterlimit="10"/><path fill="blue" stroke="blue" paint-order="fill stroke markers" d=" M 437.3439934938099 405.98535780570285 A 1.5 1.5 0 1 1 437.34399274380996 405.9838578059528" fill-opacity="0.3" stroke-linejoin="bevel" stroke-miterlimit="10"/><path fill="blue" stroke="blue" paint-order="fill stroke markers" d=" M 438.83558729730305 411.00162091174235 A 1.5 1.5 0 1 1 438.83558654730314 411.0001209119923" fill-opacity="0.3" stroke-linejoin="bevel" stroke-miterlimit="10"/><path fill="blue" stroke="blue" paint-order="fill stroke markers" d=" M 440.17802172044685 414.8949651047949 A 1.5 1.5 0 1 1 440.17802097044694 414.89346510504487" fill-opacity="0.3" stroke-linejoin="bevel" stroke-miterlimit="10"/><path fill="blue" stroke="blue" paint-order="fill stroke markers" d=" M 441.5204561435907 420.5454545454545 A 1.5 1.5 0 1 1 441.5204553935908 420.5439545457045" fill-opacity="0.3" stroke-linejoin="bevel" stroke-miterlimit="10"/><path fill="blue" stroke="blue" paint-order="fill stroke markers" d=" M 442.86289056673456 414.5184682680738 A 1.5 1.5 0 1 1 442.86288981673465 414.51696826832375" fill-opacity="0.3" stroke-linejoin="bevel" stroke-miterlimit="10"/><path fill="blue" stroke="blue" paint-order="fill stroke markers" d=" M 444.2053249898784 404.2956401704266 A 1.5 1.5 0 1 1 444.2053242398785 404.2941401706766" fill-opacity="0.3" stroke-linejoin="bevel" stroke-miterlimit="10"/><path fill="blue" stroke="blue" paint-order="fill stroke markers" d=" M 445.54775941302233 405.44689491557995 A 1.5 1.5 0 1 1 445.5477586630224 405.4453949158299" fill-opacity="0.3" stroke-linejoin="bevel" stroke-miterlimit="10"/><path fill="blue" stroke="blue" paint-order="fill stroke markers" d=" M 446.8901938361661 408.00775647042644 A 1.5 1.5 0 1 1 446.89019308616616 408.0062564706764" fill-opacity="0.3" stroke-linejoin="bevel" stroke-miterlimit="10"/><path fill="blue" stroke="blue" paint-order="fill stroke markers" d=" M 448.38178763965925 414.3255279300238 A 1.5 1.5 0 1 1 448.38178688965934 414.32402793027376" fill-opacity="0.3" stroke-linejoin="bevel" stroke-miterlimit="10"/><path fill="blue" stroke="blue" paint-order="fill stroke markers" d=" M 449.72422206280316 403.5715423424734 A 1.5 1.5 0 1 1 449.72422131280325 403.57004234272335" fill-opacity="0.3" stroke-linejoin="bevel" stroke-miterlimit="10"/><path fill="blue" stroke="blue" paint-order="fill stroke markers" d=" M 451.066656485947 402.38213995035903 A 1.5 1.5 0 1 1 451.0666557359471 402.380639950609" fill-opacity="0.3" stroke-linejoin="bevel" stroke-miterlimit="10"/><path fill="blue" stroke="blue" paint-order="fill stroke markers" d=" M 452.4090909090909 409.2140088067722 A 1.5 1.5 0 1 1 452.40909015909097 409.2125088070222" fill-opacity="0.3" stroke-linejoin="bevel" stroke-miterlimit="10"/></g></g></g><g clip-path="url(#sETyuUvtxqbE)"><g><g><path fill="none" stroke="none"/><path fill="none" stroke="red" paint-order="fill stroke markers" d=" M 69.09090909090912 51.82363600173301 L 70.44825945208791 53.4214405178634 L 71.82052575130163 55.10981840598936 L 73.1778761124804 56.84912784550522 L 74.5352264736592 58.65459728758799 L 75.90749277287291 60.54402107076078 L 77.26484313405169 62.473367346554255 L 78.63710943326541 64.48118561386036 L 79.9944597944442 66.51925572708626 L 81.35181015562299 68.60450105386582 L 82.7240764548367 70.7563463975253 L 84.0814268160155 72.92312635067873 L 85.4536931152292 75.14795103421653 L 86.81104347640799 77.3779728732058 L 88.1833097756217 79.65769491349448 L 89.54066013680048 81.93294333528587 L 90.89801049797927 84.22402683435922 L 92.27027679719299 86.55154604787646 L 93.62762715837178 88.86069121750023 L 94.99989345758549 91.19809685463929 L 96.35724381876427 93.50875450492299 L 97.729510117978 95.83952509223792 L 99.08686047915678 98.13571707292908 L 100.44421084033556 100.41866799837453 L 101.81647713954928 102.7091500127413 L 103.17382750072807 104.95357253923731 L 104.54609379994179 107.19681346983947 L 105.90344416112058 109.38641603012951 L 107.26079452229936 111.54301288317919 L 108.63306082151307 113.68582769604524 L 109.99041118269184 115.76773112270507 L 111.36267748190556 117.83578280449683 L 112.72002784308435 119.84589503189221 L 114.09229414229807 121.84313997544797 L 115.44964450347686 123.78530442971407 L 116.80699486465565 125.69537224492308 L 118.17926116386937 127.59465355765929 L 119.53661152504813 129.44299197120284 L 120.90887782426185 131.28235693371658 L 122.26622818544067 133.0733184518773 L 123.63849448465436 134.8564322431052 L 124.99584484583315 136.5947747870557 L 126.35319520701194 138.31046280847488 L 127.72546150622566 140.02492179926844 L 129.08281186740444 141.70337947214614 L 130.45507816661816 143.38642558807538 L 131.81242852779695 145.03938698192655 L 133.1697788889757 146.68427729770139 L 134.54204518818943 148.34117084172027 L 135.89939554936822 149.97728477495923 L 137.2716618485819 151.63135571041227 L 138.62901220976073 153.27001870947788 L 140.00127850897445 154.9319560650324 L 141.3586288701532 156.58185446918247 L 142.715979231332 158.23750719485122 L 144.08824553054572 159.91734817547882 L 145.4455958917245 161.58424887861725 L 146.81786219093823 163.2748927098349 L 148.17521255211702 164.95239582965115 L 149.54747885133074 166.6535963160568 L 150.90482921250953 168.341964676837 L 152.2621795736883 170.03467596997393 L 153.634445872902 171.75146440831583 L 154.99179623408082 173.45442101852097 L 156.36406253329451 175.17973420732335 L 157.7214128944733 176.88823495610592 L 159.09367919368702 178.6164341739206 L 160.4510295548658 180.32381577973217 L 161.8083799160446 182.02825518874977 L 163.18064621525832 183.74623427057765 L 164.53799657643708 185.43905695239755 L 165.9102628756508 187.14137807123893 L 167.2676132368296 188.81514916011486 L 168.62496359800838 190.4761183155145 L 169.9972298972221 192.1414606554544 L 171.35458025840086 193.77383240202 L 172.7268465576146 195.4073867055933 L 174.08419691879337 197.00878587131558 L 175.4564632180071 198.6116445059484 L 176.81381357918588 200.18135833673261 L 178.17116394036466 201.73717066148322 L 179.54343023957838 203.29379151462814 L 180.90078060075714 204.81930728848874 L 182.27304689997086 206.34726258515525 L 183.63039726114968 207.84344436869418 L 185.00266356036337 209.34180084562985 L 186.36001392154216 210.80964785564987 L 187.71736428272095 212.26427786781466 L 189.08963058193467 213.72285026172415 L 190.44698094311343 215.15512353166696 L 191.81924724232718 216.59412362854664 L 193.17659760350597 218.00998710528262 L 194.50411608861486 219.38896726568925 L 195.84655051175875 220.77889257627226 L 197.3381443152519 222.31962255095482 L 198.68057873839575 223.70462541831233 L 200.0230131615396 225.08935521888833 L 201.36544758468347 226.4753243043005 L 202.70788200782732 227.8633225680124 L 204.05031643097115 229.2533497976155 L 205.392750854115 230.6450850778241 L 206.88434465760818 232.19311125392022 L 208.22677908075204 233.58725258034673 L 209.5692135038959 234.98220732255788 L 210.91164792703975 236.37746897164385 L 212.2540823501836 237.77273803360436 L 213.59651677332747 239.1677010258619 L 214.9389511964713 240.5620300615496 L 216.43054499996447 242.11013829296974 L 217.77297942310832 243.50207622669967 L 219.11541384625218 244.89160620346604 L 220.45784826939604 246.2776448939536 L 221.8002826925399 247.65877817346956 L 223.14271711568375 249.03364430284444 L 224.4851515388276 250.4012201753618 L 225.97674534232078 251.91038146129966 L 227.3191797654646 253.25806528137917 L 228.66161418860847 254.59422477240992 L 230.00404861175232 255.91803630114413 L 231.34648303489618 257.2277485496834 L 232.68891745804004 258.52260094753115 L 234.03135188118387 259.80150916433195 L 235.52294568467704 261.20485039792317 L 236.86538010782093 262.45263962641076 L 238.20781453096475 263.68650044041954 L 239.5502489541086 264.9074658902275 L 240.8926833772525 266.1161587281319 L 242.23511780039632 267.31326826040856 L 243.57755222354018 268.49955196112546 L 245.06914602703336 269.8055305678924 L 246.41158045017718 270.97104135161953 L 247.75401487332107 272.12778959655293 L 249.0964492964649 273.27661453190507 L 250.43888371960875 274.41879479372096 L 251.78131814275264 275.5562662399582 L 253.12375256589647 276.6905116866115 L 254.61534636938964 277.9491218501531 L 255.9577807925335 279.08235093617617 L 257.3002152156773 280.21757589957383 L 258.64264963882124 281.35668764961184 L 259.98508406196504 282.50106677970507 L 261.3275184851089 283.6525919844984 L 262.6699529082528 284.81261114906175 L 264.161546711746 286.11386547716785 L 265.5039811348898 287.2965162755529 L 266.84641555803364 288.49042518990376 L 268.1888499811775 289.6949316550928 L 269.53128440432135 290.90955765435643 L 270.8737188274652 292.13448848009733 L 272.21615325060907 293.36896823982266 L 273.5585876737529 294.61266807547713 L 275.05018147724604 296.0052422053059 L 276.39261590038996 297.26751641320254 L 277.7350503235338 298.53812829007364 L 279.0774847466776 299.816900393898 L 280.4199191698215 301.10285683844296 L 281.7623535929653 302.3949532637942 L 283.1047880161092 303.690996360985 L 284.59638181960236 305.1334959636989 L 285.9388162427462 306.43206811019854 L 287.28125066589007 307.7290972045499 L 288.6236850890339 309.02271984211563 L 289.9661195121778 310.3109598174697 L 291.30855393532164 311.59231892945263 L 292.6509883584655 312.8652180327263 L 294.14258216195867 314.267014843799 L 295.4850165851025 315.51574658239053 L 296.8274510082463 316.75128924649914 L 298.16988543139024 317.97368302486484 L 299.5123198545341 319.1823478574653 L 300.85475427767796 320.3773615597989 L 302.1971887008218 321.55883710661044 L 303.68878250431493 322.8550333136909 L 305.0312169274588 324.00692320265256 L 306.37365135060264 325.1446475561613 L 307.7160857737465 326.2684261319831 L 309.05852019689036 327.37743408766835 L 310.4009546200342 328.47229539087743 L 311.74338904317807 329.55295302643776 L 313.23498284667124 330.7377394761901 L 314.5774172698151 331.79224364231504 L 315.91985169295896 332.83602171552764 L 317.2622861161028 333.8708193929242 L 318.6047205392466 334.8984900906902 L 319.9471549623905 335.9193868732473 L 321.2895893855343 336.93552237919874 L 322.7811831890275 338.06013209578475 L 324.12361761217136 339.07004690750375 L 325.4660520353153 340.07843890367064 L 326.8084864584591 341.08723298506254 L 328.15092088160293 342.0967163934116 L 329.4933553047468 343.1063122179985 L 330.83578972789064 344.116307258916 L 332.3273835313838 345.23858858630416 L 333.6698179545277 346.2480653171631 L 335.01225237767153 347.2574391406647 L 336.3546868008154 348.2660734119171 L 337.69712122395924 349.27425224892727 L 339.0395556471031 350.2808326473944 L 340.3819900702469 351.28656639796736 L 341.8735838737401 352.4019160223181 L 343.216018296884 353.40426030282583 L 344.5584527200278 354.40308051938314 L 345.90088714317164 355.3975711313015 L 347.24332156631556 356.38585323405016 L 348.58575598945936 357.3670137746117 L 349.9281904126032 358.3395717759745 L 351.4197842160964 359.40873737996196 L 352.76221863924025 360.3595844054654 L 354.1046530623841 361.2975409877887 L 355.44708748552796 362.22257451977896 L 356.7895219086718 363.13240872697213 L 358.1319563318156 364.0263977517088 L 359.47439075495953 364.9044670531037 L 360.9659845584527 365.86240508826825 L 362.30841898159656 366.70832576627924 L 363.65085340474036 367.53998002609035 L 364.9932878278843 368.35742902856134 L 366.3357222510281 369.161973015665 L 367.67815667417193 369.9531350954123 L 369.0205910973158 370.7316775431809 L 370.51218490080896 371.58314698714605 L 371.8546193239528 372.33654910625205 L 373.1970537470967 373.079183471835 L 374.53948817024053 373.8106818742757 L 375.8819225933844 374.533931260338 L 377.22435701652824 375.2493029558663 L 378.5667914396721 375.9585151789049 L 380.0583852431653 376.7416806064472 L 381.4008196663091 377.4433359454782 L 382.743254089453 378.1423279579701 L 384.08568851259685 378.8419699664987 L 385.42812293574065 379.54222518504616 L 386.77055735888456 380.2444551469548 L 388.11299178202836 380.9507755250977 L 389.60458558552153 381.7410463527441 L 390.9470200086654 382.4564259558347 L 392.28945443180925 383.1775236832203 L 393.6318888549531 383.90150720340375 L 394.97432327809696 384.63061312318115 L 396.3167577012408 385.36193850217006 L 397.6591921243847 386.09774138429054 L 399.15078592787785 386.9178950220829 L 400.4932203510217 387.65821352543895 L 401.83565477416556 388.40156167521013 L 403.17808919730936 389.1463962298194 L 404.5205236204533 389.89269396633233 L 405.8629580435971 390.63963405946424 L 407.20539246674093 391.3857215414489 L 408.6969862702341 392.2116616485401 L 410.039420693378 392.9502947669898 L 411.3818551165218 393.68288994964394 L 412.7242895396657 394.4078812442375 L 414.06672396280953 395.1237355683238 L 415.4091583859534 395.8290419483558 L 416.75159280909725 396.52234830059 L 418.2431866125904 397.276987296623 L 419.5856210357343 397.94056979175093 L 420.92805545887813 398.58840143179145 L 422.270489882022 399.22120541469735 L 423.6129243051658 399.84018998191425 L 424.9553587283097 400.4464343697683 L 426.29779315145356 401.04106232471565 L 427.78938695494674 401.6895905930014 L 429.1318213780906 402.26352023594546 L 430.4742558012344 402.8291603696432 L 431.81669022437825 403.3877061104438 L 433.1591246475221 403.93992059777423 L 434.501559070666 404.4870654420432 L 435.8439934938099 405.0297726334053 L 437.33558729730305 405.6283179820075 L 438.67802172044685 406.16259053630927 L 440.0204561435907 406.6923700799621 L 441.36289056673456 407.2173472843395 L 442.7053249898784 407.73740408319975 L 444.04775941302233 408.2521238888912 L 445.3901938361661 408.7612815471655 L 446.88178763965925 409.320248895359 L 448.22422206280316 409.81702977730106 L 449.566656485947 410.30743937179415 L 450.9090909090909 410.7914435358248" stroke-linejoin="bevel" stroke-miterlimit="10" stroke-width="3"/></g></g></g><g clip-path="url(#hCTKGdOneEBB)"><g><g/><g><path fill="#ffffff" stroke="#e5e5e5" paint-order="fill stroke markers" d=" M 357.20000076293945 43 L 460 43 L 460 106 L 357.20000076293945 106 L 357.20000076293945 43 Z" fill-opacity="0.95" stroke-linejoin="bevel" stroke-miterlimit="10" stroke-opacity="0.5"/><text fill="#444444" stroke="none" font-family="helvetica" font-size="10pt" font-style="normal" font-weight="normal" text-decoration="normal" x="392.20000076293945" y="63" text-anchor="start" dominant-baseline="central">Observed</text><path fill="blue" stroke="blue" paint-order="fill stroke markers" d=" M 381.20000076293945 63 A 4 4 0 1 1 381.19999876293963 62.99600000066666" fill-opacity="0.3" stroke-linejoin="bevel" stroke-miterlimit="10"/><text fill="#444444" stroke="none" font-family="helvetica" font-size="10pt" font-style="normal" font-weight="normal" text-decoration="normal" x="392.20000076293945" y="86" text-anchor="start" dominant-baseline="central">Predicted</text><g><path fill="none" stroke="red" paint-order="fill stroke markers" d=" M 367.20000076293945 86 L 387.20000076293945 86" stroke-linejoin="bevel" stroke-miterlimit="10" stroke-width="3"/></g></g></g></g><g><g fill="#444444"><path fill="" stroke="none" d=""/><g transform="translate(260,5)"><path fill="none" stroke="none"/><text fill="" stroke="none" font-family="helvetica" font-size="12pt" font-style="normal" font-weight="bold" text-decoration="normal" x="0" y="0" text-anchor="middle" dominant-baseline="text-before-edge">Model fit for SASDBZ9</text></g></g></g><g/><g><g fill="#444444"><path fill="none" stroke="black" paint-order="fill stroke markers" d=" M 50 439 L 470 439" stroke-linejoin="bevel" stroke-miterlimit="10"/><path fill="none" stroke="black" paint-order="fill stroke markers" d=" M 120 445 L 120 437" stroke-linejoin="bevel" stroke-miterlimit="10"/><path fill="none" stroke="black" paint-order="fill stroke markers" d=" M 194 445 L 194 437" stroke-linejoin="bevel" stroke-miterlimit="10"/><path fill="none" stroke="black" paint-order="fill stroke markers" d=" M 269 445 L 269 437" stroke-linejoin="bevel" stroke-miterlimit="10"/><path fill="none" stroke="black" paint-order="fill stroke markers" d=" M 344 445 L 344 437" stroke-linejoin="bevel" stroke-miterlimit="10"/><path fill="none" stroke="black" paint-order="fill stroke markers" d=" M 418 445 L 418 437" stroke-linejoin="bevel" stroke-miterlimit="10"/><path fill="none" stroke="black" paint-order="fill stroke markers" d=" M 105 443 L 105 439" stroke-linejoin="bevel" stroke-miterlimit="10"/><path fill="none" stroke="black" paint-order="fill stroke markers" d=" M 90 443 L 90 439" stroke-linejoin="bevel" stroke-miterlimit="10"/><path fill="none" stroke="black" paint-order="fill stroke markers" d=" M 75 443 L 75 439" stroke-linejoin="bevel" stroke-miterlimit="10"/><path fill="none" stroke="black" paint-order="fill stroke markers" d=" M 60 443 L 60 439" stroke-linejoin="bevel" stroke-miterlimit="10"/><path fill="none" stroke="black" paint-order="fill stroke markers" d=" M 120 443 L 120 439" stroke-linejoin="bevel" stroke-miterlimit="10"/><path fill="none" stroke="black" paint-order="fill stroke markers" d=" M 135 443 L 135 439" stroke-linejoin="bevel" stroke-miterlimit="10"/><path fill="none" stroke="black" paint-order="fill stroke markers" d=" M 150 443 L 150 439" stroke-linejoin="bevel" stroke-miterlimit="10"/><path fill="none" stroke="black" paint-order="fill stroke markers" d=" M 165 443 L 165 439" stroke-linejoin="bevel" stroke-miterlimit="10"/><path fill="none" stroke="black" paint-order="fill stroke markers" d=" M 179 443 L 179 439" stroke-linejoin="bevel" stroke-miterlimit="10"/><path fill="none" stroke="black" paint-order="fill stroke markers" d=" M 194 443 L 194 439" stroke-linejoin="bevel" stroke-miterlimit="10"/><path fill="none" stroke="black" paint-order="fill stroke markers" d=" M 209 443 L 209 439" stroke-linejoin="bevel" stroke-miterlimit="10"/><path fill="none" stroke="black" paint-order="fill stroke markers" d=" M 224 443 L 224 439" stroke-linejoin="bevel" stroke-miterlimit="10"/><path fill="none" stroke="black" paint-order="fill stroke markers" d=" M 239 443 L 239 439" stroke-linejoin="bevel" stroke-miterlimit="10"/><path fill="none" stroke="black" paint-order="fill stroke markers" d=" M 254 443 L 254 439" stroke-linejoin="bevel" stroke-miterlimit="10"/><path fill="none" stroke="black" paint-order="fill stroke markers" d=" M 269 443 L 269 439" stroke-linejoin="bevel" stroke-miterlimit="10"/><path fill="none" stroke="black" paint-order="fill stroke markers" d=" M 284 443 L 284 439" stroke-linejoin="bevel" stroke-miterlimit="10"/><path fill="none" stroke="black" paint-order="fill stroke markers" d=" M 299 443 L 299 439" stroke-linejoin="bevel" stroke-miterlimit="10"/><path fill="none" stroke="black" paint-order="fill stroke markers" d=" M 314 443 L 314 439" stroke-linejoin="bevel" stroke-miterlimit="10"/><path fill="none" stroke="black" paint-order="fill stroke markers" d=" M 329 443 L 329 439" stroke-linejoin="bevel" stroke-miterlimit="10"/><path fill="none" stroke="black" paint-order="fill stroke markers" d=" M 344 443 L 344 439" stroke-linejoin="bevel" stroke-miterlimit="10"/><path fill="none" stroke="black" paint-order="fill stroke markers" d=" M 358 443 L 358 439" stroke-linejoin="bevel" stroke-miterlimit="10"/><path fill="none" stroke="black" paint-order="fill stroke markers" d=" M 373 443 L 373 439" stroke-linejoin="bevel" stroke-miterlimit="10"/><path fill="none" stroke="black" paint-order="fill stroke markers" d=" M 388 443 L 388 439" stroke-linejoin="bevel" stroke-miterlimit="10"/><path fill="none" stroke="black" paint-order="fill stroke markers" d=" M 403 443 L 403 439" stroke-linejoin="bevel" stroke-miterlimit="10"/><path fill="none" stroke="black" paint-order="fill stroke markers" d=" M 418 443 L 418 439" stroke-linejoin="bevel" stroke-miterlimit="10"/><path fill="none" stroke="black" paint-order="fill stroke markers" d=" M 433 443 L 433 439" stroke-linejoin="bevel" stroke-miterlimit="10"/><path fill="none" stroke="black" paint-order="fill stroke markers" d=" M 448 443 L 448 439" stroke-linejoin="bevel" stroke-miterlimit="10"/><path fill="" stroke="black" paint-order="fill stroke markers" d=" M 463 443 L 463 439" stroke-linejoin="bevel" stroke-miterlimit="10"/><g transform="translate(120,450) rotate(0,0,0)"><text fill="" stroke="none" font-family="helvetica" font-size="14pt" font-style="normal" font-weight="normal" text-decoration="normal" x="0" y="0" text-anchor="middle" dominant-baseline="hanging">0.05</text><g transform="rotate(0,0,0) translate(-120,-450) translate(194,450) rotate(0,0,0)"><text fill="" stroke="none" font-family="helvetica" font-size="14pt" font-style="normal" font-weight="normal" text-decoration="normal" x="0" y="0" text-anchor="middle" dominant-baseline="hanging">0.1</text><g transform="rotate(0,0,0) translate(-194,-450) translate(269,450) rotate(0,0,0)"><text fill="" stroke="none" font-family="helvetica" font-size="14pt" font-style="normal" font-weight="normal" text-decoration="normal" x="0" y="0" text-anchor="middle" dominant-baseline="hanging">0.15</text><g transform="rotate(0,0,0) translate(-269,-450) translate(344,450) rotate(0,0,0)"><text fill="" stroke="none" font-family="helvetica" font-size="14pt" font-style="normal" font-weight="normal" text-decoration="normal" x="0" y="0" text-anchor="middle" dominant-baseline="hanging">0.2</text><g transform="rotate(0,0,0) translate(-344,-450) translate(418,450) rotate(0,0,0)"><text fill="" stroke="none" font-family="helvetica" font-size="14pt" font-style="normal" font-weight="normal" text-decoration="normal" x="0" y="0" text-anchor="middle" dominant-baseline="hanging">0.25</text><g transform="rotate(0,0,0) translate(-418,-450) translate(260,477) rotate(0,0,0)"><text fill="" stroke="none" font-family="helvetica" font-size="14pt" font-style="italic" font-weight="normal" text-decoration="normal" x="0" y="0" text-anchor="middle" dominant-baseline="hanging">q []</text><g transform="rotate(0,0,0) translate(-260,-477)"/></g></g></g></g></g></g></g></g><g><g fill="#444444"><path fill="none" stroke="black" paint-order="fill stroke markers" d=" M 50 439 L 50 33" stroke-linejoin="bevel" stroke-miterlimit="10"/><path fill="none" stroke="black" paint-order="fill stroke markers" d=" M 44 415 L 52 415" stroke-linejoin="bevel" stroke-miterlimit="10"/><path fill="none" stroke="black" paint-order="fill stroke markers" d=" M 44 335 L 52 335" stroke-linejoin="bevel" stroke-miterlimit="10"/><path fill="none" stroke="black" paint-order="fill stroke markers" d=" M 44 255 L 52 255" stroke-linejoin="bevel" stroke-miterlimit="10"/><path fill="none" stroke="black" paint-order="fill stroke markers" d=" M 44 175 L 52 175" stroke-linejoin="bevel" stroke-miterlimit="10"/><path fill="none" stroke="black" paint-order="fill stroke markers" d=" M 44 95 L 52 95" stroke-linejoin="bevel" stroke-miterlimit="10"/><path fill="none" stroke="black" paint-order="fill stroke markers" d=" M 46 431 L 50 431" stroke-linejoin="bevel" stroke-miterlimit="10"/><path fill="none" stroke="black" paint-order="fill stroke markers" d=" M 46 415 L 50 415" stroke-linejoin="bevel" stroke-miterlimit="10"/><path fill="none" stroke="black" paint-order="fill stroke markers" d=" M 46 399 L 50 399" stroke-linejoin="bevel" stroke-miterlimit="10"/><path fill="none" stroke="black" paint-order="fill stroke markers" d=" M 46 383 L 50 383" stroke-linejoin="bevel" stroke-miterlimit="10"/><path fill="none" stroke="black" paint-order="fill stroke markers" d=" M 46 367 L 50 367" stroke-linejoin="bevel" stroke-miterlimit="10"/><path fill="none" stroke="black" paint-order="fill stroke markers" d=" M 46 351 L 50 351" stroke-linejoin="bevel" stroke-miterlimit="10"/><path fill="none" stroke="black" paint-order="fill stroke markers" d=" M 46 335 L 50 335" stroke-linejoin="bevel" stroke-miterlimit="10"/><path fill="none" stroke="black" paint-order="fill stroke markers" d=" M 46 319 L 50 319" stroke-linejoin="bevel" stroke-miterlimit="10"/><path fill="none" stroke="black" paint-order="fill stroke markers" d=" M 46 303 L 50 303" stroke-linejoin="bevel" stroke-miterlimit="10"/><path fill="none" stroke="black" paint-order="fill stroke markers" d=" M 46 287 L 50 287" stroke-linejoin="bevel" stroke-miterlimit="10"/><path fill="none" stroke="black" paint-order="fill stroke markers" d=" M 46 271 L 50 271" stroke-linejoin="bevel" stroke-miterlimit="10"/><path fill="none" stroke="black" paint-order="fill stroke markers" d=" M 46 255 L 50 255" stroke-linejoin="bevel" stroke-miterlimit="10"/><path fill="none" stroke="black" paint-order="fill stroke markers" d=" M 46 239 L 50 239" stroke-linejoin="bevel" stroke-miterlimit="10"/><path fill="none" stroke="black" paint-order="fill stroke markers" d=" M 46 223 L 50 223" stroke-linejoin="bevel" stroke-miterlimit="10"/><path fill="none" stroke="black" paint-order="fill stroke markers" d=" M 46 207 L 50 207" stroke-linejoin="bevel" stroke-miterlimit="10"/><path fill="none" stroke="black" paint-order="fill stroke markers" d=" M 46 191 L 50 191" stroke-linejoin="bevel" stroke-miterlimit="10"/><path fill="none" stroke="black" paint-order="fill stroke markers" d=" M 46 175 L 50 175" stroke-linejoin="bevel" stroke-miterlimit="10"/><path fill="none" stroke="black" paint-order="fill stroke markers" d=" M 46 159 L 50 159" stroke-linejoin="bevel" stroke-miterlimit="10"/><path fill="none" stroke="black" paint-order="fill stroke markers" d=" M 46 143 L 50 143" stroke-linejoin="bevel" stroke-miterlimit="10"/><path fill="none" stroke="black" paint-order="fill stroke markers" d=" M 46 127 L 50 127" stroke-linejoin="bevel" stroke-miterlimit="10"/><path fill="none" stroke="black" paint-order="fill stroke markers" d=" M 46 111 L 50 111" stroke-linejoin="bevel" stroke-miterlimit="10"/><path fill="none" stroke="black" paint-order="fill stroke markers" d=" M 46 95 L 50 95" stroke-linejoin="bevel" stroke-miterlimit="10"/><path fill="none" stroke="black" paint-order="fill stroke markers" d=" M 46 79 L 50 79" stroke-linejoin="bevel" stroke-miterlimit="10"/><path fill="none" stroke="black" paint-order="fill stroke markers" d=" M 46 63 L 50 63" stroke-linejoin="bevel" stroke-miterlimit="10"/><path fill="" stroke="black" paint-order="fill stroke markers" d=" M 46 47 L 50 47" stroke-linejoin="bevel" stroke-miterlimit="10"/><g transform="translate(39,415) rotate(0,0,0)"><text fill="" stroke="none" font-family="helvetica" font-size="14pt" font-style="normal" font-weight="normal" text-decoration="normal" x="0" y="0" text-anchor="end" dominant-baseline="central">2</text><g transform="rotate(0,0,0) translate(-39,-415) translate(39,335) rotate(0,0,0)"><text fill="" stroke="none" font-family="helvetica" font-size="14pt" font-style="normal" font-weight="normal" text-decoration="normal" x="0" y="0" text-anchor="end" dominant-baseline="central">3</text><g transform="rotate(0,0,0) translate(-39,-335) translate(39,255) rotate(0,0,0)"><text fill="" stroke="none" font-family="helvetica" font-size="14pt" font-style="normal" font-weight="normal" text-decoration="normal" x="0" y="0" text-anchor="end" dominant-baseline="central">4</text><g transform="rotate(0,0,0) translate(-39,-255) translate(39,175) rotate(0,0,0)"><text fill="" stroke="none" font-family="helvetica" font-size="14pt" font-style="normal" font-weight="normal" text-decoration="normal" x="0" y="0" text-anchor="end" dominant-baseline="central">5</text><g transform="rotate(0,0,0) translate(-39,-175) translate(39,95) rotate(0,0,0)"><text fill="" stroke="none" font-family="helvetica" font-size="14pt" font-style="normal" font-weight="normal" text-decoration="normal" x="0" y="0" text-anchor="end" dominant-baseline="central">6</text><g transform="rotate(0,0,0) translate(-39,-95) translate(23,236) rotate(-90,0,0)"><text fill="" stroke="none" font-family="helvetica" font-size="14pt" font-style="italic" font-weight="normal" text-decoration="normal" x="0" y="0" text-anchor="middle" dominant-baseline="alphabetic">Log I(q)</text><g transform="rotate(90,0,0) translate(-23,-236)"/></g></g></g></g></g></g></g></g><g clip-path="url(#LnaURDLaRhhs)"><g/></g></g></svg>