<svg version="1.1" xmlns="http://www.w3.org/2000/svg" xmlns:xlink="http://www.w3.org/1999/xlink" width="450" height="450" style="width: 450px; height: 450px;"><defs><clipPath id="hPWeINpkAgvU"><path fill="none" stroke="none" d=" M 82 37 L 420 37 L 420 382 L 82 382 L 82 37 Z"/></clipPath><clipPath id="dxIBOmHrmvuJ"><path fill="none" stroke="none" d=" M 82 37 L 420 37 L 420 382 L 82 382 L 82 37 Z"/></clipPath><clipPath id="yXXmekzWzSeo"><path fill="none" stroke="none" d=" M 82 37 L 420 37 L 420 382 L 82 382 L 82 37 Z"/></clipPath><clipPath id="eMJewsdZaOFA"><path fill="none" stroke="none" d=" M 82 37 L 420 37 L 420 382 L 82 382 L 82 37 Z"/></clipPath><clipPath id="luaAUTsXwDTt"><path fill="none" stroke="none" d=" M 82 37 L 420 37 L 420 382 L 82 382 L 82 37 Z"/></clipPath><clipPath id="JXteDKNtUhwt"><path fill="none" stroke="none" d=" M 82 37 L 420 37 L 420 382 L 82 382 L 82 37 Z"/></clipPath></defs><g><g transform="scale(1,1) translate(0.5,0.5)"><rect fill="#FFFFFF" stroke="none" x="0" y="0" width="450" height="450"/><rect fill="#ffffff" stroke="none" x="0" y="0" width="450" height="450"/><rect fill="#FFFFFF" stroke="none" x="82" y="37" width="338" height="345"/><rect fill="#ffffff" stroke="none" x="82" y="37" width="338" height="345"/><g><rect fill="none" stroke="#e5e5e5" x="82" y="37" width="338" height="345" stroke-linejoin="bevel" stroke-miterlimit="10"/></g><g clip-path="url(#hPWeINpkAgvU)"><g><g><path fill="none" stroke="#e5e5e5" paint-order="fill stroke markers" d=" M 165 382 L 165 37" stroke-linejoin="bevel" stroke-miterlimit="10"/><path fill="none" stroke="#e5e5e5" paint-order="fill stroke markers" d=" M 254 382 L 254 37" stroke-linejoin="bevel" stroke-miterlimit="10"/><path fill="none" stroke="#e5e5e5" paint-order="fill stroke markers" d=" M 343 382 L 343 37" stroke-linejoin="bevel" stroke-miterlimit="10"/></g></g></g><g clip-path="url(#dxIBOmHrmvuJ)"><g><g><path fill="none" stroke="#e5e5e5" paint-order="fill stroke markers" d=" M 82 343 L 420 343" stroke-linejoin="bevel" stroke-miterlimit="10"/><path fill="none" stroke="#e5e5e5" paint-order="fill stroke markers" d=" M 82 280 L 420 280" stroke-linejoin="bevel" stroke-miterlimit="10"/><path fill="none" stroke="#e5e5e5" paint-order="fill stroke markers" d=" M 82 217 L 420 217" stroke-linejoin="bevel" stroke-miterlimit="10"/><path fill="none" stroke="#e5e5e5" paint-order="fill stroke markers" d=" M 82 154 L 420 154" stroke-linejoin="bevel" stroke-miterlimit="10"/><path fill="none" stroke="#e5e5e5" paint-order="fill stroke markers" d=" M 82 90 L 420 90" stroke-linejoin="bevel" stroke-miterlimit="10"/></g></g></g><g clip-path="url(#yXXmekzWzSeo)"><g><g><path fill="none" stroke="none"/><path fill="blue" stroke="blue" paint-order="fill stroke markers" d=" M 99.86363636363637 55.528644375754766 A 2.5 2.5 0 1 1 99.86363511363648 55.52614437617143" fill-opacity="0.3" stroke-linejoin="bevel" stroke-miterlimit="10"/><path fill="blue" stroke="blue" paint-order="fill stroke markers" d=" M 102.14028204725216 55.526702098533974 A 2.5 2.5 0 1 1 102.14028079725226 55.52420209895064" fill-opacity="0.3" stroke-linejoin="bevel" stroke-miterlimit="10"/><path fill="blue" stroke="blue" paint-order="fill stroke markers" d=" M 104.53367705696742 56.322553117067855 A 2.5 2.5 0 1 1 104.53367580696752 56.32005311748452" fill-opacity="0.3" stroke-linejoin="bevel" stroke-miterlimit="10"/><path fill="blue" stroke="blue" paint-order="fill stroke markers" d=" M 107.04382076092648 62.18528315048604 A 2.5 2.5 0 1 1 107.04381951092658 62.18278315090271" fill-opacity="0.3" stroke-linejoin="bevel" stroke-miterlimit="10"/><path fill="blue" stroke="blue" paint-order="fill stroke markers" d=" M 109.67071338333744 58.22007959813686 A 2.5 2.5 0 1 1 109.67071213333755 58.21757959855353" fill-opacity="0.3" stroke-linejoin="bevel" stroke-miterlimit="10"/><path fill="blue" stroke="blue" paint-order="fill stroke markers" d=" M 112.41435376240122 62.93922655408028 A 2.5 2.5 0 1 1 112.41435251240132 62.93672655449694" fill-opacity="0.3" stroke-linejoin="bevel" stroke-miterlimit="10"/><path fill="blue" stroke="blue" paint-order="fill stroke markers" d=" M 115.27474261150519 69.42216842723985 A 2.5 2.5 0 1 1 115.27474136150529 69.41966842765652" fill-opacity="0.3" stroke-linejoin="bevel" stroke-miterlimit="10"/><path fill="blue" stroke="blue" paint-order="fill stroke markers" d=" M 118.25187868732118 72.90960852380897 A 2.5 2.5 0 1 1 118.25187743732128 72.90710852422563" fill-opacity="0.3" stroke-linejoin="bevel" stroke-miterlimit="10"/><path fill="blue" stroke="blue" paint-order="fill stroke markers" d=" M 121.3457616841145 77.54056092601513 A 2.5 2.5 0 1 1 121.34576043411461 77.5380609264318" fill-opacity="0.3" stroke-linejoin="bevel" stroke-miterlimit="10"/><path fill="blue" stroke="blue" paint-order="fill stroke markers" d=" M 124.55639186685886 78.70086541562216 A 2.5 2.5 0 1 1 124.55639061685896 78.69836541603883" fill-opacity="0.3" stroke-linejoin="bevel" stroke-miterlimit="10"/><path fill="blue" stroke="blue" paint-order="fill stroke markers" d=" M 127.88376839987643 83.13757714211783 A 2.5 2.5 0 1 1 127.88376714987653 83.1350771425345" fill-opacity="0.3" stroke-linejoin="bevel" stroke-miterlimit="10"/><path fill="blue" stroke="blue" paint-order="fill stroke markers" d=" M 131.32789097743327 86.72536816500883 A 2.5 2.5 0 1 1 131.3278897274334 86.7228681654255" fill-opacity="0.3" stroke-linejoin="bevel" stroke-miterlimit="10"/><path fill="blue" stroke="blue" paint-order="fill stroke markers" d=" M 134.88875929379566 89.82406887502339 A 2.5 2.5 0 1 1 134.88875804379578 89.82156887544005" fill-opacity="0.3" stroke-linejoin="bevel" stroke-miterlimit="10"/><path fill="blue" stroke="blue" paint-order="fill stroke markers" d=" M 138.56637304323016 90.92453997341192 A 2.5 2.5 0 1 1 138.56637179323027 90.92203997382859" fill-opacity="0.3" stroke-linejoin="bevel" stroke-miterlimit="10"/><path fill="blue" stroke="blue" paint-order="fill stroke markers" d=" M 142.3607312473843 95.8170361622665 A 2.5 2.5 0 1 1 142.36072999738442 95.81453616268317" fill-opacity="0.3" stroke-linejoin="bevel" stroke-miterlimit="10"/><path fill="blue" stroke="blue" paint-order="fill stroke markers" d=" M 146.27183423238017 101.96727076122818 A 2.5 2.5 0 1 1 146.2718329823803 101.96477076164484" fill-opacity="0.3" stroke-linejoin="bevel" stroke-miterlimit="10"/><path fill="blue" stroke="blue" paint-order="fill stroke markers" d=" M 150.29968026571794 103.0768788811771 A 2.5 2.5 0 1 1 150.29967901571806 103.07437888159376" fill-opacity="0.3" stroke-linejoin="bevel" stroke-miterlimit="10"/><path fill="blue" stroke="blue" paint-order="fill stroke markers" d=" M 154.44427038690398 109.99895605152733 A 2.5 2.5 0 1 1 154.4442691369041 109.996456051944" fill-opacity="0.3" stroke-linejoin="bevel" stroke-miterlimit="10"/><path fill="blue" stroke="blue" paint-order="fill stroke markers" d=" M 158.70560278191067 112.35707605316804 A 2.5 2.5 0 1 1 158.7056015319108 112.35457605358471" fill-opacity="0.3" stroke-linejoin="bevel" stroke-miterlimit="10"/><path fill="blue" stroke="blue" paint-order="fill stroke markers" d=" M 163.08367779724375 113.96247754417527 A 2.5 2.5 0 1 1 163.08367654724387 113.95997754459194" fill-opacity="0.3" stroke-linejoin="bevel" stroke-miterlimit="10"/><path fill="blue" stroke="blue" paint-order="fill stroke markers" d=" M 167.57849506602565 119.51538482962428 A 2.5 2.5 0 1 1 167.57849381602577 119.51288483004095" fill-opacity="0.3" stroke-linejoin="bevel" stroke-miterlimit="10"/><path fill="blue" stroke="blue" paint-order="fill stroke markers" d=" M 172.19005259079137 125.06443721747075 A 2.5 2.5 0 1 1 172.19005134079148 125.06193721788742" fill-opacity="0.3" stroke-linejoin="bevel" stroke-miterlimit="10"/><path fill="blue" stroke="blue" paint-order="fill stroke markers" d=" M 176.918351553724 130.5086729964629 A 2.5 2.5 0 1 1 176.9183503037241 130.50617299687957" fill-opacity="0.3" stroke-linejoin="bevel" stroke-miterlimit="10"/><path fill="blue" stroke="blue" paint-order="fill stroke markers" d=" M 181.76339073188944 134.80201219666685 A 2.5 2.5 0 1 1 181.76338948188956 134.79951219708352" fill-opacity="0.3" stroke-linejoin="bevel" stroke-miterlimit="10"/><path fill="blue" stroke="blue" paint-order="fill stroke markers" d=" M 186.72516969726587 139.47479192267792 A 2.5 2.5 0 1 1 186.725168447266 139.4722919230946" fill-opacity="0.3" stroke-linejoin="bevel" stroke-miterlimit="10"/><path fill="blue" stroke="blue" paint-order="fill stroke markers" d=" M 191.80368712501019 142.32113093211183 A 2.5 2.5 0 1 1 191.8036858750103 142.3186309325285" fill-opacity="0.3" stroke-linejoin="bevel" stroke-miterlimit="10"/><path fill="blue" stroke="blue" paint-order="fill stroke markers" d=" M 196.99894252595604 152.2267285840668 A 2.5 2.5 0 1 1 196.99894127595616 152.22422858448346" fill-opacity="0.3" stroke-linejoin="bevel" stroke-miterlimit="10"/><path fill="blue" stroke="blue" paint-order="fill stroke markers" d=" M 202.31093634852334 155.59703225799217 A 2.5 2.5 0 1 1 202.31093509852346 155.59453225840883" fill-opacity="0.3" stroke-linejoin="bevel" stroke-miterlimit="10"/><path fill="blue" stroke="blue" paint-order="fill stroke markers" d=" M 207.73966720672504 161.18389744393994 A 2.5 2.5 0 1 1 207.73966595672516 161.1813974443566" fill-opacity="0.3" stroke-linejoin="bevel" stroke-miterlimit="10"/><path fill="blue" stroke="blue" paint-order="fill stroke markers" d=" M 213.2851346113968 167.79018928047765 A 2.5 2.5 0 1 1 213.28513336139693 167.7876892808943" fill-opacity="0.3" stroke-linejoin="bevel" stroke-miterlimit="10"/><path fill="blue" stroke="blue" paint-order="fill stroke markers" d=" M 218.94733807337474 174.41346486417137 A 2.5 2.5 0 1 1 218.94733682337485 174.41096486458804" fill-opacity="0.3" stroke-linejoin="bevel" stroke-miterlimit="10"/><path fill="blue" stroke="blue" paint-order="fill stroke markers" d=" M 224.72627608438293 181.23606980913712 A 2.5 2.5 0 1 1 224.72627483438305 181.23356980955379" fill-opacity="0.3" stroke-linejoin="bevel" stroke-miterlimit="10"/><path fill="blue" stroke="blue" paint-order="fill stroke markers" d=" M 230.62194809411372 184.86783618546644 A 2.5 2.5 0 1 1 230.62194684411384 184.8653361858831" fill-opacity="0.3" stroke-linejoin="bevel" stroke-miterlimit="10"/><path fill="blue" stroke="blue" paint-order="fill stroke markers" d=" M 236.63435461213675 190.0136390038781 A 2.5 2.5 0 1 1 236.63435336213686 190.01113900429476" fill-opacity="0.3" stroke-linejoin="bevel" stroke-miterlimit="10"/><path fill="blue" stroke="blue" paint-order="fill stroke markers" d=" M 242.76349406903313 196.4423416117113 A 2.5 2.5 0 1 1 242.76349281903325 196.43984161212796" fill-opacity="0.3" stroke-linejoin="bevel" stroke-miterlimit="10"/><path fill="blue" stroke="blue" paint-order="fill stroke markers" d=" M 249.00936591449778 204.77070609148132 A 2.5 2.5 0 1 1 249.0093646644979 204.76820609189798" fill-opacity="0.3" stroke-linejoin="bevel" stroke-miterlimit="10"/><path fill="blue" stroke="blue" paint-order="fill stroke markers" d=" M 255.3719684772052 211.78490941555378 A 2.5 2.5 0 1 1 255.37196722720532 211.78240941597045" fill-opacity="0.3" stroke-linejoin="bevel" stroke-miterlimit="10"/><path fill="blue" stroke="blue" paint-order="fill stroke markers" d=" M 261.85130228711023 216.20212283814055 A 2.5 2.5 0 1 1 261.8513010371103 216.19962283855722" fill-opacity="0.3" stroke-linejoin="bevel" stroke-miterlimit="10"/><path fill="blue" stroke="blue" paint-order="fill stroke markers" d=" M 268.4473667939102 224.7560376448547 A 2.5 2.5 0 1 1 268.4473655439103 224.75353764527136" fill-opacity="0.3" stroke-linejoin="bevel" stroke-miterlimit="10"/><path fill="blue" stroke="blue" paint-order="fill stroke markers" d=" M 275.160159082972 230.94624783684878 A 2.5 2.5 0 1 1 275.16015783297206 230.94374783726545" fill-opacity="0.3" stroke-linejoin="bevel" stroke-miterlimit="10"/><path fill="blue" stroke="blue" paint-order="fill stroke markers" d=" M 281.9896808868009 238.39315079650964 A 2.5 2.5 0 1 1 281.989679636801 238.3906507969263" fill-opacity="0.3" stroke-linejoin="bevel" stroke-miterlimit="10"/><path fill="blue" stroke="blue" paint-order="fill stroke markers" d=" M 288.9359292092396 240.91961689707182 A 2.5 2.5 0 1 1 288.9359279592397 240.91711689748848" fill-opacity="0.3" stroke-linejoin="bevel" stroke-miterlimit="10"/><path fill="blue" stroke="blue" paint-order="fill stroke markers" d=" M 295.998904621011 249.8261912808498 A 2.5 2.5 0 1 1 295.99890337101107 249.82369128126646" fill-opacity="0.3" stroke-linejoin="bevel" stroke-miterlimit="10"/><path fill="blue" stroke="blue" paint-order="fill stroke markers" d=" M 303.17860651067355 260.5167209862118 A 2.5 2.5 0 1 1 303.17860526067363 260.51422098662846" fill-opacity="0.3" stroke-linejoin="bevel" stroke-miterlimit="10"/><path fill="blue" stroke="blue" paint-order="fill stroke markers" d=" M 310.4750316986408 267.1699338019506 A 2.5 2.5 0 1 1 310.4750304486409 267.16743380236727" fill-opacity="0.3" stroke-linejoin="bevel" stroke-miterlimit="10"/><path fill="blue" stroke="blue" paint-order="fill stroke markers" d=" M 317.8881833645477 274.65462091781194 A 2.5 2.5 0 1 1 317.88818211454776 274.6521209182286" fill-opacity="0.3" stroke-linejoin="bevel" stroke-miterlimit="10"/><path fill="blue" stroke="blue" paint-order="fill stroke markers" d=" M 325.4180569835935 281.45880358041154 A 2.5 2.5 0 1 1 325.4180557335936 281.4563035808282" fill-opacity="0.3" stroke-linejoin="bevel" stroke-miterlimit="10"/><path fill="blue" stroke="blue" paint-order="fill stroke markers" d=" M 333.06465182205363 291.39496011090637 A 2.5 2.5 0 1 1 333.0646505720537 291.39246011132303" fill-opacity="0.3" stroke-linejoin="bevel" stroke-miterlimit="10"/><path fill="blue" stroke="blue" paint-order="fill stroke markers" d=" M 340.8279698774005 296.46702618910047 A 2.5 2.5 0 1 1 340.8279686274006 296.46452618951713" fill-opacity="0.3" stroke-linejoin="bevel" stroke-miterlimit="10"/><path fill="blue" stroke="blue" paint-order="fill stroke markers" d=" M 348.7080077662415 307.009990607281 A 2.5 2.5 0 1 1 348.7080065162416 307.00749060769766" fill-opacity="0.3" stroke-linejoin="bevel" stroke-miterlimit="10"/><path fill="blue" stroke="blue" paint-order="fill stroke markers" d=" M 356.7047647548563 312.3785959650355 A 2.5 2.5 0 1 1 356.7047635048564 312.3760959654522" fill-opacity="0.3" stroke-linejoin="bevel" stroke-miterlimit="10"/><path fill="blue" stroke="blue" paint-order="fill stroke markers" d=" M 364.8182415362673 322.2361922039063 A 2.5 2.5 0 1 1 364.8182402862674 322.23369220432295" fill-opacity="0.3" stroke-linejoin="bevel" stroke-miterlimit="10"/><path fill="blue" stroke="blue" paint-order="fill stroke markers" d=" M 373.04843454365613 329.59068021697806 A 2.5 2.5 0 1 1 373.0484332936562 329.5881802173947" fill-opacity="0.3" stroke-linejoin="bevel" stroke-miterlimit="10"/><path fill="blue" stroke="blue" paint-order="fill stroke markers" d=" M 381.3953444496672 340.3166128884052 A 2.5 2.5 0 1 1 381.3953431996673 340.31411288882185" fill-opacity="0.3" stroke-linejoin="bevel" stroke-miterlimit="10"/><path fill="blue" stroke="blue" paint-order="fill stroke markers" d=" M 389.85897052058624 347.36147257948573 A 2.5 2.5 0 1 1 389.85896927058633 347.3589725799024" fill-opacity="0.3" stroke-linejoin="bevel" stroke-miterlimit="10"/><path fill="blue" stroke="blue" paint-order="fill stroke markers" d=" M 398.4393105144363 355.98579309579816 A 2.5 2.5 0 1 1 398.43930926443636 355.9832930962148" fill-opacity="0.3" stroke-linejoin="bevel" stroke-miterlimit="10"/><path fill="blue" stroke="blue" paint-order="fill stroke markers" d=" M 407.1363636363636 366.31818181818176 A 2.5 2.5 0 1 1 407.1363623863637 366.3156818185984" fill-opacity="0.3" stroke-linejoin="bevel" stroke-miterlimit="10"/></g></g></g><g clip-path="url(#eMJewsdZaOFA)"><g><g><path fill="none" stroke="none"/><path fill="none" stroke="red" paint-order="fill stroke markers" d=" M 97.36363636363637 52.68181818181813 L 99.64028204725216 54.994216553569345 L 102.03367705696742 57.42519769536614 L 104.54382076092648 59.974760965430164 L 107.17071338333744 62.64290659149037 L 109.91435376240122 65.42963339350297 L 112.77474261150519 68.33494209605794 L 115.75187868732118 71.35883143630224 L 118.8457616841145 74.50130110369957 L 122.05639186685886 77.76235136738478 L 125.38376839987643 81.1419813785568 L 128.82789097743327 84.64019082668028 L 132.38875929379566 88.25697940122006 L 136.06637304323016 91.99234679164158 L 139.8607312473843 95.84629200422819 L 143.77183423238017 99.81881537022332 L 147.79968026571794 103.90991512992002 L 151.94427038690398 108.119592339149 L 156.20560278191067 112.44784515539493 L 160.58367779724375 116.89467393060511 L 165.07849506602565 121.46007829214079 L 169.69005259079137 126.14405621116828 L 174.418351553724 130.94660888843566 L 179.26339073188944 135.86773508180408 L 184.22516969726587 140.90743435652973 L 189.30368712501019 146.06570536696427 L 194.49894252595604 151.34254761625937 L 199.81093634852334 156.7379615598769 L 205.23966720672504 162.25194579006416 L 210.7851346113968 167.88449980997484 L 216.44733807337474 173.63562312276326 L 222.22627608438293 179.50531419646745 L 228.12194809411372 185.49357247213754 L 234.13435461213675 191.60039846734549 L 240.26349406903313 197.82579058802628 L 246.50936591449778 204.16974827523245 L 252.8719684772052 210.63226983139214 L 259.35130228711023 217.2133557947825 L 265.9473667939102 223.9130056064588 L 272.660159082972 230.73121630601645 L 279.4896808868009 237.66798965316798 L 286.4359292092396 244.72332260470398 L 293.498904621011 251.89721574031046 L 300.67860651067355 259.1896684389433 L 307.9750316986408 266.6006774710838 L 315.3881833645477 274.13024606630006 L 322.9180569835935 281.77836962873334 L 330.56465182205363 289.5450474131369 L 338.3279698774005 297.43028144835114 L 346.2080077662415 305.4340682978509 L 354.2047647548563 313.5564072163928 L 362.3182415362673 321.7972989078828 L 370.54843454365613 330.15673974948913 L 378.8953444496672 338.6347304244191 L 387.35897052058624 347.2312701874363 L 395.9393105144363 355.94635676135533 L 404.6363636363636 364.7799893388403" stroke-linejoin="bevel" stroke-miterlimit="10" stroke-width="3"/></g></g></g><g clip-path="url(#luaAUTsXwDTt)"><g><g/><g><path fill="#ffffff" stroke="#e5e5e5" paint-order="fill stroke markers" d=" M 301.421875 47 L 410 47 L 410 110 L 301.421875 110 L 301.421875 47 Z" fill-opacity="0.95" stroke-linejoin="bevel" stroke-miterlimit="10" stroke-opacity="0.5"/><text fill="#444444" stroke="none" font-family="helvetica" font-size="10pt" font-style="normal" font-weight="normal" text-decoration="normal" x="336.421875" y="67" text-anchor="start" dominant-baseline="central">Observed</text><path fill="blue" stroke="blue" paint-order="fill stroke markers" d=" M 325.421875 67 A 4 4 0 1 1 325.4218730000002 66.99600000066667" fill-opacity="0.3" stroke-linejoin="bevel" stroke-miterlimit="10"/><text fill="#444444" stroke="none" font-family="helvetica" font-size="10pt" font-style="normal" font-weight="normal" text-decoration="normal" x="336.421875" y="90" text-anchor="start" dominant-baseline="central">Predicted</text><g><path fill="none" stroke="red" paint-order="fill stroke markers" d=" M 311.421875 90 L 331.421875 90" stroke-linejoin="bevel" stroke-miterlimit="10" stroke-width="3"/></g></g></g></g><g><g fill="#444444"><path fill="" stroke="none" d=""/><g transform="translate(251,5)"><path fill="none" stroke="none"/><text fill="" stroke="none" font-family="helvetica" font-size="12pt" font-style="normal" font-weight="bold" text-decoration="normal" x="0" y="0" text-anchor="middle" dominant-baseline="text-before-edge">Guinier plot (R²=1.00)</text></g></g></g><g/><g><g fill="#444444"><path fill="none" stroke="black" paint-order="fill stroke markers" d=" M 82 382 L 420 382" stroke-linejoin="bevel" stroke-miterlimit="10"/><path fill="none" stroke="black" paint-order="fill stroke markers" d=" M 165 388 L 165 380" stroke-linejoin="bevel" stroke-miterlimit="10"/><path fill="none" stroke="black" paint-order="fill stroke markers" d=" M 254 388 L 254 380" stroke-linejoin="bevel" stroke-miterlimit="10"/><path fill="none" stroke="black" paint-order="fill stroke markers" d=" M 343 388 L 343 380" stroke-linejoin="bevel" stroke-miterlimit="10"/><path fill="none" stroke="black" paint-order="fill stroke markers" d=" M 147 386 L 147 382" stroke-linejoin="bevel" stroke-miterlimit="10"/><path fill="none" stroke="black" paint-order="fill stroke markers" d=" M 130 386 L 130 382" stroke-linejoin="bevel" stroke-miterlimit="10"/><path fill="none" stroke="black" paint-order="fill stroke markers" d=" M 112 386 L 112 382" stroke-linejoin="bevel" stroke-miterlimit="10"/><path fill="none" stroke="black" paint-order="fill stroke markers" d=" M 94 386 L 94 382" stroke-linejoin="bevel" stroke-miterlimit="10"/><path fill="none" stroke="black" paint-order="fill stroke markers" d=" M 165 386 L 165 382" stroke-linejoin="bevel" stroke-miterlimit="10"/><path fill="none" stroke="black" paint-order="fill stroke markers" d=" M 183 386 L 183 382" stroke-linejoin="bevel" stroke-miterlimit="10"/><path fill="none" stroke="black" paint-order="fill stroke markers" d=" M 201 386 L 201 382" stroke-linejoin="bevel" stroke-miterlimit="10"/><path fill="none" stroke="black" paint-order="fill stroke markers" d=" M 219 386 L 219 382" stroke-linejoin="bevel" stroke-miterlimit="10"/><path fill="none" stroke="black" paint-order="fill stroke markers" d=" M 236 386 L 236 382" stroke-linejoin="bevel" stroke-miterlimit="10"/><path fill="none" stroke="black" paint-order="fill stroke markers" d=" M 254 386 L 254 382" stroke-linejoin="bevel" stroke-miterlimit="10"/><path fill="none" stroke="black" paint-order="fill stroke markers" d=" M 272 386 L 272 382" stroke-linejoin="bevel" stroke-miterlimit="10"/><path fill="none" stroke="black" paint-order="fill stroke markers" d=" M 290 386 L 290 382" stroke-linejoin="bevel" stroke-miterlimit="10"/><path fill="none" stroke="black" paint-order="fill stroke markers" d=" M 308 386 L 308 382" stroke-linejoin="bevel" stroke-miterlimit="10"/><path fill="none" stroke="black" paint-order="fill stroke markers" d=" M 325 386 L 325 382" stroke-linejoin="bevel" stroke-miterlimit="10"/><path fill="none" stroke="black" paint-order="fill stroke markers" d=" M 343 386 L 343 382" stroke-linejoin="bevel" stroke-miterlimit="10"/><path fill="none" stroke="black" paint-order="fill stroke markers" d=" M 361 386 L 361 382" stroke-linejoin="bevel" stroke-miterlimit="10"/><path fill="none" stroke="black" paint-order="fill stroke markers" d=" M 379 386 L 379 382" stroke-linejoin="bevel" stroke-miterlimit="10"/><path fill="none" stroke="black" paint-order="fill stroke markers" d=" M 397 386 L 397 382" stroke-linejoin="bevel" stroke-miterlimit="10"/><path fill="" stroke="black" paint-order="fill stroke markers" d=" M 414 386 L 414 382" stroke-linejoin="bevel" stroke-miterlimit="10"/><g transform="translate(165,393) rotate(0,0,0)"><text fill="" stroke="none" font-family="helvetica" font-size="14pt" font-style="normal" font-weight="normal" text-decoration="normal" x="0" y="0" text-anchor="middle" dominant-baseline="hanging">0.05</text><g transform="rotate(0,0,0) translate(-165,-393) translate(254,393) rotate(0,0,0)"><text fill="" stroke="none" font-family="helvetica" font-size="14pt" font-style="normal" font-weight="normal" text-decoration="normal" x="0" y="0" text-anchor="middle" dominant-baseline="hanging">0.1</text><g transform="rotate(0,0,0) translate(-254,-393) translate(343,393) rotate(0,0,0)"><text fill="" stroke="none" font-family="helvetica" font-size="14pt" font-style="normal" font-weight="normal" text-decoration="normal" x="0" y="0" text-anchor="middle" dominant-baseline="hanging">0.15</text><g transform="rotate(0,0,0) translate(-343,-393) translate(251,424) rotate(0,0,0)"><text fill="" stroke="none" font-family="helvetica" font-size="14pt" font-style="italic" font-weight="normal" text-decoration="normal" x="0" y="0" text-anchor="middle" dominant-baseline="hanging">s² Å⁻²</text><g transform="rotate(0,0,0) translate(-251,-424)"/></g></g></g></g></g></g><g><g fill="#444444"><path fill="none" stroke="black" paint-order="fill stroke markers" d=" M 82 382 L 82 37" stroke-linejoin="bevel" stroke-miterlimit="10"/><path fill="none" stroke="black" paint-order="fill stroke markers" d=" M 76 343 L 84 343" stroke-linejoin="bevel" stroke-miterlimit="10"/><path fill="none" stroke="black" paint-order="fill stroke markers" d=" M 76 280 L 84 280" stroke-linejoin="bevel" stroke-miterlimit="10"/><path fill="none" stroke="black" paint-order="fill stroke markers" d=" M 76 217 L 84 217" stroke-linejoin="bevel" stroke-miterlimit="10"/><path fill="none" stroke="black" paint-order="fill stroke markers" d=" M 76 154 L 84 154" stroke-linejoin="bevel" stroke-miterlimit="10"/><path fill="none" stroke="black" paint-order="fill stroke markers" d=" M 76 90 L 84 90" stroke-linejoin="bevel" stroke-miterlimit="10"/><path fill="none" stroke="black" paint-order="fill stroke markers" d=" M 78 356 L 82 356" stroke-linejoin="bevel" stroke-miterlimit="10"/><path fill="none" stroke="black" paint-order="fill stroke markers" d=" M 78 369 L 82 369" stroke-linejoin="bevel" stroke-miterlimit="10"/><path fill="none" stroke="black" paint-order="fill stroke markers" d=" M 78 381 L 82 381" stroke-linejoin="bevel" stroke-miterlimit="10"/><path fill="none" stroke="black" paint-order="fill stroke markers" d=" M 78 343 L 82 343" stroke-linejoin="bevel" stroke-miterlimit="10"/><path fill="none" stroke="black" paint-order="fill stroke markers" d=" M 78 331 L 82 331" stroke-linejoin="bevel" stroke-miterlimit="10"/><path fill="none" stroke="black" paint-order="fill stroke markers" d=" M 78 318 L 82 318" stroke-linejoin="bevel" stroke-miterlimit="10"/><path fill="none" stroke="black" paint-order="fill stroke markers" d=" M 78 305 L 82 305" stroke-linejoin="bevel" stroke-miterlimit="10"/><path fill="none" stroke="black" paint-order="fill stroke markers" d=" M 78 293 L 82 293" stroke-linejoin="bevel" stroke-miterlimit="10"/><path fill="none" stroke="black" paint-order="fill stroke markers" d=" M 78 280 L 82 280" stroke-linejoin="bevel" stroke-miterlimit="10"/><path fill="none" stroke="black" paint-order="fill stroke markers" d=" M 78 267 L 82 267" stroke-linejoin="bevel" stroke-miterlimit="10"/><path fill="none" stroke="black" paint-order="fill stroke markers" d=" M 78 255 L 82 255" stroke-linejoin="bevel" stroke-miterlimit="10"/><path fill="none" stroke="black" paint-order="fill stroke markers" d=" M 78 242 L 82 242" stroke-linejoin="bevel" stroke-miterlimit="10"/><path fill="none" stroke="black" paint-order="fill stroke markers" d=" M 78 229 L 82 229" stroke-linejoin="bevel" stroke-miterlimit="10"/><path fill="none" stroke="black" paint-order="fill stroke markers" d=" M 78 217 L 82 217" stroke-linejoin="bevel" stroke-miterlimit="10"/><path fill="none" stroke="black" paint-order="fill stroke markers" d=" M 78 204 L 82 204" stroke-linejoin="bevel" stroke-miterlimit="10"/><path fill="none" stroke="black" paint-order="fill stroke markers" d=" M 78 191 L 82 191" stroke-linejoin="bevel" stroke-miterlimit="10"/><path fill="none" stroke="black" paint-order="fill stroke markers" d=" M 78 179 L 82 179" stroke-linejoin="bevel" stroke-miterlimit="10"/><path fill="none" stroke="black" paint-order="fill stroke markers" d=" M 78 166 L 82 166" stroke-linejoin="bevel" stroke-miterlimit="10"/><path fill="none" stroke="black" paint-order="fill stroke markers" d=" M 78 154 L 82 154" stroke-linejoin="bevel" stroke-miterlimit="10"/><path fill="none" stroke="black" paint-order="fill stroke markers" d=" M 78 141 L 82 141" stroke-linejoin="bevel" stroke-miterlimit="10"/><path fill="none" stroke="black" paint-order="fill stroke markers" d=" M 78 128 L 82 128" stroke-linejoin="bevel" stroke-miterlimit="10"/><path fill="none" stroke="black" paint-order="fill stroke markers" d=" M 78 116 L 82 116" stroke-linejoin="bevel" stroke-miterlimit="10"/><path fill="none" stroke="black" paint-order="fill stroke markers" d=" M 78 103 L 82 103" stroke-linejoin="bevel" stroke-miterlimit="10"/><path fill="none" stroke="black" paint-order="fill stroke markers" d=" M 78 90 L 82 90" stroke-linejoin="bevel" stroke-miterlimit="10"/><path fill="none" stroke="black" paint-order="fill stroke markers" d=" M 78 78 L 82 78" stroke-linejoin="bevel" stroke-miterlimit="10"/><path fill="none" stroke="black" paint-order="fill stroke markers" d=" M 78 65 L 82 65" stroke-linejoin="bevel" stroke-miterlimit="10"/><path fill="none" stroke="black" paint-order="fill stroke markers" d=" M 78 52 L 82 52" stroke-linejoin="bevel" stroke-miterlimit="10"/><path fill="" stroke="black" paint-order="fill stroke markers" d=" M 78 40 L 82 40" stroke-linejoin="bevel" stroke-miterlimit="10"/><g transform="translate(71,343) rotate(0,0,0)"><text fill="" stroke="none" font-family="helvetica" font-size="14pt" font-style="normal" font-weight="normal" text-decoration="normal" x="0" y="0" text-anchor="end" dominant-baseline="central">-1.5</text><g transform="rotate(0,0,0) translate(-71,-343) translate(71,280) rotate(0,0,0)"><text fill="" stroke="none" font-family="helvetica" font-size="14pt" font-style="normal" font-weight="normal" text-decoration="normal" x="0" y="0" text-anchor="end" dominant-baseline="central">-1.4</text><g transform="rotate(0,0,0) translate(-71,-280) translate(71,217) rotate(0,0,0)"><text fill="" stroke="none" font-family="helvetica" font-size="14pt" font-style="normal" font-weight="normal" text-decoration="normal" x="0" y="0" text-anchor="end" dominant-baseline="central">-1.3</text><g transform="rotate(0,0,0) translate(-71,-217) translate(71,154) rotate(0,0,0)"><text fill="" stroke="none" font-family="helvetica" font-size="14pt" font-style="normal" font-weight="normal" text-decoration="normal" x="0" y="0" text-anchor="end" dominant-baseline="central">-1.2</text><g transform="rotate(0,0,0) translate(-71,-154) translate(71,90) rotate(0,0,0)"><text fill="" stroke="none" font-family="helvetica" font-size="14pt" font-style="normal" font-weight="normal" text-decoration="normal" x="0" y="0" text-anchor="end" dominant-baseline="central">-1.1</text><g transform="rotate(0,0,0) translate(-71,-90) translate(26,210) rotate(-90,0,0)"><text fill="" stroke="none" font-family="helvetica" font-size="14pt" font-style="italic" font-weight="normal" text-decoration="normal" x="0" y="0" text-anchor="middle" dominant-baseline="alphabetic">Log I(s)</text><g transform="rotate(90,0,0) translate(-26,-210)"/></g></g></g></g></g></g></g></g><g clip-path="url(#JXteDKNtUhwt)"><g/></g></g></g></svg>