<svg version="1.1" xmlns="http://www.w3.org/2000/svg" xmlns:xlink="http://www.w3.org/1999/xlink" width="700" height="250" style="width: 700px; height: 250px;"><defs><clipPath id="JWfbgGGTbqBz"><path fill="none" stroke="none" d=" M 97 42 L 670 42 L 670 182 L 97 182 L 97 42 Z"/></clipPath><clipPath id="nqDQMgLrgLfQ"><path fill="none" stroke="none" d=" M 97 42 L 670 42 L 670 182 L 97 182 L 97 42 Z"/></clipPath><clipPath id="dTpGzSAGlqvv"><path fill="none" stroke="none" d=" M 97 42 L 670 42 L 670 182 L 97 182 L 97 42 Z"/></clipPath><clipPath id="wzOKvZEMfDAs"><path fill="none" stroke="none" d=" M 97 42 L 670 42 L 670 182 L 97 182 L 97 42 Z"/></clipPath><clipPath id="tAkuQMuFebzO"><path fill="none" stroke="none" d=" M 97 42 L 670 42 L 670 182 L 97 182 L 97 42 Z"/></clipPath></defs><g><g transform="scale(1,1) translate(0.5,0.5)"><rect fill="#FFFFFF" stroke="none" x="0" y="0" width="700" height="250"/><rect fill="#ffffff" stroke="none" x="0" y="0" width="700" height="250"/><rect fill="#FFFFFF" stroke="none" x="97" y="42" width="573" height="140"/><rect fill="#ffffff" stroke="none" x="97" y="42" width="573" height="140"/><g><rect fill="none" stroke="#e5e5e5" x="97" y="42" width="573" height="140" stroke-linejoin="bevel" stroke-miterlimit="10"/></g><g clip-path="url(#JWfbgGGTbqBz)"><g><g><path fill="none" stroke="#e5e5e5" paint-order="fill stroke markers" d=" M 200 182 L 200 42" stroke-linejoin="bevel" stroke-miterlimit="10"/><path fill="none" stroke="#e5e5e5" paint-order="fill stroke markers" d=" M 347 182 L 347 42" stroke-linejoin="bevel" stroke-miterlimit="10"/><path fill="none" stroke="#e5e5e5" paint-order="fill stroke markers" d=" M 494 182 L 494 42" stroke-linejoin="bevel" stroke-miterlimit="10"/><path fill="none" stroke="#e5e5e5" paint-order="fill stroke markers" d=" M 641 182 L 641 42" stroke-linejoin="bevel" stroke-miterlimit="10"/></g></g></g><g clip-path="url(#nqDQMgLrgLfQ)"><g><g/></g></g><g clip-path="url(#dTpGzSAGlqvv)"><g><g><path fill="none" stroke="none"/><path fill="#e41a1c" stroke="none" paint-order="stroke fill markers" d=" M 97 155.75 L 288 155.75 L 288 173.25 L 97 173.25 L 97 155.75 Z" fill-opacity="0.8"/><path fill="none" stroke="#e41a1c" paint-order="fill stroke markers" d=" M 97 155.75 L 288 155.75 L 288 173.25 L 97 173.25 L 97 155.75 Z" stroke-linejoin="bevel" stroke-miterlimit="10" stroke-opacity="0.8"/><path fill="#377eb8" stroke="none" paint-order="stroke fill markers" d=" M 97 120.75 L 379.09230769230635 120.75 L 379.09230769230635 138.25 L 97 138.25 L 97 120.75 Z" fill-opacity="0.8"/><path fill="none" stroke="#377eb8" paint-order="fill stroke markers" d=" M 97 120.75 L 379.09230769230635 120.75 L 379.09230769230635 138.25 L 97 138.25 L 97 120.75 Z" stroke-linejoin="bevel" stroke-miterlimit="10" stroke-opacity="0.8"/><path fill="#4daf4a" stroke="none" paint-order="stroke fill markers" d=" M 97 85.75 L 479 85.75 L 479 103.25 L 97 103.25 L 97 85.75 Z" fill-opacity="0.8"/><path fill="none" stroke="#4daf4a" paint-order="fill stroke markers" d=" M 97 85.75 L 479 85.75 L 479 103.25 L 97 103.25 L 97 85.75 Z" stroke-linejoin="bevel" stroke-miterlimit="10" stroke-opacity="0.8"/><path fill="#984ea3" stroke="none" paint-order="stroke fill markers" d=" M 97 50.75 L 443.7384615384617 50.75 L 443.7384615384617 68.25 L 97 68.25 L 97 50.75 Z" fill-opacity="0.8"/><path fill="none" stroke="#984ea3" paint-order="fill stroke markers" d=" M 97 50.75 L 443.7384615384617 50.75 L 443.7384615384617 68.25 L 97 68.25 L 97 50.75 Z" stroke-linejoin="bevel" stroke-miterlimit="10" stroke-opacity="0.8"/></g></g></g><g clip-path="url(#wzOKvZEMfDAs)"><g><g/><g><path fill="#ffffff" stroke="#e5e5e5" paint-order="fill stroke markers" d=" M 519.78125 52 L 660 52 L 660 161 L 519.78125 161 L 519.78125 52 Z" fill-opacity="0.95" stroke-linejoin="bevel" stroke-miterlimit="10" stroke-opacity="0.5"/><text fill="#444444" stroke="none" font-family="helvetica" font-size="10pt" font-style="normal" font-weight="normal" text-decoration="normal" x="554.78125" y="72" text-anchor="start" dominant-baseline="central">Model 1: 9530</text><rect fill="#e41a1c" stroke="none" x="531.78125" y="64" width="16" height="16" fill-opacity="0.8"/><path fill="none" stroke="#e41a1c" paint-order="fill stroke markers" d=" M 531.78125 64 L 547.78125 64 L 547.78125 80 L 531.78125 80 L 531.78125 64 Z" stroke-linejoin="bevel" stroke-miterlimit="10" stroke-opacity="0.8"/><text fill="#444444" stroke="none" font-family="helvetica" font-size="10pt" font-style="normal" font-weight="normal" text-decoration="normal" x="554.78125" y="95" text-anchor="start" dominant-baseline="central">Model 2: 9561</text><rect fill="#377eb8" stroke="none" x="531.78125" y="87" width="16" height="16" fill-opacity="0.8"/><path fill="none" stroke="#377eb8" paint-order="fill stroke markers" d=" M 531.78125 87 L 547.78125 87 L 547.78125 103 L 531.78125 103 L 531.78125 87 Z" stroke-linejoin="bevel" stroke-miterlimit="10" stroke-opacity="0.8"/><text fill="#444444" stroke="none" font-family="helvetica" font-size="10pt" font-style="normal" font-weight="normal" text-decoration="normal" x="554.78125" y="118" text-anchor="start" dominant-baseline="central">Model 3: 9595</text><rect fill="#4daf4a" stroke="none" x="531.78125" y="110" width="16" height="16" fill-opacity="0.8"/><path fill="none" stroke="#4daf4a" paint-order="fill stroke markers" d=" M 531.78125 110 L 547.78125 110 L 547.78125 126 L 531.78125 126 L 531.78125 110 Z" stroke-linejoin="bevel" stroke-miterlimit="10" stroke-opacity="0.8"/><text fill="#444444" stroke="none" font-family="helvetica" font-size="10pt" font-style="normal" font-weight="normal" text-decoration="normal" x="554.78125" y="141" text-anchor="start" dominant-baseline="central">Model 4: 9583</text><rect fill="#984ea3" stroke="none" x="531.78125" y="133" width="16" height="16" fill-opacity="0.8"/><path fill="none" stroke="#984ea3" paint-order="fill stroke markers" d=" M 531.78125 133 L 547.78125 133 L 547.78125 149 L 531.78125 149 L 531.78125 133 Z" stroke-linejoin="bevel" stroke-miterlimit="10" stroke-opacity="0.8"/></g></g></g><g><g fill="#444444"><path fill="" stroke="none" d=""/><g transform="translate(383.5,5)"><path fill="none" stroke="none"/><text fill="" stroke="none" font-family="helvetica" font-size="14pt" font-style="normal" font-weight="bold" text-decoration="normal" x="0" y="0" text-anchor="middle" dominant-baseline="text-before-edge">Model quality: Excluded Volume Analysis</text></g></g></g><g/><g><g fill="#444444"><path fill="none" stroke="black" paint-order="fill stroke markers" d=" M 97 182 L 670 182" stroke-linejoin="bevel" stroke-miterlimit="10"/><path fill="none" stroke="black" paint-order="fill stroke markers" d=" M 200 188 L 200 180" stroke-linejoin="bevel" stroke-miterlimit="10"/><path fill="none" stroke="black" paint-order="fill stroke markers" d=" M 347 188 L 347 180" stroke-linejoin="bevel" stroke-miterlimit="10"/><path fill="none" stroke="black" paint-order="fill stroke markers" d=" M 494 188 L 494 180" stroke-linejoin="bevel" stroke-miterlimit="10"/><path fill="none" stroke="black" paint-order="fill stroke markers" d=" M 641 188 L 641 180" stroke-linejoin="bevel" stroke-miterlimit="10"/><path fill="none" stroke="black" paint-order="fill stroke markers" d=" M 170 186 L 170 182" stroke-linejoin="bevel" stroke-miterlimit="10"/><path fill="none" stroke="black" paint-order="fill stroke markers" d=" M 141 186 L 141 182" stroke-linejoin="bevel" stroke-miterlimit="10"/><path fill="none" stroke="black" paint-order="fill stroke markers" d=" M 112 186 L 112 182" stroke-linejoin="bevel" stroke-miterlimit="10"/><path fill="none" stroke="black" paint-order="fill stroke markers" d=" M 200 186 L 200 182" stroke-linejoin="bevel" stroke-miterlimit="10"/><path fill="none" stroke="black" paint-order="fill stroke markers" d=" M 229 186 L 229 182" stroke-linejoin="bevel" stroke-miterlimit="10"/><path fill="none" stroke="black" paint-order="fill stroke markers" d=" M 259 186 L 259 182" stroke-linejoin="bevel" stroke-miterlimit="10"/><path fill="none" stroke="black" paint-order="fill stroke markers" d=" M 288 186 L 288 182" stroke-linejoin="bevel" stroke-miterlimit="10"/><path fill="none" stroke="black" paint-order="fill stroke markers" d=" M 317 186 L 317 182" stroke-linejoin="bevel" stroke-miterlimit="10"/><path fill="none" stroke="black" paint-order="fill stroke markers" d=" M 347 186 L 347 182" stroke-linejoin="bevel" stroke-miterlimit="10"/><path fill="none" stroke="black" paint-order="fill stroke markers" d=" M 376 186 L 376 182" stroke-linejoin="bevel" stroke-miterlimit="10"/><path fill="none" stroke="black" paint-order="fill stroke markers" d=" M 406 186 L 406 182" stroke-linejoin="bevel" stroke-miterlimit="10"/><path fill="none" stroke="black" paint-order="fill stroke markers" d=" M 435 186 L 435 182" stroke-linejoin="bevel" stroke-miterlimit="10"/><path fill="none" stroke="black" paint-order="fill stroke markers" d=" M 464 186 L 464 182" stroke-linejoin="bevel" stroke-miterlimit="10"/><path fill="none" stroke="black" paint-order="fill stroke markers" d=" M 494 186 L 494 182" stroke-linejoin="bevel" stroke-miterlimit="10"/><path fill="none" stroke="black" paint-order="fill stroke markers" d=" M 523 186 L 523 182" stroke-linejoin="bevel" stroke-miterlimit="10"/><path fill="none" stroke="black" paint-order="fill stroke markers" d=" M 552 186 L 552 182" stroke-linejoin="bevel" stroke-miterlimit="10"/><path fill="none" stroke="black" paint-order="fill stroke markers" d=" M 582 186 L 582 182" stroke-linejoin="bevel" stroke-miterlimit="10"/><path fill="none" stroke="black" paint-order="fill stroke markers" d=" M 611 186 L 611 182" stroke-linejoin="bevel" stroke-miterlimit="10"/><path fill="none" stroke="black" paint-order="fill stroke markers" d=" M 641 186 L 641 182" stroke-linejoin="bevel" stroke-miterlimit="10"/><path fill="" stroke="black" paint-order="fill stroke markers" d=" M 670 186 L 670 182" stroke-linejoin="bevel" stroke-miterlimit="10"/><g transform="translate(200,193) rotate(0,0,0)"><text fill="" stroke="none" font-family="helvetica" font-size="14pt" font-style="normal" font-weight="normal" text-decoration="normal" x="0" y="0" text-anchor="middle" dominant-baseline="hanging">9500</text><g transform="rotate(0,0,0) translate(-200,-193) translate(347,193) rotate(0,0,0)"><text fill="" stroke="none" font-family="helvetica" font-size="14pt" font-style="normal" font-weight="normal" text-decoration="normal" x="0" y="0" text-anchor="middle" dominant-baseline="hanging">9550</text><g transform="rotate(0,0,0) translate(-347,-193) translate(494,193) rotate(0,0,0)"><text fill="" stroke="none" font-family="helvetica" font-size="14pt" font-style="normal" font-weight="normal" text-decoration="normal" x="0" y="0" text-anchor="middle" dominant-baseline="hanging">9600</text><g transform="rotate(0,0,0) translate(-494,-193) translate(641,193) rotate(0,0,0)"><text fill="" stroke="none" font-family="helvetica" font-size="14pt" font-style="normal" font-weight="normal" text-decoration="normal" x="0" y="0" text-anchor="middle" dominant-baseline="hanging">9650</text><g transform="rotate(0,0,0) translate(-641,-193) translate(384,224) rotate(0,0,0)"><text fill="" stroke="none" font-family="helvetica" font-size="14pt" font-style="italic" font-weight="normal" text-decoration="normal" x="0" y="0" text-anchor="middle" dominant-baseline="hanging">Number of violations</text><g transform="rotate(0,0,0) translate(-384,-224)"/></g></g></g></g></g></g></g><g><g fill="#444444"><path fill="none" stroke="black" paint-order="fill stroke markers" d=" M 97 182 L 97 42" stroke-linejoin="bevel" stroke-miterlimit="10"/><path fill="none" stroke="black" paint-order="fill stroke markers" d=" M 91 165 L 99 165" stroke-linejoin="bevel" stroke-miterlimit="10"/><path fill="none" stroke="black" paint-order="fill stroke markers" d=" M 91 130 L 99 130" stroke-linejoin="bevel" stroke-miterlimit="10"/><path fill="none" stroke="black" paint-order="fill stroke markers" d=" M 91 95 L 99 95" stroke-linejoin="bevel" stroke-miterlimit="10"/><path fill="" stroke="black" paint-order="fill stroke markers" d=" M 91 60 L 99 60" stroke-linejoin="bevel" stroke-miterlimit="10"/><g transform="translate(86,165) rotate(0,0,0)"><text fill="" stroke="none" font-family="helvetica" font-size="14pt" font-style="normal" font-weight="normal" text-decoration="normal" x="0" y="0" text-anchor="end" dominant-baseline="central">Model 1</text><g transform="rotate(0,0,0) translate(-86,-165) translate(86,130) rotate(0,0,0)"><text fill="" stroke="none" font-family="helvetica" font-size="14pt" font-style="normal" font-weight="normal" text-decoration="normal" x="0" y="0" text-anchor="end" dominant-baseline="central">Model 2</text><g transform="rotate(0,0,0) translate(-86,-130) translate(86,95) rotate(0,0,0)"><text fill="" stroke="none" font-family="helvetica" font-size="14pt" font-style="normal" font-weight="normal" text-decoration="normal" x="0" y="0" text-anchor="end" dominant-baseline="central">Model 3</text><g transform="rotate(0,0,0) translate(-86,-95) translate(86,60) rotate(0,0,0)"><text fill="" stroke="none" font-family="helvetica" font-size="14pt" font-style="normal" font-weight="normal" text-decoration="normal" x="0" y="0" text-anchor="end" dominant-baseline="central">Model 4</text><g transform="rotate(0,0,0) translate(-86,-60)"/></g></g></g></g></g></g><g clip-path="url(#tAkuQMuFebzO)"><g/></g></g></g></svg>