<svg version="1.1" xmlns="http://www.w3.org/2000/svg" xmlns:xlink="http://www.w3.org/1999/xlink" width="450" height="450" style="width: 450px; height: 450px;"><defs><clipPath id="FrkDgryImRol"><path fill="none" stroke="none" d=" M 75 37 L 420 37 L 420 382 L 75 382 L 75 37 Z"/></clipPath><clipPath id="hMRCTwpiskhb"><path fill="none" stroke="none" d=" M 75 37 L 420 37 L 420 382 L 75 382 L 75 37 Z"/></clipPath><clipPath id="fLfFmefRBXhZ"><path fill="none" stroke="none" d=" M 75 37 L 420 37 L 420 382 L 75 382 L 75 37 Z"/></clipPath><clipPath id="JTgZcqJmRcxG"><path fill="none" stroke="none" d=" M 75 37 L 420 37 L 420 382 L 75 382 L 75 37 Z"/></clipPath><clipPath id="tqPHzinJEvqa"><path fill="none" stroke="none" d=" M 75 37 L 420 37 L 420 382 L 75 382 L 75 37 Z"/></clipPath><clipPath id="tOOCgEgEszuv"><path fill="none" stroke="none" d=" M 75 37 L 420 37 L 420 382 L 75 382 L 75 37 Z"/></clipPath></defs><g><g transform="scale(1,1) translate(0.5,0.5)"><rect fill="#FFFFFF" stroke="none" x="0" y="0" width="450" height="450"/><rect fill="#ffffff" stroke="none" x="0" y="0" width="450" height="450"/><rect fill="#FFFFFF" stroke="none" x="75" y="37" width="345" height="345"/><rect fill="#ffffff" stroke="none" x="75" y="37" width="345" height="345"/><g><rect fill="none" stroke="#e5e5e5" x="75" y="37" width="345" height="345" stroke-linejoin="bevel" stroke-miterlimit="10"/></g><g clip-path="url(#FrkDgryImRol)"><g><g><path fill="none" stroke="#e5e5e5" paint-order="fill stroke markers" d=" M 101 382 L 101 37" stroke-linejoin="bevel" stroke-miterlimit="10"/><path fill="none" stroke="#e5e5e5" paint-order="fill stroke markers" d=" M 147 382 L 147 37" stroke-linejoin="bevel" stroke-miterlimit="10"/><path fill="none" stroke="#e5e5e5" paint-order="fill stroke markers" d=" M 193 382 L 193 37" stroke-linejoin="bevel" stroke-miterlimit="10"/><path fill="none" stroke="#e5e5e5" paint-order="fill stroke markers" d=" M 240 382 L 240 37" stroke-linejoin="bevel" stroke-miterlimit="10"/><path fill="none" stroke="#e5e5e5" paint-order="fill stroke markers" d=" M 286 382 L 286 37" stroke-linejoin="bevel" stroke-miterlimit="10"/><path fill="none" stroke="#e5e5e5" paint-order="fill stroke markers" d=" M 332 382 L 332 37" stroke-linejoin="bevel" stroke-miterlimit="10"/><path fill="none" stroke="#e5e5e5" paint-order="fill stroke markers" d=" M 378 382 L 378 37" stroke-linejoin="bevel" stroke-miterlimit="10"/></g></g></g><g clip-path="url(#hMRCTwpiskhb)"><g><g><path fill="none" stroke="#e5e5e5" paint-order="fill stroke markers" d=" M 75 353 L 420 353" stroke-linejoin="bevel" stroke-miterlimit="10"/><path fill="none" stroke="#e5e5e5" paint-order="fill stroke markers" d=" M 75 280 L 420 280" stroke-linejoin="bevel" stroke-miterlimit="10"/><path fill="none" stroke="#e5e5e5" paint-order="fill stroke markers" d=" M 75 207 L 420 207" stroke-linejoin="bevel" stroke-miterlimit="10"/><path fill="none" stroke="#e5e5e5" paint-order="fill stroke markers" d=" M 75 135 L 420 135" stroke-linejoin="bevel" stroke-miterlimit="10"/><path fill="none" stroke="#e5e5e5" paint-order="fill stroke markers" d=" M 75 62 L 420 62" stroke-linejoin="bevel" stroke-miterlimit="10"/></g></g></g><g clip-path="url(#fLfFmefRBXhZ)"><g><g><path fill="none" stroke="none"/><path fill="blue" stroke="blue" paint-order="fill stroke markers" d=" M 93.18181818181822 59.28462137315046 A 2.5 2.5 0 1 1 93.18181693181832 59.28212137356712" fill-opacity="0.3" stroke-linejoin="bevel" stroke-miterlimit="10"/><path fill="blue" stroke="blue" paint-order="fill stroke markers" d=" M 94.9933742541426 78.98367766580532 A 2.5 2.5 0 1 1 94.9933730041427 78.98117766622198" fill-opacity="0.3" stroke-linejoin="bevel" stroke-miterlimit="10"/><path fill="blue" stroke="blue" paint-order="fill stroke markers" d=" M 96.84966122822797 103.73877716366997 A 2.5 2.5 0 1 1 96.84965997822808 103.73627716408663" fill-opacity="0.3" stroke-linejoin="bevel" stroke-miterlimit="10"/><path fill="blue" stroke="blue" paint-order="fill stroke markers" d=" M 98.75067910407434 87.69608993758493 A 2.5 2.5 0 1 1 98.75067785407444 87.6935899380016" fill-opacity="0.3" stroke-linejoin="bevel" stroke-miterlimit="10"/><path fill="blue" stroke="blue" paint-order="fill stroke markers" d=" M 100.69642788168171 70.4511841704134 A 2.5 2.5 0 1 1 100.69642663168182 70.44868417083006" fill-opacity="0.3" stroke-linejoin="bevel" stroke-miterlimit="10"/><path fill="blue" stroke="blue" paint-order="fill stroke markers" d=" M 102.6864985302463 74.14319980366963 A 2.5 2.5 0 1 1 102.6864972802464 74.1406998040863" fill-opacity="0.3" stroke-linejoin="bevel" stroke-miterlimit="10"/><path fill="blue" stroke="blue" paint-order="fill stroke markers" d=" M 104.72170002157647 52.68181818181847 A 2.5 2.5 0 1 1 104.72169877157657 52.679318182235136" fill-opacity="0.3" stroke-linejoin="bevel" stroke-miterlimit="10"/><path fill="blue" stroke="blue" paint-order="fill stroke markers" d=" M 106.80163241466764 56.691810050344884 A 2.5 2.5 0 1 1 106.80163116466774 56.68931005076155" fill-opacity="0.3" stroke-linejoin="bevel" stroke-miterlimit="10"/><path fill="blue" stroke="blue" paint-order="fill stroke markers" d=" M 108.9262957095198 85.593803149412 A 2.5 2.5 0 1 1 108.92629445951991 85.59130314982866" fill-opacity="0.3" stroke-linejoin="bevel" stroke-miterlimit="10"/><path fill="blue" stroke="blue" paint-order="fill stroke markers" d=" M 111.09568990613295 86.77434238228443 A 2.5 2.5 0 1 1 111.09568865613305 86.7718423827011" fill-opacity="0.3" stroke-linejoin="bevel" stroke-miterlimit="10"/><path fill="blue" stroke="blue" paint-order="fill stroke markers" d=" M 113.30981500450713 94.89458318574361 A 2.5 2.5 0 1 1 113.30981375450723 94.89208318616028" fill-opacity="0.3" stroke-linejoin="bevel" stroke-miterlimit="10"/><path fill="blue" stroke="blue" paint-order="fill stroke markers" d=" M 115.56820743689056 77.07055445014385 A 2.5 2.5 0 1 1 115.56820618689066 77.06805445056051" fill-opacity="0.3" stroke-linejoin="bevel" stroke-miterlimit="10"/><path fill="blue" stroke="blue" paint-order="fill stroke markers" d=" M 117.87178524898752 114.67317788282253 A 2.5 2.5 0 1 1 117.87178399898762 114.6706778832392" fill-opacity="0.3" stroke-linejoin="bevel" stroke-miterlimit="10"/><path fill="blue" stroke="blue" paint-order="fill stroke markers" d=" M 120.22009396284547 91.38595349447996 A 2.5 2.5 0 1 1 120.22009271284557 91.38345349489663" fill-opacity="0.3" stroke-linejoin="bevel" stroke-miterlimit="10"/><path fill="blue" stroke="blue" paint-order="fill stroke markers" d=" M 122.61313357846444 95.95211862821134 A 2.5 2.5 0 1 1 122.61313232846454 95.949618628628" fill-opacity="0.3" stroke-linejoin="bevel" stroke-miterlimit="10"/><path fill="blue" stroke="blue" paint-order="fill stroke markers" d=" M 125.05090409584434 93.8777561435536 A 2.5 2.5 0 1 1 125.05090284584445 93.87525614397026" fill-opacity="0.3" stroke-linejoin="bevel" stroke-miterlimit="10"/><path fill="blue" stroke="blue" paint-order="fill stroke markers" d=" M 127.53289650008483 135.8565375031485 A 2.5 2.5 0 1 1 127.53289525008493 135.85403750356517" fill-opacity="0.3" stroke-linejoin="bevel" stroke-miterlimit="10"/><path fill="blue" stroke="blue" paint-order="fill stroke markers" d=" M 130.06011973118763 100.08930493257958 A 2.5 2.5 0 1 1 130.06011848118774 100.08680493299624" fill-opacity="0.3" stroke-linejoin="bevel" stroke-miterlimit="10"/><path fill="blue" stroke="blue" paint-order="fill stroke markers" d=" M 132.6320738640514 106.76313872296987 A 2.5 2.5 0 1 1 132.6320726140515 106.76063872338653" fill-opacity="0.3" stroke-linejoin="bevel" stroke-miterlimit="10"/><path fill="blue" stroke="blue" paint-order="fill stroke markers" d=" M 135.24875889867607 116.75283347205595 A 2.5 2.5 0 1 1 135.2487576486762 116.75033347247262" fill-opacity="0.3" stroke-linejoin="bevel" stroke-miterlimit="10"/><path fill="blue" stroke="blue" paint-order="fill stroke markers" d=" M 137.91017483506184 128.00075390918073 A 2.5 2.5 0 1 1 137.91017358506195 127.9982539095974" fill-opacity="0.3" stroke-linejoin="bevel" stroke-miterlimit="10"/><path fill="blue" stroke="blue" paint-order="fill stroke markers" d=" M 140.61576721115938 108.46825624655185 A 2.5 2.5 0 1 1 140.6157659611595 108.46575624696851" fill-opacity="0.3" stroke-linejoin="bevel" stroke-miterlimit="10"/><path fill="blue" stroke="blue" paint-order="fill stroke markers" d=" M 143.36663586126792 115.18180064247645 A 2.5 2.5 0 1 1 143.36663461126804 115.17930064289311" fill-opacity="0.3" stroke-linejoin="bevel" stroke-miterlimit="10"/><path fill="blue" stroke="blue" paint-order="fill stroke markers" d=" M 146.16223541313747 120.39246766724455 A 2.5 2.5 0 1 1 146.16223416313758 120.38996766766121" fill-opacity="0.3" stroke-linejoin="bevel" stroke-miterlimit="10"/><path fill="blue" stroke="blue" paint-order="fill stroke markers" d=" M 149.00256586676798 119.18377980179957 A 2.5 2.5 0 1 1 149.0025646167681 119.18127980221624" fill-opacity="0.3" stroke-linejoin="bevel" stroke-miterlimit="10"/><path fill="blue" stroke="blue" paint-order="fill stroke markers" d=" M 151.88703640276077 131.02652810031805 A 2.5 2.5 0 1 1 151.8870351527609 131.0240281007347" fill-opacity="0.3" stroke-linejoin="bevel" stroke-miterlimit="10"/><path fill="blue" stroke="blue" paint-order="fill stroke markers" d=" M 154.81681957011412 132.93736272994056 A 2.5 2.5 0 1 1 154.81681832011424 132.93486273035722" fill-opacity="0.3" stroke-linejoin="bevel" stroke-miterlimit="10"/><path fill="blue" stroke="blue" paint-order="fill stroke markers" d=" M 157.7913336392284 129.18435424364316 A 2.5 2.5 0 1 1 157.79133238922853 129.18185424405982" fill-opacity="0.3" stroke-linejoin="bevel" stroke-miterlimit="10"/><path fill="blue" stroke="blue" paint-order="fill stroke markers" d=" M 160.81057861010382 132.93469605994005 A 2.5 2.5 0 1 1 160.81057736010393 132.93219606035672" fill-opacity="0.3" stroke-linejoin="bevel" stroke-miterlimit="10"/><path fill="blue" stroke="blue" paint-order="fill stroke markers" d=" M 163.87392730599177 132.24435651089107 A 2.5 2.5 0 1 1 163.8739260559919 132.24185651130773" fill-opacity="0.3" stroke-linejoin="bevel" stroke-miterlimit="10"/><path fill="blue" stroke="blue" paint-order="fill stroke markers" d=" M 166.98262499058993 143.71663747772664 A 2.5 2.5 0 1 1 166.98262374059004 143.7141374781433" fill-opacity="0.3" stroke-linejoin="bevel" stroke-miterlimit="10"/><path fill="blue" stroke="blue" paint-order="fill stroke markers" d=" M 170.13605357694902 151.91957365229928 A 2.5 2.5 0 1 1 170.13605232694914 151.91707365271594" fill-opacity="0.3" stroke-linejoin="bevel" stroke-miterlimit="10"/><path fill="blue" stroke="blue" paint-order="fill stroke markers" d=" M 173.33355862077045 146.6127791885183 A 2.5 2.5 0 1 1 173.33355737077056 146.61027918893495" fill-opacity="0.3" stroke-linejoin="bevel" stroke-miterlimit="10"/><path fill="blue" stroke="blue" paint-order="fill stroke markers" d=" M 176.57643992085238 155.20172926622263 A 2.5 2.5 0 1 1 176.5764386708525 155.1992292666393" fill-opacity="0.3" stroke-linejoin="bevel" stroke-miterlimit="10"/><path fill="blue" stroke="blue" paint-order="fill stroke markers" d=" M 179.8640521226953 154.54768670019166 A 2.5 2.5 0 1 1 179.86405087269543 154.54518670060833" fill-opacity="0.3" stroke-linejoin="bevel" stroke-miterlimit="10"/><path fill="blue" stroke="blue" paint-order="fill stroke markers" d=" M 183.19639522629927 165.04855370742507 A 2.5 2.5 0 1 1 183.1963939762994 165.04605370784174" fill-opacity="0.3" stroke-linejoin="bevel" stroke-miterlimit="10"/><path fill="blue" stroke="blue" paint-order="fill stroke markers" d=" M 186.57277843001592 145.26903673108927 A 2.5 2.5 0 1 1 186.57277718001603 145.26653673150594" fill-opacity="0.3" stroke-linejoin="bevel" stroke-miterlimit="10"/><path fill="blue" stroke="blue" paint-order="fill stroke markers" d=" M 189.99457424734263 165.77344772006154 A 2.5 2.5 0 1 1 189.99457299734274 165.7709477204782" fill-opacity="0.3" stroke-linejoin="bevel" stroke-miterlimit="10"/><path fill="blue" stroke="blue" paint-order="fill stroke markers" d=" M 193.4611009664304 162.28662577070236 A 2.5 2.5 0 1 1 193.4610997164305 162.28412577111902" fill-opacity="0.3" stroke-linejoin="bevel" stroke-miterlimit="10"/><path fill="blue" stroke="blue" paint-order="fill stroke markers" d=" M 196.9716405180804 181.56681822361497 A 2.5 2.5 0 1 1 196.9716392680805 181.56431822403164" fill-opacity="0.3" stroke-linejoin="bevel" stroke-miterlimit="10"/><path fill="blue" stroke="blue" paint-order="fill stroke markers" d=" M 200.52761995089097 174.65870082724678 A 2.5 2.5 0 1 1 200.52761870089108 174.65620082766344" fill-opacity="0.3" stroke-linejoin="bevel" stroke-miterlimit="10"/><path fill="blue" stroke="blue" paint-order="fill stroke markers" d=" M 204.1283302854625 172.07121179636715 A 2.5 2.5 0 1 1 204.12832903546263 172.06871179678382" fill-opacity="0.3" stroke-linejoin="bevel" stroke-miterlimit="10"/><path fill="blue" stroke="blue" paint-order="fill stroke markers" d=" M 207.77302618504595 195.25125981621113 A 2.5 2.5 0 1 1 207.77302493504607 195.2487598166278" fill-opacity="0.3" stroke-linejoin="bevel" stroke-miterlimit="10"/><path fill="blue" stroke="blue" paint-order="fill stroke markers" d=" M 211.46318923334036 201.5212522246925 A 2.5 2.5 0 1 1 211.46318798334048 201.51875222510915" fill-opacity="0.3" stroke-linejoin="bevel" stroke-miterlimit="10"/><path fill="blue" stroke="blue" paint-order="fill stroke markers" d=" M 215.19808318339568 184.39569952673355 A 2.5 2.5 0 1 1 215.1980819333958 184.39319952715022" fill-opacity="0.3" stroke-linejoin="bevel" stroke-miterlimit="10"/><path fill="blue" stroke="blue" paint-order="fill stroke markers" d=" M 218.9769354309125 199.31280726573186 A 2.5 2.5 0 1 1 218.97693418091262 199.31030726614853" fill-opacity="0.3" stroke-linejoin="bevel" stroke-miterlimit="10"/><path fill="blue" stroke="blue" paint-order="fill stroke markers" d=" M 222.8012820946907 220.31089987619907 A 2.5 2.5 0 1 1 222.8012808446908 220.30839987661574" fill-opacity="0.3" stroke-linejoin="bevel" stroke-miterlimit="10"/><path fill="blue" stroke="blue" paint-order="fill stroke markers" d=" M 226.67035966022982 202.15577011194955 A 2.5 2.5 0 1 1 226.67035841022994 202.15327011236622" fill-opacity="0.3" stroke-linejoin="bevel" stroke-miterlimit="10"/><path fill="blue" stroke="blue" paint-order="fill stroke markers" d=" M 230.58336825568009 206.80174203231445 A 2.5 2.5 0 1 1 230.5833670056802 206.79924203273112" fill-opacity="0.3" stroke-linejoin="bevel" stroke-miterlimit="10"/><path fill="blue" stroke="blue" paint-order="fill stroke markers" d=" M 234.54189853494205 210.06820790283837 A 2.5 2.5 0 1 1 234.54189728494217 210.06570790325503" fill-opacity="0.3" stroke-linejoin="bevel" stroke-miterlimit="10"/><path fill="blue" stroke="blue" paint-order="fill stroke markers" d=" M 238.54434166636395 209.15141180665432 A 2.5 2.5 0 1 1 238.54434041636407 209.148911807071" fill-opacity="0.3" stroke-linejoin="bevel" stroke-miterlimit="10"/><path fill="blue" stroke="blue" paint-order="fill stroke markers" d=" M 242.59232465934872 225.19687016906755 A 2.5 2.5 0 1 1 242.59232340934884 225.19437016948422" fill-opacity="0.3" stroke-linejoin="bevel" stroke-miterlimit="10"/><path fill="blue" stroke="blue" paint-order="fill stroke markers" d=" M 246.68503855409452 238.05722593681048 A 2.5 2.5 0 1 1 246.68503730409464 238.05472593722715" fill-opacity="0.3" stroke-linejoin="bevel" stroke-miterlimit="10"/><path fill="blue" stroke="blue" paint-order="fill stroke markers" d=" M 250.82163803344977 229.44278976227224 A 2.5 2.5 0 1 1 250.8216367834499 229.4402897626889" fill-opacity="0.3" stroke-linejoin="bevel" stroke-miterlimit="10"/><path fill="blue" stroke="blue" paint-order="fill stroke markers" d=" M 255.0038046419183 241.9529911566815 A 2.5 2.5 0 1 1 255.0038033919184 241.95049115709816" fill-opacity="0.3" stroke-linejoin="bevel" stroke-miterlimit="10"/><path fill="blue" stroke="blue" paint-order="fill stroke markers" d=" M 259.22983865724524 236.18546733987841 A 2.5 2.5 0 1 1 259.2298374072453 236.18296734029508" fill-opacity="0.3" stroke-linejoin="bevel" stroke-miterlimit="10"/><path fill="blue" stroke="blue" paint-order="fill stroke markers" d=" M 263.5014579794365 242.662425500057 A 2.5 2.5 0 1 1 263.5014567294366 242.65992550047366" fill-opacity="0.3" stroke-linejoin="bevel" stroke-miterlimit="10"/><path fill="blue" stroke="blue" paint-order="fill stroke markers" d=" M 267.81692653073503 234.0550227642202 A 2.5 2.5 0 1 1 267.8169252807351 234.05252276463688" fill-opacity="0.3" stroke-linejoin="bevel" stroke-miterlimit="10"/><path fill="blue" stroke="blue" paint-order="fill stroke markers" d=" M 272.1779985666492 241.48093364095348 A 2.5 2.5 0 1 1 272.1779973166493 241.47843364137015" fill-opacity="0.3" stroke-linejoin="bevel" stroke-miterlimit="10"/><path fill="blue" stroke="blue" paint-order="fill stroke markers" d=" M 276.58380150432447 241.4762919688992 A 2.5 2.5 0 1 1 276.58380025432456 241.47379196931587" fill-opacity="0.3" stroke-linejoin="bevel" stroke-miterlimit="10"/><path fill="blue" stroke="blue" paint-order="fill stroke markers" d=" M 281.0334264035563 238.46543614671236 A 2.5 2.5 0 1 1 281.0334251535564 238.46293614712903" fill-opacity="0.3" stroke-linejoin="bevel" stroke-miterlimit="10"/><path fill="blue" stroke="blue" paint-order="fill stroke markers" d=" M 285.52868205495434 255.33084837230308 A 2.5 2.5 0 1 1 285.52868080495443 255.32834837271974" fill-opacity="0.3" stroke-linejoin="bevel" stroke-miterlimit="10"/><path fill="blue" stroke="blue" paint-order="fill stroke markers" d=" M 290.0677414901578 257.7015963208628 A 2.5 2.5 0 1 1 290.0677402401579 257.69909632127946" fill-opacity="0.3" stroke-linejoin="bevel" stroke-miterlimit="10"/><path fill="blue" stroke="blue" paint-order="fill stroke markers" d=" M 294.6524498552786 251.64553719423202 A 2.5 2.5 0 1 1 294.65244860527866 251.64303719464868" fill-opacity="0.3" stroke-linejoin="bevel" stroke-miterlimit="10"/><path fill="blue" stroke="blue" paint-order="fill stroke markers" d=" M 299.28094382645367 276.51332793908705 A 2.5 2.5 0 1 1 299.28094257645375 276.5108279395037" fill-opacity="0.3" stroke-linejoin="bevel" stroke-miterlimit="10"/><path fill="blue" stroke="blue" paint-order="fill stroke markers" d=" M 303.9551049052973 270.87298550350533 A 2.5 2.5 0 1 1 303.95510365529736 270.870485503922" fill-opacity="0.3" stroke-linejoin="bevel" stroke-miterlimit="10"/><path fill="blue" stroke="blue" paint-order="fill stroke markers" d=" M 308.67303341244394 265.3558459923388 A 2.5 2.5 0 1 1 308.67303216244403 265.35334599275546" fill-opacity="0.3" stroke-linejoin="bevel" stroke-miterlimit="10"/><path fill="blue" stroke="blue" paint-order="fill stroke markers" d=" M 313.43664720501033 281.0189881244464 A 2.5 2.5 0 1 1 313.4366459550104 281.0164881248631" fill-opacity="0.3" stroke-linejoin="bevel" stroke-miterlimit="10"/><path fill="blue" stroke="blue" paint-order="fill stroke markers" d=" M 318.24401024812863 281.2378958040558 A 2.5 2.5 0 1 1 318.2440089981287 281.2353958044725" fill-opacity="0.3" stroke-linejoin="bevel" stroke-miterlimit="10"/><path fill="blue" stroke="blue" paint-order="fill stroke markers" d=" M 323.0970767544179 285.4277467085608 A 2.5 2.5 0 1 1 323.097075504418 285.42524670897745" fill-opacity="0.3" stroke-linejoin="bevel" stroke-miterlimit="10"/><path fill="blue" stroke="blue" paint-order="fill stroke markers" d=" M 327.99387433350773 286.79460444238384 A 2.5 2.5 0 1 1 327.9938730835078 286.7921044428005" fill-opacity="0.3" stroke-linejoin="bevel" stroke-miterlimit="10"/><path fill="blue" stroke="blue" paint-order="fill stroke markers" d=" M 332.93639355351985 294.6854013722027 A 2.5 2.5 0 1 1 332.93639230351994 294.68290137261937" fill-opacity="0.3" stroke-linejoin="bevel" stroke-miterlimit="10"/><path fill="blue" stroke="blue" paint-order="fill stroke markers" d=" M 337.92262566858125 297.409916394894 A 2.5 2.5 0 1 1 337.92262441858134 297.4074163953107" fill-opacity="0.3" stroke-linejoin="bevel" stroke-miterlimit="10"/><path fill="blue" stroke="blue" paint-order="fill stroke markers" d=" M 342.954597602316 305.72614572341126 A 2.5 2.5 0 1 1 342.9545963523161 305.72364572382793" fill-opacity="0.3" stroke-linejoin="bevel" stroke-miterlimit="10"/><path fill="blue" stroke="blue" paint-order="fill stroke markers" d=" M 348.0302642533492 304.8396139920246 A 2.5 2.5 0 1 1 348.03026300334926 304.8371139924413" fill-opacity="0.3" stroke-linejoin="bevel" stroke-miterlimit="10"/><path fill="blue" stroke="blue" paint-order="fill stroke markers" d=" M 353.15064362839195 313.25511680799536 A 2.5 2.5 0 1 1 353.15064237839204 313.25261680841203" fill-opacity="0.3" stroke-linejoin="bevel" stroke-miterlimit="10"/><path fill="blue" stroke="blue" paint-order="fill stroke markers" d=" M 358.3167900878115 315.6131325300603 A 2.5 2.5 0 1 1 358.3167888378116 315.61063253047695" fill-opacity="0.3" stroke-linejoin="bevel" stroke-miterlimit="10"/><path fill="blue" stroke="blue" paint-order="fill stroke markers" d=" M 363.52660399882586 320.5107657520093 A 2.5 2.5 0 1 1 363.52660274882595 320.508265752426" fill-opacity="0.3" stroke-linejoin="bevel" stroke-miterlimit="10"/><path fill="blue" stroke="blue" paint-order="fill stroke markers" d=" M 368.78220317196815 328.47179522188526 A 2.5 2.5 0 1 1 368.78220192196824 328.4692952223019" fill-opacity="0.3" stroke-linejoin="bevel" stroke-miterlimit="10"/><path fill="blue" stroke="blue" paint-order="fill stroke markers" d=" M 374.08145161895425 328.825744016071 A 2.5 2.5 0 1 1 374.08145036895434 328.82324401648765" fill-opacity="0.3" stroke-linejoin="bevel" stroke-miterlimit="10"/><path fill="blue" stroke="blue" paint-order="fill stroke markers" d=" M 379.4254127899499 337.7448612720773 A 2.5 2.5 0 1 1 379.42541153995 337.74236127249395" fill-opacity="0.3" stroke-linejoin="bevel" stroke-miterlimit="10"/><path fill="blue" stroke="blue" paint-order="fill stroke markers" d=" M 384.815186488777 347.2428321026505 A 2.5 2.5 0 1 1 384.8151852387771 347.24033210306715" fill-opacity="0.3" stroke-linejoin="bevel" stroke-miterlimit="10"/><path fill="blue" stroke="blue" paint-order="fill stroke markers" d=" M 390.2485821957443 346.79045661641203 A 2.5 2.5 0 1 1 390.2485809457444 346.7879566168287" fill-opacity="0.3" stroke-linejoin="bevel" stroke-miterlimit="10"/><path fill="blue" stroke="blue" paint-order="fill stroke markers" d=" M 395.7266906267215 350.46225043726236 A 2.5 2.5 0 1 1 395.7266893767216 350.459750437679" fill-opacity="0.3" stroke-linejoin="bevel" stroke-miterlimit="10"/><path fill="blue" stroke="blue" paint-order="fill stroke markers" d=" M 401.250638851233 359.02597757894637 A 2.5 2.5 0 1 1 401.2506376012331 359.02347757936303" fill-opacity="0.3" stroke-linejoin="bevel" stroke-miterlimit="10"/><path fill="blue" stroke="blue" paint-order="fill stroke markers" d=" M 406.81818181818187 366.00476728687545 A 2.5 2.5 0 1 1 406.81818056818196 366.0022672872921" fill-opacity="0.3" stroke-linejoin="bevel" stroke-miterlimit="10"/></g></g></g><g clip-path="url(#JTgZcqJmRcxG)"><g><g><path fill="none" stroke="none"/><path fill="none" stroke="red" paint-order="fill stroke markers" d=" M 90.68181818181822 73.54484249882944 L 92.4933742541426 75.23589424585725 L 94.34966122822797 76.96870140455803 L 96.25067910407434 78.74326397493223 L 98.19642788168171 80.5595819569794 L 100.1864985302463 82.41727352853832 L 102.22170002157647 84.31709384878422 L 104.30163241466764 86.25866958070401 L 106.4262957095198 88.2420007242963 L 108.59568990613295 90.26708727956202 L 110.80981500450713 92.33392924650161 L 113.06820743689056 94.44209389378966 L 115.37178524898752 96.592438198928 L 117.72009396284547 98.78453791573929 L 120.11313357846444 101.01839304422356 L 122.55090409584434 103.29400358438079 L 125.03289650008483 105.61089438087402 L 127.56011973118763 107.9700072592309 L 130.1320738640514 110.37087554925984 L 132.74875889867607 112.81349925096265 L 135.41017483506184 115.29787836433889 L 138.11576721115938 117.82349531003683 L 140.86663586126792 120.39137676161181 L 143.66223541313747 123.0010136248602 L 146.50256586676798 125.65240589978112 L 149.38703640276077 128.34500206815756 L 152.31681957011412 131.07989668127811 L 155.2913336392284 133.85654670607119 L 158.31057861010382 136.67495214253768 L 161.37392730599177 139.53452753359352 L 164.48262499058993 142.4364353082592 L 167.63605357694902 145.3800984945974 L 170.83355862077045 148.36490618180642 L 174.07643992085238 151.3920717063438 L 177.3640521226953 154.46099264255417 L 180.69639522629927 157.5716689904384 L 184.07277843001592 160.72345590032592 L 187.49457424734263 163.91763458640844 L 190.9611009664304 167.15356868416438 L 194.4716405180804 170.43058789020552 L 198.02761995089097 173.7500243261602 L 201.6283302854625 177.11121617378785 L 205.27302618504595 180.5134676759826 L 208.96318923334036 183.95816186180946 L 212.69808318339568 187.44461145930927 L 216.4769354309125 190.9720952576572 L 220.3012820946907 194.54204719335576 L 224.17035966022982 198.15375454072773 L 228.08336825568009 201.80647063522838 L 232.04189853494205 205.50168032079955 L 236.04434166636395 209.23788178492805 L 240.09232465934872 213.0165938086975 L 244.18503855409452 216.8370612441404 L 248.32163803344977 220.6984950044225 L 252.5038046419183 224.60246477806413 L 256.72983865724524 228.54738390797365 L 261.0014579794365 232.53485601981447 L 265.31692653073503 236.56326051935184 L 269.6779985666492 240.63423496939095 L 274.08380150432447 244.74696483110347 L 278.5334264035563 248.90060162679447 L 283.02868205495434 253.09683382670573 L 287.5677414901578 257.33395599202413 L 292.1524498552786 261.6136905301337 L 296.78094382645367 265.9342980650804 L 301.4551049052973 270.29753494138913 L 306.17303341244394 274.70162784596323 L 310.93664720501033 279.1483670604707 L 315.74401024812863 283.63594533467267 L 320.5970767544179 288.16618688737935 L 325.49387433350773 292.73725053120825 L 330.43639355351985 297.3509944221137 L 335.42262566858125 302.00554343557087 L 340.454597602316 306.7027896646746 L 345.5302642533492 311.44082404775963 L 350.65064362839195 316.22059687394676 L 355.8167900878115 321.04309236777544 L 361.02660399882586 325.90635056358997 L 366.28220317196815 330.8123483956174 L 371.58145161895425 335.75909196105977 L 376.9254127899499 340.7475739696047 L 382.315186488777 345.77882106635616 L 387.7485821957443 350.8507884445289 L 393.2266906267215 355.9644942658033 L 398.750638851233 361.1209906272793 L 404.31818181818187 366.318181818182" stroke-linejoin="bevel" stroke-miterlimit="10" stroke-width="3"/></g></g></g><g clip-path="url(#tqPHzinJEvqa)"><g><g/><g><path fill="#ffffff" stroke="#e5e5e5" paint-order="fill stroke markers" d=" M 301.421875 47 L 410 47 L 410 110 L 301.421875 110 L 301.421875 47 Z" fill-opacity="0.95" stroke-linejoin="bevel" stroke-miterlimit="10" stroke-opacity="0.5"/><text fill="#444444" stroke="none" font-family="helvetica" font-size="10pt" font-style="normal" font-weight="normal" text-decoration="normal" x="336.421875" y="67" text-anchor="start" dominant-baseline="central">Observed</text><path fill="blue" stroke="blue" paint-order="fill stroke markers" d=" M 325.421875 67 A 4 4 0 1 1 325.4218730000002 66.99600000066667" fill-opacity="0.3" stroke-linejoin="bevel" stroke-miterlimit="10"/><text fill="#444444" stroke="none" font-family="helvetica" font-size="10pt" font-style="normal" font-weight="normal" text-decoration="normal" x="336.421875" y="90" text-anchor="start" dominant-baseline="central">Predicted</text><g><path fill="none" stroke="red" paint-order="fill stroke markers" d=" M 311.421875 90 L 331.421875 90" stroke-linejoin="bevel" stroke-miterlimit="10" stroke-width="3"/></g></g></g></g><g><g fill="#444444"><path fill="" stroke="none" d=""/><g transform="translate(247.5,5)"><path fill="none" stroke="none"/><text fill="" stroke="none" font-family="helvetica" font-size="12pt" font-style="normal" font-weight="bold" text-decoration="normal" x="0" y="0" text-anchor="middle" dominant-baseline="text-before-edge">Guinier plot (R²=0.99)</text></g></g></g><g/><g><g fill="#444444"><path fill="none" stroke="black" paint-order="fill stroke markers" d=" M 75 382 L 420 382" stroke-linejoin="bevel" stroke-miterlimit="10"/><path fill="none" stroke="black" paint-order="fill stroke markers" d=" M 101 388 L 101 380" stroke-linejoin="bevel" stroke-miterlimit="10"/><path fill="none" stroke="black" paint-order="fill stroke markers" d=" M 147 388 L 147 380" stroke-linejoin="bevel" stroke-miterlimit="10"/><path fill="none" stroke="black" paint-order="fill stroke markers" d=" M 193 388 L 193 380" stroke-linejoin="bevel" stroke-miterlimit="10"/><path fill="none" stroke="black" paint-order="fill stroke markers" d=" M 240 388 L 240 380" stroke-linejoin="bevel" stroke-miterlimit="10"/><path fill="none" stroke="black" paint-order="fill stroke markers" d=" M 286 388 L 286 380" stroke-linejoin="bevel" stroke-miterlimit="10"/><path fill="none" stroke="black" paint-order="fill stroke markers" d=" M 332 388 L 332 380" stroke-linejoin="bevel" stroke-miterlimit="10"/><path fill="none" stroke="black" paint-order="fill stroke markers" d=" M 378 388 L 378 380" stroke-linejoin="bevel" stroke-miterlimit="10"/><path fill="none" stroke="black" paint-order="fill stroke markers" d=" M 92 386 L 92 382" stroke-linejoin="bevel" stroke-miterlimit="10"/><path fill="none" stroke="black" paint-order="fill stroke markers" d=" M 83 386 L 83 382" stroke-linejoin="bevel" stroke-miterlimit="10"/><path fill="none" stroke="black" paint-order="fill stroke markers" d=" M 101 386 L 101 382" stroke-linejoin="bevel" stroke-miterlimit="10"/><path fill="none" stroke="black" paint-order="fill stroke markers" d=" M 110 386 L 110 382" stroke-linejoin="bevel" stroke-miterlimit="10"/><path fill="none" stroke="black" paint-order="fill stroke markers" d=" M 120 386 L 120 382" stroke-linejoin="bevel" stroke-miterlimit="10"/><path fill="none" stroke="black" paint-order="fill stroke markers" d=" M 129 386 L 129 382" stroke-linejoin="bevel" stroke-miterlimit="10"/><path fill="none" stroke="black" paint-order="fill stroke markers" d=" M 138 386 L 138 382" stroke-linejoin="bevel" stroke-miterlimit="10"/><path fill="none" stroke="black" paint-order="fill stroke markers" d=" M 147 386 L 147 382" stroke-linejoin="bevel" stroke-miterlimit="10"/><path fill="none" stroke="black" paint-order="fill stroke markers" d=" M 156 386 L 156 382" stroke-linejoin="bevel" stroke-miterlimit="10"/><path fill="none" stroke="black" paint-order="fill stroke markers" d=" M 166 386 L 166 382" stroke-linejoin="bevel" stroke-miterlimit="10"/><path fill="none" stroke="black" paint-order="fill stroke markers" d=" M 175 386 L 175 382" stroke-linejoin="bevel" stroke-miterlimit="10"/><path fill="none" stroke="black" paint-order="fill stroke markers" d=" M 184 386 L 184 382" stroke-linejoin="bevel" stroke-miterlimit="10"/><path fill="none" stroke="black" paint-order="fill stroke markers" d=" M 193 386 L 193 382" stroke-linejoin="bevel" stroke-miterlimit="10"/><path fill="none" stroke="black" paint-order="fill stroke markers" d=" M 203 386 L 203 382" stroke-linejoin="bevel" stroke-miterlimit="10"/><path fill="none" stroke="black" paint-order="fill stroke markers" d=" M 212 386 L 212 382" stroke-linejoin="bevel" stroke-miterlimit="10"/><path fill="none" stroke="black" paint-order="fill stroke markers" d=" M 221 386 L 221 382" stroke-linejoin="bevel" stroke-miterlimit="10"/><path fill="none" stroke="black" paint-order="fill stroke markers" d=" M 230 386 L 230 382" stroke-linejoin="bevel" stroke-miterlimit="10"/><path fill="none" stroke="black" paint-order="fill stroke markers" d=" M 240 386 L 240 382" stroke-linejoin="bevel" stroke-miterlimit="10"/><path fill="none" stroke="black" paint-order="fill stroke markers" d=" M 249 386 L 249 382" stroke-linejoin="bevel" stroke-miterlimit="10"/><path fill="none" stroke="black" paint-order="fill stroke markers" d=" M 258 386 L 258 382" stroke-linejoin="bevel" stroke-miterlimit="10"/><path fill="none" stroke="black" paint-order="fill stroke markers" d=" M 267 386 L 267 382" stroke-linejoin="bevel" stroke-miterlimit="10"/><path fill="none" stroke="black" paint-order="fill stroke markers" d=" M 277 386 L 277 382" stroke-linejoin="bevel" stroke-miterlimit="10"/><path fill="none" stroke="black" paint-order="fill stroke markers" d=" M 286 386 L 286 382" stroke-linejoin="bevel" stroke-miterlimit="10"/><path fill="none" stroke="black" paint-order="fill stroke markers" d=" M 295 386 L 295 382" stroke-linejoin="bevel" stroke-miterlimit="10"/><path fill="none" stroke="black" paint-order="fill stroke markers" d=" M 304 386 L 304 382" stroke-linejoin="bevel" stroke-miterlimit="10"/><path fill="none" stroke="black" paint-order="fill stroke markers" d=" M 313 386 L 313 382" stroke-linejoin="bevel" stroke-miterlimit="10"/><path fill="none" stroke="black" paint-order="fill stroke markers" d=" M 323 386 L 323 382" stroke-linejoin="bevel" stroke-miterlimit="10"/><path fill="none" stroke="black" paint-order="fill stroke markers" d=" M 332 386 L 332 382" stroke-linejoin="bevel" stroke-miterlimit="10"/><path fill="none" stroke="black" paint-order="fill stroke markers" d=" M 341 386 L 341 382" stroke-linejoin="bevel" stroke-miterlimit="10"/><path fill="none" stroke="black" paint-order="fill stroke markers" d=" M 350 386 L 350 382" stroke-linejoin="bevel" stroke-miterlimit="10"/><path fill="none" stroke="black" paint-order="fill stroke markers" d=" M 360 386 L 360 382" stroke-linejoin="bevel" stroke-miterlimit="10"/><path fill="none" stroke="black" paint-order="fill stroke markers" d=" M 369 386 L 369 382" stroke-linejoin="bevel" stroke-miterlimit="10"/><path fill="none" stroke="black" paint-order="fill stroke markers" d=" M 378 386 L 378 382" stroke-linejoin="bevel" stroke-miterlimit="10"/><path fill="none" stroke="black" paint-order="fill stroke markers" d=" M 387 386 L 387 382" stroke-linejoin="bevel" stroke-miterlimit="10"/><path fill="none" stroke="black" paint-order="fill stroke markers" d=" M 397 386 L 397 382" stroke-linejoin="bevel" stroke-miterlimit="10"/><path fill="none" stroke="black" paint-order="fill stroke markers" d=" M 406 386 L 406 382" stroke-linejoin="bevel" stroke-miterlimit="10"/><path fill="" stroke="black" paint-order="fill stroke markers" d=" M 415 386 L 415 382" stroke-linejoin="bevel" stroke-miterlimit="10"/><g transform="translate(101,393) rotate(0,0,0)"><text fill="" stroke="none" font-family="helvetica" font-size="14pt" font-style="normal" font-weight="normal" text-decoration="normal" x="0" y="0" text-anchor="middle" dominant-baseline="hanging">0.05</text><g transform="rotate(0,0,0) translate(-101,-393) translate(147,393) rotate(0,0,0)"><text fill="" stroke="none" font-family="helvetica" font-size="14pt" font-style="normal" font-weight="normal" text-decoration="normal" x="0" y="0" text-anchor="middle" dominant-baseline="hanging">0.1</text><g transform="rotate(0,0,0) translate(-147,-393) translate(193,393) rotate(0,0,0)"><text fill="" stroke="none" font-family="helvetica" font-size="14pt" font-style="normal" font-weight="normal" text-decoration="normal" x="0" y="0" text-anchor="middle" dominant-baseline="hanging">0.15</text><g transform="rotate(0,0,0) translate(-193,-393) translate(240,393) rotate(0,0,0)"><text fill="" stroke="none" font-family="helvetica" font-size="14pt" font-style="normal" font-weight="normal" text-decoration="normal" x="0" y="0" text-anchor="middle" dominant-baseline="hanging">0.2</text><g transform="rotate(0,0,0) translate(-240,-393) translate(286,393) rotate(0,0,0)"><text fill="" stroke="none" font-family="helvetica" font-size="14pt" font-style="normal" font-weight="normal" text-decoration="normal" x="0" y="0" text-anchor="middle" dominant-baseline="hanging">0.25</text><g transform="rotate(0,0,0) translate(-286,-393) translate(332,393) rotate(0,0,0)"><text fill="" stroke="none" font-family="helvetica" font-size="14pt" font-style="normal" font-weight="normal" text-decoration="normal" x="0" y="0" text-anchor="middle" dominant-baseline="hanging">0.3</text><g transform="rotate(0,0,0) translate(-332,-393) translate(378,393) rotate(0,0,0)"><text fill="" stroke="none" font-family="helvetica" font-size="14pt" font-style="normal" font-weight="normal" text-decoration="normal" x="0" y="0" text-anchor="middle" dominant-baseline="hanging">0.35</text><g transform="rotate(0,0,0) translate(-378,-393) translate(248,424) rotate(0,0,0)"><text fill="" stroke="none" font-family="helvetica" font-size="14pt" font-style="italic" font-weight="normal" text-decoration="normal" x="0" y="0" text-anchor="middle" dominant-baseline="hanging">s² Å⁻²</text><g transform="rotate(0,0,0) translate(-248,-424)"/></g></g></g></g></g></g></g></g></g></g><g><g fill="#444444"><path fill="none" stroke="black" paint-order="fill stroke markers" d=" M 75 382 L 75 37" stroke-linejoin="bevel" stroke-miterlimit="10"/><path fill="none" stroke="black" paint-order="fill stroke markers" d=" M 69 353 L 77 353" stroke-linejoin="bevel" stroke-miterlimit="10"/><path fill="none" stroke="black" paint-order="fill stroke markers" d=" M 69 280 L 77 280" stroke-linejoin="bevel" stroke-miterlimit="10"/><path fill="none" stroke="black" paint-order="fill stroke markers" d=" M 69 207 L 77 207" stroke-linejoin="bevel" stroke-miterlimit="10"/><path fill="none" stroke="black" paint-order="fill stroke markers" d=" M 69 135 L 77 135" stroke-linejoin="bevel" stroke-miterlimit="10"/><path fill="none" stroke="black" paint-order="fill stroke markers" d=" M 69 62 L 77 62" stroke-linejoin="bevel" stroke-miterlimit="10"/><path fill="none" stroke="black" paint-order="fill stroke markers" d=" M 71 368 L 75 368" stroke-linejoin="bevel" stroke-miterlimit="10"/><path fill="none" stroke="black" paint-order="fill stroke markers" d=" M 71 353 L 75 353" stroke-linejoin="bevel" stroke-miterlimit="10"/><path fill="none" stroke="black" paint-order="fill stroke markers" d=" M 71 339 L 75 339" stroke-linejoin="bevel" stroke-miterlimit="10"/><path fill="none" stroke="black" paint-order="fill stroke markers" d=" M 71 324 L 75 324" stroke-linejoin="bevel" stroke-miterlimit="10"/><path fill="none" stroke="black" paint-order="fill stroke markers" d=" M 71 310 L 75 310" stroke-linejoin="bevel" stroke-miterlimit="10"/><path fill="none" stroke="black" paint-order="fill stroke markers" d=" M 71 295 L 75 295" stroke-linejoin="bevel" stroke-miterlimit="10"/><path fill="none" stroke="black" paint-order="fill stroke markers" d=" M 71 280 L 75 280" stroke-linejoin="bevel" stroke-miterlimit="10"/><path fill="none" stroke="black" paint-order="fill stroke markers" d=" M 71 266 L 75 266" stroke-linejoin="bevel" stroke-miterlimit="10"/><path fill="none" stroke="black" paint-order="fill stroke markers" d=" M 71 251 L 75 251" stroke-linejoin="bevel" stroke-miterlimit="10"/><path fill="none" stroke="black" paint-order="fill stroke markers" d=" M 71 237 L 75 237" stroke-linejoin="bevel" stroke-miterlimit="10"/><path fill="none" stroke="black" paint-order="fill stroke markers" d=" M 71 222 L 75 222" stroke-linejoin="bevel" stroke-miterlimit="10"/><path fill="none" stroke="black" paint-order="fill stroke markers" d=" M 71 207 L 75 207" stroke-linejoin="bevel" stroke-miterlimit="10"/><path fill="none" stroke="black" paint-order="fill stroke markers" d=" M 71 193 L 75 193" stroke-linejoin="bevel" stroke-miterlimit="10"/><path fill="none" stroke="black" paint-order="fill stroke markers" d=" M 71 178 L 75 178" stroke-linejoin="bevel" stroke-miterlimit="10"/><path fill="none" stroke="black" paint-order="fill stroke markers" d=" M 71 164 L 75 164" stroke-linejoin="bevel" stroke-miterlimit="10"/><path fill="none" stroke="black" paint-order="fill stroke markers" d=" M 71 149 L 75 149" stroke-linejoin="bevel" stroke-miterlimit="10"/><path fill="none" stroke="black" paint-order="fill stroke markers" d=" M 71 135 L 75 135" stroke-linejoin="bevel" stroke-miterlimit="10"/><path fill="none" stroke="black" paint-order="fill stroke markers" d=" M 71 120 L 75 120" stroke-linejoin="bevel" stroke-miterlimit="10"/><path fill="none" stroke="black" paint-order="fill stroke markers" d=" M 71 105 L 75 105" stroke-linejoin="bevel" stroke-miterlimit="10"/><path fill="none" stroke="black" paint-order="fill stroke markers" d=" M 71 91 L 75 91" stroke-linejoin="bevel" stroke-miterlimit="10"/><path fill="none" stroke="black" paint-order="fill stroke markers" d=" M 71 76 L 75 76" stroke-linejoin="bevel" stroke-miterlimit="10"/><path fill="none" stroke="black" paint-order="fill stroke markers" d=" M 71 62 L 75 62" stroke-linejoin="bevel" stroke-miterlimit="10"/><path fill="" stroke="black" paint-order="fill stroke markers" d=" M 71 47 L 75 47" stroke-linejoin="bevel" stroke-miterlimit="10"/><g transform="translate(64,353) rotate(0,0,0)"><text fill="" stroke="none" font-family="helvetica" font-size="14pt" font-style="normal" font-weight="normal" text-decoration="normal" x="0" y="0" text-anchor="end" dominant-baseline="central">3.7</text><g transform="rotate(0,0,0) translate(-64,-353) translate(64,280) rotate(0,0,0)"><text fill="" stroke="none" font-family="helvetica" font-size="14pt" font-style="normal" font-weight="normal" text-decoration="normal" x="0" y="0" text-anchor="end" dominant-baseline="central">3.8</text><g transform="rotate(0,0,0) translate(-64,-280) translate(64,207) rotate(0,0,0)"><text fill="" stroke="none" font-family="helvetica" font-size="14pt" font-style="normal" font-weight="normal" text-decoration="normal" x="0" y="0" text-anchor="end" dominant-baseline="central">3.9</text><g transform="rotate(0,0,0) translate(-64,-207) translate(64,135) rotate(0,0,0)"><text fill="" stroke="none" font-family="helvetica" font-size="14pt" font-style="normal" font-weight="normal" text-decoration="normal" x="0" y="0" text-anchor="end" dominant-baseline="central">4</text><g transform="rotate(0,0,0) translate(-64,-135) translate(64,62) rotate(0,0,0)"><text fill="" stroke="none" font-family="helvetica" font-size="14pt" font-style="normal" font-weight="normal" text-decoration="normal" x="0" y="0" text-anchor="end" dominant-baseline="central">4.1</text><g transform="rotate(0,0,0) translate(-64,-62) translate(26,210) rotate(-90,0,0)"><text fill="" stroke="none" font-family="helvetica" font-size="14pt" font-style="italic" font-weight="normal" text-decoration="normal" x="0" y="0" text-anchor="middle" dominant-baseline="alphabetic">Log I(s)</text><g transform="rotate(90,0,0) translate(-26,-210)"/></g></g></g></g></g></g></g></g><g clip-path="url(#tOOCgEgEszuv)"><g/></g></g></g></svg>