<svg version="1.1" xmlns="http://www.w3.org/2000/svg" xmlns:xlink="http://www.w3.org/1999/xlink" width="700" height="250" style="width: 700px; height: 250px;"><defs><clipPath id="GrJEMLJfmuRq"><path fill="none" stroke="none" d=" M 264 42 L 670 42 L 670 213 L 264 213 L 264 42 Z"/></clipPath><clipPath id="LfbiBhmermBp"><path fill="none" stroke="none" d=" M 264 42 L 670 42 L 670 213 L 264 213 L 264 42 Z"/></clipPath><clipPath id="XIiGgwKtloTf"><path fill="none" stroke="none" d=" M 264 42 L 670 42 L 670 213 L 264 213 L 264 42 Z"/></clipPath><clipPath id="aLZuGDdoPrVQ"><path fill="none" stroke="none" d=" M 264 42 L 670 42 L 670 213 L 264 213 L 264 42 Z"/></clipPath><clipPath id="nAZshBwKhIJI"><path fill="none" stroke="none" d=" M 264 42 L 670 42 L 670 213 L 264 213 L 264 42 Z"/></clipPath></defs><g><g transform="scale(1,1) translate(0.5,0.5)"><rect fill="#FFFFFF" stroke="none" x="0" y="0" width="700" height="250"/><rect fill="#ffffff" stroke="none" x="0" y="0" width="700" height="250"/><rect fill="#FFFFFF" stroke="none" x="264" y="42" width="406" height="171"/><rect fill="#ffffff" stroke="none" x="264" y="42" width="406" height="171"/><g><rect fill="none" stroke="#e5e5e5" x="264" y="42" width="406" height="171" stroke-linejoin="bevel" stroke-miterlimit="10"/></g><g clip-path="url(#GrJEMLJfmuRq)"><g><g><path fill="none" stroke="#e5e5e5" paint-order="fill stroke markers" d=" M 347 213 L 347 42" stroke-linejoin="bevel" stroke-miterlimit="10"/><path fill="none" stroke="#e5e5e5" paint-order="fill stroke markers" d=" M 431 213 L 431 42" stroke-linejoin="bevel" stroke-miterlimit="10"/><path fill="none" stroke="#e5e5e5" paint-order="fill stroke markers" d=" M 514 213 L 514 42" stroke-linejoin="bevel" stroke-miterlimit="10"/><path fill="none" stroke="#e5e5e5" paint-order="fill stroke markers" d=" M 598 213 L 598 42" stroke-linejoin="bevel" stroke-miterlimit="10"/></g></g></g><g clip-path="url(#LfbiBhmermBp)"><g><g/></g></g><g clip-path="url(#XIiGgwKtloTf)"><g><g><path fill="none" stroke="none"/><path fill="#e41a1c" stroke="none" paint-order="stroke fill markers" d=" M 264 170.25 L 628.273381294964 170.25 L 628.273381294964 198.75 L 264 198.75 L 264 170.25 Z" fill-opacity="0.8"/><path fill="none" stroke="#e41a1c" paint-order="fill stroke markers" d=" M 264 170.25 L 628.273381294964 170.25 L 628.273381294964 198.75 L 264 198.75 L 264 170.25 Z" stroke-linejoin="bevel" stroke-miterlimit="10" stroke-opacity="0.8"/><path fill="#377eb8" stroke="none" paint-order="stroke fill markers" d=" M 264 113.25 L 281.52517985611513 113.25 L 281.52517985611513 141.75 L 264 141.75 L 264 113.25 Z" fill-opacity="0.8"/><path fill="none" stroke="#377eb8" paint-order="fill stroke markers" d=" M 264 113.25 L 281.52517985611513 113.25 L 281.52517985611513 141.75 L 264 141.75 L 264 113.25 Z" stroke-linejoin="bevel" stroke-miterlimit="10" stroke-opacity="0.8"/><path fill="#4daf4a" stroke="none" paint-order="stroke fill markers" d=" M 264 56.25 L 410.8776978417266 56.25 L 410.8776978417266 84.75 L 264 84.75 L 264 56.25 Z" fill-opacity="0.8"/><path fill="none" stroke="#4daf4a" paint-order="fill stroke markers" d=" M 264 56.25 L 410.8776978417266 56.25 L 410.8776978417266 84.75 L 264 84.75 L 264 56.25 Z" stroke-linejoin="bevel" stroke-miterlimit="10" stroke-opacity="0.8"/></g></g></g><g clip-path="url(#aLZuGDdoPrVQ)"><g><g/><g><path fill="#ffffff" stroke="#e5e5e5" paint-order="fill stroke markers" d=" M 573.734375 52 L 660 52 L 660 138 L 573.734375 138 L 573.734375 52 Z" fill-opacity="0.95" stroke-linejoin="bevel" stroke-miterlimit="10" stroke-opacity="0.5"/><text fill="#444444" stroke="none" font-family="helvetica" font-size="10pt" font-style="normal" font-weight="normal" text-decoration="normal" x="608.734375" y="72" text-anchor="start" dominant-baseline="central">8.73</text><rect fill="#e41a1c" stroke="none" x="585.734375" y="64" width="16" height="16" fill-opacity="0.8"/><path fill="none" stroke="#e41a1c" paint-order="fill stroke markers" d=" M 585.734375 64 L 601.734375 64 L 601.734375 80 L 585.734375 80 L 585.734375 64 Z" stroke-linejoin="bevel" stroke-miterlimit="10" stroke-opacity="0.8"/><text fill="#444444" stroke="none" font-family="helvetica" font-size="10pt" font-style="normal" font-weight="normal" text-decoration="normal" x="608.734375" y="95" text-anchor="start" dominant-baseline="central">0.42%</text><rect fill="#377eb8" stroke="none" x="585.734375" y="87" width="16" height="16" fill-opacity="0.8"/><path fill="none" stroke="#377eb8" paint-order="fill stroke markers" d=" M 585.734375 87 L 601.734375 87 L 601.734375 103 L 585.734375 103 L 585.734375 87 Z" stroke-linejoin="bevel" stroke-miterlimit="10" stroke-opacity="0.8"/><text fill="#444444" stroke="none" font-family="helvetica" font-size="10pt" font-style="normal" font-weight="normal" text-decoration="normal" x="608.734375" y="118" text-anchor="start" dominant-baseline="central">3.52%</text><rect fill="#4daf4a" stroke="none" x="585.734375" y="110" width="16" height="16" fill-opacity="0.8"/><path fill="none" stroke="#4daf4a" paint-order="fill stroke markers" d=" M 585.734375 110 L 601.734375 110 L 601.734375 126 L 585.734375 126 L 585.734375 110 Z" stroke-linejoin="bevel" stroke-miterlimit="10" stroke-opacity="0.8"/></g></g></g><g><g fill="#444444"><path fill="" stroke="none" d=""/><g transform="translate(467,5)"><path fill="none" stroke="none"/><text fill="" stroke="none" font-family="helvetica" font-size="14pt" font-style="normal" font-weight="bold" text-decoration="normal" x="0" y="0" text-anchor="middle" dominant-baseline="text-before-edge">Model Quality: Molprobity Analysis</text></g></g></g><g/><g><g fill="#444444"><path fill="none" stroke="black" paint-order="fill stroke markers" d=" M 264 213 L 670 213" stroke-linejoin="bevel" stroke-miterlimit="10"/><path fill="none" stroke="black" paint-order="fill stroke markers" d=" M 264 219 L 264 211" stroke-linejoin="bevel" stroke-miterlimit="10"/><path fill="none" stroke="black" paint-order="fill stroke markers" d=" M 347 219 L 347 211" stroke-linejoin="bevel" stroke-miterlimit="10"/><path fill="none" stroke="black" paint-order="fill stroke markers" d=" M 431 219 L 431 211" stroke-linejoin="bevel" stroke-miterlimit="10"/><path fill="none" stroke="black" paint-order="fill stroke markers" d=" M 514 219 L 514 211" stroke-linejoin="bevel" stroke-miterlimit="10"/><path fill="none" stroke="black" paint-order="fill stroke markers" d=" M 598 219 L 598 211" stroke-linejoin="bevel" stroke-miterlimit="10"/><path fill="none" stroke="black" paint-order="fill stroke markers" d=" M 264 217 L 264 213" stroke-linejoin="bevel" stroke-miterlimit="10"/><path fill="none" stroke="black" paint-order="fill stroke markers" d=" M 281 217 L 281 213" stroke-linejoin="bevel" stroke-miterlimit="10"/><path fill="none" stroke="black" paint-order="fill stroke markers" d=" M 297 217 L 297 213" stroke-linejoin="bevel" stroke-miterlimit="10"/><path fill="none" stroke="black" paint-order="fill stroke markers" d=" M 314 217 L 314 213" stroke-linejoin="bevel" stroke-miterlimit="10"/><path fill="none" stroke="black" paint-order="fill stroke markers" d=" M 331 217 L 331 213" stroke-linejoin="bevel" stroke-miterlimit="10"/><path fill="none" stroke="black" paint-order="fill stroke markers" d=" M 347 217 L 347 213" stroke-linejoin="bevel" stroke-miterlimit="10"/><path fill="none" stroke="black" paint-order="fill stroke markers" d=" M 364 217 L 364 213" stroke-linejoin="bevel" stroke-miterlimit="10"/><path fill="none" stroke="black" paint-order="fill stroke markers" d=" M 381 217 L 381 213" stroke-linejoin="bevel" stroke-miterlimit="10"/><path fill="none" stroke="black" paint-order="fill stroke markers" d=" M 398 217 L 398 213" stroke-linejoin="bevel" stroke-miterlimit="10"/><path fill="none" stroke="black" paint-order="fill stroke markers" d=" M 414 217 L 414 213" stroke-linejoin="bevel" stroke-miterlimit="10"/><path fill="none" stroke="black" paint-order="fill stroke markers" d=" M 431 217 L 431 213" stroke-linejoin="bevel" stroke-miterlimit="10"/><path fill="none" stroke="black" paint-order="fill stroke markers" d=" M 448 217 L 448 213" stroke-linejoin="bevel" stroke-miterlimit="10"/><path fill="none" stroke="black" paint-order="fill stroke markers" d=" M 464 217 L 464 213" stroke-linejoin="bevel" stroke-miterlimit="10"/><path fill="none" stroke="black" paint-order="fill stroke markers" d=" M 481 217 L 481 213" stroke-linejoin="bevel" stroke-miterlimit="10"/><path fill="none" stroke="black" paint-order="fill stroke markers" d=" M 498 217 L 498 213" stroke-linejoin="bevel" stroke-miterlimit="10"/><path fill="none" stroke="black" paint-order="fill stroke markers" d=" M 514 217 L 514 213" stroke-linejoin="bevel" stroke-miterlimit="10"/><path fill="none" stroke="black" paint-order="fill stroke markers" d=" M 531 217 L 531 213" stroke-linejoin="bevel" stroke-miterlimit="10"/><path fill="none" stroke="black" paint-order="fill stroke markers" d=" M 548 217 L 548 213" stroke-linejoin="bevel" stroke-miterlimit="10"/><path fill="none" stroke="black" paint-order="fill stroke markers" d=" M 564 217 L 564 213" stroke-linejoin="bevel" stroke-miterlimit="10"/><path fill="none" stroke="black" paint-order="fill stroke markers" d=" M 581 217 L 581 213" stroke-linejoin="bevel" stroke-miterlimit="10"/><path fill="none" stroke="black" paint-order="fill stroke markers" d=" M 598 217 L 598 213" stroke-linejoin="bevel" stroke-miterlimit="10"/><path fill="none" stroke="black" paint-order="fill stroke markers" d=" M 615 217 L 615 213" stroke-linejoin="bevel" stroke-miterlimit="10"/><path fill="none" stroke="black" paint-order="fill stroke markers" d=" M 631 217 L 631 213" stroke-linejoin="bevel" stroke-miterlimit="10"/><path fill="none" stroke="black" paint-order="fill stroke markers" d=" M 648 217 L 648 213" stroke-linejoin="bevel" stroke-miterlimit="10"/><path fill="" stroke="black" paint-order="fill stroke markers" d=" M 665 217 L 665 213" stroke-linejoin="bevel" stroke-miterlimit="10"/><g transform="translate(264,224) rotate(0,0,0)"><text fill="" stroke="none" font-family="helvetica" font-size="14pt" font-style="normal" font-weight="normal" text-decoration="normal" x="0" y="0" text-anchor="middle" dominant-baseline="hanging">0</text><g transform="rotate(0,0,0) translate(-264,-224) translate(347,224) rotate(0,0,0)"><text fill="" stroke="none" font-family="helvetica" font-size="14pt" font-style="normal" font-weight="normal" text-decoration="normal" x="0" y="0" text-anchor="middle" dominant-baseline="hanging">2</text><g transform="rotate(0,0,0) translate(-347,-224) translate(431,224) rotate(0,0,0)"><text fill="" stroke="none" font-family="helvetica" font-size="14pt" font-style="normal" font-weight="normal" text-decoration="normal" x="0" y="0" text-anchor="middle" dominant-baseline="hanging">4</text><g transform="rotate(0,0,0) translate(-431,-224) translate(514,224) rotate(0,0,0)"><text fill="" stroke="none" font-family="helvetica" font-size="14pt" font-style="normal" font-weight="normal" text-decoration="normal" x="0" y="0" text-anchor="middle" dominant-baseline="hanging">6</text><g transform="rotate(0,0,0) translate(-514,-224) translate(598,224) rotate(0,0,0)"><text fill="" stroke="none" font-family="helvetica" font-size="14pt" font-style="normal" font-weight="normal" text-decoration="normal" x="0" y="0" text-anchor="middle" dominant-baseline="hanging">8</text><g transform="rotate(0,0,0) translate(-598,-224)"/></g></g></g></g></g></g></g><g><g fill="#444444"><path fill="none" stroke="black" paint-order="fill stroke markers" d=" M 264 213 L 264 42" stroke-linejoin="bevel" stroke-miterlimit="10"/><path fill="none" stroke="black" paint-order="fill stroke markers" d=" M 258 185 L 266 185" stroke-linejoin="bevel" stroke-miterlimit="10"/><path fill="none" stroke="black" paint-order="fill stroke markers" d=" M 258 128 L 266 128" stroke-linejoin="bevel" stroke-miterlimit="10"/><path fill="" stroke="black" paint-order="fill stroke markers" d=" M 258 71 L 266 71" stroke-linejoin="bevel" stroke-miterlimit="10"/><g transform="translate(253,185) rotate(0,0,0)"><text fill="" stroke="none" font-family="helvetica" font-size="14pt" font-style="normal" font-weight="normal" text-decoration="normal" x="0" y="0" text-anchor="end" dominant-baseline="central">Clashscore</text><g transform="rotate(0,0,0) translate(-253,-185) translate(253,128) rotate(0,0,0)"><text fill="" stroke="none" font-family="helvetica" font-size="14pt" font-style="normal" font-weight="normal" text-decoration="normal" x="0" y="0" text-anchor="end" dominant-baseline="central">Ramachandran Outliers</text><g transform="rotate(0,0,0) translate(-253,-128) translate(253,71) rotate(0,0,0)"><text fill="" stroke="none" font-family="helvetica" font-size="14pt" font-style="normal" font-weight="normal" text-decoration="normal" x="0" y="0" text-anchor="end" dominant-baseline="central">Sidechain Outliers</text><g transform="rotate(0,0,0) translate(-253,-71)"/></g></g></g></g></g><g clip-path="url(#nAZshBwKhIJI)"><g/></g></g></g></svg>