<svg version="1.1" xmlns="http://www.w3.org/2000/svg" xmlns:xlink="http://www.w3.org/1999/xlink" width="700" height="250" style="width: 700px; height: 250px;"><defs><clipPath id="kBdtUvLNzeGy"><path fill="none" stroke="none" d=" M 97 42 L 670 42 L 670 182 L 97 182 L 97 42 Z"/></clipPath><clipPath id="RnHiFpkuwTBm"><path fill="none" stroke="none" d=" M 97 42 L 670 42 L 670 182 L 97 182 L 97 42 Z"/></clipPath><clipPath id="qXygahpqExmn"><path fill="none" stroke="none" d=" M 97 42 L 670 42 L 670 182 L 97 182 L 97 42 Z"/></clipPath><clipPath id="xAUTeHOzUIqu"><path fill="none" stroke="none" d=" M 97 42 L 670 42 L 670 182 L 97 182 L 97 42 Z"/></clipPath><clipPath id="LnRdAThEdHQo"><path fill="none" stroke="none" d=" M 97 42 L 670 42 L 670 182 L 97 182 L 97 42 Z"/></clipPath></defs><g><g transform="scale(1,1) translate(0.5,0.5)"><rect fill="#FFFFFF" stroke="none" x="0" y="0" width="700" height="250"/><rect fill="#ffffff" stroke="none" x="0" y="0" width="700" height="250"/><rect fill="#FFFFFF" stroke="none" x="97" y="42" width="573" height="140"/><rect fill="#ffffff" stroke="none" x="97" y="42" width="573" height="140"/><g><rect fill="none" stroke="#e5e5e5" x="97" y="42" width="573" height="140" stroke-linejoin="bevel" stroke-miterlimit="10"/></g><g clip-path="url(#kBdtUvLNzeGy)"><g><g><path fill="none" stroke="#e5e5e5" paint-order="fill stroke markers" d=" M 214 182 L 214 42" stroke-linejoin="bevel" stroke-miterlimit="10"/><path fill="none" stroke="#e5e5e5" paint-order="fill stroke markers" d=" M 338 182 L 338 42" stroke-linejoin="bevel" stroke-miterlimit="10"/><path fill="none" stroke="#e5e5e5" paint-order="fill stroke markers" d=" M 462 182 L 462 42" stroke-linejoin="bevel" stroke-miterlimit="10"/><path fill="none" stroke="#e5e5e5" paint-order="fill stroke markers" d=" M 586 182 L 586 42" stroke-linejoin="bevel" stroke-miterlimit="10"/></g></g></g><g clip-path="url(#RnHiFpkuwTBm)"><g><g/></g></g><g clip-path="url(#qXygahpqExmn)"><g><g><path fill="none" stroke="none"/><path fill="#e41a1c" stroke="none" paint-order="stroke fill markers" d=" M 97 129.5 L 478.9999999999927 129.5 L 478.9999999999927 164.5 L 97 164.5 L 97 129.5 Z" fill-opacity="0.8"/><path fill="none" stroke="#e41a1c" paint-order="fill stroke markers" d=" M 97 129.5 L 478.9999999999927 129.5 L 478.9999999999927 164.5 L 97 164.5 L 97 129.5 Z" stroke-linejoin="bevel" stroke-miterlimit="10" stroke-opacity="0.8"/><path fill="#377eb8" stroke="none" paint-order="stroke fill markers" d=" M 97 59.5 L 287.9999999999927 59.5 L 287.9999999999927 94.5 L 97 94.5 L 97 59.5 Z" fill-opacity="0.8"/><path fill="none" stroke="#377eb8" paint-order="fill stroke markers" d=" M 97 59.5 L 287.9999999999927 59.5 L 287.9999999999927 94.5 L 97 94.5 L 97 59.5 Z" stroke-linejoin="bevel" stroke-miterlimit="10" stroke-opacity="0.8"/></g></g></g><g clip-path="url(#xAUTeHOzUIqu)"><g><g/><g><path fill="#ffffff" stroke="#e5e5e5" paint-order="fill stroke markers" d=" M 511.515625 52 L 660 52 L 660 115 L 511.515625 115 L 511.515625 52 Z" fill-opacity="0.95" stroke-linejoin="bevel" stroke-miterlimit="10" stroke-opacity="0.5"/><text fill="#444444" stroke="none" font-family="helvetica" font-size="10pt" font-style="normal" font-weight="normal" text-decoration="normal" x="546.515625" y="72" text-anchor="start" dominant-baseline="central">Model 1: 22257</text><rect fill="#e41a1c" stroke="none" x="523.515625" y="64" width="16" height="16" fill-opacity="0.8"/><path fill="none" stroke="#e41a1c" paint-order="fill stroke markers" d=" M 523.515625 64 L 539.515625 64 L 539.515625 80 L 523.515625 80 L 523.515625 64 Z" stroke-linejoin="bevel" stroke-miterlimit="10" stroke-opacity="0.8"/><text fill="#444444" stroke="none" font-family="helvetica" font-size="10pt" font-style="normal" font-weight="normal" text-decoration="normal" x="546.515625" y="95" text-anchor="start" dominant-baseline="central">Model 2: 22180</text><rect fill="#377eb8" stroke="none" x="523.515625" y="87" width="16" height="16" fill-opacity="0.8"/><path fill="none" stroke="#377eb8" paint-order="fill stroke markers" d=" M 523.515625 87 L 539.515625 87 L 539.515625 103 L 523.515625 103 L 523.515625 87 Z" stroke-linejoin="bevel" stroke-miterlimit="10" stroke-opacity="0.8"/></g></g></g><g><g fill="#444444"><path fill="" stroke="none" d=""/><g transform="translate(383.5,5)"><path fill="none" stroke="none"/><text fill="" stroke="none" font-family="helvetica" font-size="14pt" font-style="normal" font-weight="bold" text-decoration="normal" x="0" y="0" text-anchor="middle" dominant-baseline="text-before-edge">Model quality: Excluded Volume Analysis</text></g></g></g><g/><g><g fill="#444444"><path fill="none" stroke="black" paint-order="fill stroke markers" d=" M 97 182 L 670 182" stroke-linejoin="bevel" stroke-miterlimit="10"/><path fill="none" stroke="black" paint-order="fill stroke markers" d=" M 214 188 L 214 180" stroke-linejoin="bevel" stroke-miterlimit="10"/><path fill="none" stroke="black" paint-order="fill stroke markers" d=" M 338 188 L 338 180" stroke-linejoin="bevel" stroke-miterlimit="10"/><path fill="none" stroke="black" paint-order="fill stroke markers" d=" M 462 188 L 462 180" stroke-linejoin="bevel" stroke-miterlimit="10"/><path fill="none" stroke="black" paint-order="fill stroke markers" d=" M 586 188 L 586 180" stroke-linejoin="bevel" stroke-miterlimit="10"/><path fill="none" stroke="black" paint-order="fill stroke markers" d=" M 189 186 L 189 182" stroke-linejoin="bevel" stroke-miterlimit="10"/><path fill="none" stroke="black" paint-order="fill stroke markers" d=" M 164 186 L 164 182" stroke-linejoin="bevel" stroke-miterlimit="10"/><path fill="none" stroke="black" paint-order="fill stroke markers" d=" M 139 186 L 139 182" stroke-linejoin="bevel" stroke-miterlimit="10"/><path fill="none" stroke="black" paint-order="fill stroke markers" d=" M 114 186 L 114 182" stroke-linejoin="bevel" stroke-miterlimit="10"/><path fill="none" stroke="black" paint-order="fill stroke markers" d=" M 214 186 L 214 182" stroke-linejoin="bevel" stroke-miterlimit="10"/><path fill="none" stroke="black" paint-order="fill stroke markers" d=" M 238 186 L 238 182" stroke-linejoin="bevel" stroke-miterlimit="10"/><path fill="none" stroke="black" paint-order="fill stroke markers" d=" M 263 186 L 263 182" stroke-linejoin="bevel" stroke-miterlimit="10"/><path fill="none" stroke="black" paint-order="fill stroke markers" d=" M 288 186 L 288 182" stroke-linejoin="bevel" stroke-miterlimit="10"/><path fill="none" stroke="black" paint-order="fill stroke markers" d=" M 313 186 L 313 182" stroke-linejoin="bevel" stroke-miterlimit="10"/><path fill="none" stroke="black" paint-order="fill stroke markers" d=" M 338 186 L 338 182" stroke-linejoin="bevel" stroke-miterlimit="10"/><path fill="none" stroke="black" paint-order="fill stroke markers" d=" M 362 186 L 362 182" stroke-linejoin="bevel" stroke-miterlimit="10"/><path fill="none" stroke="black" paint-order="fill stroke markers" d=" M 387 186 L 387 182" stroke-linejoin="bevel" stroke-miterlimit="10"/><path fill="none" stroke="black" paint-order="fill stroke markers" d=" M 412 186 L 412 182" stroke-linejoin="bevel" stroke-miterlimit="10"/><path fill="none" stroke="black" paint-order="fill stroke markers" d=" M 437 186 L 437 182" stroke-linejoin="bevel" stroke-miterlimit="10"/><path fill="none" stroke="black" paint-order="fill stroke markers" d=" M 462 186 L 462 182" stroke-linejoin="bevel" stroke-miterlimit="10"/><path fill="none" stroke="black" paint-order="fill stroke markers" d=" M 486 186 L 486 182" stroke-linejoin="bevel" stroke-miterlimit="10"/><path fill="none" stroke="black" paint-order="fill stroke markers" d=" M 511 186 L 511 182" stroke-linejoin="bevel" stroke-miterlimit="10"/><path fill="none" stroke="black" paint-order="fill stroke markers" d=" M 536 186 L 536 182" stroke-linejoin="bevel" stroke-miterlimit="10"/><path fill="none" stroke="black" paint-order="fill stroke markers" d=" M 561 186 L 561 182" stroke-linejoin="bevel" stroke-miterlimit="10"/><path fill="none" stroke="black" paint-order="fill stroke markers" d=" M 586 186 L 586 182" stroke-linejoin="bevel" stroke-miterlimit="10"/><path fill="none" stroke="black" paint-order="fill stroke markers" d=" M 610 186 L 610 182" stroke-linejoin="bevel" stroke-miterlimit="10"/><path fill="none" stroke="black" paint-order="fill stroke markers" d=" M 635 186 L 635 182" stroke-linejoin="bevel" stroke-miterlimit="10"/><path fill="" stroke="black" paint-order="fill stroke markers" d=" M 660 186 L 660 182" stroke-linejoin="bevel" stroke-miterlimit="10"/><g transform="translate(214,193) rotate(0,0,0)"><text fill="" stroke="none" font-family="helvetica" font-size="14pt" font-style="normal" font-weight="normal" text-decoration="normal" x="0" y="0" text-anchor="middle" dominant-baseline="hanging">22150</text><g transform="rotate(0,0,0) translate(-214,-193) translate(338,193) rotate(0,0,0)"><text fill="" stroke="none" font-family="helvetica" font-size="14pt" font-style="normal" font-weight="normal" text-decoration="normal" x="0" y="0" text-anchor="middle" dominant-baseline="hanging">22200</text><g transform="rotate(0,0,0) translate(-338,-193) translate(462,193) rotate(0,0,0)"><text fill="" stroke="none" font-family="helvetica" font-size="14pt" font-style="normal" font-weight="normal" text-decoration="normal" x="0" y="0" text-anchor="middle" dominant-baseline="hanging">22250</text><g transform="rotate(0,0,0) translate(-462,-193) translate(586,193) rotate(0,0,0)"><text fill="" stroke="none" font-family="helvetica" font-size="14pt" font-style="normal" font-weight="normal" text-decoration="normal" x="0" y="0" text-anchor="middle" dominant-baseline="hanging">22300</text><g transform="rotate(0,0,0) translate(-586,-193) translate(384,224) rotate(0,0,0)"><text fill="" stroke="none" font-family="helvetica" font-size="14pt" font-style="italic" font-weight="normal" text-decoration="normal" x="0" y="0" text-anchor="middle" dominant-baseline="hanging">Number of violations</text><g transform="rotate(0,0,0) translate(-384,-224)"/></g></g></g></g></g></g></g><g><g fill="#444444"><path fill="none" stroke="black" paint-order="fill stroke markers" d=" M 97 182 L 97 42" stroke-linejoin="bevel" stroke-miterlimit="10"/><path fill="none" stroke="black" paint-order="fill stroke markers" d=" M 91 147 L 99 147" stroke-linejoin="bevel" stroke-miterlimit="10"/><path fill="" stroke="black" paint-order="fill stroke markers" d=" M 91 77 L 99 77" stroke-linejoin="bevel" stroke-miterlimit="10"/><g transform="translate(86,147) rotate(0,0,0)"><text fill="" stroke="none" font-family="helvetica" font-size="14pt" font-style="normal" font-weight="normal" text-decoration="normal" x="0" y="0" text-anchor="end" dominant-baseline="central">Model 1</text><g transform="rotate(0,0,0) translate(-86,-147) translate(86,77) rotate(0,0,0)"><text fill="" stroke="none" font-family="helvetica" font-size="14pt" font-style="normal" font-weight="normal" text-decoration="normal" x="0" y="0" text-anchor="end" dominant-baseline="central">Model 2</text><g transform="rotate(0,0,0) translate(-86,-77)"/></g></g></g></g><g clip-path="url(#LnRdAThEdHQo)"><g/></g></g></g></svg>