<svg version="1.1" xmlns="http://www.w3.org/2000/svg" xmlns:xlink="http://www.w3.org/1999/xlink" width="500" height="500" style="width: 500px; height: 500px;"><defs><clipPath id="oyRSiDxFJONT"><path fill="none" stroke="none" d=" M 74 33 L 470 33 L 470 439 L 74 439 L 74 33 Z"/></clipPath><clipPath id="hXGemtwEAOiC"><path fill="none" stroke="none" d=" M 74 33 L 470 33 L 470 439 L 74 439 L 74 33 Z"/></clipPath><clipPath id="ZAKRrrgqmXPn"><path fill="none" stroke="none" d=" M 74 33 L 470 33 L 470 439 L 74 439 L 74 33 Z"/></clipPath><clipPath id="xtWtUfPOkDSU"><path fill="none" stroke="none" d=" M 74 33 L 470 33 L 470 439 L 74 439 L 74 33 Z"/></clipPath><clipPath id="tbiACJPnXLyT"><path fill="none" stroke="none" d=" M 74 33 L 470 33 L 470 439 L 74 439 L 74 33 Z"/></clipPath><clipPath id="wuQlsqZlVswA"><path fill="none" stroke="none" d=" M 74 33 L 470 33 L 470 439 L 74 439 L 74 33 Z"/></clipPath><clipPath id="PTSuTqZLVdBd"><path fill="none" stroke="none" d=" M 74 33 L 470 33 L 470 439 L 74 439 L 74 33 Z"/></clipPath><clipPath id="NibkTQNVLITf"><path fill="none" stroke="none" d=" M 74 33 L 470 33 L 470 439 L 74 439 L 74 33 Z"/></clipPath><clipPath id="iaDLvJnmTpZL"><path fill="none" stroke="none" d=" M 74 33 L 470 33 L 470 439 L 74 439 L 74 33 Z"/></clipPath><clipPath id="KTMtnnrWOmNU"><path fill="none" stroke="none" d=" M 74 33 L 470 33 L 470 439 L 74 439 L 74 33 Z"/></clipPath><clipPath id="qeZlgirqGcRE"><path fill="none" stroke="none" d=" M 74 33 L 470 33 L 470 439 L 74 439 L 74 33 Z"/></clipPath><clipPath id="UPyWgzyoHMXQ"><path fill="none" stroke="none" d=" M 74 33 L 470 33 L 470 439 L 74 439 L 74 33 Z"/></clipPath></defs><g transform="scale(1,1) translate(0.5,0.5) scale(1,1) translate(0.5,0.5)"><rect fill="#ffffff" stroke="none" x="0" y="0" width="500" height="500"/><rect fill="#FFFFFF" stroke="none" x="74" y="33" width="396" height="406"/><rect fill="#ffffff" stroke="none" x="74" y="33" width="396" height="406"/><g><rect fill="none" stroke="#e5e5e5" x="74" y="33" width="396" height="406" stroke-linejoin="bevel" stroke-miterlimit="10"/></g><g clip-path="url(#PTSuTqZLVdBd)"><g><g><path fill="none" stroke="#e5e5e5" paint-order="fill stroke markers" d=" M 77 439 L 77 33" stroke-linejoin="bevel" stroke-miterlimit="10"/><path fill="none" stroke="#e5e5e5" paint-order="fill stroke markers" d=" M 179 439 L 179 33" stroke-linejoin="bevel" stroke-miterlimit="10"/><path fill="none" stroke="#e5e5e5" paint-order="fill stroke markers" d=" M 280 439 L 280 33" stroke-linejoin="bevel" stroke-miterlimit="10"/><path fill="none" stroke="#e5e5e5" paint-order="fill stroke markers" d=" M 382 439 L 382 33" stroke-linejoin="bevel" stroke-miterlimit="10"/></g></g></g><g clip-path="url(#NibkTQNVLITf)"><g><g><path fill="none" stroke="#e5e5e5" paint-order="fill stroke markers" d=" M 74 394 L 470 394" stroke-linejoin="bevel" stroke-miterlimit="10"/><path fill="none" stroke="#e5e5e5" paint-order="fill stroke markers" d=" M 74 322 L 470 322" stroke-linejoin="bevel" stroke-miterlimit="10"/><path fill="none" stroke="#e5e5e5" paint-order="fill stroke markers" d=" M 74 250 L 470 250" stroke-linejoin="bevel" stroke-miterlimit="10"/><path fill="none" stroke="#e5e5e5" paint-order="fill stroke markers" d=" M 74 178 L 470 178" stroke-linejoin="bevel" stroke-miterlimit="10"/><path fill="none" stroke="#e5e5e5" paint-order="fill stroke markers" d=" M 74 105 L 470 105" stroke-linejoin="bevel" stroke-miterlimit="10"/><path fill="none" stroke="#e5e5e5" paint-order="fill stroke markers" d=" M 74 33 L 470 33" stroke-linejoin="bevel" stroke-miterlimit="10"/></g></g></g><g clip-path="url(#iaDLvJnmTpZL)"><g><g><path fill="none" stroke="none"/><path fill="blue" stroke="blue" paint-order="fill stroke markers" d=" M 94.50000000000003 51.45454545454538 A 2.5 2.5 0 1 1 94.49999875000013 51.45204545496205" fill-opacity="0.3" stroke-linejoin="bevel" stroke-miterlimit="10"/><path fill="blue" stroke="blue" paint-order="fill stroke markers" d=" M 96.56677597632314 60.93224610797563 A 2.5 2.5 0 1 1 96.56677472632325 60.929746108392294" fill-opacity="0.3" stroke-linejoin="bevel" stroke-miterlimit="10"/><path fill="blue" stroke="blue" paint-order="fill stroke markers" d=" M 98.76689191769985 54.555088550067126 A 2.5 2.5 0 1 1 98.76689066769995 54.55258855048379" fill-opacity="0.3" stroke-linejoin="bevel" stroke-miterlimit="10"/><path fill="blue" stroke="blue" paint-order="fill stroke markers" d=" M 101.10033106353627 60.78742519213915 A 2.5 2.5 0 1 1 101.10032981353638 60.78492519255582" fill-opacity="0.3" stroke-linejoin="bevel" stroke-miterlimit="10"/><path fill="blue" stroke="blue" paint-order="fill stroke markers" d=" M 103.5671613873562 65.68765985622395 A 2.5 2.5 0 1 1 103.5671601373563 65.68515985664061" fill-opacity="0.3" stroke-linejoin="bevel" stroke-miterlimit="10"/><path fill="blue" stroke="blue" paint-order="fill stroke markers" d=" M 106.1672888435927 65.68540110525828 A 2.5 2.5 0 1 1 106.1672875935928 65.68290110567494" fill-opacity="0.3" stroke-linejoin="bevel" stroke-miterlimit="10"/><path fill="blue" stroke="blue" paint-order="fill stroke markers" d=" M 108.90075533374268 66.59398891172259 A 2.5 2.5 0 1 1 108.90075408374278 66.59148891213925" fill-opacity="0.3" stroke-linejoin="bevel" stroke-miterlimit="10"/><path fill="blue" stroke="blue" paint-order="fill stroke markers" d=" M 111.76756085780613 73.28818435945607 A 2.5 2.5 0 1 1 111.76755960780623 73.28568435987273" fill-opacity="0.3" stroke-linejoin="bevel" stroke-miterlimit="10"/><path fill="blue" stroke="blue" paint-order="fill stroke markers" d=" M 114.76770541578304 68.76075657495142 A 2.5 2.5 0 1 1 114.76770416578314 68.75825657536808" fill-opacity="0.3" stroke-linejoin="bevel" stroke-miterlimit="10"/><path fill="blue" stroke="blue" paint-order="fill stroke markers" d=" M 117.90118900767342 74.1490499561396 A 2.5 2.5 0 1 1 117.90118775767353 74.14654995655627" fill-opacity="0.3" stroke-linejoin="bevel" stroke-miterlimit="10"/><path fill="blue" stroke="blue" paint-order="fill stroke markers" d=" M 121.1680116334773 81.55116871941493 A 2.5 2.5 0 1 1 121.16801038347741 81.5486687198316" fill-opacity="0.3" stroke-linejoin="bevel" stroke-miterlimit="10"/><path fill="blue" stroke="blue" paint-order="fill stroke markers" d=" M 124.56817329319462 85.53305175167952 A 2.5 2.5 0 1 1 124.56817204319472 85.53055175209619" fill-opacity="0.3" stroke-linejoin="bevel" stroke-miterlimit="10"/><path fill="blue" stroke="blue" paint-order="fill stroke markers" d=" M 128.10167398682543 90.82069488150921 A 2.5 2.5 0 1 1 128.10167273682555 90.81819488192588" fill-opacity="0.3" stroke-linejoin="bevel" stroke-miterlimit="10"/><path fill="blue" stroke="blue" paint-order="fill stroke markers" d=" M 131.7684485344102 92.14564202577878 A 2.5 2.5 0 1 1 131.7684472844103 92.14314202619545" fill-opacity="0.3" stroke-linejoin="bevel" stroke-miterlimit="10"/><path fill="blue" stroke="blue" paint-order="fill stroke markers" d=" M 135.56862496802165 97.21135135095642 A 2.5 2.5 0 1 1 135.56862371802177 97.20885135137308" fill-opacity="0.3" stroke-linejoin="bevel" stroke-miterlimit="10"/><path fill="blue" stroke="blue" paint-order="fill stroke markers" d=" M 139.5021404355466 101.30795347367837 A 2.5 2.5 0 1 1 139.50213918554672 101.30545347409503" fill-opacity="0.3" stroke-linejoin="bevel" stroke-miterlimit="10"/><path fill="blue" stroke="blue" paint-order="fill stroke markers" d=" M 143.5689227735274 104.84606341671997 A 2.5 2.5 0 1 1 143.5689215235275 104.84356341713664" fill-opacity="0.3" stroke-linejoin="bevel" stroke-miterlimit="10"/><path fill="blue" stroke="blue" paint-order="fill stroke markers" d=" M 147.769113981033 106.10254791156513 A 2.5 2.5 0 1 1 147.76911273103312 106.10004791198179" fill-opacity="0.3" stroke-linejoin="bevel" stroke-miterlimit="10"/><path fill="blue" stroke="blue" paint-order="fill stroke markers" d=" M 152.10264422245206 111.68862583574094 A 2.5 2.5 0 1 1 152.10264297245217 111.6861258361576" fill-opacity="0.3" stroke-linejoin="bevel" stroke-miterlimit="10"/><path fill="blue" stroke="blue" paint-order="fill stroke markers" d=" M 156.56943435082883 118.71110541183668 A 2.5 2.5 0 1 1 156.56943310082895 118.70860541225335" fill-opacity="0.3" stroke-linejoin="bevel" stroke-miterlimit="10"/><path fill="blue" stroke="blue" paint-order="fill stroke markers" d=" M 161.1695588574672 119.97802195535746 A 2.5 2.5 0 1 1 161.1695576074673 119.97552195577413" fill-opacity="0.3" stroke-linejoin="bevel" stroke-miterlimit="10"/><path fill="blue" stroke="blue" paint-order="fill stroke markers" d=" M 165.90310154493417 127.88165254657304 A 2.5 2.5 0 1 1 165.9031002949343 127.8791525469897" fill-opacity="0.3" stroke-linejoin="bevel" stroke-miterlimit="10"/><path fill="blue" stroke="blue" paint-order="fill stroke markers" d=" M 170.7698971359013 130.57394968610777 A 2.5 2.5 0 1 1 170.7698958859014 130.57144968652443" fill-opacity="0.3" stroke-linejoin="bevel" stroke-miterlimit="10"/><path fill="blue" stroke="blue" paint-order="fill stroke markers" d=" M 175.77002710513003 132.40713771621938 A 2.5 2.5 0 1 1 175.77002585513014 132.40463771663605" fill-opacity="0.3" stroke-linejoin="bevel" stroke-miterlimit="10"/><path fill="blue" stroke="blue" paint-order="fill stroke markers" d=" M 180.9035822386449 138.7472639978356 A 2.5 2.5 0 1 1 180.90358098864502 138.74476399825227" fill-opacity="0.3" stroke-linejoin="bevel" stroke-miterlimit="10"/><path fill="blue" stroke="blue" paint-order="fill stroke markers" d=" M 186.17038329220242 145.0832633556763 A 2.5 2.5 0 1 1 186.17038204220253 145.08076335609297" fill-opacity="0.3" stroke-linejoin="bevel" stroke-miterlimit="10"/><path fill="blue" stroke="blue" paint-order="fill stroke markers" d=" M 191.57051872402153 151.29939149259894 A 2.5 2.5 0 1 1 191.57051747402164 151.2968914930156" fill-opacity="0.3" stroke-linejoin="bevel" stroke-miterlimit="10"/><path fill="blue" stroke="blue" paint-order="fill stroke markers" d=" M 197.1039885341022 156.20165624657432 A 2.5 2.5 0 1 1 197.10398728410232 156.19915624699098" fill-opacity="0.3" stroke-linejoin="bevel" stroke-miterlimit="10"/><path fill="blue" stroke="blue" paint-order="fill stroke markers" d=" M 202.77079272244447 161.53688282758446 A 2.5 2.5 0 1 1 202.77079147244459 161.53438282800113" fill-opacity="0.3" stroke-linejoin="bevel" stroke-miterlimit="10"/><path fill="blue" stroke="blue" paint-order="fill stroke markers" d=" M 208.57082886399567 164.7869082267939 A 2.5 2.5 0 1 1 208.5708276139958 164.78440822721058" fill-opacity="0.3" stroke-linejoin="bevel" stroke-miterlimit="10"/><path fill="blue" stroke="blue" paint-order="fill stroke markers" d=" M 214.5042994810555 176.09707952939561 A 2.5 2.5 0 1 1 214.50429823105563 176.09457952981228" fill-opacity="0.3" stroke-linejoin="bevel" stroke-miterlimit="10"/><path fill="blue" stroke="blue" paint-order="fill stroke markers" d=" M 220.5711044763769 179.94509100459265 A 2.5 2.5 0 1 1 220.571103226377 179.94259100500932" fill-opacity="0.3" stroke-linejoin="bevel" stroke-miterlimit="10"/><path fill="blue" stroke="blue" paint-order="fill stroke markers" d=" M 226.77113444153096 186.32419397613762 A 2.5 2.5 0 1 1 226.77113319153108 186.3216939765543" fill-opacity="0.3" stroke-linejoin="bevel" stroke-miterlimit="10"/><path fill="blue" stroke="blue" paint-order="fill stroke markers" d=" M 233.10460586556994 193.8672202040333 A 2.5 2.5 0 1 1 233.10460461557005 193.86472020444995" fill-opacity="0.3" stroke-linejoin="bevel" stroke-miterlimit="10"/><path fill="blue" stroke="blue" paint-order="fill stroke markers" d=" M 239.571297603871 201.42964819130782 A 2.5 2.5 0 1 1 239.5712963538711 201.42714819172448" fill-opacity="0.3" stroke-linejoin="bevel" stroke-miterlimit="10"/><path fill="blue" stroke="blue" paint-order="fill stroke markers" d=" M 246.17143545662748 209.21963447923304 A 2.5 2.5 0 1 1 246.1714342066276 209.2171344796497" fill-opacity="0.3" stroke-linejoin="bevel" stroke-miterlimit="10"/><path fill="blue" stroke="blue" paint-order="fill stroke markers" d=" M 252.90478896807545 213.36639981532267 A 2.5 2.5 0 1 1 252.90478771807557 213.36389981573933" fill-opacity="0.3" stroke-linejoin="bevel" stroke-miterlimit="10"/><path fill="blue" stroke="blue" paint-order="fill stroke markers" d=" M 259.7714722022144 219.2419356750471 A 2.5 2.5 0 1 1 259.7714709522145 219.23943567546377" fill-opacity="0.3" stroke-linejoin="bevel" stroke-miterlimit="10"/><path fill="blue" stroke="blue" paint-order="fill stroke markers" d=" M 266.7714851590444 226.58218433069783 A 2.5 2.5 0 1 1 266.7714839090445 226.5796843311145" fill-opacity="0.3" stroke-linejoin="bevel" stroke-miterlimit="10"/><path fill="blue" stroke="blue" paint-order="fill stroke markers" d=" M 273.9048278385652 236.09158476325285 A 2.5 2.5 0 1 1 273.9048265885653 236.08908476366952" fill-opacity="0.3" stroke-linejoin="bevel" stroke-miterlimit="10"/><path fill="blue" stroke="blue" paint-order="fill stroke markers" d=" M 281.1715002407771 244.1003429748405 A 2.5 2.5 0 1 1 281.1714989907772 244.09784297525715" fill-opacity="0.3" stroke-linejoin="bevel" stroke-miterlimit="10"/><path fill="blue" stroke="blue" paint-order="fill stroke markers" d=" M 288.5715023656801 249.14381962142818 A 2.5 2.5 0 1 1 288.5715011156802 249.14131962184484" fill-opacity="0.3" stroke-linejoin="bevel" stroke-miterlimit="10"/><path fill="blue" stroke="blue" paint-order="fill stroke markers" d=" M 296.1048342132739 258.9106407891793 A 2.5 2.5 0 1 1 296.10483296327396 258.90814078959596" fill-opacity="0.3" stroke-linejoin="bevel" stroke-miterlimit="10"/><path fill="blue" stroke="blue" paint-order="fill stroke markers" d=" M 303.77136076967435 265.9784654661165 A 2.5 2.5 0 1 1 303.77135951967443 265.9759654665332" fill-opacity="0.3" stroke-linejoin="bevel" stroke-miterlimit="10"/><path fill="blue" stroke="blue" paint-order="fill stroke markers" d=" M 311.5713497348852 274.48139219557686 A 2.5 2.5 0 1 1 311.5713484848853 274.4788921959935" fill-opacity="0.3" stroke-linejoin="bevel" stroke-miterlimit="10"/><path fill="blue" stroke="blue" paint-order="fill stroke markers" d=" M 319.5045287534133 277.3660822913905 A 2.5 2.5 0 1 1 319.5045275034134 277.3635822918072" fill-opacity="0.3" stroke-linejoin="bevel" stroke-miterlimit="10"/><path fill="blue" stroke="blue" paint-order="fill stroke markers" d=" M 327.57103283914313 287.5355147861451 A 2.5 2.5 0 1 1 327.5710315891432 287.53301478656175" fill-opacity="0.3" stroke-linejoin="bevel" stroke-miterlimit="10"/><path fill="blue" stroke="blue" paint-order="fill stroke markers" d=" M 335.77100631689694 299.74191942252605 A 2.5 2.5 0 1 1 335.77100506689703 299.7394194229427" fill-opacity="0.3" stroke-linejoin="bevel" stroke-miterlimit="10"/><path fill="blue" stroke="blue" paint-order="fill stroke markers" d=" M 344.10416286475436 307.3386479906741 A 2.5 2.5 0 1 1 344.10416161475445 307.33614799109074" fill-opacity="0.3" stroke-linejoin="bevel" stroke-miterlimit="10"/><path fill="blue" stroke="blue" paint-order="fill stroke markers" d=" M 352.5706444798135 315.8846771969536 A 2.5 2.5 0 1 1 352.5706432298136 315.88217719737025" fill-opacity="0.3" stroke-linejoin="bevel" stroke-miterlimit="10"/><path fill="blue" stroke="blue" paint-order="fill stroke markers" d=" M 361.17029985407885 323.65347301793133 A 2.5 2.5 0 1 1 361.17029860407894 323.650973018348" fill-opacity="0.3" stroke-linejoin="bevel" stroke-miterlimit="10"/><path fill="blue" stroke="blue" paint-order="fill stroke markers" d=" M 369.9034292758169 334.9985982703307 A 2.5 2.5 0 1 1 369.903428025817 334.9960982707474" fill-opacity="0.3" stroke-linejoin="bevel" stroke-miterlimit="10"/><path fill="blue" stroke="blue" paint-order="fill stroke markers" d=" M 378.7698837647566 340.7897983385874 A 2.5 2.5 0 1 1 378.7698825147567 340.78729833900405" fill-opacity="0.3" stroke-linejoin="bevel" stroke-miterlimit="10"/><path fill="blue" stroke="blue" paint-order="fill stroke markers" d=" M 387.7695050297702 352.8278124197416 A 2.5 2.5 0 1 1 387.7695037797703 352.82531242015824" fill-opacity="0.3" stroke-linejoin="bevel" stroke-miterlimit="10"/><path fill="blue" stroke="blue" paint-order="fill stroke markers" d=" M 396.90260732538883 358.9575892180201 A 2.5 2.5 0 1 1 396.9026060753889 358.95508921843674" fill-opacity="0.3" stroke-linejoin="bevel" stroke-miterlimit="10"/><path fill="blue" stroke="blue" paint-order="fill stroke markers" d=" M 406.16887174167323 370.21312548799597 A 2.5 2.5 0 1 1 406.1688704916733 370.21062548841263" fill-opacity="0.3" stroke-linejoin="bevel" stroke-miterlimit="10"/><path fill="blue" stroke="blue" paint-order="fill stroke markers" d=" M 415.56845656975133 378.61019549282105 A 2.5 2.5 0 1 1 415.5684553197514 378.6076954932377" fill-opacity="0.3" stroke-linejoin="bevel" stroke-miterlimit="10"/><path fill="blue" stroke="blue" paint-order="fill stroke markers" d=" M 425.10136180962314 390.8571530218519 A 2.5 2.5 0 1 1 425.10136055962323 390.85465302226856" fill-opacity="0.3" stroke-linejoin="bevel" stroke-miterlimit="10"/><path fill="blue" stroke="blue" paint-order="fill stroke markers" d=" M 434.7675874612885 398.90089422966594 A 2.5 2.5 0 1 1 434.7675862112886 398.8983942300826" fill-opacity="0.3" stroke-linejoin="bevel" stroke-miterlimit="10"/><path fill="blue" stroke="blue" paint-order="fill stroke markers" d=" M 444.56713352474736 408.7479855972467 A 2.5 2.5 0 1 1 444.56713227474745 408.7454855976634" fill-opacity="0.3" stroke-linejoin="bevel" stroke-miterlimit="10"/><path fill="blue" stroke="blue" paint-order="fill stroke markers" d=" M 454.4999999999999 420.5454545454543 A 2.5 2.5 0 1 1 454.49999875 420.54295454587094" fill-opacity="0.3" stroke-linejoin="bevel" stroke-miterlimit="10"/></g></g></g><g clip-path="url(#KTMtnnrWOmNU)"><g><g><path fill="none" stroke="none"/><path fill="none" stroke="red" paint-order="fill stroke markers" d=" M 92.00000000000003 53.303822553039595 L 94.06677597632314 55.40183341103 L 96.26689191769985 57.635199381374946 L 98.60033106353627 60.00390345017979 L 101.0671613873562 62.508014618242555 L 103.6672888435927 65.14743741869904 L 106.40075533374268 67.9222143862977 L 109.26756085780613 70.83234552103852 L 112.26770541578304 73.8778308229214 L 115.40118900767342 77.05867029194621 L 118.6680116334773 80.3748639281132 L 122.06817329319462 83.82641173142213 L 125.60167398682543 87.41331370187311 L 129.2684485344102 91.13550367445146 L 133.06862496802165 94.99311161616004 L 137.0021404355466 98.98607372501056 L 141.0689227735274 103.11431674694973 L 145.269113981033 107.37798482705762 L 149.60264422245206 111.77700707430756 L 154.06943435082883 116.31130314560755 L 158.6695588574672 120.98094865803762 L 163.40310154493417 125.78602868066037 L 168.2698971359013 130.7263754383357 L 173.27002710513003 135.802071637141 L 178.4035822386449 141.01320943513667 L 183.67038329220242 146.35960687918725 L 189.07051872402153 151.8413537643679 L 194.6039885341022 157.45845009067853 L 200.27079272244447 163.21089585811922 L 206.07082886399567 169.09858709370235 L 212.0042994810555 175.1217293804175 L 218.0711044763769 181.2802211082626 L 224.27113444153096 187.57395121533557 L 230.60460586556994 194.00313946245512 L 237.071297603871 200.56756136287288 L 243.67143545662748 207.26744612926723 L 250.40478896807545 214.10255982303 L 257.2714722022144 221.07301823199316 L 264.2714851590444 228.17882135615673 L 271.4048278385652 235.4199691955206 L 278.6715002407771 242.7964617500851 L 286.0715023656801 250.3082990198501 L 293.6048342132739 257.9554810048154 L 301.27136076967435 265.73787065065164 L 309.0713497348852 273.6557397030738 L 317.0045287534133 281.7088116905197 L 325.07103283914313 289.89722366731917 L 333.27100631689694 298.2211221394541 L 341.60416286475436 306.680216457863 L 350.0706444798135 315.27465076562544 L 358.67029985407885 324.00427146805043 L 367.4034292758169 332.8693833916167 L 376.2698837647566 341.8698353045363 L 385.2695050297702 351.0054665234509 L 394.40260732538883 360.2765960521742 L 403.66887174167323 369.6829001611284 L 413.06845656975133 379.2245395336711 L 422.60136180962314 388.90151416980257 L 432.2675874612885 398.7138240695233 L 442.06713352474736 408.66146923283236 L 451.9999999999999 418.74444965973066" stroke-linejoin="bevel" stroke-miterlimit="10" stroke-width="3"/></g></g></g><g clip-path="url(#qeZlgirqGcRE)"><g><g/><g><path fill="#ffffff" stroke="#e5e5e5" paint-order="fill stroke markers" d=" M 358.6166648864746 43 L 460 43 L 460 106 L 358.6166648864746 106 L 358.6166648864746 43 Z" fill-opacity="0.95" stroke-linejoin="bevel" stroke-miterlimit="10" stroke-opacity="0.5"/><text fill="#444444" stroke="none" font-family="helvetica" font-size="13px" font-style="normal" font-weight="normal" text-decoration="normal" x="393.6166648864746" y="63" text-anchor="start" dominant-baseline="central">Observed</text><path fill="blue" stroke="blue" paint-order="fill stroke markers" d=" M 382.6166648864746 63 A 4 4 0 1 1 382.6166628864748 62.99600000066666" fill-opacity="0.3" stroke-linejoin="bevel" stroke-miterlimit="10"/><text fill="#444444" stroke="none" font-family="helvetica" font-size="13px" font-style="normal" font-weight="normal" text-decoration="normal" x="393.6166648864746" y="86" text-anchor="start" dominant-baseline="central">Predicted</text><g><path fill="none" stroke="red" paint-order="fill stroke markers" d=" M 368.6166648864746 86 L 388.6166648864746 86" stroke-linejoin="bevel" stroke-miterlimit="10" stroke-width="3"/></g></g></g></g><g><g fill="#444444"><path fill="" stroke="none" d=""/><g transform="translate(272,5)"><path fill="none" stroke="none"/><text fill="" stroke="none" font-family="helvetica" font-size="12pt" font-style="normal" font-weight="bold" text-decoration="normal" x="0" y="0" text-anchor="middle" dominant-baseline="text-before-edge">Guinier plot for SASDC29 (R²=1.00)</text></g></g></g><g/><g><g fill="#444444"><path fill="none" stroke="black" paint-order="fill stroke markers" d=" M 74 439 L 470 439" stroke-linejoin="bevel" stroke-miterlimit="10"/><path fill="none" stroke="black" paint-order="fill stroke markers" d=" M 77 445 L 77 437" stroke-linejoin="bevel" stroke-miterlimit="10"/><path fill="none" stroke="black" paint-order="fill stroke markers" d=" M 179 445 L 179 437" stroke-linejoin="bevel" stroke-miterlimit="10"/><path fill="none" stroke="black" paint-order="fill stroke markers" d=" M 280 445 L 280 437" stroke-linejoin="bevel" stroke-miterlimit="10"/><path fill="none" stroke="black" paint-order="fill stroke markers" d=" M 382 445 L 382 437" stroke-linejoin="bevel" stroke-miterlimit="10"/><path fill="none" stroke="black" paint-order="fill stroke markers" d=" M 77 443 L 77 439" stroke-linejoin="bevel" stroke-miterlimit="10"/><path fill="none" stroke="black" paint-order="fill stroke markers" d=" M 97 443 L 97 439" stroke-linejoin="bevel" stroke-miterlimit="10"/><path fill="none" stroke="black" paint-order="fill stroke markers" d=" M 118 443 L 118 439" stroke-linejoin="bevel" stroke-miterlimit="10"/><path fill="none" stroke="black" paint-order="fill stroke markers" d=" M 138 443 L 138 439" stroke-linejoin="bevel" stroke-miterlimit="10"/><path fill="none" stroke="black" paint-order="fill stroke markers" d=" M 158 443 L 158 439" stroke-linejoin="bevel" stroke-miterlimit="10"/><path fill="none" stroke="black" paint-order="fill stroke markers" d=" M 179 443 L 179 439" stroke-linejoin="bevel" stroke-miterlimit="10"/><path fill="none" stroke="black" paint-order="fill stroke markers" d=" M 199 443 L 199 439" stroke-linejoin="bevel" stroke-miterlimit="10"/><path fill="none" stroke="black" paint-order="fill stroke markers" d=" M 219 443 L 219 439" stroke-linejoin="bevel" stroke-miterlimit="10"/><path fill="none" stroke="black" paint-order="fill stroke markers" d=" M 240 443 L 240 439" stroke-linejoin="bevel" stroke-miterlimit="10"/><path fill="none" stroke="black" paint-order="fill stroke markers" d=" M 260 443 L 260 439" stroke-linejoin="bevel" stroke-miterlimit="10"/><path fill="none" stroke="black" paint-order="fill stroke markers" d=" M 280 443 L 280 439" stroke-linejoin="bevel" stroke-miterlimit="10"/><path fill="none" stroke="black" paint-order="fill stroke markers" d=" M 301 443 L 301 439" stroke-linejoin="bevel" stroke-miterlimit="10"/><path fill="none" stroke="black" paint-order="fill stroke markers" d=" M 321 443 L 321 439" stroke-linejoin="bevel" stroke-miterlimit="10"/><path fill="none" stroke="black" paint-order="fill stroke markers" d=" M 341 443 L 341 439" stroke-linejoin="bevel" stroke-miterlimit="10"/><path fill="none" stroke="black" paint-order="fill stroke markers" d=" M 361 443 L 361 439" stroke-linejoin="bevel" stroke-miterlimit="10"/><path fill="none" stroke="black" paint-order="fill stroke markers" d=" M 382 443 L 382 439" stroke-linejoin="bevel" stroke-miterlimit="10"/><path fill="none" stroke="black" paint-order="fill stroke markers" d=" M 402 443 L 402 439" stroke-linejoin="bevel" stroke-miterlimit="10"/><path fill="none" stroke="black" paint-order="fill stroke markers" d=" M 422 443 L 422 439" stroke-linejoin="bevel" stroke-miterlimit="10"/><path fill="none" stroke="black" paint-order="fill stroke markers" d=" M 443 443 L 443 439" stroke-linejoin="bevel" stroke-miterlimit="10"/><path fill="" stroke="black" paint-order="fill stroke markers" d=" M 463 443 L 463 439" stroke-linejoin="bevel" stroke-miterlimit="10"/><g transform="translate(77,450) rotate(0,0,0)"><text fill="" stroke="none" font-family="helvetica" font-size="14pt" font-style="normal" font-weight="normal" text-decoration="normal" x="0" y="0" text-anchor="middle" dominant-baseline="hanging">0</text><g transform="rotate(0,0,0) translate(-77,-450) translate(179,450) rotate(0,0,0)"><text fill="" stroke="none" font-family="helvetica" font-size="14pt" font-style="normal" font-weight="normal" text-decoration="normal" x="0" y="0" text-anchor="middle" dominant-baseline="hanging">5</text><g transform="rotate(0,0,0) translate(-179,-450) translate(280,450) rotate(0,0,0)"><text fill="" stroke="none" font-family="helvetica" font-size="14pt" font-style="normal" font-weight="normal" text-decoration="normal" x="0" y="0" text-anchor="middle" dominant-baseline="hanging">10</text><g transform="rotate(0,0,0) translate(-280,-450) translate(382,450) rotate(0,0,0)"><text fill="" stroke="none" font-family="helvetica" font-size="14pt" font-style="normal" font-weight="normal" text-decoration="normal" x="0" y="0" text-anchor="middle" dominant-baseline="hanging">15</text><g transform="rotate(0,0,0) translate(-382,-450) translate(272,477) rotate(0,0,0)"><text fill="" stroke="none" font-family="helvetica" font-size="14pt" font-style="italic" font-weight="normal" text-decoration="normal" x="0" y="0" text-anchor="middle" dominant-baseline="hanging">q² [nm ²]</text><g transform="rotate(0,0,0) translate(-272,-477)"/></g></g></g></g></g></g></g><g><g fill="#444444"><path fill="none" stroke="black" paint-order="fill stroke markers" d=" M 74 439 L 74 33" stroke-linejoin="bevel" stroke-miterlimit="10"/><path fill="none" stroke="black" paint-order="fill stroke markers" d=" M 68 394 L 76 394" stroke-linejoin="bevel" stroke-miterlimit="10"/><path fill="none" stroke="black" paint-order="fill stroke markers" d=" M 68 322 L 76 322" stroke-linejoin="bevel" stroke-miterlimit="10"/><path fill="none" stroke="black" paint-order="fill stroke markers" d=" M 68 250 L 76 250" stroke-linejoin="bevel" stroke-miterlimit="10"/><path fill="none" stroke="black" paint-order="fill stroke markers" d=" M 68 178 L 76 178" stroke-linejoin="bevel" stroke-miterlimit="10"/><path fill="none" stroke="black" paint-order="fill stroke markers" d=" M 68 105 L 76 105" stroke-linejoin="bevel" stroke-miterlimit="10"/><path fill="none" stroke="black" paint-order="fill stroke markers" d=" M 68 33 L 76 33" stroke-linejoin="bevel" stroke-miterlimit="10"/><path fill="none" stroke="black" paint-order="fill stroke markers" d=" M 70 409 L 74 409" stroke-linejoin="bevel" stroke-miterlimit="10"/><path fill="none" stroke="black" paint-order="fill stroke markers" d=" M 70 423 L 74 423" stroke-linejoin="bevel" stroke-miterlimit="10"/><path fill="none" stroke="black" paint-order="fill stroke markers" d=" M 70 438 L 74 438" stroke-linejoin="bevel" stroke-miterlimit="10"/><path fill="none" stroke="black" paint-order="fill stroke markers" d=" M 70 394 L 74 394" stroke-linejoin="bevel" stroke-miterlimit="10"/><path fill="none" stroke="black" paint-order="fill stroke markers" d=" M 70 380 L 74 380" stroke-linejoin="bevel" stroke-miterlimit="10"/><path fill="none" stroke="black" paint-order="fill stroke markers" d=" M 70 365 L 74 365" stroke-linejoin="bevel" stroke-miterlimit="10"/><path fill="none" stroke="black" paint-order="fill stroke markers" d=" M 70 351 L 74 351" stroke-linejoin="bevel" stroke-miterlimit="10"/><path fill="none" stroke="black" paint-order="fill stroke markers" d=" M 70 336 L 74 336" stroke-linejoin="bevel" stroke-miterlimit="10"/><path fill="none" stroke="black" paint-order="fill stroke markers" d=" M 70 322 L 74 322" stroke-linejoin="bevel" stroke-miterlimit="10"/><path fill="none" stroke="black" paint-order="fill stroke markers" d=" M 70 308 L 74 308" stroke-linejoin="bevel" stroke-miterlimit="10"/><path fill="none" stroke="black" paint-order="fill stroke markers" d=" M 70 293 L 74 293" stroke-linejoin="bevel" stroke-miterlimit="10"/><path fill="none" stroke="black" paint-order="fill stroke markers" d=" M 70 279 L 74 279" stroke-linejoin="bevel" stroke-miterlimit="10"/><path fill="none" stroke="black" paint-order="fill stroke markers" d=" M 70 264 L 74 264" stroke-linejoin="bevel" stroke-miterlimit="10"/><path fill="none" stroke="black" paint-order="fill stroke markers" d=" M 70 250 L 74 250" stroke-linejoin="bevel" stroke-miterlimit="10"/><path fill="none" stroke="black" paint-order="fill stroke markers" d=" M 70 235 L 74 235" stroke-linejoin="bevel" stroke-miterlimit="10"/><path fill="none" stroke="black" paint-order="fill stroke markers" d=" M 70 221 L 74 221" stroke-linejoin="bevel" stroke-miterlimit="10"/><path fill="none" stroke="black" paint-order="fill stroke markers" d=" M 70 206 L 74 206" stroke-linejoin="bevel" stroke-miterlimit="10"/><path fill="none" stroke="black" paint-order="fill stroke markers" d=" M 70 192 L 74 192" stroke-linejoin="bevel" stroke-miterlimit="10"/><path fill="none" stroke="black" paint-order="fill stroke markers" d=" M 70 178 L 74 178" stroke-linejoin="bevel" stroke-miterlimit="10"/><path fill="none" stroke="black" paint-order="fill stroke markers" d=" M 70 163 L 74 163" stroke-linejoin="bevel" stroke-miterlimit="10"/><path fill="none" stroke="black" paint-order="fill stroke markers" d=" M 70 149 L 74 149" stroke-linejoin="bevel" stroke-miterlimit="10"/><path fill="none" stroke="black" paint-order="fill stroke markers" d=" M 70 134 L 74 134" stroke-linejoin="bevel" stroke-miterlimit="10"/><path fill="none" stroke="black" paint-order="fill stroke markers" d=" M 70 120 L 74 120" stroke-linejoin="bevel" stroke-miterlimit="10"/><path fill="none" stroke="black" paint-order="fill stroke markers" d=" M 70 105 L 74 105" stroke-linejoin="bevel" stroke-miterlimit="10"/><path fill="none" stroke="black" paint-order="fill stroke markers" d=" M 70 91 L 74 91" stroke-linejoin="bevel" stroke-miterlimit="10"/><path fill="none" stroke="black" paint-order="fill stroke markers" d=" M 70 77 L 74 77" stroke-linejoin="bevel" stroke-miterlimit="10"/><path fill="none" stroke="black" paint-order="fill stroke markers" d=" M 70 62 L 74 62" stroke-linejoin="bevel" stroke-miterlimit="10"/><path fill="none" stroke="black" paint-order="fill stroke markers" d=" M 70 48 L 74 48" stroke-linejoin="bevel" stroke-miterlimit="10"/><path fill="" stroke="black" paint-order="fill stroke markers" d=" M 70 33 L 74 33" stroke-linejoin="bevel" stroke-miterlimit="10"/><g transform="translate(63,394) rotate(0,0,0)"><text fill="" stroke="none" font-family="helvetica" font-size="14pt" font-style="normal" font-weight="normal" text-decoration="normal" x="0" y="0" text-anchor="end" dominant-baseline="central">-1.5</text><g transform="rotate(0,0,0) translate(-63,-394) translate(63,322) rotate(0,0,0)"><text fill="" stroke="none" font-family="helvetica" font-size="14pt" font-style="normal" font-weight="normal" text-decoration="normal" x="0" y="0" text-anchor="end" dominant-baseline="central">-1.4</text><g transform="rotate(0,0,0) translate(-63,-322) translate(63,250) rotate(0,0,0)"><text fill="" stroke="none" font-family="helvetica" font-size="14pt" font-style="normal" font-weight="normal" text-decoration="normal" x="0" y="0" text-anchor="end" dominant-baseline="central">-1.3</text><g transform="rotate(0,0,0) translate(-63,-250) translate(63,178) rotate(0,0,0)"><text fill="" stroke="none" font-family="helvetica" font-size="14pt" font-style="normal" font-weight="normal" text-decoration="normal" x="0" y="0" text-anchor="end" dominant-baseline="central">-1.2</text><g transform="rotate(0,0,0) translate(-63,-178) translate(63,105) rotate(0,0,0)"><text fill="" stroke="none" font-family="helvetica" font-size="14pt" font-style="normal" font-weight="normal" text-decoration="normal" x="0" y="0" text-anchor="end" dominant-baseline="central">-1.1</text><g transform="rotate(0,0,0) translate(-63,-105) translate(63,33) rotate(0,0,0)"><text fill="" stroke="none" font-family="helvetica" font-size="14pt" font-style="normal" font-weight="normal" text-decoration="normal" x="0" y="0" text-anchor="end" dominant-baseline="central">-1</text><g transform="rotate(0,0,0) translate(-63,-33) translate(23,236) rotate(-90,0,0)"><text fill="" stroke="none" font-family="helvetica" font-size="14pt" font-style="italic" font-weight="normal" text-decoration="normal" x="0" y="0" text-anchor="middle" dominant-baseline="alphabetic">Log I(q)</text><g transform="rotate(90,0,0) translate(-23,-236)"/></g></g></g></g></g></g></g></g></g><g clip-path="url(#UPyWgzyoHMXQ)"><g/></g></g></svg>