<svg version="1.1" xmlns="http://www.w3.org/2000/svg" xmlns:xlink="http://www.w3.org/1999/xlink" width="500" height="500" style="width: 500px; height: 500px;"><defs><clipPath id="TziaqropzDCP"><path fill="none" stroke="none" d=" M 97 33 L 470 33 L 470 439 L 97 439 L 97 33 Z"/></clipPath><clipPath id="nTwpdMadNTRa"><path fill="none" stroke="none" d=" M 97 33 L 470 33 L 470 439 L 97 439 L 97 33 Z"/></clipPath><clipPath id="tHAUxeZExqld"><path fill="none" stroke="none" d=" M 97 33 L 470 33 L 470 439 L 97 439 L 97 33 Z"/></clipPath><clipPath id="AbkgTZTUbNDT"><path fill="none" stroke="none" d=" M 97 33 L 470 33 L 470 439 L 97 439 L 97 33 Z"/></clipPath><clipPath id="GGeCwfZXekHA"><path fill="none" stroke="none" d=" M 97 33 L 470 33 L 470 439 L 97 439 L 97 33 Z"/></clipPath><clipPath id="HzWdRTaFBIbS"><path fill="none" stroke="none" d=" M 97 33 L 470 33 L 470 439 L 97 439 L 97 33 Z"/></clipPath><clipPath id="yTURBTXINOHL"><path fill="none" stroke="none" d=" M 97 33 L 470 33 L 470 439 L 97 439 L 97 33 Z"/></clipPath><clipPath id="EgmmvNMUzqvz"><path fill="none" stroke="none" d=" M 97 33 L 470 33 L 470 439 L 97 439 L 97 33 Z"/></clipPath><clipPath id="xasIGwkVumKn"><path fill="none" stroke="none" d=" M 97 33 L 470 33 L 470 439 L 97 439 L 97 33 Z"/></clipPath><clipPath id="EqTTpcCwoutW"><path fill="none" stroke="none" d=" M 97 33 L 470 33 L 470 439 L 97 439 L 97 33 Z"/></clipPath></defs><g transform="scale(1,1) translate(0.5,0.5) scale(1,1) translate(0.5,0.5)"><rect fill="#ffffff" stroke="none" x="0" y="0" width="500" height="500"/><rect fill="#FFFFFF" stroke="none" x="97" y="33" width="373" height="406"/><rect fill="#ffffff" stroke="none" x="97" y="33" width="373" height="406"/><g><rect fill="none" stroke="#e5e5e5" x="97" y="33" width="373" height="406" stroke-linejoin="bevel" stroke-miterlimit="10"/></g><g clip-path="url(#HzWdRTaFBIbS)"><g><g><path fill="none" stroke="#e5e5e5" paint-order="fill stroke markers" d=" M 189 439 L 189 33" stroke-linejoin="bevel" stroke-miterlimit="10"/><path fill="none" stroke="#e5e5e5" paint-order="fill stroke markers" d=" M 287 439 L 287 33" stroke-linejoin="bevel" stroke-miterlimit="10"/><path fill="none" stroke="#e5e5e5" paint-order="fill stroke markers" d=" M 385 439 L 385 33" stroke-linejoin="bevel" stroke-miterlimit="10"/></g></g></g><g clip-path="url(#yTURBTXINOHL)"><g><g><path fill="none" stroke="#e5e5e5" paint-order="fill stroke markers" d=" M 97 395 L 470 395" stroke-linejoin="bevel" stroke-miterlimit="10"/><path fill="none" stroke="#e5e5e5" paint-order="fill stroke markers" d=" M 97 333 L 470 333" stroke-linejoin="bevel" stroke-miterlimit="10"/><path fill="none" stroke="#e5e5e5" paint-order="fill stroke markers" d=" M 97 270 L 470 270" stroke-linejoin="bevel" stroke-miterlimit="10"/><path fill="none" stroke="#e5e5e5" paint-order="fill stroke markers" d=" M 97 208 L 470 208" stroke-linejoin="bevel" stroke-miterlimit="10"/><path fill="none" stroke="#e5e5e5" paint-order="fill stroke markers" d=" M 97 145 L 470 145" stroke-linejoin="bevel" stroke-miterlimit="10"/><path fill="none" stroke="#e5e5e5" paint-order="fill stroke markers" d=" M 97 83 L 470 83" stroke-linejoin="bevel" stroke-miterlimit="10"/></g></g></g><g clip-path="url(#EgmmvNMUzqvz)"><g><g><path fill="none" stroke="none"/><path fill="blue" stroke="blue" paint-order="fill stroke markers" d=" M 116.45454545454547 411.02727222025493 A 2.5 2.5 0 1 1 116.45454420454557 411.0247722206716" fill-opacity="0.3" stroke-linejoin="bevel" stroke-miterlimit="10"/><path fill="blue" stroke="blue" paint-order="fill stroke markers" d=" M 118.96693847226346 296.55499185472814 A 2.5 2.5 0 1 1 118.96693722226357 296.5524918551448" fill-opacity="0.3" stroke-linejoin="bevel" stroke-miterlimit="10"/><path fill="blue" stroke="blue" paint-order="fill stroke markers" d=" M 121.60817024333977 215.67792909933428 A 2.5 2.5 0 1 1 121.60816899333987 215.67542909975094" fill-opacity="0.3" stroke-linejoin="bevel" stroke-miterlimit="10"/><path fill="blue" stroke="blue" paint-order="fill stroke markers" d=" M 124.37824007048987 379.55430347873516 A 2.5 2.5 0 1 1 124.37823882048997 379.55180347915183" fill-opacity="0.3" stroke-linejoin="bevel" stroke-miterlimit="10"/><path fill="blue" stroke="blue" paint-order="fill stroke markers" d=" M 127.27714820113866 51.45454545454541 A 2.5 2.5 0 1 1 127.27714695113876 51.452045454962075" fill-opacity="0.3" stroke-linejoin="bevel" stroke-miterlimit="10"/><path fill="blue" stroke="blue" paint-order="fill stroke markers" d=" M 130.30489335318242 147.03621436011727 A 2.5 2.5 0 1 1 130.3048921031825 147.03371436053393" fill-opacity="0.3" stroke-linejoin="bevel" stroke-miterlimit="10"/><path fill="blue" stroke="blue" paint-order="fill stroke markers" d=" M 133.46147631387998 323.99366767726474 A 2.5 2.5 0 1 1 133.4614750638801 323.9911676776814" fill-opacity="0.3" stroke-linejoin="bevel" stroke-miterlimit="10"/><path fill="blue" stroke="blue" paint-order="fill stroke markers" d=" M 136.7468957111562 346.9218879309389 A 2.5 2.5 0 1 1 136.74689446115633 346.9193879313556" fill-opacity="0.3" stroke-linejoin="bevel" stroke-miterlimit="10"/><path fill="blue" stroke="blue" paint-order="fill stroke markers" d=" M 140.16115120761748 420.5454545454545 A 2.5 2.5 0 1 1 140.1611499576176 420.54295454587117" fill-opacity="0.3" stroke-linejoin="bevel" stroke-miterlimit="10"/><path fill="blue" stroke="blue" paint-order="fill stroke markers" d=" M 143.7042430956756 316.63803740105925 A 2.5 2.5 0 1 1 143.7042418456757 316.6355374014759" fill-opacity="0.3" stroke-linejoin="bevel" stroke-miterlimit="10"/><path fill="blue" stroke="blue" paint-order="fill stroke markers" d=" M 147.37617045311808 368.923579090674 A 2.5 2.5 0 1 1 147.3761692031182 368.9210790910907" fill-opacity="0.3" stroke-linejoin="bevel" stroke-miterlimit="10"/><path fill="blue" stroke="blue" paint-order="fill stroke markers" d=" M 151.1769329425521 373.35447699972946 A 2.5 2.5 0 1 1 151.17693169255222 373.3519770001461" fill-opacity="0.3" stroke-linejoin="bevel" stroke-miterlimit="10"/><path fill="blue" stroke="blue" paint-order="fill stroke markers" d=" M 155.10653022658514 347.7287337418197 A 2.5 2.5 0 1 1 155.10652897658525 347.7262337422364" fill-opacity="0.3" stroke-linejoin="bevel" stroke-miterlimit="10"/><path fill="blue" stroke="blue" paint-order="fill stroke markers" d=" M 159.16496196782498 217.4010798548896 A 2.5 2.5 0 1 1 159.1649607178251 217.39857985530625" fill-opacity="0.3" stroke-linejoin="bevel" stroke-miterlimit="10"/><path fill="blue" stroke="blue" paint-order="fill stroke markers" d=" M 163.35222708661047 268.7700512213318 A 2.5 2.5 0 1 1 163.3522258366106 268.7675512217485" fill-opacity="0.3" stroke-linejoin="bevel" stroke-miterlimit="10"/><path fill="blue" stroke="blue" paint-order="fill stroke markers" d=" M 167.66832594283372 376.48434597133837 A 2.5 2.5 0 1 1 167.66832469283383 376.48184597175504" fill-opacity="0.3" stroke-linejoin="bevel" stroke-miterlimit="10"/><path fill="blue" stroke="blue" paint-order="fill stroke markers" d=" M 172.11325662459404 229.01333860504315 A 2.5 2.5 0 1 1 172.11325537459416 229.0108386054598" fill-opacity="0.3" stroke-linejoin="bevel" stroke-miterlimit="10"/><path fill="blue" stroke="blue" paint-order="fill stroke markers" d=" M 176.68702027903902 363.17449113495263 A 2.5 2.5 0 1 1 176.68701902903913 363.1719911353693" fill-opacity="0.3" stroke-linejoin="bevel" stroke-miterlimit="10"/><path fill="blue" stroke="blue" paint-order="fill stroke markers" d=" M 181.38961490429784 265.7274726889087 A 2.5 2.5 0 1 1 181.38961365429796 265.72497268932534" fill-opacity="0.3" stroke-linejoin="bevel" stroke-miterlimit="10"/><path fill="blue" stroke="blue" paint-order="fill stroke markers" d=" M 186.22104088275714 125.1843504566663 A 2.5 2.5 0 1 1 186.22103963275725 125.18185045708296" fill-opacity="0.3" stroke-linejoin="bevel" stroke-miterlimit="10"/><path fill="blue" stroke="blue" paint-order="fill stroke markers" d=" M 191.18129780954902 174.0283750466508 A 2.5 2.5 0 1 1 191.18129655954914 174.02587504706747" fill-opacity="0.3" stroke-linejoin="bevel" stroke-miterlimit="10"/><path fill="blue" stroke="blue" paint-order="fill stroke markers" d=" M 196.27038348037036 216.81682417823546 A 2.5 2.5 0 1 1 196.27038223037047 216.81432417865213" fill-opacity="0.3" stroke-linejoin="bevel" stroke-miterlimit="10"/><path fill="blue" stroke="blue" paint-order="fill stroke markers" d=" M 201.48829919981966 248.55585445413013 A 2.5 2.5 0 1 1 201.48829794981978 248.5533544545468" fill-opacity="0.3" stroke-linejoin="bevel" stroke-miterlimit="10"/><path fill="blue" stroke="blue" paint-order="fill stroke markers" d=" M 206.8350436183277 217.50415568053617 A 2.5 2.5 0 1 1 206.8350423683278 217.50165568095284" fill-opacity="0.3" stroke-linejoin="bevel" stroke-miterlimit="10"/><path fill="blue" stroke="blue" paint-order="fill stroke markers" d=" M 212.31061626355077 199.35552338187395 A 2.5 2.5 0 1 1 212.3106150135509 199.35302338229062" fill-opacity="0.3" stroke-linejoin="bevel" stroke-miterlimit="10"/><path fill="blue" stroke="blue" paint-order="fill stroke markers" d=" M 217.915015673458 85.00237994029382 A 2.5 2.5 0 1 1 217.9150144234581 84.99987994071049" fill-opacity="0.3" stroke-linejoin="bevel" stroke-miterlimit="10"/><path fill="blue" stroke="blue" paint-order="fill stroke markers" d=" M 223.64824130822961 313.95060605042204 A 2.5 2.5 0 1 1 223.64824005822973 313.9481060508387" fill-opacity="0.3" stroke-linejoin="bevel" stroke-miterlimit="10"/><path fill="blue" stroke="blue" paint-order="fill stroke markers" d=" M 229.5102936627195 213.784284093343 A 2.5 2.5 0 1 1 229.51029241271962 213.78178409375965" fill-opacity="0.3" stroke-linejoin="bevel" stroke-miterlimit="10"/><path fill="blue" stroke="blue" paint-order="fill stroke markers" d=" M 235.5011712074214 217.38913336427015 A 2.5 2.5 0 1 1 235.50116995742152 217.38663336468682" fill-opacity="0.3" stroke-linejoin="bevel" stroke-miterlimit="10"/><path fill="blue" stroke="blue" paint-order="fill stroke markers" d=" M 241.62087340251776 265.55230605751626 A 2.5 2.5 0 1 1 241.62087215251788 265.5498060579329" fill-opacity="0.3" stroke-linejoin="bevel" stroke-miterlimit="10"/><path fill="blue" stroke="blue" paint-order="fill stroke markers" d=" M 247.86939970819162 308.6908385466005 A 2.5 2.5 0 1 1 247.86939845819174 308.68833854701717" fill-opacity="0.3" stroke-linejoin="bevel" stroke-miterlimit="10"/><path fill="blue" stroke="blue" paint-order="fill stroke markers" d=" M 254.2467484599847 355.82401398631134 A 2.5 2.5 0 1 1 254.24674720998482 355.821513986728" fill-opacity="0.3" stroke-linejoin="bevel" stroke-miterlimit="10"/><path fill="blue" stroke="blue" paint-order="fill stroke markers" d=" M 260.75291905060476 239.26684186031517 A 2.5 2.5 0 1 1 260.75291780060485 239.26434186073183" fill-opacity="0.3" stroke-linejoin="bevel" stroke-miterlimit="10"/><path fill="blue" stroke="blue" paint-order="fill stroke markers" d=" M 267.3879120423876 191.73256267767056 A 2.5 2.5 0 1 1 267.3879107923877 191.73006267808722" fill-opacity="0.3" stroke-linejoin="bevel" stroke-miterlimit="10"/><path fill="blue" stroke="blue" paint-order="fill stroke markers" d=" M 274.1517257034005 201.78873789841606 A 2.5 2.5 0 1 1 274.15172445340056 201.78623789883272" fill-opacity="0.3" stroke-linejoin="bevel" stroke-miterlimit="10"/><path fill="blue" stroke="blue" paint-order="fill stroke markers" d=" M 281.04435942635405 299.9417780822418 A 2.5 2.5 0 1 1 281.04435817635414 299.93927808265846" fill-opacity="0.3" stroke-linejoin="bevel" stroke-miterlimit="10"/><path fill="blue" stroke="blue" paint-order="fill stroke markers" d=" M 288.0658113668566 327.22914826135025 A 2.5 2.5 0 1 1 288.0658101168567 327.2266482617669" fill-opacity="0.3" stroke-linejoin="bevel" stroke-miterlimit="10"/><path fill="blue" stroke="blue" paint-order="fill stroke markers" d=" M 295.21608210973994 220.19934507479468 A 2.5 2.5 0 1 1 295.21608085974003 220.19684507521134" fill-opacity="0.3" stroke-linejoin="bevel" stroke-miterlimit="10"/><path fill="blue" stroke="blue" paint-order="fill stroke markers" d=" M 302.49517104771746 311.9152912464267 A 2.5 2.5 0 1 1 302.49516979771755 311.91279124684337" fill-opacity="0.3" stroke-linejoin="bevel" stroke-miterlimit="10"/><path fill="blue" stroke="blue" paint-order="fill stroke markers" d=" M 309.90307496434485 280.85303159012403 A 2.5 2.5 0 1 1 309.90307371434494 280.8505315905407" fill-opacity="0.3" stroke-linejoin="bevel" stroke-miterlimit="10"/><path fill="blue" stroke="blue" paint-order="fill stroke markers" d=" M 317.4397957715288 306.0851425379526 A 2.5 2.5 0 1 1 317.4397945215289 306.08264253836927" fill-opacity="0.3" stroke-linejoin="bevel" stroke-miterlimit="10"/><path fill="blue" stroke="blue" paint-order="fill stroke markers" d=" M 325.10533016285905 82.07761964668376 A 2.5 2.5 0 1 1 325.10532891285914 82.07511964710042" fill-opacity="0.3" stroke-linejoin="bevel" stroke-miterlimit="10"/><path fill="blue" stroke="blue" paint-order="fill stroke markers" d=" M 332.8996787681571 167.77977145085532 A 2.5 2.5 0 1 1 332.8996775181572 167.777271451272" fill-opacity="0.3" stroke-linejoin="bevel" stroke-miterlimit="10"/><path fill="blue" stroke="blue" paint-order="fill stroke markers" d=" M 340.8228409126664 335.8559896129134 A 2.5 2.5 0 1 1 340.82283966266647 335.85348961333005" fill-opacity="0.3" stroke-linejoin="bevel" stroke-miterlimit="10"/><path fill="blue" stroke="blue" paint-order="fill stroke markers" d=" M 348.8748130875533 298.373754237411 A 2.5 2.5 0 1 1 348.8748118375534 298.37125423782766" fill-opacity="0.3" stroke-linejoin="bevel" stroke-miterlimit="10"/><path fill="blue" stroke="blue" paint-order="fill stroke markers" d=" M 357.05559880170495 296.15381946236903 A 2.5 2.5 0 1 1 357.05559755170503 296.1513194627857" fill-opacity="0.3" stroke-linejoin="bevel" stroke-miterlimit="10"/><path fill="blue" stroke="blue" paint-order="fill stroke markers" d=" M 365.3651930617762 254.4106822363933 A 2.5 2.5 0 1 1 365.3651918117763 254.40818223680998" fill-opacity="0.3" stroke-linejoin="bevel" stroke-miterlimit="10"/><path fill="blue" stroke="blue" paint-order="fill stroke markers" d=" M 373.8035950580651 361.7177804286657 A 2.5 2.5 0 1 1 373.8035938080652 361.7152804290824" fill-opacity="0.3" stroke-linejoin="bevel" stroke-miterlimit="10"/><path fill="blue" stroke="blue" paint-order="fill stroke markers" d=" M 382.3708069948828 222.57242547223012 A 2.5 2.5 0 1 1 382.3708057448829 222.5699254726468" fill-opacity="0.3" stroke-linejoin="bevel" stroke-miterlimit="10"/><path fill="blue" stroke="blue" paint-order="fill stroke markers" d=" M 391.06682513848546 348.16562484371764 A 2.5 2.5 0 1 1 391.06682388848554 348.1631248441343" fill-opacity="0.3" stroke-linejoin="bevel" stroke-miterlimit="10"/><path fill="blue" stroke="blue" paint-order="fill stroke markers" d=" M 399.8916486791757 211.96002332070194 A 2.5 2.5 0 1 1 399.8916474291758 211.9575233211186" fill-opacity="0.3" stroke-linejoin="bevel" stroke-miterlimit="10"/><path fill="blue" stroke="blue" paint-order="fill stroke markers" d=" M 408.84527838173875 291.9257173503051 A 2.5 2.5 0 1 1 408.84527713173884 291.92321735072176" fill-opacity="0.3" stroke-linejoin="bevel" stroke-miterlimit="10"/><path fill="blue" stroke="blue" paint-order="fill stroke markers" d=" M 417.9277103100111 242.2185828395683 A 2.5 2.5 0 1 1 417.9277090600112 242.21608283998498" fill-opacity="0.3" stroke-linejoin="bevel" stroke-miterlimit="10"/><path fill="blue" stroke="blue" paint-order="fill stroke markers" d=" M 427.1389452062895 353.40664263653247 A 2.5 2.5 0 1 1 427.1389439562896 353.40414263694913" fill-opacity="0.3" stroke-linejoin="bevel" stroke-miterlimit="10"/><path fill="blue" stroke="blue" paint-order="fill stroke markers" d=" M 436.47898226088364 276.65719941553385 A 2.5 2.5 0 1 1 436.47898101088373 276.6546994159505" fill-opacity="0.3" stroke-linejoin="bevel" stroke-miterlimit="10"/><path fill="blue" stroke="blue" paint-order="fill stroke markers" d=" M 445.9478189996589 272.167714430415 A 2.5 2.5 0 1 1 445.947817749659 272.16521443083167" fill-opacity="0.3" stroke-linejoin="bevel" stroke-miterlimit="10"/><path fill="blue" stroke="blue" paint-order="fill stroke markers" d=" M 455.54545454545456 346.29942606698233 A 2.5 2.5 0 1 1 455.54545329545465 346.296926067399" fill-opacity="0.3" stroke-linejoin="bevel" stroke-miterlimit="10"/></g></g></g><g clip-path="url(#xasIGwkVumKn)"><g><g><path fill="none" stroke="red" paint-order="fill stroke markers" d=" M 97 270.21710826751666 L 470 270.21710826751666" stroke-linejoin="bevel" stroke-miterlimit="10" stroke-width="3"/></g></g></g><g><g fill="#444444"><path fill="" stroke="none" d=""/><g transform="translate(283.5,5)"><path fill="none" stroke="none"/><text fill="" stroke="none" font-family="helvetica" font-size="12pt" font-style="normal" font-weight="bold" text-decoration="normal" x="0" y="0" text-anchor="middle" dominant-baseline="text-before-edge">Residuals for Guinier plot fit (SASDC29)</text></g></g></g><g/><g><g fill="#444444"><path fill="none" stroke="black" paint-order="fill stroke markers" d=" M 97 439 L 470 439" stroke-linejoin="bevel" stroke-miterlimit="10"/><path fill="none" stroke="black" paint-order="fill stroke markers" d=" M 189 445 L 189 437" stroke-linejoin="bevel" stroke-miterlimit="10"/><path fill="none" stroke="black" paint-order="fill stroke markers" d=" M 287 445 L 287 437" stroke-linejoin="bevel" stroke-miterlimit="10"/><path fill="none" stroke="black" paint-order="fill stroke markers" d=" M 385 445 L 385 437" stroke-linejoin="bevel" stroke-miterlimit="10"/><path fill="none" stroke="black" paint-order="fill stroke markers" d=" M 169 443 L 169 439" stroke-linejoin="bevel" stroke-miterlimit="10"/><path fill="none" stroke="black" paint-order="fill stroke markers" d=" M 150 443 L 150 439" stroke-linejoin="bevel" stroke-miterlimit="10"/><path fill="none" stroke="black" paint-order="fill stroke markers" d=" M 130 443 L 130 439" stroke-linejoin="bevel" stroke-miterlimit="10"/><path fill="none" stroke="black" paint-order="fill stroke markers" d=" M 110 443 L 110 439" stroke-linejoin="bevel" stroke-miterlimit="10"/><path fill="none" stroke="black" paint-order="fill stroke markers" d=" M 189 443 L 189 439" stroke-linejoin="bevel" stroke-miterlimit="10"/><path fill="none" stroke="black" paint-order="fill stroke markers" d=" M 209 443 L 209 439" stroke-linejoin="bevel" stroke-miterlimit="10"/><path fill="none" stroke="black" paint-order="fill stroke markers" d=" M 228 443 L 228 439" stroke-linejoin="bevel" stroke-miterlimit="10"/><path fill="none" stroke="black" paint-order="fill stroke markers" d=" M 248 443 L 248 439" stroke-linejoin="bevel" stroke-miterlimit="10"/><path fill="none" stroke="black" paint-order="fill stroke markers" d=" M 267 443 L 267 439" stroke-linejoin="bevel" stroke-miterlimit="10"/><path fill="none" stroke="black" paint-order="fill stroke markers" d=" M 287 443 L 287 439" stroke-linejoin="bevel" stroke-miterlimit="10"/><path fill="none" stroke="black" paint-order="fill stroke markers" d=" M 307 443 L 307 439" stroke-linejoin="bevel" stroke-miterlimit="10"/><path fill="none" stroke="black" paint-order="fill stroke markers" d=" M 326 443 L 326 439" stroke-linejoin="bevel" stroke-miterlimit="10"/><path fill="none" stroke="black" paint-order="fill stroke markers" d=" M 346 443 L 346 439" stroke-linejoin="bevel" stroke-miterlimit="10"/><path fill="none" stroke="black" paint-order="fill stroke markers" d=" M 366 443 L 366 439" stroke-linejoin="bevel" stroke-miterlimit="10"/><path fill="none" stroke="black" paint-order="fill stroke markers" d=" M 385 443 L 385 439" stroke-linejoin="bevel" stroke-miterlimit="10"/><path fill="none" stroke="black" paint-order="fill stroke markers" d=" M 405 443 L 405 439" stroke-linejoin="bevel" stroke-miterlimit="10"/><path fill="none" stroke="black" paint-order="fill stroke markers" d=" M 424 443 L 424 439" stroke-linejoin="bevel" stroke-miterlimit="10"/><path fill="none" stroke="black" paint-order="fill stroke markers" d=" M 444 443 L 444 439" stroke-linejoin="bevel" stroke-miterlimit="10"/><path fill="" stroke="black" paint-order="fill stroke markers" d=" M 464 443 L 464 439" stroke-linejoin="bevel" stroke-miterlimit="10"/><g transform="translate(189,450) rotate(0,0,0)"><text fill="" stroke="none" font-family="helvetica" font-size="14pt" font-style="normal" font-weight="normal" text-decoration="normal" x="0" y="0" text-anchor="middle" dominant-baseline="hanging">0.05</text><g transform="rotate(0,0,0) translate(-189,-450) translate(287,450) rotate(0,0,0)"><text fill="" stroke="none" font-family="helvetica" font-size="14pt" font-style="normal" font-weight="normal" text-decoration="normal" x="0" y="0" text-anchor="middle" dominant-baseline="hanging">0.1</text><g transform="rotate(0,0,0) translate(-287,-450) translate(385,450) rotate(0,0,0)"><text fill="" stroke="none" font-family="helvetica" font-size="14pt" font-style="normal" font-weight="normal" text-decoration="normal" x="0" y="0" text-anchor="middle" dominant-baseline="hanging">0.15</text><g transform="rotate(0,0,0) translate(-385,-450) translate(284,477) rotate(0,0,0)"><text fill="" stroke="none" font-family="helvetica" font-size="14pt" font-style="italic" font-weight="normal" text-decoration="normal" x="0" y="0" text-anchor="middle" dominant-baseline="hanging">q² Å⁻²</text><g transform="rotate(0,0,0) translate(-284,-477)"/></g></g></g></g></g></g><g><g fill="#444444"><path fill="none" stroke="black" paint-order="fill stroke markers" d=" M 97 439 L 97 33" stroke-linejoin="bevel" stroke-miterlimit="10"/><path fill="none" stroke="black" paint-order="fill stroke markers" d=" M 91 395 L 99 395" stroke-linejoin="bevel" stroke-miterlimit="10"/><path fill="none" stroke="black" paint-order="fill stroke markers" d=" M 91 333 L 99 333" stroke-linejoin="bevel" stroke-miterlimit="10"/><path fill="none" stroke="black" paint-order="fill stroke markers" d=" M 91 270 L 99 270" stroke-linejoin="bevel" stroke-miterlimit="10"/><path fill="none" stroke="black" paint-order="fill stroke markers" d=" M 91 208 L 99 208" stroke-linejoin="bevel" stroke-miterlimit="10"/><path fill="none" stroke="black" paint-order="fill stroke markers" d=" M 91 145 L 99 145" stroke-linejoin="bevel" stroke-miterlimit="10"/><path fill="none" stroke="black" paint-order="fill stroke markers" d=" M 91 83 L 99 83" stroke-linejoin="bevel" stroke-miterlimit="10"/><path fill="none" stroke="black" paint-order="fill stroke markers" d=" M 93 408 L 97 408" stroke-linejoin="bevel" stroke-miterlimit="10"/><path fill="none" stroke="black" paint-order="fill stroke markers" d=" M 93 420 L 97 420" stroke-linejoin="bevel" stroke-miterlimit="10"/><path fill="none" stroke="black" paint-order="fill stroke markers" d=" M 93 433 L 97 433" stroke-linejoin="bevel" stroke-miterlimit="10"/><path fill="none" stroke="black" paint-order="fill stroke markers" d=" M 93 395 L 97 395" stroke-linejoin="bevel" stroke-miterlimit="10"/><path fill="none" stroke="black" paint-order="fill stroke markers" d=" M 93 383 L 97 383" stroke-linejoin="bevel" stroke-miterlimit="10"/><path fill="none" stroke="black" paint-order="fill stroke markers" d=" M 93 370 L 97 370" stroke-linejoin="bevel" stroke-miterlimit="10"/><path fill="none" stroke="black" paint-order="fill stroke markers" d=" M 93 358 L 97 358" stroke-linejoin="bevel" stroke-miterlimit="10"/><path fill="none" stroke="black" paint-order="fill stroke markers" d=" M 93 345 L 97 345" stroke-linejoin="bevel" stroke-miterlimit="10"/><path fill="none" stroke="black" paint-order="fill stroke markers" d=" M 93 333 L 97 333" stroke-linejoin="bevel" stroke-miterlimit="10"/><path fill="none" stroke="black" paint-order="fill stroke markers" d=" M 93 320 L 97 320" stroke-linejoin="bevel" stroke-miterlimit="10"/><path fill="none" stroke="black" paint-order="fill stroke markers" d=" M 93 308 L 97 308" stroke-linejoin="bevel" stroke-miterlimit="10"/><path fill="none" stroke="black" paint-order="fill stroke markers" d=" M 93 295 L 97 295" stroke-linejoin="bevel" stroke-miterlimit="10"/><path fill="none" stroke="black" paint-order="fill stroke markers" d=" M 93 283 L 97 283" stroke-linejoin="bevel" stroke-miterlimit="10"/><path fill="none" stroke="black" paint-order="fill stroke markers" d=" M 93 270 L 97 270" stroke-linejoin="bevel" stroke-miterlimit="10"/><path fill="none" stroke="black" paint-order="fill stroke markers" d=" M 93 258 L 97 258" stroke-linejoin="bevel" stroke-miterlimit="10"/><path fill="none" stroke="black" paint-order="fill stroke markers" d=" M 93 245 L 97 245" stroke-linejoin="bevel" stroke-miterlimit="10"/><path fill="none" stroke="black" paint-order="fill stroke markers" d=" M 93 233 L 97 233" stroke-linejoin="bevel" stroke-miterlimit="10"/><path fill="none" stroke="black" paint-order="fill stroke markers" d=" M 93 220 L 97 220" stroke-linejoin="bevel" stroke-miterlimit="10"/><path fill="none" stroke="black" paint-order="fill stroke markers" d=" M 93 208 L 97 208" stroke-linejoin="bevel" stroke-miterlimit="10"/><path fill="none" stroke="black" paint-order="fill stroke markers" d=" M 93 195 L 97 195" stroke-linejoin="bevel" stroke-miterlimit="10"/><path fill="none" stroke="black" paint-order="fill stroke markers" d=" M 93 183 L 97 183" stroke-linejoin="bevel" stroke-miterlimit="10"/><path fill="none" stroke="black" paint-order="fill stroke markers" d=" M 93 170 L 97 170" stroke-linejoin="bevel" stroke-miterlimit="10"/><path fill="none" stroke="black" paint-order="fill stroke markers" d=" M 93 158 L 97 158" stroke-linejoin="bevel" stroke-miterlimit="10"/><path fill="none" stroke="black" paint-order="fill stroke markers" d=" M 93 145 L 97 145" stroke-linejoin="bevel" stroke-miterlimit="10"/><path fill="none" stroke="black" paint-order="fill stroke markers" d=" M 93 133 L 97 133" stroke-linejoin="bevel" stroke-miterlimit="10"/><path fill="none" stroke="black" paint-order="fill stroke markers" d=" M 93 120 L 97 120" stroke-linejoin="bevel" stroke-miterlimit="10"/><path fill="none" stroke="black" paint-order="fill stroke markers" d=" M 93 108 L 97 108" stroke-linejoin="bevel" stroke-miterlimit="10"/><path fill="none" stroke="black" paint-order="fill stroke markers" d=" M 93 95 L 97 95" stroke-linejoin="bevel" stroke-miterlimit="10"/><path fill="none" stroke="black" paint-order="fill stroke markers" d=" M 93 83 L 97 83" stroke-linejoin="bevel" stroke-miterlimit="10"/><path fill="none" stroke="black" paint-order="fill stroke markers" d=" M 93 70 L 97 70" stroke-linejoin="bevel" stroke-miterlimit="10"/><path fill="none" stroke="black" paint-order="fill stroke markers" d=" M 93 57 L 97 57" stroke-linejoin="bevel" stroke-miterlimit="10"/><path fill="" stroke="black" paint-order="fill stroke markers" d=" M 93 45 L 97 45" stroke-linejoin="bevel" stroke-miterlimit="10"/><g transform="translate(86,395) rotate(0,0,0)"><text fill="" stroke="none" font-family="helvetica" font-size="14pt" font-style="normal" font-weight="normal" text-decoration="normal" x="0" y="0" text-anchor="end" dominant-baseline="central">-0.004</text><g transform="rotate(0,0,0) translate(-86,-395) translate(86,333) rotate(0,0,0)"><text fill="" stroke="none" font-family="helvetica" font-size="14pt" font-style="normal" font-weight="normal" text-decoration="normal" x="0" y="0" text-anchor="end" dominant-baseline="central">-0.002</text><g transform="rotate(0,0,0) translate(-86,-333) translate(86,270) rotate(0,0,0)"><text fill="" stroke="none" font-family="helvetica" font-size="14pt" font-style="normal" font-weight="normal" text-decoration="normal" x="0" y="0" text-anchor="end" dominant-baseline="central">0</text><g transform="rotate(0,0,0) translate(-86,-270) translate(86,208) rotate(0,0,0)"><text fill="" stroke="none" font-family="helvetica" font-size="14pt" font-style="normal" font-weight="normal" text-decoration="normal" x="0" y="0" text-anchor="end" dominant-baseline="central">0.002</text><g transform="rotate(0,0,0) translate(-86,-208) translate(86,145) rotate(0,0,0)"><text fill="" stroke="none" font-family="helvetica" font-size="14pt" font-style="normal" font-weight="normal" text-decoration="normal" x="0" y="0" text-anchor="end" dominant-baseline="central">0.004</text><g transform="rotate(0,0,0) translate(-86,-145) translate(86,83) rotate(0,0,0)"><text fill="" stroke="none" font-family="helvetica" font-size="14pt" font-style="normal" font-weight="normal" text-decoration="normal" x="0" y="0" text-anchor="end" dominant-baseline="central">0.006</text><g transform="rotate(0,0,0) translate(-86,-83) translate(23,236) rotate(-90,0,0)"><text fill="" stroke="none" font-family="helvetica" font-size="14pt" font-style="italic" font-weight="normal" text-decoration="normal" x="0" y="0" text-anchor="middle" dominant-baseline="alphabetic">R</text><g transform="rotate(90,0,0) translate(-23,-236)"/></g></g></g></g></g></g></g></g></g><g clip-path="url(#EqTTpcCwoutW)"><g/></g></g></svg>