<svg version="1.1" xmlns="http://www.w3.org/2000/svg" xmlns:xlink="http://www.w3.org/1999/xlink" width="350" height="350" style="width: 350px; height: 350px;"><defs><clipPath id="goQmQQbnbnMD"><path fill="none" stroke="none" d=" M 50 33 L 320 33 L 320 289 L 50 289 L 50 33 Z"/></clipPath><clipPath id="ECikLaoznStC"><path fill="none" stroke="none" d=" M 50 33 L 320 33 L 320 289 L 50 289 L 50 33 Z"/></clipPath><clipPath id="gedEPTFWXDMQ"><path fill="none" stroke="none" d=" M 50 33 L 320 33 L 320 289 L 50 289 L 50 33 Z"/></clipPath><clipPath id="uKglOuxWDdfS"><path fill="none" stroke="none" d=" M 50 33 L 320 33 L 320 289 L 50 289 L 50 33 Z"/></clipPath><clipPath id="evSPEFQeTqHZ"><path fill="none" stroke="none" d=" M 50 33 L 320 33 L 320 289 L 50 289 L 50 33 Z"/></clipPath><clipPath id="hQWolqXEKVEa"><path fill="none" stroke="none" d=" M 50 33 L 320 33 L 320 289 L 50 289 L 50 33 Z"/></clipPath><clipPath id="vhGKhlTTLccT"><path fill="none" stroke="none" d=" M 50 33 L 320 33 L 320 289 L 50 289 L 50 33 Z"/></clipPath><clipPath id="AibzkJlanArS"><path fill="none" stroke="none" d=" M 50 33 L 320 33 L 320 289 L 50 289 L 50 33 Z"/></clipPath><clipPath id="UEKJPRqepqwf"><path fill="none" stroke="none" d=" M 50 33 L 320 33 L 320 289 L 50 289 L 50 33 Z"/></clipPath><clipPath id="zhpfUSBwOgKR"><path fill="none" stroke="none" d=" M 50 33 L 320 33 L 320 289 L 50 289 L 50 33 Z"/></clipPath></defs><g><g transform="scale(1,1) translate(0.5,0.5)"><rect fill="#FFFFFF" stroke="none" x="0" y="0" width="350" height="350"/><rect fill="#ffffff" stroke="none" x="0" y="0" width="350" height="350"/><rect fill="#FFFFFF" stroke="none" x="50" y="33" width="270" height="256"/><rect fill="#ffffff" stroke="none" x="50" y="33" width="270" height="256"/><g><rect fill="none" stroke="#e5e5e5" x="50" y="33" width="270" height="256" stroke-linejoin="bevel" stroke-miterlimit="10"/></g><g clip-path="url(#goQmQQbnbnMD)"><g><g><path fill="none" stroke="#e5e5e5" paint-order="fill stroke markers" d=" M 62 289 L 62 33" stroke-linejoin="bevel" stroke-miterlimit="10"/><path fill="none" stroke="#e5e5e5" paint-order="fill stroke markers" d=" M 99 289 L 99 33" stroke-linejoin="bevel" stroke-miterlimit="10"/><path fill="none" stroke="#e5e5e5" paint-order="fill stroke markers" d=" M 135 289 L 135 33" stroke-linejoin="bevel" stroke-miterlimit="10"/><path fill="none" stroke="#e5e5e5" paint-order="fill stroke markers" d=" M 172 289 L 172 33" stroke-linejoin="bevel" stroke-miterlimit="10"/><path fill="none" stroke="#e5e5e5" paint-order="fill stroke markers" d=" M 208 289 L 208 33" stroke-linejoin="bevel" stroke-miterlimit="10"/><path fill="none" stroke="#e5e5e5" paint-order="fill stroke markers" d=" M 245 289 L 245 33" stroke-linejoin="bevel" stroke-miterlimit="10"/><path fill="none" stroke="#e5e5e5" paint-order="fill stroke markers" d=" M 282 289 L 282 33" stroke-linejoin="bevel" stroke-miterlimit="10"/><path fill="none" stroke="#e5e5e5" paint-order="fill stroke markers" d=" M 318 289 L 318 33" stroke-linejoin="bevel" stroke-miterlimit="10"/></g></g></g><g clip-path="url(#ECikLaoznStC)"><g><g><path fill="none" stroke="#e5e5e5" paint-order="fill stroke markers" d=" M 50 277 L 320 277" stroke-linejoin="bevel" stroke-miterlimit="10"/><path fill="none" stroke="#e5e5e5" paint-order="fill stroke markers" d=" M 50 219 L 320 219" stroke-linejoin="bevel" stroke-miterlimit="10"/><path fill="none" stroke="#e5e5e5" paint-order="fill stroke markers" d=" M 50 161 L 320 161" stroke-linejoin="bevel" stroke-miterlimit="10"/><path fill="none" stroke="#e5e5e5" paint-order="fill stroke markers" d=" M 50 103 L 320 103" stroke-linejoin="bevel" stroke-miterlimit="10"/><path fill="none" stroke="#e5e5e5" paint-order="fill stroke markers" d=" M 50 45 L 320 45" stroke-linejoin="bevel" stroke-miterlimit="10"/></g></g></g><g clip-path="url(#gedEPTFWXDMQ)"><g><g><path fill="none" stroke="none"/><path fill="navy" stroke="none" paint-order="stroke fill markers" d=" M 62.27272727272729 44.636363636363654 L 67.1818181818182 44.636363636363654 L 67.1818181818182 277.3636363636364 L 62.27272727272729 277.3636363636364 L 62.27272727272729 44.636363636363654 Z" fill-opacity="0.3"/><path fill="none" stroke="white" paint-order="fill stroke markers" d=" M 62.27272727272729 44.636363636363654 L 67.1818181818182 44.636363636363654 L 67.1818181818182 277.3636363636364 L 62.27272727272729 277.3636363636364 L 62.27272727272729 44.636363636363654 Z" stroke-linejoin="bevel" stroke-miterlimit="10" stroke-opacity="0.3"/><path fill="navy" stroke="none" paint-order="stroke fill markers" d=" M 67.1818181818182 277.3636363636364 L 72.09090909090911 277.3636363636364 L 72.09090909090911 277.3636363636364 L 67.1818181818182 277.3636363636364 L 67.1818181818182 277.3636363636364 Z" fill-opacity="0.3"/><path fill="none" stroke="white" paint-order="fill stroke markers" d=" M 67.1818181818182 277.3636363636364 L 72.09090909090911 277.3636363636364 L 72.09090909090911 277.3636363636364 L 67.1818181818182 277.3636363636364 L 67.1818181818182 277.3636363636364 Z" stroke-linejoin="bevel" stroke-miterlimit="10" stroke-opacity="0.3"/><path fill="navy" stroke="none" paint-order="stroke fill markers" d=" M 72.09090909090911 277.3636363636364 L 77.00000000000001 277.3636363636364 L 77.00000000000001 277.3636363636364 L 72.09090909090911 277.3636363636364 L 72.09090909090911 277.3636363636364 Z" fill-opacity="0.3"/><path fill="none" stroke="white" paint-order="fill stroke markers" d=" M 72.09090909090911 277.3636363636364 L 77.00000000000001 277.3636363636364 L 77.00000000000001 277.3636363636364 L 72.09090909090911 277.3636363636364 L 72.09090909090911 277.3636363636364 Z" stroke-linejoin="bevel" stroke-miterlimit="10" stroke-opacity="0.3"/><path fill="navy" stroke="none" paint-order="stroke fill markers" d=" M 77.00000000000001 277.3636363636364 L 81.90909090909092 277.3636363636364 L 81.90909090909092 277.3636363636364 L 77.00000000000001 277.3636363636364 L 77.00000000000001 277.3636363636364 Z" fill-opacity="0.3"/><path fill="none" stroke="white" paint-order="fill stroke markers" d=" M 77.00000000000001 277.3636363636364 L 81.90909090909092 277.3636363636364 L 81.90909090909092 277.3636363636364 L 77.00000000000001 277.3636363636364 L 77.00000000000001 277.3636363636364 Z" stroke-linejoin="bevel" stroke-miterlimit="10" stroke-opacity="0.3"/><path fill="navy" stroke="none" paint-order="stroke fill markers" d=" M 81.90909090909092 277.3636363636364 L 86.81818181818183 277.3636363636364 L 86.81818181818183 277.3636363636364 L 81.90909090909092 277.3636363636364 L 81.90909090909092 277.3636363636364 Z" fill-opacity="0.3"/><path fill="none" stroke="white" paint-order="fill stroke markers" d=" M 81.90909090909092 277.3636363636364 L 86.81818181818183 277.3636363636364 L 86.81818181818183 277.3636363636364 L 81.90909090909092 277.3636363636364 L 81.90909090909092 277.3636363636364 Z" stroke-linejoin="bevel" stroke-miterlimit="10" stroke-opacity="0.3"/><path fill="navy" stroke="none" paint-order="stroke fill markers" d=" M 86.81818181818183 277.3636363636364 L 91.72727272727273 277.3636363636364 L 91.72727272727273 277.3636363636364 L 86.81818181818183 277.3636363636364 L 86.81818181818183 277.3636363636364 Z" fill-opacity="0.3"/><path fill="none" stroke="white" paint-order="fill stroke markers" d=" M 86.81818181818183 277.3636363636364 L 91.72727272727273 277.3636363636364 L 91.72727272727273 277.3636363636364 L 86.81818181818183 277.3636363636364 L 86.81818181818183 277.3636363636364 Z" stroke-linejoin="bevel" stroke-miterlimit="10" stroke-opacity="0.3"/><path fill="navy" stroke="none" paint-order="stroke fill markers" d=" M 91.72727272727273 277.3636363636364 L 96.63636363636365 277.3636363636364 L 96.63636363636365 277.3636363636364 L 91.72727272727273 277.3636363636364 L 91.72727272727273 277.3636363636364 Z" fill-opacity="0.3"/><path fill="none" stroke="white" paint-order="fill stroke markers" d=" M 91.72727272727273 277.3636363636364 L 96.63636363636365 277.3636363636364 L 96.63636363636365 277.3636363636364 L 91.72727272727273 277.3636363636364 L 91.72727272727273 277.3636363636364 Z" stroke-linejoin="bevel" stroke-miterlimit="10" stroke-opacity="0.3"/><path fill="navy" stroke="none" paint-order="stroke fill markers" d=" M 96.63636363636365 277.3636363636364 L 101.54545454545456 277.3636363636364 L 101.54545454545456 277.3636363636364 L 96.63636363636365 277.3636363636364 L 96.63636363636365 277.3636363636364 Z" fill-opacity="0.3"/><path fill="none" stroke="white" paint-order="fill stroke markers" d=" M 96.63636363636365 277.3636363636364 L 101.54545454545456 277.3636363636364 L 101.54545454545456 277.3636363636364 L 96.63636363636365 277.3636363636364 L 96.63636363636365 277.3636363636364 Z" stroke-linejoin="bevel" stroke-miterlimit="10" stroke-opacity="0.3"/><path fill="navy" stroke="none" paint-order="stroke fill markers" d=" M 101.54545454545456 277.3636363636364 L 106.45454545454547 277.3636363636364 L 106.45454545454547 277.3636363636364 L 101.54545454545456 277.3636363636364 L 101.54545454545456 277.3636363636364 Z" fill-opacity="0.3"/><path fill="none" stroke="white" paint-order="fill stroke markers" d=" M 101.54545454545456 277.3636363636364 L 106.45454545454547 277.3636363636364 L 106.45454545454547 277.3636363636364 L 101.54545454545456 277.3636363636364 L 101.54545454545456 277.3636363636364 Z" stroke-linejoin="bevel" stroke-miterlimit="10" stroke-opacity="0.3"/><path fill="navy" stroke="none" paint-order="stroke fill markers" d=" M 106.45454545454547 277.3636363636364 L 111.36363636363637 277.3636363636364 L 111.36363636363637 277.3636363636364 L 106.45454545454547 277.3636363636364 L 106.45454545454547 277.3636363636364 Z" fill-opacity="0.3"/><path fill="none" stroke="white" paint-order="fill stroke markers" d=" M 106.45454545454547 277.3636363636364 L 111.36363636363637 277.3636363636364 L 111.36363636363637 277.3636363636364 L 106.45454545454547 277.3636363636364 L 106.45454545454547 277.3636363636364 Z" stroke-linejoin="bevel" stroke-miterlimit="10" stroke-opacity="0.3"/><path fill="navy" stroke="none" paint-order="stroke fill markers" d=" M 111.36363636363637 161 L 116.27272727272728 161 L 116.27272727272728 277.3636363636364 L 111.36363636363637 277.3636363636364 L 111.36363636363637 161 Z" fill-opacity="0.3"/><path fill="none" stroke="white" paint-order="fill stroke markers" d=" M 111.36363636363637 161 L 116.27272727272728 161 L 116.27272727272728 277.3636363636364 L 111.36363636363637 277.3636363636364 L 111.36363636363637 161 Z" stroke-linejoin="bevel" stroke-miterlimit="10" stroke-opacity="0.3"/><path fill="navy" stroke="none" paint-order="stroke fill markers" d=" M 116.27272727272728 161 L 121.18181818181819 161 L 121.18181818181819 277.3636363636364 L 116.27272727272728 277.3636363636364 L 116.27272727272728 161 Z" fill-opacity="0.3"/><path fill="none" stroke="white" paint-order="fill stroke markers" d=" M 116.27272727272728 161 L 121.18181818181819 161 L 121.18181818181819 277.3636363636364 L 116.27272727272728 277.3636363636364 L 116.27272727272728 161 Z" stroke-linejoin="bevel" stroke-miterlimit="10" stroke-opacity="0.3"/><path fill="navy" stroke="none" paint-order="stroke fill markers" d=" M 121.18181818181819 102.81818181818184 L 126.0909090909091 102.81818181818184 L 126.0909090909091 277.3636363636364 L 121.18181818181819 277.3636363636364 L 121.18181818181819 102.81818181818184 Z" fill-opacity="0.3"/><path fill="none" stroke="white" paint-order="fill stroke markers" d=" M 121.18181818181819 102.81818181818184 L 126.0909090909091 102.81818181818184 L 126.0909090909091 277.3636363636364 L 121.18181818181819 277.3636363636364 L 121.18181818181819 102.81818181818184 Z" stroke-linejoin="bevel" stroke-miterlimit="10" stroke-opacity="0.3"/><path fill="navy" stroke="none" paint-order="stroke fill markers" d=" M 126.0909090909091 219.1818181818182 L 131 219.1818181818182 L 131 277.3636363636364 L 126.0909090909091 277.3636363636364 L 126.0909090909091 219.1818181818182 Z" fill-opacity="0.3"/><path fill="none" stroke="white" paint-order="fill stroke markers" d=" M 126.0909090909091 219.1818181818182 L 131 219.1818181818182 L 131 277.3636363636364 L 126.0909090909091 277.3636363636364 L 126.0909090909091 219.1818181818182 Z" stroke-linejoin="bevel" stroke-miterlimit="10" stroke-opacity="0.3"/><path fill="navy" stroke="none" paint-order="stroke fill markers" d=" M 131 277.3636363636364 L 135.9090909090909 277.3636363636364 L 135.9090909090909 277.3636363636364 L 131 277.3636363636364 L 131 277.3636363636364 Z" fill-opacity="0.3"/><path fill="none" stroke="white" paint-order="fill stroke markers" d=" M 131 277.3636363636364 L 135.9090909090909 277.3636363636364 L 135.9090909090909 277.3636363636364 L 131 277.3636363636364 L 131 277.3636363636364 Z" stroke-linejoin="bevel" stroke-miterlimit="10" stroke-opacity="0.3"/><path fill="navy" stroke="none" paint-order="stroke fill markers" d=" M 135.9090909090909 277.3636363636364 L 140.8181818181818 277.3636363636364 L 140.8181818181818 277.3636363636364 L 135.9090909090909 277.3636363636364 L 135.9090909090909 277.3636363636364 Z" fill-opacity="0.3"/><path fill="none" stroke="white" paint-order="fill stroke markers" d=" M 135.9090909090909 277.3636363636364 L 140.8181818181818 277.3636363636364 L 140.8181818181818 277.3636363636364 L 135.9090909090909 277.3636363636364 L 135.9090909090909 277.3636363636364 Z" stroke-linejoin="bevel" stroke-miterlimit="10" stroke-opacity="0.3"/><path fill="navy" stroke="none" paint-order="stroke fill markers" d=" M 140.8181818181818 219.1818181818182 L 145.72727272727272 219.1818181818182 L 145.72727272727272 277.3636363636364 L 140.8181818181818 277.3636363636364 L 140.8181818181818 219.1818181818182 Z" fill-opacity="0.3"/><path fill="none" stroke="white" paint-order="fill stroke markers" d=" M 140.8181818181818 219.1818181818182 L 145.72727272727272 219.1818181818182 L 145.72727272727272 277.3636363636364 L 140.8181818181818 277.3636363636364 L 140.8181818181818 219.1818181818182 Z" stroke-linejoin="bevel" stroke-miterlimit="10" stroke-opacity="0.3"/><path fill="navy" stroke="none" paint-order="stroke fill markers" d=" M 145.72727272727272 277.3636363636364 L 150.63636363636363 277.3636363636364 L 150.63636363636363 277.3636363636364 L 145.72727272727272 277.3636363636364 L 145.72727272727272 277.3636363636364 Z" fill-opacity="0.3"/><path fill="none" stroke="white" paint-order="fill stroke markers" d=" M 145.72727272727272 277.3636363636364 L 150.63636363636363 277.3636363636364 L 150.63636363636363 277.3636363636364 L 145.72727272727272 277.3636363636364 L 145.72727272727272 277.3636363636364 Z" stroke-linejoin="bevel" stroke-miterlimit="10" stroke-opacity="0.3"/><path fill="navy" stroke="none" paint-order="stroke fill markers" d=" M 150.63636363636363 277.3636363636364 L 155.54545454545453 277.3636363636364 L 155.54545454545453 277.3636363636364 L 150.63636363636363 277.3636363636364 L 150.63636363636363 277.3636363636364 Z" fill-opacity="0.3"/><path fill="none" stroke="white" paint-order="fill stroke markers" d=" M 150.63636363636363 277.3636363636364 L 155.54545454545453 277.3636363636364 L 155.54545454545453 277.3636363636364 L 150.63636363636363 277.3636363636364 L 150.63636363636363 277.3636363636364 Z" stroke-linejoin="bevel" stroke-miterlimit="10" stroke-opacity="0.3"/><path fill="navy" stroke="none" paint-order="stroke fill markers" d=" M 155.54545454545453 277.3636363636364 L 160.45454545454544 277.3636363636364 L 160.45454545454544 277.3636363636364 L 155.54545454545453 277.3636363636364 L 155.54545454545453 277.3636363636364 Z" fill-opacity="0.3"/><path fill="none" stroke="white" paint-order="fill stroke markers" d=" M 155.54545454545453 277.3636363636364 L 160.45454545454544 277.3636363636364 L 160.45454545454544 277.3636363636364 L 155.54545454545453 277.3636363636364 L 155.54545454545453 277.3636363636364 Z" stroke-linejoin="bevel" stroke-miterlimit="10" stroke-opacity="0.3"/><path fill="navy" stroke="none" paint-order="stroke fill markers" d=" M 160.45454545454544 277.3636363636364 L 165.36363636363635 277.3636363636364 L 165.36363636363635 277.3636363636364 L 160.45454545454544 277.3636363636364 L 160.45454545454544 277.3636363636364 Z" fill-opacity="0.3"/><path fill="none" stroke="white" paint-order="fill stroke markers" d=" M 160.45454545454544 277.3636363636364 L 165.36363636363635 277.3636363636364 L 165.36363636363635 277.3636363636364 L 160.45454545454544 277.3636363636364 L 160.45454545454544 277.3636363636364 Z" stroke-linejoin="bevel" stroke-miterlimit="10" stroke-opacity="0.3"/><path fill="navy" stroke="none" paint-order="stroke fill markers" d=" M 165.36363636363635 277.3636363636364 L 170.27272727272728 277.3636363636364 L 170.27272727272728 277.3636363636364 L 165.36363636363635 277.3636363636364 L 165.36363636363635 277.3636363636364 Z" fill-opacity="0.3"/><path fill="none" stroke="white" paint-order="fill stroke markers" d=" M 165.36363636363635 277.3636363636364 L 170.27272727272728 277.3636363636364 L 170.27272727272728 277.3636363636364 L 165.36363636363635 277.3636363636364 L 165.36363636363635 277.3636363636364 Z" stroke-linejoin="bevel" stroke-miterlimit="10" stroke-opacity="0.3"/><path fill="navy" stroke="none" paint-order="stroke fill markers" d=" M 170.27272727272728 277.3636363636364 L 175.18181818181816 277.3636363636364 L 175.18181818181816 277.3636363636364 L 170.27272727272728 277.3636363636364 L 170.27272727272728 277.3636363636364 Z" fill-opacity="0.3"/><path fill="none" stroke="white" paint-order="fill stroke markers" d=" M 170.27272727272728 277.3636363636364 L 175.18181818181816 277.3636363636364 L 175.18181818181816 277.3636363636364 L 170.27272727272728 277.3636363636364 L 170.27272727272728 277.3636363636364 Z" stroke-linejoin="bevel" stroke-miterlimit="10" stroke-opacity="0.3"/><path fill="navy" stroke="none" paint-order="stroke fill markers" d=" M 175.18181818181816 277.3636363636364 L 180.0909090909091 277.3636363636364 L 180.0909090909091 277.3636363636364 L 175.18181818181816 277.3636363636364 L 175.18181818181816 277.3636363636364 Z" fill-opacity="0.3"/><path fill="none" stroke="white" paint-order="fill stroke markers" d=" M 175.18181818181816 277.3636363636364 L 180.0909090909091 277.3636363636364 L 180.0909090909091 277.3636363636364 L 175.18181818181816 277.3636363636364 L 175.18181818181816 277.3636363636364 Z" stroke-linejoin="bevel" stroke-miterlimit="10" stroke-opacity="0.3"/><path fill="navy" stroke="none" paint-order="stroke fill markers" d=" M 180.0909090909091 277.3636363636364 L 185 277.3636363636364 L 185 277.3636363636364 L 180.0909090909091 277.3636363636364 L 180.0909090909091 277.3636363636364 Z" fill-opacity="0.3"/><path fill="none" stroke="white" paint-order="fill stroke markers" d=" M 180.0909090909091 277.3636363636364 L 185 277.3636363636364 L 185 277.3636363636364 L 180.0909090909091 277.3636363636364 L 180.0909090909091 277.3636363636364 Z" stroke-linejoin="bevel" stroke-miterlimit="10" stroke-opacity="0.3"/><path fill="navy" stroke="none" paint-order="stroke fill markers" d=" M 185 277.3636363636364 L 189.9090909090909 277.3636363636364 L 189.9090909090909 277.3636363636364 L 185 277.3636363636364 L 185 277.3636363636364 Z" fill-opacity="0.3"/><path fill="none" stroke="white" paint-order="fill stroke markers" d=" M 185 277.3636363636364 L 189.9090909090909 277.3636363636364 L 189.9090909090909 277.3636363636364 L 185 277.3636363636364 L 185 277.3636363636364 Z" stroke-linejoin="bevel" stroke-miterlimit="10" stroke-opacity="0.3"/><path fill="navy" stroke="none" paint-order="stroke fill markers" d=" M 189.9090909090909 277.3636363636364 L 194.81818181818178 277.3636363636364 L 194.81818181818178 277.3636363636364 L 189.9090909090909 277.3636363636364 L 189.9090909090909 277.3636363636364 Z" fill-opacity="0.3"/><path fill="none" stroke="white" paint-order="fill stroke markers" d=" M 189.9090909090909 277.3636363636364 L 194.81818181818178 277.3636363636364 L 194.81818181818178 277.3636363636364 L 189.9090909090909 277.3636363636364 L 189.9090909090909 277.3636363636364 Z" stroke-linejoin="bevel" stroke-miterlimit="10" stroke-opacity="0.3"/><path fill="navy" stroke="none" paint-order="stroke fill markers" d=" M 194.81818181818178 277.3636363636364 L 199.72727272727272 277.3636363636364 L 199.72727272727272 277.3636363636364 L 194.81818181818178 277.3636363636364 L 194.81818181818178 277.3636363636364 Z" fill-opacity="0.3"/><path fill="none" stroke="white" paint-order="fill stroke markers" d=" M 194.81818181818178 277.3636363636364 L 199.72727272727272 277.3636363636364 L 199.72727272727272 277.3636363636364 L 194.81818181818178 277.3636363636364 L 194.81818181818178 277.3636363636364 Z" stroke-linejoin="bevel" stroke-miterlimit="10" stroke-opacity="0.3"/><path fill="navy" stroke="none" paint-order="stroke fill markers" d=" M 199.72727272727272 277.3636363636364 L 204.6363636363636 277.3636363636364 L 204.6363636363636 277.3636363636364 L 199.72727272727272 277.3636363636364 L 199.72727272727272 277.3636363636364 Z" fill-opacity="0.3"/><path fill="none" stroke="white" paint-order="fill stroke markers" d=" M 199.72727272727272 277.3636363636364 L 204.6363636363636 277.3636363636364 L 204.6363636363636 277.3636363636364 L 199.72727272727272 277.3636363636364 L 199.72727272727272 277.3636363636364 Z" stroke-linejoin="bevel" stroke-miterlimit="10" stroke-opacity="0.3"/><path fill="navy" stroke="none" paint-order="stroke fill markers" d=" M 204.6363636363636 277.3636363636364 L 209.5454545454545 277.3636363636364 L 209.5454545454545 277.3636363636364 L 204.6363636363636 277.3636363636364 L 204.6363636363636 277.3636363636364 Z" fill-opacity="0.3"/><path fill="none" stroke="white" paint-order="fill stroke markers" d=" M 204.6363636363636 277.3636363636364 L 209.5454545454545 277.3636363636364 L 209.5454545454545 277.3636363636364 L 204.6363636363636 277.3636363636364 L 204.6363636363636 277.3636363636364 Z" stroke-linejoin="bevel" stroke-miterlimit="10" stroke-opacity="0.3"/><path fill="navy" stroke="none" paint-order="stroke fill markers" d=" M 209.5454545454545 277.3636363636364 L 214.45454545454544 277.3636363636364 L 214.45454545454544 277.3636363636364 L 209.5454545454545 277.3636363636364 L 209.5454545454545 277.3636363636364 Z" fill-opacity="0.3"/><path fill="none" stroke="white" paint-order="fill stroke markers" d=" M 209.5454545454545 277.3636363636364 L 214.45454545454544 277.3636363636364 L 214.45454545454544 277.3636363636364 L 209.5454545454545 277.3636363636364 L 209.5454545454545 277.3636363636364 Z" stroke-linejoin="bevel" stroke-miterlimit="10" stroke-opacity="0.3"/><path fill="navy" stroke="none" paint-order="stroke fill markers" d=" M 214.45454545454544 277.3636363636364 L 219.36363636363635 277.3636363636364 L 219.36363636363635 277.3636363636364 L 214.45454545454544 277.3636363636364 L 214.45454545454544 277.3636363636364 Z" fill-opacity="0.3"/><path fill="none" stroke="white" paint-order="fill stroke markers" d=" M 214.45454545454544 277.3636363636364 L 219.36363636363635 277.3636363636364 L 219.36363636363635 277.3636363636364 L 214.45454545454544 277.3636363636364 L 214.45454545454544 277.3636363636364 Z" stroke-linejoin="bevel" stroke-miterlimit="10" stroke-opacity="0.3"/><path fill="navy" stroke="none" paint-order="stroke fill markers" d=" M 219.36363636363635 277.3636363636364 L 224.27272727272722 277.3636363636364 L 224.27272727272722 277.3636363636364 L 219.36363636363635 277.3636363636364 L 219.36363636363635 277.3636363636364 Z" fill-opacity="0.3"/><path fill="none" stroke="white" paint-order="fill stroke markers" d=" M 219.36363636363635 277.3636363636364 L 224.27272727272722 277.3636363636364 L 224.27272727272722 277.3636363636364 L 219.36363636363635 277.3636363636364 L 219.36363636363635 277.3636363636364 Z" stroke-linejoin="bevel" stroke-miterlimit="10" stroke-opacity="0.3"/><path fill="navy" stroke="none" paint-order="stroke fill markers" d=" M 224.27272727272722 277.3636363636364 L 229.18181818181816 277.3636363636364 L 229.18181818181816 277.3636363636364 L 224.27272727272722 277.3636363636364 L 224.27272727272722 277.3636363636364 Z" fill-opacity="0.3"/><path fill="none" stroke="white" paint-order="fill stroke markers" d=" M 224.27272727272722 277.3636363636364 L 229.18181818181816 277.3636363636364 L 229.18181818181816 277.3636363636364 L 224.27272727272722 277.3636363636364 L 224.27272727272722 277.3636363636364 Z" stroke-linejoin="bevel" stroke-miterlimit="10" stroke-opacity="0.3"/><path fill="navy" stroke="none" paint-order="stroke fill markers" d=" M 229.18181818181816 277.3636363636364 L 234.09090909090907 277.3636363636364 L 234.09090909090907 277.3636363636364 L 229.18181818181816 277.3636363636364 L 229.18181818181816 277.3636363636364 Z" fill-opacity="0.3"/><path fill="none" stroke="white" paint-order="fill stroke markers" d=" M 229.18181818181816 277.3636363636364 L 234.09090909090907 277.3636363636364 L 234.09090909090907 277.3636363636364 L 229.18181818181816 277.3636363636364 L 229.18181818181816 277.3636363636364 Z" stroke-linejoin="bevel" stroke-miterlimit="10" stroke-opacity="0.3"/><path fill="navy" stroke="none" paint-order="stroke fill markers" d=" M 234.09090909090907 277.3636363636364 L 238.99999999999997 277.3636363636364 L 238.99999999999997 277.3636363636364 L 234.09090909090907 277.3636363636364 L 234.09090909090907 277.3636363636364 Z" fill-opacity="0.3"/><path fill="none" stroke="white" paint-order="fill stroke markers" d=" M 234.09090909090907 277.3636363636364 L 238.99999999999997 277.3636363636364 L 238.99999999999997 277.3636363636364 L 234.09090909090907 277.3636363636364 L 234.09090909090907 277.3636363636364 Z" stroke-linejoin="bevel" stroke-miterlimit="10" stroke-opacity="0.3"/><path fill="navy" stroke="none" paint-order="stroke fill markers" d=" M 238.99999999999997 277.3636363636364 L 243.90909090909088 277.3636363636364 L 243.90909090909088 277.3636363636364 L 238.99999999999997 277.3636363636364 L 238.99999999999997 277.3636363636364 Z" fill-opacity="0.3"/><path fill="none" stroke="white" paint-order="fill stroke markers" d=" M 238.99999999999997 277.3636363636364 L 243.90909090909088 277.3636363636364 L 243.90909090909088 277.3636363636364 L 238.99999999999997 277.3636363636364 L 238.99999999999997 277.3636363636364 Z" stroke-linejoin="bevel" stroke-miterlimit="10" stroke-opacity="0.3"/><path fill="navy" stroke="none" paint-order="stroke fill markers" d=" M 243.90909090909088 277.3636363636364 L 248.81818181818178 277.3636363636364 L 248.81818181818178 277.3636363636364 L 243.90909090909088 277.3636363636364 L 243.90909090909088 277.3636363636364 Z" fill-opacity="0.3"/><path fill="none" stroke="white" paint-order="fill stroke markers" d=" M 243.90909090909088 277.3636363636364 L 248.81818181818178 277.3636363636364 L 248.81818181818178 277.3636363636364 L 243.90909090909088 277.3636363636364 L 243.90909090909088 277.3636363636364 Z" stroke-linejoin="bevel" stroke-miterlimit="10" stroke-opacity="0.3"/><path fill="navy" stroke="none" paint-order="stroke fill markers" d=" M 248.81818181818178 277.3636363636364 L 253.7272727272727 277.3636363636364 L 253.7272727272727 277.3636363636364 L 248.81818181818178 277.3636363636364 L 248.81818181818178 277.3636363636364 Z" fill-opacity="0.3"/><path fill="none" stroke="white" paint-order="fill stroke markers" d=" M 248.81818181818178 277.3636363636364 L 253.7272727272727 277.3636363636364 L 253.7272727272727 277.3636363636364 L 248.81818181818178 277.3636363636364 L 248.81818181818178 277.3636363636364 Z" stroke-linejoin="bevel" stroke-miterlimit="10" stroke-opacity="0.3"/><path fill="navy" stroke="none" paint-order="stroke fill markers" d=" M 253.7272727272727 277.3636363636364 L 258.6363636363636 277.3636363636364 L 258.6363636363636 277.3636363636364 L 253.7272727272727 277.3636363636364 L 253.7272727272727 277.3636363636364 Z" fill-opacity="0.3"/><path fill="none" stroke="white" paint-order="fill stroke markers" d=" M 253.7272727272727 277.3636363636364 L 258.6363636363636 277.3636363636364 L 258.6363636363636 277.3636363636364 L 253.7272727272727 277.3636363636364 L 253.7272727272727 277.3636363636364 Z" stroke-linejoin="bevel" stroke-miterlimit="10" stroke-opacity="0.3"/><path fill="navy" stroke="none" paint-order="stroke fill markers" d=" M 258.6363636363636 277.3636363636364 L 263.5454545454545 277.3636363636364 L 263.5454545454545 277.3636363636364 L 258.6363636363636 277.3636363636364 L 258.6363636363636 277.3636363636364 Z" fill-opacity="0.3"/><path fill="none" stroke="white" paint-order="fill stroke markers" d=" M 258.6363636363636 277.3636363636364 L 263.5454545454545 277.3636363636364 L 263.5454545454545 277.3636363636364 L 258.6363636363636 277.3636363636364 L 258.6363636363636 277.3636363636364 Z" stroke-linejoin="bevel" stroke-miterlimit="10" stroke-opacity="0.3"/><path fill="navy" stroke="none" paint-order="stroke fill markers" d=" M 263.5454545454545 277.3636363636364 L 268.45454545454544 277.3636363636364 L 268.45454545454544 277.3636363636364 L 263.5454545454545 277.3636363636364 L 263.5454545454545 277.3636363636364 Z" fill-opacity="0.3"/><path fill="none" stroke="white" paint-order="fill stroke markers" d=" M 263.5454545454545 277.3636363636364 L 268.45454545454544 277.3636363636364 L 268.45454545454544 277.3636363636364 L 263.5454545454545 277.3636363636364 L 263.5454545454545 277.3636363636364 Z" stroke-linejoin="bevel" stroke-miterlimit="10" stroke-opacity="0.3"/><path fill="navy" stroke="none" paint-order="stroke fill markers" d=" M 268.45454545454544 277.3636363636364 L 273.3636363636363 277.3636363636364 L 273.3636363636363 277.3636363636364 L 268.45454545454544 277.3636363636364 L 268.45454545454544 277.3636363636364 Z" fill-opacity="0.3"/><path fill="none" stroke="white" paint-order="fill stroke markers" d=" M 268.45454545454544 277.3636363636364 L 273.3636363636363 277.3636363636364 L 273.3636363636363 277.3636363636364 L 268.45454545454544 277.3636363636364 L 268.45454545454544 277.3636363636364 Z" stroke-linejoin="bevel" stroke-miterlimit="10" stroke-opacity="0.3"/><path fill="navy" stroke="none" paint-order="stroke fill markers" d=" M 273.3636363636363 277.3636363636364 L 278.27272727272725 277.3636363636364 L 278.27272727272725 277.3636363636364 L 273.3636363636363 277.3636363636364 L 273.3636363636363 277.3636363636364 Z" fill-opacity="0.3"/><path fill="none" stroke="white" paint-order="fill stroke markers" d=" M 273.3636363636363 277.3636363636364 L 278.27272727272725 277.3636363636364 L 278.27272727272725 277.3636363636364 L 273.3636363636363 277.3636363636364 L 273.3636363636363 277.3636363636364 Z" stroke-linejoin="bevel" stroke-miterlimit="10" stroke-opacity="0.3"/><path fill="navy" stroke="none" paint-order="stroke fill markers" d=" M 278.27272727272725 277.3636363636364 L 283.18181818181813 277.3636363636364 L 283.18181818181813 277.3636363636364 L 278.27272727272725 277.3636363636364 L 278.27272727272725 277.3636363636364 Z" fill-opacity="0.3"/><path fill="none" stroke="white" paint-order="fill stroke markers" d=" M 278.27272727272725 277.3636363636364 L 283.18181818181813 277.3636363636364 L 283.18181818181813 277.3636363636364 L 278.27272727272725 277.3636363636364 L 278.27272727272725 277.3636363636364 Z" stroke-linejoin="bevel" stroke-miterlimit="10" stroke-opacity="0.3"/><path fill="navy" stroke="none" paint-order="stroke fill markers" d=" M 283.18181818181813 277.3636363636364 L 288.09090909090907 277.3636363636364 L 288.09090909090907 277.3636363636364 L 283.18181818181813 277.3636363636364 L 283.18181818181813 277.3636363636364 Z" fill-opacity="0.3"/><path fill="none" stroke="white" paint-order="fill stroke markers" d=" M 283.18181818181813 277.3636363636364 L 288.09090909090907 277.3636363636364 L 288.09090909090907 277.3636363636364 L 283.18181818181813 277.3636363636364 L 283.18181818181813 277.3636363636364 Z" stroke-linejoin="bevel" stroke-miterlimit="10" stroke-opacity="0.3"/><path fill="navy" stroke="none" paint-order="stroke fill markers" d=" M 288.09090909090907 277.3636363636364 L 293 277.3636363636364 L 293 277.3636363636364 L 288.09090909090907 277.3636363636364 L 288.09090909090907 277.3636363636364 Z" fill-opacity="0.3"/><path fill="none" stroke="white" paint-order="fill stroke markers" d=" M 288.09090909090907 277.3636363636364 L 293 277.3636363636364 L 293 277.3636363636364 L 288.09090909090907 277.3636363636364 L 288.09090909090907 277.3636363636364 Z" stroke-linejoin="bevel" stroke-miterlimit="10" stroke-opacity="0.3"/><path fill="navy" stroke="none" paint-order="stroke fill markers" d=" M 293 277.3636363636364 L 297.9090909090909 277.3636363636364 L 297.9090909090909 277.3636363636364 L 293 277.3636363636364 L 293 277.3636363636364 Z" fill-opacity="0.3"/><path fill="none" stroke="white" paint-order="fill stroke markers" d=" M 293 277.3636363636364 L 297.9090909090909 277.3636363636364 L 297.9090909090909 277.3636363636364 L 293 277.3636363636364 L 293 277.3636363636364 Z" stroke-linejoin="bevel" stroke-miterlimit="10" stroke-opacity="0.3"/><path fill="navy" stroke="none" paint-order="stroke fill markers" d=" M 297.9090909090909 277.3636363636364 L 302.81818181818176 277.3636363636364 L 302.81818181818176 277.3636363636364 L 297.9090909090909 277.3636363636364 L 297.9090909090909 277.3636363636364 Z" fill-opacity="0.3"/><path fill="none" stroke="white" paint-order="fill stroke markers" d=" M 297.9090909090909 277.3636363636364 L 302.81818181818176 277.3636363636364 L 302.81818181818176 277.3636363636364 L 297.9090909090909 277.3636363636364 L 297.9090909090909 277.3636363636364 Z" stroke-linejoin="bevel" stroke-miterlimit="10" stroke-opacity="0.3"/><path fill="navy" stroke="none" paint-order="stroke fill markers" d=" M 302.81818181818176 161 L 307.7272727272727 161 L 307.7272727272727 277.3636363636364 L 302.81818181818176 277.3636363636364 L 302.81818181818176 161 Z" fill-opacity="0.3"/><path fill="none" stroke="white" paint-order="fill stroke markers" d=" M 302.81818181818176 161 L 307.7272727272727 161 L 307.7272727272727 277.3636363636364 L 302.81818181818176 277.3636363636364 L 302.81818181818176 161 Z" stroke-linejoin="bevel" stroke-miterlimit="10" stroke-opacity="0.3"/></g></g></g><g clip-path="url(#uKglOuxWDdfS)"><g><g><path fill="none" stroke="red" paint-order="fill stroke markers" d=" M 135.35470437827985 33 L 135.35470437827985 289" stroke-linejoin="bevel" stroke-miterlimit="10" stroke-width="3" stroke-dasharray="6"/></g></g></g><g><g fill="#444444"><path fill="" stroke="none" d=""/><g transform="translate(185,5)"><path fill="none" stroke="none"/><text fill="" stroke="none" font-family="helvetica" font-size="12pt" font-style="normal" font-weight="bold" text-decoration="normal" x="0" y="0" text-anchor="middle" dominant-baseline="text-before-edge">Unstructured regions/Linker EDC</text></g></g></g><g/><g><g fill="#444444"><path fill="none" stroke="black" paint-order="fill stroke markers" d=" M 50 289 L 320 289" stroke-linejoin="bevel" stroke-miterlimit="10"/><path fill="none" stroke="black" paint-order="fill stroke markers" d=" M 62 295 L 62 287" stroke-linejoin="bevel" stroke-miterlimit="10"/><path fill="none" stroke="black" paint-order="fill stroke markers" d=" M 99 295 L 99 287" stroke-linejoin="bevel" stroke-miterlimit="10"/><path fill="none" stroke="black" paint-order="fill stroke markers" d=" M 135 295 L 135 287" stroke-linejoin="bevel" stroke-miterlimit="10"/><path fill="none" stroke="black" paint-order="fill stroke markers" d=" M 172 295 L 172 287" stroke-linejoin="bevel" stroke-miterlimit="10"/><path fill="none" stroke="black" paint-order="fill stroke markers" d=" M 208 295 L 208 287" stroke-linejoin="bevel" stroke-miterlimit="10"/><path fill="none" stroke="black" paint-order="fill stroke markers" d=" M 245 295 L 245 287" stroke-linejoin="bevel" stroke-miterlimit="10"/><path fill="none" stroke="black" paint-order="fill stroke markers" d=" M 282 295 L 282 287" stroke-linejoin="bevel" stroke-miterlimit="10"/><path fill="none" stroke="black" paint-order="fill stroke markers" d=" M 318 295 L 318 287" stroke-linejoin="bevel" stroke-miterlimit="10"/><path fill="none" stroke="black" paint-order="fill stroke markers" d=" M 55 293 L 55 289" stroke-linejoin="bevel" stroke-miterlimit="10"/><path fill="none" stroke="black" paint-order="fill stroke markers" d=" M 62 293 L 62 289" stroke-linejoin="bevel" stroke-miterlimit="10"/><path fill="none" stroke="black" paint-order="fill stroke markers" d=" M 70 293 L 70 289" stroke-linejoin="bevel" stroke-miterlimit="10"/><path fill="none" stroke="black" paint-order="fill stroke markers" d=" M 77 293 L 77 289" stroke-linejoin="bevel" stroke-miterlimit="10"/><path fill="none" stroke="black" paint-order="fill stroke markers" d=" M 84 293 L 84 289" stroke-linejoin="bevel" stroke-miterlimit="10"/><path fill="none" stroke="black" paint-order="fill stroke markers" d=" M 92 293 L 92 289" stroke-linejoin="bevel" stroke-miterlimit="10"/><path fill="none" stroke="black" paint-order="fill stroke markers" d=" M 99 293 L 99 289" stroke-linejoin="bevel" stroke-miterlimit="10"/><path fill="none" stroke="black" paint-order="fill stroke markers" d=" M 106 293 L 106 289" stroke-linejoin="bevel" stroke-miterlimit="10"/><path fill="none" stroke="black" paint-order="fill stroke markers" d=" M 113 293 L 113 289" stroke-linejoin="bevel" stroke-miterlimit="10"/><path fill="none" stroke="black" paint-order="fill stroke markers" d=" M 121 293 L 121 289" stroke-linejoin="bevel" stroke-miterlimit="10"/><path fill="none" stroke="black" paint-order="fill stroke markers" d=" M 128 293 L 128 289" stroke-linejoin="bevel" stroke-miterlimit="10"/><path fill="none" stroke="black" paint-order="fill stroke markers" d=" M 135 293 L 135 289" stroke-linejoin="bevel" stroke-miterlimit="10"/><path fill="none" stroke="black" paint-order="fill stroke markers" d=" M 143 293 L 143 289" stroke-linejoin="bevel" stroke-miterlimit="10"/><path fill="none" stroke="black" paint-order="fill stroke markers" d=" M 150 293 L 150 289" stroke-linejoin="bevel" stroke-miterlimit="10"/><path fill="none" stroke="black" paint-order="fill stroke markers" d=" M 157 293 L 157 289" stroke-linejoin="bevel" stroke-miterlimit="10"/><path fill="none" stroke="black" paint-order="fill stroke markers" d=" M 165 293 L 165 289" stroke-linejoin="bevel" stroke-miterlimit="10"/><path fill="none" stroke="black" paint-order="fill stroke markers" d=" M 172 293 L 172 289" stroke-linejoin="bevel" stroke-miterlimit="10"/><path fill="none" stroke="black" paint-order="fill stroke markers" d=" M 179 293 L 179 289" stroke-linejoin="bevel" stroke-miterlimit="10"/><path fill="none" stroke="black" paint-order="fill stroke markers" d=" M 187 293 L 187 289" stroke-linejoin="bevel" stroke-miterlimit="10"/><path fill="none" stroke="black" paint-order="fill stroke markers" d=" M 194 293 L 194 289" stroke-linejoin="bevel" stroke-miterlimit="10"/><path fill="none" stroke="black" paint-order="fill stroke markers" d=" M 201 293 L 201 289" stroke-linejoin="bevel" stroke-miterlimit="10"/><path fill="none" stroke="black" paint-order="fill stroke markers" d=" M 208 293 L 208 289" stroke-linejoin="bevel" stroke-miterlimit="10"/><path fill="none" stroke="black" paint-order="fill stroke markers" d=" M 216 293 L 216 289" stroke-linejoin="bevel" stroke-miterlimit="10"/><path fill="none" stroke="black" paint-order="fill stroke markers" d=" M 223 293 L 223 289" stroke-linejoin="bevel" stroke-miterlimit="10"/><path fill="none" stroke="black" paint-order="fill stroke markers" d=" M 230 293 L 230 289" stroke-linejoin="bevel" stroke-miterlimit="10"/><path fill="none" stroke="black" paint-order="fill stroke markers" d=" M 238 293 L 238 289" stroke-linejoin="bevel" stroke-miterlimit="10"/><path fill="none" stroke="black" paint-order="fill stroke markers" d=" M 245 293 L 245 289" stroke-linejoin="bevel" stroke-miterlimit="10"/><path fill="none" stroke="black" paint-order="fill stroke markers" d=" M 252 293 L 252 289" stroke-linejoin="bevel" stroke-miterlimit="10"/><path fill="none" stroke="black" paint-order="fill stroke markers" d=" M 260 293 L 260 289" stroke-linejoin="bevel" stroke-miterlimit="10"/><path fill="none" stroke="black" paint-order="fill stroke markers" d=" M 267 293 L 267 289" stroke-linejoin="bevel" stroke-miterlimit="10"/><path fill="none" stroke="black" paint-order="fill stroke markers" d=" M 274 293 L 274 289" stroke-linejoin="bevel" stroke-miterlimit="10"/><path fill="none" stroke="black" paint-order="fill stroke markers" d=" M 282 293 L 282 289" stroke-linejoin="bevel" stroke-miterlimit="10"/><path fill="none" stroke="black" paint-order="fill stroke markers" d=" M 289 293 L 289 289" stroke-linejoin="bevel" stroke-miterlimit="10"/><path fill="none" stroke="black" paint-order="fill stroke markers" d=" M 296 293 L 296 289" stroke-linejoin="bevel" stroke-miterlimit="10"/><path fill="none" stroke="black" paint-order="fill stroke markers" d=" M 303 293 L 303 289" stroke-linejoin="bevel" stroke-miterlimit="10"/><path fill="none" stroke="black" paint-order="fill stroke markers" d=" M 311 293 L 311 289" stroke-linejoin="bevel" stroke-miterlimit="10"/><path fill="" stroke="black" paint-order="fill stroke markers" d=" M 318 293 L 318 289" stroke-linejoin="bevel" stroke-miterlimit="10"/><g transform="translate(62,300) rotate(0,0,0)"><text fill="" stroke="none" font-family="helvetica" font-size="14pt" font-style="normal" font-weight="normal" text-decoration="normal" x="0" y="0" text-anchor="middle" dominant-baseline="hanging">0</text><g transform="rotate(0,0,0) translate(-62,-300) translate(99,300) rotate(0,0,0)"><text fill="" stroke="none" font-family="helvetica" font-size="14pt" font-style="normal" font-weight="normal" text-decoration="normal" x="0" y="0" text-anchor="middle" dominant-baseline="hanging">10</text><g transform="rotate(0,0,0) translate(-99,-300) translate(135,300) rotate(0,0,0)"><text fill="" stroke="none" font-family="helvetica" font-size="14pt" font-style="normal" font-weight="normal" text-decoration="normal" x="0" y="0" text-anchor="middle" dominant-baseline="hanging">20</text><g transform="rotate(0,0,0) translate(-135,-300) translate(172,300) rotate(0,0,0)"><text fill="" stroke="none" font-family="helvetica" font-size="14pt" font-style="normal" font-weight="normal" text-decoration="normal" x="0" y="0" text-anchor="middle" dominant-baseline="hanging">30</text><g transform="rotate(0,0,0) translate(-172,-300) translate(208,300) rotate(0,0,0)"><text fill="" stroke="none" font-family="helvetica" font-size="14pt" font-style="normal" font-weight="normal" text-decoration="normal" x="0" y="0" text-anchor="middle" dominant-baseline="hanging">40</text><g transform="rotate(0,0,0) translate(-208,-300) translate(245,300) rotate(0,0,0)"><text fill="" stroke="none" font-family="helvetica" font-size="14pt" font-style="normal" font-weight="normal" text-decoration="normal" x="0" y="0" text-anchor="middle" dominant-baseline="hanging">50</text><g transform="rotate(0,0,0) translate(-245,-300) translate(282,300) rotate(0,0,0)"><text fill="" stroke="none" font-family="helvetica" font-size="14pt" font-style="normal" font-weight="normal" text-decoration="normal" x="0" y="0" text-anchor="middle" dominant-baseline="hanging">60</text><g transform="rotate(0,0,0) translate(-282,-300) translate(318,300) rotate(0,0,0)"><text fill="" stroke="none" font-family="helvetica" font-size="14pt" font-style="normal" font-weight="normal" text-decoration="normal" x="0" y="0" text-anchor="middle" dominant-baseline="hanging">70</text><g transform="rotate(0,0,0) translate(-318,-300) translate(185,327) rotate(0,0,0)"><text fill="" stroke="none" font-family="helvetica" font-size="14pt" font-style="italic" font-weight="normal" text-decoration="normal" x="0" y="0" text-anchor="middle" dominant-baseline="hanging">Distance Å</text><g transform="rotate(0,0,0) translate(-185,-327)"/></g></g></g></g></g></g></g></g></g></g></g><g><g fill="#444444"><path fill="none" stroke="black" paint-order="fill stroke markers" d=" M 50 289 L 50 33" stroke-linejoin="bevel" stroke-miterlimit="10"/><path fill="none" stroke="black" paint-order="fill stroke markers" d=" M 44 277 L 52 277" stroke-linejoin="bevel" stroke-miterlimit="10"/><path fill="none" stroke="black" paint-order="fill stroke markers" d=" M 44 219 L 52 219" stroke-linejoin="bevel" stroke-miterlimit="10"/><path fill="none" stroke="black" paint-order="fill stroke markers" d=" M 44 161 L 52 161" stroke-linejoin="bevel" stroke-miterlimit="10"/><path fill="none" stroke="black" paint-order="fill stroke markers" d=" M 44 103 L 52 103" stroke-linejoin="bevel" stroke-miterlimit="10"/><path fill="none" stroke="black" paint-order="fill stroke markers" d=" M 44 45 L 52 45" stroke-linejoin="bevel" stroke-miterlimit="10"/><path fill="none" stroke="black" paint-order="fill stroke markers" d=" M 46 289 L 50 289" stroke-linejoin="bevel" stroke-miterlimit="10"/><path fill="none" stroke="black" paint-order="fill stroke markers" d=" M 46 277 L 50 277" stroke-linejoin="bevel" stroke-miterlimit="10"/><path fill="none" stroke="black" paint-order="fill stroke markers" d=" M 46 266 L 50 266" stroke-linejoin="bevel" stroke-miterlimit="10"/><path fill="none" stroke="black" paint-order="fill stroke markers" d=" M 46 254 L 50 254" stroke-linejoin="bevel" stroke-miterlimit="10"/><path fill="none" stroke="black" paint-order="fill stroke markers" d=" M 46 242 L 50 242" stroke-linejoin="bevel" stroke-miterlimit="10"/><path fill="none" stroke="black" paint-order="fill stroke markers" d=" M 46 231 L 50 231" stroke-linejoin="bevel" stroke-miterlimit="10"/><path fill="none" stroke="black" paint-order="fill stroke markers" d=" M 46 219 L 50 219" stroke-linejoin="bevel" stroke-miterlimit="10"/><path fill="none" stroke="black" paint-order="fill stroke markers" d=" M 46 208 L 50 208" stroke-linejoin="bevel" stroke-miterlimit="10"/><path fill="none" stroke="black" paint-order="fill stroke markers" d=" M 46 196 L 50 196" stroke-linejoin="bevel" stroke-miterlimit="10"/><path fill="none" stroke="black" paint-order="fill stroke markers" d=" M 46 184 L 50 184" stroke-linejoin="bevel" stroke-miterlimit="10"/><path fill="none" stroke="black" paint-order="fill stroke markers" d=" M 46 173 L 50 173" stroke-linejoin="bevel" stroke-miterlimit="10"/><path fill="none" stroke="black" paint-order="fill stroke markers" d=" M 46 161 L 50 161" stroke-linejoin="bevel" stroke-miterlimit="10"/><path fill="none" stroke="black" paint-order="fill stroke markers" d=" M 46 149 L 50 149" stroke-linejoin="bevel" stroke-miterlimit="10"/><path fill="none" stroke="black" paint-order="fill stroke markers" d=" M 46 138 L 50 138" stroke-linejoin="bevel" stroke-miterlimit="10"/><path fill="none" stroke="black" paint-order="fill stroke markers" d=" M 46 126 L 50 126" stroke-linejoin="bevel" stroke-miterlimit="10"/><path fill="none" stroke="black" paint-order="fill stroke markers" d=" M 46 114 L 50 114" stroke-linejoin="bevel" stroke-miterlimit="10"/><path fill="none" stroke="black" paint-order="fill stroke markers" d=" M 46 103 L 50 103" stroke-linejoin="bevel" stroke-miterlimit="10"/><path fill="none" stroke="black" paint-order="fill stroke markers" d=" M 46 91 L 50 91" stroke-linejoin="bevel" stroke-miterlimit="10"/><path fill="none" stroke="black" paint-order="fill stroke markers" d=" M 46 80 L 50 80" stroke-linejoin="bevel" stroke-miterlimit="10"/><path fill="none" stroke="black" paint-order="fill stroke markers" d=" M 46 68 L 50 68" stroke-linejoin="bevel" stroke-miterlimit="10"/><path fill="none" stroke="black" paint-order="fill stroke markers" d=" M 46 56 L 50 56" stroke-linejoin="bevel" stroke-miterlimit="10"/><path fill="none" stroke="black" paint-order="fill stroke markers" d=" M 46 45 L 50 45" stroke-linejoin="bevel" stroke-miterlimit="10"/><path fill="" stroke="black" paint-order="fill stroke markers" d=" M 46 33 L 50 33" stroke-linejoin="bevel" stroke-miterlimit="10"/><g transform="translate(39,277) rotate(0,0,0)"><text fill="" stroke="none" font-family="helvetica" font-size="14pt" font-style="normal" font-weight="normal" text-decoration="normal" x="0" y="0" text-anchor="end" dominant-baseline="central">0</text><g transform="rotate(0,0,0) translate(-39,-277) translate(39,219) rotate(0,0,0)"><text fill="" stroke="none" font-family="helvetica" font-size="14pt" font-style="normal" font-weight="normal" text-decoration="normal" x="0" y="0" text-anchor="end" dominant-baseline="central">1</text><g transform="rotate(0,0,0) translate(-39,-219) translate(39,161) rotate(0,0,0)"><text fill="" stroke="none" font-family="helvetica" font-size="14pt" font-style="normal" font-weight="normal" text-decoration="normal" x="0" y="0" text-anchor="end" dominant-baseline="central">2</text><g transform="rotate(0,0,0) translate(-39,-161) translate(39,103) rotate(0,0,0)"><text fill="" stroke="none" font-family="helvetica" font-size="14pt" font-style="normal" font-weight="normal" text-decoration="normal" x="0" y="0" text-anchor="end" dominant-baseline="central">3</text><g transform="rotate(0,0,0) translate(-39,-103) translate(39,45) rotate(0,0,0)"><text fill="" stroke="none" font-family="helvetica" font-size="14pt" font-style="normal" font-weight="normal" text-decoration="normal" x="0" y="0" text-anchor="end" dominant-baseline="central">4</text><g transform="rotate(0,0,0) translate(-39,-45) translate(23,161) rotate(-90,0,0)"><text fill="" stroke="none" font-family="helvetica" font-size="14pt" font-style="italic" font-weight="normal" text-decoration="normal" x="0" y="0" text-anchor="middle" dominant-baseline="alphabetic">Number of cross-links</text><g transform="rotate(90,0,0) translate(-23,-161)"/></g></g></g></g></g></g></g></g><g clip-path="url(#evSPEFQeTqHZ)"><g/></g></g><g transform="scale(1,1) translate(0.5,0.5)"><rect fill="#FFFFFF" stroke="none" x="0" y="0" width="350" height="350"/><rect fill="#ffffff" stroke="none" x="0" y="0" width="350" height="350"/><rect fill="#FFFFFF" stroke="none" x="50" y="33" width="270" height="256"/><rect fill="#ffffff" stroke="none" x="50" y="33" width="270" height="256"/><g><rect fill="none" stroke="#e5e5e5" x="50" y="33" width="270" height="256" stroke-linejoin="bevel" stroke-miterlimit="10"/></g><g clip-path="url(#hQWolqXEKVEa)"><g><g><path fill="none" stroke="#e5e5e5" paint-order="fill stroke markers" d=" M 62 289 L 62 33" stroke-linejoin="bevel" stroke-miterlimit="10"/><path fill="none" stroke="#e5e5e5" paint-order="fill stroke markers" d=" M 99 289 L 99 33" stroke-linejoin="bevel" stroke-miterlimit="10"/><path fill="none" stroke="#e5e5e5" paint-order="fill stroke markers" d=" M 135 289 L 135 33" stroke-linejoin="bevel" stroke-miterlimit="10"/><path fill="none" stroke="#e5e5e5" paint-order="fill stroke markers" d=" M 172 289 L 172 33" stroke-linejoin="bevel" stroke-miterlimit="10"/><path fill="none" stroke="#e5e5e5" paint-order="fill stroke markers" d=" M 208 289 L 208 33" stroke-linejoin="bevel" stroke-miterlimit="10"/><path fill="none" stroke="#e5e5e5" paint-order="fill stroke markers" d=" M 245 289 L 245 33" stroke-linejoin="bevel" stroke-miterlimit="10"/><path fill="none" stroke="#e5e5e5" paint-order="fill stroke markers" d=" M 282 289 L 282 33" stroke-linejoin="bevel" stroke-miterlimit="10"/><path fill="none" stroke="#e5e5e5" paint-order="fill stroke markers" d=" M 318 289 L 318 33" stroke-linejoin="bevel" stroke-miterlimit="10"/></g></g></g><g clip-path="url(#vhGKhlTTLccT)"><g><g><path fill="none" stroke="#e5e5e5" paint-order="fill stroke markers" d=" M 50 277 L 320 277" stroke-linejoin="bevel" stroke-miterlimit="10"/><path fill="none" stroke="#e5e5e5" paint-order="fill stroke markers" d=" M 50 219 L 320 219" stroke-linejoin="bevel" stroke-miterlimit="10"/><path fill="none" stroke="#e5e5e5" paint-order="fill stroke markers" d=" M 50 161 L 320 161" stroke-linejoin="bevel" stroke-miterlimit="10"/><path fill="none" stroke="#e5e5e5" paint-order="fill stroke markers" d=" M 50 103 L 320 103" stroke-linejoin="bevel" stroke-miterlimit="10"/><path fill="none" stroke="#e5e5e5" paint-order="fill stroke markers" d=" M 50 45 L 320 45" stroke-linejoin="bevel" stroke-miterlimit="10"/></g></g></g><g clip-path="url(#AibzkJlanArS)"><g><g><path fill="none" stroke="none"/><path fill="navy" stroke="none" paint-order="stroke fill markers" d=" M 62.27272727272729 44.636363636363654 L 67.1818181818182 44.636363636363654 L 67.1818181818182 277.3636363636364 L 62.27272727272729 277.3636363636364 L 62.27272727272729 44.636363636363654 Z" fill-opacity="0.3"/><path fill="none" stroke="white" paint-order="fill stroke markers" d=" M 62.27272727272729 44.636363636363654 L 67.1818181818182 44.636363636363654 L 67.1818181818182 277.3636363636364 L 62.27272727272729 277.3636363636364 L 62.27272727272729 44.636363636363654 Z" stroke-linejoin="bevel" stroke-miterlimit="10" stroke-opacity="0.3"/><path fill="navy" stroke="none" paint-order="stroke fill markers" d=" M 67.1818181818182 277.3636363636364 L 72.09090909090911 277.3636363636364 L 72.09090909090911 277.3636363636364 L 67.1818181818182 277.3636363636364 L 67.1818181818182 277.3636363636364 Z" fill-opacity="0.3"/><path fill="none" stroke="white" paint-order="fill stroke markers" d=" M 67.1818181818182 277.3636363636364 L 72.09090909090911 277.3636363636364 L 72.09090909090911 277.3636363636364 L 67.1818181818182 277.3636363636364 L 67.1818181818182 277.3636363636364 Z" stroke-linejoin="bevel" stroke-miterlimit="10" stroke-opacity="0.3"/><path fill="navy" stroke="none" paint-order="stroke fill markers" d=" M 72.09090909090911 277.3636363636364 L 77.00000000000001 277.3636363636364 L 77.00000000000001 277.3636363636364 L 72.09090909090911 277.3636363636364 L 72.09090909090911 277.3636363636364 Z" fill-opacity="0.3"/><path fill="none" stroke="white" paint-order="fill stroke markers" d=" M 72.09090909090911 277.3636363636364 L 77.00000000000001 277.3636363636364 L 77.00000000000001 277.3636363636364 L 72.09090909090911 277.3636363636364 L 72.09090909090911 277.3636363636364 Z" stroke-linejoin="bevel" stroke-miterlimit="10" stroke-opacity="0.3"/><path fill="navy" stroke="none" paint-order="stroke fill markers" d=" M 77.00000000000001 277.3636363636364 L 81.90909090909092 277.3636363636364 L 81.90909090909092 277.3636363636364 L 77.00000000000001 277.3636363636364 L 77.00000000000001 277.3636363636364 Z" fill-opacity="0.3"/><path fill="none" stroke="white" paint-order="fill stroke markers" d=" M 77.00000000000001 277.3636363636364 L 81.90909090909092 277.3636363636364 L 81.90909090909092 277.3636363636364 L 77.00000000000001 277.3636363636364 L 77.00000000000001 277.3636363636364 Z" stroke-linejoin="bevel" stroke-miterlimit="10" stroke-opacity="0.3"/><path fill="navy" stroke="none" paint-order="stroke fill markers" d=" M 81.90909090909092 277.3636363636364 L 86.81818181818183 277.3636363636364 L 86.81818181818183 277.3636363636364 L 81.90909090909092 277.3636363636364 L 81.90909090909092 277.3636363636364 Z" fill-opacity="0.3"/><path fill="none" stroke="white" paint-order="fill stroke markers" d=" M 81.90909090909092 277.3636363636364 L 86.81818181818183 277.3636363636364 L 86.81818181818183 277.3636363636364 L 81.90909090909092 277.3636363636364 L 81.90909090909092 277.3636363636364 Z" stroke-linejoin="bevel" stroke-miterlimit="10" stroke-opacity="0.3"/><path fill="navy" stroke="none" paint-order="stroke fill markers" d=" M 86.81818181818183 277.3636363636364 L 91.72727272727273 277.3636363636364 L 91.72727272727273 277.3636363636364 L 86.81818181818183 277.3636363636364 L 86.81818181818183 277.3636363636364 Z" fill-opacity="0.3"/><path fill="none" stroke="white" paint-order="fill stroke markers" d=" M 86.81818181818183 277.3636363636364 L 91.72727272727273 277.3636363636364 L 91.72727272727273 277.3636363636364 L 86.81818181818183 277.3636363636364 L 86.81818181818183 277.3636363636364 Z" stroke-linejoin="bevel" stroke-miterlimit="10" stroke-opacity="0.3"/><path fill="navy" stroke="none" paint-order="stroke fill markers" d=" M 91.72727272727273 277.3636363636364 L 96.63636363636365 277.3636363636364 L 96.63636363636365 277.3636363636364 L 91.72727272727273 277.3636363636364 L 91.72727272727273 277.3636363636364 Z" fill-opacity="0.3"/><path fill="none" stroke="white" paint-order="fill stroke markers" d=" M 91.72727272727273 277.3636363636364 L 96.63636363636365 277.3636363636364 L 96.63636363636365 277.3636363636364 L 91.72727272727273 277.3636363636364 L 91.72727272727273 277.3636363636364 Z" stroke-linejoin="bevel" stroke-miterlimit="10" stroke-opacity="0.3"/><path fill="navy" stroke="none" paint-order="stroke fill markers" d=" M 96.63636363636365 277.3636363636364 L 101.54545454545456 277.3636363636364 L 101.54545454545456 277.3636363636364 L 96.63636363636365 277.3636363636364 L 96.63636363636365 277.3636363636364 Z" fill-opacity="0.3"/><path fill="none" stroke="white" paint-order="fill stroke markers" d=" M 96.63636363636365 277.3636363636364 L 101.54545454545456 277.3636363636364 L 101.54545454545456 277.3636363636364 L 96.63636363636365 277.3636363636364 L 96.63636363636365 277.3636363636364 Z" stroke-linejoin="bevel" stroke-miterlimit="10" stroke-opacity="0.3"/><path fill="navy" stroke="none" paint-order="stroke fill markers" d=" M 101.54545454545456 277.3636363636364 L 106.45454545454547 277.3636363636364 L 106.45454545454547 277.3636363636364 L 101.54545454545456 277.3636363636364 L 101.54545454545456 277.3636363636364 Z" fill-opacity="0.3"/><path fill="none" stroke="white" paint-order="fill stroke markers" d=" M 101.54545454545456 277.3636363636364 L 106.45454545454547 277.3636363636364 L 106.45454545454547 277.3636363636364 L 101.54545454545456 277.3636363636364 L 101.54545454545456 277.3636363636364 Z" stroke-linejoin="bevel" stroke-miterlimit="10" stroke-opacity="0.3"/><path fill="navy" stroke="none" paint-order="stroke fill markers" d=" M 106.45454545454547 277.3636363636364 L 111.36363636363637 277.3636363636364 L 111.36363636363637 277.3636363636364 L 106.45454545454547 277.3636363636364 L 106.45454545454547 277.3636363636364 Z" fill-opacity="0.3"/><path fill="none" stroke="white" paint-order="fill stroke markers" d=" M 106.45454545454547 277.3636363636364 L 111.36363636363637 277.3636363636364 L 111.36363636363637 277.3636363636364 L 106.45454545454547 277.3636363636364 L 106.45454545454547 277.3636363636364 Z" stroke-linejoin="bevel" stroke-miterlimit="10" stroke-opacity="0.3"/><path fill="navy" stroke="none" paint-order="stroke fill markers" d=" M 111.36363636363637 161 L 116.27272727272728 161 L 116.27272727272728 277.3636363636364 L 111.36363636363637 277.3636363636364 L 111.36363636363637 161 Z" fill-opacity="0.3"/><path fill="none" stroke="white" paint-order="fill stroke markers" d=" M 111.36363636363637 161 L 116.27272727272728 161 L 116.27272727272728 277.3636363636364 L 111.36363636363637 277.3636363636364 L 111.36363636363637 161 Z" stroke-linejoin="bevel" stroke-miterlimit="10" stroke-opacity="0.3"/><path fill="navy" stroke="none" paint-order="stroke fill markers" d=" M 116.27272727272728 161 L 121.18181818181819 161 L 121.18181818181819 277.3636363636364 L 116.27272727272728 277.3636363636364 L 116.27272727272728 161 Z" fill-opacity="0.3"/><path fill="none" stroke="white" paint-order="fill stroke markers" d=" M 116.27272727272728 161 L 121.18181818181819 161 L 121.18181818181819 277.3636363636364 L 116.27272727272728 277.3636363636364 L 116.27272727272728 161 Z" stroke-linejoin="bevel" stroke-miterlimit="10" stroke-opacity="0.3"/><path fill="navy" stroke="none" paint-order="stroke fill markers" d=" M 121.18181818181819 102.81818181818184 L 126.0909090909091 102.81818181818184 L 126.0909090909091 277.3636363636364 L 121.18181818181819 277.3636363636364 L 121.18181818181819 102.81818181818184 Z" fill-opacity="0.3"/><path fill="none" stroke="white" paint-order="fill stroke markers" d=" M 121.18181818181819 102.81818181818184 L 126.0909090909091 102.81818181818184 L 126.0909090909091 277.3636363636364 L 121.18181818181819 277.3636363636364 L 121.18181818181819 102.81818181818184 Z" stroke-linejoin="bevel" stroke-miterlimit="10" stroke-opacity="0.3"/><path fill="navy" stroke="none" paint-order="stroke fill markers" d=" M 126.0909090909091 219.1818181818182 L 131 219.1818181818182 L 131 277.3636363636364 L 126.0909090909091 277.3636363636364 L 126.0909090909091 219.1818181818182 Z" fill-opacity="0.3"/><path fill="none" stroke="white" paint-order="fill stroke markers" d=" M 126.0909090909091 219.1818181818182 L 131 219.1818181818182 L 131 277.3636363636364 L 126.0909090909091 277.3636363636364 L 126.0909090909091 219.1818181818182 Z" stroke-linejoin="bevel" stroke-miterlimit="10" stroke-opacity="0.3"/><path fill="navy" stroke="none" paint-order="stroke fill markers" d=" M 131 277.3636363636364 L 135.9090909090909 277.3636363636364 L 135.9090909090909 277.3636363636364 L 131 277.3636363636364 L 131 277.3636363636364 Z" fill-opacity="0.3"/><path fill="none" stroke="white" paint-order="fill stroke markers" d=" M 131 277.3636363636364 L 135.9090909090909 277.3636363636364 L 135.9090909090909 277.3636363636364 L 131 277.3636363636364 L 131 277.3636363636364 Z" stroke-linejoin="bevel" stroke-miterlimit="10" stroke-opacity="0.3"/><path fill="navy" stroke="none" paint-order="stroke fill markers" d=" M 135.9090909090909 277.3636363636364 L 140.8181818181818 277.3636363636364 L 140.8181818181818 277.3636363636364 L 135.9090909090909 277.3636363636364 L 135.9090909090909 277.3636363636364 Z" fill-opacity="0.3"/><path fill="none" stroke="white" paint-order="fill stroke markers" d=" M 135.9090909090909 277.3636363636364 L 140.8181818181818 277.3636363636364 L 140.8181818181818 277.3636363636364 L 135.9090909090909 277.3636363636364 L 135.9090909090909 277.3636363636364 Z" stroke-linejoin="bevel" stroke-miterlimit="10" stroke-opacity="0.3"/><path fill="navy" stroke="none" paint-order="stroke fill markers" d=" M 140.8181818181818 219.1818181818182 L 145.72727272727272 219.1818181818182 L 145.72727272727272 277.3636363636364 L 140.8181818181818 277.3636363636364 L 140.8181818181818 219.1818181818182 Z" fill-opacity="0.3"/><path fill="none" stroke="white" paint-order="fill stroke markers" d=" M 140.8181818181818 219.1818181818182 L 145.72727272727272 219.1818181818182 L 145.72727272727272 277.3636363636364 L 140.8181818181818 277.3636363636364 L 140.8181818181818 219.1818181818182 Z" stroke-linejoin="bevel" stroke-miterlimit="10" stroke-opacity="0.3"/><path fill="navy" stroke="none" paint-order="stroke fill markers" d=" M 145.72727272727272 277.3636363636364 L 150.63636363636363 277.3636363636364 L 150.63636363636363 277.3636363636364 L 145.72727272727272 277.3636363636364 L 145.72727272727272 277.3636363636364 Z" fill-opacity="0.3"/><path fill="none" stroke="white" paint-order="fill stroke markers" d=" M 145.72727272727272 277.3636363636364 L 150.63636363636363 277.3636363636364 L 150.63636363636363 277.3636363636364 L 145.72727272727272 277.3636363636364 L 145.72727272727272 277.3636363636364 Z" stroke-linejoin="bevel" stroke-miterlimit="10" stroke-opacity="0.3"/><path fill="navy" stroke="none" paint-order="stroke fill markers" d=" M 150.63636363636363 277.3636363636364 L 155.54545454545453 277.3636363636364 L 155.54545454545453 277.3636363636364 L 150.63636363636363 277.3636363636364 L 150.63636363636363 277.3636363636364 Z" fill-opacity="0.3"/><path fill="none" stroke="white" paint-order="fill stroke markers" d=" M 150.63636363636363 277.3636363636364 L 155.54545454545453 277.3636363636364 L 155.54545454545453 277.3636363636364 L 150.63636363636363 277.3636363636364 L 150.63636363636363 277.3636363636364 Z" stroke-linejoin="bevel" stroke-miterlimit="10" stroke-opacity="0.3"/><path fill="navy" stroke="none" paint-order="stroke fill markers" d=" M 155.54545454545453 277.3636363636364 L 160.45454545454544 277.3636363636364 L 160.45454545454544 277.3636363636364 L 155.54545454545453 277.3636363636364 L 155.54545454545453 277.3636363636364 Z" fill-opacity="0.3"/><path fill="none" stroke="white" paint-order="fill stroke markers" d=" M 155.54545454545453 277.3636363636364 L 160.45454545454544 277.3636363636364 L 160.45454545454544 277.3636363636364 L 155.54545454545453 277.3636363636364 L 155.54545454545453 277.3636363636364 Z" stroke-linejoin="bevel" stroke-miterlimit="10" stroke-opacity="0.3"/><path fill="navy" stroke="none" paint-order="stroke fill markers" d=" M 160.45454545454544 277.3636363636364 L 165.36363636363635 277.3636363636364 L 165.36363636363635 277.3636363636364 L 160.45454545454544 277.3636363636364 L 160.45454545454544 277.3636363636364 Z" fill-opacity="0.3"/><path fill="none" stroke="white" paint-order="fill stroke markers" d=" M 160.45454545454544 277.3636363636364 L 165.36363636363635 277.3636363636364 L 165.36363636363635 277.3636363636364 L 160.45454545454544 277.3636363636364 L 160.45454545454544 277.3636363636364 Z" stroke-linejoin="bevel" stroke-miterlimit="10" stroke-opacity="0.3"/><path fill="navy" stroke="none" paint-order="stroke fill markers" d=" M 165.36363636363635 277.3636363636364 L 170.27272727272728 277.3636363636364 L 170.27272727272728 277.3636363636364 L 165.36363636363635 277.3636363636364 L 165.36363636363635 277.3636363636364 Z" fill-opacity="0.3"/><path fill="none" stroke="white" paint-order="fill stroke markers" d=" M 165.36363636363635 277.3636363636364 L 170.27272727272728 277.3636363636364 L 170.27272727272728 277.3636363636364 L 165.36363636363635 277.3636363636364 L 165.36363636363635 277.3636363636364 Z" stroke-linejoin="bevel" stroke-miterlimit="10" stroke-opacity="0.3"/><path fill="navy" stroke="none" paint-order="stroke fill markers" d=" M 170.27272727272728 277.3636363636364 L 175.18181818181816 277.3636363636364 L 175.18181818181816 277.3636363636364 L 170.27272727272728 277.3636363636364 L 170.27272727272728 277.3636363636364 Z" fill-opacity="0.3"/><path fill="none" stroke="white" paint-order="fill stroke markers" d=" M 170.27272727272728 277.3636363636364 L 175.18181818181816 277.3636363636364 L 175.18181818181816 277.3636363636364 L 170.27272727272728 277.3636363636364 L 170.27272727272728 277.3636363636364 Z" stroke-linejoin="bevel" stroke-miterlimit="10" stroke-opacity="0.3"/><path fill="navy" stroke="none" paint-order="stroke fill markers" d=" M 175.18181818181816 277.3636363636364 L 180.0909090909091 277.3636363636364 L 180.0909090909091 277.3636363636364 L 175.18181818181816 277.3636363636364 L 175.18181818181816 277.3636363636364 Z" fill-opacity="0.3"/><path fill="none" stroke="white" paint-order="fill stroke markers" d=" M 175.18181818181816 277.3636363636364 L 180.0909090909091 277.3636363636364 L 180.0909090909091 277.3636363636364 L 175.18181818181816 277.3636363636364 L 175.18181818181816 277.3636363636364 Z" stroke-linejoin="bevel" stroke-miterlimit="10" stroke-opacity="0.3"/><path fill="navy" stroke="none" paint-order="stroke fill markers" d=" M 180.0909090909091 277.3636363636364 L 185 277.3636363636364 L 185 277.3636363636364 L 180.0909090909091 277.3636363636364 L 180.0909090909091 277.3636363636364 Z" fill-opacity="0.3"/><path fill="none" stroke="white" paint-order="fill stroke markers" d=" M 180.0909090909091 277.3636363636364 L 185 277.3636363636364 L 185 277.3636363636364 L 180.0909090909091 277.3636363636364 L 180.0909090909091 277.3636363636364 Z" stroke-linejoin="bevel" stroke-miterlimit="10" stroke-opacity="0.3"/><path fill="navy" stroke="none" paint-order="stroke fill markers" d=" M 185 277.3636363636364 L 189.9090909090909 277.3636363636364 L 189.9090909090909 277.3636363636364 L 185 277.3636363636364 L 185 277.3636363636364 Z" fill-opacity="0.3"/><path fill="none" stroke="white" paint-order="fill stroke markers" d=" M 185 277.3636363636364 L 189.9090909090909 277.3636363636364 L 189.9090909090909 277.3636363636364 L 185 277.3636363636364 L 185 277.3636363636364 Z" stroke-linejoin="bevel" stroke-miterlimit="10" stroke-opacity="0.3"/><path fill="navy" stroke="none" paint-order="stroke fill markers" d=" M 189.9090909090909 277.3636363636364 L 194.81818181818178 277.3636363636364 L 194.81818181818178 277.3636363636364 L 189.9090909090909 277.3636363636364 L 189.9090909090909 277.3636363636364 Z" fill-opacity="0.3"/><path fill="none" stroke="white" paint-order="fill stroke markers" d=" M 189.9090909090909 277.3636363636364 L 194.81818181818178 277.3636363636364 L 194.81818181818178 277.3636363636364 L 189.9090909090909 277.3636363636364 L 189.9090909090909 277.3636363636364 Z" stroke-linejoin="bevel" stroke-miterlimit="10" stroke-opacity="0.3"/><path fill="navy" stroke="none" paint-order="stroke fill markers" d=" M 194.81818181818178 277.3636363636364 L 199.72727272727272 277.3636363636364 L 199.72727272727272 277.3636363636364 L 194.81818181818178 277.3636363636364 L 194.81818181818178 277.3636363636364 Z" fill-opacity="0.3"/><path fill="none" stroke="white" paint-order="fill stroke markers" d=" M 194.81818181818178 277.3636363636364 L 199.72727272727272 277.3636363636364 L 199.72727272727272 277.3636363636364 L 194.81818181818178 277.3636363636364 L 194.81818181818178 277.3636363636364 Z" stroke-linejoin="bevel" stroke-miterlimit="10" stroke-opacity="0.3"/><path fill="navy" stroke="none" paint-order="stroke fill markers" d=" M 199.72727272727272 277.3636363636364 L 204.6363636363636 277.3636363636364 L 204.6363636363636 277.3636363636364 L 199.72727272727272 277.3636363636364 L 199.72727272727272 277.3636363636364 Z" fill-opacity="0.3"/><path fill="none" stroke="white" paint-order="fill stroke markers" d=" M 199.72727272727272 277.3636363636364 L 204.6363636363636 277.3636363636364 L 204.6363636363636 277.3636363636364 L 199.72727272727272 277.3636363636364 L 199.72727272727272 277.3636363636364 Z" stroke-linejoin="bevel" stroke-miterlimit="10" stroke-opacity="0.3"/><path fill="navy" stroke="none" paint-order="stroke fill markers" d=" M 204.6363636363636 277.3636363636364 L 209.5454545454545 277.3636363636364 L 209.5454545454545 277.3636363636364 L 204.6363636363636 277.3636363636364 L 204.6363636363636 277.3636363636364 Z" fill-opacity="0.3"/><path fill="none" stroke="white" paint-order="fill stroke markers" d=" M 204.6363636363636 277.3636363636364 L 209.5454545454545 277.3636363636364 L 209.5454545454545 277.3636363636364 L 204.6363636363636 277.3636363636364 L 204.6363636363636 277.3636363636364 Z" stroke-linejoin="bevel" stroke-miterlimit="10" stroke-opacity="0.3"/><path fill="navy" stroke="none" paint-order="stroke fill markers" d=" M 209.5454545454545 277.3636363636364 L 214.45454545454544 277.3636363636364 L 214.45454545454544 277.3636363636364 L 209.5454545454545 277.3636363636364 L 209.5454545454545 277.3636363636364 Z" fill-opacity="0.3"/><path fill="none" stroke="white" paint-order="fill stroke markers" d=" M 209.5454545454545 277.3636363636364 L 214.45454545454544 277.3636363636364 L 214.45454545454544 277.3636363636364 L 209.5454545454545 277.3636363636364 L 209.5454545454545 277.3636363636364 Z" stroke-linejoin="bevel" stroke-miterlimit="10" stroke-opacity="0.3"/><path fill="navy" stroke="none" paint-order="stroke fill markers" d=" M 214.45454545454544 277.3636363636364 L 219.36363636363635 277.3636363636364 L 219.36363636363635 277.3636363636364 L 214.45454545454544 277.3636363636364 L 214.45454545454544 277.3636363636364 Z" fill-opacity="0.3"/><path fill="none" stroke="white" paint-order="fill stroke markers" d=" M 214.45454545454544 277.3636363636364 L 219.36363636363635 277.3636363636364 L 219.36363636363635 277.3636363636364 L 214.45454545454544 277.3636363636364 L 214.45454545454544 277.3636363636364 Z" stroke-linejoin="bevel" stroke-miterlimit="10" stroke-opacity="0.3"/><path fill="navy" stroke="none" paint-order="stroke fill markers" d=" M 219.36363636363635 277.3636363636364 L 224.27272727272722 277.3636363636364 L 224.27272727272722 277.3636363636364 L 219.36363636363635 277.3636363636364 L 219.36363636363635 277.3636363636364 Z" fill-opacity="0.3"/><path fill="none" stroke="white" paint-order="fill stroke markers" d=" M 219.36363636363635 277.3636363636364 L 224.27272727272722 277.3636363636364 L 224.27272727272722 277.3636363636364 L 219.36363636363635 277.3636363636364 L 219.36363636363635 277.3636363636364 Z" stroke-linejoin="bevel" stroke-miterlimit="10" stroke-opacity="0.3"/><path fill="navy" stroke="none" paint-order="stroke fill markers" d=" M 224.27272727272722 277.3636363636364 L 229.18181818181816 277.3636363636364 L 229.18181818181816 277.3636363636364 L 224.27272727272722 277.3636363636364 L 224.27272727272722 277.3636363636364 Z" fill-opacity="0.3"/><path fill="none" stroke="white" paint-order="fill stroke markers" d=" M 224.27272727272722 277.3636363636364 L 229.18181818181816 277.3636363636364 L 229.18181818181816 277.3636363636364 L 224.27272727272722 277.3636363636364 L 224.27272727272722 277.3636363636364 Z" stroke-linejoin="bevel" stroke-miterlimit="10" stroke-opacity="0.3"/><path fill="navy" stroke="none" paint-order="stroke fill markers" d=" M 229.18181818181816 277.3636363636364 L 234.09090909090907 277.3636363636364 L 234.09090909090907 277.3636363636364 L 229.18181818181816 277.3636363636364 L 229.18181818181816 277.3636363636364 Z" fill-opacity="0.3"/><path fill="none" stroke="white" paint-order="fill stroke markers" d=" M 229.18181818181816 277.3636363636364 L 234.09090909090907 277.3636363636364 L 234.09090909090907 277.3636363636364 L 229.18181818181816 277.3636363636364 L 229.18181818181816 277.3636363636364 Z" stroke-linejoin="bevel" stroke-miterlimit="10" stroke-opacity="0.3"/><path fill="navy" stroke="none" paint-order="stroke fill markers" d=" M 234.09090909090907 277.3636363636364 L 238.99999999999997 277.3636363636364 L 238.99999999999997 277.3636363636364 L 234.09090909090907 277.3636363636364 L 234.09090909090907 277.3636363636364 Z" fill-opacity="0.3"/><path fill="none" stroke="white" paint-order="fill stroke markers" d=" M 234.09090909090907 277.3636363636364 L 238.99999999999997 277.3636363636364 L 238.99999999999997 277.3636363636364 L 234.09090909090907 277.3636363636364 L 234.09090909090907 277.3636363636364 Z" stroke-linejoin="bevel" stroke-miterlimit="10" stroke-opacity="0.3"/><path fill="navy" stroke="none" paint-order="stroke fill markers" d=" M 238.99999999999997 277.3636363636364 L 243.90909090909088 277.3636363636364 L 243.90909090909088 277.3636363636364 L 238.99999999999997 277.3636363636364 L 238.99999999999997 277.3636363636364 Z" fill-opacity="0.3"/><path fill="none" stroke="white" paint-order="fill stroke markers" d=" M 238.99999999999997 277.3636363636364 L 243.90909090909088 277.3636363636364 L 243.90909090909088 277.3636363636364 L 238.99999999999997 277.3636363636364 L 238.99999999999997 277.3636363636364 Z" stroke-linejoin="bevel" stroke-miterlimit="10" stroke-opacity="0.3"/><path fill="navy" stroke="none" paint-order="stroke fill markers" d=" M 243.90909090909088 277.3636363636364 L 248.81818181818178 277.3636363636364 L 248.81818181818178 277.3636363636364 L 243.90909090909088 277.3636363636364 L 243.90909090909088 277.3636363636364 Z" fill-opacity="0.3"/><path fill="none" stroke="white" paint-order="fill stroke markers" d=" M 243.90909090909088 277.3636363636364 L 248.81818181818178 277.3636363636364 L 248.81818181818178 277.3636363636364 L 243.90909090909088 277.3636363636364 L 243.90909090909088 277.3636363636364 Z" stroke-linejoin="bevel" stroke-miterlimit="10" stroke-opacity="0.3"/><path fill="navy" stroke="none" paint-order="stroke fill markers" d=" M 248.81818181818178 277.3636363636364 L 253.7272727272727 277.3636363636364 L 253.7272727272727 277.3636363636364 L 248.81818181818178 277.3636363636364 L 248.81818181818178 277.3636363636364 Z" fill-opacity="0.3"/><path fill="none" stroke="white" paint-order="fill stroke markers" d=" M 248.81818181818178 277.3636363636364 L 253.7272727272727 277.3636363636364 L 253.7272727272727 277.3636363636364 L 248.81818181818178 277.3636363636364 L 248.81818181818178 277.3636363636364 Z" stroke-linejoin="bevel" stroke-miterlimit="10" stroke-opacity="0.3"/><path fill="navy" stroke="none" paint-order="stroke fill markers" d=" M 253.7272727272727 277.3636363636364 L 258.6363636363636 277.3636363636364 L 258.6363636363636 277.3636363636364 L 253.7272727272727 277.3636363636364 L 253.7272727272727 277.3636363636364 Z" fill-opacity="0.3"/><path fill="none" stroke="white" paint-order="fill stroke markers" d=" M 253.7272727272727 277.3636363636364 L 258.6363636363636 277.3636363636364 L 258.6363636363636 277.3636363636364 L 253.7272727272727 277.3636363636364 L 253.7272727272727 277.3636363636364 Z" stroke-linejoin="bevel" stroke-miterlimit="10" stroke-opacity="0.3"/><path fill="navy" stroke="none" paint-order="stroke fill markers" d=" M 258.6363636363636 277.3636363636364 L 263.5454545454545 277.3636363636364 L 263.5454545454545 277.3636363636364 L 258.6363636363636 277.3636363636364 L 258.6363636363636 277.3636363636364 Z" fill-opacity="0.3"/><path fill="none" stroke="white" paint-order="fill stroke markers" d=" M 258.6363636363636 277.3636363636364 L 263.5454545454545 277.3636363636364 L 263.5454545454545 277.3636363636364 L 258.6363636363636 277.3636363636364 L 258.6363636363636 277.3636363636364 Z" stroke-linejoin="bevel" stroke-miterlimit="10" stroke-opacity="0.3"/><path fill="navy" stroke="none" paint-order="stroke fill markers" d=" M 263.5454545454545 277.3636363636364 L 268.45454545454544 277.3636363636364 L 268.45454545454544 277.3636363636364 L 263.5454545454545 277.3636363636364 L 263.5454545454545 277.3636363636364 Z" fill-opacity="0.3"/><path fill="none" stroke="white" paint-order="fill stroke markers" d=" M 263.5454545454545 277.3636363636364 L 268.45454545454544 277.3636363636364 L 268.45454545454544 277.3636363636364 L 263.5454545454545 277.3636363636364 L 263.5454545454545 277.3636363636364 Z" stroke-linejoin="bevel" stroke-miterlimit="10" stroke-opacity="0.3"/><path fill="navy" stroke="none" paint-order="stroke fill markers" d=" M 268.45454545454544 277.3636363636364 L 273.3636363636363 277.3636363636364 L 273.3636363636363 277.3636363636364 L 268.45454545454544 277.3636363636364 L 268.45454545454544 277.3636363636364 Z" fill-opacity="0.3"/><path fill="none" stroke="white" paint-order="fill stroke markers" d=" M 268.45454545454544 277.3636363636364 L 273.3636363636363 277.3636363636364 L 273.3636363636363 277.3636363636364 L 268.45454545454544 277.3636363636364 L 268.45454545454544 277.3636363636364 Z" stroke-linejoin="bevel" stroke-miterlimit="10" stroke-opacity="0.3"/><path fill="navy" stroke="none" paint-order="stroke fill markers" d=" M 273.3636363636363 277.3636363636364 L 278.27272727272725 277.3636363636364 L 278.27272727272725 277.3636363636364 L 273.3636363636363 277.3636363636364 L 273.3636363636363 277.3636363636364 Z" fill-opacity="0.3"/><path fill="none" stroke="white" paint-order="fill stroke markers" d=" M 273.3636363636363 277.3636363636364 L 278.27272727272725 277.3636363636364 L 278.27272727272725 277.3636363636364 L 273.3636363636363 277.3636363636364 L 273.3636363636363 277.3636363636364 Z" stroke-linejoin="bevel" stroke-miterlimit="10" stroke-opacity="0.3"/><path fill="navy" stroke="none" paint-order="stroke fill markers" d=" M 278.27272727272725 277.3636363636364 L 283.18181818181813 277.3636363636364 L 283.18181818181813 277.3636363636364 L 278.27272727272725 277.3636363636364 L 278.27272727272725 277.3636363636364 Z" fill-opacity="0.3"/><path fill="none" stroke="white" paint-order="fill stroke markers" d=" M 278.27272727272725 277.3636363636364 L 283.18181818181813 277.3636363636364 L 283.18181818181813 277.3636363636364 L 278.27272727272725 277.3636363636364 L 278.27272727272725 277.3636363636364 Z" stroke-linejoin="bevel" stroke-miterlimit="10" stroke-opacity="0.3"/><path fill="navy" stroke="none" paint-order="stroke fill markers" d=" M 283.18181818181813 277.3636363636364 L 288.09090909090907 277.3636363636364 L 288.09090909090907 277.3636363636364 L 283.18181818181813 277.3636363636364 L 283.18181818181813 277.3636363636364 Z" fill-opacity="0.3"/><path fill="none" stroke="white" paint-order="fill stroke markers" d=" M 283.18181818181813 277.3636363636364 L 288.09090909090907 277.3636363636364 L 288.09090909090907 277.3636363636364 L 283.18181818181813 277.3636363636364 L 283.18181818181813 277.3636363636364 Z" stroke-linejoin="bevel" stroke-miterlimit="10" stroke-opacity="0.3"/><path fill="navy" stroke="none" paint-order="stroke fill markers" d=" M 288.09090909090907 277.3636363636364 L 293 277.3636363636364 L 293 277.3636363636364 L 288.09090909090907 277.3636363636364 L 288.09090909090907 277.3636363636364 Z" fill-opacity="0.3"/><path fill="none" stroke="white" paint-order="fill stroke markers" d=" M 288.09090909090907 277.3636363636364 L 293 277.3636363636364 L 293 277.3636363636364 L 288.09090909090907 277.3636363636364 L 288.09090909090907 277.3636363636364 Z" stroke-linejoin="bevel" stroke-miterlimit="10" stroke-opacity="0.3"/><path fill="navy" stroke="none" paint-order="stroke fill markers" d=" M 293 277.3636363636364 L 297.9090909090909 277.3636363636364 L 297.9090909090909 277.3636363636364 L 293 277.3636363636364 L 293 277.3636363636364 Z" fill-opacity="0.3"/><path fill="none" stroke="white" paint-order="fill stroke markers" d=" M 293 277.3636363636364 L 297.9090909090909 277.3636363636364 L 297.9090909090909 277.3636363636364 L 293 277.3636363636364 L 293 277.3636363636364 Z" stroke-linejoin="bevel" stroke-miterlimit="10" stroke-opacity="0.3"/><path fill="navy" stroke="none" paint-order="stroke fill markers" d=" M 297.9090909090909 277.3636363636364 L 302.81818181818176 277.3636363636364 L 302.81818181818176 277.3636363636364 L 297.9090909090909 277.3636363636364 L 297.9090909090909 277.3636363636364 Z" fill-opacity="0.3"/><path fill="none" stroke="white" paint-order="fill stroke markers" d=" M 297.9090909090909 277.3636363636364 L 302.81818181818176 277.3636363636364 L 302.81818181818176 277.3636363636364 L 297.9090909090909 277.3636363636364 L 297.9090909090909 277.3636363636364 Z" stroke-linejoin="bevel" stroke-miterlimit="10" stroke-opacity="0.3"/><path fill="navy" stroke="none" paint-order="stroke fill markers" d=" M 302.81818181818176 161 L 307.7272727272727 161 L 307.7272727272727 277.3636363636364 L 302.81818181818176 277.3636363636364 L 302.81818181818176 161 Z" fill-opacity="0.3"/><path fill="none" stroke="white" paint-order="fill stroke markers" d=" M 302.81818181818176 161 L 307.7272727272727 161 L 307.7272727272727 277.3636363636364 L 302.81818181818176 277.3636363636364 L 302.81818181818176 161 Z" stroke-linejoin="bevel" stroke-miterlimit="10" stroke-opacity="0.3"/></g></g></g><g clip-path="url(#UEKJPRqepqwf)"><g><g><path fill="none" stroke="red" paint-order="fill stroke markers" d=" M 135.35470437827985 33 L 135.35470437827985 289" stroke-linejoin="bevel" stroke-miterlimit="10" stroke-width="3" stroke-dasharray="6"/></g></g></g><g><g fill="#444444"><path fill="" stroke="none" d=""/><g transform="translate(185,5)"><path fill="none" stroke="none"/><text fill="" stroke="none" font-family="helvetica" font-size="12pt" font-style="normal" font-weight="bold" text-decoration="normal" x="0" y="0" text-anchor="middle" dominant-baseline="text-before-edge">Unstructured regions/Linker EDC</text></g></g></g><g/><g><g fill="#444444"><path fill="none" stroke="black" paint-order="fill stroke markers" d=" M 50 289 L 320 289" stroke-linejoin="bevel" stroke-miterlimit="10"/><path fill="none" stroke="black" paint-order="fill stroke markers" d=" M 62 295 L 62 287" stroke-linejoin="bevel" stroke-miterlimit="10"/><path fill="none" stroke="black" paint-order="fill stroke markers" d=" M 99 295 L 99 287" stroke-linejoin="bevel" stroke-miterlimit="10"/><path fill="none" stroke="black" paint-order="fill stroke markers" d=" M 135 295 L 135 287" stroke-linejoin="bevel" stroke-miterlimit="10"/><path fill="none" stroke="black" paint-order="fill stroke markers" d=" M 172 295 L 172 287" stroke-linejoin="bevel" stroke-miterlimit="10"/><path fill="none" stroke="black" paint-order="fill stroke markers" d=" M 208 295 L 208 287" stroke-linejoin="bevel" stroke-miterlimit="10"/><path fill="none" stroke="black" paint-order="fill stroke markers" d=" M 245 295 L 245 287" stroke-linejoin="bevel" stroke-miterlimit="10"/><path fill="none" stroke="black" paint-order="fill stroke markers" d=" M 282 295 L 282 287" stroke-linejoin="bevel" stroke-miterlimit="10"/><path fill="none" stroke="black" paint-order="fill stroke markers" d=" M 318 295 L 318 287" stroke-linejoin="bevel" stroke-miterlimit="10"/><path fill="none" stroke="black" paint-order="fill stroke markers" d=" M 55 293 L 55 289" stroke-linejoin="bevel" stroke-miterlimit="10"/><path fill="none" stroke="black" paint-order="fill stroke markers" d=" M 62 293 L 62 289" stroke-linejoin="bevel" stroke-miterlimit="10"/><path fill="none" stroke="black" paint-order="fill stroke markers" d=" M 70 293 L 70 289" stroke-linejoin="bevel" stroke-miterlimit="10"/><path fill="none" stroke="black" paint-order="fill stroke markers" d=" M 77 293 L 77 289" stroke-linejoin="bevel" stroke-miterlimit="10"/><path fill="none" stroke="black" paint-order="fill stroke markers" d=" M 84 293 L 84 289" stroke-linejoin="bevel" stroke-miterlimit="10"/><path fill="none" stroke="black" paint-order="fill stroke markers" d=" M 92 293 L 92 289" stroke-linejoin="bevel" stroke-miterlimit="10"/><path fill="none" stroke="black" paint-order="fill stroke markers" d=" M 99 293 L 99 289" stroke-linejoin="bevel" stroke-miterlimit="10"/><path fill="none" stroke="black" paint-order="fill stroke markers" d=" M 106 293 L 106 289" stroke-linejoin="bevel" stroke-miterlimit="10"/><path fill="none" stroke="black" paint-order="fill stroke markers" d=" M 113 293 L 113 289" stroke-linejoin="bevel" stroke-miterlimit="10"/><path fill="none" stroke="black" paint-order="fill stroke markers" d=" M 121 293 L 121 289" stroke-linejoin="bevel" stroke-miterlimit="10"/><path fill="none" stroke="black" paint-order="fill stroke markers" d=" M 128 293 L 128 289" stroke-linejoin="bevel" stroke-miterlimit="10"/><path fill="none" stroke="black" paint-order="fill stroke markers" d=" M 135 293 L 135 289" stroke-linejoin="bevel" stroke-miterlimit="10"/><path fill="none" stroke="black" paint-order="fill stroke markers" d=" M 143 293 L 143 289" stroke-linejoin="bevel" stroke-miterlimit="10"/><path fill="none" stroke="black" paint-order="fill stroke markers" d=" M 150 293 L 150 289" stroke-linejoin="bevel" stroke-miterlimit="10"/><path fill="none" stroke="black" paint-order="fill stroke markers" d=" M 157 293 L 157 289" stroke-linejoin="bevel" stroke-miterlimit="10"/><path fill="none" stroke="black" paint-order="fill stroke markers" d=" M 165 293 L 165 289" stroke-linejoin="bevel" stroke-miterlimit="10"/><path fill="none" stroke="black" paint-order="fill stroke markers" d=" M 172 293 L 172 289" stroke-linejoin="bevel" stroke-miterlimit="10"/><path fill="none" stroke="black" paint-order="fill stroke markers" d=" M 179 293 L 179 289" stroke-linejoin="bevel" stroke-miterlimit="10"/><path fill="none" stroke="black" paint-order="fill stroke markers" d=" M 187 293 L 187 289" stroke-linejoin="bevel" stroke-miterlimit="10"/><path fill="none" stroke="black" paint-order="fill stroke markers" d=" M 194 293 L 194 289" stroke-linejoin="bevel" stroke-miterlimit="10"/><path fill="none" stroke="black" paint-order="fill stroke markers" d=" M 201 293 L 201 289" stroke-linejoin="bevel" stroke-miterlimit="10"/><path fill="none" stroke="black" paint-order="fill stroke markers" d=" M 208 293 L 208 289" stroke-linejoin="bevel" stroke-miterlimit="10"/><path fill="none" stroke="black" paint-order="fill stroke markers" d=" M 216 293 L 216 289" stroke-linejoin="bevel" stroke-miterlimit="10"/><path fill="none" stroke="black" paint-order="fill stroke markers" d=" M 223 293 L 223 289" stroke-linejoin="bevel" stroke-miterlimit="10"/><path fill="none" stroke="black" paint-order="fill stroke markers" d=" M 230 293 L 230 289" stroke-linejoin="bevel" stroke-miterlimit="10"/><path fill="none" stroke="black" paint-order="fill stroke markers" d=" M 238 293 L 238 289" stroke-linejoin="bevel" stroke-miterlimit="10"/><path fill="none" stroke="black" paint-order="fill stroke markers" d=" M 245 293 L 245 289" stroke-linejoin="bevel" stroke-miterlimit="10"/><path fill="none" stroke="black" paint-order="fill stroke markers" d=" M 252 293 L 252 289" stroke-linejoin="bevel" stroke-miterlimit="10"/><path fill="none" stroke="black" paint-order="fill stroke markers" d=" M 260 293 L 260 289" stroke-linejoin="bevel" stroke-miterlimit="10"/><path fill="none" stroke="black" paint-order="fill stroke markers" d=" M 267 293 L 267 289" stroke-linejoin="bevel" stroke-miterlimit="10"/><path fill="none" stroke="black" paint-order="fill stroke markers" d=" M 274 293 L 274 289" stroke-linejoin="bevel" stroke-miterlimit="10"/><path fill="none" stroke="black" paint-order="fill stroke markers" d=" M 282 293 L 282 289" stroke-linejoin="bevel" stroke-miterlimit="10"/><path fill="none" stroke="black" paint-order="fill stroke markers" d=" M 289 293 L 289 289" stroke-linejoin="bevel" stroke-miterlimit="10"/><path fill="none" stroke="black" paint-order="fill stroke markers" d=" M 296 293 L 296 289" stroke-linejoin="bevel" stroke-miterlimit="10"/><path fill="none" stroke="black" paint-order="fill stroke markers" d=" M 303 293 L 303 289" stroke-linejoin="bevel" stroke-miterlimit="10"/><path fill="none" stroke="black" paint-order="fill stroke markers" d=" M 311 293 L 311 289" stroke-linejoin="bevel" stroke-miterlimit="10"/><path fill="" stroke="black" paint-order="fill stroke markers" d=" M 318 293 L 318 289" stroke-linejoin="bevel" stroke-miterlimit="10"/><g transform="translate(62,300) rotate(0,0,0)"><text fill="" stroke="none" font-family="helvetica" font-size="14pt" font-style="normal" font-weight="normal" text-decoration="normal" x="0" y="0" text-anchor="middle" dominant-baseline="hanging">0</text><g transform="rotate(0,0,0) translate(-62,-300) translate(99,300) rotate(0,0,0)"><text fill="" stroke="none" font-family="helvetica" font-size="14pt" font-style="normal" font-weight="normal" text-decoration="normal" x="0" y="0" text-anchor="middle" dominant-baseline="hanging">10</text><g transform="rotate(0,0,0) translate(-99,-300) translate(135,300) rotate(0,0,0)"><text fill="" stroke="none" font-family="helvetica" font-size="14pt" font-style="normal" font-weight="normal" text-decoration="normal" x="0" y="0" text-anchor="middle" dominant-baseline="hanging">20</text><g transform="rotate(0,0,0) translate(-135,-300) translate(172,300) rotate(0,0,0)"><text fill="" stroke="none" font-family="helvetica" font-size="14pt" font-style="normal" font-weight="normal" text-decoration="normal" x="0" y="0" text-anchor="middle" dominant-baseline="hanging">30</text><g transform="rotate(0,0,0) translate(-172,-300) translate(208,300) rotate(0,0,0)"><text fill="" stroke="none" font-family="helvetica" font-size="14pt" font-style="normal" font-weight="normal" text-decoration="normal" x="0" y="0" text-anchor="middle" dominant-baseline="hanging">40</text><g transform="rotate(0,0,0) translate(-208,-300) translate(245,300) rotate(0,0,0)"><text fill="" stroke="none" font-family="helvetica" font-size="14pt" font-style="normal" font-weight="normal" text-decoration="normal" x="0" y="0" text-anchor="middle" dominant-baseline="hanging">50</text><g transform="rotate(0,0,0) translate(-245,-300) translate(282,300) rotate(0,0,0)"><text fill="" stroke="none" font-family="helvetica" font-size="14pt" font-style="normal" font-weight="normal" text-decoration="normal" x="0" y="0" text-anchor="middle" dominant-baseline="hanging">60</text><g transform="rotate(0,0,0) translate(-282,-300) translate(318,300) rotate(0,0,0)"><text fill="" stroke="none" font-family="helvetica" font-size="14pt" font-style="normal" font-weight="normal" text-decoration="normal" x="0" y="0" text-anchor="middle" dominant-baseline="hanging">70</text><g transform="rotate(0,0,0) translate(-318,-300) translate(185,327) rotate(0,0,0)"><text fill="" stroke="none" font-family="helvetica" font-size="14pt" font-style="italic" font-weight="normal" text-decoration="normal" x="0" y="0" text-anchor="middle" dominant-baseline="hanging">Distance Å</text><g transform="rotate(0,0,0) translate(-185,-327)"/></g></g></g></g></g></g></g></g></g></g></g><g><g fill="#444444"><path fill="none" stroke="black" paint-order="fill stroke markers" d=" M 50 289 L 50 33" stroke-linejoin="bevel" stroke-miterlimit="10"/><path fill="none" stroke="black" paint-order="fill stroke markers" d=" M 44 277 L 52 277" stroke-linejoin="bevel" stroke-miterlimit="10"/><path fill="none" stroke="black" paint-order="fill stroke markers" d=" M 44 219 L 52 219" stroke-linejoin="bevel" stroke-miterlimit="10"/><path fill="none" stroke="black" paint-order="fill stroke markers" d=" M 44 161 L 52 161" stroke-linejoin="bevel" stroke-miterlimit="10"/><path fill="none" stroke="black" paint-order="fill stroke markers" d=" M 44 103 L 52 103" stroke-linejoin="bevel" stroke-miterlimit="10"/><path fill="none" stroke="black" paint-order="fill stroke markers" d=" M 44 45 L 52 45" stroke-linejoin="bevel" stroke-miterlimit="10"/><path fill="none" stroke="black" paint-order="fill stroke markers" d=" M 46 289 L 50 289" stroke-linejoin="bevel" stroke-miterlimit="10"/><path fill="none" stroke="black" paint-order="fill stroke markers" d=" M 46 277 L 50 277" stroke-linejoin="bevel" stroke-miterlimit="10"/><path fill="none" stroke="black" paint-order="fill stroke markers" d=" M 46 266 L 50 266" stroke-linejoin="bevel" stroke-miterlimit="10"/><path fill="none" stroke="black" paint-order="fill stroke markers" d=" M 46 254 L 50 254" stroke-linejoin="bevel" stroke-miterlimit="10"/><path fill="none" stroke="black" paint-order="fill stroke markers" d=" M 46 242 L 50 242" stroke-linejoin="bevel" stroke-miterlimit="10"/><path fill="none" stroke="black" paint-order="fill stroke markers" d=" M 46 231 L 50 231" stroke-linejoin="bevel" stroke-miterlimit="10"/><path fill="none" stroke="black" paint-order="fill stroke markers" d=" M 46 219 L 50 219" stroke-linejoin="bevel" stroke-miterlimit="10"/><path fill="none" stroke="black" paint-order="fill stroke markers" d=" M 46 208 L 50 208" stroke-linejoin="bevel" stroke-miterlimit="10"/><path fill="none" stroke="black" paint-order="fill stroke markers" d=" M 46 196 L 50 196" stroke-linejoin="bevel" stroke-miterlimit="10"/><path fill="none" stroke="black" paint-order="fill stroke markers" d=" M 46 184 L 50 184" stroke-linejoin="bevel" stroke-miterlimit="10"/><path fill="none" stroke="black" paint-order="fill stroke markers" d=" M 46 173 L 50 173" stroke-linejoin="bevel" stroke-miterlimit="10"/><path fill="none" stroke="black" paint-order="fill stroke markers" d=" M 46 161 L 50 161" stroke-linejoin="bevel" stroke-miterlimit="10"/><path fill="none" stroke="black" paint-order="fill stroke markers" d=" M 46 149 L 50 149" stroke-linejoin="bevel" stroke-miterlimit="10"/><path fill="none" stroke="black" paint-order="fill stroke markers" d=" M 46 138 L 50 138" stroke-linejoin="bevel" stroke-miterlimit="10"/><path fill="none" stroke="black" paint-order="fill stroke markers" d=" M 46 126 L 50 126" stroke-linejoin="bevel" stroke-miterlimit="10"/><path fill="none" stroke="black" paint-order="fill stroke markers" d=" M 46 114 L 50 114" stroke-linejoin="bevel" stroke-miterlimit="10"/><path fill="none" stroke="black" paint-order="fill stroke markers" d=" M 46 103 L 50 103" stroke-linejoin="bevel" stroke-miterlimit="10"/><path fill="none" stroke="black" paint-order="fill stroke markers" d=" M 46 91 L 50 91" stroke-linejoin="bevel" stroke-miterlimit="10"/><path fill="none" stroke="black" paint-order="fill stroke markers" d=" M 46 80 L 50 80" stroke-linejoin="bevel" stroke-miterlimit="10"/><path fill="none" stroke="black" paint-order="fill stroke markers" d=" M 46 68 L 50 68" stroke-linejoin="bevel" stroke-miterlimit="10"/><path fill="none" stroke="black" paint-order="fill stroke markers" d=" M 46 56 L 50 56" stroke-linejoin="bevel" stroke-miterlimit="10"/><path fill="none" stroke="black" paint-order="fill stroke markers" d=" M 46 45 L 50 45" stroke-linejoin="bevel" stroke-miterlimit="10"/><path fill="" stroke="black" paint-order="fill stroke markers" d=" M 46 33 L 50 33" stroke-linejoin="bevel" stroke-miterlimit="10"/><g transform="translate(39,277) rotate(0,0,0)"><text fill="" stroke="none" font-family="helvetica" font-size="14pt" font-style="normal" font-weight="normal" text-decoration="normal" x="0" y="0" text-anchor="end" dominant-baseline="central">0</text><g transform="rotate(0,0,0) translate(-39,-277) translate(39,219) rotate(0,0,0)"><text fill="" stroke="none" font-family="helvetica" font-size="14pt" font-style="normal" font-weight="normal" text-decoration="normal" x="0" y="0" text-anchor="end" dominant-baseline="central">1</text><g transform="rotate(0,0,0) translate(-39,-219) translate(39,161) rotate(0,0,0)"><text fill="" stroke="none" font-family="helvetica" font-size="14pt" font-style="normal" font-weight="normal" text-decoration="normal" x="0" y="0" text-anchor="end" dominant-baseline="central">2</text><g transform="rotate(0,0,0) translate(-39,-161) translate(39,103) rotate(0,0,0)"><text fill="" stroke="none" font-family="helvetica" font-size="14pt" font-style="normal" font-weight="normal" text-decoration="normal" x="0" y="0" text-anchor="end" dominant-baseline="central">3</text><g transform="rotate(0,0,0) translate(-39,-103) translate(39,45) rotate(0,0,0)"><text fill="" stroke="none" font-family="helvetica" font-size="14pt" font-style="normal" font-weight="normal" text-decoration="normal" x="0" y="0" text-anchor="end" dominant-baseline="central">4</text><g transform="rotate(0,0,0) translate(-39,-45) translate(23,161) rotate(-90,0,0)"><text fill="" stroke="none" font-family="helvetica" font-size="14pt" font-style="italic" font-weight="normal" text-decoration="normal" x="0" y="0" text-anchor="middle" dominant-baseline="alphabetic">Number of cross-links</text><g transform="rotate(90,0,0) translate(-23,-161)"/></g></g></g></g></g></g></g></g><g clip-path="url(#zhpfUSBwOgKR)"><g/></g></g></g></svg>