<svg version="1.1" xmlns="http://www.w3.org/2000/svg" xmlns:xlink="http://www.w3.org/1999/xlink" width="400" height="400" style="width: 400px; height: 400px;"><defs><clipPath id="TCopOzKTVApn"><path fill="none" stroke="none" d=" M 61 33 L 370 33 L 370 339 L 61 339 L 61 33 Z"/></clipPath><clipPath id="pfWOKgTINiuT"><path fill="none" stroke="none" d=" M 61 33 L 370 33 L 370 339 L 61 339 L 61 33 Z"/></clipPath><clipPath id="fBTkyCivvzlB"><path fill="none" stroke="none" d=" M 61 33 L 370 33 L 370 339 L 61 339 L 61 33 Z"/></clipPath><clipPath id="ZDJGuXOHQnQy"><path fill="none" stroke="none" d=" M 61 33 L 370 33 L 370 339 L 61 339 L 61 33 Z"/></clipPath><clipPath id="qZRqpUiFcrTU"><path fill="none" stroke="none" d=" M 61 33 L 370 33 L 370 339 L 61 339 L 61 33 Z"/></clipPath><clipPath id="EXiUJMUKTMpb"><path fill="none" stroke="none" d=" M 61 33 L 370 33 L 370 339 L 61 339 L 61 33 Z"/></clipPath><clipPath id="NXnBJBrkBGRh"><path fill="none" stroke="none" d=" M 61 33 L 370 33 L 370 339 L 61 339 L 61 33 Z"/></clipPath><clipPath id="UVWUwCuxqrCy"><path fill="none" stroke="none" d=" M 61 33 L 370 33 L 370 339 L 61 339 L 61 33 Z"/></clipPath><clipPath id="RncMeSVDBTWH"><path fill="none" stroke="none" d=" M 61 33 L 370 33 L 370 339 L 61 339 L 61 33 Z"/></clipPath><clipPath id="hFbKJvAOlBIO"><path fill="none" stroke="none" d=" M 61 33 L 370 33 L 370 339 L 61 339 L 61 33 Z"/></clipPath></defs><g><g transform="scale(1,1) translate(0.5,0.5)"><rect fill="#FFFFFF" stroke="none" x="0" y="0" width="400" height="400"/><rect fill="#ffffff" stroke="none" x="0" y="0" width="400" height="400"/><rect fill="#FFFFFF" stroke="none" x="61" y="33" width="309" height="306"/><rect fill="#ffffff" stroke="none" x="61" y="33" width="309" height="306"/><g><rect fill="none" stroke="#e5e5e5" x="61" y="33" width="309" height="306" stroke-linejoin="bevel" stroke-miterlimit="10"/></g><g clip-path="url(#TCopOzKTVApn)"><g><g><path fill="none" stroke="#e5e5e5" paint-order="fill stroke markers" d=" M 75 339 L 75 33" stroke-linejoin="bevel" stroke-miterlimit="10"/><path fill="none" stroke="#e5e5e5" paint-order="fill stroke markers" d=" M 122 339 L 122 33" stroke-linejoin="bevel" stroke-miterlimit="10"/><path fill="none" stroke="#e5e5e5" paint-order="fill stroke markers" d=" M 168 339 L 168 33" stroke-linejoin="bevel" stroke-miterlimit="10"/><path fill="none" stroke="#e5e5e5" paint-order="fill stroke markers" d=" M 215 339 L 215 33" stroke-linejoin="bevel" stroke-miterlimit="10"/><path fill="none" stroke="#e5e5e5" paint-order="fill stroke markers" d=" M 261 339 L 261 33" stroke-linejoin="bevel" stroke-miterlimit="10"/><path fill="none" stroke="#e5e5e5" paint-order="fill stroke markers" d=" M 307 339 L 307 33" stroke-linejoin="bevel" stroke-miterlimit="10"/><path fill="none" stroke="#e5e5e5" paint-order="fill stroke markers" d=" M 354 339 L 354 33" stroke-linejoin="bevel" stroke-miterlimit="10"/></g></g></g><g clip-path="url(#pfWOKgTINiuT)"><g><g><path fill="none" stroke="#e5e5e5" paint-order="fill stroke markers" d=" M 61 325 L 370 325" stroke-linejoin="bevel" stroke-miterlimit="10"/><path fill="none" stroke="#e5e5e5" paint-order="fill stroke markers" d=" M 61 248 L 370 248" stroke-linejoin="bevel" stroke-miterlimit="10"/><path fill="none" stroke="#e5e5e5" paint-order="fill stroke markers" d=" M 61 171 L 370 171" stroke-linejoin="bevel" stroke-miterlimit="10"/><path fill="none" stroke="#e5e5e5" paint-order="fill stroke markers" d=" M 61 93 L 370 93" stroke-linejoin="bevel" stroke-miterlimit="10"/></g></g></g><g clip-path="url(#fBTkyCivvzlB)"><g><g><path fill="none" stroke="none"/><path fill="navy" stroke="none" paint-order="stroke fill markers" d=" M 75.04545454545456 263.27272727272725 L 80.66363636363639 263.27272727272725 L 80.66363636363639 325.09090909090907 L 75.04545454545456 325.09090909090907 L 75.04545454545456 263.27272727272725 Z" fill-opacity="0.3"/><path fill="none" stroke="white" paint-order="fill stroke markers" d=" M 75.04545454545456 263.27272727272725 L 80.66363636363639 263.27272727272725 L 80.66363636363639 325.09090909090907 L 75.04545454545456 325.09090909090907 L 75.04545454545456 263.27272727272725 Z" stroke-linejoin="bevel" stroke-miterlimit="10" stroke-opacity="0.3"/><path fill="navy" stroke="none" paint-order="stroke fill markers" d=" M 80.66363636363639 325.09090909090907 L 86.2818181818182 325.09090909090907 L 86.2818181818182 325.09090909090907 L 80.66363636363639 325.09090909090907 L 80.66363636363639 325.09090909090907 Z" fill-opacity="0.3"/><path fill="none" stroke="white" paint-order="fill stroke markers" d=" M 80.66363636363639 325.09090909090907 L 86.2818181818182 325.09090909090907 L 86.2818181818182 325.09090909090907 L 80.66363636363639 325.09090909090907 L 80.66363636363639 325.09090909090907 Z" stroke-linejoin="bevel" stroke-miterlimit="10" stroke-opacity="0.3"/><path fill="navy" stroke="none" paint-order="stroke fill markers" d=" M 86.2818181818182 247.81818181818178 L 91.9 247.81818181818178 L 91.9 325.09090909090907 L 86.2818181818182 325.09090909090907 L 86.2818181818182 247.81818181818178 Z" fill-opacity="0.3"/><path fill="none" stroke="white" paint-order="fill stroke markers" d=" M 86.2818181818182 247.81818181818178 L 91.9 247.81818181818178 L 91.9 325.09090909090907 L 86.2818181818182 325.09090909090907 L 86.2818181818182 247.81818181818178 Z" stroke-linejoin="bevel" stroke-miterlimit="10" stroke-opacity="0.3"/><path fill="navy" stroke="none" paint-order="stroke fill markers" d=" M 91.9 263.27272727272725 L 97.51818181818183 263.27272727272725 L 97.51818181818183 325.09090909090907 L 91.9 325.09090909090907 L 91.9 263.27272727272725 Z" fill-opacity="0.3"/><path fill="none" stroke="white" paint-order="fill stroke markers" d=" M 91.9 263.27272727272725 L 97.51818181818183 263.27272727272725 L 97.51818181818183 325.09090909090907 L 91.9 325.09090909090907 L 91.9 263.27272727272725 Z" stroke-linejoin="bevel" stroke-miterlimit="10" stroke-opacity="0.3"/><path fill="navy" stroke="none" paint-order="stroke fill markers" d=" M 97.51818181818183 46.90909090909082 L 103.13636363636365 46.90909090909082 L 103.13636363636365 325.09090909090907 L 97.51818181818183 325.09090909090907 L 97.51818181818183 46.90909090909082 Z" fill-opacity="0.3"/><path fill="none" stroke="white" paint-order="fill stroke markers" d=" M 97.51818181818183 46.90909090909082 L 103.13636363636365 46.90909090909082 L 103.13636363636365 325.09090909090907 L 97.51818181818183 325.09090909090907 L 97.51818181818183 46.90909090909082 Z" stroke-linejoin="bevel" stroke-miterlimit="10" stroke-opacity="0.3"/><path fill="navy" stroke="none" paint-order="stroke fill markers" d=" M 103.13636363636365 77.81818181818176 L 108.75454545454546 77.81818181818176 L 108.75454545454546 325.09090909090907 L 103.13636363636365 325.09090909090907 L 103.13636363636365 77.81818181818176 Z" fill-opacity="0.3"/><path fill="none" stroke="white" paint-order="fill stroke markers" d=" M 103.13636363636365 77.81818181818176 L 108.75454545454546 77.81818181818176 L 108.75454545454546 325.09090909090907 L 103.13636363636365 325.09090909090907 L 103.13636363636365 77.81818181818176 Z" stroke-linejoin="bevel" stroke-miterlimit="10" stroke-opacity="0.3"/><path fill="navy" stroke="none" paint-order="stroke fill markers" d=" M 108.75454545454546 155.09090909090904 L 114.37272727272727 155.09090909090904 L 114.37272727272727 325.09090909090907 L 108.75454545454546 325.09090909090907 L 108.75454545454546 155.09090909090904 Z" fill-opacity="0.3"/><path fill="none" stroke="white" paint-order="fill stroke markers" d=" M 108.75454545454546 155.09090909090904 L 114.37272727272727 155.09090909090904 L 114.37272727272727 325.09090909090907 L 108.75454545454546 325.09090909090907 L 108.75454545454546 155.09090909090904 Z" stroke-linejoin="bevel" stroke-miterlimit="10" stroke-opacity="0.3"/><path fill="navy" stroke="none" paint-order="stroke fill markers" d=" M 114.37272727272727 170.5454545454545 L 119.9909090909091 170.5454545454545 L 119.9909090909091 325.09090909090907 L 114.37272727272727 325.09090909090907 L 114.37272727272727 170.5454545454545 Z" fill-opacity="0.3"/><path fill="none" stroke="white" paint-order="fill stroke markers" d=" M 114.37272727272727 170.5454545454545 L 119.9909090909091 170.5454545454545 L 119.9909090909091 325.09090909090907 L 114.37272727272727 325.09090909090907 L 114.37272727272727 170.5454545454545 Z" stroke-linejoin="bevel" stroke-miterlimit="10" stroke-opacity="0.3"/><path fill="navy" stroke="none" paint-order="stroke fill markers" d=" M 119.9909090909091 263.27272727272725 L 125.60909090909092 263.27272727272725 L 125.60909090909092 325.09090909090907 L 119.9909090909091 325.09090909090907 L 119.9909090909091 263.27272727272725 Z" fill-opacity="0.3"/><path fill="none" stroke="white" paint-order="fill stroke markers" d=" M 119.9909090909091 263.27272727272725 L 125.60909090909092 263.27272727272725 L 125.60909090909092 325.09090909090907 L 119.9909090909091 325.09090909090907 L 119.9909090909091 263.27272727272725 Z" stroke-linejoin="bevel" stroke-miterlimit="10" stroke-opacity="0.3"/><path fill="navy" stroke="none" paint-order="stroke fill markers" d=" M 125.60909090909092 278.7272727272727 L 131.22727272727275 278.7272727272727 L 131.22727272727275 325.09090909090907 L 125.60909090909092 325.09090909090907 L 125.60909090909092 278.7272727272727 Z" fill-opacity="0.3"/><path fill="none" stroke="white" paint-order="fill stroke markers" d=" M 125.60909090909092 278.7272727272727 L 131.22727272727275 278.7272727272727 L 131.22727272727275 325.09090909090907 L 125.60909090909092 325.09090909090907 L 125.60909090909092 278.7272727272727 Z" stroke-linejoin="bevel" stroke-miterlimit="10" stroke-opacity="0.3"/><path fill="navy" stroke="none" paint-order="stroke fill markers" d=" M 131.22727272727275 309.6363636363636 L 136.84545454545454 309.6363636363636 L 136.84545454545454 325.09090909090907 L 131.22727272727275 325.09090909090907 L 131.22727272727275 309.6363636363636 Z" fill-opacity="0.3"/><path fill="none" stroke="white" paint-order="fill stroke markers" d=" M 131.22727272727275 309.6363636363636 L 136.84545454545454 309.6363636363636 L 136.84545454545454 325.09090909090907 L 131.22727272727275 325.09090909090907 L 131.22727272727275 309.6363636363636 Z" stroke-linejoin="bevel" stroke-miterlimit="10" stroke-opacity="0.3"/><path fill="navy" stroke="none" paint-order="stroke fill markers" d=" M 136.84545454545454 325.09090909090907 L 142.46363636363637 325.09090909090907 L 142.46363636363637 325.09090909090907 L 136.84545454545454 325.09090909090907 L 136.84545454545454 325.09090909090907 Z" fill-opacity="0.3"/><path fill="none" stroke="white" paint-order="fill stroke markers" d=" M 136.84545454545454 325.09090909090907 L 142.46363636363637 325.09090909090907 L 142.46363636363637 325.09090909090907 L 136.84545454545454 325.09090909090907 L 136.84545454545454 325.09090909090907 Z" stroke-linejoin="bevel" stroke-miterlimit="10" stroke-opacity="0.3"/><path fill="navy" stroke="none" paint-order="stroke fill markers" d=" M 142.46363636363637 309.6363636363636 L 148.08181818181816 309.6363636363636 L 148.08181818181816 325.09090909090907 L 142.46363636363637 325.09090909090907 L 142.46363636363637 309.6363636363636 Z" fill-opacity="0.3"/><path fill="none" stroke="white" paint-order="fill stroke markers" d=" M 142.46363636363637 309.6363636363636 L 148.08181818181816 309.6363636363636 L 148.08181818181816 325.09090909090907 L 142.46363636363637 325.09090909090907 L 142.46363636363637 309.6363636363636 Z" stroke-linejoin="bevel" stroke-miterlimit="10" stroke-opacity="0.3"/><path fill="navy" stroke="none" paint-order="stroke fill markers" d=" M 148.08181818181816 309.6363636363636 L 153.7 309.6363636363636 L 153.7 325.09090909090907 L 148.08181818181816 325.09090909090907 L 148.08181818181816 309.6363636363636 Z" fill-opacity="0.3"/><path fill="none" stroke="white" paint-order="fill stroke markers" d=" M 148.08181818181816 309.6363636363636 L 153.7 309.6363636363636 L 153.7 325.09090909090907 L 148.08181818181816 325.09090909090907 L 148.08181818181816 309.6363636363636 Z" stroke-linejoin="bevel" stroke-miterlimit="10" stroke-opacity="0.3"/><path fill="navy" stroke="none" paint-order="stroke fill markers" d=" M 153.7 325.09090909090907 L 159.3181818181818 325.09090909090907 L 159.3181818181818 325.09090909090907 L 153.7 325.09090909090907 L 153.7 325.09090909090907 Z" fill-opacity="0.3"/><path fill="none" stroke="white" paint-order="fill stroke markers" d=" M 153.7 325.09090909090907 L 159.3181818181818 325.09090909090907 L 159.3181818181818 325.09090909090907 L 153.7 325.09090909090907 L 153.7 325.09090909090907 Z" stroke-linejoin="bevel" stroke-miterlimit="10" stroke-opacity="0.3"/><path fill="navy" stroke="none" paint-order="stroke fill markers" d=" M 159.3181818181818 325.09090909090907 L 164.93636363636364 325.09090909090907 L 164.93636363636364 325.09090909090907 L 159.3181818181818 325.09090909090907 L 159.3181818181818 325.09090909090907 Z" fill-opacity="0.3"/><path fill="none" stroke="white" paint-order="fill stroke markers" d=" M 159.3181818181818 325.09090909090907 L 164.93636363636364 325.09090909090907 L 164.93636363636364 325.09090909090907 L 159.3181818181818 325.09090909090907 L 159.3181818181818 325.09090909090907 Z" stroke-linejoin="bevel" stroke-miterlimit="10" stroke-opacity="0.3"/><path fill="navy" stroke="none" paint-order="stroke fill markers" d=" M 164.93636363636364 325.09090909090907 L 170.55454545454546 325.09090909090907 L 170.55454545454546 325.09090909090907 L 164.93636363636364 325.09090909090907 L 164.93636363636364 325.09090909090907 Z" fill-opacity="0.3"/><path fill="none" stroke="white" paint-order="fill stroke markers" d=" M 164.93636363636364 325.09090909090907 L 170.55454545454546 325.09090909090907 L 170.55454545454546 325.09090909090907 L 164.93636363636364 325.09090909090907 L 164.93636363636364 325.09090909090907 Z" stroke-linejoin="bevel" stroke-miterlimit="10" stroke-opacity="0.3"/><path fill="navy" stroke="none" paint-order="stroke fill markers" d=" M 170.55454545454546 325.09090909090907 L 176.1727272727273 325.09090909090907 L 176.1727272727273 325.09090909090907 L 170.55454545454546 325.09090909090907 L 170.55454545454546 325.09090909090907 Z" fill-opacity="0.3"/><path fill="none" stroke="white" paint-order="fill stroke markers" d=" M 170.55454545454546 325.09090909090907 L 176.1727272727273 325.09090909090907 L 176.1727272727273 325.09090909090907 L 170.55454545454546 325.09090909090907 L 170.55454545454546 325.09090909090907 Z" stroke-linejoin="bevel" stroke-miterlimit="10" stroke-opacity="0.3"/><path fill="navy" stroke="none" paint-order="stroke fill markers" d=" M 176.1727272727273 325.09090909090907 L 181.7909090909091 325.09090909090907 L 181.7909090909091 325.09090909090907 L 176.1727272727273 325.09090909090907 L 176.1727272727273 325.09090909090907 Z" fill-opacity="0.3"/><path fill="none" stroke="white" paint-order="fill stroke markers" d=" M 176.1727272727273 325.09090909090907 L 181.7909090909091 325.09090909090907 L 181.7909090909091 325.09090909090907 L 176.1727272727273 325.09090909090907 L 176.1727272727273 325.09090909090907 Z" stroke-linejoin="bevel" stroke-miterlimit="10" stroke-opacity="0.3"/><path fill="navy" stroke="none" paint-order="stroke fill markers" d=" M 181.7909090909091 325.09090909090907 L 187.4090909090909 325.09090909090907 L 187.4090909090909 325.09090909090907 L 181.7909090909091 325.09090909090907 L 181.7909090909091 325.09090909090907 Z" fill-opacity="0.3"/><path fill="none" stroke="white" paint-order="fill stroke markers" d=" M 181.7909090909091 325.09090909090907 L 187.4090909090909 325.09090909090907 L 187.4090909090909 325.09090909090907 L 181.7909090909091 325.09090909090907 L 181.7909090909091 325.09090909090907 Z" stroke-linejoin="bevel" stroke-miterlimit="10" stroke-opacity="0.3"/><path fill="navy" stroke="none" paint-order="stroke fill markers" d=" M 187.4090909090909 325.09090909090907 L 193.02727272727273 325.09090909090907 L 193.02727272727273 325.09090909090907 L 187.4090909090909 325.09090909090907 L 187.4090909090909 325.09090909090907 Z" fill-opacity="0.3"/><path fill="none" stroke="white" paint-order="fill stroke markers" d=" M 187.4090909090909 325.09090909090907 L 193.02727272727273 325.09090909090907 L 193.02727272727273 325.09090909090907 L 187.4090909090909 325.09090909090907 L 187.4090909090909 325.09090909090907 Z" stroke-linejoin="bevel" stroke-miterlimit="10" stroke-opacity="0.3"/><path fill="navy" stroke="none" paint-order="stroke fill markers" d=" M 193.02727272727273 325.09090909090907 L 198.64545454545453 325.09090909090907 L 198.64545454545453 325.09090909090907 L 193.02727272727273 325.09090909090907 L 193.02727272727273 325.09090909090907 Z" fill-opacity="0.3"/><path fill="none" stroke="white" paint-order="fill stroke markers" d=" M 193.02727272727273 325.09090909090907 L 198.64545454545453 325.09090909090907 L 198.64545454545453 325.09090909090907 L 193.02727272727273 325.09090909090907 L 193.02727272727273 325.09090909090907 Z" stroke-linejoin="bevel" stroke-miterlimit="10" stroke-opacity="0.3"/><path fill="navy" stroke="none" paint-order="stroke fill markers" d=" M 198.64545454545453 325.09090909090907 L 204.26363636363635 325.09090909090907 L 204.26363636363635 325.09090909090907 L 198.64545454545453 325.09090909090907 L 198.64545454545453 325.09090909090907 Z" fill-opacity="0.3"/><path fill="none" stroke="white" paint-order="fill stroke markers" d=" M 198.64545454545453 325.09090909090907 L 204.26363636363635 325.09090909090907 L 204.26363636363635 325.09090909090907 L 198.64545454545453 325.09090909090907 L 198.64545454545453 325.09090909090907 Z" stroke-linejoin="bevel" stroke-miterlimit="10" stroke-opacity="0.3"/><path fill="navy" stroke="none" paint-order="stroke fill markers" d=" M 204.26363636363635 325.09090909090907 L 209.88181818181818 325.09090909090907 L 209.88181818181818 325.09090909090907 L 204.26363636363635 325.09090909090907 L 204.26363636363635 325.09090909090907 Z" fill-opacity="0.3"/><path fill="none" stroke="white" paint-order="fill stroke markers" d=" M 204.26363636363635 325.09090909090907 L 209.88181818181818 325.09090909090907 L 209.88181818181818 325.09090909090907 L 204.26363636363635 325.09090909090907 L 204.26363636363635 325.09090909090907 Z" stroke-linejoin="bevel" stroke-miterlimit="10" stroke-opacity="0.3"/><path fill="navy" stroke="none" paint-order="stroke fill markers" d=" M 209.88181818181818 325.09090909090907 L 215.5 325.09090909090907 L 215.5 325.09090909090907 L 209.88181818181818 325.09090909090907 L 209.88181818181818 325.09090909090907 Z" fill-opacity="0.3"/><path fill="none" stroke="white" paint-order="fill stroke markers" d=" M 209.88181818181818 325.09090909090907 L 215.5 325.09090909090907 L 215.5 325.09090909090907 L 209.88181818181818 325.09090909090907 L 209.88181818181818 325.09090909090907 Z" stroke-linejoin="bevel" stroke-miterlimit="10" stroke-opacity="0.3"/><path fill="navy" stroke="none" paint-order="stroke fill markers" d=" M 215.5 325.09090909090907 L 221.1181818181818 325.09090909090907 L 221.1181818181818 325.09090909090907 L 215.5 325.09090909090907 L 215.5 325.09090909090907 Z" fill-opacity="0.3"/><path fill="none" stroke="white" paint-order="fill stroke markers" d=" M 215.5 325.09090909090907 L 221.1181818181818 325.09090909090907 L 221.1181818181818 325.09090909090907 L 215.5 325.09090909090907 L 215.5 325.09090909090907 Z" stroke-linejoin="bevel" stroke-miterlimit="10" stroke-opacity="0.3"/><path fill="navy" stroke="none" paint-order="stroke fill markers" d=" M 221.1181818181818 325.09090909090907 L 226.73636363636362 325.09090909090907 L 226.73636363636362 325.09090909090907 L 221.1181818181818 325.09090909090907 L 221.1181818181818 325.09090909090907 Z" fill-opacity="0.3"/><path fill="none" stroke="white" paint-order="fill stroke markers" d=" M 221.1181818181818 325.09090909090907 L 226.73636363636362 325.09090909090907 L 226.73636363636362 325.09090909090907 L 221.1181818181818 325.09090909090907 L 221.1181818181818 325.09090909090907 Z" stroke-linejoin="bevel" stroke-miterlimit="10" stroke-opacity="0.3"/><path fill="navy" stroke="none" paint-order="stroke fill markers" d=" M 226.73636363636362 325.09090909090907 L 232.35454545454544 325.09090909090907 L 232.35454545454544 325.09090909090907 L 226.73636363636362 325.09090909090907 L 226.73636363636362 325.09090909090907 Z" fill-opacity="0.3"/><path fill="none" stroke="white" paint-order="fill stroke markers" d=" M 226.73636363636362 325.09090909090907 L 232.35454545454544 325.09090909090907 L 232.35454545454544 325.09090909090907 L 226.73636363636362 325.09090909090907 L 226.73636363636362 325.09090909090907 Z" stroke-linejoin="bevel" stroke-miterlimit="10" stroke-opacity="0.3"/><path fill="navy" stroke="none" paint-order="stroke fill markers" d=" M 232.35454545454544 325.09090909090907 L 237.97272727272727 325.09090909090907 L 237.97272727272727 325.09090909090907 L 232.35454545454544 325.09090909090907 L 232.35454545454544 325.09090909090907 Z" fill-opacity="0.3"/><path fill="none" stroke="white" paint-order="fill stroke markers" d=" M 232.35454545454544 325.09090909090907 L 237.97272727272727 325.09090909090907 L 237.97272727272727 325.09090909090907 L 232.35454545454544 325.09090909090907 L 232.35454545454544 325.09090909090907 Z" stroke-linejoin="bevel" stroke-miterlimit="10" stroke-opacity="0.3"/><path fill="navy" stroke="none" paint-order="stroke fill markers" d=" M 237.97272727272727 325.09090909090907 L 243.5909090909091 325.09090909090907 L 243.5909090909091 325.09090909090907 L 237.97272727272727 325.09090909090907 L 237.97272727272727 325.09090909090907 Z" fill-opacity="0.3"/><path fill="none" stroke="white" paint-order="fill stroke markers" d=" M 237.97272727272727 325.09090909090907 L 243.5909090909091 325.09090909090907 L 243.5909090909091 325.09090909090907 L 237.97272727272727 325.09090909090907 L 237.97272727272727 325.09090909090907 Z" stroke-linejoin="bevel" stroke-miterlimit="10" stroke-opacity="0.3"/><path fill="navy" stroke="none" paint-order="stroke fill markers" d=" M 243.5909090909091 325.09090909090907 L 249.2090909090909 325.09090909090907 L 249.2090909090909 325.09090909090907 L 243.5909090909091 325.09090909090907 L 243.5909090909091 325.09090909090907 Z" fill-opacity="0.3"/><path fill="none" stroke="white" paint-order="fill stroke markers" d=" M 243.5909090909091 325.09090909090907 L 249.2090909090909 325.09090909090907 L 249.2090909090909 325.09090909090907 L 243.5909090909091 325.09090909090907 L 243.5909090909091 325.09090909090907 Z" stroke-linejoin="bevel" stroke-miterlimit="10" stroke-opacity="0.3"/><path fill="navy" stroke="none" paint-order="stroke fill markers" d=" M 249.2090909090909 325.09090909090907 L 254.8272727272727 325.09090909090907 L 254.8272727272727 325.09090909090907 L 249.2090909090909 325.09090909090907 L 249.2090909090909 325.09090909090907 Z" fill-opacity="0.3"/><path fill="none" stroke="white" paint-order="fill stroke markers" d=" M 249.2090909090909 325.09090909090907 L 254.8272727272727 325.09090909090907 L 254.8272727272727 325.09090909090907 L 249.2090909090909 325.09090909090907 L 249.2090909090909 325.09090909090907 Z" stroke-linejoin="bevel" stroke-miterlimit="10" stroke-opacity="0.3"/><path fill="navy" stroke="none" paint-order="stroke fill markers" d=" M 254.8272727272727 325.09090909090907 L 260.44545454545454 325.09090909090907 L 260.44545454545454 325.09090909090907 L 254.8272727272727 325.09090909090907 L 254.8272727272727 325.09090909090907 Z" fill-opacity="0.3"/><path fill="none" stroke="white" paint-order="fill stroke markers" d=" M 254.8272727272727 325.09090909090907 L 260.44545454545454 325.09090909090907 L 260.44545454545454 325.09090909090907 L 254.8272727272727 325.09090909090907 L 254.8272727272727 325.09090909090907 Z" stroke-linejoin="bevel" stroke-miterlimit="10" stroke-opacity="0.3"/><path fill="navy" stroke="none" paint-order="stroke fill markers" d=" M 260.44545454545454 325.09090909090907 L 266.0636363636363 325.09090909090907 L 266.0636363636363 325.09090909090907 L 260.44545454545454 325.09090909090907 L 260.44545454545454 325.09090909090907 Z" fill-opacity="0.3"/><path fill="none" stroke="white" paint-order="fill stroke markers" d=" M 260.44545454545454 325.09090909090907 L 266.0636363636363 325.09090909090907 L 266.0636363636363 325.09090909090907 L 260.44545454545454 325.09090909090907 L 260.44545454545454 325.09090909090907 Z" stroke-linejoin="bevel" stroke-miterlimit="10" stroke-opacity="0.3"/><path fill="navy" stroke="none" paint-order="stroke fill markers" d=" M 266.0636363636363 325.09090909090907 L 271.68181818181813 325.09090909090907 L 271.68181818181813 325.09090909090907 L 266.0636363636363 325.09090909090907 L 266.0636363636363 325.09090909090907 Z" fill-opacity="0.3"/><path fill="none" stroke="white" paint-order="fill stroke markers" d=" M 266.0636363636363 325.09090909090907 L 271.68181818181813 325.09090909090907 L 271.68181818181813 325.09090909090907 L 266.0636363636363 325.09090909090907 L 266.0636363636363 325.09090909090907 Z" stroke-linejoin="bevel" stroke-miterlimit="10" stroke-opacity="0.3"/><path fill="navy" stroke="none" paint-order="stroke fill markers" d=" M 271.68181818181813 325.09090909090907 L 277.29999999999995 325.09090909090907 L 277.29999999999995 325.09090909090907 L 271.68181818181813 325.09090909090907 L 271.68181818181813 325.09090909090907 Z" fill-opacity="0.3"/><path fill="none" stroke="white" paint-order="fill stroke markers" d=" M 271.68181818181813 325.09090909090907 L 277.29999999999995 325.09090909090907 L 277.29999999999995 325.09090909090907 L 271.68181818181813 325.09090909090907 L 271.68181818181813 325.09090909090907 Z" stroke-linejoin="bevel" stroke-miterlimit="10" stroke-opacity="0.3"/><path fill="navy" stroke="none" paint-order="stroke fill markers" d=" M 277.29999999999995 325.09090909090907 L 282.9181818181818 325.09090909090907 L 282.9181818181818 325.09090909090907 L 277.29999999999995 325.09090909090907 L 277.29999999999995 325.09090909090907 Z" fill-opacity="0.3"/><path fill="none" stroke="white" paint-order="fill stroke markers" d=" M 277.29999999999995 325.09090909090907 L 282.9181818181818 325.09090909090907 L 282.9181818181818 325.09090909090907 L 277.29999999999995 325.09090909090907 L 277.29999999999995 325.09090909090907 Z" stroke-linejoin="bevel" stroke-miterlimit="10" stroke-opacity="0.3"/><path fill="navy" stroke="none" paint-order="stroke fill markers" d=" M 282.9181818181818 325.09090909090907 L 288.5363636363636 325.09090909090907 L 288.5363636363636 325.09090909090907 L 282.9181818181818 325.09090909090907 L 282.9181818181818 325.09090909090907 Z" fill-opacity="0.3"/><path fill="none" stroke="white" paint-order="fill stroke markers" d=" M 282.9181818181818 325.09090909090907 L 288.5363636363636 325.09090909090907 L 288.5363636363636 325.09090909090907 L 282.9181818181818 325.09090909090907 L 282.9181818181818 325.09090909090907 Z" stroke-linejoin="bevel" stroke-miterlimit="10" stroke-opacity="0.3"/><path fill="navy" stroke="none" paint-order="stroke fill markers" d=" M 288.5363636363636 325.09090909090907 L 294.1545454545454 325.09090909090907 L 294.1545454545454 325.09090909090907 L 288.5363636363636 325.09090909090907 L 288.5363636363636 325.09090909090907 Z" fill-opacity="0.3"/><path fill="none" stroke="white" paint-order="fill stroke markers" d=" M 288.5363636363636 325.09090909090907 L 294.1545454545454 325.09090909090907 L 294.1545454545454 325.09090909090907 L 288.5363636363636 325.09090909090907 L 288.5363636363636 325.09090909090907 Z" stroke-linejoin="bevel" stroke-miterlimit="10" stroke-opacity="0.3"/><path fill="navy" stroke="none" paint-order="stroke fill markers" d=" M 294.1545454545454 325.09090909090907 L 299.77272727272725 325.09090909090907 L 299.77272727272725 325.09090909090907 L 294.1545454545454 325.09090909090907 L 294.1545454545454 325.09090909090907 Z" fill-opacity="0.3"/><path fill="none" stroke="white" paint-order="fill stroke markers" d=" M 294.1545454545454 325.09090909090907 L 299.77272727272725 325.09090909090907 L 299.77272727272725 325.09090909090907 L 294.1545454545454 325.09090909090907 L 294.1545454545454 325.09090909090907 Z" stroke-linejoin="bevel" stroke-miterlimit="10" stroke-opacity="0.3"/><path fill="navy" stroke="none" paint-order="stroke fill markers" d=" M 299.77272727272725 325.09090909090907 L 305.3909090909091 325.09090909090907 L 305.3909090909091 325.09090909090907 L 299.77272727272725 325.09090909090907 L 299.77272727272725 325.09090909090907 Z" fill-opacity="0.3"/><path fill="none" stroke="white" paint-order="fill stroke markers" d=" M 299.77272727272725 325.09090909090907 L 305.3909090909091 325.09090909090907 L 305.3909090909091 325.09090909090907 L 299.77272727272725 325.09090909090907 L 299.77272727272725 325.09090909090907 Z" stroke-linejoin="bevel" stroke-miterlimit="10" stroke-opacity="0.3"/><path fill="navy" stroke="none" paint-order="stroke fill markers" d=" M 305.3909090909091 325.09090909090907 L 311.0090909090909 325.09090909090907 L 311.0090909090909 325.09090909090907 L 305.3909090909091 325.09090909090907 L 305.3909090909091 325.09090909090907 Z" fill-opacity="0.3"/><path fill="none" stroke="white" paint-order="fill stroke markers" d=" M 305.3909090909091 325.09090909090907 L 311.0090909090909 325.09090909090907 L 311.0090909090909 325.09090909090907 L 305.3909090909091 325.09090909090907 L 305.3909090909091 325.09090909090907 Z" stroke-linejoin="bevel" stroke-miterlimit="10" stroke-opacity="0.3"/><path fill="navy" stroke="none" paint-order="stroke fill markers" d=" M 311.0090909090909 325.09090909090907 L 316.6272727272727 325.09090909090907 L 316.6272727272727 325.09090909090907 L 311.0090909090909 325.09090909090907 L 311.0090909090909 325.09090909090907 Z" fill-opacity="0.3"/><path fill="none" stroke="white" paint-order="fill stroke markers" d=" M 311.0090909090909 325.09090909090907 L 316.6272727272727 325.09090909090907 L 316.6272727272727 325.09090909090907 L 311.0090909090909 325.09090909090907 L 311.0090909090909 325.09090909090907 Z" stroke-linejoin="bevel" stroke-miterlimit="10" stroke-opacity="0.3"/><path fill="navy" stroke="none" paint-order="stroke fill markers" d=" M 316.6272727272727 325.09090909090907 L 322.24545454545455 325.09090909090907 L 322.24545454545455 325.09090909090907 L 316.6272727272727 325.09090909090907 L 316.6272727272727 325.09090909090907 Z" fill-opacity="0.3"/><path fill="none" stroke="white" paint-order="fill stroke markers" d=" M 316.6272727272727 325.09090909090907 L 322.24545454545455 325.09090909090907 L 322.24545454545455 325.09090909090907 L 316.6272727272727 325.09090909090907 L 316.6272727272727 325.09090909090907 Z" stroke-linejoin="bevel" stroke-miterlimit="10" stroke-opacity="0.3"/><path fill="navy" stroke="none" paint-order="stroke fill markers" d=" M 322.24545454545455 325.09090909090907 L 327.8636363636364 325.09090909090907 L 327.8636363636364 325.09090909090907 L 322.24545454545455 325.09090909090907 L 322.24545454545455 325.09090909090907 Z" fill-opacity="0.3"/><path fill="none" stroke="white" paint-order="fill stroke markers" d=" M 322.24545454545455 325.09090909090907 L 327.8636363636364 325.09090909090907 L 327.8636363636364 325.09090909090907 L 322.24545454545455 325.09090909090907 L 322.24545454545455 325.09090909090907 Z" stroke-linejoin="bevel" stroke-miterlimit="10" stroke-opacity="0.3"/><path fill="navy" stroke="none" paint-order="stroke fill markers" d=" M 327.8636363636364 325.09090909090907 L 333.48181818181814 325.09090909090907 L 333.48181818181814 325.09090909090907 L 327.8636363636364 325.09090909090907 L 327.8636363636364 325.09090909090907 Z" fill-opacity="0.3"/><path fill="none" stroke="white" paint-order="fill stroke markers" d=" M 327.8636363636364 325.09090909090907 L 333.48181818181814 325.09090909090907 L 333.48181818181814 325.09090909090907 L 327.8636363636364 325.09090909090907 L 327.8636363636364 325.09090909090907 Z" stroke-linejoin="bevel" stroke-miterlimit="10" stroke-opacity="0.3"/><path fill="navy" stroke="none" paint-order="stroke fill markers" d=" M 333.48181818181814 325.09090909090907 L 339.09999999999997 325.09090909090907 L 339.09999999999997 325.09090909090907 L 333.48181818181814 325.09090909090907 L 333.48181818181814 325.09090909090907 Z" fill-opacity="0.3"/><path fill="none" stroke="white" paint-order="fill stroke markers" d=" M 333.48181818181814 325.09090909090907 L 339.09999999999997 325.09090909090907 L 339.09999999999997 325.09090909090907 L 333.48181818181814 325.09090909090907 L 333.48181818181814 325.09090909090907 Z" stroke-linejoin="bevel" stroke-miterlimit="10" stroke-opacity="0.3"/><path fill="navy" stroke="none" paint-order="stroke fill markers" d=" M 339.09999999999997 325.09090909090907 L 344.7181818181818 325.09090909090907 L 344.7181818181818 325.09090909090907 L 339.09999999999997 325.09090909090907 L 339.09999999999997 325.09090909090907 Z" fill-opacity="0.3"/><path fill="none" stroke="white" paint-order="fill stroke markers" d=" M 339.09999999999997 325.09090909090907 L 344.7181818181818 325.09090909090907 L 344.7181818181818 325.09090909090907 L 339.09999999999997 325.09090909090907 L 339.09999999999997 325.09090909090907 Z" stroke-linejoin="bevel" stroke-miterlimit="10" stroke-opacity="0.3"/><path fill="navy" stroke="none" paint-order="stroke fill markers" d=" M 344.7181818181818 325.09090909090907 L 350.3363636363636 325.09090909090907 L 350.3363636363636 325.09090909090907 L 344.7181818181818 325.09090909090907 L 344.7181818181818 325.09090909090907 Z" fill-opacity="0.3"/><path fill="none" stroke="white" paint-order="fill stroke markers" d=" M 344.7181818181818 325.09090909090907 L 350.3363636363636 325.09090909090907 L 350.3363636363636 325.09090909090907 L 344.7181818181818 325.09090909090907 L 344.7181818181818 325.09090909090907 Z" stroke-linejoin="bevel" stroke-miterlimit="10" stroke-opacity="0.3"/><path fill="navy" stroke="none" paint-order="stroke fill markers" d=" M 350.3363636363636 309.6363636363636 L 355.95454545454544 309.6363636363636 L 355.95454545454544 325.09090909090907 L 350.3363636363636 325.09090909090907 L 350.3363636363636 309.6363636363636 Z" fill-opacity="0.3"/><path fill="none" stroke="white" paint-order="fill stroke markers" d=" M 350.3363636363636 309.6363636363636 L 355.95454545454544 309.6363636363636 L 355.95454545454544 325.09090909090907 L 350.3363636363636 325.09090909090907 L 350.3363636363636 309.6363636363636 Z" stroke-linejoin="bevel" stroke-miterlimit="10" stroke-opacity="0.3"/></g></g></g><g clip-path="url(#ZDJGuXOHQnQy)"><g><g><path fill="none" stroke="red" paint-order="fill stroke markers" d=" M 121.53109341445358 33 L 121.53109341445358 339" stroke-linejoin="bevel" stroke-miterlimit="10" stroke-width="3" stroke-dasharray="6"/></g></g></g><g><g fill="#444444"><path fill="" stroke="none" d=""/><g transform="translate(215.5,5)"><path fill="none" stroke="none"/><text fill="" stroke="none" font-family="helvetica" font-size="12pt" font-style="normal" font-weight="bold" text-decoration="normal" x="0" y="0" text-anchor="middle" dominant-baseline="text-before-edge">Intra-molecular distances/Linker EDC</text></g></g></g><g/><g><g fill="#444444"><path fill="none" stroke="black" paint-order="fill stroke markers" d=" M 61 339 L 370 339" stroke-linejoin="bevel" stroke-miterlimit="10"/><path fill="none" stroke="black" paint-order="fill stroke markers" d=" M 75 345 L 75 337" stroke-linejoin="bevel" stroke-miterlimit="10"/><path fill="none" stroke="black" paint-order="fill stroke markers" d=" M 122 345 L 122 337" stroke-linejoin="bevel" stroke-miterlimit="10"/><path fill="none" stroke="black" paint-order="fill stroke markers" d=" M 168 345 L 168 337" stroke-linejoin="bevel" stroke-miterlimit="10"/><path fill="none" stroke="black" paint-order="fill stroke markers" d=" M 215 345 L 215 337" stroke-linejoin="bevel" stroke-miterlimit="10"/><path fill="none" stroke="black" paint-order="fill stroke markers" d=" M 261 345 L 261 337" stroke-linejoin="bevel" stroke-miterlimit="10"/><path fill="none" stroke="black" paint-order="fill stroke markers" d=" M 307 345 L 307 337" stroke-linejoin="bevel" stroke-miterlimit="10"/><path fill="none" stroke="black" paint-order="fill stroke markers" d=" M 354 345 L 354 337" stroke-linejoin="bevel" stroke-miterlimit="10"/><path fill="none" stroke="black" paint-order="fill stroke markers" d=" M 66 343 L 66 339" stroke-linejoin="bevel" stroke-miterlimit="10"/><path fill="none" stroke="black" paint-order="fill stroke markers" d=" M 75 343 L 75 339" stroke-linejoin="bevel" stroke-miterlimit="10"/><path fill="none" stroke="black" paint-order="fill stroke markers" d=" M 84 343 L 84 339" stroke-linejoin="bevel" stroke-miterlimit="10"/><path fill="none" stroke="black" paint-order="fill stroke markers" d=" M 94 343 L 94 339" stroke-linejoin="bevel" stroke-miterlimit="10"/><path fill="none" stroke="black" paint-order="fill stroke markers" d=" M 103 343 L 103 339" stroke-linejoin="bevel" stroke-miterlimit="10"/><path fill="none" stroke="black" paint-order="fill stroke markers" d=" M 112 343 L 112 339" stroke-linejoin="bevel" stroke-miterlimit="10"/><path fill="none" stroke="black" paint-order="fill stroke markers" d=" M 122 343 L 122 339" stroke-linejoin="bevel" stroke-miterlimit="10"/><path fill="none" stroke="black" paint-order="fill stroke markers" d=" M 131 343 L 131 339" stroke-linejoin="bevel" stroke-miterlimit="10"/><path fill="none" stroke="black" paint-order="fill stroke markers" d=" M 140 343 L 140 339" stroke-linejoin="bevel" stroke-miterlimit="10"/><path fill="none" stroke="black" paint-order="fill stroke markers" d=" M 149 343 L 149 339" stroke-linejoin="bevel" stroke-miterlimit="10"/><path fill="none" stroke="black" paint-order="fill stroke markers" d=" M 159 343 L 159 339" stroke-linejoin="bevel" stroke-miterlimit="10"/><path fill="none" stroke="black" paint-order="fill stroke markers" d=" M 168 343 L 168 339" stroke-linejoin="bevel" stroke-miterlimit="10"/><path fill="none" stroke="black" paint-order="fill stroke markers" d=" M 177 343 L 177 339" stroke-linejoin="bevel" stroke-miterlimit="10"/><path fill="none" stroke="black" paint-order="fill stroke markers" d=" M 187 343 L 187 339" stroke-linejoin="bevel" stroke-miterlimit="10"/><path fill="none" stroke="black" paint-order="fill stroke markers" d=" M 196 343 L 196 339" stroke-linejoin="bevel" stroke-miterlimit="10"/><path fill="none" stroke="black" paint-order="fill stroke markers" d=" M 205 343 L 205 339" stroke-linejoin="bevel" stroke-miterlimit="10"/><path fill="none" stroke="black" paint-order="fill stroke markers" d=" M 215 343 L 215 339" stroke-linejoin="bevel" stroke-miterlimit="10"/><path fill="none" stroke="black" paint-order="fill stroke markers" d=" M 224 343 L 224 339" stroke-linejoin="bevel" stroke-miterlimit="10"/><path fill="none" stroke="black" paint-order="fill stroke markers" d=" M 233 343 L 233 339" stroke-linejoin="bevel" stroke-miterlimit="10"/><path fill="none" stroke="black" paint-order="fill stroke markers" d=" M 242 343 L 242 339" stroke-linejoin="bevel" stroke-miterlimit="10"/><path fill="none" stroke="black" paint-order="fill stroke markers" d=" M 252 343 L 252 339" stroke-linejoin="bevel" stroke-miterlimit="10"/><path fill="none" stroke="black" paint-order="fill stroke markers" d=" M 261 343 L 261 339" stroke-linejoin="bevel" stroke-miterlimit="10"/><path fill="none" stroke="black" paint-order="fill stroke markers" d=" M 270 343 L 270 339" stroke-linejoin="bevel" stroke-miterlimit="10"/><path fill="none" stroke="black" paint-order="fill stroke markers" d=" M 280 343 L 280 339" stroke-linejoin="bevel" stroke-miterlimit="10"/><path fill="none" stroke="black" paint-order="fill stroke markers" d=" M 289 343 L 289 339" stroke-linejoin="bevel" stroke-miterlimit="10"/><path fill="none" stroke="black" paint-order="fill stroke markers" d=" M 298 343 L 298 339" stroke-linejoin="bevel" stroke-miterlimit="10"/><path fill="none" stroke="black" paint-order="fill stroke markers" d=" M 307 343 L 307 339" stroke-linejoin="bevel" stroke-miterlimit="10"/><path fill="none" stroke="black" paint-order="fill stroke markers" d=" M 317 343 L 317 339" stroke-linejoin="bevel" stroke-miterlimit="10"/><path fill="none" stroke="black" paint-order="fill stroke markers" d=" M 326 343 L 326 339" stroke-linejoin="bevel" stroke-miterlimit="10"/><path fill="none" stroke="black" paint-order="fill stroke markers" d=" M 335 343 L 335 339" stroke-linejoin="bevel" stroke-miterlimit="10"/><path fill="none" stroke="black" paint-order="fill stroke markers" d=" M 345 343 L 345 339" stroke-linejoin="bevel" stroke-miterlimit="10"/><path fill="none" stroke="black" paint-order="fill stroke markers" d=" M 354 343 L 354 339" stroke-linejoin="bevel" stroke-miterlimit="10"/><path fill="" stroke="black" paint-order="fill stroke markers" d=" M 363 343 L 363 339" stroke-linejoin="bevel" stroke-miterlimit="10"/><g transform="translate(75,350) rotate(0,0,0)"><text fill="" stroke="none" font-family="helvetica" font-size="14pt" font-style="normal" font-weight="normal" text-decoration="normal" x="0" y="0" text-anchor="middle" dominant-baseline="hanging">0</text><g transform="rotate(0,0,0) translate(-75,-350) translate(122,350) rotate(0,0,0)"><text fill="" stroke="none" font-family="helvetica" font-size="14pt" font-style="normal" font-weight="normal" text-decoration="normal" x="0" y="0" text-anchor="middle" dominant-baseline="hanging">20</text><g transform="rotate(0,0,0) translate(-122,-350) translate(168,350) rotate(0,0,0)"><text fill="" stroke="none" font-family="helvetica" font-size="14pt" font-style="normal" font-weight="normal" text-decoration="normal" x="0" y="0" text-anchor="middle" dominant-baseline="hanging">40</text><g transform="rotate(0,0,0) translate(-168,-350) translate(215,350) rotate(0,0,0)"><text fill="" stroke="none" font-family="helvetica" font-size="14pt" font-style="normal" font-weight="normal" text-decoration="normal" x="0" y="0" text-anchor="middle" dominant-baseline="hanging">60</text><g transform="rotate(0,0,0) translate(-215,-350) translate(261,350) rotate(0,0,0)"><text fill="" stroke="none" font-family="helvetica" font-size="14pt" font-style="normal" font-weight="normal" text-decoration="normal" x="0" y="0" text-anchor="middle" dominant-baseline="hanging">80</text><g transform="rotate(0,0,0) translate(-261,-350) translate(307,350) rotate(0,0,0)"><text fill="" stroke="none" font-family="helvetica" font-size="14pt" font-style="normal" font-weight="normal" text-decoration="normal" x="0" y="0" text-anchor="middle" dominant-baseline="hanging">100</text><g transform="rotate(0,0,0) translate(-307,-350) translate(354,350) rotate(0,0,0)"><text fill="" stroke="none" font-family="helvetica" font-size="14pt" font-style="normal" font-weight="normal" text-decoration="normal" x="0" y="0" text-anchor="middle" dominant-baseline="hanging">120</text><g transform="rotate(0,0,0) translate(-354,-350) translate(216,377) rotate(0,0,0)"><text fill="" stroke="none" font-family="helvetica" font-size="14pt" font-style="italic" font-weight="normal" text-decoration="normal" x="0" y="0" text-anchor="middle" dominant-baseline="hanging">Distance Å</text><g transform="rotate(0,0,0) translate(-216,-377)"/></g></g></g></g></g></g></g></g></g></g><g><g fill="#444444"><path fill="none" stroke="black" paint-order="fill stroke markers" d=" M 61 339 L 61 33" stroke-linejoin="bevel" stroke-miterlimit="10"/><path fill="none" stroke="black" paint-order="fill stroke markers" d=" M 55 325 L 63 325" stroke-linejoin="bevel" stroke-miterlimit="10"/><path fill="none" stroke="black" paint-order="fill stroke markers" d=" M 55 248 L 63 248" stroke-linejoin="bevel" stroke-miterlimit="10"/><path fill="none" stroke="black" paint-order="fill stroke markers" d=" M 55 171 L 63 171" stroke-linejoin="bevel" stroke-miterlimit="10"/><path fill="none" stroke="black" paint-order="fill stroke markers" d=" M 55 93 L 63 93" stroke-linejoin="bevel" stroke-miterlimit="10"/><path fill="none" stroke="black" paint-order="fill stroke markers" d=" M 57 325 L 61 325" stroke-linejoin="bevel" stroke-miterlimit="10"/><path fill="none" stroke="black" paint-order="fill stroke markers" d=" M 57 310 L 61 310" stroke-linejoin="bevel" stroke-miterlimit="10"/><path fill="none" stroke="black" paint-order="fill stroke markers" d=" M 57 294 L 61 294" stroke-linejoin="bevel" stroke-miterlimit="10"/><path fill="none" stroke="black" paint-order="fill stroke markers" d=" M 57 279 L 61 279" stroke-linejoin="bevel" stroke-miterlimit="10"/><path fill="none" stroke="black" paint-order="fill stroke markers" d=" M 57 263 L 61 263" stroke-linejoin="bevel" stroke-miterlimit="10"/><path fill="none" stroke="black" paint-order="fill stroke markers" d=" M 57 248 L 61 248" stroke-linejoin="bevel" stroke-miterlimit="10"/><path fill="none" stroke="black" paint-order="fill stroke markers" d=" M 57 232 L 61 232" stroke-linejoin="bevel" stroke-miterlimit="10"/><path fill="none" stroke="black" paint-order="fill stroke markers" d=" M 57 217 L 61 217" stroke-linejoin="bevel" stroke-miterlimit="10"/><path fill="none" stroke="black" paint-order="fill stroke markers" d=" M 57 201 L 61 201" stroke-linejoin="bevel" stroke-miterlimit="10"/><path fill="none" stroke="black" paint-order="fill stroke markers" d=" M 57 186 L 61 186" stroke-linejoin="bevel" stroke-miterlimit="10"/><path fill="none" stroke="black" paint-order="fill stroke markers" d=" M 57 171 L 61 171" stroke-linejoin="bevel" stroke-miterlimit="10"/><path fill="none" stroke="black" paint-order="fill stroke markers" d=" M 57 155 L 61 155" stroke-linejoin="bevel" stroke-miterlimit="10"/><path fill="none" stroke="black" paint-order="fill stroke markers" d=" M 57 140 L 61 140" stroke-linejoin="bevel" stroke-miterlimit="10"/><path fill="none" stroke="black" paint-order="fill stroke markers" d=" M 57 124 L 61 124" stroke-linejoin="bevel" stroke-miterlimit="10"/><path fill="none" stroke="black" paint-order="fill stroke markers" d=" M 57 109 L 61 109" stroke-linejoin="bevel" stroke-miterlimit="10"/><path fill="none" stroke="black" paint-order="fill stroke markers" d=" M 57 93 L 61 93" stroke-linejoin="bevel" stroke-miterlimit="10"/><path fill="none" stroke="black" paint-order="fill stroke markers" d=" M 57 78 L 61 78" stroke-linejoin="bevel" stroke-miterlimit="10"/><path fill="none" stroke="black" paint-order="fill stroke markers" d=" M 57 62 L 61 62" stroke-linejoin="bevel" stroke-miterlimit="10"/><path fill="" stroke="black" paint-order="fill stroke markers" d=" M 57 47 L 61 47" stroke-linejoin="bevel" stroke-miterlimit="10"/><g transform="translate(50,325) rotate(0,0,0)"><text fill="" stroke="none" font-family="helvetica" font-size="14pt" font-style="normal" font-weight="normal" text-decoration="normal" x="0" y="0" text-anchor="end" dominant-baseline="central">0</text><g transform="rotate(0,0,0) translate(-50,-325) translate(50,248) rotate(0,0,0)"><text fill="" stroke="none" font-family="helvetica" font-size="14pt" font-style="normal" font-weight="normal" text-decoration="normal" x="0" y="0" text-anchor="end" dominant-baseline="central">5</text><g transform="rotate(0,0,0) translate(-50,-248) translate(50,171) rotate(0,0,0)"><text fill="" stroke="none" font-family="helvetica" font-size="14pt" font-style="normal" font-weight="normal" text-decoration="normal" x="0" y="0" text-anchor="end" dominant-baseline="central">10</text><g transform="rotate(0,0,0) translate(-50,-171) translate(50,93) rotate(0,0,0)"><text fill="" stroke="none" font-family="helvetica" font-size="14pt" font-style="normal" font-weight="normal" text-decoration="normal" x="0" y="0" text-anchor="end" dominant-baseline="central">15</text><g transform="rotate(0,0,0) translate(-50,-93) translate(22,186) rotate(-90,0,0)"><text fill="" stroke="none" font-family="helvetica" font-size="14pt" font-style="italic" font-weight="normal" text-decoration="normal" x="0" y="0" text-anchor="middle" dominant-baseline="alphabetic">Number of cross-links</text><g transform="rotate(90,0,0) translate(-22,-186)"/></g></g></g></g></g></g></g><g clip-path="url(#qZRqpUiFcrTU)"><g/></g></g><g transform="scale(1,1) translate(0.5,0.5)"><rect fill="#FFFFFF" stroke="none" x="0" y="0" width="400" height="400"/><rect fill="#ffffff" stroke="none" x="0" y="0" width="400" height="400"/><rect fill="#FFFFFF" stroke="none" x="61" y="33" width="309" height="306"/><rect fill="#ffffff" stroke="none" x="61" y="33" width="309" height="306"/><g><rect fill="none" stroke="#e5e5e5" x="61" y="33" width="309" height="306" stroke-linejoin="bevel" stroke-miterlimit="10"/></g><g clip-path="url(#EXiUJMUKTMpb)"><g><g><path fill="none" stroke="#e5e5e5" paint-order="fill stroke markers" d=" M 75 339 L 75 33" stroke-linejoin="bevel" stroke-miterlimit="10"/><path fill="none" stroke="#e5e5e5" paint-order="fill stroke markers" d=" M 122 339 L 122 33" stroke-linejoin="bevel" stroke-miterlimit="10"/><path fill="none" stroke="#e5e5e5" paint-order="fill stroke markers" d=" M 168 339 L 168 33" stroke-linejoin="bevel" stroke-miterlimit="10"/><path fill="none" stroke="#e5e5e5" paint-order="fill stroke markers" d=" M 215 339 L 215 33" stroke-linejoin="bevel" stroke-miterlimit="10"/><path fill="none" stroke="#e5e5e5" paint-order="fill stroke markers" d=" M 261 339 L 261 33" stroke-linejoin="bevel" stroke-miterlimit="10"/><path fill="none" stroke="#e5e5e5" paint-order="fill stroke markers" d=" M 307 339 L 307 33" stroke-linejoin="bevel" stroke-miterlimit="10"/><path fill="none" stroke="#e5e5e5" paint-order="fill stroke markers" d=" M 354 339 L 354 33" stroke-linejoin="bevel" stroke-miterlimit="10"/></g></g></g><g clip-path="url(#NXnBJBrkBGRh)"><g><g><path fill="none" stroke="#e5e5e5" paint-order="fill stroke markers" d=" M 61 325 L 370 325" stroke-linejoin="bevel" stroke-miterlimit="10"/><path fill="none" stroke="#e5e5e5" paint-order="fill stroke markers" d=" M 61 248 L 370 248" stroke-linejoin="bevel" stroke-miterlimit="10"/><path fill="none" stroke="#e5e5e5" paint-order="fill stroke markers" d=" M 61 171 L 370 171" stroke-linejoin="bevel" stroke-miterlimit="10"/><path fill="none" stroke="#e5e5e5" paint-order="fill stroke markers" d=" M 61 93 L 370 93" stroke-linejoin="bevel" stroke-miterlimit="10"/></g></g></g><g clip-path="url(#UVWUwCuxqrCy)"><g><g><path fill="none" stroke="none"/><path fill="navy" stroke="none" paint-order="stroke fill markers" d=" M 75.04545454545456 263.27272727272725 L 80.66363636363639 263.27272727272725 L 80.66363636363639 325.09090909090907 L 75.04545454545456 325.09090909090907 L 75.04545454545456 263.27272727272725 Z" fill-opacity="0.3"/><path fill="none" stroke="white" paint-order="fill stroke markers" d=" M 75.04545454545456 263.27272727272725 L 80.66363636363639 263.27272727272725 L 80.66363636363639 325.09090909090907 L 75.04545454545456 325.09090909090907 L 75.04545454545456 263.27272727272725 Z" stroke-linejoin="bevel" stroke-miterlimit="10" stroke-opacity="0.3"/><path fill="navy" stroke="none" paint-order="stroke fill markers" d=" M 80.66363636363639 325.09090909090907 L 86.2818181818182 325.09090909090907 L 86.2818181818182 325.09090909090907 L 80.66363636363639 325.09090909090907 L 80.66363636363639 325.09090909090907 Z" fill-opacity="0.3"/><path fill="none" stroke="white" paint-order="fill stroke markers" d=" M 80.66363636363639 325.09090909090907 L 86.2818181818182 325.09090909090907 L 86.2818181818182 325.09090909090907 L 80.66363636363639 325.09090909090907 L 80.66363636363639 325.09090909090907 Z" stroke-linejoin="bevel" stroke-miterlimit="10" stroke-opacity="0.3"/><path fill="navy" stroke="none" paint-order="stroke fill markers" d=" M 86.2818181818182 247.81818181818178 L 91.9 247.81818181818178 L 91.9 325.09090909090907 L 86.2818181818182 325.09090909090907 L 86.2818181818182 247.81818181818178 Z" fill-opacity="0.3"/><path fill="none" stroke="white" paint-order="fill stroke markers" d=" M 86.2818181818182 247.81818181818178 L 91.9 247.81818181818178 L 91.9 325.09090909090907 L 86.2818181818182 325.09090909090907 L 86.2818181818182 247.81818181818178 Z" stroke-linejoin="bevel" stroke-miterlimit="10" stroke-opacity="0.3"/><path fill="navy" stroke="none" paint-order="stroke fill markers" d=" M 91.9 263.27272727272725 L 97.51818181818183 263.27272727272725 L 97.51818181818183 325.09090909090907 L 91.9 325.09090909090907 L 91.9 263.27272727272725 Z" fill-opacity="0.3"/><path fill="none" stroke="white" paint-order="fill stroke markers" d=" M 91.9 263.27272727272725 L 97.51818181818183 263.27272727272725 L 97.51818181818183 325.09090909090907 L 91.9 325.09090909090907 L 91.9 263.27272727272725 Z" stroke-linejoin="bevel" stroke-miterlimit="10" stroke-opacity="0.3"/><path fill="navy" stroke="none" paint-order="stroke fill markers" d=" M 97.51818181818183 46.90909090909082 L 103.13636363636365 46.90909090909082 L 103.13636363636365 325.09090909090907 L 97.51818181818183 325.09090909090907 L 97.51818181818183 46.90909090909082 Z" fill-opacity="0.3"/><path fill="none" stroke="white" paint-order="fill stroke markers" d=" M 97.51818181818183 46.90909090909082 L 103.13636363636365 46.90909090909082 L 103.13636363636365 325.09090909090907 L 97.51818181818183 325.09090909090907 L 97.51818181818183 46.90909090909082 Z" stroke-linejoin="bevel" stroke-miterlimit="10" stroke-opacity="0.3"/><path fill="navy" stroke="none" paint-order="stroke fill markers" d=" M 103.13636363636365 77.81818181818176 L 108.75454545454546 77.81818181818176 L 108.75454545454546 325.09090909090907 L 103.13636363636365 325.09090909090907 L 103.13636363636365 77.81818181818176 Z" fill-opacity="0.3"/><path fill="none" stroke="white" paint-order="fill stroke markers" d=" M 103.13636363636365 77.81818181818176 L 108.75454545454546 77.81818181818176 L 108.75454545454546 325.09090909090907 L 103.13636363636365 325.09090909090907 L 103.13636363636365 77.81818181818176 Z" stroke-linejoin="bevel" stroke-miterlimit="10" stroke-opacity="0.3"/><path fill="navy" stroke="none" paint-order="stroke fill markers" d=" M 108.75454545454546 155.09090909090904 L 114.37272727272727 155.09090909090904 L 114.37272727272727 325.09090909090907 L 108.75454545454546 325.09090909090907 L 108.75454545454546 155.09090909090904 Z" fill-opacity="0.3"/><path fill="none" stroke="white" paint-order="fill stroke markers" d=" M 108.75454545454546 155.09090909090904 L 114.37272727272727 155.09090909090904 L 114.37272727272727 325.09090909090907 L 108.75454545454546 325.09090909090907 L 108.75454545454546 155.09090909090904 Z" stroke-linejoin="bevel" stroke-miterlimit="10" stroke-opacity="0.3"/><path fill="navy" stroke="none" paint-order="stroke fill markers" d=" M 114.37272727272727 170.5454545454545 L 119.9909090909091 170.5454545454545 L 119.9909090909091 325.09090909090907 L 114.37272727272727 325.09090909090907 L 114.37272727272727 170.5454545454545 Z" fill-opacity="0.3"/><path fill="none" stroke="white" paint-order="fill stroke markers" d=" M 114.37272727272727 170.5454545454545 L 119.9909090909091 170.5454545454545 L 119.9909090909091 325.09090909090907 L 114.37272727272727 325.09090909090907 L 114.37272727272727 170.5454545454545 Z" stroke-linejoin="bevel" stroke-miterlimit="10" stroke-opacity="0.3"/><path fill="navy" stroke="none" paint-order="stroke fill markers" d=" M 119.9909090909091 263.27272727272725 L 125.60909090909092 263.27272727272725 L 125.60909090909092 325.09090909090907 L 119.9909090909091 325.09090909090907 L 119.9909090909091 263.27272727272725 Z" fill-opacity="0.3"/><path fill="none" stroke="white" paint-order="fill stroke markers" d=" M 119.9909090909091 263.27272727272725 L 125.60909090909092 263.27272727272725 L 125.60909090909092 325.09090909090907 L 119.9909090909091 325.09090909090907 L 119.9909090909091 263.27272727272725 Z" stroke-linejoin="bevel" stroke-miterlimit="10" stroke-opacity="0.3"/><path fill="navy" stroke="none" paint-order="stroke fill markers" d=" M 125.60909090909092 278.7272727272727 L 131.22727272727275 278.7272727272727 L 131.22727272727275 325.09090909090907 L 125.60909090909092 325.09090909090907 L 125.60909090909092 278.7272727272727 Z" fill-opacity="0.3"/><path fill="none" stroke="white" paint-order="fill stroke markers" d=" M 125.60909090909092 278.7272727272727 L 131.22727272727275 278.7272727272727 L 131.22727272727275 325.09090909090907 L 125.60909090909092 325.09090909090907 L 125.60909090909092 278.7272727272727 Z" stroke-linejoin="bevel" stroke-miterlimit="10" stroke-opacity="0.3"/><path fill="navy" stroke="none" paint-order="stroke fill markers" d=" M 131.22727272727275 309.6363636363636 L 136.84545454545454 309.6363636363636 L 136.84545454545454 325.09090909090907 L 131.22727272727275 325.09090909090907 L 131.22727272727275 309.6363636363636 Z" fill-opacity="0.3"/><path fill="none" stroke="white" paint-order="fill stroke markers" d=" M 131.22727272727275 309.6363636363636 L 136.84545454545454 309.6363636363636 L 136.84545454545454 325.09090909090907 L 131.22727272727275 325.09090909090907 L 131.22727272727275 309.6363636363636 Z" stroke-linejoin="bevel" stroke-miterlimit="10" stroke-opacity="0.3"/><path fill="navy" stroke="none" paint-order="stroke fill markers" d=" M 136.84545454545454 325.09090909090907 L 142.46363636363637 325.09090909090907 L 142.46363636363637 325.09090909090907 L 136.84545454545454 325.09090909090907 L 136.84545454545454 325.09090909090907 Z" fill-opacity="0.3"/><path fill="none" stroke="white" paint-order="fill stroke markers" d=" M 136.84545454545454 325.09090909090907 L 142.46363636363637 325.09090909090907 L 142.46363636363637 325.09090909090907 L 136.84545454545454 325.09090909090907 L 136.84545454545454 325.09090909090907 Z" stroke-linejoin="bevel" stroke-miterlimit="10" stroke-opacity="0.3"/><path fill="navy" stroke="none" paint-order="stroke fill markers" d=" M 142.46363636363637 309.6363636363636 L 148.08181818181816 309.6363636363636 L 148.08181818181816 325.09090909090907 L 142.46363636363637 325.09090909090907 L 142.46363636363637 309.6363636363636 Z" fill-opacity="0.3"/><path fill="none" stroke="white" paint-order="fill stroke markers" d=" M 142.46363636363637 309.6363636363636 L 148.08181818181816 309.6363636363636 L 148.08181818181816 325.09090909090907 L 142.46363636363637 325.09090909090907 L 142.46363636363637 309.6363636363636 Z" stroke-linejoin="bevel" stroke-miterlimit="10" stroke-opacity="0.3"/><path fill="navy" stroke="none" paint-order="stroke fill markers" d=" M 148.08181818181816 309.6363636363636 L 153.7 309.6363636363636 L 153.7 325.09090909090907 L 148.08181818181816 325.09090909090907 L 148.08181818181816 309.6363636363636 Z" fill-opacity="0.3"/><path fill="none" stroke="white" paint-order="fill stroke markers" d=" M 148.08181818181816 309.6363636363636 L 153.7 309.6363636363636 L 153.7 325.09090909090907 L 148.08181818181816 325.09090909090907 L 148.08181818181816 309.6363636363636 Z" stroke-linejoin="bevel" stroke-miterlimit="10" stroke-opacity="0.3"/><path fill="navy" stroke="none" paint-order="stroke fill markers" d=" M 153.7 325.09090909090907 L 159.3181818181818 325.09090909090907 L 159.3181818181818 325.09090909090907 L 153.7 325.09090909090907 L 153.7 325.09090909090907 Z" fill-opacity="0.3"/><path fill="none" stroke="white" paint-order="fill stroke markers" d=" M 153.7 325.09090909090907 L 159.3181818181818 325.09090909090907 L 159.3181818181818 325.09090909090907 L 153.7 325.09090909090907 L 153.7 325.09090909090907 Z" stroke-linejoin="bevel" stroke-miterlimit="10" stroke-opacity="0.3"/><path fill="navy" stroke="none" paint-order="stroke fill markers" d=" M 159.3181818181818 325.09090909090907 L 164.93636363636364 325.09090909090907 L 164.93636363636364 325.09090909090907 L 159.3181818181818 325.09090909090907 L 159.3181818181818 325.09090909090907 Z" fill-opacity="0.3"/><path fill="none" stroke="white" paint-order="fill stroke markers" d=" M 159.3181818181818 325.09090909090907 L 164.93636363636364 325.09090909090907 L 164.93636363636364 325.09090909090907 L 159.3181818181818 325.09090909090907 L 159.3181818181818 325.09090909090907 Z" stroke-linejoin="bevel" stroke-miterlimit="10" stroke-opacity="0.3"/><path fill="navy" stroke="none" paint-order="stroke fill markers" d=" M 164.93636363636364 325.09090909090907 L 170.55454545454546 325.09090909090907 L 170.55454545454546 325.09090909090907 L 164.93636363636364 325.09090909090907 L 164.93636363636364 325.09090909090907 Z" fill-opacity="0.3"/><path fill="none" stroke="white" paint-order="fill stroke markers" d=" M 164.93636363636364 325.09090909090907 L 170.55454545454546 325.09090909090907 L 170.55454545454546 325.09090909090907 L 164.93636363636364 325.09090909090907 L 164.93636363636364 325.09090909090907 Z" stroke-linejoin="bevel" stroke-miterlimit="10" stroke-opacity="0.3"/><path fill="navy" stroke="none" paint-order="stroke fill markers" d=" M 170.55454545454546 325.09090909090907 L 176.1727272727273 325.09090909090907 L 176.1727272727273 325.09090909090907 L 170.55454545454546 325.09090909090907 L 170.55454545454546 325.09090909090907 Z" fill-opacity="0.3"/><path fill="none" stroke="white" paint-order="fill stroke markers" d=" M 170.55454545454546 325.09090909090907 L 176.1727272727273 325.09090909090907 L 176.1727272727273 325.09090909090907 L 170.55454545454546 325.09090909090907 L 170.55454545454546 325.09090909090907 Z" stroke-linejoin="bevel" stroke-miterlimit="10" stroke-opacity="0.3"/><path fill="navy" stroke="none" paint-order="stroke fill markers" d=" M 176.1727272727273 325.09090909090907 L 181.7909090909091 325.09090909090907 L 181.7909090909091 325.09090909090907 L 176.1727272727273 325.09090909090907 L 176.1727272727273 325.09090909090907 Z" fill-opacity="0.3"/><path fill="none" stroke="white" paint-order="fill stroke markers" d=" M 176.1727272727273 325.09090909090907 L 181.7909090909091 325.09090909090907 L 181.7909090909091 325.09090909090907 L 176.1727272727273 325.09090909090907 L 176.1727272727273 325.09090909090907 Z" stroke-linejoin="bevel" stroke-miterlimit="10" stroke-opacity="0.3"/><path fill="navy" stroke="none" paint-order="stroke fill markers" d=" M 181.7909090909091 325.09090909090907 L 187.4090909090909 325.09090909090907 L 187.4090909090909 325.09090909090907 L 181.7909090909091 325.09090909090907 L 181.7909090909091 325.09090909090907 Z" fill-opacity="0.3"/><path fill="none" stroke="white" paint-order="fill stroke markers" d=" M 181.7909090909091 325.09090909090907 L 187.4090909090909 325.09090909090907 L 187.4090909090909 325.09090909090907 L 181.7909090909091 325.09090909090907 L 181.7909090909091 325.09090909090907 Z" stroke-linejoin="bevel" stroke-miterlimit="10" stroke-opacity="0.3"/><path fill="navy" stroke="none" paint-order="stroke fill markers" d=" M 187.4090909090909 325.09090909090907 L 193.02727272727273 325.09090909090907 L 193.02727272727273 325.09090909090907 L 187.4090909090909 325.09090909090907 L 187.4090909090909 325.09090909090907 Z" fill-opacity="0.3"/><path fill="none" stroke="white" paint-order="fill stroke markers" d=" M 187.4090909090909 325.09090909090907 L 193.02727272727273 325.09090909090907 L 193.02727272727273 325.09090909090907 L 187.4090909090909 325.09090909090907 L 187.4090909090909 325.09090909090907 Z" stroke-linejoin="bevel" stroke-miterlimit="10" stroke-opacity="0.3"/><path fill="navy" stroke="none" paint-order="stroke fill markers" d=" M 193.02727272727273 325.09090909090907 L 198.64545454545453 325.09090909090907 L 198.64545454545453 325.09090909090907 L 193.02727272727273 325.09090909090907 L 193.02727272727273 325.09090909090907 Z" fill-opacity="0.3"/><path fill="none" stroke="white" paint-order="fill stroke markers" d=" M 193.02727272727273 325.09090909090907 L 198.64545454545453 325.09090909090907 L 198.64545454545453 325.09090909090907 L 193.02727272727273 325.09090909090907 L 193.02727272727273 325.09090909090907 Z" stroke-linejoin="bevel" stroke-miterlimit="10" stroke-opacity="0.3"/><path fill="navy" stroke="none" paint-order="stroke fill markers" d=" M 198.64545454545453 325.09090909090907 L 204.26363636363635 325.09090909090907 L 204.26363636363635 325.09090909090907 L 198.64545454545453 325.09090909090907 L 198.64545454545453 325.09090909090907 Z" fill-opacity="0.3"/><path fill="none" stroke="white" paint-order="fill stroke markers" d=" M 198.64545454545453 325.09090909090907 L 204.26363636363635 325.09090909090907 L 204.26363636363635 325.09090909090907 L 198.64545454545453 325.09090909090907 L 198.64545454545453 325.09090909090907 Z" stroke-linejoin="bevel" stroke-miterlimit="10" stroke-opacity="0.3"/><path fill="navy" stroke="none" paint-order="stroke fill markers" d=" M 204.26363636363635 325.09090909090907 L 209.88181818181818 325.09090909090907 L 209.88181818181818 325.09090909090907 L 204.26363636363635 325.09090909090907 L 204.26363636363635 325.09090909090907 Z" fill-opacity="0.3"/><path fill="none" stroke="white" paint-order="fill stroke markers" d=" M 204.26363636363635 325.09090909090907 L 209.88181818181818 325.09090909090907 L 209.88181818181818 325.09090909090907 L 204.26363636363635 325.09090909090907 L 204.26363636363635 325.09090909090907 Z" stroke-linejoin="bevel" stroke-miterlimit="10" stroke-opacity="0.3"/><path fill="navy" stroke="none" paint-order="stroke fill markers" d=" M 209.88181818181818 325.09090909090907 L 215.5 325.09090909090907 L 215.5 325.09090909090907 L 209.88181818181818 325.09090909090907 L 209.88181818181818 325.09090909090907 Z" fill-opacity="0.3"/><path fill="none" stroke="white" paint-order="fill stroke markers" d=" M 209.88181818181818 325.09090909090907 L 215.5 325.09090909090907 L 215.5 325.09090909090907 L 209.88181818181818 325.09090909090907 L 209.88181818181818 325.09090909090907 Z" stroke-linejoin="bevel" stroke-miterlimit="10" stroke-opacity="0.3"/><path fill="navy" stroke="none" paint-order="stroke fill markers" d=" M 215.5 325.09090909090907 L 221.1181818181818 325.09090909090907 L 221.1181818181818 325.09090909090907 L 215.5 325.09090909090907 L 215.5 325.09090909090907 Z" fill-opacity="0.3"/><path fill="none" stroke="white" paint-order="fill stroke markers" d=" M 215.5 325.09090909090907 L 221.1181818181818 325.09090909090907 L 221.1181818181818 325.09090909090907 L 215.5 325.09090909090907 L 215.5 325.09090909090907 Z" stroke-linejoin="bevel" stroke-miterlimit="10" stroke-opacity="0.3"/><path fill="navy" stroke="none" paint-order="stroke fill markers" d=" M 221.1181818181818 325.09090909090907 L 226.73636363636362 325.09090909090907 L 226.73636363636362 325.09090909090907 L 221.1181818181818 325.09090909090907 L 221.1181818181818 325.09090909090907 Z" fill-opacity="0.3"/><path fill="none" stroke="white" paint-order="fill stroke markers" d=" M 221.1181818181818 325.09090909090907 L 226.73636363636362 325.09090909090907 L 226.73636363636362 325.09090909090907 L 221.1181818181818 325.09090909090907 L 221.1181818181818 325.09090909090907 Z" stroke-linejoin="bevel" stroke-miterlimit="10" stroke-opacity="0.3"/><path fill="navy" stroke="none" paint-order="stroke fill markers" d=" M 226.73636363636362 325.09090909090907 L 232.35454545454544 325.09090909090907 L 232.35454545454544 325.09090909090907 L 226.73636363636362 325.09090909090907 L 226.73636363636362 325.09090909090907 Z" fill-opacity="0.3"/><path fill="none" stroke="white" paint-order="fill stroke markers" d=" M 226.73636363636362 325.09090909090907 L 232.35454545454544 325.09090909090907 L 232.35454545454544 325.09090909090907 L 226.73636363636362 325.09090909090907 L 226.73636363636362 325.09090909090907 Z" stroke-linejoin="bevel" stroke-miterlimit="10" stroke-opacity="0.3"/><path fill="navy" stroke="none" paint-order="stroke fill markers" d=" M 232.35454545454544 325.09090909090907 L 237.97272727272727 325.09090909090907 L 237.97272727272727 325.09090909090907 L 232.35454545454544 325.09090909090907 L 232.35454545454544 325.09090909090907 Z" fill-opacity="0.3"/><path fill="none" stroke="white" paint-order="fill stroke markers" d=" M 232.35454545454544 325.09090909090907 L 237.97272727272727 325.09090909090907 L 237.97272727272727 325.09090909090907 L 232.35454545454544 325.09090909090907 L 232.35454545454544 325.09090909090907 Z" stroke-linejoin="bevel" stroke-miterlimit="10" stroke-opacity="0.3"/><path fill="navy" stroke="none" paint-order="stroke fill markers" d=" M 237.97272727272727 325.09090909090907 L 243.5909090909091 325.09090909090907 L 243.5909090909091 325.09090909090907 L 237.97272727272727 325.09090909090907 L 237.97272727272727 325.09090909090907 Z" fill-opacity="0.3"/><path fill="none" stroke="white" paint-order="fill stroke markers" d=" M 237.97272727272727 325.09090909090907 L 243.5909090909091 325.09090909090907 L 243.5909090909091 325.09090909090907 L 237.97272727272727 325.09090909090907 L 237.97272727272727 325.09090909090907 Z" stroke-linejoin="bevel" stroke-miterlimit="10" stroke-opacity="0.3"/><path fill="navy" stroke="none" paint-order="stroke fill markers" d=" M 243.5909090909091 325.09090909090907 L 249.2090909090909 325.09090909090907 L 249.2090909090909 325.09090909090907 L 243.5909090909091 325.09090909090907 L 243.5909090909091 325.09090909090907 Z" fill-opacity="0.3"/><path fill="none" stroke="white" paint-order="fill stroke markers" d=" M 243.5909090909091 325.09090909090907 L 249.2090909090909 325.09090909090907 L 249.2090909090909 325.09090909090907 L 243.5909090909091 325.09090909090907 L 243.5909090909091 325.09090909090907 Z" stroke-linejoin="bevel" stroke-miterlimit="10" stroke-opacity="0.3"/><path fill="navy" stroke="none" paint-order="stroke fill markers" d=" M 249.2090909090909 325.09090909090907 L 254.8272727272727 325.09090909090907 L 254.8272727272727 325.09090909090907 L 249.2090909090909 325.09090909090907 L 249.2090909090909 325.09090909090907 Z" fill-opacity="0.3"/><path fill="none" stroke="white" paint-order="fill stroke markers" d=" M 249.2090909090909 325.09090909090907 L 254.8272727272727 325.09090909090907 L 254.8272727272727 325.09090909090907 L 249.2090909090909 325.09090909090907 L 249.2090909090909 325.09090909090907 Z" stroke-linejoin="bevel" stroke-miterlimit="10" stroke-opacity="0.3"/><path fill="navy" stroke="none" paint-order="stroke fill markers" d=" M 254.8272727272727 325.09090909090907 L 260.44545454545454 325.09090909090907 L 260.44545454545454 325.09090909090907 L 254.8272727272727 325.09090909090907 L 254.8272727272727 325.09090909090907 Z" fill-opacity="0.3"/><path fill="none" stroke="white" paint-order="fill stroke markers" d=" M 254.8272727272727 325.09090909090907 L 260.44545454545454 325.09090909090907 L 260.44545454545454 325.09090909090907 L 254.8272727272727 325.09090909090907 L 254.8272727272727 325.09090909090907 Z" stroke-linejoin="bevel" stroke-miterlimit="10" stroke-opacity="0.3"/><path fill="navy" stroke="none" paint-order="stroke fill markers" d=" M 260.44545454545454 325.09090909090907 L 266.0636363636363 325.09090909090907 L 266.0636363636363 325.09090909090907 L 260.44545454545454 325.09090909090907 L 260.44545454545454 325.09090909090907 Z" fill-opacity="0.3"/><path fill="none" stroke="white" paint-order="fill stroke markers" d=" M 260.44545454545454 325.09090909090907 L 266.0636363636363 325.09090909090907 L 266.0636363636363 325.09090909090907 L 260.44545454545454 325.09090909090907 L 260.44545454545454 325.09090909090907 Z" stroke-linejoin="bevel" stroke-miterlimit="10" stroke-opacity="0.3"/><path fill="navy" stroke="none" paint-order="stroke fill markers" d=" M 266.0636363636363 325.09090909090907 L 271.68181818181813 325.09090909090907 L 271.68181818181813 325.09090909090907 L 266.0636363636363 325.09090909090907 L 266.0636363636363 325.09090909090907 Z" fill-opacity="0.3"/><path fill="none" stroke="white" paint-order="fill stroke markers" d=" M 266.0636363636363 325.09090909090907 L 271.68181818181813 325.09090909090907 L 271.68181818181813 325.09090909090907 L 266.0636363636363 325.09090909090907 L 266.0636363636363 325.09090909090907 Z" stroke-linejoin="bevel" stroke-miterlimit="10" stroke-opacity="0.3"/><path fill="navy" stroke="none" paint-order="stroke fill markers" d=" M 271.68181818181813 325.09090909090907 L 277.29999999999995 325.09090909090907 L 277.29999999999995 325.09090909090907 L 271.68181818181813 325.09090909090907 L 271.68181818181813 325.09090909090907 Z" fill-opacity="0.3"/><path fill="none" stroke="white" paint-order="fill stroke markers" d=" M 271.68181818181813 325.09090909090907 L 277.29999999999995 325.09090909090907 L 277.29999999999995 325.09090909090907 L 271.68181818181813 325.09090909090907 L 271.68181818181813 325.09090909090907 Z" stroke-linejoin="bevel" stroke-miterlimit="10" stroke-opacity="0.3"/><path fill="navy" stroke="none" paint-order="stroke fill markers" d=" M 277.29999999999995 325.09090909090907 L 282.9181818181818 325.09090909090907 L 282.9181818181818 325.09090909090907 L 277.29999999999995 325.09090909090907 L 277.29999999999995 325.09090909090907 Z" fill-opacity="0.3"/><path fill="none" stroke="white" paint-order="fill stroke markers" d=" M 277.29999999999995 325.09090909090907 L 282.9181818181818 325.09090909090907 L 282.9181818181818 325.09090909090907 L 277.29999999999995 325.09090909090907 L 277.29999999999995 325.09090909090907 Z" stroke-linejoin="bevel" stroke-miterlimit="10" stroke-opacity="0.3"/><path fill="navy" stroke="none" paint-order="stroke fill markers" d=" M 282.9181818181818 325.09090909090907 L 288.5363636363636 325.09090909090907 L 288.5363636363636 325.09090909090907 L 282.9181818181818 325.09090909090907 L 282.9181818181818 325.09090909090907 Z" fill-opacity="0.3"/><path fill="none" stroke="white" paint-order="fill stroke markers" d=" M 282.9181818181818 325.09090909090907 L 288.5363636363636 325.09090909090907 L 288.5363636363636 325.09090909090907 L 282.9181818181818 325.09090909090907 L 282.9181818181818 325.09090909090907 Z" stroke-linejoin="bevel" stroke-miterlimit="10" stroke-opacity="0.3"/><path fill="navy" stroke="none" paint-order="stroke fill markers" d=" M 288.5363636363636 325.09090909090907 L 294.1545454545454 325.09090909090907 L 294.1545454545454 325.09090909090907 L 288.5363636363636 325.09090909090907 L 288.5363636363636 325.09090909090907 Z" fill-opacity="0.3"/><path fill="none" stroke="white" paint-order="fill stroke markers" d=" M 288.5363636363636 325.09090909090907 L 294.1545454545454 325.09090909090907 L 294.1545454545454 325.09090909090907 L 288.5363636363636 325.09090909090907 L 288.5363636363636 325.09090909090907 Z" stroke-linejoin="bevel" stroke-miterlimit="10" stroke-opacity="0.3"/><path fill="navy" stroke="none" paint-order="stroke fill markers" d=" M 294.1545454545454 325.09090909090907 L 299.77272727272725 325.09090909090907 L 299.77272727272725 325.09090909090907 L 294.1545454545454 325.09090909090907 L 294.1545454545454 325.09090909090907 Z" fill-opacity="0.3"/><path fill="none" stroke="white" paint-order="fill stroke markers" d=" M 294.1545454545454 325.09090909090907 L 299.77272727272725 325.09090909090907 L 299.77272727272725 325.09090909090907 L 294.1545454545454 325.09090909090907 L 294.1545454545454 325.09090909090907 Z" stroke-linejoin="bevel" stroke-miterlimit="10" stroke-opacity="0.3"/><path fill="navy" stroke="none" paint-order="stroke fill markers" d=" M 299.77272727272725 325.09090909090907 L 305.3909090909091 325.09090909090907 L 305.3909090909091 325.09090909090907 L 299.77272727272725 325.09090909090907 L 299.77272727272725 325.09090909090907 Z" fill-opacity="0.3"/><path fill="none" stroke="white" paint-order="fill stroke markers" d=" M 299.77272727272725 325.09090909090907 L 305.3909090909091 325.09090909090907 L 305.3909090909091 325.09090909090907 L 299.77272727272725 325.09090909090907 L 299.77272727272725 325.09090909090907 Z" stroke-linejoin="bevel" stroke-miterlimit="10" stroke-opacity="0.3"/><path fill="navy" stroke="none" paint-order="stroke fill markers" d=" M 305.3909090909091 325.09090909090907 L 311.0090909090909 325.09090909090907 L 311.0090909090909 325.09090909090907 L 305.3909090909091 325.09090909090907 L 305.3909090909091 325.09090909090907 Z" fill-opacity="0.3"/><path fill="none" stroke="white" paint-order="fill stroke markers" d=" M 305.3909090909091 325.09090909090907 L 311.0090909090909 325.09090909090907 L 311.0090909090909 325.09090909090907 L 305.3909090909091 325.09090909090907 L 305.3909090909091 325.09090909090907 Z" stroke-linejoin="bevel" stroke-miterlimit="10" stroke-opacity="0.3"/><path fill="navy" stroke="none" paint-order="stroke fill markers" d=" M 311.0090909090909 325.09090909090907 L 316.6272727272727 325.09090909090907 L 316.6272727272727 325.09090909090907 L 311.0090909090909 325.09090909090907 L 311.0090909090909 325.09090909090907 Z" fill-opacity="0.3"/><path fill="none" stroke="white" paint-order="fill stroke markers" d=" M 311.0090909090909 325.09090909090907 L 316.6272727272727 325.09090909090907 L 316.6272727272727 325.09090909090907 L 311.0090909090909 325.09090909090907 L 311.0090909090909 325.09090909090907 Z" stroke-linejoin="bevel" stroke-miterlimit="10" stroke-opacity="0.3"/><path fill="navy" stroke="none" paint-order="stroke fill markers" d=" M 316.6272727272727 325.09090909090907 L 322.24545454545455 325.09090909090907 L 322.24545454545455 325.09090909090907 L 316.6272727272727 325.09090909090907 L 316.6272727272727 325.09090909090907 Z" fill-opacity="0.3"/><path fill="none" stroke="white" paint-order="fill stroke markers" d=" M 316.6272727272727 325.09090909090907 L 322.24545454545455 325.09090909090907 L 322.24545454545455 325.09090909090907 L 316.6272727272727 325.09090909090907 L 316.6272727272727 325.09090909090907 Z" stroke-linejoin="bevel" stroke-miterlimit="10" stroke-opacity="0.3"/><path fill="navy" stroke="none" paint-order="stroke fill markers" d=" M 322.24545454545455 325.09090909090907 L 327.8636363636364 325.09090909090907 L 327.8636363636364 325.09090909090907 L 322.24545454545455 325.09090909090907 L 322.24545454545455 325.09090909090907 Z" fill-opacity="0.3"/><path fill="none" stroke="white" paint-order="fill stroke markers" d=" M 322.24545454545455 325.09090909090907 L 327.8636363636364 325.09090909090907 L 327.8636363636364 325.09090909090907 L 322.24545454545455 325.09090909090907 L 322.24545454545455 325.09090909090907 Z" stroke-linejoin="bevel" stroke-miterlimit="10" stroke-opacity="0.3"/><path fill="navy" stroke="none" paint-order="stroke fill markers" d=" M 327.8636363636364 325.09090909090907 L 333.48181818181814 325.09090909090907 L 333.48181818181814 325.09090909090907 L 327.8636363636364 325.09090909090907 L 327.8636363636364 325.09090909090907 Z" fill-opacity="0.3"/><path fill="none" stroke="white" paint-order="fill stroke markers" d=" M 327.8636363636364 325.09090909090907 L 333.48181818181814 325.09090909090907 L 333.48181818181814 325.09090909090907 L 327.8636363636364 325.09090909090907 L 327.8636363636364 325.09090909090907 Z" stroke-linejoin="bevel" stroke-miterlimit="10" stroke-opacity="0.3"/><path fill="navy" stroke="none" paint-order="stroke fill markers" d=" M 333.48181818181814 325.09090909090907 L 339.09999999999997 325.09090909090907 L 339.09999999999997 325.09090909090907 L 333.48181818181814 325.09090909090907 L 333.48181818181814 325.09090909090907 Z" fill-opacity="0.3"/><path fill="none" stroke="white" paint-order="fill stroke markers" d=" M 333.48181818181814 325.09090909090907 L 339.09999999999997 325.09090909090907 L 339.09999999999997 325.09090909090907 L 333.48181818181814 325.09090909090907 L 333.48181818181814 325.09090909090907 Z" stroke-linejoin="bevel" stroke-miterlimit="10" stroke-opacity="0.3"/><path fill="navy" stroke="none" paint-order="stroke fill markers" d=" M 339.09999999999997 325.09090909090907 L 344.7181818181818 325.09090909090907 L 344.7181818181818 325.09090909090907 L 339.09999999999997 325.09090909090907 L 339.09999999999997 325.09090909090907 Z" fill-opacity="0.3"/><path fill="none" stroke="white" paint-order="fill stroke markers" d=" M 339.09999999999997 325.09090909090907 L 344.7181818181818 325.09090909090907 L 344.7181818181818 325.09090909090907 L 339.09999999999997 325.09090909090907 L 339.09999999999997 325.09090909090907 Z" stroke-linejoin="bevel" stroke-miterlimit="10" stroke-opacity="0.3"/><path fill="navy" stroke="none" paint-order="stroke fill markers" d=" M 344.7181818181818 325.09090909090907 L 350.3363636363636 325.09090909090907 L 350.3363636363636 325.09090909090907 L 344.7181818181818 325.09090909090907 L 344.7181818181818 325.09090909090907 Z" fill-opacity="0.3"/><path fill="none" stroke="white" paint-order="fill stroke markers" d=" M 344.7181818181818 325.09090909090907 L 350.3363636363636 325.09090909090907 L 350.3363636363636 325.09090909090907 L 344.7181818181818 325.09090909090907 L 344.7181818181818 325.09090909090907 Z" stroke-linejoin="bevel" stroke-miterlimit="10" stroke-opacity="0.3"/><path fill="navy" stroke="none" paint-order="stroke fill markers" d=" M 350.3363636363636 309.6363636363636 L 355.95454545454544 309.6363636363636 L 355.95454545454544 325.09090909090907 L 350.3363636363636 325.09090909090907 L 350.3363636363636 309.6363636363636 Z" fill-opacity="0.3"/><path fill="none" stroke="white" paint-order="fill stroke markers" d=" M 350.3363636363636 309.6363636363636 L 355.95454545454544 309.6363636363636 L 355.95454545454544 325.09090909090907 L 350.3363636363636 325.09090909090907 L 350.3363636363636 309.6363636363636 Z" stroke-linejoin="bevel" stroke-miterlimit="10" stroke-opacity="0.3"/></g></g></g><g clip-path="url(#RncMeSVDBTWH)"><g><g><path fill="none" stroke="red" paint-order="fill stroke markers" d=" M 121.53109341445358 33 L 121.53109341445358 339" stroke-linejoin="bevel" stroke-miterlimit="10" stroke-width="3" stroke-dasharray="6"/></g></g></g><g><g fill="#444444"><path fill="" stroke="none" d=""/><g transform="translate(215.5,5)"><path fill="none" stroke="none"/><text fill="" stroke="none" font-family="helvetica" font-size="12pt" font-style="normal" font-weight="bold" text-decoration="normal" x="0" y="0" text-anchor="middle" dominant-baseline="text-before-edge">Intra-molecular distances/Linker EDC</text></g></g></g><g/><g><g fill="#444444"><path fill="none" stroke="black" paint-order="fill stroke markers" d=" M 61 339 L 370 339" stroke-linejoin="bevel" stroke-miterlimit="10"/><path fill="none" stroke="black" paint-order="fill stroke markers" d=" M 75 345 L 75 337" stroke-linejoin="bevel" stroke-miterlimit="10"/><path fill="none" stroke="black" paint-order="fill stroke markers" d=" M 122 345 L 122 337" stroke-linejoin="bevel" stroke-miterlimit="10"/><path fill="none" stroke="black" paint-order="fill stroke markers" d=" M 168 345 L 168 337" stroke-linejoin="bevel" stroke-miterlimit="10"/><path fill="none" stroke="black" paint-order="fill stroke markers" d=" M 215 345 L 215 337" stroke-linejoin="bevel" stroke-miterlimit="10"/><path fill="none" stroke="black" paint-order="fill stroke markers" d=" M 261 345 L 261 337" stroke-linejoin="bevel" stroke-miterlimit="10"/><path fill="none" stroke="black" paint-order="fill stroke markers" d=" M 307 345 L 307 337" stroke-linejoin="bevel" stroke-miterlimit="10"/><path fill="none" stroke="black" paint-order="fill stroke markers" d=" M 354 345 L 354 337" stroke-linejoin="bevel" stroke-miterlimit="10"/><path fill="none" stroke="black" paint-order="fill stroke markers" d=" M 66 343 L 66 339" stroke-linejoin="bevel" stroke-miterlimit="10"/><path fill="none" stroke="black" paint-order="fill stroke markers" d=" M 75 343 L 75 339" stroke-linejoin="bevel" stroke-miterlimit="10"/><path fill="none" stroke="black" paint-order="fill stroke markers" d=" M 84 343 L 84 339" stroke-linejoin="bevel" stroke-miterlimit="10"/><path fill="none" stroke="black" paint-order="fill stroke markers" d=" M 94 343 L 94 339" stroke-linejoin="bevel" stroke-miterlimit="10"/><path fill="none" stroke="black" paint-order="fill stroke markers" d=" M 103 343 L 103 339" stroke-linejoin="bevel" stroke-miterlimit="10"/><path fill="none" stroke="black" paint-order="fill stroke markers" d=" M 112 343 L 112 339" stroke-linejoin="bevel" stroke-miterlimit="10"/><path fill="none" stroke="black" paint-order="fill stroke markers" d=" M 122 343 L 122 339" stroke-linejoin="bevel" stroke-miterlimit="10"/><path fill="none" stroke="black" paint-order="fill stroke markers" d=" M 131 343 L 131 339" stroke-linejoin="bevel" stroke-miterlimit="10"/><path fill="none" stroke="black" paint-order="fill stroke markers" d=" M 140 343 L 140 339" stroke-linejoin="bevel" stroke-miterlimit="10"/><path fill="none" stroke="black" paint-order="fill stroke markers" d=" M 149 343 L 149 339" stroke-linejoin="bevel" stroke-miterlimit="10"/><path fill="none" stroke="black" paint-order="fill stroke markers" d=" M 159 343 L 159 339" stroke-linejoin="bevel" stroke-miterlimit="10"/><path fill="none" stroke="black" paint-order="fill stroke markers" d=" M 168 343 L 168 339" stroke-linejoin="bevel" stroke-miterlimit="10"/><path fill="none" stroke="black" paint-order="fill stroke markers" d=" M 177 343 L 177 339" stroke-linejoin="bevel" stroke-miterlimit="10"/><path fill="none" stroke="black" paint-order="fill stroke markers" d=" M 187 343 L 187 339" stroke-linejoin="bevel" stroke-miterlimit="10"/><path fill="none" stroke="black" paint-order="fill stroke markers" d=" M 196 343 L 196 339" stroke-linejoin="bevel" stroke-miterlimit="10"/><path fill="none" stroke="black" paint-order="fill stroke markers" d=" M 205 343 L 205 339" stroke-linejoin="bevel" stroke-miterlimit="10"/><path fill="none" stroke="black" paint-order="fill stroke markers" d=" M 215 343 L 215 339" stroke-linejoin="bevel" stroke-miterlimit="10"/><path fill="none" stroke="black" paint-order="fill stroke markers" d=" M 224 343 L 224 339" stroke-linejoin="bevel" stroke-miterlimit="10"/><path fill="none" stroke="black" paint-order="fill stroke markers" d=" M 233 343 L 233 339" stroke-linejoin="bevel" stroke-miterlimit="10"/><path fill="none" stroke="black" paint-order="fill stroke markers" d=" M 242 343 L 242 339" stroke-linejoin="bevel" stroke-miterlimit="10"/><path fill="none" stroke="black" paint-order="fill stroke markers" d=" M 252 343 L 252 339" stroke-linejoin="bevel" stroke-miterlimit="10"/><path fill="none" stroke="black" paint-order="fill stroke markers" d=" M 261 343 L 261 339" stroke-linejoin="bevel" stroke-miterlimit="10"/><path fill="none" stroke="black" paint-order="fill stroke markers" d=" M 270 343 L 270 339" stroke-linejoin="bevel" stroke-miterlimit="10"/><path fill="none" stroke="black" paint-order="fill stroke markers" d=" M 280 343 L 280 339" stroke-linejoin="bevel" stroke-miterlimit="10"/><path fill="none" stroke="black" paint-order="fill stroke markers" d=" M 289 343 L 289 339" stroke-linejoin="bevel" stroke-miterlimit="10"/><path fill="none" stroke="black" paint-order="fill stroke markers" d=" M 298 343 L 298 339" stroke-linejoin="bevel" stroke-miterlimit="10"/><path fill="none" stroke="black" paint-order="fill stroke markers" d=" M 307 343 L 307 339" stroke-linejoin="bevel" stroke-miterlimit="10"/><path fill="none" stroke="black" paint-order="fill stroke markers" d=" M 317 343 L 317 339" stroke-linejoin="bevel" stroke-miterlimit="10"/><path fill="none" stroke="black" paint-order="fill stroke markers" d=" M 326 343 L 326 339" stroke-linejoin="bevel" stroke-miterlimit="10"/><path fill="none" stroke="black" paint-order="fill stroke markers" d=" M 335 343 L 335 339" stroke-linejoin="bevel" stroke-miterlimit="10"/><path fill="none" stroke="black" paint-order="fill stroke markers" d=" M 345 343 L 345 339" stroke-linejoin="bevel" stroke-miterlimit="10"/><path fill="none" stroke="black" paint-order="fill stroke markers" d=" M 354 343 L 354 339" stroke-linejoin="bevel" stroke-miterlimit="10"/><path fill="" stroke="black" paint-order="fill stroke markers" d=" M 363 343 L 363 339" stroke-linejoin="bevel" stroke-miterlimit="10"/><g transform="translate(75,350) rotate(0,0,0)"><text fill="" stroke="none" font-family="helvetica" font-size="14pt" font-style="normal" font-weight="normal" text-decoration="normal" x="0" y="0" text-anchor="middle" dominant-baseline="hanging">0</text><g transform="rotate(0,0,0) translate(-75,-350) translate(122,350) rotate(0,0,0)"><text fill="" stroke="none" font-family="helvetica" font-size="14pt" font-style="normal" font-weight="normal" text-decoration="normal" x="0" y="0" text-anchor="middle" dominant-baseline="hanging">20</text><g transform="rotate(0,0,0) translate(-122,-350) translate(168,350) rotate(0,0,0)"><text fill="" stroke="none" font-family="helvetica" font-size="14pt" font-style="normal" font-weight="normal" text-decoration="normal" x="0" y="0" text-anchor="middle" dominant-baseline="hanging">40</text><g transform="rotate(0,0,0) translate(-168,-350) translate(215,350) rotate(0,0,0)"><text fill="" stroke="none" font-family="helvetica" font-size="14pt" font-style="normal" font-weight="normal" text-decoration="normal" x="0" y="0" text-anchor="middle" dominant-baseline="hanging">60</text><g transform="rotate(0,0,0) translate(-215,-350) translate(261,350) rotate(0,0,0)"><text fill="" stroke="none" font-family="helvetica" font-size="14pt" font-style="normal" font-weight="normal" text-decoration="normal" x="0" y="0" text-anchor="middle" dominant-baseline="hanging">80</text><g transform="rotate(0,0,0) translate(-261,-350) translate(307,350) rotate(0,0,0)"><text fill="" stroke="none" font-family="helvetica" font-size="14pt" font-style="normal" font-weight="normal" text-decoration="normal" x="0" y="0" text-anchor="middle" dominant-baseline="hanging">100</text><g transform="rotate(0,0,0) translate(-307,-350) translate(354,350) rotate(0,0,0)"><text fill="" stroke="none" font-family="helvetica" font-size="14pt" font-style="normal" font-weight="normal" text-decoration="normal" x="0" y="0" text-anchor="middle" dominant-baseline="hanging">120</text><g transform="rotate(0,0,0) translate(-354,-350) translate(216,377) rotate(0,0,0)"><text fill="" stroke="none" font-family="helvetica" font-size="14pt" font-style="italic" font-weight="normal" text-decoration="normal" x="0" y="0" text-anchor="middle" dominant-baseline="hanging">Distance Å</text><g transform="rotate(0,0,0) translate(-216,-377)"/></g></g></g></g></g></g></g></g></g></g><g><g fill="#444444"><path fill="none" stroke="black" paint-order="fill stroke markers" d=" M 61 339 L 61 33" stroke-linejoin="bevel" stroke-miterlimit="10"/><path fill="none" stroke="black" paint-order="fill stroke markers" d=" M 55 325 L 63 325" stroke-linejoin="bevel" stroke-miterlimit="10"/><path fill="none" stroke="black" paint-order="fill stroke markers" d=" M 55 248 L 63 248" stroke-linejoin="bevel" stroke-miterlimit="10"/><path fill="none" stroke="black" paint-order="fill stroke markers" d=" M 55 171 L 63 171" stroke-linejoin="bevel" stroke-miterlimit="10"/><path fill="none" stroke="black" paint-order="fill stroke markers" d=" M 55 93 L 63 93" stroke-linejoin="bevel" stroke-miterlimit="10"/><path fill="none" stroke="black" paint-order="fill stroke markers" d=" M 57 325 L 61 325" stroke-linejoin="bevel" stroke-miterlimit="10"/><path fill="none" stroke="black" paint-order="fill stroke markers" d=" M 57 310 L 61 310" stroke-linejoin="bevel" stroke-miterlimit="10"/><path fill="none" stroke="black" paint-order="fill stroke markers" d=" M 57 294 L 61 294" stroke-linejoin="bevel" stroke-miterlimit="10"/><path fill="none" stroke="black" paint-order="fill stroke markers" d=" M 57 279 L 61 279" stroke-linejoin="bevel" stroke-miterlimit="10"/><path fill="none" stroke="black" paint-order="fill stroke markers" d=" M 57 263 L 61 263" stroke-linejoin="bevel" stroke-miterlimit="10"/><path fill="none" stroke="black" paint-order="fill stroke markers" d=" M 57 248 L 61 248" stroke-linejoin="bevel" stroke-miterlimit="10"/><path fill="none" stroke="black" paint-order="fill stroke markers" d=" M 57 232 L 61 232" stroke-linejoin="bevel" stroke-miterlimit="10"/><path fill="none" stroke="black" paint-order="fill stroke markers" d=" M 57 217 L 61 217" stroke-linejoin="bevel" stroke-miterlimit="10"/><path fill="none" stroke="black" paint-order="fill stroke markers" d=" M 57 201 L 61 201" stroke-linejoin="bevel" stroke-miterlimit="10"/><path fill="none" stroke="black" paint-order="fill stroke markers" d=" M 57 186 L 61 186" stroke-linejoin="bevel" stroke-miterlimit="10"/><path fill="none" stroke="black" paint-order="fill stroke markers" d=" M 57 171 L 61 171" stroke-linejoin="bevel" stroke-miterlimit="10"/><path fill="none" stroke="black" paint-order="fill stroke markers" d=" M 57 155 L 61 155" stroke-linejoin="bevel" stroke-miterlimit="10"/><path fill="none" stroke="black" paint-order="fill stroke markers" d=" M 57 140 L 61 140" stroke-linejoin="bevel" stroke-miterlimit="10"/><path fill="none" stroke="black" paint-order="fill stroke markers" d=" M 57 124 L 61 124" stroke-linejoin="bevel" stroke-miterlimit="10"/><path fill="none" stroke="black" paint-order="fill stroke markers" d=" M 57 109 L 61 109" stroke-linejoin="bevel" stroke-miterlimit="10"/><path fill="none" stroke="black" paint-order="fill stroke markers" d=" M 57 93 L 61 93" stroke-linejoin="bevel" stroke-miterlimit="10"/><path fill="none" stroke="black" paint-order="fill stroke markers" d=" M 57 78 L 61 78" stroke-linejoin="bevel" stroke-miterlimit="10"/><path fill="none" stroke="black" paint-order="fill stroke markers" d=" M 57 62 L 61 62" stroke-linejoin="bevel" stroke-miterlimit="10"/><path fill="" stroke="black" paint-order="fill stroke markers" d=" M 57 47 L 61 47" stroke-linejoin="bevel" stroke-miterlimit="10"/><g transform="translate(50,325) rotate(0,0,0)"><text fill="" stroke="none" font-family="helvetica" font-size="14pt" font-style="normal" font-weight="normal" text-decoration="normal" x="0" y="0" text-anchor="end" dominant-baseline="central">0</text><g transform="rotate(0,0,0) translate(-50,-325) translate(50,248) rotate(0,0,0)"><text fill="" stroke="none" font-family="helvetica" font-size="14pt" font-style="normal" font-weight="normal" text-decoration="normal" x="0" y="0" text-anchor="end" dominant-baseline="central">5</text><g transform="rotate(0,0,0) translate(-50,-248) translate(50,171) rotate(0,0,0)"><text fill="" stroke="none" font-family="helvetica" font-size="14pt" font-style="normal" font-weight="normal" text-decoration="normal" x="0" y="0" text-anchor="end" dominant-baseline="central">10</text><g transform="rotate(0,0,0) translate(-50,-171) translate(50,93) rotate(0,0,0)"><text fill="" stroke="none" font-family="helvetica" font-size="14pt" font-style="normal" font-weight="normal" text-decoration="normal" x="0" y="0" text-anchor="end" dominant-baseline="central">15</text><g transform="rotate(0,0,0) translate(-50,-93) translate(22,186) rotate(-90,0,0)"><text fill="" stroke="none" font-family="helvetica" font-size="14pt" font-style="italic" font-weight="normal" text-decoration="normal" x="0" y="0" text-anchor="middle" dominant-baseline="alphabetic">Number of cross-links</text><g transform="rotate(90,0,0) translate(-22,-186)"/></g></g></g></g></g></g></g><g clip-path="url(#hFbKJvAOlBIO)"><g/></g></g></g></svg>