<svg version="1.1" xmlns="http://www.w3.org/2000/svg" xmlns:xlink="http://www.w3.org/1999/xlink" width="350" height="350" style="width: 350px; height: 350px;"><defs><clipPath id="TchJtJTpWlfn"><path fill="none" stroke="none" d=" M 61 33 L 320 33 L 320 289 L 61 289 L 61 33 Z"/></clipPath><clipPath id="LofOpIhbHAvq"><path fill="none" stroke="none" d=" M 61 33 L 320 33 L 320 289 L 61 289 L 61 33 Z"/></clipPath><clipPath id="MeckUaIATnVl"><path fill="none" stroke="none" d=" M 61 33 L 320 33 L 320 289 L 61 289 L 61 33 Z"/></clipPath><clipPath id="dVyovcZTholW"><path fill="none" stroke="none" d=" M 61 33 L 320 33 L 320 289 L 61 289 L 61 33 Z"/></clipPath><clipPath id="eXNGPddSTCTh"><path fill="none" stroke="none" d=" M 61 33 L 320 33 L 320 289 L 61 289 L 61 33 Z"/></clipPath><clipPath id="SUSOuxdabeot"><path fill="none" stroke="none" d=" M 61 33 L 320 33 L 320 289 L 61 289 L 61 33 Z"/></clipPath><clipPath id="plquyQhKpmAQ"><path fill="none" stroke="none" d=" M 61 33 L 320 33 L 320 289 L 61 289 L 61 33 Z"/></clipPath><clipPath id="RvUvqcimaNxu"><path fill="none" stroke="none" d=" M 61 33 L 320 33 L 320 289 L 61 289 L 61 33 Z"/></clipPath><clipPath id="kfwHIzkzUEiv"><path fill="none" stroke="none" d=" M 61 33 L 320 33 L 320 289 L 61 289 L 61 33 Z"/></clipPath><clipPath id="AneEliRxuPyf"><path fill="none" stroke="none" d=" M 61 33 L 320 33 L 320 289 L 61 289 L 61 33 Z"/></clipPath></defs><g><g transform="scale(1,1) translate(0.5,0.5)"><rect fill="#FFFFFF" stroke="none" x="0" y="0" width="350" height="350"/><rect fill="#ffffff" stroke="none" x="0" y="0" width="350" height="350"/><rect fill="#FFFFFF" stroke="none" x="61" y="33" width="259" height="256"/><rect fill="#ffffff" stroke="none" x="61" y="33" width="259" height="256"/><g><rect fill="none" stroke="#e5e5e5" x="61" y="33" width="259" height="256" stroke-linejoin="bevel" stroke-miterlimit="10"/></g><g clip-path="url(#TchJtJTpWlfn)"><g><g><path fill="none" stroke="#e5e5e5" paint-order="fill stroke markers" d=" M 73 289 L 73 33" stroke-linejoin="bevel" stroke-miterlimit="10"/><path fill="none" stroke="#e5e5e5" paint-order="fill stroke markers" d=" M 115 289 L 115 33" stroke-linejoin="bevel" stroke-miterlimit="10"/><path fill="none" stroke="#e5e5e5" paint-order="fill stroke markers" d=" M 156 289 L 156 33" stroke-linejoin="bevel" stroke-miterlimit="10"/><path fill="none" stroke="#e5e5e5" paint-order="fill stroke markers" d=" M 198 289 L 198 33" stroke-linejoin="bevel" stroke-miterlimit="10"/><path fill="none" stroke="#e5e5e5" paint-order="fill stroke markers" d=" M 240 289 L 240 33" stroke-linejoin="bevel" stroke-miterlimit="10"/><path fill="none" stroke="#e5e5e5" paint-order="fill stroke markers" d=" M 281 289 L 281 33" stroke-linejoin="bevel" stroke-miterlimit="10"/></g></g></g><g clip-path="url(#LofOpIhbHAvq)"><g><g><path fill="none" stroke="#e5e5e5" paint-order="fill stroke markers" d=" M 61 277 L 320 277" stroke-linejoin="bevel" stroke-miterlimit="10"/><path fill="none" stroke="#e5e5e5" paint-order="fill stroke markers" d=" M 61 231 L 320 231" stroke-linejoin="bevel" stroke-miterlimit="10"/><path fill="none" stroke="#e5e5e5" paint-order="fill stroke markers" d=" M 61 184 L 320 184" stroke-linejoin="bevel" stroke-miterlimit="10"/><path fill="none" stroke="#e5e5e5" paint-order="fill stroke markers" d=" M 61 138 L 320 138" stroke-linejoin="bevel" stroke-miterlimit="10"/><path fill="none" stroke="#e5e5e5" paint-order="fill stroke markers" d=" M 61 91 L 320 91" stroke-linejoin="bevel" stroke-miterlimit="10"/><path fill="none" stroke="#e5e5e5" paint-order="fill stroke markers" d=" M 61 45 L 320 45" stroke-linejoin="bevel" stroke-miterlimit="10"/></g></g></g><g clip-path="url(#MeckUaIATnVl)"><g><g><path fill="none" stroke="none"/><path fill="navy" stroke="none" paint-order="stroke fill markers" d=" M 72.77272727272728 254.0909090909091 L 77.48181818181818 254.0909090909091 L 77.48181818181818 277.3636363636364 L 72.77272727272728 277.3636363636364 L 72.77272727272728 254.0909090909091 Z" fill-opacity="0.3"/><path fill="none" stroke="white" paint-order="fill stroke markers" d=" M 72.77272727272728 254.0909090909091 L 77.48181818181818 254.0909090909091 L 77.48181818181818 277.3636363636364 L 72.77272727272728 277.3636363636364 L 72.77272727272728 254.0909090909091 Z" stroke-linejoin="bevel" stroke-miterlimit="10" stroke-opacity="0.3"/><path fill="navy" stroke="none" paint-order="stroke fill markers" d=" M 77.48181818181818 277.3636363636364 L 82.1909090909091 277.3636363636364 L 82.1909090909091 277.3636363636364 L 77.48181818181818 277.3636363636364 L 77.48181818181818 277.3636363636364 Z" fill-opacity="0.3"/><path fill="none" stroke="white" paint-order="fill stroke markers" d=" M 77.48181818181818 277.3636363636364 L 82.1909090909091 277.3636363636364 L 82.1909090909091 277.3636363636364 L 77.48181818181818 277.3636363636364 L 77.48181818181818 277.3636363636364 Z" stroke-linejoin="bevel" stroke-miterlimit="10" stroke-opacity="0.3"/><path fill="navy" stroke="none" paint-order="stroke fill markers" d=" M 82.1909090909091 277.3636363636364 L 86.9 277.3636363636364 L 86.9 277.3636363636364 L 82.1909090909091 277.3636363636364 L 82.1909090909091 277.3636363636364 Z" fill-opacity="0.3"/><path fill="none" stroke="white" paint-order="fill stroke markers" d=" M 82.1909090909091 277.3636363636364 L 86.9 277.3636363636364 L 86.9 277.3636363636364 L 82.1909090909091 277.3636363636364 L 82.1909090909091 277.3636363636364 Z" stroke-linejoin="bevel" stroke-miterlimit="10" stroke-opacity="0.3"/><path fill="navy" stroke="none" paint-order="stroke fill markers" d=" M 86.9 277.3636363636364 L 91.60909090909092 277.3636363636364 L 91.60909090909092 277.3636363636364 L 86.9 277.3636363636364 L 86.9 277.3636363636364 Z" fill-opacity="0.3"/><path fill="none" stroke="white" paint-order="fill stroke markers" d=" M 86.9 277.3636363636364 L 91.60909090909092 277.3636363636364 L 91.60909090909092 277.3636363636364 L 86.9 277.3636363636364 L 86.9 277.3636363636364 Z" stroke-linejoin="bevel" stroke-miterlimit="10" stroke-opacity="0.3"/><path fill="navy" stroke="none" paint-order="stroke fill markers" d=" M 91.60909090909092 277.3636363636364 L 96.31818181818183 277.3636363636364 L 96.31818181818183 277.3636363636364 L 91.60909090909092 277.3636363636364 L 91.60909090909092 277.3636363636364 Z" fill-opacity="0.3"/><path fill="none" stroke="white" paint-order="fill stroke markers" d=" M 91.60909090909092 277.3636363636364 L 96.31818181818183 277.3636363636364 L 96.31818181818183 277.3636363636364 L 91.60909090909092 277.3636363636364 L 91.60909090909092 277.3636363636364 Z" stroke-linejoin="bevel" stroke-miterlimit="10" stroke-opacity="0.3"/><path fill="navy" stroke="none" paint-order="stroke fill markers" d=" M 96.31818181818183 277.3636363636364 L 101.02727272727273 277.3636363636364 L 101.02727272727273 277.3636363636364 L 96.31818181818183 277.3636363636364 L 96.31818181818183 277.3636363636364 Z" fill-opacity="0.3"/><path fill="none" stroke="white" paint-order="fill stroke markers" d=" M 96.31818181818183 277.3636363636364 L 101.02727272727273 277.3636363636364 L 101.02727272727273 277.3636363636364 L 96.31818181818183 277.3636363636364 L 96.31818181818183 277.3636363636364 Z" stroke-linejoin="bevel" stroke-miterlimit="10" stroke-opacity="0.3"/><path fill="navy" stroke="none" paint-order="stroke fill markers" d=" M 101.02727272727273 277.3636363636364 L 105.73636363636365 277.3636363636364 L 105.73636363636365 277.3636363636364 L 101.02727272727273 277.3636363636364 L 101.02727272727273 277.3636363636364 Z" fill-opacity="0.3"/><path fill="none" stroke="white" paint-order="fill stroke markers" d=" M 101.02727272727273 277.3636363636364 L 105.73636363636365 277.3636363636364 L 105.73636363636365 277.3636363636364 L 101.02727272727273 277.3636363636364 L 101.02727272727273 277.3636363636364 Z" stroke-linejoin="bevel" stroke-miterlimit="10" stroke-opacity="0.3"/><path fill="navy" stroke="none" paint-order="stroke fill markers" d=" M 105.73636363636365 277.3636363636364 L 110.44545454545455 277.3636363636364 L 110.44545454545455 277.3636363636364 L 105.73636363636365 277.3636363636364 L 105.73636363636365 277.3636363636364 Z" fill-opacity="0.3"/><path fill="none" stroke="white" paint-order="fill stroke markers" d=" M 105.73636363636365 277.3636363636364 L 110.44545454545455 277.3636363636364 L 110.44545454545455 277.3636363636364 L 105.73636363636365 277.3636363636364 L 105.73636363636365 277.3636363636364 Z" stroke-linejoin="bevel" stroke-miterlimit="10" stroke-opacity="0.3"/><path fill="navy" stroke="none" paint-order="stroke fill markers" d=" M 110.44545454545455 277.3636363636364 L 115.15454545454546 277.3636363636364 L 115.15454545454546 277.3636363636364 L 110.44545454545455 277.3636363636364 L 110.44545454545455 277.3636363636364 Z" fill-opacity="0.3"/><path fill="none" stroke="white" paint-order="fill stroke markers" d=" M 110.44545454545455 277.3636363636364 L 115.15454545454546 277.3636363636364 L 115.15454545454546 277.3636363636364 L 110.44545454545455 277.3636363636364 L 110.44545454545455 277.3636363636364 Z" stroke-linejoin="bevel" stroke-miterlimit="10" stroke-opacity="0.3"/><path fill="navy" stroke="none" paint-order="stroke fill markers" d=" M 115.15454545454546 277.3636363636364 L 119.86363636363637 277.3636363636364 L 119.86363636363637 277.3636363636364 L 115.15454545454546 277.3636363636364 L 115.15454545454546 277.3636363636364 Z" fill-opacity="0.3"/><path fill="none" stroke="white" paint-order="fill stroke markers" d=" M 115.15454545454546 277.3636363636364 L 119.86363636363637 277.3636363636364 L 119.86363636363637 277.3636363636364 L 115.15454545454546 277.3636363636364 L 115.15454545454546 277.3636363636364 Z" stroke-linejoin="bevel" stroke-miterlimit="10" stroke-opacity="0.3"/><path fill="navy" stroke="none" paint-order="stroke fill markers" d=" M 119.86363636363637 277.3636363636364 L 124.57272727272729 277.3636363636364 L 124.57272727272729 277.3636363636364 L 119.86363636363637 277.3636363636364 L 119.86363636363637 277.3636363636364 Z" fill-opacity="0.3"/><path fill="none" stroke="white" paint-order="fill stroke markers" d=" M 119.86363636363637 277.3636363636364 L 124.57272727272729 277.3636363636364 L 124.57272727272729 277.3636363636364 L 119.86363636363637 277.3636363636364 L 119.86363636363637 277.3636363636364 Z" stroke-linejoin="bevel" stroke-miterlimit="10" stroke-opacity="0.3"/><path fill="navy" stroke="none" paint-order="stroke fill markers" d=" M 124.57272727272729 277.3636363636364 L 129.28181818181818 277.3636363636364 L 129.28181818181818 277.3636363636364 L 124.57272727272729 277.3636363636364 L 124.57272727272729 277.3636363636364 Z" fill-opacity="0.3"/><path fill="none" stroke="white" paint-order="fill stroke markers" d=" M 124.57272727272729 277.3636363636364 L 129.28181818181818 277.3636363636364 L 129.28181818181818 277.3636363636364 L 124.57272727272729 277.3636363636364 L 124.57272727272729 277.3636363636364 Z" stroke-linejoin="bevel" stroke-miterlimit="10" stroke-opacity="0.3"/><path fill="navy" stroke="none" paint-order="stroke fill markers" d=" M 129.28181818181818 230.8181818181818 L 133.9909090909091 230.8181818181818 L 133.9909090909091 277.3636363636364 L 129.28181818181818 277.3636363636364 L 129.28181818181818 230.8181818181818 Z" fill-opacity="0.3"/><path fill="none" stroke="white" paint-order="fill stroke markers" d=" M 129.28181818181818 230.8181818181818 L 133.9909090909091 230.8181818181818 L 133.9909090909091 277.3636363636364 L 129.28181818181818 277.3636363636364 L 129.28181818181818 230.8181818181818 Z" stroke-linejoin="bevel" stroke-miterlimit="10" stroke-opacity="0.3"/><path fill="navy" stroke="none" paint-order="stroke fill markers" d=" M 133.9909090909091 44.636363636363626 L 138.7 44.636363636363626 L 138.7 277.3636363636364 L 133.9909090909091 277.3636363636364 L 133.9909090909091 44.636363636363626 Z" fill-opacity="0.3"/><path fill="none" stroke="white" paint-order="fill stroke markers" d=" M 133.9909090909091 44.636363636363626 L 138.7 44.636363636363626 L 138.7 277.3636363636364 L 133.9909090909091 277.3636363636364 L 133.9909090909091 44.636363636363626 Z" stroke-linejoin="bevel" stroke-miterlimit="10" stroke-opacity="0.3"/><path fill="navy" stroke="none" paint-order="stroke fill markers" d=" M 138.7 161 L 143.40909090909093 161 L 143.40909090909093 277.3636363636364 L 138.7 277.3636363636364 L 138.7 161 Z" fill-opacity="0.3"/><path fill="none" stroke="white" paint-order="fill stroke markers" d=" M 138.7 161 L 143.40909090909093 161 L 143.40909090909093 277.3636363636364 L 138.7 277.3636363636364 L 138.7 161 Z" stroke-linejoin="bevel" stroke-miterlimit="10" stroke-opacity="0.3"/><path fill="navy" stroke="none" paint-order="stroke fill markers" d=" M 143.40909090909093 254.0909090909091 L 148.11818181818182 254.0909090909091 L 148.11818181818182 277.3636363636364 L 143.40909090909093 277.3636363636364 L 143.40909090909093 254.0909090909091 Z" fill-opacity="0.3"/><path fill="none" stroke="white" paint-order="fill stroke markers" d=" M 143.40909090909093 254.0909090909091 L 148.11818181818182 254.0909090909091 L 148.11818181818182 277.3636363636364 L 143.40909090909093 277.3636363636364 L 143.40909090909093 254.0909090909091 Z" stroke-linejoin="bevel" stroke-miterlimit="10" stroke-opacity="0.3"/><path fill="navy" stroke="none" paint-order="stroke fill markers" d=" M 148.11818181818182 277.3636363636364 L 152.8272727272727 277.3636363636364 L 152.8272727272727 277.3636363636364 L 148.11818181818182 277.3636363636364 L 148.11818181818182 277.3636363636364 Z" fill-opacity="0.3"/><path fill="none" stroke="white" paint-order="fill stroke markers" d=" M 148.11818181818182 277.3636363636364 L 152.8272727272727 277.3636363636364 L 152.8272727272727 277.3636363636364 L 148.11818181818182 277.3636363636364 L 148.11818181818182 277.3636363636364 Z" stroke-linejoin="bevel" stroke-miterlimit="10" stroke-opacity="0.3"/><path fill="navy" stroke="none" paint-order="stroke fill markers" d=" M 152.8272727272727 230.8181818181818 L 157.53636363636363 230.8181818181818 L 157.53636363636363 277.3636363636364 L 152.8272727272727 277.3636363636364 L 152.8272727272727 230.8181818181818 Z" fill-opacity="0.3"/><path fill="none" stroke="white" paint-order="fill stroke markers" d=" M 152.8272727272727 230.8181818181818 L 157.53636363636363 230.8181818181818 L 157.53636363636363 277.3636363636364 L 152.8272727272727 277.3636363636364 L 152.8272727272727 230.8181818181818 Z" stroke-linejoin="bevel" stroke-miterlimit="10" stroke-opacity="0.3"/><path fill="navy" stroke="none" paint-order="stroke fill markers" d=" M 157.53636363636363 277.3636363636364 L 162.24545454545455 277.3636363636364 L 162.24545454545455 277.3636363636364 L 157.53636363636363 277.3636363636364 L 157.53636363636363 277.3636363636364 Z" fill-opacity="0.3"/><path fill="none" stroke="white" paint-order="fill stroke markers" d=" M 157.53636363636363 277.3636363636364 L 162.24545454545455 277.3636363636364 L 162.24545454545455 277.3636363636364 L 157.53636363636363 277.3636363636364 L 157.53636363636363 277.3636363636364 Z" stroke-linejoin="bevel" stroke-miterlimit="10" stroke-opacity="0.3"/><path fill="navy" stroke="none" paint-order="stroke fill markers" d=" M 162.24545454545455 277.3636363636364 L 166.95454545454544 277.3636363636364 L 166.95454545454544 277.3636363636364 L 162.24545454545455 277.3636363636364 L 162.24545454545455 277.3636363636364 Z" fill-opacity="0.3"/><path fill="none" stroke="white" paint-order="fill stroke markers" d=" M 162.24545454545455 277.3636363636364 L 166.95454545454544 277.3636363636364 L 166.95454545454544 277.3636363636364 L 162.24545454545455 277.3636363636364 L 162.24545454545455 277.3636363636364 Z" stroke-linejoin="bevel" stroke-miterlimit="10" stroke-opacity="0.3"/><path fill="navy" stroke="none" paint-order="stroke fill markers" d=" M 166.95454545454544 277.3636363636364 L 171.66363636363636 277.3636363636364 L 171.66363636363636 277.3636363636364 L 166.95454545454544 277.3636363636364 L 166.95454545454544 277.3636363636364 Z" fill-opacity="0.3"/><path fill="none" stroke="white" paint-order="fill stroke markers" d=" M 166.95454545454544 277.3636363636364 L 171.66363636363636 277.3636363636364 L 171.66363636363636 277.3636363636364 L 166.95454545454544 277.3636363636364 L 166.95454545454544 277.3636363636364 Z" stroke-linejoin="bevel" stroke-miterlimit="10" stroke-opacity="0.3"/><path fill="navy" stroke="none" paint-order="stroke fill markers" d=" M 171.66363636363636 277.3636363636364 L 176.37272727272727 277.3636363636364 L 176.37272727272727 277.3636363636364 L 171.66363636363636 277.3636363636364 L 171.66363636363636 277.3636363636364 Z" fill-opacity="0.3"/><path fill="none" stroke="white" paint-order="fill stroke markers" d=" M 171.66363636363636 277.3636363636364 L 176.37272727272727 277.3636363636364 L 176.37272727272727 277.3636363636364 L 171.66363636363636 277.3636363636364 L 171.66363636363636 277.3636363636364 Z" stroke-linejoin="bevel" stroke-miterlimit="10" stroke-opacity="0.3"/><path fill="navy" stroke="none" paint-order="stroke fill markers" d=" M 176.37272727272727 277.3636363636364 L 181.0818181818182 277.3636363636364 L 181.0818181818182 277.3636363636364 L 176.37272727272727 277.3636363636364 L 176.37272727272727 277.3636363636364 Z" fill-opacity="0.3"/><path fill="none" stroke="white" paint-order="fill stroke markers" d=" M 176.37272727272727 277.3636363636364 L 181.0818181818182 277.3636363636364 L 181.0818181818182 277.3636363636364 L 176.37272727272727 277.3636363636364 L 176.37272727272727 277.3636363636364 Z" stroke-linejoin="bevel" stroke-miterlimit="10" stroke-opacity="0.3"/><path fill="navy" stroke="none" paint-order="stroke fill markers" d=" M 181.0818181818182 277.3636363636364 L 185.7909090909091 277.3636363636364 L 185.7909090909091 277.3636363636364 L 181.0818181818182 277.3636363636364 L 181.0818181818182 277.3636363636364 Z" fill-opacity="0.3"/><path fill="none" stroke="white" paint-order="fill stroke markers" d=" M 181.0818181818182 277.3636363636364 L 185.7909090909091 277.3636363636364 L 185.7909090909091 277.3636363636364 L 181.0818181818182 277.3636363636364 L 181.0818181818182 277.3636363636364 Z" stroke-linejoin="bevel" stroke-miterlimit="10" stroke-opacity="0.3"/><path fill="navy" stroke="none" paint-order="stroke fill markers" d=" M 185.7909090909091 254.0909090909091 L 190.5 254.0909090909091 L 190.5 277.3636363636364 L 185.7909090909091 277.3636363636364 L 185.7909090909091 254.0909090909091 Z" fill-opacity="0.3"/><path fill="none" stroke="white" paint-order="fill stroke markers" d=" M 185.7909090909091 254.0909090909091 L 190.5 254.0909090909091 L 190.5 277.3636363636364 L 185.7909090909091 277.3636363636364 L 185.7909090909091 254.0909090909091 Z" stroke-linejoin="bevel" stroke-miterlimit="10" stroke-opacity="0.3"/><path fill="navy" stroke="none" paint-order="stroke fill markers" d=" M 190.5 277.3636363636364 L 195.2090909090909 277.3636363636364 L 195.2090909090909 277.3636363636364 L 190.5 277.3636363636364 L 190.5 277.3636363636364 Z" fill-opacity="0.3"/><path fill="none" stroke="white" paint-order="fill stroke markers" d=" M 190.5 277.3636363636364 L 195.2090909090909 277.3636363636364 L 195.2090909090909 277.3636363636364 L 190.5 277.3636363636364 L 190.5 277.3636363636364 Z" stroke-linejoin="bevel" stroke-miterlimit="10" stroke-opacity="0.3"/><path fill="navy" stroke="none" paint-order="stroke fill markers" d=" M 195.2090909090909 277.3636363636364 L 199.91818181818184 277.3636363636364 L 199.91818181818184 277.3636363636364 L 195.2090909090909 277.3636363636364 L 195.2090909090909 277.3636363636364 Z" fill-opacity="0.3"/><path fill="none" stroke="white" paint-order="fill stroke markers" d=" M 195.2090909090909 277.3636363636364 L 199.91818181818184 277.3636363636364 L 199.91818181818184 277.3636363636364 L 195.2090909090909 277.3636363636364 L 195.2090909090909 277.3636363636364 Z" stroke-linejoin="bevel" stroke-miterlimit="10" stroke-opacity="0.3"/><path fill="navy" stroke="none" paint-order="stroke fill markers" d=" M 199.91818181818184 277.3636363636364 L 204.62727272727273 277.3636363636364 L 204.62727272727273 277.3636363636364 L 199.91818181818184 277.3636363636364 L 199.91818181818184 277.3636363636364 Z" fill-opacity="0.3"/><path fill="none" stroke="white" paint-order="fill stroke markers" d=" M 199.91818181818184 277.3636363636364 L 204.62727272727273 277.3636363636364 L 204.62727272727273 277.3636363636364 L 199.91818181818184 277.3636363636364 L 199.91818181818184 277.3636363636364 Z" stroke-linejoin="bevel" stroke-miterlimit="10" stroke-opacity="0.3"/><path fill="navy" stroke="none" paint-order="stroke fill markers" d=" M 204.62727272727273 277.3636363636364 L 209.33636363636364 277.3636363636364 L 209.33636363636364 277.3636363636364 L 204.62727272727273 277.3636363636364 L 204.62727272727273 277.3636363636364 Z" fill-opacity="0.3"/><path fill="none" stroke="white" paint-order="fill stroke markers" d=" M 204.62727272727273 277.3636363636364 L 209.33636363636364 277.3636363636364 L 209.33636363636364 277.3636363636364 L 204.62727272727273 277.3636363636364 L 204.62727272727273 277.3636363636364 Z" stroke-linejoin="bevel" stroke-miterlimit="10" stroke-opacity="0.3"/><path fill="navy" stroke="none" paint-order="stroke fill markers" d=" M 209.33636363636364 277.3636363636364 L 214.04545454545456 277.3636363636364 L 214.04545454545456 277.3636363636364 L 209.33636363636364 277.3636363636364 L 209.33636363636364 277.3636363636364 Z" fill-opacity="0.3"/><path fill="none" stroke="white" paint-order="fill stroke markers" d=" M 209.33636363636364 277.3636363636364 L 214.04545454545456 277.3636363636364 L 214.04545454545456 277.3636363636364 L 209.33636363636364 277.3636363636364 L 209.33636363636364 277.3636363636364 Z" stroke-linejoin="bevel" stroke-miterlimit="10" stroke-opacity="0.3"/><path fill="navy" stroke="none" paint-order="stroke fill markers" d=" M 214.04545454545456 277.3636363636364 L 218.75454545454545 277.3636363636364 L 218.75454545454545 277.3636363636364 L 214.04545454545456 277.3636363636364 L 214.04545454545456 277.3636363636364 Z" fill-opacity="0.3"/><path fill="none" stroke="white" paint-order="fill stroke markers" d=" M 214.04545454545456 277.3636363636364 L 218.75454545454545 277.3636363636364 L 218.75454545454545 277.3636363636364 L 214.04545454545456 277.3636363636364 L 214.04545454545456 277.3636363636364 Z" stroke-linejoin="bevel" stroke-miterlimit="10" stroke-opacity="0.3"/><path fill="navy" stroke="none" paint-order="stroke fill markers" d=" M 218.75454545454545 277.3636363636364 L 223.46363636363637 277.3636363636364 L 223.46363636363637 277.3636363636364 L 218.75454545454545 277.3636363636364 L 218.75454545454545 277.3636363636364 Z" fill-opacity="0.3"/><path fill="none" stroke="white" paint-order="fill stroke markers" d=" M 218.75454545454545 277.3636363636364 L 223.46363636363637 277.3636363636364 L 223.46363636363637 277.3636363636364 L 218.75454545454545 277.3636363636364 L 218.75454545454545 277.3636363636364 Z" stroke-linejoin="bevel" stroke-miterlimit="10" stroke-opacity="0.3"/><path fill="navy" stroke="none" paint-order="stroke fill markers" d=" M 223.46363636363637 277.3636363636364 L 228.17272727272726 277.3636363636364 L 228.17272727272726 277.3636363636364 L 223.46363636363637 277.3636363636364 L 223.46363636363637 277.3636363636364 Z" fill-opacity="0.3"/><path fill="none" stroke="white" paint-order="fill stroke markers" d=" M 223.46363636363637 277.3636363636364 L 228.17272727272726 277.3636363636364 L 228.17272727272726 277.3636363636364 L 223.46363636363637 277.3636363636364 L 223.46363636363637 277.3636363636364 Z" stroke-linejoin="bevel" stroke-miterlimit="10" stroke-opacity="0.3"/><path fill="navy" stroke="none" paint-order="stroke fill markers" d=" M 228.17272727272726 277.3636363636364 L 232.88181818181818 277.3636363636364 L 232.88181818181818 277.3636363636364 L 228.17272727272726 277.3636363636364 L 228.17272727272726 277.3636363636364 Z" fill-opacity="0.3"/><path fill="none" stroke="white" paint-order="fill stroke markers" d=" M 228.17272727272726 277.3636363636364 L 232.88181818181818 277.3636363636364 L 232.88181818181818 277.3636363636364 L 228.17272727272726 277.3636363636364 L 228.17272727272726 277.3636363636364 Z" stroke-linejoin="bevel" stroke-miterlimit="10" stroke-opacity="0.3"/><path fill="navy" stroke="none" paint-order="stroke fill markers" d=" M 232.88181818181818 277.3636363636364 L 237.5909090909091 277.3636363636364 L 237.5909090909091 277.3636363636364 L 232.88181818181818 277.3636363636364 L 232.88181818181818 277.3636363636364 Z" fill-opacity="0.3"/><path fill="none" stroke="white" paint-order="fill stroke markers" d=" M 232.88181818181818 277.3636363636364 L 237.5909090909091 277.3636363636364 L 237.5909090909091 277.3636363636364 L 232.88181818181818 277.3636363636364 L 232.88181818181818 277.3636363636364 Z" stroke-linejoin="bevel" stroke-miterlimit="10" stroke-opacity="0.3"/><path fill="navy" stroke="none" paint-order="stroke fill markers" d=" M 237.5909090909091 277.3636363636364 L 242.29999999999998 277.3636363636364 L 242.29999999999998 277.3636363636364 L 237.5909090909091 277.3636363636364 L 237.5909090909091 277.3636363636364 Z" fill-opacity="0.3"/><path fill="none" stroke="white" paint-order="fill stroke markers" d=" M 237.5909090909091 277.3636363636364 L 242.29999999999998 277.3636363636364 L 242.29999999999998 277.3636363636364 L 237.5909090909091 277.3636363636364 L 237.5909090909091 277.3636363636364 Z" stroke-linejoin="bevel" stroke-miterlimit="10" stroke-opacity="0.3"/><path fill="navy" stroke="none" paint-order="stroke fill markers" d=" M 242.29999999999998 277.3636363636364 L 247.00909090909093 277.3636363636364 L 247.00909090909093 277.3636363636364 L 242.29999999999998 277.3636363636364 L 242.29999999999998 277.3636363636364 Z" fill-opacity="0.3"/><path fill="none" stroke="white" paint-order="fill stroke markers" d=" M 242.29999999999998 277.3636363636364 L 247.00909090909093 277.3636363636364 L 247.00909090909093 277.3636363636364 L 242.29999999999998 277.3636363636364 L 242.29999999999998 277.3636363636364 Z" stroke-linejoin="bevel" stroke-miterlimit="10" stroke-opacity="0.3"/><path fill="navy" stroke="none" paint-order="stroke fill markers" d=" M 247.00909090909093 277.3636363636364 L 251.71818181818182 277.3636363636364 L 251.71818181818182 277.3636363636364 L 247.00909090909093 277.3636363636364 L 247.00909090909093 277.3636363636364 Z" fill-opacity="0.3"/><path fill="none" stroke="white" paint-order="fill stroke markers" d=" M 247.00909090909093 277.3636363636364 L 251.71818181818182 277.3636363636364 L 251.71818181818182 277.3636363636364 L 247.00909090909093 277.3636363636364 L 247.00909090909093 277.3636363636364 Z" stroke-linejoin="bevel" stroke-miterlimit="10" stroke-opacity="0.3"/><path fill="navy" stroke="none" paint-order="stroke fill markers" d=" M 251.71818181818182 277.3636363636364 L 256.42727272727274 277.3636363636364 L 256.42727272727274 277.3636363636364 L 251.71818181818182 277.3636363636364 L 251.71818181818182 277.3636363636364 Z" fill-opacity="0.3"/><path fill="none" stroke="white" paint-order="fill stroke markers" d=" M 251.71818181818182 277.3636363636364 L 256.42727272727274 277.3636363636364 L 256.42727272727274 277.3636363636364 L 251.71818181818182 277.3636363636364 L 251.71818181818182 277.3636363636364 Z" stroke-linejoin="bevel" stroke-miterlimit="10" stroke-opacity="0.3"/><path fill="navy" stroke="none" paint-order="stroke fill markers" d=" M 256.42727272727274 277.3636363636364 L 261.1363636363636 277.3636363636364 L 261.1363636363636 277.3636363636364 L 256.42727272727274 277.3636363636364 L 256.42727272727274 277.3636363636364 Z" fill-opacity="0.3"/><path fill="none" stroke="white" paint-order="fill stroke markers" d=" M 256.42727272727274 277.3636363636364 L 261.1363636363636 277.3636363636364 L 261.1363636363636 277.3636363636364 L 256.42727272727274 277.3636363636364 L 256.42727272727274 277.3636363636364 Z" stroke-linejoin="bevel" stroke-miterlimit="10" stroke-opacity="0.3"/><path fill="navy" stroke="none" paint-order="stroke fill markers" d=" M 261.1363636363636 277.3636363636364 L 265.8454545454546 277.3636363636364 L 265.8454545454546 277.3636363636364 L 261.1363636363636 277.3636363636364 L 261.1363636363636 277.3636363636364 Z" fill-opacity="0.3"/><path fill="none" stroke="white" paint-order="fill stroke markers" d=" M 261.1363636363636 277.3636363636364 L 265.8454545454546 277.3636363636364 L 265.8454545454546 277.3636363636364 L 261.1363636363636 277.3636363636364 L 261.1363636363636 277.3636363636364 Z" stroke-linejoin="bevel" stroke-miterlimit="10" stroke-opacity="0.3"/><path fill="navy" stroke="none" paint-order="stroke fill markers" d=" M 265.8454545454546 277.3636363636364 L 270.5545454545454 277.3636363636364 L 270.5545454545454 277.3636363636364 L 265.8454545454546 277.3636363636364 L 265.8454545454546 277.3636363636364 Z" fill-opacity="0.3"/><path fill="none" stroke="white" paint-order="fill stroke markers" d=" M 265.8454545454546 277.3636363636364 L 270.5545454545454 277.3636363636364 L 270.5545454545454 277.3636363636364 L 265.8454545454546 277.3636363636364 L 265.8454545454546 277.3636363636364 Z" stroke-linejoin="bevel" stroke-miterlimit="10" stroke-opacity="0.3"/><path fill="navy" stroke="none" paint-order="stroke fill markers" d=" M 270.5545454545454 277.3636363636364 L 275.26363636363635 277.3636363636364 L 275.26363636363635 277.3636363636364 L 270.5545454545454 277.3636363636364 L 270.5545454545454 277.3636363636364 Z" fill-opacity="0.3"/><path fill="none" stroke="white" paint-order="fill stroke markers" d=" M 270.5545454545454 277.3636363636364 L 275.26363636363635 277.3636363636364 L 275.26363636363635 277.3636363636364 L 270.5545454545454 277.3636363636364 L 270.5545454545454 277.3636363636364 Z" stroke-linejoin="bevel" stroke-miterlimit="10" stroke-opacity="0.3"/><path fill="navy" stroke="none" paint-order="stroke fill markers" d=" M 275.26363636363635 277.3636363636364 L 279.9727272727273 277.3636363636364 L 279.9727272727273 277.3636363636364 L 275.26363636363635 277.3636363636364 L 275.26363636363635 277.3636363636364 Z" fill-opacity="0.3"/><path fill="none" stroke="white" paint-order="fill stroke markers" d=" M 275.26363636363635 277.3636363636364 L 279.9727272727273 277.3636363636364 L 279.9727272727273 277.3636363636364 L 275.26363636363635 277.3636363636364 L 275.26363636363635 277.3636363636364 Z" stroke-linejoin="bevel" stroke-miterlimit="10" stroke-opacity="0.3"/><path fill="navy" stroke="none" paint-order="stroke fill markers" d=" M 279.9727272727273 277.3636363636364 L 284.6818181818182 277.3636363636364 L 284.6818181818182 277.3636363636364 L 279.9727272727273 277.3636363636364 L 279.9727272727273 277.3636363636364 Z" fill-opacity="0.3"/><path fill="none" stroke="white" paint-order="fill stroke markers" d=" M 279.9727272727273 277.3636363636364 L 284.6818181818182 277.3636363636364 L 284.6818181818182 277.3636363636364 L 279.9727272727273 277.3636363636364 L 279.9727272727273 277.3636363636364 Z" stroke-linejoin="bevel" stroke-miterlimit="10" stroke-opacity="0.3"/><path fill="navy" stroke="none" paint-order="stroke fill markers" d=" M 284.6818181818182 277.3636363636364 L 289.3909090909091 277.3636363636364 L 289.3909090909091 277.3636363636364 L 284.6818181818182 277.3636363636364 L 284.6818181818182 277.3636363636364 Z" fill-opacity="0.3"/><path fill="none" stroke="white" paint-order="fill stroke markers" d=" M 284.6818181818182 277.3636363636364 L 289.3909090909091 277.3636363636364 L 289.3909090909091 277.3636363636364 L 284.6818181818182 277.3636363636364 L 284.6818181818182 277.3636363636364 Z" stroke-linejoin="bevel" stroke-miterlimit="10" stroke-opacity="0.3"/><path fill="navy" stroke="none" paint-order="stroke fill markers" d=" M 289.3909090909091 277.3636363636364 L 294.1 277.3636363636364 L 294.1 277.3636363636364 L 289.3909090909091 277.3636363636364 L 289.3909090909091 277.3636363636364 Z" fill-opacity="0.3"/><path fill="none" stroke="white" paint-order="fill stroke markers" d=" M 289.3909090909091 277.3636363636364 L 294.1 277.3636363636364 L 294.1 277.3636363636364 L 289.3909090909091 277.3636363636364 L 289.3909090909091 277.3636363636364 Z" stroke-linejoin="bevel" stroke-miterlimit="10" stroke-opacity="0.3"/><path fill="navy" stroke="none" paint-order="stroke fill markers" d=" M 294.1 277.3636363636364 L 298.8090909090909 277.3636363636364 L 298.8090909090909 277.3636363636364 L 294.1 277.3636363636364 L 294.1 277.3636363636364 Z" fill-opacity="0.3"/><path fill="none" stroke="white" paint-order="fill stroke markers" d=" M 294.1 277.3636363636364 L 298.8090909090909 277.3636363636364 L 298.8090909090909 277.3636363636364 L 294.1 277.3636363636364 L 294.1 277.3636363636364 Z" stroke-linejoin="bevel" stroke-miterlimit="10" stroke-opacity="0.3"/><path fill="navy" stroke="none" paint-order="stroke fill markers" d=" M 298.8090909090909 277.3636363636364 L 303.5181818181818 277.3636363636364 L 303.5181818181818 277.3636363636364 L 298.8090909090909 277.3636363636364 L 298.8090909090909 277.3636363636364 Z" fill-opacity="0.3"/><path fill="none" stroke="white" paint-order="fill stroke markers" d=" M 298.8090909090909 277.3636363636364 L 303.5181818181818 277.3636363636364 L 303.5181818181818 277.3636363636364 L 298.8090909090909 277.3636363636364 L 298.8090909090909 277.3636363636364 Z" stroke-linejoin="bevel" stroke-miterlimit="10" stroke-opacity="0.3"/><path fill="navy" stroke="none" paint-order="stroke fill markers" d=" M 303.5181818181818 254.0909090909091 L 308.22727272727275 254.0909090909091 L 308.22727272727275 277.3636363636364 L 303.5181818181818 277.3636363636364 L 303.5181818181818 254.0909090909091 Z" fill-opacity="0.3"/><path fill="none" stroke="white" paint-order="fill stroke markers" d=" M 303.5181818181818 254.0909090909091 L 308.22727272727275 254.0909090909091 L 308.22727272727275 277.3636363636364 L 303.5181818181818 277.3636363636364 L 303.5181818181818 254.0909090909091 Z" stroke-linejoin="bevel" stroke-miterlimit="10" stroke-opacity="0.3"/></g></g></g><g clip-path="url(#dVyovcZTholW)"><g><g><path fill="none" stroke="red" paint-order="fill stroke markers" d=" M 197.9669142504241 33 L 197.9669142504241 289" stroke-linejoin="bevel" stroke-miterlimit="10" stroke-width="3" stroke-dasharray="6"/></g></g></g><g><g fill="#444444"><path fill="" stroke="none" d=""/><g transform="translate(190.5,5)"><path fill="none" stroke="none"/><text fill="" stroke="none" font-family="helvetica" font-size="12pt" font-style="normal" font-weight="bold" text-decoration="normal" x="0" y="0" text-anchor="middle" dominant-baseline="text-before-edge">Unstructured regions/Linker DSS</text></g></g></g><g/><g><g fill="#444444"><path fill="none" stroke="black" paint-order="fill stroke markers" d=" M 61 289 L 320 289" stroke-linejoin="bevel" stroke-miterlimit="10"/><path fill="none" stroke="black" paint-order="fill stroke markers" d=" M 73 295 L 73 287" stroke-linejoin="bevel" stroke-miterlimit="10"/><path fill="none" stroke="black" paint-order="fill stroke markers" d=" M 115 295 L 115 287" stroke-linejoin="bevel" stroke-miterlimit="10"/><path fill="none" stroke="black" paint-order="fill stroke markers" d=" M 156 295 L 156 287" stroke-linejoin="bevel" stroke-miterlimit="10"/><path fill="none" stroke="black" paint-order="fill stroke markers" d=" M 198 295 L 198 287" stroke-linejoin="bevel" stroke-miterlimit="10"/><path fill="none" stroke="black" paint-order="fill stroke markers" d=" M 240 295 L 240 287" stroke-linejoin="bevel" stroke-miterlimit="10"/><path fill="none" stroke="black" paint-order="fill stroke markers" d=" M 281 295 L 281 287" stroke-linejoin="bevel" stroke-miterlimit="10"/><path fill="none" stroke="black" paint-order="fill stroke markers" d=" M 64 293 L 64 289" stroke-linejoin="bevel" stroke-miterlimit="10"/><path fill="none" stroke="black" paint-order="fill stroke markers" d=" M 73 293 L 73 289" stroke-linejoin="bevel" stroke-miterlimit="10"/><path fill="none" stroke="black" paint-order="fill stroke markers" d=" M 81 293 L 81 289" stroke-linejoin="bevel" stroke-miterlimit="10"/><path fill="none" stroke="black" paint-order="fill stroke markers" d=" M 89 293 L 89 289" stroke-linejoin="bevel" stroke-miterlimit="10"/><path fill="none" stroke="black" paint-order="fill stroke markers" d=" M 98 293 L 98 289" stroke-linejoin="bevel" stroke-miterlimit="10"/><path fill="none" stroke="black" paint-order="fill stroke markers" d=" M 106 293 L 106 289" stroke-linejoin="bevel" stroke-miterlimit="10"/><path fill="none" stroke="black" paint-order="fill stroke markers" d=" M 115 293 L 115 289" stroke-linejoin="bevel" stroke-miterlimit="10"/><path fill="none" stroke="black" paint-order="fill stroke markers" d=" M 123 293 L 123 289" stroke-linejoin="bevel" stroke-miterlimit="10"/><path fill="none" stroke="black" paint-order="fill stroke markers" d=" M 131 293 L 131 289" stroke-linejoin="bevel" stroke-miterlimit="10"/><path fill="none" stroke="black" paint-order="fill stroke markers" d=" M 140 293 L 140 289" stroke-linejoin="bevel" stroke-miterlimit="10"/><path fill="none" stroke="black" paint-order="fill stroke markers" d=" M 148 293 L 148 289" stroke-linejoin="bevel" stroke-miterlimit="10"/><path fill="none" stroke="black" paint-order="fill stroke markers" d=" M 156 293 L 156 289" stroke-linejoin="bevel" stroke-miterlimit="10"/><path fill="none" stroke="black" paint-order="fill stroke markers" d=" M 165 293 L 165 289" stroke-linejoin="bevel" stroke-miterlimit="10"/><path fill="none" stroke="black" paint-order="fill stroke markers" d=" M 173 293 L 173 289" stroke-linejoin="bevel" stroke-miterlimit="10"/><path fill="none" stroke="black" paint-order="fill stroke markers" d=" M 181 293 L 181 289" stroke-linejoin="bevel" stroke-miterlimit="10"/><path fill="none" stroke="black" paint-order="fill stroke markers" d=" M 190 293 L 190 289" stroke-linejoin="bevel" stroke-miterlimit="10"/><path fill="none" stroke="black" paint-order="fill stroke markers" d=" M 198 293 L 198 289" stroke-linejoin="bevel" stroke-miterlimit="10"/><path fill="none" stroke="black" paint-order="fill stroke markers" d=" M 206 293 L 206 289" stroke-linejoin="bevel" stroke-miterlimit="10"/><path fill="none" stroke="black" paint-order="fill stroke markers" d=" M 215 293 L 215 289" stroke-linejoin="bevel" stroke-miterlimit="10"/><path fill="none" stroke="black" paint-order="fill stroke markers" d=" M 223 293 L 223 289" stroke-linejoin="bevel" stroke-miterlimit="10"/><path fill="none" stroke="black" paint-order="fill stroke markers" d=" M 231 293 L 231 289" stroke-linejoin="bevel" stroke-miterlimit="10"/><path fill="none" stroke="black" paint-order="fill stroke markers" d=" M 240 293 L 240 289" stroke-linejoin="bevel" stroke-miterlimit="10"/><path fill="none" stroke="black" paint-order="fill stroke markers" d=" M 248 293 L 248 289" stroke-linejoin="bevel" stroke-miterlimit="10"/><path fill="none" stroke="black" paint-order="fill stroke markers" d=" M 256 293 L 256 289" stroke-linejoin="bevel" stroke-miterlimit="10"/><path fill="none" stroke="black" paint-order="fill stroke markers" d=" M 265 293 L 265 289" stroke-linejoin="bevel" stroke-miterlimit="10"/><path fill="none" stroke="black" paint-order="fill stroke markers" d=" M 273 293 L 273 289" stroke-linejoin="bevel" stroke-miterlimit="10"/><path fill="none" stroke="black" paint-order="fill stroke markers" d=" M 281 293 L 281 289" stroke-linejoin="bevel" stroke-miterlimit="10"/><path fill="none" stroke="black" paint-order="fill stroke markers" d=" M 290 293 L 290 289" stroke-linejoin="bevel" stroke-miterlimit="10"/><path fill="none" stroke="black" paint-order="fill stroke markers" d=" M 298 293 L 298 289" stroke-linejoin="bevel" stroke-miterlimit="10"/><path fill="none" stroke="black" paint-order="fill stroke markers" d=" M 306 293 L 306 289" stroke-linejoin="bevel" stroke-miterlimit="10"/><path fill="" stroke="black" paint-order="fill stroke markers" d=" M 315 293 L 315 289" stroke-linejoin="bevel" stroke-miterlimit="10"/><g transform="translate(73,300) rotate(0,0,0)"><text fill="" stroke="none" font-family="helvetica" font-size="14pt" font-style="normal" font-weight="normal" text-decoration="normal" x="0" y="0" text-anchor="middle" dominant-baseline="hanging">0</text><g transform="rotate(0,0,0) translate(-73,-300) translate(115,300) rotate(0,0,0)"><text fill="" stroke="none" font-family="helvetica" font-size="14pt" font-style="normal" font-weight="normal" text-decoration="normal" x="0" y="0" text-anchor="middle" dominant-baseline="hanging">10</text><g transform="rotate(0,0,0) translate(-115,-300) translate(156,300) rotate(0,0,0)"><text fill="" stroke="none" font-family="helvetica" font-size="14pt" font-style="normal" font-weight="normal" text-decoration="normal" x="0" y="0" text-anchor="middle" dominant-baseline="hanging">20</text><g transform="rotate(0,0,0) translate(-156,-300) translate(198,300) rotate(0,0,0)"><text fill="" stroke="none" font-family="helvetica" font-size="14pt" font-style="normal" font-weight="normal" text-decoration="normal" x="0" y="0" text-anchor="middle" dominant-baseline="hanging">30</text><g transform="rotate(0,0,0) translate(-198,-300) translate(240,300) rotate(0,0,0)"><text fill="" stroke="none" font-family="helvetica" font-size="14pt" font-style="normal" font-weight="normal" text-decoration="normal" x="0" y="0" text-anchor="middle" dominant-baseline="hanging">40</text><g transform="rotate(0,0,0) translate(-240,-300) translate(281,300) rotate(0,0,0)"><text fill="" stroke="none" font-family="helvetica" font-size="14pt" font-style="normal" font-weight="normal" text-decoration="normal" x="0" y="0" text-anchor="middle" dominant-baseline="hanging">50</text><g transform="rotate(0,0,0) translate(-281,-300) translate(191,327) rotate(0,0,0)"><text fill="" stroke="none" font-family="helvetica" font-size="14pt" font-style="italic" font-weight="normal" text-decoration="normal" x="0" y="0" text-anchor="middle" dominant-baseline="hanging">Distance Å</text><g transform="rotate(0,0,0) translate(-191,-327)"/></g></g></g></g></g></g></g></g></g><g><g fill="#444444"><path fill="none" stroke="black" paint-order="fill stroke markers" d=" M 61 289 L 61 33" stroke-linejoin="bevel" stroke-miterlimit="10"/><path fill="none" stroke="black" paint-order="fill stroke markers" d=" M 55 277 L 63 277" stroke-linejoin="bevel" stroke-miterlimit="10"/><path fill="none" stroke="black" paint-order="fill stroke markers" d=" M 55 231 L 63 231" stroke-linejoin="bevel" stroke-miterlimit="10"/><path fill="none" stroke="black" paint-order="fill stroke markers" d=" M 55 184 L 63 184" stroke-linejoin="bevel" stroke-miterlimit="10"/><path fill="none" stroke="black" paint-order="fill stroke markers" d=" M 55 138 L 63 138" stroke-linejoin="bevel" stroke-miterlimit="10"/><path fill="none" stroke="black" paint-order="fill stroke markers" d=" M 55 91 L 63 91" stroke-linejoin="bevel" stroke-miterlimit="10"/><path fill="none" stroke="black" paint-order="fill stroke markers" d=" M 55 45 L 63 45" stroke-linejoin="bevel" stroke-miterlimit="10"/><path fill="none" stroke="black" paint-order="fill stroke markers" d=" M 57 287 L 61 287" stroke-linejoin="bevel" stroke-miterlimit="10"/><path fill="none" stroke="black" paint-order="fill stroke markers" d=" M 57 277 L 61 277" stroke-linejoin="bevel" stroke-miterlimit="10"/><path fill="none" stroke="black" paint-order="fill stroke markers" d=" M 57 268 L 61 268" stroke-linejoin="bevel" stroke-miterlimit="10"/><path fill="none" stroke="black" paint-order="fill stroke markers" d=" M 57 259 L 61 259" stroke-linejoin="bevel" stroke-miterlimit="10"/><path fill="none" stroke="black" paint-order="fill stroke markers" d=" M 57 249 L 61 249" stroke-linejoin="bevel" stroke-miterlimit="10"/><path fill="none" stroke="black" paint-order="fill stroke markers" d=" M 57 240 L 61 240" stroke-linejoin="bevel" stroke-miterlimit="10"/><path fill="none" stroke="black" paint-order="fill stroke markers" d=" M 57 231 L 61 231" stroke-linejoin="bevel" stroke-miterlimit="10"/><path fill="none" stroke="black" paint-order="fill stroke markers" d=" M 57 222 L 61 222" stroke-linejoin="bevel" stroke-miterlimit="10"/><path fill="none" stroke="black" paint-order="fill stroke markers" d=" M 57 212 L 61 212" stroke-linejoin="bevel" stroke-miterlimit="10"/><path fill="none" stroke="black" paint-order="fill stroke markers" d=" M 57 203 L 61 203" stroke-linejoin="bevel" stroke-miterlimit="10"/><path fill="none" stroke="black" paint-order="fill stroke markers" d=" M 57 194 L 61 194" stroke-linejoin="bevel" stroke-miterlimit="10"/><path fill="none" stroke="black" paint-order="fill stroke markers" d=" M 57 184 L 61 184" stroke-linejoin="bevel" stroke-miterlimit="10"/><path fill="none" stroke="black" paint-order="fill stroke markers" d=" M 57 175 L 61 175" stroke-linejoin="bevel" stroke-miterlimit="10"/><path fill="none" stroke="black" paint-order="fill stroke markers" d=" M 57 166 L 61 166" stroke-linejoin="bevel" stroke-miterlimit="10"/><path fill="none" stroke="black" paint-order="fill stroke markers" d=" M 57 156 L 61 156" stroke-linejoin="bevel" stroke-miterlimit="10"/><path fill="none" stroke="black" paint-order="fill stroke markers" d=" M 57 147 L 61 147" stroke-linejoin="bevel" stroke-miterlimit="10"/><path fill="none" stroke="black" paint-order="fill stroke markers" d=" M 57 138 L 61 138" stroke-linejoin="bevel" stroke-miterlimit="10"/><path fill="none" stroke="black" paint-order="fill stroke markers" d=" M 57 128 L 61 128" stroke-linejoin="bevel" stroke-miterlimit="10"/><path fill="none" stroke="black" paint-order="fill stroke markers" d=" M 57 119 L 61 119" stroke-linejoin="bevel" stroke-miterlimit="10"/><path fill="none" stroke="black" paint-order="fill stroke markers" d=" M 57 110 L 61 110" stroke-linejoin="bevel" stroke-miterlimit="10"/><path fill="none" stroke="black" paint-order="fill stroke markers" d=" M 57 100 L 61 100" stroke-linejoin="bevel" stroke-miterlimit="10"/><path fill="none" stroke="black" paint-order="fill stroke markers" d=" M 57 91 L 61 91" stroke-linejoin="bevel" stroke-miterlimit="10"/><path fill="none" stroke="black" paint-order="fill stroke markers" d=" M 57 82 L 61 82" stroke-linejoin="bevel" stroke-miterlimit="10"/><path fill="none" stroke="black" paint-order="fill stroke markers" d=" M 57 73 L 61 73" stroke-linejoin="bevel" stroke-miterlimit="10"/><path fill="none" stroke="black" paint-order="fill stroke markers" d=" M 57 63 L 61 63" stroke-linejoin="bevel" stroke-miterlimit="10"/><path fill="none" stroke="black" paint-order="fill stroke markers" d=" M 57 54 L 61 54" stroke-linejoin="bevel" stroke-miterlimit="10"/><path fill="none" stroke="black" paint-order="fill stroke markers" d=" M 57 45 L 61 45" stroke-linejoin="bevel" stroke-miterlimit="10"/><path fill="" stroke="black" paint-order="fill stroke markers" d=" M 57 35 L 61 35" stroke-linejoin="bevel" stroke-miterlimit="10"/><g transform="translate(50,277) rotate(0,0,0)"><text fill="" stroke="none" font-family="helvetica" font-size="14pt" font-style="normal" font-weight="normal" text-decoration="normal" x="0" y="0" text-anchor="end" dominant-baseline="central">0</text><g transform="rotate(0,0,0) translate(-50,-277) translate(50,231) rotate(0,0,0)"><text fill="" stroke="none" font-family="helvetica" font-size="14pt" font-style="normal" font-weight="normal" text-decoration="normal" x="0" y="0" text-anchor="end" dominant-baseline="central">2</text><g transform="rotate(0,0,0) translate(-50,-231) translate(50,184) rotate(0,0,0)"><text fill="" stroke="none" font-family="helvetica" font-size="14pt" font-style="normal" font-weight="normal" text-decoration="normal" x="0" y="0" text-anchor="end" dominant-baseline="central">4</text><g transform="rotate(0,0,0) translate(-50,-184) translate(50,138) rotate(0,0,0)"><text fill="" stroke="none" font-family="helvetica" font-size="14pt" font-style="normal" font-weight="normal" text-decoration="normal" x="0" y="0" text-anchor="end" dominant-baseline="central">6</text><g transform="rotate(0,0,0) translate(-50,-138) translate(50,91) rotate(0,0,0)"><text fill="" stroke="none" font-family="helvetica" font-size="14pt" font-style="normal" font-weight="normal" text-decoration="normal" x="0" y="0" text-anchor="end" dominant-baseline="central">8</text><g transform="rotate(0,0,0) translate(-50,-91) translate(50,45) rotate(0,0,0)"><text fill="" stroke="none" font-family="helvetica" font-size="14pt" font-style="normal" font-weight="normal" text-decoration="normal" x="0" y="0" text-anchor="end" dominant-baseline="central">10</text><g transform="rotate(0,0,0) translate(-50,-45) translate(22,161) rotate(-90,0,0)"><text fill="" stroke="none" font-family="helvetica" font-size="14pt" font-style="italic" font-weight="normal" text-decoration="normal" x="0" y="0" text-anchor="middle" dominant-baseline="alphabetic">Number of cross-links</text><g transform="rotate(90,0,0) translate(-22,-161)"/></g></g></g></g></g></g></g></g></g><g clip-path="url(#eXNGPddSTCTh)"><g/></g></g><g transform="scale(1,1) translate(0.5,0.5)"><rect fill="#FFFFFF" stroke="none" x="0" y="0" width="350" height="350"/><rect fill="#ffffff" stroke="none" x="0" y="0" width="350" height="350"/><rect fill="#FFFFFF" stroke="none" x="61" y="33" width="259" height="256"/><rect fill="#ffffff" stroke="none" x="61" y="33" width="259" height="256"/><g><rect fill="none" stroke="#e5e5e5" x="61" y="33" width="259" height="256" stroke-linejoin="bevel" stroke-miterlimit="10"/></g><g clip-path="url(#SUSOuxdabeot)"><g><g><path fill="none" stroke="#e5e5e5" paint-order="fill stroke markers" d=" M 73 289 L 73 33" stroke-linejoin="bevel" stroke-miterlimit="10"/><path fill="none" stroke="#e5e5e5" paint-order="fill stroke markers" d=" M 115 289 L 115 33" stroke-linejoin="bevel" stroke-miterlimit="10"/><path fill="none" stroke="#e5e5e5" paint-order="fill stroke markers" d=" M 156 289 L 156 33" stroke-linejoin="bevel" stroke-miterlimit="10"/><path fill="none" stroke="#e5e5e5" paint-order="fill stroke markers" d=" M 198 289 L 198 33" stroke-linejoin="bevel" stroke-miterlimit="10"/><path fill="none" stroke="#e5e5e5" paint-order="fill stroke markers" d=" M 240 289 L 240 33" stroke-linejoin="bevel" stroke-miterlimit="10"/><path fill="none" stroke="#e5e5e5" paint-order="fill stroke markers" d=" M 281 289 L 281 33" stroke-linejoin="bevel" stroke-miterlimit="10"/></g></g></g><g clip-path="url(#plquyQhKpmAQ)"><g><g><path fill="none" stroke="#e5e5e5" paint-order="fill stroke markers" d=" M 61 277 L 320 277" stroke-linejoin="bevel" stroke-miterlimit="10"/><path fill="none" stroke="#e5e5e5" paint-order="fill stroke markers" d=" M 61 231 L 320 231" stroke-linejoin="bevel" stroke-miterlimit="10"/><path fill="none" stroke="#e5e5e5" paint-order="fill stroke markers" d=" M 61 184 L 320 184" stroke-linejoin="bevel" stroke-miterlimit="10"/><path fill="none" stroke="#e5e5e5" paint-order="fill stroke markers" d=" M 61 138 L 320 138" stroke-linejoin="bevel" stroke-miterlimit="10"/><path fill="none" stroke="#e5e5e5" paint-order="fill stroke markers" d=" M 61 91 L 320 91" stroke-linejoin="bevel" stroke-miterlimit="10"/><path fill="none" stroke="#e5e5e5" paint-order="fill stroke markers" d=" M 61 45 L 320 45" stroke-linejoin="bevel" stroke-miterlimit="10"/></g></g></g><g clip-path="url(#RvUvqcimaNxu)"><g><g><path fill="none" stroke="none"/><path fill="navy" stroke="none" paint-order="stroke fill markers" d=" M 72.77272727272728 254.0909090909091 L 77.48181818181818 254.0909090909091 L 77.48181818181818 277.3636363636364 L 72.77272727272728 277.3636363636364 L 72.77272727272728 254.0909090909091 Z" fill-opacity="0.3"/><path fill="none" stroke="white" paint-order="fill stroke markers" d=" M 72.77272727272728 254.0909090909091 L 77.48181818181818 254.0909090909091 L 77.48181818181818 277.3636363636364 L 72.77272727272728 277.3636363636364 L 72.77272727272728 254.0909090909091 Z" stroke-linejoin="bevel" stroke-miterlimit="10" stroke-opacity="0.3"/><path fill="navy" stroke="none" paint-order="stroke fill markers" d=" M 77.48181818181818 277.3636363636364 L 82.1909090909091 277.3636363636364 L 82.1909090909091 277.3636363636364 L 77.48181818181818 277.3636363636364 L 77.48181818181818 277.3636363636364 Z" fill-opacity="0.3"/><path fill="none" stroke="white" paint-order="fill stroke markers" d=" M 77.48181818181818 277.3636363636364 L 82.1909090909091 277.3636363636364 L 82.1909090909091 277.3636363636364 L 77.48181818181818 277.3636363636364 L 77.48181818181818 277.3636363636364 Z" stroke-linejoin="bevel" stroke-miterlimit="10" stroke-opacity="0.3"/><path fill="navy" stroke="none" paint-order="stroke fill markers" d=" M 82.1909090909091 277.3636363636364 L 86.9 277.3636363636364 L 86.9 277.3636363636364 L 82.1909090909091 277.3636363636364 L 82.1909090909091 277.3636363636364 Z" fill-opacity="0.3"/><path fill="none" stroke="white" paint-order="fill stroke markers" d=" M 82.1909090909091 277.3636363636364 L 86.9 277.3636363636364 L 86.9 277.3636363636364 L 82.1909090909091 277.3636363636364 L 82.1909090909091 277.3636363636364 Z" stroke-linejoin="bevel" stroke-miterlimit="10" stroke-opacity="0.3"/><path fill="navy" stroke="none" paint-order="stroke fill markers" d=" M 86.9 277.3636363636364 L 91.60909090909092 277.3636363636364 L 91.60909090909092 277.3636363636364 L 86.9 277.3636363636364 L 86.9 277.3636363636364 Z" fill-opacity="0.3"/><path fill="none" stroke="white" paint-order="fill stroke markers" d=" M 86.9 277.3636363636364 L 91.60909090909092 277.3636363636364 L 91.60909090909092 277.3636363636364 L 86.9 277.3636363636364 L 86.9 277.3636363636364 Z" stroke-linejoin="bevel" stroke-miterlimit="10" stroke-opacity="0.3"/><path fill="navy" stroke="none" paint-order="stroke fill markers" d=" M 91.60909090909092 277.3636363636364 L 96.31818181818183 277.3636363636364 L 96.31818181818183 277.3636363636364 L 91.60909090909092 277.3636363636364 L 91.60909090909092 277.3636363636364 Z" fill-opacity="0.3"/><path fill="none" stroke="white" paint-order="fill stroke markers" d=" M 91.60909090909092 277.3636363636364 L 96.31818181818183 277.3636363636364 L 96.31818181818183 277.3636363636364 L 91.60909090909092 277.3636363636364 L 91.60909090909092 277.3636363636364 Z" stroke-linejoin="bevel" stroke-miterlimit="10" stroke-opacity="0.3"/><path fill="navy" stroke="none" paint-order="stroke fill markers" d=" M 96.31818181818183 277.3636363636364 L 101.02727272727273 277.3636363636364 L 101.02727272727273 277.3636363636364 L 96.31818181818183 277.3636363636364 L 96.31818181818183 277.3636363636364 Z" fill-opacity="0.3"/><path fill="none" stroke="white" paint-order="fill stroke markers" d=" M 96.31818181818183 277.3636363636364 L 101.02727272727273 277.3636363636364 L 101.02727272727273 277.3636363636364 L 96.31818181818183 277.3636363636364 L 96.31818181818183 277.3636363636364 Z" stroke-linejoin="bevel" stroke-miterlimit="10" stroke-opacity="0.3"/><path fill="navy" stroke="none" paint-order="stroke fill markers" d=" M 101.02727272727273 277.3636363636364 L 105.73636363636365 277.3636363636364 L 105.73636363636365 277.3636363636364 L 101.02727272727273 277.3636363636364 L 101.02727272727273 277.3636363636364 Z" fill-opacity="0.3"/><path fill="none" stroke="white" paint-order="fill stroke markers" d=" M 101.02727272727273 277.3636363636364 L 105.73636363636365 277.3636363636364 L 105.73636363636365 277.3636363636364 L 101.02727272727273 277.3636363636364 L 101.02727272727273 277.3636363636364 Z" stroke-linejoin="bevel" stroke-miterlimit="10" stroke-opacity="0.3"/><path fill="navy" stroke="none" paint-order="stroke fill markers" d=" M 105.73636363636365 277.3636363636364 L 110.44545454545455 277.3636363636364 L 110.44545454545455 277.3636363636364 L 105.73636363636365 277.3636363636364 L 105.73636363636365 277.3636363636364 Z" fill-opacity="0.3"/><path fill="none" stroke="white" paint-order="fill stroke markers" d=" M 105.73636363636365 277.3636363636364 L 110.44545454545455 277.3636363636364 L 110.44545454545455 277.3636363636364 L 105.73636363636365 277.3636363636364 L 105.73636363636365 277.3636363636364 Z" stroke-linejoin="bevel" stroke-miterlimit="10" stroke-opacity="0.3"/><path fill="navy" stroke="none" paint-order="stroke fill markers" d=" M 110.44545454545455 277.3636363636364 L 115.15454545454546 277.3636363636364 L 115.15454545454546 277.3636363636364 L 110.44545454545455 277.3636363636364 L 110.44545454545455 277.3636363636364 Z" fill-opacity="0.3"/><path fill="none" stroke="white" paint-order="fill stroke markers" d=" M 110.44545454545455 277.3636363636364 L 115.15454545454546 277.3636363636364 L 115.15454545454546 277.3636363636364 L 110.44545454545455 277.3636363636364 L 110.44545454545455 277.3636363636364 Z" stroke-linejoin="bevel" stroke-miterlimit="10" stroke-opacity="0.3"/><path fill="navy" stroke="none" paint-order="stroke fill markers" d=" M 115.15454545454546 277.3636363636364 L 119.86363636363637 277.3636363636364 L 119.86363636363637 277.3636363636364 L 115.15454545454546 277.3636363636364 L 115.15454545454546 277.3636363636364 Z" fill-opacity="0.3"/><path fill="none" stroke="white" paint-order="fill stroke markers" d=" M 115.15454545454546 277.3636363636364 L 119.86363636363637 277.3636363636364 L 119.86363636363637 277.3636363636364 L 115.15454545454546 277.3636363636364 L 115.15454545454546 277.3636363636364 Z" stroke-linejoin="bevel" stroke-miterlimit="10" stroke-opacity="0.3"/><path fill="navy" stroke="none" paint-order="stroke fill markers" d=" M 119.86363636363637 277.3636363636364 L 124.57272727272729 277.3636363636364 L 124.57272727272729 277.3636363636364 L 119.86363636363637 277.3636363636364 L 119.86363636363637 277.3636363636364 Z" fill-opacity="0.3"/><path fill="none" stroke="white" paint-order="fill stroke markers" d=" M 119.86363636363637 277.3636363636364 L 124.57272727272729 277.3636363636364 L 124.57272727272729 277.3636363636364 L 119.86363636363637 277.3636363636364 L 119.86363636363637 277.3636363636364 Z" stroke-linejoin="bevel" stroke-miterlimit="10" stroke-opacity="0.3"/><path fill="navy" stroke="none" paint-order="stroke fill markers" d=" M 124.57272727272729 277.3636363636364 L 129.28181818181818 277.3636363636364 L 129.28181818181818 277.3636363636364 L 124.57272727272729 277.3636363636364 L 124.57272727272729 277.3636363636364 Z" fill-opacity="0.3"/><path fill="none" stroke="white" paint-order="fill stroke markers" d=" M 124.57272727272729 277.3636363636364 L 129.28181818181818 277.3636363636364 L 129.28181818181818 277.3636363636364 L 124.57272727272729 277.3636363636364 L 124.57272727272729 277.3636363636364 Z" stroke-linejoin="bevel" stroke-miterlimit="10" stroke-opacity="0.3"/><path fill="navy" stroke="none" paint-order="stroke fill markers" d=" M 129.28181818181818 230.8181818181818 L 133.9909090909091 230.8181818181818 L 133.9909090909091 277.3636363636364 L 129.28181818181818 277.3636363636364 L 129.28181818181818 230.8181818181818 Z" fill-opacity="0.3"/><path fill="none" stroke="white" paint-order="fill stroke markers" d=" M 129.28181818181818 230.8181818181818 L 133.9909090909091 230.8181818181818 L 133.9909090909091 277.3636363636364 L 129.28181818181818 277.3636363636364 L 129.28181818181818 230.8181818181818 Z" stroke-linejoin="bevel" stroke-miterlimit="10" stroke-opacity="0.3"/><path fill="navy" stroke="none" paint-order="stroke fill markers" d=" M 133.9909090909091 44.636363636363626 L 138.7 44.636363636363626 L 138.7 277.3636363636364 L 133.9909090909091 277.3636363636364 L 133.9909090909091 44.636363636363626 Z" fill-opacity="0.3"/><path fill="none" stroke="white" paint-order="fill stroke markers" d=" M 133.9909090909091 44.636363636363626 L 138.7 44.636363636363626 L 138.7 277.3636363636364 L 133.9909090909091 277.3636363636364 L 133.9909090909091 44.636363636363626 Z" stroke-linejoin="bevel" stroke-miterlimit="10" stroke-opacity="0.3"/><path fill="navy" stroke="none" paint-order="stroke fill markers" d=" M 138.7 161 L 143.40909090909093 161 L 143.40909090909093 277.3636363636364 L 138.7 277.3636363636364 L 138.7 161 Z" fill-opacity="0.3"/><path fill="none" stroke="white" paint-order="fill stroke markers" d=" M 138.7 161 L 143.40909090909093 161 L 143.40909090909093 277.3636363636364 L 138.7 277.3636363636364 L 138.7 161 Z" stroke-linejoin="bevel" stroke-miterlimit="10" stroke-opacity="0.3"/><path fill="navy" stroke="none" paint-order="stroke fill markers" d=" M 143.40909090909093 254.0909090909091 L 148.11818181818182 254.0909090909091 L 148.11818181818182 277.3636363636364 L 143.40909090909093 277.3636363636364 L 143.40909090909093 254.0909090909091 Z" fill-opacity="0.3"/><path fill="none" stroke="white" paint-order="fill stroke markers" d=" M 143.40909090909093 254.0909090909091 L 148.11818181818182 254.0909090909091 L 148.11818181818182 277.3636363636364 L 143.40909090909093 277.3636363636364 L 143.40909090909093 254.0909090909091 Z" stroke-linejoin="bevel" stroke-miterlimit="10" stroke-opacity="0.3"/><path fill="navy" stroke="none" paint-order="stroke fill markers" d=" M 148.11818181818182 277.3636363636364 L 152.8272727272727 277.3636363636364 L 152.8272727272727 277.3636363636364 L 148.11818181818182 277.3636363636364 L 148.11818181818182 277.3636363636364 Z" fill-opacity="0.3"/><path fill="none" stroke="white" paint-order="fill stroke markers" d=" M 148.11818181818182 277.3636363636364 L 152.8272727272727 277.3636363636364 L 152.8272727272727 277.3636363636364 L 148.11818181818182 277.3636363636364 L 148.11818181818182 277.3636363636364 Z" stroke-linejoin="bevel" stroke-miterlimit="10" stroke-opacity="0.3"/><path fill="navy" stroke="none" paint-order="stroke fill markers" d=" M 152.8272727272727 230.8181818181818 L 157.53636363636363 230.8181818181818 L 157.53636363636363 277.3636363636364 L 152.8272727272727 277.3636363636364 L 152.8272727272727 230.8181818181818 Z" fill-opacity="0.3"/><path fill="none" stroke="white" paint-order="fill stroke markers" d=" M 152.8272727272727 230.8181818181818 L 157.53636363636363 230.8181818181818 L 157.53636363636363 277.3636363636364 L 152.8272727272727 277.3636363636364 L 152.8272727272727 230.8181818181818 Z" stroke-linejoin="bevel" stroke-miterlimit="10" stroke-opacity="0.3"/><path fill="navy" stroke="none" paint-order="stroke fill markers" d=" M 157.53636363636363 277.3636363636364 L 162.24545454545455 277.3636363636364 L 162.24545454545455 277.3636363636364 L 157.53636363636363 277.3636363636364 L 157.53636363636363 277.3636363636364 Z" fill-opacity="0.3"/><path fill="none" stroke="white" paint-order="fill stroke markers" d=" M 157.53636363636363 277.3636363636364 L 162.24545454545455 277.3636363636364 L 162.24545454545455 277.3636363636364 L 157.53636363636363 277.3636363636364 L 157.53636363636363 277.3636363636364 Z" stroke-linejoin="bevel" stroke-miterlimit="10" stroke-opacity="0.3"/><path fill="navy" stroke="none" paint-order="stroke fill markers" d=" M 162.24545454545455 277.3636363636364 L 166.95454545454544 277.3636363636364 L 166.95454545454544 277.3636363636364 L 162.24545454545455 277.3636363636364 L 162.24545454545455 277.3636363636364 Z" fill-opacity="0.3"/><path fill="none" stroke="white" paint-order="fill stroke markers" d=" M 162.24545454545455 277.3636363636364 L 166.95454545454544 277.3636363636364 L 166.95454545454544 277.3636363636364 L 162.24545454545455 277.3636363636364 L 162.24545454545455 277.3636363636364 Z" stroke-linejoin="bevel" stroke-miterlimit="10" stroke-opacity="0.3"/><path fill="navy" stroke="none" paint-order="stroke fill markers" d=" M 166.95454545454544 277.3636363636364 L 171.66363636363636 277.3636363636364 L 171.66363636363636 277.3636363636364 L 166.95454545454544 277.3636363636364 L 166.95454545454544 277.3636363636364 Z" fill-opacity="0.3"/><path fill="none" stroke="white" paint-order="fill stroke markers" d=" M 166.95454545454544 277.3636363636364 L 171.66363636363636 277.3636363636364 L 171.66363636363636 277.3636363636364 L 166.95454545454544 277.3636363636364 L 166.95454545454544 277.3636363636364 Z" stroke-linejoin="bevel" stroke-miterlimit="10" stroke-opacity="0.3"/><path fill="navy" stroke="none" paint-order="stroke fill markers" d=" M 171.66363636363636 277.3636363636364 L 176.37272727272727 277.3636363636364 L 176.37272727272727 277.3636363636364 L 171.66363636363636 277.3636363636364 L 171.66363636363636 277.3636363636364 Z" fill-opacity="0.3"/><path fill="none" stroke="white" paint-order="fill stroke markers" d=" M 171.66363636363636 277.3636363636364 L 176.37272727272727 277.3636363636364 L 176.37272727272727 277.3636363636364 L 171.66363636363636 277.3636363636364 L 171.66363636363636 277.3636363636364 Z" stroke-linejoin="bevel" stroke-miterlimit="10" stroke-opacity="0.3"/><path fill="navy" stroke="none" paint-order="stroke fill markers" d=" M 176.37272727272727 277.3636363636364 L 181.0818181818182 277.3636363636364 L 181.0818181818182 277.3636363636364 L 176.37272727272727 277.3636363636364 L 176.37272727272727 277.3636363636364 Z" fill-opacity="0.3"/><path fill="none" stroke="white" paint-order="fill stroke markers" d=" M 176.37272727272727 277.3636363636364 L 181.0818181818182 277.3636363636364 L 181.0818181818182 277.3636363636364 L 176.37272727272727 277.3636363636364 L 176.37272727272727 277.3636363636364 Z" stroke-linejoin="bevel" stroke-miterlimit="10" stroke-opacity="0.3"/><path fill="navy" stroke="none" paint-order="stroke fill markers" d=" M 181.0818181818182 277.3636363636364 L 185.7909090909091 277.3636363636364 L 185.7909090909091 277.3636363636364 L 181.0818181818182 277.3636363636364 L 181.0818181818182 277.3636363636364 Z" fill-opacity="0.3"/><path fill="none" stroke="white" paint-order="fill stroke markers" d=" M 181.0818181818182 277.3636363636364 L 185.7909090909091 277.3636363636364 L 185.7909090909091 277.3636363636364 L 181.0818181818182 277.3636363636364 L 181.0818181818182 277.3636363636364 Z" stroke-linejoin="bevel" stroke-miterlimit="10" stroke-opacity="0.3"/><path fill="navy" stroke="none" paint-order="stroke fill markers" d=" M 185.7909090909091 254.0909090909091 L 190.5 254.0909090909091 L 190.5 277.3636363636364 L 185.7909090909091 277.3636363636364 L 185.7909090909091 254.0909090909091 Z" fill-opacity="0.3"/><path fill="none" stroke="white" paint-order="fill stroke markers" d=" M 185.7909090909091 254.0909090909091 L 190.5 254.0909090909091 L 190.5 277.3636363636364 L 185.7909090909091 277.3636363636364 L 185.7909090909091 254.0909090909091 Z" stroke-linejoin="bevel" stroke-miterlimit="10" stroke-opacity="0.3"/><path fill="navy" stroke="none" paint-order="stroke fill markers" d=" M 190.5 277.3636363636364 L 195.2090909090909 277.3636363636364 L 195.2090909090909 277.3636363636364 L 190.5 277.3636363636364 L 190.5 277.3636363636364 Z" fill-opacity="0.3"/><path fill="none" stroke="white" paint-order="fill stroke markers" d=" M 190.5 277.3636363636364 L 195.2090909090909 277.3636363636364 L 195.2090909090909 277.3636363636364 L 190.5 277.3636363636364 L 190.5 277.3636363636364 Z" stroke-linejoin="bevel" stroke-miterlimit="10" stroke-opacity="0.3"/><path fill="navy" stroke="none" paint-order="stroke fill markers" d=" M 195.2090909090909 277.3636363636364 L 199.91818181818184 277.3636363636364 L 199.91818181818184 277.3636363636364 L 195.2090909090909 277.3636363636364 L 195.2090909090909 277.3636363636364 Z" fill-opacity="0.3"/><path fill="none" stroke="white" paint-order="fill stroke markers" d=" M 195.2090909090909 277.3636363636364 L 199.91818181818184 277.3636363636364 L 199.91818181818184 277.3636363636364 L 195.2090909090909 277.3636363636364 L 195.2090909090909 277.3636363636364 Z" stroke-linejoin="bevel" stroke-miterlimit="10" stroke-opacity="0.3"/><path fill="navy" stroke="none" paint-order="stroke fill markers" d=" M 199.91818181818184 277.3636363636364 L 204.62727272727273 277.3636363636364 L 204.62727272727273 277.3636363636364 L 199.91818181818184 277.3636363636364 L 199.91818181818184 277.3636363636364 Z" fill-opacity="0.3"/><path fill="none" stroke="white" paint-order="fill stroke markers" d=" M 199.91818181818184 277.3636363636364 L 204.62727272727273 277.3636363636364 L 204.62727272727273 277.3636363636364 L 199.91818181818184 277.3636363636364 L 199.91818181818184 277.3636363636364 Z" stroke-linejoin="bevel" stroke-miterlimit="10" stroke-opacity="0.3"/><path fill="navy" stroke="none" paint-order="stroke fill markers" d=" M 204.62727272727273 277.3636363636364 L 209.33636363636364 277.3636363636364 L 209.33636363636364 277.3636363636364 L 204.62727272727273 277.3636363636364 L 204.62727272727273 277.3636363636364 Z" fill-opacity="0.3"/><path fill="none" stroke="white" paint-order="fill stroke markers" d=" M 204.62727272727273 277.3636363636364 L 209.33636363636364 277.3636363636364 L 209.33636363636364 277.3636363636364 L 204.62727272727273 277.3636363636364 L 204.62727272727273 277.3636363636364 Z" stroke-linejoin="bevel" stroke-miterlimit="10" stroke-opacity="0.3"/><path fill="navy" stroke="none" paint-order="stroke fill markers" d=" M 209.33636363636364 277.3636363636364 L 214.04545454545456 277.3636363636364 L 214.04545454545456 277.3636363636364 L 209.33636363636364 277.3636363636364 L 209.33636363636364 277.3636363636364 Z" fill-opacity="0.3"/><path fill="none" stroke="white" paint-order="fill stroke markers" d=" M 209.33636363636364 277.3636363636364 L 214.04545454545456 277.3636363636364 L 214.04545454545456 277.3636363636364 L 209.33636363636364 277.3636363636364 L 209.33636363636364 277.3636363636364 Z" stroke-linejoin="bevel" stroke-miterlimit="10" stroke-opacity="0.3"/><path fill="navy" stroke="none" paint-order="stroke fill markers" d=" M 214.04545454545456 277.3636363636364 L 218.75454545454545 277.3636363636364 L 218.75454545454545 277.3636363636364 L 214.04545454545456 277.3636363636364 L 214.04545454545456 277.3636363636364 Z" fill-opacity="0.3"/><path fill="none" stroke="white" paint-order="fill stroke markers" d=" M 214.04545454545456 277.3636363636364 L 218.75454545454545 277.3636363636364 L 218.75454545454545 277.3636363636364 L 214.04545454545456 277.3636363636364 L 214.04545454545456 277.3636363636364 Z" stroke-linejoin="bevel" stroke-miterlimit="10" stroke-opacity="0.3"/><path fill="navy" stroke="none" paint-order="stroke fill markers" d=" M 218.75454545454545 277.3636363636364 L 223.46363636363637 277.3636363636364 L 223.46363636363637 277.3636363636364 L 218.75454545454545 277.3636363636364 L 218.75454545454545 277.3636363636364 Z" fill-opacity="0.3"/><path fill="none" stroke="white" paint-order="fill stroke markers" d=" M 218.75454545454545 277.3636363636364 L 223.46363636363637 277.3636363636364 L 223.46363636363637 277.3636363636364 L 218.75454545454545 277.3636363636364 L 218.75454545454545 277.3636363636364 Z" stroke-linejoin="bevel" stroke-miterlimit="10" stroke-opacity="0.3"/><path fill="navy" stroke="none" paint-order="stroke fill markers" d=" M 223.46363636363637 277.3636363636364 L 228.17272727272726 277.3636363636364 L 228.17272727272726 277.3636363636364 L 223.46363636363637 277.3636363636364 L 223.46363636363637 277.3636363636364 Z" fill-opacity="0.3"/><path fill="none" stroke="white" paint-order="fill stroke markers" d=" M 223.46363636363637 277.3636363636364 L 228.17272727272726 277.3636363636364 L 228.17272727272726 277.3636363636364 L 223.46363636363637 277.3636363636364 L 223.46363636363637 277.3636363636364 Z" stroke-linejoin="bevel" stroke-miterlimit="10" stroke-opacity="0.3"/><path fill="navy" stroke="none" paint-order="stroke fill markers" d=" M 228.17272727272726 277.3636363636364 L 232.88181818181818 277.3636363636364 L 232.88181818181818 277.3636363636364 L 228.17272727272726 277.3636363636364 L 228.17272727272726 277.3636363636364 Z" fill-opacity="0.3"/><path fill="none" stroke="white" paint-order="fill stroke markers" d=" M 228.17272727272726 277.3636363636364 L 232.88181818181818 277.3636363636364 L 232.88181818181818 277.3636363636364 L 228.17272727272726 277.3636363636364 L 228.17272727272726 277.3636363636364 Z" stroke-linejoin="bevel" stroke-miterlimit="10" stroke-opacity="0.3"/><path fill="navy" stroke="none" paint-order="stroke fill markers" d=" M 232.88181818181818 277.3636363636364 L 237.5909090909091 277.3636363636364 L 237.5909090909091 277.3636363636364 L 232.88181818181818 277.3636363636364 L 232.88181818181818 277.3636363636364 Z" fill-opacity="0.3"/><path fill="none" stroke="white" paint-order="fill stroke markers" d=" M 232.88181818181818 277.3636363636364 L 237.5909090909091 277.3636363636364 L 237.5909090909091 277.3636363636364 L 232.88181818181818 277.3636363636364 L 232.88181818181818 277.3636363636364 Z" stroke-linejoin="bevel" stroke-miterlimit="10" stroke-opacity="0.3"/><path fill="navy" stroke="none" paint-order="stroke fill markers" d=" M 237.5909090909091 277.3636363636364 L 242.29999999999998 277.3636363636364 L 242.29999999999998 277.3636363636364 L 237.5909090909091 277.3636363636364 L 237.5909090909091 277.3636363636364 Z" fill-opacity="0.3"/><path fill="none" stroke="white" paint-order="fill stroke markers" d=" M 237.5909090909091 277.3636363636364 L 242.29999999999998 277.3636363636364 L 242.29999999999998 277.3636363636364 L 237.5909090909091 277.3636363636364 L 237.5909090909091 277.3636363636364 Z" stroke-linejoin="bevel" stroke-miterlimit="10" stroke-opacity="0.3"/><path fill="navy" stroke="none" paint-order="stroke fill markers" d=" M 242.29999999999998 277.3636363636364 L 247.00909090909093 277.3636363636364 L 247.00909090909093 277.3636363636364 L 242.29999999999998 277.3636363636364 L 242.29999999999998 277.3636363636364 Z" fill-opacity="0.3"/><path fill="none" stroke="white" paint-order="fill stroke markers" d=" M 242.29999999999998 277.3636363636364 L 247.00909090909093 277.3636363636364 L 247.00909090909093 277.3636363636364 L 242.29999999999998 277.3636363636364 L 242.29999999999998 277.3636363636364 Z" stroke-linejoin="bevel" stroke-miterlimit="10" stroke-opacity="0.3"/><path fill="navy" stroke="none" paint-order="stroke fill markers" d=" M 247.00909090909093 277.3636363636364 L 251.71818181818182 277.3636363636364 L 251.71818181818182 277.3636363636364 L 247.00909090909093 277.3636363636364 L 247.00909090909093 277.3636363636364 Z" fill-opacity="0.3"/><path fill="none" stroke="white" paint-order="fill stroke markers" d=" M 247.00909090909093 277.3636363636364 L 251.71818181818182 277.3636363636364 L 251.71818181818182 277.3636363636364 L 247.00909090909093 277.3636363636364 L 247.00909090909093 277.3636363636364 Z" stroke-linejoin="bevel" stroke-miterlimit="10" stroke-opacity="0.3"/><path fill="navy" stroke="none" paint-order="stroke fill markers" d=" M 251.71818181818182 277.3636363636364 L 256.42727272727274 277.3636363636364 L 256.42727272727274 277.3636363636364 L 251.71818181818182 277.3636363636364 L 251.71818181818182 277.3636363636364 Z" fill-opacity="0.3"/><path fill="none" stroke="white" paint-order="fill stroke markers" d=" M 251.71818181818182 277.3636363636364 L 256.42727272727274 277.3636363636364 L 256.42727272727274 277.3636363636364 L 251.71818181818182 277.3636363636364 L 251.71818181818182 277.3636363636364 Z" stroke-linejoin="bevel" stroke-miterlimit="10" stroke-opacity="0.3"/><path fill="navy" stroke="none" paint-order="stroke fill markers" d=" M 256.42727272727274 277.3636363636364 L 261.1363636363636 277.3636363636364 L 261.1363636363636 277.3636363636364 L 256.42727272727274 277.3636363636364 L 256.42727272727274 277.3636363636364 Z" fill-opacity="0.3"/><path fill="none" stroke="white" paint-order="fill stroke markers" d=" M 256.42727272727274 277.3636363636364 L 261.1363636363636 277.3636363636364 L 261.1363636363636 277.3636363636364 L 256.42727272727274 277.3636363636364 L 256.42727272727274 277.3636363636364 Z" stroke-linejoin="bevel" stroke-miterlimit="10" stroke-opacity="0.3"/><path fill="navy" stroke="none" paint-order="stroke fill markers" d=" M 261.1363636363636 277.3636363636364 L 265.8454545454546 277.3636363636364 L 265.8454545454546 277.3636363636364 L 261.1363636363636 277.3636363636364 L 261.1363636363636 277.3636363636364 Z" fill-opacity="0.3"/><path fill="none" stroke="white" paint-order="fill stroke markers" d=" M 261.1363636363636 277.3636363636364 L 265.8454545454546 277.3636363636364 L 265.8454545454546 277.3636363636364 L 261.1363636363636 277.3636363636364 L 261.1363636363636 277.3636363636364 Z" stroke-linejoin="bevel" stroke-miterlimit="10" stroke-opacity="0.3"/><path fill="navy" stroke="none" paint-order="stroke fill markers" d=" M 265.8454545454546 277.3636363636364 L 270.5545454545454 277.3636363636364 L 270.5545454545454 277.3636363636364 L 265.8454545454546 277.3636363636364 L 265.8454545454546 277.3636363636364 Z" fill-opacity="0.3"/><path fill="none" stroke="white" paint-order="fill stroke markers" d=" M 265.8454545454546 277.3636363636364 L 270.5545454545454 277.3636363636364 L 270.5545454545454 277.3636363636364 L 265.8454545454546 277.3636363636364 L 265.8454545454546 277.3636363636364 Z" stroke-linejoin="bevel" stroke-miterlimit="10" stroke-opacity="0.3"/><path fill="navy" stroke="none" paint-order="stroke fill markers" d=" M 270.5545454545454 277.3636363636364 L 275.26363636363635 277.3636363636364 L 275.26363636363635 277.3636363636364 L 270.5545454545454 277.3636363636364 L 270.5545454545454 277.3636363636364 Z" fill-opacity="0.3"/><path fill="none" stroke="white" paint-order="fill stroke markers" d=" M 270.5545454545454 277.3636363636364 L 275.26363636363635 277.3636363636364 L 275.26363636363635 277.3636363636364 L 270.5545454545454 277.3636363636364 L 270.5545454545454 277.3636363636364 Z" stroke-linejoin="bevel" stroke-miterlimit="10" stroke-opacity="0.3"/><path fill="navy" stroke="none" paint-order="stroke fill markers" d=" M 275.26363636363635 277.3636363636364 L 279.9727272727273 277.3636363636364 L 279.9727272727273 277.3636363636364 L 275.26363636363635 277.3636363636364 L 275.26363636363635 277.3636363636364 Z" fill-opacity="0.3"/><path fill="none" stroke="white" paint-order="fill stroke markers" d=" M 275.26363636363635 277.3636363636364 L 279.9727272727273 277.3636363636364 L 279.9727272727273 277.3636363636364 L 275.26363636363635 277.3636363636364 L 275.26363636363635 277.3636363636364 Z" stroke-linejoin="bevel" stroke-miterlimit="10" stroke-opacity="0.3"/><path fill="navy" stroke="none" paint-order="stroke fill markers" d=" M 279.9727272727273 277.3636363636364 L 284.6818181818182 277.3636363636364 L 284.6818181818182 277.3636363636364 L 279.9727272727273 277.3636363636364 L 279.9727272727273 277.3636363636364 Z" fill-opacity="0.3"/><path fill="none" stroke="white" paint-order="fill stroke markers" d=" M 279.9727272727273 277.3636363636364 L 284.6818181818182 277.3636363636364 L 284.6818181818182 277.3636363636364 L 279.9727272727273 277.3636363636364 L 279.9727272727273 277.3636363636364 Z" stroke-linejoin="bevel" stroke-miterlimit="10" stroke-opacity="0.3"/><path fill="navy" stroke="none" paint-order="stroke fill markers" d=" M 284.6818181818182 277.3636363636364 L 289.3909090909091 277.3636363636364 L 289.3909090909091 277.3636363636364 L 284.6818181818182 277.3636363636364 L 284.6818181818182 277.3636363636364 Z" fill-opacity="0.3"/><path fill="none" stroke="white" paint-order="fill stroke markers" d=" M 284.6818181818182 277.3636363636364 L 289.3909090909091 277.3636363636364 L 289.3909090909091 277.3636363636364 L 284.6818181818182 277.3636363636364 L 284.6818181818182 277.3636363636364 Z" stroke-linejoin="bevel" stroke-miterlimit="10" stroke-opacity="0.3"/><path fill="navy" stroke="none" paint-order="stroke fill markers" d=" M 289.3909090909091 277.3636363636364 L 294.1 277.3636363636364 L 294.1 277.3636363636364 L 289.3909090909091 277.3636363636364 L 289.3909090909091 277.3636363636364 Z" fill-opacity="0.3"/><path fill="none" stroke="white" paint-order="fill stroke markers" d=" M 289.3909090909091 277.3636363636364 L 294.1 277.3636363636364 L 294.1 277.3636363636364 L 289.3909090909091 277.3636363636364 L 289.3909090909091 277.3636363636364 Z" stroke-linejoin="bevel" stroke-miterlimit="10" stroke-opacity="0.3"/><path fill="navy" stroke="none" paint-order="stroke fill markers" d=" M 294.1 277.3636363636364 L 298.8090909090909 277.3636363636364 L 298.8090909090909 277.3636363636364 L 294.1 277.3636363636364 L 294.1 277.3636363636364 Z" fill-opacity="0.3"/><path fill="none" stroke="white" paint-order="fill stroke markers" d=" M 294.1 277.3636363636364 L 298.8090909090909 277.3636363636364 L 298.8090909090909 277.3636363636364 L 294.1 277.3636363636364 L 294.1 277.3636363636364 Z" stroke-linejoin="bevel" stroke-miterlimit="10" stroke-opacity="0.3"/><path fill="navy" stroke="none" paint-order="stroke fill markers" d=" M 298.8090909090909 277.3636363636364 L 303.5181818181818 277.3636363636364 L 303.5181818181818 277.3636363636364 L 298.8090909090909 277.3636363636364 L 298.8090909090909 277.3636363636364 Z" fill-opacity="0.3"/><path fill="none" stroke="white" paint-order="fill stroke markers" d=" M 298.8090909090909 277.3636363636364 L 303.5181818181818 277.3636363636364 L 303.5181818181818 277.3636363636364 L 298.8090909090909 277.3636363636364 L 298.8090909090909 277.3636363636364 Z" stroke-linejoin="bevel" stroke-miterlimit="10" stroke-opacity="0.3"/><path fill="navy" stroke="none" paint-order="stroke fill markers" d=" M 303.5181818181818 254.0909090909091 L 308.22727272727275 254.0909090909091 L 308.22727272727275 277.3636363636364 L 303.5181818181818 277.3636363636364 L 303.5181818181818 254.0909090909091 Z" fill-opacity="0.3"/><path fill="none" stroke="white" paint-order="fill stroke markers" d=" M 303.5181818181818 254.0909090909091 L 308.22727272727275 254.0909090909091 L 308.22727272727275 277.3636363636364 L 303.5181818181818 277.3636363636364 L 303.5181818181818 254.0909090909091 Z" stroke-linejoin="bevel" stroke-miterlimit="10" stroke-opacity="0.3"/></g></g></g><g clip-path="url(#kfwHIzkzUEiv)"><g><g><path fill="none" stroke="red" paint-order="fill stroke markers" d=" M 197.9669142504241 33 L 197.9669142504241 289" stroke-linejoin="bevel" stroke-miterlimit="10" stroke-width="3" stroke-dasharray="6"/></g></g></g><g><g fill="#444444"><path fill="" stroke="none" d=""/><g transform="translate(190.5,5)"><path fill="none" stroke="none"/><text fill="" stroke="none" font-family="helvetica" font-size="12pt" font-style="normal" font-weight="bold" text-decoration="normal" x="0" y="0" text-anchor="middle" dominant-baseline="text-before-edge">Unstructured regions/Linker DSS</text></g></g></g><g/><g><g fill="#444444"><path fill="none" stroke="black" paint-order="fill stroke markers" d=" M 61 289 L 320 289" stroke-linejoin="bevel" stroke-miterlimit="10"/><path fill="none" stroke="black" paint-order="fill stroke markers" d=" M 73 295 L 73 287" stroke-linejoin="bevel" stroke-miterlimit="10"/><path fill="none" stroke="black" paint-order="fill stroke markers" d=" M 115 295 L 115 287" stroke-linejoin="bevel" stroke-miterlimit="10"/><path fill="none" stroke="black" paint-order="fill stroke markers" d=" M 156 295 L 156 287" stroke-linejoin="bevel" stroke-miterlimit="10"/><path fill="none" stroke="black" paint-order="fill stroke markers" d=" M 198 295 L 198 287" stroke-linejoin="bevel" stroke-miterlimit="10"/><path fill="none" stroke="black" paint-order="fill stroke markers" d=" M 240 295 L 240 287" stroke-linejoin="bevel" stroke-miterlimit="10"/><path fill="none" stroke="black" paint-order="fill stroke markers" d=" M 281 295 L 281 287" stroke-linejoin="bevel" stroke-miterlimit="10"/><path fill="none" stroke="black" paint-order="fill stroke markers" d=" M 64 293 L 64 289" stroke-linejoin="bevel" stroke-miterlimit="10"/><path fill="none" stroke="black" paint-order="fill stroke markers" d=" M 73 293 L 73 289" stroke-linejoin="bevel" stroke-miterlimit="10"/><path fill="none" stroke="black" paint-order="fill stroke markers" d=" M 81 293 L 81 289" stroke-linejoin="bevel" stroke-miterlimit="10"/><path fill="none" stroke="black" paint-order="fill stroke markers" d=" M 89 293 L 89 289" stroke-linejoin="bevel" stroke-miterlimit="10"/><path fill="none" stroke="black" paint-order="fill stroke markers" d=" M 98 293 L 98 289" stroke-linejoin="bevel" stroke-miterlimit="10"/><path fill="none" stroke="black" paint-order="fill stroke markers" d=" M 106 293 L 106 289" stroke-linejoin="bevel" stroke-miterlimit="10"/><path fill="none" stroke="black" paint-order="fill stroke markers" d=" M 115 293 L 115 289" stroke-linejoin="bevel" stroke-miterlimit="10"/><path fill="none" stroke="black" paint-order="fill stroke markers" d=" M 123 293 L 123 289" stroke-linejoin="bevel" stroke-miterlimit="10"/><path fill="none" stroke="black" paint-order="fill stroke markers" d=" M 131 293 L 131 289" stroke-linejoin="bevel" stroke-miterlimit="10"/><path fill="none" stroke="black" paint-order="fill stroke markers" d=" M 140 293 L 140 289" stroke-linejoin="bevel" stroke-miterlimit="10"/><path fill="none" stroke="black" paint-order="fill stroke markers" d=" M 148 293 L 148 289" stroke-linejoin="bevel" stroke-miterlimit="10"/><path fill="none" stroke="black" paint-order="fill stroke markers" d=" M 156 293 L 156 289" stroke-linejoin="bevel" stroke-miterlimit="10"/><path fill="none" stroke="black" paint-order="fill stroke markers" d=" M 165 293 L 165 289" stroke-linejoin="bevel" stroke-miterlimit="10"/><path fill="none" stroke="black" paint-order="fill stroke markers" d=" M 173 293 L 173 289" stroke-linejoin="bevel" stroke-miterlimit="10"/><path fill="none" stroke="black" paint-order="fill stroke markers" d=" M 181 293 L 181 289" stroke-linejoin="bevel" stroke-miterlimit="10"/><path fill="none" stroke="black" paint-order="fill stroke markers" d=" M 190 293 L 190 289" stroke-linejoin="bevel" stroke-miterlimit="10"/><path fill="none" stroke="black" paint-order="fill stroke markers" d=" M 198 293 L 198 289" stroke-linejoin="bevel" stroke-miterlimit="10"/><path fill="none" stroke="black" paint-order="fill stroke markers" d=" M 206 293 L 206 289" stroke-linejoin="bevel" stroke-miterlimit="10"/><path fill="none" stroke="black" paint-order="fill stroke markers" d=" M 215 293 L 215 289" stroke-linejoin="bevel" stroke-miterlimit="10"/><path fill="none" stroke="black" paint-order="fill stroke markers" d=" M 223 293 L 223 289" stroke-linejoin="bevel" stroke-miterlimit="10"/><path fill="none" stroke="black" paint-order="fill stroke markers" d=" M 231 293 L 231 289" stroke-linejoin="bevel" stroke-miterlimit="10"/><path fill="none" stroke="black" paint-order="fill stroke markers" d=" M 240 293 L 240 289" stroke-linejoin="bevel" stroke-miterlimit="10"/><path fill="none" stroke="black" paint-order="fill stroke markers" d=" M 248 293 L 248 289" stroke-linejoin="bevel" stroke-miterlimit="10"/><path fill="none" stroke="black" paint-order="fill stroke markers" d=" M 256 293 L 256 289" stroke-linejoin="bevel" stroke-miterlimit="10"/><path fill="none" stroke="black" paint-order="fill stroke markers" d=" M 265 293 L 265 289" stroke-linejoin="bevel" stroke-miterlimit="10"/><path fill="none" stroke="black" paint-order="fill stroke markers" d=" M 273 293 L 273 289" stroke-linejoin="bevel" stroke-miterlimit="10"/><path fill="none" stroke="black" paint-order="fill stroke markers" d=" M 281 293 L 281 289" stroke-linejoin="bevel" stroke-miterlimit="10"/><path fill="none" stroke="black" paint-order="fill stroke markers" d=" M 290 293 L 290 289" stroke-linejoin="bevel" stroke-miterlimit="10"/><path fill="none" stroke="black" paint-order="fill stroke markers" d=" M 298 293 L 298 289" stroke-linejoin="bevel" stroke-miterlimit="10"/><path fill="none" stroke="black" paint-order="fill stroke markers" d=" M 306 293 L 306 289" stroke-linejoin="bevel" stroke-miterlimit="10"/><path fill="" stroke="black" paint-order="fill stroke markers" d=" M 315 293 L 315 289" stroke-linejoin="bevel" stroke-miterlimit="10"/><g transform="translate(73,300) rotate(0,0,0)"><text fill="" stroke="none" font-family="helvetica" font-size="14pt" font-style="normal" font-weight="normal" text-decoration="normal" x="0" y="0" text-anchor="middle" dominant-baseline="hanging">0</text><g transform="rotate(0,0,0) translate(-73,-300) translate(115,300) rotate(0,0,0)"><text fill="" stroke="none" font-family="helvetica" font-size="14pt" font-style="normal" font-weight="normal" text-decoration="normal" x="0" y="0" text-anchor="middle" dominant-baseline="hanging">10</text><g transform="rotate(0,0,0) translate(-115,-300) translate(156,300) rotate(0,0,0)"><text fill="" stroke="none" font-family="helvetica" font-size="14pt" font-style="normal" font-weight="normal" text-decoration="normal" x="0" y="0" text-anchor="middle" dominant-baseline="hanging">20</text><g transform="rotate(0,0,0) translate(-156,-300) translate(198,300) rotate(0,0,0)"><text fill="" stroke="none" font-family="helvetica" font-size="14pt" font-style="normal" font-weight="normal" text-decoration="normal" x="0" y="0" text-anchor="middle" dominant-baseline="hanging">30</text><g transform="rotate(0,0,0) translate(-198,-300) translate(240,300) rotate(0,0,0)"><text fill="" stroke="none" font-family="helvetica" font-size="14pt" font-style="normal" font-weight="normal" text-decoration="normal" x="0" y="0" text-anchor="middle" dominant-baseline="hanging">40</text><g transform="rotate(0,0,0) translate(-240,-300) translate(281,300) rotate(0,0,0)"><text fill="" stroke="none" font-family="helvetica" font-size="14pt" font-style="normal" font-weight="normal" text-decoration="normal" x="0" y="0" text-anchor="middle" dominant-baseline="hanging">50</text><g transform="rotate(0,0,0) translate(-281,-300) translate(191,327) rotate(0,0,0)"><text fill="" stroke="none" font-family="helvetica" font-size="14pt" font-style="italic" font-weight="normal" text-decoration="normal" x="0" y="0" text-anchor="middle" dominant-baseline="hanging">Distance Å</text><g transform="rotate(0,0,0) translate(-191,-327)"/></g></g></g></g></g></g></g></g></g><g><g fill="#444444"><path fill="none" stroke="black" paint-order="fill stroke markers" d=" M 61 289 L 61 33" stroke-linejoin="bevel" stroke-miterlimit="10"/><path fill="none" stroke="black" paint-order="fill stroke markers" d=" M 55 277 L 63 277" stroke-linejoin="bevel" stroke-miterlimit="10"/><path fill="none" stroke="black" paint-order="fill stroke markers" d=" M 55 231 L 63 231" stroke-linejoin="bevel" stroke-miterlimit="10"/><path fill="none" stroke="black" paint-order="fill stroke markers" d=" M 55 184 L 63 184" stroke-linejoin="bevel" stroke-miterlimit="10"/><path fill="none" stroke="black" paint-order="fill stroke markers" d=" M 55 138 L 63 138" stroke-linejoin="bevel" stroke-miterlimit="10"/><path fill="none" stroke="black" paint-order="fill stroke markers" d=" M 55 91 L 63 91" stroke-linejoin="bevel" stroke-miterlimit="10"/><path fill="none" stroke="black" paint-order="fill stroke markers" d=" M 55 45 L 63 45" stroke-linejoin="bevel" stroke-miterlimit="10"/><path fill="none" stroke="black" paint-order="fill stroke markers" d=" M 57 287 L 61 287" stroke-linejoin="bevel" stroke-miterlimit="10"/><path fill="none" stroke="black" paint-order="fill stroke markers" d=" M 57 277 L 61 277" stroke-linejoin="bevel" stroke-miterlimit="10"/><path fill="none" stroke="black" paint-order="fill stroke markers" d=" M 57 268 L 61 268" stroke-linejoin="bevel" stroke-miterlimit="10"/><path fill="none" stroke="black" paint-order="fill stroke markers" d=" M 57 259 L 61 259" stroke-linejoin="bevel" stroke-miterlimit="10"/><path fill="none" stroke="black" paint-order="fill stroke markers" d=" M 57 249 L 61 249" stroke-linejoin="bevel" stroke-miterlimit="10"/><path fill="none" stroke="black" paint-order="fill stroke markers" d=" M 57 240 L 61 240" stroke-linejoin="bevel" stroke-miterlimit="10"/><path fill="none" stroke="black" paint-order="fill stroke markers" d=" M 57 231 L 61 231" stroke-linejoin="bevel" stroke-miterlimit="10"/><path fill="none" stroke="black" paint-order="fill stroke markers" d=" M 57 222 L 61 222" stroke-linejoin="bevel" stroke-miterlimit="10"/><path fill="none" stroke="black" paint-order="fill stroke markers" d=" M 57 212 L 61 212" stroke-linejoin="bevel" stroke-miterlimit="10"/><path fill="none" stroke="black" paint-order="fill stroke markers" d=" M 57 203 L 61 203" stroke-linejoin="bevel" stroke-miterlimit="10"/><path fill="none" stroke="black" paint-order="fill stroke markers" d=" M 57 194 L 61 194" stroke-linejoin="bevel" stroke-miterlimit="10"/><path fill="none" stroke="black" paint-order="fill stroke markers" d=" M 57 184 L 61 184" stroke-linejoin="bevel" stroke-miterlimit="10"/><path fill="none" stroke="black" paint-order="fill stroke markers" d=" M 57 175 L 61 175" stroke-linejoin="bevel" stroke-miterlimit="10"/><path fill="none" stroke="black" paint-order="fill stroke markers" d=" M 57 166 L 61 166" stroke-linejoin="bevel" stroke-miterlimit="10"/><path fill="none" stroke="black" paint-order="fill stroke markers" d=" M 57 156 L 61 156" stroke-linejoin="bevel" stroke-miterlimit="10"/><path fill="none" stroke="black" paint-order="fill stroke markers" d=" M 57 147 L 61 147" stroke-linejoin="bevel" stroke-miterlimit="10"/><path fill="none" stroke="black" paint-order="fill stroke markers" d=" M 57 138 L 61 138" stroke-linejoin="bevel" stroke-miterlimit="10"/><path fill="none" stroke="black" paint-order="fill stroke markers" d=" M 57 128 L 61 128" stroke-linejoin="bevel" stroke-miterlimit="10"/><path fill="none" stroke="black" paint-order="fill stroke markers" d=" M 57 119 L 61 119" stroke-linejoin="bevel" stroke-miterlimit="10"/><path fill="none" stroke="black" paint-order="fill stroke markers" d=" M 57 110 L 61 110" stroke-linejoin="bevel" stroke-miterlimit="10"/><path fill="none" stroke="black" paint-order="fill stroke markers" d=" M 57 100 L 61 100" stroke-linejoin="bevel" stroke-miterlimit="10"/><path fill="none" stroke="black" paint-order="fill stroke markers" d=" M 57 91 L 61 91" stroke-linejoin="bevel" stroke-miterlimit="10"/><path fill="none" stroke="black" paint-order="fill stroke markers" d=" M 57 82 L 61 82" stroke-linejoin="bevel" stroke-miterlimit="10"/><path fill="none" stroke="black" paint-order="fill stroke markers" d=" M 57 73 L 61 73" stroke-linejoin="bevel" stroke-miterlimit="10"/><path fill="none" stroke="black" paint-order="fill stroke markers" d=" M 57 63 L 61 63" stroke-linejoin="bevel" stroke-miterlimit="10"/><path fill="none" stroke="black" paint-order="fill stroke markers" d=" M 57 54 L 61 54" stroke-linejoin="bevel" stroke-miterlimit="10"/><path fill="none" stroke="black" paint-order="fill stroke markers" d=" M 57 45 L 61 45" stroke-linejoin="bevel" stroke-miterlimit="10"/><path fill="" stroke="black" paint-order="fill stroke markers" d=" M 57 35 L 61 35" stroke-linejoin="bevel" stroke-miterlimit="10"/><g transform="translate(50,277) rotate(0,0,0)"><text fill="" stroke="none" font-family="helvetica" font-size="14pt" font-style="normal" font-weight="normal" text-decoration="normal" x="0" y="0" text-anchor="end" dominant-baseline="central">0</text><g transform="rotate(0,0,0) translate(-50,-277) translate(50,231) rotate(0,0,0)"><text fill="" stroke="none" font-family="helvetica" font-size="14pt" font-style="normal" font-weight="normal" text-decoration="normal" x="0" y="0" text-anchor="end" dominant-baseline="central">2</text><g transform="rotate(0,0,0) translate(-50,-231) translate(50,184) rotate(0,0,0)"><text fill="" stroke="none" font-family="helvetica" font-size="14pt" font-style="normal" font-weight="normal" text-decoration="normal" x="0" y="0" text-anchor="end" dominant-baseline="central">4</text><g transform="rotate(0,0,0) translate(-50,-184) translate(50,138) rotate(0,0,0)"><text fill="" stroke="none" font-family="helvetica" font-size="14pt" font-style="normal" font-weight="normal" text-decoration="normal" x="0" y="0" text-anchor="end" dominant-baseline="central">6</text><g transform="rotate(0,0,0) translate(-50,-138) translate(50,91) rotate(0,0,0)"><text fill="" stroke="none" font-family="helvetica" font-size="14pt" font-style="normal" font-weight="normal" text-decoration="normal" x="0" y="0" text-anchor="end" dominant-baseline="central">8</text><g transform="rotate(0,0,0) translate(-50,-91) translate(50,45) rotate(0,0,0)"><text fill="" stroke="none" font-family="helvetica" font-size="14pt" font-style="normal" font-weight="normal" text-decoration="normal" x="0" y="0" text-anchor="end" dominant-baseline="central">10</text><g transform="rotate(0,0,0) translate(-50,-45) translate(22,161) rotate(-90,0,0)"><text fill="" stroke="none" font-family="helvetica" font-size="14pt" font-style="italic" font-weight="normal" text-decoration="normal" x="0" y="0" text-anchor="middle" dominant-baseline="alphabetic">Number of cross-links</text><g transform="rotate(90,0,0) translate(-22,-161)"/></g></g></g></g></g></g></g></g></g><g clip-path="url(#AneEliRxuPyf)"><g/></g></g></g></svg>