<svg version="1.1" xmlns="http://www.w3.org/2000/svg" xmlns:xlink="http://www.w3.org/1999/xlink" width="400" height="400" style="width: 400px; height: 400px;"><defs><clipPath id="XBgbPQbsFpyx"><path fill="none" stroke="none" d=" M 61 33 L 370 33 L 370 339 L 61 339 L 61 33 Z"/></clipPath><clipPath id="xKsQSUDLBXkP"><path fill="none" stroke="none" d=" M 61 33 L 370 33 L 370 339 L 61 339 L 61 33 Z"/></clipPath><clipPath id="kGwKEfwqwycg"><path fill="none" stroke="none" d=" M 61 33 L 370 33 L 370 339 L 61 339 L 61 33 Z"/></clipPath><clipPath id="TZTiWJCIEcDD"><path fill="none" stroke="none" d=" M 61 33 L 370 33 L 370 339 L 61 339 L 61 33 Z"/></clipPath><clipPath id="yCaMhhZAqOrU"><path fill="none" stroke="none" d=" M 61 33 L 370 33 L 370 339 L 61 339 L 61 33 Z"/></clipPath><clipPath id="wdWEspiWGmLu"><path fill="none" stroke="none" d=" M 61 33 L 370 33 L 370 339 L 61 339 L 61 33 Z"/></clipPath><clipPath id="pgWAkxwlZpve"><path fill="none" stroke="none" d=" M 61 33 L 370 33 L 370 339 L 61 339 L 61 33 Z"/></clipPath><clipPath id="egTbdVibIevf"><path fill="none" stroke="none" d=" M 61 33 L 370 33 L 370 339 L 61 339 L 61 33 Z"/></clipPath><clipPath id="IpcxQdKoVeUu"><path fill="none" stroke="none" d=" M 61 33 L 370 33 L 370 339 L 61 339 L 61 33 Z"/></clipPath><clipPath id="uwFGDXTtXbqJ"><path fill="none" stroke="none" d=" M 61 33 L 370 33 L 370 339 L 61 339 L 61 33 Z"/></clipPath></defs><g><g transform="scale(1,1) translate(0.5,0.5)"><rect fill="#FFFFFF" stroke="none" x="0" y="0" width="400" height="400"/><rect fill="#ffffff" stroke="none" x="0" y="0" width="400" height="400"/><rect fill="#FFFFFF" stroke="none" x="61" y="33" width="309" height="306"/><rect fill="#ffffff" stroke="none" x="61" y="33" width="309" height="306"/><g><rect fill="none" stroke="#e5e5e5" x="61" y="33" width="309" height="306" stroke-linejoin="bevel" stroke-miterlimit="10"/></g><g clip-path="url(#XBgbPQbsFpyx)"><g><g><path fill="none" stroke="#e5e5e5" paint-order="fill stroke markers" d=" M 64 339 L 64 33" stroke-linejoin="bevel" stroke-miterlimit="10"/><path fill="none" stroke="#e5e5e5" paint-order="fill stroke markers" d=" M 122 339 L 122 33" stroke-linejoin="bevel" stroke-miterlimit="10"/><path fill="none" stroke="#e5e5e5" paint-order="fill stroke markers" d=" M 180 339 L 180 33" stroke-linejoin="bevel" stroke-miterlimit="10"/><path fill="none" stroke="#e5e5e5" paint-order="fill stroke markers" d=" M 238 339 L 238 33" stroke-linejoin="bevel" stroke-miterlimit="10"/><path fill="none" stroke="#e5e5e5" paint-order="fill stroke markers" d=" M 297 339 L 297 33" stroke-linejoin="bevel" stroke-miterlimit="10"/><path fill="none" stroke="#e5e5e5" paint-order="fill stroke markers" d=" M 355 339 L 355 33" stroke-linejoin="bevel" stroke-miterlimit="10"/></g></g></g><g clip-path="url(#xKsQSUDLBXkP)"><g><g><path fill="none" stroke="#e5e5e5" paint-order="fill stroke markers" d=" M 61 325 L 370 325" stroke-linejoin="bevel" stroke-miterlimit="10"/><path fill="none" stroke="#e5e5e5" paint-order="fill stroke markers" d=" M 61 275 L 370 275" stroke-linejoin="bevel" stroke-miterlimit="10"/><path fill="none" stroke="#e5e5e5" paint-order="fill stroke markers" d=" M 61 224 L 370 224" stroke-linejoin="bevel" stroke-miterlimit="10"/><path fill="none" stroke="#e5e5e5" paint-order="fill stroke markers" d=" M 61 173 L 370 173" stroke-linejoin="bevel" stroke-miterlimit="10"/><path fill="none" stroke="#e5e5e5" paint-order="fill stroke markers" d=" M 61 123 L 370 123" stroke-linejoin="bevel" stroke-miterlimit="10"/><path fill="none" stroke="#e5e5e5" paint-order="fill stroke markers" d=" M 61 72 L 370 72" stroke-linejoin="bevel" stroke-miterlimit="10"/></g></g></g><g clip-path="url(#kGwKEfwqwycg)"><g><g><path fill="none" stroke="none"/><path fill="navy" stroke="none" paint-order="stroke fill markers" d=" M 75.04545454545455 46.909090909090935 L 80.66363636363636 46.909090909090935 L 80.66363636363636 325.09090909090907 L 75.04545454545455 325.09090909090907 L 75.04545454545455 46.909090909090935 Z" fill-opacity="0.3"/><path fill="none" stroke="white" paint-order="fill stroke markers" d=" M 75.04545454545455 46.909090909090935 L 80.66363636363636 46.909090909090935 L 80.66363636363636 325.09090909090907 L 75.04545454545455 325.09090909090907 L 75.04545454545455 46.909090909090935 Z" stroke-linejoin="bevel" stroke-miterlimit="10" stroke-opacity="0.3"/><path fill="navy" stroke="none" paint-order="stroke fill markers" d=" M 80.66363636363636 72.19834710743802 L 86.28181818181818 72.19834710743802 L 86.28181818181818 325.09090909090907 L 80.66363636363636 325.09090909090907 L 80.66363636363636 72.19834710743802 Z" fill-opacity="0.3"/><path fill="none" stroke="white" paint-order="fill stroke markers" d=" M 80.66363636363636 72.19834710743802 L 86.28181818181818 72.19834710743802 L 86.28181818181818 325.09090909090907 L 80.66363636363636 325.09090909090907 L 80.66363636363636 72.19834710743802 Z" stroke-linejoin="bevel" stroke-miterlimit="10" stroke-opacity="0.3"/><path fill="navy" stroke="none" paint-order="stroke fill markers" d=" M 86.28181818181818 97.48760330578511 L 91.9 97.48760330578511 L 91.9 325.09090909090907 L 86.28181818181818 325.09090909090907 L 86.28181818181818 97.48760330578511 Z" fill-opacity="0.3"/><path fill="none" stroke="white" paint-order="fill stroke markers" d=" M 86.28181818181818 97.48760330578511 L 91.9 97.48760330578511 L 91.9 325.09090909090907 L 86.28181818181818 325.09090909090907 L 86.28181818181818 97.48760330578511 Z" stroke-linejoin="bevel" stroke-miterlimit="10" stroke-opacity="0.3"/><path fill="navy" stroke="none" paint-order="stroke fill markers" d=" M 91.9 274.5123966942149 L 97.51818181818183 274.5123966942149 L 97.51818181818183 325.09090909090907 L 91.9 325.09090909090907 L 91.9 274.5123966942149 Z" fill-opacity="0.3"/><path fill="none" stroke="white" paint-order="fill stroke markers" d=" M 91.9 274.5123966942149 L 97.51818181818183 274.5123966942149 L 97.51818181818183 325.09090909090907 L 91.9 325.09090909090907 L 91.9 274.5123966942149 Z" stroke-linejoin="bevel" stroke-miterlimit="10" stroke-opacity="0.3"/><path fill="navy" stroke="none" paint-order="stroke fill markers" d=" M 97.51818181818183 223.93388429752065 L 103.13636363636364 223.93388429752065 L 103.13636363636364 325.09090909090907 L 97.51818181818183 325.09090909090907 L 97.51818181818183 223.93388429752065 Z" fill-opacity="0.3"/><path fill="none" stroke="white" paint-order="fill stroke markers" d=" M 97.51818181818183 223.93388429752065 L 103.13636363636364 223.93388429752065 L 103.13636363636364 325.09090909090907 L 97.51818181818183 325.09090909090907 L 97.51818181818183 223.93388429752065 Z" stroke-linejoin="bevel" stroke-miterlimit="10" stroke-opacity="0.3"/><path fill="navy" stroke="none" paint-order="stroke fill markers" d=" M 103.13636363636364 299.80165289256195 L 108.75454545454545 299.80165289256195 L 108.75454545454545 325.09090909090907 L 103.13636363636364 325.09090909090907 L 103.13636363636364 299.80165289256195 Z" fill-opacity="0.3"/><path fill="none" stroke="white" paint-order="fill stroke markers" d=" M 103.13636363636364 299.80165289256195 L 108.75454545454545 299.80165289256195 L 108.75454545454545 325.09090909090907 L 103.13636363636364 325.09090909090907 L 103.13636363636364 299.80165289256195 Z" stroke-linejoin="bevel" stroke-miterlimit="10" stroke-opacity="0.3"/><path fill="navy" stroke="none" paint-order="stroke fill markers" d=" M 108.75454545454545 274.5123966942149 L 114.37272727272727 274.5123966942149 L 114.37272727272727 325.09090909090907 L 108.75454545454545 325.09090909090907 L 108.75454545454545 274.5123966942149 Z" fill-opacity="0.3"/><path fill="none" stroke="white" paint-order="fill stroke markers" d=" M 108.75454545454545 274.5123966942149 L 114.37272727272727 274.5123966942149 L 114.37272727272727 325.09090909090907 L 108.75454545454545 325.09090909090907 L 108.75454545454545 274.5123966942149 Z" stroke-linejoin="bevel" stroke-miterlimit="10" stroke-opacity="0.3"/><path fill="navy" stroke="none" paint-order="stroke fill markers" d=" M 114.37272727272727 325.09090909090907 L 119.9909090909091 325.09090909090907 L 119.9909090909091 325.09090909090907 L 114.37272727272727 325.09090909090907 L 114.37272727272727 325.09090909090907 Z" fill-opacity="0.3"/><path fill="none" stroke="white" paint-order="fill stroke markers" d=" M 114.37272727272727 325.09090909090907 L 119.9909090909091 325.09090909090907 L 119.9909090909091 325.09090909090907 L 114.37272727272727 325.09090909090907 L 114.37272727272727 325.09090909090907 Z" stroke-linejoin="bevel" stroke-miterlimit="10" stroke-opacity="0.3"/><path fill="navy" stroke="none" paint-order="stroke fill markers" d=" M 119.9909090909091 299.80165289256195 L 125.60909090909091 299.80165289256195 L 125.60909090909091 325.09090909090907 L 119.9909090909091 325.09090909090907 L 119.9909090909091 299.80165289256195 Z" fill-opacity="0.3"/><path fill="none" stroke="white" paint-order="fill stroke markers" d=" M 119.9909090909091 299.80165289256195 L 125.60909090909091 299.80165289256195 L 125.60909090909091 325.09090909090907 L 119.9909090909091 325.09090909090907 L 119.9909090909091 299.80165289256195 Z" stroke-linejoin="bevel" stroke-miterlimit="10" stroke-opacity="0.3"/><path fill="navy" stroke="none" paint-order="stroke fill markers" d=" M 125.60909090909091 325.09090909090907 L 131.22727272727272 325.09090909090907 L 131.22727272727272 325.09090909090907 L 125.60909090909091 325.09090909090907 L 125.60909090909091 325.09090909090907 Z" fill-opacity="0.3"/><path fill="none" stroke="white" paint-order="fill stroke markers" d=" M 125.60909090909091 325.09090909090907 L 131.22727272727272 325.09090909090907 L 131.22727272727272 325.09090909090907 L 125.60909090909091 325.09090909090907 L 125.60909090909091 325.09090909090907 Z" stroke-linejoin="bevel" stroke-miterlimit="10" stroke-opacity="0.3"/><path fill="navy" stroke="none" paint-order="stroke fill markers" d=" M 131.22727272727272 299.80165289256195 L 136.84545454545454 299.80165289256195 L 136.84545454545454 325.09090909090907 L 131.22727272727272 325.09090909090907 L 131.22727272727272 299.80165289256195 Z" fill-opacity="0.3"/><path fill="none" stroke="white" paint-order="fill stroke markers" d=" M 131.22727272727272 299.80165289256195 L 136.84545454545454 299.80165289256195 L 136.84545454545454 325.09090909090907 L 131.22727272727272 325.09090909090907 L 131.22727272727272 299.80165289256195 Z" stroke-linejoin="bevel" stroke-miterlimit="10" stroke-opacity="0.3"/><path fill="navy" stroke="none" paint-order="stroke fill markers" d=" M 136.84545454545454 274.5123966942149 L 142.46363636363637 274.5123966942149 L 142.46363636363637 325.09090909090907 L 136.84545454545454 325.09090909090907 L 136.84545454545454 274.5123966942149 Z" fill-opacity="0.3"/><path fill="none" stroke="white" paint-order="fill stroke markers" d=" M 136.84545454545454 274.5123966942149 L 142.46363636363637 274.5123966942149 L 142.46363636363637 325.09090909090907 L 136.84545454545454 325.09090909090907 L 136.84545454545454 274.5123966942149 Z" stroke-linejoin="bevel" stroke-miterlimit="10" stroke-opacity="0.3"/><path fill="navy" stroke="none" paint-order="stroke fill markers" d=" M 142.46363636363637 299.80165289256195 L 148.08181818181816 299.80165289256195 L 148.08181818181816 325.09090909090907 L 142.46363636363637 325.09090909090907 L 142.46363636363637 299.80165289256195 Z" fill-opacity="0.3"/><path fill="none" stroke="white" paint-order="fill stroke markers" d=" M 142.46363636363637 299.80165289256195 L 148.08181818181816 299.80165289256195 L 148.08181818181816 325.09090909090907 L 142.46363636363637 325.09090909090907 L 142.46363636363637 299.80165289256195 Z" stroke-linejoin="bevel" stroke-miterlimit="10" stroke-opacity="0.3"/><path fill="navy" stroke="none" paint-order="stroke fill markers" d=" M 148.08181818181816 325.09090909090907 L 153.7 325.09090909090907 L 153.7 325.09090909090907 L 148.08181818181816 325.09090909090907 L 148.08181818181816 325.09090909090907 Z" fill-opacity="0.3"/><path fill="none" stroke="white" paint-order="fill stroke markers" d=" M 148.08181818181816 325.09090909090907 L 153.7 325.09090909090907 L 153.7 325.09090909090907 L 148.08181818181816 325.09090909090907 L 148.08181818181816 325.09090909090907 Z" stroke-linejoin="bevel" stroke-miterlimit="10" stroke-opacity="0.3"/><path fill="navy" stroke="none" paint-order="stroke fill markers" d=" M 153.7 325.09090909090907 L 159.3181818181818 325.09090909090907 L 159.3181818181818 325.09090909090907 L 153.7 325.09090909090907 L 153.7 325.09090909090907 Z" fill-opacity="0.3"/><path fill="none" stroke="white" paint-order="fill stroke markers" d=" M 153.7 325.09090909090907 L 159.3181818181818 325.09090909090907 L 159.3181818181818 325.09090909090907 L 153.7 325.09090909090907 L 153.7 325.09090909090907 Z" stroke-linejoin="bevel" stroke-miterlimit="10" stroke-opacity="0.3"/><path fill="navy" stroke="none" paint-order="stroke fill markers" d=" M 159.3181818181818 299.80165289256195 L 164.93636363636364 299.80165289256195 L 164.93636363636364 325.09090909090907 L 159.3181818181818 325.09090909090907 L 159.3181818181818 299.80165289256195 Z" fill-opacity="0.3"/><path fill="none" stroke="white" paint-order="fill stroke markers" d=" M 159.3181818181818 299.80165289256195 L 164.93636363636364 299.80165289256195 L 164.93636363636364 325.09090909090907 L 159.3181818181818 325.09090909090907 L 159.3181818181818 299.80165289256195 Z" stroke-linejoin="bevel" stroke-miterlimit="10" stroke-opacity="0.3"/><path fill="navy" stroke="none" paint-order="stroke fill markers" d=" M 164.93636363636364 325.09090909090907 L 170.55454545454546 325.09090909090907 L 170.55454545454546 325.09090909090907 L 164.93636363636364 325.09090909090907 L 164.93636363636364 325.09090909090907 Z" fill-opacity="0.3"/><path fill="none" stroke="white" paint-order="fill stroke markers" d=" M 164.93636363636364 325.09090909090907 L 170.55454545454546 325.09090909090907 L 170.55454545454546 325.09090909090907 L 164.93636363636364 325.09090909090907 L 164.93636363636364 325.09090909090907 Z" stroke-linejoin="bevel" stroke-miterlimit="10" stroke-opacity="0.3"/><path fill="navy" stroke="none" paint-order="stroke fill markers" d=" M 170.55454545454546 325.09090909090907 L 176.1727272727273 325.09090909090907 L 176.1727272727273 325.09090909090907 L 170.55454545454546 325.09090909090907 L 170.55454545454546 325.09090909090907 Z" fill-opacity="0.3"/><path fill="none" stroke="white" paint-order="fill stroke markers" d=" M 170.55454545454546 325.09090909090907 L 176.1727272727273 325.09090909090907 L 176.1727272727273 325.09090909090907 L 170.55454545454546 325.09090909090907 L 170.55454545454546 325.09090909090907 Z" stroke-linejoin="bevel" stroke-miterlimit="10" stroke-opacity="0.3"/><path fill="navy" stroke="none" paint-order="stroke fill markers" d=" M 176.1727272727273 325.09090909090907 L 181.79090909090908 325.09090909090907 L 181.79090909090908 325.09090909090907 L 176.1727272727273 325.09090909090907 L 176.1727272727273 325.09090909090907 Z" fill-opacity="0.3"/><path fill="none" stroke="white" paint-order="fill stroke markers" d=" M 176.1727272727273 325.09090909090907 L 181.79090909090908 325.09090909090907 L 181.79090909090908 325.09090909090907 L 176.1727272727273 325.09090909090907 L 176.1727272727273 325.09090909090907 Z" stroke-linejoin="bevel" stroke-miterlimit="10" stroke-opacity="0.3"/><path fill="navy" stroke="none" paint-order="stroke fill markers" d=" M 181.79090909090908 325.09090909090907 L 187.4090909090909 325.09090909090907 L 187.4090909090909 325.09090909090907 L 181.79090909090908 325.09090909090907 L 181.79090909090908 325.09090909090907 Z" fill-opacity="0.3"/><path fill="none" stroke="white" paint-order="fill stroke markers" d=" M 181.79090909090908 325.09090909090907 L 187.4090909090909 325.09090909090907 L 187.4090909090909 325.09090909090907 L 181.79090909090908 325.09090909090907 L 181.79090909090908 325.09090909090907 Z" stroke-linejoin="bevel" stroke-miterlimit="10" stroke-opacity="0.3"/><path fill="navy" stroke="none" paint-order="stroke fill markers" d=" M 187.4090909090909 325.09090909090907 L 193.02727272727273 325.09090909090907 L 193.02727272727273 325.09090909090907 L 187.4090909090909 325.09090909090907 L 187.4090909090909 325.09090909090907 Z" fill-opacity="0.3"/><path fill="none" stroke="white" paint-order="fill stroke markers" d=" M 187.4090909090909 325.09090909090907 L 193.02727272727273 325.09090909090907 L 193.02727272727273 325.09090909090907 L 187.4090909090909 325.09090909090907 L 187.4090909090909 325.09090909090907 Z" stroke-linejoin="bevel" stroke-miterlimit="10" stroke-opacity="0.3"/><path fill="navy" stroke="none" paint-order="stroke fill markers" d=" M 193.02727272727273 325.09090909090907 L 198.64545454545453 325.09090909090907 L 198.64545454545453 325.09090909090907 L 193.02727272727273 325.09090909090907 L 193.02727272727273 325.09090909090907 Z" fill-opacity="0.3"/><path fill="none" stroke="white" paint-order="fill stroke markers" d=" M 193.02727272727273 325.09090909090907 L 198.64545454545453 325.09090909090907 L 198.64545454545453 325.09090909090907 L 193.02727272727273 325.09090909090907 L 193.02727272727273 325.09090909090907 Z" stroke-linejoin="bevel" stroke-miterlimit="10" stroke-opacity="0.3"/><path fill="navy" stroke="none" paint-order="stroke fill markers" d=" M 198.64545454545453 325.09090909090907 L 204.26363636363635 325.09090909090907 L 204.26363636363635 325.09090909090907 L 198.64545454545453 325.09090909090907 L 198.64545454545453 325.09090909090907 Z" fill-opacity="0.3"/><path fill="none" stroke="white" paint-order="fill stroke markers" d=" M 198.64545454545453 325.09090909090907 L 204.26363636363635 325.09090909090907 L 204.26363636363635 325.09090909090907 L 198.64545454545453 325.09090909090907 L 198.64545454545453 325.09090909090907 Z" stroke-linejoin="bevel" stroke-miterlimit="10" stroke-opacity="0.3"/><path fill="navy" stroke="none" paint-order="stroke fill markers" d=" M 204.26363636363635 325.09090909090907 L 209.88181818181818 325.09090909090907 L 209.88181818181818 325.09090909090907 L 204.26363636363635 325.09090909090907 L 204.26363636363635 325.09090909090907 Z" fill-opacity="0.3"/><path fill="none" stroke="white" paint-order="fill stroke markers" d=" M 204.26363636363635 325.09090909090907 L 209.88181818181818 325.09090909090907 L 209.88181818181818 325.09090909090907 L 204.26363636363635 325.09090909090907 L 204.26363636363635 325.09090909090907 Z" stroke-linejoin="bevel" stroke-miterlimit="10" stroke-opacity="0.3"/><path fill="navy" stroke="none" paint-order="stroke fill markers" d=" M 209.88181818181818 325.09090909090907 L 215.49999999999997 325.09090909090907 L 215.49999999999997 325.09090909090907 L 209.88181818181818 325.09090909090907 L 209.88181818181818 325.09090909090907 Z" fill-opacity="0.3"/><path fill="none" stroke="white" paint-order="fill stroke markers" d=" M 209.88181818181818 325.09090909090907 L 215.49999999999997 325.09090909090907 L 215.49999999999997 325.09090909090907 L 209.88181818181818 325.09090909090907 L 209.88181818181818 325.09090909090907 Z" stroke-linejoin="bevel" stroke-miterlimit="10" stroke-opacity="0.3"/><path fill="navy" stroke="none" paint-order="stroke fill markers" d=" M 215.49999999999997 325.09090909090907 L 221.11818181818182 325.09090909090907 L 221.11818181818182 325.09090909090907 L 215.49999999999997 325.09090909090907 L 215.49999999999997 325.09090909090907 Z" fill-opacity="0.3"/><path fill="none" stroke="white" paint-order="fill stroke markers" d=" M 215.49999999999997 325.09090909090907 L 221.11818181818182 325.09090909090907 L 221.11818181818182 325.09090909090907 L 215.49999999999997 325.09090909090907 L 215.49999999999997 325.09090909090907 Z" stroke-linejoin="bevel" stroke-miterlimit="10" stroke-opacity="0.3"/><path fill="navy" stroke="none" paint-order="stroke fill markers" d=" M 221.11818181818182 325.09090909090907 L 226.7363636363636 325.09090909090907 L 226.7363636363636 325.09090909090907 L 221.11818181818182 325.09090909090907 L 221.11818181818182 325.09090909090907 Z" fill-opacity="0.3"/><path fill="none" stroke="white" paint-order="fill stroke markers" d=" M 221.11818181818182 325.09090909090907 L 226.7363636363636 325.09090909090907 L 226.7363636363636 325.09090909090907 L 221.11818181818182 325.09090909090907 L 221.11818181818182 325.09090909090907 Z" stroke-linejoin="bevel" stroke-miterlimit="10" stroke-opacity="0.3"/><path fill="navy" stroke="none" paint-order="stroke fill markers" d=" M 226.7363636363636 325.09090909090907 L 232.35454545454544 325.09090909090907 L 232.35454545454544 325.09090909090907 L 226.7363636363636 325.09090909090907 L 226.7363636363636 325.09090909090907 Z" fill-opacity="0.3"/><path fill="none" stroke="white" paint-order="fill stroke markers" d=" M 226.7363636363636 325.09090909090907 L 232.35454545454544 325.09090909090907 L 232.35454545454544 325.09090909090907 L 226.7363636363636 325.09090909090907 L 226.7363636363636 325.09090909090907 Z" stroke-linejoin="bevel" stroke-miterlimit="10" stroke-opacity="0.3"/><path fill="navy" stroke="none" paint-order="stroke fill markers" d=" M 232.35454545454544 325.09090909090907 L 237.97272727272727 325.09090909090907 L 237.97272727272727 325.09090909090907 L 232.35454545454544 325.09090909090907 L 232.35454545454544 325.09090909090907 Z" fill-opacity="0.3"/><path fill="none" stroke="white" paint-order="fill stroke markers" d=" M 232.35454545454544 325.09090909090907 L 237.97272727272727 325.09090909090907 L 237.97272727272727 325.09090909090907 L 232.35454545454544 325.09090909090907 L 232.35454545454544 325.09090909090907 Z" stroke-linejoin="bevel" stroke-miterlimit="10" stroke-opacity="0.3"/><path fill="navy" stroke="none" paint-order="stroke fill markers" d=" M 237.97272727272727 325.09090909090907 L 243.59090909090904 325.09090909090907 L 243.59090909090904 325.09090909090907 L 237.97272727272727 325.09090909090907 L 237.97272727272727 325.09090909090907 Z" fill-opacity="0.3"/><path fill="none" stroke="white" paint-order="fill stroke markers" d=" M 237.97272727272727 325.09090909090907 L 243.59090909090904 325.09090909090907 L 243.59090909090904 325.09090909090907 L 237.97272727272727 325.09090909090907 L 237.97272727272727 325.09090909090907 Z" stroke-linejoin="bevel" stroke-miterlimit="10" stroke-opacity="0.3"/><path fill="navy" stroke="none" paint-order="stroke fill markers" d=" M 243.59090909090904 325.09090909090907 L 249.2090909090909 325.09090909090907 L 249.2090909090909 325.09090909090907 L 243.59090909090904 325.09090909090907 L 243.59090909090904 325.09090909090907 Z" fill-opacity="0.3"/><path fill="none" stroke="white" paint-order="fill stroke markers" d=" M 243.59090909090904 325.09090909090907 L 249.2090909090909 325.09090909090907 L 249.2090909090909 325.09090909090907 L 243.59090909090904 325.09090909090907 L 243.59090909090904 325.09090909090907 Z" stroke-linejoin="bevel" stroke-miterlimit="10" stroke-opacity="0.3"/><path fill="navy" stroke="none" paint-order="stroke fill markers" d=" M 249.2090909090909 325.09090909090907 L 254.8272727272727 325.09090909090907 L 254.8272727272727 325.09090909090907 L 249.2090909090909 325.09090909090907 L 249.2090909090909 325.09090909090907 Z" fill-opacity="0.3"/><path fill="none" stroke="white" paint-order="fill stroke markers" d=" M 249.2090909090909 325.09090909090907 L 254.8272727272727 325.09090909090907 L 254.8272727272727 325.09090909090907 L 249.2090909090909 325.09090909090907 L 249.2090909090909 325.09090909090907 Z" stroke-linejoin="bevel" stroke-miterlimit="10" stroke-opacity="0.3"/><path fill="navy" stroke="none" paint-order="stroke fill markers" d=" M 254.8272727272727 325.09090909090907 L 260.44545454545454 325.09090909090907 L 260.44545454545454 325.09090909090907 L 254.8272727272727 325.09090909090907 L 254.8272727272727 325.09090909090907 Z" fill-opacity="0.3"/><path fill="none" stroke="white" paint-order="fill stroke markers" d=" M 254.8272727272727 325.09090909090907 L 260.44545454545454 325.09090909090907 L 260.44545454545454 325.09090909090907 L 254.8272727272727 325.09090909090907 L 254.8272727272727 325.09090909090907 Z" stroke-linejoin="bevel" stroke-miterlimit="10" stroke-opacity="0.3"/><path fill="navy" stroke="none" paint-order="stroke fill markers" d=" M 260.44545454545454 325.09090909090907 L 266.06363636363636 325.09090909090907 L 266.06363636363636 325.09090909090907 L 260.44545454545454 325.09090909090907 L 260.44545454545454 325.09090909090907 Z" fill-opacity="0.3"/><path fill="none" stroke="white" paint-order="fill stroke markers" d=" M 260.44545454545454 325.09090909090907 L 266.06363636363636 325.09090909090907 L 266.06363636363636 325.09090909090907 L 260.44545454545454 325.09090909090907 L 260.44545454545454 325.09090909090907 Z" stroke-linejoin="bevel" stroke-miterlimit="10" stroke-opacity="0.3"/><path fill="navy" stroke="none" paint-order="stroke fill markers" d=" M 266.06363636363636 325.09090909090907 L 271.6818181818182 325.09090909090907 L 271.6818181818182 325.09090909090907 L 266.06363636363636 325.09090909090907 L 266.06363636363636 325.09090909090907 Z" fill-opacity="0.3"/><path fill="none" stroke="white" paint-order="fill stroke markers" d=" M 266.06363636363636 325.09090909090907 L 271.6818181818182 325.09090909090907 L 271.6818181818182 325.09090909090907 L 266.06363636363636 325.09090909090907 L 266.06363636363636 325.09090909090907 Z" stroke-linejoin="bevel" stroke-miterlimit="10" stroke-opacity="0.3"/><path fill="navy" stroke="none" paint-order="stroke fill markers" d=" M 271.6818181818182 325.09090909090907 L 277.3 325.09090909090907 L 277.3 325.09090909090907 L 271.6818181818182 325.09090909090907 L 271.6818181818182 325.09090909090907 Z" fill-opacity="0.3"/><path fill="none" stroke="white" paint-order="fill stroke markers" d=" M 271.6818181818182 325.09090909090907 L 277.3 325.09090909090907 L 277.3 325.09090909090907 L 271.6818181818182 325.09090909090907 L 271.6818181818182 325.09090909090907 Z" stroke-linejoin="bevel" stroke-miterlimit="10" stroke-opacity="0.3"/><path fill="navy" stroke="none" paint-order="stroke fill markers" d=" M 277.3 325.09090909090907 L 282.91818181818184 325.09090909090907 L 282.91818181818184 325.09090909090907 L 277.3 325.09090909090907 L 277.3 325.09090909090907 Z" fill-opacity="0.3"/><path fill="none" stroke="white" paint-order="fill stroke markers" d=" M 277.3 325.09090909090907 L 282.91818181818184 325.09090909090907 L 282.91818181818184 325.09090909090907 L 277.3 325.09090909090907 L 277.3 325.09090909090907 Z" stroke-linejoin="bevel" stroke-miterlimit="10" stroke-opacity="0.3"/><path fill="navy" stroke="none" paint-order="stroke fill markers" d=" M 282.91818181818184 325.09090909090907 L 288.5363636363636 325.09090909090907 L 288.5363636363636 325.09090909090907 L 282.91818181818184 325.09090909090907 L 282.91818181818184 325.09090909090907 Z" fill-opacity="0.3"/><path fill="none" stroke="white" paint-order="fill stroke markers" d=" M 282.91818181818184 325.09090909090907 L 288.5363636363636 325.09090909090907 L 288.5363636363636 325.09090909090907 L 282.91818181818184 325.09090909090907 L 282.91818181818184 325.09090909090907 Z" stroke-linejoin="bevel" stroke-miterlimit="10" stroke-opacity="0.3"/><path fill="navy" stroke="none" paint-order="stroke fill markers" d=" M 288.5363636363636 325.09090909090907 L 294.1545454545454 325.09090909090907 L 294.1545454545454 325.09090909090907 L 288.5363636363636 325.09090909090907 L 288.5363636363636 325.09090909090907 Z" fill-opacity="0.3"/><path fill="none" stroke="white" paint-order="fill stroke markers" d=" M 288.5363636363636 325.09090909090907 L 294.1545454545454 325.09090909090907 L 294.1545454545454 325.09090909090907 L 288.5363636363636 325.09090909090907 L 288.5363636363636 325.09090909090907 Z" stroke-linejoin="bevel" stroke-miterlimit="10" stroke-opacity="0.3"/><path fill="navy" stroke="none" paint-order="stroke fill markers" d=" M 294.1545454545454 325.09090909090907 L 299.77272727272725 325.09090909090907 L 299.77272727272725 325.09090909090907 L 294.1545454545454 325.09090909090907 L 294.1545454545454 325.09090909090907 Z" fill-opacity="0.3"/><path fill="none" stroke="white" paint-order="fill stroke markers" d=" M 294.1545454545454 325.09090909090907 L 299.77272727272725 325.09090909090907 L 299.77272727272725 325.09090909090907 L 294.1545454545454 325.09090909090907 L 294.1545454545454 325.09090909090907 Z" stroke-linejoin="bevel" stroke-miterlimit="10" stroke-opacity="0.3"/><path fill="navy" stroke="none" paint-order="stroke fill markers" d=" M 299.77272727272725 325.09090909090907 L 305.3909090909091 325.09090909090907 L 305.3909090909091 325.09090909090907 L 299.77272727272725 325.09090909090907 L 299.77272727272725 325.09090909090907 Z" fill-opacity="0.3"/><path fill="none" stroke="white" paint-order="fill stroke markers" d=" M 299.77272727272725 325.09090909090907 L 305.3909090909091 325.09090909090907 L 305.3909090909091 325.09090909090907 L 299.77272727272725 325.09090909090907 L 299.77272727272725 325.09090909090907 Z" stroke-linejoin="bevel" stroke-miterlimit="10" stroke-opacity="0.3"/><path fill="navy" stroke="none" paint-order="stroke fill markers" d=" M 305.3909090909091 325.09090909090907 L 311.0090909090909 325.09090909090907 L 311.0090909090909 325.09090909090907 L 305.3909090909091 325.09090909090907 L 305.3909090909091 325.09090909090907 Z" fill-opacity="0.3"/><path fill="none" stroke="white" paint-order="fill stroke markers" d=" M 305.3909090909091 325.09090909090907 L 311.0090909090909 325.09090909090907 L 311.0090909090909 325.09090909090907 L 305.3909090909091 325.09090909090907 L 305.3909090909091 325.09090909090907 Z" stroke-linejoin="bevel" stroke-miterlimit="10" stroke-opacity="0.3"/><path fill="navy" stroke="none" paint-order="stroke fill markers" d=" M 311.0090909090909 325.09090909090907 L 316.6272727272727 325.09090909090907 L 316.6272727272727 325.09090909090907 L 311.0090909090909 325.09090909090907 L 311.0090909090909 325.09090909090907 Z" fill-opacity="0.3"/><path fill="none" stroke="white" paint-order="fill stroke markers" d=" M 311.0090909090909 325.09090909090907 L 316.6272727272727 325.09090909090907 L 316.6272727272727 325.09090909090907 L 311.0090909090909 325.09090909090907 L 311.0090909090909 325.09090909090907 Z" stroke-linejoin="bevel" stroke-miterlimit="10" stroke-opacity="0.3"/><path fill="navy" stroke="none" paint-order="stroke fill markers" d=" M 316.6272727272727 325.09090909090907 L 322.2454545454545 325.09090909090907 L 322.2454545454545 325.09090909090907 L 316.6272727272727 325.09090909090907 L 316.6272727272727 325.09090909090907 Z" fill-opacity="0.3"/><path fill="none" stroke="white" paint-order="fill stroke markers" d=" M 316.6272727272727 325.09090909090907 L 322.2454545454545 325.09090909090907 L 322.2454545454545 325.09090909090907 L 316.6272727272727 325.09090909090907 L 316.6272727272727 325.09090909090907 Z" stroke-linejoin="bevel" stroke-miterlimit="10" stroke-opacity="0.3"/><path fill="navy" stroke="none" paint-order="stroke fill markers" d=" M 322.2454545454545 325.09090909090907 L 327.8636363636364 325.09090909090907 L 327.8636363636364 325.09090909090907 L 322.2454545454545 325.09090909090907 L 322.2454545454545 325.09090909090907 Z" fill-opacity="0.3"/><path fill="none" stroke="white" paint-order="fill stroke markers" d=" M 322.2454545454545 325.09090909090907 L 327.8636363636364 325.09090909090907 L 327.8636363636364 325.09090909090907 L 322.2454545454545 325.09090909090907 L 322.2454545454545 325.09090909090907 Z" stroke-linejoin="bevel" stroke-miterlimit="10" stroke-opacity="0.3"/><path fill="navy" stroke="none" paint-order="stroke fill markers" d=" M 327.8636363636364 325.09090909090907 L 333.48181818181814 325.09090909090907 L 333.48181818181814 325.09090909090907 L 327.8636363636364 325.09090909090907 L 327.8636363636364 325.09090909090907 Z" fill-opacity="0.3"/><path fill="none" stroke="white" paint-order="fill stroke markers" d=" M 327.8636363636364 325.09090909090907 L 333.48181818181814 325.09090909090907 L 333.48181818181814 325.09090909090907 L 327.8636363636364 325.09090909090907 L 327.8636363636364 325.09090909090907 Z" stroke-linejoin="bevel" stroke-miterlimit="10" stroke-opacity="0.3"/><path fill="navy" stroke="none" paint-order="stroke fill markers" d=" M 333.48181818181814 325.09090909090907 L 339.09999999999997 325.09090909090907 L 339.09999999999997 325.09090909090907 L 333.48181818181814 325.09090909090907 L 333.48181818181814 325.09090909090907 Z" fill-opacity="0.3"/><path fill="none" stroke="white" paint-order="fill stroke markers" d=" M 333.48181818181814 325.09090909090907 L 339.09999999999997 325.09090909090907 L 339.09999999999997 325.09090909090907 L 333.48181818181814 325.09090909090907 L 333.48181818181814 325.09090909090907 Z" stroke-linejoin="bevel" stroke-miterlimit="10" stroke-opacity="0.3"/><path fill="navy" stroke="none" paint-order="stroke fill markers" d=" M 339.09999999999997 325.09090909090907 L 344.7181818181818 325.09090909090907 L 344.7181818181818 325.09090909090907 L 339.09999999999997 325.09090909090907 L 339.09999999999997 325.09090909090907 Z" fill-opacity="0.3"/><path fill="none" stroke="white" paint-order="fill stroke markers" d=" M 339.09999999999997 325.09090909090907 L 344.7181818181818 325.09090909090907 L 344.7181818181818 325.09090909090907 L 339.09999999999997 325.09090909090907 L 339.09999999999997 325.09090909090907 Z" stroke-linejoin="bevel" stroke-miterlimit="10" stroke-opacity="0.3"/><path fill="navy" stroke="none" paint-order="stroke fill markers" d=" M 344.7181818181818 325.09090909090907 L 350.3363636363636 325.09090909090907 L 350.3363636363636 325.09090909090907 L 344.7181818181818 325.09090909090907 L 344.7181818181818 325.09090909090907 Z" fill-opacity="0.3"/><path fill="none" stroke="white" paint-order="fill stroke markers" d=" M 344.7181818181818 325.09090909090907 L 350.3363636363636 325.09090909090907 L 350.3363636363636 325.09090909090907 L 344.7181818181818 325.09090909090907 L 344.7181818181818 325.09090909090907 Z" stroke-linejoin="bevel" stroke-miterlimit="10" stroke-opacity="0.3"/><path fill="navy" stroke="none" paint-order="stroke fill markers" d=" M 350.3363636363636 299.80165289256195 L 355.95454545454544 299.80165289256195 L 355.95454545454544 325.09090909090907 L 350.3363636363636 325.09090909090907 L 350.3363636363636 299.80165289256195 Z" fill-opacity="0.3"/><path fill="none" stroke="white" paint-order="fill stroke markers" d=" M 350.3363636363636 299.80165289256195 L 355.95454545454544 299.80165289256195 L 355.95454545454544 325.09090909090907 L 350.3363636363636 325.09090909090907 L 350.3363636363636 299.80165289256195 Z" stroke-linejoin="bevel" stroke-miterlimit="10" stroke-opacity="0.3"/></g></g></g><g clip-path="url(#TZTiWJCIEcDD)"><g><g><path fill="none" stroke="red" paint-order="fill stroke markers" d=" M 87.0963204073108 33 L 87.0963204073108 339" stroke-linejoin="bevel" stroke-miterlimit="10" stroke-width="3" stroke-dasharray="6"/></g></g></g><g><g fill="#444444"><path fill="" stroke="none" d=""/><g transform="translate(215.5,5)"><path fill="none" stroke="none"/><text fill="" stroke="none" font-family="helvetica" font-size="12pt" font-style="normal" font-weight="bold" text-decoration="normal" x="0" y="0" text-anchor="middle" dominant-baseline="text-before-edge">Inter-molecular distances/Linker EDC</text></g></g></g><g/><g><g fill="#444444"><path fill="none" stroke="black" paint-order="fill stroke markers" d=" M 61 339 L 370 339" stroke-linejoin="bevel" stroke-miterlimit="10"/><path fill="none" stroke="black" paint-order="fill stroke markers" d=" M 64 345 L 64 337" stroke-linejoin="bevel" stroke-miterlimit="10"/><path fill="none" stroke="black" paint-order="fill stroke markers" d=" M 122 345 L 122 337" stroke-linejoin="bevel" stroke-miterlimit="10"/><path fill="none" stroke="black" paint-order="fill stroke markers" d=" M 180 345 L 180 337" stroke-linejoin="bevel" stroke-miterlimit="10"/><path fill="none" stroke="black" paint-order="fill stroke markers" d=" M 238 345 L 238 337" stroke-linejoin="bevel" stroke-miterlimit="10"/><path fill="none" stroke="black" paint-order="fill stroke markers" d=" M 297 345 L 297 337" stroke-linejoin="bevel" stroke-miterlimit="10"/><path fill="none" stroke="black" paint-order="fill stroke markers" d=" M 355 345 L 355 337" stroke-linejoin="bevel" stroke-miterlimit="10"/><path fill="none" stroke="black" paint-order="fill stroke markers" d=" M 64 343 L 64 339" stroke-linejoin="bevel" stroke-miterlimit="10"/><path fill="none" stroke="black" paint-order="fill stroke markers" d=" M 75 343 L 75 339" stroke-linejoin="bevel" stroke-miterlimit="10"/><path fill="none" stroke="black" paint-order="fill stroke markers" d=" M 87 343 L 87 339" stroke-linejoin="bevel" stroke-miterlimit="10"/><path fill="none" stroke="black" paint-order="fill stroke markers" d=" M 99 343 L 99 339" stroke-linejoin="bevel" stroke-miterlimit="10"/><path fill="none" stroke="black" paint-order="fill stroke markers" d=" M 110 343 L 110 339" stroke-linejoin="bevel" stroke-miterlimit="10"/><path fill="none" stroke="black" paint-order="fill stroke markers" d=" M 122 343 L 122 339" stroke-linejoin="bevel" stroke-miterlimit="10"/><path fill="none" stroke="black" paint-order="fill stroke markers" d=" M 134 343 L 134 339" stroke-linejoin="bevel" stroke-miterlimit="10"/><path fill="none" stroke="black" paint-order="fill stroke markers" d=" M 145 343 L 145 339" stroke-linejoin="bevel" stroke-miterlimit="10"/><path fill="none" stroke="black" paint-order="fill stroke markers" d=" M 157 343 L 157 339" stroke-linejoin="bevel" stroke-miterlimit="10"/><path fill="none" stroke="black" paint-order="fill stroke markers" d=" M 169 343 L 169 339" stroke-linejoin="bevel" stroke-miterlimit="10"/><path fill="none" stroke="black" paint-order="fill stroke markers" d=" M 180 343 L 180 339" stroke-linejoin="bevel" stroke-miterlimit="10"/><path fill="none" stroke="black" paint-order="fill stroke markers" d=" M 192 343 L 192 339" stroke-linejoin="bevel" stroke-miterlimit="10"/><path fill="none" stroke="black" paint-order="fill stroke markers" d=" M 203 343 L 203 339" stroke-linejoin="bevel" stroke-miterlimit="10"/><path fill="none" stroke="black" paint-order="fill stroke markers" d=" M 215 343 L 215 339" stroke-linejoin="bevel" stroke-miterlimit="10"/><path fill="none" stroke="black" paint-order="fill stroke markers" d=" M 227 343 L 227 339" stroke-linejoin="bevel" stroke-miterlimit="10"/><path fill="none" stroke="black" paint-order="fill stroke markers" d=" M 238 343 L 238 339" stroke-linejoin="bevel" stroke-miterlimit="10"/><path fill="none" stroke="black" paint-order="fill stroke markers" d=" M 250 343 L 250 339" stroke-linejoin="bevel" stroke-miterlimit="10"/><path fill="none" stroke="black" paint-order="fill stroke markers" d=" M 262 343 L 262 339" stroke-linejoin="bevel" stroke-miterlimit="10"/><path fill="none" stroke="black" paint-order="fill stroke markers" d=" M 273 343 L 273 339" stroke-linejoin="bevel" stroke-miterlimit="10"/><path fill="none" stroke="black" paint-order="fill stroke markers" d=" M 285 343 L 285 339" stroke-linejoin="bevel" stroke-miterlimit="10"/><path fill="none" stroke="black" paint-order="fill stroke markers" d=" M 297 343 L 297 339" stroke-linejoin="bevel" stroke-miterlimit="10"/><path fill="none" stroke="black" paint-order="fill stroke markers" d=" M 308 343 L 308 339" stroke-linejoin="bevel" stroke-miterlimit="10"/><path fill="none" stroke="black" paint-order="fill stroke markers" d=" M 320 343 L 320 339" stroke-linejoin="bevel" stroke-miterlimit="10"/><path fill="none" stroke="black" paint-order="fill stroke markers" d=" M 331 343 L 331 339" stroke-linejoin="bevel" stroke-miterlimit="10"/><path fill="none" stroke="black" paint-order="fill stroke markers" d=" M 343 343 L 343 339" stroke-linejoin="bevel" stroke-miterlimit="10"/><path fill="none" stroke="black" paint-order="fill stroke markers" d=" M 355 343 L 355 339" stroke-linejoin="bevel" stroke-miterlimit="10"/><path fill="" stroke="black" paint-order="fill stroke markers" d=" M 366 343 L 366 339" stroke-linejoin="bevel" stroke-miterlimit="10"/><g transform="translate(64,350) rotate(0,0,0)"><text fill="" stroke="none" font-family="helvetica" font-size="14pt" font-style="normal" font-weight="normal" text-decoration="normal" x="0" y="0" text-anchor="middle" dominant-baseline="hanging">0</text><g transform="rotate(0,0,0) translate(-64,-350) translate(122,350) rotate(0,0,0)"><text fill="" stroke="none" font-family="helvetica" font-size="14pt" font-style="normal" font-weight="normal" text-decoration="normal" x="0" y="0" text-anchor="middle" dominant-baseline="hanging">50</text><g transform="rotate(0,0,0) translate(-122,-350) translate(180,350) rotate(0,0,0)"><text fill="" stroke="none" font-family="helvetica" font-size="14pt" font-style="normal" font-weight="normal" text-decoration="normal" x="0" y="0" text-anchor="middle" dominant-baseline="hanging">100</text><g transform="rotate(0,0,0) translate(-180,-350) translate(238,350) rotate(0,0,0)"><text fill="" stroke="none" font-family="helvetica" font-size="14pt" font-style="normal" font-weight="normal" text-decoration="normal" x="0" y="0" text-anchor="middle" dominant-baseline="hanging">150</text><g transform="rotate(0,0,0) translate(-238,-350) translate(297,350) rotate(0,0,0)"><text fill="" stroke="none" font-family="helvetica" font-size="14pt" font-style="normal" font-weight="normal" text-decoration="normal" x="0" y="0" text-anchor="middle" dominant-baseline="hanging">200</text><g transform="rotate(0,0,0) translate(-297,-350) translate(355,350) rotate(0,0,0)"><text fill="" stroke="none" font-family="helvetica" font-size="14pt" font-style="normal" font-weight="normal" text-decoration="normal" x="0" y="0" text-anchor="middle" dominant-baseline="hanging">250</text><g transform="rotate(0,0,0) translate(-355,-350) translate(216,377) rotate(0,0,0)"><text fill="" stroke="none" font-family="helvetica" font-size="14pt" font-style="italic" font-weight="normal" text-decoration="normal" x="0" y="0" text-anchor="middle" dominant-baseline="hanging">Distance Å</text><g transform="rotate(0,0,0) translate(-216,-377)"/></g></g></g></g></g></g></g></g></g><g><g fill="#444444"><path fill="none" stroke="black" paint-order="fill stroke markers" d=" M 61 339 L 61 33" stroke-linejoin="bevel" stroke-miterlimit="10"/><path fill="none" stroke="black" paint-order="fill stroke markers" d=" M 55 325 L 63 325" stroke-linejoin="bevel" stroke-miterlimit="10"/><path fill="none" stroke="black" paint-order="fill stroke markers" d=" M 55 275 L 63 275" stroke-linejoin="bevel" stroke-miterlimit="10"/><path fill="none" stroke="black" paint-order="fill stroke markers" d=" M 55 224 L 63 224" stroke-linejoin="bevel" stroke-miterlimit="10"/><path fill="none" stroke="black" paint-order="fill stroke markers" d=" M 55 173 L 63 173" stroke-linejoin="bevel" stroke-miterlimit="10"/><path fill="none" stroke="black" paint-order="fill stroke markers" d=" M 55 123 L 63 123" stroke-linejoin="bevel" stroke-miterlimit="10"/><path fill="none" stroke="black" paint-order="fill stroke markers" d=" M 55 72 L 63 72" stroke-linejoin="bevel" stroke-miterlimit="10"/><path fill="none" stroke="black" paint-order="fill stroke markers" d=" M 57 335 L 61 335" stroke-linejoin="bevel" stroke-miterlimit="10"/><path fill="none" stroke="black" paint-order="fill stroke markers" d=" M 57 325 L 61 325" stroke-linejoin="bevel" stroke-miterlimit="10"/><path fill="none" stroke="black" paint-order="fill stroke markers" d=" M 57 315 L 61 315" stroke-linejoin="bevel" stroke-miterlimit="10"/><path fill="none" stroke="black" paint-order="fill stroke markers" d=" M 57 305 L 61 305" stroke-linejoin="bevel" stroke-miterlimit="10"/><path fill="none" stroke="black" paint-order="fill stroke markers" d=" M 57 295 L 61 295" stroke-linejoin="bevel" stroke-miterlimit="10"/><path fill="none" stroke="black" paint-order="fill stroke markers" d=" M 57 285 L 61 285" stroke-linejoin="bevel" stroke-miterlimit="10"/><path fill="none" stroke="black" paint-order="fill stroke markers" d=" M 57 275 L 61 275" stroke-linejoin="bevel" stroke-miterlimit="10"/><path fill="none" stroke="black" paint-order="fill stroke markers" d=" M 57 264 L 61 264" stroke-linejoin="bevel" stroke-miterlimit="10"/><path fill="none" stroke="black" paint-order="fill stroke markers" d=" M 57 254 L 61 254" stroke-linejoin="bevel" stroke-miterlimit="10"/><path fill="none" stroke="black" paint-order="fill stroke markers" d=" M 57 244 L 61 244" stroke-linejoin="bevel" stroke-miterlimit="10"/><path fill="none" stroke="black" paint-order="fill stroke markers" d=" M 57 234 L 61 234" stroke-linejoin="bevel" stroke-miterlimit="10"/><path fill="none" stroke="black" paint-order="fill stroke markers" d=" M 57 224 L 61 224" stroke-linejoin="bevel" stroke-miterlimit="10"/><path fill="none" stroke="black" paint-order="fill stroke markers" d=" M 57 214 L 61 214" stroke-linejoin="bevel" stroke-miterlimit="10"/><path fill="none" stroke="black" paint-order="fill stroke markers" d=" M 57 204 L 61 204" stroke-linejoin="bevel" stroke-miterlimit="10"/><path fill="none" stroke="black" paint-order="fill stroke markers" d=" M 57 194 L 61 194" stroke-linejoin="bevel" stroke-miterlimit="10"/><path fill="none" stroke="black" paint-order="fill stroke markers" d=" M 57 183 L 61 183" stroke-linejoin="bevel" stroke-miterlimit="10"/><path fill="none" stroke="black" paint-order="fill stroke markers" d=" M 57 173 L 61 173" stroke-linejoin="bevel" stroke-miterlimit="10"/><path fill="none" stroke="black" paint-order="fill stroke markers" d=" M 57 163 L 61 163" stroke-linejoin="bevel" stroke-miterlimit="10"/><path fill="none" stroke="black" paint-order="fill stroke markers" d=" M 57 153 L 61 153" stroke-linejoin="bevel" stroke-miterlimit="10"/><path fill="none" stroke="black" paint-order="fill stroke markers" d=" M 57 143 L 61 143" stroke-linejoin="bevel" stroke-miterlimit="10"/><path fill="none" stroke="black" paint-order="fill stroke markers" d=" M 57 133 L 61 133" stroke-linejoin="bevel" stroke-miterlimit="10"/><path fill="none" stroke="black" paint-order="fill stroke markers" d=" M 57 123 L 61 123" stroke-linejoin="bevel" stroke-miterlimit="10"/><path fill="none" stroke="black" paint-order="fill stroke markers" d=" M 57 113 L 61 113" stroke-linejoin="bevel" stroke-miterlimit="10"/><path fill="none" stroke="black" paint-order="fill stroke markers" d=" M 57 103 L 61 103" stroke-linejoin="bevel" stroke-miterlimit="10"/><path fill="none" stroke="black" paint-order="fill stroke markers" d=" M 57 92 L 61 92" stroke-linejoin="bevel" stroke-miterlimit="10"/><path fill="none" stroke="black" paint-order="fill stroke markers" d=" M 57 82 L 61 82" stroke-linejoin="bevel" stroke-miterlimit="10"/><path fill="none" stroke="black" paint-order="fill stroke markers" d=" M 57 72 L 61 72" stroke-linejoin="bevel" stroke-miterlimit="10"/><path fill="none" stroke="black" paint-order="fill stroke markers" d=" M 57 62 L 61 62" stroke-linejoin="bevel" stroke-miterlimit="10"/><path fill="none" stroke="black" paint-order="fill stroke markers" d=" M 57 52 L 61 52" stroke-linejoin="bevel" stroke-miterlimit="10"/><path fill="" stroke="black" paint-order="fill stroke markers" d=" M 57 42 L 61 42" stroke-linejoin="bevel" stroke-miterlimit="10"/><g transform="translate(50,325) rotate(0,0,0)"><text fill="" stroke="none" font-family="helvetica" font-size="14pt" font-style="normal" font-weight="normal" text-decoration="normal" x="0" y="0" text-anchor="end" dominant-baseline="central">0</text><g transform="rotate(0,0,0) translate(-50,-325) translate(50,275) rotate(0,0,0)"><text fill="" stroke="none" font-family="helvetica" font-size="14pt" font-style="normal" font-weight="normal" text-decoration="normal" x="0" y="0" text-anchor="end" dominant-baseline="central">2</text><g transform="rotate(0,0,0) translate(-50,-275) translate(50,224) rotate(0,0,0)"><text fill="" stroke="none" font-family="helvetica" font-size="14pt" font-style="normal" font-weight="normal" text-decoration="normal" x="0" y="0" text-anchor="end" dominant-baseline="central">4</text><g transform="rotate(0,0,0) translate(-50,-224) translate(50,173) rotate(0,0,0)"><text fill="" stroke="none" font-family="helvetica" font-size="14pt" font-style="normal" font-weight="normal" text-decoration="normal" x="0" y="0" text-anchor="end" dominant-baseline="central">6</text><g transform="rotate(0,0,0) translate(-50,-173) translate(50,123) rotate(0,0,0)"><text fill="" stroke="none" font-family="helvetica" font-size="14pt" font-style="normal" font-weight="normal" text-decoration="normal" x="0" y="0" text-anchor="end" dominant-baseline="central">8</text><g transform="rotate(0,0,0) translate(-50,-123) translate(50,72) rotate(0,0,0)"><text fill="" stroke="none" font-family="helvetica" font-size="14pt" font-style="normal" font-weight="normal" text-decoration="normal" x="0" y="0" text-anchor="end" dominant-baseline="central">10</text><g transform="rotate(0,0,0) translate(-50,-72) translate(22,186) rotate(-90,0,0)"><text fill="" stroke="none" font-family="helvetica" font-size="14pt" font-style="italic" font-weight="normal" text-decoration="normal" x="0" y="0" text-anchor="middle" dominant-baseline="alphabetic">Number of cross-links</text><g transform="rotate(90,0,0) translate(-22,-186)"/></g></g></g></g></g></g></g></g></g><g clip-path="url(#yCaMhhZAqOrU)"><g/></g></g><g transform="scale(1,1) translate(0.5,0.5)"><rect fill="#FFFFFF" stroke="none" x="0" y="0" width="400" height="400"/><rect fill="#ffffff" stroke="none" x="0" y="0" width="400" height="400"/><rect fill="#FFFFFF" stroke="none" x="61" y="33" width="309" height="306"/><rect fill="#ffffff" stroke="none" x="61" y="33" width="309" height="306"/><g><rect fill="none" stroke="#e5e5e5" x="61" y="33" width="309" height="306" stroke-linejoin="bevel" stroke-miterlimit="10"/></g><g clip-path="url(#wdWEspiWGmLu)"><g><g><path fill="none" stroke="#e5e5e5" paint-order="fill stroke markers" d=" M 64 339 L 64 33" stroke-linejoin="bevel" stroke-miterlimit="10"/><path fill="none" stroke="#e5e5e5" paint-order="fill stroke markers" d=" M 122 339 L 122 33" stroke-linejoin="bevel" stroke-miterlimit="10"/><path fill="none" stroke="#e5e5e5" paint-order="fill stroke markers" d=" M 180 339 L 180 33" stroke-linejoin="bevel" stroke-miterlimit="10"/><path fill="none" stroke="#e5e5e5" paint-order="fill stroke markers" d=" M 238 339 L 238 33" stroke-linejoin="bevel" stroke-miterlimit="10"/><path fill="none" stroke="#e5e5e5" paint-order="fill stroke markers" d=" M 297 339 L 297 33" stroke-linejoin="bevel" stroke-miterlimit="10"/><path fill="none" stroke="#e5e5e5" paint-order="fill stroke markers" d=" M 355 339 L 355 33" stroke-linejoin="bevel" stroke-miterlimit="10"/></g></g></g><g clip-path="url(#pgWAkxwlZpve)"><g><g><path fill="none" stroke="#e5e5e5" paint-order="fill stroke markers" d=" M 61 325 L 370 325" stroke-linejoin="bevel" stroke-miterlimit="10"/><path fill="none" stroke="#e5e5e5" paint-order="fill stroke markers" d=" M 61 275 L 370 275" stroke-linejoin="bevel" stroke-miterlimit="10"/><path fill="none" stroke="#e5e5e5" paint-order="fill stroke markers" d=" M 61 224 L 370 224" stroke-linejoin="bevel" stroke-miterlimit="10"/><path fill="none" stroke="#e5e5e5" paint-order="fill stroke markers" d=" M 61 173 L 370 173" stroke-linejoin="bevel" stroke-miterlimit="10"/><path fill="none" stroke="#e5e5e5" paint-order="fill stroke markers" d=" M 61 123 L 370 123" stroke-linejoin="bevel" stroke-miterlimit="10"/><path fill="none" stroke="#e5e5e5" paint-order="fill stroke markers" d=" M 61 72 L 370 72" stroke-linejoin="bevel" stroke-miterlimit="10"/></g></g></g><g clip-path="url(#egTbdVibIevf)"><g><g><path fill="none" stroke="none"/><path fill="navy" stroke="none" paint-order="stroke fill markers" d=" M 75.04545454545455 46.909090909090935 L 80.66363636363636 46.909090909090935 L 80.66363636363636 325.09090909090907 L 75.04545454545455 325.09090909090907 L 75.04545454545455 46.909090909090935 Z" fill-opacity="0.3"/><path fill="none" stroke="white" paint-order="fill stroke markers" d=" M 75.04545454545455 46.909090909090935 L 80.66363636363636 46.909090909090935 L 80.66363636363636 325.09090909090907 L 75.04545454545455 325.09090909090907 L 75.04545454545455 46.909090909090935 Z" stroke-linejoin="bevel" stroke-miterlimit="10" stroke-opacity="0.3"/><path fill="navy" stroke="none" paint-order="stroke fill markers" d=" M 80.66363636363636 72.19834710743802 L 86.28181818181818 72.19834710743802 L 86.28181818181818 325.09090909090907 L 80.66363636363636 325.09090909090907 L 80.66363636363636 72.19834710743802 Z" fill-opacity="0.3"/><path fill="none" stroke="white" paint-order="fill stroke markers" d=" M 80.66363636363636 72.19834710743802 L 86.28181818181818 72.19834710743802 L 86.28181818181818 325.09090909090907 L 80.66363636363636 325.09090909090907 L 80.66363636363636 72.19834710743802 Z" stroke-linejoin="bevel" stroke-miterlimit="10" stroke-opacity="0.3"/><path fill="navy" stroke="none" paint-order="stroke fill markers" d=" M 86.28181818181818 97.48760330578511 L 91.9 97.48760330578511 L 91.9 325.09090909090907 L 86.28181818181818 325.09090909090907 L 86.28181818181818 97.48760330578511 Z" fill-opacity="0.3"/><path fill="none" stroke="white" paint-order="fill stroke markers" d=" M 86.28181818181818 97.48760330578511 L 91.9 97.48760330578511 L 91.9 325.09090909090907 L 86.28181818181818 325.09090909090907 L 86.28181818181818 97.48760330578511 Z" stroke-linejoin="bevel" stroke-miterlimit="10" stroke-opacity="0.3"/><path fill="navy" stroke="none" paint-order="stroke fill markers" d=" M 91.9 274.5123966942149 L 97.51818181818183 274.5123966942149 L 97.51818181818183 325.09090909090907 L 91.9 325.09090909090907 L 91.9 274.5123966942149 Z" fill-opacity="0.3"/><path fill="none" stroke="white" paint-order="fill stroke markers" d=" M 91.9 274.5123966942149 L 97.51818181818183 274.5123966942149 L 97.51818181818183 325.09090909090907 L 91.9 325.09090909090907 L 91.9 274.5123966942149 Z" stroke-linejoin="bevel" stroke-miterlimit="10" stroke-opacity="0.3"/><path fill="navy" stroke="none" paint-order="stroke fill markers" d=" M 97.51818181818183 223.93388429752065 L 103.13636363636364 223.93388429752065 L 103.13636363636364 325.09090909090907 L 97.51818181818183 325.09090909090907 L 97.51818181818183 223.93388429752065 Z" fill-opacity="0.3"/><path fill="none" stroke="white" paint-order="fill stroke markers" d=" M 97.51818181818183 223.93388429752065 L 103.13636363636364 223.93388429752065 L 103.13636363636364 325.09090909090907 L 97.51818181818183 325.09090909090907 L 97.51818181818183 223.93388429752065 Z" stroke-linejoin="bevel" stroke-miterlimit="10" stroke-opacity="0.3"/><path fill="navy" stroke="none" paint-order="stroke fill markers" d=" M 103.13636363636364 299.80165289256195 L 108.75454545454545 299.80165289256195 L 108.75454545454545 325.09090909090907 L 103.13636363636364 325.09090909090907 L 103.13636363636364 299.80165289256195 Z" fill-opacity="0.3"/><path fill="none" stroke="white" paint-order="fill stroke markers" d=" M 103.13636363636364 299.80165289256195 L 108.75454545454545 299.80165289256195 L 108.75454545454545 325.09090909090907 L 103.13636363636364 325.09090909090907 L 103.13636363636364 299.80165289256195 Z" stroke-linejoin="bevel" stroke-miterlimit="10" stroke-opacity="0.3"/><path fill="navy" stroke="none" paint-order="stroke fill markers" d=" M 108.75454545454545 274.5123966942149 L 114.37272727272727 274.5123966942149 L 114.37272727272727 325.09090909090907 L 108.75454545454545 325.09090909090907 L 108.75454545454545 274.5123966942149 Z" fill-opacity="0.3"/><path fill="none" stroke="white" paint-order="fill stroke markers" d=" M 108.75454545454545 274.5123966942149 L 114.37272727272727 274.5123966942149 L 114.37272727272727 325.09090909090907 L 108.75454545454545 325.09090909090907 L 108.75454545454545 274.5123966942149 Z" stroke-linejoin="bevel" stroke-miterlimit="10" stroke-opacity="0.3"/><path fill="navy" stroke="none" paint-order="stroke fill markers" d=" M 114.37272727272727 325.09090909090907 L 119.9909090909091 325.09090909090907 L 119.9909090909091 325.09090909090907 L 114.37272727272727 325.09090909090907 L 114.37272727272727 325.09090909090907 Z" fill-opacity="0.3"/><path fill="none" stroke="white" paint-order="fill stroke markers" d=" M 114.37272727272727 325.09090909090907 L 119.9909090909091 325.09090909090907 L 119.9909090909091 325.09090909090907 L 114.37272727272727 325.09090909090907 L 114.37272727272727 325.09090909090907 Z" stroke-linejoin="bevel" stroke-miterlimit="10" stroke-opacity="0.3"/><path fill="navy" stroke="none" paint-order="stroke fill markers" d=" M 119.9909090909091 299.80165289256195 L 125.60909090909091 299.80165289256195 L 125.60909090909091 325.09090909090907 L 119.9909090909091 325.09090909090907 L 119.9909090909091 299.80165289256195 Z" fill-opacity="0.3"/><path fill="none" stroke="white" paint-order="fill stroke markers" d=" M 119.9909090909091 299.80165289256195 L 125.60909090909091 299.80165289256195 L 125.60909090909091 325.09090909090907 L 119.9909090909091 325.09090909090907 L 119.9909090909091 299.80165289256195 Z" stroke-linejoin="bevel" stroke-miterlimit="10" stroke-opacity="0.3"/><path fill="navy" stroke="none" paint-order="stroke fill markers" d=" M 125.60909090909091 325.09090909090907 L 131.22727272727272 325.09090909090907 L 131.22727272727272 325.09090909090907 L 125.60909090909091 325.09090909090907 L 125.60909090909091 325.09090909090907 Z" fill-opacity="0.3"/><path fill="none" stroke="white" paint-order="fill stroke markers" d=" M 125.60909090909091 325.09090909090907 L 131.22727272727272 325.09090909090907 L 131.22727272727272 325.09090909090907 L 125.60909090909091 325.09090909090907 L 125.60909090909091 325.09090909090907 Z" stroke-linejoin="bevel" stroke-miterlimit="10" stroke-opacity="0.3"/><path fill="navy" stroke="none" paint-order="stroke fill markers" d=" M 131.22727272727272 299.80165289256195 L 136.84545454545454 299.80165289256195 L 136.84545454545454 325.09090909090907 L 131.22727272727272 325.09090909090907 L 131.22727272727272 299.80165289256195 Z" fill-opacity="0.3"/><path fill="none" stroke="white" paint-order="fill stroke markers" d=" M 131.22727272727272 299.80165289256195 L 136.84545454545454 299.80165289256195 L 136.84545454545454 325.09090909090907 L 131.22727272727272 325.09090909090907 L 131.22727272727272 299.80165289256195 Z" stroke-linejoin="bevel" stroke-miterlimit="10" stroke-opacity="0.3"/><path fill="navy" stroke="none" paint-order="stroke fill markers" d=" M 136.84545454545454 274.5123966942149 L 142.46363636363637 274.5123966942149 L 142.46363636363637 325.09090909090907 L 136.84545454545454 325.09090909090907 L 136.84545454545454 274.5123966942149 Z" fill-opacity="0.3"/><path fill="none" stroke="white" paint-order="fill stroke markers" d=" M 136.84545454545454 274.5123966942149 L 142.46363636363637 274.5123966942149 L 142.46363636363637 325.09090909090907 L 136.84545454545454 325.09090909090907 L 136.84545454545454 274.5123966942149 Z" stroke-linejoin="bevel" stroke-miterlimit="10" stroke-opacity="0.3"/><path fill="navy" stroke="none" paint-order="stroke fill markers" d=" M 142.46363636363637 299.80165289256195 L 148.08181818181816 299.80165289256195 L 148.08181818181816 325.09090909090907 L 142.46363636363637 325.09090909090907 L 142.46363636363637 299.80165289256195 Z" fill-opacity="0.3"/><path fill="none" stroke="white" paint-order="fill stroke markers" d=" M 142.46363636363637 299.80165289256195 L 148.08181818181816 299.80165289256195 L 148.08181818181816 325.09090909090907 L 142.46363636363637 325.09090909090907 L 142.46363636363637 299.80165289256195 Z" stroke-linejoin="bevel" stroke-miterlimit="10" stroke-opacity="0.3"/><path fill="navy" stroke="none" paint-order="stroke fill markers" d=" M 148.08181818181816 325.09090909090907 L 153.7 325.09090909090907 L 153.7 325.09090909090907 L 148.08181818181816 325.09090909090907 L 148.08181818181816 325.09090909090907 Z" fill-opacity="0.3"/><path fill="none" stroke="white" paint-order="fill stroke markers" d=" M 148.08181818181816 325.09090909090907 L 153.7 325.09090909090907 L 153.7 325.09090909090907 L 148.08181818181816 325.09090909090907 L 148.08181818181816 325.09090909090907 Z" stroke-linejoin="bevel" stroke-miterlimit="10" stroke-opacity="0.3"/><path fill="navy" stroke="none" paint-order="stroke fill markers" d=" M 153.7 325.09090909090907 L 159.3181818181818 325.09090909090907 L 159.3181818181818 325.09090909090907 L 153.7 325.09090909090907 L 153.7 325.09090909090907 Z" fill-opacity="0.3"/><path fill="none" stroke="white" paint-order="fill stroke markers" d=" M 153.7 325.09090909090907 L 159.3181818181818 325.09090909090907 L 159.3181818181818 325.09090909090907 L 153.7 325.09090909090907 L 153.7 325.09090909090907 Z" stroke-linejoin="bevel" stroke-miterlimit="10" stroke-opacity="0.3"/><path fill="navy" stroke="none" paint-order="stroke fill markers" d=" M 159.3181818181818 299.80165289256195 L 164.93636363636364 299.80165289256195 L 164.93636363636364 325.09090909090907 L 159.3181818181818 325.09090909090907 L 159.3181818181818 299.80165289256195 Z" fill-opacity="0.3"/><path fill="none" stroke="white" paint-order="fill stroke markers" d=" M 159.3181818181818 299.80165289256195 L 164.93636363636364 299.80165289256195 L 164.93636363636364 325.09090909090907 L 159.3181818181818 325.09090909090907 L 159.3181818181818 299.80165289256195 Z" stroke-linejoin="bevel" stroke-miterlimit="10" stroke-opacity="0.3"/><path fill="navy" stroke="none" paint-order="stroke fill markers" d=" M 164.93636363636364 325.09090909090907 L 170.55454545454546 325.09090909090907 L 170.55454545454546 325.09090909090907 L 164.93636363636364 325.09090909090907 L 164.93636363636364 325.09090909090907 Z" fill-opacity="0.3"/><path fill="none" stroke="white" paint-order="fill stroke markers" d=" M 164.93636363636364 325.09090909090907 L 170.55454545454546 325.09090909090907 L 170.55454545454546 325.09090909090907 L 164.93636363636364 325.09090909090907 L 164.93636363636364 325.09090909090907 Z" stroke-linejoin="bevel" stroke-miterlimit="10" stroke-opacity="0.3"/><path fill="navy" stroke="none" paint-order="stroke fill markers" d=" M 170.55454545454546 325.09090909090907 L 176.1727272727273 325.09090909090907 L 176.1727272727273 325.09090909090907 L 170.55454545454546 325.09090909090907 L 170.55454545454546 325.09090909090907 Z" fill-opacity="0.3"/><path fill="none" stroke="white" paint-order="fill stroke markers" d=" M 170.55454545454546 325.09090909090907 L 176.1727272727273 325.09090909090907 L 176.1727272727273 325.09090909090907 L 170.55454545454546 325.09090909090907 L 170.55454545454546 325.09090909090907 Z" stroke-linejoin="bevel" stroke-miterlimit="10" stroke-opacity="0.3"/><path fill="navy" stroke="none" paint-order="stroke fill markers" d=" M 176.1727272727273 325.09090909090907 L 181.79090909090908 325.09090909090907 L 181.79090909090908 325.09090909090907 L 176.1727272727273 325.09090909090907 L 176.1727272727273 325.09090909090907 Z" fill-opacity="0.3"/><path fill="none" stroke="white" paint-order="fill stroke markers" d=" M 176.1727272727273 325.09090909090907 L 181.79090909090908 325.09090909090907 L 181.79090909090908 325.09090909090907 L 176.1727272727273 325.09090909090907 L 176.1727272727273 325.09090909090907 Z" stroke-linejoin="bevel" stroke-miterlimit="10" stroke-opacity="0.3"/><path fill="navy" stroke="none" paint-order="stroke fill markers" d=" M 181.79090909090908 325.09090909090907 L 187.4090909090909 325.09090909090907 L 187.4090909090909 325.09090909090907 L 181.79090909090908 325.09090909090907 L 181.79090909090908 325.09090909090907 Z" fill-opacity="0.3"/><path fill="none" stroke="white" paint-order="fill stroke markers" d=" M 181.79090909090908 325.09090909090907 L 187.4090909090909 325.09090909090907 L 187.4090909090909 325.09090909090907 L 181.79090909090908 325.09090909090907 L 181.79090909090908 325.09090909090907 Z" stroke-linejoin="bevel" stroke-miterlimit="10" stroke-opacity="0.3"/><path fill="navy" stroke="none" paint-order="stroke fill markers" d=" M 187.4090909090909 325.09090909090907 L 193.02727272727273 325.09090909090907 L 193.02727272727273 325.09090909090907 L 187.4090909090909 325.09090909090907 L 187.4090909090909 325.09090909090907 Z" fill-opacity="0.3"/><path fill="none" stroke="white" paint-order="fill stroke markers" d=" M 187.4090909090909 325.09090909090907 L 193.02727272727273 325.09090909090907 L 193.02727272727273 325.09090909090907 L 187.4090909090909 325.09090909090907 L 187.4090909090909 325.09090909090907 Z" stroke-linejoin="bevel" stroke-miterlimit="10" stroke-opacity="0.3"/><path fill="navy" stroke="none" paint-order="stroke fill markers" d=" M 193.02727272727273 325.09090909090907 L 198.64545454545453 325.09090909090907 L 198.64545454545453 325.09090909090907 L 193.02727272727273 325.09090909090907 L 193.02727272727273 325.09090909090907 Z" fill-opacity="0.3"/><path fill="none" stroke="white" paint-order="fill stroke markers" d=" M 193.02727272727273 325.09090909090907 L 198.64545454545453 325.09090909090907 L 198.64545454545453 325.09090909090907 L 193.02727272727273 325.09090909090907 L 193.02727272727273 325.09090909090907 Z" stroke-linejoin="bevel" stroke-miterlimit="10" stroke-opacity="0.3"/><path fill="navy" stroke="none" paint-order="stroke fill markers" d=" M 198.64545454545453 325.09090909090907 L 204.26363636363635 325.09090909090907 L 204.26363636363635 325.09090909090907 L 198.64545454545453 325.09090909090907 L 198.64545454545453 325.09090909090907 Z" fill-opacity="0.3"/><path fill="none" stroke="white" paint-order="fill stroke markers" d=" M 198.64545454545453 325.09090909090907 L 204.26363636363635 325.09090909090907 L 204.26363636363635 325.09090909090907 L 198.64545454545453 325.09090909090907 L 198.64545454545453 325.09090909090907 Z" stroke-linejoin="bevel" stroke-miterlimit="10" stroke-opacity="0.3"/><path fill="navy" stroke="none" paint-order="stroke fill markers" d=" M 204.26363636363635 325.09090909090907 L 209.88181818181818 325.09090909090907 L 209.88181818181818 325.09090909090907 L 204.26363636363635 325.09090909090907 L 204.26363636363635 325.09090909090907 Z" fill-opacity="0.3"/><path fill="none" stroke="white" paint-order="fill stroke markers" d=" M 204.26363636363635 325.09090909090907 L 209.88181818181818 325.09090909090907 L 209.88181818181818 325.09090909090907 L 204.26363636363635 325.09090909090907 L 204.26363636363635 325.09090909090907 Z" stroke-linejoin="bevel" stroke-miterlimit="10" stroke-opacity="0.3"/><path fill="navy" stroke="none" paint-order="stroke fill markers" d=" M 209.88181818181818 325.09090909090907 L 215.49999999999997 325.09090909090907 L 215.49999999999997 325.09090909090907 L 209.88181818181818 325.09090909090907 L 209.88181818181818 325.09090909090907 Z" fill-opacity="0.3"/><path fill="none" stroke="white" paint-order="fill stroke markers" d=" M 209.88181818181818 325.09090909090907 L 215.49999999999997 325.09090909090907 L 215.49999999999997 325.09090909090907 L 209.88181818181818 325.09090909090907 L 209.88181818181818 325.09090909090907 Z" stroke-linejoin="bevel" stroke-miterlimit="10" stroke-opacity="0.3"/><path fill="navy" stroke="none" paint-order="stroke fill markers" d=" M 215.49999999999997 325.09090909090907 L 221.11818181818182 325.09090909090907 L 221.11818181818182 325.09090909090907 L 215.49999999999997 325.09090909090907 L 215.49999999999997 325.09090909090907 Z" fill-opacity="0.3"/><path fill="none" stroke="white" paint-order="fill stroke markers" d=" M 215.49999999999997 325.09090909090907 L 221.11818181818182 325.09090909090907 L 221.11818181818182 325.09090909090907 L 215.49999999999997 325.09090909090907 L 215.49999999999997 325.09090909090907 Z" stroke-linejoin="bevel" stroke-miterlimit="10" stroke-opacity="0.3"/><path fill="navy" stroke="none" paint-order="stroke fill markers" d=" M 221.11818181818182 325.09090909090907 L 226.7363636363636 325.09090909090907 L 226.7363636363636 325.09090909090907 L 221.11818181818182 325.09090909090907 L 221.11818181818182 325.09090909090907 Z" fill-opacity="0.3"/><path fill="none" stroke="white" paint-order="fill stroke markers" d=" M 221.11818181818182 325.09090909090907 L 226.7363636363636 325.09090909090907 L 226.7363636363636 325.09090909090907 L 221.11818181818182 325.09090909090907 L 221.11818181818182 325.09090909090907 Z" stroke-linejoin="bevel" stroke-miterlimit="10" stroke-opacity="0.3"/><path fill="navy" stroke="none" paint-order="stroke fill markers" d=" M 226.7363636363636 325.09090909090907 L 232.35454545454544 325.09090909090907 L 232.35454545454544 325.09090909090907 L 226.7363636363636 325.09090909090907 L 226.7363636363636 325.09090909090907 Z" fill-opacity="0.3"/><path fill="none" stroke="white" paint-order="fill stroke markers" d=" M 226.7363636363636 325.09090909090907 L 232.35454545454544 325.09090909090907 L 232.35454545454544 325.09090909090907 L 226.7363636363636 325.09090909090907 L 226.7363636363636 325.09090909090907 Z" stroke-linejoin="bevel" stroke-miterlimit="10" stroke-opacity="0.3"/><path fill="navy" stroke="none" paint-order="stroke fill markers" d=" M 232.35454545454544 325.09090909090907 L 237.97272727272727 325.09090909090907 L 237.97272727272727 325.09090909090907 L 232.35454545454544 325.09090909090907 L 232.35454545454544 325.09090909090907 Z" fill-opacity="0.3"/><path fill="none" stroke="white" paint-order="fill stroke markers" d=" M 232.35454545454544 325.09090909090907 L 237.97272727272727 325.09090909090907 L 237.97272727272727 325.09090909090907 L 232.35454545454544 325.09090909090907 L 232.35454545454544 325.09090909090907 Z" stroke-linejoin="bevel" stroke-miterlimit="10" stroke-opacity="0.3"/><path fill="navy" stroke="none" paint-order="stroke fill markers" d=" M 237.97272727272727 325.09090909090907 L 243.59090909090904 325.09090909090907 L 243.59090909090904 325.09090909090907 L 237.97272727272727 325.09090909090907 L 237.97272727272727 325.09090909090907 Z" fill-opacity="0.3"/><path fill="none" stroke="white" paint-order="fill stroke markers" d=" M 237.97272727272727 325.09090909090907 L 243.59090909090904 325.09090909090907 L 243.59090909090904 325.09090909090907 L 237.97272727272727 325.09090909090907 L 237.97272727272727 325.09090909090907 Z" stroke-linejoin="bevel" stroke-miterlimit="10" stroke-opacity="0.3"/><path fill="navy" stroke="none" paint-order="stroke fill markers" d=" M 243.59090909090904 325.09090909090907 L 249.2090909090909 325.09090909090907 L 249.2090909090909 325.09090909090907 L 243.59090909090904 325.09090909090907 L 243.59090909090904 325.09090909090907 Z" fill-opacity="0.3"/><path fill="none" stroke="white" paint-order="fill stroke markers" d=" M 243.59090909090904 325.09090909090907 L 249.2090909090909 325.09090909090907 L 249.2090909090909 325.09090909090907 L 243.59090909090904 325.09090909090907 L 243.59090909090904 325.09090909090907 Z" stroke-linejoin="bevel" stroke-miterlimit="10" stroke-opacity="0.3"/><path fill="navy" stroke="none" paint-order="stroke fill markers" d=" M 249.2090909090909 325.09090909090907 L 254.8272727272727 325.09090909090907 L 254.8272727272727 325.09090909090907 L 249.2090909090909 325.09090909090907 L 249.2090909090909 325.09090909090907 Z" fill-opacity="0.3"/><path fill="none" stroke="white" paint-order="fill stroke markers" d=" M 249.2090909090909 325.09090909090907 L 254.8272727272727 325.09090909090907 L 254.8272727272727 325.09090909090907 L 249.2090909090909 325.09090909090907 L 249.2090909090909 325.09090909090907 Z" stroke-linejoin="bevel" stroke-miterlimit="10" stroke-opacity="0.3"/><path fill="navy" stroke="none" paint-order="stroke fill markers" d=" M 254.8272727272727 325.09090909090907 L 260.44545454545454 325.09090909090907 L 260.44545454545454 325.09090909090907 L 254.8272727272727 325.09090909090907 L 254.8272727272727 325.09090909090907 Z" fill-opacity="0.3"/><path fill="none" stroke="white" paint-order="fill stroke markers" d=" M 254.8272727272727 325.09090909090907 L 260.44545454545454 325.09090909090907 L 260.44545454545454 325.09090909090907 L 254.8272727272727 325.09090909090907 L 254.8272727272727 325.09090909090907 Z" stroke-linejoin="bevel" stroke-miterlimit="10" stroke-opacity="0.3"/><path fill="navy" stroke="none" paint-order="stroke fill markers" d=" M 260.44545454545454 325.09090909090907 L 266.06363636363636 325.09090909090907 L 266.06363636363636 325.09090909090907 L 260.44545454545454 325.09090909090907 L 260.44545454545454 325.09090909090907 Z" fill-opacity="0.3"/><path fill="none" stroke="white" paint-order="fill stroke markers" d=" M 260.44545454545454 325.09090909090907 L 266.06363636363636 325.09090909090907 L 266.06363636363636 325.09090909090907 L 260.44545454545454 325.09090909090907 L 260.44545454545454 325.09090909090907 Z" stroke-linejoin="bevel" stroke-miterlimit="10" stroke-opacity="0.3"/><path fill="navy" stroke="none" paint-order="stroke fill markers" d=" M 266.06363636363636 325.09090909090907 L 271.6818181818182 325.09090909090907 L 271.6818181818182 325.09090909090907 L 266.06363636363636 325.09090909090907 L 266.06363636363636 325.09090909090907 Z" fill-opacity="0.3"/><path fill="none" stroke="white" paint-order="fill stroke markers" d=" M 266.06363636363636 325.09090909090907 L 271.6818181818182 325.09090909090907 L 271.6818181818182 325.09090909090907 L 266.06363636363636 325.09090909090907 L 266.06363636363636 325.09090909090907 Z" stroke-linejoin="bevel" stroke-miterlimit="10" stroke-opacity="0.3"/><path fill="navy" stroke="none" paint-order="stroke fill markers" d=" M 271.6818181818182 325.09090909090907 L 277.3 325.09090909090907 L 277.3 325.09090909090907 L 271.6818181818182 325.09090909090907 L 271.6818181818182 325.09090909090907 Z" fill-opacity="0.3"/><path fill="none" stroke="white" paint-order="fill stroke markers" d=" M 271.6818181818182 325.09090909090907 L 277.3 325.09090909090907 L 277.3 325.09090909090907 L 271.6818181818182 325.09090909090907 L 271.6818181818182 325.09090909090907 Z" stroke-linejoin="bevel" stroke-miterlimit="10" stroke-opacity="0.3"/><path fill="navy" stroke="none" paint-order="stroke fill markers" d=" M 277.3 325.09090909090907 L 282.91818181818184 325.09090909090907 L 282.91818181818184 325.09090909090907 L 277.3 325.09090909090907 L 277.3 325.09090909090907 Z" fill-opacity="0.3"/><path fill="none" stroke="white" paint-order="fill stroke markers" d=" M 277.3 325.09090909090907 L 282.91818181818184 325.09090909090907 L 282.91818181818184 325.09090909090907 L 277.3 325.09090909090907 L 277.3 325.09090909090907 Z" stroke-linejoin="bevel" stroke-miterlimit="10" stroke-opacity="0.3"/><path fill="navy" stroke="none" paint-order="stroke fill markers" d=" M 282.91818181818184 325.09090909090907 L 288.5363636363636 325.09090909090907 L 288.5363636363636 325.09090909090907 L 282.91818181818184 325.09090909090907 L 282.91818181818184 325.09090909090907 Z" fill-opacity="0.3"/><path fill="none" stroke="white" paint-order="fill stroke markers" d=" M 282.91818181818184 325.09090909090907 L 288.5363636363636 325.09090909090907 L 288.5363636363636 325.09090909090907 L 282.91818181818184 325.09090909090907 L 282.91818181818184 325.09090909090907 Z" stroke-linejoin="bevel" stroke-miterlimit="10" stroke-opacity="0.3"/><path fill="navy" stroke="none" paint-order="stroke fill markers" d=" M 288.5363636363636 325.09090909090907 L 294.1545454545454 325.09090909090907 L 294.1545454545454 325.09090909090907 L 288.5363636363636 325.09090909090907 L 288.5363636363636 325.09090909090907 Z" fill-opacity="0.3"/><path fill="none" stroke="white" paint-order="fill stroke markers" d=" M 288.5363636363636 325.09090909090907 L 294.1545454545454 325.09090909090907 L 294.1545454545454 325.09090909090907 L 288.5363636363636 325.09090909090907 L 288.5363636363636 325.09090909090907 Z" stroke-linejoin="bevel" stroke-miterlimit="10" stroke-opacity="0.3"/><path fill="navy" stroke="none" paint-order="stroke fill markers" d=" M 294.1545454545454 325.09090909090907 L 299.77272727272725 325.09090909090907 L 299.77272727272725 325.09090909090907 L 294.1545454545454 325.09090909090907 L 294.1545454545454 325.09090909090907 Z" fill-opacity="0.3"/><path fill="none" stroke="white" paint-order="fill stroke markers" d=" M 294.1545454545454 325.09090909090907 L 299.77272727272725 325.09090909090907 L 299.77272727272725 325.09090909090907 L 294.1545454545454 325.09090909090907 L 294.1545454545454 325.09090909090907 Z" stroke-linejoin="bevel" stroke-miterlimit="10" stroke-opacity="0.3"/><path fill="navy" stroke="none" paint-order="stroke fill markers" d=" M 299.77272727272725 325.09090909090907 L 305.3909090909091 325.09090909090907 L 305.3909090909091 325.09090909090907 L 299.77272727272725 325.09090909090907 L 299.77272727272725 325.09090909090907 Z" fill-opacity="0.3"/><path fill="none" stroke="white" paint-order="fill stroke markers" d=" M 299.77272727272725 325.09090909090907 L 305.3909090909091 325.09090909090907 L 305.3909090909091 325.09090909090907 L 299.77272727272725 325.09090909090907 L 299.77272727272725 325.09090909090907 Z" stroke-linejoin="bevel" stroke-miterlimit="10" stroke-opacity="0.3"/><path fill="navy" stroke="none" paint-order="stroke fill markers" d=" M 305.3909090909091 325.09090909090907 L 311.0090909090909 325.09090909090907 L 311.0090909090909 325.09090909090907 L 305.3909090909091 325.09090909090907 L 305.3909090909091 325.09090909090907 Z" fill-opacity="0.3"/><path fill="none" stroke="white" paint-order="fill stroke markers" d=" M 305.3909090909091 325.09090909090907 L 311.0090909090909 325.09090909090907 L 311.0090909090909 325.09090909090907 L 305.3909090909091 325.09090909090907 L 305.3909090909091 325.09090909090907 Z" stroke-linejoin="bevel" stroke-miterlimit="10" stroke-opacity="0.3"/><path fill="navy" stroke="none" paint-order="stroke fill markers" d=" M 311.0090909090909 325.09090909090907 L 316.6272727272727 325.09090909090907 L 316.6272727272727 325.09090909090907 L 311.0090909090909 325.09090909090907 L 311.0090909090909 325.09090909090907 Z" fill-opacity="0.3"/><path fill="none" stroke="white" paint-order="fill stroke markers" d=" M 311.0090909090909 325.09090909090907 L 316.6272727272727 325.09090909090907 L 316.6272727272727 325.09090909090907 L 311.0090909090909 325.09090909090907 L 311.0090909090909 325.09090909090907 Z" stroke-linejoin="bevel" stroke-miterlimit="10" stroke-opacity="0.3"/><path fill="navy" stroke="none" paint-order="stroke fill markers" d=" M 316.6272727272727 325.09090909090907 L 322.2454545454545 325.09090909090907 L 322.2454545454545 325.09090909090907 L 316.6272727272727 325.09090909090907 L 316.6272727272727 325.09090909090907 Z" fill-opacity="0.3"/><path fill="none" stroke="white" paint-order="fill stroke markers" d=" M 316.6272727272727 325.09090909090907 L 322.2454545454545 325.09090909090907 L 322.2454545454545 325.09090909090907 L 316.6272727272727 325.09090909090907 L 316.6272727272727 325.09090909090907 Z" stroke-linejoin="bevel" stroke-miterlimit="10" stroke-opacity="0.3"/><path fill="navy" stroke="none" paint-order="stroke fill markers" d=" M 322.2454545454545 325.09090909090907 L 327.8636363636364 325.09090909090907 L 327.8636363636364 325.09090909090907 L 322.2454545454545 325.09090909090907 L 322.2454545454545 325.09090909090907 Z" fill-opacity="0.3"/><path fill="none" stroke="white" paint-order="fill stroke markers" d=" M 322.2454545454545 325.09090909090907 L 327.8636363636364 325.09090909090907 L 327.8636363636364 325.09090909090907 L 322.2454545454545 325.09090909090907 L 322.2454545454545 325.09090909090907 Z" stroke-linejoin="bevel" stroke-miterlimit="10" stroke-opacity="0.3"/><path fill="navy" stroke="none" paint-order="stroke fill markers" d=" M 327.8636363636364 325.09090909090907 L 333.48181818181814 325.09090909090907 L 333.48181818181814 325.09090909090907 L 327.8636363636364 325.09090909090907 L 327.8636363636364 325.09090909090907 Z" fill-opacity="0.3"/><path fill="none" stroke="white" paint-order="fill stroke markers" d=" M 327.8636363636364 325.09090909090907 L 333.48181818181814 325.09090909090907 L 333.48181818181814 325.09090909090907 L 327.8636363636364 325.09090909090907 L 327.8636363636364 325.09090909090907 Z" stroke-linejoin="bevel" stroke-miterlimit="10" stroke-opacity="0.3"/><path fill="navy" stroke="none" paint-order="stroke fill markers" d=" M 333.48181818181814 325.09090909090907 L 339.09999999999997 325.09090909090907 L 339.09999999999997 325.09090909090907 L 333.48181818181814 325.09090909090907 L 333.48181818181814 325.09090909090907 Z" fill-opacity="0.3"/><path fill="none" stroke="white" paint-order="fill stroke markers" d=" M 333.48181818181814 325.09090909090907 L 339.09999999999997 325.09090909090907 L 339.09999999999997 325.09090909090907 L 333.48181818181814 325.09090909090907 L 333.48181818181814 325.09090909090907 Z" stroke-linejoin="bevel" stroke-miterlimit="10" stroke-opacity="0.3"/><path fill="navy" stroke="none" paint-order="stroke fill markers" d=" M 339.09999999999997 325.09090909090907 L 344.7181818181818 325.09090909090907 L 344.7181818181818 325.09090909090907 L 339.09999999999997 325.09090909090907 L 339.09999999999997 325.09090909090907 Z" fill-opacity="0.3"/><path fill="none" stroke="white" paint-order="fill stroke markers" d=" M 339.09999999999997 325.09090909090907 L 344.7181818181818 325.09090909090907 L 344.7181818181818 325.09090909090907 L 339.09999999999997 325.09090909090907 L 339.09999999999997 325.09090909090907 Z" stroke-linejoin="bevel" stroke-miterlimit="10" stroke-opacity="0.3"/><path fill="navy" stroke="none" paint-order="stroke fill markers" d=" M 344.7181818181818 325.09090909090907 L 350.3363636363636 325.09090909090907 L 350.3363636363636 325.09090909090907 L 344.7181818181818 325.09090909090907 L 344.7181818181818 325.09090909090907 Z" fill-opacity="0.3"/><path fill="none" stroke="white" paint-order="fill stroke markers" d=" M 344.7181818181818 325.09090909090907 L 350.3363636363636 325.09090909090907 L 350.3363636363636 325.09090909090907 L 344.7181818181818 325.09090909090907 L 344.7181818181818 325.09090909090907 Z" stroke-linejoin="bevel" stroke-miterlimit="10" stroke-opacity="0.3"/><path fill="navy" stroke="none" paint-order="stroke fill markers" d=" M 350.3363636363636 299.80165289256195 L 355.95454545454544 299.80165289256195 L 355.95454545454544 325.09090909090907 L 350.3363636363636 325.09090909090907 L 350.3363636363636 299.80165289256195 Z" fill-opacity="0.3"/><path fill="none" stroke="white" paint-order="fill stroke markers" d=" M 350.3363636363636 299.80165289256195 L 355.95454545454544 299.80165289256195 L 355.95454545454544 325.09090909090907 L 350.3363636363636 325.09090909090907 L 350.3363636363636 299.80165289256195 Z" stroke-linejoin="bevel" stroke-miterlimit="10" stroke-opacity="0.3"/></g></g></g><g clip-path="url(#IpcxQdKoVeUu)"><g><g><path fill="none" stroke="red" paint-order="fill stroke markers" d=" M 87.0963204073108 33 L 87.0963204073108 339" stroke-linejoin="bevel" stroke-miterlimit="10" stroke-width="3" stroke-dasharray="6"/></g></g></g><g><g fill="#444444"><path fill="" stroke="none" d=""/><g transform="translate(215.5,5)"><path fill="none" stroke="none"/><text fill="" stroke="none" font-family="helvetica" font-size="12pt" font-style="normal" font-weight="bold" text-decoration="normal" x="0" y="0" text-anchor="middle" dominant-baseline="text-before-edge">Inter-molecular distances/Linker EDC</text></g></g></g><g/><g><g fill="#444444"><path fill="none" stroke="black" paint-order="fill stroke markers" d=" M 61 339 L 370 339" stroke-linejoin="bevel" stroke-miterlimit="10"/><path fill="none" stroke="black" paint-order="fill stroke markers" d=" M 64 345 L 64 337" stroke-linejoin="bevel" stroke-miterlimit="10"/><path fill="none" stroke="black" paint-order="fill stroke markers" d=" M 122 345 L 122 337" stroke-linejoin="bevel" stroke-miterlimit="10"/><path fill="none" stroke="black" paint-order="fill stroke markers" d=" M 180 345 L 180 337" stroke-linejoin="bevel" stroke-miterlimit="10"/><path fill="none" stroke="black" paint-order="fill stroke markers" d=" M 238 345 L 238 337" stroke-linejoin="bevel" stroke-miterlimit="10"/><path fill="none" stroke="black" paint-order="fill stroke markers" d=" M 297 345 L 297 337" stroke-linejoin="bevel" stroke-miterlimit="10"/><path fill="none" stroke="black" paint-order="fill stroke markers" d=" M 355 345 L 355 337" stroke-linejoin="bevel" stroke-miterlimit="10"/><path fill="none" stroke="black" paint-order="fill stroke markers" d=" M 64 343 L 64 339" stroke-linejoin="bevel" stroke-miterlimit="10"/><path fill="none" stroke="black" paint-order="fill stroke markers" d=" M 75 343 L 75 339" stroke-linejoin="bevel" stroke-miterlimit="10"/><path fill="none" stroke="black" paint-order="fill stroke markers" d=" M 87 343 L 87 339" stroke-linejoin="bevel" stroke-miterlimit="10"/><path fill="none" stroke="black" paint-order="fill stroke markers" d=" M 99 343 L 99 339" stroke-linejoin="bevel" stroke-miterlimit="10"/><path fill="none" stroke="black" paint-order="fill stroke markers" d=" M 110 343 L 110 339" stroke-linejoin="bevel" stroke-miterlimit="10"/><path fill="none" stroke="black" paint-order="fill stroke markers" d=" M 122 343 L 122 339" stroke-linejoin="bevel" stroke-miterlimit="10"/><path fill="none" stroke="black" paint-order="fill stroke markers" d=" M 134 343 L 134 339" stroke-linejoin="bevel" stroke-miterlimit="10"/><path fill="none" stroke="black" paint-order="fill stroke markers" d=" M 145 343 L 145 339" stroke-linejoin="bevel" stroke-miterlimit="10"/><path fill="none" stroke="black" paint-order="fill stroke markers" d=" M 157 343 L 157 339" stroke-linejoin="bevel" stroke-miterlimit="10"/><path fill="none" stroke="black" paint-order="fill stroke markers" d=" M 169 343 L 169 339" stroke-linejoin="bevel" stroke-miterlimit="10"/><path fill="none" stroke="black" paint-order="fill stroke markers" d=" M 180 343 L 180 339" stroke-linejoin="bevel" stroke-miterlimit="10"/><path fill="none" stroke="black" paint-order="fill stroke markers" d=" M 192 343 L 192 339" stroke-linejoin="bevel" stroke-miterlimit="10"/><path fill="none" stroke="black" paint-order="fill stroke markers" d=" M 203 343 L 203 339" stroke-linejoin="bevel" stroke-miterlimit="10"/><path fill="none" stroke="black" paint-order="fill stroke markers" d=" M 215 343 L 215 339" stroke-linejoin="bevel" stroke-miterlimit="10"/><path fill="none" stroke="black" paint-order="fill stroke markers" d=" M 227 343 L 227 339" stroke-linejoin="bevel" stroke-miterlimit="10"/><path fill="none" stroke="black" paint-order="fill stroke markers" d=" M 238 343 L 238 339" stroke-linejoin="bevel" stroke-miterlimit="10"/><path fill="none" stroke="black" paint-order="fill stroke markers" d=" M 250 343 L 250 339" stroke-linejoin="bevel" stroke-miterlimit="10"/><path fill="none" stroke="black" paint-order="fill stroke markers" d=" M 262 343 L 262 339" stroke-linejoin="bevel" stroke-miterlimit="10"/><path fill="none" stroke="black" paint-order="fill stroke markers" d=" M 273 343 L 273 339" stroke-linejoin="bevel" stroke-miterlimit="10"/><path fill="none" stroke="black" paint-order="fill stroke markers" d=" M 285 343 L 285 339" stroke-linejoin="bevel" stroke-miterlimit="10"/><path fill="none" stroke="black" paint-order="fill stroke markers" d=" M 297 343 L 297 339" stroke-linejoin="bevel" stroke-miterlimit="10"/><path fill="none" stroke="black" paint-order="fill stroke markers" d=" M 308 343 L 308 339" stroke-linejoin="bevel" stroke-miterlimit="10"/><path fill="none" stroke="black" paint-order="fill stroke markers" d=" M 320 343 L 320 339" stroke-linejoin="bevel" stroke-miterlimit="10"/><path fill="none" stroke="black" paint-order="fill stroke markers" d=" M 331 343 L 331 339" stroke-linejoin="bevel" stroke-miterlimit="10"/><path fill="none" stroke="black" paint-order="fill stroke markers" d=" M 343 343 L 343 339" stroke-linejoin="bevel" stroke-miterlimit="10"/><path fill="none" stroke="black" paint-order="fill stroke markers" d=" M 355 343 L 355 339" stroke-linejoin="bevel" stroke-miterlimit="10"/><path fill="" stroke="black" paint-order="fill stroke markers" d=" M 366 343 L 366 339" stroke-linejoin="bevel" stroke-miterlimit="10"/><g transform="translate(64,350) rotate(0,0,0)"><text fill="" stroke="none" font-family="helvetica" font-size="14pt" font-style="normal" font-weight="normal" text-decoration="normal" x="0" y="0" text-anchor="middle" dominant-baseline="hanging">0</text><g transform="rotate(0,0,0) translate(-64,-350) translate(122,350) rotate(0,0,0)"><text fill="" stroke="none" font-family="helvetica" font-size="14pt" font-style="normal" font-weight="normal" text-decoration="normal" x="0" y="0" text-anchor="middle" dominant-baseline="hanging">50</text><g transform="rotate(0,0,0) translate(-122,-350) translate(180,350) rotate(0,0,0)"><text fill="" stroke="none" font-family="helvetica" font-size="14pt" font-style="normal" font-weight="normal" text-decoration="normal" x="0" y="0" text-anchor="middle" dominant-baseline="hanging">100</text><g transform="rotate(0,0,0) translate(-180,-350) translate(238,350) rotate(0,0,0)"><text fill="" stroke="none" font-family="helvetica" font-size="14pt" font-style="normal" font-weight="normal" text-decoration="normal" x="0" y="0" text-anchor="middle" dominant-baseline="hanging">150</text><g transform="rotate(0,0,0) translate(-238,-350) translate(297,350) rotate(0,0,0)"><text fill="" stroke="none" font-family="helvetica" font-size="14pt" font-style="normal" font-weight="normal" text-decoration="normal" x="0" y="0" text-anchor="middle" dominant-baseline="hanging">200</text><g transform="rotate(0,0,0) translate(-297,-350) translate(355,350) rotate(0,0,0)"><text fill="" stroke="none" font-family="helvetica" font-size="14pt" font-style="normal" font-weight="normal" text-decoration="normal" x="0" y="0" text-anchor="middle" dominant-baseline="hanging">250</text><g transform="rotate(0,0,0) translate(-355,-350) translate(216,377) rotate(0,0,0)"><text fill="" stroke="none" font-family="helvetica" font-size="14pt" font-style="italic" font-weight="normal" text-decoration="normal" x="0" y="0" text-anchor="middle" dominant-baseline="hanging">Distance Å</text><g transform="rotate(0,0,0) translate(-216,-377)"/></g></g></g></g></g></g></g></g></g><g><g fill="#444444"><path fill="none" stroke="black" paint-order="fill stroke markers" d=" M 61 339 L 61 33" stroke-linejoin="bevel" stroke-miterlimit="10"/><path fill="none" stroke="black" paint-order="fill stroke markers" d=" M 55 325 L 63 325" stroke-linejoin="bevel" stroke-miterlimit="10"/><path fill="none" stroke="black" paint-order="fill stroke markers" d=" M 55 275 L 63 275" stroke-linejoin="bevel" stroke-miterlimit="10"/><path fill="none" stroke="black" paint-order="fill stroke markers" d=" M 55 224 L 63 224" stroke-linejoin="bevel" stroke-miterlimit="10"/><path fill="none" stroke="black" paint-order="fill stroke markers" d=" M 55 173 L 63 173" stroke-linejoin="bevel" stroke-miterlimit="10"/><path fill="none" stroke="black" paint-order="fill stroke markers" d=" M 55 123 L 63 123" stroke-linejoin="bevel" stroke-miterlimit="10"/><path fill="none" stroke="black" paint-order="fill stroke markers" d=" M 55 72 L 63 72" stroke-linejoin="bevel" stroke-miterlimit="10"/><path fill="none" stroke="black" paint-order="fill stroke markers" d=" M 57 335 L 61 335" stroke-linejoin="bevel" stroke-miterlimit="10"/><path fill="none" stroke="black" paint-order="fill stroke markers" d=" M 57 325 L 61 325" stroke-linejoin="bevel" stroke-miterlimit="10"/><path fill="none" stroke="black" paint-order="fill stroke markers" d=" M 57 315 L 61 315" stroke-linejoin="bevel" stroke-miterlimit="10"/><path fill="none" stroke="black" paint-order="fill stroke markers" d=" M 57 305 L 61 305" stroke-linejoin="bevel" stroke-miterlimit="10"/><path fill="none" stroke="black" paint-order="fill stroke markers" d=" M 57 295 L 61 295" stroke-linejoin="bevel" stroke-miterlimit="10"/><path fill="none" stroke="black" paint-order="fill stroke markers" d=" M 57 285 L 61 285" stroke-linejoin="bevel" stroke-miterlimit="10"/><path fill="none" stroke="black" paint-order="fill stroke markers" d=" M 57 275 L 61 275" stroke-linejoin="bevel" stroke-miterlimit="10"/><path fill="none" stroke="black" paint-order="fill stroke markers" d=" M 57 264 L 61 264" stroke-linejoin="bevel" stroke-miterlimit="10"/><path fill="none" stroke="black" paint-order="fill stroke markers" d=" M 57 254 L 61 254" stroke-linejoin="bevel" stroke-miterlimit="10"/><path fill="none" stroke="black" paint-order="fill stroke markers" d=" M 57 244 L 61 244" stroke-linejoin="bevel" stroke-miterlimit="10"/><path fill="none" stroke="black" paint-order="fill stroke markers" d=" M 57 234 L 61 234" stroke-linejoin="bevel" stroke-miterlimit="10"/><path fill="none" stroke="black" paint-order="fill stroke markers" d=" M 57 224 L 61 224" stroke-linejoin="bevel" stroke-miterlimit="10"/><path fill="none" stroke="black" paint-order="fill stroke markers" d=" M 57 214 L 61 214" stroke-linejoin="bevel" stroke-miterlimit="10"/><path fill="none" stroke="black" paint-order="fill stroke markers" d=" M 57 204 L 61 204" stroke-linejoin="bevel" stroke-miterlimit="10"/><path fill="none" stroke="black" paint-order="fill stroke markers" d=" M 57 194 L 61 194" stroke-linejoin="bevel" stroke-miterlimit="10"/><path fill="none" stroke="black" paint-order="fill stroke markers" d=" M 57 183 L 61 183" stroke-linejoin="bevel" stroke-miterlimit="10"/><path fill="none" stroke="black" paint-order="fill stroke markers" d=" M 57 173 L 61 173" stroke-linejoin="bevel" stroke-miterlimit="10"/><path fill="none" stroke="black" paint-order="fill stroke markers" d=" M 57 163 L 61 163" stroke-linejoin="bevel" stroke-miterlimit="10"/><path fill="none" stroke="black" paint-order="fill stroke markers" d=" M 57 153 L 61 153" stroke-linejoin="bevel" stroke-miterlimit="10"/><path fill="none" stroke="black" paint-order="fill stroke markers" d=" M 57 143 L 61 143" stroke-linejoin="bevel" stroke-miterlimit="10"/><path fill="none" stroke="black" paint-order="fill stroke markers" d=" M 57 133 L 61 133" stroke-linejoin="bevel" stroke-miterlimit="10"/><path fill="none" stroke="black" paint-order="fill stroke markers" d=" M 57 123 L 61 123" stroke-linejoin="bevel" stroke-miterlimit="10"/><path fill="none" stroke="black" paint-order="fill stroke markers" d=" M 57 113 L 61 113" stroke-linejoin="bevel" stroke-miterlimit="10"/><path fill="none" stroke="black" paint-order="fill stroke markers" d=" M 57 103 L 61 103" stroke-linejoin="bevel" stroke-miterlimit="10"/><path fill="none" stroke="black" paint-order="fill stroke markers" d=" M 57 92 L 61 92" stroke-linejoin="bevel" stroke-miterlimit="10"/><path fill="none" stroke="black" paint-order="fill stroke markers" d=" M 57 82 L 61 82" stroke-linejoin="bevel" stroke-miterlimit="10"/><path fill="none" stroke="black" paint-order="fill stroke markers" d=" M 57 72 L 61 72" stroke-linejoin="bevel" stroke-miterlimit="10"/><path fill="none" stroke="black" paint-order="fill stroke markers" d=" M 57 62 L 61 62" stroke-linejoin="bevel" stroke-miterlimit="10"/><path fill="none" stroke="black" paint-order="fill stroke markers" d=" M 57 52 L 61 52" stroke-linejoin="bevel" stroke-miterlimit="10"/><path fill="" stroke="black" paint-order="fill stroke markers" d=" M 57 42 L 61 42" stroke-linejoin="bevel" stroke-miterlimit="10"/><g transform="translate(50,325) rotate(0,0,0)"><text fill="" stroke="none" font-family="helvetica" font-size="14pt" font-style="normal" font-weight="normal" text-decoration="normal" x="0" y="0" text-anchor="end" dominant-baseline="central">0</text><g transform="rotate(0,0,0) translate(-50,-325) translate(50,275) rotate(0,0,0)"><text fill="" stroke="none" font-family="helvetica" font-size="14pt" font-style="normal" font-weight="normal" text-decoration="normal" x="0" y="0" text-anchor="end" dominant-baseline="central">2</text><g transform="rotate(0,0,0) translate(-50,-275) translate(50,224) rotate(0,0,0)"><text fill="" stroke="none" font-family="helvetica" font-size="14pt" font-style="normal" font-weight="normal" text-decoration="normal" x="0" y="0" text-anchor="end" dominant-baseline="central">4</text><g transform="rotate(0,0,0) translate(-50,-224) translate(50,173) rotate(0,0,0)"><text fill="" stroke="none" font-family="helvetica" font-size="14pt" font-style="normal" font-weight="normal" text-decoration="normal" x="0" y="0" text-anchor="end" dominant-baseline="central">6</text><g transform="rotate(0,0,0) translate(-50,-173) translate(50,123) rotate(0,0,0)"><text fill="" stroke="none" font-family="helvetica" font-size="14pt" font-style="normal" font-weight="normal" text-decoration="normal" x="0" y="0" text-anchor="end" dominant-baseline="central">8</text><g transform="rotate(0,0,0) translate(-50,-123) translate(50,72) rotate(0,0,0)"><text fill="" stroke="none" font-family="helvetica" font-size="14pt" font-style="normal" font-weight="normal" text-decoration="normal" x="0" y="0" text-anchor="end" dominant-baseline="central">10</text><g transform="rotate(0,0,0) translate(-50,-72) translate(22,186) rotate(-90,0,0)"><text fill="" stroke="none" font-family="helvetica" font-size="14pt" font-style="italic" font-weight="normal" text-decoration="normal" x="0" y="0" text-anchor="middle" dominant-baseline="alphabetic">Number of cross-links</text><g transform="rotate(90,0,0) translate(-22,-186)"/></g></g></g></g></g></g></g></g></g><g clip-path="url(#uwFGDXTtXbqJ)"><g/></g></g></g></svg>