<svg version="1.1" xmlns="http://www.w3.org/2000/svg" xmlns:xlink="http://www.w3.org/1999/xlink" width="400" height="400" style="width: 400px; height: 400px;"><defs><clipPath id="poTKJtKdfIMJ"><path fill="none" stroke="none" d=" M 50 33 L 370 33 L 370 339 L 50 339 L 50 33 Z"/></clipPath><clipPath id="BdKBVEfWKazL"><path fill="none" stroke="none" d=" M 50 33 L 370 33 L 370 339 L 50 339 L 50 33 Z"/></clipPath><clipPath id="LwFmqEHlywtt"><path fill="none" stroke="none" d=" M 50 33 L 370 33 L 370 339 L 50 339 L 50 33 Z"/></clipPath><clipPath id="luRpqdOqbeTP"><path fill="none" stroke="none" d=" M 50 33 L 370 33 L 370 339 L 50 339 L 50 33 Z"/></clipPath><clipPath id="MOxUxJVhrxmJ"><path fill="none" stroke="none" d=" M 50 33 L 370 33 L 370 339 L 50 339 L 50 33 Z"/></clipPath><clipPath id="HkkHDBqUuhPE"><path fill="none" stroke="none" d=" M 50 33 L 370 33 L 370 339 L 50 339 L 50 33 Z"/></clipPath><clipPath id="ZmKXeOKDMFZF"><path fill="none" stroke="none" d=" M 50 33 L 370 33 L 370 339 L 50 339 L 50 33 Z"/></clipPath><clipPath id="aOwHnNuVgceN"><path fill="none" stroke="none" d=" M 50 33 L 370 33 L 370 339 L 50 339 L 50 33 Z"/></clipPath><clipPath id="eshQncTKWvHS"><path fill="none" stroke="none" d=" M 50 33 L 370 33 L 370 339 L 50 339 L 50 33 Z"/></clipPath><clipPath id="gozaLEGCrdan"><path fill="none" stroke="none" d=" M 50 33 L 370 33 L 370 339 L 50 339 L 50 33 Z"/></clipPath></defs><g><g transform="scale(1,1) translate(0.5,0.5)"><rect fill="#FFFFFF" stroke="none" x="0" y="0" width="400" height="400"/><rect fill="#ffffff" stroke="none" x="0" y="0" width="400" height="400"/><rect fill="#FFFFFF" stroke="none" x="50" y="33" width="320" height="306"/><rect fill="#ffffff" stroke="none" x="50" y="33" width="320" height="306"/><g><rect fill="none" stroke="#e5e5e5" x="50" y="33" width="320" height="306" stroke-linejoin="bevel" stroke-miterlimit="10"/></g><g clip-path="url(#poTKJtKdfIMJ)"><g><g><path fill="none" stroke="#e5e5e5" paint-order="fill stroke markers" d=" M 106 339 L 106 33" stroke-linejoin="bevel" stroke-miterlimit="10"/><path fill="none" stroke="#e5e5e5" paint-order="fill stroke markers" d=" M 184 339 L 184 33" stroke-linejoin="bevel" stroke-miterlimit="10"/><path fill="none" stroke="#e5e5e5" paint-order="fill stroke markers" d=" M 263 339 L 263 33" stroke-linejoin="bevel" stroke-miterlimit="10"/><path fill="none" stroke="#e5e5e5" paint-order="fill stroke markers" d=" M 341 339 L 341 33" stroke-linejoin="bevel" stroke-miterlimit="10"/></g></g></g><g clip-path="url(#BdKBVEfWKazL)"><g><g><path fill="none" stroke="#e5e5e5" paint-order="fill stroke markers" d=" M 50 325 L 370 325" stroke-linejoin="bevel" stroke-miterlimit="10"/><path fill="none" stroke="#e5e5e5" paint-order="fill stroke markers" d=" M 50 279 L 370 279" stroke-linejoin="bevel" stroke-miterlimit="10"/><path fill="none" stroke="#e5e5e5" paint-order="fill stroke markers" d=" M 50 232 L 370 232" stroke-linejoin="bevel" stroke-miterlimit="10"/><path fill="none" stroke="#e5e5e5" paint-order="fill stroke markers" d=" M 50 186 L 370 186" stroke-linejoin="bevel" stroke-miterlimit="10"/><path fill="none" stroke="#e5e5e5" paint-order="fill stroke markers" d=" M 50 140 L 370 140" stroke-linejoin="bevel" stroke-miterlimit="10"/><path fill="none" stroke="#e5e5e5" paint-order="fill stroke markers" d=" M 50 93 L 370 93" stroke-linejoin="bevel" stroke-miterlimit="10"/><path fill="none" stroke="#e5e5e5" paint-order="fill stroke markers" d=" M 50 47 L 370 47" stroke-linejoin="bevel" stroke-miterlimit="10"/></g></g></g><g clip-path="url(#LwFmqEHlywtt)"><g><g><path fill="none" stroke="none"/><path fill="navy" stroke="none" paint-order="stroke fill markers" d=" M 64.54545454545456 93.27272727272731 L 70.36363636363637 93.27272727272731 L 70.36363636363637 325.09090909090907 L 64.54545454545456 325.09090909090907 L 64.54545454545456 93.27272727272731 Z" fill-opacity="0.3"/><path fill="none" stroke="white" paint-order="fill stroke markers" d=" M 64.54545454545456 93.27272727272731 L 70.36363636363637 93.27272727272731 L 70.36363636363637 325.09090909090907 L 64.54545454545456 325.09090909090907 L 64.54545454545456 93.27272727272731 Z" stroke-linejoin="bevel" stroke-miterlimit="10" stroke-opacity="0.3"/><path fill="navy" stroke="none" paint-order="stroke fill markers" d=" M 70.36363636363637 93.27272727272731 L 76.18181818181819 93.27272727272731 L 76.18181818181819 325.09090909090907 L 70.36363636363637 325.09090909090907 L 70.36363636363637 93.27272727272731 Z" fill-opacity="0.3"/><path fill="none" stroke="white" paint-order="fill stroke markers" d=" M 70.36363636363637 93.27272727272731 L 76.18181818181819 93.27272727272731 L 76.18181818181819 325.09090909090907 L 70.36363636363637 325.09090909090907 L 70.36363636363637 93.27272727272731 Z" stroke-linejoin="bevel" stroke-miterlimit="10" stroke-opacity="0.3"/><path fill="navy" stroke="none" paint-order="stroke fill markers" d=" M 76.18181818181819 139.63636363636365 L 82.00000000000001 139.63636363636365 L 82.00000000000001 325.09090909090907 L 76.18181818181819 325.09090909090907 L 76.18181818181819 139.63636363636365 Z" fill-opacity="0.3"/><path fill="none" stroke="white" paint-order="fill stroke markers" d=" M 76.18181818181819 139.63636363636365 L 82.00000000000001 139.63636363636365 L 82.00000000000001 325.09090909090907 L 76.18181818181819 325.09090909090907 L 76.18181818181819 139.63636363636365 Z" stroke-linejoin="bevel" stroke-miterlimit="10" stroke-opacity="0.3"/><path fill="navy" stroke="none" paint-order="stroke fill markers" d=" M 82.00000000000001 186 L 87.81818181818183 186 L 87.81818181818183 325.09090909090907 L 82.00000000000001 325.09090909090907 L 82.00000000000001 186 Z" fill-opacity="0.3"/><path fill="none" stroke="white" paint-order="fill stroke markers" d=" M 82.00000000000001 186 L 87.81818181818183 186 L 87.81818181818183 325.09090909090907 L 82.00000000000001 325.09090909090907 L 82.00000000000001 186 Z" stroke-linejoin="bevel" stroke-miterlimit="10" stroke-opacity="0.3"/><path fill="navy" stroke="none" paint-order="stroke fill markers" d=" M 87.81818181818183 46.909090909090935 L 93.63636363636365 46.909090909090935 L 93.63636363636365 325.09090909090907 L 87.81818181818183 325.09090909090907 L 87.81818181818183 46.909090909090935 Z" fill-opacity="0.3"/><path fill="none" stroke="white" paint-order="fill stroke markers" d=" M 87.81818181818183 46.909090909090935 L 93.63636363636365 46.909090909090935 L 93.63636363636365 325.09090909090907 L 87.81818181818183 325.09090909090907 L 87.81818181818183 46.909090909090935 Z" stroke-linejoin="bevel" stroke-miterlimit="10" stroke-opacity="0.3"/><path fill="navy" stroke="none" paint-order="stroke fill markers" d=" M 93.63636363636365 139.63636363636365 L 99.45454545454547 139.63636363636365 L 99.45454545454547 325.09090909090907 L 93.63636363636365 325.09090909090907 L 93.63636363636365 139.63636363636365 Z" fill-opacity="0.3"/><path fill="none" stroke="white" paint-order="fill stroke markers" d=" M 93.63636363636365 139.63636363636365 L 99.45454545454547 139.63636363636365 L 99.45454545454547 325.09090909090907 L 93.63636363636365 325.09090909090907 L 93.63636363636365 139.63636363636365 Z" stroke-linejoin="bevel" stroke-miterlimit="10" stroke-opacity="0.3"/><path fill="navy" stroke="none" paint-order="stroke fill markers" d=" M 99.45454545454547 232.36363636363637 L 105.27272727272728 232.36363636363637 L 105.27272727272728 325.09090909090907 L 99.45454545454547 325.09090909090907 L 99.45454545454547 232.36363636363637 Z" fill-opacity="0.3"/><path fill="none" stroke="white" paint-order="fill stroke markers" d=" M 99.45454545454547 232.36363636363637 L 105.27272727272728 232.36363636363637 L 105.27272727272728 325.09090909090907 L 99.45454545454547 325.09090909090907 L 99.45454545454547 232.36363636363637 Z" stroke-linejoin="bevel" stroke-miterlimit="10" stroke-opacity="0.3"/><path fill="navy" stroke="none" paint-order="stroke fill markers" d=" M 105.27272727272728 278.7272727272727 L 111.0909090909091 278.7272727272727 L 111.0909090909091 325.09090909090907 L 105.27272727272728 325.09090909090907 L 105.27272727272728 278.7272727272727 Z" fill-opacity="0.3"/><path fill="none" stroke="white" paint-order="fill stroke markers" d=" M 105.27272727272728 278.7272727272727 L 111.0909090909091 278.7272727272727 L 111.0909090909091 325.09090909090907 L 105.27272727272728 325.09090909090907 L 105.27272727272728 278.7272727272727 Z" stroke-linejoin="bevel" stroke-miterlimit="10" stroke-opacity="0.3"/><path fill="navy" stroke="none" paint-order="stroke fill markers" d=" M 111.0909090909091 232.36363636363637 L 116.9090909090909 232.36363636363637 L 116.9090909090909 325.09090909090907 L 111.0909090909091 325.09090909090907 L 111.0909090909091 232.36363636363637 Z" fill-opacity="0.3"/><path fill="none" stroke="white" paint-order="fill stroke markers" d=" M 111.0909090909091 232.36363636363637 L 116.9090909090909 232.36363636363637 L 116.9090909090909 325.09090909090907 L 111.0909090909091 325.09090909090907 L 111.0909090909091 232.36363636363637 Z" stroke-linejoin="bevel" stroke-miterlimit="10" stroke-opacity="0.3"/><path fill="navy" stroke="none" paint-order="stroke fill markers" d=" M 116.9090909090909 186 L 122.72727272727275 186 L 122.72727272727275 325.09090909090907 L 116.9090909090909 325.09090909090907 L 116.9090909090909 186 Z" fill-opacity="0.3"/><path fill="none" stroke="white" paint-order="fill stroke markers" d=" M 116.9090909090909 186 L 122.72727272727275 186 L 122.72727272727275 325.09090909090907 L 116.9090909090909 325.09090909090907 L 116.9090909090909 186 Z" stroke-linejoin="bevel" stroke-miterlimit="10" stroke-opacity="0.3"/><path fill="navy" stroke="none" paint-order="stroke fill markers" d=" M 122.72727272727275 232.36363636363637 L 128.54545454545456 232.36363636363637 L 128.54545454545456 325.09090909090907 L 122.72727272727275 325.09090909090907 L 122.72727272727275 232.36363636363637 Z" fill-opacity="0.3"/><path fill="none" stroke="white" paint-order="fill stroke markers" d=" M 122.72727272727275 232.36363636363637 L 128.54545454545456 232.36363636363637 L 128.54545454545456 325.09090909090907 L 122.72727272727275 325.09090909090907 L 122.72727272727275 232.36363636363637 Z" stroke-linejoin="bevel" stroke-miterlimit="10" stroke-opacity="0.3"/><path fill="navy" stroke="none" paint-order="stroke fill markers" d=" M 128.54545454545456 232.36363636363637 L 134.36363636363635 232.36363636363637 L 134.36363636363635 325.09090909090907 L 128.54545454545456 325.09090909090907 L 128.54545454545456 232.36363636363637 Z" fill-opacity="0.3"/><path fill="none" stroke="white" paint-order="fill stroke markers" d=" M 128.54545454545456 232.36363636363637 L 134.36363636363635 232.36363636363637 L 134.36363636363635 325.09090909090907 L 128.54545454545456 325.09090909090907 L 128.54545454545456 232.36363636363637 Z" stroke-linejoin="bevel" stroke-miterlimit="10" stroke-opacity="0.3"/><path fill="navy" stroke="none" paint-order="stroke fill markers" d=" M 134.36363636363635 325.09090909090907 L 140.1818181818182 325.09090909090907 L 140.1818181818182 325.09090909090907 L 134.36363636363635 325.09090909090907 L 134.36363636363635 325.09090909090907 Z" fill-opacity="0.3"/><path fill="none" stroke="white" paint-order="fill stroke markers" d=" M 134.36363636363635 325.09090909090907 L 140.1818181818182 325.09090909090907 L 140.1818181818182 325.09090909090907 L 134.36363636363635 325.09090909090907 L 134.36363636363635 325.09090909090907 Z" stroke-linejoin="bevel" stroke-miterlimit="10" stroke-opacity="0.3"/><path fill="navy" stroke="none" paint-order="stroke fill markers" d=" M 140.1818181818182 232.36363636363637 L 146 232.36363636363637 L 146 325.09090909090907 L 140.1818181818182 325.09090909090907 L 140.1818181818182 232.36363636363637 Z" fill-opacity="0.3"/><path fill="none" stroke="white" paint-order="fill stroke markers" d=" M 140.1818181818182 232.36363636363637 L 146 232.36363636363637 L 146 325.09090909090907 L 140.1818181818182 325.09090909090907 L 140.1818181818182 232.36363636363637 Z" stroke-linejoin="bevel" stroke-miterlimit="10" stroke-opacity="0.3"/><path fill="navy" stroke="none" paint-order="stroke fill markers" d=" M 146 325.09090909090907 L 151.8181818181818 325.09090909090907 L 151.8181818181818 325.09090909090907 L 146 325.09090909090907 L 146 325.09090909090907 Z" fill-opacity="0.3"/><path fill="none" stroke="white" paint-order="fill stroke markers" d=" M 146 325.09090909090907 L 151.8181818181818 325.09090909090907 L 151.8181818181818 325.09090909090907 L 146 325.09090909090907 L 146 325.09090909090907 Z" stroke-linejoin="bevel" stroke-miterlimit="10" stroke-opacity="0.3"/><path fill="navy" stroke="none" paint-order="stroke fill markers" d=" M 151.8181818181818 325.09090909090907 L 157.63636363636365 325.09090909090907 L 157.63636363636365 325.09090909090907 L 151.8181818181818 325.09090909090907 L 151.8181818181818 325.09090909090907 Z" fill-opacity="0.3"/><path fill="none" stroke="white" paint-order="fill stroke markers" d=" M 151.8181818181818 325.09090909090907 L 157.63636363636365 325.09090909090907 L 157.63636363636365 325.09090909090907 L 151.8181818181818 325.09090909090907 L 151.8181818181818 325.09090909090907 Z" stroke-linejoin="bevel" stroke-miterlimit="10" stroke-opacity="0.3"/><path fill="navy" stroke="none" paint-order="stroke fill markers" d=" M 157.63636363636365 278.7272727272727 L 163.45454545454547 278.7272727272727 L 163.45454545454547 325.09090909090907 L 157.63636363636365 325.09090909090907 L 157.63636363636365 278.7272727272727 Z" fill-opacity="0.3"/><path fill="none" stroke="white" paint-order="fill stroke markers" d=" M 157.63636363636365 278.7272727272727 L 163.45454545454547 278.7272727272727 L 163.45454545454547 325.09090909090907 L 157.63636363636365 325.09090909090907 L 157.63636363636365 278.7272727272727 Z" stroke-linejoin="bevel" stroke-miterlimit="10" stroke-opacity="0.3"/><path fill="navy" stroke="none" paint-order="stroke fill markers" d=" M 163.45454545454547 278.7272727272727 L 169.27272727272725 278.7272727272727 L 169.27272727272725 325.09090909090907 L 163.45454545454547 325.09090909090907 L 163.45454545454547 278.7272727272727 Z" fill-opacity="0.3"/><path fill="none" stroke="white" paint-order="fill stroke markers" d=" M 163.45454545454547 278.7272727272727 L 169.27272727272725 278.7272727272727 L 169.27272727272725 325.09090909090907 L 163.45454545454547 325.09090909090907 L 163.45454545454547 278.7272727272727 Z" stroke-linejoin="bevel" stroke-miterlimit="10" stroke-opacity="0.3"/><path fill="navy" stroke="none" paint-order="stroke fill markers" d=" M 169.27272727272725 325.09090909090907 L 175.0909090909091 325.09090909090907 L 175.0909090909091 325.09090909090907 L 169.27272727272725 325.09090909090907 L 169.27272727272725 325.09090909090907 Z" fill-opacity="0.3"/><path fill="none" stroke="white" paint-order="fill stroke markers" d=" M 169.27272727272725 325.09090909090907 L 175.0909090909091 325.09090909090907 L 175.0909090909091 325.09090909090907 L 169.27272727272725 325.09090909090907 L 169.27272727272725 325.09090909090907 Z" stroke-linejoin="bevel" stroke-miterlimit="10" stroke-opacity="0.3"/><path fill="navy" stroke="none" paint-order="stroke fill markers" d=" M 175.0909090909091 278.7272727272727 L 180.9090909090909 278.7272727272727 L 180.9090909090909 325.09090909090907 L 175.0909090909091 325.09090909090907 L 175.0909090909091 278.7272727272727 Z" fill-opacity="0.3"/><path fill="none" stroke="white" paint-order="fill stroke markers" d=" M 175.0909090909091 278.7272727272727 L 180.9090909090909 278.7272727272727 L 180.9090909090909 325.09090909090907 L 175.0909090909091 325.09090909090907 L 175.0909090909091 278.7272727272727 Z" stroke-linejoin="bevel" stroke-miterlimit="10" stroke-opacity="0.3"/><path fill="navy" stroke="none" paint-order="stroke fill markers" d=" M 180.9090909090909 325.09090909090907 L 186.72727272727272 325.09090909090907 L 186.72727272727272 325.09090909090907 L 180.9090909090909 325.09090909090907 L 180.9090909090909 325.09090909090907 Z" fill-opacity="0.3"/><path fill="none" stroke="white" paint-order="fill stroke markers" d=" M 180.9090909090909 325.09090909090907 L 186.72727272727272 325.09090909090907 L 186.72727272727272 325.09090909090907 L 180.9090909090909 325.09090909090907 L 180.9090909090909 325.09090909090907 Z" stroke-linejoin="bevel" stroke-miterlimit="10" stroke-opacity="0.3"/><path fill="navy" stroke="none" paint-order="stroke fill markers" d=" M 186.72727272727272 325.09090909090907 L 192.54545454545456 325.09090909090907 L 192.54545454545456 325.09090909090907 L 186.72727272727272 325.09090909090907 L 186.72727272727272 325.09090909090907 Z" fill-opacity="0.3"/><path fill="none" stroke="white" paint-order="fill stroke markers" d=" M 186.72727272727272 325.09090909090907 L 192.54545454545456 325.09090909090907 L 192.54545454545456 325.09090909090907 L 186.72727272727272 325.09090909090907 L 186.72727272727272 325.09090909090907 Z" stroke-linejoin="bevel" stroke-miterlimit="10" stroke-opacity="0.3"/><path fill="navy" stroke="none" paint-order="stroke fill markers" d=" M 192.54545454545456 325.09090909090907 L 198.36363636363635 325.09090909090907 L 198.36363636363635 325.09090909090907 L 192.54545454545456 325.09090909090907 L 192.54545454545456 325.09090909090907 Z" fill-opacity="0.3"/><path fill="none" stroke="white" paint-order="fill stroke markers" d=" M 192.54545454545456 325.09090909090907 L 198.36363636363635 325.09090909090907 L 198.36363636363635 325.09090909090907 L 192.54545454545456 325.09090909090907 L 192.54545454545456 325.09090909090907 Z" stroke-linejoin="bevel" stroke-miterlimit="10" stroke-opacity="0.3"/><path fill="navy" stroke="none" paint-order="stroke fill markers" d=" M 198.36363636363635 325.09090909090907 L 204.18181818181816 325.09090909090907 L 204.18181818181816 325.09090909090907 L 198.36363636363635 325.09090909090907 L 198.36363636363635 325.09090909090907 Z" fill-opacity="0.3"/><path fill="none" stroke="white" paint-order="fill stroke markers" d=" M 198.36363636363635 325.09090909090907 L 204.18181818181816 325.09090909090907 L 204.18181818181816 325.09090909090907 L 198.36363636363635 325.09090909090907 L 198.36363636363635 325.09090909090907 Z" stroke-linejoin="bevel" stroke-miterlimit="10" stroke-opacity="0.3"/><path fill="navy" stroke="none" paint-order="stroke fill markers" d=" M 204.18181818181816 278.7272727272727 L 210 278.7272727272727 L 210 325.09090909090907 L 204.18181818181816 325.09090909090907 L 204.18181818181816 278.7272727272727 Z" fill-opacity="0.3"/><path fill="none" stroke="white" paint-order="fill stroke markers" d=" M 204.18181818181816 278.7272727272727 L 210 278.7272727272727 L 210 325.09090909090907 L 204.18181818181816 325.09090909090907 L 204.18181818181816 278.7272727272727 Z" stroke-linejoin="bevel" stroke-miterlimit="10" stroke-opacity="0.3"/><path fill="navy" stroke="none" paint-order="stroke fill markers" d=" M 210 325.09090909090907 L 215.8181818181818 325.09090909090907 L 215.8181818181818 325.09090909090907 L 210 325.09090909090907 L 210 325.09090909090907 Z" fill-opacity="0.3"/><path fill="none" stroke="white" paint-order="fill stroke markers" d=" M 210 325.09090909090907 L 215.8181818181818 325.09090909090907 L 215.8181818181818 325.09090909090907 L 210 325.09090909090907 L 210 325.09090909090907 Z" stroke-linejoin="bevel" stroke-miterlimit="10" stroke-opacity="0.3"/><path fill="navy" stroke="none" paint-order="stroke fill markers" d=" M 215.8181818181818 325.09090909090907 L 221.63636363636363 325.09090909090907 L 221.63636363636363 325.09090909090907 L 215.8181818181818 325.09090909090907 L 215.8181818181818 325.09090909090907 Z" fill-opacity="0.3"/><path fill="none" stroke="white" paint-order="fill stroke markers" d=" M 215.8181818181818 325.09090909090907 L 221.63636363636363 325.09090909090907 L 221.63636363636363 325.09090909090907 L 215.8181818181818 325.09090909090907 L 215.8181818181818 325.09090909090907 Z" stroke-linejoin="bevel" stroke-miterlimit="10" stroke-opacity="0.3"/><path fill="navy" stroke="none" paint-order="stroke fill markers" d=" M 221.63636363636363 139.63636363636365 L 227.45454545454547 139.63636363636365 L 227.45454545454547 325.09090909090907 L 221.63636363636363 325.09090909090907 L 221.63636363636363 139.63636363636365 Z" fill-opacity="0.3"/><path fill="none" stroke="white" paint-order="fill stroke markers" d=" M 221.63636363636363 139.63636363636365 L 227.45454545454547 139.63636363636365 L 227.45454545454547 325.09090909090907 L 221.63636363636363 325.09090909090907 L 221.63636363636363 139.63636363636365 Z" stroke-linejoin="bevel" stroke-miterlimit="10" stroke-opacity="0.3"/><path fill="navy" stroke="none" paint-order="stroke fill markers" d=" M 227.45454545454547 278.7272727272727 L 233.27272727272725 278.7272727272727 L 233.27272727272725 325.09090909090907 L 227.45454545454547 325.09090909090907 L 227.45454545454547 278.7272727272727 Z" fill-opacity="0.3"/><path fill="none" stroke="white" paint-order="fill stroke markers" d=" M 227.45454545454547 278.7272727272727 L 233.27272727272725 278.7272727272727 L 233.27272727272725 325.09090909090907 L 227.45454545454547 325.09090909090907 L 227.45454545454547 278.7272727272727 Z" stroke-linejoin="bevel" stroke-miterlimit="10" stroke-opacity="0.3"/><path fill="navy" stroke="none" paint-order="stroke fill markers" d=" M 233.27272727272725 325.09090909090907 L 239.09090909090907 325.09090909090907 L 239.09090909090907 325.09090909090907 L 233.27272727272725 325.09090909090907 L 233.27272727272725 325.09090909090907 Z" fill-opacity="0.3"/><path fill="none" stroke="white" paint-order="fill stroke markers" d=" M 233.27272727272725 325.09090909090907 L 239.09090909090907 325.09090909090907 L 239.09090909090907 325.09090909090907 L 233.27272727272725 325.09090909090907 L 233.27272727272725 325.09090909090907 Z" stroke-linejoin="bevel" stroke-miterlimit="10" stroke-opacity="0.3"/><path fill="navy" stroke="none" paint-order="stroke fill markers" d=" M 239.09090909090907 325.09090909090907 L 244.90909090909088 325.09090909090907 L 244.90909090909088 325.09090909090907 L 239.09090909090907 325.09090909090907 L 239.09090909090907 325.09090909090907 Z" fill-opacity="0.3"/><path fill="none" stroke="white" paint-order="fill stroke markers" d=" M 239.09090909090907 325.09090909090907 L 244.90909090909088 325.09090909090907 L 244.90909090909088 325.09090909090907 L 239.09090909090907 325.09090909090907 L 239.09090909090907 325.09090909090907 Z" stroke-linejoin="bevel" stroke-miterlimit="10" stroke-opacity="0.3"/><path fill="navy" stroke="none" paint-order="stroke fill markers" d=" M 244.90909090909088 278.7272727272727 L 250.72727272727272 278.7272727272727 L 250.72727272727272 325.09090909090907 L 244.90909090909088 325.09090909090907 L 244.90909090909088 278.7272727272727 Z" fill-opacity="0.3"/><path fill="none" stroke="white" paint-order="fill stroke markers" d=" M 244.90909090909088 278.7272727272727 L 250.72727272727272 278.7272727272727 L 250.72727272727272 325.09090909090907 L 244.90909090909088 325.09090909090907 L 244.90909090909088 278.7272727272727 Z" stroke-linejoin="bevel" stroke-miterlimit="10" stroke-opacity="0.3"/><path fill="navy" stroke="none" paint-order="stroke fill markers" d=" M 250.72727272727272 325.09090909090907 L 256.5454545454545 325.09090909090907 L 256.5454545454545 325.09090909090907 L 250.72727272727272 325.09090909090907 L 250.72727272727272 325.09090909090907 Z" fill-opacity="0.3"/><path fill="none" stroke="white" paint-order="fill stroke markers" d=" M 250.72727272727272 325.09090909090907 L 256.5454545454545 325.09090909090907 L 256.5454545454545 325.09090909090907 L 250.72727272727272 325.09090909090907 L 250.72727272727272 325.09090909090907 Z" stroke-linejoin="bevel" stroke-miterlimit="10" stroke-opacity="0.3"/><path fill="navy" stroke="none" paint-order="stroke fill markers" d=" M 256.5454545454545 325.09090909090907 L 262.3636363636363 325.09090909090907 L 262.3636363636363 325.09090909090907 L 256.5454545454545 325.09090909090907 L 256.5454545454545 325.09090909090907 Z" fill-opacity="0.3"/><path fill="none" stroke="white" paint-order="fill stroke markers" d=" M 256.5454545454545 325.09090909090907 L 262.3636363636363 325.09090909090907 L 262.3636363636363 325.09090909090907 L 256.5454545454545 325.09090909090907 L 256.5454545454545 325.09090909090907 Z" stroke-linejoin="bevel" stroke-miterlimit="10" stroke-opacity="0.3"/><path fill="navy" stroke="none" paint-order="stroke fill markers" d=" M 262.3636363636363 325.09090909090907 L 268.1818181818182 325.09090909090907 L 268.1818181818182 325.09090909090907 L 262.3636363636363 325.09090909090907 L 262.3636363636363 325.09090909090907 Z" fill-opacity="0.3"/><path fill="none" stroke="white" paint-order="fill stroke markers" d=" M 262.3636363636363 325.09090909090907 L 268.1818181818182 325.09090909090907 L 268.1818181818182 325.09090909090907 L 262.3636363636363 325.09090909090907 L 262.3636363636363 325.09090909090907 Z" stroke-linejoin="bevel" stroke-miterlimit="10" stroke-opacity="0.3"/><path fill="navy" stroke="none" paint-order="stroke fill markers" d=" M 268.1818181818182 325.09090909090907 L 273.99999999999994 325.09090909090907 L 273.99999999999994 325.09090909090907 L 268.1818181818182 325.09090909090907 L 268.1818181818182 325.09090909090907 Z" fill-opacity="0.3"/><path fill="none" stroke="white" paint-order="fill stroke markers" d=" M 268.1818181818182 325.09090909090907 L 273.99999999999994 325.09090909090907 L 273.99999999999994 325.09090909090907 L 268.1818181818182 325.09090909090907 L 268.1818181818182 325.09090909090907 Z" stroke-linejoin="bevel" stroke-miterlimit="10" stroke-opacity="0.3"/><path fill="navy" stroke="none" paint-order="stroke fill markers" d=" M 273.99999999999994 278.7272727272727 L 279.81818181818176 278.7272727272727 L 279.81818181818176 325.09090909090907 L 273.99999999999994 325.09090909090907 L 273.99999999999994 278.7272727272727 Z" fill-opacity="0.3"/><path fill="none" stroke="white" paint-order="fill stroke markers" d=" M 273.99999999999994 278.7272727272727 L 279.81818181818176 278.7272727272727 L 279.81818181818176 325.09090909090907 L 273.99999999999994 325.09090909090907 L 273.99999999999994 278.7272727272727 Z" stroke-linejoin="bevel" stroke-miterlimit="10" stroke-opacity="0.3"/><path fill="navy" stroke="none" paint-order="stroke fill markers" d=" M 279.81818181818176 325.09090909090907 L 285.6363636363636 325.09090909090907 L 285.6363636363636 325.09090909090907 L 279.81818181818176 325.09090909090907 L 279.81818181818176 325.09090909090907 Z" fill-opacity="0.3"/><path fill="none" stroke="white" paint-order="fill stroke markers" d=" M 279.81818181818176 325.09090909090907 L 285.6363636363636 325.09090909090907 L 285.6363636363636 325.09090909090907 L 279.81818181818176 325.09090909090907 L 279.81818181818176 325.09090909090907 Z" stroke-linejoin="bevel" stroke-miterlimit="10" stroke-opacity="0.3"/><path fill="navy" stroke="none" paint-order="stroke fill markers" d=" M 285.6363636363636 325.09090909090907 L 291.45454545454544 325.09090909090907 L 291.45454545454544 325.09090909090907 L 285.6363636363636 325.09090909090907 L 285.6363636363636 325.09090909090907 Z" fill-opacity="0.3"/><path fill="none" stroke="white" paint-order="fill stroke markers" d=" M 285.6363636363636 325.09090909090907 L 291.45454545454544 325.09090909090907 L 291.45454545454544 325.09090909090907 L 285.6363636363636 325.09090909090907 L 285.6363636363636 325.09090909090907 Z" stroke-linejoin="bevel" stroke-miterlimit="10" stroke-opacity="0.3"/><path fill="navy" stroke="none" paint-order="stroke fill markers" d=" M 291.45454545454544 325.09090909090907 L 297.27272727272725 325.09090909090907 L 297.27272727272725 325.09090909090907 L 291.45454545454544 325.09090909090907 L 291.45454545454544 325.09090909090907 Z" fill-opacity="0.3"/><path fill="none" stroke="white" paint-order="fill stroke markers" d=" M 291.45454545454544 325.09090909090907 L 297.27272727272725 325.09090909090907 L 297.27272727272725 325.09090909090907 L 291.45454545454544 325.09090909090907 L 291.45454545454544 325.09090909090907 Z" stroke-linejoin="bevel" stroke-miterlimit="10" stroke-opacity="0.3"/><path fill="navy" stroke="none" paint-order="stroke fill markers" d=" M 297.27272727272725 325.09090909090907 L 303.09090909090907 325.09090909090907 L 303.09090909090907 325.09090909090907 L 297.27272727272725 325.09090909090907 L 297.27272727272725 325.09090909090907 Z" fill-opacity="0.3"/><path fill="none" stroke="white" paint-order="fill stroke markers" d=" M 297.27272727272725 325.09090909090907 L 303.09090909090907 325.09090909090907 L 303.09090909090907 325.09090909090907 L 297.27272727272725 325.09090909090907 L 297.27272727272725 325.09090909090907 Z" stroke-linejoin="bevel" stroke-miterlimit="10" stroke-opacity="0.3"/><path fill="navy" stroke="none" paint-order="stroke fill markers" d=" M 303.09090909090907 232.36363636363637 L 308.9090909090909 232.36363636363637 L 308.9090909090909 325.09090909090907 L 303.09090909090907 325.09090909090907 L 303.09090909090907 232.36363636363637 Z" fill-opacity="0.3"/><path fill="none" stroke="white" paint-order="fill stroke markers" d=" M 303.09090909090907 232.36363636363637 L 308.9090909090909 232.36363636363637 L 308.9090909090909 325.09090909090907 L 303.09090909090907 325.09090909090907 L 303.09090909090907 232.36363636363637 Z" stroke-linejoin="bevel" stroke-miterlimit="10" stroke-opacity="0.3"/><path fill="navy" stroke="none" paint-order="stroke fill markers" d=" M 308.9090909090909 325.09090909090907 L 314.72727272727275 325.09090909090907 L 314.72727272727275 325.09090909090907 L 308.9090909090909 325.09090909090907 L 308.9090909090909 325.09090909090907 Z" fill-opacity="0.3"/><path fill="none" stroke="white" paint-order="fill stroke markers" d=" M 308.9090909090909 325.09090909090907 L 314.72727272727275 325.09090909090907 L 314.72727272727275 325.09090909090907 L 308.9090909090909 325.09090909090907 L 308.9090909090909 325.09090909090907 Z" stroke-linejoin="bevel" stroke-miterlimit="10" stroke-opacity="0.3"/><path fill="navy" stroke="none" paint-order="stroke fill markers" d=" M 314.72727272727275 325.09090909090907 L 320.54545454545456 325.09090909090907 L 320.54545454545456 325.09090909090907 L 314.72727272727275 325.09090909090907 L 314.72727272727275 325.09090909090907 Z" fill-opacity="0.3"/><path fill="none" stroke="white" paint-order="fill stroke markers" d=" M 314.72727272727275 325.09090909090907 L 320.54545454545456 325.09090909090907 L 320.54545454545456 325.09090909090907 L 314.72727272727275 325.09090909090907 L 314.72727272727275 325.09090909090907 Z" stroke-linejoin="bevel" stroke-miterlimit="10" stroke-opacity="0.3"/><path fill="navy" stroke="none" paint-order="stroke fill markers" d=" M 320.54545454545456 278.7272727272727 L 326.3636363636363 278.7272727272727 L 326.3636363636363 325.09090909090907 L 320.54545454545456 325.09090909090907 L 320.54545454545456 278.7272727272727 Z" fill-opacity="0.3"/><path fill="none" stroke="white" paint-order="fill stroke markers" d=" M 320.54545454545456 278.7272727272727 L 326.3636363636363 278.7272727272727 L 326.3636363636363 325.09090909090907 L 320.54545454545456 325.09090909090907 L 320.54545454545456 278.7272727272727 Z" stroke-linejoin="bevel" stroke-miterlimit="10" stroke-opacity="0.3"/><path fill="navy" stroke="none" paint-order="stroke fill markers" d=" M 326.3636363636363 325.09090909090907 L 332.18181818181813 325.09090909090907 L 332.18181818181813 325.09090909090907 L 326.3636363636363 325.09090909090907 L 326.3636363636363 325.09090909090907 Z" fill-opacity="0.3"/><path fill="none" stroke="white" paint-order="fill stroke markers" d=" M 326.3636363636363 325.09090909090907 L 332.18181818181813 325.09090909090907 L 332.18181818181813 325.09090909090907 L 326.3636363636363 325.09090909090907 L 326.3636363636363 325.09090909090907 Z" stroke-linejoin="bevel" stroke-miterlimit="10" stroke-opacity="0.3"/><path fill="navy" stroke="none" paint-order="stroke fill markers" d=" M 332.18181818181813 325.09090909090907 L 337.99999999999994 325.09090909090907 L 337.99999999999994 325.09090909090907 L 332.18181818181813 325.09090909090907 L 332.18181818181813 325.09090909090907 Z" fill-opacity="0.3"/><path fill="none" stroke="white" paint-order="fill stroke markers" d=" M 332.18181818181813 325.09090909090907 L 337.99999999999994 325.09090909090907 L 337.99999999999994 325.09090909090907 L 332.18181818181813 325.09090909090907 L 332.18181818181813 325.09090909090907 Z" stroke-linejoin="bevel" stroke-miterlimit="10" stroke-opacity="0.3"/><path fill="navy" stroke="none" paint-order="stroke fill markers" d=" M 337.99999999999994 325.09090909090907 L 343.81818181818176 325.09090909090907 L 343.81818181818176 325.09090909090907 L 337.99999999999994 325.09090909090907 L 337.99999999999994 325.09090909090907 Z" fill-opacity="0.3"/><path fill="none" stroke="white" paint-order="fill stroke markers" d=" M 337.99999999999994 325.09090909090907 L 343.81818181818176 325.09090909090907 L 343.81818181818176 325.09090909090907 L 337.99999999999994 325.09090909090907 L 337.99999999999994 325.09090909090907 Z" stroke-linejoin="bevel" stroke-miterlimit="10" stroke-opacity="0.3"/><path fill="navy" stroke="none" paint-order="stroke fill markers" d=" M 343.81818181818176 325.09090909090907 L 349.63636363636357 325.09090909090907 L 349.63636363636357 325.09090909090907 L 343.81818181818176 325.09090909090907 L 343.81818181818176 325.09090909090907 Z" fill-opacity="0.3"/><path fill="none" stroke="white" paint-order="fill stroke markers" d=" M 343.81818181818176 325.09090909090907 L 349.63636363636357 325.09090909090907 L 349.63636363636357 325.09090909090907 L 343.81818181818176 325.09090909090907 L 343.81818181818176 325.09090909090907 Z" stroke-linejoin="bevel" stroke-miterlimit="10" stroke-opacity="0.3"/><path fill="navy" stroke="none" paint-order="stroke fill markers" d=" M 349.63636363636357 278.7272727272727 L 355.45454545454544 278.7272727272727 L 355.45454545454544 325.09090909090907 L 349.63636363636357 325.09090909090907 L 349.63636363636357 278.7272727272727 Z" fill-opacity="0.3"/><path fill="none" stroke="white" paint-order="fill stroke markers" d=" M 349.63636363636357 278.7272727272727 L 355.45454545454544 278.7272727272727 L 355.45454545454544 325.09090909090907 L 349.63636363636357 325.09090909090907 L 349.63636363636357 278.7272727272727 Z" stroke-linejoin="bevel" stroke-miterlimit="10" stroke-opacity="0.3"/></g></g></g><g clip-path="url(#luRpqdOqbeTP)"><g><g><path fill="none" stroke="red" paint-order="fill stroke markers" d=" M 144.86639110073432 33 L 144.86639110073432 339" stroke-linejoin="bevel" stroke-miterlimit="10" stroke-width="3" stroke-dasharray="6"/></g></g></g><g><g fill="#444444"><path fill="" stroke="none" d=""/><g transform="translate(210,5)"><path fill="none" stroke="none"/><text fill="" stroke="none" font-family="helvetica" font-size="12pt" font-style="normal" font-weight="bold" text-decoration="normal" x="0" y="0" text-anchor="middle" dominant-baseline="text-before-edge">Inter-molecular distances/Linker DSS</text></g></g></g><g/><g><g fill="#444444"><path fill="none" stroke="black" paint-order="fill stroke markers" d=" M 50 339 L 370 339" stroke-linejoin="bevel" stroke-miterlimit="10"/><path fill="none" stroke="black" paint-order="fill stroke markers" d=" M 106 345 L 106 337" stroke-linejoin="bevel" stroke-miterlimit="10"/><path fill="none" stroke="black" paint-order="fill stroke markers" d=" M 184 345 L 184 337" stroke-linejoin="bevel" stroke-miterlimit="10"/><path fill="none" stroke="black" paint-order="fill stroke markers" d=" M 263 345 L 263 337" stroke-linejoin="bevel" stroke-miterlimit="10"/><path fill="none" stroke="black" paint-order="fill stroke markers" d=" M 341 345 L 341 337" stroke-linejoin="bevel" stroke-miterlimit="10"/><path fill="none" stroke="black" paint-order="fill stroke markers" d=" M 90 343 L 90 339" stroke-linejoin="bevel" stroke-miterlimit="10"/><path fill="none" stroke="black" paint-order="fill stroke markers" d=" M 74 343 L 74 339" stroke-linejoin="bevel" stroke-miterlimit="10"/><path fill="none" stroke="black" paint-order="fill stroke markers" d=" M 59 343 L 59 339" stroke-linejoin="bevel" stroke-miterlimit="10"/><path fill="none" stroke="black" paint-order="fill stroke markers" d=" M 106 343 L 106 339" stroke-linejoin="bevel" stroke-miterlimit="10"/><path fill="none" stroke="black" paint-order="fill stroke markers" d=" M 121 343 L 121 339" stroke-linejoin="bevel" stroke-miterlimit="10"/><path fill="none" stroke="black" paint-order="fill stroke markers" d=" M 137 343 L 137 339" stroke-linejoin="bevel" stroke-miterlimit="10"/><path fill="none" stroke="black" paint-order="fill stroke markers" d=" M 153 343 L 153 339" stroke-linejoin="bevel" stroke-miterlimit="10"/><path fill="none" stroke="black" paint-order="fill stroke markers" d=" M 168 343 L 168 339" stroke-linejoin="bevel" stroke-miterlimit="10"/><path fill="none" stroke="black" paint-order="fill stroke markers" d=" M 184 343 L 184 339" stroke-linejoin="bevel" stroke-miterlimit="10"/><path fill="none" stroke="black" paint-order="fill stroke markers" d=" M 200 343 L 200 339" stroke-linejoin="bevel" stroke-miterlimit="10"/><path fill="none" stroke="black" paint-order="fill stroke markers" d=" M 215 343 L 215 339" stroke-linejoin="bevel" stroke-miterlimit="10"/><path fill="none" stroke="black" paint-order="fill stroke markers" d=" M 231 343 L 231 339" stroke-linejoin="bevel" stroke-miterlimit="10"/><path fill="none" stroke="black" paint-order="fill stroke markers" d=" M 247 343 L 247 339" stroke-linejoin="bevel" stroke-miterlimit="10"/><path fill="none" stroke="black" paint-order="fill stroke markers" d=" M 263 343 L 263 339" stroke-linejoin="bevel" stroke-miterlimit="10"/><path fill="none" stroke="black" paint-order="fill stroke markers" d=" M 278 343 L 278 339" stroke-linejoin="bevel" stroke-miterlimit="10"/><path fill="none" stroke="black" paint-order="fill stroke markers" d=" M 294 343 L 294 339" stroke-linejoin="bevel" stroke-miterlimit="10"/><path fill="none" stroke="black" paint-order="fill stroke markers" d=" M 310 343 L 310 339" stroke-linejoin="bevel" stroke-miterlimit="10"/><path fill="none" stroke="black" paint-order="fill stroke markers" d=" M 325 343 L 325 339" stroke-linejoin="bevel" stroke-miterlimit="10"/><path fill="none" stroke="black" paint-order="fill stroke markers" d=" M 341 343 L 341 339" stroke-linejoin="bevel" stroke-miterlimit="10"/><path fill="" stroke="black" paint-order="fill stroke markers" d=" M 357 343 L 357 339" stroke-linejoin="bevel" stroke-miterlimit="10"/><g transform="translate(106,350) rotate(0,0,0)"><text fill="" stroke="none" font-family="helvetica" font-size="14pt" font-style="normal" font-weight="normal" text-decoration="normal" x="0" y="0" text-anchor="middle" dominant-baseline="hanging">20</text><g transform="rotate(0,0,0) translate(-106,-350) translate(184,350) rotate(0,0,0)"><text fill="" stroke="none" font-family="helvetica" font-size="14pt" font-style="normal" font-weight="normal" text-decoration="normal" x="0" y="0" text-anchor="middle" dominant-baseline="hanging">40</text><g transform="rotate(0,0,0) translate(-184,-350) translate(263,350) rotate(0,0,0)"><text fill="" stroke="none" font-family="helvetica" font-size="14pt" font-style="normal" font-weight="normal" text-decoration="normal" x="0" y="0" text-anchor="middle" dominant-baseline="hanging">60</text><g transform="rotate(0,0,0) translate(-263,-350) translate(341,350) rotate(0,0,0)"><text fill="" stroke="none" font-family="helvetica" font-size="14pt" font-style="normal" font-weight="normal" text-decoration="normal" x="0" y="0" text-anchor="middle" dominant-baseline="hanging">80</text><g transform="rotate(0,0,0) translate(-341,-350) translate(210,377) rotate(0,0,0)"><text fill="" stroke="none" font-family="helvetica" font-size="14pt" font-style="italic" font-weight="normal" text-decoration="normal" x="0" y="0" text-anchor="middle" dominant-baseline="hanging">Distance Å</text><g transform="rotate(0,0,0) translate(-210,-377)"/></g></g></g></g></g></g></g><g><g fill="#444444"><path fill="none" stroke="black" paint-order="fill stroke markers" d=" M 50 339 L 50 33" stroke-linejoin="bevel" stroke-miterlimit="10"/><path fill="none" stroke="black" paint-order="fill stroke markers" d=" M 44 325 L 52 325" stroke-linejoin="bevel" stroke-miterlimit="10"/><path fill="none" stroke="black" paint-order="fill stroke markers" d=" M 44 279 L 52 279" stroke-linejoin="bevel" stroke-miterlimit="10"/><path fill="none" stroke="black" paint-order="fill stroke markers" d=" M 44 232 L 52 232" stroke-linejoin="bevel" stroke-miterlimit="10"/><path fill="none" stroke="black" paint-order="fill stroke markers" d=" M 44 186 L 52 186" stroke-linejoin="bevel" stroke-miterlimit="10"/><path fill="none" stroke="black" paint-order="fill stroke markers" d=" M 44 140 L 52 140" stroke-linejoin="bevel" stroke-miterlimit="10"/><path fill="none" stroke="black" paint-order="fill stroke markers" d=" M 44 93 L 52 93" stroke-linejoin="bevel" stroke-miterlimit="10"/><path fill="none" stroke="black" paint-order="fill stroke markers" d=" M 44 47 L 52 47" stroke-linejoin="bevel" stroke-miterlimit="10"/><path fill="none" stroke="black" paint-order="fill stroke markers" d=" M 46 334 L 50 334" stroke-linejoin="bevel" stroke-miterlimit="10"/><path fill="none" stroke="black" paint-order="fill stroke markers" d=" M 46 325 L 50 325" stroke-linejoin="bevel" stroke-miterlimit="10"/><path fill="none" stroke="black" paint-order="fill stroke markers" d=" M 46 316 L 50 316" stroke-linejoin="bevel" stroke-miterlimit="10"/><path fill="none" stroke="black" paint-order="fill stroke markers" d=" M 46 307 L 50 307" stroke-linejoin="bevel" stroke-miterlimit="10"/><path fill="none" stroke="black" paint-order="fill stroke markers" d=" M 46 297 L 50 297" stroke-linejoin="bevel" stroke-miterlimit="10"/><path fill="none" stroke="black" paint-order="fill stroke markers" d=" M 46 288 L 50 288" stroke-linejoin="bevel" stroke-miterlimit="10"/><path fill="none" stroke="black" paint-order="fill stroke markers" d=" M 46 279 L 50 279" stroke-linejoin="bevel" stroke-miterlimit="10"/><path fill="none" stroke="black" paint-order="fill stroke markers" d=" M 46 269 L 50 269" stroke-linejoin="bevel" stroke-miterlimit="10"/><path fill="none" stroke="black" paint-order="fill stroke markers" d=" M 46 260 L 50 260" stroke-linejoin="bevel" stroke-miterlimit="10"/><path fill="none" stroke="black" paint-order="fill stroke markers" d=" M 46 251 L 50 251" stroke-linejoin="bevel" stroke-miterlimit="10"/><path fill="none" stroke="black" paint-order="fill stroke markers" d=" M 46 242 L 50 242" stroke-linejoin="bevel" stroke-miterlimit="10"/><path fill="none" stroke="black" paint-order="fill stroke markers" d=" M 46 232 L 50 232" stroke-linejoin="bevel" stroke-miterlimit="10"/><path fill="none" stroke="black" paint-order="fill stroke markers" d=" M 46 223 L 50 223" stroke-linejoin="bevel" stroke-miterlimit="10"/><path fill="none" stroke="black" paint-order="fill stroke markers" d=" M 46 214 L 50 214" stroke-linejoin="bevel" stroke-miterlimit="10"/><path fill="none" stroke="black" paint-order="fill stroke markers" d=" M 46 205 L 50 205" stroke-linejoin="bevel" stroke-miterlimit="10"/><path fill="none" stroke="black" paint-order="fill stroke markers" d=" M 46 195 L 50 195" stroke-linejoin="bevel" stroke-miterlimit="10"/><path fill="none" stroke="black" paint-order="fill stroke markers" d=" M 46 186 L 50 186" stroke-linejoin="bevel" stroke-miterlimit="10"/><path fill="none" stroke="black" paint-order="fill stroke markers" d=" M 46 177 L 50 177" stroke-linejoin="bevel" stroke-miterlimit="10"/><path fill="none" stroke="black" paint-order="fill stroke markers" d=" M 46 167 L 50 167" stroke-linejoin="bevel" stroke-miterlimit="10"/><path fill="none" stroke="black" paint-order="fill stroke markers" d=" M 46 158 L 50 158" stroke-linejoin="bevel" stroke-miterlimit="10"/><path fill="none" stroke="black" paint-order="fill stroke markers" d=" M 46 149 L 50 149" stroke-linejoin="bevel" stroke-miterlimit="10"/><path fill="none" stroke="black" paint-order="fill stroke markers" d=" M 46 140 L 50 140" stroke-linejoin="bevel" stroke-miterlimit="10"/><path fill="none" stroke="black" paint-order="fill stroke markers" d=" M 46 130 L 50 130" stroke-linejoin="bevel" stroke-miterlimit="10"/><path fill="none" stroke="black" paint-order="fill stroke markers" d=" M 46 121 L 50 121" stroke-linejoin="bevel" stroke-miterlimit="10"/><path fill="none" stroke="black" paint-order="fill stroke markers" d=" M 46 112 L 50 112" stroke-linejoin="bevel" stroke-miterlimit="10"/><path fill="none" stroke="black" paint-order="fill stroke markers" d=" M 46 103 L 50 103" stroke-linejoin="bevel" stroke-miterlimit="10"/><path fill="none" stroke="black" paint-order="fill stroke markers" d=" M 46 93 L 50 93" stroke-linejoin="bevel" stroke-miterlimit="10"/><path fill="none" stroke="black" paint-order="fill stroke markers" d=" M 46 84 L 50 84" stroke-linejoin="bevel" stroke-miterlimit="10"/><path fill="none" stroke="black" paint-order="fill stroke markers" d=" M 46 75 L 50 75" stroke-linejoin="bevel" stroke-miterlimit="10"/><path fill="none" stroke="black" paint-order="fill stroke markers" d=" M 46 65 L 50 65" stroke-linejoin="bevel" stroke-miterlimit="10"/><path fill="none" stroke="black" paint-order="fill stroke markers" d=" M 46 56 L 50 56" stroke-linejoin="bevel" stroke-miterlimit="10"/><path fill="none" stroke="black" paint-order="fill stroke markers" d=" M 46 47 L 50 47" stroke-linejoin="bevel" stroke-miterlimit="10"/><path fill="" stroke="black" paint-order="fill stroke markers" d=" M 46 38 L 50 38" stroke-linejoin="bevel" stroke-miterlimit="10"/><g transform="translate(39,325) rotate(0,0,0)"><text fill="" stroke="none" font-family="helvetica" font-size="14pt" font-style="normal" font-weight="normal" text-decoration="normal" x="0" y="0" text-anchor="end" dominant-baseline="central">0</text><g transform="rotate(0,0,0) translate(-39,-325) translate(39,279) rotate(0,0,0)"><text fill="" stroke="none" font-family="helvetica" font-size="14pt" font-style="normal" font-weight="normal" text-decoration="normal" x="0" y="0" text-anchor="end" dominant-baseline="central">1</text><g transform="rotate(0,0,0) translate(-39,-279) translate(39,232) rotate(0,0,0)"><text fill="" stroke="none" font-family="helvetica" font-size="14pt" font-style="normal" font-weight="normal" text-decoration="normal" x="0" y="0" text-anchor="end" dominant-baseline="central">2</text><g transform="rotate(0,0,0) translate(-39,-232) translate(39,186) rotate(0,0,0)"><text fill="" stroke="none" font-family="helvetica" font-size="14pt" font-style="normal" font-weight="normal" text-decoration="normal" x="0" y="0" text-anchor="end" dominant-baseline="central">3</text><g transform="rotate(0,0,0) translate(-39,-186) translate(39,140) rotate(0,0,0)"><text fill="" stroke="none" font-family="helvetica" font-size="14pt" font-style="normal" font-weight="normal" text-decoration="normal" x="0" y="0" text-anchor="end" dominant-baseline="central">4</text><g transform="rotate(0,0,0) translate(-39,-140) translate(39,93) rotate(0,0,0)"><text fill="" stroke="none" font-family="helvetica" font-size="14pt" font-style="normal" font-weight="normal" text-decoration="normal" x="0" y="0" text-anchor="end" dominant-baseline="central">5</text><g transform="rotate(0,0,0) translate(-39,-93) translate(39,47) rotate(0,0,0)"><text fill="" stroke="none" font-family="helvetica" font-size="14pt" font-style="normal" font-weight="normal" text-decoration="normal" x="0" y="0" text-anchor="end" dominant-baseline="central">6</text><g transform="rotate(0,0,0) translate(-39,-47) translate(23,186) rotate(-90,0,0)"><text fill="" stroke="none" font-family="helvetica" font-size="14pt" font-style="italic" font-weight="normal" text-decoration="normal" x="0" y="0" text-anchor="middle" dominant-baseline="alphabetic">Number of cross-links</text><g transform="rotate(90,0,0) translate(-23,-186)"/></g></g></g></g></g></g></g></g></g></g><g clip-path="url(#MOxUxJVhrxmJ)"><g/></g></g><g transform="scale(1,1) translate(0.5,0.5)"><rect fill="#FFFFFF" stroke="none" x="0" y="0" width="400" height="400"/><rect fill="#ffffff" stroke="none" x="0" y="0" width="400" height="400"/><rect fill="#FFFFFF" stroke="none" x="50" y="33" width="320" height="306"/><rect fill="#ffffff" stroke="none" x="50" y="33" width="320" height="306"/><g><rect fill="none" stroke="#e5e5e5" x="50" y="33" width="320" height="306" stroke-linejoin="bevel" stroke-miterlimit="10"/></g><g clip-path="url(#HkkHDBqUuhPE)"><g><g><path fill="none" stroke="#e5e5e5" paint-order="fill stroke markers" d=" M 106 339 L 106 33" stroke-linejoin="bevel" stroke-miterlimit="10"/><path fill="none" stroke="#e5e5e5" paint-order="fill stroke markers" d=" M 184 339 L 184 33" stroke-linejoin="bevel" stroke-miterlimit="10"/><path fill="none" stroke="#e5e5e5" paint-order="fill stroke markers" d=" M 263 339 L 263 33" stroke-linejoin="bevel" stroke-miterlimit="10"/><path fill="none" stroke="#e5e5e5" paint-order="fill stroke markers" d=" M 341 339 L 341 33" stroke-linejoin="bevel" stroke-miterlimit="10"/></g></g></g><g clip-path="url(#ZmKXeOKDMFZF)"><g><g><path fill="none" stroke="#e5e5e5" paint-order="fill stroke markers" d=" M 50 325 L 370 325" stroke-linejoin="bevel" stroke-miterlimit="10"/><path fill="none" stroke="#e5e5e5" paint-order="fill stroke markers" d=" M 50 279 L 370 279" stroke-linejoin="bevel" stroke-miterlimit="10"/><path fill="none" stroke="#e5e5e5" paint-order="fill stroke markers" d=" M 50 232 L 370 232" stroke-linejoin="bevel" stroke-miterlimit="10"/><path fill="none" stroke="#e5e5e5" paint-order="fill stroke markers" d=" M 50 186 L 370 186" stroke-linejoin="bevel" stroke-miterlimit="10"/><path fill="none" stroke="#e5e5e5" paint-order="fill stroke markers" d=" M 50 140 L 370 140" stroke-linejoin="bevel" stroke-miterlimit="10"/><path fill="none" stroke="#e5e5e5" paint-order="fill stroke markers" d=" M 50 93 L 370 93" stroke-linejoin="bevel" stroke-miterlimit="10"/><path fill="none" stroke="#e5e5e5" paint-order="fill stroke markers" d=" M 50 47 L 370 47" stroke-linejoin="bevel" stroke-miterlimit="10"/></g></g></g><g clip-path="url(#aOwHnNuVgceN)"><g><g><path fill="none" stroke="none"/><path fill="navy" stroke="none" paint-order="stroke fill markers" d=" M 64.54545454545456 93.27272727272731 L 70.36363636363637 93.27272727272731 L 70.36363636363637 325.09090909090907 L 64.54545454545456 325.09090909090907 L 64.54545454545456 93.27272727272731 Z" fill-opacity="0.3"/><path fill="none" stroke="white" paint-order="fill stroke markers" d=" M 64.54545454545456 93.27272727272731 L 70.36363636363637 93.27272727272731 L 70.36363636363637 325.09090909090907 L 64.54545454545456 325.09090909090907 L 64.54545454545456 93.27272727272731 Z" stroke-linejoin="bevel" stroke-miterlimit="10" stroke-opacity="0.3"/><path fill="navy" stroke="none" paint-order="stroke fill markers" d=" M 70.36363636363637 93.27272727272731 L 76.18181818181819 93.27272727272731 L 76.18181818181819 325.09090909090907 L 70.36363636363637 325.09090909090907 L 70.36363636363637 93.27272727272731 Z" fill-opacity="0.3"/><path fill="none" stroke="white" paint-order="fill stroke markers" d=" M 70.36363636363637 93.27272727272731 L 76.18181818181819 93.27272727272731 L 76.18181818181819 325.09090909090907 L 70.36363636363637 325.09090909090907 L 70.36363636363637 93.27272727272731 Z" stroke-linejoin="bevel" stroke-miterlimit="10" stroke-opacity="0.3"/><path fill="navy" stroke="none" paint-order="stroke fill markers" d=" M 76.18181818181819 139.63636363636365 L 82.00000000000001 139.63636363636365 L 82.00000000000001 325.09090909090907 L 76.18181818181819 325.09090909090907 L 76.18181818181819 139.63636363636365 Z" fill-opacity="0.3"/><path fill="none" stroke="white" paint-order="fill stroke markers" d=" M 76.18181818181819 139.63636363636365 L 82.00000000000001 139.63636363636365 L 82.00000000000001 325.09090909090907 L 76.18181818181819 325.09090909090907 L 76.18181818181819 139.63636363636365 Z" stroke-linejoin="bevel" stroke-miterlimit="10" stroke-opacity="0.3"/><path fill="navy" stroke="none" paint-order="stroke fill markers" d=" M 82.00000000000001 186 L 87.81818181818183 186 L 87.81818181818183 325.09090909090907 L 82.00000000000001 325.09090909090907 L 82.00000000000001 186 Z" fill-opacity="0.3"/><path fill="none" stroke="white" paint-order="fill stroke markers" d=" M 82.00000000000001 186 L 87.81818181818183 186 L 87.81818181818183 325.09090909090907 L 82.00000000000001 325.09090909090907 L 82.00000000000001 186 Z" stroke-linejoin="bevel" stroke-miterlimit="10" stroke-opacity="0.3"/><path fill="navy" stroke="none" paint-order="stroke fill markers" d=" M 87.81818181818183 46.909090909090935 L 93.63636363636365 46.909090909090935 L 93.63636363636365 325.09090909090907 L 87.81818181818183 325.09090909090907 L 87.81818181818183 46.909090909090935 Z" fill-opacity="0.3"/><path fill="none" stroke="white" paint-order="fill stroke markers" d=" M 87.81818181818183 46.909090909090935 L 93.63636363636365 46.909090909090935 L 93.63636363636365 325.09090909090907 L 87.81818181818183 325.09090909090907 L 87.81818181818183 46.909090909090935 Z" stroke-linejoin="bevel" stroke-miterlimit="10" stroke-opacity="0.3"/><path fill="navy" stroke="none" paint-order="stroke fill markers" d=" M 93.63636363636365 139.63636363636365 L 99.45454545454547 139.63636363636365 L 99.45454545454547 325.09090909090907 L 93.63636363636365 325.09090909090907 L 93.63636363636365 139.63636363636365 Z" fill-opacity="0.3"/><path fill="none" stroke="white" paint-order="fill stroke markers" d=" M 93.63636363636365 139.63636363636365 L 99.45454545454547 139.63636363636365 L 99.45454545454547 325.09090909090907 L 93.63636363636365 325.09090909090907 L 93.63636363636365 139.63636363636365 Z" stroke-linejoin="bevel" stroke-miterlimit="10" stroke-opacity="0.3"/><path fill="navy" stroke="none" paint-order="stroke fill markers" d=" M 99.45454545454547 232.36363636363637 L 105.27272727272728 232.36363636363637 L 105.27272727272728 325.09090909090907 L 99.45454545454547 325.09090909090907 L 99.45454545454547 232.36363636363637 Z" fill-opacity="0.3"/><path fill="none" stroke="white" paint-order="fill stroke markers" d=" M 99.45454545454547 232.36363636363637 L 105.27272727272728 232.36363636363637 L 105.27272727272728 325.09090909090907 L 99.45454545454547 325.09090909090907 L 99.45454545454547 232.36363636363637 Z" stroke-linejoin="bevel" stroke-miterlimit="10" stroke-opacity="0.3"/><path fill="navy" stroke="none" paint-order="stroke fill markers" d=" M 105.27272727272728 278.7272727272727 L 111.0909090909091 278.7272727272727 L 111.0909090909091 325.09090909090907 L 105.27272727272728 325.09090909090907 L 105.27272727272728 278.7272727272727 Z" fill-opacity="0.3"/><path fill="none" stroke="white" paint-order="fill stroke markers" d=" M 105.27272727272728 278.7272727272727 L 111.0909090909091 278.7272727272727 L 111.0909090909091 325.09090909090907 L 105.27272727272728 325.09090909090907 L 105.27272727272728 278.7272727272727 Z" stroke-linejoin="bevel" stroke-miterlimit="10" stroke-opacity="0.3"/><path fill="navy" stroke="none" paint-order="stroke fill markers" d=" M 111.0909090909091 232.36363636363637 L 116.9090909090909 232.36363636363637 L 116.9090909090909 325.09090909090907 L 111.0909090909091 325.09090909090907 L 111.0909090909091 232.36363636363637 Z" fill-opacity="0.3"/><path fill="none" stroke="white" paint-order="fill stroke markers" d=" M 111.0909090909091 232.36363636363637 L 116.9090909090909 232.36363636363637 L 116.9090909090909 325.09090909090907 L 111.0909090909091 325.09090909090907 L 111.0909090909091 232.36363636363637 Z" stroke-linejoin="bevel" stroke-miterlimit="10" stroke-opacity="0.3"/><path fill="navy" stroke="none" paint-order="stroke fill markers" d=" M 116.9090909090909 186 L 122.72727272727275 186 L 122.72727272727275 325.09090909090907 L 116.9090909090909 325.09090909090907 L 116.9090909090909 186 Z" fill-opacity="0.3"/><path fill="none" stroke="white" paint-order="fill stroke markers" d=" M 116.9090909090909 186 L 122.72727272727275 186 L 122.72727272727275 325.09090909090907 L 116.9090909090909 325.09090909090907 L 116.9090909090909 186 Z" stroke-linejoin="bevel" stroke-miterlimit="10" stroke-opacity="0.3"/><path fill="navy" stroke="none" paint-order="stroke fill markers" d=" M 122.72727272727275 232.36363636363637 L 128.54545454545456 232.36363636363637 L 128.54545454545456 325.09090909090907 L 122.72727272727275 325.09090909090907 L 122.72727272727275 232.36363636363637 Z" fill-opacity="0.3"/><path fill="none" stroke="white" paint-order="fill stroke markers" d=" M 122.72727272727275 232.36363636363637 L 128.54545454545456 232.36363636363637 L 128.54545454545456 325.09090909090907 L 122.72727272727275 325.09090909090907 L 122.72727272727275 232.36363636363637 Z" stroke-linejoin="bevel" stroke-miterlimit="10" stroke-opacity="0.3"/><path fill="navy" stroke="none" paint-order="stroke fill markers" d=" M 128.54545454545456 232.36363636363637 L 134.36363636363635 232.36363636363637 L 134.36363636363635 325.09090909090907 L 128.54545454545456 325.09090909090907 L 128.54545454545456 232.36363636363637 Z" fill-opacity="0.3"/><path fill="none" stroke="white" paint-order="fill stroke markers" d=" M 128.54545454545456 232.36363636363637 L 134.36363636363635 232.36363636363637 L 134.36363636363635 325.09090909090907 L 128.54545454545456 325.09090909090907 L 128.54545454545456 232.36363636363637 Z" stroke-linejoin="bevel" stroke-miterlimit="10" stroke-opacity="0.3"/><path fill="navy" stroke="none" paint-order="stroke fill markers" d=" M 134.36363636363635 325.09090909090907 L 140.1818181818182 325.09090909090907 L 140.1818181818182 325.09090909090907 L 134.36363636363635 325.09090909090907 L 134.36363636363635 325.09090909090907 Z" fill-opacity="0.3"/><path fill="none" stroke="white" paint-order="fill stroke markers" d=" M 134.36363636363635 325.09090909090907 L 140.1818181818182 325.09090909090907 L 140.1818181818182 325.09090909090907 L 134.36363636363635 325.09090909090907 L 134.36363636363635 325.09090909090907 Z" stroke-linejoin="bevel" stroke-miterlimit="10" stroke-opacity="0.3"/><path fill="navy" stroke="none" paint-order="stroke fill markers" d=" M 140.1818181818182 232.36363636363637 L 146 232.36363636363637 L 146 325.09090909090907 L 140.1818181818182 325.09090909090907 L 140.1818181818182 232.36363636363637 Z" fill-opacity="0.3"/><path fill="none" stroke="white" paint-order="fill stroke markers" d=" M 140.1818181818182 232.36363636363637 L 146 232.36363636363637 L 146 325.09090909090907 L 140.1818181818182 325.09090909090907 L 140.1818181818182 232.36363636363637 Z" stroke-linejoin="bevel" stroke-miterlimit="10" stroke-opacity="0.3"/><path fill="navy" stroke="none" paint-order="stroke fill markers" d=" M 146 325.09090909090907 L 151.8181818181818 325.09090909090907 L 151.8181818181818 325.09090909090907 L 146 325.09090909090907 L 146 325.09090909090907 Z" fill-opacity="0.3"/><path fill="none" stroke="white" paint-order="fill stroke markers" d=" M 146 325.09090909090907 L 151.8181818181818 325.09090909090907 L 151.8181818181818 325.09090909090907 L 146 325.09090909090907 L 146 325.09090909090907 Z" stroke-linejoin="bevel" stroke-miterlimit="10" stroke-opacity="0.3"/><path fill="navy" stroke="none" paint-order="stroke fill markers" d=" M 151.8181818181818 325.09090909090907 L 157.63636363636365 325.09090909090907 L 157.63636363636365 325.09090909090907 L 151.8181818181818 325.09090909090907 L 151.8181818181818 325.09090909090907 Z" fill-opacity="0.3"/><path fill="none" stroke="white" paint-order="fill stroke markers" d=" M 151.8181818181818 325.09090909090907 L 157.63636363636365 325.09090909090907 L 157.63636363636365 325.09090909090907 L 151.8181818181818 325.09090909090907 L 151.8181818181818 325.09090909090907 Z" stroke-linejoin="bevel" stroke-miterlimit="10" stroke-opacity="0.3"/><path fill="navy" stroke="none" paint-order="stroke fill markers" d=" M 157.63636363636365 278.7272727272727 L 163.45454545454547 278.7272727272727 L 163.45454545454547 325.09090909090907 L 157.63636363636365 325.09090909090907 L 157.63636363636365 278.7272727272727 Z" fill-opacity="0.3"/><path fill="none" stroke="white" paint-order="fill stroke markers" d=" M 157.63636363636365 278.7272727272727 L 163.45454545454547 278.7272727272727 L 163.45454545454547 325.09090909090907 L 157.63636363636365 325.09090909090907 L 157.63636363636365 278.7272727272727 Z" stroke-linejoin="bevel" stroke-miterlimit="10" stroke-opacity="0.3"/><path fill="navy" stroke="none" paint-order="stroke fill markers" d=" M 163.45454545454547 278.7272727272727 L 169.27272727272725 278.7272727272727 L 169.27272727272725 325.09090909090907 L 163.45454545454547 325.09090909090907 L 163.45454545454547 278.7272727272727 Z" fill-opacity="0.3"/><path fill="none" stroke="white" paint-order="fill stroke markers" d=" M 163.45454545454547 278.7272727272727 L 169.27272727272725 278.7272727272727 L 169.27272727272725 325.09090909090907 L 163.45454545454547 325.09090909090907 L 163.45454545454547 278.7272727272727 Z" stroke-linejoin="bevel" stroke-miterlimit="10" stroke-opacity="0.3"/><path fill="navy" stroke="none" paint-order="stroke fill markers" d=" M 169.27272727272725 325.09090909090907 L 175.0909090909091 325.09090909090907 L 175.0909090909091 325.09090909090907 L 169.27272727272725 325.09090909090907 L 169.27272727272725 325.09090909090907 Z" fill-opacity="0.3"/><path fill="none" stroke="white" paint-order="fill stroke markers" d=" M 169.27272727272725 325.09090909090907 L 175.0909090909091 325.09090909090907 L 175.0909090909091 325.09090909090907 L 169.27272727272725 325.09090909090907 L 169.27272727272725 325.09090909090907 Z" stroke-linejoin="bevel" stroke-miterlimit="10" stroke-opacity="0.3"/><path fill="navy" stroke="none" paint-order="stroke fill markers" d=" M 175.0909090909091 278.7272727272727 L 180.9090909090909 278.7272727272727 L 180.9090909090909 325.09090909090907 L 175.0909090909091 325.09090909090907 L 175.0909090909091 278.7272727272727 Z" fill-opacity="0.3"/><path fill="none" stroke="white" paint-order="fill stroke markers" d=" M 175.0909090909091 278.7272727272727 L 180.9090909090909 278.7272727272727 L 180.9090909090909 325.09090909090907 L 175.0909090909091 325.09090909090907 L 175.0909090909091 278.7272727272727 Z" stroke-linejoin="bevel" stroke-miterlimit="10" stroke-opacity="0.3"/><path fill="navy" stroke="none" paint-order="stroke fill markers" d=" M 180.9090909090909 325.09090909090907 L 186.72727272727272 325.09090909090907 L 186.72727272727272 325.09090909090907 L 180.9090909090909 325.09090909090907 L 180.9090909090909 325.09090909090907 Z" fill-opacity="0.3"/><path fill="none" stroke="white" paint-order="fill stroke markers" d=" M 180.9090909090909 325.09090909090907 L 186.72727272727272 325.09090909090907 L 186.72727272727272 325.09090909090907 L 180.9090909090909 325.09090909090907 L 180.9090909090909 325.09090909090907 Z" stroke-linejoin="bevel" stroke-miterlimit="10" stroke-opacity="0.3"/><path fill="navy" stroke="none" paint-order="stroke fill markers" d=" M 186.72727272727272 325.09090909090907 L 192.54545454545456 325.09090909090907 L 192.54545454545456 325.09090909090907 L 186.72727272727272 325.09090909090907 L 186.72727272727272 325.09090909090907 Z" fill-opacity="0.3"/><path fill="none" stroke="white" paint-order="fill stroke markers" d=" M 186.72727272727272 325.09090909090907 L 192.54545454545456 325.09090909090907 L 192.54545454545456 325.09090909090907 L 186.72727272727272 325.09090909090907 L 186.72727272727272 325.09090909090907 Z" stroke-linejoin="bevel" stroke-miterlimit="10" stroke-opacity="0.3"/><path fill="navy" stroke="none" paint-order="stroke fill markers" d=" M 192.54545454545456 325.09090909090907 L 198.36363636363635 325.09090909090907 L 198.36363636363635 325.09090909090907 L 192.54545454545456 325.09090909090907 L 192.54545454545456 325.09090909090907 Z" fill-opacity="0.3"/><path fill="none" stroke="white" paint-order="fill stroke markers" d=" M 192.54545454545456 325.09090909090907 L 198.36363636363635 325.09090909090907 L 198.36363636363635 325.09090909090907 L 192.54545454545456 325.09090909090907 L 192.54545454545456 325.09090909090907 Z" stroke-linejoin="bevel" stroke-miterlimit="10" stroke-opacity="0.3"/><path fill="navy" stroke="none" paint-order="stroke fill markers" d=" M 198.36363636363635 325.09090909090907 L 204.18181818181816 325.09090909090907 L 204.18181818181816 325.09090909090907 L 198.36363636363635 325.09090909090907 L 198.36363636363635 325.09090909090907 Z" fill-opacity="0.3"/><path fill="none" stroke="white" paint-order="fill stroke markers" d=" M 198.36363636363635 325.09090909090907 L 204.18181818181816 325.09090909090907 L 204.18181818181816 325.09090909090907 L 198.36363636363635 325.09090909090907 L 198.36363636363635 325.09090909090907 Z" stroke-linejoin="bevel" stroke-miterlimit="10" stroke-opacity="0.3"/><path fill="navy" stroke="none" paint-order="stroke fill markers" d=" M 204.18181818181816 278.7272727272727 L 210 278.7272727272727 L 210 325.09090909090907 L 204.18181818181816 325.09090909090907 L 204.18181818181816 278.7272727272727 Z" fill-opacity="0.3"/><path fill="none" stroke="white" paint-order="fill stroke markers" d=" M 204.18181818181816 278.7272727272727 L 210 278.7272727272727 L 210 325.09090909090907 L 204.18181818181816 325.09090909090907 L 204.18181818181816 278.7272727272727 Z" stroke-linejoin="bevel" stroke-miterlimit="10" stroke-opacity="0.3"/><path fill="navy" stroke="none" paint-order="stroke fill markers" d=" M 210 325.09090909090907 L 215.8181818181818 325.09090909090907 L 215.8181818181818 325.09090909090907 L 210 325.09090909090907 L 210 325.09090909090907 Z" fill-opacity="0.3"/><path fill="none" stroke="white" paint-order="fill stroke markers" d=" M 210 325.09090909090907 L 215.8181818181818 325.09090909090907 L 215.8181818181818 325.09090909090907 L 210 325.09090909090907 L 210 325.09090909090907 Z" stroke-linejoin="bevel" stroke-miterlimit="10" stroke-opacity="0.3"/><path fill="navy" stroke="none" paint-order="stroke fill markers" d=" M 215.8181818181818 325.09090909090907 L 221.63636363636363 325.09090909090907 L 221.63636363636363 325.09090909090907 L 215.8181818181818 325.09090909090907 L 215.8181818181818 325.09090909090907 Z" fill-opacity="0.3"/><path fill="none" stroke="white" paint-order="fill stroke markers" d=" M 215.8181818181818 325.09090909090907 L 221.63636363636363 325.09090909090907 L 221.63636363636363 325.09090909090907 L 215.8181818181818 325.09090909090907 L 215.8181818181818 325.09090909090907 Z" stroke-linejoin="bevel" stroke-miterlimit="10" stroke-opacity="0.3"/><path fill="navy" stroke="none" paint-order="stroke fill markers" d=" M 221.63636363636363 139.63636363636365 L 227.45454545454547 139.63636363636365 L 227.45454545454547 325.09090909090907 L 221.63636363636363 325.09090909090907 L 221.63636363636363 139.63636363636365 Z" fill-opacity="0.3"/><path fill="none" stroke="white" paint-order="fill stroke markers" d=" M 221.63636363636363 139.63636363636365 L 227.45454545454547 139.63636363636365 L 227.45454545454547 325.09090909090907 L 221.63636363636363 325.09090909090907 L 221.63636363636363 139.63636363636365 Z" stroke-linejoin="bevel" stroke-miterlimit="10" stroke-opacity="0.3"/><path fill="navy" stroke="none" paint-order="stroke fill markers" d=" M 227.45454545454547 278.7272727272727 L 233.27272727272725 278.7272727272727 L 233.27272727272725 325.09090909090907 L 227.45454545454547 325.09090909090907 L 227.45454545454547 278.7272727272727 Z" fill-opacity="0.3"/><path fill="none" stroke="white" paint-order="fill stroke markers" d=" M 227.45454545454547 278.7272727272727 L 233.27272727272725 278.7272727272727 L 233.27272727272725 325.09090909090907 L 227.45454545454547 325.09090909090907 L 227.45454545454547 278.7272727272727 Z" stroke-linejoin="bevel" stroke-miterlimit="10" stroke-opacity="0.3"/><path fill="navy" stroke="none" paint-order="stroke fill markers" d=" M 233.27272727272725 325.09090909090907 L 239.09090909090907 325.09090909090907 L 239.09090909090907 325.09090909090907 L 233.27272727272725 325.09090909090907 L 233.27272727272725 325.09090909090907 Z" fill-opacity="0.3"/><path fill="none" stroke="white" paint-order="fill stroke markers" d=" M 233.27272727272725 325.09090909090907 L 239.09090909090907 325.09090909090907 L 239.09090909090907 325.09090909090907 L 233.27272727272725 325.09090909090907 L 233.27272727272725 325.09090909090907 Z" stroke-linejoin="bevel" stroke-miterlimit="10" stroke-opacity="0.3"/><path fill="navy" stroke="none" paint-order="stroke fill markers" d=" M 239.09090909090907 325.09090909090907 L 244.90909090909088 325.09090909090907 L 244.90909090909088 325.09090909090907 L 239.09090909090907 325.09090909090907 L 239.09090909090907 325.09090909090907 Z" fill-opacity="0.3"/><path fill="none" stroke="white" paint-order="fill stroke markers" d=" M 239.09090909090907 325.09090909090907 L 244.90909090909088 325.09090909090907 L 244.90909090909088 325.09090909090907 L 239.09090909090907 325.09090909090907 L 239.09090909090907 325.09090909090907 Z" stroke-linejoin="bevel" stroke-miterlimit="10" stroke-opacity="0.3"/><path fill="navy" stroke="none" paint-order="stroke fill markers" d=" M 244.90909090909088 278.7272727272727 L 250.72727272727272 278.7272727272727 L 250.72727272727272 325.09090909090907 L 244.90909090909088 325.09090909090907 L 244.90909090909088 278.7272727272727 Z" fill-opacity="0.3"/><path fill="none" stroke="white" paint-order="fill stroke markers" d=" M 244.90909090909088 278.7272727272727 L 250.72727272727272 278.7272727272727 L 250.72727272727272 325.09090909090907 L 244.90909090909088 325.09090909090907 L 244.90909090909088 278.7272727272727 Z" stroke-linejoin="bevel" stroke-miterlimit="10" stroke-opacity="0.3"/><path fill="navy" stroke="none" paint-order="stroke fill markers" d=" M 250.72727272727272 325.09090909090907 L 256.5454545454545 325.09090909090907 L 256.5454545454545 325.09090909090907 L 250.72727272727272 325.09090909090907 L 250.72727272727272 325.09090909090907 Z" fill-opacity="0.3"/><path fill="none" stroke="white" paint-order="fill stroke markers" d=" M 250.72727272727272 325.09090909090907 L 256.5454545454545 325.09090909090907 L 256.5454545454545 325.09090909090907 L 250.72727272727272 325.09090909090907 L 250.72727272727272 325.09090909090907 Z" stroke-linejoin="bevel" stroke-miterlimit="10" stroke-opacity="0.3"/><path fill="navy" stroke="none" paint-order="stroke fill markers" d=" M 256.5454545454545 325.09090909090907 L 262.3636363636363 325.09090909090907 L 262.3636363636363 325.09090909090907 L 256.5454545454545 325.09090909090907 L 256.5454545454545 325.09090909090907 Z" fill-opacity="0.3"/><path fill="none" stroke="white" paint-order="fill stroke markers" d=" M 256.5454545454545 325.09090909090907 L 262.3636363636363 325.09090909090907 L 262.3636363636363 325.09090909090907 L 256.5454545454545 325.09090909090907 L 256.5454545454545 325.09090909090907 Z" stroke-linejoin="bevel" stroke-miterlimit="10" stroke-opacity="0.3"/><path fill="navy" stroke="none" paint-order="stroke fill markers" d=" M 262.3636363636363 325.09090909090907 L 268.1818181818182 325.09090909090907 L 268.1818181818182 325.09090909090907 L 262.3636363636363 325.09090909090907 L 262.3636363636363 325.09090909090907 Z" fill-opacity="0.3"/><path fill="none" stroke="white" paint-order="fill stroke markers" d=" M 262.3636363636363 325.09090909090907 L 268.1818181818182 325.09090909090907 L 268.1818181818182 325.09090909090907 L 262.3636363636363 325.09090909090907 L 262.3636363636363 325.09090909090907 Z" stroke-linejoin="bevel" stroke-miterlimit="10" stroke-opacity="0.3"/><path fill="navy" stroke="none" paint-order="stroke fill markers" d=" M 268.1818181818182 325.09090909090907 L 273.99999999999994 325.09090909090907 L 273.99999999999994 325.09090909090907 L 268.1818181818182 325.09090909090907 L 268.1818181818182 325.09090909090907 Z" fill-opacity="0.3"/><path fill="none" stroke="white" paint-order="fill stroke markers" d=" M 268.1818181818182 325.09090909090907 L 273.99999999999994 325.09090909090907 L 273.99999999999994 325.09090909090907 L 268.1818181818182 325.09090909090907 L 268.1818181818182 325.09090909090907 Z" stroke-linejoin="bevel" stroke-miterlimit="10" stroke-opacity="0.3"/><path fill="navy" stroke="none" paint-order="stroke fill markers" d=" M 273.99999999999994 278.7272727272727 L 279.81818181818176 278.7272727272727 L 279.81818181818176 325.09090909090907 L 273.99999999999994 325.09090909090907 L 273.99999999999994 278.7272727272727 Z" fill-opacity="0.3"/><path fill="none" stroke="white" paint-order="fill stroke markers" d=" M 273.99999999999994 278.7272727272727 L 279.81818181818176 278.7272727272727 L 279.81818181818176 325.09090909090907 L 273.99999999999994 325.09090909090907 L 273.99999999999994 278.7272727272727 Z" stroke-linejoin="bevel" stroke-miterlimit="10" stroke-opacity="0.3"/><path fill="navy" stroke="none" paint-order="stroke fill markers" d=" M 279.81818181818176 325.09090909090907 L 285.6363636363636 325.09090909090907 L 285.6363636363636 325.09090909090907 L 279.81818181818176 325.09090909090907 L 279.81818181818176 325.09090909090907 Z" fill-opacity="0.3"/><path fill="none" stroke="white" paint-order="fill stroke markers" d=" M 279.81818181818176 325.09090909090907 L 285.6363636363636 325.09090909090907 L 285.6363636363636 325.09090909090907 L 279.81818181818176 325.09090909090907 L 279.81818181818176 325.09090909090907 Z" stroke-linejoin="bevel" stroke-miterlimit="10" stroke-opacity="0.3"/><path fill="navy" stroke="none" paint-order="stroke fill markers" d=" M 285.6363636363636 325.09090909090907 L 291.45454545454544 325.09090909090907 L 291.45454545454544 325.09090909090907 L 285.6363636363636 325.09090909090907 L 285.6363636363636 325.09090909090907 Z" fill-opacity="0.3"/><path fill="none" stroke="white" paint-order="fill stroke markers" d=" M 285.6363636363636 325.09090909090907 L 291.45454545454544 325.09090909090907 L 291.45454545454544 325.09090909090907 L 285.6363636363636 325.09090909090907 L 285.6363636363636 325.09090909090907 Z" stroke-linejoin="bevel" stroke-miterlimit="10" stroke-opacity="0.3"/><path fill="navy" stroke="none" paint-order="stroke fill markers" d=" M 291.45454545454544 325.09090909090907 L 297.27272727272725 325.09090909090907 L 297.27272727272725 325.09090909090907 L 291.45454545454544 325.09090909090907 L 291.45454545454544 325.09090909090907 Z" fill-opacity="0.3"/><path fill="none" stroke="white" paint-order="fill stroke markers" d=" M 291.45454545454544 325.09090909090907 L 297.27272727272725 325.09090909090907 L 297.27272727272725 325.09090909090907 L 291.45454545454544 325.09090909090907 L 291.45454545454544 325.09090909090907 Z" stroke-linejoin="bevel" stroke-miterlimit="10" stroke-opacity="0.3"/><path fill="navy" stroke="none" paint-order="stroke fill markers" d=" M 297.27272727272725 325.09090909090907 L 303.09090909090907 325.09090909090907 L 303.09090909090907 325.09090909090907 L 297.27272727272725 325.09090909090907 L 297.27272727272725 325.09090909090907 Z" fill-opacity="0.3"/><path fill="none" stroke="white" paint-order="fill stroke markers" d=" M 297.27272727272725 325.09090909090907 L 303.09090909090907 325.09090909090907 L 303.09090909090907 325.09090909090907 L 297.27272727272725 325.09090909090907 L 297.27272727272725 325.09090909090907 Z" stroke-linejoin="bevel" stroke-miterlimit="10" stroke-opacity="0.3"/><path fill="navy" stroke="none" paint-order="stroke fill markers" d=" M 303.09090909090907 232.36363636363637 L 308.9090909090909 232.36363636363637 L 308.9090909090909 325.09090909090907 L 303.09090909090907 325.09090909090907 L 303.09090909090907 232.36363636363637 Z" fill-opacity="0.3"/><path fill="none" stroke="white" paint-order="fill stroke markers" d=" M 303.09090909090907 232.36363636363637 L 308.9090909090909 232.36363636363637 L 308.9090909090909 325.09090909090907 L 303.09090909090907 325.09090909090907 L 303.09090909090907 232.36363636363637 Z" stroke-linejoin="bevel" stroke-miterlimit="10" stroke-opacity="0.3"/><path fill="navy" stroke="none" paint-order="stroke fill markers" d=" M 308.9090909090909 325.09090909090907 L 314.72727272727275 325.09090909090907 L 314.72727272727275 325.09090909090907 L 308.9090909090909 325.09090909090907 L 308.9090909090909 325.09090909090907 Z" fill-opacity="0.3"/><path fill="none" stroke="white" paint-order="fill stroke markers" d=" M 308.9090909090909 325.09090909090907 L 314.72727272727275 325.09090909090907 L 314.72727272727275 325.09090909090907 L 308.9090909090909 325.09090909090907 L 308.9090909090909 325.09090909090907 Z" stroke-linejoin="bevel" stroke-miterlimit="10" stroke-opacity="0.3"/><path fill="navy" stroke="none" paint-order="stroke fill markers" d=" M 314.72727272727275 325.09090909090907 L 320.54545454545456 325.09090909090907 L 320.54545454545456 325.09090909090907 L 314.72727272727275 325.09090909090907 L 314.72727272727275 325.09090909090907 Z" fill-opacity="0.3"/><path fill="none" stroke="white" paint-order="fill stroke markers" d=" M 314.72727272727275 325.09090909090907 L 320.54545454545456 325.09090909090907 L 320.54545454545456 325.09090909090907 L 314.72727272727275 325.09090909090907 L 314.72727272727275 325.09090909090907 Z" stroke-linejoin="bevel" stroke-miterlimit="10" stroke-opacity="0.3"/><path fill="navy" stroke="none" paint-order="stroke fill markers" d=" M 320.54545454545456 278.7272727272727 L 326.3636363636363 278.7272727272727 L 326.3636363636363 325.09090909090907 L 320.54545454545456 325.09090909090907 L 320.54545454545456 278.7272727272727 Z" fill-opacity="0.3"/><path fill="none" stroke="white" paint-order="fill stroke markers" d=" M 320.54545454545456 278.7272727272727 L 326.3636363636363 278.7272727272727 L 326.3636363636363 325.09090909090907 L 320.54545454545456 325.09090909090907 L 320.54545454545456 278.7272727272727 Z" stroke-linejoin="bevel" stroke-miterlimit="10" stroke-opacity="0.3"/><path fill="navy" stroke="none" paint-order="stroke fill markers" d=" M 326.3636363636363 325.09090909090907 L 332.18181818181813 325.09090909090907 L 332.18181818181813 325.09090909090907 L 326.3636363636363 325.09090909090907 L 326.3636363636363 325.09090909090907 Z" fill-opacity="0.3"/><path fill="none" stroke="white" paint-order="fill stroke markers" d=" M 326.3636363636363 325.09090909090907 L 332.18181818181813 325.09090909090907 L 332.18181818181813 325.09090909090907 L 326.3636363636363 325.09090909090907 L 326.3636363636363 325.09090909090907 Z" stroke-linejoin="bevel" stroke-miterlimit="10" stroke-opacity="0.3"/><path fill="navy" stroke="none" paint-order="stroke fill markers" d=" M 332.18181818181813 325.09090909090907 L 337.99999999999994 325.09090909090907 L 337.99999999999994 325.09090909090907 L 332.18181818181813 325.09090909090907 L 332.18181818181813 325.09090909090907 Z" fill-opacity="0.3"/><path fill="none" stroke="white" paint-order="fill stroke markers" d=" M 332.18181818181813 325.09090909090907 L 337.99999999999994 325.09090909090907 L 337.99999999999994 325.09090909090907 L 332.18181818181813 325.09090909090907 L 332.18181818181813 325.09090909090907 Z" stroke-linejoin="bevel" stroke-miterlimit="10" stroke-opacity="0.3"/><path fill="navy" stroke="none" paint-order="stroke fill markers" d=" M 337.99999999999994 325.09090909090907 L 343.81818181818176 325.09090909090907 L 343.81818181818176 325.09090909090907 L 337.99999999999994 325.09090909090907 L 337.99999999999994 325.09090909090907 Z" fill-opacity="0.3"/><path fill="none" stroke="white" paint-order="fill stroke markers" d=" M 337.99999999999994 325.09090909090907 L 343.81818181818176 325.09090909090907 L 343.81818181818176 325.09090909090907 L 337.99999999999994 325.09090909090907 L 337.99999999999994 325.09090909090907 Z" stroke-linejoin="bevel" stroke-miterlimit="10" stroke-opacity="0.3"/><path fill="navy" stroke="none" paint-order="stroke fill markers" d=" M 343.81818181818176 325.09090909090907 L 349.63636363636357 325.09090909090907 L 349.63636363636357 325.09090909090907 L 343.81818181818176 325.09090909090907 L 343.81818181818176 325.09090909090907 Z" fill-opacity="0.3"/><path fill="none" stroke="white" paint-order="fill stroke markers" d=" M 343.81818181818176 325.09090909090907 L 349.63636363636357 325.09090909090907 L 349.63636363636357 325.09090909090907 L 343.81818181818176 325.09090909090907 L 343.81818181818176 325.09090909090907 Z" stroke-linejoin="bevel" stroke-miterlimit="10" stroke-opacity="0.3"/><path fill="navy" stroke="none" paint-order="stroke fill markers" d=" M 349.63636363636357 278.7272727272727 L 355.45454545454544 278.7272727272727 L 355.45454545454544 325.09090909090907 L 349.63636363636357 325.09090909090907 L 349.63636363636357 278.7272727272727 Z" fill-opacity="0.3"/><path fill="none" stroke="white" paint-order="fill stroke markers" d=" M 349.63636363636357 278.7272727272727 L 355.45454545454544 278.7272727272727 L 355.45454545454544 325.09090909090907 L 349.63636363636357 325.09090909090907 L 349.63636363636357 278.7272727272727 Z" stroke-linejoin="bevel" stroke-miterlimit="10" stroke-opacity="0.3"/></g></g></g><g clip-path="url(#eshQncTKWvHS)"><g><g><path fill="none" stroke="red" paint-order="fill stroke markers" d=" M 144.86639110073432 33 L 144.86639110073432 339" stroke-linejoin="bevel" stroke-miterlimit="10" stroke-width="3" stroke-dasharray="6"/></g></g></g><g><g fill="#444444"><path fill="" stroke="none" d=""/><g transform="translate(210,5)"><path fill="none" stroke="none"/><text fill="" stroke="none" font-family="helvetica" font-size="12pt" font-style="normal" font-weight="bold" text-decoration="normal" x="0" y="0" text-anchor="middle" dominant-baseline="text-before-edge">Inter-molecular distances/Linker DSS</text></g></g></g><g/><g><g fill="#444444"><path fill="none" stroke="black" paint-order="fill stroke markers" d=" M 50 339 L 370 339" stroke-linejoin="bevel" stroke-miterlimit="10"/><path fill="none" stroke="black" paint-order="fill stroke markers" d=" M 106 345 L 106 337" stroke-linejoin="bevel" stroke-miterlimit="10"/><path fill="none" stroke="black" paint-order="fill stroke markers" d=" M 184 345 L 184 337" stroke-linejoin="bevel" stroke-miterlimit="10"/><path fill="none" stroke="black" paint-order="fill stroke markers" d=" M 263 345 L 263 337" stroke-linejoin="bevel" stroke-miterlimit="10"/><path fill="none" stroke="black" paint-order="fill stroke markers" d=" M 341 345 L 341 337" stroke-linejoin="bevel" stroke-miterlimit="10"/><path fill="none" stroke="black" paint-order="fill stroke markers" d=" M 90 343 L 90 339" stroke-linejoin="bevel" stroke-miterlimit="10"/><path fill="none" stroke="black" paint-order="fill stroke markers" d=" M 74 343 L 74 339" stroke-linejoin="bevel" stroke-miterlimit="10"/><path fill="none" stroke="black" paint-order="fill stroke markers" d=" M 59 343 L 59 339" stroke-linejoin="bevel" stroke-miterlimit="10"/><path fill="none" stroke="black" paint-order="fill stroke markers" d=" M 106 343 L 106 339" stroke-linejoin="bevel" stroke-miterlimit="10"/><path fill="none" stroke="black" paint-order="fill stroke markers" d=" M 121 343 L 121 339" stroke-linejoin="bevel" stroke-miterlimit="10"/><path fill="none" stroke="black" paint-order="fill stroke markers" d=" M 137 343 L 137 339" stroke-linejoin="bevel" stroke-miterlimit="10"/><path fill="none" stroke="black" paint-order="fill stroke markers" d=" M 153 343 L 153 339" stroke-linejoin="bevel" stroke-miterlimit="10"/><path fill="none" stroke="black" paint-order="fill stroke markers" d=" M 168 343 L 168 339" stroke-linejoin="bevel" stroke-miterlimit="10"/><path fill="none" stroke="black" paint-order="fill stroke markers" d=" M 184 343 L 184 339" stroke-linejoin="bevel" stroke-miterlimit="10"/><path fill="none" stroke="black" paint-order="fill stroke markers" d=" M 200 343 L 200 339" stroke-linejoin="bevel" stroke-miterlimit="10"/><path fill="none" stroke="black" paint-order="fill stroke markers" d=" M 215 343 L 215 339" stroke-linejoin="bevel" stroke-miterlimit="10"/><path fill="none" stroke="black" paint-order="fill stroke markers" d=" M 231 343 L 231 339" stroke-linejoin="bevel" stroke-miterlimit="10"/><path fill="none" stroke="black" paint-order="fill stroke markers" d=" M 247 343 L 247 339" stroke-linejoin="bevel" stroke-miterlimit="10"/><path fill="none" stroke="black" paint-order="fill stroke markers" d=" M 263 343 L 263 339" stroke-linejoin="bevel" stroke-miterlimit="10"/><path fill="none" stroke="black" paint-order="fill stroke markers" d=" M 278 343 L 278 339" stroke-linejoin="bevel" stroke-miterlimit="10"/><path fill="none" stroke="black" paint-order="fill stroke markers" d=" M 294 343 L 294 339" stroke-linejoin="bevel" stroke-miterlimit="10"/><path fill="none" stroke="black" paint-order="fill stroke markers" d=" M 310 343 L 310 339" stroke-linejoin="bevel" stroke-miterlimit="10"/><path fill="none" stroke="black" paint-order="fill stroke markers" d=" M 325 343 L 325 339" stroke-linejoin="bevel" stroke-miterlimit="10"/><path fill="none" stroke="black" paint-order="fill stroke markers" d=" M 341 343 L 341 339" stroke-linejoin="bevel" stroke-miterlimit="10"/><path fill="" stroke="black" paint-order="fill stroke markers" d=" M 357 343 L 357 339" stroke-linejoin="bevel" stroke-miterlimit="10"/><g transform="translate(106,350) rotate(0,0,0)"><text fill="" stroke="none" font-family="helvetica" font-size="14pt" font-style="normal" font-weight="normal" text-decoration="normal" x="0" y="0" text-anchor="middle" dominant-baseline="hanging">20</text><g transform="rotate(0,0,0) translate(-106,-350) translate(184,350) rotate(0,0,0)"><text fill="" stroke="none" font-family="helvetica" font-size="14pt" font-style="normal" font-weight="normal" text-decoration="normal" x="0" y="0" text-anchor="middle" dominant-baseline="hanging">40</text><g transform="rotate(0,0,0) translate(-184,-350) translate(263,350) rotate(0,0,0)"><text fill="" stroke="none" font-family="helvetica" font-size="14pt" font-style="normal" font-weight="normal" text-decoration="normal" x="0" y="0" text-anchor="middle" dominant-baseline="hanging">60</text><g transform="rotate(0,0,0) translate(-263,-350) translate(341,350) rotate(0,0,0)"><text fill="" stroke="none" font-family="helvetica" font-size="14pt" font-style="normal" font-weight="normal" text-decoration="normal" x="0" y="0" text-anchor="middle" dominant-baseline="hanging">80</text><g transform="rotate(0,0,0) translate(-341,-350) translate(210,377) rotate(0,0,0)"><text fill="" stroke="none" font-family="helvetica" font-size="14pt" font-style="italic" font-weight="normal" text-decoration="normal" x="0" y="0" text-anchor="middle" dominant-baseline="hanging">Distance Å</text><g transform="rotate(0,0,0) translate(-210,-377)"/></g></g></g></g></g></g></g><g><g fill="#444444"><path fill="none" stroke="black" paint-order="fill stroke markers" d=" M 50 339 L 50 33" stroke-linejoin="bevel" stroke-miterlimit="10"/><path fill="none" stroke="black" paint-order="fill stroke markers" d=" M 44 325 L 52 325" stroke-linejoin="bevel" stroke-miterlimit="10"/><path fill="none" stroke="black" paint-order="fill stroke markers" d=" M 44 279 L 52 279" stroke-linejoin="bevel" stroke-miterlimit="10"/><path fill="none" stroke="black" paint-order="fill stroke markers" d=" M 44 232 L 52 232" stroke-linejoin="bevel" stroke-miterlimit="10"/><path fill="none" stroke="black" paint-order="fill stroke markers" d=" M 44 186 L 52 186" stroke-linejoin="bevel" stroke-miterlimit="10"/><path fill="none" stroke="black" paint-order="fill stroke markers" d=" M 44 140 L 52 140" stroke-linejoin="bevel" stroke-miterlimit="10"/><path fill="none" stroke="black" paint-order="fill stroke markers" d=" M 44 93 L 52 93" stroke-linejoin="bevel" stroke-miterlimit="10"/><path fill="none" stroke="black" paint-order="fill stroke markers" d=" M 44 47 L 52 47" stroke-linejoin="bevel" stroke-miterlimit="10"/><path fill="none" stroke="black" paint-order="fill stroke markers" d=" M 46 334 L 50 334" stroke-linejoin="bevel" stroke-miterlimit="10"/><path fill="none" stroke="black" paint-order="fill stroke markers" d=" M 46 325 L 50 325" stroke-linejoin="bevel" stroke-miterlimit="10"/><path fill="none" stroke="black" paint-order="fill stroke markers" d=" M 46 316 L 50 316" stroke-linejoin="bevel" stroke-miterlimit="10"/><path fill="none" stroke="black" paint-order="fill stroke markers" d=" M 46 307 L 50 307" stroke-linejoin="bevel" stroke-miterlimit="10"/><path fill="none" stroke="black" paint-order="fill stroke markers" d=" M 46 297 L 50 297" stroke-linejoin="bevel" stroke-miterlimit="10"/><path fill="none" stroke="black" paint-order="fill stroke markers" d=" M 46 288 L 50 288" stroke-linejoin="bevel" stroke-miterlimit="10"/><path fill="none" stroke="black" paint-order="fill stroke markers" d=" M 46 279 L 50 279" stroke-linejoin="bevel" stroke-miterlimit="10"/><path fill="none" stroke="black" paint-order="fill stroke markers" d=" M 46 269 L 50 269" stroke-linejoin="bevel" stroke-miterlimit="10"/><path fill="none" stroke="black" paint-order="fill stroke markers" d=" M 46 260 L 50 260" stroke-linejoin="bevel" stroke-miterlimit="10"/><path fill="none" stroke="black" paint-order="fill stroke markers" d=" M 46 251 L 50 251" stroke-linejoin="bevel" stroke-miterlimit="10"/><path fill="none" stroke="black" paint-order="fill stroke markers" d=" M 46 242 L 50 242" stroke-linejoin="bevel" stroke-miterlimit="10"/><path fill="none" stroke="black" paint-order="fill stroke markers" d=" M 46 232 L 50 232" stroke-linejoin="bevel" stroke-miterlimit="10"/><path fill="none" stroke="black" paint-order="fill stroke markers" d=" M 46 223 L 50 223" stroke-linejoin="bevel" stroke-miterlimit="10"/><path fill="none" stroke="black" paint-order="fill stroke markers" d=" M 46 214 L 50 214" stroke-linejoin="bevel" stroke-miterlimit="10"/><path fill="none" stroke="black" paint-order="fill stroke markers" d=" M 46 205 L 50 205" stroke-linejoin="bevel" stroke-miterlimit="10"/><path fill="none" stroke="black" paint-order="fill stroke markers" d=" M 46 195 L 50 195" stroke-linejoin="bevel" stroke-miterlimit="10"/><path fill="none" stroke="black" paint-order="fill stroke markers" d=" M 46 186 L 50 186" stroke-linejoin="bevel" stroke-miterlimit="10"/><path fill="none" stroke="black" paint-order="fill stroke markers" d=" M 46 177 L 50 177" stroke-linejoin="bevel" stroke-miterlimit="10"/><path fill="none" stroke="black" paint-order="fill stroke markers" d=" M 46 167 L 50 167" stroke-linejoin="bevel" stroke-miterlimit="10"/><path fill="none" stroke="black" paint-order="fill stroke markers" d=" M 46 158 L 50 158" stroke-linejoin="bevel" stroke-miterlimit="10"/><path fill="none" stroke="black" paint-order="fill stroke markers" d=" M 46 149 L 50 149" stroke-linejoin="bevel" stroke-miterlimit="10"/><path fill="none" stroke="black" paint-order="fill stroke markers" d=" M 46 140 L 50 140" stroke-linejoin="bevel" stroke-miterlimit="10"/><path fill="none" stroke="black" paint-order="fill stroke markers" d=" M 46 130 L 50 130" stroke-linejoin="bevel" stroke-miterlimit="10"/><path fill="none" stroke="black" paint-order="fill stroke markers" d=" M 46 121 L 50 121" stroke-linejoin="bevel" stroke-miterlimit="10"/><path fill="none" stroke="black" paint-order="fill stroke markers" d=" M 46 112 L 50 112" stroke-linejoin="bevel" stroke-miterlimit="10"/><path fill="none" stroke="black" paint-order="fill stroke markers" d=" M 46 103 L 50 103" stroke-linejoin="bevel" stroke-miterlimit="10"/><path fill="none" stroke="black" paint-order="fill stroke markers" d=" M 46 93 L 50 93" stroke-linejoin="bevel" stroke-miterlimit="10"/><path fill="none" stroke="black" paint-order="fill stroke markers" d=" M 46 84 L 50 84" stroke-linejoin="bevel" stroke-miterlimit="10"/><path fill="none" stroke="black" paint-order="fill stroke markers" d=" M 46 75 L 50 75" stroke-linejoin="bevel" stroke-miterlimit="10"/><path fill="none" stroke="black" paint-order="fill stroke markers" d=" M 46 65 L 50 65" stroke-linejoin="bevel" stroke-miterlimit="10"/><path fill="none" stroke="black" paint-order="fill stroke markers" d=" M 46 56 L 50 56" stroke-linejoin="bevel" stroke-miterlimit="10"/><path fill="none" stroke="black" paint-order="fill stroke markers" d=" M 46 47 L 50 47" stroke-linejoin="bevel" stroke-miterlimit="10"/><path fill="" stroke="black" paint-order="fill stroke markers" d=" M 46 38 L 50 38" stroke-linejoin="bevel" stroke-miterlimit="10"/><g transform="translate(39,325) rotate(0,0,0)"><text fill="" stroke="none" font-family="helvetica" font-size="14pt" font-style="normal" font-weight="normal" text-decoration="normal" x="0" y="0" text-anchor="end" dominant-baseline="central">0</text><g transform="rotate(0,0,0) translate(-39,-325) translate(39,279) rotate(0,0,0)"><text fill="" stroke="none" font-family="helvetica" font-size="14pt" font-style="normal" font-weight="normal" text-decoration="normal" x="0" y="0" text-anchor="end" dominant-baseline="central">1</text><g transform="rotate(0,0,0) translate(-39,-279) translate(39,232) rotate(0,0,0)"><text fill="" stroke="none" font-family="helvetica" font-size="14pt" font-style="normal" font-weight="normal" text-decoration="normal" x="0" y="0" text-anchor="end" dominant-baseline="central">2</text><g transform="rotate(0,0,0) translate(-39,-232) translate(39,186) rotate(0,0,0)"><text fill="" stroke="none" font-family="helvetica" font-size="14pt" font-style="normal" font-weight="normal" text-decoration="normal" x="0" y="0" text-anchor="end" dominant-baseline="central">3</text><g transform="rotate(0,0,0) translate(-39,-186) translate(39,140) rotate(0,0,0)"><text fill="" stroke="none" font-family="helvetica" font-size="14pt" font-style="normal" font-weight="normal" text-decoration="normal" x="0" y="0" text-anchor="end" dominant-baseline="central">4</text><g transform="rotate(0,0,0) translate(-39,-140) translate(39,93) rotate(0,0,0)"><text fill="" stroke="none" font-family="helvetica" font-size="14pt" font-style="normal" font-weight="normal" text-decoration="normal" x="0" y="0" text-anchor="end" dominant-baseline="central">5</text><g transform="rotate(0,0,0) translate(-39,-93) translate(39,47) rotate(0,0,0)"><text fill="" stroke="none" font-family="helvetica" font-size="14pt" font-style="normal" font-weight="normal" text-decoration="normal" x="0" y="0" text-anchor="end" dominant-baseline="central">6</text><g transform="rotate(0,0,0) translate(-39,-47) translate(23,186) rotate(-90,0,0)"><text fill="" stroke="none" font-family="helvetica" font-size="14pt" font-style="italic" font-weight="normal" text-decoration="normal" x="0" y="0" text-anchor="middle" dominant-baseline="alphabetic">Number of cross-links</text><g transform="rotate(90,0,0) translate(-23,-186)"/></g></g></g></g></g></g></g></g></g></g><g clip-path="url(#gozaLEGCrdan)"><g/></g></g></g></svg>