<svg version="1.1" xmlns="http://www.w3.org/2000/svg" xmlns:xlink="http://www.w3.org/1999/xlink" width="700" height="250" style="width: 700px; height: 250px;"><defs><clipPath id="lpcSBJcHBlcf"><path fill="none" stroke="none" d=" M 84 37 L 670 37 L 670 189 L 84 189 L 84 37 Z"/></clipPath><clipPath id="VymyxUoCtRSD"><path fill="none" stroke="none" d=" M 84 37 L 670 37 L 670 189 L 84 189 L 84 37 Z"/></clipPath><clipPath id="MoTvBtppRBAJ"><path fill="none" stroke="none" d=" M 84 37 L 670 37 L 670 189 L 84 189 L 84 37 Z"/></clipPath><clipPath id="OHQmcTrCiOmK"><path fill="none" stroke="none" d=" M 84 37 L 670 37 L 670 189 L 84 189 L 84 37 Z"/></clipPath><clipPath id="DiVbdbNByrhi"><path fill="none" stroke="none" d=" M 84 37 L 670 37 L 670 189 L 84 189 L 84 37 Z"/></clipPath><clipPath id="xkhIHQWfyzNg"><path fill="none" stroke="none" d=" M 84 37 L 670 37 L 670 189 L 84 189 L 84 37 Z"/></clipPath><clipPath id="TbTfiJmDyGOI"><path fill="none" stroke="none" d=" M 84 37 L 670 37 L 670 189 L 84 189 L 84 37 Z"/></clipPath><clipPath id="FnfmMIpgbhhg"><path fill="none" stroke="none" d=" M 84 37 L 670 37 L 670 189 L 84 189 L 84 37 Z"/></clipPath><clipPath id="SSoLVIMLUdAt"><path fill="none" stroke="none" d=" M 84 37 L 670 37 L 670 189 L 84 189 L 84 37 Z"/></clipPath><clipPath id="rHeKVKRTMKJv"><path fill="none" stroke="none" d=" M 84 37 L 670 37 L 670 189 L 84 189 L 84 37 Z"/></clipPath></defs><g><g transform="scale(1,1) translate(0.5,0.5)"><rect fill="#FFFFFF" stroke="none" x="0" y="0" width="700" height="250"/><rect fill="#ffffff" stroke="none" x="0" y="0" width="700" height="250"/><rect fill="#FFFFFF" stroke="none" x="84" y="37" width="586" height="152"/><rect fill="#ffffff" stroke="none" x="84" y="37" width="586" height="152"/><g><rect fill="none" stroke="#e5e5e5" x="84" y="37" width="586" height="152" stroke-linejoin="bevel" stroke-miterlimit="10"/></g><g clip-path="url(#lpcSBJcHBlcf)"><g><g><path fill="none" stroke="#e5e5e5" paint-order="fill stroke markers" d=" M 176 189 L 176 37" stroke-linejoin="bevel" stroke-miterlimit="10"/><path fill="none" stroke="#e5e5e5" paint-order="fill stroke markers" d=" M 285 189 L 285 37" stroke-linejoin="bevel" stroke-miterlimit="10"/><path fill="none" stroke="#e5e5e5" paint-order="fill stroke markers" d=" M 393 189 L 393 37" stroke-linejoin="bevel" stroke-miterlimit="10"/><path fill="none" stroke="#e5e5e5" paint-order="fill stroke markers" d=" M 502 189 L 502 37" stroke-linejoin="bevel" stroke-miterlimit="10"/><path fill="none" stroke="#e5e5e5" paint-order="fill stroke markers" d=" M 610 189 L 610 37" stroke-linejoin="bevel" stroke-miterlimit="10"/></g></g></g><g clip-path="url(#VymyxUoCtRSD)"><g><g/></g></g><g clip-path="url(#MoTvBtppRBAJ)"><g><g><path fill="none" stroke="none"/><path fill="#440154" stroke="none" paint-order="stroke fill markers" d=" M 84 132 L 279.33333333333576 132 L 279.33333333333576 170 L 84 170 L 84 132 Z" fill-opacity="0.8"/><path fill="none" stroke="#440154" paint-order="fill stroke markers" d=" M 84 132 L 279.33333333333576 132 L 279.33333333333576 170 L 84 170 L 84 132 Z" stroke-linejoin="bevel" stroke-miterlimit="10" stroke-opacity="0.8"/><path fill="#208F8C" stroke="none" paint-order="stroke fill markers" d=" M 84 56 L 474.6666666666715 56 L 474.6666666666715 94 L 84 94 L 84 56 Z" fill-opacity="0.8"/><path fill="none" stroke="#208F8C" paint-order="fill stroke markers" d=" M 84 56 L 474.6666666666715 56 L 474.6666666666715 94 L 84 94 L 84 56 Z" stroke-linejoin="bevel" stroke-miterlimit="10" stroke-opacity="0.8"/></g></g></g><g clip-path="url(#OHQmcTrCiOmK)"><g><g/><g><path fill="#ffffff" stroke="#e5e5e5" paint-order="fill stroke markers" d=" M 569.4500007629395 47 L 660 47 L 660 87 L 569.4500007629395 87 L 569.4500007629395 47 Z" fill-opacity="0.95" stroke-linejoin="bevel" stroke-miterlimit="10" stroke-opacity="0.5"/><text fill="#444444" stroke="none" font-family="helvetica" font-size="13px" font-style="normal" font-weight="normal" text-decoration="normal" x="604.4500007629395" y="67" text-anchor="start" dominant-baseline="central">legends</text><rect fill="#440154" stroke="none" x="581.4500007629395" y="59" width="16" height="16" fill-opacity="0.8"/><path fill="none" stroke="#440154" paint-order="fill stroke markers" d=" M 581.4500007629395 59 L 597.4500007629395 59 L 597.4500007629395 75 L 581.4500007629395 75 L 581.4500007629395 59 Z" stroke-linejoin="bevel" stroke-miterlimit="10" stroke-opacity="0.8"/></g></g></g><g><g fill="#444444"><path fill="" stroke="none" d=""/><g transform="translate(377,5)"><path fill="none" stroke="none"/><text fill="" stroke="none" font-family="helvetica" font-size="14pt" font-style="normal" font-weight="bold" text-decoration="normal" x="0" y="0" text-anchor="middle" dominant-baseline="text-before-edge">Model quality: Excluded Volume Analysis</text></g></g></g><g/><g><g fill="#444444"><path fill="none" stroke="black" paint-order="fill stroke markers" d=" M 84 189 L 670 189" stroke-linejoin="bevel" stroke-miterlimit="10"/><path fill="none" stroke="black" paint-order="fill stroke markers" d=" M 176 195 L 176 187" stroke-linejoin="bevel" stroke-miterlimit="10"/><path fill="none" stroke="black" paint-order="fill stroke markers" d=" M 285 195 L 285 187" stroke-linejoin="bevel" stroke-miterlimit="10"/><path fill="none" stroke="black" paint-order="fill stroke markers" d=" M 393 195 L 393 187" stroke-linejoin="bevel" stroke-miterlimit="10"/><path fill="none" stroke="black" paint-order="fill stroke markers" d=" M 502 195 L 502 187" stroke-linejoin="bevel" stroke-miterlimit="10"/><path fill="none" stroke="black" paint-order="fill stroke markers" d=" M 610 195 L 610 187" stroke-linejoin="bevel" stroke-miterlimit="10"/><path fill="none" stroke="black" paint-order="fill stroke markers" d=" M 155 193 L 155 189" stroke-linejoin="bevel" stroke-miterlimit="10"/><path fill="none" stroke="black" paint-order="fill stroke markers" d=" M 133 193 L 133 189" stroke-linejoin="bevel" stroke-miterlimit="10"/><path fill="none" stroke="black" paint-order="fill stroke markers" d=" M 111 193 L 111 189" stroke-linejoin="bevel" stroke-miterlimit="10"/><path fill="none" stroke="black" paint-order="fill stroke markers" d=" M 89 193 L 89 189" stroke-linejoin="bevel" stroke-miterlimit="10"/><path fill="none" stroke="black" paint-order="fill stroke markers" d=" M 176 193 L 176 189" stroke-linejoin="bevel" stroke-miterlimit="10"/><path fill="none" stroke="black" paint-order="fill stroke markers" d=" M 198 193 L 198 189" stroke-linejoin="bevel" stroke-miterlimit="10"/><path fill="none" stroke="black" paint-order="fill stroke markers" d=" M 220 193 L 220 189" stroke-linejoin="bevel" stroke-miterlimit="10"/><path fill="none" stroke="black" paint-order="fill stroke markers" d=" M 241 193 L 241 189" stroke-linejoin="bevel" stroke-miterlimit="10"/><path fill="none" stroke="black" paint-order="fill stroke markers" d=" M 263 193 L 263 189" stroke-linejoin="bevel" stroke-miterlimit="10"/><path fill="none" stroke="black" paint-order="fill stroke markers" d=" M 285 193 L 285 189" stroke-linejoin="bevel" stroke-miterlimit="10"/><path fill="none" stroke="black" paint-order="fill stroke markers" d=" M 306 193 L 306 189" stroke-linejoin="bevel" stroke-miterlimit="10"/><path fill="none" stroke="black" paint-order="fill stroke markers" d=" M 328 193 L 328 189" stroke-linejoin="bevel" stroke-miterlimit="10"/><path fill="none" stroke="black" paint-order="fill stroke markers" d=" M 350 193 L 350 189" stroke-linejoin="bevel" stroke-miterlimit="10"/><path fill="none" stroke="black" paint-order="fill stroke markers" d=" M 372 193 L 372 189" stroke-linejoin="bevel" stroke-miterlimit="10"/><path fill="none" stroke="black" paint-order="fill stroke markers" d=" M 393 193 L 393 189" stroke-linejoin="bevel" stroke-miterlimit="10"/><path fill="none" stroke="black" paint-order="fill stroke markers" d=" M 415 193 L 415 189" stroke-linejoin="bevel" stroke-miterlimit="10"/><path fill="none" stroke="black" paint-order="fill stroke markers" d=" M 437 193 L 437 189" stroke-linejoin="bevel" stroke-miterlimit="10"/><path fill="none" stroke="black" paint-order="fill stroke markers" d=" M 458 193 L 458 189" stroke-linejoin="bevel" stroke-miterlimit="10"/><path fill="none" stroke="black" paint-order="fill stroke markers" d=" M 480 193 L 480 189" stroke-linejoin="bevel" stroke-miterlimit="10"/><path fill="none" stroke="black" paint-order="fill stroke markers" d=" M 502 193 L 502 189" stroke-linejoin="bevel" stroke-miterlimit="10"/><path fill="none" stroke="black" paint-order="fill stroke markers" d=" M 524 193 L 524 189" stroke-linejoin="bevel" stroke-miterlimit="10"/><path fill="none" stroke="black" paint-order="fill stroke markers" d=" M 545 193 L 545 189" stroke-linejoin="bevel" stroke-miterlimit="10"/><path fill="none" stroke="black" paint-order="fill stroke markers" d=" M 567 193 L 567 189" stroke-linejoin="bevel" stroke-miterlimit="10"/><path fill="none" stroke="black" paint-order="fill stroke markers" d=" M 589 193 L 589 189" stroke-linejoin="bevel" stroke-miterlimit="10"/><path fill="none" stroke="black" paint-order="fill stroke markers" d=" M 610 193 L 610 189" stroke-linejoin="bevel" stroke-miterlimit="10"/><path fill="none" stroke="black" paint-order="fill stroke markers" d=" M 632 193 L 632 189" stroke-linejoin="bevel" stroke-miterlimit="10"/><path fill="" stroke="black" paint-order="fill stroke markers" d=" M 654 193 L 654 189" stroke-linejoin="bevel" stroke-miterlimit="10"/><g transform="translate(176,200) rotate(0,0,0)"><text fill="" stroke="none" font-family="helvetica" font-size="14pt" font-style="normal" font-weight="normal" text-decoration="normal" x="0" y="0" text-anchor="middle" dominant-baseline="hanging">10880</text><g transform="rotate(0,0,0) translate(-176,-200) translate(285,200) rotate(0,0,0)"><text fill="" stroke="none" font-family="helvetica" font-size="14pt" font-style="normal" font-weight="normal" text-decoration="normal" x="0" y="0" text-anchor="middle" dominant-baseline="hanging">10900</text><g transform="rotate(0,0,0) translate(-285,-200) translate(393,200) rotate(0,0,0)"><text fill="" stroke="none" font-family="helvetica" font-size="14pt" font-style="normal" font-weight="normal" text-decoration="normal" x="0" y="0" text-anchor="middle" dominant-baseline="hanging">10920</text><g transform="rotate(0,0,0) translate(-393,-200) translate(502,200) rotate(0,0,0)"><text fill="" stroke="none" font-family="helvetica" font-size="14pt" font-style="normal" font-weight="normal" text-decoration="normal" x="0" y="0" text-anchor="middle" dominant-baseline="hanging">10940</text><g transform="rotate(0,0,0) translate(-502,-200) translate(610,200) rotate(0,0,0)"><text fill="" stroke="none" font-family="helvetica" font-size="14pt" font-style="normal" font-weight="normal" text-decoration="normal" x="0" y="0" text-anchor="middle" dominant-baseline="hanging">10960</text><g transform="rotate(0,0,0) translate(-610,-200) translate(377,227) rotate(0,0,0)"><text fill="" stroke="none" font-family="helvetica" font-size="14pt" font-style="italic" font-weight="normal" text-decoration="normal" x="0" y="0" text-anchor="middle" dominant-baseline="hanging">Number of violations</text><g transform="rotate(0,0,0) translate(-377,-227)"/></g></g></g></g></g></g></g></g><g><g fill="#444444"><path fill="none" stroke="black" paint-order="fill stroke markers" d=" M 84 189 L 84 37" stroke-linejoin="bevel" stroke-miterlimit="10"/><path fill="none" stroke="black" paint-order="fill stroke markers" d=" M 78 151 L 86 151" stroke-linejoin="bevel" stroke-miterlimit="10"/><path fill="" stroke="black" paint-order="fill stroke markers" d=" M 78 75 L 86 75" stroke-linejoin="bevel" stroke-miterlimit="10"/><g transform="translate(73,151) rotate(0,0,0)"><text fill="" stroke="none" font-family="helvetica" font-size="14pt" font-style="normal" font-weight="normal" text-decoration="normal" x="0" y="0" text-anchor="end" dominant-baseline="central">Model 1</text><g transform="rotate(0,0,0) translate(-73,-151) translate(73,75) rotate(0,0,0)"><text fill="" stroke="none" font-family="helvetica" font-size="14pt" font-style="normal" font-weight="normal" text-decoration="normal" x="0" y="0" text-anchor="end" dominant-baseline="central">Model 2</text><g transform="rotate(0,0,0) translate(-73,-75)"/></g></g></g></g><g clip-path="url(#DiVbdbNByrhi)"><g/></g></g><g transform="scale(1,1) translate(0.5,0.5)"><rect fill="#FFFFFF" stroke="none" x="0" y="0" width="700" height="250"/><rect fill="#ffffff" stroke="none" x="0" y="0" width="700" height="250"/><rect fill="#FFFFFF" stroke="none" x="84" y="37" width="586" height="152"/><rect fill="#ffffff" stroke="none" x="84" y="37" width="586" height="152"/><g><rect fill="none" stroke="#e5e5e5" x="84" y="37" width="586" height="152" stroke-linejoin="bevel" stroke-miterlimit="10"/></g><g clip-path="url(#xkhIHQWfyzNg)"><g><g><path fill="none" stroke="#e5e5e5" paint-order="fill stroke markers" d=" M 176 189 L 176 37" stroke-linejoin="bevel" stroke-miterlimit="10"/><path fill="none" stroke="#e5e5e5" paint-order="fill stroke markers" d=" M 285 189 L 285 37" stroke-linejoin="bevel" stroke-miterlimit="10"/><path fill="none" stroke="#e5e5e5" paint-order="fill stroke markers" d=" M 393 189 L 393 37" stroke-linejoin="bevel" stroke-miterlimit="10"/><path fill="none" stroke="#e5e5e5" paint-order="fill stroke markers" d=" M 502 189 L 502 37" stroke-linejoin="bevel" stroke-miterlimit="10"/><path fill="none" stroke="#e5e5e5" paint-order="fill stroke markers" d=" M 610 189 L 610 37" stroke-linejoin="bevel" stroke-miterlimit="10"/></g></g></g><g clip-path="url(#TbTfiJmDyGOI)"><g><g/></g></g><g clip-path="url(#FnfmMIpgbhhg)"><g><g><path fill="none" stroke="none"/><path fill="#440154" stroke="none" paint-order="stroke fill markers" d=" M 84 132 L 279.33333333333576 132 L 279.33333333333576 170 L 84 170 L 84 132 Z" fill-opacity="0.8"/><path fill="none" stroke="#440154" paint-order="fill stroke markers" d=" M 84 132 L 279.33333333333576 132 L 279.33333333333576 170 L 84 170 L 84 132 Z" stroke-linejoin="bevel" stroke-miterlimit="10" stroke-opacity="0.8"/><path fill="#208F8C" stroke="none" paint-order="stroke fill markers" d=" M 84 56 L 474.6666666666715 56 L 474.6666666666715 94 L 84 94 L 84 56 Z" fill-opacity="0.8"/><path fill="none" stroke="#208F8C" paint-order="fill stroke markers" d=" M 84 56 L 474.6666666666715 56 L 474.6666666666715 94 L 84 94 L 84 56 Z" stroke-linejoin="bevel" stroke-miterlimit="10" stroke-opacity="0.8"/></g></g></g><g clip-path="url(#SSoLVIMLUdAt)"><g><g/><g><path fill="#ffffff" stroke="#e5e5e5" paint-order="fill stroke markers" d=" M 569.4500007629395 47 L 660 47 L 660 87 L 569.4500007629395 87 L 569.4500007629395 47 Z" fill-opacity="0.95" stroke-linejoin="bevel" stroke-miterlimit="10" stroke-opacity="0.5"/><text fill="#444444" stroke="none" font-family="helvetica" font-size="13px" font-style="normal" font-weight="normal" text-decoration="normal" x="604.4500007629395" y="67" text-anchor="start" dominant-baseline="central">legends</text><rect fill="#440154" stroke="none" x="581.4500007629395" y="59" width="16" height="16" fill-opacity="0.8"/><path fill="none" stroke="#440154" paint-order="fill stroke markers" d=" M 581.4500007629395 59 L 597.4500007629395 59 L 597.4500007629395 75 L 581.4500007629395 75 L 581.4500007629395 59 Z" stroke-linejoin="bevel" stroke-miterlimit="10" stroke-opacity="0.8"/></g></g></g><g><g fill="#444444"><path fill="" stroke="none" d=""/><g transform="translate(377,5)"><path fill="none" stroke="none"/><text fill="" stroke="none" font-family="helvetica" font-size="14pt" font-style="normal" font-weight="bold" text-decoration="normal" x="0" y="0" text-anchor="middle" dominant-baseline="text-before-edge">Model quality: Excluded Volume Analysis</text></g></g></g><g/><g><g fill="#444444"><path fill="none" stroke="black" paint-order="fill stroke markers" d=" M 84 189 L 670 189" stroke-linejoin="bevel" stroke-miterlimit="10"/><path fill="none" stroke="black" paint-order="fill stroke markers" d=" M 176 195 L 176 187" stroke-linejoin="bevel" stroke-miterlimit="10"/><path fill="none" stroke="black" paint-order="fill stroke markers" d=" M 285 195 L 285 187" stroke-linejoin="bevel" stroke-miterlimit="10"/><path fill="none" stroke="black" paint-order="fill stroke markers" d=" M 393 195 L 393 187" stroke-linejoin="bevel" stroke-miterlimit="10"/><path fill="none" stroke="black" paint-order="fill stroke markers" d=" M 502 195 L 502 187" stroke-linejoin="bevel" stroke-miterlimit="10"/><path fill="none" stroke="black" paint-order="fill stroke markers" d=" M 610 195 L 610 187" stroke-linejoin="bevel" stroke-miterlimit="10"/><path fill="none" stroke="black" paint-order="fill stroke markers" d=" M 155 193 L 155 189" stroke-linejoin="bevel" stroke-miterlimit="10"/><path fill="none" stroke="black" paint-order="fill stroke markers" d=" M 133 193 L 133 189" stroke-linejoin="bevel" stroke-miterlimit="10"/><path fill="none" stroke="black" paint-order="fill stroke markers" d=" M 111 193 L 111 189" stroke-linejoin="bevel" stroke-miterlimit="10"/><path fill="none" stroke="black" paint-order="fill stroke markers" d=" M 89 193 L 89 189" stroke-linejoin="bevel" stroke-miterlimit="10"/><path fill="none" stroke="black" paint-order="fill stroke markers" d=" M 176 193 L 176 189" stroke-linejoin="bevel" stroke-miterlimit="10"/><path fill="none" stroke="black" paint-order="fill stroke markers" d=" M 198 193 L 198 189" stroke-linejoin="bevel" stroke-miterlimit="10"/><path fill="none" stroke="black" paint-order="fill stroke markers" d=" M 220 193 L 220 189" stroke-linejoin="bevel" stroke-miterlimit="10"/><path fill="none" stroke="black" paint-order="fill stroke markers" d=" M 241 193 L 241 189" stroke-linejoin="bevel" stroke-miterlimit="10"/><path fill="none" stroke="black" paint-order="fill stroke markers" d=" M 263 193 L 263 189" stroke-linejoin="bevel" stroke-miterlimit="10"/><path fill="none" stroke="black" paint-order="fill stroke markers" d=" M 285 193 L 285 189" stroke-linejoin="bevel" stroke-miterlimit="10"/><path fill="none" stroke="black" paint-order="fill stroke markers" d=" M 306 193 L 306 189" stroke-linejoin="bevel" stroke-miterlimit="10"/><path fill="none" stroke="black" paint-order="fill stroke markers" d=" M 328 193 L 328 189" stroke-linejoin="bevel" stroke-miterlimit="10"/><path fill="none" stroke="black" paint-order="fill stroke markers" d=" M 350 193 L 350 189" stroke-linejoin="bevel" stroke-miterlimit="10"/><path fill="none" stroke="black" paint-order="fill stroke markers" d=" M 372 193 L 372 189" stroke-linejoin="bevel" stroke-miterlimit="10"/><path fill="none" stroke="black" paint-order="fill stroke markers" d=" M 393 193 L 393 189" stroke-linejoin="bevel" stroke-miterlimit="10"/><path fill="none" stroke="black" paint-order="fill stroke markers" d=" M 415 193 L 415 189" stroke-linejoin="bevel" stroke-miterlimit="10"/><path fill="none" stroke="black" paint-order="fill stroke markers" d=" M 437 193 L 437 189" stroke-linejoin="bevel" stroke-miterlimit="10"/><path fill="none" stroke="black" paint-order="fill stroke markers" d=" M 458 193 L 458 189" stroke-linejoin="bevel" stroke-miterlimit="10"/><path fill="none" stroke="black" paint-order="fill stroke markers" d=" M 480 193 L 480 189" stroke-linejoin="bevel" stroke-miterlimit="10"/><path fill="none" stroke="black" paint-order="fill stroke markers" d=" M 502 193 L 502 189" stroke-linejoin="bevel" stroke-miterlimit="10"/><path fill="none" stroke="black" paint-order="fill stroke markers" d=" M 524 193 L 524 189" stroke-linejoin="bevel" stroke-miterlimit="10"/><path fill="none" stroke="black" paint-order="fill stroke markers" d=" M 545 193 L 545 189" stroke-linejoin="bevel" stroke-miterlimit="10"/><path fill="none" stroke="black" paint-order="fill stroke markers" d=" M 567 193 L 567 189" stroke-linejoin="bevel" stroke-miterlimit="10"/><path fill="none" stroke="black" paint-order="fill stroke markers" d=" M 589 193 L 589 189" stroke-linejoin="bevel" stroke-miterlimit="10"/><path fill="none" stroke="black" paint-order="fill stroke markers" d=" M 610 193 L 610 189" stroke-linejoin="bevel" stroke-miterlimit="10"/><path fill="none" stroke="black" paint-order="fill stroke markers" d=" M 632 193 L 632 189" stroke-linejoin="bevel" stroke-miterlimit="10"/><path fill="" stroke="black" paint-order="fill stroke markers" d=" M 654 193 L 654 189" stroke-linejoin="bevel" stroke-miterlimit="10"/><g transform="translate(176,200) rotate(0,0,0)"><text fill="" stroke="none" font-family="helvetica" font-size="14pt" font-style="normal" font-weight="normal" text-decoration="normal" x="0" y="0" text-anchor="middle" dominant-baseline="hanging">10880</text><g transform="rotate(0,0,0) translate(-176,-200) translate(285,200) rotate(0,0,0)"><text fill="" stroke="none" font-family="helvetica" font-size="14pt" font-style="normal" font-weight="normal" text-decoration="normal" x="0" y="0" text-anchor="middle" dominant-baseline="hanging">10900</text><g transform="rotate(0,0,0) translate(-285,-200) translate(393,200) rotate(0,0,0)"><text fill="" stroke="none" font-family="helvetica" font-size="14pt" font-style="normal" font-weight="normal" text-decoration="normal" x="0" y="0" text-anchor="middle" dominant-baseline="hanging">10920</text><g transform="rotate(0,0,0) translate(-393,-200) translate(502,200) rotate(0,0,0)"><text fill="" stroke="none" font-family="helvetica" font-size="14pt" font-style="normal" font-weight="normal" text-decoration="normal" x="0" y="0" text-anchor="middle" dominant-baseline="hanging">10940</text><g transform="rotate(0,0,0) translate(-502,-200) translate(610,200) rotate(0,0,0)"><text fill="" stroke="none" font-family="helvetica" font-size="14pt" font-style="normal" font-weight="normal" text-decoration="normal" x="0" y="0" text-anchor="middle" dominant-baseline="hanging">10960</text><g transform="rotate(0,0,0) translate(-610,-200) translate(377,227) rotate(0,0,0)"><text fill="" stroke="none" font-family="helvetica" font-size="14pt" font-style="italic" font-weight="normal" text-decoration="normal" x="0" y="0" text-anchor="middle" dominant-baseline="hanging">Number of violations</text><g transform="rotate(0,0,0) translate(-377,-227)"/></g></g></g></g></g></g></g></g><g><g fill="#444444"><path fill="none" stroke="black" paint-order="fill stroke markers" d=" M 84 189 L 84 37" stroke-linejoin="bevel" stroke-miterlimit="10"/><path fill="none" stroke="black" paint-order="fill stroke markers" d=" M 78 151 L 86 151" stroke-linejoin="bevel" stroke-miterlimit="10"/><path fill="" stroke="black" paint-order="fill stroke markers" d=" M 78 75 L 86 75" stroke-linejoin="bevel" stroke-miterlimit="10"/><g transform="translate(73,151) rotate(0,0,0)"><text fill="" stroke="none" font-family="helvetica" font-size="14pt" font-style="normal" font-weight="normal" text-decoration="normal" x="0" y="0" text-anchor="end" dominant-baseline="central">Model 1</text><g transform="rotate(0,0,0) translate(-73,-151) translate(73,75) rotate(0,0,0)"><text fill="" stroke="none" font-family="helvetica" font-size="14pt" font-style="normal" font-weight="normal" text-decoration="normal" x="0" y="0" text-anchor="end" dominant-baseline="central">Model 2</text><g transform="rotate(0,0,0) translate(-73,-75)"/></g></g></g></g><g clip-path="url(#rHeKVKRTMKJv)"><g/></g></g></g></svg>