<svg version="1.1" xmlns="http://www.w3.org/2000/svg" xmlns:xlink="http://www.w3.org/1999/xlink" width="400" height="400" style="width: 400px; height: 400px;"><defs><clipPath id="QmSCUuaLQLmN"><path fill="none" stroke="none" d=" M 61 33 L 370 33 L 370 339 L 61 339 L 61 33 Z"/></clipPath><clipPath id="GBPKbtOrSWbJ"><path fill="none" stroke="none" d=" M 61 33 L 370 33 L 370 339 L 61 339 L 61 33 Z"/></clipPath><clipPath id="lNnThzgRXsHO"><path fill="none" stroke="none" d=" M 61 33 L 370 33 L 370 339 L 61 339 L 61 33 Z"/></clipPath><clipPath id="ZzXWIxHtonhz"><path fill="none" stroke="none" d=" M 61 33 L 370 33 L 370 339 L 61 339 L 61 33 Z"/></clipPath><clipPath id="IhVgEJLuDTrV"><path fill="none" stroke="none" d=" M 61 33 L 370 33 L 370 339 L 61 339 L 61 33 Z"/></clipPath><clipPath id="ceOdLfztPMPw"><path fill="none" stroke="none" d=" M 61 33 L 370 33 L 370 339 L 61 339 L 61 33 Z"/></clipPath><clipPath id="yewurRfBIChq"><path fill="none" stroke="none" d=" M 61 33 L 370 33 L 370 339 L 61 339 L 61 33 Z"/></clipPath><clipPath id="wEafwIWhzclX"><path fill="none" stroke="none" d=" M 61 33 L 370 33 L 370 339 L 61 339 L 61 33 Z"/></clipPath><clipPath id="QrvPSJDwETvd"><path fill="none" stroke="none" d=" M 61 33 L 370 33 L 370 339 L 61 339 L 61 33 Z"/></clipPath><clipPath id="XIBvGxmBCQnS"><path fill="none" stroke="none" d=" M 61 33 L 370 33 L 370 339 L 61 339 L 61 33 Z"/></clipPath></defs><g><g transform="scale(1,1) translate(0.5,0.5)"><rect fill="#FFFFFF" stroke="none" x="0" y="0" width="400" height="400"/><rect fill="#ffffff" stroke="none" x="0" y="0" width="400" height="400"/><rect fill="#FFFFFF" stroke="none" x="61" y="33" width="309" height="306"/><rect fill="#ffffff" stroke="none" x="61" y="33" width="309" height="306"/><g><rect fill="none" stroke="#e5e5e5" x="61" y="33" width="309" height="306" stroke-linejoin="bevel" stroke-miterlimit="10"/></g><g clip-path="url(#QmSCUuaLQLmN)"><g><g><path fill="none" stroke="#e5e5e5" paint-order="fill stroke markers" d=" M 75 339 L 75 33" stroke-linejoin="bevel" stroke-miterlimit="10"/><path fill="none" stroke="#e5e5e5" paint-order="fill stroke markers" d=" M 120 339 L 120 33" stroke-linejoin="bevel" stroke-miterlimit="10"/><path fill="none" stroke="#e5e5e5" paint-order="fill stroke markers" d=" M 165 339 L 165 33" stroke-linejoin="bevel" stroke-miterlimit="10"/><path fill="none" stroke="#e5e5e5" paint-order="fill stroke markers" d=" M 210 339 L 210 33" stroke-linejoin="bevel" stroke-miterlimit="10"/><path fill="none" stroke="#e5e5e5" paint-order="fill stroke markers" d=" M 255 339 L 255 33" stroke-linejoin="bevel" stroke-miterlimit="10"/><path fill="none" stroke="#e5e5e5" paint-order="fill stroke markers" d=" M 300 339 L 300 33" stroke-linejoin="bevel" stroke-miterlimit="10"/><path fill="none" stroke="#e5e5e5" paint-order="fill stroke markers" d=" M 345 339 L 345 33" stroke-linejoin="bevel" stroke-miterlimit="10"/></g></g></g><g clip-path="url(#GBPKbtOrSWbJ)"><g><g><path fill="none" stroke="#e5e5e5" paint-order="fill stroke markers" d=" M 61 325 L 370 325" stroke-linejoin="bevel" stroke-miterlimit="10"/><path fill="none" stroke="#e5e5e5" paint-order="fill stroke markers" d=" M 61 238 L 370 238" stroke-linejoin="bevel" stroke-miterlimit="10"/><path fill="none" stroke="#e5e5e5" paint-order="fill stroke markers" d=" M 61 151 L 370 151" stroke-linejoin="bevel" stroke-miterlimit="10"/><path fill="none" stroke="#e5e5e5" paint-order="fill stroke markers" d=" M 61 64 L 370 64" stroke-linejoin="bevel" stroke-miterlimit="10"/></g></g></g><g clip-path="url(#lNnThzgRXsHO)"><g><g><path fill="none" stroke="none"/><path fill="navy" stroke="none" paint-order="stroke fill markers" d=" M 75.04545454545456 307.70454545454544 L 80.66363636363637 307.70454545454544 L 80.66363636363637 325.09090909090907 L 75.04545454545456 325.09090909090907 L 75.04545454545456 307.70454545454544 Z" fill-opacity="0.3"/><path fill="none" stroke="white" paint-order="fill stroke markers" d=" M 75.04545454545456 307.70454545454544 L 80.66363636363637 307.70454545454544 L 80.66363636363637 325.09090909090907 L 75.04545454545456 325.09090909090907 L 75.04545454545456 307.70454545454544 Z" stroke-linejoin="bevel" stroke-miterlimit="10" stroke-opacity="0.3"/><path fill="navy" stroke="none" paint-order="stroke fill markers" d=" M 80.66363636363637 325.09090909090907 L 86.2818181818182 325.09090909090907 L 86.2818181818182 325.09090909090907 L 80.66363636363637 325.09090909090907 L 80.66363636363637 325.09090909090907 Z" fill-opacity="0.3"/><path fill="none" stroke="white" paint-order="fill stroke markers" d=" M 80.66363636363637 325.09090909090907 L 86.2818181818182 325.09090909090907 L 86.2818181818182 325.09090909090907 L 80.66363636363637 325.09090909090907 L 80.66363636363637 325.09090909090907 Z" stroke-linejoin="bevel" stroke-miterlimit="10" stroke-opacity="0.3"/><path fill="navy" stroke="none" paint-order="stroke fill markers" d=" M 86.2818181818182 325.09090909090907 L 91.9 325.09090909090907 L 91.9 325.09090909090907 L 86.2818181818182 325.09090909090907 L 86.2818181818182 325.09090909090907 Z" fill-opacity="0.3"/><path fill="none" stroke="white" paint-order="fill stroke markers" d=" M 86.2818181818182 325.09090909090907 L 91.9 325.09090909090907 L 91.9 325.09090909090907 L 86.2818181818182 325.09090909090907 L 86.2818181818182 325.09090909090907 Z" stroke-linejoin="bevel" stroke-miterlimit="10" stroke-opacity="0.3"/><path fill="navy" stroke="none" paint-order="stroke fill markers" d=" M 91.9 290.3181818181818 L 97.51818181818183 290.3181818181818 L 97.51818181818183 325.09090909090907 L 91.9 325.09090909090907 L 91.9 290.3181818181818 Z" fill-opacity="0.3"/><path fill="none" stroke="white" paint-order="fill stroke markers" d=" M 91.9 290.3181818181818 L 97.51818181818183 290.3181818181818 L 97.51818181818183 325.09090909090907 L 91.9 325.09090909090907 L 91.9 290.3181818181818 Z" stroke-linejoin="bevel" stroke-miterlimit="10" stroke-opacity="0.3"/><path fill="navy" stroke="none" paint-order="stroke fill markers" d=" M 97.51818181818183 255.5454545454545 L 103.13636363636365 255.5454545454545 L 103.13636363636365 325.09090909090907 L 97.51818181818183 325.09090909090907 L 97.51818181818183 255.5454545454545 Z" fill-opacity="0.3"/><path fill="none" stroke="white" paint-order="fill stroke markers" d=" M 97.51818181818183 255.5454545454545 L 103.13636363636365 255.5454545454545 L 103.13636363636365 325.09090909090907 L 97.51818181818183 325.09090909090907 L 97.51818181818183 255.5454545454545 Z" stroke-linejoin="bevel" stroke-miterlimit="10" stroke-opacity="0.3"/><path fill="navy" stroke="none" paint-order="stroke fill markers" d=" M 103.13636363636365 290.3181818181818 L 108.75454545454546 290.3181818181818 L 108.75454545454546 325.09090909090907 L 103.13636363636365 325.09090909090907 L 103.13636363636365 290.3181818181818 Z" fill-opacity="0.3"/><path fill="none" stroke="white" paint-order="fill stroke markers" d=" M 103.13636363636365 290.3181818181818 L 108.75454545454546 290.3181818181818 L 108.75454545454546 325.09090909090907 L 103.13636363636365 325.09090909090907 L 103.13636363636365 290.3181818181818 Z" stroke-linejoin="bevel" stroke-miterlimit="10" stroke-opacity="0.3"/><path fill="navy" stroke="none" paint-order="stroke fill markers" d=" M 108.75454545454546 272.93181818181813 L 114.37272727272727 272.93181818181813 L 114.37272727272727 325.09090909090907 L 108.75454545454546 325.09090909090907 L 108.75454545454546 272.93181818181813 Z" fill-opacity="0.3"/><path fill="none" stroke="white" paint-order="fill stroke markers" d=" M 108.75454545454546 272.93181818181813 L 114.37272727272727 272.93181818181813 L 114.37272727272727 325.09090909090907 L 108.75454545454546 325.09090909090907 L 108.75454545454546 272.93181818181813 Z" stroke-linejoin="bevel" stroke-miterlimit="10" stroke-opacity="0.3"/><path fill="navy" stroke="none" paint-order="stroke fill markers" d=" M 114.37272727272727 290.3181818181818 L 119.9909090909091 290.3181818181818 L 119.9909090909091 325.09090909090907 L 114.37272727272727 325.09090909090907 L 114.37272727272727 290.3181818181818 Z" fill-opacity="0.3"/><path fill="none" stroke="white" paint-order="fill stroke markers" d=" M 114.37272727272727 290.3181818181818 L 119.9909090909091 290.3181818181818 L 119.9909090909091 325.09090909090907 L 114.37272727272727 325.09090909090907 L 114.37272727272727 290.3181818181818 Z" stroke-linejoin="bevel" stroke-miterlimit="10" stroke-opacity="0.3"/><path fill="navy" stroke="none" paint-order="stroke fill markers" d=" M 119.9909090909091 238.15909090909088 L 125.60909090909092 238.15909090909088 L 125.60909090909092 325.09090909090907 L 119.9909090909091 325.09090909090907 L 119.9909090909091 238.15909090909088 Z" fill-opacity="0.3"/><path fill="none" stroke="white" paint-order="fill stroke markers" d=" M 119.9909090909091 238.15909090909088 L 125.60909090909092 238.15909090909088 L 125.60909090909092 325.09090909090907 L 119.9909090909091 325.09090909090907 L 119.9909090909091 238.15909090909088 Z" stroke-linejoin="bevel" stroke-miterlimit="10" stroke-opacity="0.3"/><path fill="navy" stroke="none" paint-order="stroke fill markers" d=" M 125.60909090909092 220.77272727272725 L 131.22727272727275 220.77272727272725 L 131.22727272727275 325.09090909090907 L 125.60909090909092 325.09090909090907 L 125.60909090909092 220.77272727272725 Z" fill-opacity="0.3"/><path fill="none" stroke="white" paint-order="fill stroke markers" d=" M 125.60909090909092 220.77272727272725 L 131.22727272727275 220.77272727272725 L 131.22727272727275 325.09090909090907 L 125.60909090909092 325.09090909090907 L 125.60909090909092 220.77272727272725 Z" stroke-linejoin="bevel" stroke-miterlimit="10" stroke-opacity="0.3"/><path fill="navy" stroke="none" paint-order="stroke fill markers" d=" M 131.22727272727275 203.38636363636363 L 136.84545454545454 203.38636363636363 L 136.84545454545454 325.09090909090907 L 131.22727272727275 325.09090909090907 L 131.22727272727275 203.38636363636363 Z" fill-opacity="0.3"/><path fill="none" stroke="white" paint-order="fill stroke markers" d=" M 131.22727272727275 203.38636363636363 L 136.84545454545454 203.38636363636363 L 136.84545454545454 325.09090909090907 L 131.22727272727275 325.09090909090907 L 131.22727272727275 203.38636363636363 Z" stroke-linejoin="bevel" stroke-miterlimit="10" stroke-opacity="0.3"/><path fill="navy" stroke="none" paint-order="stroke fill markers" d=" M 136.84545454545454 116.45454545454544 L 142.46363636363637 116.45454545454544 L 142.46363636363637 325.09090909090907 L 136.84545454545454 325.09090909090907 L 136.84545454545454 116.45454545454544 Z" fill-opacity="0.3"/><path fill="none" stroke="white" paint-order="fill stroke markers" d=" M 136.84545454545454 116.45454545454544 L 142.46363636363637 116.45454545454544 L 142.46363636363637 325.09090909090907 L 136.84545454545454 325.09090909090907 L 136.84545454545454 116.45454545454544 Z" stroke-linejoin="bevel" stroke-miterlimit="10" stroke-opacity="0.3"/><path fill="navy" stroke="none" paint-order="stroke fill markers" d=" M 142.46363636363637 46.90909090909088 L 148.08181818181816 46.90909090909088 L 148.08181818181816 325.09090909090907 L 142.46363636363637 325.09090909090907 L 142.46363636363637 46.90909090909088 Z" fill-opacity="0.3"/><path fill="none" stroke="white" paint-order="fill stroke markers" d=" M 142.46363636363637 46.90909090909088 L 148.08181818181816 46.90909090909088 L 148.08181818181816 325.09090909090907 L 142.46363636363637 325.09090909090907 L 142.46363636363637 46.90909090909088 Z" stroke-linejoin="bevel" stroke-miterlimit="10" stroke-opacity="0.3"/><path fill="navy" stroke="none" paint-order="stroke fill markers" d=" M 148.08181818181816 168.61363636363635 L 153.7 168.61363636363635 L 153.7 325.09090909090907 L 148.08181818181816 325.09090909090907 L 148.08181818181816 168.61363636363635 Z" fill-opacity="0.3"/><path fill="none" stroke="white" paint-order="fill stroke markers" d=" M 148.08181818181816 168.61363636363635 L 153.7 168.61363636363635 L 153.7 325.09090909090907 L 148.08181818181816 325.09090909090907 L 148.08181818181816 168.61363636363635 Z" stroke-linejoin="bevel" stroke-miterlimit="10" stroke-opacity="0.3"/><path fill="navy" stroke="none" paint-order="stroke fill markers" d=" M 153.7 272.93181818181813 L 159.3181818181818 272.93181818181813 L 159.3181818181818 325.09090909090907 L 153.7 325.09090909090907 L 153.7 272.93181818181813 Z" fill-opacity="0.3"/><path fill="none" stroke="white" paint-order="fill stroke markers" d=" M 153.7 272.93181818181813 L 159.3181818181818 272.93181818181813 L 159.3181818181818 325.09090909090907 L 153.7 325.09090909090907 L 153.7 272.93181818181813 Z" stroke-linejoin="bevel" stroke-miterlimit="10" stroke-opacity="0.3"/><path fill="navy" stroke="none" paint-order="stroke fill markers" d=" M 159.3181818181818 203.38636363636363 L 164.93636363636364 203.38636363636363 L 164.93636363636364 325.09090909090907 L 159.3181818181818 325.09090909090907 L 159.3181818181818 203.38636363636363 Z" fill-opacity="0.3"/><path fill="none" stroke="white" paint-order="fill stroke markers" d=" M 159.3181818181818 203.38636363636363 L 164.93636363636364 203.38636363636363 L 164.93636363636364 325.09090909090907 L 159.3181818181818 325.09090909090907 L 159.3181818181818 203.38636363636363 Z" stroke-linejoin="bevel" stroke-miterlimit="10" stroke-opacity="0.3"/><path fill="navy" stroke="none" paint-order="stroke fill markers" d=" M 164.93636363636364 220.77272727272725 L 170.55454545454546 220.77272727272725 L 170.55454545454546 325.09090909090907 L 164.93636363636364 325.09090909090907 L 164.93636363636364 220.77272727272725 Z" fill-opacity="0.3"/><path fill="none" stroke="white" paint-order="fill stroke markers" d=" M 164.93636363636364 220.77272727272725 L 170.55454545454546 220.77272727272725 L 170.55454545454546 325.09090909090907 L 164.93636363636364 325.09090909090907 L 164.93636363636364 220.77272727272725 Z" stroke-linejoin="bevel" stroke-miterlimit="10" stroke-opacity="0.3"/><path fill="navy" stroke="none" paint-order="stroke fill markers" d=" M 170.55454545454546 255.5454545454545 L 176.1727272727273 255.5454545454545 L 176.1727272727273 325.09090909090907 L 170.55454545454546 325.09090909090907 L 170.55454545454546 255.5454545454545 Z" fill-opacity="0.3"/><path fill="none" stroke="white" paint-order="fill stroke markers" d=" M 170.55454545454546 255.5454545454545 L 176.1727272727273 255.5454545454545 L 176.1727272727273 325.09090909090907 L 170.55454545454546 325.09090909090907 L 170.55454545454546 255.5454545454545 Z" stroke-linejoin="bevel" stroke-miterlimit="10" stroke-opacity="0.3"/><path fill="navy" stroke="none" paint-order="stroke fill markers" d=" M 176.1727272727273 220.77272727272725 L 181.79090909090908 220.77272727272725 L 181.79090909090908 325.09090909090907 L 176.1727272727273 325.09090909090907 L 176.1727272727273 220.77272727272725 Z" fill-opacity="0.3"/><path fill="none" stroke="white" paint-order="fill stroke markers" d=" M 176.1727272727273 220.77272727272725 L 181.79090909090908 220.77272727272725 L 181.79090909090908 325.09090909090907 L 176.1727272727273 325.09090909090907 L 176.1727272727273 220.77272727272725 Z" stroke-linejoin="bevel" stroke-miterlimit="10" stroke-opacity="0.3"/><path fill="navy" stroke="none" paint-order="stroke fill markers" d=" M 181.79090909090908 290.3181818181818 L 187.4090909090909 290.3181818181818 L 187.4090909090909 325.09090909090907 L 181.79090909090908 325.09090909090907 L 181.79090909090908 290.3181818181818 Z" fill-opacity="0.3"/><path fill="none" stroke="white" paint-order="fill stroke markers" d=" M 181.79090909090908 290.3181818181818 L 187.4090909090909 290.3181818181818 L 187.4090909090909 325.09090909090907 L 181.79090909090908 325.09090909090907 L 181.79090909090908 290.3181818181818 Z" stroke-linejoin="bevel" stroke-miterlimit="10" stroke-opacity="0.3"/><path fill="navy" stroke="none" paint-order="stroke fill markers" d=" M 187.4090909090909 307.70454545454544 L 193.0272727272727 307.70454545454544 L 193.0272727272727 325.09090909090907 L 187.4090909090909 325.09090909090907 L 187.4090909090909 307.70454545454544 Z" fill-opacity="0.3"/><path fill="none" stroke="white" paint-order="fill stroke markers" d=" M 187.4090909090909 307.70454545454544 L 193.0272727272727 307.70454545454544 L 193.0272727272727 325.09090909090907 L 187.4090909090909 325.09090909090907 L 187.4090909090909 307.70454545454544 Z" stroke-linejoin="bevel" stroke-miterlimit="10" stroke-opacity="0.3"/><path fill="navy" stroke="none" paint-order="stroke fill markers" d=" M 193.0272727272727 307.70454545454544 L 198.64545454545453 307.70454545454544 L 198.64545454545453 325.09090909090907 L 193.0272727272727 325.09090909090907 L 193.0272727272727 307.70454545454544 Z" fill-opacity="0.3"/><path fill="none" stroke="white" paint-order="fill stroke markers" d=" M 193.0272727272727 307.70454545454544 L 198.64545454545453 307.70454545454544 L 198.64545454545453 325.09090909090907 L 193.0272727272727 325.09090909090907 L 193.0272727272727 307.70454545454544 Z" stroke-linejoin="bevel" stroke-miterlimit="10" stroke-opacity="0.3"/><path fill="navy" stroke="none" paint-order="stroke fill markers" d=" M 198.64545454545453 325.09090909090907 L 204.26363636363635 325.09090909090907 L 204.26363636363635 325.09090909090907 L 198.64545454545453 325.09090909090907 L 198.64545454545453 325.09090909090907 Z" fill-opacity="0.3"/><path fill="none" stroke="white" paint-order="fill stroke markers" d=" M 198.64545454545453 325.09090909090907 L 204.26363636363635 325.09090909090907 L 204.26363636363635 325.09090909090907 L 198.64545454545453 325.09090909090907 L 198.64545454545453 325.09090909090907 Z" stroke-linejoin="bevel" stroke-miterlimit="10" stroke-opacity="0.3"/><path fill="navy" stroke="none" paint-order="stroke fill markers" d=" M 204.26363636363635 307.70454545454544 L 209.88181818181818 307.70454545454544 L 209.88181818181818 325.09090909090907 L 204.26363636363635 325.09090909090907 L 204.26363636363635 307.70454545454544 Z" fill-opacity="0.3"/><path fill="none" stroke="white" paint-order="fill stroke markers" d=" M 204.26363636363635 307.70454545454544 L 209.88181818181818 307.70454545454544 L 209.88181818181818 325.09090909090907 L 204.26363636363635 325.09090909090907 L 204.26363636363635 307.70454545454544 Z" stroke-linejoin="bevel" stroke-miterlimit="10" stroke-opacity="0.3"/><path fill="navy" stroke="none" paint-order="stroke fill markers" d=" M 209.88181818181818 307.70454545454544 L 215.49999999999997 307.70454545454544 L 215.49999999999997 325.09090909090907 L 209.88181818181818 325.09090909090907 L 209.88181818181818 307.70454545454544 Z" fill-opacity="0.3"/><path fill="none" stroke="white" paint-order="fill stroke markers" d=" M 209.88181818181818 307.70454545454544 L 215.49999999999997 307.70454545454544 L 215.49999999999997 325.09090909090907 L 209.88181818181818 325.09090909090907 L 209.88181818181818 307.70454545454544 Z" stroke-linejoin="bevel" stroke-miterlimit="10" stroke-opacity="0.3"/><path fill="navy" stroke="none" paint-order="stroke fill markers" d=" M 215.49999999999997 325.09090909090907 L 221.1181818181818 325.09090909090907 L 221.1181818181818 325.09090909090907 L 215.49999999999997 325.09090909090907 L 215.49999999999997 325.09090909090907 Z" fill-opacity="0.3"/><path fill="none" stroke="white" paint-order="fill stroke markers" d=" M 215.49999999999997 325.09090909090907 L 221.1181818181818 325.09090909090907 L 221.1181818181818 325.09090909090907 L 215.49999999999997 325.09090909090907 L 215.49999999999997 325.09090909090907 Z" stroke-linejoin="bevel" stroke-miterlimit="10" stroke-opacity="0.3"/><path fill="navy" stroke="none" paint-order="stroke fill markers" d=" M 221.1181818181818 325.09090909090907 L 226.73636363636362 325.09090909090907 L 226.73636363636362 325.09090909090907 L 221.1181818181818 325.09090909090907 L 221.1181818181818 325.09090909090907 Z" fill-opacity="0.3"/><path fill="none" stroke="white" paint-order="fill stroke markers" d=" M 221.1181818181818 325.09090909090907 L 226.73636363636362 325.09090909090907 L 226.73636363636362 325.09090909090907 L 221.1181818181818 325.09090909090907 L 221.1181818181818 325.09090909090907 Z" stroke-linejoin="bevel" stroke-miterlimit="10" stroke-opacity="0.3"/><path fill="navy" stroke="none" paint-order="stroke fill markers" d=" M 226.73636363636362 325.09090909090907 L 232.35454545454542 325.09090909090907 L 232.35454545454542 325.09090909090907 L 226.73636363636362 325.09090909090907 L 226.73636363636362 325.09090909090907 Z" fill-opacity="0.3"/><path fill="none" stroke="white" paint-order="fill stroke markers" d=" M 226.73636363636362 325.09090909090907 L 232.35454545454542 325.09090909090907 L 232.35454545454542 325.09090909090907 L 226.73636363636362 325.09090909090907 L 226.73636363636362 325.09090909090907 Z" stroke-linejoin="bevel" stroke-miterlimit="10" stroke-opacity="0.3"/><path fill="navy" stroke="none" paint-order="stroke fill markers" d=" M 232.35454545454542 325.09090909090907 L 237.97272727272724 325.09090909090907 L 237.97272727272724 325.09090909090907 L 232.35454545454542 325.09090909090907 L 232.35454545454542 325.09090909090907 Z" fill-opacity="0.3"/><path fill="none" stroke="white" paint-order="fill stroke markers" d=" M 232.35454545454542 325.09090909090907 L 237.97272727272724 325.09090909090907 L 237.97272727272724 325.09090909090907 L 232.35454545454542 325.09090909090907 L 232.35454545454542 325.09090909090907 Z" stroke-linejoin="bevel" stroke-miterlimit="10" stroke-opacity="0.3"/><path fill="navy" stroke="none" paint-order="stroke fill markers" d=" M 237.97272727272724 325.09090909090907 L 243.59090909090907 325.09090909090907 L 243.59090909090907 325.09090909090907 L 237.97272727272724 325.09090909090907 L 237.97272727272724 325.09090909090907 Z" fill-opacity="0.3"/><path fill="none" stroke="white" paint-order="fill stroke markers" d=" M 237.97272727272724 325.09090909090907 L 243.59090909090907 325.09090909090907 L 243.59090909090907 325.09090909090907 L 237.97272727272724 325.09090909090907 L 237.97272727272724 325.09090909090907 Z" stroke-linejoin="bevel" stroke-miterlimit="10" stroke-opacity="0.3"/><path fill="navy" stroke="none" paint-order="stroke fill markers" d=" M 243.59090909090907 325.09090909090907 L 249.2090909090909 325.09090909090907 L 249.2090909090909 325.09090909090907 L 243.59090909090907 325.09090909090907 L 243.59090909090907 325.09090909090907 Z" fill-opacity="0.3"/><path fill="none" stroke="white" paint-order="fill stroke markers" d=" M 243.59090909090907 325.09090909090907 L 249.2090909090909 325.09090909090907 L 249.2090909090909 325.09090909090907 L 243.59090909090907 325.09090909090907 L 243.59090909090907 325.09090909090907 Z" stroke-linejoin="bevel" stroke-miterlimit="10" stroke-opacity="0.3"/><path fill="navy" stroke="none" paint-order="stroke fill markers" d=" M 249.2090909090909 325.09090909090907 L 254.82727272727269 325.09090909090907 L 254.82727272727269 325.09090909090907 L 249.2090909090909 325.09090909090907 L 249.2090909090909 325.09090909090907 Z" fill-opacity="0.3"/><path fill="none" stroke="white" paint-order="fill stroke markers" d=" M 249.2090909090909 325.09090909090907 L 254.82727272727269 325.09090909090907 L 254.82727272727269 325.09090909090907 L 249.2090909090909 325.09090909090907 L 249.2090909090909 325.09090909090907 Z" stroke-linejoin="bevel" stroke-miterlimit="10" stroke-opacity="0.3"/><path fill="navy" stroke="none" paint-order="stroke fill markers" d=" M 254.82727272727269 325.09090909090907 L 260.4454545454545 325.09090909090907 L 260.4454545454545 325.09090909090907 L 254.82727272727269 325.09090909090907 L 254.82727272727269 325.09090909090907 Z" fill-opacity="0.3"/><path fill="none" stroke="white" paint-order="fill stroke markers" d=" M 254.82727272727269 325.09090909090907 L 260.4454545454545 325.09090909090907 L 260.4454545454545 325.09090909090907 L 254.82727272727269 325.09090909090907 L 254.82727272727269 325.09090909090907 Z" stroke-linejoin="bevel" stroke-miterlimit="10" stroke-opacity="0.3"/><path fill="navy" stroke="none" paint-order="stroke fill markers" d=" M 260.4454545454545 325.09090909090907 L 266.0636363636363 325.09090909090907 L 266.0636363636363 325.09090909090907 L 260.4454545454545 325.09090909090907 L 260.4454545454545 325.09090909090907 Z" fill-opacity="0.3"/><path fill="none" stroke="white" paint-order="fill stroke markers" d=" M 260.4454545454545 325.09090909090907 L 266.0636363636363 325.09090909090907 L 266.0636363636363 325.09090909090907 L 260.4454545454545 325.09090909090907 L 260.4454545454545 325.09090909090907 Z" stroke-linejoin="bevel" stroke-miterlimit="10" stroke-opacity="0.3"/><path fill="navy" stroke="none" paint-order="stroke fill markers" d=" M 266.0636363636363 325.09090909090907 L 271.68181818181813 325.09090909090907 L 271.68181818181813 325.09090909090907 L 266.0636363636363 325.09090909090907 L 266.0636363636363 325.09090909090907 Z" fill-opacity="0.3"/><path fill="none" stroke="white" paint-order="fill stroke markers" d=" M 266.0636363636363 325.09090909090907 L 271.68181818181813 325.09090909090907 L 271.68181818181813 325.09090909090907 L 266.0636363636363 325.09090909090907 L 266.0636363636363 325.09090909090907 Z" stroke-linejoin="bevel" stroke-miterlimit="10" stroke-opacity="0.3"/><path fill="navy" stroke="none" paint-order="stroke fill markers" d=" M 271.68181818181813 325.09090909090907 L 277.29999999999995 325.09090909090907 L 277.29999999999995 325.09090909090907 L 271.68181818181813 325.09090909090907 L 271.68181818181813 325.09090909090907 Z" fill-opacity="0.3"/><path fill="none" stroke="white" paint-order="fill stroke markers" d=" M 271.68181818181813 325.09090909090907 L 277.29999999999995 325.09090909090907 L 277.29999999999995 325.09090909090907 L 271.68181818181813 325.09090909090907 L 271.68181818181813 325.09090909090907 Z" stroke-linejoin="bevel" stroke-miterlimit="10" stroke-opacity="0.3"/><path fill="navy" stroke="none" paint-order="stroke fill markers" d=" M 277.29999999999995 325.09090909090907 L 282.9181818181818 325.09090909090907 L 282.9181818181818 325.09090909090907 L 277.29999999999995 325.09090909090907 L 277.29999999999995 325.09090909090907 Z" fill-opacity="0.3"/><path fill="none" stroke="white" paint-order="fill stroke markers" d=" M 277.29999999999995 325.09090909090907 L 282.9181818181818 325.09090909090907 L 282.9181818181818 325.09090909090907 L 277.29999999999995 325.09090909090907 L 277.29999999999995 325.09090909090907 Z" stroke-linejoin="bevel" stroke-miterlimit="10" stroke-opacity="0.3"/><path fill="navy" stroke="none" paint-order="stroke fill markers" d=" M 282.9181818181818 325.09090909090907 L 288.5363636363636 325.09090909090907 L 288.5363636363636 325.09090909090907 L 282.9181818181818 325.09090909090907 L 282.9181818181818 325.09090909090907 Z" fill-opacity="0.3"/><path fill="none" stroke="white" paint-order="fill stroke markers" d=" M 282.9181818181818 325.09090909090907 L 288.5363636363636 325.09090909090907 L 288.5363636363636 325.09090909090907 L 282.9181818181818 325.09090909090907 L 282.9181818181818 325.09090909090907 Z" stroke-linejoin="bevel" stroke-miterlimit="10" stroke-opacity="0.3"/><path fill="navy" stroke="none" paint-order="stroke fill markers" d=" M 288.5363636363636 325.09090909090907 L 294.1545454545454 325.09090909090907 L 294.1545454545454 325.09090909090907 L 288.5363636363636 325.09090909090907 L 288.5363636363636 325.09090909090907 Z" fill-opacity="0.3"/><path fill="none" stroke="white" paint-order="fill stroke markers" d=" M 288.5363636363636 325.09090909090907 L 294.1545454545454 325.09090909090907 L 294.1545454545454 325.09090909090907 L 288.5363636363636 325.09090909090907 L 288.5363636363636 325.09090909090907 Z" stroke-linejoin="bevel" stroke-miterlimit="10" stroke-opacity="0.3"/><path fill="navy" stroke="none" paint-order="stroke fill markers" d=" M 294.1545454545454 325.09090909090907 L 299.77272727272725 325.09090909090907 L 299.77272727272725 325.09090909090907 L 294.1545454545454 325.09090909090907 L 294.1545454545454 325.09090909090907 Z" fill-opacity="0.3"/><path fill="none" stroke="white" paint-order="fill stroke markers" d=" M 294.1545454545454 325.09090909090907 L 299.77272727272725 325.09090909090907 L 299.77272727272725 325.09090909090907 L 294.1545454545454 325.09090909090907 L 294.1545454545454 325.09090909090907 Z" stroke-linejoin="bevel" stroke-miterlimit="10" stroke-opacity="0.3"/><path fill="navy" stroke="none" paint-order="stroke fill markers" d=" M 299.77272727272725 325.09090909090907 L 305.3909090909091 325.09090909090907 L 305.3909090909091 325.09090909090907 L 299.77272727272725 325.09090909090907 L 299.77272727272725 325.09090909090907 Z" fill-opacity="0.3"/><path fill="none" stroke="white" paint-order="fill stroke markers" d=" M 299.77272727272725 325.09090909090907 L 305.3909090909091 325.09090909090907 L 305.3909090909091 325.09090909090907 L 299.77272727272725 325.09090909090907 L 299.77272727272725 325.09090909090907 Z" stroke-linejoin="bevel" stroke-miterlimit="10" stroke-opacity="0.3"/><path fill="navy" stroke="none" paint-order="stroke fill markers" d=" M 305.3909090909091 325.09090909090907 L 311.00909090909084 325.09090909090907 L 311.00909090909084 325.09090909090907 L 305.3909090909091 325.09090909090907 L 305.3909090909091 325.09090909090907 Z" fill-opacity="0.3"/><path fill="none" stroke="white" paint-order="fill stroke markers" d=" M 305.3909090909091 325.09090909090907 L 311.00909090909084 325.09090909090907 L 311.00909090909084 325.09090909090907 L 305.3909090909091 325.09090909090907 L 305.3909090909091 325.09090909090907 Z" stroke-linejoin="bevel" stroke-miterlimit="10" stroke-opacity="0.3"/><path fill="navy" stroke="none" paint-order="stroke fill markers" d=" M 311.00909090909084 325.09090909090907 L 316.6272727272727 325.09090909090907 L 316.6272727272727 325.09090909090907 L 311.00909090909084 325.09090909090907 L 311.00909090909084 325.09090909090907 Z" fill-opacity="0.3"/><path fill="none" stroke="white" paint-order="fill stroke markers" d=" M 311.00909090909084 325.09090909090907 L 316.6272727272727 325.09090909090907 L 316.6272727272727 325.09090909090907 L 311.00909090909084 325.09090909090907 L 311.00909090909084 325.09090909090907 Z" stroke-linejoin="bevel" stroke-miterlimit="10" stroke-opacity="0.3"/><path fill="navy" stroke="none" paint-order="stroke fill markers" d=" M 316.6272727272727 307.70454545454544 L 322.2454545454545 307.70454545454544 L 322.2454545454545 325.09090909090907 L 316.6272727272727 325.09090909090907 L 316.6272727272727 307.70454545454544 Z" fill-opacity="0.3"/><path fill="none" stroke="white" paint-order="fill stroke markers" d=" M 316.6272727272727 307.70454545454544 L 322.2454545454545 307.70454545454544 L 322.2454545454545 325.09090909090907 L 316.6272727272727 325.09090909090907 L 316.6272727272727 307.70454545454544 Z" stroke-linejoin="bevel" stroke-miterlimit="10" stroke-opacity="0.3"/><path fill="navy" stroke="none" paint-order="stroke fill markers" d=" M 322.2454545454545 325.09090909090907 L 327.8636363636363 325.09090909090907 L 327.8636363636363 325.09090909090907 L 322.2454545454545 325.09090909090907 L 322.2454545454545 325.09090909090907 Z" fill-opacity="0.3"/><path fill="none" stroke="white" paint-order="fill stroke markers" d=" M 322.2454545454545 325.09090909090907 L 327.8636363636363 325.09090909090907 L 327.8636363636363 325.09090909090907 L 322.2454545454545 325.09090909090907 L 322.2454545454545 325.09090909090907 Z" stroke-linejoin="bevel" stroke-miterlimit="10" stroke-opacity="0.3"/><path fill="navy" stroke="none" paint-order="stroke fill markers" d=" M 327.8636363636363 325.09090909090907 L 333.48181818181814 325.09090909090907 L 333.48181818181814 325.09090909090907 L 327.8636363636363 325.09090909090907 L 327.8636363636363 325.09090909090907 Z" fill-opacity="0.3"/><path fill="none" stroke="white" paint-order="fill stroke markers" d=" M 327.8636363636363 325.09090909090907 L 333.48181818181814 325.09090909090907 L 333.48181818181814 325.09090909090907 L 327.8636363636363 325.09090909090907 L 327.8636363636363 325.09090909090907 Z" stroke-linejoin="bevel" stroke-miterlimit="10" stroke-opacity="0.3"/><path fill="navy" stroke="none" paint-order="stroke fill markers" d=" M 333.48181818181814 325.09090909090907 L 339.09999999999997 325.09090909090907 L 339.09999999999997 325.09090909090907 L 333.48181818181814 325.09090909090907 L 333.48181818181814 325.09090909090907 Z" fill-opacity="0.3"/><path fill="none" stroke="white" paint-order="fill stroke markers" d=" M 333.48181818181814 325.09090909090907 L 339.09999999999997 325.09090909090907 L 339.09999999999997 325.09090909090907 L 333.48181818181814 325.09090909090907 L 333.48181818181814 325.09090909090907 Z" stroke-linejoin="bevel" stroke-miterlimit="10" stroke-opacity="0.3"/><path fill="navy" stroke="none" paint-order="stroke fill markers" d=" M 339.09999999999997 325.09090909090907 L 344.7181818181818 325.09090909090907 L 344.7181818181818 325.09090909090907 L 339.09999999999997 325.09090909090907 L 339.09999999999997 325.09090909090907 Z" fill-opacity="0.3"/><path fill="none" stroke="white" paint-order="fill stroke markers" d=" M 339.09999999999997 325.09090909090907 L 344.7181818181818 325.09090909090907 L 344.7181818181818 325.09090909090907 L 339.09999999999997 325.09090909090907 L 339.09999999999997 325.09090909090907 Z" stroke-linejoin="bevel" stroke-miterlimit="10" stroke-opacity="0.3"/><path fill="navy" stroke="none" paint-order="stroke fill markers" d=" M 344.7181818181818 325.09090909090907 L 350.33636363636356 325.09090909090907 L 350.33636363636356 325.09090909090907 L 344.7181818181818 325.09090909090907 L 344.7181818181818 325.09090909090907 Z" fill-opacity="0.3"/><path fill="none" stroke="white" paint-order="fill stroke markers" d=" M 344.7181818181818 325.09090909090907 L 350.33636363636356 325.09090909090907 L 350.33636363636356 325.09090909090907 L 344.7181818181818 325.09090909090907 L 344.7181818181818 325.09090909090907 Z" stroke-linejoin="bevel" stroke-miterlimit="10" stroke-opacity="0.3"/><path fill="navy" stroke="none" paint-order="stroke fill markers" d=" M 350.33636363636356 307.70454545454544 L 355.9545454545454 307.70454545454544 L 355.9545454545454 325.09090909090907 L 350.33636363636356 325.09090909090907 L 350.33636363636356 307.70454545454544 Z" fill-opacity="0.3"/><path fill="none" stroke="white" paint-order="fill stroke markers" d=" M 350.33636363636356 307.70454545454544 L 355.9545454545454 307.70454545454544 L 355.9545454545454 325.09090909090907 L 350.33636363636356 325.09090909090907 L 350.33636363636356 307.70454545454544 Z" stroke-linejoin="bevel" stroke-miterlimit="10" stroke-opacity="0.3"/></g></g></g><g clip-path="url(#ZzXWIxHtonhz)"><g><g><path fill="none" stroke="red" paint-order="fill stroke markers" d=" M 210.08984152285652 33 L 210.08984152285652 339" stroke-linejoin="bevel" stroke-miterlimit="10" stroke-width="3" stroke-dasharray="6"/></g></g></g><g><g fill="#444444"><path fill="" stroke="none" d=""/><g transform="translate(215.5,5)"><path fill="none" stroke="none"/><text fill="" stroke="none" font-family="helvetica" font-size="12pt" font-style="normal" font-weight="bold" text-decoration="normal" x="0" y="0" text-anchor="middle" dominant-baseline="text-before-edge">Intra-molecular distances/Linker DSS</text></g></g></g><g/><g><g fill="#444444"><path fill="none" stroke="black" paint-order="fill stroke markers" d=" M 61 339 L 370 339" stroke-linejoin="bevel" stroke-miterlimit="10"/><path fill="none" stroke="black" paint-order="fill stroke markers" d=" M 75 345 L 75 337" stroke-linejoin="bevel" stroke-miterlimit="10"/><path fill="none" stroke="black" paint-order="fill stroke markers" d=" M 120 345 L 120 337" stroke-linejoin="bevel" stroke-miterlimit="10"/><path fill="none" stroke="black" paint-order="fill stroke markers" d=" M 165 345 L 165 337" stroke-linejoin="bevel" stroke-miterlimit="10"/><path fill="none" stroke="black" paint-order="fill stroke markers" d=" M 210 345 L 210 337" stroke-linejoin="bevel" stroke-miterlimit="10"/><path fill="none" stroke="black" paint-order="fill stroke markers" d=" M 255 345 L 255 337" stroke-linejoin="bevel" stroke-miterlimit="10"/><path fill="none" stroke="black" paint-order="fill stroke markers" d=" M 300 345 L 300 337" stroke-linejoin="bevel" stroke-miterlimit="10"/><path fill="none" stroke="black" paint-order="fill stroke markers" d=" M 345 345 L 345 337" stroke-linejoin="bevel" stroke-miterlimit="10"/><path fill="none" stroke="black" paint-order="fill stroke markers" d=" M 66 343 L 66 339" stroke-linejoin="bevel" stroke-miterlimit="10"/><path fill="none" stroke="black" paint-order="fill stroke markers" d=" M 75 343 L 75 339" stroke-linejoin="bevel" stroke-miterlimit="10"/><path fill="none" stroke="black" paint-order="fill stroke markers" d=" M 84 343 L 84 339" stroke-linejoin="bevel" stroke-miterlimit="10"/><path fill="none" stroke="black" paint-order="fill stroke markers" d=" M 93 343 L 93 339" stroke-linejoin="bevel" stroke-miterlimit="10"/><path fill="none" stroke="black" paint-order="fill stroke markers" d=" M 102 343 L 102 339" stroke-linejoin="bevel" stroke-miterlimit="10"/><path fill="none" stroke="black" paint-order="fill stroke markers" d=" M 111 343 L 111 339" stroke-linejoin="bevel" stroke-miterlimit="10"/><path fill="none" stroke="black" paint-order="fill stroke markers" d=" M 120 343 L 120 339" stroke-linejoin="bevel" stroke-miterlimit="10"/><path fill="none" stroke="black" paint-order="fill stroke markers" d=" M 129 343 L 129 339" stroke-linejoin="bevel" stroke-miterlimit="10"/><path fill="none" stroke="black" paint-order="fill stroke markers" d=" M 138 343 L 138 339" stroke-linejoin="bevel" stroke-miterlimit="10"/><path fill="none" stroke="black" paint-order="fill stroke markers" d=" M 147 343 L 147 339" stroke-linejoin="bevel" stroke-miterlimit="10"/><path fill="none" stroke="black" paint-order="fill stroke markers" d=" M 156 343 L 156 339" stroke-linejoin="bevel" stroke-miterlimit="10"/><path fill="none" stroke="black" paint-order="fill stroke markers" d=" M 165 343 L 165 339" stroke-linejoin="bevel" stroke-miterlimit="10"/><path fill="none" stroke="black" paint-order="fill stroke markers" d=" M 174 343 L 174 339" stroke-linejoin="bevel" stroke-miterlimit="10"/><path fill="none" stroke="black" paint-order="fill stroke markers" d=" M 183 343 L 183 339" stroke-linejoin="bevel" stroke-miterlimit="10"/><path fill="none" stroke="black" paint-order="fill stroke markers" d=" M 192 343 L 192 339" stroke-linejoin="bevel" stroke-miterlimit="10"/><path fill="none" stroke="black" paint-order="fill stroke markers" d=" M 201 343 L 201 339" stroke-linejoin="bevel" stroke-miterlimit="10"/><path fill="none" stroke="black" paint-order="fill stroke markers" d=" M 210 343 L 210 339" stroke-linejoin="bevel" stroke-miterlimit="10"/><path fill="none" stroke="black" paint-order="fill stroke markers" d=" M 219 343 L 219 339" stroke-linejoin="bevel" stroke-miterlimit="10"/><path fill="none" stroke="black" paint-order="fill stroke markers" d=" M 228 343 L 228 339" stroke-linejoin="bevel" stroke-miterlimit="10"/><path fill="none" stroke="black" paint-order="fill stroke markers" d=" M 237 343 L 237 339" stroke-linejoin="bevel" stroke-miterlimit="10"/><path fill="none" stroke="black" paint-order="fill stroke markers" d=" M 246 343 L 246 339" stroke-linejoin="bevel" stroke-miterlimit="10"/><path fill="none" stroke="black" paint-order="fill stroke markers" d=" M 255 343 L 255 339" stroke-linejoin="bevel" stroke-miterlimit="10"/><path fill="none" stroke="black" paint-order="fill stroke markers" d=" M 264 343 L 264 339" stroke-linejoin="bevel" stroke-miterlimit="10"/><path fill="none" stroke="black" paint-order="fill stroke markers" d=" M 273 343 L 273 339" stroke-linejoin="bevel" stroke-miterlimit="10"/><path fill="none" stroke="black" paint-order="fill stroke markers" d=" M 282 343 L 282 339" stroke-linejoin="bevel" stroke-miterlimit="10"/><path fill="none" stroke="black" paint-order="fill stroke markers" d=" M 291 343 L 291 339" stroke-linejoin="bevel" stroke-miterlimit="10"/><path fill="none" stroke="black" paint-order="fill stroke markers" d=" M 300 343 L 300 339" stroke-linejoin="bevel" stroke-miterlimit="10"/><path fill="none" stroke="black" paint-order="fill stroke markers" d=" M 309 343 L 309 339" stroke-linejoin="bevel" stroke-miterlimit="10"/><path fill="none" stroke="black" paint-order="fill stroke markers" d=" M 318 343 L 318 339" stroke-linejoin="bevel" stroke-miterlimit="10"/><path fill="none" stroke="black" paint-order="fill stroke markers" d=" M 327 343 L 327 339" stroke-linejoin="bevel" stroke-miterlimit="10"/><path fill="none" stroke="black" paint-order="fill stroke markers" d=" M 336 343 L 336 339" stroke-linejoin="bevel" stroke-miterlimit="10"/><path fill="none" stroke="black" paint-order="fill stroke markers" d=" M 345 343 L 345 339" stroke-linejoin="bevel" stroke-miterlimit="10"/><path fill="none" stroke="black" paint-order="fill stroke markers" d=" M 354 343 L 354 339" stroke-linejoin="bevel" stroke-miterlimit="10"/><path fill="" stroke="black" paint-order="fill stroke markers" d=" M 363 343 L 363 339" stroke-linejoin="bevel" stroke-miterlimit="10"/><g transform="translate(75,350) rotate(0,0,0)"><text fill="" stroke="none" font-family="helvetica" font-size="14pt" font-style="normal" font-weight="normal" text-decoration="normal" x="0" y="0" text-anchor="middle" dominant-baseline="hanging">0</text><g transform="rotate(0,0,0) translate(-75,-350) translate(120,350) rotate(0,0,0)"><text fill="" stroke="none" font-family="helvetica" font-size="14pt" font-style="normal" font-weight="normal" text-decoration="normal" x="0" y="0" text-anchor="middle" dominant-baseline="hanging">10</text><g transform="rotate(0,0,0) translate(-120,-350) translate(165,350) rotate(0,0,0)"><text fill="" stroke="none" font-family="helvetica" font-size="14pt" font-style="normal" font-weight="normal" text-decoration="normal" x="0" y="0" text-anchor="middle" dominant-baseline="hanging">20</text><g transform="rotate(0,0,0) translate(-165,-350) translate(210,350) rotate(0,0,0)"><text fill="" stroke="none" font-family="helvetica" font-size="14pt" font-style="normal" font-weight="normal" text-decoration="normal" x="0" y="0" text-anchor="middle" dominant-baseline="hanging">30</text><g transform="rotate(0,0,0) translate(-210,-350) translate(255,350) rotate(0,0,0)"><text fill="" stroke="none" font-family="helvetica" font-size="14pt" font-style="normal" font-weight="normal" text-decoration="normal" x="0" y="0" text-anchor="middle" dominant-baseline="hanging">40</text><g transform="rotate(0,0,0) translate(-255,-350) translate(300,350) rotate(0,0,0)"><text fill="" stroke="none" font-family="helvetica" font-size="14pt" font-style="normal" font-weight="normal" text-decoration="normal" x="0" y="0" text-anchor="middle" dominant-baseline="hanging">50</text><g transform="rotate(0,0,0) translate(-300,-350) translate(345,350) rotate(0,0,0)"><text fill="" stroke="none" font-family="helvetica" font-size="14pt" font-style="normal" font-weight="normal" text-decoration="normal" x="0" y="0" text-anchor="middle" dominant-baseline="hanging">60</text><g transform="rotate(0,0,0) translate(-345,-350) translate(216,377) rotate(0,0,0)"><text fill="" stroke="none" font-family="helvetica" font-size="14pt" font-style="italic" font-weight="normal" text-decoration="normal" x="0" y="0" text-anchor="middle" dominant-baseline="hanging">Distance Å</text><g transform="rotate(0,0,0) translate(-216,-377)"/></g></g></g></g></g></g></g></g></g></g><g><g fill="#444444"><path fill="none" stroke="black" paint-order="fill stroke markers" d=" M 61 339 L 61 33" stroke-linejoin="bevel" stroke-miterlimit="10"/><path fill="none" stroke="black" paint-order="fill stroke markers" d=" M 55 325 L 63 325" stroke-linejoin="bevel" stroke-miterlimit="10"/><path fill="none" stroke="black" paint-order="fill stroke markers" d=" M 55 238 L 63 238" stroke-linejoin="bevel" stroke-miterlimit="10"/><path fill="none" stroke="black" paint-order="fill stroke markers" d=" M 55 151 L 63 151" stroke-linejoin="bevel" stroke-miterlimit="10"/><path fill="none" stroke="black" paint-order="fill stroke markers" d=" M 55 64 L 63 64" stroke-linejoin="bevel" stroke-miterlimit="10"/><path fill="none" stroke="black" paint-order="fill stroke markers" d=" M 57 325 L 61 325" stroke-linejoin="bevel" stroke-miterlimit="10"/><path fill="none" stroke="black" paint-order="fill stroke markers" d=" M 57 308 L 61 308" stroke-linejoin="bevel" stroke-miterlimit="10"/><path fill="none" stroke="black" paint-order="fill stroke markers" d=" M 57 290 L 61 290" stroke-linejoin="bevel" stroke-miterlimit="10"/><path fill="none" stroke="black" paint-order="fill stroke markers" d=" M 57 273 L 61 273" stroke-linejoin="bevel" stroke-miterlimit="10"/><path fill="none" stroke="black" paint-order="fill stroke markers" d=" M 57 256 L 61 256" stroke-linejoin="bevel" stroke-miterlimit="10"/><path fill="none" stroke="black" paint-order="fill stroke markers" d=" M 57 238 L 61 238" stroke-linejoin="bevel" stroke-miterlimit="10"/><path fill="none" stroke="black" paint-order="fill stroke markers" d=" M 57 221 L 61 221" stroke-linejoin="bevel" stroke-miterlimit="10"/><path fill="none" stroke="black" paint-order="fill stroke markers" d=" M 57 203 L 61 203" stroke-linejoin="bevel" stroke-miterlimit="10"/><path fill="none" stroke="black" paint-order="fill stroke markers" d=" M 57 186 L 61 186" stroke-linejoin="bevel" stroke-miterlimit="10"/><path fill="none" stroke="black" paint-order="fill stroke markers" d=" M 57 169 L 61 169" stroke-linejoin="bevel" stroke-miterlimit="10"/><path fill="none" stroke="black" paint-order="fill stroke markers" d=" M 57 151 L 61 151" stroke-linejoin="bevel" stroke-miterlimit="10"/><path fill="none" stroke="black" paint-order="fill stroke markers" d=" M 57 134 L 61 134" stroke-linejoin="bevel" stroke-miterlimit="10"/><path fill="none" stroke="black" paint-order="fill stroke markers" d=" M 57 116 L 61 116" stroke-linejoin="bevel" stroke-miterlimit="10"/><path fill="none" stroke="black" paint-order="fill stroke markers" d=" M 57 99 L 61 99" stroke-linejoin="bevel" stroke-miterlimit="10"/><path fill="none" stroke="black" paint-order="fill stroke markers" d=" M 57 82 L 61 82" stroke-linejoin="bevel" stroke-miterlimit="10"/><path fill="none" stroke="black" paint-order="fill stroke markers" d=" M 57 64 L 61 64" stroke-linejoin="bevel" stroke-miterlimit="10"/><path fill="" stroke="black" paint-order="fill stroke markers" d=" M 57 47 L 61 47" stroke-linejoin="bevel" stroke-miterlimit="10"/><g transform="translate(50,325) rotate(0,0,0)"><text fill="" stroke="none" font-family="helvetica" font-size="14pt" font-style="normal" font-weight="normal" text-decoration="normal" x="0" y="0" text-anchor="end" dominant-baseline="central">0</text><g transform="rotate(0,0,0) translate(-50,-325) translate(50,238) rotate(0,0,0)"><text fill="" stroke="none" font-family="helvetica" font-size="14pt" font-style="normal" font-weight="normal" text-decoration="normal" x="0" y="0" text-anchor="end" dominant-baseline="central">5</text><g transform="rotate(0,0,0) translate(-50,-238) translate(50,151) rotate(0,0,0)"><text fill="" stroke="none" font-family="helvetica" font-size="14pt" font-style="normal" font-weight="normal" text-decoration="normal" x="0" y="0" text-anchor="end" dominant-baseline="central">10</text><g transform="rotate(0,0,0) translate(-50,-151) translate(50,64) rotate(0,0,0)"><text fill="" stroke="none" font-family="helvetica" font-size="14pt" font-style="normal" font-weight="normal" text-decoration="normal" x="0" y="0" text-anchor="end" dominant-baseline="central">15</text><g transform="rotate(0,0,0) translate(-50,-64) translate(22,186) rotate(-90,0,0)"><text fill="" stroke="none" font-family="helvetica" font-size="14pt" font-style="italic" font-weight="normal" text-decoration="normal" x="0" y="0" text-anchor="middle" dominant-baseline="alphabetic">Number of cross-links</text><g transform="rotate(90,0,0) translate(-22,-186)"/></g></g></g></g></g></g></g><g clip-path="url(#IhVgEJLuDTrV)"><g/></g></g><g transform="scale(1,1) translate(0.5,0.5)"><rect fill="#FFFFFF" stroke="none" x="0" y="0" width="400" height="400"/><rect fill="#ffffff" stroke="none" x="0" y="0" width="400" height="400"/><rect fill="#FFFFFF" stroke="none" x="61" y="33" width="309" height="306"/><rect fill="#ffffff" stroke="none" x="61" y="33" width="309" height="306"/><g><rect fill="none" stroke="#e5e5e5" x="61" y="33" width="309" height="306" stroke-linejoin="bevel" stroke-miterlimit="10"/></g><g clip-path="url(#ceOdLfztPMPw)"><g><g><path fill="none" stroke="#e5e5e5" paint-order="fill stroke markers" d=" M 75 339 L 75 33" stroke-linejoin="bevel" stroke-miterlimit="10"/><path fill="none" stroke="#e5e5e5" paint-order="fill stroke markers" d=" M 120 339 L 120 33" stroke-linejoin="bevel" stroke-miterlimit="10"/><path fill="none" stroke="#e5e5e5" paint-order="fill stroke markers" d=" M 165 339 L 165 33" stroke-linejoin="bevel" stroke-miterlimit="10"/><path fill="none" stroke="#e5e5e5" paint-order="fill stroke markers" d=" M 210 339 L 210 33" stroke-linejoin="bevel" stroke-miterlimit="10"/><path fill="none" stroke="#e5e5e5" paint-order="fill stroke markers" d=" M 255 339 L 255 33" stroke-linejoin="bevel" stroke-miterlimit="10"/><path fill="none" stroke="#e5e5e5" paint-order="fill stroke markers" d=" M 300 339 L 300 33" stroke-linejoin="bevel" stroke-miterlimit="10"/><path fill="none" stroke="#e5e5e5" paint-order="fill stroke markers" d=" M 345 339 L 345 33" stroke-linejoin="bevel" stroke-miterlimit="10"/></g></g></g><g clip-path="url(#yewurRfBIChq)"><g><g><path fill="none" stroke="#e5e5e5" paint-order="fill stroke markers" d=" M 61 325 L 370 325" stroke-linejoin="bevel" stroke-miterlimit="10"/><path fill="none" stroke="#e5e5e5" paint-order="fill stroke markers" d=" M 61 238 L 370 238" stroke-linejoin="bevel" stroke-miterlimit="10"/><path fill="none" stroke="#e5e5e5" paint-order="fill stroke markers" d=" M 61 151 L 370 151" stroke-linejoin="bevel" stroke-miterlimit="10"/><path fill="none" stroke="#e5e5e5" paint-order="fill stroke markers" d=" M 61 64 L 370 64" stroke-linejoin="bevel" stroke-miterlimit="10"/></g></g></g><g clip-path="url(#wEafwIWhzclX)"><g><g><path fill="none" stroke="none"/><path fill="navy" stroke="none" paint-order="stroke fill markers" d=" M 75.04545454545456 307.70454545454544 L 80.66363636363637 307.70454545454544 L 80.66363636363637 325.09090909090907 L 75.04545454545456 325.09090909090907 L 75.04545454545456 307.70454545454544 Z" fill-opacity="0.3"/><path fill="none" stroke="white" paint-order="fill stroke markers" d=" M 75.04545454545456 307.70454545454544 L 80.66363636363637 307.70454545454544 L 80.66363636363637 325.09090909090907 L 75.04545454545456 325.09090909090907 L 75.04545454545456 307.70454545454544 Z" stroke-linejoin="bevel" stroke-miterlimit="10" stroke-opacity="0.3"/><path fill="navy" stroke="none" paint-order="stroke fill markers" d=" M 80.66363636363637 325.09090909090907 L 86.2818181818182 325.09090909090907 L 86.2818181818182 325.09090909090907 L 80.66363636363637 325.09090909090907 L 80.66363636363637 325.09090909090907 Z" fill-opacity="0.3"/><path fill="none" stroke="white" paint-order="fill stroke markers" d=" M 80.66363636363637 325.09090909090907 L 86.2818181818182 325.09090909090907 L 86.2818181818182 325.09090909090907 L 80.66363636363637 325.09090909090907 L 80.66363636363637 325.09090909090907 Z" stroke-linejoin="bevel" stroke-miterlimit="10" stroke-opacity="0.3"/><path fill="navy" stroke="none" paint-order="stroke fill markers" d=" M 86.2818181818182 325.09090909090907 L 91.9 325.09090909090907 L 91.9 325.09090909090907 L 86.2818181818182 325.09090909090907 L 86.2818181818182 325.09090909090907 Z" fill-opacity="0.3"/><path fill="none" stroke="white" paint-order="fill stroke markers" d=" M 86.2818181818182 325.09090909090907 L 91.9 325.09090909090907 L 91.9 325.09090909090907 L 86.2818181818182 325.09090909090907 L 86.2818181818182 325.09090909090907 Z" stroke-linejoin="bevel" stroke-miterlimit="10" stroke-opacity="0.3"/><path fill="navy" stroke="none" paint-order="stroke fill markers" d=" M 91.9 290.3181818181818 L 97.51818181818183 290.3181818181818 L 97.51818181818183 325.09090909090907 L 91.9 325.09090909090907 L 91.9 290.3181818181818 Z" fill-opacity="0.3"/><path fill="none" stroke="white" paint-order="fill stroke markers" d=" M 91.9 290.3181818181818 L 97.51818181818183 290.3181818181818 L 97.51818181818183 325.09090909090907 L 91.9 325.09090909090907 L 91.9 290.3181818181818 Z" stroke-linejoin="bevel" stroke-miterlimit="10" stroke-opacity="0.3"/><path fill="navy" stroke="none" paint-order="stroke fill markers" d=" M 97.51818181818183 255.5454545454545 L 103.13636363636365 255.5454545454545 L 103.13636363636365 325.09090909090907 L 97.51818181818183 325.09090909090907 L 97.51818181818183 255.5454545454545 Z" fill-opacity="0.3"/><path fill="none" stroke="white" paint-order="fill stroke markers" d=" M 97.51818181818183 255.5454545454545 L 103.13636363636365 255.5454545454545 L 103.13636363636365 325.09090909090907 L 97.51818181818183 325.09090909090907 L 97.51818181818183 255.5454545454545 Z" stroke-linejoin="bevel" stroke-miterlimit="10" stroke-opacity="0.3"/><path fill="navy" stroke="none" paint-order="stroke fill markers" d=" M 103.13636363636365 290.3181818181818 L 108.75454545454546 290.3181818181818 L 108.75454545454546 325.09090909090907 L 103.13636363636365 325.09090909090907 L 103.13636363636365 290.3181818181818 Z" fill-opacity="0.3"/><path fill="none" stroke="white" paint-order="fill stroke markers" d=" M 103.13636363636365 290.3181818181818 L 108.75454545454546 290.3181818181818 L 108.75454545454546 325.09090909090907 L 103.13636363636365 325.09090909090907 L 103.13636363636365 290.3181818181818 Z" stroke-linejoin="bevel" stroke-miterlimit="10" stroke-opacity="0.3"/><path fill="navy" stroke="none" paint-order="stroke fill markers" d=" M 108.75454545454546 272.93181818181813 L 114.37272727272727 272.93181818181813 L 114.37272727272727 325.09090909090907 L 108.75454545454546 325.09090909090907 L 108.75454545454546 272.93181818181813 Z" fill-opacity="0.3"/><path fill="none" stroke="white" paint-order="fill stroke markers" d=" M 108.75454545454546 272.93181818181813 L 114.37272727272727 272.93181818181813 L 114.37272727272727 325.09090909090907 L 108.75454545454546 325.09090909090907 L 108.75454545454546 272.93181818181813 Z" stroke-linejoin="bevel" stroke-miterlimit="10" stroke-opacity="0.3"/><path fill="navy" stroke="none" paint-order="stroke fill markers" d=" M 114.37272727272727 290.3181818181818 L 119.9909090909091 290.3181818181818 L 119.9909090909091 325.09090909090907 L 114.37272727272727 325.09090909090907 L 114.37272727272727 290.3181818181818 Z" fill-opacity="0.3"/><path fill="none" stroke="white" paint-order="fill stroke markers" d=" M 114.37272727272727 290.3181818181818 L 119.9909090909091 290.3181818181818 L 119.9909090909091 325.09090909090907 L 114.37272727272727 325.09090909090907 L 114.37272727272727 290.3181818181818 Z" stroke-linejoin="bevel" stroke-miterlimit="10" stroke-opacity="0.3"/><path fill="navy" stroke="none" paint-order="stroke fill markers" d=" M 119.9909090909091 238.15909090909088 L 125.60909090909092 238.15909090909088 L 125.60909090909092 325.09090909090907 L 119.9909090909091 325.09090909090907 L 119.9909090909091 238.15909090909088 Z" fill-opacity="0.3"/><path fill="none" stroke="white" paint-order="fill stroke markers" d=" M 119.9909090909091 238.15909090909088 L 125.60909090909092 238.15909090909088 L 125.60909090909092 325.09090909090907 L 119.9909090909091 325.09090909090907 L 119.9909090909091 238.15909090909088 Z" stroke-linejoin="bevel" stroke-miterlimit="10" stroke-opacity="0.3"/><path fill="navy" stroke="none" paint-order="stroke fill markers" d=" M 125.60909090909092 220.77272727272725 L 131.22727272727275 220.77272727272725 L 131.22727272727275 325.09090909090907 L 125.60909090909092 325.09090909090907 L 125.60909090909092 220.77272727272725 Z" fill-opacity="0.3"/><path fill="none" stroke="white" paint-order="fill stroke markers" d=" M 125.60909090909092 220.77272727272725 L 131.22727272727275 220.77272727272725 L 131.22727272727275 325.09090909090907 L 125.60909090909092 325.09090909090907 L 125.60909090909092 220.77272727272725 Z" stroke-linejoin="bevel" stroke-miterlimit="10" stroke-opacity="0.3"/><path fill="navy" stroke="none" paint-order="stroke fill markers" d=" M 131.22727272727275 203.38636363636363 L 136.84545454545454 203.38636363636363 L 136.84545454545454 325.09090909090907 L 131.22727272727275 325.09090909090907 L 131.22727272727275 203.38636363636363 Z" fill-opacity="0.3"/><path fill="none" stroke="white" paint-order="fill stroke markers" d=" M 131.22727272727275 203.38636363636363 L 136.84545454545454 203.38636363636363 L 136.84545454545454 325.09090909090907 L 131.22727272727275 325.09090909090907 L 131.22727272727275 203.38636363636363 Z" stroke-linejoin="bevel" stroke-miterlimit="10" stroke-opacity="0.3"/><path fill="navy" stroke="none" paint-order="stroke fill markers" d=" M 136.84545454545454 116.45454545454544 L 142.46363636363637 116.45454545454544 L 142.46363636363637 325.09090909090907 L 136.84545454545454 325.09090909090907 L 136.84545454545454 116.45454545454544 Z" fill-opacity="0.3"/><path fill="none" stroke="white" paint-order="fill stroke markers" d=" M 136.84545454545454 116.45454545454544 L 142.46363636363637 116.45454545454544 L 142.46363636363637 325.09090909090907 L 136.84545454545454 325.09090909090907 L 136.84545454545454 116.45454545454544 Z" stroke-linejoin="bevel" stroke-miterlimit="10" stroke-opacity="0.3"/><path fill="navy" stroke="none" paint-order="stroke fill markers" d=" M 142.46363636363637 46.90909090909088 L 148.08181818181816 46.90909090909088 L 148.08181818181816 325.09090909090907 L 142.46363636363637 325.09090909090907 L 142.46363636363637 46.90909090909088 Z" fill-opacity="0.3"/><path fill="none" stroke="white" paint-order="fill stroke markers" d=" M 142.46363636363637 46.90909090909088 L 148.08181818181816 46.90909090909088 L 148.08181818181816 325.09090909090907 L 142.46363636363637 325.09090909090907 L 142.46363636363637 46.90909090909088 Z" stroke-linejoin="bevel" stroke-miterlimit="10" stroke-opacity="0.3"/><path fill="navy" stroke="none" paint-order="stroke fill markers" d=" M 148.08181818181816 168.61363636363635 L 153.7 168.61363636363635 L 153.7 325.09090909090907 L 148.08181818181816 325.09090909090907 L 148.08181818181816 168.61363636363635 Z" fill-opacity="0.3"/><path fill="none" stroke="white" paint-order="fill stroke markers" d=" M 148.08181818181816 168.61363636363635 L 153.7 168.61363636363635 L 153.7 325.09090909090907 L 148.08181818181816 325.09090909090907 L 148.08181818181816 168.61363636363635 Z" stroke-linejoin="bevel" stroke-miterlimit="10" stroke-opacity="0.3"/><path fill="navy" stroke="none" paint-order="stroke fill markers" d=" M 153.7 272.93181818181813 L 159.3181818181818 272.93181818181813 L 159.3181818181818 325.09090909090907 L 153.7 325.09090909090907 L 153.7 272.93181818181813 Z" fill-opacity="0.3"/><path fill="none" stroke="white" paint-order="fill stroke markers" d=" M 153.7 272.93181818181813 L 159.3181818181818 272.93181818181813 L 159.3181818181818 325.09090909090907 L 153.7 325.09090909090907 L 153.7 272.93181818181813 Z" stroke-linejoin="bevel" stroke-miterlimit="10" stroke-opacity="0.3"/><path fill="navy" stroke="none" paint-order="stroke fill markers" d=" M 159.3181818181818 203.38636363636363 L 164.93636363636364 203.38636363636363 L 164.93636363636364 325.09090909090907 L 159.3181818181818 325.09090909090907 L 159.3181818181818 203.38636363636363 Z" fill-opacity="0.3"/><path fill="none" stroke="white" paint-order="fill stroke markers" d=" M 159.3181818181818 203.38636363636363 L 164.93636363636364 203.38636363636363 L 164.93636363636364 325.09090909090907 L 159.3181818181818 325.09090909090907 L 159.3181818181818 203.38636363636363 Z" stroke-linejoin="bevel" stroke-miterlimit="10" stroke-opacity="0.3"/><path fill="navy" stroke="none" paint-order="stroke fill markers" d=" M 164.93636363636364 220.77272727272725 L 170.55454545454546 220.77272727272725 L 170.55454545454546 325.09090909090907 L 164.93636363636364 325.09090909090907 L 164.93636363636364 220.77272727272725 Z" fill-opacity="0.3"/><path fill="none" stroke="white" paint-order="fill stroke markers" d=" M 164.93636363636364 220.77272727272725 L 170.55454545454546 220.77272727272725 L 170.55454545454546 325.09090909090907 L 164.93636363636364 325.09090909090907 L 164.93636363636364 220.77272727272725 Z" stroke-linejoin="bevel" stroke-miterlimit="10" stroke-opacity="0.3"/><path fill="navy" stroke="none" paint-order="stroke fill markers" d=" M 170.55454545454546 255.5454545454545 L 176.1727272727273 255.5454545454545 L 176.1727272727273 325.09090909090907 L 170.55454545454546 325.09090909090907 L 170.55454545454546 255.5454545454545 Z" fill-opacity="0.3"/><path fill="none" stroke="white" paint-order="fill stroke markers" d=" M 170.55454545454546 255.5454545454545 L 176.1727272727273 255.5454545454545 L 176.1727272727273 325.09090909090907 L 170.55454545454546 325.09090909090907 L 170.55454545454546 255.5454545454545 Z" stroke-linejoin="bevel" stroke-miterlimit="10" stroke-opacity="0.3"/><path fill="navy" stroke="none" paint-order="stroke fill markers" d=" M 176.1727272727273 220.77272727272725 L 181.79090909090908 220.77272727272725 L 181.79090909090908 325.09090909090907 L 176.1727272727273 325.09090909090907 L 176.1727272727273 220.77272727272725 Z" fill-opacity="0.3"/><path fill="none" stroke="white" paint-order="fill stroke markers" d=" M 176.1727272727273 220.77272727272725 L 181.79090909090908 220.77272727272725 L 181.79090909090908 325.09090909090907 L 176.1727272727273 325.09090909090907 L 176.1727272727273 220.77272727272725 Z" stroke-linejoin="bevel" stroke-miterlimit="10" stroke-opacity="0.3"/><path fill="navy" stroke="none" paint-order="stroke fill markers" d=" M 181.79090909090908 290.3181818181818 L 187.4090909090909 290.3181818181818 L 187.4090909090909 325.09090909090907 L 181.79090909090908 325.09090909090907 L 181.79090909090908 290.3181818181818 Z" fill-opacity="0.3"/><path fill="none" stroke="white" paint-order="fill stroke markers" d=" M 181.79090909090908 290.3181818181818 L 187.4090909090909 290.3181818181818 L 187.4090909090909 325.09090909090907 L 181.79090909090908 325.09090909090907 L 181.79090909090908 290.3181818181818 Z" stroke-linejoin="bevel" stroke-miterlimit="10" stroke-opacity="0.3"/><path fill="navy" stroke="none" paint-order="stroke fill markers" d=" M 187.4090909090909 307.70454545454544 L 193.0272727272727 307.70454545454544 L 193.0272727272727 325.09090909090907 L 187.4090909090909 325.09090909090907 L 187.4090909090909 307.70454545454544 Z" fill-opacity="0.3"/><path fill="none" stroke="white" paint-order="fill stroke markers" d=" M 187.4090909090909 307.70454545454544 L 193.0272727272727 307.70454545454544 L 193.0272727272727 325.09090909090907 L 187.4090909090909 325.09090909090907 L 187.4090909090909 307.70454545454544 Z" stroke-linejoin="bevel" stroke-miterlimit="10" stroke-opacity="0.3"/><path fill="navy" stroke="none" paint-order="stroke fill markers" d=" M 193.0272727272727 307.70454545454544 L 198.64545454545453 307.70454545454544 L 198.64545454545453 325.09090909090907 L 193.0272727272727 325.09090909090907 L 193.0272727272727 307.70454545454544 Z" fill-opacity="0.3"/><path fill="none" stroke="white" paint-order="fill stroke markers" d=" M 193.0272727272727 307.70454545454544 L 198.64545454545453 307.70454545454544 L 198.64545454545453 325.09090909090907 L 193.0272727272727 325.09090909090907 L 193.0272727272727 307.70454545454544 Z" stroke-linejoin="bevel" stroke-miterlimit="10" stroke-opacity="0.3"/><path fill="navy" stroke="none" paint-order="stroke fill markers" d=" M 198.64545454545453 325.09090909090907 L 204.26363636363635 325.09090909090907 L 204.26363636363635 325.09090909090907 L 198.64545454545453 325.09090909090907 L 198.64545454545453 325.09090909090907 Z" fill-opacity="0.3"/><path fill="none" stroke="white" paint-order="fill stroke markers" d=" M 198.64545454545453 325.09090909090907 L 204.26363636363635 325.09090909090907 L 204.26363636363635 325.09090909090907 L 198.64545454545453 325.09090909090907 L 198.64545454545453 325.09090909090907 Z" stroke-linejoin="bevel" stroke-miterlimit="10" stroke-opacity="0.3"/><path fill="navy" stroke="none" paint-order="stroke fill markers" d=" M 204.26363636363635 307.70454545454544 L 209.88181818181818 307.70454545454544 L 209.88181818181818 325.09090909090907 L 204.26363636363635 325.09090909090907 L 204.26363636363635 307.70454545454544 Z" fill-opacity="0.3"/><path fill="none" stroke="white" paint-order="fill stroke markers" d=" M 204.26363636363635 307.70454545454544 L 209.88181818181818 307.70454545454544 L 209.88181818181818 325.09090909090907 L 204.26363636363635 325.09090909090907 L 204.26363636363635 307.70454545454544 Z" stroke-linejoin="bevel" stroke-miterlimit="10" stroke-opacity="0.3"/><path fill="navy" stroke="none" paint-order="stroke fill markers" d=" M 209.88181818181818 307.70454545454544 L 215.49999999999997 307.70454545454544 L 215.49999999999997 325.09090909090907 L 209.88181818181818 325.09090909090907 L 209.88181818181818 307.70454545454544 Z" fill-opacity="0.3"/><path fill="none" stroke="white" paint-order="fill stroke markers" d=" M 209.88181818181818 307.70454545454544 L 215.49999999999997 307.70454545454544 L 215.49999999999997 325.09090909090907 L 209.88181818181818 325.09090909090907 L 209.88181818181818 307.70454545454544 Z" stroke-linejoin="bevel" stroke-miterlimit="10" stroke-opacity="0.3"/><path fill="navy" stroke="none" paint-order="stroke fill markers" d=" M 215.49999999999997 325.09090909090907 L 221.1181818181818 325.09090909090907 L 221.1181818181818 325.09090909090907 L 215.49999999999997 325.09090909090907 L 215.49999999999997 325.09090909090907 Z" fill-opacity="0.3"/><path fill="none" stroke="white" paint-order="fill stroke markers" d=" M 215.49999999999997 325.09090909090907 L 221.1181818181818 325.09090909090907 L 221.1181818181818 325.09090909090907 L 215.49999999999997 325.09090909090907 L 215.49999999999997 325.09090909090907 Z" stroke-linejoin="bevel" stroke-miterlimit="10" stroke-opacity="0.3"/><path fill="navy" stroke="none" paint-order="stroke fill markers" d=" M 221.1181818181818 325.09090909090907 L 226.73636363636362 325.09090909090907 L 226.73636363636362 325.09090909090907 L 221.1181818181818 325.09090909090907 L 221.1181818181818 325.09090909090907 Z" fill-opacity="0.3"/><path fill="none" stroke="white" paint-order="fill stroke markers" d=" M 221.1181818181818 325.09090909090907 L 226.73636363636362 325.09090909090907 L 226.73636363636362 325.09090909090907 L 221.1181818181818 325.09090909090907 L 221.1181818181818 325.09090909090907 Z" stroke-linejoin="bevel" stroke-miterlimit="10" stroke-opacity="0.3"/><path fill="navy" stroke="none" paint-order="stroke fill markers" d=" M 226.73636363636362 325.09090909090907 L 232.35454545454542 325.09090909090907 L 232.35454545454542 325.09090909090907 L 226.73636363636362 325.09090909090907 L 226.73636363636362 325.09090909090907 Z" fill-opacity="0.3"/><path fill="none" stroke="white" paint-order="fill stroke markers" d=" M 226.73636363636362 325.09090909090907 L 232.35454545454542 325.09090909090907 L 232.35454545454542 325.09090909090907 L 226.73636363636362 325.09090909090907 L 226.73636363636362 325.09090909090907 Z" stroke-linejoin="bevel" stroke-miterlimit="10" stroke-opacity="0.3"/><path fill="navy" stroke="none" paint-order="stroke fill markers" d=" M 232.35454545454542 325.09090909090907 L 237.97272727272724 325.09090909090907 L 237.97272727272724 325.09090909090907 L 232.35454545454542 325.09090909090907 L 232.35454545454542 325.09090909090907 Z" fill-opacity="0.3"/><path fill="none" stroke="white" paint-order="fill stroke markers" d=" M 232.35454545454542 325.09090909090907 L 237.97272727272724 325.09090909090907 L 237.97272727272724 325.09090909090907 L 232.35454545454542 325.09090909090907 L 232.35454545454542 325.09090909090907 Z" stroke-linejoin="bevel" stroke-miterlimit="10" stroke-opacity="0.3"/><path fill="navy" stroke="none" paint-order="stroke fill markers" d=" M 237.97272727272724 325.09090909090907 L 243.59090909090907 325.09090909090907 L 243.59090909090907 325.09090909090907 L 237.97272727272724 325.09090909090907 L 237.97272727272724 325.09090909090907 Z" fill-opacity="0.3"/><path fill="none" stroke="white" paint-order="fill stroke markers" d=" M 237.97272727272724 325.09090909090907 L 243.59090909090907 325.09090909090907 L 243.59090909090907 325.09090909090907 L 237.97272727272724 325.09090909090907 L 237.97272727272724 325.09090909090907 Z" stroke-linejoin="bevel" stroke-miterlimit="10" stroke-opacity="0.3"/><path fill="navy" stroke="none" paint-order="stroke fill markers" d=" M 243.59090909090907 325.09090909090907 L 249.2090909090909 325.09090909090907 L 249.2090909090909 325.09090909090907 L 243.59090909090907 325.09090909090907 L 243.59090909090907 325.09090909090907 Z" fill-opacity="0.3"/><path fill="none" stroke="white" paint-order="fill stroke markers" d=" M 243.59090909090907 325.09090909090907 L 249.2090909090909 325.09090909090907 L 249.2090909090909 325.09090909090907 L 243.59090909090907 325.09090909090907 L 243.59090909090907 325.09090909090907 Z" stroke-linejoin="bevel" stroke-miterlimit="10" stroke-opacity="0.3"/><path fill="navy" stroke="none" paint-order="stroke fill markers" d=" M 249.2090909090909 325.09090909090907 L 254.82727272727269 325.09090909090907 L 254.82727272727269 325.09090909090907 L 249.2090909090909 325.09090909090907 L 249.2090909090909 325.09090909090907 Z" fill-opacity="0.3"/><path fill="none" stroke="white" paint-order="fill stroke markers" d=" M 249.2090909090909 325.09090909090907 L 254.82727272727269 325.09090909090907 L 254.82727272727269 325.09090909090907 L 249.2090909090909 325.09090909090907 L 249.2090909090909 325.09090909090907 Z" stroke-linejoin="bevel" stroke-miterlimit="10" stroke-opacity="0.3"/><path fill="navy" stroke="none" paint-order="stroke fill markers" d=" M 254.82727272727269 325.09090909090907 L 260.4454545454545 325.09090909090907 L 260.4454545454545 325.09090909090907 L 254.82727272727269 325.09090909090907 L 254.82727272727269 325.09090909090907 Z" fill-opacity="0.3"/><path fill="none" stroke="white" paint-order="fill stroke markers" d=" M 254.82727272727269 325.09090909090907 L 260.4454545454545 325.09090909090907 L 260.4454545454545 325.09090909090907 L 254.82727272727269 325.09090909090907 L 254.82727272727269 325.09090909090907 Z" stroke-linejoin="bevel" stroke-miterlimit="10" stroke-opacity="0.3"/><path fill="navy" stroke="none" paint-order="stroke fill markers" d=" M 260.4454545454545 325.09090909090907 L 266.0636363636363 325.09090909090907 L 266.0636363636363 325.09090909090907 L 260.4454545454545 325.09090909090907 L 260.4454545454545 325.09090909090907 Z" fill-opacity="0.3"/><path fill="none" stroke="white" paint-order="fill stroke markers" d=" M 260.4454545454545 325.09090909090907 L 266.0636363636363 325.09090909090907 L 266.0636363636363 325.09090909090907 L 260.4454545454545 325.09090909090907 L 260.4454545454545 325.09090909090907 Z" stroke-linejoin="bevel" stroke-miterlimit="10" stroke-opacity="0.3"/><path fill="navy" stroke="none" paint-order="stroke fill markers" d=" M 266.0636363636363 325.09090909090907 L 271.68181818181813 325.09090909090907 L 271.68181818181813 325.09090909090907 L 266.0636363636363 325.09090909090907 L 266.0636363636363 325.09090909090907 Z" fill-opacity="0.3"/><path fill="none" stroke="white" paint-order="fill stroke markers" d=" M 266.0636363636363 325.09090909090907 L 271.68181818181813 325.09090909090907 L 271.68181818181813 325.09090909090907 L 266.0636363636363 325.09090909090907 L 266.0636363636363 325.09090909090907 Z" stroke-linejoin="bevel" stroke-miterlimit="10" stroke-opacity="0.3"/><path fill="navy" stroke="none" paint-order="stroke fill markers" d=" M 271.68181818181813 325.09090909090907 L 277.29999999999995 325.09090909090907 L 277.29999999999995 325.09090909090907 L 271.68181818181813 325.09090909090907 L 271.68181818181813 325.09090909090907 Z" fill-opacity="0.3"/><path fill="none" stroke="white" paint-order="fill stroke markers" d=" M 271.68181818181813 325.09090909090907 L 277.29999999999995 325.09090909090907 L 277.29999999999995 325.09090909090907 L 271.68181818181813 325.09090909090907 L 271.68181818181813 325.09090909090907 Z" stroke-linejoin="bevel" stroke-miterlimit="10" stroke-opacity="0.3"/><path fill="navy" stroke="none" paint-order="stroke fill markers" d=" M 277.29999999999995 325.09090909090907 L 282.9181818181818 325.09090909090907 L 282.9181818181818 325.09090909090907 L 277.29999999999995 325.09090909090907 L 277.29999999999995 325.09090909090907 Z" fill-opacity="0.3"/><path fill="none" stroke="white" paint-order="fill stroke markers" d=" M 277.29999999999995 325.09090909090907 L 282.9181818181818 325.09090909090907 L 282.9181818181818 325.09090909090907 L 277.29999999999995 325.09090909090907 L 277.29999999999995 325.09090909090907 Z" stroke-linejoin="bevel" stroke-miterlimit="10" stroke-opacity="0.3"/><path fill="navy" stroke="none" paint-order="stroke fill markers" d=" M 282.9181818181818 325.09090909090907 L 288.5363636363636 325.09090909090907 L 288.5363636363636 325.09090909090907 L 282.9181818181818 325.09090909090907 L 282.9181818181818 325.09090909090907 Z" fill-opacity="0.3"/><path fill="none" stroke="white" paint-order="fill stroke markers" d=" M 282.9181818181818 325.09090909090907 L 288.5363636363636 325.09090909090907 L 288.5363636363636 325.09090909090907 L 282.9181818181818 325.09090909090907 L 282.9181818181818 325.09090909090907 Z" stroke-linejoin="bevel" stroke-miterlimit="10" stroke-opacity="0.3"/><path fill="navy" stroke="none" paint-order="stroke fill markers" d=" M 288.5363636363636 325.09090909090907 L 294.1545454545454 325.09090909090907 L 294.1545454545454 325.09090909090907 L 288.5363636363636 325.09090909090907 L 288.5363636363636 325.09090909090907 Z" fill-opacity="0.3"/><path fill="none" stroke="white" paint-order="fill stroke markers" d=" M 288.5363636363636 325.09090909090907 L 294.1545454545454 325.09090909090907 L 294.1545454545454 325.09090909090907 L 288.5363636363636 325.09090909090907 L 288.5363636363636 325.09090909090907 Z" stroke-linejoin="bevel" stroke-miterlimit="10" stroke-opacity="0.3"/><path fill="navy" stroke="none" paint-order="stroke fill markers" d=" M 294.1545454545454 325.09090909090907 L 299.77272727272725 325.09090909090907 L 299.77272727272725 325.09090909090907 L 294.1545454545454 325.09090909090907 L 294.1545454545454 325.09090909090907 Z" fill-opacity="0.3"/><path fill="none" stroke="white" paint-order="fill stroke markers" d=" M 294.1545454545454 325.09090909090907 L 299.77272727272725 325.09090909090907 L 299.77272727272725 325.09090909090907 L 294.1545454545454 325.09090909090907 L 294.1545454545454 325.09090909090907 Z" stroke-linejoin="bevel" stroke-miterlimit="10" stroke-opacity="0.3"/><path fill="navy" stroke="none" paint-order="stroke fill markers" d=" M 299.77272727272725 325.09090909090907 L 305.3909090909091 325.09090909090907 L 305.3909090909091 325.09090909090907 L 299.77272727272725 325.09090909090907 L 299.77272727272725 325.09090909090907 Z" fill-opacity="0.3"/><path fill="none" stroke="white" paint-order="fill stroke markers" d=" M 299.77272727272725 325.09090909090907 L 305.3909090909091 325.09090909090907 L 305.3909090909091 325.09090909090907 L 299.77272727272725 325.09090909090907 L 299.77272727272725 325.09090909090907 Z" stroke-linejoin="bevel" stroke-miterlimit="10" stroke-opacity="0.3"/><path fill="navy" stroke="none" paint-order="stroke fill markers" d=" M 305.3909090909091 325.09090909090907 L 311.00909090909084 325.09090909090907 L 311.00909090909084 325.09090909090907 L 305.3909090909091 325.09090909090907 L 305.3909090909091 325.09090909090907 Z" fill-opacity="0.3"/><path fill="none" stroke="white" paint-order="fill stroke markers" d=" M 305.3909090909091 325.09090909090907 L 311.00909090909084 325.09090909090907 L 311.00909090909084 325.09090909090907 L 305.3909090909091 325.09090909090907 L 305.3909090909091 325.09090909090907 Z" stroke-linejoin="bevel" stroke-miterlimit="10" stroke-opacity="0.3"/><path fill="navy" stroke="none" paint-order="stroke fill markers" d=" M 311.00909090909084 325.09090909090907 L 316.6272727272727 325.09090909090907 L 316.6272727272727 325.09090909090907 L 311.00909090909084 325.09090909090907 L 311.00909090909084 325.09090909090907 Z" fill-opacity="0.3"/><path fill="none" stroke="white" paint-order="fill stroke markers" d=" M 311.00909090909084 325.09090909090907 L 316.6272727272727 325.09090909090907 L 316.6272727272727 325.09090909090907 L 311.00909090909084 325.09090909090907 L 311.00909090909084 325.09090909090907 Z" stroke-linejoin="bevel" stroke-miterlimit="10" stroke-opacity="0.3"/><path fill="navy" stroke="none" paint-order="stroke fill markers" d=" M 316.6272727272727 307.70454545454544 L 322.2454545454545 307.70454545454544 L 322.2454545454545 325.09090909090907 L 316.6272727272727 325.09090909090907 L 316.6272727272727 307.70454545454544 Z" fill-opacity="0.3"/><path fill="none" stroke="white" paint-order="fill stroke markers" d=" M 316.6272727272727 307.70454545454544 L 322.2454545454545 307.70454545454544 L 322.2454545454545 325.09090909090907 L 316.6272727272727 325.09090909090907 L 316.6272727272727 307.70454545454544 Z" stroke-linejoin="bevel" stroke-miterlimit="10" stroke-opacity="0.3"/><path fill="navy" stroke="none" paint-order="stroke fill markers" d=" M 322.2454545454545 325.09090909090907 L 327.8636363636363 325.09090909090907 L 327.8636363636363 325.09090909090907 L 322.2454545454545 325.09090909090907 L 322.2454545454545 325.09090909090907 Z" fill-opacity="0.3"/><path fill="none" stroke="white" paint-order="fill stroke markers" d=" M 322.2454545454545 325.09090909090907 L 327.8636363636363 325.09090909090907 L 327.8636363636363 325.09090909090907 L 322.2454545454545 325.09090909090907 L 322.2454545454545 325.09090909090907 Z" stroke-linejoin="bevel" stroke-miterlimit="10" stroke-opacity="0.3"/><path fill="navy" stroke="none" paint-order="stroke fill markers" d=" M 327.8636363636363 325.09090909090907 L 333.48181818181814 325.09090909090907 L 333.48181818181814 325.09090909090907 L 327.8636363636363 325.09090909090907 L 327.8636363636363 325.09090909090907 Z" fill-opacity="0.3"/><path fill="none" stroke="white" paint-order="fill stroke markers" d=" M 327.8636363636363 325.09090909090907 L 333.48181818181814 325.09090909090907 L 333.48181818181814 325.09090909090907 L 327.8636363636363 325.09090909090907 L 327.8636363636363 325.09090909090907 Z" stroke-linejoin="bevel" stroke-miterlimit="10" stroke-opacity="0.3"/><path fill="navy" stroke="none" paint-order="stroke fill markers" d=" M 333.48181818181814 325.09090909090907 L 339.09999999999997 325.09090909090907 L 339.09999999999997 325.09090909090907 L 333.48181818181814 325.09090909090907 L 333.48181818181814 325.09090909090907 Z" fill-opacity="0.3"/><path fill="none" stroke="white" paint-order="fill stroke markers" d=" M 333.48181818181814 325.09090909090907 L 339.09999999999997 325.09090909090907 L 339.09999999999997 325.09090909090907 L 333.48181818181814 325.09090909090907 L 333.48181818181814 325.09090909090907 Z" stroke-linejoin="bevel" stroke-miterlimit="10" stroke-opacity="0.3"/><path fill="navy" stroke="none" paint-order="stroke fill markers" d=" M 339.09999999999997 325.09090909090907 L 344.7181818181818 325.09090909090907 L 344.7181818181818 325.09090909090907 L 339.09999999999997 325.09090909090907 L 339.09999999999997 325.09090909090907 Z" fill-opacity="0.3"/><path fill="none" stroke="white" paint-order="fill stroke markers" d=" M 339.09999999999997 325.09090909090907 L 344.7181818181818 325.09090909090907 L 344.7181818181818 325.09090909090907 L 339.09999999999997 325.09090909090907 L 339.09999999999997 325.09090909090907 Z" stroke-linejoin="bevel" stroke-miterlimit="10" stroke-opacity="0.3"/><path fill="navy" stroke="none" paint-order="stroke fill markers" d=" M 344.7181818181818 325.09090909090907 L 350.33636363636356 325.09090909090907 L 350.33636363636356 325.09090909090907 L 344.7181818181818 325.09090909090907 L 344.7181818181818 325.09090909090907 Z" fill-opacity="0.3"/><path fill="none" stroke="white" paint-order="fill stroke markers" d=" M 344.7181818181818 325.09090909090907 L 350.33636363636356 325.09090909090907 L 350.33636363636356 325.09090909090907 L 344.7181818181818 325.09090909090907 L 344.7181818181818 325.09090909090907 Z" stroke-linejoin="bevel" stroke-miterlimit="10" stroke-opacity="0.3"/><path fill="navy" stroke="none" paint-order="stroke fill markers" d=" M 350.33636363636356 307.70454545454544 L 355.9545454545454 307.70454545454544 L 355.9545454545454 325.09090909090907 L 350.33636363636356 325.09090909090907 L 350.33636363636356 307.70454545454544 Z" fill-opacity="0.3"/><path fill="none" stroke="white" paint-order="fill stroke markers" d=" M 350.33636363636356 307.70454545454544 L 355.9545454545454 307.70454545454544 L 355.9545454545454 325.09090909090907 L 350.33636363636356 325.09090909090907 L 350.33636363636356 307.70454545454544 Z" stroke-linejoin="bevel" stroke-miterlimit="10" stroke-opacity="0.3"/></g></g></g><g clip-path="url(#QrvPSJDwETvd)"><g><g><path fill="none" stroke="red" paint-order="fill stroke markers" d=" M 210.08984152285652 33 L 210.08984152285652 339" stroke-linejoin="bevel" stroke-miterlimit="10" stroke-width="3" stroke-dasharray="6"/></g></g></g><g><g fill="#444444"><path fill="" stroke="none" d=""/><g transform="translate(215.5,5)"><path fill="none" stroke="none"/><text fill="" stroke="none" font-family="helvetica" font-size="12pt" font-style="normal" font-weight="bold" text-decoration="normal" x="0" y="0" text-anchor="middle" dominant-baseline="text-before-edge">Intra-molecular distances/Linker DSS</text></g></g></g><g/><g><g fill="#444444"><path fill="none" stroke="black" paint-order="fill stroke markers" d=" M 61 339 L 370 339" stroke-linejoin="bevel" stroke-miterlimit="10"/><path fill="none" stroke="black" paint-order="fill stroke markers" d=" M 75 345 L 75 337" stroke-linejoin="bevel" stroke-miterlimit="10"/><path fill="none" stroke="black" paint-order="fill stroke markers" d=" M 120 345 L 120 337" stroke-linejoin="bevel" stroke-miterlimit="10"/><path fill="none" stroke="black" paint-order="fill stroke markers" d=" M 165 345 L 165 337" stroke-linejoin="bevel" stroke-miterlimit="10"/><path fill="none" stroke="black" paint-order="fill stroke markers" d=" M 210 345 L 210 337" stroke-linejoin="bevel" stroke-miterlimit="10"/><path fill="none" stroke="black" paint-order="fill stroke markers" d=" M 255 345 L 255 337" stroke-linejoin="bevel" stroke-miterlimit="10"/><path fill="none" stroke="black" paint-order="fill stroke markers" d=" M 300 345 L 300 337" stroke-linejoin="bevel" stroke-miterlimit="10"/><path fill="none" stroke="black" paint-order="fill stroke markers" d=" M 345 345 L 345 337" stroke-linejoin="bevel" stroke-miterlimit="10"/><path fill="none" stroke="black" paint-order="fill stroke markers" d=" M 66 343 L 66 339" stroke-linejoin="bevel" stroke-miterlimit="10"/><path fill="none" stroke="black" paint-order="fill stroke markers" d=" M 75 343 L 75 339" stroke-linejoin="bevel" stroke-miterlimit="10"/><path fill="none" stroke="black" paint-order="fill stroke markers" d=" M 84 343 L 84 339" stroke-linejoin="bevel" stroke-miterlimit="10"/><path fill="none" stroke="black" paint-order="fill stroke markers" d=" M 93 343 L 93 339" stroke-linejoin="bevel" stroke-miterlimit="10"/><path fill="none" stroke="black" paint-order="fill stroke markers" d=" M 102 343 L 102 339" stroke-linejoin="bevel" stroke-miterlimit="10"/><path fill="none" stroke="black" paint-order="fill stroke markers" d=" M 111 343 L 111 339" stroke-linejoin="bevel" stroke-miterlimit="10"/><path fill="none" stroke="black" paint-order="fill stroke markers" d=" M 120 343 L 120 339" stroke-linejoin="bevel" stroke-miterlimit="10"/><path fill="none" stroke="black" paint-order="fill stroke markers" d=" M 129 343 L 129 339" stroke-linejoin="bevel" stroke-miterlimit="10"/><path fill="none" stroke="black" paint-order="fill stroke markers" d=" M 138 343 L 138 339" stroke-linejoin="bevel" stroke-miterlimit="10"/><path fill="none" stroke="black" paint-order="fill stroke markers" d=" M 147 343 L 147 339" stroke-linejoin="bevel" stroke-miterlimit="10"/><path fill="none" stroke="black" paint-order="fill stroke markers" d=" M 156 343 L 156 339" stroke-linejoin="bevel" stroke-miterlimit="10"/><path fill="none" stroke="black" paint-order="fill stroke markers" d=" M 165 343 L 165 339" stroke-linejoin="bevel" stroke-miterlimit="10"/><path fill="none" stroke="black" paint-order="fill stroke markers" d=" M 174 343 L 174 339" stroke-linejoin="bevel" stroke-miterlimit="10"/><path fill="none" stroke="black" paint-order="fill stroke markers" d=" M 183 343 L 183 339" stroke-linejoin="bevel" stroke-miterlimit="10"/><path fill="none" stroke="black" paint-order="fill stroke markers" d=" M 192 343 L 192 339" stroke-linejoin="bevel" stroke-miterlimit="10"/><path fill="none" stroke="black" paint-order="fill stroke markers" d=" M 201 343 L 201 339" stroke-linejoin="bevel" stroke-miterlimit="10"/><path fill="none" stroke="black" paint-order="fill stroke markers" d=" M 210 343 L 210 339" stroke-linejoin="bevel" stroke-miterlimit="10"/><path fill="none" stroke="black" paint-order="fill stroke markers" d=" M 219 343 L 219 339" stroke-linejoin="bevel" stroke-miterlimit="10"/><path fill="none" stroke="black" paint-order="fill stroke markers" d=" M 228 343 L 228 339" stroke-linejoin="bevel" stroke-miterlimit="10"/><path fill="none" stroke="black" paint-order="fill stroke markers" d=" M 237 343 L 237 339" stroke-linejoin="bevel" stroke-miterlimit="10"/><path fill="none" stroke="black" paint-order="fill stroke markers" d=" M 246 343 L 246 339" stroke-linejoin="bevel" stroke-miterlimit="10"/><path fill="none" stroke="black" paint-order="fill stroke markers" d=" M 255 343 L 255 339" stroke-linejoin="bevel" stroke-miterlimit="10"/><path fill="none" stroke="black" paint-order="fill stroke markers" d=" M 264 343 L 264 339" stroke-linejoin="bevel" stroke-miterlimit="10"/><path fill="none" stroke="black" paint-order="fill stroke markers" d=" M 273 343 L 273 339" stroke-linejoin="bevel" stroke-miterlimit="10"/><path fill="none" stroke="black" paint-order="fill stroke markers" d=" M 282 343 L 282 339" stroke-linejoin="bevel" stroke-miterlimit="10"/><path fill="none" stroke="black" paint-order="fill stroke markers" d=" M 291 343 L 291 339" stroke-linejoin="bevel" stroke-miterlimit="10"/><path fill="none" stroke="black" paint-order="fill stroke markers" d=" M 300 343 L 300 339" stroke-linejoin="bevel" stroke-miterlimit="10"/><path fill="none" stroke="black" paint-order="fill stroke markers" d=" M 309 343 L 309 339" stroke-linejoin="bevel" stroke-miterlimit="10"/><path fill="none" stroke="black" paint-order="fill stroke markers" d=" M 318 343 L 318 339" stroke-linejoin="bevel" stroke-miterlimit="10"/><path fill="none" stroke="black" paint-order="fill stroke markers" d=" M 327 343 L 327 339" stroke-linejoin="bevel" stroke-miterlimit="10"/><path fill="none" stroke="black" paint-order="fill stroke markers" d=" M 336 343 L 336 339" stroke-linejoin="bevel" stroke-miterlimit="10"/><path fill="none" stroke="black" paint-order="fill stroke markers" d=" M 345 343 L 345 339" stroke-linejoin="bevel" stroke-miterlimit="10"/><path fill="none" stroke="black" paint-order="fill stroke markers" d=" M 354 343 L 354 339" stroke-linejoin="bevel" stroke-miterlimit="10"/><path fill="" stroke="black" paint-order="fill stroke markers" d=" M 363 343 L 363 339" stroke-linejoin="bevel" stroke-miterlimit="10"/><g transform="translate(75,350) rotate(0,0,0)"><text fill="" stroke="none" font-family="helvetica" font-size="14pt" font-style="normal" font-weight="normal" text-decoration="normal" x="0" y="0" text-anchor="middle" dominant-baseline="hanging">0</text><g transform="rotate(0,0,0) translate(-75,-350) translate(120,350) rotate(0,0,0)"><text fill="" stroke="none" font-family="helvetica" font-size="14pt" font-style="normal" font-weight="normal" text-decoration="normal" x="0" y="0" text-anchor="middle" dominant-baseline="hanging">10</text><g transform="rotate(0,0,0) translate(-120,-350) translate(165,350) rotate(0,0,0)"><text fill="" stroke="none" font-family="helvetica" font-size="14pt" font-style="normal" font-weight="normal" text-decoration="normal" x="0" y="0" text-anchor="middle" dominant-baseline="hanging">20</text><g transform="rotate(0,0,0) translate(-165,-350) translate(210,350) rotate(0,0,0)"><text fill="" stroke="none" font-family="helvetica" font-size="14pt" font-style="normal" font-weight="normal" text-decoration="normal" x="0" y="0" text-anchor="middle" dominant-baseline="hanging">30</text><g transform="rotate(0,0,0) translate(-210,-350) translate(255,350) rotate(0,0,0)"><text fill="" stroke="none" font-family="helvetica" font-size="14pt" font-style="normal" font-weight="normal" text-decoration="normal" x="0" y="0" text-anchor="middle" dominant-baseline="hanging">40</text><g transform="rotate(0,0,0) translate(-255,-350) translate(300,350) rotate(0,0,0)"><text fill="" stroke="none" font-family="helvetica" font-size="14pt" font-style="normal" font-weight="normal" text-decoration="normal" x="0" y="0" text-anchor="middle" dominant-baseline="hanging">50</text><g transform="rotate(0,0,0) translate(-300,-350) translate(345,350) rotate(0,0,0)"><text fill="" stroke="none" font-family="helvetica" font-size="14pt" font-style="normal" font-weight="normal" text-decoration="normal" x="0" y="0" text-anchor="middle" dominant-baseline="hanging">60</text><g transform="rotate(0,0,0) translate(-345,-350) translate(216,377) rotate(0,0,0)"><text fill="" stroke="none" font-family="helvetica" font-size="14pt" font-style="italic" font-weight="normal" text-decoration="normal" x="0" y="0" text-anchor="middle" dominant-baseline="hanging">Distance Å</text><g transform="rotate(0,0,0) translate(-216,-377)"/></g></g></g></g></g></g></g></g></g></g><g><g fill="#444444"><path fill="none" stroke="black" paint-order="fill stroke markers" d=" M 61 339 L 61 33" stroke-linejoin="bevel" stroke-miterlimit="10"/><path fill="none" stroke="black" paint-order="fill stroke markers" d=" M 55 325 L 63 325" stroke-linejoin="bevel" stroke-miterlimit="10"/><path fill="none" stroke="black" paint-order="fill stroke markers" d=" M 55 238 L 63 238" stroke-linejoin="bevel" stroke-miterlimit="10"/><path fill="none" stroke="black" paint-order="fill stroke markers" d=" M 55 151 L 63 151" stroke-linejoin="bevel" stroke-miterlimit="10"/><path fill="none" stroke="black" paint-order="fill stroke markers" d=" M 55 64 L 63 64" stroke-linejoin="bevel" stroke-miterlimit="10"/><path fill="none" stroke="black" paint-order="fill stroke markers" d=" M 57 325 L 61 325" stroke-linejoin="bevel" stroke-miterlimit="10"/><path fill="none" stroke="black" paint-order="fill stroke markers" d=" M 57 308 L 61 308" stroke-linejoin="bevel" stroke-miterlimit="10"/><path fill="none" stroke="black" paint-order="fill stroke markers" d=" M 57 290 L 61 290" stroke-linejoin="bevel" stroke-miterlimit="10"/><path fill="none" stroke="black" paint-order="fill stroke markers" d=" M 57 273 L 61 273" stroke-linejoin="bevel" stroke-miterlimit="10"/><path fill="none" stroke="black" paint-order="fill stroke markers" d=" M 57 256 L 61 256" stroke-linejoin="bevel" stroke-miterlimit="10"/><path fill="none" stroke="black" paint-order="fill stroke markers" d=" M 57 238 L 61 238" stroke-linejoin="bevel" stroke-miterlimit="10"/><path fill="none" stroke="black" paint-order="fill stroke markers" d=" M 57 221 L 61 221" stroke-linejoin="bevel" stroke-miterlimit="10"/><path fill="none" stroke="black" paint-order="fill stroke markers" d=" M 57 203 L 61 203" stroke-linejoin="bevel" stroke-miterlimit="10"/><path fill="none" stroke="black" paint-order="fill stroke markers" d=" M 57 186 L 61 186" stroke-linejoin="bevel" stroke-miterlimit="10"/><path fill="none" stroke="black" paint-order="fill stroke markers" d=" M 57 169 L 61 169" stroke-linejoin="bevel" stroke-miterlimit="10"/><path fill="none" stroke="black" paint-order="fill stroke markers" d=" M 57 151 L 61 151" stroke-linejoin="bevel" stroke-miterlimit="10"/><path fill="none" stroke="black" paint-order="fill stroke markers" d=" M 57 134 L 61 134" stroke-linejoin="bevel" stroke-miterlimit="10"/><path fill="none" stroke="black" paint-order="fill stroke markers" d=" M 57 116 L 61 116" stroke-linejoin="bevel" stroke-miterlimit="10"/><path fill="none" stroke="black" paint-order="fill stroke markers" d=" M 57 99 L 61 99" stroke-linejoin="bevel" stroke-miterlimit="10"/><path fill="none" stroke="black" paint-order="fill stroke markers" d=" M 57 82 L 61 82" stroke-linejoin="bevel" stroke-miterlimit="10"/><path fill="none" stroke="black" paint-order="fill stroke markers" d=" M 57 64 L 61 64" stroke-linejoin="bevel" stroke-miterlimit="10"/><path fill="" stroke="black" paint-order="fill stroke markers" d=" M 57 47 L 61 47" stroke-linejoin="bevel" stroke-miterlimit="10"/><g transform="translate(50,325) rotate(0,0,0)"><text fill="" stroke="none" font-family="helvetica" font-size="14pt" font-style="normal" font-weight="normal" text-decoration="normal" x="0" y="0" text-anchor="end" dominant-baseline="central">0</text><g transform="rotate(0,0,0) translate(-50,-325) translate(50,238) rotate(0,0,0)"><text fill="" stroke="none" font-family="helvetica" font-size="14pt" font-style="normal" font-weight="normal" text-decoration="normal" x="0" y="0" text-anchor="end" dominant-baseline="central">5</text><g transform="rotate(0,0,0) translate(-50,-238) translate(50,151) rotate(0,0,0)"><text fill="" stroke="none" font-family="helvetica" font-size="14pt" font-style="normal" font-weight="normal" text-decoration="normal" x="0" y="0" text-anchor="end" dominant-baseline="central">10</text><g transform="rotate(0,0,0) translate(-50,-151) translate(50,64) rotate(0,0,0)"><text fill="" stroke="none" font-family="helvetica" font-size="14pt" font-style="normal" font-weight="normal" text-decoration="normal" x="0" y="0" text-anchor="end" dominant-baseline="central">15</text><g transform="rotate(0,0,0) translate(-50,-64) translate(22,186) rotate(-90,0,0)"><text fill="" stroke="none" font-family="helvetica" font-size="14pt" font-style="italic" font-weight="normal" text-decoration="normal" x="0" y="0" text-anchor="middle" dominant-baseline="alphabetic">Number of cross-links</text><g transform="rotate(90,0,0) translate(-22,-186)"/></g></g></g></g></g></g></g><g clip-path="url(#XIBvGxmBCQnS)"><g/></g></g></g></svg>