<svg version="1.1" xmlns="http://www.w3.org/2000/svg" xmlns:xlink="http://www.w3.org/1999/xlink" width="350" height="350" style="width: 350px; height: 350px;"><defs><clipPath id="nIJwJgMhNCmi"><path fill="none" stroke="none" d=" M 50 33 L 320 33 L 320 289 L 50 289 L 50 33 Z"/></clipPath><clipPath id="JrwEeqmXAKxI"><path fill="none" stroke="none" d=" M 50 33 L 320 33 L 320 289 L 50 289 L 50 33 Z"/></clipPath><clipPath id="neuosTNqKvAm"><path fill="none" stroke="none" d=" M 50 33 L 320 33 L 320 289 L 50 289 L 50 33 Z"/></clipPath><clipPath id="rTbPLqtROTPw"><path fill="none" stroke="none" d=" M 50 33 L 320 33 L 320 289 L 50 289 L 50 33 Z"/></clipPath><clipPath id="DrHVhmgaTDTM"><path fill="none" stroke="none" d=" M 50 33 L 320 33 L 320 289 L 50 289 L 50 33 Z"/></clipPath><clipPath id="elWvwaxtsiRL"><path fill="none" stroke="none" d=" M 50 33 L 320 33 L 320 289 L 50 289 L 50 33 Z"/></clipPath><clipPath id="RCXnNUXQBNWd"><path fill="none" stroke="none" d=" M 50 33 L 320 33 L 320 289 L 50 289 L 50 33 Z"/></clipPath><clipPath id="BpnIaBBSWKDv"><path fill="none" stroke="none" d=" M 50 33 L 320 33 L 320 289 L 50 289 L 50 33 Z"/></clipPath><clipPath id="mPQtHoiqFgOl"><path fill="none" stroke="none" d=" M 50 33 L 320 33 L 320 289 L 50 289 L 50 33 Z"/></clipPath><clipPath id="iIErpwbrUKbQ"><path fill="none" stroke="none" d=" M 50 33 L 320 33 L 320 289 L 50 289 L 50 33 Z"/></clipPath></defs><g><g transform="scale(1,1) translate(0.5,0.5)"><rect fill="#FFFFFF" stroke="none" x="0" y="0" width="350" height="350"/><rect fill="#ffffff" stroke="none" x="0" y="0" width="350" height="350"/><rect fill="#FFFFFF" stroke="none" x="50" y="33" width="270" height="256"/><rect fill="#ffffff" stroke="none" x="50" y="33" width="270" height="256"/><g><rect fill="none" stroke="#e5e5e5" x="50" y="33" width="270" height="256" stroke-linejoin="bevel" stroke-miterlimit="10"/></g><g clip-path="url(#nIJwJgMhNCmi)"><g><g><path fill="none" stroke="#e5e5e5" paint-order="fill stroke markers" d=" M 108 289 L 108 33" stroke-linejoin="bevel" stroke-miterlimit="10"/><path fill="none" stroke="#e5e5e5" paint-order="fill stroke markers" d=" M 171 289 L 171 33" stroke-linejoin="bevel" stroke-miterlimit="10"/><path fill="none" stroke="#e5e5e5" paint-order="fill stroke markers" d=" M 233 289 L 233 33" stroke-linejoin="bevel" stroke-miterlimit="10"/><path fill="none" stroke="#e5e5e5" paint-order="fill stroke markers" d=" M 296 289 L 296 33" stroke-linejoin="bevel" stroke-miterlimit="10"/></g></g></g><g clip-path="url(#JrwEeqmXAKxI)"><g><g><path fill="none" stroke="#e5e5e5" paint-order="fill stroke markers" d=" M 50 277 L 320 277" stroke-linejoin="bevel" stroke-miterlimit="10"/><path fill="none" stroke="#e5e5e5" paint-order="fill stroke markers" d=" M 50 231 L 320 231" stroke-linejoin="bevel" stroke-miterlimit="10"/><path fill="none" stroke="#e5e5e5" paint-order="fill stroke markers" d=" M 50 184 L 320 184" stroke-linejoin="bevel" stroke-miterlimit="10"/><path fill="none" stroke="#e5e5e5" paint-order="fill stroke markers" d=" M 50 138 L 320 138" stroke-linejoin="bevel" stroke-miterlimit="10"/><path fill="none" stroke="#e5e5e5" paint-order="fill stroke markers" d=" M 50 91 L 320 91" stroke-linejoin="bevel" stroke-miterlimit="10"/><path fill="none" stroke="#e5e5e5" paint-order="fill stroke markers" d=" M 50 45 L 320 45" stroke-linejoin="bevel" stroke-miterlimit="10"/></g></g></g><g clip-path="url(#neuosTNqKvAm)"><g><g><path fill="none" stroke="none"/><path fill="navy" stroke="none" paint-order="stroke fill markers" d=" M 62.27272727272725 230.8181818181818 L 67.18181818181816 230.8181818181818 L 67.18181818181816 277.3636363636364 L 62.27272727272725 277.3636363636364 L 62.27272727272725 230.8181818181818 Z" fill-opacity="0.3"/><path fill="none" stroke="white" paint-order="fill stroke markers" d=" M 62.27272727272725 230.8181818181818 L 67.18181818181816 230.8181818181818 L 67.18181818181816 277.3636363636364 L 62.27272727272725 277.3636363636364 L 62.27272727272725 230.8181818181818 Z" stroke-linejoin="bevel" stroke-miterlimit="10" stroke-opacity="0.3"/><path fill="navy" stroke="none" paint-order="stroke fill markers" d=" M 67.18181818181816 277.3636363636364 L 72.09090909090908 277.3636363636364 L 72.09090909090908 277.3636363636364 L 67.18181818181816 277.3636363636364 L 67.18181818181816 277.3636363636364 Z" fill-opacity="0.3"/><path fill="none" stroke="white" paint-order="fill stroke markers" d=" M 67.18181818181816 277.3636363636364 L 72.09090909090908 277.3636363636364 L 72.09090909090908 277.3636363636364 L 67.18181818181816 277.3636363636364 L 67.18181818181816 277.3636363636364 Z" stroke-linejoin="bevel" stroke-miterlimit="10" stroke-opacity="0.3"/><path fill="navy" stroke="none" paint-order="stroke fill markers" d=" M 72.09090909090908 230.8181818181818 L 76.99999999999999 230.8181818181818 L 76.99999999999999 277.3636363636364 L 72.09090909090908 277.3636363636364 L 72.09090909090908 230.8181818181818 Z" fill-opacity="0.3"/><path fill="none" stroke="white" paint-order="fill stroke markers" d=" M 72.09090909090908 230.8181818181818 L 76.99999999999999 230.8181818181818 L 76.99999999999999 277.3636363636364 L 72.09090909090908 277.3636363636364 L 72.09090909090908 230.8181818181818 Z" stroke-linejoin="bevel" stroke-miterlimit="10" stroke-opacity="0.3"/><path fill="navy" stroke="none" paint-order="stroke fill markers" d=" M 76.99999999999999 184.27272727272728 L 81.90909090909089 184.27272727272728 L 81.90909090909089 277.3636363636364 L 76.99999999999999 277.3636363636364 L 76.99999999999999 184.27272727272728 Z" fill-opacity="0.3"/><path fill="none" stroke="white" paint-order="fill stroke markers" d=" M 76.99999999999999 184.27272727272728 L 81.90909090909089 184.27272727272728 L 81.90909090909089 277.3636363636364 L 76.99999999999999 277.3636363636364 L 76.99999999999999 184.27272727272728 Z" stroke-linejoin="bevel" stroke-miterlimit="10" stroke-opacity="0.3"/><path fill="navy" stroke="none" paint-order="stroke fill markers" d=" M 81.90909090909089 184.27272727272728 L 86.8181818181818 184.27272727272728 L 86.8181818181818 277.3636363636364 L 81.90909090909089 277.3636363636364 L 81.90909090909089 184.27272727272728 Z" fill-opacity="0.3"/><path fill="none" stroke="white" paint-order="fill stroke markers" d=" M 81.90909090909089 184.27272727272728 L 86.8181818181818 184.27272727272728 L 86.8181818181818 277.3636363636364 L 81.90909090909089 277.3636363636364 L 81.90909090909089 184.27272727272728 Z" stroke-linejoin="bevel" stroke-miterlimit="10" stroke-opacity="0.3"/><path fill="navy" stroke="none" paint-order="stroke fill markers" d=" M 86.8181818181818 137.72727272727275 L 91.7272727272727 137.72727272727275 L 91.7272727272727 277.3636363636364 L 86.8181818181818 277.3636363636364 L 86.8181818181818 137.72727272727275 Z" fill-opacity="0.3"/><path fill="none" stroke="white" paint-order="fill stroke markers" d=" M 86.8181818181818 137.72727272727275 L 91.7272727272727 137.72727272727275 L 91.7272727272727 277.3636363636364 L 86.8181818181818 277.3636363636364 L 86.8181818181818 137.72727272727275 Z" stroke-linejoin="bevel" stroke-miterlimit="10" stroke-opacity="0.3"/><path fill="navy" stroke="none" paint-order="stroke fill markers" d=" M 91.7272727272727 44.636363636363626 L 96.63636363636363 44.636363636363626 L 96.63636363636363 277.3636363636364 L 91.7272727272727 277.3636363636364 L 91.7272727272727 44.636363636363626 Z" fill-opacity="0.3"/><path fill="none" stroke="white" paint-order="fill stroke markers" d=" M 91.7272727272727 44.636363636363626 L 96.63636363636363 44.636363636363626 L 96.63636363636363 277.3636363636364 L 91.7272727272727 277.3636363636364 L 91.7272727272727 44.636363636363626 Z" stroke-linejoin="bevel" stroke-miterlimit="10" stroke-opacity="0.3"/><path fill="navy" stroke="none" paint-order="stroke fill markers" d=" M 96.63636363636363 137.72727272727275 L 101.54545454545453 137.72727272727275 L 101.54545454545453 277.3636363636364 L 96.63636363636363 277.3636363636364 L 96.63636363636363 137.72727272727275 Z" fill-opacity="0.3"/><path fill="none" stroke="white" paint-order="fill stroke markers" d=" M 96.63636363636363 137.72727272727275 L 101.54545454545453 137.72727272727275 L 101.54545454545453 277.3636363636364 L 96.63636363636363 277.3636363636364 L 96.63636363636363 137.72727272727275 Z" stroke-linejoin="bevel" stroke-miterlimit="10" stroke-opacity="0.3"/><path fill="navy" stroke="none" paint-order="stroke fill markers" d=" M 101.54545454545453 44.636363636363626 L 106.45454545454544 44.636363636363626 L 106.45454545454544 277.3636363636364 L 101.54545454545453 277.3636363636364 L 101.54545454545453 44.636363636363626 Z" fill-opacity="0.3"/><path fill="none" stroke="white" paint-order="fill stroke markers" d=" M 101.54545454545453 44.636363636363626 L 106.45454545454544 44.636363636363626 L 106.45454545454544 277.3636363636364 L 101.54545454545453 277.3636363636364 L 101.54545454545453 44.636363636363626 Z" stroke-linejoin="bevel" stroke-miterlimit="10" stroke-opacity="0.3"/><path fill="navy" stroke="none" paint-order="stroke fill markers" d=" M 106.45454545454544 184.27272727272728 L 111.36363636363635 184.27272727272728 L 111.36363636363635 277.3636363636364 L 106.45454545454544 277.3636363636364 L 106.45454545454544 184.27272727272728 Z" fill-opacity="0.3"/><path fill="none" stroke="white" paint-order="fill stroke markers" d=" M 106.45454545454544 184.27272727272728 L 111.36363636363635 184.27272727272728 L 111.36363636363635 277.3636363636364 L 106.45454545454544 277.3636363636364 L 106.45454545454544 184.27272727272728 Z" stroke-linejoin="bevel" stroke-miterlimit="10" stroke-opacity="0.3"/><path fill="navy" stroke="none" paint-order="stroke fill markers" d=" M 111.36363636363635 91.18181818181819 L 116.27272727272725 91.18181818181819 L 116.27272727272725 277.3636363636364 L 111.36363636363635 277.3636363636364 L 111.36363636363635 91.18181818181819 Z" fill-opacity="0.3"/><path fill="none" stroke="white" paint-order="fill stroke markers" d=" M 111.36363636363635 91.18181818181819 L 116.27272727272725 91.18181818181819 L 116.27272727272725 277.3636363636364 L 111.36363636363635 277.3636363636364 L 111.36363636363635 91.18181818181819 Z" stroke-linejoin="bevel" stroke-miterlimit="10" stroke-opacity="0.3"/><path fill="navy" stroke="none" paint-order="stroke fill markers" d=" M 116.27272727272725 184.27272727272728 L 121.18181818181816 184.27272727272728 L 121.18181818181816 277.3636363636364 L 116.27272727272725 277.3636363636364 L 116.27272727272725 184.27272727272728 Z" fill-opacity="0.3"/><path fill="none" stroke="white" paint-order="fill stroke markers" d=" M 116.27272727272725 184.27272727272728 L 121.18181818181816 184.27272727272728 L 121.18181818181816 277.3636363636364 L 116.27272727272725 277.3636363636364 L 116.27272727272725 184.27272727272728 Z" stroke-linejoin="bevel" stroke-miterlimit="10" stroke-opacity="0.3"/><path fill="navy" stroke="none" paint-order="stroke fill markers" d=" M 121.18181818181816 230.8181818181818 L 126.09090909090907 230.8181818181818 L 126.09090909090907 277.3636363636364 L 121.18181818181816 277.3636363636364 L 121.18181818181816 230.8181818181818 Z" fill-opacity="0.3"/><path fill="none" stroke="white" paint-order="fill stroke markers" d=" M 121.18181818181816 230.8181818181818 L 126.09090909090907 230.8181818181818 L 126.09090909090907 277.3636363636364 L 121.18181818181816 277.3636363636364 L 121.18181818181816 230.8181818181818 Z" stroke-linejoin="bevel" stroke-miterlimit="10" stroke-opacity="0.3"/><path fill="navy" stroke="none" paint-order="stroke fill markers" d=" M 126.09090909090907 184.27272727272728 L 131 184.27272727272728 L 131 277.3636363636364 L 126.09090909090907 277.3636363636364 L 126.09090909090907 184.27272727272728 Z" fill-opacity="0.3"/><path fill="none" stroke="white" paint-order="fill stroke markers" d=" M 126.09090909090907 184.27272727272728 L 131 184.27272727272728 L 131 277.3636363636364 L 126.09090909090907 277.3636363636364 L 126.09090909090907 184.27272727272728 Z" stroke-linejoin="bevel" stroke-miterlimit="10" stroke-opacity="0.3"/><path fill="navy" stroke="none" paint-order="stroke fill markers" d=" M 131 230.8181818181818 L 135.90909090909088 230.8181818181818 L 135.90909090909088 277.3636363636364 L 131 277.3636363636364 L 131 230.8181818181818 Z" fill-opacity="0.3"/><path fill="none" stroke="white" paint-order="fill stroke markers" d=" M 131 230.8181818181818 L 135.90909090909088 230.8181818181818 L 135.90909090909088 277.3636363636364 L 131 277.3636363636364 L 131 230.8181818181818 Z" stroke-linejoin="bevel" stroke-miterlimit="10" stroke-opacity="0.3"/><path fill="navy" stroke="none" paint-order="stroke fill markers" d=" M 135.90909090909088 277.3636363636364 L 140.8181818181818 277.3636363636364 L 140.8181818181818 277.3636363636364 L 135.90909090909088 277.3636363636364 L 135.90909090909088 277.3636363636364 Z" fill-opacity="0.3"/><path fill="none" stroke="white" paint-order="fill stroke markers" d=" M 135.90909090909088 277.3636363636364 L 140.8181818181818 277.3636363636364 L 140.8181818181818 277.3636363636364 L 135.90909090909088 277.3636363636364 L 135.90909090909088 277.3636363636364 Z" stroke-linejoin="bevel" stroke-miterlimit="10" stroke-opacity="0.3"/><path fill="navy" stroke="none" paint-order="stroke fill markers" d=" M 140.8181818181818 277.3636363636364 L 145.72727272727272 277.3636363636364 L 145.72727272727272 277.3636363636364 L 140.8181818181818 277.3636363636364 L 140.8181818181818 277.3636363636364 Z" fill-opacity="0.3"/><path fill="none" stroke="white" paint-order="fill stroke markers" d=" M 140.8181818181818 277.3636363636364 L 145.72727272727272 277.3636363636364 L 145.72727272727272 277.3636363636364 L 140.8181818181818 277.3636363636364 L 140.8181818181818 277.3636363636364 Z" stroke-linejoin="bevel" stroke-miterlimit="10" stroke-opacity="0.3"/><path fill="navy" stroke="none" paint-order="stroke fill markers" d=" M 145.72727272727272 230.8181818181818 L 150.63636363636363 230.8181818181818 L 150.63636363636363 277.3636363636364 L 145.72727272727272 277.3636363636364 L 145.72727272727272 230.8181818181818 Z" fill-opacity="0.3"/><path fill="none" stroke="white" paint-order="fill stroke markers" d=" M 145.72727272727272 230.8181818181818 L 150.63636363636363 230.8181818181818 L 150.63636363636363 277.3636363636364 L 145.72727272727272 277.3636363636364 L 145.72727272727272 230.8181818181818 Z" stroke-linejoin="bevel" stroke-miterlimit="10" stroke-opacity="0.3"/><path fill="navy" stroke="none" paint-order="stroke fill markers" d=" M 150.63636363636363 277.3636363636364 L 155.54545454545453 277.3636363636364 L 155.54545454545453 277.3636363636364 L 150.63636363636363 277.3636363636364 L 150.63636363636363 277.3636363636364 Z" fill-opacity="0.3"/><path fill="none" stroke="white" paint-order="fill stroke markers" d=" M 150.63636363636363 277.3636363636364 L 155.54545454545453 277.3636363636364 L 155.54545454545453 277.3636363636364 L 150.63636363636363 277.3636363636364 L 150.63636363636363 277.3636363636364 Z" stroke-linejoin="bevel" stroke-miterlimit="10" stroke-opacity="0.3"/><path fill="navy" stroke="none" paint-order="stroke fill markers" d=" M 155.54545454545453 230.8181818181818 L 160.45454545454544 230.8181818181818 L 160.45454545454544 277.3636363636364 L 155.54545454545453 277.3636363636364 L 155.54545454545453 230.8181818181818 Z" fill-opacity="0.3"/><path fill="none" stroke="white" paint-order="fill stroke markers" d=" M 155.54545454545453 230.8181818181818 L 160.45454545454544 230.8181818181818 L 160.45454545454544 277.3636363636364 L 155.54545454545453 277.3636363636364 L 155.54545454545453 230.8181818181818 Z" stroke-linejoin="bevel" stroke-miterlimit="10" stroke-opacity="0.3"/><path fill="navy" stroke="none" paint-order="stroke fill markers" d=" M 160.45454545454544 277.3636363636364 L 165.36363636363635 277.3636363636364 L 165.36363636363635 277.3636363636364 L 160.45454545454544 277.3636363636364 L 160.45454545454544 277.3636363636364 Z" fill-opacity="0.3"/><path fill="none" stroke="white" paint-order="fill stroke markers" d=" M 160.45454545454544 277.3636363636364 L 165.36363636363635 277.3636363636364 L 165.36363636363635 277.3636363636364 L 160.45454545454544 277.3636363636364 L 160.45454545454544 277.3636363636364 Z" stroke-linejoin="bevel" stroke-miterlimit="10" stroke-opacity="0.3"/><path fill="navy" stroke="none" paint-order="stroke fill markers" d=" M 165.36363636363635 230.8181818181818 L 170.27272727272725 230.8181818181818 L 170.27272727272725 277.3636363636364 L 165.36363636363635 277.3636363636364 L 165.36363636363635 230.8181818181818 Z" fill-opacity="0.3"/><path fill="none" stroke="white" paint-order="fill stroke markers" d=" M 165.36363636363635 230.8181818181818 L 170.27272727272725 230.8181818181818 L 170.27272727272725 277.3636363636364 L 165.36363636363635 277.3636363636364 L 165.36363636363635 230.8181818181818 Z" stroke-linejoin="bevel" stroke-miterlimit="10" stroke-opacity="0.3"/><path fill="navy" stroke="none" paint-order="stroke fill markers" d=" M 170.27272727272725 277.3636363636364 L 175.1818181818182 277.3636363636364 L 175.1818181818182 277.3636363636364 L 170.27272727272725 277.3636363636364 L 170.27272727272725 277.3636363636364 Z" fill-opacity="0.3"/><path fill="none" stroke="white" paint-order="fill stroke markers" d=" M 170.27272727272725 277.3636363636364 L 175.1818181818182 277.3636363636364 L 175.1818181818182 277.3636363636364 L 170.27272727272725 277.3636363636364 L 170.27272727272725 277.3636363636364 Z" stroke-linejoin="bevel" stroke-miterlimit="10" stroke-opacity="0.3"/><path fill="navy" stroke="none" paint-order="stroke fill markers" d=" M 175.1818181818182 277.3636363636364 L 180.09090909090907 277.3636363636364 L 180.09090909090907 277.3636363636364 L 175.1818181818182 277.3636363636364 L 175.1818181818182 277.3636363636364 Z" fill-opacity="0.3"/><path fill="none" stroke="white" paint-order="fill stroke markers" d=" M 175.1818181818182 277.3636363636364 L 180.09090909090907 277.3636363636364 L 180.09090909090907 277.3636363636364 L 175.1818181818182 277.3636363636364 L 175.1818181818182 277.3636363636364 Z" stroke-linejoin="bevel" stroke-miterlimit="10" stroke-opacity="0.3"/><path fill="navy" stroke="none" paint-order="stroke fill markers" d=" M 180.09090909090907 277.3636363636364 L 185 277.3636363636364 L 185 277.3636363636364 L 180.09090909090907 277.3636363636364 L 180.09090909090907 277.3636363636364 Z" fill-opacity="0.3"/><path fill="none" stroke="white" paint-order="fill stroke markers" d=" M 180.09090909090907 277.3636363636364 L 185 277.3636363636364 L 185 277.3636363636364 L 180.09090909090907 277.3636363636364 L 180.09090909090907 277.3636363636364 Z" stroke-linejoin="bevel" stroke-miterlimit="10" stroke-opacity="0.3"/><path fill="navy" stroke="none" paint-order="stroke fill markers" d=" M 185 277.3636363636364 L 189.90909090909088 277.3636363636364 L 189.90909090909088 277.3636363636364 L 185 277.3636363636364 L 185 277.3636363636364 Z" fill-opacity="0.3"/><path fill="none" stroke="white" paint-order="fill stroke markers" d=" M 185 277.3636363636364 L 189.90909090909088 277.3636363636364 L 189.90909090909088 277.3636363636364 L 185 277.3636363636364 L 185 277.3636363636364 Z" stroke-linejoin="bevel" stroke-miterlimit="10" stroke-opacity="0.3"/><path fill="navy" stroke="none" paint-order="stroke fill markers" d=" M 189.90909090909088 230.8181818181818 L 194.8181818181818 230.8181818181818 L 194.8181818181818 277.3636363636364 L 189.90909090909088 277.3636363636364 L 189.90909090909088 230.8181818181818 Z" fill-opacity="0.3"/><path fill="none" stroke="white" paint-order="fill stroke markers" d=" M 189.90909090909088 230.8181818181818 L 194.8181818181818 230.8181818181818 L 194.8181818181818 277.3636363636364 L 189.90909090909088 277.3636363636364 L 189.90909090909088 230.8181818181818 Z" stroke-linejoin="bevel" stroke-miterlimit="10" stroke-opacity="0.3"/><path fill="navy" stroke="none" paint-order="stroke fill markers" d=" M 194.8181818181818 277.3636363636364 L 199.72727272727275 277.3636363636364 L 199.72727272727275 277.3636363636364 L 194.8181818181818 277.3636363636364 L 194.8181818181818 277.3636363636364 Z" fill-opacity="0.3"/><path fill="none" stroke="white" paint-order="fill stroke markers" d=" M 194.8181818181818 277.3636363636364 L 199.72727272727275 277.3636363636364 L 199.72727272727275 277.3636363636364 L 194.8181818181818 277.3636363636364 L 194.8181818181818 277.3636363636364 Z" stroke-linejoin="bevel" stroke-miterlimit="10" stroke-opacity="0.3"/><path fill="navy" stroke="none" paint-order="stroke fill markers" d=" M 199.72727272727275 91.18181818181819 L 204.63636363636363 91.18181818181819 L 204.63636363636363 277.3636363636364 L 199.72727272727275 277.3636363636364 L 199.72727272727275 91.18181818181819 Z" fill-opacity="0.3"/><path fill="none" stroke="white" paint-order="fill stroke markers" d=" M 199.72727272727275 91.18181818181819 L 204.63636363636363 91.18181818181819 L 204.63636363636363 277.3636363636364 L 199.72727272727275 277.3636363636364 L 199.72727272727275 91.18181818181819 Z" stroke-linejoin="bevel" stroke-miterlimit="10" stroke-opacity="0.3"/><path fill="navy" stroke="none" paint-order="stroke fill markers" d=" M 204.63636363636363 277.3636363636364 L 209.54545454545456 277.3636363636364 L 209.54545454545456 277.3636363636364 L 204.63636363636363 277.3636363636364 L 204.63636363636363 277.3636363636364 Z" fill-opacity="0.3"/><path fill="none" stroke="white" paint-order="fill stroke markers" d=" M 204.63636363636363 277.3636363636364 L 209.54545454545456 277.3636363636364 L 209.54545454545456 277.3636363636364 L 204.63636363636363 277.3636363636364 L 204.63636363636363 277.3636363636364 Z" stroke-linejoin="bevel" stroke-miterlimit="10" stroke-opacity="0.3"/><path fill="navy" stroke="none" paint-order="stroke fill markers" d=" M 209.54545454545456 277.3636363636364 L 214.45454545454544 277.3636363636364 L 214.45454545454544 277.3636363636364 L 209.54545454545456 277.3636363636364 L 209.54545454545456 277.3636363636364 Z" fill-opacity="0.3"/><path fill="none" stroke="white" paint-order="fill stroke markers" d=" M 209.54545454545456 277.3636363636364 L 214.45454545454544 277.3636363636364 L 214.45454545454544 277.3636363636364 L 209.54545454545456 277.3636363636364 L 209.54545454545456 277.3636363636364 Z" stroke-linejoin="bevel" stroke-miterlimit="10" stroke-opacity="0.3"/><path fill="navy" stroke="none" paint-order="stroke fill markers" d=" M 214.45454545454544 230.8181818181818 L 219.36363636363637 230.8181818181818 L 219.36363636363637 277.3636363636364 L 214.45454545454544 277.3636363636364 L 214.45454545454544 230.8181818181818 Z" fill-opacity="0.3"/><path fill="none" stroke="white" paint-order="fill stroke markers" d=" M 214.45454545454544 230.8181818181818 L 219.36363636363637 230.8181818181818 L 219.36363636363637 277.3636363636364 L 214.45454545454544 277.3636363636364 L 214.45454545454544 230.8181818181818 Z" stroke-linejoin="bevel" stroke-miterlimit="10" stroke-opacity="0.3"/><path fill="navy" stroke="none" paint-order="stroke fill markers" d=" M 219.36363636363637 277.3636363636364 L 224.27272727272725 277.3636363636364 L 224.27272727272725 277.3636363636364 L 219.36363636363637 277.3636363636364 L 219.36363636363637 277.3636363636364 Z" fill-opacity="0.3"/><path fill="none" stroke="white" paint-order="fill stroke markers" d=" M 219.36363636363637 277.3636363636364 L 224.27272727272725 277.3636363636364 L 224.27272727272725 277.3636363636364 L 219.36363636363637 277.3636363636364 L 219.36363636363637 277.3636363636364 Z" stroke-linejoin="bevel" stroke-miterlimit="10" stroke-opacity="0.3"/><path fill="navy" stroke="none" paint-order="stroke fill markers" d=" M 224.27272727272725 277.3636363636364 L 229.1818181818182 277.3636363636364 L 229.1818181818182 277.3636363636364 L 224.27272727272725 277.3636363636364 L 224.27272727272725 277.3636363636364 Z" fill-opacity="0.3"/><path fill="none" stroke="white" paint-order="fill stroke markers" d=" M 224.27272727272725 277.3636363636364 L 229.1818181818182 277.3636363636364 L 229.1818181818182 277.3636363636364 L 224.27272727272725 277.3636363636364 L 224.27272727272725 277.3636363636364 Z" stroke-linejoin="bevel" stroke-miterlimit="10" stroke-opacity="0.3"/><path fill="navy" stroke="none" paint-order="stroke fill markers" d=" M 229.1818181818182 277.3636363636364 L 234.09090909090907 277.3636363636364 L 234.09090909090907 277.3636363636364 L 229.1818181818182 277.3636363636364 L 229.1818181818182 277.3636363636364 Z" fill-opacity="0.3"/><path fill="none" stroke="white" paint-order="fill stroke markers" d=" M 229.1818181818182 277.3636363636364 L 234.09090909090907 277.3636363636364 L 234.09090909090907 277.3636363636364 L 229.1818181818182 277.3636363636364 L 229.1818181818182 277.3636363636364 Z" stroke-linejoin="bevel" stroke-miterlimit="10" stroke-opacity="0.3"/><path fill="navy" stroke="none" paint-order="stroke fill markers" d=" M 234.09090909090907 277.3636363636364 L 239 277.3636363636364 L 239 277.3636363636364 L 234.09090909090907 277.3636363636364 L 234.09090909090907 277.3636363636364 Z" fill-opacity="0.3"/><path fill="none" stroke="white" paint-order="fill stroke markers" d=" M 234.09090909090907 277.3636363636364 L 239 277.3636363636364 L 239 277.3636363636364 L 234.09090909090907 277.3636363636364 L 234.09090909090907 277.3636363636364 Z" stroke-linejoin="bevel" stroke-miterlimit="10" stroke-opacity="0.3"/><path fill="navy" stroke="none" paint-order="stroke fill markers" d=" M 239 184.27272727272728 L 243.90909090909088 184.27272727272728 L 243.90909090909088 277.3636363636364 L 239 277.3636363636364 L 239 184.27272727272728 Z" fill-opacity="0.3"/><path fill="none" stroke="white" paint-order="fill stroke markers" d=" M 239 184.27272727272728 L 243.90909090909088 184.27272727272728 L 243.90909090909088 277.3636363636364 L 239 277.3636363636364 L 239 184.27272727272728 Z" stroke-linejoin="bevel" stroke-miterlimit="10" stroke-opacity="0.3"/><path fill="navy" stroke="none" paint-order="stroke fill markers" d=" M 243.90909090909088 277.3636363636364 L 248.8181818181818 277.3636363636364 L 248.8181818181818 277.3636363636364 L 243.90909090909088 277.3636363636364 L 243.90909090909088 277.3636363636364 Z" fill-opacity="0.3"/><path fill="none" stroke="white" paint-order="fill stroke markers" d=" M 243.90909090909088 277.3636363636364 L 248.8181818181818 277.3636363636364 L 248.8181818181818 277.3636363636364 L 243.90909090909088 277.3636363636364 L 243.90909090909088 277.3636363636364 Z" stroke-linejoin="bevel" stroke-miterlimit="10" stroke-opacity="0.3"/><path fill="navy" stroke="none" paint-order="stroke fill markers" d=" M 248.8181818181818 277.3636363636364 L 253.72727272727275 277.3636363636364 L 253.72727272727275 277.3636363636364 L 248.8181818181818 277.3636363636364 L 248.8181818181818 277.3636363636364 Z" fill-opacity="0.3"/><path fill="none" stroke="white" paint-order="fill stroke markers" d=" M 248.8181818181818 277.3636363636364 L 253.72727272727275 277.3636363636364 L 253.72727272727275 277.3636363636364 L 248.8181818181818 277.3636363636364 L 248.8181818181818 277.3636363636364 Z" stroke-linejoin="bevel" stroke-miterlimit="10" stroke-opacity="0.3"/><path fill="navy" stroke="none" paint-order="stroke fill markers" d=" M 253.72727272727275 277.3636363636364 L 258.6363636363636 277.3636363636364 L 258.6363636363636 277.3636363636364 L 253.72727272727275 277.3636363636364 L 253.72727272727275 277.3636363636364 Z" fill-opacity="0.3"/><path fill="none" stroke="white" paint-order="fill stroke markers" d=" M 253.72727272727275 277.3636363636364 L 258.6363636363636 277.3636363636364 L 258.6363636363636 277.3636363636364 L 253.72727272727275 277.3636363636364 L 253.72727272727275 277.3636363636364 Z" stroke-linejoin="bevel" stroke-miterlimit="10" stroke-opacity="0.3"/><path fill="navy" stroke="none" paint-order="stroke fill markers" d=" M 258.6363636363636 277.3636363636364 L 263.54545454545456 277.3636363636364 L 263.54545454545456 277.3636363636364 L 258.6363636363636 277.3636363636364 L 258.6363636363636 277.3636363636364 Z" fill-opacity="0.3"/><path fill="none" stroke="white" paint-order="fill stroke markers" d=" M 258.6363636363636 277.3636363636364 L 263.54545454545456 277.3636363636364 L 263.54545454545456 277.3636363636364 L 258.6363636363636 277.3636363636364 L 258.6363636363636 277.3636363636364 Z" stroke-linejoin="bevel" stroke-miterlimit="10" stroke-opacity="0.3"/><path fill="navy" stroke="none" paint-order="stroke fill markers" d=" M 263.54545454545456 230.8181818181818 L 268.4545454545455 230.8181818181818 L 268.4545454545455 277.3636363636364 L 263.54545454545456 277.3636363636364 L 263.54545454545456 230.8181818181818 Z" fill-opacity="0.3"/><path fill="none" stroke="white" paint-order="fill stroke markers" d=" M 263.54545454545456 230.8181818181818 L 268.4545454545455 230.8181818181818 L 268.4545454545455 277.3636363636364 L 263.54545454545456 277.3636363636364 L 263.54545454545456 230.8181818181818 Z" stroke-linejoin="bevel" stroke-miterlimit="10" stroke-opacity="0.3"/><path fill="navy" stroke="none" paint-order="stroke fill markers" d=" M 268.4545454545455 277.3636363636364 L 273.3636363636364 277.3636363636364 L 273.3636363636364 277.3636363636364 L 268.4545454545455 277.3636363636364 L 268.4545454545455 277.3636363636364 Z" fill-opacity="0.3"/><path fill="none" stroke="white" paint-order="fill stroke markers" d=" M 268.4545454545455 277.3636363636364 L 273.3636363636364 277.3636363636364 L 273.3636363636364 277.3636363636364 L 268.4545454545455 277.3636363636364 L 268.4545454545455 277.3636363636364 Z" stroke-linejoin="bevel" stroke-miterlimit="10" stroke-opacity="0.3"/><path fill="navy" stroke="none" paint-order="stroke fill markers" d=" M 273.3636363636364 277.3636363636364 L 278.2727272727273 277.3636363636364 L 278.2727272727273 277.3636363636364 L 273.3636363636364 277.3636363636364 L 273.3636363636364 277.3636363636364 Z" fill-opacity="0.3"/><path fill="none" stroke="white" paint-order="fill stroke markers" d=" M 273.3636363636364 277.3636363636364 L 278.2727272727273 277.3636363636364 L 278.2727272727273 277.3636363636364 L 273.3636363636364 277.3636363636364 L 273.3636363636364 277.3636363636364 Z" stroke-linejoin="bevel" stroke-miterlimit="10" stroke-opacity="0.3"/><path fill="navy" stroke="none" paint-order="stroke fill markers" d=" M 278.2727272727273 277.3636363636364 L 283.1818181818182 277.3636363636364 L 283.1818181818182 277.3636363636364 L 278.2727272727273 277.3636363636364 L 278.2727272727273 277.3636363636364 Z" fill-opacity="0.3"/><path fill="none" stroke="white" paint-order="fill stroke markers" d=" M 278.2727272727273 277.3636363636364 L 283.1818181818182 277.3636363636364 L 283.1818181818182 277.3636363636364 L 278.2727272727273 277.3636363636364 L 278.2727272727273 277.3636363636364 Z" stroke-linejoin="bevel" stroke-miterlimit="10" stroke-opacity="0.3"/><path fill="navy" stroke="none" paint-order="stroke fill markers" d=" M 283.1818181818182 277.3636363636364 L 288.0909090909091 277.3636363636364 L 288.0909090909091 277.3636363636364 L 283.1818181818182 277.3636363636364 L 283.1818181818182 277.3636363636364 Z" fill-opacity="0.3"/><path fill="none" stroke="white" paint-order="fill stroke markers" d=" M 283.1818181818182 277.3636363636364 L 288.0909090909091 277.3636363636364 L 288.0909090909091 277.3636363636364 L 283.1818181818182 277.3636363636364 L 283.1818181818182 277.3636363636364 Z" stroke-linejoin="bevel" stroke-miterlimit="10" stroke-opacity="0.3"/><path fill="navy" stroke="none" paint-order="stroke fill markers" d=" M 288.0909090909091 277.3636363636364 L 293 277.3636363636364 L 293 277.3636363636364 L 288.0909090909091 277.3636363636364 L 288.0909090909091 277.3636363636364 Z" fill-opacity="0.3"/><path fill="none" stroke="white" paint-order="fill stroke markers" d=" M 288.0909090909091 277.3636363636364 L 293 277.3636363636364 L 293 277.3636363636364 L 288.0909090909091 277.3636363636364 L 288.0909090909091 277.3636363636364 Z" stroke-linejoin="bevel" stroke-miterlimit="10" stroke-opacity="0.3"/><path fill="navy" stroke="none" paint-order="stroke fill markers" d=" M 293 277.3636363636364 L 297.90909090909093 277.3636363636364 L 297.90909090909093 277.3636363636364 L 293 277.3636363636364 L 293 277.3636363636364 Z" fill-opacity="0.3"/><path fill="none" stroke="white" paint-order="fill stroke markers" d=" M 293 277.3636363636364 L 297.90909090909093 277.3636363636364 L 297.90909090909093 277.3636363636364 L 293 277.3636363636364 L 293 277.3636363636364 Z" stroke-linejoin="bevel" stroke-miterlimit="10" stroke-opacity="0.3"/><path fill="navy" stroke="none" paint-order="stroke fill markers" d=" M 297.90909090909093 277.3636363636364 L 302.81818181818187 277.3636363636364 L 302.81818181818187 277.3636363636364 L 297.90909090909093 277.3636363636364 L 297.90909090909093 277.3636363636364 Z" fill-opacity="0.3"/><path fill="none" stroke="white" paint-order="fill stroke markers" d=" M 297.90909090909093 277.3636363636364 L 302.81818181818187 277.3636363636364 L 302.81818181818187 277.3636363636364 L 297.90909090909093 277.3636363636364 L 297.90909090909093 277.3636363636364 Z" stroke-linejoin="bevel" stroke-miterlimit="10" stroke-opacity="0.3"/><path fill="navy" stroke="none" paint-order="stroke fill markers" d=" M 302.81818181818187 230.8181818181818 L 307.72727272727275 230.8181818181818 L 307.72727272727275 277.3636363636364 L 302.81818181818187 277.3636363636364 L 302.81818181818187 230.8181818181818 Z" fill-opacity="0.3"/><path fill="none" stroke="white" paint-order="fill stroke markers" d=" M 302.81818181818187 230.8181818181818 L 307.72727272727275 230.8181818181818 L 307.72727272727275 277.3636363636364 L 302.81818181818187 277.3636363636364 L 302.81818181818187 230.8181818181818 Z" stroke-linejoin="bevel" stroke-miterlimit="10" stroke-opacity="0.3"/></g></g></g><g clip-path="url(#rTbPLqtROTPw)"><g><g><path fill="none" stroke="red" paint-order="fill stroke markers" d=" M 139.37545540108113 33 L 139.37545540108113 289" stroke-linejoin="bevel" stroke-miterlimit="10" stroke-width="3" stroke-dasharray="6"/></g></g></g><g><g fill="#444444"><path fill="" stroke="none" d=""/><g transform="translate(185,5)"><path fill="none" stroke="none"/><text fill="" stroke="none" font-family="helvetica" font-size="12pt" font-style="normal" font-weight="bold" text-decoration="normal" x="0" y="0" text-anchor="middle" dominant-baseline="text-before-edge">Intermediate regions/Linker DSS</text></g></g></g><g/><g><g fill="#444444"><path fill="none" stroke="black" paint-order="fill stroke markers" d=" M 50 289 L 320 289" stroke-linejoin="bevel" stroke-miterlimit="10"/><path fill="none" stroke="black" paint-order="fill stroke markers" d=" M 108 295 L 108 287" stroke-linejoin="bevel" stroke-miterlimit="10"/><path fill="none" stroke="black" paint-order="fill stroke markers" d=" M 171 295 L 171 287" stroke-linejoin="bevel" stroke-miterlimit="10"/><path fill="none" stroke="black" paint-order="fill stroke markers" d=" M 233 295 L 233 287" stroke-linejoin="bevel" stroke-miterlimit="10"/><path fill="none" stroke="black" paint-order="fill stroke markers" d=" M 296 295 L 296 287" stroke-linejoin="bevel" stroke-miterlimit="10"/><path fill="none" stroke="black" paint-order="fill stroke markers" d=" M 95 293 L 95 289" stroke-linejoin="bevel" stroke-miterlimit="10"/><path fill="none" stroke="black" paint-order="fill stroke markers" d=" M 83 293 L 83 289" stroke-linejoin="bevel" stroke-miterlimit="10"/><path fill="none" stroke="black" paint-order="fill stroke markers" d=" M 70 293 L 70 289" stroke-linejoin="bevel" stroke-miterlimit="10"/><path fill="none" stroke="black" paint-order="fill stroke markers" d=" M 58 293 L 58 289" stroke-linejoin="bevel" stroke-miterlimit="10"/><path fill="none" stroke="black" paint-order="fill stroke markers" d=" M 108 293 L 108 289" stroke-linejoin="bevel" stroke-miterlimit="10"/><path fill="none" stroke="black" paint-order="fill stroke markers" d=" M 121 293 L 121 289" stroke-linejoin="bevel" stroke-miterlimit="10"/><path fill="none" stroke="black" paint-order="fill stroke markers" d=" M 133 293 L 133 289" stroke-linejoin="bevel" stroke-miterlimit="10"/><path fill="none" stroke="black" paint-order="fill stroke markers" d=" M 146 293 L 146 289" stroke-linejoin="bevel" stroke-miterlimit="10"/><path fill="none" stroke="black" paint-order="fill stroke markers" d=" M 158 293 L 158 289" stroke-linejoin="bevel" stroke-miterlimit="10"/><path fill="none" stroke="black" paint-order="fill stroke markers" d=" M 171 293 L 171 289" stroke-linejoin="bevel" stroke-miterlimit="10"/><path fill="none" stroke="black" paint-order="fill stroke markers" d=" M 183 293 L 183 289" stroke-linejoin="bevel" stroke-miterlimit="10"/><path fill="none" stroke="black" paint-order="fill stroke markers" d=" M 196 293 L 196 289" stroke-linejoin="bevel" stroke-miterlimit="10"/><path fill="none" stroke="black" paint-order="fill stroke markers" d=" M 208 293 L 208 289" stroke-linejoin="bevel" stroke-miterlimit="10"/><path fill="none" stroke="black" paint-order="fill stroke markers" d=" M 221 293 L 221 289" stroke-linejoin="bevel" stroke-miterlimit="10"/><path fill="none" stroke="black" paint-order="fill stroke markers" d=" M 233 293 L 233 289" stroke-linejoin="bevel" stroke-miterlimit="10"/><path fill="none" stroke="black" paint-order="fill stroke markers" d=" M 246 293 L 246 289" stroke-linejoin="bevel" stroke-miterlimit="10"/><path fill="none" stroke="black" paint-order="fill stroke markers" d=" M 259 293 L 259 289" stroke-linejoin="bevel" stroke-miterlimit="10"/><path fill="none" stroke="black" paint-order="fill stroke markers" d=" M 271 293 L 271 289" stroke-linejoin="bevel" stroke-miterlimit="10"/><path fill="none" stroke="black" paint-order="fill stroke markers" d=" M 284 293 L 284 289" stroke-linejoin="bevel" stroke-miterlimit="10"/><path fill="none" stroke="black" paint-order="fill stroke markers" d=" M 296 293 L 296 289" stroke-linejoin="bevel" stroke-miterlimit="10"/><path fill="" stroke="black" paint-order="fill stroke markers" d=" M 309 293 L 309 289" stroke-linejoin="bevel" stroke-miterlimit="10"/><g transform="translate(108,300) rotate(0,0,0)"><text fill="" stroke="none" font-family="helvetica" font-size="14pt" font-style="normal" font-weight="normal" text-decoration="normal" x="0" y="0" text-anchor="middle" dominant-baseline="hanging">20</text><g transform="rotate(0,0,0) translate(-108,-300) translate(171,300) rotate(0,0,0)"><text fill="" stroke="none" font-family="helvetica" font-size="14pt" font-style="normal" font-weight="normal" text-decoration="normal" x="0" y="0" text-anchor="middle" dominant-baseline="hanging">40</text><g transform="rotate(0,0,0) translate(-171,-300) translate(233,300) rotate(0,0,0)"><text fill="" stroke="none" font-family="helvetica" font-size="14pt" font-style="normal" font-weight="normal" text-decoration="normal" x="0" y="0" text-anchor="middle" dominant-baseline="hanging">60</text><g transform="rotate(0,0,0) translate(-233,-300) translate(296,300) rotate(0,0,0)"><text fill="" stroke="none" font-family="helvetica" font-size="14pt" font-style="normal" font-weight="normal" text-decoration="normal" x="0" y="0" text-anchor="middle" dominant-baseline="hanging">80</text><g transform="rotate(0,0,0) translate(-296,-300) translate(185,327) rotate(0,0,0)"><text fill="" stroke="none" font-family="helvetica" font-size="14pt" font-style="italic" font-weight="normal" text-decoration="normal" x="0" y="0" text-anchor="middle" dominant-baseline="hanging">Distance Å</text><g transform="rotate(0,0,0) translate(-185,-327)"/></g></g></g></g></g></g></g><g><g fill="#444444"><path fill="none" stroke="black" paint-order="fill stroke markers" d=" M 50 289 L 50 33" stroke-linejoin="bevel" stroke-miterlimit="10"/><path fill="none" stroke="black" paint-order="fill stroke markers" d=" M 44 277 L 52 277" stroke-linejoin="bevel" stroke-miterlimit="10"/><path fill="none" stroke="black" paint-order="fill stroke markers" d=" M 44 231 L 52 231" stroke-linejoin="bevel" stroke-miterlimit="10"/><path fill="none" stroke="black" paint-order="fill stroke markers" d=" M 44 184 L 52 184" stroke-linejoin="bevel" stroke-miterlimit="10"/><path fill="none" stroke="black" paint-order="fill stroke markers" d=" M 44 138 L 52 138" stroke-linejoin="bevel" stroke-miterlimit="10"/><path fill="none" stroke="black" paint-order="fill stroke markers" d=" M 44 91 L 52 91" stroke-linejoin="bevel" stroke-miterlimit="10"/><path fill="none" stroke="black" paint-order="fill stroke markers" d=" M 44 45 L 52 45" stroke-linejoin="bevel" stroke-miterlimit="10"/><path fill="none" stroke="black" paint-order="fill stroke markers" d=" M 46 287 L 50 287" stroke-linejoin="bevel" stroke-miterlimit="10"/><path fill="none" stroke="black" paint-order="fill stroke markers" d=" M 46 277 L 50 277" stroke-linejoin="bevel" stroke-miterlimit="10"/><path fill="none" stroke="black" paint-order="fill stroke markers" d=" M 46 268 L 50 268" stroke-linejoin="bevel" stroke-miterlimit="10"/><path fill="none" stroke="black" paint-order="fill stroke markers" d=" M 46 259 L 50 259" stroke-linejoin="bevel" stroke-miterlimit="10"/><path fill="none" stroke="black" paint-order="fill stroke markers" d=" M 46 249 L 50 249" stroke-linejoin="bevel" stroke-miterlimit="10"/><path fill="none" stroke="black" paint-order="fill stroke markers" d=" M 46 240 L 50 240" stroke-linejoin="bevel" stroke-miterlimit="10"/><path fill="none" stroke="black" paint-order="fill stroke markers" d=" M 46 231 L 50 231" stroke-linejoin="bevel" stroke-miterlimit="10"/><path fill="none" stroke="black" paint-order="fill stroke markers" d=" M 46 222 L 50 222" stroke-linejoin="bevel" stroke-miterlimit="10"/><path fill="none" stroke="black" paint-order="fill stroke markers" d=" M 46 212 L 50 212" stroke-linejoin="bevel" stroke-miterlimit="10"/><path fill="none" stroke="black" paint-order="fill stroke markers" d=" M 46 203 L 50 203" stroke-linejoin="bevel" stroke-miterlimit="10"/><path fill="none" stroke="black" paint-order="fill stroke markers" d=" M 46 194 L 50 194" stroke-linejoin="bevel" stroke-miterlimit="10"/><path fill="none" stroke="black" paint-order="fill stroke markers" d=" M 46 184 L 50 184" stroke-linejoin="bevel" stroke-miterlimit="10"/><path fill="none" stroke="black" paint-order="fill stroke markers" d=" M 46 175 L 50 175" stroke-linejoin="bevel" stroke-miterlimit="10"/><path fill="none" stroke="black" paint-order="fill stroke markers" d=" M 46 166 L 50 166" stroke-linejoin="bevel" stroke-miterlimit="10"/><path fill="none" stroke="black" paint-order="fill stroke markers" d=" M 46 156 L 50 156" stroke-linejoin="bevel" stroke-miterlimit="10"/><path fill="none" stroke="black" paint-order="fill stroke markers" d=" M 46 147 L 50 147" stroke-linejoin="bevel" stroke-miterlimit="10"/><path fill="none" stroke="black" paint-order="fill stroke markers" d=" M 46 138 L 50 138" stroke-linejoin="bevel" stroke-miterlimit="10"/><path fill="none" stroke="black" paint-order="fill stroke markers" d=" M 46 128 L 50 128" stroke-linejoin="bevel" stroke-miterlimit="10"/><path fill="none" stroke="black" paint-order="fill stroke markers" d=" M 46 119 L 50 119" stroke-linejoin="bevel" stroke-miterlimit="10"/><path fill="none" stroke="black" paint-order="fill stroke markers" d=" M 46 110 L 50 110" stroke-linejoin="bevel" stroke-miterlimit="10"/><path fill="none" stroke="black" paint-order="fill stroke markers" d=" M 46 100 L 50 100" stroke-linejoin="bevel" stroke-miterlimit="10"/><path fill="none" stroke="black" paint-order="fill stroke markers" d=" M 46 91 L 50 91" stroke-linejoin="bevel" stroke-miterlimit="10"/><path fill="none" stroke="black" paint-order="fill stroke markers" d=" M 46 82 L 50 82" stroke-linejoin="bevel" stroke-miterlimit="10"/><path fill="none" stroke="black" paint-order="fill stroke markers" d=" M 46 73 L 50 73" stroke-linejoin="bevel" stroke-miterlimit="10"/><path fill="none" stroke="black" paint-order="fill stroke markers" d=" M 46 63 L 50 63" stroke-linejoin="bevel" stroke-miterlimit="10"/><path fill="none" stroke="black" paint-order="fill stroke markers" d=" M 46 54 L 50 54" stroke-linejoin="bevel" stroke-miterlimit="10"/><path fill="none" stroke="black" paint-order="fill stroke markers" d=" M 46 45 L 50 45" stroke-linejoin="bevel" stroke-miterlimit="10"/><path fill="" stroke="black" paint-order="fill stroke markers" d=" M 46 35 L 50 35" stroke-linejoin="bevel" stroke-miterlimit="10"/><g transform="translate(39,277) rotate(0,0,0)"><text fill="" stroke="none" font-family="helvetica" font-size="14pt" font-style="normal" font-weight="normal" text-decoration="normal" x="0" y="0" text-anchor="end" dominant-baseline="central">0</text><g transform="rotate(0,0,0) translate(-39,-277) translate(39,231) rotate(0,0,0)"><text fill="" stroke="none" font-family="helvetica" font-size="14pt" font-style="normal" font-weight="normal" text-decoration="normal" x="0" y="0" text-anchor="end" dominant-baseline="central">1</text><g transform="rotate(0,0,0) translate(-39,-231) translate(39,184) rotate(0,0,0)"><text fill="" stroke="none" font-family="helvetica" font-size="14pt" font-style="normal" font-weight="normal" text-decoration="normal" x="0" y="0" text-anchor="end" dominant-baseline="central">2</text><g transform="rotate(0,0,0) translate(-39,-184) translate(39,138) rotate(0,0,0)"><text fill="" stroke="none" font-family="helvetica" font-size="14pt" font-style="normal" font-weight="normal" text-decoration="normal" x="0" y="0" text-anchor="end" dominant-baseline="central">3</text><g transform="rotate(0,0,0) translate(-39,-138) translate(39,91) rotate(0,0,0)"><text fill="" stroke="none" font-family="helvetica" font-size="14pt" font-style="normal" font-weight="normal" text-decoration="normal" x="0" y="0" text-anchor="end" dominant-baseline="central">4</text><g transform="rotate(0,0,0) translate(-39,-91) translate(39,45) rotate(0,0,0)"><text fill="" stroke="none" font-family="helvetica" font-size="14pt" font-style="normal" font-weight="normal" text-decoration="normal" x="0" y="0" text-anchor="end" dominant-baseline="central">5</text><g transform="rotate(0,0,0) translate(-39,-45) translate(23,161) rotate(-90,0,0)"><text fill="" stroke="none" font-family="helvetica" font-size="14pt" font-style="italic" font-weight="normal" text-decoration="normal" x="0" y="0" text-anchor="middle" dominant-baseline="alphabetic">Number of cross-links</text><g transform="rotate(90,0,0) translate(-23,-161)"/></g></g></g></g></g></g></g></g></g><g clip-path="url(#DrHVhmgaTDTM)"><g/></g></g><g transform="scale(1,1) translate(0.5,0.5)"><rect fill="#FFFFFF" stroke="none" x="0" y="0" width="350" height="350"/><rect fill="#ffffff" stroke="none" x="0" y="0" width="350" height="350"/><rect fill="#FFFFFF" stroke="none" x="50" y="33" width="270" height="256"/><rect fill="#ffffff" stroke="none" x="50" y="33" width="270" height="256"/><g><rect fill="none" stroke="#e5e5e5" x="50" y="33" width="270" height="256" stroke-linejoin="bevel" stroke-miterlimit="10"/></g><g clip-path="url(#elWvwaxtsiRL)"><g><g><path fill="none" stroke="#e5e5e5" paint-order="fill stroke markers" d=" M 108 289 L 108 33" stroke-linejoin="bevel" stroke-miterlimit="10"/><path fill="none" stroke="#e5e5e5" paint-order="fill stroke markers" d=" M 171 289 L 171 33" stroke-linejoin="bevel" stroke-miterlimit="10"/><path fill="none" stroke="#e5e5e5" paint-order="fill stroke markers" d=" M 233 289 L 233 33" stroke-linejoin="bevel" stroke-miterlimit="10"/><path fill="none" stroke="#e5e5e5" paint-order="fill stroke markers" d=" M 296 289 L 296 33" stroke-linejoin="bevel" stroke-miterlimit="10"/></g></g></g><g clip-path="url(#RCXnNUXQBNWd)"><g><g><path fill="none" stroke="#e5e5e5" paint-order="fill stroke markers" d=" M 50 277 L 320 277" stroke-linejoin="bevel" stroke-miterlimit="10"/><path fill="none" stroke="#e5e5e5" paint-order="fill stroke markers" d=" M 50 231 L 320 231" stroke-linejoin="bevel" stroke-miterlimit="10"/><path fill="none" stroke="#e5e5e5" paint-order="fill stroke markers" d=" M 50 184 L 320 184" stroke-linejoin="bevel" stroke-miterlimit="10"/><path fill="none" stroke="#e5e5e5" paint-order="fill stroke markers" d=" M 50 138 L 320 138" stroke-linejoin="bevel" stroke-miterlimit="10"/><path fill="none" stroke="#e5e5e5" paint-order="fill stroke markers" d=" M 50 91 L 320 91" stroke-linejoin="bevel" stroke-miterlimit="10"/><path fill="none" stroke="#e5e5e5" paint-order="fill stroke markers" d=" M 50 45 L 320 45" stroke-linejoin="bevel" stroke-miterlimit="10"/></g></g></g><g clip-path="url(#BpnIaBBSWKDv)"><g><g><path fill="none" stroke="none"/><path fill="navy" stroke="none" paint-order="stroke fill markers" d=" M 62.27272727272725 230.8181818181818 L 67.18181818181816 230.8181818181818 L 67.18181818181816 277.3636363636364 L 62.27272727272725 277.3636363636364 L 62.27272727272725 230.8181818181818 Z" fill-opacity="0.3"/><path fill="none" stroke="white" paint-order="fill stroke markers" d=" M 62.27272727272725 230.8181818181818 L 67.18181818181816 230.8181818181818 L 67.18181818181816 277.3636363636364 L 62.27272727272725 277.3636363636364 L 62.27272727272725 230.8181818181818 Z" stroke-linejoin="bevel" stroke-miterlimit="10" stroke-opacity="0.3"/><path fill="navy" stroke="none" paint-order="stroke fill markers" d=" M 67.18181818181816 277.3636363636364 L 72.09090909090908 277.3636363636364 L 72.09090909090908 277.3636363636364 L 67.18181818181816 277.3636363636364 L 67.18181818181816 277.3636363636364 Z" fill-opacity="0.3"/><path fill="none" stroke="white" paint-order="fill stroke markers" d=" M 67.18181818181816 277.3636363636364 L 72.09090909090908 277.3636363636364 L 72.09090909090908 277.3636363636364 L 67.18181818181816 277.3636363636364 L 67.18181818181816 277.3636363636364 Z" stroke-linejoin="bevel" stroke-miterlimit="10" stroke-opacity="0.3"/><path fill="navy" stroke="none" paint-order="stroke fill markers" d=" M 72.09090909090908 230.8181818181818 L 76.99999999999999 230.8181818181818 L 76.99999999999999 277.3636363636364 L 72.09090909090908 277.3636363636364 L 72.09090909090908 230.8181818181818 Z" fill-opacity="0.3"/><path fill="none" stroke="white" paint-order="fill stroke markers" d=" M 72.09090909090908 230.8181818181818 L 76.99999999999999 230.8181818181818 L 76.99999999999999 277.3636363636364 L 72.09090909090908 277.3636363636364 L 72.09090909090908 230.8181818181818 Z" stroke-linejoin="bevel" stroke-miterlimit="10" stroke-opacity="0.3"/><path fill="navy" stroke="none" paint-order="stroke fill markers" d=" M 76.99999999999999 184.27272727272728 L 81.90909090909089 184.27272727272728 L 81.90909090909089 277.3636363636364 L 76.99999999999999 277.3636363636364 L 76.99999999999999 184.27272727272728 Z" fill-opacity="0.3"/><path fill="none" stroke="white" paint-order="fill stroke markers" d=" M 76.99999999999999 184.27272727272728 L 81.90909090909089 184.27272727272728 L 81.90909090909089 277.3636363636364 L 76.99999999999999 277.3636363636364 L 76.99999999999999 184.27272727272728 Z" stroke-linejoin="bevel" stroke-miterlimit="10" stroke-opacity="0.3"/><path fill="navy" stroke="none" paint-order="stroke fill markers" d=" M 81.90909090909089 184.27272727272728 L 86.8181818181818 184.27272727272728 L 86.8181818181818 277.3636363636364 L 81.90909090909089 277.3636363636364 L 81.90909090909089 184.27272727272728 Z" fill-opacity="0.3"/><path fill="none" stroke="white" paint-order="fill stroke markers" d=" M 81.90909090909089 184.27272727272728 L 86.8181818181818 184.27272727272728 L 86.8181818181818 277.3636363636364 L 81.90909090909089 277.3636363636364 L 81.90909090909089 184.27272727272728 Z" stroke-linejoin="bevel" stroke-miterlimit="10" stroke-opacity="0.3"/><path fill="navy" stroke="none" paint-order="stroke fill markers" d=" M 86.8181818181818 137.72727272727275 L 91.7272727272727 137.72727272727275 L 91.7272727272727 277.3636363636364 L 86.8181818181818 277.3636363636364 L 86.8181818181818 137.72727272727275 Z" fill-opacity="0.3"/><path fill="none" stroke="white" paint-order="fill stroke markers" d=" M 86.8181818181818 137.72727272727275 L 91.7272727272727 137.72727272727275 L 91.7272727272727 277.3636363636364 L 86.8181818181818 277.3636363636364 L 86.8181818181818 137.72727272727275 Z" stroke-linejoin="bevel" stroke-miterlimit="10" stroke-opacity="0.3"/><path fill="navy" stroke="none" paint-order="stroke fill markers" d=" M 91.7272727272727 44.636363636363626 L 96.63636363636363 44.636363636363626 L 96.63636363636363 277.3636363636364 L 91.7272727272727 277.3636363636364 L 91.7272727272727 44.636363636363626 Z" fill-opacity="0.3"/><path fill="none" stroke="white" paint-order="fill stroke markers" d=" M 91.7272727272727 44.636363636363626 L 96.63636363636363 44.636363636363626 L 96.63636363636363 277.3636363636364 L 91.7272727272727 277.3636363636364 L 91.7272727272727 44.636363636363626 Z" stroke-linejoin="bevel" stroke-miterlimit="10" stroke-opacity="0.3"/><path fill="navy" stroke="none" paint-order="stroke fill markers" d=" M 96.63636363636363 137.72727272727275 L 101.54545454545453 137.72727272727275 L 101.54545454545453 277.3636363636364 L 96.63636363636363 277.3636363636364 L 96.63636363636363 137.72727272727275 Z" fill-opacity="0.3"/><path fill="none" stroke="white" paint-order="fill stroke markers" d=" M 96.63636363636363 137.72727272727275 L 101.54545454545453 137.72727272727275 L 101.54545454545453 277.3636363636364 L 96.63636363636363 277.3636363636364 L 96.63636363636363 137.72727272727275 Z" stroke-linejoin="bevel" stroke-miterlimit="10" stroke-opacity="0.3"/><path fill="navy" stroke="none" paint-order="stroke fill markers" d=" M 101.54545454545453 44.636363636363626 L 106.45454545454544 44.636363636363626 L 106.45454545454544 277.3636363636364 L 101.54545454545453 277.3636363636364 L 101.54545454545453 44.636363636363626 Z" fill-opacity="0.3"/><path fill="none" stroke="white" paint-order="fill stroke markers" d=" M 101.54545454545453 44.636363636363626 L 106.45454545454544 44.636363636363626 L 106.45454545454544 277.3636363636364 L 101.54545454545453 277.3636363636364 L 101.54545454545453 44.636363636363626 Z" stroke-linejoin="bevel" stroke-miterlimit="10" stroke-opacity="0.3"/><path fill="navy" stroke="none" paint-order="stroke fill markers" d=" M 106.45454545454544 184.27272727272728 L 111.36363636363635 184.27272727272728 L 111.36363636363635 277.3636363636364 L 106.45454545454544 277.3636363636364 L 106.45454545454544 184.27272727272728 Z" fill-opacity="0.3"/><path fill="none" stroke="white" paint-order="fill stroke markers" d=" M 106.45454545454544 184.27272727272728 L 111.36363636363635 184.27272727272728 L 111.36363636363635 277.3636363636364 L 106.45454545454544 277.3636363636364 L 106.45454545454544 184.27272727272728 Z" stroke-linejoin="bevel" stroke-miterlimit="10" stroke-opacity="0.3"/><path fill="navy" stroke="none" paint-order="stroke fill markers" d=" M 111.36363636363635 91.18181818181819 L 116.27272727272725 91.18181818181819 L 116.27272727272725 277.3636363636364 L 111.36363636363635 277.3636363636364 L 111.36363636363635 91.18181818181819 Z" fill-opacity="0.3"/><path fill="none" stroke="white" paint-order="fill stroke markers" d=" M 111.36363636363635 91.18181818181819 L 116.27272727272725 91.18181818181819 L 116.27272727272725 277.3636363636364 L 111.36363636363635 277.3636363636364 L 111.36363636363635 91.18181818181819 Z" stroke-linejoin="bevel" stroke-miterlimit="10" stroke-opacity="0.3"/><path fill="navy" stroke="none" paint-order="stroke fill markers" d=" M 116.27272727272725 184.27272727272728 L 121.18181818181816 184.27272727272728 L 121.18181818181816 277.3636363636364 L 116.27272727272725 277.3636363636364 L 116.27272727272725 184.27272727272728 Z" fill-opacity="0.3"/><path fill="none" stroke="white" paint-order="fill stroke markers" d=" M 116.27272727272725 184.27272727272728 L 121.18181818181816 184.27272727272728 L 121.18181818181816 277.3636363636364 L 116.27272727272725 277.3636363636364 L 116.27272727272725 184.27272727272728 Z" stroke-linejoin="bevel" stroke-miterlimit="10" stroke-opacity="0.3"/><path fill="navy" stroke="none" paint-order="stroke fill markers" d=" M 121.18181818181816 230.8181818181818 L 126.09090909090907 230.8181818181818 L 126.09090909090907 277.3636363636364 L 121.18181818181816 277.3636363636364 L 121.18181818181816 230.8181818181818 Z" fill-opacity="0.3"/><path fill="none" stroke="white" paint-order="fill stroke markers" d=" M 121.18181818181816 230.8181818181818 L 126.09090909090907 230.8181818181818 L 126.09090909090907 277.3636363636364 L 121.18181818181816 277.3636363636364 L 121.18181818181816 230.8181818181818 Z" stroke-linejoin="bevel" stroke-miterlimit="10" stroke-opacity="0.3"/><path fill="navy" stroke="none" paint-order="stroke fill markers" d=" M 126.09090909090907 184.27272727272728 L 131 184.27272727272728 L 131 277.3636363636364 L 126.09090909090907 277.3636363636364 L 126.09090909090907 184.27272727272728 Z" fill-opacity="0.3"/><path fill="none" stroke="white" paint-order="fill stroke markers" d=" M 126.09090909090907 184.27272727272728 L 131 184.27272727272728 L 131 277.3636363636364 L 126.09090909090907 277.3636363636364 L 126.09090909090907 184.27272727272728 Z" stroke-linejoin="bevel" stroke-miterlimit="10" stroke-opacity="0.3"/><path fill="navy" stroke="none" paint-order="stroke fill markers" d=" M 131 230.8181818181818 L 135.90909090909088 230.8181818181818 L 135.90909090909088 277.3636363636364 L 131 277.3636363636364 L 131 230.8181818181818 Z" fill-opacity="0.3"/><path fill="none" stroke="white" paint-order="fill stroke markers" d=" M 131 230.8181818181818 L 135.90909090909088 230.8181818181818 L 135.90909090909088 277.3636363636364 L 131 277.3636363636364 L 131 230.8181818181818 Z" stroke-linejoin="bevel" stroke-miterlimit="10" stroke-opacity="0.3"/><path fill="navy" stroke="none" paint-order="stroke fill markers" d=" M 135.90909090909088 277.3636363636364 L 140.8181818181818 277.3636363636364 L 140.8181818181818 277.3636363636364 L 135.90909090909088 277.3636363636364 L 135.90909090909088 277.3636363636364 Z" fill-opacity="0.3"/><path fill="none" stroke="white" paint-order="fill stroke markers" d=" M 135.90909090909088 277.3636363636364 L 140.8181818181818 277.3636363636364 L 140.8181818181818 277.3636363636364 L 135.90909090909088 277.3636363636364 L 135.90909090909088 277.3636363636364 Z" stroke-linejoin="bevel" stroke-miterlimit="10" stroke-opacity="0.3"/><path fill="navy" stroke="none" paint-order="stroke fill markers" d=" M 140.8181818181818 277.3636363636364 L 145.72727272727272 277.3636363636364 L 145.72727272727272 277.3636363636364 L 140.8181818181818 277.3636363636364 L 140.8181818181818 277.3636363636364 Z" fill-opacity="0.3"/><path fill="none" stroke="white" paint-order="fill stroke markers" d=" M 140.8181818181818 277.3636363636364 L 145.72727272727272 277.3636363636364 L 145.72727272727272 277.3636363636364 L 140.8181818181818 277.3636363636364 L 140.8181818181818 277.3636363636364 Z" stroke-linejoin="bevel" stroke-miterlimit="10" stroke-opacity="0.3"/><path fill="navy" stroke="none" paint-order="stroke fill markers" d=" M 145.72727272727272 230.8181818181818 L 150.63636363636363 230.8181818181818 L 150.63636363636363 277.3636363636364 L 145.72727272727272 277.3636363636364 L 145.72727272727272 230.8181818181818 Z" fill-opacity="0.3"/><path fill="none" stroke="white" paint-order="fill stroke markers" d=" M 145.72727272727272 230.8181818181818 L 150.63636363636363 230.8181818181818 L 150.63636363636363 277.3636363636364 L 145.72727272727272 277.3636363636364 L 145.72727272727272 230.8181818181818 Z" stroke-linejoin="bevel" stroke-miterlimit="10" stroke-opacity="0.3"/><path fill="navy" stroke="none" paint-order="stroke fill markers" d=" M 150.63636363636363 277.3636363636364 L 155.54545454545453 277.3636363636364 L 155.54545454545453 277.3636363636364 L 150.63636363636363 277.3636363636364 L 150.63636363636363 277.3636363636364 Z" fill-opacity="0.3"/><path fill="none" stroke="white" paint-order="fill stroke markers" d=" M 150.63636363636363 277.3636363636364 L 155.54545454545453 277.3636363636364 L 155.54545454545453 277.3636363636364 L 150.63636363636363 277.3636363636364 L 150.63636363636363 277.3636363636364 Z" stroke-linejoin="bevel" stroke-miterlimit="10" stroke-opacity="0.3"/><path fill="navy" stroke="none" paint-order="stroke fill markers" d=" M 155.54545454545453 230.8181818181818 L 160.45454545454544 230.8181818181818 L 160.45454545454544 277.3636363636364 L 155.54545454545453 277.3636363636364 L 155.54545454545453 230.8181818181818 Z" fill-opacity="0.3"/><path fill="none" stroke="white" paint-order="fill stroke markers" d=" M 155.54545454545453 230.8181818181818 L 160.45454545454544 230.8181818181818 L 160.45454545454544 277.3636363636364 L 155.54545454545453 277.3636363636364 L 155.54545454545453 230.8181818181818 Z" stroke-linejoin="bevel" stroke-miterlimit="10" stroke-opacity="0.3"/><path fill="navy" stroke="none" paint-order="stroke fill markers" d=" M 160.45454545454544 277.3636363636364 L 165.36363636363635 277.3636363636364 L 165.36363636363635 277.3636363636364 L 160.45454545454544 277.3636363636364 L 160.45454545454544 277.3636363636364 Z" fill-opacity="0.3"/><path fill="none" stroke="white" paint-order="fill stroke markers" d=" M 160.45454545454544 277.3636363636364 L 165.36363636363635 277.3636363636364 L 165.36363636363635 277.3636363636364 L 160.45454545454544 277.3636363636364 L 160.45454545454544 277.3636363636364 Z" stroke-linejoin="bevel" stroke-miterlimit="10" stroke-opacity="0.3"/><path fill="navy" stroke="none" paint-order="stroke fill markers" d=" M 165.36363636363635 230.8181818181818 L 170.27272727272725 230.8181818181818 L 170.27272727272725 277.3636363636364 L 165.36363636363635 277.3636363636364 L 165.36363636363635 230.8181818181818 Z" fill-opacity="0.3"/><path fill="none" stroke="white" paint-order="fill stroke markers" d=" M 165.36363636363635 230.8181818181818 L 170.27272727272725 230.8181818181818 L 170.27272727272725 277.3636363636364 L 165.36363636363635 277.3636363636364 L 165.36363636363635 230.8181818181818 Z" stroke-linejoin="bevel" stroke-miterlimit="10" stroke-opacity="0.3"/><path fill="navy" stroke="none" paint-order="stroke fill markers" d=" M 170.27272727272725 277.3636363636364 L 175.1818181818182 277.3636363636364 L 175.1818181818182 277.3636363636364 L 170.27272727272725 277.3636363636364 L 170.27272727272725 277.3636363636364 Z" fill-opacity="0.3"/><path fill="none" stroke="white" paint-order="fill stroke markers" d=" M 170.27272727272725 277.3636363636364 L 175.1818181818182 277.3636363636364 L 175.1818181818182 277.3636363636364 L 170.27272727272725 277.3636363636364 L 170.27272727272725 277.3636363636364 Z" stroke-linejoin="bevel" stroke-miterlimit="10" stroke-opacity="0.3"/><path fill="navy" stroke="none" paint-order="stroke fill markers" d=" M 175.1818181818182 277.3636363636364 L 180.09090909090907 277.3636363636364 L 180.09090909090907 277.3636363636364 L 175.1818181818182 277.3636363636364 L 175.1818181818182 277.3636363636364 Z" fill-opacity="0.3"/><path fill="none" stroke="white" paint-order="fill stroke markers" d=" M 175.1818181818182 277.3636363636364 L 180.09090909090907 277.3636363636364 L 180.09090909090907 277.3636363636364 L 175.1818181818182 277.3636363636364 L 175.1818181818182 277.3636363636364 Z" stroke-linejoin="bevel" stroke-miterlimit="10" stroke-opacity="0.3"/><path fill="navy" stroke="none" paint-order="stroke fill markers" d=" M 180.09090909090907 277.3636363636364 L 185 277.3636363636364 L 185 277.3636363636364 L 180.09090909090907 277.3636363636364 L 180.09090909090907 277.3636363636364 Z" fill-opacity="0.3"/><path fill="none" stroke="white" paint-order="fill stroke markers" d=" M 180.09090909090907 277.3636363636364 L 185 277.3636363636364 L 185 277.3636363636364 L 180.09090909090907 277.3636363636364 L 180.09090909090907 277.3636363636364 Z" stroke-linejoin="bevel" stroke-miterlimit="10" stroke-opacity="0.3"/><path fill="navy" stroke="none" paint-order="stroke fill markers" d=" M 185 277.3636363636364 L 189.90909090909088 277.3636363636364 L 189.90909090909088 277.3636363636364 L 185 277.3636363636364 L 185 277.3636363636364 Z" fill-opacity="0.3"/><path fill="none" stroke="white" paint-order="fill stroke markers" d=" M 185 277.3636363636364 L 189.90909090909088 277.3636363636364 L 189.90909090909088 277.3636363636364 L 185 277.3636363636364 L 185 277.3636363636364 Z" stroke-linejoin="bevel" stroke-miterlimit="10" stroke-opacity="0.3"/><path fill="navy" stroke="none" paint-order="stroke fill markers" d=" M 189.90909090909088 230.8181818181818 L 194.8181818181818 230.8181818181818 L 194.8181818181818 277.3636363636364 L 189.90909090909088 277.3636363636364 L 189.90909090909088 230.8181818181818 Z" fill-opacity="0.3"/><path fill="none" stroke="white" paint-order="fill stroke markers" d=" M 189.90909090909088 230.8181818181818 L 194.8181818181818 230.8181818181818 L 194.8181818181818 277.3636363636364 L 189.90909090909088 277.3636363636364 L 189.90909090909088 230.8181818181818 Z" stroke-linejoin="bevel" stroke-miterlimit="10" stroke-opacity="0.3"/><path fill="navy" stroke="none" paint-order="stroke fill markers" d=" M 194.8181818181818 277.3636363636364 L 199.72727272727275 277.3636363636364 L 199.72727272727275 277.3636363636364 L 194.8181818181818 277.3636363636364 L 194.8181818181818 277.3636363636364 Z" fill-opacity="0.3"/><path fill="none" stroke="white" paint-order="fill stroke markers" d=" M 194.8181818181818 277.3636363636364 L 199.72727272727275 277.3636363636364 L 199.72727272727275 277.3636363636364 L 194.8181818181818 277.3636363636364 L 194.8181818181818 277.3636363636364 Z" stroke-linejoin="bevel" stroke-miterlimit="10" stroke-opacity="0.3"/><path fill="navy" stroke="none" paint-order="stroke fill markers" d=" M 199.72727272727275 91.18181818181819 L 204.63636363636363 91.18181818181819 L 204.63636363636363 277.3636363636364 L 199.72727272727275 277.3636363636364 L 199.72727272727275 91.18181818181819 Z" fill-opacity="0.3"/><path fill="none" stroke="white" paint-order="fill stroke markers" d=" M 199.72727272727275 91.18181818181819 L 204.63636363636363 91.18181818181819 L 204.63636363636363 277.3636363636364 L 199.72727272727275 277.3636363636364 L 199.72727272727275 91.18181818181819 Z" stroke-linejoin="bevel" stroke-miterlimit="10" stroke-opacity="0.3"/><path fill="navy" stroke="none" paint-order="stroke fill markers" d=" M 204.63636363636363 277.3636363636364 L 209.54545454545456 277.3636363636364 L 209.54545454545456 277.3636363636364 L 204.63636363636363 277.3636363636364 L 204.63636363636363 277.3636363636364 Z" fill-opacity="0.3"/><path fill="none" stroke="white" paint-order="fill stroke markers" d=" M 204.63636363636363 277.3636363636364 L 209.54545454545456 277.3636363636364 L 209.54545454545456 277.3636363636364 L 204.63636363636363 277.3636363636364 L 204.63636363636363 277.3636363636364 Z" stroke-linejoin="bevel" stroke-miterlimit="10" stroke-opacity="0.3"/><path fill="navy" stroke="none" paint-order="stroke fill markers" d=" M 209.54545454545456 277.3636363636364 L 214.45454545454544 277.3636363636364 L 214.45454545454544 277.3636363636364 L 209.54545454545456 277.3636363636364 L 209.54545454545456 277.3636363636364 Z" fill-opacity="0.3"/><path fill="none" stroke="white" paint-order="fill stroke markers" d=" M 209.54545454545456 277.3636363636364 L 214.45454545454544 277.3636363636364 L 214.45454545454544 277.3636363636364 L 209.54545454545456 277.3636363636364 L 209.54545454545456 277.3636363636364 Z" stroke-linejoin="bevel" stroke-miterlimit="10" stroke-opacity="0.3"/><path fill="navy" stroke="none" paint-order="stroke fill markers" d=" M 214.45454545454544 230.8181818181818 L 219.36363636363637 230.8181818181818 L 219.36363636363637 277.3636363636364 L 214.45454545454544 277.3636363636364 L 214.45454545454544 230.8181818181818 Z" fill-opacity="0.3"/><path fill="none" stroke="white" paint-order="fill stroke markers" d=" M 214.45454545454544 230.8181818181818 L 219.36363636363637 230.8181818181818 L 219.36363636363637 277.3636363636364 L 214.45454545454544 277.3636363636364 L 214.45454545454544 230.8181818181818 Z" stroke-linejoin="bevel" stroke-miterlimit="10" stroke-opacity="0.3"/><path fill="navy" stroke="none" paint-order="stroke fill markers" d=" M 219.36363636363637 277.3636363636364 L 224.27272727272725 277.3636363636364 L 224.27272727272725 277.3636363636364 L 219.36363636363637 277.3636363636364 L 219.36363636363637 277.3636363636364 Z" fill-opacity="0.3"/><path fill="none" stroke="white" paint-order="fill stroke markers" d=" M 219.36363636363637 277.3636363636364 L 224.27272727272725 277.3636363636364 L 224.27272727272725 277.3636363636364 L 219.36363636363637 277.3636363636364 L 219.36363636363637 277.3636363636364 Z" stroke-linejoin="bevel" stroke-miterlimit="10" stroke-opacity="0.3"/><path fill="navy" stroke="none" paint-order="stroke fill markers" d=" M 224.27272727272725 277.3636363636364 L 229.1818181818182 277.3636363636364 L 229.1818181818182 277.3636363636364 L 224.27272727272725 277.3636363636364 L 224.27272727272725 277.3636363636364 Z" fill-opacity="0.3"/><path fill="none" stroke="white" paint-order="fill stroke markers" d=" M 224.27272727272725 277.3636363636364 L 229.1818181818182 277.3636363636364 L 229.1818181818182 277.3636363636364 L 224.27272727272725 277.3636363636364 L 224.27272727272725 277.3636363636364 Z" stroke-linejoin="bevel" stroke-miterlimit="10" stroke-opacity="0.3"/><path fill="navy" stroke="none" paint-order="stroke fill markers" d=" M 229.1818181818182 277.3636363636364 L 234.09090909090907 277.3636363636364 L 234.09090909090907 277.3636363636364 L 229.1818181818182 277.3636363636364 L 229.1818181818182 277.3636363636364 Z" fill-opacity="0.3"/><path fill="none" stroke="white" paint-order="fill stroke markers" d=" M 229.1818181818182 277.3636363636364 L 234.09090909090907 277.3636363636364 L 234.09090909090907 277.3636363636364 L 229.1818181818182 277.3636363636364 L 229.1818181818182 277.3636363636364 Z" stroke-linejoin="bevel" stroke-miterlimit="10" stroke-opacity="0.3"/><path fill="navy" stroke="none" paint-order="stroke fill markers" d=" M 234.09090909090907 277.3636363636364 L 239 277.3636363636364 L 239 277.3636363636364 L 234.09090909090907 277.3636363636364 L 234.09090909090907 277.3636363636364 Z" fill-opacity="0.3"/><path fill="none" stroke="white" paint-order="fill stroke markers" d=" M 234.09090909090907 277.3636363636364 L 239 277.3636363636364 L 239 277.3636363636364 L 234.09090909090907 277.3636363636364 L 234.09090909090907 277.3636363636364 Z" stroke-linejoin="bevel" stroke-miterlimit="10" stroke-opacity="0.3"/><path fill="navy" stroke="none" paint-order="stroke fill markers" d=" M 239 184.27272727272728 L 243.90909090909088 184.27272727272728 L 243.90909090909088 277.3636363636364 L 239 277.3636363636364 L 239 184.27272727272728 Z" fill-opacity="0.3"/><path fill="none" stroke="white" paint-order="fill stroke markers" d=" M 239 184.27272727272728 L 243.90909090909088 184.27272727272728 L 243.90909090909088 277.3636363636364 L 239 277.3636363636364 L 239 184.27272727272728 Z" stroke-linejoin="bevel" stroke-miterlimit="10" stroke-opacity="0.3"/><path fill="navy" stroke="none" paint-order="stroke fill markers" d=" M 243.90909090909088 277.3636363636364 L 248.8181818181818 277.3636363636364 L 248.8181818181818 277.3636363636364 L 243.90909090909088 277.3636363636364 L 243.90909090909088 277.3636363636364 Z" fill-opacity="0.3"/><path fill="none" stroke="white" paint-order="fill stroke markers" d=" M 243.90909090909088 277.3636363636364 L 248.8181818181818 277.3636363636364 L 248.8181818181818 277.3636363636364 L 243.90909090909088 277.3636363636364 L 243.90909090909088 277.3636363636364 Z" stroke-linejoin="bevel" stroke-miterlimit="10" stroke-opacity="0.3"/><path fill="navy" stroke="none" paint-order="stroke fill markers" d=" M 248.8181818181818 277.3636363636364 L 253.72727272727275 277.3636363636364 L 253.72727272727275 277.3636363636364 L 248.8181818181818 277.3636363636364 L 248.8181818181818 277.3636363636364 Z" fill-opacity="0.3"/><path fill="none" stroke="white" paint-order="fill stroke markers" d=" M 248.8181818181818 277.3636363636364 L 253.72727272727275 277.3636363636364 L 253.72727272727275 277.3636363636364 L 248.8181818181818 277.3636363636364 L 248.8181818181818 277.3636363636364 Z" stroke-linejoin="bevel" stroke-miterlimit="10" stroke-opacity="0.3"/><path fill="navy" stroke="none" paint-order="stroke fill markers" d=" M 253.72727272727275 277.3636363636364 L 258.6363636363636 277.3636363636364 L 258.6363636363636 277.3636363636364 L 253.72727272727275 277.3636363636364 L 253.72727272727275 277.3636363636364 Z" fill-opacity="0.3"/><path fill="none" stroke="white" paint-order="fill stroke markers" d=" M 253.72727272727275 277.3636363636364 L 258.6363636363636 277.3636363636364 L 258.6363636363636 277.3636363636364 L 253.72727272727275 277.3636363636364 L 253.72727272727275 277.3636363636364 Z" stroke-linejoin="bevel" stroke-miterlimit="10" stroke-opacity="0.3"/><path fill="navy" stroke="none" paint-order="stroke fill markers" d=" M 258.6363636363636 277.3636363636364 L 263.54545454545456 277.3636363636364 L 263.54545454545456 277.3636363636364 L 258.6363636363636 277.3636363636364 L 258.6363636363636 277.3636363636364 Z" fill-opacity="0.3"/><path fill="none" stroke="white" paint-order="fill stroke markers" d=" M 258.6363636363636 277.3636363636364 L 263.54545454545456 277.3636363636364 L 263.54545454545456 277.3636363636364 L 258.6363636363636 277.3636363636364 L 258.6363636363636 277.3636363636364 Z" stroke-linejoin="bevel" stroke-miterlimit="10" stroke-opacity="0.3"/><path fill="navy" stroke="none" paint-order="stroke fill markers" d=" M 263.54545454545456 230.8181818181818 L 268.4545454545455 230.8181818181818 L 268.4545454545455 277.3636363636364 L 263.54545454545456 277.3636363636364 L 263.54545454545456 230.8181818181818 Z" fill-opacity="0.3"/><path fill="none" stroke="white" paint-order="fill stroke markers" d=" M 263.54545454545456 230.8181818181818 L 268.4545454545455 230.8181818181818 L 268.4545454545455 277.3636363636364 L 263.54545454545456 277.3636363636364 L 263.54545454545456 230.8181818181818 Z" stroke-linejoin="bevel" stroke-miterlimit="10" stroke-opacity="0.3"/><path fill="navy" stroke="none" paint-order="stroke fill markers" d=" M 268.4545454545455 277.3636363636364 L 273.3636363636364 277.3636363636364 L 273.3636363636364 277.3636363636364 L 268.4545454545455 277.3636363636364 L 268.4545454545455 277.3636363636364 Z" fill-opacity="0.3"/><path fill="none" stroke="white" paint-order="fill stroke markers" d=" M 268.4545454545455 277.3636363636364 L 273.3636363636364 277.3636363636364 L 273.3636363636364 277.3636363636364 L 268.4545454545455 277.3636363636364 L 268.4545454545455 277.3636363636364 Z" stroke-linejoin="bevel" stroke-miterlimit="10" stroke-opacity="0.3"/><path fill="navy" stroke="none" paint-order="stroke fill markers" d=" M 273.3636363636364 277.3636363636364 L 278.2727272727273 277.3636363636364 L 278.2727272727273 277.3636363636364 L 273.3636363636364 277.3636363636364 L 273.3636363636364 277.3636363636364 Z" fill-opacity="0.3"/><path fill="none" stroke="white" paint-order="fill stroke markers" d=" M 273.3636363636364 277.3636363636364 L 278.2727272727273 277.3636363636364 L 278.2727272727273 277.3636363636364 L 273.3636363636364 277.3636363636364 L 273.3636363636364 277.3636363636364 Z" stroke-linejoin="bevel" stroke-miterlimit="10" stroke-opacity="0.3"/><path fill="navy" stroke="none" paint-order="stroke fill markers" d=" M 278.2727272727273 277.3636363636364 L 283.1818181818182 277.3636363636364 L 283.1818181818182 277.3636363636364 L 278.2727272727273 277.3636363636364 L 278.2727272727273 277.3636363636364 Z" fill-opacity="0.3"/><path fill="none" stroke="white" paint-order="fill stroke markers" d=" M 278.2727272727273 277.3636363636364 L 283.1818181818182 277.3636363636364 L 283.1818181818182 277.3636363636364 L 278.2727272727273 277.3636363636364 L 278.2727272727273 277.3636363636364 Z" stroke-linejoin="bevel" stroke-miterlimit="10" stroke-opacity="0.3"/><path fill="navy" stroke="none" paint-order="stroke fill markers" d=" M 283.1818181818182 277.3636363636364 L 288.0909090909091 277.3636363636364 L 288.0909090909091 277.3636363636364 L 283.1818181818182 277.3636363636364 L 283.1818181818182 277.3636363636364 Z" fill-opacity="0.3"/><path fill="none" stroke="white" paint-order="fill stroke markers" d=" M 283.1818181818182 277.3636363636364 L 288.0909090909091 277.3636363636364 L 288.0909090909091 277.3636363636364 L 283.1818181818182 277.3636363636364 L 283.1818181818182 277.3636363636364 Z" stroke-linejoin="bevel" stroke-miterlimit="10" stroke-opacity="0.3"/><path fill="navy" stroke="none" paint-order="stroke fill markers" d=" M 288.0909090909091 277.3636363636364 L 293 277.3636363636364 L 293 277.3636363636364 L 288.0909090909091 277.3636363636364 L 288.0909090909091 277.3636363636364 Z" fill-opacity="0.3"/><path fill="none" stroke="white" paint-order="fill stroke markers" d=" M 288.0909090909091 277.3636363636364 L 293 277.3636363636364 L 293 277.3636363636364 L 288.0909090909091 277.3636363636364 L 288.0909090909091 277.3636363636364 Z" stroke-linejoin="bevel" stroke-miterlimit="10" stroke-opacity="0.3"/><path fill="navy" stroke="none" paint-order="stroke fill markers" d=" M 293 277.3636363636364 L 297.90909090909093 277.3636363636364 L 297.90909090909093 277.3636363636364 L 293 277.3636363636364 L 293 277.3636363636364 Z" fill-opacity="0.3"/><path fill="none" stroke="white" paint-order="fill stroke markers" d=" M 293 277.3636363636364 L 297.90909090909093 277.3636363636364 L 297.90909090909093 277.3636363636364 L 293 277.3636363636364 L 293 277.3636363636364 Z" stroke-linejoin="bevel" stroke-miterlimit="10" stroke-opacity="0.3"/><path fill="navy" stroke="none" paint-order="stroke fill markers" d=" M 297.90909090909093 277.3636363636364 L 302.81818181818187 277.3636363636364 L 302.81818181818187 277.3636363636364 L 297.90909090909093 277.3636363636364 L 297.90909090909093 277.3636363636364 Z" fill-opacity="0.3"/><path fill="none" stroke="white" paint-order="fill stroke markers" d=" M 297.90909090909093 277.3636363636364 L 302.81818181818187 277.3636363636364 L 302.81818181818187 277.3636363636364 L 297.90909090909093 277.3636363636364 L 297.90909090909093 277.3636363636364 Z" stroke-linejoin="bevel" stroke-miterlimit="10" stroke-opacity="0.3"/><path fill="navy" stroke="none" paint-order="stroke fill markers" d=" M 302.81818181818187 230.8181818181818 L 307.72727272727275 230.8181818181818 L 307.72727272727275 277.3636363636364 L 302.81818181818187 277.3636363636364 L 302.81818181818187 230.8181818181818 Z" fill-opacity="0.3"/><path fill="none" stroke="white" paint-order="fill stroke markers" d=" M 302.81818181818187 230.8181818181818 L 307.72727272727275 230.8181818181818 L 307.72727272727275 277.3636363636364 L 302.81818181818187 277.3636363636364 L 302.81818181818187 230.8181818181818 Z" stroke-linejoin="bevel" stroke-miterlimit="10" stroke-opacity="0.3"/></g></g></g><g clip-path="url(#mPQtHoiqFgOl)"><g><g><path fill="none" stroke="red" paint-order="fill stroke markers" d=" M 139.37545540108113 33 L 139.37545540108113 289" stroke-linejoin="bevel" stroke-miterlimit="10" stroke-width="3" stroke-dasharray="6"/></g></g></g><g><g fill="#444444"><path fill="" stroke="none" d=""/><g transform="translate(185,5)"><path fill="none" stroke="none"/><text fill="" stroke="none" font-family="helvetica" font-size="12pt" font-style="normal" font-weight="bold" text-decoration="normal" x="0" y="0" text-anchor="middle" dominant-baseline="text-before-edge">Intermediate regions/Linker DSS</text></g></g></g><g/><g><g fill="#444444"><path fill="none" stroke="black" paint-order="fill stroke markers" d=" M 50 289 L 320 289" stroke-linejoin="bevel" stroke-miterlimit="10"/><path fill="none" stroke="black" paint-order="fill stroke markers" d=" M 108 295 L 108 287" stroke-linejoin="bevel" stroke-miterlimit="10"/><path fill="none" stroke="black" paint-order="fill stroke markers" d=" M 171 295 L 171 287" stroke-linejoin="bevel" stroke-miterlimit="10"/><path fill="none" stroke="black" paint-order="fill stroke markers" d=" M 233 295 L 233 287" stroke-linejoin="bevel" stroke-miterlimit="10"/><path fill="none" stroke="black" paint-order="fill stroke markers" d=" M 296 295 L 296 287" stroke-linejoin="bevel" stroke-miterlimit="10"/><path fill="none" stroke="black" paint-order="fill stroke markers" d=" M 95 293 L 95 289" stroke-linejoin="bevel" stroke-miterlimit="10"/><path fill="none" stroke="black" paint-order="fill stroke markers" d=" M 83 293 L 83 289" stroke-linejoin="bevel" stroke-miterlimit="10"/><path fill="none" stroke="black" paint-order="fill stroke markers" d=" M 70 293 L 70 289" stroke-linejoin="bevel" stroke-miterlimit="10"/><path fill="none" stroke="black" paint-order="fill stroke markers" d=" M 58 293 L 58 289" stroke-linejoin="bevel" stroke-miterlimit="10"/><path fill="none" stroke="black" paint-order="fill stroke markers" d=" M 108 293 L 108 289" stroke-linejoin="bevel" stroke-miterlimit="10"/><path fill="none" stroke="black" paint-order="fill stroke markers" d=" M 121 293 L 121 289" stroke-linejoin="bevel" stroke-miterlimit="10"/><path fill="none" stroke="black" paint-order="fill stroke markers" d=" M 133 293 L 133 289" stroke-linejoin="bevel" stroke-miterlimit="10"/><path fill="none" stroke="black" paint-order="fill stroke markers" d=" M 146 293 L 146 289" stroke-linejoin="bevel" stroke-miterlimit="10"/><path fill="none" stroke="black" paint-order="fill stroke markers" d=" M 158 293 L 158 289" stroke-linejoin="bevel" stroke-miterlimit="10"/><path fill="none" stroke="black" paint-order="fill stroke markers" d=" M 171 293 L 171 289" stroke-linejoin="bevel" stroke-miterlimit="10"/><path fill="none" stroke="black" paint-order="fill stroke markers" d=" M 183 293 L 183 289" stroke-linejoin="bevel" stroke-miterlimit="10"/><path fill="none" stroke="black" paint-order="fill stroke markers" d=" M 196 293 L 196 289" stroke-linejoin="bevel" stroke-miterlimit="10"/><path fill="none" stroke="black" paint-order="fill stroke markers" d=" M 208 293 L 208 289" stroke-linejoin="bevel" stroke-miterlimit="10"/><path fill="none" stroke="black" paint-order="fill stroke markers" d=" M 221 293 L 221 289" stroke-linejoin="bevel" stroke-miterlimit="10"/><path fill="none" stroke="black" paint-order="fill stroke markers" d=" M 233 293 L 233 289" stroke-linejoin="bevel" stroke-miterlimit="10"/><path fill="none" stroke="black" paint-order="fill stroke markers" d=" M 246 293 L 246 289" stroke-linejoin="bevel" stroke-miterlimit="10"/><path fill="none" stroke="black" paint-order="fill stroke markers" d=" M 259 293 L 259 289" stroke-linejoin="bevel" stroke-miterlimit="10"/><path fill="none" stroke="black" paint-order="fill stroke markers" d=" M 271 293 L 271 289" stroke-linejoin="bevel" stroke-miterlimit="10"/><path fill="none" stroke="black" paint-order="fill stroke markers" d=" M 284 293 L 284 289" stroke-linejoin="bevel" stroke-miterlimit="10"/><path fill="none" stroke="black" paint-order="fill stroke markers" d=" M 296 293 L 296 289" stroke-linejoin="bevel" stroke-miterlimit="10"/><path fill="" stroke="black" paint-order="fill stroke markers" d=" M 309 293 L 309 289" stroke-linejoin="bevel" stroke-miterlimit="10"/><g transform="translate(108,300) rotate(0,0,0)"><text fill="" stroke="none" font-family="helvetica" font-size="14pt" font-style="normal" font-weight="normal" text-decoration="normal" x="0" y="0" text-anchor="middle" dominant-baseline="hanging">20</text><g transform="rotate(0,0,0) translate(-108,-300) translate(171,300) rotate(0,0,0)"><text fill="" stroke="none" font-family="helvetica" font-size="14pt" font-style="normal" font-weight="normal" text-decoration="normal" x="0" y="0" text-anchor="middle" dominant-baseline="hanging">40</text><g transform="rotate(0,0,0) translate(-171,-300) translate(233,300) rotate(0,0,0)"><text fill="" stroke="none" font-family="helvetica" font-size="14pt" font-style="normal" font-weight="normal" text-decoration="normal" x="0" y="0" text-anchor="middle" dominant-baseline="hanging">60</text><g transform="rotate(0,0,0) translate(-233,-300) translate(296,300) rotate(0,0,0)"><text fill="" stroke="none" font-family="helvetica" font-size="14pt" font-style="normal" font-weight="normal" text-decoration="normal" x="0" y="0" text-anchor="middle" dominant-baseline="hanging">80</text><g transform="rotate(0,0,0) translate(-296,-300) translate(185,327) rotate(0,0,0)"><text fill="" stroke="none" font-family="helvetica" font-size="14pt" font-style="italic" font-weight="normal" text-decoration="normal" x="0" y="0" text-anchor="middle" dominant-baseline="hanging">Distance Å</text><g transform="rotate(0,0,0) translate(-185,-327)"/></g></g></g></g></g></g></g><g><g fill="#444444"><path fill="none" stroke="black" paint-order="fill stroke markers" d=" M 50 289 L 50 33" stroke-linejoin="bevel" stroke-miterlimit="10"/><path fill="none" stroke="black" paint-order="fill stroke markers" d=" M 44 277 L 52 277" stroke-linejoin="bevel" stroke-miterlimit="10"/><path fill="none" stroke="black" paint-order="fill stroke markers" d=" M 44 231 L 52 231" stroke-linejoin="bevel" stroke-miterlimit="10"/><path fill="none" stroke="black" paint-order="fill stroke markers" d=" M 44 184 L 52 184" stroke-linejoin="bevel" stroke-miterlimit="10"/><path fill="none" stroke="black" paint-order="fill stroke markers" d=" M 44 138 L 52 138" stroke-linejoin="bevel" stroke-miterlimit="10"/><path fill="none" stroke="black" paint-order="fill stroke markers" d=" M 44 91 L 52 91" stroke-linejoin="bevel" stroke-miterlimit="10"/><path fill="none" stroke="black" paint-order="fill stroke markers" d=" M 44 45 L 52 45" stroke-linejoin="bevel" stroke-miterlimit="10"/><path fill="none" stroke="black" paint-order="fill stroke markers" d=" M 46 287 L 50 287" stroke-linejoin="bevel" stroke-miterlimit="10"/><path fill="none" stroke="black" paint-order="fill stroke markers" d=" M 46 277 L 50 277" stroke-linejoin="bevel" stroke-miterlimit="10"/><path fill="none" stroke="black" paint-order="fill stroke markers" d=" M 46 268 L 50 268" stroke-linejoin="bevel" stroke-miterlimit="10"/><path fill="none" stroke="black" paint-order="fill stroke markers" d=" M 46 259 L 50 259" stroke-linejoin="bevel" stroke-miterlimit="10"/><path fill="none" stroke="black" paint-order="fill stroke markers" d=" M 46 249 L 50 249" stroke-linejoin="bevel" stroke-miterlimit="10"/><path fill="none" stroke="black" paint-order="fill stroke markers" d=" M 46 240 L 50 240" stroke-linejoin="bevel" stroke-miterlimit="10"/><path fill="none" stroke="black" paint-order="fill stroke markers" d=" M 46 231 L 50 231" stroke-linejoin="bevel" stroke-miterlimit="10"/><path fill="none" stroke="black" paint-order="fill stroke markers" d=" M 46 222 L 50 222" stroke-linejoin="bevel" stroke-miterlimit="10"/><path fill="none" stroke="black" paint-order="fill stroke markers" d=" M 46 212 L 50 212" stroke-linejoin="bevel" stroke-miterlimit="10"/><path fill="none" stroke="black" paint-order="fill stroke markers" d=" M 46 203 L 50 203" stroke-linejoin="bevel" stroke-miterlimit="10"/><path fill="none" stroke="black" paint-order="fill stroke markers" d=" M 46 194 L 50 194" stroke-linejoin="bevel" stroke-miterlimit="10"/><path fill="none" stroke="black" paint-order="fill stroke markers" d=" M 46 184 L 50 184" stroke-linejoin="bevel" stroke-miterlimit="10"/><path fill="none" stroke="black" paint-order="fill stroke markers" d=" M 46 175 L 50 175" stroke-linejoin="bevel" stroke-miterlimit="10"/><path fill="none" stroke="black" paint-order="fill stroke markers" d=" M 46 166 L 50 166" stroke-linejoin="bevel" stroke-miterlimit="10"/><path fill="none" stroke="black" paint-order="fill stroke markers" d=" M 46 156 L 50 156" stroke-linejoin="bevel" stroke-miterlimit="10"/><path fill="none" stroke="black" paint-order="fill stroke markers" d=" M 46 147 L 50 147" stroke-linejoin="bevel" stroke-miterlimit="10"/><path fill="none" stroke="black" paint-order="fill stroke markers" d=" M 46 138 L 50 138" stroke-linejoin="bevel" stroke-miterlimit="10"/><path fill="none" stroke="black" paint-order="fill stroke markers" d=" M 46 128 L 50 128" stroke-linejoin="bevel" stroke-miterlimit="10"/><path fill="none" stroke="black" paint-order="fill stroke markers" d=" M 46 119 L 50 119" stroke-linejoin="bevel" stroke-miterlimit="10"/><path fill="none" stroke="black" paint-order="fill stroke markers" d=" M 46 110 L 50 110" stroke-linejoin="bevel" stroke-miterlimit="10"/><path fill="none" stroke="black" paint-order="fill stroke markers" d=" M 46 100 L 50 100" stroke-linejoin="bevel" stroke-miterlimit="10"/><path fill="none" stroke="black" paint-order="fill stroke markers" d=" M 46 91 L 50 91" stroke-linejoin="bevel" stroke-miterlimit="10"/><path fill="none" stroke="black" paint-order="fill stroke markers" d=" M 46 82 L 50 82" stroke-linejoin="bevel" stroke-miterlimit="10"/><path fill="none" stroke="black" paint-order="fill stroke markers" d=" M 46 73 L 50 73" stroke-linejoin="bevel" stroke-miterlimit="10"/><path fill="none" stroke="black" paint-order="fill stroke markers" d=" M 46 63 L 50 63" stroke-linejoin="bevel" stroke-miterlimit="10"/><path fill="none" stroke="black" paint-order="fill stroke markers" d=" M 46 54 L 50 54" stroke-linejoin="bevel" stroke-miterlimit="10"/><path fill="none" stroke="black" paint-order="fill stroke markers" d=" M 46 45 L 50 45" stroke-linejoin="bevel" stroke-miterlimit="10"/><path fill="" stroke="black" paint-order="fill stroke markers" d=" M 46 35 L 50 35" stroke-linejoin="bevel" stroke-miterlimit="10"/><g transform="translate(39,277) rotate(0,0,0)"><text fill="" stroke="none" font-family="helvetica" font-size="14pt" font-style="normal" font-weight="normal" text-decoration="normal" x="0" y="0" text-anchor="end" dominant-baseline="central">0</text><g transform="rotate(0,0,0) translate(-39,-277) translate(39,231) rotate(0,0,0)"><text fill="" stroke="none" font-family="helvetica" font-size="14pt" font-style="normal" font-weight="normal" text-decoration="normal" x="0" y="0" text-anchor="end" dominant-baseline="central">1</text><g transform="rotate(0,0,0) translate(-39,-231) translate(39,184) rotate(0,0,0)"><text fill="" stroke="none" font-family="helvetica" font-size="14pt" font-style="normal" font-weight="normal" text-decoration="normal" x="0" y="0" text-anchor="end" dominant-baseline="central">2</text><g transform="rotate(0,0,0) translate(-39,-184) translate(39,138) rotate(0,0,0)"><text fill="" stroke="none" font-family="helvetica" font-size="14pt" font-style="normal" font-weight="normal" text-decoration="normal" x="0" y="0" text-anchor="end" dominant-baseline="central">3</text><g transform="rotate(0,0,0) translate(-39,-138) translate(39,91) rotate(0,0,0)"><text fill="" stroke="none" font-family="helvetica" font-size="14pt" font-style="normal" font-weight="normal" text-decoration="normal" x="0" y="0" text-anchor="end" dominant-baseline="central">4</text><g transform="rotate(0,0,0) translate(-39,-91) translate(39,45) rotate(0,0,0)"><text fill="" stroke="none" font-family="helvetica" font-size="14pt" font-style="normal" font-weight="normal" text-decoration="normal" x="0" y="0" text-anchor="end" dominant-baseline="central">5</text><g transform="rotate(0,0,0) translate(-39,-45) translate(23,161) rotate(-90,0,0)"><text fill="" stroke="none" font-family="helvetica" font-size="14pt" font-style="italic" font-weight="normal" text-decoration="normal" x="0" y="0" text-anchor="middle" dominant-baseline="alphabetic">Number of cross-links</text><g transform="rotate(90,0,0) translate(-23,-161)"/></g></g></g></g></g></g></g></g></g><g clip-path="url(#iIErpwbrUKbQ)"><g/></g></g></g></svg>